<?xml version="1.0" encoding="iso-8859-1"?>
<!-- Generator: Adobe Illustrator 21.0.2, SVG Export Plug-In . SVG Version: 6.00 Build 0)  -->
<svg version="1.1" xmlns="http://www.w3.org/2000/svg" xmlns:xlink="http://www.w3.org/1999/xlink" x="0px" y="0px"
	 viewBox="0 0 208.915 176.738" style="enable-background:new 0 0 208.915 176.738;" xml:space="preserve">
<g id="_x31_">
	<g>
		<path style="fill:#E0DFE6;" d="M147.39,57.325c-2.462-2.813-5.631-2.051-7.526,0.091c-1.814-3.041-4.014-5.837-6.542-8.219
			c-0.957-0.902-2.6-0.015-2.237,1.302c3.911,14.154,8.585,29.108-4.219,40.077c-2.144,1.836-2.036,4.479-0.805,6.511
			c-2.596,1.692-5.591,2.951-8.951,3.72c-9.202,2.105-24.116,1.705-30.661-6.139c-1.174-1.407-3.544,0.101-3.026,1.762
			c2.804,8.979,11.311,13.288,20.372,14.713c-1.204,0.245-2.399,0.481-3.566,0.703c-1.509,0.287-0.96,2.327,0.335,2.474
			c17.599,1.994,35.619,1.318,48.233-13.02C160.455,88.048,158.555,70.08,147.39,57.325z"/>
		<path style="fill:#E0DFE6;" d="M202.911,97.53c-1.964-18.406-3.297-39.585-10.741-56.688c-0.234-0.539-1.095-0.362-1.223,0.16
			c-3.423,13.998-2.58,29.612-1.651,44.418c-2.176,8.936-3.507,17.907-4.372,27.153c-0.4,4.273-0.778,8.697-0.996,13.15
			c-0.707,0.079-1.414,0.159-2.121,0.238c-0.666-2.117-2.391-3.874-5.214-3.959c-21.63-0.648-43.251-1.646-64.884-2.186
			c-20.873-0.521-41.856-1.578-62.432,2.456c-1.137,0.223-1.116,2.038,0,2.277c20.51,4.391,41.542,4.154,62.432,5.034
			c8.751,0.369,17.499,0.766,26.244,1.232c-7.306,0.727-14.617,1.386-21.937,1.902c-11.153,0.786-22.251,0.854-33.426,0.673
			c-11.085-0.18-23.341-1.976-34.155,0.935c-1.36,0.366-1.787,2.499-0.414,3.165c9.571,4.643,21.305,5.255,31.757,6.295
			c3.349,0.333,6.706,0.581,10.068,0.765c-3.988-0.028-7.976-0.06-11.965-0.071c-12.107-0.033-24.527-0.719-36.33,2.477
			c-2.423,0.656-2.211,3.956,0,4.706c11.192,3.795,23.218,3.875,34.903,4.414c5.566,0.257,11.133,0.466,16.701,0.661
			c-10.502,3.309-20.842,7.369-29.497,13.277c-0.955,0.652-0.663,2.291,0.616,2.274c18.011-0.248,36.604-6.135,54.256-9.447
			c2.998-0.563,4.404-2.749,4.569-5.148c22.515,0.64,45.049,0.807,67.571,0.933c0.347,0.002,0.677-0.024,0.997-0.063
			c3.453,1.283,7.778,0.188,8.931-4.404C205.274,135.537,204.935,116.498,202.911,97.53z M114.998,144.664
			c-0.345,0-0.691-0.004-1.036-0.004c0.23-0.01,0.46-0.016,0.69-0.027c23.119-1.085,46.238-3.44,69.321-5.212
			c0.122,1.802,0.279,3.595,0.523,5.358C161.33,144.829,138.165,144.634,114.998,144.664z"/>
		<g>
			<g>
				<path style="fill:#525D7D;" d="M185.511,127.037c-0.044,0-0.089-0.001-0.134-0.004c-21.016-1.308-78.844-4.449-161.71-5.363
					c-1.16-0.013-2.103-0.94-2.135-2.101c-0.188-6.972-0.284-14.143-0.284-21.316c0-23.306,0.985-47.937,3.013-75.301
					c0.043-0.572,0.311-1.104,0.746-1.478c0.434-0.373,0.994-0.559,1.573-0.515c13.893,1.07,28.088,1.231,41.816,1.387
					c15.78,0.179,32.098,0.364,48.341,1.911c12.072,1.15,24.258,2.404,36.042,3.618c11.274,1.16,22.932,2.361,34.416,3.461
					c1.133,0.108,1.987,1.078,1.952,2.215l-0.304,9.778c-0.658,20.98-1.337,42.674-1.337,63.995c0,6.05,0.055,11.942,0.163,17.511
					c0.012,0.603-0.229,1.184-0.665,1.601C186.602,126.823,186.066,127.037,185.511,127.037z M25.796,117.375
					c78.979,0.912,134.93,3.833,157.515,5.204c-0.082-4.898-0.122-10.018-0.122-15.255c0-21.388,0.681-43.117,1.34-64.131
					l0.241-7.753c-10.845-1.048-21.808-2.177-32.431-3.271c-11.776-1.212-23.953-2.466-36.009-3.615
					c-16.064-1.529-32.29-1.713-47.981-1.892c-13.09-0.148-26.602-0.302-39.938-1.24c-1.913,26.399-2.844,50.243-2.844,72.83
					C25.567,104.676,25.644,111.098,25.796,117.375z"/>
			</g>
			<g>
				<path style="fill:#525D7D;" d="M184.864,137.229c-6.592-0.066-13.163-0.123-19.734-0.181
					c-45.252-0.396-92.046-0.805-138.102-4.029c-1.189-0.084-2.086-1.115-2.003-2.305c0.084-1.189,1.101-2.097,2.305-2.002
					c45.923,3.214,92.65,3.623,137.837,4.019c6.572,0.058,13.145,0.115,19.717,0.181c1.192,0.012,2.149,0.988,2.137,2.181
					C187.01,136.277,186.046,137.229,184.864,137.229z"/>
			</g>
			<g>
				<path style="fill:#525D7D;" d="M109.68,148.08c-26.099,0-52.141-0.954-77.404-2.835c-1.189-0.089-2.081-1.124-1.993-2.314
					c0.089-1.188,1.122-2.072,2.314-1.993c25.157,1.874,51.091,2.823,77.084,2.823c23.457,0,47.468-0.773,71.366-2.299
					c1.201-0.06,2.217,0.827,2.293,2.017c0.076,1.191-0.827,2.217-2.017,2.292C157.331,147.303,133.227,148.08,109.68,148.08z"/>
			</g>
			<g>
				<path style="fill:#525D7D;" d="M13.515,98.998c-0.85,0-1.657-0.506-1.999-1.342C8.42,90.088,4.835,82.334,0.234,73.252
					c-0.531-1.048-0.127-2.328,0.909-2.881c4.694-2.503,9.518-4.885,14.184-7.19c2.638-1.304,5.274-2.605,7.893-3.931
					c1.061-0.538,2.363-0.112,2.901,0.952c0.538,1.063,0.113,2.363-0.952,2.901c-2.631,1.332-5.279,2.64-7.93,3.949
					c-4.017,1.984-8.151,4.026-12.198,6.144c4.202,8.382,7.549,15.681,10.471,22.825c0.452,1.103-0.077,2.364-1.181,2.815
					C14.064,98.946,13.787,98.998,13.515,98.998z"/>
			</g>
			<g>
				<path style="fill:#525D7D;" d="M53.822,176.738c-0.186,0-0.371-0.024-0.553-0.072c-0.555-0.147-1.028-0.509-1.316-1.006
					l-1.097-1.893c-3.858-6.656-7.848-13.537-10.948-20.901c-0.463-1.099,0.053-2.365,1.152-2.827
					c1.096-0.463,2.365,0.051,2.827,1.152c2.995,7.111,6.74,13.571,10.705,20.411c6.446-3.539,13.2-6.491,19.751-9.355
					c7.22-3.156,14.686-6.42,21.652-10.504c1.028-0.604,2.352-0.258,2.955,0.77c0.603,1.029,0.258,2.352-0.77,2.955
					c-7.186,4.213-14.771,7.529-22.106,10.735c-7.081,3.096-14.404,6.297-21.162,10.242
					C54.577,176.638,54.201,176.738,53.822,176.738z"/>
			</g>
			<g>
				<path style="fill:#525D7D;" d="M191.698,112.664c-0.777,0-1.526-0.42-1.913-1.154c-0.555-1.056-0.15-2.361,0.905-2.917
					c3.563-1.875,7.125-3.923,10.57-5.904c0.836-0.48,1.67-0.96,2.504-1.437c-6.817-11.334-13.861-23.387-19.675-35.863
					c-0.504-1.081-0.037-2.366,1.044-2.869c1.082-0.505,2.365-0.037,2.869,1.044c6.051,12.981,13.495,25.571,20.602,37.353
					c0.302,0.5,0.388,1.099,0.24,1.663c-0.148,0.564-0.518,1.044-1.025,1.331c-1.468,0.832-2.936,1.676-4.407,2.521
					c-3.479,2.001-7.077,4.07-10.711,5.983C192.381,112.583,192.037,112.664,191.698,112.664z"/>
			</g>
			<g>
				<path style="fill:#525D7D;" d="M105.469,27.707c-0.815,0-1.595-0.464-1.96-1.252c-0.502-1.082-0.032-2.365,1.051-2.867
					c13.709-6.358,28.341-13.559,47.443-23.35c0.98-0.504,2.181-0.187,2.787,0.734c2.526,3.833,4.776,7.915,6.954,11.861
					c1.491,2.704,2.899,5.258,4.394,7.749c0.614,1.023,0.282,2.349-0.74,2.962c-1.023,0.614-2.35,0.283-2.962-0.74
					c-1.536-2.559-3.029-5.267-4.473-7.886c-1.827-3.312-3.706-6.72-5.733-9.946c-18.308,9.366-32.51,16.345-45.854,22.532
					C106.082,27.642,105.773,27.707,105.469,27.707z"/>
			</g>
			<g>
				<path style="fill:#525D7D;" d="M111.019,114.288c-23.885,0-40.567-16.236-40.567-39.482c0-21.533,14.436-34.347,27.848-37.14
					c1.755-0.366,3.662-0.544,5.828-0.544c27.99,0,43.093,19.446,43.093,37.743C147.222,96.235,130.643,114.288,111.019,114.288z
					 M104.128,41.44c-1.867,0-3.485,0.148-4.947,0.453C87.424,44.342,74.77,55.686,74.77,74.806
					c0,21.033,14.567,35.164,36.249,35.164c19.072,0,31.885-18.152,31.885-35.105C142.904,58.662,129.314,41.44,104.128,41.44z"/>
			</g>
			<g>
				<path style="fill:#525D7D;" d="M52.449,105.613c-2.278,0-4.61-0.167-6.865-0.327c-1.757-0.125-3.574-0.254-5.32-0.301
					c-1.17-0.031-2.102-0.988-2.102-2.158V84.223c0-1.193,0.966-2.159,2.159-2.159s2.159,0.966,2.159,2.159v16.532
					c1.148,0.062,2.292,0.144,3.411,0.224c2.281,0.162,4.434,0.316,6.558,0.316c0.944,0,1.796-0.03,2.606-0.093
					c1.177-0.099,2.227,0.798,2.319,1.987c0.091,1.189-0.798,2.227-1.987,2.319C54.465,105.578,53.505,105.613,52.449,105.613z"/>
			</g>
			<g>
				<path style="fill:#525D7D;" d="M39.795,57.474c-1.193,0-2.159-0.966-2.159-2.159V38.143c0-0.592,0.243-1.158,0.673-1.566
					c0.43-0.408,1.014-0.618,1.599-0.59c0.98,0.051,1.955,0.109,2.928,0.167c2.865,0.17,5.572,0.33,8.367,0.33
					c1.496,0,2.872-0.046,4.206-0.142c1.191-0.07,2.223,0.81,2.308,1.999c0.085,1.189-0.81,2.222-1.999,2.307
					c-1.438,0.103-2.915,0.153-4.515,0.153c-2.923,0-5.821-0.171-8.622-0.338c-0.209-0.012-0.417-0.024-0.626-0.036v14.888
					C41.954,56.508,40.987,57.474,39.795,57.474z"/>
			</g>
			<g>
				<path style="fill:#525D7D;" d="M172.251,62.73c-0.056,0-0.112-0.002-0.168-0.006c-1.189-0.092-2.078-1.13-1.987-2.319
					c0.103-1.335,0.151-2.736,0.151-4.409c0-1.33-0.03-2.648-0.06-3.963c-0.031-1.342-0.061-2.681-0.061-4.025
					c0-0.179,0.001-0.359,0.001-0.538c-4.68-0.048-9.665-0.234-15.026-1.058c-1.179-0.181-1.987-1.283-1.806-2.462
					c0.181-1.18,1.288-1.993,2.462-1.806c5.337,0.82,10.303,0.999,16.585,1.022c0.586,0.002,1.147,0.243,1.553,0.666
					c0.405,0.424,0.621,0.994,0.597,1.581c-0.035,0.869-0.049,1.733-0.049,2.596c0,1.311,0.03,2.617,0.06,3.927
					c0.031,1.347,0.062,2.699,0.062,4.062c0,1.787-0.052,3.293-0.164,4.74C174.314,61.869,173.367,62.73,172.251,62.73z"/>
			</g>
			<g>
				<path style="fill:#525D7D;" d="M153.849,112.663c-1.048,0-1.967-0.764-2.131-1.832c-0.181-1.178,0.628-2.281,1.806-2.461
					c1.634-0.252,3.367-0.368,5.453-0.368c1.481,0,2.967,0.059,4.454,0.119c1.856,0.075,3.809,0.148,5.509,0.101
					c0.065-1.809,0.181-3.623,0.294-5.393c0.169-2.637,0.329-5.128,0.329-7.566c0-1.193,0.966-2.159,2.159-2.159
					c1.193,0,2.159,0.966,2.159,2.159c0,2.576-0.172,5.254-0.337,7.843c-0.152,2.375-0.31,4.83-0.332,7.184
					c-0.011,1.112-0.866,2.035-1.975,2.13c-2.303,0.196-5.197,0.129-7.979,0.017c-1.429-0.057-2.857-0.115-4.28-0.115
					c-1.861,0-3.386,0.101-4.798,0.318C154.069,112.655,153.958,112.663,153.849,112.663z"/>
			</g>
			<g>
				<path style="fill:#525D7D;" d="M108.145,98.32c-5.179,0-11.14-1.595-15.946-4.265c-1.042-0.579-1.418-1.893-0.839-2.936
					c0.578-1.043,1.895-1.42,2.936-0.838c4.194,2.33,9.371,3.721,13.849,3.721c8.046,0,11.648-4.63,11.648-9.22
					c0-3.194-2.896-3.867-9.506-4.641c-6.337-0.743-15.016-1.76-15.016-10.866c0-4.477,3.67-11.137,13.782-11.137
					c4.502,0,8.422,1.25,10.358,1.995c1.113,0.428,1.668,1.678,1.24,2.79c-0.427,1.112-1.676,1.669-2.79,1.24
					c-2.819-1.084-6.03-1.707-8.808-1.707c-7.486,0-9.464,4.46-9.464,6.819c0,4.745,3.587,5.685,11.2,6.577
					c5.935,0.696,13.322,1.562,13.322,8.93C124.111,91.302,119.115,98.32,108.145,98.32z"/>
			</g>
			<g>
				<path style="fill:#525D7D;" d="M109.175,62.457c-1.193,0-2.159-0.966-2.159-2.159V50.059c0-1.193,0.966-2.159,2.159-2.159
					c1.193,0,2.159,0.966,2.159,2.159v10.239C111.334,61.491,110.368,62.457,109.175,62.457z"/>
			</g>
			<g>
				<path style="fill:#525D7D;" d="M107.598,106.356c-1.193,0-2.159-0.966-2.159-2.159v-8.042c0-1.193,0.966-2.159,2.159-2.159
					c1.193,0,2.159,0.966,2.159,2.159v8.042C109.757,105.389,108.791,106.356,107.598,106.356z"/>
			</g>
		</g>
	</g>
</g>
<g id="Layer_1">
</g>
</svg>
