<?xml version="1.0" encoding="iso-8859-1"?>
<!-- Generator: Adobe Illustrator 21.0.2, SVG Export Plug-In . SVG Version: 6.00 Build 0)  -->
<svg version="1.1" xmlns="http://www.w3.org/2000/svg" xmlns:xlink="http://www.w3.org/1999/xlink" x="0px" y="0px"
	 viewBox="0 0 213.462 169.34" style="enable-background:new 0 0 213.462 169.34;" xml:space="preserve">
<g id="_x31_0">
	<g>
		<path style="fill:#E0DFE6;" d="M181.587,8.077c-1.37-2.376-5.522-2.078-6.114,0.799c-0.231,1.124-0.421,2.263-0.586,3.411
			c-1.549-1.211-4.253-0.576-4.379,2.023c-0.413,8.5-3.083,15.174-7.087,22.016c-6.251,0.191-12.583,1.639-18.4,3.813
			c-1.675,0.626-5.997,3.662-7.669,3.728c0.547-0.336-3.941-3.795-4.344-4.083c-1.197-0.855-2.585,0.552-2.313,1.778
			c0.482,2.171,1.905,4.962,2.077,7.141c0.229,2.892,2.08,4.557,4.9,4.9c0.184,0.022,0.372,0.012,0.557,0.022
			c-4.068,1.941-7.821,4.507-11.138,7.541c0.819-1.22,1.426-2.538,1.455-4.101c0.088-4.842-4.184-14.436-8.311-17.148
			c-6.487-4.264-10.203,0.391-12.172,6.887c-7.928,6.024-10.535,22.464-12.073,30.141c-1.689,8.428-7.611,34.634,5.995,36.8
			c4.012,0.639,6.878-1.023,8.421-4.781c0.078-0.191,0.157-0.382,0.235-0.572c1.73-4.212-0.967-7.091-4.424-7.87
			c1.409-0.569,0.39-5.459,0.387-6.179c-0.012-2.535,0.25-5.108,0.467-7.63c0.166-1.927,0.352-3.853,0.551-5.778
			c1.75,1.57,4.234,2.131,6.484,1.567c-0.571,2.24-0.957,4.534-1.13,6.87c-1.638,6.165-2.053,12.49-0.913,18.558
			c0.377,2.006,3.495,1.896,3.947,0c3.028-12.707,6.564-24.576,15.835-34.283c8.967-9.389,19.45-12.517,31.302-16.548
			c3.542-1.205,3.933-5.541,1.626-7.546c0.312-0.008,0.622-0.015,0.935-0.023c1.032-0.027,1.934-0.247,2.716-0.6
			c0.556,5.705,7.581,9.911,12.634,4.858c5.447-5.448,5.524-14.749,5.564-22.043C186.665,23.691,185.663,15.147,181.587,8.077z
			 M111.796,58.067c0.721-2.166,1.577-4.296,2.659-6.417c0.186,0.934,0.329,1.876,0.441,2.781
			C113.773,55.566,112.729,56.772,111.796,58.067z"/>
		<path style="fill:#E0DFE6;" d="M207.506,91.602c-1.063-1.247-2.346-1.904-3.676-2.114c-0.802-2.071-1.675-4.112-2.619-6.105
			c-0.636-1.343-3.011-0.723-2.86,0.775c0.056,0.555,0.093,1.115,0.14,1.672c-1.07-2.764-2.489-5.399-4.317-7.809
			c-1.107-1.461-3.268-0.623-2.949,1.243c1.095,6.42,1.292,12.323,0.491,17.989c-0.583,0.216-1.136,0.503-1.613,0.913
			c-0.308-1.951-1.689-3.614-3.485-4.292c2.546-4.439-3.52-9.486-7.991-5.844c-5.509,4.487-10.232,10.232-14.74,15.701
			c-3.966,4.811-8.627,9.888-11.447,15.509c-4.694-4.994-9.49-10.057-15.101-13.593c-1.283-0.809-3.19,0.547-2.66,2.045
			c3.317,9.369,11.033,17.489,17.26,25.087c1.757,2.143,5.075,1.585,6.91,0c10.011-8.652,20.506-18.894,29.059-29.101
			c-2.152,12.378-7.321,23.556-19.343,29.405c-6.071,2.954-13.036,3.772-19.706,3.258c-7.279-0.562-12.872-3.909-19.722-5.634
			c-1.65-0.416-2.666,1.258-2.044,2.66c0.481,1.085,1.124,2.108,1.869,3.081c-0.61-0.231-1.217-0.466-1.82-0.707
			c-0.252-0.101-0.509-0.087-0.75-0.013c-0.985-0.463-2.136-0.672-3.402-0.464c-2.636,0.433-5.208,1.538-7.63,3.08
			c-3.857-0.308-7.89,0.67-11.797,0.53c-0.816-0.029-1.631-0.089-2.446-0.159c-1.888-1.801-4.851-1.886-7.22-0.674
			c-1.565-9.54-3.157-19.048-3.431-28.895c-0.423-15.219,0.801-30.299,2.413-45.415c0.255-2.388-3.116-2.402-3.865-0.523
			c-5.83,14.603-8.769,30.265-9.577,45.938c-0.589,11.417-0.728,24.385,1.374,36.279c-17.768,3.252-36.971,2.198-53.49,10.316
			c-1.797,0.883-0.775,3.419,0.953,3.52c1.337,0.079,2.677,0.116,4.018,0.129c-1.483,0.561-2.837,1.387-3.932,2.737
			c-1.555,1.917,0.334,4.473,2.623,3.4c4.363-2.046,13.141,0.202,17.823,0.535c6.15,0.437,12.301,0.773,18.454,1.156
			c12.252,0.762,24.613,1.966,36.884,2.124c5.639,0.073,7.288-5.463,5.261-9.251c1.059-1.397,2.117-2.795,3.175-4.192
			c1.072-1.415,2.261-2.813,3.302-4.288c3.421-2.874,7.275-4.357,11.139-6.778c1.21-0.758,1.933-1.726,2.289-2.749
			c8.992,8.382,23.002,12.665,36.263,11.956c2.445,0.761,4.942,1.183,7.445,1.296c1.255,0.593,2.715,0.837,4.294,0.522
			c1.566-0.313,3.086-0.777,4.563-1.357c9.354-2.17,17.936-8.226,23.045-16.228C212.939,125.71,218.053,103.977,207.506,91.602z"/>
		<g>
			<g>
				<path style="fill:#525D7D;" d="M5.684,162.987c-1.081,0-2.002-0.804-2.141-1.885C1.126,142.192,0,126.961,0,113.169
					c0-77.664,19.519-78.139,71.682-79.409l4.061-0.1c21.834-0.555,35.367,0.351,41.79,0.985c1.41-0.132,2.825,0.004,4.093,0.48
					c0.194,0.028,0.313,0.047,0.357,0.054c0.564,0.091,1.042,0.393,1.366,0.813c5.666,3.603,8.972,13.52,10.833,22.116
					c0.253,1.165-0.488,2.314-1.653,2.567c-1.168,0.258-2.315-0.488-2.567-1.653c-2.354-10.872-5.819-17.961-9.513-19.696
					c-0.623-0.08-1.587-0.196-2.906-0.329c-13.368,2.018-24.854,39.335-24.854,81.712c0,11.22,0.654,23.131,2.059,37.483
					c0.059,0.601-0.138,1.199-0.54,1.65c-0.402,0.45-0.975,0.711-1.579,0.72c-29.617,0.418-59.153,1.427-86.867,2.425
					C5.738,162.987,5.711,162.987,5.684,162.987z M88.613,37.81c-3.889,0-8.139,0.05-12.76,0.167l-4.065,0.1
					C19.96,39.338,4.318,39.719,4.318,113.169c0,13.128,1.039,27.608,3.262,45.431c26.432-0.949,54.474-1.896,82.646-2.323
					c-1.264-13.463-1.855-24.821-1.855-35.569c0-20.771,2.849-41.885,7.818-57.928c3.646-11.771,8.133-20.001,13.245-24.414
					C104.262,38.061,97.352,37.81,88.613,37.81z"/>
			</g>
			<g>
				<path style="fill:#525D7D;" d="M158.187,148.431c-26.707,0-49.269-24.084-49.269-52.593c0-22.061,16.984-41.953,39.507-46.27
					c3.17-0.608,6.411-0.916,9.636-0.916c26.463,0,45.669,19.184,45.669,45.615C203.73,127.17,185.853,148.431,158.187,148.431z
					 M149.238,53.809c-20.524,3.934-36.001,22.003-36.001,42.029c0,25.716,21.004,48.274,44.951,48.274
					c25.043,0,41.224-19.566,41.224-49.845c0-27.112-20.802-41.297-41.351-41.297C155.109,52.97,152.14,53.252,149.238,53.809z"/>
			</g>
			<g>
				<path style="fill:#525D7D;" d="M154.239,126.924c-0.618-0.006-1.188-0.259-1.593-0.701c-2.33-2.546-4.688-5.067-7.044-7.59
					c-6.235-6.673-12.682-13.574-18.595-20.864c-0.666-0.821-0.64-2.003,0.062-2.794c4.055-4.566,8.789-8.627,12.967-12.21
					c0.835-0.716,2.079-0.69,2.881,0.064c2.927,2.742,5.472,5.891,7.935,8.938c1.164,1.438,2.354,2.912,3.576,4.327
					c7.372-6.451,14.257-12.11,20.999-17.257c0.936-0.718,2.27-0.548,3.003,0.375c2.177,2.749,4.675,5.269,7.09,7.706
					c0.867,0.874,1.73,1.746,2.578,2.625c0.398,0.413,0.616,0.967,0.604,1.541c-0.011,0.573-0.25,1.119-0.665,1.516
					c-7.716,7.401-15.303,15.546-22.642,23.423c-3.189,3.425-6.38,6.85-9.592,10.228
					C155.396,126.682,154.831,126.924,154.239,126.924z M131.538,96.487c5.497,6.651,11.45,13.023,17.22,19.199
					c1.839,1.968,3.677,3.936,5.504,5.915c2.667-2.822,5.319-5.671,7.973-8.52c6.885-7.39,13.988-15.015,21.246-22.082
					c-0.342-0.347-0.686-0.694-1.029-1.04c-2.023-2.041-4.102-4.137-6.054-6.422c-6.627,5.126-13.428,10.774-20.73,17.217
					c-0.883,0.775-2.227,0.707-3.019-0.161c-1.808-1.971-3.508-4.076-5.154-6.111c-2.048-2.534-4.003-4.953-6.148-7.148
					C138.106,90.124,134.637,93.187,131.538,96.487z"/>
			</g>
			<g>
				<path style="fill:#525D7D;" d="M94.438,118.159c-1.098,0-2.037-0.834-2.146-1.95c-0.115-1.186,0.753-2.243,1.94-2.358
					c3.985-0.389,8.144-0.562,13.487-0.562c2.391,0,4.775,0.034,7.165,0.068l0.155,0.002c1.192,0.017,2.145,0.997,2.128,2.19
					c-0.017,1.181-0.98,2.128-2.159,2.128c-0.031,0-0.186-0.002-0.186-0.002c-2.368-0.034-4.733-0.068-7.103-0.068
					c-5.198,0-9.228,0.167-13.068,0.541C94.578,118.156,94.508,118.159,94.438,118.159z"/>
			</g>
			<g>
				<path style="fill:#525D7D;" d="M170.438,46.525c-0.371,0.001-0.748-0.096-1.091-0.297c-1.029-0.603-1.373-1.926-0.77-2.955
					c5.429-9.256,6.161-20.011,6.161-29.311c0-3.161-0.091-6.397-0.18-9.527C147.105,5.909,127.16,6.46,101.767,6.46
					c-5.51,0-11.158-0.027-16.82-0.08c0.083,2.65,0.124,5.09,0.124,7.407c0,8.437-0.567,15.721-1.73,22.268
					c-0.208,1.174-1.328,1.958-2.504,1.748c-1.174-0.209-1.957-1.33-1.747-2.504c1.119-6.294,1.663-13.331,1.663-21.512
					c0-2.905-0.066-6.014-0.201-9.505c-0.022-0.591,0.198-1.165,0.61-1.589c0.412-0.423,0.98-0.656,1.57-0.654
					c6.403,0.068,12.807,0.103,19.035,0.103c25.985,0,46.25-0.579,74.769-2.137c0.572-0.039,1.153,0.172,1.581,0.568
					c0.429,0.395,0.679,0.947,0.694,1.529l0.062,2.191c0.09,3.167,0.183,6.441,0.183,9.671c0,9.88-0.803,21.347-6.754,31.495
					C171.899,46.144,171.178,46.525,170.438,46.525z"/>
			</g>
			<g>
				<g>
					<path style="fill:#525D7D;" d="M43.937,53.154c-1.192,0-2.159-0.966-2.159-2.159c0-1.193,0.967-2.159,2.159-2.159
						c14.893,0,30.293,0,45.143-0.59c1.243-0.007,2.196,0.882,2.243,2.072c0.046,1.191-0.88,2.196-2.072,2.243
						C74.317,53.154,58.872,53.154,43.937,53.154z"/>
				</g>
				<g>
					<path style="fill:#525D7D;" d="M37.186,68.668c-2.443,0-4.837-0.04-7.114-0.119c-1.192-0.041-2.124-1.041-2.083-2.232
						c0.042-1.192,1.075-2.099,2.232-2.083c2.228,0.077,4.571,0.116,6.965,0.116c11.494,0,23.326-0.893,34.77-1.755
						c3.312-0.25,6.611-0.499,9.89-0.726c1.185-0.077,2.221,0.815,2.302,2.005c0.083,1.189-0.815,2.22-2.004,2.303
						c-3.269,0.226-6.56,0.474-9.863,0.723C60.757,67.77,48.842,68.668,37.186,68.668z"/>
				</g>
				<g>
					<path style="fill:#525D7D;" d="M35.886,82.326c-2.855,0-5.741-0.053-8.577-0.158c-1.192-0.044-2.121-1.046-2.078-2.238
						c0.045-1.191,0.995-2.104,2.238-2.077c14.966,0.556,30.185-0.369,47.047-2.866c1.171-0.172,2.276,0.64,2.452,1.82
						c0.176,1.179-0.64,2.277-1.819,2.452C61.211,81.323,48.368,82.326,35.886,82.326z"/>
				</g>
			</g>
			<g>
				<g>
					<path style="fill:#525D7D;" d="M30.128,136.865c-3.957,0-7.71-0.588-10.161-1.08c-1.168-0.235-1.926-1.373-1.691-2.543
						c0.236-1.169,1.382-1.922,2.543-1.691c2.259,0.455,5.707,0.996,9.31,0.996c4.644,0,12.434-0.983,12.434-7.571
						c0-2.872-3.961-4.165-6.774-4.165c-1.286,0-2.81,0.386-4.422,0.795c-2.101,0.533-4.483,1.136-7.158,1.136
						c-5.412,0-8.393-3.071-8.393-8.647c0-9.219,9.47-13.418,18.268-13.418c1.647,0,3.22,0.148,4.675,0.441
						c1.169,0.235,1.926,1.374,1.691,2.543c-0.236,1.17-1.383,1.921-2.543,1.691c-1.174-0.237-2.461-0.356-3.823-0.356
						c-4.824,0-13.95,1.902-13.95,9.1c0,3.196,1.067,4.329,4.075,4.329c2.135,0,4.15-0.51,6.098-1.004
						c1.881-0.476,3.656-0.927,5.482-0.927c5.376,0,11.092,2.973,11.092,8.483C46.881,132.42,40.619,136.865,30.128,136.865z"/>
				</g>
				<g>
					<path style="fill:#525D7D;" d="M27.441,105.897c-1.089,0-2.026-0.822-2.144-1.93c-0.302-2.832-0.302-5.647-0.302-8.369
						c0-1.193,0.967-2.159,2.159-2.159c1.192,0,2.159,0.966,2.159,2.159c0,2.61,0,5.308,0.277,7.911
						c0.127,1.186-0.732,2.25-1.917,2.376C27.594,105.893,27.518,105.897,27.441,105.897z"/>
				</g>
				<g>
					<path style="fill:#525D7D;" d="M34.774,145.218c-0.981,0-1.869-0.673-2.101-1.67c-0.658-2.823-1.338-5.743-1.736-8.69
						c-0.16-1.181,0.669-2.269,1.85-2.428c1.181-0.154,2.27,0.668,2.429,1.85c0.371,2.744,1.028,5.563,1.663,8.288
						c0.27,1.161-0.451,2.322-1.612,2.593C35.1,145.199,34.936,145.218,34.774,145.218z"/>
				</g>
				<g>
					<path style="fill:#525D7D;" d="M62.978,118.078c-1.872,0-3.743-0.035-5.599-0.07c-1.796-0.034-3.577-0.067-5.326-0.067
						c-1.192,0-2.159-0.966-2.159-2.159c0-1.193,0.967-2.159,2.159-2.159c1.775,0,3.583,0.034,5.406,0.067
						c1.829,0.035,3.674,0.069,5.519,0.069c4.367,0,7.635-0.202,10.597-0.657c1.174-0.187,2.281,0.626,2.461,1.806
						c0.181,1.179-0.627,2.281-1.806,2.461C71.044,117.86,67.575,118.078,62.978,118.078z"/>
				</g>
				<g>
					<path style="fill:#525D7D;" d="M54.593,127.215c-1.192,0-2.159-0.966-2.159-2.159c0-1.193,0.967-2.159,2.159-2.159
						c6.701,0,13.608-0.556,19.974-1.608c1.164-0.199,2.287,0.602,2.481,1.778c0.195,1.177-0.602,2.288-1.778,2.482
						C68.677,126.639,61.526,127.215,54.593,127.215z"/>
				</g>
			</g>
		</g>
	</g>
</g>
<g id="Layer_1">
</g>
</svg>
