<?xml version="1.0" encoding="iso-8859-1"?>
<!-- Generator: Adobe Illustrator 21.0.2, SVG Export Plug-In . SVG Version: 6.00 Build 0)  -->
<svg version="1.1" xmlns="http://www.w3.org/2000/svg" xmlns:xlink="http://www.w3.org/1999/xlink" x="0px" y="0px"
	 viewBox="0 0 237.138 202.232" style="enable-background:new 0 0 237.138 202.232;" xml:space="preserve">
<g id="_x31_00">
	<g>
		<g>
			<path style="fill:#E0DFE6;" d="M131.91,10.811c-8.424-7.458-28.159-11.706-33.439,1.106c-0.759,1.843,0.218,3.944,1.386,5.328
				c-1.918,1.238-3.704,2.654-5.309,4.28c-2.428,2.458,0.048,6.387,3.282,5.639c10.295-2.381,19.398-6.371,30.166-6.905
				C132.466,20.036,135.707,14.173,131.91,10.811z"/>
			<path style="fill:#E0DFE6;" d="M154.699,72.331c-4.062-4.874-11.728-8.764-18.155-7.021c0.238-0.318,0.487-0.635,0.77-0.943
				c1.236-1.35,2.904-2.284,4.158-3.638c2.523-2.723,3.733-5.997,4.128-9.653c0.918-8.514,0.604-20.799-5.364-27.48
				c-0.786-0.88-2.287-0.393-2.581,0.681c-1.23,4.494-0.965,9.052-1.093,13.677c-0.13,4.696,0.808,11.655-2.302,15.562
				c-3.711,4.661-12.556,8.226-7.644,15.473c1.415,2.088,3.927,2.59,5.939,1.249c0.084,0.063,0.158,0.132,0.26,0.184
				c5.726,2.94,11.724,4.23,14.955,10.463c3.055,5.893,1.581,12.382,2.371,18.657c0.865,6.87,9.876,6.904,10.725,0
				C161.943,90.774,160.515,79.309,154.699,72.331z"/>
			<path style="fill:#E0DFE6;" d="M134.545,92.987c-0.799-2.538-2.216-4.826-3.04-7.344c-1.269-3.873-0.285-7.752-1.203-11.659
				c-0.475-2.022-3.241-2.717-4.653-1.228c-4.236,4.468-5.236,11.21-3.218,16.961c1.098,3.13,2.537,5.916,2.958,9.264
				c0.052,0.416,0.08,0.8,0.11,1.188c-0.706-1.659-1.543-3.289-2.133-4.961c-1.093-3.096-1.749-6.358-3.866-8.939
				c-1.076-1.312-3.716-0.995-4.418,0.569c-1.542,3.438-0.934,7.11-0.214,10.712c0.735,3.683,1.546,8.199,4.349,10.866
				c0.493,0.469,1.068,0.792,1.676,0.985c-1.378,1.284-2.704,2.629-3.755,4.158c-1.312,1.908,0.899,4.97,3.144,4.089
				c2.78-1.09,5.251-2.912,7.695-4.608c1.699-1.179,3.366-2.27,4.764-3.672c0.09-0.077,0.196-0.137,0.277-0.225
				c0.315-0.34,0.591-0.699,0.848-1.066c0.287-0.38,0.561-0.776,0.806-1.21c0.175-0.311,0.291-0.633,0.354-0.958
				C136.589,101.938,135.839,97.097,134.545,92.987z"/>
			<path style="fill:#E0DFE6;" d="M134.577,21.234c-1.287-1.728-3.749-0.698-3.416,1.44c0.81,5.196,1.159,10.93,0.191,16.118
				c-0.89,4.768-3.185,8.831-4.766,13.348c-0.407,1.162-0.199,2.208,0.354,3.03c-2.579,0.589-4.41,1.971-6.653,3.536
				c-0.635,0.079-1.276,0.265-1.914,0.544c-0.946,0.413-1.743,1.287-2.28,2.157c-0.116,0.128-0.21,0.226-0.31,0.318
				c-0.16,0.111-0.3,0.205-0.445,0.29c-0.118,0.069-0.242,0.129-0.364,0.191c-0.034,0.01-0.054,0.016-0.1,0.031
				c-4.443,1.287-3.573,7.989,1.09,8.057c2.758,0.04,6.409-1.19,8.309-3.499c3.215-0.877,6.105-2.683,7.386-5.406
				c0.626-1.33,0.545-3.158-0.178-4.529c0.592-0.154,1.155-0.449,1.633-0.919C142.003,47.212,141.685,30.781,134.577,21.234z"/>
			<path style="fill:#E0DFE6;" d="M81.127,23.917c-0.606-2.2-2.629-3.759-4.902-3.732c-3.257,0.038-4.209,2.528-5.915,4.673
				c-1.825,2.295-4.659,2.759-7.065,4.193c-2.286,1.363-2.15,4.536,0,5.928c3.237,2.097,7.912,1.139,11.115-0.602
				C77.827,32.494,82.344,28.335,81.127,23.917z"/>
			<path style="fill:#E0DFE6;" d="M164.833,19.159c-1.151,0.608-1.915,1.518-2.749,2.477c-0.843,0.97-0.954,1.128-1.743,1.605
				c-1.562,0.944-3.271,1.074-5.244,1.975c-2.399,1.095-2.299,4.407-0.784,6.087c2.454,2.721,7.215,2.825,10.489,1.769
				c4.017-1.295,8.3-4.631,8.226-9.211C172.96,19.617,168.487,17.23,164.833,19.159z"/>
			<path style="fill:#E0DFE6;" d="M50.036,96.303c-3.683-2.957-9.655-1.275-9.689,4.013c-0.013,1.991,0.378,3.841,0.738,5.676
				c-3.517,3.131-5.968,7.164-9.479,10.302c-5.139,4.594-12.006,4.958-18.471,3.28c-2.432-0.631-4.284,2.937-2.212,4.252
				c-0.012,0.032-0.035,0.049-0.047,0.082c-1.946,5.59,5.703,10.048,9.979,11.513c6.806,2.332,14.536,1.604,20.789-1.97
				c6.04-3.452,10.343-9.449,12.158-16.124C55.562,110.859,55.723,100.87,50.036,96.303z"/>
			<path style="fill:#E0DFE6;" d="M236.769,98.224c-0.525-2.532-2.363-3.937-4.473-4.378c-0.974-2.31-2.318-4.335-4.152-5.786
				c-1.751-1.387-3.875-0.848-4.702,1.241c-1.688,4.267-0.294,11.334-0.767,17.196c-3.482,6.153-12.107,9.239-18.814,7.148
				c-4.533-1.414-7.138-4.831-11.016-7.129c-1.776-1.053-3.678-1.935-5.555-0.415c-0.171,0.138-0.342,0.277-0.512,0.415
				c-1.117,0.905-1.531,2.85-1.103,4.174c4.003,12.396,17.803,19.165,30.314,15.859c0.425-0.112,0.851-0.242,1.276-0.379
				c0.424,0.122,0.87,0.22,1.36,0.26c8.166,0.66,13.636-5.951,15.135-13.382C236.503,108.544,237.84,103.389,236.769,98.224z"/>
			<path style="fill:#E0DFE6;" d="M153.505,154.139c-0.319-1.571-0.805-3.113-1.498-4.602c-1.642-3.528-7.138-2.394-8.054,1.053
				c-0.675,0.622-1.181,1.416-1.399,2.392c-0.43,1.926-0.489,3.848-0.405,5.773c-1.385,6.767-2.916,12.954-8.865,18.481
				c-7.761,7.21-18.427,9.599-28.732,8.42c-1.034-0.118-1.795,0.565-2.138,1.439c-1.195-0.547-2.344-1.142-3.411-1.794
				c-1.417-0.866-3.466,0.241-3.39,1.945c0.815,18.119,31.295,17.118,42.47,10.969c7.912-4.354,13.673-12.24,16.193-20.833
				C156.291,170.507,157.111,160.866,153.505,154.139z"/>
			<path style="fill:#E0DFE6;" d="M121.37,161.05c-2.031-0.533-3.568,0.396-4.804,1.765c-0.304-0.191-0.606-0.385-0.898-0.593
				c-1.254-0.896-3.236-0.481-4.267,0.551c-1.172,1.172-1.222,2.836-0.551,4.267c1.14,2.432,2.881,4.611,5.612,5.274
				c3.958,0.961,8.401-1.914,8.486-6.158C124.992,163.883,123.648,161.648,121.37,161.05z"/>
			<path style="fill:#E0DFE6;" d="M164.271,126.045c-1.731-1.464-4.83-2.055-6.482,0c-1.157,1.438-1.616,2.447-2.066,4.206
				c-0.29,1.135-0.299,2.282-1.034,3.272c-1.63,2.195-4.169,1.749-6.524,1.555c-5.146-0.425-7.698,3.373-9.577,7.562
				c-0.623,1.389-0.247,3.439,1.54,3.786c1.276,0.248,2.251,0.18,3.465-0.312c0.778-0.315,2.167-1.386,2.6-1.413
				c1.572-0.099,3.792,1.191,5.522,1.219c1.94,0.032,3.795-0.37,5.583-1.104C163.392,142.318,171.002,131.738,164.271,126.045z"/>
			<path style="fill:#E0DFE6;" d="M167.111,103.408c-5.315-2.229-12.163-0.108-17.819,0.347c-4.216,0.339-8.409,0.539-12.58,1.055
				c-0.454-0.715-1.107-1.275-2.002-1.407c-4.172-0.618-5.93,1.009-8.96,3.604c-2.032,1.741-6.883,7.198-9.403,7.197
				c-1.111,0-3.687-2.852-6.313-5.013c-0.193-0.73-0.647-1.397-1.372-1.823c-4.8-2.82-10.131-2.087-15.53-1.954
				c-6.332,0.155-12.726,0.818-19.05,0.446c-3.727-0.219-3.628,5.402,0,5.745c8.588,0.812,20.685,4.929,29.908,2.811
				c2.513,4.995,8.91,9.931,12.845,9.835c4.519-0.11,9.185-3.759,12.628-6.343c2.249-1.688,5.059-3.507,6.704-5.868
				c4.725,0.968,9.553,1.177,14.423,1.15c5.675-0.032,12.742,0.657,17.418-2.914C170.721,108.204,170.22,104.712,167.111,103.408z"
				/>
			<path style="fill:#E0DFE6;" d="M106.598,92.639c-4.228-0.5-8.89,1.035-12.986,2.07c-4.021,1.015-7.904,2.338-11.58,4.268
				c-1.642,0.862-1.176,3.366,0.503,3.848c7.732,2.219,19.229,2.489,26.422-1.479C113.399,98.896,110.844,93.141,106.598,92.639z"/>
			<path style="fill:#E0DFE6;" d="M149.909,94.409c-2.878-0.893-5.946-0.119-8.914-0.083c-2.804,0.035-5.521-0.189-8.304,0.24
				c-2.528,0.389-3.041,3.897-1.45,5.491c4.324,4.334,14.443,6.691,19.847,3.377C154.767,101.179,153.978,95.671,149.909,94.409z"/>
			<path style="fill:#E0DFE6;" d="M67.143,156.547c-3.012-0.285-5.928-0.778-8.772-1.872c-2.519-0.969-4.808-2.444-7.534-2.709
				c-0.84-0.082-1.738,0.83-1.662,1.662c0.707,7.78,11.396,11.905,17.969,12.664C73.319,167.005,73.382,157.138,67.143,156.547z"/>
			<path style="fill:#E0DFE6;" d="M194.723,144.075c-9.498,6.443-18.667,14.61-26.937,22.557c-1.859,1.787,0.042,5.223,2.565,4.406
				c11.445-3.707,22.831-11.76,29.392-21.943C201.686,146.078,197.764,142.011,194.723,144.075z"/>
			<path style="fill:#E0DFE6;" d="M215.503,52.674c-0.376-3.47-4.721-6.224-7.523-3.116c-1.615,1.792-2.73,3.466-4.693,4.877
				c-1.566,1.125-3.097,1.471-4.997,1.805c-1.193,0.209-1.598,1.721-1.082,2.659C201.682,67.017,216.467,61.571,215.503,52.674z"/>
			<path style="fill:#E0DFE6;" d="M45.824,36.737c-4.897,2.706-8.963,6.501-11.953,11.25c-1.386,2.202-2.496,4.645-3.154,7.165
				c-0.747,2.859-0.278,6.871-3.515,8.167c-1.823,0.73-3.563,3.115-2.069,5.086c4.646,6.135,12.303,1.613,14.183-4.599
				c1.254-4.143,1.097-7.753,3.53-11.528c2.391-3.71,5.547-6.852,7.959-10.562C52.861,38.551,48.876,35.051,45.824,36.737z"/>
		</g>
		<g>
			<g>
				<path style="fill:#525D7D;" d="M81.238,106.353c-0.681,0-1.351-0.321-1.771-0.921c-3.083-4.404-3.331-15.848-3.331-15.96
					c0-17.523,16.802-19.578,28.91-20.538c0.156-0.923,0.271-1.896,0.271-2.852c0-4.199-0.727-4.516-2.671-5.364
					c-3.61-1.574-7.077-3.776-9.791-12.921c-6.471-0.316-10.145-2.734-10.145-6.742c0-2.554,2.259-6.753,6.034-8.761
					c-0.012-0.508-0.018-1.038-0.018-1.591C88.725,10.546,101.198,0,113.519,0c12.933,0,24.954,9.385,26.798,20.921
					c0.111,0.698-0.126,1.406-0.635,1.896c-0.509,0.491-1.226,0.701-1.919,0.562c-2.434-0.485-4.57-0.657-8.16-0.657
					c-11.474,0-20.604,2.453-27.136,7.291c-0.956,0.708-2.309,0.509-3.02-0.45c-0.709-0.958-0.508-2.31,0.451-3.02
					c7.291-5.4,17.285-8.139,29.705-8.139c2.272,0,4.053,0.07,5.687,0.238c-2.909-8.125-12.022-14.324-21.77-14.324
					c-13.443,0-20.476,13.274-20.476,26.386c0,1.04,0.022,1.988,0.07,2.865c0.052,0.971-0.552,1.858-1.475,2.165
					c-2.976,0.989-4.61,4.379-4.61,5.322c0,1.69,3.795,2.46,7.322,2.46h0.152c0.98,0,1.836,0.659,2.087,1.606
					c2.47,9.322,5.416,10.606,7.783,11.639c3.082,1.344,5.263,2.799,5.263,9.321c0,1.936-0.358,3.864-0.671,5.328
					c-0.199,0.936-0.992,1.629-1.947,1.702c-14.533,1.111-26.562,3.109-26.562,16.359c0,2.71,0.784,10.961,2.551,13.484
					c0.684,0.977,0.446,2.324-0.531,3.007C82.098,106.227,81.665,106.353,81.238,106.353z"/>
			</g>
			<g>
				<path style="fill:#525D7D;" d="M149.617,102.761c-1.1,0-2.04-0.837-2.146-1.955c-0.228-2.39-0.413-4.58-0.582-6.588
					c-0.744-8.808-1.193-14.123-3.679-16.868c-2.309-2.548-6.832-3.716-17.925-4.63c-0.98-0.081-1.782-0.815-1.95-1.784
					l-0.079-0.454c-0.375-2.156-0.763-4.385-0.763-6.675c0-6.118,3.025-8.076,5.694-9.804c3.258-2.108,6.949-4.498,6.949-17.331
					c0-4.433-0.817-9.13-2.428-13.963c-0.377-1.131,0.234-2.354,1.365-2.731c1.136-0.379,2.355,0.235,2.731,1.365
					c1.758,5.274,2.65,10.431,2.65,15.329c0,15.181-5.157,18.519-8.922,20.956c-2.4,1.553-3.722,2.409-3.722,6.178
					c0,1.548,0.221,3.118,0.496,4.753c21.232,1.936,22.258,6.012,23.885,25.293c0.168,1.995,0.352,4.17,0.578,6.543
					c0.113,1.187-0.758,2.241-1.945,2.354C149.754,102.758,149.685,102.761,149.617,102.761z"/>
			</g>
			<g>
				<path style="fill:#525D7D;" d="M116.444,53.33c-0.792,0-1.555-0.438-1.933-1.195c-0.533-1.066-0.1-2.363,0.966-2.896
					c0.266-0.133,0.539-0.26,0.813-0.387c1.318-0.611,1.679-0.854,1.679-1.129c0-0.408-0.148-0.624-0.78-1.373
					c-0.914-1.082-2.295-2.719-2.295-5.879c0-0.524,0.014-1.061,0.028-1.585c0.013-0.458,0.025-0.904,0.025-1.317
					c0-1.193,0.966-2.159,2.159-2.159c1.193,0,2.159,0.966,2.159,2.159c0,0.448-0.013,0.934-0.026,1.432
					c-0.013,0.486-0.027,0.984-0.027,1.47c0,1.582,0.536,2.216,1.276,3.094c0.759,0.899,1.799,2.131,1.799,4.159
					c0,3.106-2.616,4.32-4.18,5.045c-0.235,0.11-0.47,0.219-0.7,0.333C117.099,53.256,116.769,53.33,116.444,53.33z"/>
			</g>
			<g>
				<path style="fill:#525D7D;" d="M113.48,84.645c-0.939,0-1.779-0.611-2.061-1.521c-0.368-1.19-0.867-2.371-1.395-3.621
					c-0.748-1.768-1.52-3.596-1.987-5.62c-0.224-0.971,0.246-1.97,1.138-2.416c2.031-1.015,4.395-1.508,7.229-1.508
					c2.011,0,4.037,0.248,5.914,0.524c0.674-0.943,1.98-1.187,2.953-0.54c0.992,0.661,1.26,2.002,0.599,2.994
					c-0.211,0.317-0.41,0.639-0.6,0.966c-1.585,2.75-2.419,5.833-3.079,8.787c-0.217,0.971-1.07,1.669-2.066,1.688
					c-2.2,0.042-4.35,0.094-6.476,0.26C113.592,84.643,113.536,84.645,113.48,84.645z M112.764,74.705
					c0.354,1.031,0.787,2.055,1.236,3.117c0.331,0.784,0.669,1.583,0.98,2.402c1.127-0.061,2.251-0.098,3.383-0.126
					c0.456-1.844,1.01-3.718,1.783-5.554C117.493,74.213,114.776,74.161,112.764,74.705z"/>
			</g>
			<g>
				<path style="fill:#525D7D;" d="M116.716,118.399c-0.503,0-1.008-0.175-1.415-0.529c-2.918-2.536-7.159-5.642-13.347-9.774
					c-0.828-0.553-1.17-1.6-0.829-2.535c1.006-2.761,2.05-5.496,3.091-8.223c1.907-4.997,3.88-10.164,5.526-15.309
					c0.365-1.136,1.583-1.758,2.714-1.398c1.136,0.363,1.762,1.578,1.399,2.714c-1.683,5.258-3.676,10.481-5.605,15.533
					c-0.834,2.184-1.669,4.372-2.485,6.576c4.648,3.137,8.165,5.691,10.843,7.875c2.741-2.597,5.786-5.031,8.588-6.865
					c-3.627-8.73-5.727-16.354-6.585-23.863c-0.136-1.185,0.715-2.255,1.9-2.39c1.18-0.143,2.255,0.715,2.39,1.9
					c0.864,7.564,3.084,15.302,6.985,24.355c0.431,0.999,0.051,2.162-0.886,2.714c-3.385,1.997-7.404,5.204-10.75,8.581
					C117.83,118.184,117.274,118.399,116.716,118.399z"/>
			</g>
			<g>
				<path style="fill:#525D7D;" d="M63.03,107.433c-1.193,0-2.159-0.966-2.159-2.159c0-1.193,0.966-2.159,2.159-2.159
					c5.254,0,10.569-0.32,15.709-0.628c5.173-0.311,10.522-0.632,15.842-0.632c2.809,0,5.384-0.03,7.874-0.092
					c1.218-0.03,2.182,0.913,2.212,2.105c0.03,1.192-0.912,2.182-2.105,2.212c-2.526,0.063-5.137,0.094-7.981,0.094
					c-5.19,0-10.474,0.318-15.583,0.625C73.794,107.109,68.414,107.433,63.03,107.433z"/>
			</g>
			<g>
				<path style="fill:#525D7D;" d="M169.856,105.416h-41.801c-1.193,0-2.159-0.966-2.159-2.159c0-1.193,0.966-2.159,2.159-2.159
					h41.801c1.193,0,2.159,0.966,2.159,2.159C172.015,104.449,171.049,105.416,169.856,105.416z"/>
			</g>
			<g>
				<path style="fill:#525D7D;" d="M67.611,30.672c-0.089,0-0.178-0.001-0.266-0.005c-0.26-0.013-0.505-0.03-0.752-0.055
					c-4.386-0.43-7.442-3.598-7.425-7.704c0.02-4.631,3.346-8.426,7.572-8.642c0.369-0.019,0.741-0.018,1.112,0.007
					c4.548,0.3,8.167,4.203,7.901,8.521C75.458,27.578,71.358,30.672,67.611,30.672z M67.242,18.571
					c-0.094,0-0.188,0.003-0.283,0.008c-2.163,0.11-3.465,2.298-3.474,4.348c-0.006,1.47,0.919,3.132,3.535,3.389
					c0.177,0.018,0.346,0.03,0.514,0.038c1.514,0.051,3.75-1.269,3.908-3.823c0.107-1.739-1.459-3.788-3.877-3.948
					C67.458,18.575,67.35,18.571,67.242,18.571z"/>
			</g>
			<g>
				<path style="fill:#525D7D;" d="M160.34,27.12c-0.07,0-0.14-0.001-0.211-0.003c-4.055-0.11-7.143-3.041-7.346-6.969
					c-0.162-3.137,1.684-6.209,4.594-7.643c0.864-0.425,1.813-0.654,2.82-0.678c4.211-0.104,7.951,3.329,8.06,7.339
					c0.054,1.978-0.841,4.089-2.394,5.644C164.369,26.304,162.416,27.12,160.34,27.12z M159.285,16.378
					c-1.384,0.682-2.264,2.108-2.189,3.546c0.085,1.645,1.38,2.827,3.149,2.875c1.233,0.036,2.069-0.549,2.562-1.043
					c0.807-0.807,1.15-1.825,1.132-2.474c-0.039-1.461-1.64-3.179-3.64-3.14C159.925,16.153,159.583,16.231,159.285,16.378z"/>
			</g>
			<g>
				<path style="fill:#525D7D;" d="M25.444,130.483c-6.798,0-13.332-2.546-18.09-7.085C2.619,118.881,0.008,112.732,0,106.083
					c-0.013-11.933,8.51-22.317,19.825-24.155c1.33-0.217,2.685-0.339,4.026-0.363c7.094-0.13,13.625,2.384,18.393,7.056
					c4.547,4.456,7.062,10.583,7.082,17.254c0.044,14.077-11.667,24.074-22.633,24.578
					C26.276,130.473,25.859,130.483,25.444,130.483z M24.344,85.879c-0.14,0-0.278,0.001-0.418,0.004
					c-1.134,0.02-2.281,0.123-3.407,0.306c-9.247,1.503-16.212,10.052-16.201,19.889c0.006,5.457,2.143,10.499,6.017,14.195
					c4.199,4.007,10.083,6.14,16.16,5.866c8.969-0.412,18.549-8.648,18.513-20.251c-0.017-5.586-2.018-10.49-5.787-14.184
					C35.378,87.94,30.109,85.879,24.344,85.879z"/>
			</g>
			<g>
				<path style="fill:#525D7D;" d="M14.182,117.731c-0.29,0-0.585-0.059-0.868-0.183c-1.091-0.48-1.587-1.754-1.107-2.846
					c0.897-2.038,1.759-4.109,2.624-6.187c2.147-5.154,4.367-10.485,7.172-15.443c0.373-0.66,1.065-1.076,1.823-1.096
					c0.741-0.03,1.47,0.359,1.877,0.999c3.558,5.589,7.072,11.874,10.741,19.212c0.533,1.067,0.1,2.364-0.966,2.897
					c-1.065,0.531-2.364,0.101-2.897-0.966c-2.923-5.847-5.74-11.003-8.556-15.658c-1.914,3.807-3.582,7.812-5.208,11.715
					c-0.876,2.104-1.75,4.202-2.658,6.265C15.804,117.25,15.013,117.731,14.182,117.731z"/>
			</g>
			<g>
				<path style="fill:#525D7D;" d="M18.266,109.224c-1.096,0-2.034-0.831-2.146-1.944c-0.119-1.187,0.747-2.245,1.933-2.364
					l9.953-0.995c1.179-0.116,2.245,0.746,2.364,1.934c0.119,1.187-0.747,2.245-1.933,2.364l-9.953,0.995
					C18.411,109.221,18.338,109.224,18.266,109.224z"/>
			</g>
			<g>
				<path style="fill:#525D7D;" d="M208.28,121.032c-0.379,0-0.759-0.009-1.14-0.027c-12.147-0.578-21.219-9.806-21.572-21.942
					c-0.375-12.898,8.811-23.699,20.913-24.589c0.238-0.018,0.477-0.032,0.716-0.043c13.611-0.581,25.135,8.967,25.703,21.316
					c0.304,6.601-2.293,13.153-7.124,17.976C221.088,118.404,214.765,121.032,208.28,121.032z M208.403,78.723
					c-0.337,0-0.674,0.008-1.014,0.022c-0.195,0.009-0.392,0.021-0.59,0.036c-9.63,0.708-17.217,9.75-16.914,20.157
					c0.285,9.819,7.628,17.286,17.46,17.753c5.669,0.279,11.275-1.926,15.381-6.024c3.972-3.967,6.109-9.332,5.861-14.722
					C228.142,86.272,219.186,78.723,208.403,78.723z"/>
			</g>
			<g>
				<path style="fill:#525D7D;" d="M204.564,112.369c-0.821,0-1.534-0.458-1.9-1.132c-0.137,0.027-0.279,0.041-0.425,0.041
					c-1.193,0-2.159-0.966-2.159-2.159l-0.002-5.024c0-6.071,0.022-12.537,0.289-18.973c0.04-0.97,0.722-1.794,1.668-2.014
					c1.425-0.331,2.835-0.499,4.191-0.499c6.316,0,10.558,3.873,10.558,7.49c0,1.483-1.262,2.933-3.045,4.241
					c4.503,1.755,7.067,5.731,7.067,9.607C220.808,109.536,215.343,112.369,204.564,112.369z M204.616,87.03
					c-0.201,5.785-0.219,11.587-0.219,17.066l0.001,3.961c0.055-0.004,0.11-0.006,0.166-0.006c4.454,0,11.925-0.533,11.925-4.102
					c0-2.99-3.029-6.217-7.922-6.217c-0.474,0-0.948,0.032-1.41,0.094c-1.069,0.143-2.072-0.519-2.364-1.553
					c-0.292-1.033,0.219-2.125,1.2-2.56c2.637-1.172,5.617-2.988,6.419-3.88c-0.337-0.945-2.25-2.903-6.185-2.903
					C205.703,86.929,205.165,86.962,204.616,87.03z"/>
			</g>
			<g>
				<path style="fill:#525D7D;" d="M117.198,193.922c-0.23,0-0.459-0.003-0.689-0.008c-14.236-0.301-29.036-11.587-29.161-29.954
					c-0.059-8.359,3.109-16.13,8.922-21.878c5.906-5.84,14.15-9.099,22.513-8.948c1.169,0.02,2.348,0.107,3.504,0.257
					c11.06,1.436,20.254,8.506,23.996,18.451c1.048,2.779,1.661,5.806,1.821,8.997c0.437,8.691-2.959,17.645-9.084,23.951
					C133.285,190.694,125.558,193.921,117.198,193.922z M118.215,137.447c-7.075,0-13.941,2.792-18.909,7.706
					c-4.978,4.923-7.692,11.592-7.64,18.777c0.107,15.74,12.762,25.41,24.935,25.668c9.507,0.186,15.751-4.14,19.322-7.815
					c5.305-5.462,8.247-13.21,7.869-20.726c-0.138-2.742-0.659-5.33-1.55-7.691c-3.179-8.449-11.038-14.461-20.511-15.692
					c-0.997-0.129-2.014-0.204-3.024-0.221C118.543,137.448,118.379,137.447,118.215,137.447z"/>
			</g>
			<g>
				<path style="fill:#525D7D;" d="M117.395,183.797c-0.153,0-0.306-0.001-0.46-0.005c-9.502-0.201-19.381-7.73-19.463-19.983
					c-0.039-5.573,2.075-10.754,5.953-14.589c3.936-3.892,9.399-6.095,15-5.963c0.775,0.013,1.561,0.071,2.334,0.172
					c7.377,0.958,13.514,5.683,16.016,12.33c0.701,1.858,1.11,3.879,1.217,6.005c0.291,5.786-1.969,11.745-6.044,15.942
					C128.121,181.644,122.968,183.797,117.395,183.797z M118.047,147.571c-4.336,0-8.544,1.71-11.586,4.719
					c-3.043,3.01-4.702,7.09-4.671,11.489c0.065,9.624,7.798,15.539,15.236,15.696c5.833,0.122,9.639-2.531,11.822-4.778
					c3.256-3.352,5.062-8.106,4.83-12.717c-0.084-1.678-0.403-3.26-0.945-4.7c-1.938-5.151-6.74-8.818-12.532-9.57
					c-0.613-0.079-1.237-0.125-1.853-0.136C118.248,147.572,118.148,147.571,118.047,147.571z"/>
			</g>
			<g>
				<path style="fill:#525D7D;" d="M117.587,173.845c-0.077,0-0.155-0.001-0.233-0.003c-4.848-0.103-9.888-3.939-9.929-10.182
					c-0.02-2.832,1.057-5.469,3.033-7.423c1.998-1.977,4.728-3.095,7.614-3.03c0.394,0.007,0.789,0.036,1.182,0.087
					c3.759,0.488,6.891,2.907,8.174,6.313c0.359,0.954,0.568,1.985,0.622,3.065c0.148,2.929-0.995,5.945-3.057,8.068
					C123.044,172.747,120.422,173.845,117.587,173.845z M117.881,157.523c-1.643,0-3.236,0.647-4.386,1.784
					c-1.141,1.129-1.763,2.664-1.751,4.324c0.024,3.615,2.918,5.835,5.703,5.895c2.165,0.012,3.63-0.95,4.45-1.794
					c1.242-1.278,1.93-3.089,1.842-4.843c-0.032-0.633-0.15-1.225-0.351-1.759c-0.708-1.88-2.548-3.274-4.689-3.553
					c-0.234-0.03-0.469-0.048-0.704-0.051C117.957,157.524,117.919,157.523,117.881,157.523z"/>
			</g>
			<g>
				<path style="fill:#525D7D;" d="M118.274,163.447c-0.527,0-1.056-0.193-1.472-0.581c-0.871-0.814-0.918-2.18-0.105-3.052
					c4.67-5.003,9.575-9.908,14.317-14.651c4.717-4.717,9.595-9.595,14.215-14.544c0.814-0.87,2.18-0.918,3.052-0.105
					c0.871,0.814,0.919,2.18,0.105,3.052c-4.67,5.004-9.575,9.908-14.318,14.652c-4.717,4.717-9.595,9.594-14.214,14.543
					C119.428,163.216,118.851,163.447,118.274,163.447z"/>
			</g>
			<g>
				<path style="fill:#525D7D;" d="M151.984,138.294c-0.096,0-0.193-0.006-0.29-0.02c-1.972-0.268-3.832-0.403-5.526-0.403
					c-1.242,0-2.149,0.106-2.811,0.184c-1.08,0.123-2.303,0.268-3.23-0.743c-0.962-1.047-0.724-2.212-0.363-3.976
					c0.307-1.502,0.821-4.015,1.191-8.13c0.056-0.613,0.369-1.173,0.863-1.54c2.672-1.985,5.445-3.899,8.127-5.749l2.147-1.484
					c0.647-0.45,1.485-0.51,2.19-0.16c0.704,0.349,1.163,1.054,1.198,1.84c0.068,1.541,0.097,3.045,0.11,4.487
					c0.826,0.096,1.646,0.205,2.449,0.312c1.006,0.134,2.012,0.269,3.019,0.375c0.807,0.084,1.498,0.614,1.79,1.372
					c0.292,0.757,0.134,1.614-0.408,2.217c-3.218,3.584-6.478,7.526-8.721,10.546C153.307,137.975,152.662,138.294,151.984,138.294z
					 M143.764,135.461L143.764,135.461L143.764,135.461z M146.168,133.553c1.517,0,3.142,0.096,4.843,0.286
					c1.569-2.054,3.495-4.417,5.515-6.772c-1.107-0.145-2.176-0.274-3.252-0.357c-1.123-0.086-1.99-1.022-1.993-2.148
					c-0.001-0.75-0.006-1.523-0.014-2.312c-2.033,1.405-4.1,2.844-6.105,4.313c-0.335,3.336-0.754,5.582-1.054,7.073
					C144.684,133.589,145.369,133.553,146.168,133.553z"/>
			</g>
			<g>
				<path style="fill:#525D7D;" d="M75.334,161.31c-0.054,0-0.109-0.002-0.165-0.006c-17.761-1.34-34.498-14.01-41.648-31.527
					c-0.45-1.104,0.079-2.364,1.183-2.815c1.102-0.451,2.364,0.078,2.815,1.183c6.546,16.038,21.807,27.633,37.975,28.853
					c1.189,0.089,2.08,1.126,1.99,2.315C77.399,160.447,76.452,161.31,75.334,161.31z"/>
			</g>
			<g>
				<path style="fill:#525D7D;" d="M161.056,166.924c-0.951,0-1.822-0.633-2.082-1.595c-0.312-1.15,0.367-2.337,1.519-2.649
					c19.051-5.166,34.603-20.458,39.62-38.956c0.312-1.15,1.501-1.831,2.649-1.519c1.151,0.312,1.831,1.499,1.519,2.649
					c-5.41,19.949-22.154,36.433-42.658,41.993C161.434,166.9,161.243,166.924,161.056,166.924z"/>
			</g>
			<g>
				<path style="fill:#525D7D;" d="M68.697,167.945c-0.591,0-1.179-0.241-1.605-0.715c-0.798-0.886-0.726-2.252,0.16-3.049
					c0.839-0.756,1.659-1.581,2.526-2.454c1.137-1.145,2.302-2.317,3.572-3.388c-1.6-2.186-2.937-4.52-3.984-6.964
					c-0.47-1.097,0.039-2.365,1.134-2.835c1.093-0.468,2.365,0.038,2.835,1.134c1.171,2.733,2.758,5.315,4.716,7.673
					c0.387,0.467,0.561,1.075,0.477,1.676c-0.084,0.601-0.416,1.139-0.916,1.482c-1.685,1.158-3.253,2.737-4.771,4.265
					c-0.871,0.877-1.772,1.784-2.701,2.619C69.728,167.763,69.211,167.945,68.697,167.945z"/>
			</g>
			<g>
				<path style="fill:#525D7D;" d="M172.008,170.573c-0.131,0-0.266-0.013-0.4-0.038c-2.171-0.407-4.289-1.2-6.337-1.967
					c-1.933-0.725-3.759-1.408-5.592-1.78c-0.589-0.12-1.102-0.479-1.414-0.993c-0.313-0.513-0.398-1.134-0.234-1.712
					c0.825-2.909,1.623-5.93,2.591-9.795c0.289-1.157,1.456-1.864,2.619-1.57c1.156,0.29,1.86,1.462,1.57,2.619
					c-0.746,2.98-1.393,5.467-2.03,7.79c1.368,0.411,2.702,0.91,4.005,1.398c1.962,0.735,3.815,1.43,5.617,1.768
					c1.172,0.219,1.944,1.348,1.724,2.519C173.934,169.849,173.027,170.573,172.008,170.573z"/>
			</g>
			<g>
				<path style="fill:#525D7D;" d="M29.49,67.06c-1.141,0-2.094-0.895-2.154-2.047c-0.034-0.649-0.016-1.336,0.052-2.102
					c1.72-19.104,18.978-37.949,32.12-40.815c1.165-0.259,2.316,0.484,2.57,1.649c0.254,1.165-0.484,2.316-1.649,2.569
					c-11.668,2.545-27.221,20.11-28.74,36.982c-0.051,0.561-0.064,1.049-0.041,1.493c0.062,1.191-0.854,2.206-2.044,2.268
					C29.566,67.059,29.528,67.06,29.49,67.06z"/>
			</g>
			<g>
				<path style="fill:#525D7D;" d="M29.149,68.104c-0.135,0-0.271-0.013-0.405-0.038c-0.58-0.111-1.091-0.456-1.411-0.952
					l-1.381-2.158c-1.216-1.905-2.473-3.875-3.784-5.807c-0.67-0.987-0.413-2.33,0.574-2.999c0.988-0.671,2.33-0.412,2.999,0.574
					c1.345,1.983,2.619,3.979,3.851,5.909l0.15,0.235c2.728-1.94,5.568-3.9,8.68-5.726c1.028-0.603,2.351-0.259,2.955,0.77
					c0.603,1.028,0.259,2.351-0.77,2.955c-3.653,2.142-6.981,4.528-10.201,6.834C30.037,67.965,29.596,68.104,29.149,68.104z"/>
			</g>
			<g>
				<path style="fill:#525D7D;" d="M205.699,57.271c-0.919,0-1.771-0.592-2.06-1.516c-0.192-0.614-0.406-1.404-0.657-2.334
					c-2.503-9.273-8.364-30.989-34.218-32.316c-1.191-0.061-2.107-1.076-2.046-2.267c0.06-1.192,1.089-2.116,2.267-2.046
					c28.985,1.487,35.655,26.2,38.167,35.503c0.233,0.865,0.431,1.6,0.609,2.172c0.356,1.138-0.278,2.349-1.417,2.704
					C206.129,57.239,205.913,57.271,205.699,57.271z"/>
			</g>
			<g>
				<path style="fill:#525D7D;" d="M204.987,58.75c-0.338,0-0.68-0.079-0.997-0.245c-0.892-0.465-1.78-0.947-2.671-1.432
					c-1.678-0.912-3.414-1.855-5.151-2.657c-1.083-0.5-1.555-1.782-1.056-2.865c0.499-1.083,1.781-1.557,2.865-1.056
					c1.865,0.861,3.664,1.838,5.403,2.783c0.326,0.177,0.652,0.354,0.978,0.53c0.272-0.385,0.544-0.779,0.822-1.184
					c1.347-1.956,2.74-3.978,4.714-5.755c0.887-0.798,2.253-0.725,3.049,0.16c0.798,0.886,0.726,2.251-0.16,3.049
					c-1.595,1.437-2.786,3.165-4.046,4.994c-0.647,0.94-1.317,1.912-2.049,2.847C206.267,58.46,205.634,58.75,204.987,58.75z"/>
			</g>
		</g>
	</g>
</g>
<g id="Layer_1">
</g>
</svg>
