<?xml version="1.0" encoding="iso-8859-1"?>
<!-- Generator: Adobe Illustrator 21.0.2, SVG Export Plug-In . SVG Version: 6.00 Build 0)  -->
<svg version="1.1" xmlns="http://www.w3.org/2000/svg" xmlns:xlink="http://www.w3.org/1999/xlink" x="0px" y="0px"
	 viewBox="0 0 225.339 189.646" style="enable-background:new 0 0 225.339 189.646;" xml:space="preserve">
<g id="_x31_01">
	<g>
		<g>
			<path style="fill:#E0DFE6;" d="M158.624,39.501c-1.109-1.092-2.68-1.829-4.736-1.902c-7.636-0.274-15.273-0.501-22.912-0.657
				c-6.597-0.135-13.324-1.334-19.219,1.955c-1.09-0.215-2.142-0.401-3.14-0.54c-11.585-1.616-25.198-3.753-36.601-0.42
				c-1.863,0.545-2.603,3.575-0.587,4.491c13.665,6.21,30.485,7.041,45.082,10.468c5.926,1.391,12.14,2.867,18.27,3.328
				c-2.557,0.289-5.221,0.274-8.067,0.248c-11.369-0.101-24.968-1.606-35.863,2.139c-3.142,1.08-2.913,5.011,0,6.172
				c6.601,2.631,14.252,2.643,21.275,3.142c7.93,0.563,16.289,1.436,24.235,0.776c-0.515,0.415-0.935,0.986-1.184,1.701
				c-4.128,11.872-0.453,27.439,0.658,39.704c1.262,13.951,2.682,27.884,3.846,41.845c0.192,2.309,1.153,4.973,3.457,6.027
				c2.76,1.262,4.364,1.768,7.046,0c1.955-1.289,3.657-3.534,3.457-6.027c-1.161-14.452-2.283-28.937-3.975-43.338
				c-1.427-12.138-1.326-28.515-8.129-39.042c-0.427-0.66-0.985-1.111-1.594-1.375c10.893-2.243,19.737-10.855,25.914-19.759
				C169.331,43.431,163.121,38.291,158.624,39.501z"/>
			<path style="fill:#E0DFE6;" d="M124.974,122.05c-2.811-4.965-9.207-7.291-14.425-4.766c-4.787,2.316-8.15,9.804-3.56,13.948
				c-0.196,0.163-0.392,0.327-0.592,0.505c-1.2,1.064-0.688,2.867,0.472,3.665c2.453,1.686,4.228,2.168,7.2,2.49
				c2.449,0.265,4.91,0.697,7.237-0.363C126.812,135.022,127.706,126.875,124.974,122.05z"/>
			<path style="fill:#E0DFE6;" d="M183.058,23.446c-0.714-5.137-0.424-11.16-3.003-15.748c-0.769-1.368-2.575-1.163-3.388,0
				c-3.087,4.422-2.969,11.164-3.125,16.411c-0.122,4.094-0.55,8.562,0.818,12.342c-0.441-0.02-0.878,0.069-1.249,0.307
				c-6.401,4.111-10.75,11.494-14.938,17.706c-4.124,6.116-10.33,12.259-9.24,19.94c0.04,0.279,0.126,0.542,0.245,0.792
				c-0.843,4.792-0.507,10.357-0.633,14.624c-0.283,9.56-0.19,19.14,0.018,28.701c0.198,9.065,0.419,18.129,0.735,27.191
				c0.211,6.064-1.244,13.518,5.573,15.986c3.112,1.126,6.742-1.821,6.589-5.02l-0.017-0.361c-0.051-1.075-0.37-1.976-0.89-2.7
				c-0.897-2.484,0.111-8.559,0.074-10.926c-0.063-4.029-0.15-8.056-0.256-12.085c-0.185-7.051-0.343-14.102-0.64-21.149
				c-0.298-7.058-0.588-14.11-1.204-21.148c-0.321-3.664-0.274-8.585-1.185-12.793c4.833-3.545,7.347-10.437,10.261-15.54
				c3.534-6.188,7.705-12.79,8.898-19.915c0.061,0.068,0.113,0.139,0.176,0.206c1.81,1.909,5.445,1.551,6.681-0.861
				C185.98,34.288,183.819,28.926,183.058,23.446z"/>
			<path style="fill:#E0DFE6;" d="M139.782,13.752c-4.245-3.475-7.348-7.428-10.437-11.932c-1.716-2.503-5.701-1.635-5.791,1.568
				c-0.194,6.891,3.313,13.644,8.163,18.428C137.028,27.055,145.38,18.336,139.782,13.752z"/>
			<path style="fill:#E0DFE6;" d="M91.992,19.539c-0.332-1.891-1.67-3.128-3.163-4.191c-0.998-0.711-0.785-0.428-1.679-1.34
				c-0.957-0.977-1.891-2.852-2.569-4.431c-0.818-1.904-3.537-2.7-5.386-2.192c-2.044,0.562-3.463,2.5-3.501,4.599
				c-0.055,3.056,1.004,6.249,2.764,8.73c2.105,2.967,5.832,6.904,9.892,5.239C91.156,24.802,92.532,22.613,91.992,19.539z"/>
			<path style="fill:#E0DFE6;" d="M124.752,15.283c-0.828-3.468-1.926-8.055-4.485-10.631c-1.613-1.625-4.931-1.479-5.999,0.773
				c-1.604,3.38-1.254,7.741-0.878,11.396c0.354,3.443,2.838,6.184,6.553,5.681C123.438,22.029,125.565,18.688,124.752,15.283z"/>
			<path style="fill:#E0DFE6;" d="M179.172,30.09c-0.8-7.374-0.173-16.401-3.289-23.208c-1.152-2.516-5.038-2.222-6.276,0
				c-3.612,6.485-2.935,16.014-2.904,23.208C166.739,38.256,180.023,37.933,179.172,30.09z"/>
			<path style="fill:#E0DFE6;" d="M59.676,104.385c-1.869-1.054-4.422-0.812-5.943,0.767c-3.11,3.23-2.694,6.047-2.64,10.265
				c0.057,4.467-0.624,8.773-2.518,12.847c-4.369,9.399-11.952,10.329-20.603,13.678c-2.875,1.113-3.252,4.436-0.816,6.246
				c9.746,7.243,24.069-1.515,30.227-9.596C63.029,131.181,70.223,110.33,59.676,104.385z"/>
			<path style="fill:#E0DFE6;" d="M81.777,151.639c-0.136-0.96-0.272-1.92-0.407-2.879c-0.236-1.666-0.471-3.333-0.707-4.999
				c-0.518-3.666-1.04-7.331-1.566-10.996c-1.11-7.739-14.281-5.966-13.709,1.855c0.281,3.84,0.6,7.679,0.842,11.522
				c0.025,0.282,0.029,0.566,0.048,0.849c-1.18,0.213-2.389,0.466-2.571,0.51c-1.39,0.335-2.743,0.786-4.06,1.327
				c-0.01-0.042-0.013-0.084-0.024-0.125c-0.58-2.375-3.51-3.486-5.566-2.264c-4.503,2.675-6.192,8.013-7.259,12.893
				c-1.44,6.586,6.255,11.297,11.304,6.58c2.693-2.515,5.714-4.166,9.312-4.962c1.201-0.266,2.38-0.437,3.526-0.654
				c0.41,0.431,0.864,0.859,1.417,1.285C78.157,166.053,85.958,156.803,81.777,151.639z"/>
			<path style="fill:#E0DFE6;" d="M180.907,154.843c-1.014-5.749-3.581-14.243-9.318-16.991c-2.402-1.151-4.818,0.264-5.049,2.897
				c-0.228,2.594,0.767,5.332,1.236,7.883c0.48,2.611,0.681,5.243,0.659,7.898c-0.032,3.832,3.473,6.738,7.193,6.235
				C179.64,162.224,181.572,158.61,180.907,154.843z"/>
			<path style="fill:#E0DFE6;" d="M222.775,170.063c-3.031-7.298-6.068-14.586-9.417-21.746c-3.124-6.68-5.981-14.4-11.375-19.569
				c-1.783-1.708-4.865-0.487-4.882,2.022c-0.008,1.167,0.096,2.328,0.243,3.486c-0.279-0.45-0.533-0.915-0.826-1.356
				c-1.909-2.87-7.065-2.018-6.888,1.866c0.23,5.035,1.404,10.016,2.97,14.795c0.783,2.389,1.605,4.773,2.513,7.118
				c0.212,0.549,0.786,1.604,1.343,2.683c-0.79,0.117-1.605,0.173-2.364,0.304c-6.467,1.114-5.368,10.292,0,12.025
				c0.093,0.03,0.195,0.044,0.29,0.072c-1.333,3.394-0.305,7.721,4.041,8.408c6.504,1.028,13.362-0.986,19.804-2.096
				C221.405,177.528,224.033,173.092,222.775,170.063z"/>
			<path style="fill:#E0DFE6;" d="M83.334,112.935c-1.376-1.739-2.925-1.687-4.646-2.766c-1.604-1.005-2.776-2.853-3.883-4.306
				c-2.632-3.452-4.989-6.98-8.342-9.812c-5.327-4.499-12.442-6.795-18.759-3.027c-1.388,0.828-1.372,3.553,0.498,3.812
				c15.55,2.153,14.909,24.191,30.367,25.375c1.862,0.143,4.296-1.185,5.079-2.913c0.131-0.29,0.263-0.58,0.394-0.871
				C84.974,116.371,84.707,114.669,83.334,112.935z"/>
		</g>
		<g>
			<g>
				<path style="fill:#525D7D;" d="M83.631,160.846c-0.045,0-0.09-0.001-0.136-0.004c-1.191-0.075-2.094-1.099-2.02-2.29
					c0.364-5.828,0.55-12.16,0.55-18.824c0-8.888-0.228-14.128-0.47-19.676c-0.281-6.472-0.572-13.165-0.572-26.309
					c0-5.022,0.042-10.04,0.083-15.063c0.037-4.321,0.072-8.645,0.081-12.974c-7.264-7.872-17.157-18.553-24.205-26.013
					c-0.401-0.423-0.613-0.99-0.589-1.572c0.451-10.977,0.758-22.125,0.911-33.134c0.008-0.595,0.261-1.158,0.699-1.56
					c0.437-0.402,1.006-0.614,1.614-0.564c3.777,0.267,7.583,0.517,11.39,0.767c2.47,0.162,4.939,0.325,7.401,0.492
					c1.124,0.076,2.002,1.005,2.013,2.132c0.023,2.338,0.042,4.665,0.042,6.994c0,2.224-0.018,4.189-0.055,6.032
					c5.724-0.014,12.073-0.077,18.331-0.373V2.159c0-0.582,0.235-1.139,0.651-1.545c0.418-0.408,0.978-0.626,1.562-0.614
					c3.195,0.079,6.404,0.243,9.506,0.401c4.987,0.254,10.139,0.519,15.198,0.418c0.631-0.011,1.141,0.211,1.555,0.617
					c0.415,0.406,0.648,0.961,0.648,1.542V18.39c5.787,0.773,11.959,1.355,18.753,1.771c0.048-0.727,0.096-1.452,0.145-2.179
					c0.295-4.442,0.602-9.033,0.706-13.526c0.014-0.589,0.268-1.147,0.703-1.543c0.434-0.396,1.015-0.59,1.601-0.561
					c2.309,0.156,4.63,0.343,6.956,0.529c5.634,0.453,11.46,0.921,17.073,0.921l1.161-0.007c1.16,0.024,2.167,0.943,2.182,2.135
					c0.011,0.994,0.017,1.99,0.017,2.986c0,7.09-0.299,14.276-0.589,21.225l-0.207,5.066c-0.018,0.461-0.184,0.905-0.472,1.265
					c-3.999,4.994-17.524,22.08-25.49,34.458c-0.356,10.7-0.529,21.534-0.529,33.1c0,16.409,0.361,34.15,1.106,54.238
					c0.044,1.192-0.885,2.194-2.077,2.238c-1.189,0.056-2.193-0.887-2.238-2.078c-0.746-20.141-1.109-37.935-1.109-54.398
					c0-11.828,0.18-22.897,0.551-33.838c0.013-0.387,0.129-0.762,0.337-1.088c7.766-12.173,21.063-29.052,25.634-34.777l0.179-4.366
					c0.287-6.905,0.585-14.045,0.585-21.045c0-0.267,0-0.533-0.001-0.8c-5.479-0.048-11.055-0.496-16.458-0.929
					c-1.558-0.125-3.114-0.25-4.665-0.365c-0.139,3.843-0.396,7.699-0.647,11.449c-0.096,1.435-0.191,2.87-0.281,4.307
					c-0.074,1.182-1.085,2.079-2.273,2.021c-8.515-0.47-16.076-1.185-23.116-2.187c-1.064-0.152-1.854-1.063-1.854-2.138V5.159
					c-4.491-0.031-8.957-0.224-13.302-0.446c-2.355-0.119-4.769-0.243-7.181-0.329V20.96c0,1.146-0.894,2.092-2.038,2.156
					c-7.832,0.437-15.888,0.481-22.823,0.488c-0.583,0-1.144-0.236-1.55-0.655c-0.408-0.419-0.627-0.985-0.609-1.569
					c0.073-2.45,0.108-5.033,0.108-8.13c0-1.65-0.01-3.3-0.024-4.953c-1.796-0.119-3.597-0.239-5.396-0.357
					c-3.05-0.199-6.1-0.401-9.135-0.61c-0.159,10-0.443,20.096-0.843,30.06c7.205,7.637,17.078,18.303,24.19,26.01
					c0.368,0.401,0.573,0.924,0.572,1.467c-0.006,4.622-0.045,9.236-0.083,13.85c-0.041,5.01-0.083,10.015-0.083,15.026
					c0,13.051,0.29,19.696,0.568,26.122c0.243,5.596,0.474,10.881,0.474,19.863c0,6.753-0.188,13.178-0.558,19.094
					C85.713,159.966,84.763,160.846,83.631,160.846z"/>
			</g>
			<g>
				<path style="fill:#525D7D;" d="M99.385,40.751c-15.025,0-28.218-0.524-40.335-1.601c-1.188-0.105-2.065-1.154-1.96-2.342
					c0.105-1.188,1.174-2.066,2.342-1.959c11.987,1.065,25.057,1.584,39.952,1.584c13.477,0,27.191-0.416,40.454-0.817
					c10.62-0.322,21.6-0.655,32.453-0.776c1.206,0,2.17,0.95,2.183,2.135c0.013,1.192-0.943,2.169-2.135,2.183
					c-10.811,0.119-21.772,0.453-32.37,0.773C126.674,40.335,112.927,40.751,99.385,40.751z"/>
			</g>
			<g>
				<path style="fill:#525D7D;" d="M148.358,69.845c-22.368,0-45.612-1.342-66.121-2.527c-1.189-0.068-2.099-1.089-2.03-2.28
					c0.069-1.188,1.036-2.113,2.28-2.03c20.449,1.181,43.628,2.519,65.871,2.519c1.192,0,2.159,0.967,2.159,2.159
					C150.517,68.878,149.55,69.845,148.358,69.845z"/>
			</g>
			<g>
				<path style="fill:#525D7D;" d="M223.178,189.646c-0.342,0-0.687-0.08-1.009-0.252c-66.451-35.225-134.127-37.068-212.994-5.786
					c-1.102,0.433-2.363-0.102-2.803-1.212c-0.44-1.108,0.103-2.363,1.212-2.803c39.219-15.556,75.286-22.849,110.281-22.272
					c36.808,0.597,71.588,9.841,106.326,28.258c1.054,0.558,1.455,1.865,0.897,2.918
					C224.699,189.23,223.951,189.646,223.178,189.646z"/>
			</g>
			<g>
				<path style="fill:#525D7D;" d="M33.221,154.751c-0.219,0-0.437-0.003-0.656-0.006c-17.875-0.292-32.176-14.295-32.556-31.88
					C-0.36,105.807,11.415,91.1,27.399,88.657c1.771-0.273,3.583-0.425,5.385-0.45c0.167-0.001,0.336-0.003,0.504-0.003
					c9.473,0,18.11,3.374,24.374,9.53c6.193,6.088,9.627,14.415,9.668,23.446c0.041,9.191-3.385,17.657-9.644,23.84
					C51.318,151.309,42.651,154.751,33.221,154.751z M33.29,92.522c-0.15,0-0.299,0.001-0.45,0.003
					c-1.6,0.022-3.212,0.156-4.786,0.399c-13.85,2.118-24.05,14.95-23.727,29.849c0.328,15.254,12.763,27.401,28.31,27.654
					c8.532,0.173,16.334-2.868,22.016-8.48c5.426-5.358,8.394-12.727,8.359-20.747c-0.035-7.871-3.011-15.111-8.376-20.386
					C49.186,95.457,41.619,92.522,33.29,92.522z"/>
			</g>
			<g>
				<path style="fill:#525D7D;" d="M32.92,172.115c-1.164,0-2.122-0.926-2.156-2.096c-0.043-1.475-0.062-2.955-0.062-4.439
					c0-5.997,0.312-12.136,0.613-18.075c0.298-5.884,0.607-11.969,0.607-17.854c0-1.442-0.018-2.88-0.059-4.314
					c-0.035-1.192,0.904-2.187,2.096-2.221c1.176-0.094,2.186,0.904,2.22,2.096c0.043,1.474,0.062,2.955,0.062,4.439
					c0,5.995-0.312,12.135-0.613,18.074c-0.298,5.884-0.607,11.969-0.607,17.856c0,1.442,0.018,2.88,0.059,4.312
					C35.114,171.085,34.175,172.08,32.92,172.115z"/>
			</g>
			<g>
				<path style="fill:#525D7D;" d="M33.314,142.428c-1.328,0-2.606-0.877-4.279-2.893c-1.535-1.851-3.856-4.647-8.893-8.312
					c-0.964-0.701-1.178-2.051-0.477-3.015c0.7-0.969,2.055-1.179,3.015-0.477c5.476,3.982,8.106,7.152,9.678,9.045
					c0.374,0.451,0.786,0.946,1.061,1.224c0.701-0.398,2.162-1.607,3.695-2.876c1.563-1.296,3.705-3.068,6.51-5.25
					c0.939-0.732,2.297-0.564,3.029,0.378s0.564,2.298-0.378,3.029c-2.752,2.141-4.779,3.819-6.407,5.168
					C36.911,140.901,35.066,142.428,33.314,142.428z"/>
			</g>
			<g>
				<path style="fill:#525D7D;" d="M84.044,127.433c-0.211,0-0.424-0.031-0.635-0.096c-0.551-0.169-1.11-0.347-1.675-0.527
					c-3.081-0.98-6.266-1.992-9.242-1.992c-1.764,0-3.289,0.358-4.66,1.096c-1.051,0.564-2.357,0.172-2.925-0.878
					c-0.565-1.051-0.171-2.36,0.879-2.925c2.017-1.084,4.21-1.611,6.706-1.611c3.646,0,7.313,1.167,10.549,2.196
					c0.552,0.176,1.099,0.349,1.636,0.514c1.14,0.35,1.779,1.559,1.43,2.698C85.821,126.837,84.967,127.433,84.044,127.433z"/>
			</g>
			<g>
				<path style="fill:#525D7D;" d="M50.337,167.407c-0.515,0-1.03-0.183-1.444-0.554c-2.794-2.516-4.152-5.98-4.152-10.591
					c0-2.231,0.322-4.443,0.601-6.123c0.195-1.177,1.302-1.965,2.485-1.774c1.175,0.195,1.971,1.309,1.774,2.485
					c-0.253,1.514-0.542,3.499-0.542,5.412c0,3.364,0.866,5.708,2.724,7.381c0.886,0.798,0.957,2.163,0.16,3.05
					C51.517,167.167,50.929,167.407,50.337,167.407z"/>
			</g>
			<g>
				<path style="fill:#525D7D;" d="M128.349,159.88c-1.192,0-2.159-0.967-2.159-2.159c0-3.784,0.15-7.621,0.297-11.332
					c0.146-3.715,0.298-7.557,0.298-11.349v-0.478c0.001-4.959,0.003-9.643-1.153-12.947c-1.122-3.213-3.184-4.584-6.895-4.584
					c-9.269,0-12.554,6.061-12.554,23.162c0,2.274,0.063,4.556,0.127,6.843c0.063,2.295,0.129,4.668,0.129,7.021
					c0,1.221-0.017,2.442-0.062,3.663c-0.044,1.192-1.057,2.151-2.236,2.079c-1.192-0.043-2.122-1.044-2.079-2.236
					c0.042-1.168,0.059-2.338,0.059-3.506c0-2.294-0.065-4.636-0.128-6.902c-0.063-2.28-0.128-4.639-0.128-6.962
					c0-14.273,2.044-27.48,16.872-27.48c5.547,0,9.238,2.516,10.971,7.477c1.397,3.998,1.396,9.038,1.394,14.374v0.477
					c0,3.878-0.153,7.762-0.301,11.519c-0.145,3.669-0.294,7.463-0.294,11.162C130.508,158.913,129.541,159.88,128.349,159.88z"/>
			</g>
			<g>
				<path style="fill:#525D7D;" d="M104.638,142.145c-0.957,0-1.832-0.641-2.086-1.609c-0.304-1.154,0.385-2.335,1.538-2.637
					c3.573-0.94,7.035-1.061,9.652-1.061c1.424,0,2.848,0.041,4.272,0.083c1.382,0.039,2.765,0.08,4.147,0.08
					c2.399,0,4.339-0.129,6.103-0.408c1.168-0.187,2.283,0.618,2.468,1.796c0.186,1.177-0.618,2.283-1.796,2.468
					c-1.99,0.315-4.144,0.461-6.775,0.461c-1.424,0-2.848-0.041-4.272-0.083c-1.382-0.039-2.765-0.08-4.147-0.08
					c-2.357,0-5.459,0.104-8.553,0.918C105.005,142.123,104.82,142.145,104.638,142.145z"/>
			</g>
			<g>
				<path style="fill:#525D7D;" d="M116.194,158.212c-0.06,0-0.121-0.003-0.181-0.007c-1.189-0.098-2.072-1.143-1.974-2.33
					c0.062-0.749,0.093-1.534,0.093-2.401c0-2.086-0.181-4.304-0.357-6.449c-0.178-2.186-0.364-4.446-0.364-6.618
					c0-1.192,0.967-2.159,2.159-2.159c1.192,0,2.159,0.967,2.159,2.159c0,1.996,0.17,4.069,0.35,6.266
					c0.183,2.231,0.371,4.539,0.371,6.8c0,0.987-0.035,1.889-0.107,2.758C118.249,157.359,117.305,158.212,116.194,158.212z"/>
			</g>
			<g>
				<path style="fill:#525D7D;" d="M190.392,171.571c-0.994,0-1.889-0.69-2.108-1.701c-0.253-1.165,0.486-2.315,1.652-2.568
					c4.459-0.97,9.055-1.771,13.702-2.392c-3.362-8.514-6.178-17.364-8.909-25.948c-1.494-4.7-3.024-9.508-4.648-14.28
					c-1.888,7.003-4.324,13.834-6.699,20.494c-2.529,7.091-5.145,14.425-7.034,21.811c-0.295,1.155-1.47,1.854-2.627,1.556
					c-1.155-0.295-1.851-1.472-1.556-2.627c1.938-7.578,4.588-15.006,7.15-22.191c3.132-8.781,6.37-17.863,8.244-27.101
					c0.191-0.946,0.988-1.65,1.951-1.725c0.952-0.075,1.858,0.502,2.19,1.407c2.603,7.069,4.913,14.326,7.145,21.346
					c2.984,9.383,6.071,19.086,9.841,28.227c0.257,0.625,0.208,1.335-0.135,1.917c-0.343,0.583-0.937,0.973-1.609,1.051
					c-5.46,0.64-10.873,1.539-16.089,2.673C190.697,171.555,190.544,171.571,190.392,171.571z"/>
			</g>
			<g>
				<path style="fill:#525D7D;" d="M154.443,162.898c-0.287,0-0.578-0.056-0.857-0.179c-1.094-0.474-1.597-1.744-1.122-2.839
					c3.934-9.083,8.833-20.389,12.977-31.254c0.297-0.779,1.015-1.317,1.847-1.383c0.821-0.066,1.624,0.353,2.041,1.074
					c1.781,3.092,3.77,6.183,5.693,9.172c2.145,3.334,4.364,6.782,6.39,10.367c0.588,1.039,0.221,2.356-0.817,2.942
					c-1.04,0.586-2.356,0.222-2.942-0.817c-1.965-3.478-4.149-6.872-6.263-10.156c-1.165-1.812-2.355-3.66-3.514-5.534
					c-3.794,9.636-7.992,19.326-11.45,27.307C156.072,162.412,155.278,162.898,154.443,162.898z"/>
			</g>
			<g>
				<path style="fill:#525D7D;" d="M190.448,173.834c-1.192,0-2.159-0.967-2.159-2.159c0-3.991-0.014-7.917-0.027-11.844
					c-0.014-3.93-0.028-7.862-0.028-11.858c0-1.192,0.967-2.159,2.159-2.159c1.192,0,2.159,0.967,2.159,2.159
					c0,3.991,0.014,7.917,0.027,11.844c0.014,3.93,0.028,7.862,0.028,11.858C192.607,172.867,191.64,173.834,190.448,173.834z"/>
			</g>
			<g>
				<path style="fill:#525D7D;" d="M168.737,165.345c-0.073,0-0.146-0.004-0.221-0.011c-1.186-0.121-2.051-1.179-1.93-2.366
					c0.06-0.597,0.09-1.21,0.09-1.875c0-1.584-0.167-3.146-0.346-4.8c-0.184-1.722-0.375-3.503-0.375-5.376
					c0-1.192,0.967-2.159,2.159-2.159c1.192,0,2.159,0.967,2.159,2.159c0,1.643,0.17,3.233,0.351,4.915
					c0.181,1.695,0.37,3.447,0.37,5.261c0,0.811-0.037,1.567-0.112,2.311C170.769,164.516,169.83,165.345,168.737,165.345z"/>
			</g>
		</g>
	</g>
</g>
<g id="Layer_1">
</g>
</svg>
