<?xml version="1.0" encoding="iso-8859-1"?>
<!-- Generator: Adobe Illustrator 21.0.2, SVG Export Plug-In . SVG Version: 6.00 Build 0)  -->
<svg version="1.1" xmlns="http://www.w3.org/2000/svg" xmlns:xlink="http://www.w3.org/1999/xlink" x="0px" y="0px"
	 viewBox="0 0 209.323 202.231" style="enable-background:new 0 0 209.323 202.231;" xml:space="preserve">
<g id="_x31_02">
	<g>
		<g>
			<path style="fill:#E0DFE6;" d="M160.082,51.11c-0.018-5.37-5.468-7.653-9.877-5.668c-7.148,3.219-14.863,6.006-21.689,9.859
				c-1.713,0.967-3.053,2.007-4.088,3.238c-1.006-0.232-2.108-0.237-3.296,0.126c-11.437,3.499-22.389,8.172-32.776,13.999
				c-2.47-2.186-7.111-1.341-7.042,2.925c0.007,0.414,0.009,0.828,0.016,1.242c-0.292,0.184-0.59,0.355-0.881,0.54
				c-4.859,3.099-3.471,10.794,1.022,12.519c0.172,26.761-0.466,53.474-2.766,80.173c-0.378,4.392,5.282,7.374,8.827,5.065
				c6.417-4.179,13.11-7.817,20.295-10.508c5.034-1.885,10.685-2.676,15.54-4.969c10.846-5.123,9.296-20.384,10.185-30.517
				c0.274-3.127,0.502-6.255,0.716-9.384c6.484-2.303,13.524-4.145,19.69-7.163c5.179-2.535,6.432-6.154,6.539-11.747
				C160.813,84.291,160.138,67.669,160.082,51.11z"/>
			<path style="fill:#E0DFE6;" d="M193.482,159.754c-1.424-5.865-8.513-5.514-11.591-1.515c-0.019,0.025-0.037,0.051-0.056,0.076
				c-0.203,0.095-0.406,0.176-0.607,0.293c-1.756,1.028-2.814,2.914-3.732,4.887c-1.417,0.076-2.928,1.121-3.469,2.407
				c-2.378,5.647-2.193,13.03-2.453,19.079c-0.095,2.213,1.799,5.074,4.131,5.426c6.836,1.033,13.658-5.616,17.91-10.551
				C198.733,173.913,195.106,166.443,193.482,159.754z"/>
			<path style="fill:#E0DFE6;" d="M155.392,137.642c-3.151-1.291-6.258-2.847-9.461-4.045c-2.055-2.636-6.024-3.713-8.758-1.866
				c-0.026,0-0.052-0.005-0.078-0.005c-2.299-0.023-3.178,2.167-2.531,3.962c-0.542,1.73-0.582,3.424-0.019,5.008
				c0.297,5.271,0.603,10.542,0.912,15.812c-2.31,0.179-4.801,0.858-7.908,1.953c-8.4,2.96-16.622,6.517-24.578,10.516
				c-4.153,2.087-8.115,4.42-12.113,6.781c-4.012,2.369-5.837,0.8-10.005-0.974c-7.675-3.266-15.686-6.602-24.064-7.353
				c-1.26-0.113-1.766,1.572-0.987,2.382c6.215,6.461,14.593,10.84,22.452,14.962c6.846,3.59,11.527,5.298,18.91,1.772
				c8.711-4.161,17.136-8.632,26.184-12.074c3.375-1.284,9.665-4.941,13.252-4.623c3.539,0.314,4.388,2.709,8.552,1.125
				c4.546-1.729,6.154-7.77,2.067-10.8c0.086-0.182,0.185-0.349,0.259-0.544c0.75-1.981-0.001-4.955,0.876-6.62
				c0.512-0.972,3.341-2.057,4.218-2.598c1.419-0.874,2.807-1.728,4.131-2.747C160.618,144.649,159.972,139.519,155.392,137.642z"/>
			<path style="fill:#E0DFE6;" d="M200.626,166.889c-3.232-0.561-6.726,1.378-6.637,5.056c0.043,1.768,0.629,3.096,0.919,4.724
				c0.296,1.662,0.808,1.927,1.047,1.936c-0.197,0.089-0.645,0.374-1.507,1.21c-3.341,3.241-11.052,4.692-15.363,6.611
				c-2.241,0.997-5.22,3.274-7.57,3.497c-3.177,0.302-4.053-0.851-6.887-2.599c-3.241-1.999-5.494-3.915-9.241-2.525
				c-0.462,0.171-0.979,0.523-1.061,1.061c-0.891,5.847,6.256,12.352,10.977,15.094c7.222,4.194,18.349-3.055,25.021-5.805
				c6.453-2.66,15.925-4.647,18.397-12.116C210.766,176.856,207.492,168.081,200.626,166.889z"/>
			<path style="fill:#E0DFE6;" d="M91.059,165.8l-0.202-0.373c-0.928-1.713-3.285-3.295-5.311-3.046
				c-0.131,0.016-0.261,0.032-0.392,0.048c-0.18,0.022-0.369,0.062-0.556,0.097c-0.033-0.793-0.93-1.457-2.713-1.988
				c-1.656-0.88-3.321-1.745-4.994-2.593c-0.053-0.027-0.107-0.052-0.16-0.078c1.125-13.087,1.565-26.297,2.534-39.386
				c1.034-13.952,4.168-28.817,2.065-42.711c-0.386-2.552-4.589-3.068-5.645-0.738c-5.792,12.782-6.322,28.15-8.047,41.949
				c-1.438,11.507-2.915,23.231-3.63,34.902c-3.444-1.497-6.912-2.939-10.424-4.266c-10.838-4.096-23.011-8.507-34.741-8.221
				c-2.401,0.059-3.104,3.099-1.186,4.379c11.35,7.575,25.376,11.812,37.67,17.733c2.859,1.377,5.711,2.769,8.549,4.191
				c0.99,3.167,4.267,4.351,7.179,3.724c0.606,0.322,1.223,0.623,1.826,0.949c4.604,2.492,8.829,6.179,14.287,4.992
				C91.417,174.439,92.958,169.306,91.059,165.8z"/>
			<path style="fill:#E0DFE6;" d="M149.971,37.552c-11.638,5.392-23.54,10.18-35.36,15.155
				c-11.533,4.854-24.207,9.039-34.907,15.553c-2.363,1.439-0.687,4.535,1.763,4.182c12.392-1.785,24.986-6.98,36.702-11.294
				c12.04-4.433,23.851-9.444,35.77-14.181C160.803,44.24,156.801,34.388,149.971,37.552z"/>
		</g>
		<g>
			<g>
				<path style="fill:#525D7D;" d="M79.39,180.955c-0.378,0-0.756-0.1-1.093-0.297L1.071,135.322
					c-0.658-0.386-1.064-1.093-1.065-1.858L0,129.255c0-8.432,0.07-16.928,0.177-25.394c0.115-9.205,0.271-18.314,0.425-27.267
					c0.252-14.622,0.51-29.743,0.582-44.607c0.004-0.868,0.529-1.65,1.33-1.983c3.451-1.435,6.92-3.005,10.275-4.522
					c6.053-2.737,12.311-5.567,18.812-7.78c5.547-1.888,10.658-3.636,15.399-5.258C62.752,7.056,74.133,3.163,84.02,0.096
					c0.545-0.167,1.132-0.116,1.636,0.147l74.525,38.772c0.693,0.361,1.137,1.068,1.161,1.848
					c0.437,14.122,1.167,28.567,1.871,42.538c0.409,8.106,0.818,16.204,1.175,24.274c0.038,0.868-0.449,1.674-1.233,2.046
					c-0.919,0.435-1.834,0.883-2.747,1.346c-8.214,4.166-16.529,7.957-24.829,11.528c0,0.81,0,1.62,0,2.428v0.51
					c0,9.342,0,19.001,0.143,28.62c0.013,0.873-0.502,1.668-1.303,2.014c-15.388,6.648-39.151,17.443-54.1,24.577
					C80.026,180.886,79.708,180.955,79.39,180.955z M4.322,132.223l75.173,44.131c14.6-6.945,36.809-17.035,51.89-23.578
					c-0.124-9.173-0.124-18.352-0.124-27.243v-0.51c0-0.196,0-0.393,0-0.589c-7.469,3.152-14.912,6.148-22.248,9.101
					c-9.456,3.806-19.235,7.742-28.7,11.872c-0.593,0.259-1.275,0.239-1.848-0.058L4.453,107.374
					c-0.083,7.304-0.135,14.619-0.135,21.882L4.322,132.223z M4.512,102.551l75.015,38.49c9.227-4.005,18.702-7.819,27.875-11.512
					c7.864-3.165,15.856-6.382,23.859-9.784c-0.011-21.655-0.163-43.897-2.179-65.598c-0.111-1.187,0.762-2.239,1.95-2.349
					c1.162-0.108,2.239,0.762,2.349,1.95c1.978,21.27,2.177,42.974,2.197,64.143c7.663-3.325,15.321-6.843,22.878-10.675
					c0.517-0.262,1.036-0.52,1.555-0.774c-0.34-7.589-0.724-15.203-1.109-22.823c-0.685-13.576-1.392-27.598-1.834-41.357
					L84.452,4.484c-9.634,3.008-20.788,6.824-36.056,12.046c-4.743,1.622-9.856,3.371-15.404,5.26
					c-6.303,2.146-12.465,4.932-18.424,7.627c-2.96,1.338-6.008,2.716-9.073,4.018C5.413,47.866,5.163,62.5,4.92,76.668
					C4.774,85.189,4.625,93.851,4.512,102.551z"/>
			</g>
			<g>
				<path style="fill:#525D7D;" d="M79.954,76.33c-0.342,0-0.683-0.082-0.995-0.243L2.335,36.31c-1.058-0.55-1.47-1.853-0.921-2.911
					c0.55-1.059,1.857-1.468,2.911-0.922l75.705,39.3c11.124-4.892,22.621-9.242,33.749-13.453
					c14.596-5.523,29.688-11.234,44.167-18.247l0.333-0.162c1.077-0.517,2.366-0.064,2.881,1.011
					c0.517,1.075,0.065,2.365-1.009,2.881l-0.318,0.154c-14.657,7.098-29.842,12.845-44.526,18.401
					c-11.39,4.31-23.169,8.766-34.478,13.782C80.55,76.269,80.252,76.33,79.954,76.33z"/>
			</g>
			<g>
				<path style="fill:#525D7D;" d="M78.329,180.333c-1.178,0-2.142-0.946-2.159-2.127c-0.136-9.305-0.205-18.819-0.205-28.277
					c0-25.299,0.499-50.877,1.483-76.022c0.048-1.191,1.061-2.097,2.242-2.073c1.192,0.047,2.12,1.051,2.073,2.242
					c-0.983,25.088-1.48,50.609-1.48,75.853c0,9.438,0.069,18.93,0.205,28.214C80.505,179.334,79.553,180.315,78.329,180.333z"/>
			</g>
			<g>
				<path style="fill:#525D7D;" d="M77.98,110.097c-0.353,0-0.703-0.086-1.02-0.256c-7.908-4.24-17.326-9.622-27.296-15.32
					C33.058,85.031,15.885,75.216,1.992,68.509c-1.074-0.518-1.524-1.809-1.005-2.883c0.517-1.074,1.809-1.525,2.883-1.005
					c14.028,6.772,31.267,16.624,47.938,26.152c9.595,5.483,18.677,10.674,26.36,14.815c10.83-3.759,19.127-6.628,25.608-8.87
					c23.109-7.991,23.109-7.991,32.843-11.999c4.47-1.841,11.227-4.623,23.327-9.452c1.103-0.441,2.363,0.097,2.806,1.205
					c0.441,1.108-0.098,2.364-1.206,2.806c-12.077,4.821-18.82,7.597-23.282,9.435c-9.851,4.056-9.851,4.056-33.076,12.087
					c-6.657,2.302-15.23,5.267-26.498,9.179C78.458,110.058,78.219,110.097,77.98,110.097z"/>
			</g>
			<g>
				<path style="fill:#525D7D;" d="M107.832,167.778c-1.122,0-2.069-0.867-2.151-2.003c-2.502-34.596-2.906-69.349-2.967-101.751
					c-0.003-1.193,0.963-2.161,2.155-2.163c1.195,0,2.16,0.964,2.163,2.155c0.062,32.323,0.462,66.985,2.956,101.448
					c0.086,1.19-0.808,2.224-1.997,2.309C107.937,167.775,107.885,167.778,107.832,167.778z"/>
			</g>
			<g>
				<path style="fill:#525D7D;" d="M24.651,148.82c-1.192-0.001-2.16-0.969-2.159-2.161c0.024-32.138,0.142-66.595,0.831-100.809
					c0.024-1.193,1.012-2.213,2.203-2.115c1.192,0.024,2.139,1.01,2.115,2.202c-0.689,34.178-0.807,68.609-0.831,100.725
					C26.808,147.854,25.843,148.82,24.651,148.82z"/>
			</g>
			<g>
				<path style="fill:#525D7D;" d="M52.176,164.978c-1.237-0.024-2.184-1.011-2.16-2.203c0.482-23.669,1.552-46.024,2.333-62.348
					c0.479-10.019,0.826-17.257,0.826-20.515c0-4.305-0.198-8.662-0.389-12.876c-0.09-1.966-0.18-3.931-0.25-5.902
					c-0.044-1.192,0.888-2.193,2.08-2.236c0.025-0.001,0.052-0.001,0.079-0.001c1.157,0,2.114,0.916,2.156,2.081
					c0.07,1.957,0.159,3.91,0.249,5.862c0.193,4.262,0.394,8.668,0.394,13.072c0,3.361-0.348,10.643-0.831,20.721
					c-0.78,16.298-1.848,38.62-2.329,62.23C54.309,164.04,53.347,164.978,52.176,164.978z"/>
			</g>
			<g>
				<path style="fill:#525D7D;" d="M172.249,194.316c-0.405,0-0.81-0.114-1.164-0.34l-22.142-14.16
					c-0.641-0.41-1.018-1.127-0.994-1.888c0.148-4.665,0.242-9.341,0.336-14.012c0.089-4.412,0.178-8.821,0.312-13.212
					c0.022-0.738,0.42-1.413,1.054-1.79c8.209-4.878,16.333-9.479,24.146-13.675c0.689-0.371,1.524-0.339,2.182,0.081
					c3.62,2.306,7.222,4.796,10.707,7.203c2.561,1.769,5.125,3.541,7.72,5.26c0.566,0.375,0.924,0.994,0.963,1.671
					c0.45,7.54,1.709,19.56,3.135,29.911c0.127,0.926-0.357,1.83-1.198,2.238l-0.867,0.42c-7.7,3.728-15.662,7.583-23.088,11.991
					C173.011,194.215,172.63,194.316,172.249,194.316z M152.303,176.838l19.994,12.786c7.066-4.116,14.499-7.732,21.717-11.227
					c-1.285-9.596-2.409-20.335-2.887-27.612c-2.314-1.546-4.606-3.13-6.895-4.711c-3.108-2.147-6.31-4.36-9.509-6.431
					c-7.089,3.828-14.428,7.985-21.845,12.376c-0.114,3.984-0.194,7.981-0.275,11.982
					C152.517,168.281,152.431,172.563,152.303,176.838z"/>
			</g>
			<g>
				<path style="fill:#525D7D;" d="M171.97,194.137c-1.134,0-2.086-0.883-2.153-2.03l-0.131-2.168
					c-0.347-5.72-0.707-11.635-0.707-17.466c0-2.794,0.08-5.343,0.243-7.792c0.048-0.697,0.429-1.329,1.023-1.695
					c6.522-4.01,13.505-8.258,21.977-13.368c1.016-0.618,2.347-0.289,2.963,0.733c0.616,1.021,0.288,2.348-0.734,2.964
					c-8.047,4.855-14.751,8.93-20.989,12.762c-0.111,2.016-0.166,4.12-0.166,6.396c0,5.7,0.356,11.549,0.699,17.204l0.131,2.172
					c0.072,1.19-0.836,2.212-2.025,2.284C172.055,194.136,172.012,194.137,171.97,194.137z"/>
			</g>
			<g>
				<path style="fill:#525D7D;" d="M171.292,168.366c-0.422,0-0.846-0.122-1.22-0.378c-4.041-2.771-8.071-5.721-11.969-8.573
					c-2.865-2.097-5.728-4.193-8.614-6.233c-0.973-0.688-1.205-2.035-0.516-3.009c0.689-0.973,2.035-1.202,3.009-0.516
					c2.904,2.054,5.787,4.163,8.671,6.274c3.871,2.833,7.874,5.762,11.861,8.496c0.983,0.675,1.234,2.019,0.559,3.002
					C172.656,168.038,171.979,168.366,171.292,168.366z"/>
			</g>
		</g>
	</g>
</g>
<g id="Layer_1">
</g>
</svg>
