<?xml version="1.0" encoding="iso-8859-1"?>
<!-- Generator: Adobe Illustrator 21.0.2, SVG Export Plug-In . SVG Version: 6.00 Build 0)  -->
<svg version="1.1" xmlns="http://www.w3.org/2000/svg" xmlns:xlink="http://www.w3.org/1999/xlink" x="0px" y="0px"
	 viewBox="0 0 222.186 206.037" style="enable-background:new 0 0 222.186 206.037;" xml:space="preserve">
<g id="_x31_03">
	<g>
		<g>
			<g>
				<path style="fill:none;" d="M68.013,171.413c-0.178-0.081-0.342-0.179-0.505-0.279c-0.481,0.662-1.015,1.189-1.591,1.567
					c0.526,0.231,1.062,0.449,1.577,0.691c0.335,0.158,0.644,0.327,0.937,0.502c-0.306-0.462-0.494-1.016-0.485-1.648
					C67.95,171.964,67.983,171.689,68.013,171.413z"/>
				<path style="fill:none;" d="M69.166,152.315c0.076,0.093,0.157,0.187,0.231,0.279c1.989,2.468,2.429,5.011,2.114,7.589
					c0.128-0.017,0.257-0.035,0.385-0.052c0.062-0.103,0.12-0.208,0.189-0.307c0.807-1.954,1.946-2.737,3.81-3.521
					C73.398,155.318,71.104,154.016,69.166,152.315z"/>
				<path style="fill:none;" d="M80.096,157.63c0.414,0.487,0.755,1.029,0.977,1.57c0.022,0.053,0.034,0.107,0.054,0.16
					c3.322-0.186,6.622-0.332,9.9-0.622C87.338,158.803,83.599,158.471,80.096,157.63z"/>
				<g>
					<path style="fill:none;" d="M69.397,152.594c1.989,2.468,2.429,5.011,2.114,7.589c0.128-0.017,0.257-0.035,0.385-0.052
						c0.062-0.103,0.12-0.208,0.189-0.307c0.807-1.954,1.946-2.737,3.81-3.521c-2.498-0.987-4.791-2.289-6.73-3.989
						C69.242,152.408,69.322,152.502,69.397,152.594z"/>
					<path style="fill:none;" d="M68.013,171.413c-0.178-0.081-0.342-0.179-0.505-0.279c-0.481,0.662-1.015,1.189-1.591,1.567
						c0.526,0.231,1.062,0.449,1.577,0.691c0.335,0.158,0.644,0.327,0.937,0.502c-0.306-0.462-0.494-1.016-0.485-1.648
						C67.95,171.964,67.983,171.689,68.013,171.413z"/>
					<path style="fill:none;" d="M81.073,159.2c0.022,0.053,0.034,0.107,0.054,0.16c3.322-0.186,6.622-0.332,9.9-0.622
						c-3.69,0.065-7.428-0.268-10.931-1.109C80.511,158.116,80.852,158.659,81.073,159.2z"/>
					<g>
						<path style="fill:none;" d="M71.511,160.183c0.128-0.017,0.257-0.035,0.385-0.052c0.062-0.103,0.12-0.208,0.189-0.307
							c0.807-1.954,1.946-2.737,3.81-3.521c-2.498-0.987-4.791-2.289-6.73-3.989c0.076,0.093,0.157,0.187,0.231,0.279
							C71.385,155.062,71.825,157.606,71.511,160.183z"/>
						<path style="fill:none;" d="M71.544,177.491c0.242,0.652,0.374,1.34,0.424,2.053c0.295-0.68,0.539-1.356,0.668-2.006
							c0.057-0.29,0.07-0.576,0.075-0.861C72.394,177.102,71.986,177.371,71.544,177.491z"/>
						<path style="fill:none;" d="M68.431,173.893c-0.306-0.462-0.494-1.016-0.485-1.648c0.004-0.281,0.037-0.556,0.067-0.833
							c-0.178-0.081-0.342-0.179-0.505-0.279c-0.481,0.662-1.015,1.189-1.591,1.567c0.526,0.231,1.062,0.449,1.577,0.691
							C67.829,173.549,68.138,173.718,68.431,173.893z"/>
						<path style="fill:none;" d="M81.073,159.2c0.022,0.053,0.034,0.107,0.054,0.16c3.322-0.186,6.622-0.332,9.9-0.622
							c-3.69,0.065-7.428-0.268-10.931-1.109C80.511,158.116,80.852,158.659,81.073,159.2z"/>
						<path style="fill:#E0DFE6;" d="M147.832,115.449c-1.34-3.181-5.135-4.451-8.163-2.752c-3.646,2.047-8.19,3.197-11.374,5.916
							c-1.113,0.951-1.268,2.196-0.868,3.311c-1.2,0.439-2.342,1.313-3.269,2.756c-5.772,8.986-12.57,16.312-23.026,19.756
							c-5.044,1.661-10.266,2.316-15.559,2.1c-5.28-0.216-10.376-1.981-15.627-1.977c-2.855,0.002-4.16,2.993-3.036,5.235
							c-3.224-3.316-7.366-6.439-11.543-7.367c-0.905-0.201-1.975,0.43-1.916,1.459c0.225,3.889,1.958,7.054,4.047,10.289
							c0.392,0.607,3.023,4.056,2.896,3.498c0.259,1.139-2.198,4.944-2.96,6.452c-1.251,1.705-1.334,3.52-0.716,5.099
							c-0.883-0.293-1.766-0.585-2.64-0.864c-2.882-0.921-6.349-2.344-9.306-1.24c-4.901-2.569-11.592,2.222-8.289,8.275
							c4.486,8.225,14.46,11.667,18.377,20.175c1.309,2.843,4.498,3.513,7.165,2.627c-2.231,5.027,3.731,10.69,8.109,6.22
							c6.648-6.789,16.516-21.166,14.32-31.754c12.721-0.781,26.211-4.92,35.651-11.328c10.504-7.129,22.385-21.739,16.171-35.078
							c-0.224-0.48-0.659-0.718-1.128-0.773c-0.053-0.117-0.12-0.225-0.179-0.338c3.151-0.157,6.452-1.124,9.133-1.93
							C147.404,122.221,149.185,118.66,147.832,115.449z M75.895,156.304c-1.864,0.784-3.003,1.566-3.81,3.521
							c-0.069,0.098-0.127,0.204-0.189,0.307c-0.128,0.016-0.257,0.035-0.385,0.052c0.314-2.578-0.126-5.121-2.114-7.589
							c-0.074-0.092-0.155-0.186-0.231-0.279C71.104,154.016,73.398,155.318,75.895,156.304z M67.508,171.133
							c0.163,0.1,0.327,0.198,0.505,0.279c-0.03,0.276-0.063,0.551-0.067,0.833c-0.008,0.632,0.179,1.186,0.485,1.648
							c-0.293-0.175-0.602-0.344-0.937-0.502c-0.515-0.242-1.051-0.46-1.577-0.691C66.493,172.323,67.027,171.795,67.508,171.133z
							 M71.969,179.544c-0.05-0.713-0.182-1.401-0.424-2.053c0.442-0.12,0.85-0.389,1.167-0.814
							c-0.005,0.285-0.018,0.571-0.075,0.861C72.508,178.188,72.264,178.864,71.969,179.544z M81.127,159.361
							c-0.02-0.053-0.032-0.107-0.054-0.16c-0.221-0.541-0.563-1.084-0.977-1.57c3.503,0.842,7.241,1.174,10.931,1.109
							C87.749,159.029,84.449,159.175,81.127,159.361z"/>
					</g>
				</g>
			</g>
			<path style="fill:#E0DFE6;" d="M71.563,89.843c-0.506-1.373-1.298-2.733-2.651-3.448c-1.165-0.616-2.367-0.861-3.679-0.685
				c-1.593,0.214-2.969,1.091-3.878,2.326c-1.006,0.836-1.728,1.978-2.14,3.216c-0.391,1.174-0.425,2.757-0.007,3.931
				c0.481,1.351,1.293,2.703,2.615,3.401c1.37,0.724,2.86,0.962,4.386,0.574c1.919-0.488,3.507-1.827,4.549-3.48
				c0.401-0.636,0.674-1.366,0.865-2.092C71.919,92.457,71.975,90.96,71.563,89.843z"/>
			<path style="fill:#E0DFE6;" d="M64.638,108.879c-6.252-1.348-11.287,4.082-15.562,7.956c-4.347,3.939-10.252,9.012-11.797,14.886
				c-0.494,1.878,1.352,4.164,3.391,3.391c5.253-1.992,9.573-6.935,13.916-10.414c4.2-3.364,11.089-6.4,12.138-12.144
				C67.002,111.038,66.326,109.243,64.638,108.879z"/>
			<path style="fill:#E0DFE6;" d="M159.95,39.16c-3.425-0.87-7.167,0.45-10.515,2.257c-0.502-1.006-1.408-1.839-2.465-2.176
				c-7.62-2.433-16.695,3.005-23.883,5.519c-4.438,1.552-8.875,3.104-13.313,4.656c-3.572,1.249-8.021,2.179-10.846,4.885
				c-4.778,4.577-5.055,13.009-6.228,19.069c-1.85,9.561-5.51,15.267-14.017,19.924c-1.95,1.067-1.225,3.658,0.569,4.351
				c15.992,6.181,21.537-17.744,23.767-28.072c1.209-5.6,1.543-6.676,7.022-8.595c5.315-1.862,10.706-3.536,16.054-5.302
				c5.512-1.821,12.642-3.037,17.993-6.176c0.539,0.513,1.267,0.876,2.158,0.959c5.048,0.474,11.986,0.854,15.94-2.827
				C164.967,45.046,163.572,40.08,159.95,39.16z"/>
			<path style="fill:#E0DFE6;" d="M151.725,22.77c-0.909-1.554-2.666-2.221-4.268-2.789c-1.329-0.471-2.707-0.779-4.037-1.244
				c-1.479-0.517-2.787-1.411-4.109-2.247c-2.589-1.635-5.846,2.385-3.341,4.329c2.255,1.75,4.316,3.639,6.512,5.446
				c2.474,2.036,6.53,4.474,9.059,1.042C152.486,26.025,152.535,24.153,151.725,22.77z"/>
			<path style="fill:#E0DFE6;" d="M147.993,32.664c-10.462,0.755-20.631,2.709-30.729,5.522c-7.202,2.006-18.642,3.669-22.276,11.13
				c-1.09,2.237,0.696,4.589,3.146,4.092c16.472-3.338,33.009-7.658,49.859-8.41C155.934,44.642,155.884,32.094,147.993,32.664z"/>
			<path style="fill:#E0DFE6;" d="M139.227,23.232c-2.152-0.858-4.32-1.617-6.501-2.308c0.149-1.342-0.172-2.769-1.194-4.062
				c-0.233-0.412-0.466-0.823-0.699-1.235c-0.26-2.189-1.296-3.81-3.446-4.526c-14.804-4.935-31.695-4.035-46.261,1.901
				c-1.969,0.079-3.938,0.244-5.901,0.517c-12.402,1.729-34.526,9.145-37.527,23.359c-0.291,1.379,0.884,2.8,2.359,2.36
				c4.873-1.455,8.951-5.027,13.238-7.867c0.254-0.004,0.517-0.044,0.79-0.172c3.324-1.553,6.897-2.704,10.535-3.342
				c0.053,2.657,1.977,5.487,4.951,6.092c-2.454,1.292-4.689,3.095-6.559,5.447c-0.972,1.223-0.969,2.621-0.381,3.652
				c-0.112,0.042-0.227,0.071-0.337,0.116c-3.35,1.377-4.244,5.58-1.009,7.721c2.577,1.706,5.76,2.358,8.469,3.885
				c1.355,0.763,2.659,1.691,3.858,2.737c-1.652-0.668-3.588-0.726-5.195,0.095c-8.208,4.195-17.07,7.216-25.749,10.522
				c-1.835-0.612-3.98-0.488-5.508,0.425c-2.242,1.339-4.013,2.758-5.658,4.706c1.506-5.464,3.276-10.682,7.822-14.771
				c1.595-1.435,2.349-4.195,1.648-6.234c-0.039-0.113-0.078-0.227-0.117-0.341c-1.061-3.082-4.116-4.903-7.034-4.446
				c-0.398-0.528-0.964-0.952-1.591-1.206c-9.949-4.032-21.168,9.568-23.356,17.97c-0.504,1.936-0.736,4.383-0.669,7.005
				C7.92,72.02,7.798,72.938,7.9,73.995c0.237,2.475,0.611,4.874,1.051,7.245c-0.183,2.838-0.146,5.664,0.55,8.715
				c1.231,5.398,3.752,10.549,7.03,14.987c1.875,2.539,4.07,5.216,6.842,6.837c2.289,4.398,4.798,8.689,7.612,12.84
				c2.198,3.242,7.516,4.853,10.449,1.346c5.048-6.034,10.132-12.219,18.148-13.992c5.924-1.31,6.041-9.15,1.585-12.128
				c-4.077-2.725-5.913-8.086-7.876-12.374c-0.164-0.357-0.32-0.718-0.482-1.075c3.952-1.454,7.862-3.889,11.381-5.721
				c2.378-1.239,4.718-2.545,7.019-3.911c1.486,2.577,2.8,5.237,3.753,8.306c1.832,5.899,10.658,6.259,12.328,0
				c2.534-9.493,4.873-19.041,7.29-28.565c0.255-1.006,0.236-1.995,0.012-2.92c2.615-1.153,4.265-3.878,4.323-6.475
				c12.347-4.076,25.213-6.155,38.327-6.227c4.755-0.026,7.065-4.746,6.026-8.47C144.943,28.763,143.39,24.891,139.227,23.232z
				 M73.322,43.473c-0.887-0.316-1.78-0.575-2.674-0.771c0.948-0.269,1.9-0.474,2.853-0.618
				C73.414,42.521,73.366,42.995,73.322,43.473z"/>
			<path style="fill:#E0DFE6;" d="M133.729,74.026c-1.777-0.497-3.406-0.106-5.004,0.699c0.821-0.413,0.286-0.191-0.083-0.034
				c-0.149,0.051-0.4,0.127-0.6,0.14c-0.121,0.008-0.684,0.026-0.778,0.048c-0.507-0.05-1.001-0.148-1.521-0.118
				c-1.352,0.078-2.424,0.599-3.228,1.7c-0.993,1.36-0.451,3.286,0.353,4.561c0.895,1.421,2.722,2.587,4.328,3.064
				c3.647,1.082,8.931,0.142,9.872-4.18C137.619,77.376,136.329,74.753,133.729,74.026z"/>
			<path style="fill:#E0DFE6;" d="M220.861,83.028c-1.851-2.324-4.911-2.909-7.549-1.507c-1.965,1.044-3.688,2.505-5.438,3.87
				c-0.151,0.118-0.302,0.236-0.452,0.354c-0.348-0.87-0.718-1.729-1.105-2.585c-0.966-2.141-4.199-1.371-4.774,0.624
				c-1.3,4.511-3.521,12.588,2.869,14.344c2.765,0.76,5.328-1.043,7.633-2.288c2.912-1.573,5.76-3.064,8.359-5.127
				C222.657,88.923,222.498,85.083,220.861,83.028z"/>
		</g>
		<g>
			<g>
				<path style="fill:#525D7D;" d="M37.249,135.75c-0.631,0-1.237-0.277-1.65-0.766c-1.484-1.757-2.992-3.519-4.509-5.29
					C15.806,111.841,0,93.38,0,69.61c0-13.645,6.087-25.441,16.729-32.492C24.879,12.488,48.686,0,87.504,0
					c37.606,0,52.421,6.455,62.828,13.431c0.794,0.531,1.143,1.52,0.861,2.433c-0.283,0.912-1.078,1.54-2.085,1.52l-1.23-0.006
					c-4.253,0-8.264,0.192-12.115,0.582c8.828,4.703,17.893,11.43,27.033,20.07c0.63,0.595,0.843,1.51,0.54,2.323
					c-0.303,0.813-1.063,1.365-1.929,1.403c-22.054,0.96-42.534,4.989-60.884,11.976c-7.903,18.18-7.888,27.153-7.873,36.644
					l0.001,0.314c0.001,1.049-0.751,1.947-1.784,2.13c-4.199,0.741-8.419,1.668-12.733,2.631c-0.672,0.153-1.377-0.03-1.896-0.484
					c-0.518-0.455-0.788-1.129-0.726-1.816c0.091-1.006,0.195-2.326,0.195-3.622c0-5.496-4.413-8.494-6.68-8.494
					c-8.023,0-12.933,6.528-12.933,10.083c0,0.468,0.031,0.936,0.06,1.404c0.035,0.558,0.069,1.116,0.069,1.674
					c0.02,1.062,2.725,6.955,10.166,11.855c0.654,0.432,1.024,1.184,0.965,1.966c-0.059,0.782-0.537,1.47-1.249,1.798
					c-12.416,5.724-21.974,14.501-26.912,24.715c-0.318,0.659-0.949,1.111-1.674,1.203C37.429,135.744,37.338,135.75,37.249,135.75z
					 M87.504,4.318c-37.107,0-59.615,11.723-66.898,34.843c-0.153,0.486-0.474,0.903-0.905,1.176
					C9.925,46.524,4.318,57.194,4.318,69.61c0,22.174,15.278,40.019,30.053,57.275c0.824,0.962,1.645,1.922,2.461,2.879
					c5.161-8.969,13.591-16.726,24.211-22.272c-6.216-5.01-9.138-10.665-9.138-13.296c0-0.468-0.031-0.936-0.06-1.404
					c-0.035-0.558-0.069-1.116-0.069-1.674c0-5.871,6.72-14.401,17.251-14.401c5.192,0,10.998,5.479,10.998,12.812
					c0,0.364-0.007,0.727-0.019,1.083c2.794-0.614,5.559-1.2,8.324-1.719c0.007-9.219,0.412-19.16,8.601-37.725
					c0.231-0.524,0.662-0.935,1.196-1.142c17.57-6.801,37.04-10.932,57.945-12.304c-9.759-8.673-19.355-15.033-28.576-18.936
					c-0.882-0.373-1.413-1.283-1.304-2.234c0.109-0.951,0.831-1.717,1.775-1.881c4.32-0.751,8.775-1.235,13.486-1.461
					C131.634,8.249,116.755,4.318,87.504,4.318z"/>
			</g>
			<g>
				<path style="fill:#525D7D;" d="M27.39,158.452c-0.125,0-0.251-0.011-0.378-0.034c-1.175-0.207-1.958-1.327-1.751-2.501
					c1.095-6.205,3.655-12.101,6.13-17.803c1.157-2.664,2.249-5.179,3.207-7.733c0.419-1.116,1.666-1.682,2.78-1.263
					c1.116,0.418,1.682,1.663,1.263,2.78c-0.996,2.656-2.161,5.341-3.289,7.936c-2.376,5.472-4.833,11.13-5.839,16.834
					C29.328,157.715,28.417,158.452,27.39,158.452z"/>
			</g>
			<g>
				<path style="fill:#525D7D;" d="M123.98,77.156c-0.905,0-1.747-0.572-2.048-1.477c-0.377-1.131,0.234-2.354,1.365-2.731
					c4.003-1.335,8.281-1.95,12.814-1.816c0.113-0.389,0.23-0.779,0.35-1.179c0.774-2.568,1.574-5.223,1.574-9.618
					c0-7.684-3.438-13.494-4.898-14.854c-0.548-0.003-1.096-0.214-1.515-0.632c-0.843-0.843-0.843-2.21,0-3.053
					c0.482-0.483,1.113-0.748,1.776-0.748c3.827,0,8.955,9.536,8.955,19.288c0,5.031-0.934,8.13-1.758,10.864
					c-0.277,0.92-0.539,1.789-0.737,2.657c-0.238,1.038-1.188,1.74-2.259,1.673c-4.599-0.33-8.946,0.186-12.936,1.515
					C124.436,77.12,124.206,77.156,123.98,77.156z M132.839,45.248L132.839,45.248L132.839,45.248z"/>
			</g>
			<g>
				<path style="fill:#525D7D;" d="M95.396,160.481c-2.22,0-21.902-0.221-29.545-7.864c-0.843-0.843-0.843-2.21,0-3.053
					c0.843-0.843,2.21-0.843,3.053,0c4.534,4.534,16.911,6.599,26.492,6.599c19.776,0,31.209-10.771,34.951-32.928
					c0.169-1,1.01-1.747,2.022-1.796c7.314-0.362,13.369-2.418,14.262-4.726c-11.345-14.117-13.726-24.237-13.726-30.242
					c0-1.257,0.044-2.517,0.089-3.777c0.043-1.205,0.087-2.408,0.087-3.605c0-1.964-0.123-3.535-0.387-4.945
					c-0.22-1.172,0.552-2.3,1.725-2.52c1.18-0.214,2.3,0.554,2.519,1.726c0.315,1.678,0.461,3.501,0.461,5.739
					c0,1.248-0.044,2.503-0.089,3.759c-0.043,1.208-0.087,2.417-0.087,3.623c0,5.313,2.218,14.405,12.784,27.55
					c0.746,0.929,1.055,1.313,1.055,2.108c0,7.234-11.722,9.055-16.759,9.503C129.891,148.758,116.808,160.481,95.396,160.481z"/>
			</g>
			<g>
				<path style="fill:#525D7D;" d="M64.783,173.973c-0.411,0-0.827-0.117-1.196-0.363c-0.992-0.661-1.26-2.002-0.599-2.994
					c1.572-2.357,2.755-4.945,4.008-7.684c1.269-2.772,2.579-5.639,4.342-8.282c0.661-0.993,1.999-1.262,2.994-0.599
					c0.992,0.661,1.26,2.002,0.599,2.994c-1.572,2.357-2.755,4.944-4.008,7.683c-1.268,2.773-2.579,5.639-4.342,8.283
					C66.165,173.635,65.481,173.973,64.783,173.973z"/>
			</g>
			<g>
				<path style="fill:#525D7D;" d="M61.753,202.384c-0.581,0-1.142-0.235-1.552-0.658c-12.821-13.25-24.71-21.624-37.414-26.351
					c-1.118-0.415-1.687-1.659-1.271-2.776c0.415-1.118,1.66-1.69,2.776-1.271c12.65,4.707,24.46,12.787,36.986,25.334
					c0.843-1.483,1.694-2.957,2.545-4.428c2.362-4.086,4.794-8.293,6.933-12.566l-50.23-23.956c-1.077-0.514-1.533-1.802-1.02-2.878
					c0.514-1.075,1.805-1.531,2.878-1.02l52.198,24.894c1.076,0.513,1.533,1.801,1.02,2.877c-2.426,5.096-5.28,10.034-8.041,14.81
					c-1.317,2.278-2.638,4.562-3.922,6.876c-0.332,0.598-0.927,1.004-1.605,1.094C61.941,202.378,61.847,202.384,61.753,202.384z"/>
			</g>
			<g>
				<path style="fill:#525D7D;" d="M127.193,93.357c-2.242,0-4.625-1.883-4.625-5.373c0-0.555,0.03-1.045,0.086-1.484
					c-0.634,0.502-1.355,1.143-2.172,1.96c-0.843,0.843-2.21,0.843-3.053,0c-0.843-0.843-0.843-2.21,0-3.053
					c3.398-3.398,6.183-4.981,8.766-4.981c3.077,0,5.714,2.808,5.714,5.108c0,0.3,0.025,0.601,0.049,0.902
					c0.032,0.413,0.062,0.826,0.062,1.24C132.021,90.469,130.215,93.357,127.193,93.357z M127.594,85.719
					c-0.567,0.641-0.707,0.9-0.707,2.265c0,0.718,0.243,1.027,0.331,1.058c0.134-0.06,0.485-0.607,0.485-1.365
					c0-0.302-0.025-0.604-0.049-0.905C127.626,86.42,127.601,86.069,127.594,85.719z"/>
			</g>
			<g>
				<path style="fill:#525D7D;" d="M31.264,75.71c-0.574,0-1.139-0.228-1.556-0.661c-0.649-0.675-0.79-1.692-0.348-2.517
					c1.094-2.04,2.361-4.368,3.683-6.796c2.886-5.301,6.1-11.205,8.24-15.476c-2.837-1.189-5.467-2.42-7.845-3.532
					c-1.044-0.488-2.037-0.953-2.975-1.379c-0.783-0.356-1.28-1.143-1.265-2.002c0.015-0.86,0.539-1.629,1.334-1.958
					c14.586-6.032,26.526-10.943,35.489-14.595c0.831-0.34,1.787-0.127,2.397,0.531c0.611,0.658,0.751,1.626,0.35,2.43l-1.136,2.286
					c-2.847,5.739-5.781,11.651-9.091,17.299c3.211,1.314,6.274,2.236,9.482,3.201c1.593,0.48,3.215,0.968,4.897,1.516
					c0.871,0.284,1.468,1.086,1.49,2.002c0.022,0.916-0.537,1.746-1.394,2.071l-4.478,1.687
					c-10.693,4.019-18.417,6.922-36.329,15.676C31.909,75.639,31.585,75.71,31.264,75.71z M36.729,43.5
					c2.541,1.182,5.337,2.454,8.302,3.624c0.557,0.219,0.997,0.66,1.216,1.216c0.22,0.556,0.199,1.178-0.058,1.718
					c-2.077,4.378-5.942,11.478-9.353,17.743c-0.165,0.302-0.328,0.602-0.49,0.9c13.25-6.307,20.404-9.064,29.237-12.387
					c-3.649-1.104-7.168-2.224-11.058-4.012c-0.56-0.257-0.984-0.743-1.164-1.333c-0.18-0.59-0.098-1.229,0.224-1.756
					c3.191-5.215,6.041-10.78,8.773-16.261C55.239,35.866,46.657,39.397,36.729,43.5z"/>
			</g>
			<g>
				<g>
					<path style="fill:#525D7D;" d="M144.741,83.096c-0.479,0-0.961-0.158-1.361-0.484c-0.926-0.752-1.065-2.112-0.313-3.037
						c0.324-0.399,0.664-0.793,1.013-1.179c0.8-0.885,2.167-0.95,3.05-0.148c0.883,0.801,0.95,2.167,0.148,3.049
						c-0.298,0.328-0.585,0.663-0.862,1.002C145.991,82.824,145.369,83.096,144.741,83.096z"/>
				</g>
				<g>
					<path style="fill:#525D7D;" d="M168.902,106.153c-0.098,0-0.198-0.006-0.299-0.02c-1.008-0.139-2.044-0.386-3.081-0.736
						c-1.13-0.38-1.738-1.604-1.357-2.735c0.379-1.13,1.606-1.739,2.735-1.357c0.769,0.259,1.563,0.449,2.295,0.55
						c1.181,0.163,2.006,1.253,1.843,2.435C170.889,105.371,169.963,106.153,168.902,106.153z M176.759,104.158
						c-0.7,0-1.387-0.34-1.802-0.966c-0.659-0.994-0.386-2.334,0.607-2.993c0.649-0.43,1.281-0.932,1.876-1.493
						c0.868-0.816,2.235-0.775,3.052,0.093c0.817,0.869,0.775,2.235-0.093,3.052c-0.773,0.727-1.598,1.382-2.449,1.947
						C177.582,104.042,177.168,104.158,176.759,104.158z M159.484,100.873c-0.665,0-1.321-0.306-1.744-0.885
						c-0.685-0.938-1.217-1.95-1.581-3.01c-0.387-1.128,0.214-2.356,1.342-2.742c1.13-0.387,2.356,0.215,2.742,1.342
						c0.222,0.648,0.552,1.275,0.982,1.862c0.703,0.963,0.494,2.314-0.469,3.017C160.373,100.738,159.927,100.873,159.484,100.873z
						 M183.372,95.538c-0.214,0-0.432-0.032-0.647-0.1c-1.138-0.357-1.77-1.569-1.413-2.707c0.237-0.755,0.375-1.486,0.409-2.172
						c0.06-1.191,1.066-2.111,2.265-2.048c1.191,0.06,2.108,1.073,2.048,2.264c-0.053,1.051-0.255,2.144-0.602,3.249
						C185.142,94.947,184.29,95.538,183.372,95.538z M158.834,90.384c-0.319,0-0.642-0.071-0.948-0.221
						c-1.07-0.524-1.514-1.817-0.99-2.889c0.481-0.983,1.098-1.91,1.834-2.756c0.783-0.9,2.147-0.996,3.045-0.213
						c0.9,0.782,0.996,2.146,0.213,3.045c-0.489,0.563-0.898,1.176-1.214,1.822C160.4,89.94,159.632,90.384,158.834,90.384z
						 M182.208,84.76c-0.84,0-1.638-0.493-1.987-1.315c-0.308-0.723-0.656-1.43-1.038-2.103c-0.296,0.026-0.593,0.053-0.888,0.083
						c-1.174,0.115-2.243-0.748-2.362-1.935c-0.118-1.186,0.748-2.244,1.935-2.362c0.943-0.094,1.888-0.17,2.832-0.232
						c1.17-0.072,2.217,0.824,2.295,2.015c0.008,0.129,0.005,0.257-0.009,0.382c0.444,0.791,0.851,1.617,1.21,2.463
						c0.467,1.097-0.044,2.365-1.142,2.832C182.777,84.704,182.49,84.76,182.208,84.76z M167.273,83.683
						c-0.879,0-1.704-0.54-2.026-1.413c-0.412-1.12,0.161-2.36,1.28-2.773c0.883-0.325,1.832-0.625,2.822-0.891
						c1.153-0.303,2.336,0.373,2.646,1.524c0.309,1.152-0.373,2.336-1.524,2.646c-0.866,0.233-1.691,0.493-2.451,0.773
						C167.773,83.64,167.521,83.683,167.273,83.683z M191.902,80.991c-0.898-0.014-1.761-0.02-2.625-0.02
						c-1.193,0-2.229-0.966-2.229-2.159c0-1.193,0.896-2.159,2.089-2.159h0.14c0.887,0,1.773,0.006,2.659,0.02
						c1.193,0.02,2.144,1.002,2.125,2.193C194.042,80.047,193.078,80.991,191.902,80.991z M152.071,76.747
						c-0.728,0-1.438-0.368-1.845-1.034c-0.621-1.018-0.3-2.346,0.718-2.967c0.85-0.519,1.728-0.999,2.605-1.426
						c1.072-0.523,2.364-0.075,2.886,0.998c0.521,1.072,0.074,2.364-0.998,2.886c-0.755,0.367-1.51,0.78-2.244,1.228
						C152.843,76.645,152.454,76.747,152.071,76.747z M175.507,76.126c-0.439,0-0.881-0.133-1.264-0.41
						c-0.654-0.474-1.348-0.895-2.061-1.253c-1.065-0.535-1.496-1.832-0.962-2.898c0.535-1.065,1.831-1.496,2.898-0.961
						c0.92,0.462,1.813,1.005,2.656,1.614c0.966,0.699,1.182,2.05,0.484,3.015C176.836,75.816,176.176,76.126,175.507,76.126z
						 M162.39,73.009c-1.072,0-2.002-0.798-2.139-1.889c-0.149-1.183,0.689-2.263,1.872-2.412c0.975-0.123,1.957-0.186,2.917-0.186
						l0.111,2.159v2.159c-0.889,0.001-1.69,0.052-2.488,0.152C162.571,73.003,162.48,73.009,162.39,73.009z"/>
				</g>
				<g>
					<path style="fill:#525D7D;" d="M201.714,81.497c-0.066,0-0.131-0.003-0.198-0.009c-0.47-0.042-0.939-0.082-1.407-0.119
						c-1.189-0.093-2.077-1.132-1.985-2.321c0.093-1.189,1.128-2.081,2.321-1.985c0.486,0.038,0.973,0.079,1.462,0.125
						c1.188,0.108,2.063,1.158,1.955,2.345C203.76,80.654,202.818,81.497,201.714,81.497z"/>
				</g>
			</g>
			<g>
				<path style="fill:#525D7D;" d="M208.544,91.728c-0.288,0-0.578-0.058-0.853-0.176c-0.792-0.341-1.305-1.12-1.305-1.983v-0.573
					c0-3.352,0.016-6.701,0.032-10.052c0.012-2.462,0.023-4.925,0.029-7.39c0.002-0.864,0.519-1.645,1.316-1.983
					c0.796-0.339,1.716-0.169,2.34,0.431c3.354,3.224,7.084,6.157,11.088,8.716c0.612,0.392,0.986,1.064,0.996,1.791
					c0.009,0.727-0.348,1.41-0.949,1.817c-4.461,3.016-8.127,5.899-11.208,8.812C209.619,91.524,209.086,91.728,208.544,91.728z
					 M210.747,76.389c-0.004,0.859-0.008,1.717-0.012,2.576c-0.009,1.938-0.018,3.874-0.025,5.812
					c1.682-1.394,3.504-2.79,5.483-4.205C214.31,79.254,212.491,77.857,210.747,76.389z"/>
			</g>
		</g>
	</g>
</g>
<g id="Layer_1">
</g>
</svg>
