<?xml version="1.0" encoding="iso-8859-1"?>
<!-- Generator: Adobe Illustrator 21.0.2, SVG Export Plug-In . SVG Version: 6.00 Build 0)  -->
<svg version="1.1" xmlns="http://www.w3.org/2000/svg" xmlns:xlink="http://www.w3.org/1999/xlink" x="0px" y="0px"
	 viewBox="0 0 185.57 193.595" style="enable-background:new 0 0 185.57 193.595;" xml:space="preserve">
<g id="_x31_04">
	<g>
		<g>
			<path style="fill:#E0DFE6;" d="M137.359,20.976c-19.144-10.21-40.426-11.102-61.529-8.596
				c-20.124,2.39-38.33,10.271-51.614,26.144C11.798,53.363,4.198,72.002,2.595,91.274c-1.524,18.319,2.3,44.342,16.254,57.672
				c2.878,2.749,7.983,0.034,6.813-3.966c-2.417-8.267-6.72-15.806-8.931-24.204c-2.316-8.797-3.126-17.827-2.599-26.901
				c0.996-17.161,7.599-33.722,18.274-47.16c5.261-6.624,10.797-13.316,18.177-17.645c8.114-4.759,17.334-5.842,26.559-6.473
				c18.533-1.267,38.28-2.053,54.774,7.693C137.917,33.835,143.476,24.239,137.359,20.976z"/>
			<path style="fill:#E0DFE6;" d="M173.066,48.573c-2.72-4.919-10.291-0.51-7.542,4.409c18.277,32.71,13.89,75.612-11.163,103.955
				c-5.67,6.414-13.359,10.197-20.961,13.838c-8.953,4.288-18.155,8.115-27.79,10.587c-18.625,4.777-34.56,1.688-52.273-4.427
				c-2.46-0.849-3.984,2.434-2.408,4.137c13.272,14.341,36.9,14.203,54.497,10.184c10.483-2.395,20.508-6.512,30.219-11.065
				c9.173-4.301,18.562-8.872,25.387-16.582C188.904,132.124,193.197,84.985,173.066,48.573z"/>
			<path style="fill:#E0DFE6;" d="M114.616,37.049c-0.542-0.06-1.081-0.107-1.619-0.146c-0.106-0.543-0.361-1.084-0.803-1.576
				c-4.247-4.741-11.737-4.65-16.871-1.47c-0.035,0.021-0.051,0.052-0.083,0.075c-1.645-0.454-3.295-0.886-4.972-1.222
				c-7.048-1.413-14.163-1.726-21.033,0.59c-1.461,0.492-1.72,2.863,0,3.229c9.093,1.935,17.784,3.289,26.571,6.484
				c6.592,2.397,14.321,5.092,20.743,1.182C120.031,42.075,118.238,37.449,114.616,37.049z"/>
			<path style="fill:#E0DFE6;" d="M118.855,156.973c-9.428,1.292-18.102,5.68-27.854,6.571c-9.217,0.842-18.475-1.064-27.602-0.161
				c-1.419,0.14-2.004,1.883-0.735,2.713c8.775,5.741,20.817,6.554,31.046,5.741c9.454-0.751,21.269-2.48,28.757-8.659
				C125.701,160.51,122.028,156.539,118.855,156.973z"/>
			<path style="fill:#E0DFE6;" d="M135.529,75.295c-0.568-0.427-1.466,0.148-1.424,0.817c0.387,6.2,2.263,12.16,2.559,18.379
				c-0.935-5.604-2.86-11.118-4.718-15.291c-3.984-8.947-11.73-21.246-21.785-23.951c-0.735-0.198-1.54,0.513-1.283,1.283
				c2.844,8.528,10.319,15.367,14.04,23.686c2.396,5.356,4.133,11.018,4.646,16.888c0.438,5.013-0.971,9.947,0.576,14.743
				c0.399,1.238,1.647,2.195,2.937,2.379c-0.352,0.269-0.672,0.585-0.915,0.975c-0.225,0.362-0.45,0.724-0.676,1.086
				c-2.353,3.782,2.461,8.972,6.309,6.309C149.509,113.108,148.431,85.002,135.529,75.295z"/>
			<path style="fill:#E0DFE6;" d="M93.924,92.116c-4.062-3.914-12.069-1.549-16.735,0.438c-4.536,1.932-7.874,5.394-8.934,10.283
				c-0.426,1.968,1.761,3.127,3.244,1.889c2.933-2.45,6.867-3.847,10.591-4.551c3.987-0.754,8.958,0.46,11.833-2.878
				C95.197,95.82,95.435,93.573,93.924,92.116z"/>
			<path style="fill:#E0DFE6;" d="M105.231,102.244c-0.482-1.286-1.455-2.729-2.957-2.957c-2.351-0.358-4.426,0.475-5.209,2.957
				c-0.493,1.563-0.134,3.346-0.267,4.947c-0.164,1.959-0.775,3.899-1.732,5.612c-1.64,2.935-4.239,4.691-6.895,6.602
				c-0.794,0.571-3.492,2.324-2.429,3.737c3.237,4.304,10.84,0.323,13.88-2.359C104.454,116.518,107.58,108.514,105.231,102.244z"/>
			<path style="fill:#E0DFE6;" d="M104.369,142.925c-8.009-0.165-15.967-0.709-23.835-2.295c-7.221-1.456-16.493-3.08-22.092-8.173
				c-11.187-10.178-13.123-31.968-12.881-46.074c0.021-1.212-1.875-1.509-2.145-0.29c-3.505,15.844-4.087,38.242,7.596,51.257
				c5.562,6.195,13.837,8.741,21.636,10.794c10.35,2.725,21.02,4.267,31.719,4.488C110.617,152.759,110.616,143.053,104.369,142.925
				z"/>
			<path style="fill:#E0DFE6;" d="M183.072,7.085c-0.512-1.603-1.794-3.202-3.543-3.543c-2.42-0.472-4.1-0.178-5.934,1.55
				c-1.521,1.433-1.7,4.03-0.584,5.771c-0.074,0.261-0.135,0.525-0.214,0.785c-0.861,2.953-1.889,5.86-3.197,8.646
				c-0.574,1.224-1.207,2.422-1.868,3.601c-0.184,0.329-1.215,1.826-1.079,2.309c-0.025-0.008-0.058-0.022-0.085-0.032
				c-0.066-0.477-0.282-0.943-0.708-1.339c-1.943-1.803-4.125-3.264-6.284-4.796c-2.194-1.558-4.895,1.949-2.882,3.735
				c0.244,0.216,0.486,0.432,0.728,0.648c-1.215,0.86-1.715,2.628-0.928,4.04c4.014,7.204,12.997,10.704,18.309,3.087
				c2.518-3.611,4.413-7.723,6.023-11.805C182.336,15.921,184.379,11.172,183.072,7.085z"/>
			<path style="fill:#E0DFE6;" d="M47.524,141.538c2.433-1.186-0.187-1.529-1.913-3.037c-1.392-1.217-2.704-2.536-3.91-3.939
				c-2.626-3.052-4.769-6.584-6.455-10.236c-3.283-7.111-4.736-15.06-4.581-22.863c0.361-18.138,10.1-31.772,16.119-48.098
				c0.847-2.297-2.225-3.524-3.772-2.195C26.43,65.41,18.918,92.954,22.345,113.975c1.64,10.062,5.798,19.723,12.434,27.508
				c1.642,1.926,4.779,5.251,8.131,7.412c-1.581,1.629-4.254,3.581-4.999,4.311c-2.388,2.34-4.752,4.705-7.126,7.059
				c-4.292,4.256-9.318,8.439-12.248,13.781c-1.122,2.046,1.092,4.086,3.087,3.087c7.295-3.651,13.255-10.815,19.152-16.334
				c3.039-2.845,8.15-6.108,9.88-10.254c1.096-0.496,2.08-1.442,2.877-2.999C55.589,143.526,51.492,139.603,47.524,141.538z"/>
			<path style="fill:#E0DFE6;" d="M112.805,77.381c-10.838-11.024-31.315-10.752-43.616-2.517c-0.783,0.524-0.845,2.09,0.296,2.262
				c11.169,1.68,22.991-2.709,33.224,3.935c13.08,8.493,6.372,23.092,0.487,33.677c-2.903,5.222,4.604,9.447,7.92,4.629
				C119.422,107.296,124.397,89.172,112.805,77.381z"/>
			<path style="fill:#E0DFE6;" d="M164.903,103.725c0.126-10.159-2.399-20.081-6.362-29.377c-3.281-7.696-7.38-16.717-13.245-23.302
				c5.201-5.08,10.044-10.573,15.309-15.602c4.003-3.823-2.029-9.814-6.061-6.061c-5.234,4.871-10.313,10.983-13.532,17.606
				c-1.048-0.749-2.398,0.001-2.159,1.34c0.144,0.806,0.348,1.6,0.559,2.393c-0.049,0.135-0.114,0.267-0.161,0.402
				c-0.395,1.135,0.191,2.04,1.06,2.472c2.15,5.986,5.73,11.65,8.336,17.313c4.157,9.032,7.379,18.816,7.904,28.81
				c0.491,9.341-1.63,18.341-6.593,26.285c-4.935,7.899-12.169,12.836-18.184,19.575c-2.39-2.577-4.65-5.437-6.875-7.64
				c-3.694-3.66-7.362-7.456-11.658-10.414c-1.402-0.965-2.881,0.873-2.191,2.191c4.575,8.74,11.815,16.5,18.065,24.069
				c2.014,2.439,4.142,5.067,7.606,3.794c3.131-1.15,4.625-4.952,5.669-7.847c0.209-0.579,0.244-1.115,0.169-1.606
				C155.765,137.693,164.702,119.954,164.903,103.725z"/>
		</g>
		<g>
			<g>
				<path style="fill:#525D7D;" d="M88.022,185.786c-0.181,0-0.361,0-0.542-0.001c-12.867-0.077-25.279-2.839-36.89-8.21
					c-1.082-0.5-1.553-1.784-1.053-2.866c0.501-1.082,1.784-1.555,2.866-1.053c11.047,5.109,22.857,7.738,35.102,7.811
					c0.171,0.001,0.346,0.001,0.516,0.001c22.9,0,44.253-8.936,60.183-25.199c16.356-16.698,25.008-39.254,24.364-63.514
					c-0.087-3.275-0.352-6.651-0.788-10.036c-1.377-10.709-5.046-20.912-10.901-30.324c-0.63-1.012-0.32-2.343,0.692-2.973
					c1.013-0.63,2.344-0.32,2.974,0.693c6.186,9.941,10.06,20.725,11.518,32.053c0.455,3.528,0.732,7.052,0.822,10.472
					c0.675,25.439-8.414,49.11-25.596,66.65C134.541,176.389,112.09,185.786,88.022,185.786z"/>
			</g>
			<g>
				<path style="fill:#525D7D;" d="M18.649,150.921c-0.666,0-1.323-0.306-1.746-0.887C5.597,134.541-0.245,115.574,0.008,95.187
					C0.607,46.809,39.641,9.103,88.978,9.103c0.2,0,0.392,0,0.592,0.001c12.665,0.08,24.902,2.665,36.373,7.683
					c3.413,1.494,6.766,3.23,9.964,5.16c1.021,0.616,1.349,1.944,0.732,2.965c-0.617,1.021-1.944,1.348-2.965,0.732
					c-3.037-1.833-6.221-3.483-9.463-4.901c-10.93-4.781-22.595-7.243-34.669-7.32c-0.187-0.001-0.377-0.001-0.564-0.001
					c-46.949,0-84.084,35.835-84.654,81.819c-0.242,19.447,5.314,37.514,16.066,52.249c0.703,0.963,0.491,2.314-0.472,3.016
					C19.537,150.786,19.091,150.921,18.649,150.921z"/>
			</g>
			<g>
				<path style="fill:#525D7D;" d="M88.126,166.602c-0.144,0-0.287,0-0.43-0.001c-8.499-0.051-16.809-1.618-24.7-4.658
					c-1.112-0.429-1.667-1.678-1.238-2.79c0.428-1.112,1.675-1.669,2.792-1.238c7.401,2.852,15.198,4.321,23.172,4.369
					c9.765,0.124,19.102-1.965,27.829-6.011c1.084-0.502,2.366-0.032,2.867,1.05c0.502,1.082,0.031,2.366-1.051,2.868
					C108.186,164.444,98.35,166.602,88.126,166.602z"/>
			</g>
			<g>
				<path style="fill:#525D7D;" d="M115.658,37.899c-0.275,0-0.555-0.052-0.825-0.165c-8.088-3.347-16.679-5.073-25.534-5.129
					c-6.995-0.059-13.844,0.943-20.364,2.928c-1.142,0.353-2.347-0.295-2.695-1.435c-0.347-1.141,0.296-2.347,1.437-2.695
					c6.937-2.113,14.212-3.184,21.649-3.116c9.415,0.06,18.552,1.896,27.158,5.458c1.101,0.455,1.625,1.718,1.169,2.82
					C117.31,37.397,116.506,37.899,115.658,37.899z"/>
			</g>
			<g>
				<path style="fill:#525D7D;" d="M132.869,118.661c-0.302,0-0.609-0.063-0.9-0.197c-1.084-0.499-1.558-1.781-1.06-2.865
					c5.211-11.332,5.057-25.047-0.415-36.686c-2.759-5.866-6.646-11.046-11.554-15.396c-12.056-10.681-28.186-14.495-43.146-10.206
					c-1.149,0.33-2.342-0.333-2.671-1.479c-0.329-1.147,0.334-2.342,1.48-2.671c16.387-4.702,34.032-0.543,47.201,11.124
					c5.35,4.743,9.588,10.39,12.597,16.79c6.006,12.777,6.167,27.853,0.43,40.328C134.467,118.196,133.686,118.661,132.869,118.661z
					"/>
			</g>
			<g>
				<path style="fill:#525D7D;" d="M91.889,146.92c-12.071,0.001-23.887-4.388-33.187-12.624
					c-18.125-16.056-22.09-42.616-9.429-63.154c0.625-1.015,1.957-1.331,2.971-0.704c1.015,0.626,1.33,1.955,0.705,2.97
					c-11.743,19.049-8.201,42.758,8.617,57.655c11.468,10.157,27.125,13.913,41.88,10.049c1.16-0.302,2.333,0.389,2.636,1.542
					c0.302,1.154-0.389,2.333-1.542,2.635C100.357,146.385,96.107,146.92,91.889,146.92z"/>
			</g>
			<g>
				<path style="fill:#525D7D;" d="M88.183,121.461c-0.971,0-1.853-0.659-2.095-1.644c-0.285-1.158,0.424-2.326,1.581-2.612
					c1.522-0.374,2.998-0.994,4.386-1.846c0.482-0.295,0.962-0.624,1.429-0.981c3.617-2.756,5.535-7.406,5.009-12.135
					c-0.225-2.016-0.854-3.944-1.87-5.732c-3.956-6.952-12.387-9.411-19.189-5.597c-4.48,2.512-7.211,6.74-7.491,11.599
					c-0.069,1.191-1.099,2.099-2.28,2.031c-1.19-0.068-2.099-1.088-2.031-2.279c0.366-6.36,3.899-11.872,9.69-15.119
					c8.903-4.993,19.91-1.815,25.054,7.231c1.308,2.3,2.118,4.786,2.408,7.388c0.694,6.227-1.866,12.375-6.681,16.047
					c-0.583,0.444-1.186,0.859-1.794,1.23c-1.767,1.084-3.655,1.877-5.611,2.357C88.526,121.442,88.353,121.461,88.183,121.461z"/>
			</g>
			<g>
				<path style="fill:#525D7D;" d="M19.909,174.119c-0.538,0-1.076-0.199-1.495-0.602c-0.86-0.825-0.888-2.191-0.063-3.052
					c6.072-6.329,15.346-15.633,22.64-22.233c-14.319-13.285-22.031-31.845-21.775-52.55c0.247-20.007,9.187-38.756,24.526-51.442
					c0.898-0.741,2.228-0.638,2.999,0.24c8.327,9.485,15.799,18.266,22.791,26.782c12.057-8.943,28.718-8.136,40.416,2.229
					c3.445,3.053,6.173,6.691,8.111,10.811c4.618,9.824,3.865,21.325-1.965,30.015c-0.714,1.065-1.479,2.09-2.272,3.047
					c-0.817,0.985-1.686,1.924-2.595,2.809c6.93,6.989,16.824,16.698,23.139,22.87c12.771-12.905,19.505-30.304,19.002-49.231
					c-0.067-2.53-0.272-5.139-0.609-7.754c-1.744-13.548-8.447-26.361-18.874-36.08c-0.428-0.401-0.676-0.957-0.687-1.542
					c-0.01-0.586,0.219-1.151,0.633-1.566c9.144-9.134,17.299-17.476,24.502-27.064c0.716-0.954,2.071-1.146,3.023-0.43
					c0.954,0.716,1.146,2.069,0.43,3.024c-6.957,9.262-14.712,17.316-23.347,25.97C148.68,58.57,155.26,71.675,157.04,85.508
					c0.356,2.759,0.571,5.514,0.642,8.189c0.555,20.889-7.198,40.042-21.831,53.931c-0.841,0.8-2.165,0.79-2.995-0.021
					c-6.602-6.445-18.795-18.394-26.288-26.002c-0.421-0.429-0.645-1.012-0.618-1.612c0.027-0.599,0.302-1.161,0.761-1.549
					c1.354-1.148,2.627-2.439,3.786-3.836c0.699-0.843,1.376-1.751,2.009-2.696c4.991-7.439,5.62-17.313,1.644-25.772
					c-1.687-3.586-4.064-6.754-7.067-9.416c-10.636-9.422-25.975-9.762-36.471-0.804c-0.442,0.378-1.012,0.562-1.595,0.509
					c-0.578-0.052-1.111-0.335-1.479-0.784C60.583,67.132,53.163,58.378,44.9,48.932C31.517,60.766,23.757,77.705,23.534,95.737
					c-0.252,20.273,7.6,38.336,22.106,50.863c0.472,0.408,0.744,0.999,0.748,1.623c0.003,0.624-0.264,1.219-0.732,1.631
					c-7.407,6.529-17.661,16.795-24.19,23.601C21.043,173.897,20.476,174.119,19.909,174.119z"/>
			</g>
			<g>
				<path style="fill:#525D7D;" d="M168.618,29.621c-0.458,0-0.91-0.146-1.288-0.426l-17.081-12.689
					c-0.599-0.444-0.926-1.167-0.864-1.91c0.062-0.744,0.502-1.403,1.166-1.743l24.564-12.615c0.768-0.395,1.697-0.293,2.364,0.259
					c0.666,0.552,0.938,1.446,0.693,2.275l-7.483,25.303c-0.2,0.676-0.718,1.212-1.387,1.435
					C169.078,29.585,168.848,29.621,168.618,29.621z M155.61,15.109l11.814,8.777L172.6,6.385L155.61,15.109z"/>
			</g>
		</g>
	</g>
</g>
<g id="Layer_1">
</g>
</svg>
