<?xml version="1.0" encoding="iso-8859-1"?>
<!-- Generator: Adobe Illustrator 21.0.2, SVG Export Plug-In . SVG Version: 6.00 Build 0)  -->
<svg version="1.1" xmlns="http://www.w3.org/2000/svg" xmlns:xlink="http://www.w3.org/1999/xlink" x="0px" y="0px"
	 viewBox="0 0 214.18 200.227" style="enable-background:new 0 0 214.18 200.227;" xml:space="preserve">
<g id="_x31_05">
	<g>
		<g>
			<path style="fill:#E0DFE6;" d="M119.992,30.371c-0.38-0.413-0.76-0.825-1.14-1.238c-1.033-1.122-2.482-1.663-3.961-1.726
				c-2.186-1.12-4.425-2.257-6.698-3.365c-2.493-2.935-6.376-5.023-9.628-7.323c-6.658-4.711-12.915-5.562-20.932-5.436
				c-9.021,0.142-24.603,1.534-27.996,11.518c-1.892-0.439-3.787-0.838-5.682-1.175c-4.532-0.805-8.596-0.039-11.407,3.927
				c-1.793,2.53-2.936,5.691-3.876,8.921c-0.279-0.321-0.63-0.58-1.088-0.729c-0.291-0.095-0.583-0.19-0.874-0.285
				c-1.348-0.44-3.034,0.039-3.999,1.057c-6.039,6.371-8.168,14.453-7.878,23.111c0.283,8.443,2.665,18.895,6.397,26.446
				c1.111,2.248,4.202,1.815,5.417,0c0.254-0.379,0.463-0.753,0.65-1.125c0.048,0.163,0.086,0.342,0.136,0.503
				c0.42,1.353,2.515,1.843,3.219,0.421c2.117-4.276,2.863-8.572,3.69-13.24c0.897-5.063,3.506-8.223,6.31-12.386
				c4.187-6.215,9.144-14.861,8.454-22.65c3.672,1.192,7.335,2.412,11.032,3.524c5.293,1.592,12.288,5.016,17.63,1.925
				c2.909-1.684,4.815-5.456,2.672-8.524c-1.304-1.867-4.146-2.914-7.074-3.643c0.96-0.208,1.913-0.405,2.852-0.565
				c11.833-2.015,25.609,7.096,35.693,12.532C118.622,44.462,125.16,35.982,119.992,30.371z M41.074,33.152
				c-2.9,3.938-3.439,9.111-5.531,13.539c-0.234,0.495-0.486,0.979-0.745,1.459c1.733-4.93,3.268-11.522,6.214-15.415
				c0.12,0.025,0.239,0.04,0.36,0.069C41.268,32.917,41.165,33.029,41.074,33.152z"/>
			<path style="fill:#E0DFE6;" d="M59.87,144.726c-0.109-0.216-0.276-0.396-0.431-0.583c-0.026-0.9-0.22-1.874-0.474-2.722
				c-0.715-2.38-2.224-4.264-4.361-5.513c-4.089-2.391-9.112-4.586-13.762-5.475c-1.97-0.377-4.163,1.726-2.836,3.69
				c1.238,1.833,2.6,3.428,4.192,4.963c1.723,1.661,4.005,3.201,5.513,5.025c0.118,0.143,0.199,0.226,0.26,0.276
				c0.008,0.032,0.008,0.043,0.018,0.081c0.188,0.68-0.068,1.634-0.029,2.352c0.139,2.543,0.937,4.57,2.723,6.402
				c3.786,3.881,9.778,0.745,10.113-4.189C60.907,147.385,60.612,146.197,59.87,144.726z"/>
			<path style="fill:#E0DFE6;" d="M126.279,52.089c-0.637-0.667-1.768-0.481-2.226,0.287c-2.465,4.138-1.934,8.293-1.958,13.036
				c-0.031,6.176,0.068,12.362-0.356,18.53c-0.788,11.486-3.513,22.321-9.306,32.301c-0.072,0.207-0.178,0.419-0.269,0.636
				c-0.117,0.277-0.233,0.554-0.35,0.831c-2.784,6.614,7.682,10.383,11.224,4.732c6.412-10.229,9.382-22.108,9.801-34.103
				C133.186,78.481,133.597,59.757,126.279,52.089z"/>
			<path style="fill:#E0DFE6;" d="M94.306,121.688c-1.936-1.465-4.124-2.871-6.212-4.11c-1.595-0.947-6.074-2.794-7.265-0.215
				c-1.236,2.677-0.598,5.351,0.994,7.765c1.439,2.183,3.049,4.474,5.133,6.087c2.85,2.206,6.618,2.537,9.052-0.614
				C98.407,127.495,97.192,123.873,94.306,121.688z"/>
			<path style="fill:#E0DFE6;" d="M149.778,188.984c-0.633-4.141-1.202-8.314-1.918-12.457c-0.655-3.79-1.072-7.945-3.474-11.058
				c-1.004-1.302-2.511-1.928-3.893-1.663c2.269-4.554-2.921-11.313-8.545-8.049c-2.452,1.423-5.049,3.304-7.68,4.863
				c-0.123-0.186-0.243-0.35-0.357-0.469c-1.656-1.732-4.236-2.712-6.529-3.067c-3.483-0.539-6.964,0.557-10.471,0.172
				c-4.045-0.444-7.698-2.192-11.308-3.98c-2.278-1.128-4.906,1.196-3.565,3.565c1.673,2.954,3.964,5.244,6.696,6.919
				c-1.133-0.15-2.315,0.004-3.414,0.597c-1.326,0.715-2.557,1.839-3.653,3.155c-0.103-0.075-0.198-0.159-0.304-0.231
				c-2.754-1.864-7.165,0.571-6.882,3.949c0.289,3.442,2.07,6.486,3.496,9.581c0.939,2.038,3.692,3.062,5.746,2.753
				c2.403-0.361,3.954-1.897,4.795-4.131c0.159-0.396,0.301-0.799,0.425-1.207c0.246-0.676,0.294-0.8,0.144-0.373
				c0.314-0.675,0.695-1.321,1.102-1.943c0.683-1.043,1.953-2.129,2.993-3.692c1.642-2.468,0.916-5.032-0.809-6.696
				c0.871,0.325,1.762,0.618,2.692,0.843c2.414,0.584,6.763-0.331,8.739,0.614c1.871,0.895,2.253,3.495,3.958,5.364
				c1.369,1.502,3.744,2.048,5.663,1.497c4.89-1.402,9.68-4.791,14.132-7.292c-3.437,6.755-1.522,17.174-0.755,24.208
				C137.927,201.076,152.179,197.483,149.778,188.984z"/>
			<path style="fill:#E0DFE6;" d="M53.267,150.649c-2.36,0.834-3.985,2.911-4.49,5.185c-1.008-0.817-2.047-1.568-3.125-2.216
				c-2.336-1.404-5.923,0.966-4.884,3.754c1.485,3.986,3.947,7.476,6.188,11.066c2.364,3.788,4.519,7.705,6.719,11.589
				c2.989,5.278,9.724,2.255,10.377-2.811C64.888,170.736,65.956,146.165,53.267,150.649z"/>
			<path style="fill:#E0DFE6;" d="M91.655,184.931c-3.363-5.224-5.154-11.323-8.683-16.465c-2.811-4.095-8.262-1.397-7.631,3.217
				c0.531,3.881,1.772,7.639,2.89,11.384c0.971,3.251,1.834,6.449,4.242,8.948C87.017,196.731,95.294,190.584,91.655,184.931z"/>
			<path style="fill:#E0DFE6;" d="M157.761,176.655c-0.165-7.263-0.397-14.516-3.425-21.25c-2.768-6.156-7.193-11.307-11.464-16.464
				c-5.16-6.231-10.524-14-17.877-17.729c-2.26-1.146-4.83,0.739-4.241,3.26c3.645,15.6,20.784,25.049,24.092,40.799
				c1.713,8.157,0.569,17.086,0.94,25.371c0.191,4.268,1.252,9.982,6.856,9.564c2.531-0.189,4.101-1.611,4.749-3.795
				c0.029,0.038,0.058,0.076,0.087,0.114c0.054-0.361,0.087-0.725,0.131-1.087c0.013-0.084,0.037-0.16,0.048-0.246
				c0.018-0.138,0.036-0.277,0.054-0.415c0.008-0.064-0.003-0.127,0.001-0.191C158.334,188.667,157.896,182.631,157.761,176.655z"/>
			<path style="fill:#E0DFE6;" d="M193.982,69.926c-0.938-2.117-3.791-3.238-6.163-2.891c-0.313-1.183-0.723-2.346-1.265-3.472
				c-1.301-2.702-4.76-1.448-5.676,0.742c-3.772,9.018-8.198,21.604-19.708,22.383c-3.433,0.232-5.548,2.447-6.166,5.012
				c-1.804-0.437-3.58-0.775-5.3-0.867c-1.772-0.094-3.024,2.111-2.061,3.591c5.811,8.93,24.498,15.678,33.937,9.09
				C189.786,97.786,198.166,79.372,193.982,69.926z"/>
			<path style="fill:#E0DFE6;" d="M178.069,28.569c-0.808-2.387-3.228-4.186-5.668-4.329c-0.857-1.475-1.722-2.945-2.609-4.403
				c-1.537-2.527-3.732-5.2-7.081-4.421c-2.435,0.567-3.646,2.979-4.111,5.202c-0.763,3.647-1.76,7.024-4.089,10.036
				c-2.227,2.88,1.368,6.851,4.127,4.127c1.629-1.609,3.067-3.393,4.175-5.39c0.457,1.651,0.925,3.298,1.398,4.945
				c0.991,3.449,4.251,4.842,7.575,4.301C176.244,37.909,179.534,32.894,178.069,28.569z"/>
			<path style="fill:#E0DFE6;" d="M173.239,120.978c-4.237-0.198-7.883,5.369-5.175,9.018c0.139,0.187,0.358,0.564,0.593,0.931
				c-0.711,0.636-2.187,2.791-2.392,3.031c-2.348,2.753-4.93,5.281-7.163,8.127c-1.759,2.242-0.143,5.131,2.717,4.668
				c6.072-0.982,13.262-4.419,17.228-9.24C183.873,131.648,181.869,121.383,173.239,120.978z"/>
			<path style="fill:#E0DFE6;" d="M83.323,127.528c-3.934,0.821-9.033,1.83-11.906,4.855c-1.425,1.501-1.207,4.06,0.66,5.122
				c0.043,0.025,0.092,0.039,0.136,0.063c-1.239,1.464-2.334,3.036-2.897,4.836c-1.477,4.719,4.146,8.849,8.284,6.369
				c2.402-1.44,3.976-3.966,5.84-6.026c1.757-1.943,3.623-3.784,5.444-5.667C92.994,132.828,88.808,126.384,83.323,127.528z"/>
			<path style="fill:#E0DFE6;" d="M116.273,43.812c-1.199-1.578-3.315-0.969-3.573,0.968c-1.385,10.378,0.471,20.918-1.219,31.39
				c-0.812,5.031-2.152,9.981-3.815,14.795c-1.042,3.015-3.543,12.322-6.457,14.022c-5.621,3.281-1.818,13.567,4.596,10.901
				c10.388-4.317,14.349-22.977,15.892-32.955C123.59,70.69,124.187,54.234,116.273,43.812z"/>
		</g>
		<g>
			<g>
				<path style="fill:#525D7D;" d="M2.162,197.243c-0.097,0-0.194-0.006-0.292-0.02c-1.181-0.159-2.01-1.247-1.85-2.428
					c5.559-41.144,21.782-42.8,42.321-44.896c4.941-0.505,10.033-1.024,15.42-2.107c0.063-1.302,0.093-2.446,0.093-3.521
					c0-2.362-0.149-4.445-0.454-6.32c-8.888-1.774-26.588-6.858-37.986-40.841c-0.973,0.512-1.775,0.744-2.503,0.744
					c-8.507,0-12.281-17.918-12.281-20.377c0-6.027,3.232-9.92,8.234-9.92c6.841,0,10.029,8.715,10.029,14.605
					c0,0.675-0.035,1.359-0.105,2.031c-0.125,1.187-1.175,2.061-2.373,1.923c-1.185-0.124-2.047-1.186-1.923-2.371
					c0.056-0.53,0.083-1.059,0.083-1.582c0-4.194-2.225-10.287-5.711-10.287c-3.535,0-3.916,3.917-3.916,5.602
					c0,2.789,3.974,16.053,7.96,16.059c-0.056-0.002,0.596-0.157,2.409-1.502c0.562-0.417,1.295-0.534,1.955-0.318
					c0.665,0.216,1.183,0.742,1.392,1.41c11.215,35.991,28.621,39.28,36.985,40.86c0.853,0.162,1.526,0.817,1.709,1.665
					c0.548,2.529,0.814,5.349,0.814,8.62c0,1.594-0.06,3.319-0.191,5.426c-0.059,0.962-0.749,1.768-1.691,1.975
					c-6.224,1.371-11.962,1.956-17.51,2.522c-20.099,2.052-33.377,3.407-38.481,41.178C4.152,196.457,3.226,197.243,2.162,197.243z"
					/>
			</g>
			<g>
				<path style="fill:#525D7D;" d="M15.395,72.141c-1.057,0-1.98-0.777-2.135-1.853c-0.194-1.357-0.632-3.005-1.141-4.914
					c-1.175-4.412-2.786-10.454-2.786-18.409c0-16.332,6.848-26.785,18.391-28.239c3.664-6.134,11.133-11.138,21.696-14.515
					C57.664,1.574,67.606,0,76.014,0c15.16,0,37.332,10.953,54.099,41.693c0.572,1.047,0.186,2.358-0.86,2.929
					c-1.046,0.571-2.359,0.186-2.929-0.862C110.461,14.68,89.934,4.318,76.014,4.318c-14.96,0-38.822,5.41-45.037,17.436
					c-0.346,0.668-1.015,1.109-1.765,1.162C14.772,23.945,13.65,41.584,13.65,46.965c0,7.389,1.465,12.883,2.64,17.297
					c0.544,2.041,1.015,3.804,1.245,5.414c0.169,1.181-0.652,2.274-1.833,2.443C15.6,72.134,15.496,72.141,15.395,72.141z"/>
			</g>
			<g>
				<path style="fill:#525D7D;" d="M121.642,59.815c-1.092,0-2.03-0.826-2.145-1.937c-0.788-7.624-2.981-13.52-6.702-18.025
					c-0.759-0.919-0.63-2.28,0.29-3.039c0.921-0.761,2.28-0.63,3.039,0.289c4.221,5.11,6.802,11.95,7.669,20.33
					c0.122,1.186-0.739,2.247-1.926,2.37C121.791,59.812,121.717,59.815,121.642,59.815z"/>
			</g>
			<g>
				<path style="fill:#525D7D;" d="M29.166,89.681c-1.016,0-1.921-0.721-2.118-1.756c-1.539-8.075-2.485-16.545-3.32-24.017
					c-0.09-0.795,0.268-1.574,0.931-2.025c3.577-2.434,12.354-10.407,16.582-31.824c0.145-0.731,0.655-1.336,1.352-1.6
					c0.696-0.264,1.48-0.152,2.073,0.3c9.014,6.861,19.994,10.795,30.123,10.795c3.895,0,7.866-0.562,11.866-1.677
					c-6.346-2.025-12.399-5.244-15.643-8.528c-0.547-0.554-0.753-1.36-0.54-2.109c0.214-0.748,0.812-1.325,1.57-1.507
					c4.106-0.99,8.153-1.492,12.025-1.492c18.429,0,23.707,9.381,27.888,19.831c0.443,1.107-0.096,2.364-1.203,2.806
					c-1.105,0.444-2.363-0.095-2.806-1.203c-3.88-9.698-8.101-17.116-23.879-17.116c-2.099,0-4.258,0.163-6.457,0.486
					c4.536,2.862,11.23,5.421,16.95,6.298c0.952,0.146,1.692,0.905,1.815,1.861c0.121,0.956-0.405,1.877-1.289,2.257
					c-6.809,2.927-13.637,4.412-20.297,4.412c-10.045,0-20.812-3.513-30.01-9.721c-4.38,18.845-12.371,27.247-16.62,30.525
					c0.825,7.367,1.705,14.952,3.132,22.442c0.224,1.172-0.545,2.302-1.718,2.525C29.436,89.668,29.301,89.681,29.166,89.681z"/>
			</g>
			<g>
				<path style="fill:#525D7D;" d="M40.778,64.33c-0.353,0-0.706-0.087-1.028-0.26c-0.697-0.377-1.131-1.106-1.131-1.899v-0.237
					c0-1.103,0.828-2.014,1.896-2.143c5.734-3.408,12.082-4.145,16.498-4.145c1.789,0,3.597,0.12,5.374,0.358
					c1.181,0.158,2.012,1.244,1.853,2.426c-0.159,1.182-1.233,2.004-2.426,1.854c-1.586-0.212-3.202-0.32-4.8-0.32
					c-4.067,0-9.98,0.696-15.053,4.014C41.601,64.211,41.189,64.33,40.778,64.33z"/>
			</g>
			<g>
				<path style="fill:#525D7D;" d="M107.59,61.961c-0.209,0-0.42-0.03-0.63-0.094c-1.38-0.42-2.758-0.926-4.089-1.415
					c-3.23-1.188-6.282-2.309-9.384-2.309c-0.784,0-1.557,0.075-2.297,0.223c-1.161,0.235-2.307-0.523-2.54-1.693
					c-0.235-1.169,0.524-2.307,1.694-2.541c1.016-0.204,2.075-0.307,3.143-0.307c3.871,0,7.432,1.309,10.874,2.574
					c1.334,0.49,2.593,0.953,3.856,1.337c1.141,0.347,1.784,1.553,1.437,2.694C109.371,61.361,108.515,61.961,107.59,61.961z"/>
			</g>
			<g>
				<path style="fill:#525D7D;" d="M38.17,79.256c-0.222,0-0.446-0.034-0.665-0.105c-0.891-0.288-1.494-1.118-1.494-2.054V76.86
					c0-0.765,0.398-1.438,0.999-1.822c3.074-4.015,7.834-8.42,13.914-8.42c1.24,0,2.35,0.28,3.285,0.745
					c0.848,0.065,1.559,0.618,1.851,1.38c0.849,0.928,1.327,2.051,1.327,3.142c0,0.192,0.014,0.384,0.025,0.576
					c0.018,0.282,0.034,0.563,0.034,0.845c0,3.175-2.373,5.393-5.769,5.393c-2.904,0-5.242-2.432-5.242-4.445
					c0-0.1-0.011-0.201-0.018-0.302c-0.018-0.218-0.034-0.436-0.034-0.653c0-0.38,0.048-0.77,0.139-1.158
					c-2.903,1.568-5.239,4.33-6.604,6.219C39.507,78.934,38.85,79.256,38.17,79.256z M50.745,73.917
					c0.157,0.184,0.521,0.464,0.933,0.464c1.451,0,1.451-0.782,1.451-1.075c0-0.192-0.014-0.384-0.025-0.576
					c-0.018-0.282-0.034-0.563-0.034-0.845c-0.018-0.045-0.103-0.161-0.257-0.298c-0.164-0.018-0.327-0.037-0.493-0.037
					c-0.728,0-1.617,1.172-1.617,1.75c0,0.1,0.011,0.201,0.018,0.302C50.731,73.707,50.738,73.812,50.745,73.917z"/>
			</g>
			<g>
				<path style="fill:#525D7D;" d="M97.385,77.51c-5.159,0-5.715-3.305-5.715-4.726c0-1.711,0.666-2.959,1.579-3.883
					c-2.347,0.495-5.176,2.128-8.435,4.873c-0.914,0.768-2.274,0.651-3.042-0.261c-0.767-0.912-0.651-2.274,0.261-3.042
					c4.833-4.07,8.978-6.049,12.673-6.049c4.099,0,8.666,2.918,8.666,7.106C103.372,74.416,100.967,77.51,97.385,77.51z
					 M96.013,73.025c0.053,0,0.426,0.167,1.372,0.167c1.172,0,1.669-1.191,1.669-1.664c0-0.296-0.112-0.598-0.312-0.89
					c-2.338,0.89-2.754,1.406-2.754,2.146C95.988,72.925,96.002,72.997,96.013,73.025z"/>
			</g>
			<g>
				<path style="fill:#525D7D;" d="M69.582,104.184c-0.901,0-1.741-0.568-2.045-1.469c-0.11-0.323-0.164-0.651-0.164-0.977
					c0-2.002,1.646-2.427,5.254-3.358c6.058-1.564,9.284-2.87,9.586-3.882c-0.003-0.756-1.535-1.796-3.158-2.898
					c-3.701-2.513-9.295-6.311-9.295-15.39c0-3.516,0.812-7.089,1.598-10.544c0.616-2.707,1.198-5.263,1.385-7.688
					c0.091-1.19,1.137-2.074,2.318-1.987c1.189,0.091,2.079,1.129,1.986,2.319c-0.211,2.741-0.855,5.574-1.477,8.314
					c-0.734,3.223-1.491,6.556-1.491,9.586c0,6.792,3.933,9.462,7.403,11.818c2.481,1.685,5.048,3.427,5.048,6.498
					c0,4.726-7.11,6.562-12.824,8.035c-0.78,0.202-1.691,0.437-2.3,0.621c-0.256,0.403-0.645,0.723-1.132,0.888
					C70.044,104.148,69.811,104.184,69.582,104.184z M71.627,101.334c0,0,0,0.001,0.001,0.001
					C71.627,101.334,71.627,101.334,71.627,101.334z"/>
			</g>
			<g>
				<path style="fill:#525D7D;" d="M62.053,119.303c-0.127,0-0.255-0.005-0.381-0.016c-2.804-0.233-5.011-2.593-5.011-5.373
					c0-2.192,1.545-4.539,3.844-4.539c0.535,0,0.95,0.138,1.317,0.26c0.157,0.053,0.309,0.096,0.465,0.141
					c0.969,0.28,2.592,0.748,3.402,2.367c0.395,0.789,0.603,1.674,0.603,2.558C66.293,117.368,64.51,119.303,62.053,119.303z
					 M60.979,113.893c0,0.46,0.406,0.981,0.966,1.08c0.015-0.065,0.03-0.155,0.03-0.271c0-0.173-0.034-0.351-0.097-0.515
					c-0.176-0.086-0.537-0.19-0.789-0.262C61.053,113.914,61.016,113.904,60.979,113.893z"/>
			</g>
			<g>
				<path style="fill:#525D7D;" d="M107.441,116.774c-0.618,0-1.233-0.264-1.66-0.777c-0.763-0.917-0.64-2.278,0.277-3.041
					c3.464-2.887,13.517-17.608,13.517-37.035c0-3.605-0.287-7.326-0.853-11.057c-0.178-1.179,0.632-2.28,1.812-2.459
					c1.177-0.178,2.279,0.632,2.458,1.811c0.597,3.946,0.901,7.883,0.901,11.705c0,21.207-11.047,36.999-15.071,40.352
					C108.418,116.61,107.928,116.774,107.441,116.774z"/>
			</g>
			<g>
				<path style="fill:#525D7D;" d="M117.538,198.486c-1.001,0-1.899-0.701-2.111-1.719c-1.205-5.784-1.663-11.663-2.104-17.35
					l-0.214-2.702c-0.066-0.815,0.335-1.597,1.033-2.021c11.623-7.039,16.972-9.402,30.119-13.301
					c0.599-0.176,1.243-0.087,1.767,0.244c0.526,0.332,0.883,0.875,0.98,1.489c1.583,10.02,2.473,19.995,3.198,29.282
					c0.093,1.188-0.796,2.227-1.983,2.321c-1.193,0.089-2.228-0.796-2.321-1.985c-0.661-8.439-1.456-17.445-2.786-26.498
					c-10.622,3.246-15.839,5.599-25.597,11.455l0.108,1.38c0.433,5.551,0.88,11.291,2.028,16.804
					c0.243,1.167-0.506,2.311-1.674,2.554C117.833,198.471,117.684,198.486,117.538,198.486z"/>
			</g>
			<g>
				<path style="fill:#525D7D;" d="M89.577,166.226c-9.636,0-10.591-18.422-10.591-18.608c0-3.636,3.184-6.176,7.742-6.176
					c3.386,0,6.979,1.588,9.376,4.146c0.817,0.869,0.772,2.236-0.097,3.052c-0.871,0.814-2.235,0.772-3.052-0.098
					c-1.61-1.716-3.995-2.781-6.227-2.781c-0.034,0-3.424,0.021-3.424,1.858c0,2.931,1.945,14.29,6.273,14.29
					c2.498,0,3.17-0.342,4.639-1.093c0.631-0.322,1.417-0.723,2.458-1.157c1.105-0.46,2.367,0.064,2.824,1.163
					c0.458,1.101-0.062,2.364-1.162,2.823c-0.888,0.37-1.562,0.713-2.156,1.017C94.279,165.632,92.942,166.226,89.577,166.226z"/>
			</g>
			<g>
				<path style="fill:#525D7D;" d="M120.438,175.645c-1.192,0-2.159-0.966-2.159-2.159c-0.111-0.785-2.111-3.654-5.492-6.942
					c-1.966,0.567-3.986,0.825-6.376,0.825c-6.883,0-11.294-5.342-13.643-8.747c0.017,0.981-0.642,1.88-1.635,2.129
					c-1.16,0.294-2.329-0.415-2.619-1.57c-0.174-0.697-0.263-1.381-0.263-2.035c0-2.801,1.746-4.835,4.151-4.835
					c1.382,0,2.006,0.954,3.039,2.536c1.872,2.868,5.36,8.204,10.969,8.204c2.425,0,4.279-0.295,6.202-0.987
					c0.755-0.271,1.605-0.101,2.198,0.448c2.34,2.168,7.786,7.578,7.786,10.975C122.597,174.678,121.63,175.645,120.438,175.645z"/>
			</g>
			<g>
				<path style="fill:#525D7D;" d="M83.789,144.451c-1.144,0-2.097-0.897-2.155-2.052c-0.008-0.177-0.013-0.356-0.013-0.534
					c0-6.502,4.057-10.23,11.131-10.23c5.244,0,8.061,4.086,10.324,7.37c0.46,0.668,0.911,1.324,1.372,1.927
					c0.724,0.947,0.544,2.302-0.403,3.027c-0.95,0.723-2.304,0.543-3.026-0.404c-0.503-0.658-0.997-1.372-1.499-2.1
					c-2.29-3.323-3.999-5.502-6.768-5.502c-6.039,0-6.813,3.16-6.813,5.912c0,0.107,0.001,0.214,0.007,0.319
					c0.059,1.191-0.857,2.205-2.05,2.264C83.86,144.45,83.824,144.451,83.789,144.451z"/>
			</g>
			<g>
				<path style="fill:#525D7D;" d="M108.805,137.111c-0.586,0-1.171-0.238-1.598-0.707c-0.633-0.697-1.229-1.485-1.805-2.248
					c-1.889-2.503-3.674-4.866-7.061-4.866c-2.394,0-4.511,1.792-4.924,4.167c-0.202,1.173-1.32,1.962-2.496,1.758
					c-1.175-0.205-1.961-1.322-1.757-2.497c0.766-4.416,4.712-7.746,9.177-7.746c5.537,0,8.41,3.804,10.507,6.582
					c0.541,0.717,1.053,1.394,1.555,1.946c0.801,0.882,0.737,2.248-0.146,3.05C109.844,136.925,109.323,137.111,108.805,137.111z"/>
			</g>
			<g>
				<path style="fill:#525D7D;" d="M142.225,163.96c-1.161,0.001-1.763-1.065-3.434-4.024
					c-18.474-32.705-35.567-49.287-50.804-49.287c-3.456,0-4.134,0.801-4.139,0.808c0.004,0.745,1.473,1.375,1.923,1.55
					c8.278,3.24,15.094,8.666,18.712,12.665c0.8,0.884,0.732,2.25-0.152,3.05c-0.883,0.799-2.248,0.734-3.05-0.153
					c-3.137-3.468-9.495-8.571-17.084-11.54c-3.853-1.508-4.663-3.844-4.663-5.537c0-1.927,1.098-5.161,8.453-5.161
					c16.91,0,35.267,17.321,54.564,51.481c0.516,0.914,1.046,1.853,1.324,2.31c0.437,0.395,0.711,0.966,0.711,1.601
					c0,0.981-0.675,1.877-1.623,2.125C142.689,163.922,142.446,163.96,142.225,163.96z"/>
			</g>
			<g>
				<path style="fill:#525D7D;" d="M73.946,166.406c-2.533,0-4.807-0.347-6.95-1.061c-0.576-0.192-1.044-0.617-1.292-1.172
					c-0.617-1.388-1.184-2.621-1.687-3.714c-2.284-4.961-3.43-7.451-2.089-9.583c1.39-2.208,4.175-2.251,10.902-2.357
					c1.74-0.027,3.759-0.059,6.085-0.131c1.154-0.077,2.189,0.898,2.225,2.09c0.038,1.192-0.898,2.188-2.09,2.225
					c-2.352,0.074-4.393,0.106-6.151,0.134c-3.129,0.049-6.103,0.096-7.188,0.408c0.19,0.982,1.224,3.229,2.228,5.41
					c0.399,0.865,0.836,1.816,1.306,2.86c1.445,0.386,2.993,0.574,4.701,0.574c2.366,0,7.052-0.557,8.103-1.2
					c0.738-0.832,2.002-0.971,2.908-0.29c0.953,0.715,1.147,2.069,0.432,3.023C83.322,166.375,74.041,166.406,73.946,166.406z
					 M81.936,161.027c0,0,0,0.001-0.001,0.001C81.936,161.027,81.936,161.027,81.936,161.027z M82.101,160.855L82.101,160.855
					L82.101,160.855z"/>
			</g>
			<g>
				<path style="fill:#525D7D;" d="M63.989,197.417c-0.68,0-1.351-0.321-1.77-0.921c-4.166-5.952-7.136-11.237-10.573-17.355
					c-3.601-6.408-7.682-13.673-14.215-23.636c-0.655-0.997-0.377-2.336,0.621-2.99c0.995-0.651,2.336-0.375,2.988,0.621
					c6.615,10.088,10.735,17.42,14.37,23.89c3.382,6.019,6.302,11.217,10.345,16.993c0.685,0.977,0.447,2.324-0.53,3.007
					C64.849,197.29,64.418,197.417,63.989,197.417z"/>
			</g>
			<g>
				<path style="fill:#525D7D;" d="M85.997,198.616c-0.351,0-0.707-0.086-1.037-0.267c-1.046-0.573-1.428-1.886-0.855-2.931
					c1.789-3.262,3.901-6.038,6.136-8.976c1.352-1.78,2.752-3.62,4.068-5.573c0.269-0.399,0.803-1.248,1.508-2.368
					c2.345-3.72,6.268-9.946,9.035-13.47c0.737-0.938,2.094-1.101,3.032-0.364c0.938,0.737,1.101,2.094,0.364,3.032
					c-2.63,3.348-6.629,9.695-8.778,13.105c-0.738,1.171-1.299,2.059-1.58,2.477c-1.385,2.057-2.822,3.948-4.213,5.776
					c-2.135,2.807-4.151,5.459-5.786,8.439C87.498,198.21,86.759,198.616,85.997,198.616z"/>
			</g>
			<g>
				<path style="fill:#525D7D;" d="M61.799,190.774c-0.252,0-0.509-0.044-0.758-0.138c-1.117-0.418-1.682-1.663-1.264-2.78
					c2.853-7.61,5.063-15.421,6.754-23.88c0.235-1.169,1.369-1.926,2.54-1.694c1.169,0.233,1.927,1.37,1.694,2.54
					c-1.736,8.689-4.009,16.719-6.945,24.55C63.495,190.239,62.673,190.774,61.799,190.774z"/>
			</g>
			<g>
				<path style="fill:#525D7D;" d="M91.122,191.18c-0.772,0-1.52-0.416-1.907-1.146c-4.071-7.655-6.882-15.929-9.599-23.93
					l-0.287-0.844c-0.384-1.129,0.219-2.356,1.349-2.74c1.13-0.384,2.355,0.221,2.738,1.349l0.288,0.845
					c2.662,7.839,5.416,15.943,9.322,23.291c0.559,1.053,0.16,2.36-0.893,2.919C91.811,191.098,91.465,191.18,91.122,191.18z"/>
			</g>
			<g>
				<path style="fill:#525D7D;" d="M170.199,36.901c-0.898,0-1.737-0.565-2.044-1.462c-1.871-5.481-3.314-11.152-4.712-16.635
					c-0.579-2.275-1.168-4.589-1.789-6.897c-1.515,4.258-3.178,8.461-4.803,12.571c-1.331,3.364-2.707,6.843-3.974,10.282
					c-0.412,1.12-1.657,1.692-2.772,1.28c-1.119-0.413-1.692-1.654-1.279-2.773c1.283-3.486,2.669-6.989,4.009-10.376
					c2.436-6.159,4.955-12.527,6.896-18.892c0.275-0.905,1.109-1.525,2.056-1.529c0.952,0,1.785,0.612,2.068,1.512
					c1.427,4.542,2.62,9.227,3.773,13.757c1.376,5.402,2.799,10.987,4.615,16.305c0.385,1.129-0.218,2.356-1.347,2.741
					C170.665,36.863,170.429,36.901,170.199,36.901z"/>
			</g>
			<g>
				<path style="fill:#525D7D;" d="M165.247,25.375h-10.497c-1.192,0-2.159-0.966-2.159-2.159s0.967-2.159,2.159-2.159h10.497
					c1.192,0,2.159,0.966,2.159,2.159S166.439,25.375,165.247,25.375z"/>
			</g>
			<g>
				<path style="fill:#525D7D;" d="M158.167,141.061c-1.029,0-1.94-0.739-2.124-1.787c-1.424-8.135-1.823-13.945-2.144-18.615
					c-0.292-4.25-0.503-7.32-1.398-9.735c-0.222-0.598-0.167-1.264,0.148-1.818c0.315-0.555,0.86-0.941,1.487-1.056
					c2.101-0.385,4.678-0.46,8.416-0.46c3.437,0,7.145,2.512,7.145,6.569c0,6.024-8.765,9.12-11.269,9.289
					c0.305,4.009,0.78,8.856,1.87,15.082c0.205,1.175-0.581,2.294-1.754,2.499C158.415,141.05,158.29,141.061,158.167,141.061z
					 M157.294,112.025c0.439,2.055,0.633,4.347,0.828,7.113c0.035-0.001,0.069-0.002,0.104-0.002
					c1.344-0.068,7.152-2.491,7.152-4.978c0-1.327-1.49-2.251-2.827-2.251C160.465,111.907,158.73,111.932,157.294,112.025z"/>
			</g>
			<g>
				<path style="fill:#525D7D;" d="M158.819,142.1c-0.967,0-1.848-0.655-2.093-1.636c-0.29-1.157,0.413-2.329,1.57-2.618
					l1.125-0.278c4.596-1.127,12.291-3.014,12.291-6.753c0-6.173-7.277-7.985-11.821-6.474c-1.134,0.374-2.354-0.236-2.73-1.367
					c-0.377-1.131,0.235-2.354,1.366-2.73c1.444-0.481,3.066-0.735,4.691-0.735c7.425,0,12.812,4.755,12.812,11.306
					c0,7.126-9.375,9.425-15.58,10.946l-1.105,0.273C159.169,142.079,158.992,142.1,158.819,142.1z"/>
			</g>
			<g>
				<path style="fill:#525D7D;" d="M162.551,77.716c-1.096,0-2.035-0.832-2.146-1.947c-0.025-0.256-0.038-0.509-0.038-0.757
					c0-4.332,3.229-6.28,5.586-7.702c2.346-1.415,3.302-2.139,3.302-3.622c0-1.325-3.322-3.016-5.923-3.016
					c-2.267,0-3.437,1.221-3.437,1.743c0,0.06,0.017,0.129,0.052,0.207c0.486,1.089-0.001,2.366-1.089,2.853
					c-1.092,0.486-2.366-0.003-2.852-1.09c-0.284-0.636-0.429-1.299-0.429-1.97c0-2.915,2.964-6.061,7.755-6.061
					c4.186,0,10.241,2.612,10.241,7.335c0,4.069-3.115,5.947-5.389,7.32c-2.487,1.499-3.499,2.281-3.499,4.005
					c0,0.109,0.007,0.219,0.018,0.332c0.117,1.186-0.751,2.243-1.937,2.361C162.694,77.713,162.622,77.716,162.551,77.716z"/>
			</g>
			<g>
				<path style="fill:#525D7D;" d="M163.37,88.296c-1.685,0-2.863-1.219-2.863-2.963c0-3.137,2.525-3.227,2.813-3.227h0.135
					c3.128,0,3.286,2.353,3.286,2.825C166.741,86.912,165.355,88.296,163.37,88.296z M163.37,83.978
					c-0.409,0.007-0.942,0.542-0.947,0.953c0,0.756,0.631,1.347,1.113,1.476c0.72-0.111,1.245-0.755,1.293-1.194
					C164.819,84.742,164.112,83.978,163.37,83.978z"/>
			</g>
			<g>
				<path style="fill:#525D7D;" d="M165.2,96.665c-6.573,0-12.956-2.576-17.568-7.103c-4.644-4.559-7.214-10.805-7.233-17.587
					c-0.039-12.005,7.815-22.292,18.675-24.46c1.521-0.304,3.085-0.479,4.648-0.517c7.19-0.138,13.697,2.271,18.39,6.851
					c4.677,4.566,7.257,10.927,7.267,17.913c0.017,13.295-10.877,24.697-23.787,24.9C165.462,96.664,165.331,96.665,165.2,96.665z
					 M164.426,51.309c-0.2,0-0.399,0.002-0.6,0.006c-1.311,0.032-2.626,0.178-3.902,0.434c-8.844,1.765-15.238,10.265-15.206,20.213
					c0.017,5.701,2.072,10.721,5.94,14.52c3.885,3.813,9.363,5.959,14.867,5.863c10.604-0.166,19.551-9.589,19.537-20.576
					c-0.008-5.814-2.127-11.081-5.965-14.829C175.315,53.249,170.253,51.309,164.426,51.309z"/>
			</g>
			<g>
				<path style="fill:#525D7D;" d="M195.421,110.654c-0.544,0-1.088-0.204-1.507-0.613c-0.855-0.833-0.872-2.2-0.039-3.053
					c1.287-1.321,2.547-2.719,3.744-4.156c0.761-0.916,2.124-1.042,3.04-0.278c0.917,0.763,1.04,2.125,0.277,3.041
					c-1.268,1.524-2.605,3.006-3.969,4.407C196.545,110.436,195.984,110.654,195.421,110.654z M206.615,95.706
					c-0.35,0-0.706-0.086-1.035-0.266c-1.046-0.572-1.431-1.884-0.859-2.93c0.915-1.671,1.718-3.347,2.388-4.98
					c0.454-1.101,1.712-1.631,2.817-1.177c1.103,0.453,1.631,1.714,1.178,2.818c-0.731,1.779-1.604,3.6-2.593,5.411
					C208.119,95.299,207.378,95.706,206.615,95.706z M212.002,77.954c-0.027,0-0.052-0.001-0.079-0.001
					c-1.192-0.043-2.123-1.043-2.08-2.235c0.011-0.328,0.018-0.658,0.018-0.987c0.001-1.403-0.087-2.896-0.263-4.442
					c-0.135-1.184,0.715-2.254,1.9-2.389c1.189-0.138,2.256,0.716,2.39,1.901c0.194,1.708,0.292,3.367,0.291,4.932
					c0,0.379-0.007,0.759-0.021,1.139C214.116,77.038,213.159,77.954,212.002,77.954z M208.708,59.635
					c-0.879,0-1.705-0.541-2.027-1.415c-0.638-1.736-1.368-3.45-2.17-5.095c-0.521-1.072-0.077-2.364,0.995-2.887
					c1.073-0.523,2.364-0.078,2.887,0.994c0.864,1.776,1.653,3.625,2.342,5.498c0.41,1.119-0.163,2.36-1.282,2.771
					C209.206,59.592,208.955,59.635,208.708,59.635z M199.418,43.498c-0.613,0-1.22-0.259-1.647-0.762
					c-1.193-1.406-2.472-2.735-3.801-3.951c-0.88-0.805-0.94-2.17-0.135-3.05c0.805-0.878,2.172-0.938,3.05-0.135
					c1.462,1.337,2.868,2.798,4.177,4.341c0.772,0.909,0.661,2.271-0.249,3.043C200.407,43.329,199.911,43.498,199.418,43.498z
					 M184.713,32.172c-0.305,0-0.616-0.065-0.911-0.203c-1.635-0.762-3.347-1.424-5.091-1.966c-1.139-0.354-1.775-1.564-1.421-2.702
					c0.354-1.139,1.563-1.775,2.703-1.42c1.929,0.599,3.825,1.332,5.634,2.176c1.081,0.504,1.549,1.789,1.044,2.87
					C186.304,31.71,185.526,32.172,184.713,32.172z"/>
			</g>
		</g>
	</g>
</g>
<g id="Layer_1">
</g>
</svg>
