<?xml version="1.0" encoding="iso-8859-1"?>
<!-- Generator: Adobe Illustrator 21.0.2, SVG Export Plug-In . SVG Version: 6.00 Build 0)  -->
<svg version="1.1" xmlns="http://www.w3.org/2000/svg" xmlns:xlink="http://www.w3.org/1999/xlink" x="0px" y="0px"
	 viewBox="0 0 191.228 206.746" style="enable-background:new 0 0 191.228 206.746;" xml:space="preserve">
<g id="_x31_06">
	<g>
		<g>
			<path style="fill:#E0DFE6;" d="M77.908,188.867c-3.539-1.115-5.613,0.871-8.174,2.826c-0.492,0.375-1.749,0.705-2.866,0.952
				c-1.564,0.346-2.972,0.605-3.633,2.332c-1.642,4.294,3.959,7.695,7.512,7.766c4.876,0.097,11.532-2.78,11.253-8.502
				C81.874,191.655,80.369,189.641,77.908,188.867z"/>
			<path style="fill:#E0DFE6;" d="M187.15,86.643c-4.736,4.946-8.306,10.776-11.791,16.663c-0.364,0.014-0.729,0.047-1.091,0.118
				c-8.553,1.684-15.399,12.224-21.816,17.795c-7.741,6.721-15.937,12.905-24.047,19.168
				c-16.201,12.512-35.429,24.721-46.814,42.038c-1.389,2.113,0.421,4.999,2.734,5.155c-2.512,2.615-4.821,5.325-6.78,8.161
				c-4.368,6.323,4.028,13.566,10.112,10.112c6.64-3.77,12.001-9.864,17.615-14.997c4.946-4.523,9.906-9.031,14.949-13.446
				c10.91-9.551,22.349-18.051,34.096-26.513c20.024-14.424,36.872-36.755,36.744-62.634
				C191.051,86.315,188.539,85.192,187.15,86.643z"/>
			<path style="fill:#E0DFE6;" d="M50.7,165.659c-7.238,0.304-14.348,1.758-21.621,1.883c-6.728,0.116-13.448-0.24-20.157,0.397
				c-3.343,0.317-6.301,3.903-4.127,7.193c3.965,6.002,13.307,6.81,19.936,7.409c9.033,0.816,19.294,0.667,27.957-2.194
				C60.362,177.812,59.506,165.29,50.7,165.659z"/>
			<path style="fill:#E0DFE6;" d="M163.75,143.914c-2.901-4.022-8.43-4.352-11.27,0c-3.121,4.781-2.345,9.259-2.411,14.802
				c-0.031,2.586-0.807,6.075-0.257,8.626c-0.133,0.572-0.216,1.027-0.278,1.429c-0.592,0.103-1.179,0.23-1.775,0.308
				c-12.193,1.97-25.631,0.803-37.424,4.515c-3.086,0.971-4.042,5.532-0.939,7.189c7.068,3.774,15.644,4.611,23.569,4.832
				c7.546,0.21,17.262,0.59,24.367-2.352c6.354-2.631,8.025-8.099,8.541-14.484C166.485,161.172,168.412,150.375,163.75,143.914z"/>
			<path style="fill:#E0DFE6;" d="M162.9,49.001c-0.72-7.835-0.47-19.307-6.714-24.965c-0.876-0.794-2.316-0.924-3.178,0
				c-5.698,6.106-4.776,17.154-5.07,24.965c-0.409,10.887-0.48,21.851-0.168,32.742c0.301,10.496,16.154,10.541,16.337,0
				C164.297,70.848,163.896,59.852,162.9,49.001z"/>
			<path style="fill:#E0DFE6;" d="M32.932,13.903c-1.828-0.503-3.995-0.221-5.632,0.737c-2.434,1.424-3.29,3.661-3.62,6.311
				c0.075-0.602,0.263-1.554,0.004-0.406c-0.064,0.284-0.141,0.563-0.218,0.843c-0.178,0.644-0.384,1.278-0.569,1.918
				c-0.154,0.274-0.304,0.56-0.437,0.842c-0.519,1.103-0.821,2.148-0.896,3.37c-0.115,1.867,1.394,3.541,3.089,4.058
				c2.459,0.749,5.023-0.332,7.133-1.564c2.35-1.372,3.923-3.212,5.514-5.372C40.154,20.763,37.123,15.057,32.932,13.903z"/>
			<path style="fill:#E0DFE6;" d="M59.935,18.681c-2.761-1.459-5.976-1.072-8.276,1.068c-0.895,0.833-1.319,1.649-1.766,2.709
				c-0.243,0.576-0.372,1.157-0.466,1.747l0.045-0.334c-0.042,0.291-0.088,0.581-0.135,0.872c-0.21,1.29-0.293,2.204-0.051,3.54
				c0.067,0.368,0.139,0.735,0.218,1.101c0.438,2.022,2.575,3.478,4.573,3.482c1.601,0.003,3.175-0.291,4.554-1.141
				c2.015-1.243,3.926-2.907,4.442-5.332C63.684,23.521,62.698,20.141,59.935,18.681z"/>
			<path style="fill:#E0DFE6;" d="M89.285,22.325c-0.988-1.688-2.924-3.299-4.865-3.741c-2.084-0.475-4.423-0.372-6.272,0.821
				c-0.549,0.424-1.098,0.849-1.647,1.273c-1.009,1.016-1.707,2.213-2.093,3.592c-0.248,0.591-0.357,1.24-0.522,1.872
				c-0.41,0.78-0.821,1.557-0.986,2.442c-0.419,2.253-0.18,4.215,1.244,6.058c1.235,1.598,3.329,2.936,5.458,2.739
				c1.556-0.144,3.115-0.37,4.43-1.29c0.858-0.6,1.719-1.245,2.49-1.957c1.618-1.495,2.967-3.417,3.585-5.538
				C90.691,26.588,90.336,24.122,89.285,22.325z"/>
			<path style="fill:#E0DFE6;" d="M113.807,21.481c-2.506-1.324-5.457-1.205-7.72,0.544c-2.416,1.866-3.445,5.358-2.17,8.199
				c0.1,0.471,0.2,0.941,0.3,1.412c0.308,1.452,1.491,2.584,2.803,3.137c1.497,0.632,2.868,0.444,4.308-0.244
				c0.322-0.154,0.644-0.308,0.966-0.462c0.774-0.228,1.494-0.566,2.217-1.124c1.186-0.916,2.088-2.148,2.491-3.611
				C117.788,26.473,116.508,22.908,113.807,21.481z"/>
			<path style="fill:#E0DFE6;" d="M136.453,23.783c-4.582-2.776-9.866,1.164-12.36,5.005c-0.996,1.535-0.903,3.692,0,5.235
				c0.974,1.664,2.616,2.436,4.478,2.569c1.616,0.115,3.279-0.223,4.839-0.659c0.912-0.255,2.021-0.703,2.848-1.221
				c0.927-0.581,1.703-1.377,2.295-2.295c0.686-1.064,0.758-2.212,0.894-3.413C139.683,26.932,138.123,24.795,136.453,23.783z"/>
			<path style="fill:#E0DFE6;" d="M116.348,56.374c-7.642-2.612-16.876-1.537-24.864-1.264c-7.225,0.246-14.772,0.015-21.421,3.14
				c-1.052,0.494-1.039,2.263,0,2.762c6.596,3.164,14.245,3.138,21.421,3.863c8.129,0.822,16.794,2.754,24.864,1.169
				C121.548,65.022,120.66,57.849,116.348,56.374z"/>
			<path style="fill:#E0DFE6;" d="M117.384,77.087c-7.883-2.453-17.819-0.328-25.977,0.415c-7.352,0.67-15.688,0.835-22.391,4.1
				c-1.005,0.489-1.088,2.3,0,2.762c6.862,2.912,15.022,2.724,22.391,3.031c8.21,0.342,18.206,2.033,25.977-0.806
				C121.877,84.948,122.235,78.597,117.384,77.087z"/>
			<path style="fill:#E0DFE6;" d="M115.205,99.862c-6.195-3.51-13.58-2.074-20.475-1.654c-7.377,0.45-14.708,1.197-21.99,2.461
				c-2.627,0.456-2.57,4.749,0,5.251c7.269,1.421,14.61,2.3,21.99,2.904c6.922,0.566,14.18,2.119,20.475-1.274
				C118.148,105.963,118.05,101.474,115.205,99.862z"/>
			<path style="fill:#E0DFE6;" d="M107.456,120.457c-3.439-4.186-8.88-3.08-13.801-2.662c-5.918,0.502-11.683,2.015-17.592,2.558
				c-3.717,0.342-3.803,6.145,0,5.878c5.946-0.418,11.703,0.623,17.592,1.354c5.227,0.649,9.594,2.242,13.801-1.505
				C109.17,124.554,108.755,122.038,107.456,120.457z"/>
			<path style="fill:#E0DFE6;" d="M87.961,141.476c-3.763-5.803-11.647-1.908-17.092-1.45c-4.553,0.383-4.562,6.704,0,7.088
				c5.442,0.458,13.325,4.359,17.092-1.45C88.73,144.478,88.73,142.663,87.961,141.476z"/>
			<path style="fill:#E0DFE6;" d="M184.46,88.262c-0.056-0.053-0.108-0.11-0.156-0.171c0.27,0.35,0.541,0.7,0.811,1.05
				c-0.871-1.219-1.773-2.112-3.257-2.538c-0.559-0.161-1.147-0.184-1.726-0.235c-0.123-0.089-0.238-0.191-0.365-0.271
				c-0.33-0.207-0.463-0.369,0.274,0.263c-1.465-1.227-3.818-1.55-5.225,0.026c-1.279,1.432-1.768,3.072-1.387,4.986
				c0.226,1.136,0.778,2.135,1.477,3.039c0.976,1.264,2.274,2.274,3.892,2.558c1.892,0.332,4.037,0.105,5.426-1.407
				c0.72-0.785,1.135-1.587,1.481-2.589C186.261,91.363,185.617,89.43,184.46,88.262z"/>
		</g>
		<g>
			<g>
				<path style="fill:#525D7D;" d="M49.654,172.088c-0.068,0-0.135-0.003-0.203-0.01c-11.809-1.098-20.257-1.299-32.637-1.299
					c-3.082,0-6.164,0.011-9.246,0.024l-3.086,0.011c-1.181,0-2.141-0.939-2.165-2.114c-0.231-10.985-0.655-22.164-1.065-32.976
					C0.637,119.475,0,102.672,0,86.126c0-9.395,0.146-13.782,0.3-18.428c0.162-4.893,0.33-9.953,0.33-21.456l-0.006-7.834
					c0-7.81,0.055-14.364,0.324-20.964c0.046-1.14,0.971-2.048,2.111-2.072c4.266-0.09,8.754-0.219,14.125-0.406
					c1.171-0.094,2.191,0.891,2.233,2.082c0.041,1.192-0.89,2.191-2.082,2.234c-4.545,0.159-8.462,0.275-12.148,0.363
					c-0.201,5.862-0.245,11.809-0.245,18.764l0.006,7.834c0,11.574-0.169,16.671-0.333,21.599
					c-0.152,4.608-0.297,8.961-0.297,18.284c0,16.464,0.635,33.225,1.25,49.435c0.384,10.135,0.78,20.593,1.02,30.927l0.964-0.003
					c3.087-0.013,6.175-0.024,9.262-0.024c12.514,0,21.059,0.204,33.037,1.318c1.188,0.11,2.061,1.162,1.95,2.349
					C51.697,171.249,50.756,172.088,49.654,172.088z"/>
			</g>
			<g>
				<path style="fill:#525D7D;" d="M25.532,18.977c-1.154,0-2.111-0.912-2.156-2.075c-0.046-1.192,0.882-2.196,2.074-2.242
					c3.308-0.128,5.901-0.261,8.439-0.391c2.965-0.152,5.857-0.299,9.716-0.433c1.188-0.065,2.191,0.891,2.232,2.083
					c0.041,1.192-0.891,2.191-2.083,2.232c-3.83,0.132-6.701,0.28-9.644,0.43c-2.555,0.131-5.164,0.264-8.493,0.394
					C25.589,18.977,25.56,18.977,25.532,18.977z"/>
			</g>
			<g>
				<path style="fill:#525D7D;" d="M50.706,17.932c-1.164,0-2.123-0.926-2.157-2.097c-0.034-1.192,0.905-2.186,2.097-2.219
					c7.353-0.21,13.842-0.311,19.839-0.311l1.015,0.001c1.192,0.006,2.155,0.975,2.15,2.168c-0.005,1.189-0.971,2.151-2.159,2.151
					c-0.009,0-1.006-0.001-1.006-0.001C64.53,17.622,58.081,17.724,50.706,17.932z"/>
			</g>
			<g>
				<path style="fill:#525D7D;" d="M99.371,18.512c-0.035,0-0.07-0.001-0.105-0.003c-7.29-0.351-13.806-0.603-19.365-0.748
					c-1.192-0.03-2.133-1.022-2.102-2.214c0.03-1.172,0.991-2.103,2.157-2.103c5.649,0.146,12.197,0.398,19.519,0.752
					c1.191,0.058,2.11,1.07,2.052,2.26C101.47,17.613,100.516,18.512,99.371,18.512z"/>
			</g>
			<g>
				<path style="fill:#525D7D;" d="M123.849,19.909c-0.047,0-0.095-0.001-0.143-0.004c-5.209-0.34-10.589-0.665-15.916-0.954
					c-1.191-0.065-2.104-1.084-2.038-2.274c0.065-1.191,1.09-2.073,2.273-2.038c5.343,0.292,10.738,0.617,15.962,0.957
					c1.19,0.077,2.092,1.105,2.014,2.296C125.927,19.032,124.976,19.909,123.849,19.909z"/>
			</g>
			<g>
				<path style="fill:#525D7D;" d="M148.989,90.839c-0.056,0-0.111-0.001-0.168-0.007c-1.188-0.091-2.078-1.129-1.987-2.318
					c0.559-7.27,0.831-15.157,0.831-24.114c0-8.439-0.237-17.021-0.466-25.318c-0.158-5.719-0.321-11.613-0.407-17.466
					c-4.51-0.386-9.804-0.796-15.454-1.195c-1.19-0.084-2.086-1.116-2.002-2.305c0.084-1.191,1.127-2.097,2.305-2.002
					c6.508,0.46,12.55,0.933,17.474,1.369c1.105,0.098,1.956,1.016,1.968,2.125c0.075,6.46,0.256,13.015,0.431,19.354
					c0.231,8.328,0.468,16.939,0.468,25.438c0,9.068-0.276,17.064-0.843,24.445C151.052,89.978,150.106,90.839,148.989,90.839z"/>
			</g>
			<g>
				<path style="fill:#525D7D;" d="M17.508,29.947c-1.113,0-2.058-0.855-2.15-1.985c-0.236-2.904-0.268-5.738-0.268-8.129
					c0-0.887,0.005-1.773,0.01-2.66c0.005-0.876,0.01-1.753,0.01-2.63c0-3.354-0.068-6.954-0.555-10.562
					c-0.16-1.182,0.668-2.269,1.85-2.429c1.191-0.165,2.27,0.668,2.429,1.85c0.523,3.861,0.595,7.637,0.595,11.141
					c0,0.886-0.005,1.77-0.01,2.655c-0.005,0.877-0.01,1.756-0.01,2.634c0,2.304,0.03,5.029,0.254,7.78
					c0.096,1.188-0.789,2.229-1.977,2.326C17.625,29.944,17.566,29.947,17.508,29.947z"/>
			</g>
			<g>
				<path style="fill:#525D7D;" d="M25.767,29.414c-1.112,0-2.056-0.852-2.149-1.979c-0.188-2.248-0.275-4.62-0.275-7.465
					c0-2.26,0.055-4.525,0.112-6.786c0.055-2.224,0.11-4.446,0.11-6.663c0-0.995-0.011-1.992-0.039-2.986
					c-0.034-1.192,0.905-2.186,2.097-2.22c1.135-0.07,2.186,0.904,2.219,2.096c0.03,1.036,0.041,2.072,0.041,3.109
					c0,2.252-0.056,4.511-0.112,6.77c-0.055,2.226-0.11,4.454-0.11,6.68c0,2.723,0.082,4.98,0.259,7.105
					c0.099,1.189-0.784,2.232-1.972,2.332C25.888,29.412,25.827,29.414,25.767,29.414z"/>
			</g>
			<g>
				<path style="fill:#525D7D;" d="M43.832,30.192c-1.193,0-2.159-0.967-2.159-2.159c0-8.255-0.22-16.629-0.655-24.884
					c-0.063-1.191,0.852-2.207,2.043-2.27c1.163-0.041,2.206,0.853,2.269,2.042c0.438,8.331,0.661,16.78,0.661,25.112
					C45.991,29.225,45.025,30.192,43.832,30.192z"/>
			</g>
			<g>
				<path style="fill:#525D7D;" d="M50.413,29.788c-1.252-0.032-2.192-1.026-2.16-2.217l0.011-0.385
					c0.219-8.104,0.426-15.757,0.426-23.713c0-1.192,0.966-2.159,2.159-2.159c1.193,0,2.159,0.967,2.159,2.159
					c0,8.015-0.207,15.697-0.427,23.83l-0.011,0.384C52.538,28.859,51.578,29.788,50.413,29.788z"/>
			</g>
			<g>
				<path style="fill:#525D7D;" d="M71.68,30.192c-1.193,0-2.159-0.967-2.159-2.159c0-3.405-0.072-6.84-0.141-10.16
					c-0.069-3.323-0.14-6.76-0.14-10.168c0-1.713,0.018-3.434,0.062-5.164c0.03-1.192,1.025-2.191,2.214-2.101
					c1.193,0.03,2.134,1.022,2.103,2.214c-0.044,1.691-0.061,3.375-0.061,5.052c0,3.364,0.071,6.778,0.14,10.078
					c0.07,3.343,0.141,6.8,0.141,10.25C73.839,29.225,72.873,30.192,71.68,30.192z"/>
			</g>
			<g>
				<path style="fill:#525D7D;" d="M79.678,28.246c-1.165,0-2.125-0.928-2.157-2.1c-0.019-0.686-0.027-1.373-0.027-2.062
					c0-3.071,0.174-6.196,0.341-9.218c0.165-2.969,0.335-6.04,0.335-9.007c0-1.282-0.03-2.454-0.093-3.582
					c-0.066-1.191,0.846-2.21,2.036-2.276c1.192-0.041,2.209,0.846,2.275,2.037c0.067,1.207,0.1,2.457,0.1,3.821
					c0,3.087-0.174,6.219-0.342,9.248c-0.165,2.962-0.335,6.026-0.335,8.978c0,0.649,0.008,1.297,0.026,1.944
					C81.87,27.22,80.93,28.213,79.678,28.246z"/>
			</g>
			<g>
				<path style="fill:#525D7D;" d="M99.745,30.411c-1.139,0-2.092-0.891-2.154-2.042C97.15,20.196,97.15,11.806,97.15,3.693
					c0-1.192,0.966-2.159,2.159-2.159s2.159,0.967,2.159,2.159c0,8.057,0,16.388,0.436,24.443c0.064,1.191-0.849,2.208-2.04,2.273
					C99.824,30.41,99.785,30.411,99.745,30.411z"/>
			</g>
			<g>
				<path style="fill:#525D7D;" d="M108.297,30.63c-1.104,0-2.046-0.842-2.147-1.964c-0.353-3.881-0.401-7.8-0.401-11.456
					l0.013-5.45c0-4.834-0.136-6.064-0.16-6.242c-0.033-0.149-0.049-0.302-0.049-0.457c0-0.911,0.269-1.733,0.799-2.442
					c0.716-0.956,2.069-1.153,3.022-0.437c0.915,0.683,1.133,1.954,0.522,2.898c0.091,0.804,0.184,2.557,0.184,6.68l-0.013,5.45
					c0,3.555,0.046,7.356,0.383,11.065c0.108,1.188-0.767,2.238-1.955,2.346C108.428,30.627,108.362,30.63,108.297,30.63z"/>
			</g>
			<g>
				<path style="fill:#525D7D;" d="M124.085,30.85c-1.137,0-2.09-0.89-2.153-2.04c-0.198-3.56-0.22-7.108-0.242-10.538
					c-0.026-4.208-0.053-8.562-0.412-12.864c-0.099-1.189,0.784-2.232,1.972-2.332c1.196-0.075,2.232,0.784,2.331,1.972
					c0.373,4.47,0.401,8.906,0.427,13.197c0.021,3.378,0.043,6.871,0.235,10.326c0.066,1.191-0.845,2.21-2.036,2.276
					C124.166,30.848,124.126,30.85,124.085,30.85z"/>
			</g>
			<g>
				<path style="fill:#525D7D;" d="M131.76,30.411c-1.134,0-2.086-0.885-2.153-2.033c-0.192-3.267-0.277-6.754-0.277-11.31
					c0-1.87,0.014-3.739,0.027-5.607c0.014-1.86,0.027-3.718,0.027-5.576c0-1.192,0.966-2.159,2.159-2.159
					c1.193,0,2.159,0.967,2.159,2.159c0,1.87-0.014,3.739-0.027,5.607c-0.014,1.86-0.027,3.718-0.027,5.576
					c0,4.467,0.084,7.877,0.271,11.057c0.07,1.191-0.839,2.212-2.029,2.281C131.846,30.41,131.803,30.411,131.76,30.411z"/>
			</g>
			<g>
				<path style="fill:#525D7D;" d="M93.338,57.905c-8.756,0-16.649-0.1-24.129-0.305c-1.192-0.032-2.132-1.025-2.099-2.217
					c0.032-1.193,1.028-2.18,2.217-2.099c7.441,0.204,15.295,0.302,24.011,0.302c6.895,0,14.207-0.059,23.711-0.19
					c1.203-0.051,2.172,0.938,2.189,2.13c0.016,1.192-0.937,2.172-2.13,2.189C107.584,57.846,100.253,57.905,93.338,57.905z"/>
			</g>
			<g>
				<path style="fill:#525D7D;" d="M117.338,79.355c-5.178-0.072-10.347-0.271-15.347-0.465c-6.148-0.239-12.506-0.485-18.756-0.485
					c-4.63,0-8.792,0.132-12.72,0.405c-1.211,0.107-2.221-0.815-2.304-2.004c-0.082-1.189,0.815-2.221,2.004-2.302
					c4.03-0.28,8.288-0.416,13.02-0.416c6.334,0,12.734,0.247,18.923,0.488c4.973,0.193,10.116,0.392,15.209,0.462
					c1.192,0.017,2.145,0.997,2.129,2.189C119.479,78.408,118.516,79.355,117.338,79.355z"/>
			</g>
			<g>
				<path style="fill:#525D7D;" d="M111.435,100.919c-7.529,0-15.149-0.491-22.518-0.966c-5.317-0.342-10.816-0.696-16.205-0.86
					c-1.192-0.035-2.129-1.032-2.093-2.224c0.037-1.192,1.059-2.198,2.224-2.092c5.463,0.166,10.998,0.522,16.352,0.867
					c8.847,0.569,17.979,1.151,26.934,0.887c1.21-0.037,2.188,0.901,2.224,2.093c0.036,1.192-0.902,2.187-2.093,2.222
					C114.651,100.897,113.043,100.919,111.435,100.919z"/>
			</g>
			<g>
				<path style="fill:#525D7D;" d="M109.179,121.901c-0.076,0-0.152-0.004-0.229-0.011c-6.479-0.683-13.117-0.769-19.536-0.852
					c-5.861-0.076-11.921-0.153-17.922-0.68c-1.188-0.104-2.067-1.151-1.962-2.339c0.104-1.189,1.171-2.066,2.339-1.962
					c5.84,0.512,11.819,0.589,17.601,0.664c6.517,0.084,13.256,0.171,19.933,0.874c1.186,0.125,2.046,1.188,1.921,2.374
					C111.207,121.077,110.27,121.901,109.179,121.901z"/>
			</g>
			<g>
				<path style="fill:#525D7D;" d="M81.586,142.495c-2.704,0-6.276-0.055-9.938-0.486c-1.184-0.139-2.031-1.212-1.892-2.395
					c0.139-1.185,1.214-2.05,2.397-1.892c3.439,0.403,6.848,0.455,9.434,0.455c1.506,0,3.012-0.02,4.518-0.039
					c2.742-0.038,5.483-0.075,8.224,0.008c1.192,0.035,2.13,1.029,2.095,2.221c-0.035,1.192-1.067,2.177-2.222,2.094
					c-2.679-0.077-5.36-0.041-8.041-0.007C84.636,142.475,83.111,142.495,81.586,142.495z"/>
			</g>
			<g>
				<path style="fill:#525D7D;" d="M34.733,59.607c-3.06,0-5.367-2.162-5.367-5.028c0-2.647,1.455-3.573,2.236-4.069
					c0.196-0.125,0.351-0.224,0.449-0.322c0.579-0.579,1.434-0.781,2.21-0.521c1.505,0.502,5.503,1.834,5.503,5.549
					C39.764,56.857,39.11,59.607,34.733,59.607z M33.7,54.291c-0.008,0.059-0.016,0.153-0.016,0.288c0,0.617,0.657,0.71,1.049,0.71
					c0.339,0,0.565-0.018,0.713-0.039c0-0.118-0.085-0.509-1.515-1.103C33.845,54.201,33.77,54.243,33.7,54.291z"/>
			</g>
			<g>
				<path style="fill:#525D7D;" d="M41.667,80.667c-2.002,0-4.567-1.884-8.928-5.215c-2.392-1.826-4.866-3.715-6.443-4.463
					c-1.078-0.51-1.538-1.798-1.027-2.875c0.511-1.078,1.798-1.539,2.875-1.027c1.988,0.942,4.528,2.88,7.216,4.934
					c2.158,1.649,5.421,4.14,6.416,4.335c1.193,0,2.105,0.963,2.105,2.156C43.88,79.704,42.859,80.667,41.667,80.667z"/>
			</g>
			<g>
				<path style="fill:#525D7D;" d="M28.536,81.942c-0.611,0-1.219-0.259-1.646-0.76c-0.772-0.91-0.661-2.272,0.247-3.043
					c2.979-2.532,5.89-5.365,8.705-8.105c1.29-1.257,2.575-2.508,3.866-3.731c0.865-0.821,2.232-0.783,3.052,0.083
					c0.82,0.864,0.784,2.231-0.082,3.052c-1.277,1.21-2.549,2.447-3.825,3.69c-2.867,2.79-5.831,5.674-8.919,8.3
					C29.528,81.773,29.031,81.942,28.536,81.942z"/>
			</g>
			<g>
				<path style="fill:#525D7D;" d="M27.658,110.886c-0.571,0-1.141-0.225-1.565-0.672c-0.822-0.864-0.786-2.231,0.078-3.053
					c1.5-1.424,3-2.824,4.492-4.215c2.925-2.728,5.687-5.306,8.407-8.025c0.843-0.843,2.21-0.843,3.053,0
					c0.843,0.843,0.843,2.21,0,3.053c-2.772,2.772-5.691,5.496-8.514,8.129c-1.482,1.383-2.972,2.773-4.463,4.19
					C28.728,110.69,28.192,110.886,27.658,110.886z"/>
			</g>
			<g>
				<path style="fill:#525D7D;" d="M41.91,108.913c-0.267,0-0.538-0.049-0.801-0.155c-5.266-2.107-8.361-4.693-11.09-6.976
					c-1.962-1.64-3.656-3.057-5.853-4.012c-1.094-0.476-1.595-1.747-1.119-2.841c0.475-1.094,1.746-1.594,2.841-1.12
					c2.768,1.203,4.776,2.883,6.901,4.66c2.604,2.177,5.296,4.429,9.924,6.28c1.107,0.443,1.645,1.699,1.203,2.806
					C43.578,108.4,42.767,108.913,41.91,108.913z"/>
			</g>
			<g>
				<path style="fill:#525D7D;" d="M35.702,127.231c-2.622,0-4.92-2.21-4.92-4.73c0-2.579,2.217-4.816,4.407-5.691
					c1.106-0.441,2.364,0.096,2.806,1.203c0.145,0.361,0.185,0.739,0.134,1.101c1.261,0.474,2.427,1.598,2.427,4.134
					C40.556,125.707,38.037,127.231,35.702,127.231z"/>
			</g>
			<g>
				<path style="fill:#525D7D;" d="M29.413,151.015c-0.611,0-1.219-0.259-1.646-0.761c-0.772-0.909-0.661-2.271,0.247-3.043
					c2.938-2.498,5.727-5.049,8.679-7.749c1.391-1.272,2.79-2.553,4.213-3.833c0.886-0.797,2.252-0.725,3.049,0.16
					c0.798,0.887,0.726,2.252-0.16,3.05c-1.413,1.272-2.804,2.544-4.187,3.808c-2.851,2.609-5.799,5.306-8.796,7.853
					C30.405,150.846,29.908,151.015,29.413,151.015z"/>
			</g>
			<g>
				<path style="fill:#525D7D;" d="M42.348,151.234c-0.325,0-0.654-0.073-0.964-0.228c-3.809-1.905-6.836-4.669-9.764-7.343
					c-1.761-1.608-3.424-3.127-5.246-4.474c-0.959-0.708-1.162-2.061-0.453-3.019c0.708-0.962,2.061-1.161,3.019-0.453
					c2.002,1.479,3.827,3.146,5.591,4.757c2.834,2.589,5.511,5.035,8.783,6.67c1.066,0.534,1.498,1.83,0.966,2.897
					C43.902,150.797,43.14,151.234,42.348,151.234z"/>
			</g>
			<g>
				<path style="fill:#525D7D;" d="M70.072,204.696c-5.511,0-10.694-2.193-14.597-6.176c-3.413-3.483-5.451-7.919-5.451-11.865
					c0-2.634,4.114-13.117,9.277-17.853c6.977-6.397,9.291-8.305,16.962-14.624c9.277-7.644,26.545-21.872,69.87-58.758
					c0.168-0.142,0.357-0.259,0.561-0.344c12.888-5.433,21.847-9.429,28.389-12.347c5.703-2.543,9.822-4.38,13.214-5.679
					c0.79-0.301,1.683-0.115,2.286,0.478c0.603,0.593,0.804,1.483,0.515,2.277c-1.791,4.924-5.18,11.889-9.103,19.953
					c-3.274,6.733-6.986,14.363-10.374,22.07c-0.151,0.344-0.389,0.642-0.691,0.866c-28.384,21.03-55.034,45.315-80.807,68.8
					c-3.762,3.428-7.524,6.855-11.29,10.272C76.658,203.737,73.793,204.696,70.072,204.696z M148.678,98.923
					c-43.164,36.749-60.401,50.95-69.669,58.587c-7.602,6.263-9.897,8.154-16.79,14.474c-4.244,3.892-7.775,13.042-7.878,14.697
					c0.001,5.437,6.274,13.696,15.73,13.696c2.636,0,4.497-0.575,5.859-1.81c3.764-3.414,7.523-6.84,11.283-10.267
					c25.713-23.432,52.297-47.657,80.685-68.736c3.357-7.604,6.995-15.081,10.213-21.696c2.734-5.62,5.204-10.698,7.024-14.858
					c-2.348,1.009-5.065,2.221-8.293,3.66C170.335,89.573,161.443,93.539,148.678,98.923z"/>
			</g>
			<g>
				<path style="fill:#525D7D;" d="M81.53,196.851c-0.503,0-1.009-0.174-1.418-0.531c-5.785-5.038-10.341-11.066-14.001-15.912
					c-2.563-3.392-4.776-6.32-6.525-7.72c-0.931-0.744-1.082-2.103-0.337-3.033c0.746-0.933,2.103-1.082,3.035-0.337
					c2.17,1.736,4.422,4.716,7.273,8.487c3.54,4.685,7.945,10.515,13.392,15.259c0.899,0.783,0.993,2.146,0.21,3.046
					C82.732,196.599,82.133,196.851,81.53,196.851z"/>
			</g>
			<g>
				<path style="fill:#525D7D;" d="M87.319,192.602c-0.552,0-1.105-0.211-1.526-0.632c-7.706-7.706-12.07-14.007-15.256-18.608
					c-1.832-2.647-3.28-4.737-4.812-6.358c-0.819-0.867-0.78-2.234,0.087-3.053c0.867-0.818,2.234-0.779,3.052,0.087
					c1.756,1.86,3.363,4.179,5.223,6.865c3.265,4.715,7.329,10.583,14.759,18.013c0.843,0.843,0.843,2.21,0,3.053
					C88.424,192.391,87.872,192.602,87.319,192.602z"/>
			</g>
			<g>
				<path style="fill:#525D7D;" d="M163.435,125.475c-2.821,0-4.025-1.259-4.025-4.21c0-2.279,0.623-4.054,1.035-5.229
					c0.008-0.024,0.017-0.049,0.026-0.075c-0.422-0.037-1.027-0.065-1.89-0.065c-0.612,0-1.225,0.02-1.837,0.038
					c-0.656,0.02-1.312,0.039-1.968,0.039c-2,0-4.034-0.129-5.008-1.677c-0.9-1.431-0.212-2.865,0.289-3.912
					c0.921-1.917,2.066-4.304-5.885-8.279c-1.066-0.534-1.498-1.83-0.966-2.897c0.534-1.065,1.832-1.497,2.897-0.966
					c9.84,4.92,9.808,9.509,8.123,13.406c0.658,0.016,1.571-0.006,2.386-0.031c0.657-0.02,1.312-0.039,1.969-0.039
					c3.072,0,4.928,0.27,5.935,1.69c0.987,1.393,0.464,2.883,0.003,4.197c-0.362,1.032-0.771,2.197-0.791,3.687
					c0.138-0.003,0.275-0.007,0.409-0.011c0.258-0.008,0.506-0.016,0.729-0.016c1.193,0,2.159,0.967,2.159,2.159
					c0,1.192-0.966,2.159-2.159,2.159c-0.181,0-0.383,0.007-0.592,0.014C164,125.467,163.714,125.475,163.435,125.475z"/>
			</g>
			<g>
				<path style="fill:#525D7D;" d="M179.128,100.58c-0.197,0-0.396-0.027-0.595-0.083c-4.553-1.3-8.126-5.124-10.621-11.362
					c-0.443-1.106,0.096-2.363,1.203-2.806c1.106-0.443,2.364,0.096,2.806,1.203c1.974,4.932,4.597,7.897,7.799,8.812
					c1.146,0.328,1.81,1.522,1.483,2.669C180.931,99.963,180.067,100.58,179.128,100.58z"/>
			</g>
			<g>
				<path style="fill:#525D7D;" d="M77.383,178.424c-0.614,0-1.224-0.26-1.651-0.766c-0.769-0.911-0.655-2.273,0.256-3.042
					c6.202-5.24,12.242-10.427,18.308-15.633c6.28-5.392,12.773-10.967,19.417-16.572c2.758-2.326,6.088-5.036,9.613-7.905
					c8.531-6.942,18.202-14.813,26.274-22.437c0.867-0.819,2.233-0.779,3.052,0.087c0.819,0.867,0.78,2.233-0.087,3.053
					c-8.188,7.734-17.923,15.656-26.513,22.645c-3.51,2.858-6.826,5.555-9.554,7.858c-6.629,5.593-13.115,11.162-19.388,16.547
					c-6.074,5.216-12.124,10.41-18.334,15.656C78.37,178.257,77.875,178.424,77.383,178.424z"/>
			</g>
			<g>
				<path style="fill:#525D7D;" d="M119.918,172.504c-1.087,0-2.023-0.819-2.144-1.926c-0.129-1.185,0.727-2.25,1.912-2.38
					c5.187-0.565,10.392-0.638,14.346-0.638c1.923,0,3.847,0.02,5.771,0.038c2.515,0.027,5.029,0.051,7.538,0.032
					c0.084-3.379,0.096-6.789,0.109-10.107c0.025-6.407,0.05-13.03,0.579-19.588c0.096-1.188,1.14-2.066,2.326-1.978
					c1.188,0.096,2.074,1.137,1.978,2.326c-0.516,6.39-0.54,12.93-0.565,19.254c-0.015,4.026-0.031,8.188-0.172,12.298
					c-0.039,1.147-0.97,2.063-2.118,2.084c-3.23,0.06-6.474,0.025-9.717-0.006c-1.909-0.02-3.82-0.038-5.728-0.038
					c-3.845,0-8.897,0.07-13.878,0.613C120.076,172.5,119.996,172.504,119.918,172.504z"/>
			</g>
		</g>
	</g>
</g>
<g id="Layer_1">
</g>
</svg>
