<?xml version="1.0" encoding="iso-8859-1"?>
<!-- Generator: Adobe Illustrator 21.0.2, SVG Export Plug-In . SVG Version: 6.00 Build 0)  -->
<svg version="1.1" xmlns="http://www.w3.org/2000/svg" xmlns:xlink="http://www.w3.org/1999/xlink" x="0px" y="0px"
	 viewBox="0 0 218.381 203.671" style="enable-background:new 0 0 218.381 203.671;" xml:space="preserve">
<g id="_x31_07">
	<g>
		<g>
			<path style="fill:#E0DFE6;" d="M144.591,38.311c-24.051,2.155-48.133,3.408-72.269,4.076c-11.58,0.32-23.163,0.487-34.748,0.44
				c-10.137-0.04-23.897-2.46-33.149,2.104c-1.801,0.888-1.571,3.531,0,4.479c8.396,5.067,22.171,3.629,31.702,3.844
				c12.062,0.272,24.132,0.356,36.195,0.188c24.121-0.335,48.244-1.821,72.269-3.945C151.708,48.868,151.768,37.668,144.591,38.311z
				"/>
			<path style="fill:#E0DFE6;" d="M84.385,64.865c-2.156-3.722-7.016-4.661-10.576-2.45c-0.876,0.544-1.766,1.234-2.579,2.015
				c-1.895-1.349-4.473-0.859-5.766,1.161c-1.479,2.312-1.296,5.742-1.276,8.419c0.022,2.985-0.214,6.288,2.087,8.59
				c2.377,2.377,5.84,2.473,8.98,2.219c3.066-0.248,6.165-0.608,8.447-2.902c2.18-2.192,2.519-5.512,2.508-8.443
				C86.198,70.592,85.852,67.396,84.385,64.865z"/>
			<path style="fill:#E0DFE6;" d="M59.695,105.646c-2.319-4.348-8.903-4.14-11.275,0c-0.417,0.728-0.816,1.478-1.184,2.241
				c-1.274-0.5-2.865-0.261-3.47,1.14c-1.696,3.925-2.962,9.532-2.07,13.827c1.246,6,6.617,7.22,11.914,6.148
				c4.512-0.914,9.08-3.539,10.42-8.245C65.598,115.247,62.171,110.288,59.695,105.646z"/>
			<path style="fill:#E0DFE6;" d="M98.265,160.254c-16.391,1.959-32.875,3.431-49.347,4.506
				c-14.219,0.928-31.901-0.617-45.111,5.226c-1.928,0.853-1.78,4,0,4.899c12.81,6.475,31.133,4.852,45.111,4.629
				c16.522-0.264,32.926-1.465,49.347-3.293C108.393,175.095,108.433,159.039,98.265,160.254z"/>
			<path style="fill:#E0DFE6;" d="M165.018,75.52c-1.135-5.571-1.805-11.277-2.783-16.883c-1.585-9.09-2.373-20.848-8.468-28.182
				c-0.857-1.032-2.788-0.727-3.374,0.435c-3.728,7.394-2.517,17.302-2.09,25.324c0.471,8.83,0.188,18.24,2.182,26.889
				c0.837,3.632,4.258,5.537,7.675,5.843c0.28,0.025,0.561,0.05,0.841,0.075c2.097,0.188,4.769-1.348,5.669-3.252
				C166.466,81.974,165.817,79.436,165.018,75.52z"/>
			<path style="fill:#E0DFE6;" d="M192.262,103.36c-7.754-4.383-16.985,6.514-9.823,12.731c8.577,7.445,13.489,15.77,13.167,27.486
				c-0.301,10.937-6.133,20.699-13.914,28.084c-8.501,8.068-19.817,13.874-31.296,16.208c-13.505,2.746-26.617-0.836-38.749-6.86
				c-1.627-0.808-4.28,0.582-3.453,2.655c6.173,15.488,23.399,21.206,39.194,19.803c16.858-1.498,33.256-8.973,45.676-20.434
				c11.51-10.622,19.304-25.636,19.134-41.504C212.044,127.032,205.345,110.755,192.262,103.36z"/>
			<path style="fill:#E0DFE6;" d="M174.208,149.547c-0.234-2.674-2.17-5.281-5.147-5.147c-7.204,0.325-8.702,6.402-13.726,10.354
				c-6.162,4.848-12.239,1.322-17.719-2.495c-1.783-1.242-4.826,0.386-4.574,2.625c1.098,9.759,10.877,15.732,20.263,14.917
				C162.266,169.022,175.077,159.494,174.208,149.547z"/>
			<path style="fill:#E0DFE6;" d="M170.156,166.081c-12.525,6.699-23.457,9.322-37.576,6.503c-2.718-0.543-5.321,2.869-2.918,5.013
				c12.869,11.483,36.036,10.83,47.469-2.477C181.323,170.239,176.117,162.892,170.156,166.081z"/>
			<path style="fill:#E0DFE6;" d="M157.643,142.246c-0.161-1.203-0.657-2.423-1.458-3.376c-1.473-3.625-6.033-5.628-9.696-3.404
				c-3.364,2.043-5.178,6.15-4.008,9.997c0.518,1.703,1.729,3.496,3.345,4.35c0.541,0.286,1.151,0.536,1.787,0.725
				c0.096,0.029,0.186,0.077,0.284,0.099c0.067,0.015,0.131,0.014,0.198,0.028c1.126,0.264,2.305,0.298,3.34-0.118
				c1.379-0.554,2.709-1.018,3.784-2.131c0.246-0.254,0.456-0.543,0.673-0.824c0.788-0.794,1.334-1.73,1.636-2.808
				C157.795,143.938,157.832,143.092,157.643,142.246z"/>
			<path style="fill:#E0DFE6;" d="M207.996,66.996c-4.09,4.853-6.619,9.474-12.446,12.577c-5.685,3.027-9.139,4.76-12.764,10.363
				c-8.217,12.701-19.203,26.562-22.75,41.472c-0.27,1.135,1.092,2.546,2.203,1.693c12.869-9.877,19.27-25.68,29.1-38.166
				c3.671-4.662,10.849-4.164,15.814-7.808c4.742-3.48,9.551-8.507,10.529-14.493C218.509,67.571,212.14,62.079,207.996,66.996z"/>
			<path style="fill:#E0DFE6;" d="M35.171,18.527c-3.27,0.147-5.644,2.072-6.629,4.866c-0.23,0.014-0.462,0.033-0.675,0.05
				c-2.658,0.21-5.446,2.229-5.228,5.228c0.41,5.645,5.98,8.817,11.276,7.606c5.057-1.156,8.031-5.674,8.377-10.629
				C42.552,21.924,38.831,18.363,35.171,18.527z"/>
			<path style="fill:#E0DFE6;" d="M130.798,22.431c-0.213-1.585-0.864-3.223-2.078-4.337c-2.414-2.216-6.252-3.028-9.154-1.181
				c-1.162,0.74-1.844,1.467-2.714,2.414c-0.423,0.461-0.878,0.878-1.36,1.274c-0.034,0.026-0.068,0.051-0.101,0.077
				c-0.048,0.037-0.087,0.079-0.133,0.117c-1.239,0.802-2.323,2.034-2.556,3.488c-0.097,0.603-0.289,1.375-0.238,1.984
				c0.125,1.477,0.468,2.732,1.392,3.928c0.825,1.068,2.012,2.02,3.368,2.323c1.556,0.348,3.021,0.38,4.572,0.01
				c0.541-0.129,1.066-0.319,1.581-0.525c0.954-0.381,1.958-0.754,2.854-1.271c1.511-0.874,2.696-2.025,3.671-3.485
				c0.254-0.602,0.508-1.203,0.762-1.805C130.978,24.439,131.023,23.435,130.798,22.431z"/>
			<path style="fill:#E0DFE6;" d="M151.949,69.103c0.089-8.318,0.538-16.749-0.177-25.048c-0.978-11.345-5.884-23.626-18.34-25.789
				c-2.496-0.433-4.009,2.174-2.405,4.132c2.627,3.206,4.249,6.794,5.245,10.575c-16.054,1.393-31.96,2.819-48.141,3.17
				c-17.308,0.375-34.103,1.962-51.221,4.436c-1.92,0.278-1.428,3.371,0.453,3.344c33.147-0.481,67.328,7.258,100.401,1.933
				c0.036,2.49-0.013,4.977-0.065,7.418c-0.122,5.755-0.16,11.513-0.236,17.268c-0.082,6.134-1.231,13.163,1.127,18.895
				c1.723,4.189,8.805,6.873,11.186,1.462C152.777,84.076,151.87,76.47,151.949,69.103z"/>
			<path style="fill:#E0DFE6;" d="M104.195,83.072c-1.902-1.101-4.07-1.065-6.194-1.157c-3.749-0.163-7.763-0.699-10.672,2.293
				c-1.666,1.713-2.155,3.918-2.336,6.219c-0.142,1.81-0.45,3.707-0.441,5.518c0.019,3.909,2.866,7.122,6.172,7.646
				c2.313,1.112,5.459,1.457,7.624,1.288c3.938-0.307,6.766-2.992,7.982-6.655c0.898-2.705,1.401-6.34,1.362-9.159
				C107.657,86.548,106.362,84.327,104.195,83.072z"/>
		</g>
		<g>
			<g>
				<path style="fill:#525D7D;" d="M149.597,180.592c-10.027,0-19.957-4.259-27.248-11.686c-7.2-7.336-11.058-17.149-10.862-27.633
					c0.361-19.339,16.216-35.657,35.342-36.376c0.585-0.023,1.172-0.028,1.763-0.023c1.99,0.03,3.866,0.058,6.051,0.439
					c21.532,3.747,32.192,20.105,32.985,33.717c0.663,11.398-3.144,22.372-10.445,30.11
					C170.216,176.524,160.421,180.592,149.597,180.592z M148.15,109.189c-0.387,0-0.772,0.007-1.157,0.022
					c-16.879,0.634-30.869,15.053-31.189,32.143c-0.223,11.939,5.112,19.928,9.627,24.527c6.388,6.508,15.423,10.393,24.166,10.393
					c9.761,0,18.214-3.493,24.445-10.098c6.488-6.876,9.869-16.681,9.274-26.897c-0.5-8.594-7.292-25.864-29.415-29.714
					c-1.847-0.322-3.478-0.346-5.365-0.374C148.408,109.19,148.279,109.189,148.15,109.189z"/>
			</g>
			<g>
				<path style="fill:#525D7D;" d="M149.601,197.112c-14.4,0-28.668-6.121-39.146-16.796
					c-10.342-10.537-15.883-24.635-15.601-39.699c0.518-27.768,23.277-51.199,50.734-52.232c0.839-0.032,1.683-0.042,2.532-0.031
					c2.87,0.043,5.58,0.084,8.689,0.625c14.811,2.578,27.179,9.453,35.768,19.883c6.836,8.3,11.083,18.692,11.655,28.51
					c0.954,16.4-4.515,32.182-15.006,43.301C179.225,191.273,165.153,197.112,149.601,197.112z M147.443,92.668
					c-0.565,0-1.129,0.01-1.691,0.032c-25.209,0.947-46.104,22.479-46.581,47.998c-0.259,13.895,4.842,26.89,14.366,36.593
					c9.67,9.852,22.816,15.503,36.064,15.503c14.56,0,27.174-5.216,36.484-15.084c9.678-10.258,14.721-24.87,13.836-40.087
					c-0.747-12.843-10.873-38.649-43.852-44.39c-2.773-0.482-5.2-0.519-8.01-0.561C147.853,92.669,147.648,92.668,147.443,92.668z"
					/>
			</g>
			<g>
				<path style="fill:#525D7D;" d="M149.596,164.086c-5.658,0-11.258-2.399-15.364-6.584c-4.06-4.135-6.236-9.667-6.125-15.573
					c0.204-10.918,9.159-20.13,19.961-20.538c0.335-0.011,0.67-0.015,1.002-0.011c1.109,0.017,2.156,0.031,3.409,0.25
					c12.112,2.109,18.111,11.353,18.559,19.052c0.372,6.401-1.773,12.573-5.886,16.932
					C161.217,161.786,155.692,164.086,149.596,164.086z M148.78,125.696c-0.183,0-0.365,0.003-0.548,0.01
					c-8.555,0.322-15.646,7.637-15.808,16.304c-0.113,6.071,2.597,10.13,4.89,12.467c3.251,3.313,7.843,5.291,12.282,5.291
					c4.965,0,9.258-1.77,12.415-5.117c3.3-3.499,5.02-8.498,4.716-13.719c-0.253-4.346-3.712-13.085-14.99-15.049
					c-0.916-0.16-1.756-0.171-2.729-0.186C148.932,125.696,148.856,125.696,148.78,125.696z"/>
			</g>
			<g>
				<path style="fill:#525D7D;" d="M150.996,144.273c-0.392,0-0.79-0.107-1.146-0.33c-1.01-0.635-1.314-1.968-0.68-2.977
					l47.993-76.377c0.633-1.011,1.968-1.314,2.976-0.68c1.01,0.635,1.314,1.968,0.68,2.977l-47.993,76.377
					C152.416,143.916,151.714,144.273,150.996,144.273z"/>
			</g>
			<g>
				<path style="fill:#525D7D;" d="M185.394,87.824c-0.917,0-1.753-0.586-2.049-1.482c-2.347-7.108-4.115-12.607-5.732-17.828
					c-0.197-0.635-0.089-1.327,0.292-1.872c4.732-6.792,9.636-13.441,13.807-19.049c0.494-0.665,1.326-0.984,2.139-0.832
					c0.813,0.156,1.466,0.763,1.68,1.563c1.256,4.699,2.674,9.676,4.557,14.499c3.943-0.713,7.879-1.67,11.702-2.599
					c1.312-0.319,2.623-0.638,3.936-0.947c0.855-0.202,1.737,0.129,2.247,0.838c0.511,0.708,0.545,1.653,0.087,2.397
					c-1.21,1.964-2.435,3.922-3.66,5.884c-3.273,5.235-6.657,10.649-9.736,16.128c-0.351,0.627-0.992,1.037-1.708,1.095
					c-5.763,0.467-11.547,1.198-17.192,2.174C185.639,87.814,185.515,87.824,185.394,87.824z M182.051,68.247
					c1.387,4.456,2.904,9.177,4.814,14.983c4.811-0.783,9.709-1.394,14.598-1.819c2.971-5.222,6.173-10.343,9.274-15.305
					c0.29-0.464,0.581-0.929,0.871-1.393c-4.076,0.987-8.273,1.976-12.528,2.664c-0.987,0.165-1.954-0.379-2.338-1.301
					c-1.701-4.09-3.042-8.279-4.204-12.349C189.22,58.216,185.596,63.184,182.051,68.247z"/>
			</g>
			<g>
				<path style="fill:#525D7D;" d="M3.947,169.752c-0.557,0-1.094-0.215-1.497-0.603c-0.416-0.401-0.654-0.95-0.662-1.528
					L0.002,33.234c-0.132-9.922,7.834-18.114,17.757-18.259c12.075-0.176,24.332-0.453,36.186-0.721
					c19.812-0.448,40.298-0.912,60.48-0.912c5.66,0,11.235,0.038,16.569,0.113c10.651,0.149,19.403,8.931,19.51,19.579
					c0.04,4.062,0.051,8.125,0.051,12.187l-0.016,14.52c0,6.334,0.024,13.823,0.203,21.35c0.028,1.193-0.915,2.182-2.107,2.211
					c-1.24-0.024-2.181-0.916-2.21-2.107c-0.18-7.574-0.205-15.095-0.205-21.454l0.016-14.52c0-4.048-0.011-8.096-0.051-12.145
					c-0.083-8.321-6.925-15.187-15.252-15.303c-5.314-0.075-10.868-0.113-16.509-0.113c-20.133,0-40.595,0.464-60.383,0.911
					c-11.862,0.269-24.128,0.547-36.22,0.723C10.276,19.402,4.219,25.63,4.32,33.177l1.756,132.201
					c5.384-0.141,10.774-0.292,16.168-0.444c18.646-0.526,37.926-1.07,56.804-1.07c1.193,0,2.159,0.967,2.159,2.159
					s-0.966,2.159-2.159,2.159c-18.818,0-38.067,0.543-56.683,1.068C16.237,169.424,10.114,169.597,3.947,169.752z"/>
			</g>
			<g>
				<path style="fill:#525D7D;" d="M2.296,45.609c-1.177,0-2.139-0.943-2.158-2.124c-0.019-1.192,0.932-2.174,2.124-2.194
					c20.458-0.33,41.262-0.793,61.382-1.24c27.766-0.616,56.478-1.254,84.723-1.556c1.171,0,2.17,0.945,2.182,2.137
					c0.013,1.192-0.944,2.169-2.136,2.182c-28.22,0.302-56.919,0.939-84.673,1.556C43.614,44.816,22.803,45.277,2.296,45.609z"/>
			</g>
			<g>
				<path style="fill:#525D7D;" d="M32.725,30.678c-0.034,0-0.069-0.001-0.103-0.003c-1.191-0.056-2.111-1.067-2.055-2.258
					c0.041-0.874,0.06-1.757,0.06-2.645c0-3.622-0.313-7.432-0.616-11.116c-0.308-3.733-0.625-7.595-0.625-11.324
					c0-1.192,0.966-2.159,2.159-2.159c1.193,0,2.159,0.967,2.159,2.159c0,3.551,0.311,7.323,0.611,10.97
					c0.31,3.771,0.631,7.669,0.631,11.47c0,0.956-0.02,1.906-0.065,2.848C34.826,29.777,33.87,30.678,32.725,30.678z"/>
			</g>
			<g>
				<path style="fill:#525D7D;" d="M118.368,27.393c-1.193,0-2.159-0.967-2.159-2.159c0-1.566-0.016-3.118-0.032-4.658
					c-0.015-1.538-0.031-3.066-0.031-4.591c0-4.13,0.103-9.04,0.869-14.146c0.176-1.178,1.275-1.991,2.455-1.815
					c1.179,0.176,1.993,1.276,1.815,2.456c-0.723,4.826-0.821,9.535-0.821,13.505c0,1.511,0.016,3.025,0.031,4.547
					c0.015,1.556,0.032,3.121,0.032,4.702C120.527,26.426,119.561,27.393,118.368,27.393z"/>
			</g>
			<g>
				<path style="fill:#525D7D;" d="M65.22,153.403c-1.156,0-2.113-0.915-2.156-2.079c-0.396-10.697-0.589-22.32-0.589-35.533
					c0-12.998,0.184-26.205,0.362-38.978c0.064-4.556,0.127-9.111,0.183-13.668c0.015-1.193,0.968-2.16,2.186-2.132
					c1.192,0.014,2.147,0.994,2.132,2.186c-0.056,4.558-0.12,9.117-0.183,13.675c-0.178,12.758-0.362,25.949-0.362,38.918
					c0,13.16,0.192,24.729,0.586,35.373c0.044,1.192-0.886,2.194-2.078,2.238C65.275,153.403,65.247,153.403,65.22,153.403z"/>
			</g>
			<g>
				<path style="fill:#525D7D;" d="M43.848,153.772c-1.174,0-2.136-0.94-2.158-2.118c-0.148-7.852-0.465-15.858-0.772-23.599
					c-0.427-10.788-0.869-21.945-0.869-32.996c0-8.569,0.223-13.185,0.401-16.894c0.117-2.429,0.209-4.349,0.209-6.716
					c0-2.777-0.111-5.68-0.339-8.875c-0.085-1.189,0.81-2.222,2-2.307c1.209-0.105,2.223,0.811,2.307,2
					c0.235,3.296,0.35,6.3,0.35,9.182c0,2.471-0.099,4.535-0.214,6.924c-0.176,3.663-0.396,8.222-0.396,16.686
					c0,10.967,0.44,22.078,0.865,32.824c0.308,7.765,0.626,15.792,0.774,23.689C46.03,152.765,45.082,153.75,43.848,153.772z"/>
			</g>
			<g>
				<path style="fill:#525D7D;" d="M88.255,112.409c-1.112,0-2.056-0.852-2.149-1.979c-0.754-9.045-0.85-17.863-0.85-24.533
					c0-3.78,0.035-7.559,0.071-11.342c0.035-3.773,0.071-7.55,0.071-11.332l-0.003-2.142c-0.005-1.192,0.958-2.163,2.151-2.167
					c1.197,0,2.163,0.961,2.168,2.151l0.003,2.159c0,3.797-0.036,7.586-0.071,11.373c-0.036,3.768-0.071,7.534-0.071,11.301
					c0,6.587,0.095,15.286,0.835,24.173c0.099,1.189-0.784,2.232-1.972,2.332C88.375,112.406,88.315,112.409,88.255,112.409z"/>
			</g>
			<g>
				<path style="fill:#525D7D;" d="M108.744,94.757c-1.259-0.038-2.196-1.033-2.16-2.225c0.064-2.086,0.095-4.251,0.095-6.615
					c0-5.266-0.162-10.606-0.318-15.77c-0.097-3.216-0.195-6.436-0.256-9.669c-0.023-1.192,0.925-2.177,2.118-2.2
					c1.215,0,2.177,0.94,2.199,2.118c0.062,3.216,0.159,6.42,0.255,9.62c0.157,5.197,0.32,10.57,0.32,15.901
					c0,2.409-0.032,4.616-0.096,6.747C110.865,93.833,109.906,94.757,108.744,94.757z"/>
			</g>
			<g>
				<path style="fill:#525D7D;" d="M22.045,154.09c-1.174,0-2.133-0.938-2.158-2.113c-0.143-6.585-0.26-13.178-0.377-19.777
					c-0.407-22.851-0.827-46.483-2.337-69.62c-0.039-0.6,0.174-1.191,0.588-1.626c0.414-0.437,0.998-0.665,1.593-0.673
					c3.433,0.043,6.866,0.065,10.299,0.065c20.331,0,36.483-0.617,52.103-1.213c13.383-0.512,26.023-0.994,39.656-0.994
					c3.049,0,6.098,0.025,9.148,0.079c1.17,0.021,2.111,0.97,2.121,2.141c0.019,2.212,0.046,4.436,0.074,6.66
					c0.051,4.166,0.101,8.334,0.101,12.438c0,1.192-0.966,2.159-2.159,2.159c-1.193,0-2.159-0.967-2.159-2.159
					c0-4.088-0.051-8.237-0.101-12.386c-0.018-1.524-0.037-3.047-0.053-4.567c-2.324-0.031-4.648-0.046-6.971-0.046
					c-13.55,0-26.15,0.481-39.491,0.991c-15.66,0.597-31.854,1.216-52.267,1.216c-2.675,0-5.35-0.013-8.024-0.039
					c1.396,22.493,1.803,45.36,2.198,67.5c0.105,5.881,0.209,11.76,0.332,17.631c7.512-0.065,15.073-0.212,22.407-0.354
					c9.91-0.193,20.159-0.391,30.346-0.391c1.193,0,2.159,0.967,2.159,2.159s-0.966,2.159-2.159,2.159
					c-10.146,0-20.373,0.198-30.263,0.391C38.609,153.875,30.295,154.035,22.045,154.09z"/>
			</g>
			<g>
				<path style="fill:#525D7D;" d="M69.003,84.698c-16.346,0-24.423-0.443-31.55-0.835c-5.305-0.291-9.886-0.542-16.861-0.542
					c-1.193,0-2.159-0.967-2.159-2.159s0.966-2.159,2.159-2.159c7.093,0,11.729,0.254,17.097,0.55
					c7.071,0.388,15.085,0.828,31.313,0.828c14.619,0,29.501-0.437,43.893-0.86c6.228-0.183,12.466-0.365,18.718-0.517
					c1.198,0.034,2.182,0.914,2.21,2.107c0.029,1.192-0.914,2.182-2.106,2.211c-6.245,0.15-12.474,0.333-18.696,0.516
					C98.599,84.26,83.685,84.698,69.003,84.698z"/>
			</g>
			<g>
				<path style="fill:#525D7D;" d="M80.364,106.46c-6.484,0-13.066-0.129-19.432-0.254c-6.345-0.125-12.906-0.254-19.348-0.254
					c-6.761,0-12.694,0.145-18.136,0.441c-1.176,0.038-2.208-0.849-2.273-2.038c-0.065-1.191,0.848-2.21,2.038-2.274
					c5.521-0.301,11.53-0.447,18.371-0.447c6.485,0,13.067,0.129,19.433,0.254c8.792,0.173,17.876,0.351,26.806,0.19
					c1.214,0,2.176,0.942,2.198,2.12c0.021,1.193-0.928,2.176-2.12,2.198C85.389,106.441,82.876,106.46,80.364,106.46z"/>
			</g>
			<g>
				<path style="fill:#525D7D;" d="M69.996,132.488c-7.996,0-16.113-0.172-23.964-0.336c-7.829-0.166-15.924-0.336-23.875-0.336
					c-1.193,0-2.159-0.967-2.159-2.159c0-1.192,0.966-2.159,2.159-2.159c7.996,0,16.114,0.171,23.965,0.336
					c7.828,0.166,15.923,0.336,23.873,0.336c3.44,0,6.582-0.03,9.607-0.093c1.214,0.035,2.179,0.922,2.203,2.114
					c0.025,1.193-0.922,2.179-2.114,2.204C76.637,132.457,73.466,132.488,69.996,132.488z"/>
			</g>
		</g>
	</g>
</g>
<g id="Layer_1">
</g>
</svg>
