<?xml version="1.0" encoding="iso-8859-1"?>
<!-- Generator: Adobe Illustrator 21.0.2, SVG Export Plug-In . SVG Version: 6.00 Build 0)  -->
<svg version="1.1" xmlns="http://www.w3.org/2000/svg" xmlns:xlink="http://www.w3.org/1999/xlink" x="0px" y="0px"
	 viewBox="0 0 256 193.907" style="enable-background:new 0 0 256 193.907;" xml:space="preserve">
<g id="_x31_08">
	<g>
		<g>
			<g>
				<path style="fill:#E0DFE6;" d="M42.306,12.767c-1.842-4.301-5.984-6.418-10.118-4.047c-2.262,1.298-1.98,5.268,0.761,5.823
					c6.147,1.245-0.56,7.919-2.58,10.044c-3,3.157-6.15,6.16-9.445,9.007c-5.112,4.417-13.486,8.558-16.611,14.628
					c-0.303,0.589,0.068,1.317,0.76,1.324c6.305,0.063,12.16-5.082,16.945-8.785c6.124-4.739,12.373-9.981,17.301-15.99
					C42.082,21.401,44.148,17.066,42.306,12.767z"/>
			</g>
			<g>
				<path style="fill:#E0DFE6;" d="M79.407,8.132c-3.586,3.757-7.282,7.386-11.172,10.829c-3.005,2.66-9.343,9.772-13.242,10.712
					c-0.967,1.353-1.837,1.305-2.611-0.144c-1.464-0.699-1.696-1.768-0.696-3.205c0.056-2.406,1.743-5.127,2.849-7.268
					c2.578-4.988,6.396-8.783,10.058-12.952c1.462-1.665-0.362-4.191-2.392-3.099c-6.64,3.57-11.482,10.221-14.539,16.988
					c-2.09,4.625-5.743,12.965-0.665,16.964c5.529,4.354,12.121-1.458,16.413-4.674c7.611-5.701,14.611-12.098,21.174-18.973
					C87.84,9.901,82.669,4.715,79.407,8.132z"/>
			</g>
			<g>
				<path style="fill:#E0DFE6;" d="M26.267,80.023c6.732-8.986,22.779-21.772,13.305-32.268c-4.926-5.457-12.372-1.294-17.305,1.803
					C15.273,53.948,7.553,59.979,4.795,68.029c-0.231,0.676,0.628,1.332,1.222,0.94c4.165-2.748,7.529-6.504,11.407-9.635
					c2.702-2.181,5.55-4.121,8.566-5.835c4.387-2.495,10.233-0.81,8.452,5.066c-1.252,4.13-6.318,7.94-9.134,10.954
					c-2.879,3.082-5.467,6.231-7.343,10.031c-0.659,1.334-0.718,3.346,0.568,4.399c1.703,1.396,2.968,1.472,4.719,2.56
					c2.607-0.104,3.746,1.493,3.419,4.79c-0.985,1.725-1.584,2.829-1.805,3.327c-2.43,1.811-1.125,6.718,2.213,6.328
					c5.031-0.587,7.439-7.354,7.313-11.859c-0.067-2.39-0.814-4.911-2.502-6.689C30.289,80.721,28.197,80.548,26.267,80.023z"/>
			</g>
			<g>
				<path style="fill:#E0DFE6;" d="M57.176,64.594c-6.522,3.458-15.336,11.058-13.902,19.609c0.536,3.198,1.852,3.395,4.307,4.974
					c3.706,2.383,1.513,2.962-1.19,5.859c-2.363,2.532-4.305,4.37-5.878,7.439c-1.2,2.34,1.259,5.063,3.676,3.676
					c5.222-2.998,16.782-12.569,12.121-19.993c-1.683-2.682-6.074-1.712-7.123-3.261c-2.451-3.618,6.877-14.554,8.738-17.555
					C58.224,64.858,57.641,64.347,57.176,64.594z"/>
			</g>
			<g>
				<path style="fill:#E0DFE6;" d="M102.022,38.363c-1.817,1.075-2.336,2-3.68,3.669c-0.994,1.234-1.187,1.601-2.392,1.406
					c-0.756-0.122-2.47-1.399-3.352-1.611c-1.35-0.325-2.792-0.304-4.158-0.147c-6.227,0.715-10.324,5.642-12.624,11.095
					c-0.645,1.528,1.481,2.216,2.464,1.434c2.973-2.365,6.381-6.868,10.553-6.663c3.303,0.163,4.441,3.528,7.827,3.437
					c4.65-0.125,9.4-5.832,9.584-10.198C106.334,38.642,103.797,37.313,102.022,38.363z"/>
			</g>
			<g>
				<path style="fill:#E0DFE6;" d="M20.588,45.444l0.16,0.743c0.088,0.408,0.737,0.408,0.825,0l0.16-0.743
					C21.941,44.486,20.38,44.48,20.588,45.444z"/>
			</g>
			<g>
				<path style="fill:#E0DFE6;" d="M101.278,33.763c-1.136,0.251-2.202,0.579-3.241,0.968c-4.491-3.006-9.603-4.765-14.569-0.995
					c-0.44,0.334-5.354,5.275-5.517,2.138c-0.076-1.456,3.925-4.808,4.9-5.886c3.178-3.513,6.528-6.904,8.648-11.187
					c0.337-0.68,0.055-1.338-0.464-1.634c0.393-1.944-1.646-4.166-3.761-3.793c-0.519-0.513-1.33-0.698-2.188-0.32
					c-6.101,2.687-10.563,8.665-16.011,12.453c-5.982,4.159-12.932,8.424-20.402,8.452c-0.916-2.675,0.029-7.052,0.812-9.445
					c1.89-5.774,6.308-10.313,10.569-14.435c3.428-3.316-0.169-8.454-4.413-7.581c-4.813,0.99-9.467,2.262-14.112,3.855
					c-2.287,0.785-3.771,3.033-3.112,5.481c0.76,2.822,1.393,5.506,1.478,8.06c-1.354-0.05-2.66,0.58-3.359,2.211
					C30.225,34.594,19.494,43.459,5.897,46.896c-1.868,0.472-3.225,2.339-3.228,4.239c-0.004,3.105-0.012,6.211,0,9.316
					c0.021,5.012,7.45,6.104,8.778,1.188c1.756-6.499,9.089-9.996,14.231-13.635c0.346-0.245,0.7-0.484,1.048-0.728
					c1.177,1.35,2.901,2.241,4.778,2.284c2.163,0.049,4.166-0.77,5.749-2.109c0.736,1.041,1.207,2.37,1.363,3.556
					c0.616,4.701-1.141,7.778-3.992,11.177c-3.481,4.15-7.13,8.172-10.691,12.253c-2.006,2.299-1.642,7.014,2.006,7.598
					c8.565,1.37-0.33,14.54,5.895,19.695c1.076,0.891,2.269,1.476,3.508,1.795c0.945,1.653,2.431,3.104,4.207,3.415
					c1.731,0.302,3.479-0.201,4.412-1.795c0.625-1.069,0.659-2.392,0.19-3.511c0.556-0.404,1.081-0.854,1.562-1.353
					c2.987-3.1,5.4-8.308,2.692-12.278c-2.5-3.665-5.314-5.406-2.903-10.262c1.72-3.465,3.982-6.772,6.374-9.879
					c0.477-0.054,0.944-0.18,1.36-0.42c0.372-0.214,0.743-0.429,1.115-0.643c1.642-0.947,2.764-3.281,2.098-5.155
					c-1.437-4.044-4.586-6.527-8.891-5.554c0.081-0.849,0.095-1.705,0.063-2.566c1.87,0.585,3.982,0.028,5.877-0.59
					c4.153-1.355,9.584-3.107,13.21-5.661c1.087-0.765,1.843-1.859,2.514-3.007c0.058,0.028,0.116,0.058,0.173,0.086
					c1.256,1.955,2.92,3.69,5.105,5.278c1.558,1.133,3.695,0.462,5.005-0.646c1.874-1.584,3.237-3.215,4.612-5.228
					c0.199-0.291,0.331-0.598,0.43-0.91c0.479,0.486,1.06,0.87,1.642,1.088c6.542,2.449,13.765,0.956,18.615-4.109
					C107.374,37.14,104.783,32.99,101.278,33.763z"/>
			</g>
			<g>
				<path style="fill:#E0DFE6;" d="M126.037,154.321c-9.144-7.388-17.91-15.016-25.771-23.788
					c-6.837-7.63-12.874-18.553-21.599-24.026c-0.436-0.273-1.055,0.08-1.037,0.595c0.368,10.615,9.023,20.97,15.452,28.846
					c7.923,9.706,17.008,18.526,27.136,25.915C124.581,165.049,130.281,157.751,126.037,154.321z"/>
			</g>
			<g>
				<path style="fill:#E0DFE6;" d="M141.094,70.068c-5.359,4.141-12.082,17.942-3.485,22.241c1.202,0.601,3.073,0.18,3.353-1.364
					c0.032-0.179,0.058-0.356,0.087-0.534c7.507,4.435,16.654-1.892,16.943-10.356C158.307,70.812,149.071,63.904,141.094,70.068z
					 M146.566,82.127c-1.792,0.391,1.103-2.8,1.415-3.838c0.05-0.166,0.077-0.333,0.101-0.499
					C148.976,79.137,148.089,81.795,146.566,82.127z"/>
			</g>
			<g>
				<path style="fill:#E0DFE6;" d="M216.548,44.291l-0.104-0.66c-0.419-2.663-2.822-3.669-5.086-3.341
					c-1.991-1.527-3.827-3.479-5.615-5.042c-2.443-2.135-5.502-1.454-7.11,0.478c-2.569-1.645-6.319-0.333-7.288,2.325
					c-2.33-1.521-4.89-0.437-6.186,1.495c-0.857-0.655-1.75-1.141-2.683-1.34c-1.282-0.274-2.391,0.205-3.119,1.269
					c-0.061,0.089-0.121,0.177-0.182,0.266c-0.507,0.742-0.453,1.871,0,2.618c0.05,0.082,0.1,0.165,0.15,0.248
					c0.147,0.242,0.315,0.444,0.498,0.609c3.261,6.772,7.78,12.979,11.882,19.247c3.011,4.602,5.873,10.359,11.737,11.517
					c3.988,0.788,7.217-3.108,5.248-6.827c-0.504-0.953-1.029-1.895-1.542-2.843c2.484-0.556,4.301-3.434,3.602-5.982
					c-0.128-0.469-0.308-0.907-0.464-1.36c2.647-0.709,4.345-3.601,3.048-6.675c0.466-0.22,0.925-0.512,1.382-0.87
					c0.199-0.156,0.398-0.312,0.597-0.468C216.72,47.854,216.795,45.866,216.548,44.291z"/>
			</g>
			<g>
				<path style="fill:#E0DFE6;" d="M103.526,146.085c-1.014-5.108-7.535-8.824-11.232-12.183c-3.445-3.13-7.589-7.51-12.258-8.636
					c-1.816-0.438-3.191,0.83-3.371,2.568c-0.559,5.408,3.481,11.043,6.629,15.068c3.496,4.47,8.254,10.832,14.334,10.925
					C101.839,153.892,104.28,149.885,103.526,146.085z"/>
			</g>
			<g>
				<path style="fill:#E0DFE6;" d="M149.806,151.219c-1.562-3.708-5.85-5.02-9.355-3.154c-3.083,1.642-4.837,4.424-7.266,6.785
					c-2.625,2.55-6.245,4.307-4.286,8.737c0.189,0.427,0.43,0.789,0.696,1.117c-0.594,1.019-0.938,2.162-0.877,3.269
					c0.219,3.958,1.15,9.1,4.91,11.298c3.737,2.186,8.36,0.057,11.013-2.85c4.043-4.431,4.445-11.462,3.053-17.474
					C149.997,157.181,151.036,154.139,149.806,151.219z"/>
			</g>
			<g>
				<path style="fill:#E0DFE6;" d="M208.464,49.983c-0.476-0.985-1.697-1.047-2.562-0.672c-4.022,1.747-6.153,5.877-8.567,9.379
					c-3.175,4.607-6.281,9.259-9.413,13.895c-6.169,9.132-13.064,17.653-20.666,25.637c-16.527,17.357-36.069,30.443-54.345,45.7
					c-7.124,5.947,2.188,17.978,9.933,12.874c21.06-13.879,41.487-31.395,58.279-50.194c7.827-8.762,15.357-18.367,20.903-28.761
					C205.902,70.576,212.399,58.13,208.464,49.983z"/>
			</g>
			<g>
				<path style="fill:#E0DFE6;" d="M168.786,85.823c-0.454-2.872-4.602-4.435-6.907-2.81c-6.057,4.27-7.696,12.312-16.317,13.261
					c-7.443,0.819-11.543-4.767-17.48-7.762c-0.513-0.259-1.181-0.148-1.48,0.388c-5.602,10.049,9.651,18.591,17.763,18.697
					C155.222,107.738,170.715,98.035,168.786,85.823z"/>
			</g>
			<g>
				<path style="fill:#E0DFE6;" d="M253.79,10.003c-6.644-0.137-12.606,5.557-17.488,9.501c-5.609,4.531-13.784,9.556-17.034,16.102
					c-1.288,2.594-0.758,5.085,0.714,6.754c-6.618,9.217-11.072,20.025-16.017,30.189c-6.123,12.586-12.737,25.347-22.249,35.756
					c-8.869,9.706-20.442,16.418-27.369,27.894c-6.801,11.267-9.015,24.346-10.834,37.176c-1.151,1.062-2.226,2.233-3.56,3.373
					c-0.725,0.62-3.89,3.32-6.073,4.7c-2.19-5.982-2.617-12.898-6.164-18.184c-0.995-1.483-2.681-2.788-4.59-2.633
					c-7.875,0.638-9.773-4.018-15.621-7.424c-3.788-2.206-7.582-2.039-11.133,0.545c-3.853,2.804-1.725,10.508,3.559,8.443
					c3.07-1.2,9.62,6.373,12.486,7.717c2.549,1.195,4.856,1.48,7.338,1.473c2.64,8.143,2.018,23.518,12.765,22.472
					c5.304-0.516,12.766-4.923,17.517-10.121c3.65,0.916,7.558-0.524,8.272-5.345c1.876-12.66,3.606-26.791,11.361-37.423
					c7.807-10.704,19.82-17.653,27.94-28.303c8.05-10.559,13.718-22.659,18.677-34.92c4.391-10.856,9.135-22.244,10.935-33.927
					c0.062-0.027,0.124-0.041,0.186-0.07c6.35-2.938,11.443-10.32,16.415-15.173c4.407-4.302,11.025-9.334,12.133-15.727
					C256.207,11.406,255.359,10.036,253.79,10.003z"/>
			</g>
			<g>
				<path style="fill:#E0DFE6;" d="M85.127,153.256c-6.198,1.478-12.006,5.05-17.964,7.345c-5.389,2.076-11.75,3.417-16.428,6.854
					c-1.976,1.452-1.749,4.341,0.676,5.171c5.812,1.99,12.968,0.573,18.878-0.685c6.485-1.38,14.315-3.291,19.615-7.354
					C95.233,160.504,92.434,151.514,85.127,153.256z"/>
			</g>
			<g>
				<path style="fill:#E0DFE6;" d="M82.006,140.328c-1.62-2.063-4.113-2.756-6.026-4.488c-1.705-1.543-1.635-3.678-2.861-5.57
					c-1.21-1.868-2.962-2.821-5.088-3.014c0.111-0.463,0.199-0.929,0.256-1.401c0.309-1.047,0.075-1.935-0.213-2.934
					c-0.393-1.368-2.056-1.399-2.814-0.368c-1.86,2.532-4.504,4.001-4.654,7.45c-0.067,1.547,0.384,3.053,1.419,4.229
					c0.373,0.424,1.055,0.975,1.545,1.234c0.15,0.079,0.759,0.298,1.293,0.442c0.058,0.233,0.129,0.511,0.162,0.807
					c0.089,0.807,0.201,1.601,0.421,2.381c0.517,1.829,1.494,3.526,2.712,4.976c2.522,3.004,6.113,5.192,10.023,5.49
					C83.394,149.96,84.591,143.62,82.006,140.328z"/>
			</g>
		</g>
		<g>
			<g>
				<path style="fill:#525D7D;" d="M118.765,167.885c-0.566,0-1.129-0.222-1.549-0.654c-23.171-23.837-42.96-52.932-60.499-88.949
					c-0.504-1.035-0.108-2.283,0.902-2.837c56.373-30.969,95.157-39.223,166.171-47.01c0.746-0.084,1.489,0.235,1.949,0.832
					c0.46,0.6,0.572,1.396,0.298,2.099c-2.948,7.558-5.66,14.167-8.293,20.207c-24.975,57.294-76.635,100.125-97.685,115.881
					C119.673,167.743,119.218,167.885,118.765,167.885z M61.505,78.242c16.772,34.06,35.603,61.776,57.487,84.609
					c21.647-16.407,70.811-57.985,94.794-113.003c2.217-5.086,4.493-10.584,6.923-16.727
					C153.298,40.648,115.319,48.952,61.505,78.242z"/>
			</g>
			<g>
				<path style="fill:#525D7D;" d="M223.588,32.789c-0.668,0-1.326-0.308-1.748-0.89c-0.701-0.964-0.489-2.314,0.476-3.015
					L252.53,6.911c0.96-0.701,2.312-0.492,3.015,0.477c0.701,0.964,0.488,2.314-0.477,3.015l-30.212,21.973
					C224.473,32.656,224.028,32.789,223.588,32.789z"/>
			</g>
			<g>
				<path style="fill:#525D7D;" d="M217.276,49.364c-0.672,0-1.333-0.312-1.756-0.9c-3.559-4.952-6.767-9.994-9.536-14.987
					c-0.578-1.043-0.202-2.357,0.841-2.935c1.043-0.58,2.357-0.202,2.935,0.841c2.688,4.845,5.806,9.745,9.267,14.562
					c0.696,0.968,0.474,2.316-0.493,3.012C218.153,49.232,217.712,49.364,217.276,49.364z"/>
			</g>
			<g>
				<path style="fill:#525D7D;" d="M203.266,76.985c-0.625,0-1.245-0.27-1.671-0.791c-10.968-13.387-19.512-26-26.121-38.559
					c-0.555-1.054-0.15-2.36,0.905-2.915c1.058-0.554,2.361-0.15,2.917,0.905c6.471,12.298,14.857,24.673,25.639,37.834
					c0.756,0.922,0.621,2.283-0.302,3.038C204.231,76.825,203.747,76.985,203.266,76.985z"/>
			</g>
			<g>
				<path style="fill:#525D7D;" d="M146.917,100.78c-5.459-0.004-10.219-1.951-13.779-5.634c-3.781-3.909-5.755-9.333-5.56-15.272
					c0.237-7.18,4.013-13.465,10.099-16.811c1.274-0.7,2.715-1.151,4.402-1.378c6.276-0.849,12.862,1.192,17.614,5.451
					c4.396,3.943,6.739,9.201,6.598,14.807C166.038,91.98,156.985,100.78,146.917,100.78z M139.758,66.846
					c-4.737,2.606-7.677,7.528-7.864,13.171c-0.156,4.759,1.388,9.066,4.348,12.128c2.728,2.821,6.416,4.314,10.665,4.317
					c7.699,0,14.874-6.969,15.068-14.628c0.109-4.32-1.725-8.399-5.164-11.483c-3.823-3.427-9.114-5.066-14.155-4.387
					C141.505,66.118,140.558,66.408,139.758,66.846z"/>
			</g>
			<g>
				<path style="fill:#525D7D;" d="M94.005,157.608c-0.614,0-1.223-0.261-1.649-0.763c-11.45-13.514-22.225-29.597-33.908-50.615
					c-0.465-0.836-0.324-1.879,0.347-2.561c2.968-3.022,5.649-5.743,8.401-8.455c0.85-0.836,2.215-0.828,3.054,0.022
					c0.836,0.849,0.826,2.217-0.023,3.053c-2.376,2.342-4.706,4.698-7.219,7.252c10.799,19.291,20.821,34.309,31.354,46.979
					c2.753-1.937,5.656-3.683,8.424-5.298c1.029-0.6,2.352-0.253,2.953,0.777c0.601,1.03,0.254,2.352-0.777,2.953
					c-3.218,1.877-6.614,3.93-9.662,6.223C94.914,157.466,94.457,157.608,94.005,157.608z"/>
			</g>
			<g>
				<path style="fill:#525D7D;" d="M132.229,186.966c-0.247,0-0.496-0.042-0.736-0.129c-0.697-0.252-1.215-0.845-1.373-1.569
					c-1.386-6.334-2.54-13.352-3.558-19.542c-0.37-2.248-0.728-4.426-1.083-6.491c-0.202-1.175,0.587-2.291,1.763-2.494
					c1.171-0.201,2.29,0.588,2.494,1.763c0.356,2.073,0.716,4.263,1.087,6.521c0.871,5.295,1.765,10.738,2.813,15.964
					c4.029-3.108,8.152-6.245,12.301-9.36c-0.511-8.927-0.683-17.96-0.849-26.707l-0.055-2.868
					c-0.023-1.192,0.924-2.177,2.116-2.201c1.172-0.065,2.177,0.925,2.201,2.117l0.055,2.87c0.173,9.083,0.352,18.474,0.91,27.688
					c0.044,0.725-0.279,1.422-0.86,1.858c-5.386,4.037-10.737,8.117-15.903,12.126C133.169,186.812,132.701,186.966,132.229,186.966
					z"/>
			</g>
			<g>
				<path style="fill:#525D7D;" d="M68.109,74.439c-0.548,0-1.097-0.208-1.517-0.623c-5.812-5.744-12.07-11.772-19.039-16.8
					c-0.642-0.464-0.98-1.243-0.877-2.03c0.102-0.786,0.626-1.452,1.366-1.737l4.776-1.829c4.818-1.843,9.799-3.747,14.624-5.7
					c0.687-0.277,1.467-0.184,2.07,0.247c6.727,4.83,13.935,8.798,22.689,13.269c1.062,0.543,1.484,1.843,0.941,2.906
					c-0.543,1.061-1.846,1.48-2.905,0.94c-8.513-4.349-15.61-8.241-22.272-12.918c-4.516,1.813-9.131,3.577-13.605,5.288
					l-1.127,0.432c5.949,4.656,11.34,9.865,16.394,14.859c0.848,0.839,0.857,2.205,0.018,3.054
					C69.222,74.226,68.666,74.439,68.109,74.439z"/>
			</g>
			<g>
				<path style="fill:#525D7D;" d="M26.614,173.253c-1.188,0-2.354-0.016-3.515-0.032l-1.564-0.02
					c-0.645-0.007-1.253-0.302-1.657-0.804c-0.405-0.503-0.564-1.16-0.434-1.792c3.999-19.37,21.078-43.129,31.87-52.832
					c0.887-0.797,2.252-0.724,3.049,0.162c0.798,0.887,0.725,2.252-0.162,3.049c-9.623,8.653-25.237,30.157-29.925,47.935
					c11.324,0.138,22.656-0.209,53.2-15.722c1.063-0.54,2.363-0.115,2.903,0.947c0.54,1.064,0.116,2.363-0.947,2.904
					C50.153,171.916,37.418,173.253,26.614,173.253z"/>
			</g>
			<g>
				<path style="fill:#525D7D;" d="M48.354,152.118c-0.765,0-1.387-0.11-1.813-0.359c-0.81-0.474-1.274-1.307-1.239-2.231
					c0.225-6.037,4.3-10.279,7.895-14.023c0.635-0.661,1.262-1.313,1.855-1.964c0.803-0.88,2.169-0.946,3.05-0.141
					c0.881,0.804,0.944,2.169,0.141,3.05c-0.618,0.679-1.271,1.358-1.932,2.045c-2.704,2.817-5.487,5.712-6.394,9.183
					c3.499-0.718,10.822-3.268,13.784-5.088c1.018-0.623,2.347-0.305,2.97,0.71c0.624,1.016,0.306,2.346-0.71,2.97
					C63.43,147.826,53.128,152.118,48.354,152.118z"/>
			</g>
			<g>
				<path style="fill:#525D7D;" d="M46.887,111.177c-0.108,0-0.216-0.007-0.325-0.024c-22.674-3.427-46.29-24.659-46.559-54.259
					C-0.229,31.528,16.559,9.07,40.828,2.281C46.606,0.665,52.48-0.096,58.259,0.01c24.727,0.478,45.675,16.605,52.127,40.132
					c0.315,1.15-0.361,2.338-1.511,2.652c-1.149,0.323-2.338-0.361-2.654-1.511C100.28,19.618,80.972,4.768,58.176,4.328
					c-5.379-0.119-10.812,0.607-16.184,2.111C19.598,12.704,4.107,33.436,4.32,56.855c0.249,27.296,22.001,46.872,42.887,50.028
					c1.179,0.178,1.99,1.279,1.813,2.457C48.858,110.41,47.937,111.177,46.887,111.177z"/>
			</g>
		</g>
		<g>
			<path style="fill:#525D7D;" d="M3.232,51.476c-0.552,0-1.105-0.211-1.526-0.633c-0.843-0.843-0.843-2.21,0-3.053
				c3.545-3.545,8.239-7.387,12.779-11.1c7.753-6.344,17.401-14.239,17.401-18.245c0-0.841-0.325-1.154-1.267-1.938
				c-1.03-0.857-2.585-2.152-2.585-4.646c0-1.192,0.966-2.159,2.159-2.159s2.159,0.967,2.159,2.159c0,0.409,0.135,0.582,1.03,1.327
				c1.123,0.936,2.821,2.35,2.821,5.257c0,6.053-8.798,13.251-18.985,21.586c-4.458,3.648-9.067,7.419-12.46,10.812
				C4.337,51.265,3.784,51.476,3.232,51.476z"/>
		</g>
		<g>
			<path style="fill:#525D7D;" d="M54.473,30.776c-1.679,0-2.886-0.402-3.688-1.227c-0.999-1.026-0.963-2.286-0.948-2.824
				c0.003-7.366,4.751-12.43,8.941-16.899c1.812-1.931,3.523-3.757,4.867-5.698c0.679-0.981,2.022-1.227,3.005-0.547
				c0.98,0.679,1.225,2.024,0.546,3.004c-1.526,2.204-3.428,4.234-5.268,6.195c-3.96,4.224-7.701,8.216-7.769,13.67
				c0.091,0.006,0.195,0.008,0.315,0.008c1.576-0.125,6.734-4.972,10.147-8.178c4.118-3.867,8.376-7.867,11.628-9.494
				c1.067-0.53,2.364-0.1,2.897,0.966c0.533,1.067,0.101,2.363-0.966,2.897c-2.687,1.344-6.711,5.123-10.603,8.78
				C61.407,27.224,57.472,30.776,54.473,30.776z M54.151,27.062h0.015H54.151z"/>
		</g>
		<g>
			<path style="fill:#525D7D;" d="M25.211,101.333c-0.257,0-0.519-0.046-0.775-0.143c-1.113-0.429-1.668-1.678-1.24-2.79
				c1.214-3.156,3.232-5.704,5.185-8.17c2.471-3.119,4.622-5.836,4.839-9.252c-1.579-0.017-3.141,0.484-4.796,1.015
				c-1.707,0.547-3.473,1.113-5.357,1.113c-0.342,0.087-0.749,0.169-1.213,0.169c-1.228,0-3.287-0.579-3.287-4.456
				c0-4.952,4.022-8.78,7.913-12.482c3.071-2.924,6.248-5.946,6.248-8.695c0-0.131-0.02-0.18-0.02-0.18
				c-0.038-0.048-0.479-0.516-3.224-0.516c-7.946,0-14.888,6.518-21.014,12.268l-1.625,1.521c-0.874,0.81-2.24,0.76-3.051-0.114
				c-0.812-0.873-0.761-2.239,0.113-3.052l1.607-1.504c6.377-5.987,14.314-13.438,23.97-13.438c5.018,0,7.562,1.687,7.562,5.014
				c0,4.601-3.859,8.272-7.59,11.824c-3.222,3.066-6.555,6.237-6.571,9.329c0.065-0.004,0.126-0.007,0.182-0.007
				c1.208,0,2.584-0.441,4.039-0.908c1.809-0.579,3.861-1.237,6.147-1.237c2.132,0,4.303,1.902,4.303,3.767
				c0,5.19-2.943,8.906-5.79,12.5c-1.832,2.314-3.562,4.498-4.54,7.038C26.897,100.808,26.079,101.333,25.211,101.333z"/>
		</g>
		<g>
			<path style="fill:#525D7D;" d="M42.901,108.303c-0.37,0-0.744-0.094-1.086-0.294c-1.03-0.602-1.377-1.923-0.777-2.953
				c1.04-1.782,2.381-3.53,3.678-5.221c2.636-3.434,5.36-6.985,5.36-10.612c0-2.768-0.954-3.688-2.16-4.854
				c-1.116-1.078-2.505-2.419-2.505-4.915c0-4.341,2.963-7.155,5.578-9.638c1.495-1.42,2.907-2.761,3.754-4.286
				c0.579-1.042,1.892-1.418,2.936-0.839c1.042,0.579,1.417,1.893,0.839,2.936c-1.169,2.103-2.891,3.739-4.556,5.32
				c-2.271,2.158-4.233,4.02-4.233,6.507c0,0.603,0.225,0.881,1.186,1.809c1.385,1.338,3.479,3.359,3.479,7.96
				c0,5.094-3.322,9.422-6.253,13.243c-1.271,1.656-2.472,3.22-3.374,4.766C44.366,107.919,43.644,108.303,42.901,108.303z"/>
		</g>
		<g>
			<path style="fill:#525D7D;" d="M92.16,54.744c-3.744,0-4.648-2.765-5.135-4.251c-0.472-1.445-0.521-1.595-1.669-1.595
				c-0.989,0-5.828,1.157-9.298,4.626c-0.843,0.843-2.21,0.843-3.053,0c-0.843-0.843-0.843-2.21,0-3.053
				c4.163-4.164,10.098-5.891,12.351-5.891c4.278,0,5.251,2.973,5.773,4.571c0.417,1.275,0.417,1.275,1.03,1.275
				c3.252,0,6.223-3.576,8.448-6.691c0.694-0.968,2.04-1.195,3.012-0.502c0.97,0.693,1.195,2.042,0.502,3.012
				C101.295,50.202,97.381,54.744,92.16,54.744z"/>
		</g>
		<g>
			<path style="fill:#525D7D;" d="M80.562,40.119c-0.562,0-1.105-0.128-1.634-0.422c-1.895-1.053-1.895-3.417-1.895-4.194
				c0-2.877,2.737-5.826,6.202-9.561c2.078-2.239,4.433-4.778,6.121-7.308c0.66-0.992,2-1.262,2.994-0.599
				c0.992,0.662,1.26,2.002,0.599,2.994c-1.879,2.818-4.36,5.492-6.548,7.85c-2.125,2.29-5.033,5.423-5.049,6.614
				c0.735-0.367,1.738-0.99,2.48-1.452c2.548-1.586,5.435-3.383,8.333-3.383c3.302,0,4.705,1.853,5.544,2.959
				c0.579,0.763,0.627,0.763,0.826,0.763c0.624,0,2.147-1.735,2.797-2.477c0.411-0.468,0.801-0.908,1.16-1.268
				c0.843-0.843,2.21-0.843,3.053,0c0.843,0.843,0.843,2.21,0,3.053c-0.301,0.301-0.624,0.672-0.968,1.064
				c-1.543,1.758-3.464,3.946-6.042,3.946c-2.393,0-3.566-1.549-4.267-2.474c-0.669-0.883-0.947-1.248-2.103-1.248
				c-1.664,0-4.097,1.514-6.051,2.731C84.072,38.978,82.239,40.119,80.562,40.119z M81.433,36.33h0.014H81.433z"/>
		</g>
	</g>
</g>
<g id="Layer_1">
</g>
</svg>
