<?xml version="1.0" encoding="iso-8859-1"?>
<!-- Generator: Adobe Illustrator 21.0.2, SVG Export Plug-In . SVG Version: 6.00 Build 0)  -->
<svg version="1.1" xmlns="http://www.w3.org/2000/svg" xmlns:xlink="http://www.w3.org/1999/xlink" x="0px" y="0px"
	 viewBox="0 0 239.913 191.858" style="enable-background:new 0 0 239.913 191.858;" xml:space="preserve">
<g id="_x31_09">
	<g>
		<g>
			<path style="fill:#E0DFE6;" d="M78.729,26.225c-1.257-0.82-3.225,0.241-3.107,1.783c0.036,0.478,0.089,0.953,0.14,1.429
				c-1.913-2.099-4.384-3.459-7.51-3.544c-0.535-0.015-0.884,0.44-0.929,0.929c-0.503,5.5,2.486,10.684,2.792,16.141
				c0.396,7.056-2.732,12.91-6.576,18.573c-6.869,10.119-13.916,21.309-8.022,33.623c1.567,3.274,4.942,3.589,7.568,2.243
				c2.65,4.853,12.104,2.62,11.393-3.507c0.349-6.564,4.189-11.956,7.088-17.668c3.126-6.159,5.701-12.715,6.748-19.568
				C89.923,46.137,88.323,32.478,78.729,26.225z"/>
			<path style="fill:#E0DFE6;" d="M59.452,161.863c-2.222-0.98-4.834-1.498-7.535-1.67c1.296-1.772,1.667-4.275,0.525-6.49
				c-1.223-2.373-3.978-3.61-6.134-5.046c-1.801-1.2-3.472-2.491-5.758-2.47c-1.432,0.013-2.335,0.934-2.843,2.165
				c-1.035,2.508,0.273,5.248,1.456,7.451c0.981,1.827,2.245,3.704,3.891,5.018c-1.069,0.216-2.112,0.46-3.078,0.762
				c-2.599,0.811-2.908,4.116-0.73,5.584c4.934,3.326,13.127,5.729,18.964,4.2C62.204,170.32,63.676,163.727,59.452,161.863z"/>
			<path style="fill:#E0DFE6;" d="M160.189,180.64c-13.992-6.66-28.435-12.905-44.035-14.339
				c-7.156-0.658-14.674-0.129-21.523,2.124c-7.227,2.377-12.945,6.685-19.34,10.628c-1.07,0.66-0.391,2.458,0.875,2.076
				c12.209-3.69,27.126-5.947,39.821-3.953c13.431,2.109,25.83,8.343,38.017,14.045C161.092,194.535,167.326,184.038,160.189,180.64
				z"/>
			<path style="fill:#E0DFE6;" d="M164.285,81.079c-2.233-19.625-11.68-42.571-27.814-54.688c-0.845-0.635-1.877,0.41-1.668,1.283
				c2.296,9.621,7.664,17.69,11.405,26.8c4.071,9.915,6.563,19.971,6.805,30.722c0.123,5.442,0.013,10.895-0.296,16.345
				c-0.903-1.944-1.646-3.943-2.019-5.793c-0.824-4.082-1.377-10.567-0.568-14.643c0.48-2.418-2.256-4.136-4.142-2.411
				c-5.685,5.202-8.627,11.597-7.737,19.573c0.697,6.252,4.031,16.114,10.388,18.418c0.918,0.333,1.821,0.387,2.676,0.249
				c-1.018,8.218-2.474,16.383-4.242,24.452c-1.924-1.484-4.329-2.588-6.94-3.688c-1.651-0.696-4.1-1.175-6.026-2.038
				c-1.654-3.28-3.759-6.279-5.051-9.804c-0.975-2.519-3.026-3.804-5.177-4.097c-0.453-1.677-1.095-3.315-2.017-4.895
				c-0.673-1.153-2.421-1.169-3.091,0c-2.712,4.738-2.813,10.089-2.813,15.435c0,4.449-1.076,10.947,0.839,15.086
				c1.848,3.994,7.215,5.198,11.043,6.322c5.364,1.575,11.014,2.364,16.583,1.866c1.398,5.948,11.299,7.58,13.148,0.319
				C163.702,131.82,167.108,105.889,164.285,81.079z"/>
			<path style="fill:#E0DFE6;" d="M143.417,52.276c-0.816-5.395-3.453-10.625-5.834-15.508c-0.855-1.754-2.423-2.483-4.051-2.492
				c-2.905-8.982-7.409-17.448-13.568-24.105c-1.969-2.129-5.152,0.134-4.602,2.679c3.317,15.343,10.579,28.54,10.539,44.684
				c-0.014,5.659,7.968,7.976,10.778,2.919c0.283-0.51,0.542-1.022,0.787-1.535C140.692,59.316,144.09,56.721,143.417,52.276z"/>
			<path style="fill:#E0DFE6;" d="M153.476,90.546c-1.8-1.984-4.693-1.127-6.054,0.78c-0.077,0.108-0.137,0.221-0.208,0.331
				c0.394-2.312,0.48-4.811,0.402-7.31c1.298,0.814,3.397,0.433,4.403-0.663c0.508-0.553,0.846-1.167,1.072-1.814
				c0.796-0.425,1.416-1.14,1.597-2.142c1.01-5.609-4.288-9.614-8.755-11.834c-0.455-0.226-0.928-0.292-1.381-0.241
				c-0.631-0.79-1.402-1.18-2.335-0.742c-4.22,1.983-4.15,7.884-4.39,11.87c-0.346,5.731-1.59,12.05,0.731,17.391
				c0.239,0.55,0.632,0.963,1.087,1.292c-0.735,2.995-0.062,6.204,0.697,9.517c1.08,4.716,1.649,10.288,3.364,14.835
				c-0.089,1.027-0.146,2.057-0.12,3.094c0.018,0.718,0.689,1.249,1.394,1.062c6.231-1.648,9.236-7.936,10.469-13.836
				C156.849,105.441,158.379,95.95,153.476,90.546z"/>
			<path style="fill:#E0DFE6;" d="M188.432,50.429c-2.642,2.836-4.681,4.482-8.559,4.398c-1.661-0.036-3.123,1.451-3.102,3.102
				c0.054,4.303,4.056,6.977,7.955,7.585c5.156,0.803,9.589-2.288,13.191-5.599C204.282,54.066,194.336,44.092,188.432,50.429z"/>
			<path style="fill:#E0DFE6;" d="M199.092,94.395c-2.909-2.909-7.012-2.422-9.961,0c-1.535,1.261-3.507,2.909-4.735,4.5
				c-0.086,0.111-0.232,0.23-0.368,0.334c-0.148-0.028-0.344-0.07-0.673-0.116c-2.742-0.389-6.434,1.174-6.079,4.631
				c0.499,4.856,4.535,7.742,9.315,7.524c4.844-0.221,9.142-3.687,12.501-6.911C201.837,101.721,201.743,97.046,199.092,94.395z"/>
			<path style="fill:#E0DFE6;" d="M196.922,141.859c-2.38-1.392-6.265-1.226-8.113,1.047c-1.088,1.339-1.744,2.353-2.6,3.325
				c-0.064,0.073-0.508,0.534-0.68,0.747c-0.141,0.069-0.336,0.162-0.523,0.23c-0.153-0.022-0.565-0.035-0.761-0.068
				c-0.501-0.085,0.269,0.012-0.564-0.119c-1.353-0.213-3.5-0.203-4.529,0.992c-4.063,4.716,1.357,10.201,6.157,11.105
				c6.139,1.157,12.962-3.911,14.69-9.699C200.843,146.589,199.439,143.331,196.922,141.859z"/>
			<path style="fill:#E0DFE6;" d="M153.237,107.627c-0.567-7.858-1.62-15.726-2.858-23.506c-0.687-4.317-1.472-8.636-2.586-12.867
				c-0.759-2.883-2.201-5.762-3.011-8.653c0.684-5.997-7.572-9.405-11.879-3.816c-3.326,4.316,1.133,11.527,2.288,15.943
				c2.159,8.257,3.362,16.779,4.351,25.245c0.888,7.602,1.452,15.27,0.927,22.92c-0.453,6.603-3.035,14.799-0.439,21.109
				c0.376,0.913,1.323,1.775,2.413,1.37C155.424,140.554,154.027,118.577,153.237,107.627z"/>
			<path style="fill:#E0DFE6;" d="M83.656,141.256c-1.141-5.263-2.146-10.562-2.886-15.896c-1.19-8.571-0.422-18.278-4.06-26.232
				c-0.991-2.167-4.711-2.156-5.706,0c-4.295,9.312-1.964,21.412-0.653,31.242c0.746,5.599,1.701,11.148,3.001,16.647
				c0.995,4.21,1.306,8.247,5.973,9.597c3.491,1.01,5.984-1.726,6.396-4.872C86.158,148.411,84.366,144.53,83.656,141.256z"/>
			<path style="fill:#E0DFE6;" d="M230.75,45.32c-6.126,0.294-12.26,1.03-18.37,1.586c-4.855,0.441-10.141,0.398-14.352,3.056
				c-1.051,0.663-1.18,2.339,0,2.972c4.392,2.356,9.468,1.97,14.352,1.934c6.107-0.045,12.287-0.057,18.37-0.6
				C236.398,53.764,236.572,45.04,230.75,45.32z"/>
			<path style="fill:#E0DFE6;" d="M229.758,95.917c-5.669-1.701-12.063-0.413-17.883,0.156c-5.899,0.576-11.678,1.37-17.462,2.678
				c-1.854,0.419-2.017,3.624,0,3.916c5.823,0.844,11.575,1.251,17.462,1.371c5.805,0.119,12.399,0.957,17.883-1.151
				C232.978,101.648,233.386,97.006,229.758,95.917z"/>
			<path style="fill:#E0DFE6;" d="M231.937,142.745c-11.633-2.189-25.848,1.157-37.152,4.133c-2.203,0.58-1.506,3.493,0.503,3.718
				c11.45,1.284,25.341,3.348,36.649,0.644C236.013,150.266,236.261,143.558,231.937,142.745z"/>
		</g>
		<g>
			<g>
				<path style="fill:#525D7D;" d="M148.134,158.212c-0.194,0-0.392-0.027-0.588-0.081c-1.148-0.324-1.815-1.517-1.492-2.664
					c3.957-14.033,5.881-28.337,5.881-43.727c0-42.86-10.114-72.232-34.805-100.681c-23.267,28.348-36.051,63.2-36.051,98.424
					c0,16.215,2.063,31.607,6.132,45.749c0.33,1.146-0.332,2.342-1.478,2.671c-1.144,0.328-2.342-0.332-2.671-1.478
					c-4.181-14.529-6.301-30.324-6.301-46.943c0-37.044,13.736-73.672,38.677-103.138c0.404-0.477,0.995-0.756,1.62-0.764
					c0.678-0.015,1.224,0.255,1.64,0.722c26.324,29.522,37.556,61.055,37.556,105.437c0,15.792-1.976,30.479-6.042,44.9
					C149.943,157.59,149.076,158.212,148.134,158.212z"/>
			</g>
			<g>
				<path style="fill:#525D7D;" d="M63.305,187.816c-0.481,0-0.966-0.16-1.368-0.49c-0.921-0.756-1.056-2.117-0.299-3.039
					c11.569-14.099,30.226-21.865,52.535-21.865c32.437,0,48.95,14.531,50.857,17.392c0.661,0.992,0.394,2.333-0.599,2.994
					c-0.994,0.661-2.333,0.393-2.994-0.599c-1.603-2.404-17.128-15.469-47.265-15.469c-20.992,0-38.463,7.205-49.197,20.286
					C64.549,187.547,63.929,187.816,63.305,187.816z"/>
			</g>
			<g>
				<path style="fill:#525D7D;" d="M151.563,143.256c-0.221,0-0.444-0.034-0.665-0.105c-21.12-6.83-35.319-27.162-34.53-49.443
					c0.62-17.514,11.739-33.585,28.328-40.941c1.088-0.487,2.365,0.007,2.849,1.099c0.483,1.09-0.008,2.365-1.099,2.849
					c-15.088,6.691-25.2,21.272-25.762,37.147c-0.721,20.362,12.25,38.941,31.543,45.181c1.135,0.367,1.757,1.584,1.39,2.719
					C153.321,142.674,152.474,143.256,151.563,143.256z"/>
			</g>
			<g>
				<path style="fill:#525D7D;" d="M151.769,117.66c-2.693,0-5.321-1.212-7.602-3.507c-4.13-4.154-6.659-11.4-6.599-18.91
					c0.093-11.717,5.759-20.649,13.472-21.237c1.21-0.087,2.227,0.8,2.317,1.988c0.091,1.189-0.8,2.227-1.988,2.317
					c-4.599,0.351-9.403,6.793-9.483,16.965c-0.05,6.303,2.047,12.517,5.343,15.832c1.014,1.02,2.624,2.234,4.539,2.234
					c0.52-0.001,1.044-0.097,1.567-0.285c1.121-0.404,2.358,0.179,2.761,1.302c0.403,1.122-0.18,2.359-1.302,2.761
					C153.805,117.476,152.793,117.657,151.769,117.66z"/>
			</g>
			<g>
				<path style="fill:#525D7D;" d="M41.856,101.817c-1.181,0-2.145-0.95-2.158-2.134c-0.205-17.98-6.129-26.569-11.357-34.148
					c-4.038-5.854-7.852-11.383-7.852-19.88c0-14.923,11.971-30.358,32.004-30.358c12.959,0,25.521,7.418,29.869,17.639
					c0.915,2.15,1.36,4.637,1.36,7.603c0,10.632-4.016,18.644-7.899,26.393c-4.037,8.054-8.211,16.383-8.211,28.127
					c0,1.169,0.048,2.343,0.141,3.487c0.097,1.188-0.788,2.23-1.976,2.328c-1.179,0.102-2.23-0.787-2.328-1.976
					c-0.103-1.261-0.155-2.553-0.155-3.839c0-12.766,4.407-21.559,8.668-30.062c3.827-7.635,7.442-14.847,7.442-24.458
					c0-2.373-0.332-4.307-1.016-5.912c-3.641-8.558-14.773-15.012-25.895-15.012c-17.329,0-27.685,13.24-27.685,26.04
					c0,7.153,3.128,11.687,7.088,17.428c5.302,7.687,11.901,17.253,12.121,36.551C44.029,100.826,43.074,101.803,41.856,101.817z"/>
			</g>
			<g>
				<path style="fill:#525D7D;" d="M36.181,163.435c-0.557,0-1.094-0.215-1.499-0.605l-2.026-1.957
					c-2.63-2.542-5.35-5.169-8.054-7.692c-0.461-0.43-0.71-1.04-0.684-1.67l0.021-0.504c0.221-5.235,0.451-10.647,0.451-16.04
					c0-7.463-0.527-15.019-1.035-22.325c-0.283-4.074-0.577-8.288-0.775-12.43c-0.027-0.586,0.184-1.158,0.587-1.585
					c0.403-0.427,0.961-0.671,1.548-0.678c11.077-0.112,22.357-0.573,33.265-1.02c6.98-0.286,14.198-0.581,21.303-0.783
					c1.147-0.042,2.185,0.905,2.22,2.097c0.034,1.192-0.905,2.186-2.097,2.22c-7.078,0.201-14.282,0.496-21.248,0.78
					c-10.206,0.418-20.735,0.848-31.148,0.997c0.186,3.375,0.423,6.784,0.654,10.102c0.514,7.38,1.045,15.012,1.045,22.625
					c0,5.316-0.217,10.609-0.434,15.737c2.489,2.337,4.974,4.737,7.382,7.065l1.313,1.267c6.483-0.569,13.02-0.722,19.352-0.87
					c1.499-0.035,2.996-0.07,4.495-0.111c1.164-0.065,2.184,0.908,2.217,2.1c0.032,1.192-0.908,2.184-2.1,2.217
					c-1.503,0.041-3.007,0.076-4.51,0.111c-6.58,0.154-13.384,0.313-20.039,0.942C36.316,163.432,36.249,163.435,36.181,163.435z"/>
			</g>
			<g>
				<path style="fill:#525D7D;" d="M40.799,90.156c-1.154,0-2.111-0.912-2.156-2.075c-0.046-1.191,0.883-2.195,2.074-2.241
					c3.418-0.132,6.938-0.411,10.343-0.68c4.797-0.379,9.758-0.771,14.579-0.771c1.193,0,2.159,0.966,2.159,2.159
					c0,1.193-0.966,2.159-2.159,2.159c-4.651,0-9.525,0.385-14.238,0.758c-3.447,0.272-7.012,0.554-10.516,0.69
					C40.856,90.155,40.827,90.156,40.799,90.156z"/>
			</g>
			<g>
				<path style="fill:#525D7D;" d="M38.464,56.192c-0.173,0-0.349-0.021-0.525-0.065c-1.157-0.289-1.86-1.461-1.571-2.618
					c1.139-4.556,4.676-9.168,9.232-9.168c3.778,0,5.616,2.849,6.831,4.734c0.557,0.864,1.25,1.939,1.664,1.939
					c0.726,0,1.025-0.301,1.9-2.555c0.888-2.289,2.231-5.748,6.656-5.748c0.467,0,0.922,0.152,1.295,0.432
					c1.164,0.873,2.016,1.876,2.768,2.761c0.664,0.782,1.292,1.52,2.069,2.103c0.954,0.716,1.148,2.068,0.432,3.023
					c-0.715,0.955-2.068,1.148-3.023,0.432c-1.164-0.873-2.017-1.877-2.769-2.762c-0.481-0.567-0.944-1.11-1.458-1.588
					c-0.796,0.231-1.204,0.999-1.946,2.91c-0.82,2.115-2.061,5.311-5.925,5.311c-2.768,0-4.168-2.172-5.294-3.917
					c-1.235-1.916-1.911-2.756-3.201-2.756c-2.204,0-4.334,3.062-5.043,5.897C40.312,55.537,39.432,56.192,38.464,56.192z"/>
			</g>
			<g>
				<path style="fill:#525D7D;" d="M7.498,73.177c-0.656,0-1.304-0.298-1.728-0.864c-0.716-0.954-0.523-2.307,0.432-3.022
					c1.127-0.845,2.449-1.507,3.729-2.146c1.158-0.579,2.251-1.126,3.066-1.737c0.955-0.714,2.307-0.521,3.023,0.432
					c0.716,0.954,0.522,2.307-0.432,3.023c-1.126,0.844-2.447,1.505-3.726,2.144c-1.158,0.58-2.253,1.127-3.069,1.738
					C8.404,73.036,7.95,73.177,7.498,73.177z"/>
			</g>
			<g>
				<path style="fill:#525D7D;" d="M8.468,47.942H2.159C0.966,47.942,0,46.975,0,45.783c0-1.193,0.966-2.159,2.159-2.159h6.309
					c1.193,0,2.159,0.966,2.159,2.159C10.627,46.975,9.66,47.942,8.468,47.942z"/>
			</g>
			<g>
				<path style="fill:#525D7D;" d="M14.778,23.192c-0.173,0-0.349-0.021-0.525-0.065c-2.305-0.576-4.017-1.717-5.527-2.724
					c-0.992-0.661-1.26-2.002-0.599-2.994c0.661-0.993,2.002-1.261,2.994-0.599c1.395,0.93,2.6,1.733,4.179,2.128
					c1.157,0.289,1.86,1.461,1.571,2.618C16.627,22.537,15.746,23.192,14.778,23.192z"/>
			</g>
			<g>
				<path style="fill:#525D7D;" d="M39.044,10.088c-0.698,0-1.382-0.337-1.798-0.961c-0.869-1.305-1.154-2.778-1.383-3.963
					c-0.102-0.527-0.198-1.025-0.325-1.404c-0.377-1.131,0.233-2.354,1.365-2.731c1.131-0.377,2.355,0.235,2.731,1.365
					c0.216,0.647,0.344,1.31,0.468,1.951c0.18,0.929,0.349,1.806,0.737,2.387c0.661,0.992,0.394,2.333-0.599,2.994
					C39.871,9.971,39.455,10.088,39.044,10.088z"/>
			</g>
			<g>
				<path style="fill:#525D7D;" d="M69.093,9.55c-0.954,0-1.813-0.611-2.057-1.581c-0.095-0.38-0.143-0.771-0.143-1.164
					c0-1.158,0.41-2.113,0.739-2.881c0.2-0.467,0.389-0.908,0.389-1.179c-0.29-1.157,0.405-2.386,1.562-2.676
					c1.15-0.288,2.322,0.356,2.612,1.512c0.095,0.38,0.143,0.771,0.143,1.164c0,1.158-0.41,2.113-0.739,2.881
					c-0.2,0.467-0.389,0.908-0.389,1.179c0.29,1.157-0.406,2.386-1.562,2.676C69.462,9.528,69.276,9.55,69.093,9.55z"/>
			</g>
			<g>
				<path style="fill:#525D7D;" d="M88.058,23.678c-0.792,0-1.554-0.438-1.933-1.194c-0.533-1.067-0.1-2.364,0.966-2.897
					c1.626-0.813,3.412-2.113,4.778-3.478c0.843-0.842,2.21-0.843,3.054,0.001c0.843,0.843,0.843,2.21-0.001,3.054
					c-1.701,1.699-3.851,3.262-5.899,4.287C88.712,23.604,88.382,23.678,88.058,23.678z"/>
			</g>
			<g>
				<path style="fill:#525D7D;" d="M184.656,58.919c-0.107,0-0.214-0.002-0.321-0.006c-4.171-0.138-8.571-3.015-8.912-8.248
					c-0.221-3.398,1.353-6.824,4.009-8.728l0.289-0.209c0.818-0.597,1.836-1.34,3.241-1.499c1.227-0.138,2.235-0.172,3.174-0.104
					c4.57,0.329,8.018,4.003,8.198,8.734c0.103,2.74-0.886,5.3-2.788,7.21C189.733,57.89,187.238,58.919,184.656,58.919z
					 M181.948,45.447c-1.472,1.055-2.341,2.993-2.215,4.938c0.181,2.792,2.587,4.141,4.745,4.213
					c1.498,0.037,2.961-0.524,4.007-1.576c1.047-1.051,1.591-2.473,1.534-4c-0.081-2.137-1.548-4.4-4.194-4.591
					c-0.663-0.046-1.421-0.02-2.379,0.089c-0.268,0.03-0.71,0.353-1.178,0.695L181.948,45.447z"/>
			</g>
			<g>
				<path style="fill:#525D7D;" d="M186.036,104.317c-2.433,0-5.187-1.176-7.073-3.032c-1.833-1.805-2.787-4.102-2.756-6.643
					c0.032-2.566,1.095-5.053,2.918-6.824c1.026-0.995,2.42-1.759,3.823-2.095c0.746-0.179,1.51-0.283,2.27-0.306
					c2.892-0.091,5.527,0.829,7.387,2.594c1.751,1.662,2.745,3.99,2.797,6.554c0.082,3.98-3.057,9.582-9.16,9.749
					C186.172,104.317,186.104,104.317,186.036,104.317z M182.133,90.917c-1.005,0.976-1.591,2.353-1.608,3.777
					c-0.016,1.357,0.478,2.54,1.467,3.515c1.293,1.271,3.031,1.81,4.13,1.789c3.61-0.099,4.993-3.813,4.963-5.344
					c-0.03-1.422-0.531-2.636-1.453-3.511c-1.031-0.978-2.508-1.463-4.276-1.41c-0.467,0.015-0.938,0.079-1.401,0.19
					C183.301,90.079,182.603,90.46,182.133,90.917z"/>
			</g>
			<g>
				<path style="fill:#525D7D;" d="M186.516,151.976c-2.529,0-4.856-0.932-6.567-2.633c-1.713-1.702-2.646-4.007-2.63-6.489
					c0.024-3.5,1.951-6.548,5.03-7.955c1.432-0.655,2.871-0.983,4.343-0.95c5.036,0.074,8.763,3.74,8.857,8.717
					c0.046,2.436-0.907,4.843-2.614,6.605c-1.661,1.713-3.893,2.674-6.287,2.704C186.604,151.976,186.56,151.976,186.516,151.976z
					 M186.536,138.266c-0.786,0-1.567,0.184-2.392,0.56c-1.534,0.701-2.495,2.255-2.507,4.057c-0.008,1.313,0.472,2.52,1.356,3.397
					c0.912,0.906,2.197,1.404,3.6,1.377c1.583-0.02,2.636-0.767,3.241-1.391c0.913-0.942,1.423-2.225,1.399-3.519
					c-0.05-2.641-1.902-4.441-4.609-4.48C186.594,138.266,186.564,138.266,186.536,138.266z"/>
			</g>
			<g>
				<path style="fill:#525D7D;" d="M193.318,50.568c-1.1,0-2.04-0.837-2.146-1.955c-0.113-1.187,0.758-2.241,1.945-2.354
					c7-0.667,14.041-0.92,20.849-1.165c6.746-0.242,13.722-0.493,20.595-1.147c1.177-0.12,2.241,0.757,2.354,1.945
					c0.113,1.187-0.758,2.241-1.945,2.354c-7,0.667-14.041,0.92-20.849,1.165c-6.746,0.242-13.722,0.493-20.595,1.147
					C193.456,50.565,193.387,50.568,193.318,50.568z"/>
			</g>
			<g>
				<path style="fill:#525D7D;" d="M194.309,97.474c-1.143,0-2.096-0.897-2.154-2.052c-0.06-1.191,0.857-2.204,2.049-2.264
					c4.993-0.249,10.105-0.361,15.048-0.467c8.174-0.177,16.625-0.36,24.791-1.177c1.172-0.12,2.244,0.746,2.364,1.934
					c0.119,1.187-0.747,2.245-1.934,2.364c-8.334,0.834-16.872,1.018-25.128,1.197c-4.913,0.106-9.993,0.216-14.926,0.462
					C194.383,97.473,194.346,97.474,194.309,97.474z"/>
			</g>
			<g>
				<path style="fill:#525D7D;" d="M221.66,145.61c-3.621,0-7.291-0.075-10.84-0.148c-5.183-0.108-10.534-0.219-15.797-0.091
					c-1.158,0.072-2.182-0.914-2.21-2.106c-0.029-1.192,0.914-2.182,2.106-2.21c5.345-0.127,10.761-0.017,15.989,0.091
					c3.527,0.072,7.174,0.148,10.751,0.148c5.687,0,10.35-0.192,14.675-0.604c1.179-0.126,2.241,0.757,2.354,1.945
					c0.113,1.187-0.758,2.241-1.945,2.354C232.281,145.412,227.487,145.61,221.66,145.61z"/>
			</g>
			<g>
				<path style="fill:#525D7D;" d="M232.297,152.639c-0.345,0-0.696-0.084-1.022-0.259c-1.049-0.566-1.442-1.875-0.877-2.925
					c1.137-2.111,2.472-4.105,3.984-5.956c-1.723-1.05-3.584-2.369-5.261-4.046c-0.843-0.843-0.843-2.21,0-3.053
					c0.843-0.843,2.21-0.843,3.053,0c2.084,2.084,4.622,3.57,6.601,4.632c0.592,0.318,1.004,0.895,1.11,1.559
					c0.107,0.664-0.102,1.34-0.564,1.829c-2.009,2.12-3.732,4.503-5.121,7.083C233.81,152.227,233.066,152.639,232.297,152.639z"/>
			</g>
			<g>
				<path style="fill:#525D7D;" d="M229.986,102.76c-0.284,0-0.573-0.056-0.85-0.175c-1.096-0.47-1.604-1.739-1.134-2.835
					c0.913-2.13,2.237-4.133,4.093-6.171c-1.924-1.162-3.803-2.411-5.691-3.785c-0.964-0.701-1.177-2.052-0.477-3.016
					c0.701-0.964,2.05-1.179,3.016-0.476c2.537,1.845,5.055,3.454,7.698,4.919c0.604,0.335,1.011,0.938,1.096,1.624
					c0.084,0.685-0.163,1.369-0.667,1.841c-2.508,2.348-4.128,4.498-5.1,6.765C231.62,102.269,230.823,102.76,229.986,102.76z"/>
			</g>
			<g>
				<path style="fill:#525D7D;" d="M231.311,54.531c-0.09,0-0.181-0.006-0.272-0.018c-1.183-0.148-2.021-1.226-1.873-2.409
					c0.145-1.159,0.797-3.038,4.43-6.463c-1.95-1.351-3.649-2.574-5.235-3.764c-0.954-0.716-1.147-2.068-0.431-3.023
					c0.715-0.954,2.069-1.146,3.023-0.431c2.12,1.59,4.456,3.246,7.353,5.212c0.559,0.379,0.909,0.999,0.944,1.674
					c0.035,0.675-0.248,1.328-0.765,1.763c-4.793,4.04-5.027,5.506-5.035,5.567C233.312,53.732,232.383,54.531,231.311,54.531z"/>
			</g>
			<g>
				<path style="fill:#525D7D;" d="M37.522,163.315c-1.252-0.034-2.192-1.026-2.16-2.218c0.06-2.183,0.169-4.373,0.277-6.559
					c0.079-1.588,0.159-3.212,0.219-4.825c-3.085,0.288-6.238,0.61-9.241,1.214c-1.169,0.235-2.307-0.523-2.542-1.692
					c-0.235-1.169,0.522-2.307,1.692-2.542c3.563-0.716,7.205-1.051,10.726-1.375l1.394-0.129c0.615-0.058,1.221,0.15,1.672,0.569
					c0.451,0.419,0.701,1.011,0.688,1.626c-0.052,2.451-0.176,4.951-0.296,7.368c-0.107,2.155-0.214,4.312-0.273,6.463
					C39.647,162.386,38.687,163.315,37.522,163.315z"/>
			</g>
			<g>
				<path style="fill:#525D7D;" d="M39.057,118.945c-1.047,0-1.967-0.763-2.131-1.831c-0.181-1.179,0.627-2.281,1.806-2.462
					c4.419-0.68,8.925-0.839,13.282-0.994c4.232-0.15,8.609-0.304,12.778-0.945c1.181-0.186,2.281,0.627,2.462,1.806
					c0.181,1.179-0.627,2.281-1.806,2.462c-4.419,0.68-8.924,0.839-13.282,0.994c-4.232,0.15-8.609,0.304-12.778,0.945
					C39.277,118.937,39.167,118.945,39.057,118.945z"/>
			</g>
			<g>
				<path style="fill:#525D7D;" d="M41.369,129.516c-1.042,0-1.96-0.756-2.129-1.818c-0.188-1.177,0.613-2.284,1.791-2.472
					c4.298-0.688,8.584-0.688,12.728-0.688c4.158,0,8.087,0,12.046-0.633c1.171-0.195,2.285,0.613,2.473,1.791
					c0.188,1.177-0.613,2.284-1.791,2.473c-4.298,0.688-8.583,0.688-12.728,0.688c-4.159,0-8.087,0-12.046,0.633
					C41.598,129.507,41.483,129.516,41.369,129.516z"/>
			</g>
			<g>
				<path style="fill:#525D7D;" d="M42.363,140.086c-1.193,0-2.159-0.966-2.159-2.159c0-1.193,0.966-2.159,2.159-2.159
					c7.961,0,15.48,0,23.363-0.328c1.198-0.053,2.198,0.875,2.247,2.067c0.05,1.191-0.876,2.198-2.067,2.247
					C57.933,140.086,50.37,140.086,42.363,140.086z"/>
			</g>
			<g>
				<path style="fill:#525D7D;" d="M52.932,176.422c-0.487,0-0.977-0.164-1.381-0.5c-0.916-0.763-1.04-2.125-0.276-3.041
					c1.27-1.524,2.665-2.995,4.145-4.373c0.875-0.813,2.241-0.763,3.052,0.11c0.813,0.873,0.763,2.239-0.11,3.052
					c-1.347,1.253-2.615,2.591-3.769,3.977C54.166,176.157,53.551,176.422,52.932,176.422z M67.403,164.742
					c-0.763,0-1.503-0.406-1.896-1.122c-0.573-1.046-0.19-2.358,0.856-2.931c1.693-0.928,3.491-1.808,5.344-2.615
					c1.096-0.476,2.366,0.023,2.842,1.117c0.477,1.093-0.023,2.365-1.117,2.842c-1.734,0.756-3.414,1.578-4.994,2.444
					C68.109,164.656,67.754,164.742,67.403,164.742z M163.653,164.243c-0.334,0-0.673-0.078-0.991-0.243
					c-1.621-0.84-3.324-1.639-5.061-2.374c-1.098-0.465-1.611-1.732-1.146-2.83c0.466-1.098,1.736-1.607,2.83-1.146
					c1.839,0.779,3.643,1.626,5.363,2.516c1.059,0.549,1.472,1.851,0.924,2.91C165.188,163.817,164.434,164.243,163.653,164.243z
					 M84.826,158.065c-0.964,0-1.841-0.649-2.09-1.626c-0.295-1.155,0.402-2.331,1.557-2.626c1.844-0.471,3.773-0.905,5.735-1.29
					c1.173-0.228,2.305,0.533,2.534,1.704c0.229,1.17-0.533,2.305-1.704,2.534c-1.883,0.369-3.733,0.784-5.498,1.235
					C85.182,158.043,85.002,158.065,84.826,158.065z M146.17,157.686c-0.177,0-0.357-0.022-0.536-0.068
					c-1.796-0.459-3.646-0.875-5.497-1.237c-1.17-0.228-1.934-1.363-1.705-2.533s1.36-1.939,2.533-1.705
					c1.932,0.377,3.863,0.812,5.738,1.292c1.156,0.295,1.853,1.471,1.557,2.626C148.011,157.036,147.133,157.686,146.17,157.686z
					 M103.269,155.004c-1.104,0-2.046-0.843-2.148-1.964c-0.107-1.188,0.769-2.238,1.956-2.345c1.891-0.171,3.85-0.311,5.824-0.415
					c1.196-0.061,2.208,0.851,2.271,2.042c0.063,1.191-0.851,2.208-2.042,2.271c-1.921,0.102-3.827,0.238-5.664,0.404
					C103.4,155.001,103.334,155.004,103.269,155.004z M127.72,154.701c-0.055,0-0.11-0.002-0.167-0.006
					c-1.859-0.142-3.758-0.241-5.644-0.294c-1.192-0.034-2.131-1.028-2.097-2.219c0.034-1.192,1.026-2.12,2.22-2.097
					c1.955,0.055,3.924,0.158,5.851,0.306c1.189,0.091,2.079,1.128,1.988,2.317C129.784,153.839,128.838,154.701,127.72,154.701z"/>
			</g>
		</g>
	</g>
</g>
<g id="Layer_1">
</g>
</svg>
