<?xml version="1.0" encoding="iso-8859-1"?>
<!-- Generator: Adobe Illustrator 21.0.2, SVG Export Plug-In . SVG Version: 6.00 Build 0)  -->
<svg version="1.1" xmlns="http://www.w3.org/2000/svg" xmlns:xlink="http://www.w3.org/1999/xlink" x="0px" y="0px"
	 viewBox="0 0 199.247 188.194" style="enable-background:new 0 0 199.247 188.194;" xml:space="preserve">
<g id="_x31_1">
	<g>
		<path style="fill:#E0DFE6;" d="M177.841,140.005c-4.188,1.919-7.391,5.862-10.594,9.077c-2.128,2.137-4.12,4.338-5.96,6.681
			c-0.59-2.389-1.246-5.033-2.052-7.623c0.765,0.153,1.584,0.026,2.361-0.544c3.687-2.706,7.356-5.316,11.244-7.725
			c2.319-1.437,2.969-4.515,1.28-6.703c-1.652-2.141-4.857-2.399-6.808-0.462c-3.251,3.227-6.645,6.196-10.138,9.158
			c-0.103,0.087-0.177,0.185-0.265,0.279c-0.617-1.244-1.299-2.405-2.078-3.409c-0.559-0.72-1.763-0.557-2.346,0
			c-3.47,3.316-3.252,8.166-3.186,12.725c-0.506-0.687-1.114-1.285-1.809-1.735c-0.15-3.598-0.58-7.198-1.073-10.701
			c1.46-0.499,2.885-1.077,4.249-1.767c4.13-2.088,4.08-5.988,2.035-8.785c1.382-0.261,2.771-0.507,4.138-0.796
			c6.693-1.414,4.972-10.379-0.663-11.577c0.52-5.61,0.052-11.6,0.146-17.041c0.062-3.587-5.565-4.476-6.354-0.86
			c-1.347,6.168-3.65,12.936-4.101,19.338c-6.767,1.264-13.535,2.526-20.304,3.806c1.811-2.145,1.948-5.34-0.12-7.407
			c-0.288-0.288-0.639-0.528-1.012-0.743c0.584-0.592,1.118-1.228,1.523-1.956c2.992-5.383-3.081-11.848-8.568-8.568
			c-0.592,0.354-1.123,0.753-1.662,1.186c0.015-0.012-0.747,0.654-0.966,0.863c-0.221,0.141-0.56,0.352-0.721,0.46
			c-0.237,0.068-0.991,0.348-1.023,0.357c-0.336,0.1-0.67,0.212-1.013,0.29c0.018-0.013-0.043-0.016-0.15-0.012
			c-0.336-0.245-0.675-0.399-1.147-0.582c-0.078-0.03-0.156-0.06-0.234-0.091c-2.852-1.106-5.006,1.651-5.326,4.057
			c-0.644,4.853,4.827,7.334,8.792,7.661c0.412,0.034,0.838,0.027,1.262,0.021c-0.698,0.614-1.453,1.172-2.378,1.635
			c-2.098,1.051-4.226,1.18-6.465,1.709c-1.406,0.332-2.032,2.07-1.367,3.258c-0.276-0.073-0.56-0.129-0.852-0.156
			c-1.384-0.128-2.62-0.18-4.005-0.824c-1.45-0.674-2.556-1.845-4.106-2.203c-0.591-0.137-1.409,0.078-1.686,0.686
			c-1.104,2.426,0.329,4.96,2.046,6.76c0.234,0.246,0.483,0.48,0.74,0.707c-0.058,1.327,0.917,2.82,2.485,2.95
			c1.777,0.148,3.573,0.244,5.369,0.34c0.004,0.093-0.002,0.188,0.014,0.278c1.206,6.824,10.608,8.204,16.241,8.843
			c5.656,0.643,11.807,0.808,17.703-0.063c-0.397,3.75-1.088,7.438-1.711,11.139c-7.52,3.37-15.391,2.658-23.935,2.747
			c-11.39,0.118-22.778,0.57-34.144,1.318c-10.481,0.689-20.885,1.694-31.282,3.186c-5.577,0.801-12.559,3.313-18.118,1.796
			c-4.456-1.216-8.121-5.228-11.566-8.136c-1.084-0.915-2.646-0.05-2.357,1.372c1.955,9.601,7.126,16.805,17.394,17.963
			c13.394,1.511,28.078-1.519,41.481-2.341c14.338-0.879,28.685-1.201,43.048-1.168c10.691,0.024,23.581,0.458,31.354-8.221
			c0.081-0.091,0.147-0.187,0.222-0.28c-0.125,2.711-0.525,5.373-1.534,8c-9.979-0.249-20.394,1.404-30.206,2.067
			c-11.344,0.766-22.678,1.639-34.014,2.513c-11.35,0.875-22.683,1.804-34.014,2.89c-9.494,0.91-19.028,2.601-28.066-1.389
			c-1.816-0.802-3.921,0.888-2.837,2.837c4.414,7.938,12.975,9.994,21.422,10.73c11.864,1.034,24.226-0.365,36.101-0.96
			c12.818-0.641,25.639-1.242,38.451-2.005c13.141-0.783,27.409-0.14,40.237-3.174c1.034-0.244,1.878-0.646,2.565-1.149
			c1.122-0.616,2.114-1.637,2.831-3.161c2.085-4.433,2.766-9.053,2.431-13.744c0.096-0.033,0.193-0.06,0.287-0.102
			c4.008-1.82,7.65-4.09,11.336-6.479c3.633-2.355,7.904-4.403,10.666-7.796C189.246,144.01,184.059,137.155,177.841,140.005z"/>
		<path style="fill:#E0DFE6;" d="M190.211,92.717c-5.663-7.651-11.932-14.819-18.155-22.013c-5.906-6.828-12.107-16.202-20.389-20.2
			c-1.065-0.514-2.189,0.328-1.95,1.499c1.339,6.545,5.97,12.277,9.686,17.705c4.012,5.861,8.11,11.676,12.243,17.452
			c5.496,7.682,21.25,24.677,14.527,34.589c-0.475-0.065-0.963-0.087-1.479-0.018c-1.729,0.232-2.891,1.129-3.878,2.534
			l-3.411,4.855c-1.318,1.876-0.493,4.641,1.186,5.938c1.875,1.448,4.307,1.179,6.044-0.36c1.39-1.231,2.781-2.462,4.171-3.693
			c0.655-0.044,1.334-0.221,2.017-0.6C205.747,122.134,197.799,102.969,190.211,92.717z"/>
		<path style="fill:#E0DFE6;" d="M142.133,55.536c2.966-2.577,1.239-8.544-3.908-7.525c-25.837,5.116-50.806,3.851-76.891,3.958
			c-17.029,0.07-39.537,2.448-44.326,21.762c-0.334,1.347,1.716,1.916,2.079,0.573c2.939-10.852,19.185-14.893,28.647-15.998
			c9.521-1.112,19.186-0.352,28.722,0.142c20.617,1.069,41.191,0.309,61.725-1.69c-0.816,6.687-1.615,14.371-0.124,20.74
			c-0.219,0.413-0.433,0.827-0.657,1.241c-1.308,2.416-0.156,5.529,2.553,6.275c2.605,0.718,5.49-1.33,5.407-4.119
			c-0.01-0.339-0.012-0.673-0.021-1.01c0.028-0.109,0.065-0.21,0.085-0.327C146.662,72.079,144.294,63.109,142.133,55.536z"/>
		<path style="fill:#E0DFE6;" d="M141.349,36.358c-5.72-8.81-11.711-17.891-19.005-25.483c-0.941-0.979-2.679,0.025-2.287,1.332
			c1.496,4.987,3.516,9.855,5.809,14.603c-9.052,1.175-18.096,2.973-27.046,4.563c-11.599,2.061-23.855,5.649-35.606,6.089
			c-0.735,0.027-1.275,1.013-0.645,1.558c3.132,2.712,6.464,2.493,10.522,2.529c7.096,0.063,14.192-0.404,21.266-0.891
			c12.291-0.846,24.83-1.507,37.032-3.355c0.69,1.229,1.385,2.45,2.083,3.661C136.41,46.065,144.547,41.284,141.349,36.358z"/>
		<g>
			<g>
				<path style="fill:#525D7D;" d="M52.227,175.595c-8.517,0-17.034-0.075-25.349-0.245c-12.344-0.253-22.381-10.106-22.853-22.432
					c-0.52-13.621-1.24-27.448-1.938-40.817c-0.759-14.55-1.544-29.596-2.072-44.443c-0.233-6.496,2.204-12.924,6.686-17.636
					c4.479-4.709,10.777-7.464,17.28-7.559c25.874-0.381,52.344-1.721,77.94-3.019c14.402-0.729,29.294-1.484,43.847-2.055
					c1.222-0.06,2.26,0.89,2.333,2.112c1.847,30.298,1.841,32.782,1.829,36.541c-0.004,1.611-0.009,3.438,0.136,7.902
					c0.041,1.242-0.933,2.28-2.175,2.322c-1.28,0.029-2.282-0.933-2.321-2.175c-0.149-4.543-0.144-6.412-0.139-8.061
					c0.01-3.583,0.018-5.976-1.687-34.056c-13.825,0.557-27.931,1.271-41.596,1.964c-25.636,1.299-52.144,2.642-78.101,3.024
					c-5.301,0.078-10.436,2.322-14.086,6.16c-3.653,3.84-5.639,9.079-5.45,14.374c0.527,14.812,1.311,29.838,2.07,44.37
					c0.697,13.385,1.419,27.226,1.941,40.878c0.379,9.949,8.483,17.902,18.447,18.106c47.377,0.974,101.57-1.18,121.882-2.446
					c-1.835-27.934-1.806-29.624-1.758-32.378c0.022-1.211,0.045-2.585-0.104-6.808c-0.044-1.242,0.927-2.285,2.168-2.329
					c0.028-0.001,0.056-0.001,0.082-0.001c1.205,0,2.204,0.955,2.247,2.169c0.154,4.344,0.129,5.781,0.107,7.049
					c-0.047,2.614-0.077,4.343,1.897,34.249c0.081,1.238-0.855,2.308-2.094,2.393C136.15,173.779,94.289,175.595,52.227,175.595z"/>
			</g>
			<g>
				<path style="fill:#525D7D;" d="M50.021,160.603H49.39c-1.242,0-2.25-1.008-2.25-2.25c0-1.242,1.008-2.25,2.25-2.25h0.631
					c1.651,0,3.432-0.021,5.325-0.06c1.268,0,2.27,0.977,2.296,2.203c0.025,1.242-0.961,2.27-2.203,2.297
					C53.511,160.583,51.701,160.603,50.021,160.603z M35.905,160.411c-0.038,0-0.078-0.002-0.117-0.003
					c-2.48-0.129-4.517-0.335-6.226-0.633c-1.224-0.212-2.045-1.377-1.831-2.601c0.211-1.224,1.368-2.056,2.601-1.831
					c1.531,0.265,3.391,0.452,5.687,0.571c1.242,0.064,2.196,1.122,2.131,2.362C38.089,159.48,37.094,160.411,35.905,160.411z
					 M68.892,160.076c-1.197,0-2.193-0.942-2.245-2.15c-0.056-1.241,0.905-2.292,2.147-2.346c1.938-0.086,3.937-0.182,5.985-0.283
					c1.263-0.044,2.298,0.896,2.358,2.135c0.061,1.242-0.895,2.297-2.135,2.358c-2.056,0.101-4.062,0.196-6.008,0.283
					C68.959,160.076,68.926,160.076,68.892,160.076z M88.376,159.083c-1.186,0-2.179-0.927-2.245-2.127
					c-0.067-1.241,0.883-2.301,2.124-2.37l5.992-0.331c1.273-0.07,2.302,0.883,2.371,2.122c0.067,1.241-0.882,2.302-2.122,2.371
					L88.5,159.08C88.46,159.081,88.417,159.083,88.376,159.083z M107.857,158.005c-1.186,0-2.179-0.929-2.245-2.128
					c-0.067-1.24,0.883-2.301,2.125-2.368l5.996-0.321c1.254-0.057,2.301,0.889,2.365,2.128c0.064,1.241-0.888,2.299-2.128,2.365
					l-5.991,0.321C107.939,158.003,107.898,158.005,107.857,158.005z M127.34,157.018c-1.195,0-2.191-0.94-2.245-2.147
					c-0.057-1.24,0.902-2.294,2.144-2.349c2.014-0.092,4.018-0.182,6.008-0.264c1.217-0.085,2.289,0.915,2.34,2.156
					c0.051,1.24-0.914,2.289-2.156,2.34c-1.982,0.082-3.979,0.168-5.987,0.261C127.409,157.016,127.375,157.018,127.34,157.018z
					 M146.836,156.287c-1.214,0-2.214-0.968-2.247-2.19c-0.034-1.242,0.946-2.276,2.188-2.308l3.455-0.087
					c1.271,0,2.273,0.973,2.302,2.197c0.028,1.243-0.955,2.273-2.197,2.302C150.338,156.202,146.898,156.285,146.836,156.287z
					 M19.999,152.031c-0.951,0-1.832-0.605-2.14-1.557c-0.556-1.721-0.955-3.792-1.219-6.33c-0.127-1.236,0.77-2.34,2.007-2.469
					c1.241-0.116,2.341,0.77,2.469,2.007c0.23,2.222,0.564,3.99,1.022,5.408c0.384,1.182-0.265,2.45-1.447,2.833
					C20.462,151.995,20.227,152.031,19.999,152.031z M18.429,132.688c-1.245-0.001-2.251-1.009-2.25-2.251
					c0.002-1.876,0.015-3.878,0.031-6.015c0.009-1.242,1.036-2.216,2.267-2.232c1.242,0.009,2.241,1.024,2.232,2.267
					c-0.016,2.125-0.029,4.116-0.031,5.983C20.677,131.682,19.671,132.688,18.429,132.688z M18.546,113.191
					c-1.248-0.003-2.253-1.012-2.25-2.256l0.001-1.87c0-1.402-0.009-2.768-0.023-4.098c-0.013-1.242,0.983-2.261,2.225-2.275
					c1.257,0,2.261,0.992,2.275,2.225c0.015,1.347,0.023,2.729,0.023,4.148l-0.001,1.882
					C20.793,112.188,19.787,113.191,18.546,113.191z M18.211,93.698c-1.213,0-2.212-0.965-2.247-2.184
					c-0.063-2.128-0.119-4.133-0.151-6.024c-0.021-1.242,0.97-2.266,2.212-2.288c1.284-0.064,2.266,0.967,2.288,2.212
					c0.032,1.873,0.088,3.861,0.148,5.968C20.497,92.624,19.52,93.661,18.211,93.698z M18.692,74.245
					c-0.127,0-0.255-0.01-0.385-0.032c-1.224-0.211-2.046-1.375-1.835-2.6c0.422-2.446,1.061-4.511,1.951-6.313
					c0.552-1.113,1.905-1.566,3.016-1.018c1.113,0.552,1.569,1.901,1.018,3.016c-0.697,1.405-1.204,3.067-1.55,5.079
					C20.718,73.471,19.767,74.245,18.692,74.245z M30.757,60.547c-0.948,0-1.829-0.602-2.138-1.551
					c-0.385-1.182,0.259-2.452,1.44-2.837c1.805-0.589,3.801-1.081,6.1-1.504c1.222-0.221,2.396,0.584,2.62,1.806
					c0.224,1.223-0.584,2.395-1.806,2.62c-2.102,0.385-3.906,0.829-5.517,1.355C31.223,60.512,30.988,60.547,30.757,60.547z
					 M49.958,57.644c-1.18,0-2.171-0.918-2.244-2.112c-0.076-1.241,0.867-2.307,2.108-2.383c1.9-0.117,3.912-0.212,6.039-0.293
					c1.273-0.079,2.286,0.921,2.333,2.163c0.047,1.242-0.923,2.286-2.163,2.333c-2.091,0.078-4.066,0.173-5.933,0.287
					C50.051,57.643,50.004,57.644,49.958,57.644z M69.429,57.066c-1.233,0-2.238-0.993-2.25-2.228
					c-0.012-1.242,0.986-2.26,2.228-2.272c1.932-0.019,3.934-0.031,6.011-0.038c1.246,0,2.253,1.002,2.257,2.243
					c0.004,1.242-0.999,2.253-2.243,2.257C73.368,57.035,71.374,57.047,69.429,57.066z M88.918,57.017
					c-1.242,0-2.248-1.006-2.25-2.248c-0.001-1.242,1.006-2.25,2.248-2.251l5.992-0.007c1.243,0,2.251,1.005,2.253,2.247
					c0.001,1.242-1.003,2.251-2.247,2.253C94.914,57.01,88.919,57.017,88.918,57.017z M108.398,56.979
					c-1.239,0-2.245-1.002-2.25-2.241c-0.004-1.242,0.999-2.254,2.241-2.259l5.989-0.028c1.251,0,2.256,0.999,2.263,2.237
					c0.007,1.243-0.995,2.256-2.237,2.263C114.404,56.952,108.407,56.979,108.398,56.979z M127.864,56.834
					c-1.227,0-2.232-0.986-2.25-2.217c-0.018-1.242,0.975-2.264,2.217-2.282c4.043-0.058,5.2-0.116,5.514-0.139
					c0.149-0.032,0.306-0.048,0.466-0.048c1.242,0,2.25,1.008,2.25,2.25c0,2.194-2.231,2.288-3.07,2.323
					C132.182,56.754,130.676,56.795,127.864,56.834z"/>
			</g>
			<g>
				<path style="fill:#525D7D;" d="M108.617,133.799c-11.824,0-21.841-9.199-22.674-21.163l-0.538-7.736
					c-0.401-5.76,1.63-11.477,5.576-15.682c3.917-4.173,9.434-6.559,15.153-6.559c0.05,0,0.097,0,0.147,0
					c17.094,0.126,34.036-0.554,49.867-1.248c1.21-0.039,2.245,0.864,2.341,2.073c0.658,8.385,1.153,16.899,1.63,25.133
					c0.378,6.488,0.767,13.196,1.233,19.789c0.043,0.599-0.157,1.191-0.554,1.642c-0.397,0.452-0.958,0.726-1.557,0.762
					c-4.861,0.289-9.732,0.568-14.61,0.848c-11.313,0.65-23.01,1.323-34.484,2.09C109.635,133.781,109.124,133.799,108.617,133.799z
					 M106.135,87.158c-4.482,0-8.804,1.869-11.872,5.138c-3.09,3.295-4.682,7.774-4.369,12.29l0.538,7.738
					c0.699,10.007,9.419,17.614,19.415,16.933c11.496-0.769,23.204-1.441,34.527-2.091c4.116-0.236,8.227-0.473,12.332-0.713
					c-0.4-5.881-0.744-11.814-1.079-17.574c-0.435-7.5-0.885-15.237-1.457-22.876c-15.263,0.662-31.525,1.28-47.92,1.157
					C106.211,87.158,106.173,87.158,106.135,87.158z"/>
			</g>
			<g>
				<path style="fill:#525D7D;" d="M113.341,122.181c-7.61,0-13.573-5.986-13.573-13.627c0-4.363,1.92-8.627,5.268-11.695
					c2.159-1.979,4.876-3.326,7.455-3.695c0.639-0.091,1.283-0.138,1.913-0.138c9.397,0,14.523,9.722,14.523,14.717
					C128.928,113.491,122.712,122.181,113.341,122.181z M114.404,97.525c-0.417,0-0.846,0.031-1.276,0.092
					c-1.678,0.24-3.566,1.197-5.051,2.557c-2.421,2.219-3.81,5.274-3.81,8.379c0,5.929,4.675,9.128,9.073,9.128
					c7.202,0,11.087-7.055,11.087-9.939C124.428,105.363,121.304,97.525,114.404,97.525z"/>
			</g>
			<g>
				<path style="fill:#525D7D;" d="M136.778,42.264c-0.725,0-1.437-0.35-1.87-0.998c-9.221-13.772-16.592-25.29-23.068-36.054
					C86.607,18.122,63.682,29.655,40.037,39.789c-1.141,0.486-2.464-0.038-2.954-1.182c-0.489-1.142,0.04-2.465,1.182-2.954
					c24.098-10.327,47.498-22.144,73.398-35.404c1.058-0.543,2.349-0.17,2.957,0.849c6.698,11.216,14.332,23.184,24.026,37.663
					c0.691,1.033,0.415,2.43-0.617,3.121C137.644,42.141,137.209,42.264,136.778,42.264z"/>
			</g>
			<g>
				<path style="fill:#525D7D;" d="M159.581,142.067c-0.687,0-1.366-0.313-1.807-0.908c-0.741-0.998-0.533-2.406,0.464-3.148
					c9.97-7.407,20.315-13.946,28.584-18.996c-11.24-18.08-23.373-35.828-35.121-53.011c-2.27-3.32-4.538-6.638-6.799-9.957
					c-0.7-1.027-0.435-2.427,0.592-3.125c1.03-0.7,2.427-0.435,3.126,0.592c2.261,3.317,4.527,6.633,6.796,9.951
					c12.193,17.835,24.802,36.278,36.427,55.112c0.315,0.511,0.413,1.125,0.273,1.708c-0.139,0.583-0.507,1.087-1.019,1.397
					c-8.473,5.142-19.559,12.055-30.175,19.943C160.519,141.922,160.049,142.067,159.581,142.067z"/>
			</g>
			<g>
				<path style="fill:#525D7D;" d="M157.588,158.012c-0.778,0-1.534-0.403-1.949-1.125c-0.621-1.077-0.252-2.453,0.823-3.073
					c4.587-2.647,9.22-5.163,13.702-7.596c3.309-1.797,6.71-3.644,10.048-5.522c-0.706-0.981-1.405-1.971-2.106-2.962
					c-1.661-2.348-3.379-4.776-5.147-7.083c-0.756-0.986-0.57-2.398,0.418-3.153c0.981-0.757,2.396-0.57,3.153,0.418
					c1.821,2.374,3.564,4.838,5.249,7.221c1.175,1.66,2.346,3.316,3.543,4.943c0.381,0.516,0.521,1.17,0.39,1.799
					c-0.133,0.627-0.527,1.169-1.084,1.487c-4.067,2.327-8.261,4.605-12.316,6.806c-4.455,2.42-9.063,4.923-13.599,7.539
					C158.357,157.916,157.97,158.012,157.588,158.012z"/>
			</g>
			<g>
				<path style="fill:#525D7D;" d="M90.214,34.431c-0.901,0-1.75-0.545-2.097-1.434c-0.45-1.159,0.124-2.462,1.282-2.913
					c2.65-1.03,5.142-2.884,7.552-4.678c3.849-2.865,7.829-5.828,12.817-5.828c2.597,0,3.856,2.442,4.968,4.596
					c0.746,1.447,1.591,3.087,2.622,3.73c1.053,0.659,1.374,2.048,0.716,3.101c-0.659,1.053-2.049,1.374-3.101,0.716
					c-2.078-1.299-3.275-3.621-4.237-5.485c-0.369-0.716-0.907-1.759-1.255-2.153c-3.386,0.126-6.525,2.462-9.844,4.931
					c-2.65,1.973-5.39,4.013-8.606,5.264C90.762,34.383,90.485,34.431,90.214,34.431z"/>
			</g>
			<g>
				<path style="fill:#525D7D;" d="M160.448,127.091c-0.645,0-1.284-0.275-1.73-0.81c-0.795-0.953-0.666-2.373,0.289-3.168
					c3.956-3.297,7.295-5.27,9.736-6.71c1.227-0.725,2.601-1.535,3.067-2.005c-0.625-1.302-4.634-4.81-7.332-7.171
					c-0.936-0.819-1.031-2.239-0.212-3.174c0.819-0.937,2.24-1.031,3.174-0.212c6.54,5.722,9.183,8.158,8.917,11.03
					c-0.224,2.395-2.364,3.657-5.327,5.408c-2.305,1.361-5.465,3.227-9.142,6.291C161.466,126.919,160.955,127.091,160.448,127.091z
					 M171.878,114.585h0.016H171.878z"/>
			</g>
		</g>
	</g>
</g>
<g id="Layer_1">
</g>
</svg>
