<?xml version="1.0" encoding="iso-8859-1"?>
<!-- Generator: Adobe Illustrator 21.0.2, SVG Export Plug-In . SVG Version: 6.00 Build 0)  -->
<svg version="1.1" xmlns="http://www.w3.org/2000/svg" xmlns:xlink="http://www.w3.org/1999/xlink" x="0px" y="0px"
	 viewBox="0 0 231.036 184.703" style="enable-background:new 0 0 231.036 184.703;" xml:space="preserve">
<g id="_x31_10">
	<g>
		<g>
			<path style="fill:#E0DFE6;" d="M63.543,32.41c-8.846-10.666-27.307,3.023-32.394,11.308c-1.872,3.049-3.395,7.513-4.149,12.307
				c-0.577-9.006,0.327-16.753,8.581-22.646c2.522-1.801,3.706-4.935,2.049-7.812c-1.806-3.136-3.611-6.271-5.417-9.406
				c-2.765-4.801-9.706-2.748-10.565,1.882c-6.232,3.824-10.647,11.074-13.376,17.478c-4.203,9.863-4.941,20.324-3.389,30.86
				c0.413,2.807,4.383,5.007,6.977,3.961c5.25-2.117,12.455-3.448,14.636-8.501c-0.119,8.259,2.448,16.244,9.78,18.754
				c0.667,0.228,1.511-0.263,1.663-0.944c1.006-4.51-0.652-8.944-1.063-13.463c-0.512-5.63,0.081-11.225,2.889-16.256
				c2.574-4.613,6.612-7.653,11.404-9.67c3.834-1.614,8.375-1.441,11.841-3.715C64.525,35.554,64.659,33.755,63.543,32.41z"/>
			<path style="fill:#E0DFE6;" d="M67.732,109.467c-7.097-0.409-13.675,2.205-20.995,1.094c-5.334-0.81-10.635-3.801-16.037-3.064
				c-0.8,0.109-1.123,1.079-0.993,1.748c2.667,13.727,31.348,17.383,40.771,10.364C74.752,116.426,73.423,109.795,67.732,109.467z"
				/>
			<path style="fill:#E0DFE6;" d="M123.071,44.653c-0.649-14.986-17.851-31.95-32.809-31.347c-1.088,0.044-2.067,1.326-1.347,2.347
				c6.515,9.242,21.365,18.116,20.547,30.835c-0.371,5.771,7.788,9.143,11.621,4.813c0.113-0.128,0.227-0.256,0.34-0.384
				C122.893,49.255,123.535,46.805,123.071,44.653z"/>
			<path style="fill:#E0DFE6;" d="M85.398,76.536c-2.351-1.945-3.929-5.195-6.029-7.476c-1.045-1.135-2.117-2.149-3.348-3.084
				c-1.522-1.156-3.349-1.892-4.779-3.148c-1.588-1.395-3.656,0.706-2.304,2.304c1.109,1.31,1.674,3.271,2.383,4.837
				c0.739,1.632,1.575,3.211,2.317,4.842c1.315,2.893,1.92,6.962,4.485,9c2.173,1.727,5.153,2.122,7.275,0
				C87.22,81.988,87.549,78.316,85.398,76.536z"/>
			<path style="fill:#E0DFE6;" d="M103.804,56.515c-3.733-0.156-6.625,4.388-8.675,6.979c-2.791,3.528-6.56,7.078-8.179,11.284
				c-1.378,3.582,3.301,6.688,6.314,4.854c4.35-2.647,8.031-8.963,10.32-13.426C104.419,64.581,108.238,56.7,103.804,56.515z"/>
			<path style="fill:#E0DFE6;" d="M134.795,73.767c-5.45-4.608-7.754-14.015-15.806-15.412c-2.191-0.38-4.613,1.376-3.829,3.829
				c1.12,3.509,3.345,6.645,5.033,9.903c1.787,3.448,3.29,7.407,6.123,10.159C131.912,87.681,140.634,78.703,134.795,73.767z"/>
			<path style="fill:#E0DFE6;" d="M161.373,55.7c-1.95-1.505-4.302-1.133-6.124,0.365c-3.128,2.57-5.799,6.478-7.973,9.871
				c-1.915,2.988-4.779,6.928-3.712,10.61c0.416,1.435,1.887,2.236,3.326,1.889c3.477-0.84,5.605-4.946,7.762-7.568
				c2.561-3.114,5.511-5.932,7.923-9.15C163.964,59.862,163.031,56.98,161.373,55.7z"/>
			<path style="fill:#E0DFE6;" d="M56.402,158.839c-1.514-5.212-4.003-10.215-9.283-12.138c-3.514-1.279-7.787,2.078-7.547,5.749
				c0.302,4.622,3.632,8.351,4.894,12.7c-0.935,0.07-1.87,0.141-2.799,0.271c-2.002,0.236-4.02,0.507-5.997,0.903
				c-3.974,0.795-7.495,1.952-10.515,4.7c-1.569,1.428-0.593,3.774,1.162,4.403c5.14,1.843,10.894,1.048,16.273,1.282
				c4.748,0.207,11.005,0.712,13.873-4.077C58.685,168.922,57.532,162.727,56.402,158.839z"/>
			<path style="fill:#E0DFE6;" d="M80.485,144.525c-0.227-3.7-2.992-6.863-6.863-6.863c-3.218,0-6.954,2.889-6.886,6.382
				c-0.359,0.094-0.702,0.163-0.804,0.191c-2.312,0.617-4.396,0.931-6.625,1.895c-3.956,1.712-2.236,7.275,1.101,8.426
				c3.951,1.362,8.265,2.348,12.358,0.949C77.4,153.919,80.792,149.538,80.485,144.525z"/>
			<path style="fill:#E0DFE6;" d="M94.997,164.968c-2.846-4.757-9.698-3.522-11.368,1.486c-0.579,1.735-0.609,3.382-0.631,5.18
				c0.002,0.056-0.002,0.112-0.001,0.168c-0.077,0.03-0.144,0.055-0.188,0.067c-1.152,0.333-2.315,0.67-3.48,0.953
				c-2.305,0.558-4.498,0.995-6.577,2.197c-2.876,1.663-2.437,5.372,0,7.124c4.616,3.318,13.589,3.162,18.665,0.956
				C97.886,180.288,98.22,170.356,94.997,164.968z"/>
			<path style="fill:#E0DFE6;" d="M160.627,160.743c-1.805-4.703-8.029-6.044-10.898-1.424c-1.78,2.866-1.756,6.328-1.881,9.63
				c-0.049,1.306-0.068,2.661-0.013,3.967c0.047,0.625,0.106,1.249,0.164,1.873c-0.752,0.348-1.677,0.907-2.076,1.107
				c-0.956,0.48-2.087,0.964-2.798,1.791c-0.968,1.124-1.475,2.767-0.453,4.006c3.179,3.854,12.146,1.892,14.658-1.911
				c1.459-2.209,2.22-5.283,2.753-7.85C160.81,168.436,161.933,164.145,160.627,160.743z"/>
			<path style="fill:#E0DFE6;" d="M187.586,156.191c-0.586-3.807,0.154-10.318-2.837-13.26c-2.847-2.8-8.589-2.612-10.477,1.35
				c-3.174,6.66,0.651,15.598,1.07,22.663c0.057,0.959-0.36,3.253,0.158,3.869c-1.41,0.361-3.214,0.547-3.987,0.76
				c-2.959,0.816-5.751,1.35-8.021,3.49c-0.85,0.801-0.732,2.123,0,2.941c3.114,3.477,8.878,3.885,13.313,3.817
				c5.659-0.086,10.18-2.008,11.186-8.034C188.961,167.984,188.476,161.966,187.586,156.191z"/>
			<path style="fill:#E0DFE6;" d="M213.535,148.779c-0.273-6.799,0.272-12.584-3.995-18.076c-2.172-2.795-6.935-1.632-8.493,1.094
				c-3.443,6.024-1.644,13.125-1.411,19.836c0.132,3.807,0.219,7.614,0.36,11.42c0.069,1.88,0.595,4.567,0.632,6.881
				c-1.57,0.502-3.235,0.815-4.741,1.355c-3.163,1.134-4.881,6.441-1.06,8.11c4.364,1.906,10.47,3.108,14.826,0.281
				c3.786-2.458,4.035-6.822,4.197-10.915C214.111,162.123,213.802,155.417,213.535,148.779z"/>
			<path style="fill:#E0DFE6;" d="M164.8,20.515c-3.849-0.877-7.867,1.156-8.952,5.083c-0.013,0.042-0.016,0.055-0.027,0.092
				c-0.068,0.114-0.14,0.225-0.215,0.334c-0.061,0.048-0.118,0.094-0.171,0.144c-0.108,0.026-0.202,0.05-0.273,0.068
				c-0.299,0.028-0.598,0.055-0.898,0.074c-2.232,0.165-4.213,1.257-5.083,3.419c-0.823,2.046-0.473,4.48,1.15,6.076
				c2.915,2.866,7.447,3.745,11.297,2.439c4.181-1.418,6.994-4.586,8.255-8.776C170.98,25.822,168.57,21.374,164.8,20.515z"/>
			<path style="fill:#E0DFE6;" d="M204.272,33.542c-0.26-2.516-1.163-4.675-3.449-6.013c-2.161-1.264-4.867-1.244-7.029,0
				c-1.638,0.943-2.902,2.305-3.677,4.032c-0.053,0.119-0.087,0.204-0.113,0.273c-0.023,0.012-0.042,0.018-0.08,0.047
				c-0.098,0.112-0.209,0.209-0.319,0.308c-0.05,0.007-0.097,0.013-0.141,0.019c-0.202-0.027-0.403-0.054-0.605-0.081
				c-0.056-0.017-0.097-0.03-0.183-0.054c-3.089-0.947-5.879,1.604-6.025,4.59c-0.255,5.202,4.981,8.713,9.775,8.42
				c2.968-0.181,5.576-1.373,7.772-3.367C202.419,39.7,204.594,36.659,204.272,33.542z"/>
			<g>
				<path style="fill:#E0DFE6;" d="M215.826,11.853C214.946,11.674,215.495,11.847,215.826,11.853L215.826,11.853z"/>
				<path style="fill:#E0DFE6;" d="M228.339,8.121c-2.7-2.086-6.719-1.959-9.169,0.546c-0.554,0.567-1.04,1.198-1.506,1.84
					c0,0-0.158,0.244-0.312,0.484c-0.054,0.031-0.465,0.557-0.509,0.631c-0.081,0.086-0.123,0.108-0.204,0.162
					c-0.228,0.065-0.354,0.082-0.479,0.099c0.059-0.02-0.002-0.034-0.204-0.041c-0.033,0.009-0.079,0.012-0.131,0.011
					c0.056,0.011,0.094,0.018,0.163,0.033c-2.176-0.461-4.927,0.625-5.396,3.064c-0.984,5.117,3.203,9.032,8.186,9.173
					c4.476,0.127,9.258-3.074,11.359-6.994C231.794,14.04,231.139,10.284,228.339,8.121z"/>
			</g>
			<path style="fill:#E0DFE6;" d="M83.175,14.382c-1.563-0.202-2.123,1.7-1.616,2.817c2.188,4.819,5.391,8.946,7.855,13.643
				c2.555,4.871,3.467,10.247,5.863,15.114c2.736,5.558,10.838,2.508,11.046-2.992C106.781,30.866,95.124,15.923,83.175,14.382z"/>
			<path style="fill:#E0DFE6;" d="M182.133,80.189c0.971-2.157,0.822-4.747-1.344-6.741c-2.205-2.03-3.688-5.776-5.336-8.288
				c-1.883-2.87-3.709-5.995-6.766-7.725c-2.078-1.176-5.32-0.205-5.819,2.367c-0.869,4.479,0.986,8.622,2.804,12.65
				c1.118,2.478,2.43,5.542,4.236,7.967c-0.413,0.367-0.818,0.742-1.231,1.109c-0.866-2.112-2.972-3.63-5.57-2.761
				c-6.312,2.112-10.808,7.438-15.693,11.824c-6.006,5.391-11.972,10.824-17.902,16.298c-5.576,5.147-11.225,10.246-16.482,15.725
				c-3.02,3.148-6.29,6.233-8.037,10.099c-8.03-6.415-16.305-12.34-25.85-16.517c-0.789-0.345-1.589-0.082-1.884,0.766
				c-2.832,8.133,5.575,14.474,10.973,19.364c3.979,3.605,8.087,7.076,12.212,10.51c0.396,0.33,0.788,0.671,1.179,1.017
				c0.793,1.36,1.776,2.621,2.865,3.996c1.072,1.355,3.365,1.999,5.316,1.741c0.798,0.264,1.637,0.44,2.532,0.494
				c3.82,0.233,6.755-3.554,6.742-7.134c9.355-8.173,17.905-17.587,26.87-26.035c11.614-10.944,23.42-21.68,35.383-32.241
				C184.32,86.036,183.994,82.623,182.133,80.189z"/>
		</g>
		<g>
			<g>
				<path style="fill:#525D7D;" d="M112.201,160.617c-0.613-0.001-1.193-0.259-1.602-0.711L42.382,84.411
					c-0.72-0.796-0.745-2-0.061-2.825c2.934-3.541,6.323-7.521,9.91-11.734c3.889-4.566,8.295-9.742,12.767-15.12
					c0.403-0.486,1-0.77,1.631-0.779c33.459-0.457,67.303-1.404,100.59-2.814c0.733-0.023,1.429,0.311,1.853,0.908L189.957,81.5
					c0.623,0.879,0.503,2.082-0.281,2.821c-24.385,22.962-59.435,57.514-75.878,75.589
					C113.389,160.36,112.809,160.617,112.201,160.617z M46.841,82.905l65.371,72.345c16.774-18.204,49.544-50.512,73.137-72.782
					l-19.121-26.964c-32.621,1.37-65.763,2.297-98.546,2.754c-4.268,5.122-8.451,10.035-12.163,14.394
					C52.42,76.29,49.47,79.755,46.841,82.905z"/>
			</g>
			<g>
				<path style="fill:#525D7D;" d="M44.057,85.033c-1.18,0-2.144-0.949-2.158-2.133c-0.014-1.192,0.94-2.17,2.133-2.185
					l142.999-1.732c1.207,0,2.17,0.95,2.185,2.133c0.014,1.192-0.94,2.17-2.133,2.185C187.082,83.301,44.084,85.033,44.057,85.033z"
					/>
			</g>
			<g>
				<path style="fill:#525D7D;" d="M90.667,83.586c-0.604,0-1.18-0.252-1.589-0.697c-4.882-5.306-9.596-10.032-14.586-15.037
					c-3.158-3.167-6.424-6.443-9.711-9.854c-0.827-0.859-0.802-2.226,0.056-3.053c0.858-0.826,2.227-0.801,3.053,0.056
					c3.262,3.385,6.514,6.647,9.659,9.801c4.28,4.291,8.689,8.714,13.096,13.426c4.134-4.526,8.326-8.715,12.396-12.781
					c3.775-3.773,7.68-7.674,11.522-11.827c0.808-0.874,2.174-0.929,3.051-0.119c0.875,0.81,0.928,2.175,0.119,3.051
					c-3.899,4.215-7.834,8.147-11.64,11.949c-4.549,4.545-9.253,9.244-13.815,14.361C91.873,83.319,91.294,83.581,90.667,83.586z"/>
			</g>
			<g>
				<path style="fill:#525D7D;" d="M143.093,83.834c-0.574,0-1.145-0.226-1.569-0.675c-4.797-5.073-16.835-17.825-24.979-26.663
					c-0.808-0.877-0.752-2.243,0.125-3.051c0.878-0.808,2.242-0.751,3.051,0.124c8.127,8.82,20.149,21.555,24.941,26.622
					c0.82,0.867,0.782,2.233-0.085,3.052C144.159,83.638,143.625,83.834,143.093,83.834z"/>
			</g>
			<g>
				<path style="fill:#525D7D;" d="M146.937,83.787c-0.475,0-0.952-0.156-1.352-0.477c-0.929-0.747-1.077-2.106-0.33-3.035
					c4.2-5.224,8.332-10.624,12.328-15.846c2.915-3.809,5.828-7.616,8.792-11.391c0.734-0.938,2.093-1.102,3.031-0.365
					c0.938,0.736,1.101,2.093,0.365,3.031c-2.951,3.76-5.854,7.553-8.758,11.348c-4.012,5.242-8.16,10.662-12.393,15.927
					C148.194,83.511,147.569,83.787,146.937,83.787z"/>
			</g>
			<g>
				<path style="fill:#525D7D;" d="M54.556,114.251c-0.497,0-0.996-0.006-1.499-0.018c-12.761-0.301-26.338-6.393-36.32-16.294
					C5.57,86.861-0.368,72.053,0.018,56.24C0.579,33.206,15.405,13.344,36.911,6.816C42.926,4.989,48.369,4.051,53.55,3.95
					c27.28-0.498,49.102,15.106,55.711,39.806c0.308,1.152-0.376,2.335-1.528,2.644c-1.148,0.308-2.335-0.376-2.644-1.528
					C99.012,22.154,78.806,7.789,53.633,8.267c-4.778,0.094-9.837,0.971-15.468,2.681C18.445,16.934,4.85,35.178,4.334,56.346
					C3.978,70.958,9.463,84.641,19.778,94.874c9.217,9.144,21.695,14.767,33.38,15.043c0.936,0.021,1.864,0.021,2.777,0
					c1.219-0.049,2.181,0.916,2.21,2.107c0.028,1.192-0.915,2.182-2.107,2.21C55.547,114.245,55.053,114.251,54.556,114.251z"/>
			</g>
			<g>
				<path style="fill:#525D7D;" d="M34.47,82.049c-0.548,0-1.097-0.207-1.517-0.623C26.52,75.072,23.1,66.57,23.321,57.484
					c0.322-13.222,8.839-24.626,21.194-28.376c3.43-1.042,6.542-1.577,9.512-1.635c12.667-0.267,23.544,5.718,29.161,15.941
					c0.574,1.045,0.193,2.357-0.852,2.931c-1.046,0.576-2.357,0.193-2.932-0.853c-4.83-8.789-14.316-13.863-25.293-13.703
					c-2.567,0.05-5.295,0.524-8.341,1.45c-10.569,3.208-17.855,12.994-18.132,24.35c-0.192,7.882,2.773,15.256,8.35,20.763
					c0.848,0.838,0.857,2.205,0.019,3.054C35.584,81.834,35.026,82.049,34.47,82.049z"/>
			</g>
			<g>
				<path style="fill:#525D7D;" d="M42.004,34.505c-0.753,0-1.484-0.394-1.881-1.096l-0.092-0.163
					c-3.8-6.716-7.73-13.661-11.497-20.54c-0.572-1.046-0.189-2.358,0.857-2.931c1.046-0.571,2.358-0.188,2.931,0.857
					c3.752,6.852,7.674,13.784,11.467,20.487l0.092,0.162c0.587,1.038,0.222,2.355-0.816,2.943
					C42.729,34.414,42.364,34.505,42.004,34.505z"/>
			</g>
			<g>
				<path style="fill:#525D7D;" d="M3.814,73.408c-1.043,0-1.961-0.758-2.13-1.821c-0.187-1.177,0.616-2.283,1.794-2.47
					c2.279-0.361,4.565-0.712,6.855-1.063c5.313-0.815,10.808-1.658,16.151-2.635c1.163-0.214,2.297,0.561,2.512,1.736
					c0.214,1.172-0.563,2.298-1.736,2.512c-5.403,0.987-10.928,1.835-16.272,2.655c-2.283,0.35-4.562,0.699-6.834,1.06
					C4.041,73.399,3.927,73.408,3.814,73.408z"/>
			</g>
			<g>
				<path style="fill:#525D7D;" d="M22.096,171.316c-0.748,0-1.446-0.389-1.84-1.031c-0.415-0.677-0.425-1.526-0.027-2.212
					c4.232-7.288,12.639-19.605,17.272-26.299c0.425-0.612,1.144-0.969,1.879-0.927c0.745,0.036,1.418,0.453,1.782,1.104
					c3.772,6.76,7.912,13.461,11.916,19.942l2.366,3.836c0.387,0.629,0.426,1.413,0.103,2.077c-0.324,0.665-0.965,1.117-1.699,1.2
					c-9.983,1.126-20.103,1.678-29.889,2.212l-1.744,0.095C22.175,171.314,22.135,171.316,22.096,171.316z M39.097,147.066
					c-3.928,5.715-9.275,13.625-13.047,19.712c7.877-0.432,15.942-0.905,23.918-1.703l-0.564-0.914
					C45.969,158.6,42.433,152.876,39.097,147.066z"/>
			</g>
			<g>
				<path style="fill:#525D7D;" d="M57.077,150.001c-0.77,0-1.482-0.411-1.869-1.077c-0.387-0.669-0.387-1.493,0-2.163
					c2.064-3.569,4.329-7.012,6.52-10.343c0.832-1.264,1.664-2.528,2.484-3.799c0.415-0.642,1.127-1.032,1.905-0.985
					c0.765,0.032,1.455,0.468,1.815,1.144c2.154,4.056,4.703,8.334,7.79,13.079c0.426,0.654,0.465,1.489,0.102,2.181
					c-0.363,0.691-1.072,1.133-1.853,1.155c-2.414,0.066-4.878,0.227-7.26,0.382C63.582,149.779,60.345,149.991,57.077,150.001z
					 M65.865,137.988c-0.176,0.268-0.352,0.536-0.529,0.803c-1.458,2.217-2.951,4.486-4.383,6.793
					c1.842-0.081,3.678-0.2,5.479-0.318c1.198-0.079,2.416-0.158,3.644-0.226C68.537,142.587,67.14,140.249,65.865,137.988z"/>
			</g>
			<g>
				<path style="fill:#525D7D;" d="M68.679,178.917l-0.353-0.001c-0.786,0-1.51-0.427-1.89-1.116
					c-0.38-0.688-0.355-1.529,0.064-2.194l2.124-3.383c3.44-5.489,6.998-11.164,10.826-16.562c0.434-0.612,1.158-0.957,1.905-0.905
					c0.749,0.05,1.418,0.485,1.768,1.15c0.81,1.541,1.605,3.092,2.401,4.646c2.41,4.703,4.901,9.565,7.799,14.047
					c0.421,0.651,0.46,1.478,0.103,2.167c-0.357,0.688-1.056,1.132-1.831,1.163c-2.709,0.108-5.419,0.264-8.128,0.42
					C78.63,178.628,73.629,178.917,68.679,178.917z M80.942,161.082c-3.007,4.416-5.871,8.987-8.659,13.434
					c3.644-0.058,7.335-0.271,10.934-0.479c1.509-0.087,3.019-0.174,4.528-0.253c-2.194-3.71-4.156-7.536-6.066-11.265
					C81.434,162.041,81.188,161.561,80.942,161.082z"/>
			</g>
			<g>
				<path style="fill:#525D7D;" d="M142.115,179.593c-0.502,0-0.99-0.175-1.379-0.498c-0.443-0.368-0.72-0.897-0.772-1.47
					c-0.34-3.803-0.623-7.602-0.907-11.403c-0.321-4.297-0.652-8.741-1.063-13.106c-0.056-0.597,0.138-1.19,0.536-1.638
					c0.398-0.448,0.964-0.71,1.564-0.723c4.265-0.098,8.576-0.53,12.38-0.912c1.145-0.105,2.187,0.697,2.352,1.841
					c1.243,8.635,2.194,16.487,2.906,24.007c0.109,1.15-0.708,2.183-1.852,2.342c-5.176,0.719-11.207,1.324-13.56,1.55
					C142.253,179.59,142.184,179.593,142.115,179.593z M142.501,154.991c0.322,3.66,0.596,7.336,0.862,10.911
					c0.228,3.055,0.456,6.111,0.713,9.168c3.253-0.331,6.467-0.697,9.156-1.041c-0.621-6.219-1.406-12.696-2.389-19.684
					C148.203,154.604,145.377,154.856,142.501,154.991z"/>
			</g>
			<g>
				<path style="fill:#525D7D;" d="M168.196,176.99l-3.57-0.009c-1.154-0.004-2.101-0.916-2.149-2.069
					c-0.463-11.082-1.009-22.946-1.861-34.619c-0.043-0.59,0.158-1.172,0.556-1.609c0.398-0.438,0.958-0.693,1.549-0.706
					c2.327-0.055,4.637,0.027,6.942,0.106c2.753,0.093,5.5,0.19,8.284,0.046c1.179-0.067,2.174,0.822,2.265,1.988
					c0.928,11.918,1.698,23.93,2.347,34.253c0.075,1.187-0.825,2.211-2.011,2.29C176.172,176.95,172.025,176.99,168.196,176.99z
					 M166.704,172.669l1.492,0.003c3.117,0,6.444-0.027,9.916-0.197c-0.581-9.196-1.255-19.58-2.047-29.964
					c-2.193,0.035-4.371-0.039-6.55-0.112c-1.473-0.051-2.948-0.101-4.428-0.115C165.8,152.541,166.289,162.882,166.704,172.669z"/>
			</g>
			<g>
				<path style="fill:#525D7D;" d="M196.804,177.179c-2.439,0-4.594-0.153-6.585-0.465c-1.016-0.16-1.778-1.014-1.822-2.042
					c-0.33-7.756-0.806-15.652-1.266-23.289c-0.5-8.281-1.017-16.844-1.349-25.278c-0.046-1.187,0.874-2.189,2.061-2.242
					c3.433-0.154,6.909-0.35,10.385-0.547l4.288-0.24c1.175-0.077,2.159,0.8,2.268,1.953c0.449,4.777,0.503,8.976,0.564,13.84
					c0.101,7.982,0.227,17.916,2.186,35.52c0.065,0.588-0.112,1.176-0.493,1.628c-0.38,0.453-0.929,0.73-1.519,0.766l-1.202,0.077
					C201.871,177.017,199.34,177.179,196.804,177.179z M192.631,172.67c3.03,0.303,6.803,0.171,10.365-0.052
					c-1.749-16.423-1.87-25.963-1.967-33.693c-0.051-4.043-0.097-7.619-0.373-11.419l-2.185,0.122
					c-2.769,0.157-5.539,0.313-8.287,0.448c0.33,7.697,0.8,15.489,1.256,23.047C191.866,158.184,192.306,165.466,192.631,172.67z"/>
			</g>
			<g>
				<path style="fill:#525D7D;" d="M156.196,33.194c-0.125,0-0.249-0.003-0.374-0.009c-4.371-0.213-7.818-4.104-7.685-8.673
					c0.048-1.56,0.521-3.055,1.37-4.328c0.387-0.58,0.751-1.013,1.259-1.498c1.184-1.119,2.827-1.811,4.634-1.957
					c2.343-0.194,4.938,0.712,6.754,2.354c1.633,1.476,2.557,3.447,2.6,5.551c0.047,2.294-0.836,4.441-2.485,6.046
					C160.632,32.269,158.386,33.194,156.196,33.194z M156.044,21.021c-0.1,0-0.199,0.004-0.297,0.012
					c-0.805,0.065-1.557,0.359-2.009,0.786c-0.304,0.289-0.453,0.483-0.637,0.758c-0.401,0.601-0.625,1.314-0.647,2.063
					c-0.064,2.194,1.574,4.133,3.579,4.231c1.094,0.044,2.366-0.453,3.226-1.29c0.553-0.538,1.207-1.471,1.179-2.86
					c-0.024-1.155-0.654-1.962-1.178-2.436C158.388,21.5,157.156,21.021,156.044,21.021z"/>
			</g>
			<g>
				<path style="fill:#525D7D;" d="M191.255,39.069c-0.103,0.001-0.207-0.002-0.311-0.006c-3.829-0.157-7.986-3.563-8.071-8.385
					c-0.08-4.605,3.305-8.512,7.708-8.898c0.174-0.015,0.349-0.025,0.523-0.03c3.487-0.125,8.584,2.137,8.977,7.507
					c0.187,2.556-0.784,5.135-2.662,7.073C195.723,38.082,193.491,39.069,191.255,39.069z M191.338,26.064
					c-0.035,0-0.07,0.001-0.104,0.001c-0.096,0.003-0.18,0.007-0.264,0.015c-2.129,0.186-3.82,2.214-3.779,4.523
					c0.043,2.434,2.356,4.081,3.93,4.146c1.109,0.042,2.276-0.474,3.197-1.424c1.008-1.04,1.552-2.443,1.456-3.754
					C195.581,26.912,192.723,26.064,191.338,26.064z"/>
			</g>
			<g>
				<path style="fill:#525D7D;" d="M218.992,17.068c-0.07,0-0.138-0.001-0.208-0.003c-4.655-0.103-8.271-3.91-8.231-8.666
					c0.021-2.427,1.028-4.753,2.761-6.382c1.079-1.008,2.463-1.519,3.435-1.77c0.434-0.112,0.897-0.188,1.413-0.228
					c2.214-0.169,4.817,0.835,6.761,2.639c1.806,1.675,2.797,3.778,2.79,5.919c-0.008,2.23-0.962,4.434-2.617,6.047
					C223.474,16.204,221.314,17.068,218.992,17.068z M216.27,5.166c-0.878,0.825-1.388,2.016-1.399,3.27
					c-0.02,2.408,1.702,4.262,4.008,4.313c1.581,0.032,2.613-0.644,3.203-1.218c0.818-0.798,1.309-1.907,1.312-2.97
					c0.004-1.242-0.88-2.248-1.408-2.738c-1.038-0.961-2.456-1.588-3.486-1.498c-0.223,0.018-0.448,0.046-0.668,0.102
					C217.166,4.6,216.583,4.876,216.27,5.166z"/>
			</g>
			<g>
				<path style="fill:#525D7D;" d="M131.998,48.585c-0.538,0-1.078-0.2-1.496-0.603c-0.859-0.826-0.886-2.193-0.06-3.052
					c5.911-6.148,12.368-11.889,18.614-17.44c0.891-0.792,2.271-0.723,3.062,0.167c0.792,0.891,0.726,2.243-0.165,3.035
					c-6.211,5.522-12.605,11.206-18.399,17.231C133.131,48.363,132.565,48.585,131.998,48.585z"/>
			</g>
			<g>
				<path style="fill:#525D7D;" d="M183.811,30.533c-0.025,0-0.051-0.001-0.076-0.001c-3.875-0.134-7.663-0.707-11.326-1.262
					c-2.994-0.454-5.823-0.882-8.681-1.087c-1.189-0.085-2.085-1.118-2-2.307c0.084-1.189,1.101-2.094,2.307-2
					c3.028,0.216,6.074,0.678,9.019,1.124c3.541,0.536,7.203,1.091,10.828,1.216c1.191,0.041,2.125,1.04,2.083,2.232
					C185.927,29.614,184.969,30.533,183.811,30.533z"/>
			</g>
			<g>
				<path style="fill:#525D7D;" d="M197.874,28.423c-0.412,0-0.828-0.117-1.196-0.363c-0.992-0.661-1.26-2.002-0.599-2.994
					c1.516-2.273,5.093-4.986,8.879-7.858c2.574-1.952,5.235-3.97,6.865-5.6c0.842-0.843,2.21-0.843,3.053,0
					c0.843,0.843,0.843,2.21,0,3.053c-1.838,1.839-4.619,3.948-7.308,5.987c-3.179,2.411-6.784,5.145-7.895,6.812
					C199.256,28.086,198.571,28.423,197.874,28.423z"/>
			</g>
		</g>
	</g>
</g>
<g id="Layer_1">
</g>
</svg>
