<?xml version="1.0" encoding="iso-8859-1"?>
<!-- Generator: Adobe Illustrator 21.0.2, SVG Export Plug-In . SVG Version: 6.00 Build 0)  -->
<svg version="1.1" xmlns="http://www.w3.org/2000/svg" xmlns:xlink="http://www.w3.org/1999/xlink" x="0px" y="0px"
	 viewBox="0 0 255.881 189.955" style="enable-background:new 0 0 255.881 189.955;" xml:space="preserve">
<g id="_x31_11">
	<g>
		<g>
			<path style="fill:#E0DFE6;" d="M101.839,151.305c-1.356-10.604-1.708-23.085-6.387-32.785c-1.346-2.79-3.816-3.446-6.097-2.802
				c-0.434-2.207-1.041-4.39-2.303-6.216c-1.654-2.393-4.832-1.836-5.858,0.766c-1.074,2.725-0.891,5.877-0.709,8.821
				c-4.485,4.955-3.017,10.854-2.66,17.147c0.42,7.402-0.137,14.982,0.506,22.344c-0.145,0.933-0.225,1.612-0.255,2.091
				c-1.557,0.311-3.114,0.622-4.671,0.933c-3.542,0.708-7.047,1.48-10.554,2.344c-5.765,1.42-11.736,2.408-16.485,6.096
				c-1.754,1.362-0.452,3.825,1.176,4.454c0.383,0.148,0.779,0.275,1.176,0.399c-2.005,0.411-3.97,0.942-5.856,1.671
				c-3.822,1.477-4.166,6.774,0,8.132c10.512,3.428,23.208,2.133,34.143,2.047c8.051-0.064,17.191-0.667,22.812-7.225
				C106.284,171.975,102.967,160.128,101.839,151.305z"/>
			<path style="fill:#E0DFE6;" d="M31.849,136.575c-0.355-0.664-0.798-1.246-1.276-1.831c-0.178-0.218-0.41-0.595-0.468-0.588
				c-0.292-1.275-0.036-2.842,0.078-4.075c0.205-2.216,0.692-4.434,0.879-6.658c0.426-0.642,0.521-1.468,0.019-2.283
				c-4.254-6.898-10.363,3.809-11.681,7.482c-1.259,3.508-2.007,7.412-0.675,10.99c1.431,3.844,5.67,6.719,9.771,5.208
				C31.955,143.544,33.668,139.975,31.849,136.575z"/>
			<path style="fill:#E0DFE6;" d="M128.538,158.036c-9.086,1.641-22.864-2.147-29.997,5.221c-1.25,1.292-0.921,3.289,0.546,4.239
				c4.81,3.112,11.953,2.144,17.494,2.702c6.028,0.608,11.184,2.193,16.932-0.36C140.638,166.673,135.217,156.83,128.538,158.036z"
				/>
			<path style="fill:#E0DFE6;" d="M120.805,68.96c-0.49,0.156-0.953,0.34-1.404,0.537c-0.272-2.397-2.123-4.477-5.083-4.625
				c-3.964-0.198-7.12,1.397-10.869,2.463c-4.524,1.287-9.163,2.074-13.848,2.448c-8.676,0.694-17.416,0.37-26.09-0.174
				c-13.646-0.856-35.947-6.055-46.981,4.509c-2.32,2.221-0.378,5.618,2.433,5.874c3.749,0.342,7.538,0.269,11.343,0.155
				c-2.386,0.739-4.467,1.962-5.858,4.015c-0.367,0.542-0.315,1.327,0,1.873c4.005,6.953,16.788,6.086,23.67,6.627
				c11.004,0.865,22.07,1.235,33.101,1.605c9.532,0.319,19.38,0.67,28.237-3.461c6.51-3.036,15.337-8.853,16.869-16.328
				C126.975,71.302,124.267,67.86,120.805,68.96z"/>
			<path style="fill:#E0DFE6;" d="M63.384,45.212c0.098-5.871,0.903-12.314-0.613-18.036c-0.761-2.874-4.519-3.092-6.043-0.79
				c-1.506,2.275-2.477,4.897-3.188,7.607c-3.916,1.066-8.461,1.635-11.728,3.998c-1.071,0.774-1.23,1.998-0.389,3.02
				c2.314,2.814,6.18,3.848,9.95,4.138c-0.743,4.043-1.423,8.493-0.307,12.112c1.613,5.23,8.772,6.294,11.649,1.522
				C64.677,55.53,63.324,48.843,63.384,45.212z"/>
			<path style="fill:#E0DFE6;" d="M118.768,11.564c-0.79-0.462-1.276-0.741-1.563-0.899c-0.604-0.52-1.187-1.074-1.792-1.583
				c-3.06-2.579-6.083-5.315-10.129-6.135c-1.511-0.306-3.236,0.688-3.16,2.407c0.156,3.55,1.699,6.632,3.505,9.618
				c2.18,3.605,3.989,6.921,8.133,8.466c3.393,1.265,6.987-1.436,7.992-4.537C122.638,16.169,121.178,12.974,118.768,11.564z"/>
			<path style="fill:#E0DFE6;" d="M227.993,117.212c-7.18-9.358-24.393-23.343-36.747-15.923c-0.963,0.578-1.255,2.06-0.369,2.861
				c7.661,6.926,17.245,10.914,24.544,18.573c0.603,0.632,1.156,1.266,1.664,1.904c0.354,8.325,1.321,15.718,0.066,23.182
				c-0.433,1.424-0.801,2.873-1.017,4.391c-0.73,2.455-1.74,4.938-3.164,7.487c-6.038,10.808-16.103,17.727-25.767,24.992
				c-1.617,1.215-1.397,4.579,1.175,4.338c15.004-1.406,28.418-11.135,36.215-23.827c3.082-5.017,5.518-11.404,6.604-17.992
				C235.67,137.768,234.481,125.668,227.993,117.212z"/>
			<path style="fill:#E0DFE6;" d="M172.237,122.222c-8.197-0.455-15.767,6.696-17.828,14.256
				c-1.767,6.483-0.029,15.844,6.696,18.887c2.244,1.015,6.099-0.105,5.681-3.26c-0.514-3.877-1.659-7.768-0.136-11.591
				c1.739-4.367,6.633-5.254,9.657-8.467C179.831,128.303,177.216,122.498,172.237,122.222z"/>
			<path style="fill:#E0DFE6;" d="M254.699,103.26c-0.567-7.297-0.871-14.615-1.31-21.92c-0.407-6.777-0.367-14.067-3.322-20.297
				c-0.379-0.8-1.184-1.116-1.977-1.054c-1.143-3.035-4.605-4.974-8.182-3.028c-5.286,2.876-9.22,8.093-13.874,11.913
				c-5.029,4.128-10.481,8.23-16.228,11.316c-13.161,7.067-23.745-2.275-37.05-0.936c-1.287,0.129-2.609,1.593-1.66,2.893
				c7.846,10.757,26.896,14.791,39.058,10.717c7.105-2.38,13.849-6.596,19.854-11c4.003-2.935,8.917-6.28,12.796-10.184
				c-0.771,5.063-0.746,10.381-0.824,15.143c-0.075,4.567,0.118,9.138,0.35,13.699c0.183,3.599,1.498,8.995,1.121,13.045
				c-3.03,1.718-6.347,3.113-9.59,4.493c-2.275-0.453-4.595,0.685-6.007,3.897c-2.568,5.84,2.667,11.416,8.629,8.629
				c5.232-2.447,13.89-4.678,17.442-9.365C257.54,116.45,255.117,108.647,254.699,103.26z"/>
			<path style="fill:#E0DFE6;" d="M199.82,38.197c-2.256-6.684-4.641-13.743-9.777-18.781c-1.328-1.302-4.169-0.889-4.511,1.191
				c-1.323,8.063,0.622,16.8,2.699,25.156c-0.081,0.168-0.158,0.34-0.218,0.524c-0.437,1.345-0.936,2.686-1.314,4.048
				c-0.566,2.043-0.312,3.534,0.525,5.457c0.565,1.297,1.964,1.79,3.285,1.643c0.305,0.623,0.704,1.192,1.225,1.652
				c0.13,0.115,0.259,0.229,0.389,0.344c3.359,2.967,8.499,2.61,10.919-1.407C206.372,52.495,201.685,43.721,199.82,38.197z"/>
			<path style="fill:#E0DFE6;" d="M197.941,154.089c-5.693,8.321-11.164,15.367-21.7,17.499
				c-11.451,2.317-22.026-1.802-28.208-11.425c-0.414-0.645-1.548-0.8-1.923,0c-6.003,12.839,16.503,19.209,25.042,19.036
				c13.417-0.273,28.815-9.05,32.461-22.718C204.551,152.964,199.884,151.248,197.941,154.089z"/>
			<path style="fill:#E0DFE6;" d="M183.814,113.005c-0.981-0.483-1.971,0.699-1.185,1.537c3.764,4.011,6.951,9.306,9.296,14.285
				c2.477,5.26,2.28,10.865,4.144,16.173c1.168,3.327,6.656,4.036,7.482,0C206.256,131.771,194.739,118.379,183.814,113.005z"/>
			<path style="fill:#E0DFE6;" d="M138.181,102.235c0.659-0.757,1.305-1.524,1.971-2.275c4.18-4.712-2.055-10.71-6.819-6.819
				c-14.828,12.112-29.783,25.548-40.729,41.38c-1.338,1.936,1.338,4.639,3.277,3.277c1.126-0.791,2.236-1.604,3.337-2.428
				c-0.017,0.056-0.04,0.112-0.057,0.168c-0.287,0.973-0.425,1.904-0.483,2.82c-0.306,1.023-0.253,2.078,0.065,3.063
				c0.113,1.292,0.289,2.599,0.388,3.987c0.268,3.741-0.613,7.711,2.383,10.707c4.947,4.947,15.507,0.843,21.223-0.148
				c3.334-0.578,5.437-4.827,4.477-7.885c-2.179-6.936-2.303-14.273,0.662-21.033c2.764-6.302,8.056-11.257,12.198-16.65
				C142.616,107.09,141.019,103.822,138.181,102.235z"/>
			<path style="fill:#E0DFE6;" d="M189.656,44.196c-0.619-0.089-1.23-0.134-1.835-0.15c-1.096-3.012-5.541-4.915-8.318-2.12
				c-3.925,3.952-10.293,8.879-11.773,14.43c-0.576,2.161,1.37,3.788,3.403,3.403c1.888-0.357,3.576-1.368,5.151-2.528
				c0.88,0.279,1.873,0.341,2.947,0.083c4.35-1.043,9.237-2.317,12.405-5.62C193.732,49.51,193.169,44.702,189.656,44.196z"/>
		</g>
		<g>
			<g>
				<path style="fill:#525D7D;" d="M172.119,189.955c-12.774,0-25.348-5.306-34.641-14.655
					c-9.449-9.504-14.453-21.946-14.088-35.036c0.675-24.274,20.662-43.77,45.501-44.384c0.564-0.011,1.127-0.017,1.689-0.011
					c11.602,0.119,22.911,4.134,31.843,11.304c11.889,9.543,16.343,23.778,16.548,33.918c0.534,26.37-20.029,48.285-45.838,48.853
					C172.796,189.951,172.457,189.955,172.119,189.955z M170.086,100.184c-0.364,0-0.728,0.004-1.091,0.014
					c-22.539,0.557-40.677,18.209-41.288,40.187c-0.332,11.895,4.226,23.213,12.833,31.87c8.709,8.76,20.56,13.632,32.498,13.37
					c23.433-0.514,42.102-20.453,41.617-44.448c-0.233-11.516-6.096-23.542-14.935-30.637c-8.182-6.567-18.546-10.244-29.185-10.354
					C170.385,100.185,170.235,100.184,170.086,100.184z"/>
			</g>
			<g>
				<path style="fill:#525D7D;" d="M171.631,163.863c-0.261,0-0.522-0.004-0.784-0.014c-10.868-0.388-19.256-8.681-19.512-19.291
					c-0.283-11.692,7.621-20.644,18.791-21.287c6.097-0.358,12.393,1.892,16.859,6.003c3.886,3.575,6.095,8.295,6.223,13.29
					c0.14,5.521-2.104,10.991-6.157,15.004C182.986,161.593,177.403,163.863,171.631,163.863z M170.375,127.581
					c-8.755,0.505-14.947,7.6-14.723,16.873c0.204,8.428,6.659,14.77,15.349,15.08c4.94,0.197,9.556-1.611,13.013-5.033
					c3.258-3.226,4.991-7.425,4.878-11.826c-0.125-4.89-2.696-8.258-4.831-10.223C180.439,129.117,175.319,127.317,170.375,127.581z
					"/>
			</g>
			<g>
				<path style="fill:#525D7D;" d="M41.752,177.634c-1.083,0-2.007-0.807-2.141-1.895l-0.271-2.17
					c-0.4-3.189-0.811-6.472-1.097-9.756c-24.364-1.76-33.073-16.485-33.073-28.818c0-13.979,19.624-28.952,33.436-28.952
					l1.703,0.015c2.018,0.02,4.036,0.041,6.056,0.041c8.422,0,13.819-0.524,21.989-1.316c5.072-0.493,11.383-1.105,20.013-1.722
					c1.114-0.082,2.089,0.69,2.28,1.778c0.274,1.555,0.554,3.386,0.554,5.198c0,11.169,0.784,22.486,1.541,33.43
					c0.686,9.911,1.396,20.16,1.528,30.315c0.015,1.134-0.852,2.087-1.983,2.18c-6.677,0.545-15.236,0.701-24.298,0.866
					c-8.557,0.155-17.407,0.315-26.115,0.803C41.832,177.633,41.792,177.634,41.752,177.634z M38.605,110.361
					c-12.518,0-29.118,14.044-29.118,24.634c0,17.188,16.619,24.003,30.851,24.614c1.097,0.048,1.983,0.909,2.061,2.004
					c0.27,3.798,0.756,7.673,1.225,11.419l0.022,0.18c8.132-0.409,16.322-0.557,24.264-0.701c8.093-0.146,15.782-0.287,22.007-0.703
					c-0.191-9.376-0.848-18.855-1.484-28.042c-0.763-11.017-1.552-22.41-1.552-33.728c0-0.825-0.077-1.687-0.186-2.525
					c-7.576,0.564-13.276,1.116-17.926,1.567c-7.997,0.776-13.775,1.337-22.406,1.337c-2.035,0-4.067-0.021-6.1-0.041
					L38.605,110.361z"/>
			</g>
			<g>
				<path style="fill:#525D7D;" d="M37.949,152.316c-0.045,0-0.091-0.001-0.136-0.004c-18.95-1.2-20.423-13.115-20.423-16.738
					c0-10.496,9.831-18.337,19.336-19.853c0.618-0.101,1.252,0.077,1.732,0.482c0.48,0.405,0.76,0.998,0.767,1.625
					c0.014,1.226,0.018,2.454,0.018,3.681c0,1.666-0.009,3.333-0.018,5c-0.009,1.659-0.018,3.316-0.018,4.97
					c0,5.89,0.107,12.197,0.884,18.41c0.08,0.638-0.129,1.279-0.569,1.747C39.113,152.072,38.543,152.316,37.949,152.316z
					 M34.925,120.547c-6.855,2.016-13.216,7.716-13.216,15.026c0,6.619,4.991,10.974,13.802,12.174
					c-0.539-5.552-0.621-11.074-0.621-16.269c0-1.663,0.009-3.329,0.018-4.994c0.009-1.659,0.018-3.317,0.018-4.976
					C34.926,121.188,34.926,120.868,34.925,120.547z"/>
			</g>
			<g>
				<path style="fill:#525D7D;" d="M58.638,143.52c-1.463,0-6.233-0.614-6.233-8.514c0-1.846,0.245-3.728,0.483-5.549
					c0.127-0.976,0.252-1.927,0.326-2.814c0.098-1.188,1.144-2.063,2.33-1.974c1.188,0.1,2.072,1.143,1.973,2.33
					c-0.079,0.952-0.211,1.969-0.347,3.015c-0.219,1.685-0.446,3.427-0.446,4.991c0,2.785,0.644,4.196,1.915,4.196
					c0.486,0,1.002-0.048,1.512-0.091c0.626-0.055,1.245-0.105,1.814-0.105c1.193,0,2.159,0.967,2.159,2.159
					c0,1.192-0.966,2.159-2.159,2.159c-0.453,0-0.944,0.045-1.442,0.089C59.886,143.466,59.243,143.52,58.638,143.52z"/>
			</g>
			<g>
				<path style="fill:#525D7D;" d="M72.053,143.431c-4.364,0-6.72-4.512-6.72-8.758c0-3.551,1.453-6.994,2.673-9.258
					c0.497-0.922,1.204-1.479,1.672-1.846c0.088-0.069,0.172-0.131,0.238-0.194c0.401-0.38,0.968-0.627,1.522-0.627
					c5.58,0,8.5,5.637,8.5,11.206C79.938,138.613,76.989,143.431,72.053,143.431z M72.123,127.143
					c-0.141,0.117-0.269,0.233-0.315,0.319c-1.391,2.582-2.157,5.143-2.157,7.211c0,2.1,0.986,4.44,2.401,4.44
					c2.433,0,3.567-3.078,3.567-5.159C75.62,131.502,74.656,127.723,72.123,127.143z"/>
			</g>
			<g>
				<path style="fill:#525D7D;" d="M90.19,140.461c-0.226,0-0.457-0.035-0.683-0.111l-0.452-0.139c-2.09-0.63-7.639-2.3-7.639-9.442
					c0-3.495,1.907-7.256,6.095-7.256c1.193,0,2.159,0.967,2.159,2.159c0,1.192-0.966,2.159-2.159,2.159
					c-1.756,0-1.777,2.818-1.777,2.938c0,3.632,2.16,4.582,4.566,5.306c0.214,0.065,0.408,0.124,0.573,0.178
					c1.132,0.377,1.742,1.6,1.365,2.731C91.936,139.89,91.094,140.461,90.19,140.461z"/>
			</g>
			<g>
				<path style="fill:#525D7D;" d="M58.809,155.004c-1.193,0-2.159-0.967-2.159-2.159s0.966-2.159,2.159-2.159
					c8.832,0,17.174,0,25.929-0.382c1.203-0.034,2.199,0.871,2.251,2.063c0.052,1.192-0.872,2.2-2.063,2.252
					C76.077,155.004,67.689,155.004,58.809,155.004z"/>
			</g>
			<g>
				<path style="fill:#525D7D;" d="M12.486,83.135C5.128,83.135,0,78.301,0,73.962c0-7.243,5.613-15.172,13.97-15.428
					c7.796-0.24,15.724-0.386,23.391-0.529c16.078-0.298,32.703-0.606,49.216-1.785c3.643-0.26,7.29-0.583,10.937-0.907l1.522-0.135
					c0.316-0.028,0.637,0.014,0.935,0.125c2.826,1.039,5.66,2.162,8.4,3.247c5.302,2.1,10.785,4.272,16.295,5.87
					c0.872,0.253,1.493,1.023,1.553,1.928c0.061,0.905-0.451,1.753-1.281,2.12c-9.433,4.17-17.57,8.161-24.874,12.2
					c-0.304,0.169-0.644,0.26-0.99,0.268C99.073,80.937,12.54,83.135,12.486,83.135z M98.932,59.522l-1.037,0.093
					c-3.673,0.326-7.344,0.651-11.012,0.912c-16.626,1.188-33.309,1.497-49.442,1.795c-7.654,0.142-15.569,0.288-23.339,0.527
					c-6.3,0.194-9.784,6.694-9.784,11.113c0,1.449,2.77,4.844,8.142,4.855l85.978-2.183c5.925-3.26,12.382-6.487,19.607-9.799
					c-3.828-1.324-7.588-2.814-11.264-4.27C104.212,61.547,101.561,60.497,98.932,59.522z"/>
			</g>
			<g>
				<path style="fill:#525D7D;" d="M15.36,81.386c-0.954,0-1.827-0.637-2.084-1.602c-0.732-2.742-1.072-5.672-1.072-9.221
					c0-2.529,0.174-5.045,0.343-7.478l0.098-1.439c0.079-1.189,1.078-2.077,2.298-2.011c1.19,0.08,2.09,1.108,2.011,2.298
					l-0.099,1.452c-0.163,2.359-0.332,4.8-0.332,7.179c0,3.163,0.294,5.739,0.926,8.108c0.307,1.153-0.377,2.336-1.53,2.643
					C15.731,81.362,15.544,81.386,15.36,81.386z"/>
			</g>
			<g>
				<path style="fill:#525D7D;" d="M97.35,78.03c-1.193,0-2.159-0.967-2.159-2.159c0-1.23,0.351-2.384,0.661-3.402
					c0.233-0.767,0.453-1.491,0.453-2.014c0-0.448,0-0.485-0.823-1.061c-1.03-0.721-2.754-1.928-2.754-4.83
					c0-3.066,1.854-6.011,3.589-7.745c0.843-0.843,2.21-0.843,3.054,0c0.843,0.843,0.843,2.211-0.001,3.053
					c-1.157,1.157-2.324,3.056-2.324,4.692c0,0.632,0.09,0.717,0.912,1.292c0.997,0.699,2.665,1.867,2.665,4.599
					c0,1.165-0.34,2.284-0.64,3.271c-0.244,0.801-0.474,1.557-0.474,2.145C99.509,77.063,98.543,78.03,97.35,78.03z"/>
			</g>
			<g>
				<path style="fill:#525D7D;" d="M62.861,109.63c-1.244-0.03-2.187-1.018-2.159-2.211c0.158-6.649,0.158-12.831,0.158-19.99
					c0-1.192,0.966-2.159,2.159-2.159s2.159,0.967,2.159,2.159c0,7.186,0,13.391-0.16,20.094
					C64.99,108.696,64.03,109.63,62.861,109.63z"/>
			</g>
			<g>
				<path style="fill:#525D7D;" d="M186.654,60.188c-1.224-0.018-2.177-0.998-2.16-2.19c0.011-0.758,0.017-1.518,0.017-2.277
					c0-8.02-0.605-16.279-1.191-24.263c-0.271-3.697-0.549-7.499-0.766-11.259L63.947,23.428c0.515,5.444,0.588,10.735,0.588,14.879
					c0,2.532-0.031,5.058-0.062,7.569c-0.03,2.465-0.06,4.915-0.06,7.342c0,1.192-0.966,2.159-2.159,2.159
					c-1.193,0-2.159-0.967-2.159-2.159c0-2.443,0.03-4.911,0.06-7.394c0.031-2.495,0.062-5.004,0.062-7.517
					c0-4.619-0.092-10.693-0.808-16.719c-0.072-0.602,0.113-1.207,0.51-1.666c0.396-0.46,0.968-0.731,1.574-0.746l123.044-3.35
					c1.205-0.001,2.156,0.897,2.215,2.047c0.225,4.393,0.556,8.905,0.876,13.269c0.591,8.063,1.202,16.4,1.202,24.579
					c0,0.782-0.006,1.562-0.017,2.34C188.795,59.242,187.832,60.188,186.654,60.188z"/>
			</g>
			<g>
				<path style="fill:#525D7D;" d="M219.368,117.574c-1.111,0-2.224-0.016-3.34-0.051c-1.192-0.037-2.128-1.032-2.092-2.224
					c0.037-1.192,0.985-2.182,2.225-2.092c7.997,0.24,16.04-0.516,23.834-1.258c1.382-0.132,2.766-0.263,4.153-0.389
					c-0.091-2.068-0.135-4.272-0.135-6.779c0-2.779,0.054-5.558,0.108-8.337c0.053-2.751,0.107-5.502,0.107-8.251
					c0-8.095-0.661-14.259-1.299-20.219c-0.389-3.628-0.76-7.09-0.958-10.774c-28.034,2.332-56.589,3.087-84.231,3.818
					c-4.947,0.131-9.89,0.261-14.827,0.401c-0.03,3.773-0.103,7.565-0.174,11.254c-0.092,4.79-0.188,9.744-0.188,14.606
					c0,7.35,0.218,13.394,0.687,19.022c0.099,1.189-0.784,2.232-1.972,2.332c-1.201,0.081-2.232-0.784-2.331-1.972
					c-0.479-5.75-0.703-11.91-0.703-19.382c0-4.904,0.096-9.879,0.188-14.689c0.084-4.353,0.171-8.854,0.186-13.276
					c0.004-1.165,0.932-2.118,2.097-2.151c5.634-0.163,11.275-0.312,16.922-0.461c28.316-0.748,57.595-1.522,86.22-3.994
					c0.588-0.051,1.176,0.144,1.619,0.537c0.443,0.394,0.706,0.952,0.724,1.545c0.14,4.398,0.574,8.444,1.033,12.725
					c0.651,6.072,1.323,12.353,1.323,20.678c0,2.778-0.054,5.556-0.108,8.335c-0.053,2.751-0.107,5.502-0.107,8.252
					c0,3.282,0.076,6.017,0.238,8.609c0.073,1.169-0.8,2.184-1.969,2.286c-2.072,0.18-4.136,0.377-6.197,0.572
					C233.553,116.901,226.47,117.574,219.368,117.574z"/>
			</g>
			<g>
				<path style="fill:#525D7D;" d="M198.663,91.245c-3.6,0-40.458-17.787-58.722-30.148c-0.988-0.668-1.246-2.01-0.578-2.998
					c0.668-0.988,2.009-1.25,2.998-0.578c19.197,12.992,52.708,28.539,56.386,29.397c2.646-0.364,15.681-9.146,43.929-32.845
					c0.913-0.765,2.276-0.645,3.041,0.267c0.767,0.914,0.647,2.276-0.266,3.042C205.086,91.245,200.252,91.245,198.663,91.245z"/>
			</g>
			<g>
				<path style="fill:#525D7D;" d="M244.694,115.838c-0.535,0-1.07-0.197-1.488-0.595c-9.398-8.936-24.295-22.416-34.196-31.246
					c-0.89-0.793-0.968-2.158-0.174-3.047c0.794-0.891,2.158-0.97,3.049-0.174c10.4,9.274,24.873,22.378,34.297,31.339
					c0.864,0.821,0.898,2.189,0.077,3.052C245.834,115.614,245.264,115.838,244.694,115.838z"/>
			</g>
			<g>
				<path style="fill:#525D7D;" d="M152.151,103.546c-0.514,0-1.031-0.183-1.444-0.554c-0.886-0.798-0.958-2.163-0.16-3.049
					c7.32-8.134,15.61-15.988,23.972-22.71c0.932-0.746,2.289-0.599,3.035,0.33c0.747,0.929,0.6,2.288-0.33,3.035
					c-8.186,6.58-16.301,14.267-23.469,22.232C153.33,103.304,152.742,103.546,152.151,103.546z"/>
			</g>
			<g>
				<path style="fill:#525D7D;" d="M62.362,43.784c-0.027,0-0.054,0-0.082-0.001c-1.837-0.069-3.674-0.148-5.511-0.226
					c-5.504-0.236-11.192-0.478-16.765-0.426c-1.074,0.003-2.052-0.827-2.168-1.933c-1.136-10.783-1.225-21.69-1.311-32.24
					c-0.018-2.127-0.034-4.255-0.06-6.383C36.45,1.406,37.37,0.437,38.54,0.392C45.427,0.128,52.956,0,61.556,0
					c7.497,0,15.108,0.096,22.468,0.188c7.019,0.087,14.277,0.178,21.43,0.187c1.173,0.001,2.131,0.94,2.156,2.113
					c0.089,4.152,0.363,8.371,0.63,12.451c0.109,1.677,0.218,3.358,0.317,5.048c0.069,1.191-0.84,2.211-2.031,2.28
					c-1.171,0.089-2.211-0.839-2.281-2.03c-0.098-1.678-0.207-3.35-0.315-5.018c-0.225-3.442-0.455-6.985-0.578-10.53
					C96.86,4.668,90.317,4.585,83.97,4.505c-7.347-0.091-14.943-0.187-22.413-0.187c-7.678,0-14.492,0.103-20.752,0.313
					c0.015,1.431,0.026,2.862,0.038,4.291c0.079,9.809,0.162,19.931,1.094,29.882c5.023,0.007,10.102,0.225,15.017,0.437
					c1.829,0.079,3.658,0.157,5.488,0.225c1.191,0.045,2.121,1.047,2.077,2.238C64.474,42.869,63.517,43.784,62.362,43.784z"/>
			</g>
			<g>
				<path style="fill:#525D7D;" d="M53.175,15.032c-1.189,0-2.379-0.017-3.564-0.035c-1.151-0.017-2.298-0.034-3.431-0.034
					c-1.193,0-2.159-0.967-2.159-2.159s0.966-2.159,2.159-2.159c1.155,0,2.322,0.017,3.495,0.034c1.163,0.018,2.332,0.035,3.5,0.035
					c2.243,0,4.026-0.068,5.609-0.212c1.181-0.101,2.238,0.766,2.346,1.954c0.108,1.188-0.766,2.239-1.954,2.347
					C57.46,14.959,55.553,15.032,53.175,15.032z"/>
			</g>
			<g>
				<path style="fill:#525D7D;" d="M92.101,162.299c-1.129,0-2.079-0.877-2.153-2.02c-0.077-1.191,0.826-2.217,2.016-2.294
					c9.124-0.588,19.465-1.254,29.547-1.254c2.271,0,4.503,0.035,6.635,0.104c1.192,0.038,2.127,1.036,2.088,2.228
					c-0.037,1.193-1.025,2.177-2.227,2.087c-2.086-0.068-4.271-0.101-6.495-0.101c-9.943,0-20.21,0.662-29.269,1.245
					C92.194,162.298,92.147,162.299,92.101,162.299z"/>
			</g>
		</g>
	</g>
</g>
<g id="Layer_1">
</g>
</svg>
