<?xml version="1.0" encoding="iso-8859-1"?>
<!-- Generator: Adobe Illustrator 21.0.2, SVG Export Plug-In . SVG Version: 6.00 Build 0)  -->
<svg version="1.1" xmlns="http://www.w3.org/2000/svg" xmlns:xlink="http://www.w3.org/1999/xlink" x="0px" y="0px"
	 viewBox="0 0 204.237 182.722" style="enable-background:new 0 0 204.237 182.722;" xml:space="preserve">
<g id="_x31_12">
	<g>
		<g>
			<path style="fill:#E0DFE6;" d="M174.966,15.411c-5.661-4.424-13.748,0.295-18.817,4.984c-0.051-0.058-0.097-0.119-0.149-0.177
				c-5.787-6.339-15.102,3.058-9.399,9.399c1.833,2.038-0.153,3.921-1.971,4.695c-2.487,1.059-3.413,3.437-3.288,5.835
				c-0.466,0.241-0.926,0.523-1.373,0.883c-0.119-1.002-0.365-1.974-0.775-2.9c-0.558-1.262-2.666-2.157-3.968-1.615
				c-4.221,1.757-6.772,5.596-9.583,9.054c-3.733,4.593-7.329,9.29-11.08,13.874c-3.305,4.039-6.685,8.023-8.85,12.82
				c-0.885,1.962-1.559,3.951-1.985,6.066c-0.293,1.453-0.023,4.347-0.718,5.972c-0.182,0.291-0.365,0.583-0.56,0.868
				c-0.184,0.228-0.351,0.46-0.503,0.694c-0.113,0.152-0.216,0.309-0.333,0.46c-2.67,3.417-7.328,4.821-10.627,7.589
				c-3.07,2.576-5.525,5.833-7.662,9.206c-3.921,6.189-6.438,12.426-11.587,17.156c-1.163-1.189-2.384-2.32-3.745-3.397
				c-2.698-2.136-6.538-0.206-5.808,3.381c0.685,3.365,1.82,6.323,3.129,9.487c0.834,2.015,2.215,3.453,4.031,4.008
				c0.095,0.806,0.496,1.591,1.205,2.052c10.22,6.651,21.641-6.972,28.318-13.376c10.612-10.177,20.739-20.911,30.445-31.954
				c9.176-10.44,17.958-21.215,26.406-32.253c3.41-4.456,8.382-9.398,6.032-15.449c-0.693-1.783-1.791-2.837-3.035-3.655
				c1.948-3.948,2.212-8.662,0.78-12.921c2.911-0.863,5.909-1.595,8.864-2.044c3.357-0.511,6.501-0.166,7.873-3.946
				C176.766,18.739,176.227,16.397,174.966,15.411z"/>
			<path style="fill:#E0DFE6;" d="M185.983,53.414c-6.383,15.267-19.087,27.841-31.27,38.611
				c-8.76,7.745-23.456,22.696-15.622,35.537c2.251,3.689,8.61,2.337,8.424-2.282c-0.196-4.854-1.485-8.731,0.952-13.386
				c1.776-3.391,4.73-6.207,7.534-8.742c5.478-4.952,11.239-9.461,16.321-14.85c9.478-10.051,15.478-20.566,16.443-34.512
				C188.886,52.052,186.545,52.07,185.983,53.414z"/>
			<path style="fill:#E0DFE6;" d="M204.054,161.67c-1.402-6.739-10.172-14.03-14.924-18.608
				c-5.755-5.545-13.15-11.236-21.114-12.944c-5.855-1.255-10.5,7.575-4.341,10.297c0.142,0.063,0.276,0.141,0.417,0.205
				c1.638,3.025,4.036,5.784,5.789,8.64c2.737,4.46,5.16,9.065,6.971,13.98c-1.73-0.965-3.541-2.249-4.779-2.965
				c-2.345-1.355-4.577,1.281-3.508,3.508c1.756,3.656,3.317,8.921,7.028,10.928c-0.096,0.059-0.187,0.126-0.283,0.184
				c-1.347,0.822-1.744,2.5-1.017,3.877c3.63,6.87,11.464,3.335,16.456,0.175C196.267,175.455,205.666,169.42,204.054,161.67z"/>
			<path style="fill:#E0DFE6;" d="M103.998,153.132c-1.563,1.477-2.592,3.216-3.711,5.024c-0.5,0.808-1.053,1.925-1.89,2.433
				c0.215-0.18-0.261-0.31-1.135-0.809c-1.651-0.942-3.14-1.579-5.051-1.75c-1.667-0.148-3.464,1.337-3.839,2.923
				c-1.584,6.704,5.34,13.418,11.886,13.088c7.794-0.393,12.925-7.397,15.424-14.106
				C118.252,153.038,108.718,148.672,103.998,153.132z"/>
			<path style="fill:#E0DFE6;" d="M97.313,9.38c-7.753,0.619-16.451,7.084-21.368,12.955c-2.967,3.543-4.452,7.97-7.307,11.558
				c-3.262,4.099-8.042,6.196-12.292,9.069c-7.962,5.382-11.078,13.926-17.851,20.331c-5.252,4.967-11.851,7.854-13.671,15.403
				c-0.388,1.612,1.847,2.63,2.713,1.144c3.97-6.819,11.286-9.514,17.152-14.291c3.001-2.443,4.919-5.34,7.18-8.409
				c3.281-4.453,7.068-7.283,11.779-10.07c6.674-3.948,10.911-7.702,14.857-14.404c2.773-4.708,6.086-8.309,10.773-11.193
				c3.565-2.194,7.52-3.229,10.446-6.278C101.626,13.213,100.386,9.135,97.313,9.38z"/>
			<path style="fill:#E0DFE6;" d="M64.461,10.641c-7.575-1.156-13.235,8.883-18.239,13.629c-7.386,7.005-16.652,13.977-21.885,22.79
				c-1.01,1.7,0.688,4.242,2.705,3.519c9.287-3.33,16.881-11.617,24.16-18.022c4.975-4.377,15.871-11.509,15.611-18.826
				C66.768,12.459,65.86,10.855,64.461,10.641z"/>
		</g>
		<g>
			<g>
				<path style="fill:#525D7D;" d="M71.436,137.011c-0.58,0-1.141-0.235-1.55-0.656c-5.017-5.173-9.949-10.568-14.72-15.785
					c-6.484-7.093-13.19-14.427-20.117-21.204c-0.624-0.611-0.82-1.536-0.495-2.347c2.557-6.377,6.244-7.38,9.207-8.185
					c2.284-0.621,4.089-1.113,5.812-4.027c0.765-1.294,1.053-2.666,1.387-4.256c0.701-3.336,1.576-7.487,7.585-11.185
					c3.205-1.972,5.194-2.274,6.511-2.475c1.541-0.234,2.243-0.341,7.391-10.636c1.95-3.899,5.519-5.684,8.667-7.258
					c3.043-1.522,5.67-2.836,6.634-5.726c4.831-14.496,10.873-16.982,16.204-19.176c3.76-1.547,6.73-2.769,9.349-8.314
					c0.737-1.561,2.011-3.848,3.899-5.87c0.8-0.858,2.138-0.919,3.012-0.141c1.614,1.433,3.191,2.847,4.767,4.393
					c5.763,5.651,11.297,11.483,16.648,17.122c5.001,5.271,10.172,10.72,15.404,15.88c0.588,0.58,0.793,1.446,0.529,2.229
					c-1.172,3.465-2.676,7.049-5.725,9.792c-1.286,1.158-3.056,1.784-4.931,2.447c-3.253,1.15-6.616,2.34-8.565,6.236
					c-6.47,12.939-9.806,14.825-14.155,16.224c-1.844,0.594-3.586,1.154-6.286,4.014c-1.38,1.462-1.646,3.02-1.981,4.992
					c-0.95,5.603-2.845,10.621-16.458,15.288c-3.088,1.058-4.336,4.39-5.781,8.247c-0.685,1.823-1.39,3.709-2.349,5.452
					c-1.313,2.387-4.01,3.753-7.132,5.334c-3.808,1.928-8.123,4.114-10.934,8.582c-0.353,0.561-0.943,0.928-1.602,0.997
					C71.585,137.007,71.51,137.011,71.436,137.011z M39.139,97.334c6.63,6.56,13.023,13.551,19.214,20.323
					c4.18,4.572,8.486,9.281,12.849,13.84c3.31-4.011,7.544-6.155,11.045-7.929c2.381-1.205,4.629-2.345,5.299-3.563
					c0.808-1.469,1.43-3.129,2.089-4.886c1.598-4.264,3.409-9.097,8.425-10.816c12.292-4.215,12.929-7.96,13.602-11.926
					c0.382-2.26,0.818-4.821,3.097-7.234c3.462-3.666,6.036-4.494,8.104-5.159c2.936-0.945,5.472-1.761,11.615-14.045
					c2.727-5.454,7.502-7.142,10.988-8.376c1.458-0.515,2.834-1.002,3.482-1.585c1.976-1.778,3.161-4.213,4.078-6.701
					c-4.946-4.918-9.813-10.046-14.529-15.016c-5.326-5.611-10.832-11.414-16.539-17.012c-0.966-0.946-1.943-1.85-2.933-2.745
					c-0.808,1.136-1.41,2.262-1.817,3.125c-3.333,7.058-7.731,8.867-11.611,10.464c-4.909,2.019-9.544,3.927-13.751,16.548
					c-1.529,4.587-5.391,6.518-8.799,8.222c-2.793,1.396-5.43,2.716-6.736,5.327c-5.618,11.237-6.935,12.417-10.606,12.974
					c-1.143,0.174-2.437,0.37-4.896,1.883c-4.429,2.726-4.982,5.354-5.622,8.397c-0.378,1.798-0.769,3.657-1.895,5.563
					c-2.616,4.425-5.822,5.297-8.397,5.997C42.525,93.646,40.742,94.13,39.139,97.334z"/>
			</g>
			<g>
				<path style="fill:#525D7D;" d="M56.241,131.188c-4.311,0-16.876-10.325-16.876-16.064c0-2.761,1.94-4.955,3.499-6.718
					c0.282-0.319,0.559-0.631,0.812-0.935c0.765-0.916,2.125-1.04,3.04-0.276c0.916,0.763,1.04,2.125,0.277,3.041
					c-0.28,0.335-0.583,0.68-0.895,1.031c-1.131,1.281-2.415,2.731-2.415,3.857c0,0.872,1.407,3.428,5.285,6.896
					c3.628,3.245,6.591,4.782,7.302,4.85c0.939-0.001,2.231-0.723,3.371-1.36c0.427-0.239,0.836-0.467,1.221-0.66
					c1.07-0.53,2.364-0.1,2.897,0.966c0.533,1.067,0.101,2.364-0.966,2.897c-0.33,0.165-0.68,0.361-1.046,0.567
					C60.227,130.13,58.334,131.188,56.241,131.188z"/>
			</g>
			<g>
				<path style="fill:#525D7D;" d="M148.041,41.465c-0.283,0-0.571-0.056-0.849-0.175c-1.095-0.469-1.604-1.739-1.134-2.834
					c0.432-1.008,1.04-1.923,1.629-2.807c0.512-0.77,1.195-1.798,1.314-2.377c-0.403-0.966-2.499-4.097-5.777-7.71
					c-4.363-4.812-6.758-5.955-7.254-5.976c-1.702,0-3.582,1.683-4.848,2.948c-0.843,0.843-2.21,0.843-3.053,0
					c-0.843-0.843-0.843-2.21,0-3.053c1.961-1.962,4.633-4.213,7.905-4.213c5.264,0,17.364,14.35,17.364,17.846
					c0,1.836-1.046,3.408-2.056,4.927c-0.503,0.756-0.978,1.47-1.254,2.115C149.676,40.975,148.879,41.465,148.041,41.465z"/>
			</g>
			<g>
				<path style="fill:#525D7D;" d="M141.608,131.768c-0.552,0-1.105-0.211-1.527-0.633c-3.725-3.725-5.614-8.116-5.614-13.05
					c0-13.335,11.677-24.257,24.038-35.821c13.251-12.395,26.952-25.213,26.952-41.635c0-10.831-14.555-21.411-23.005-21.411
					c-4.332,0-8.67,1.654-14.065,5.362c-0.983,0.675-2.326,0.428-3.003-0.556c-0.675-0.983-0.426-2.326,0.557-3.002
					c4.145-2.851,9.769-6.122,16.511-6.122c10.294,0,27.323,12.025,27.323,25.729c0,18.296-14.397,31.764-28.319,44.788
					c-11.658,10.906-22.67,21.207-22.67,32.668c0,3.801,1.422,7.071,4.349,9.998c0.843,0.843,0.843,2.21,0,3.053
					C142.713,131.557,142.16,131.768,141.608,131.768z"/>
			</g>
			<g>
				<path style="fill:#525D7D;" d="M176.497,181.416c-0.634-0.009-1.205-0.268-1.607-0.717
					c-8.687-9.674-27.992-31.032-38.881-42.617c-0.787-0.837-0.78-2.143,0.014-2.972c3.822-3.99,7.135-7.251,10.426-10.261
					c0.846-0.772,2.148-0.751,2.967,0.05c2.002,1.958,4.817,3.037,7.929,3.037c2.371,0,4.047-0.542,5.832-1.356
					c0.848-0.386,1.847-0.186,2.481,0.499c4.114,4.45,5.393,5.577,6.63,6.668c2.468,2.177,4.419,3.896,24.301,27.028
					c0.375,0.437,0.561,1.006,0.515,1.58c-0.046,0.574-0.319,1.106-0.761,1.477c-7.63,6.435-13.269,11.651-18.283,16.914
					C177.653,181.174,177.088,181.416,176.497,181.416z M140.561,136.625c10.456,11.184,27.126,29.605,35.994,39.465
					c4.338-4.43,9.193-8.906,15.343-14.149c-18.366-21.341-20.269-23.019-22.465-24.956c-1.148-1.013-2.439-2.15-5.912-5.864
					c-1.667,0.639-3.617,1.132-6.175,1.132c-3.501,0-6.758-1.03-9.37-2.934C145.617,131.524,143.207,133.899,140.561,136.625z"/>
			</g>
			<g>
				<path style="fill:#525D7D;" d="M156.177,157.049c-0.697,0-1.382-0.337-1.798-0.961c-0.662-0.992-0.394-2.333,0.599-2.995
					c0.693-0.462,1.124-1.928,1.124-3.825c0-3.586-1.713-3.586-2.444-3.586c-1.375,0-2.927,0.739-3.69,1.757
					c-0.716,0.955-2.066,1.149-3.024,0.432c-0.953-0.716-1.147-2.068-0.432-3.022c1.588-2.117,4.393-3.485,7.145-3.485
					c4.172,0,6.762,3.028,6.762,7.904c0,3.523-1.054,6.089-3.047,7.418C157.005,156.932,156.589,157.049,156.177,157.049z"/>
			</g>
			<g>
				<path style="fill:#525D7D;" d="M74.53,122.787c-0.486,0-0.977-0.164-1.38-0.5c-1.132-0.943-2.026-2.022-2.816-2.975
					c-0.834-1.007-1.622-1.958-2.532-2.565c-0.992-0.662-1.261-2.002-0.599-2.995c0.661-0.992,2.002-1.258,2.994-0.598
					c1.436,0.959,2.467,2.201,3.462,3.404c0.735,0.887,1.429,1.726,2.253,2.412c0.916,0.763,1.04,2.125,0.277,3.04
					C75.762,122.523,75.148,122.787,74.53,122.787z"/>
			</g>
			<g>
				<path style="fill:#525D7D;" d="M83.191,110.64c-0.516,0-1.032-0.183-1.445-0.555l-1.181-1.058
					c-3.258-2.908-6.335-5.654-8.726-9.413c-0.64-1.006-0.343-2.34,0.663-2.981c1.001-0.64,2.338-0.344,2.98,0.663
					c2.069,3.253,4.93,5.807,7.957,8.51l1.196,1.07c0.886,0.798,0.957,2.163,0.16,3.049C84.369,110.399,83.781,110.64,83.191,110.64
					z"/>
			</g>
			<g>
				<path style="fill:#525D7D;" d="M97.1,97.322c-0.521,0-1.044-0.188-1.459-0.567c-2.597-2.381-4.861-4.866-7.048-7.268
					c-1.56-1.711-3.033-3.329-4.626-4.922c-0.843-0.843-0.843-2.21,0-3.053c0.843-0.843,2.21-0.843,3.053,0
					c1.664,1.664,3.24,3.394,4.765,5.067c2.124,2.331,4.32,4.743,6.774,6.992c0.878,0.806,0.938,2.172,0.132,3.051
					C98.265,97.086,97.683,97.322,97.1,97.322z"/>
			</g>
			<g>
				<path style="fill:#525D7D;" d="M109.516,82.329c-0.583,0-1.165-0.235-1.591-0.7c-1.307-1.426-2.693-2.851-4.093-4.29
					c-2.83-2.911-5.756-5.92-8.217-9.12c-0.727-0.945-0.55-2.301,0.396-3.028c0.946-0.725,2.301-0.548,3.028,0.395
					c2.307,3.001,5.145,5.92,7.89,8.742c1.428,1.47,2.845,2.927,4.179,4.383c0.807,0.879,0.746,2.245-0.132,3.051
					C110.56,82.142,110.037,82.329,109.516,82.329z"/>
			</g>
			<g>
				<path style="fill:#525D7D;" d="M124.577,73.006c-0.593,0-1.184-0.243-1.611-0.72c-3.008-3.363-6.269-6.624-9.423-9.778
					c-3.192-3.192-6.494-6.493-9.581-9.942c-0.794-0.889-0.718-2.254,0.17-3.049c0.888-0.798,2.252-0.72,3.049,0.169
					c3.007,3.36,6.265,6.619,9.415,9.768c3.195,3.196,6.5,6.5,9.589,9.953c0.794,0.888,0.718,2.253-0.17,3.048
					C125.603,72.825,125.089,73.006,124.577,73.006z"/>
			</g>
			<g>
				<path style="fill:#525D7D;" d="M137.482,57.589c-0.477,0-0.957-0.157-1.356-0.481c-4.346-3.518-8.127-7.52-11.785-11.391
					c-2.786-2.947-5.665-5.995-8.739-8.762c-0.887-0.797-0.959-2.163-0.162-3.049c0.801-0.888,2.165-0.958,3.049-0.16
					c3.205,2.884,6.145,5.996,8.99,9.006c3.559,3.768,7.24,7.663,11.362,11c0.928,0.75,1.071,2.11,0.321,3.037
					C138.735,57.315,138.112,57.589,137.482,57.589z"/>
			</g>
			<g>
				<path style="fill:#525D7D;" d="M99.928,165.776c-0.645,0-1.259-0.289-1.673-0.794c-3.768-4.615-7.443-9.136-10.961-13.704
					c-0.472-0.613-0.58-1.432-0.283-2.147c0.298-0.715,0.954-1.215,1.723-1.312c6.192-0.782,13.397-1.718,20.556-2.954
					c0.848-0.15,1.698,0.224,2.172,0.942c0.471,0.718,0.472,1.647,0.003,2.366c-3.708,5.675-6.954,11.511-9.638,16.472
					c-0.343,0.633-0.978,1.053-1.695,1.121C100.063,165.773,99.995,165.776,99.928,165.776z M93.036,151.623
					c2.128,2.704,4.312,5.409,6.535,8.139c1.713-3.113,3.617-6.468,5.696-9.862C101.047,150.559,96.9,151.123,93.036,151.623z"/>
			</g>
			<g>
				<path style="fill:#525D7D;" d="M50.354,173.378c-0.049,0-0.098-0.001-0.148-0.005c-1.982-0.133-3.985-0.384-5.952-0.744
					c-1.174-0.216-1.949-1.341-1.734-2.514c0.215-1.173,1.347-1.945,2.513-1.734c1.806,0.332,3.643,0.562,5.462,0.684
					c1.189,0.079,2.089,1.109,2.01,2.299C52.429,172.504,51.48,173.378,50.354,173.378z M63.269,172.847
					c-1.063,0-1.989-0.785-2.137-1.867c-0.16-1.181,0.666-2.27,1.848-2.431c1.847-0.252,3.69-0.585,5.473-0.992
					c1.168-0.269,2.319,0.463,2.585,1.626c0.264,1.162-0.464,2.319-1.626,2.584c-1.907,0.435-3.875,0.791-5.85,1.061
					C63.464,172.841,63.366,172.847,63.269,172.847z M32.321,168.775c-0.301,0-0.606-0.063-0.897-0.196
					c-1.81-0.829-3.594-1.76-5.301-2.77c-1.026-0.608-1.366-1.932-0.759-2.958c0.609-1.025,1.936-1.363,2.957-0.758
					c1.577,0.933,3.224,1.794,4.899,2.56c1.084,0.496,1.562,1.777,1.066,2.862C33.924,168.306,33.141,168.775,32.321,168.775z
					 M81.166,167.631c-0.811,0-1.588-0.46-1.955-1.242c-0.507-1.08-0.044-2.366,1.036-2.872c1.654-0.777,3.303-1.651,4.903-2.598
					c1.022-0.607,2.35-0.271,2.957,0.756c0.609,1.026,0.27,2.35-0.756,2.958c-1.718,1.018-3.49,1.959-5.268,2.794
					C81.785,167.565,81.473,167.631,81.166,167.631z M16.974,158.24c-0.545,0-1.092-0.206-1.512-0.618
					c-1.427-1.401-2.786-2.89-4.038-4.427c-0.755-0.924-0.616-2.284,0.308-3.038c0.924-0.755,2.284-0.615,3.038,0.309
					c1.154,1.413,2.404,2.785,3.718,4.074c0.85,0.835,0.863,2.202,0.028,3.053C18.092,158.024,17.534,158.24,16.974,158.24z
					 M6.294,143.011c-0.824,0-1.61-0.474-1.969-1.273c-0.822-1.825-1.541-3.719-2.132-5.628c-0.353-1.139,0.284-2.348,1.423-2.702
					c1.141-0.354,2.349,0.285,2.702,1.423c0.54,1.742,1.195,3.469,1.944,5.133c0.491,1.087,0.006,2.366-1.081,2.856
					C6.892,142.949,6.591,143.011,6.294,143.011z M2.172,124.893c-1.167,0-2.127-0.93-2.156-2.103
					C0.004,122.394,0,121.997,0,121.598c0-1.583,0.077-3.204,0.23-4.817c0.112-1.187,1.184-2.069,2.353-1.945
					c1.186,0.113,2.058,1.166,1.945,2.353c-0.139,1.478-0.211,2.962-0.211,4.41c0,0.361,0.004,0.722,0.013,1.08
					C4.363,123.87,3.421,124.862,2.172,124.893z M5.139,106.517c-0.229,0-0.462-0.037-0.692-0.115
					c-1.129-0.382-1.736-1.607-1.354-2.737c0.618-1.83,1.341-3.694,2.146-5.54c0.478-1.092,1.75-1.593,2.844-1.114
					c1.092,0.477,1.591,1.75,1.115,2.843c-0.758,1.732-1.435,3.48-2.014,5.194C6.88,105.949,6.04,106.517,5.139,106.517z"/>
			</g>
			<g>
				<path style="fill:#525D7D;" d="M24.048,80.943c-0.056,0-0.112-0.002-0.169-0.006c-1.189-0.091-2.079-1.129-1.986-2.319
					c0.613-7.976,6.28-10.369,11.28-12.481c3.115-1.316,6.058-2.558,7.945-5.012c1.198-1.556,1.642-3.618,2.111-5.802
					c0.562-2.618,1.144-5.325,3.142-7.322c1.985-1.986,4.556-2.918,7.042-3.82c2.817-1.022,5.249-1.904,6.12-4.081
					c0.543-1.356,1.035-2.768,1.51-4.135c2.228-6.393,4.53-13.003,12.522-15.999c1.989-0.746,4.127-0.997,6.012-1.217
					c3.535-0.413,5.575-0.746,6.382-2.761c3.34-8.351,9.948-14.01,18.606-15.934c1.161-0.265,2.316,0.476,2.575,1.64
					c0.259,1.164-0.475,2.317-1.639,2.576c-7.222,1.605-12.739,6.337-15.534,13.323c-1.801,4.5-6.098,5.003-9.889,5.445
					c-1.722,0.201-3.501,0.41-4.998,0.971c-6.095,2.286-7.886,7.425-9.959,13.377c-0.491,1.412-0.999,2.873-1.578,4.319
					c-1.59,3.974-5.344,5.335-8.656,6.536c-2.138,0.775-4.155,1.507-5.462,2.814c-1.097,1.096-1.503,2.987-1.974,5.177
					c-0.524,2.437-1.118,5.199-2.91,7.526c-2.581,3.356-6.356,4.951-9.688,6.357c-5.264,2.224-8.262,3.731-8.656,8.835
					C26.11,80.082,25.164,80.943,24.048,80.943z"/>
			</g>
			<g>
				<path style="fill:#525D7D;" d="M22.327,51.79c-1.057,0-1.981-0.776-2.134-1.853c-0.101-0.706-0.153-1.396-0.153-2.052
					c0-6.975,5.443-9.561,10.244-11.843c3.459-1.644,6.727-3.196,8.091-6.154c0.357-0.772,0.429-1.775,0.505-2.839
					c0.115-1.617,0.246-3.448,1.375-5.145c2.384-3.581,5.963-4.268,9.12-4.875c2.633-0.506,4.907-0.942,6.386-2.915
					c0.177-0.236,0.351-1.041,0.479-1.629c0.457-2.112,1.31-6.043,6.394-6.043c1.192,0,2.159,0.966,2.159,2.159
					c0,1.193-0.967,2.159-2.159,2.159c-1.423,0-1.667,0.296-2.174,2.64c-0.246,1.137-0.502,2.314-1.244,3.304
					c-2.48,3.308-5.958,3.977-9.026,4.566c-3.074,0.59-5.025,1.053-6.339,3.027c-0.499,0.749-0.575,1.819-0.663,3.059
					c-0.096,1.338-0.204,2.855-0.891,4.341c-2.018,4.376-6.342,6.431-10.157,8.244c-4.824,2.293-7.78,3.903-7.78,7.943
					c0,0.451,0.037,0.935,0.108,1.439c0.17,1.18-0.649,2.274-1.83,2.444C22.532,51.783,22.43,51.79,22.327,51.79z"/>
			</g>
		</g>
	</g>
</g>
<g id="Layer_1">
</g>
</svg>
