<?xml version="1.0" encoding="iso-8859-1"?>
<!-- Generator: Adobe Illustrator 21.0.2, SVG Export Plug-In . SVG Version: 6.00 Build 0)  -->
<svg version="1.1" xmlns="http://www.w3.org/2000/svg" xmlns:xlink="http://www.w3.org/1999/xlink" x="0px" y="0px"
	 viewBox="0 0 194.496 208.554" style="enable-background:new 0 0 194.496 208.554;" xml:space="preserve">
<g id="_x31_13">
	<g>
		<g>
			<path style="fill:#E0DFE6;" d="M111.992,16.073c-2.605-0.154-4.716,1.902-5.502,4.189c-0.129,0.374-0.229,0.731-0.32,1.086
				c-11.522,1.504-23.023,4.307-34.081,7.589c-0.194,0.057-0.334,0.159-0.492,0.245c-2.75-0.183-5.506-0.317-8.284-0.296
				c-5.43,0.042-8.136,8.048-2.892,10.679c14.496,7.273,35.626,6.586,50.923,2.149c5.767-1.673,10.57-5.324,10.938-11.788
				C122.664,23.219,119.126,16.496,111.992,16.073z"/>
			<path style="fill:#E0DFE6;" d="M89.289,70.845c-2.152-6.202-8.202-17.521-15.081-19.033c-1.335-0.293-3.227,0.162-3.843,1.564
				c-3.196,7.267,2.674,12.508,3.927,19.394c0.079,0.433,0.161,0.72,0.241,0.899c-0.174,0.313-0.395,0.781-0.685,1.515
				c-0.595,1.506-1.789,2.825-2.421,4.365c-1.522,3.706-1.291,6.078,0.428,9.633c1.808,3.738,6.583,3.397,9.286,1.197
				c2.829-2.303,4.722-6.293,6.664-9.366C89.937,77.64,90.654,74.779,89.289,70.845z"/>
			<path style="fill:#E0DFE6;" d="M62.813,84.271c-0.895-3.255-3.935-4.406-6.978-3.962c-3.003,0.438-6.022,1.357-8.918,2.249
				c-1.678,0.516-5.154,2.146-4.353,4.547c1.859,5.574,11.783,5.267,16.288,4.145C61.825,90.509,63.611,87.173,62.813,84.271z"/>
			<path style="fill:#E0DFE6;" d="M76.445,87.863c1.475-4.2-0.394-8.848-1.124-13.62c-0.989-6.466-0.485-13.825-3.543-19.718
				c-0.891-1.718-3.328-1.492-4.274,0c-3.582,5.651-3.159,13.492-3.185,19.962c-0.02,5.133-0.816,11.12,2.258,15.06
				c-5.856,5.764-11.105,12.377-16.578,18.458c-5.232,5.812-11.285,11.371-14.264,18.73c-0.559,1.382,1.109,2.937,2.452,2.453
				c7.862-2.835,13.879-9.387,19.843-15.01c6.655-6.274,13.597-12.69,19.163-19.959C78.998,91.86,78.22,89.421,76.445,87.863z"/>
			<path style="fill:#E0DFE6;" d="M190.935,157.329c-2.128-8.654-12.279-15.835-18.288-22.139
				c-7.336-7.696-14.669-15.395-22.014-23.083c-7.335-7.679-14.602-15.477-22.258-22.839c-4.955-4.765-11.96-13.108-19.4-13.255
				c-1.228-0.024-2.207,1.044-2.234,2.234c-0.168,7.455,8.016,14.832,12.61,20.044c7.025,7.97,14.52,15.558,21.883,23.214
				c7.37,7.662,14.75,15.315,22.128,22.969c6.08,6.309,12.75,16.564,21.357,19.07C188.513,164.649,191.837,160.995,190.935,157.329z
				"/>
			<path style="fill:#E0DFE6;" d="M194.346,166.741c-0.382-3.214-2.486-6.188-6.101-6.101c-0.542,0.013-1.093,0.104-1.622,0.218
				c-1.872,0.402-3.954,2.316-4.261,4.261c-0.088,0.402-0.144,0.807-0.203,1.212c-5.765,0.751-12.384,0.031-17.884,0.403
				c-2.376,0.161-4.8,0.293-7.209,0.533c0.583-0.368,1.165-0.774,1.76-1.237c2.16-1.682,2.352-3.83,1.493-5.686
				c1.57-0.494,2.878-1.675,3.291-3.578c1.515-6.985-5.373-10.234-10.28-13.638c-5.005-3.473-10.813-8.977-16.926-10.137
				c-1.368-0.26-2.497,0.804-2.199,2.199c1.078,5.05,5.584,9.433,9.061,13.031c2.697,2.791,5.543,5.606,8.416,8.28
				c-6.523,0.435-14.04-2.681-16.48,6.264c-1.118,4.099,0.897,8.037,1.809,11.954c1.091,4.684,1.306,9.51,2.317,14.204
				c0.654,3.039,5.656,3.933,6.999,0.915c1.659-3.727,2.788-8.717,2.693-13.402c9.322,2.899,21.036,1.664,30.496,1.861
				C188.33,178.48,195.642,177.645,194.346,166.741z"/>
			<path style="fill:#E0DFE6;" d="M185.173,191.214c-2.578-1.927-6.653-2.043-8.951,0.533c-0.405,0.454-0.77,0.937-1.143,1.416
				c-0.049,0.043-0.467,0.529-0.591,0.66c-0.051,0.054-0.069,0.077-0.098,0.111c-0.398,0.282-0.812,0.53-1.221,0.795
				c-0.054,0.035-0.106,0.065-0.156,0.092c-0.365,0.134-0.75,0.217-1.11,0.368c-0.196,0.082-0.284,0.127-0.338,0.159
				c-0.087,0.003-0.256,0.022-0.607,0.082c-0.656,0.113-1.141,0.166-1.755,0.407c-3.71,1.455-4.614,5.208-2.191,8.3
				c2.398,3.061,7.42,3.343,10.875,2.548c3.492-0.803,7.517-3.293,9.043-6.677C188.324,196.912,188.077,193.384,185.173,191.214z"/>
			<path style="fill:#E0DFE6;" d="M76.753,193.891c-2.602-1.523-5.397-0.864-7.807,0.616c-0.257,0.158-1.97,1.38-1.992,1.422
				c-0.241,0.149-0.481,0.301-0.718,0.458c-0.383-0.025-2.158,0.246-0.981,0.28c-0.924-0.027-1.769,0.046-2.698,0.172
				c-1.831,0.248-3.586,2.66-3.407,4.475c1.034,10.472,16.876,8.668,20.018,0.427C80.236,198.936,79.482,195.489,76.753,193.891z"/>
			<path style="fill:#E0DFE6;" d="M109.234,134.696c-15.289-0.281-30.459,8.439-39.903,20.089c-1.493,1.842-3.863,7.516-5.713,8.531
				c-1.347,0.739-5.98,0.45-7.362,0.559c-2.904,0.229-5.813,0.403-8.715,0.65c-9.952,0.845-20.315,1.554-29.823,4.767
				c-2.493,0.843-2.797,4.662,0,5.37c9.683,2.452,19.907,2.225,29.823,1.762c6.885-0.321,19.732,1.239,24.805-4.444
				c2.117-2.371,3.257-5.577,5.144-8.142c2.829-3.846,6.385-7.261,10.3-9.982c7.039-4.892,14.62-6.877,22.888-8.491
				C116.833,144.163,115.195,134.805,109.234,134.696z"/>
			<path style="fill:#E0DFE6;" d="M178.325,164.18c-1.095-8.84-10.117-16.166-15.65-22.826
				c-7.018-8.446-14.064-16.869-21.137-25.269c-6.765-8.033-13.57-16.02-20.514-23.9c-5.239-5.946-11.805-16.606-20.218-18.069
				c-3.455-0.601-5.696,3.07-3.376,5.8c6.093,7.168,11.502,15.089,17.524,22.377c6.39,7.732,12.886,15.373,19.352,23.041
				c6.463,7.665,12.903,15.349,19.319,23.052c5.395,6.477,11.157,17.187,19.391,19.837
				C175.376,168.983,178.657,166.863,178.325,164.18z"/>
			<path style="fill:#E0DFE6;" d="M190.123,127.052c-0.148-8.956-0.878-17.808-2.02-26.69c-2.172-16.896-2.635-34.669-7.767-50.978
				c-0.573-1.82-3.446-2.038-3.911,0c-0.019,0.084-0.034,0.168-0.053,0.252c-0.099-0.147-0.177-0.306-0.286-0.448
				c-4.267-5.56-14.752-2.594-20.64-2.679c-2.503-0.036-2.444,3.668,0,3.85c1.909,0.142,9.634,0.654,12.945,1.887
				c-1.653,14.558,0.371,29.732,1.089,44.311c0.397,8.071,0.738,16.143,1.084,24.216c0.339,7.914-0.198,16.54,2.038,24.171
				c1.045,3.567,5.892,4.756,8.474,2.665c1.882,1.164,4.532,1.098,6.469-0.567C192.268,142.982,190.215,132.611,190.123,127.052z"/>
			<path style="fill:#E0DFE6;" d="M168.068,27.103c-0.47-2.21-0.867-4.421-1.789-6.507c-0.512-1.157-2.289-0.994-2.849,0
				c-1.69,2.998-1.713,6.368-1.763,9.748c-0.024,1.616,1.126,2.921,2.595,3.409c5.215,1.732,4.552,8.905,8.937,11.64
				c1.319,0.823,3.245,0.302,3.998-1.048C180.345,38.693,174.507,28.993,168.068,27.103z"/>
			<path style="fill:#E0DFE6;" d="M164.758,76.055c-0.597,0.07-1.194,0.147-1.79,0.232c-0.084,0.012-0.122,0.019-0.182,0.028
				c-0.955,0.035-1.872,0.164-2.764,0.304c-1.986,0.313-4.092,1.477-4.03,3.806c0.094,3.549,4.438,5.098,7.409,5.661
				c3.007,0.57,5.941-1.025,6.374-4.246C170.141,79.113,167.877,75.692,164.758,76.055z"/>
			<path style="fill:#E0DFE6;" d="M151.538,80.947c-0.532-3.23-3.974-3.892-6.71-4.015c-1.005-0.045-2.006-0.001-3.003,0.12
				c-1.226,0.149-2.231,0.717-3.421,0.946c-2.939,0.566-1.917,4.604,0.658,4.861c0.721,0.072,1.616,0.695,2.302,0.948
				c0.693,0.256,1.356,0.481,2.014,0.821c2.08,1.075,4.214,2.16,6.417,0.601C151.312,84.156,151.835,82.749,151.538,80.947z"/>
			<path style="fill:#E0DFE6;" d="M154.191,100.965c-1.126-1.524-2.467-2.306-4.417-2.317c-1.363-0.008-2.71,0.236-4.083,0.214
				c-1.635-0.026-3.025,1.409-3.025,3.025c0,1.786,1.394,2.843,3.025,3.025c2.872,0.32,5.736,1.711,8.091-0.781
				C154.509,103.362,154.882,101.9,154.191,100.965z"/>
			<path style="fill:#E0DFE6;" d="M164.428,96.18c-2.743,0-2.747,4.263,0,4.263C167.171,100.442,167.176,96.18,164.428,96.18z"/>
			<path style="fill:#E0DFE6;" d="M111.003,133.264c-4.647-3.53-11.857-1.331-17.058,0.014c-6.433,1.663-12.72,4.249-18.489,7.547
				c-10.934,6.251-21.254,15.507-24.554,28.039c-0.565,2.145,2,3.44,3.562,2.074c8.819-7.715,16.604-16.312,26.988-22.037
				c5.108-2.816,10.537-4.917,16.208-6.285c4.856-1.172,10.222-0.786,13.982-4.384C113.261,136.684,112.563,134.449,111.003,133.264
				z"/>
		</g>
		<g>
			<g>
				<path style="fill:#525D7D;" d="M2.158,171.156c-0.832,0-1.6-0.482-1.957-1.248c-0.385-0.828-0.208-1.808,0.443-2.449
					l98.469-97.041c0.422-0.416,1.001-0.644,1.586-0.62c0.592,0.02,1.148,0.28,1.542,0.722l84.681,95.105
					c0.559,0.627,0.703,1.522,0.368,2.294c-0.335,0.772-1.087,1.279-1.927,1.3l-38.991,0.967c-0.971,0.001-1.785-0.565-2.093-1.451
					c-1.162-3.35-2.569-6.519-4.182-9.421c-0.579-1.043-0.203-2.357,0.839-2.936c1.037-0.576,2.356-0.205,2.936,0.839
					c1.49,2.683,2.816,5.573,3.95,8.612l32.776-0.812l-80.073-89.931L7.859,166.41c8.222-0.486,18.969-0.735,30.21-0.995
					c7.505-0.173,15.25-0.353,22.653-0.611c8.938-18.692,22.597-28.996,40.616-30.627l1.425-0.131c2.771-0.257,5.388-0.5,8.001-0.5
					c2.093,0,4.609,0.447,7.274,1.293c1.136,0.361,1.765,1.574,1.404,2.711c-0.361,1.137-1.567,1.768-2.711,1.404
					c-2.99-0.949-5.022-1.091-5.967-1.091c-2.412,0-4.932,0.235-7.602,0.482l-1.435,0.132c-16.986,1.538-29.3,11.134-37.647,29.337
					c-0.34,0.742-1.068,1.229-1.884,1.258c-7.828,0.285-16.064,0.475-24.028,0.659c-14.106,0.326-27.43,0.634-35.81,1.414
					C2.293,171.153,2.226,171.156,2.158,171.156z"/>
			</g>
			<g>
				<path style="fill:#525D7D;" d="M79.613,198.067c-2.09,0-4.187-0.027-6.293-0.086c-1.192-0.032-2.132-1.025-2.099-2.217
					c0.034-1.193,1.075-2.186,2.217-2.099c13.027,0.354,25.834-0.512,37.81-1.477c-0.278-5.02-0.661-10.069-1.032-14.973
					c-0.398-5.271-0.808-10.7-1.094-16.118l-16.945,0.347c-0.907,0.004-1.715-0.524-2.048-1.358
					c-0.335-0.835-0.115-1.789,0.548-2.395c6.265-5.722,12.759-11.421,19.038-16.931c4.774-4.189,9.709-8.52,14.547-12.863
					c0.824-0.739,2.072-0.737,2.89,0.006l31.465,28.454c0.656,0.593,0.884,1.528,0.575,2.356c-0.309,0.829-1.094,1.386-1.979,1.404
					l-17.883,0.364c0.087,2.477,0.181,4.962,0.274,7.453c0.283,7.543,0.575,15.319,0.707,22.953
					c2.048-0.028,4.089-0.044,6.127-0.058c6.715-0.052,13.659-0.104,20.593-0.617c1.175-0.077,2.224,0.805,2.312,1.995
					c0.087,1.189-0.805,2.224-1.995,2.312c-7.076,0.523-14.093,0.576-20.878,0.627c-2.74,0.021-5.485,0.042-8.247,0.093
					c-0.576-0.001-1.129-0.209-1.542-0.609c-0.412-0.399-0.649-0.947-0.656-1.522c-0.108-8.271-0.427-16.782-0.737-25.012
					c-0.121-3.23-0.242-6.451-0.35-9.655c-0.02-0.578,0.193-1.139,0.59-1.558c0.396-0.42,0.946-0.662,1.524-0.675l14.633-0.298
					l-25.989-23.502c-4.389,3.923-8.827,7.818-13.134,11.598c-4.842,4.249-9.813,8.611-14.699,13.002l13.268-0.271
					c1.109-0.018,2.148,0.89,2.2,2.059c0.28,6.05,0.742,12.173,1.191,18.093c0.424,5.613,0.863,11.417,1.147,17.174
					c0.058,1.164-0.818,2.163-1.981,2.259C102.916,197.205,91.411,198.067,79.613,198.067z"/>
			</g>
			<g>
				<path style="fill:#525D7D;" d="M67.422,203.301c-2.229,0-4.284-0.811-5.805-2.296c-1.48-1.442-2.328-3.431-2.329-5.455
					c-0.001-3.383,2.179-6.588,4.965-7.294c0.419-0.107,0.762-0.11,1.074-0.117c0.073,0.014,0.141-0.011,0.214-0.021
					c0.17-0.024,0.364-0.062,0.558-0.1c0.647-0.124,1.449-0.274,2.325-0.188c3.049,0.311,6.911,4.013,6.906,7.734
					c-0.006,3.947-3.666,7.634-7.679,7.734C67.574,203.3,67.498,203.301,67.422,203.301z M65.287,192.458
					c-0.662,0.159-1.683,1.539-1.681,3.09c0,0.869,0.374,1.732,1.025,2.367c0.519,0.506,1.442,1.123,2.912,1.065
					c1.683-0.041,3.465-1.801,3.468-3.423c0.003-1.406-2.024-3.329-3.026-3.431c-0.24-0.018-0.665,0.056-1.072,0.134
					c-0.262,0.051-0.523,0.1-0.782,0.136C65.831,192.436,65.559,192.457,65.287,192.458z"/>
			</g>
			<g>
				<path style="fill:#525D7D;" d="M174.96,199.782c-0.059,0-0.118,0-0.177-0.001c-2.142-0.046-4.103-0.895-5.52-2.39
					c-1.414-1.493-2.156-3.473-2.089-5.576c0.079-2.553,1.212-4.699,3.031-5.738c1.636-0.935,3.537-1.413,5.306-1.361
					c3.985,0.125,7.104,2.821,7.416,6.408c0.197,2.249-0.578,4.485-2.123,6.134C179.296,198.868,177.175,199.782,174.96,199.782z
					 M172.347,189.827c-0.475,0.271-0.826,1.144-0.857,2.123c-0.029,0.945,0.292,1.822,0.908,2.471
					c0.626,0.661,1.483,1.02,2.48,1.042c1.04,0.039,2.056-0.387,2.776-1.156c0.708-0.755,1.063-1.778,0.973-2.808
					c-0.103-1.178-1.253-2.404-3.251-2.467C174.396,189,173.3,189.281,172.347,189.827z"/>
			</g>
			<g>
				<path style="fill:#525D7D;" d="M27.724,158.013c-0.391,0-0.787-0.105-1.143-0.327c-2.099-1.312-3.216-3.205-4.203-4.873
					c-0.364-0.618-0.708-1.203-1.084-1.726c-0.693-0.97-0.468-2.318,0.502-3.012c0.967-0.691,2.318-0.468,3.012,0.502
					c0.483,0.676,0.893,1.369,1.289,2.041c0.841,1.424,1.567,2.654,2.772,3.406c1.011,0.633,1.318,1.964,0.687,2.976
					C29.146,157.653,28.444,158.013,27.724,158.013z"/>
			</g>
			<g>
				<path style="fill:#525D7D;" d="M39.124,145.853c-0.364,0-0.732-0.091-1.07-0.284c-1.841-1.053-2.91-2.589-3.853-3.946
					c-0.354-0.509-0.71-1.025-1.119-1.514c-0.763-0.916-0.64-2.277,0.275-3.042c0.915-0.762,2.279-0.64,3.042,0.276
					c0.509,0.611,0.935,1.223,1.347,1.815c0.78,1.123,1.455,2.093,2.45,2.661c1.036,0.592,1.396,1.912,0.804,2.946
					C40.601,145.462,39.873,145.853,39.124,145.853z"/>
			</g>
			<g>
				<path style="fill:#525D7D;" d="M51.69,133.579c-0.552,0-1.105-0.211-1.527-0.632c-1.518-1.518-2.773-3.062-4.069-5.004
					c-0.662-0.991-0.394-2.332,0.599-2.994c0.987-0.659,2.33-0.395,2.994,0.599c1.131,1.697,2.221,3.038,3.529,4.346
					c0.843,0.843,0.843,2.21,0,3.053C52.795,133.368,52.242,133.579,51.69,133.579z"/>
			</g>
			<g>
				<path style="fill:#525D7D;" d="M61.628,121.891c-0.634,0-1.261-0.277-1.687-0.81c-1.125-1.406-2.187-2.734-3.464-3.756
					c-0.93-0.745-1.081-2.104-0.336-3.035c0.744-0.932,2.106-1.082,3.035-0.336c1.65,1.321,2.914,2.901,4.135,4.428
					c0.745,0.932,0.595,2.29-0.336,3.035C62.577,121.737,62.1,121.891,61.628,121.891z"/>
			</g>
			<g>
				<path style="fill:#525D7D;" d="M73.605,109.91c-0.38,0-0.762-0.1-1.11-0.308c-1.279-0.769-2.16-1.81-2.939-2.73
					c-0.318-0.375-0.635-0.753-0.983-1.102c-0.843-0.843-0.843-2.21,0-3.053c0.843-0.843,2.21-0.843,3.053,0
					c0.432,0.432,0.831,0.898,1.226,1.366c0.644,0.759,1.199,1.415,1.867,1.816c1.022,0.614,1.354,1.941,0.739,2.963
					C75.053,109.536,74.338,109.91,73.605,109.91z"/>
			</g>
			<g>
				<path style="fill:#525D7D;" d="M85.882,98.805c-0.697,0-1.382-0.337-1.798-0.961c-0.593-0.89-1.3-1.629-2.049-2.411
					c-0.545-0.571-1.109-1.16-1.639-1.822c-0.745-0.932-0.595-2.29,0.336-3.035c0.936-0.746,2.293-0.593,3.035,0.336
					c0.411,0.513,0.886,1.009,1.387,1.535c0.805,0.841,1.718,1.795,2.523,3.001c0.662,0.991,0.394,2.332-0.599,2.994
					C86.711,98.687,86.294,98.805,85.882,98.805z"/>
			</g>
			<g>
				<path style="fill:#525D7D;" d="M94.646,88.868c-0.325,0-0.654-0.073-0.963-0.228c-1.303-0.649-2.115-1.666-2.769-2.482
					c-0.468-0.585-0.873-1.089-1.324-1.316c-1.067-0.534-1.498-1.831-0.966-2.897c0.536-1.067,1.836-1.497,2.897-0.966
					c1.3,0.651,2.111,1.666,2.765,2.481c0.468,0.585,0.873,1.091,1.325,1.317c1.067,0.533,1.5,1.829,0.967,2.896
					C96.201,88.431,95.439,88.868,94.646,88.868z"/>
			</g>
			<g>
				<path style="fill:#525D7D;" d="M64.411,35.837c-8.808,0-13.273-3.698-13.273-10.992c0-7.312,6.351-12.037,16.179-12.037
					c0.406,0,0.797,0.016,1.175,0.044c1.369-3.825,3.885-6.509,6.109-8.255C78.209,1.761,82.881,0,86.793,0
					c6.712,0,10.901,4.533,12.791,9.373c5.596,0.401,14.306,7.61,14.306,15.272c0,10.419-8.365,10.419-18.051,10.419
					c-3.137,0-6.278-0.146-9.315-0.287c-2.338-0.108-4.754-0.221-7.111-0.261c-0.003,0-0.41-0.004-0.41-0.004
					c-2.269,0-4.571,0.312-7.009,0.644C69.523,35.49,66.968,35.837,64.411,35.837z M67.316,17.126
					c-1.981,0-11.861,0.373-11.861,7.718c0,3.466,1.085,6.674,8.955,6.674c2.266,0,4.567-0.312,7.003-0.642
					c2.473-0.336,5.028-0.683,7.589-0.683l0.486,0.004c2.419,0.042,4.868,0.156,7.236,0.266c2.987,0.139,6.078,0.283,9.114,0.283
					c10.954,0,13.733-0.599,13.733-6.1c0-4.692-5.292-9.415-8.871-10.656c0.043,0.455,0.065,0.901,0.065,1.332
					c0,4.629-2.234,7.505-5.828,7.505c-2.92,0-5.481-2.887-5.481-6.178c0-3.088,2.751-5.402,5.749-6.529
					c-1.501-3.132-4.343-5.801-8.414-5.801c-4.374,0-11.542,3.218-14.079,9.634c3.267,1.621,4.585,4.62,4.585,6.748
					c0,0.351-0.028,0.714-0.083,1.081c0.004,0.051,0.013,0.108,0.02,0.167c0.03,0.254,0.055,0.519,0.055,0.776
					c0,2.26-2.163,3.901-5.145,3.901c-2.928,0-4.677-2.882-4.677-7.709c0-0.616,0.028-1.212,0.081-1.788
					C67.474,17.128,67.397,17.126,67.316,17.126z M71.795,18.486c-0.004,0.143-0.007,0.287-0.007,0.432
					c0,1.649,0.316,2.925,0.588,3.381c0.209-0.015,0.396-0.053,0.545-0.096c-0.016-0.162-0.025-0.319-0.025-0.465
					c0-0.19,0.014-0.37,0.042-0.54c0.028-0.169,0.044-0.333,0.044-0.496C72.981,20.221,72.703,19.281,71.795,18.486z M96.395,14.285
					c-1.442,0.61-2.619,1.567-2.619,2.363c0,1.119,0.827,1.86,1.163,1.86c1.313,0,1.51-1.996,1.51-3.187
					C96.448,14.984,96.43,14.638,96.395,14.285z"/>
			</g>
			<g>
				<path style="fill:#525D7D;" d="M178.22,149.068c-1.089,0-2.025-0.822-2.144-1.93c-0.779-7.278-0.884-14.455-0.884-20.517
					c0-2.463,0.02-4.928,0.039-7.392c0.02-2.451,0.039-4.903,0.039-7.351c0-8.604-0.246-12.545-0.784-21.181
					c-0.496-7.963-1.238-19.88-2.279-42.994c-4.999-0.051-10.021-0.177-14.897-0.298c-2.328-0.059-4.657-0.117-6.99-0.167
					c-2.693,1.351-5.376,2.725-8.063,4.103c-5.11,2.619-10.378,5.319-15.714,7.838c0.339,5.571,0.789,11.033,1.188,15.898
					c0.635,7.728,1.183,14.402,1.183,19.614c0,2.179-0.045,4.367-0.103,6.554c-0.031,1.192-1.063,2.19-2.214,2.101
					c-1.192-0.03-2.132-1.022-2.101-2.214c0.055-2.151,0.1-4.3,0.1-6.442c0-5.035-0.541-11.628-1.169-19.26
					c-0.436-5.313-0.931-11.336-1.28-17.462c-0.051-0.884,0.443-1.708,1.244-2.082c5.715-2.658,11.4-5.572,16.897-8.389
					c2.856-1.465,5.711-2.928,8.578-4.362c0.313-0.157,0.654-0.225,1.012-0.228c2.516,0.053,5.028,0.117,7.54,0.18
					c5.524,0.138,11.237,0.281,16.866,0.313c1.15,0.007,2.093,0.914,2.144,2.063c1.088,24.424,1.858,36.784,2.367,44.964
					c0.544,8.728,0.793,12.711,0.793,21.45c0,2.46-0.02,4.923-0.039,7.387c-0.02,2.451-0.039,4.906-0.039,7.357
					c0,5.947,0.103,12.98,0.859,20.059c0.128,1.185-0.731,2.249-1.917,2.376C178.374,149.063,178.297,149.068,178.22,149.068z"/>
			</g>
			<g>
				<path style="fill:#525D7D;" d="M172.78,47.08c-0.967,0-1.848-0.654-2.093-1.635c-1.545-6.176-3.78-8.365-8.545-8.365
					c-4.48,0-9.009,3.069-10.535,7.138c-0.419,1.116-1.666,1.683-2.779,1.264c-1.118-0.419-1.682-1.663-1.264-2.779
					c2.159-5.76,8.29-9.941,14.578-9.941c8.657,0,11.296,5.881,12.734,11.634c0.29,1.157-0.413,2.329-1.57,2.619
					C173.13,47.059,172.953,47.08,172.78,47.08z"/>
			</g>
			<g>
				<path style="fill:#525D7D;" d="M162.184,36.731c-1.019,0-1.926-0.724-2.12-1.761c-0.878-4.696-0.949-9.07-0.949-14.302
					c0-1.192,0.967-2.159,2.159-2.159c1.192,0,2.159,0.967,2.159,2.159c0,5.004,0.065,9.176,0.876,13.507
					c0.219,1.172-0.552,2.301-1.725,2.52C162.45,36.72,162.316,36.731,162.184,36.731z"/>
			</g>
			<g>
				<path style="fill:#525D7D;" d="M136.78,80.355c-0.529,0-1.042-0.194-1.439-0.55c-0.446-0.399-0.707-0.966-0.72-1.564
					l-0.021-1.453c-0.025-2.135-0.056-4.793-0.46-9.54c-0.1-1.164,0.745-2.196,1.906-2.328c3.635-0.415,7.441-0.416,10.801-0.417
					c1.112,0,2.041,0.842,2.151,1.948l0.156,1.567c0.305,3.032,0.62,6.169,0.717,9.346c0.037,1.176-0.877,2.166-2.052,2.222
					c-3.617,0.176-7.264,0.432-10.842,0.76C136.911,80.352,136.846,80.355,136.78,80.355z M138.61,69.018
					c0.219,3.052,0.273,5.129,0.297,6.824c2.173-0.178,4.365-0.332,6.552-0.455c-0.131-2.204-0.347-4.41-0.564-6.564
					C142.808,68.833,140.695,68.869,138.61,69.018z"/>
			</g>
			<g>
				<path style="fill:#525D7D;" d="M157.047,79.913c-0.472,0-0.935-0.155-1.314-0.445c-0.464-0.357-0.765-0.887-0.831-1.468
					c-0.252-2.198-0.364-4.4-0.472-6.528c-0.089-1.737-0.18-3.532-0.347-5.275c-0.056-0.588,0.131-1.172,0.517-1.618
					c0.385-0.447,0.937-0.716,1.526-0.744c1.856-0.09,3.705-0.066,5.559-0.044c1.694,0.023,3.389,0.044,5.083-0.03
					c1.207-0.056,2.127,0.801,2.242,1.938c0.112,1.099,0.236,2.201,0.361,3.306c0.289,2.568,0.588,5.223,0.745,7.911
					c0.065,1.084-0.687,2.047-1.754,2.248c-1.829,0.346-3.915,0.387-5.933,0.426c-1.733,0.034-3.525,0.069-5.064,0.298
					C157.259,79.905,157.152,79.913,157.047,79.913z M158.565,68.09c0.07,1.065,0.124,2.124,0.177,3.161
					c0.069,1.362,0.141,2.754,0.249,4.137c1.115-0.07,2.246-0.093,3.354-0.114c1.162-0.022,2.286-0.045,3.317-0.119
					c-0.159-1.906-0.373-3.808-0.582-5.665c-0.051-0.454-0.103-0.909-0.152-1.362c-1.101,0.007-2.198-0.006-3.298-0.018
					C160.609,68.096,159.588,68.085,158.565,68.09z"/>
			</g>
			<g>
				<path style="fill:#525D7D;" d="M145.624,102.035c-0.978,0-1.958-0.018-2.936-0.037c-1.501-0.027-3-0.058-4.498-0.014
					c-1.202,0.001-2.149-0.884-2.218-2.027c-0.113-1.837-0.152-3.69-0.191-5.483c-0.037-1.711-0.073-3.42-0.172-5.119
					c-0.069-1.179,0.822-2.196,2-2.28c1.026-0.074,2.107-0.108,3.402-0.108c1.136,0,2.274,0.028,3.41,0.056
					c1.098,0.027,2.191,0.053,3.279,0.053l0.399-0.001c0.559-0.006,1.126,0.218,1.536,0.621c0.409,0.402,0.641,0.952,0.644,1.526
					c0.015,3.094,0.081,6.744,0.44,10.364c0.059,0.585-0.124,1.168-0.506,1.615c-0.381,0.447-0.928,0.72-1.515,0.753
					C147.677,102.015,146.652,102.035,145.624,102.035z M140.185,97.647c0.86,0.003,1.722,0.018,2.584,0.035
					c1.156,0.02,2.305,0.039,3.462,0.032c-0.153-2.196-0.219-4.345-0.249-6.338c-0.554-0.01-1.109-0.024-1.666-0.037
					c-1.449-0.037-2.984-0.068-4.297-0.046c0.035,1.039,0.058,2.073,0.08,3.088C140.121,95.457,140.145,96.553,140.185,97.647z"/>
			</g>
			<g>
				<path style="fill:#525D7D;" d="M157.194,101.647c-1.119,0-2.061-0.86-2.151-1.987c-0.242-3.043-0.253-6.099-0.266-9.052
					l-0.006-1.408c-0.007-1.169,0.919-2.132,2.089-2.17c0.191-0.007,0.436-0.008,0.755-0.008c3.229,0,6.341,0.515,9.35,1.011
					l1.448,0.236c1.035,0.166,1.801,1.051,1.817,2.099c0.017,1.134,0.065,2.271,0.111,3.41c0.062,1.494,0.124,2.991,0.124,4.481
					c0,0.423-0.004,0.848-0.017,1.271c-0.032,1.158-0.974,2.086-2.134,2.099l-1.148,0.006c-1.088,0-2.173-0.018-3.258-0.035
					c-1.061-0.018-2.122-0.035-3.186-0.035c-1.297,0-2.381,0.027-3.409,0.083C157.273,101.646,157.234,101.647,157.194,101.647z
					 M160.722,97.243c1.088,0,2.173,0.018,3.258,0.035c0.72,0.013,1.439,0.024,2.159,0.031c-0.018-1.118-0.065-2.236-0.111-3.357
					c-0.024-0.571-0.046-1.141-0.068-1.711c-2.346-0.388-4.595-0.748-6.861-0.864c0.008,1.943,0.025,3.92,0.118,5.878
					C159.693,97.247,160.192,97.243,160.722,97.243z"/>
			</g>
			<g>
				<path style="fill:#525D7D;" d="M159.795,122.809c-1.102,0-2.028-0.831-2.146-1.928c-0.232-2.148-0.339-4.338-0.443-6.456
					c-0.063-1.28-0.125-2.563-0.215-3.839c-0.042-0.599,0.166-1.188,0.576-1.626c0.409-0.437,0.98-0.685,1.577-0.685
					c0.007,0,1.306,0.003,1.306,0.003c2.56,0,5.288-0.048,7.903-0.396c0.581-0.076,1.153,0.08,1.608,0.434
					c0.457,0.354,0.752,0.876,0.821,1.449c0.436,3.636,0.513,7.33,0.531,10.464c0.007,1.136-0.869,2.083-2.002,2.166
					C166.163,122.623,162.973,122.764,159.795,122.809z M161.436,112.593c0.03,0.54,0.056,1.081,0.081,1.621
					c0.069,1.397,0.139,2.828,0.246,4.237c1.733-0.048,3.475-0.124,5.208-0.228c-0.031-1.854-0.103-3.839-0.266-5.826
					C164.922,112.539,163.148,112.583,161.436,112.593z"/>
			</g>
			<g>
				<path style="fill:#525D7D;" d="M149.602,117.24c-1.095,0-2.034-0.831-2.145-1.944c-0.062-0.606-0.077-1.323-0.091-2.056
					c-0.011-0.557-0.027-1.368-0.087-1.957c-1.577,0.008-3.018,0.058-4.55,0.336c-1.178,0.214-2.297-0.564-2.51-1.737
					c-0.214-1.174,0.565-2.297,1.737-2.511c2.239-0.408,4.234-0.408,6.345-0.408c3.263,0,3.337,3.877,3.382,6.193
					c0.011,0.609,0.02,1.205,0.07,1.709c0.119,1.186-0.746,2.245-1.933,2.363C149.747,117.237,149.674,117.24,149.602,117.24z"/>
			</g>
			<g>
				<path style="fill:#525D7D;" d="M17.941,143.499c-1.227-0.02-2.177-1.001-2.159-2.193c0.155-9.646,0.18-19.334,0.186-28.367
					c0-1.139,0.886-2.08,2.021-2.153c3.591-0.228,7.425-0.33,12.43-0.33c2.226,0,4.452,0.02,6.675,0.039
					c1.56,0.014,3.118,0.028,4.675,0.035c-0.021-1.446-0.039-2.894-0.059-4.345c-0.059-4.623-0.122-9.404-0.247-14.076
					c-0.017-0.593,0.211-1.165,0.63-1.584c0.417-0.419,0.994-0.627,1.581-0.634c3.698,0.093,7.444,0.277,11.067,0.455
					c5.098,0.252,10.371,0.512,15.53,0.512c1.192,0,2.159,0.967,2.159,2.159c0,1.192-0.967,2.159-2.159,2.159
					c-5.266,0-10.591-0.263-15.742-0.516c-2.854-0.142-5.784-0.285-8.693-0.385c0.09,3.964,0.142,7.964,0.193,11.854
					c0.028,2.182,0.056,4.359,0.091,6.529c0.008,0.579-0.214,1.137-0.62,1.549c-0.406,0.413-0.96,0.645-1.539,0.645h-0.259
					c-2.211,0-4.428-0.02-6.646-0.039c-2.211-0.02-4.424-0.039-6.637-0.039c-3.979,0-7.197,0.065-10.135,0.208
					c-0.008,8.461-0.042,17.441-0.184,26.392C20.08,142.554,19.117,143.499,17.941,143.499z"/>
			</g>
			<g>
				<path style="fill:#525D7D;" d="M29.484,108.22c-1.122,0-2.069-0.869-2.151-2.006c-0.135-1.884-0.259-3.902-0.259-5.904
					c0-0.004,0.001-0.1,0.013-0.277c0.235-4.029,0.999-18.179,0.999-31.121c0-5.739-0.119-11.463-0.356-17.012
					c-0.025-0.597,0.199-1.179,0.618-1.605c0.42-0.426,0.99-0.685,1.595-0.644c2.744,0.072,5.481,0.195,8.214,0.321
					c4.079,0.186,8.295,0.378,12.43,0.378c5.247,0,10.327-0.419,14.408-0.756c2.427-0.2,4.523-0.373,6.308-0.439
					c0.583-0.038,1.165,0.201,1.59,0.614c0.423,0.413,0.658,0.983,0.649,1.574l-0.004,0.558c0,1.247,0.222,18.956,0.926,32.331
					c0.062,1.191-0.852,2.207-2.042,2.27c-1.238,0.028-2.207-0.853-2.27-2.042c-0.599-11.383-0.852-25.896-0.915-30.866
					c-1.175,0.08-2.474,0.187-3.887,0.304c-4.161,0.343-9.339,0.77-14.763,0.77c-4.232,0-8.5-0.194-12.625-0.382
					c-1.941-0.089-3.882-0.177-5.826-0.246c0.177,4.877,0.267,9.87,0.267,14.873c0,13.057-0.77,27.313-1.006,31.371
					c-0.006,1.893,0.114,3.819,0.242,5.624c0.084,1.189-0.811,2.222-2,2.307C29.588,108.219,29.536,108.22,29.484,108.22z"/>
			</g>
			<g>
				<path style="fill:#525D7D;" d="M56.534,70.311c-0.058,0-0.117-0.003-0.176-0.007L55.093,70.2
					c-3.34-0.275-6.792-0.559-10.109-0.621c-0.589-0.011-1.148-0.263-1.548-0.697c-0.399-0.434-0.604-1.012-0.567-1.601l0.108-1.529
					c0.107-1.477,0.209-2.873,0.209-4.293V61.26c0-1.192,0.967-2.159,2.159-2.159h11.341c0.592,0,1.157,0.243,1.564,0.672
					c0.408,0.429,0.621,1.006,0.592,1.597c-0.063,1.238-0.076,2.475-0.09,3.714c-0.011,1.05-0.022,2.1-0.062,3.149
					c-0.022,0.589-0.284,1.143-0.724,1.535C57.571,70.119,57.061,70.311,56.534,70.311z M47.337,65.334
					c2.37,0.104,4.752,0.288,7.09,0.479c0.004-0.259,0.007-0.517,0.01-0.776c0.006-0.54,0.011-1.078,0.021-1.618h-7.003
					C47.424,64.065,47.382,64.704,47.337,65.334z"/>
			</g>
			<g>
				<path style="fill:#525D7D;" d="M57.421,85.007c-0.055,0-0.111-0.003-0.167-0.007c-4.124-0.319-8.33-0.458-12.478-0.413
					c-0.61-0.018-1.127-0.218-1.535-0.618c-0.409-0.402-0.642-0.95-0.647-1.524c-0.017-2.232-0.087-4.622-0.481-6.982
					c-0.096-0.573,0.043-1.162,0.388-1.632c0.344-0.47,0.864-0.78,1.441-0.862c3.788-0.533,7.63-0.62,11.346-0.704l2.075-0.049
					c0.571-0.052,1.146,0.204,1.564,0.61c0.416,0.408,0.652,0.966,0.652,1.548v8.475c0,0.602-0.252,1.177-0.693,1.584
					C58.486,84.803,57.962,85.007,57.421,85.007z M46.873,80.262c2.793,0.01,5.604,0.101,8.389,0.273v-3.95
					c-2.96,0.068-5.793,0.135-8.593,0.409C46.78,78.104,46.841,79.196,46.873,80.262z"/>
			</g>
		</g>
	</g>
</g>
<g id="Layer_1">
</g>
</svg>
