<?xml version="1.0" encoding="iso-8859-1"?>
<!-- Generator: Adobe Illustrator 21.0.2, SVG Export Plug-In . SVG Version: 6.00 Build 0)  -->
<svg version="1.1" xmlns="http://www.w3.org/2000/svg" xmlns:xlink="http://www.w3.org/1999/xlink" x="0px" y="0px"
	 viewBox="0 0 200.212 209.184" style="enable-background:new 0 0 200.212 209.184;" xml:space="preserve">
<g id="_x31_14">
	<g>
		<g>
			<path style="fill:#E0DFE6;" d="M193.108,156.723c-0.136-3.151-3.901-4.831-6.235-2.583c-9.322,8.98-16.101,19.519-28.164,25.272
				c-5.669,2.704-11.954,4.292-18.236,4.451c-8.364,0.211-13.537-2.61-20.666-6.329c-6.115-3.19-14.57,3.625-10.136,10.136
				c10.71,15.726,36.664,13.195,51.97,6.759C176.468,188.194,193.874,174.479,193.108,156.723z"/>
			<path style="fill:#E0DFE6;" d="M86.675,179.339c-2.425-3.106-6.09-5.192-8.993-7.869c-3.211-2.961-6.125-6.247-8.814-9.685
				c-3.195-4.085-7.542-13.178-13.517-13.123c-1.677,0.015-3.049,1.395-3.072,3.072c-0.108,8.066,3.414,15.421,8.107,21.788
				c4.9,6.648,11.558,14.665,19.652,17.22C87.21,193.005,90.487,184.22,86.675,179.339z"/>
			<path style="fill:#E0DFE6;" d="M104.465,185.062c-4.585,0.878-7.476,4.335-11.496,6.52c-4.064,2.209-8.539,3.524-13.122,4.086
				c-9.094,1.117-17.156-2.409-26.033-3.115c-2.256-0.179-3.517,2.571-2.499,4.355c5.716,10.019,19.968,12.991,30.623,12.137
				c9.99-0.801,26.756-5.946,29.69-16.82C112.854,187.684,108.736,184.244,104.465,185.062z"/>
			<path style="fill:#E0DFE6;" d="M169.752,135.15c-3.883-5.184-9.421-3.531-15.269-2.976c-5.603,0.531-12.455,0.384-17.38,3.365
				c-1.619,0.98-1.734,3.511,0,4.463c5.042,2.768,11.761,2.392,17.38,2.689c5.706,0.301,11.684,1.828,15.269-3.471
				C170.478,138.146,170.549,136.215,169.752,135.15z"/>
			<path style="fill:#E0DFE6;" d="M187.376,140.988c-3.347,0.934-6.605,2.123-10.005,2.881c-1.407,0.314-2.828,0.58-4.262,0.739
				c-0.821,0.148-1.648,0.202-2.481,0.163c-0.483-0.07-0.819-0.11-1.011-0.122c-1.25-0.844-3.041-1.118-4.163,0.186
				c-4.553,5.291,0.739,10.818,6.407,11.437c6.805,0.742,14.307-0.669,20.481-3.507
				C199.067,149.672,194.269,139.064,187.376,140.988z"/>
			<path style="fill:#E0DFE6;" d="M194.033,121.213c-3.998-3.339-7.953-2.297-12.764-1.681c-4.191,0.536-8.126,1.172-11.996,2.945
				c-1.849,0.847-1.849,4.033,0,4.879c3.883,1.779,7.791,2.407,11.996,2.945c4.777,0.611,8.8,1.629,12.764-1.681
				C196.073,126.915,196.066,122.911,194.033,121.213z"/>
			<path style="fill:#E0DFE6;" d="M180.355,53.58c-14.209,2.01-29.693,7.293-44.02,4.528c-2.307-0.445-5.185,1.555-4.196,4.196
				c2.843,7.599,10.694,9.613,18.221,9.474c11.133-0.207,22.847-2.48,33.769-4.509C193.237,65.576,189.187,52.331,180.355,53.58z"/>
			<path style="fill:#E0DFE6;" d="M183.033,93.505c-2.359-2.071-7.433-0.114-5.932,3.453c0.238,0.565,0.45,1.134,0.668,1.702
				c-0.198,0.207-0.404,0.397-0.588,0.632l-0.61-0.472c-1.634-1.17-3.199-2.135-5.152-2.692c-3.611-1.028-7.994,0.232-11.308-1.295
				c-3.127-1.441-4.56-3.731-8.17-4.454c-2.657-0.532-4.542,2.481-2.648,4.55c3.813,4.166,3.827,9.109,9.875,11.213
				c2.586,0.9,5.617,0.497,8.125,1.52c2.636,1.075,4.376,3.85,6.912,5.203c2.403,1.283,5.352,1.815,8.055,1.321
				c0.325,1.289,0.655,2.58,1.008,3.873c0.547,2.005,2.232,3.804,4.29,4.29c1.779,0.42,3.158,0.294,4.733-0.619
				c1.736-1.007,3.238-3.213,3.042-5.303C194.488,107.43,189.748,99.402,183.033,93.505z"/>
			<path style="fill:#E0DFE6;" d="M129.297,68.047c-0.748,0.154-1.569,0.354-2.437,0.593c0.309-4.194-0.016-8.52-0.286-12.416
				c-0.656-9.452-1.817-20.185-8.607-27.374c-1.509-1.598-4.009-0.293-4.117,1.706c-0.003,0.047-0.003,0.095-0.006,0.143
				c-1.309-3.607-3.041-6.938-5.297-9.741c-1.08-1.343-3.188-0.458-3.628,0.958c-1.941,6.247-0.993,12.892-0.821,19.334
				c0.188,7.059,0.042,14.036-1.651,20.93c-3.225,13.132-9.742,25.473-13.726,38.476c-1.022-0.323-2.2-0.377-3.518-0.019
				c-2.445,0.663-4.904,0.79-7.375,1.267c-1.377,0.266-3.611,0.692-4.051,2.303c-0.657,2.404,1.248,4.271,3.748,5.637
				c-1.056,2.162-1.881,4.435-2.354,6.842c-1.504,7.641,9.672,10.924,11.792,3.251c0.901-3.261,2.074-6.333,4.241-8.991
				c1.224-1.501,1.665-3.325,1.495-5.033c0.728-0.22,1.411-0.656,1.922-1.356c3.626-4.958,7.281-10.059,10.557-15.374
				c0.351,0.381,0.944,0.585,1.408,0.43c2.929-0.971,5.473-2.887,8.188-4.475c2.149,0.239,4.483-0.548,6.014-1.934
				c0.325-0.295,0.615-0.609,0.909-0.922c3.554-1.045,7.186-1.746,10.806-2.606C140.093,77.873,136.854,66.493,129.297,68.047z"/>
			<path style="fill:#E0DFE6;" d="M103.389,23.168c-0.56-3.089-5.278-3.539-6.676-0.873c-1.113,2.124-1.685,4.17-1.994,6.289
				c-7.018-3.11-14.656-6.262-21.85-6.599c-6.26-0.293-11.706,8.311-13.379,13.664c-0.426,1.365,1.081,2.143,2.176,1.673
				c2.737-1.174,4.417-2.739,6.629-4.776c3.291-3.031,3.182-3.671,7.514-1.985c6.979,2.716,13.939,5.396,20.724,8.583
				c3.141,1.475,6.553-0.298,6.755-3.876C103.528,31.051,104.142,27.323,103.389,23.168z"/>
			<path style="fill:#E0DFE6;" d="M93.578,54.661c-1.322-1.826-2.524-3.466-4.667-4.336c-0.949-0.385-2.451,0.24-2.88,1.172
				c-0.904,1.964-0.704,3.886-0.429,5.971c0.387,2.931,0.905,5.614,3.583,7.32c2.427,1.546,5.915,0.051,6.609-2.689
				C96.518,59.247,95.205,56.907,93.578,54.661z"/>
			<path style="fill:#E0DFE6;" d="M87.187,80.917c-0.921-2.096-2.93-2.901-5.125-2.515c-1.863,0.327-2.811,1.62-4.771,1.317
				c-1.645-0.255-3.276,0.276-3.943,1.935c-0.555,1.379-0.184,3.518,1.368,4.174c3.142,1.328,7.59,2.547,10.694,0.515
				C87.211,85.162,88.081,82.95,87.187,80.917z"/>
			<path style="fill:#E0DFE6;" d="M73.768,39.66c-0.625-1.93-2.716-3.396-4.79-2.72c-1.462,0.478-2.925,0.955-4.387,1.433
				c-1.847,0.603-3.238,2.603-2.599,4.578c0.635,1.963,2.551,3.097,4.578,2.599c1.493-0.367,2.986-0.734,4.478-1.1
				C73.027,43.963,74.402,41.622,73.768,39.66z"/>
			<path style="fill:#E0DFE6;" d="M117.251,20.471c-3.917-5.853-12.064-10.07-18.357-13.064c-5.221-2.485-10.092-2.615-15.299-0.042
				c-2.159,1.067-0.652,4.667,1.646,3.905c5.738-1.903,10.606,4.327,14.393,7.637c3.806,3.327,7.336,7.073,12.247,8.55
				C115.712,28.608,119.578,23.947,117.251,20.471z"/>
			<path style="fill:#E0DFE6;" d="M42.396,103.745c-0.447-4.706-3.263-10.123-8.71-9.961c-2.706,0.08-4.783,1.78-5.633,4.289
				c-0.917,2.705,0.328,4.927,0.814,7.503c-0.081-0.428-0.102,0.483-0.23,0.874c0.169-0.518-0.384,0.527-0.423,0.576
				c-0.909,1.154-2.279,1.88-3.853,2.488c-1.696,0.655-4.035,1.678-3.828,4.012c0.352,3.965,4.382,5.687,7.947,5.906
				c3.864,0.237,7.906-1.453,10.388-4.424C41.485,111.876,42.783,107.821,42.396,103.745z"/>
			<path style="fill:#E0DFE6;" d="M173,149.006c-7.258,2.242-12.878,7.973-19.839,11.02c-8.158,3.571-15.664,3.229-24.258,3.97
				c-2.363,0.204-4.487,3.44-2.193,5.294c13.979,11.294,44.112,2.63,51.854-13.046C180.366,152.598,177.363,147.659,173,149.006z"/>
		</g>
		<g>
			<g>
				<path style="fill:#525D7D;" d="M33.674,181.702c-0.228,0-0.455-0.037-0.677-0.108c-0.631-0.209-1.131-0.696-1.356-1.321
					c-1.593-4.442-5.299-16.437-5.299-31.883c0-25.353,21.782-41.077,44.045-45.807c-1.884-9.634-4.722-11.258-7.974-13.119
					c-4.237-2.425-9.04-5.171-11.572-21.645c-0.832-5.41-3.039-5.722-6.093-6.157c-2.73-0.388-6.855-0.973-6.855-7.056
					c0-3.651,2.248-7.565,7.16-8.001c-0.102-0.796-0.377-2.003-0.61-3.031c-0.613-2.693-1.375-6.046-1.375-9.765
					c0-17.468,6.79-27.446,19.119-28.096c1.176-0.025,2.207,0.852,2.27,2.042c0.063,1.191-0.852,2.207-2.042,2.27
					c-9.973,0.524-15.029,8.527-15.029,23.783c0,3.234,0.703,6.325,1.267,8.808c0.75,3.3,1.246,5.481-0.022,7.067
					c-0.357,0.449-1.177,1.199-2.656,1.199c-3.398,0-3.765,2.603-3.765,3.722c0,2.335,0.48,2.402,3.143,2.78
					c3.359,0.478,8.437,1.199,9.754,9.778c2.216,14.415,5.729,16.425,9.449,18.552c4.059,2.322,8.256,4.723,10.459,18.23
					c0.19,1.162-0.588,2.262-1.747,2.471c-21.209,3.842-42.609,18.31-42.609,41.974c0,12.409,2.491,22.461,4.188,27.864
					c5.896-3.503,12.421-5.936,18.755-8.299c0.529-0.197,1.057-0.394,1.585-0.59c-1.863-7.97-3.976-16.013-8.927-22.201
					c-0.745-0.932-0.594-2.29,0.337-3.035c0.931-0.745,2.29-0.595,3.035,0.336c5.947,7.433,8.099,16.736,10.182,25.733
					c0.243,1.051-0.32,2.156-1.33,2.539c-1.122,0.426-2.247,0.845-3.373,1.265c-6.966,2.598-14.17,5.284-20.239,9.336
					C34.514,181.579,34.096,181.702,33.674,181.702z"/>
			</g>
			<g>
				<path style="fill:#525D7D;" d="M79.057,208.758c-25.076,0-33.226-13.335-42.662-28.776c-0.622-1.018-0.301-2.346,0.716-2.969
					c1.018-0.62,2.346-0.301,2.968,0.717c9.477,15.507,16.323,26.71,38.978,26.71c2.827,0,6.418-0.683,7.471-1.035
					c1.13-0.38,2.355,0.233,2.731,1.365c0.377,1.132-0.233,2.355-1.365,2.731C86.355,208.014,82.322,208.758,79.057,208.758z"/>
			</g>
			<g>
				<path style="fill:#525D7D;" d="M99.143,203.515c-0.3,0-0.59-0.034-0.899-0.077c-0.144-0.02-0.297-0.046-0.479-0.046
					c-1.193,0-2.159-0.967-2.159-2.159c0-1.192,0.966-2.159,2.159-2.159c0.408,0,0.754,0.044,1.077,0.089
					c0.103,0.014,0.2,0.035,0.3,0.035c1.017-0.142,7.556-3.684,7.556-10.286c0-9.425,2.851-12.919,5.141-15.726
					c1.526-1.872,2.535-3.108,2.535-5.991c0-0.454-0.027-0.762-0.058-0.966c-3.021,0.495-5.403,3.281-7.917,6.223
					c-0.929,1.087-1.889,2.211-2.887,3.208c-0.749,0.75-1.929,0.846-2.789,0.225c-0.86-0.618-1.142-1.77-0.669-2.717
					c0.959-1.917,2.252-3.608,3.501-5.244c1.868-2.443,3.508-4.589,3.834-7.051c-0.354-0.069-0.829-0.124-1.335-0.124
					c-2.359,0-4.66,1.269-6.516,3.102c-0.244,0.343-0.489,0.68-0.73,1.012c-1.134,1.559-2.206,3.031-2.851,4.581
					c-0.451,1.08-1.679,1.604-2.772,1.184c-1.091-0.423-1.648-1.638-1.255-2.741c0.831-2.325,2.3-4.713,4.206-6.702
					c1.391-1.965,2.54-3.881,2.54-5.978c0-0.086-0.001-0.165-0.001-0.236c-5.122,0.992-15.823,12.368-16.309,15.506
					c0.079,0.347,0.25,0.999,0.474,1.869c1.16,4.497,3.572,13.851,3.572,18.986c0,1.192-0.966,2.159-2.159,2.159
					c-1.193,0-2.159-0.967-2.159-2.159c0-4.587-2.407-13.921-3.435-17.908c-0.564-2.184-0.626-2.437-0.626-2.834
					c0-3.927,6.561-10.629,7.876-11.934c3.043-3.015,8.83-8.074,13.404-8.074c2.442,0,3.681,1.556,3.681,4.625
					c0,0.583-0.05,1.148-0.141,1.697c1.034-0.305,2.105-0.472,3.202-0.472c3.577,0,5.712,1.328,5.712,3.553
					c0,0.902-0.107,1.754-0.297,2.567c0.94-0.368,1.945-0.61,3.027-0.687c0.051-0.004,0.15-0.007,0.202-0.007
					c1.2,0,3.993,0.52,3.993,5.339c0,4.421-1.783,6.606-3.507,8.721c-2.05,2.512-4.169,5.109-4.169,12.997
					C111.017,198.175,102.005,203.515,99.143,203.515z"/>
			</g>
			<g>
				<path style="fill:#525D7D;" d="M82.318,189.092c-12.366,0-24.192-9.529-26.361-21.242c-0.217-1.172,0.557-2.3,1.73-2.516
					c1.179-0.219,2.299,0.558,2.516,1.729c1.856,10.028,12.863,18.426,23.474,17.662c1.198-0.081,2.224,0.81,2.309,1.997
					c0.086,1.189-0.808,2.224-1.997,2.309C83.433,189.072,82.876,189.092,82.318,189.092z"/>
			</g>
			<g>
				<path style="fill:#525D7D;" d="M24.145,115.429c-0.038,0-0.077,0-0.115,0c-2.364-0.03-4.556-0.985-6.171-2.689
					c-1.708-1.801-2.667-4.357-2.566-6.837c0.164-4.04,3.058-7.419,6.88-8.037c0.112-0.018,0.206-0.046,0.299-0.07
					c0.29-0.077,0.686-0.181,1.179-0.2c0.105-0.003,0.196-0.003,0.29,0c4.244,0,8.977,2.541,9.229,8.123
					c0.117,2.591-0.846,5.143-2.644,7.002C28.834,114.471,26.571,115.429,24.145,115.429z M22.861,102.129
					c-2.044,0.332-3.183,2.238-3.253,3.948c-0.054,1.34,0.464,2.72,1.386,3.693c0.57,0.602,1.569,1.321,3.091,1.341
					c1.654,0.011,2.713-0.746,3.339-1.394c0.975-1.007,1.497-2.394,1.433-3.802c-0.175-3.888-4.471-4.002-4.97-4.002
					c-0.15,0.008-0.229,0.035-0.311,0.058C23.35,102.029,23.117,102.089,22.861,102.129z"/>
			</g>
			<g>
				<path style="fill:#525D7D;" d="M102.806,95.206c-1.177,0-2.14-0.946-2.158-2.127l-0.003-0.454c0-7.755,2.616-11.678,5.385-15.83
					c3.934-5.899,8.83-13.241,8.83-36.285c0-31.49-19.844-36.192-31.672-36.192c-6.24,0-12.553,2.186-18.124,4.114
					c-1.128,0.386-2.356-0.208-2.747-1.335c-0.39-1.126,0.207-2.356,1.334-2.747C69.543,2.312,76.221,0,83.187,0
					c22.873,0,35.991,14.765,35.991,40.51c0,24.351-5.298,32.297-9.555,38.68c-2.705,4.057-4.66,6.987-4.66,13.435l0.003,0.389
					C104.983,94.207,104.031,95.188,102.806,95.206z"/>
			</g>
			<g>
				<path style="fill:#525D7D;" d="M53.518,43.78c-0.597,0-1.191-0.246-1.618-0.728c-0.79-0.894-0.706-2.257,0.186-3.047
					c6.612-5.85,15.402-14.602,15.402-23.041c0-0.062-0.002-0.122-0.009-0.183c-0.267-0.472-0.39-0.957-0.39-1.477
					c0-1.001,0.689-1.871,1.663-2.101c0.974-0.232,1.98,0.239,2.428,1.136c0.077,0.155,0.148,0.311,0.21,0.467
					c1.235,1.178,6.557,3.566,10.14,5.174c3.381,1.518,6.876,3.087,9.4,4.528c0.585,0.335,1.385,0.957,2.271,1.722
					c-1.841-2.72-4.162-5.832-6.495-8.556c-0.563-0.658-0.678-1.588-0.294-2.364c0.385-0.776,1.195-1.258,2.061-1.195
					c10.731,0.631,19.884,3.188,27.207,7.603c1.021,0.614,1.35,1.941,0.734,2.963c-0.616,1.021-1.944,1.349-2.964,0.734
					c-5.576-3.361-12.373-5.552-20.256-6.538c3.452,4.52,8.071,11.18,8.071,14.055c0,2.139-1.118,3.634-2.719,3.634
					c-0.588,0-1.15-0.239-1.557-0.663c-2.614-2.723-6.888-6.893-8.202-7.644c-2.341-1.338-5.739-2.863-9.026-4.338
					c-3.578-1.607-6.27-2.849-8.231-3.922c-1.622,9.052-10.068,17.479-16.582,23.241C54.537,43.601,54.027,43.78,53.518,43.78z"/>
			</g>
			<g>
				<path style="fill:#525D7D;" d="M68.527,55.507c-1.572,0-3.159-1.032-3.159-3.336c0-1.209,0.697-2.193,1.821-2.571
					c0.4-0.135,0.776-0.15,1.025-0.15c1.763,0,3.548,0.945,3.548,2.749c0,1.236-0.897,2.027-1.432,2.501l-0.121,0.108
					C69.772,55.253,69.168,55.507,68.527,55.507z M67.623,51.411c-0.084,0.169-0.178,0.436-0.178,0.788
					c0,0.818,0.5,1.382,0.832,1.562c0.066-0.008,0.168-0.027,0.291-0.068c0.701-0.238,1.12-0.959,1.12-1.522
					c-0.034-0.399-0.614-0.983-1.16-0.983c-0.259,0-0.515,0.052-0.75,0.15l0.102,0.308l-0.106-0.306
					C67.723,51.362,67.673,51.386,67.623,51.411z M68.582,53.688c-0.001,0.001-0.004,0.001-0.005,0.003
					C68.579,53.69,68.581,53.69,68.582,53.688z M67.194,51.717c-0.013,0.013-0.025,0.025-0.038,0.038
					C67.168,51.743,67.181,51.73,67.194,51.717z"/>
			</g>
			<g>
				<path style="fill:#525D7D;" d="M101.674,56.334c-1.72,0-2.969-1.175-2.969-2.793c0-0.878,0.217-1.491,0.522-1.919
					c0.32-0.874,1.046-1.358,1.732-1.528l0.135,0.541c-0.278,0.004-0.536,0.062-0.768,0.159c0.36-0.132,0.666-0.155,0.769-0.157
					l0.351,1.407c-0.297,0.08-0.468,0.326-0.468,0.69c0.027,0.409,0.419,0.94,0.933,1.192l-0.429-1.737l0.434,1.739
					c0.183,0.09,0.382,0.143,0.585,0.143c0.193-0.118,0.356-0.27,0.488-0.437c0.02-0.069,0.032-0.135,0.037-0.195
					c-0.002-0.901-1.05-1.532-1.58-1.394l-0.348-1.408l-0.135-0.543c0.063-0.017,0.122-0.041,0.182-0.062
					c0.309-0.111,0.775-0.278,1.356-0.278c1.29,0,2.795,0.78,2.795,2.981C105.296,54.685,103.637,56.334,101.674,56.334z
					 M101.134,54.953c0,0-0.001,0-0.001,0C101.133,54.953,101.133,54.953,101.134,54.953z M101.138,54.953h-0.002H101.138z
					 M101.142,54.953c-0.001,0-0.002,0-0.003,0C101.139,54.953,101.14,54.953,101.142,54.953z M101.239,54.95
					c-0.032,0.001-0.065,0.003-0.098,0.003C101.175,54.953,101.207,54.952,101.239,54.95z M102.004,54.283c0,0,0.001,0,0.003,0
					C102.005,54.283,102.005,54.283,102.004,54.283z"/>
			</g>
			<g>
				<path style="fill:#525D7D;" d="M89.831,67.084c-0.657,0-1.305-0.298-1.729-0.864c-0.716-0.954-0.521-2.307,0.433-3.022
					c0.147-0.111,0.266-0.211,0.36-0.301c-1.455-1.567-4.116-4.605-4.116-8.896c0-1.317,0.157-2.716,0.494-4.402
					c0.233-1.168,1.366-1.934,2.54-1.694c1.169,0.233,1.928,1.371,1.694,2.54c-0.28,1.4-0.41,2.53-0.41,3.556
					c0,2.786,2.047,4.977,3.146,6.155c0.725,0.776,1.297,1.39,1.297,2.385c0,1.05-0.419,2.616-2.416,4.111
					C90.736,66.943,90.282,67.084,89.831,67.084z"/>
			</g>
			<g>
				<path style="fill:#525D7D;" d="M63.002,48.115c-0.552,0-1.106-0.211-1.527-0.632c-0.843-0.843-0.843-2.211,0.001-3.053
					c2.359-2.359,5.578-3.003,8.418-3.572c1.165-0.228,2.307,0.523,2.541,1.692c0.234,1.169-0.523,2.308-1.693,2.541
					c-2.457,0.492-4.779,0.957-6.213,2.391C64.107,47.904,63.554,48.115,63.002,48.115z"/>
			</g>
			<g>
				<path style="fill:#525D7D;" d="M108.797,49.741c-0.411,0-0.828-0.117-1.195-0.363c-2.676-1.785-4.838-2.87-7.01-3.522
					c-1.143-0.342-1.791-1.546-1.448-2.688c0.344-1.143,1.545-1.789,2.688-1.448c2.6,0.779,5.118,2.033,8.165,4.065
					c0.992,0.662,1.26,2.002,0.599,2.994C110.179,49.404,109.495,49.741,108.797,49.741z"/>
			</g>
			<g>
				<path style="fill:#525D7D;" d="M84.683,81.989c-0.141,0-0.283-0.014-0.426-0.042c-0.609-0.122-1.295-0.183-2.021-0.246
					c-2.295-0.204-5.152-0.455-7.118-2.986c-0.732-0.942-0.562-2.298,0.38-3.031c0.941-0.731,2.298-0.561,3.029,0.38
					c0.773,0.995,2.058,1.155,4.09,1.335c0.81,0.07,1.648,0.145,2.489,0.313c1.169,0.233,1.927,1.372,1.693,2.541
					C86.593,81.281,85.691,81.989,84.683,81.989z"/>
			</g>
			<g>
				<path style="fill:#525D7D;" d="M143.704,64.318c-13.773,0-15.83-7.963-15.83-12.71c0-4.523,5.424-13.235,15.389-13.611
					c1.891-5.41,7.296-8.709,14.822-8.709c5.918,0,11.569,3.359,13.335,7.457c7.252,0.275,15.148,6.628,15.148,15.067
					c0,7.737-8.142,12.174-22.337,12.174c-1.966,0-4.068-0.083-6.615-0.263c-2.473-0.172-5.003,0.038-7.715,0.259
					C147.872,64.146,145.775,64.318,143.704,64.318z M142.526,42.38c-6.724,0.744-10.334,6.698-10.334,9.228
					c0,3.603,1.193,8.392,11.512,8.392c1.896,0,3.904-0.163,5.846-0.322c2.749-0.224,5.623-0.455,8.369-0.261
					c2.444,0.171,4.45,0.252,6.312,0.252c3.009,0,18.019-0.378,18.019-7.856c0-6.147-5.872-10.212-10.407-10.708
					c-0.555,3.181-2.683,5.088-5.83,5.088c-1.234,0-3.305-0.485-3.305-3.735c0-2.352,1.561-4.173,4.133-5.083
					c-1.55-1.962-5.073-3.769-8.756-3.769c-5.372,0-9.021,1.843-10.501,5.173c3.246,1.463,5.355,4.653,5.355,6.996
					c0,0.207-0.016,0.402-0.038,0.61c-0.008,0.084-0.02,0.173-0.02,0.281c0,1.872-1.863,3.892-4.874,3.892
					c-5.481,0-5.481-6.029-5.481-8.011C142.525,42.491,142.525,42.435,142.526,42.38z M146.856,43.346
					c0.103,2.894,0.775,2.894,1.15,2.894c0.275,0,0.464-0.055,0.581-0.107c0.006-0.065,0.012-0.128,0.018-0.19
					c0.006-0.059,0.015-0.112,0.015-0.17C148.599,45.337,147.965,44.2,146.856,43.346z"/>
			</g>
			<g>
				<path style="fill:#525D7D;" d="M97.081,165.727c-0.619,0-1.233-0.264-1.66-0.777l-0.119-0.145
					c-0.746-0.929-0.599-2.288,0.331-3.035c0.931-0.746,2.289-0.599,3.035,0.33l0.07,0.086c0.763,0.915,0.64,2.277-0.276,3.04
					C98.058,165.563,97.568,165.727,97.081,165.727z"/>
			</g>
			<g>
				<path style="fill:#525D7D;" d="M104.675,173.304c-0.481,0-0.966-0.16-1.367-0.489l-0.539-0.446
					c-0.914-0.766-1.035-2.128-0.269-3.042c0.764-0.914,2.127-1.034,3.041-0.27l0.504,0.418c0.922,0.755,1.058,2.115,0.302,3.038
					C105.92,173.034,105.3,173.304,104.675,173.304z"/>
			</g>
			<g>
				<path style="fill:#525D7D;" d="M137.528,185.332c-9.079,0-18.215-2.478-26.439-7.172c-1.035-0.59-1.396-1.91-0.805-2.945
					c0.592-1.036,1.909-1.396,2.946-0.805c7.65,4.367,16.136,6.636,24.556,6.602c22.682-0.128,42.841-16.447,47.933-38.804
					c0.265-1.161,1.425-1.891,2.584-1.626c1.163,0.266,1.891,1.423,1.626,2.585c-5.533,24.292-27.451,42.024-52.119,42.163
					C137.715,185.33,137.622,185.332,137.528,185.332z"/>
			</g>
			<g>
				<path style="fill:#525D7D;" d="M187.961,121.356c-0.99,0-1.881-0.685-2.106-1.69c-0.84-3.774-2.146-7.429-3.882-10.861
					c-1.143-2.258-2.509-4.432-4.06-6.463c-0.724-0.947-0.543-2.302,0.405-3.026c0.948-0.72,2.302-0.543,3.026,0.406
					c1.712,2.241,3.22,4.64,4.482,7.134c1.898,3.754,3.327,7.748,4.244,11.872c0.259,1.164-0.475,2.318-1.639,2.577
					C188.275,121.339,188.117,121.356,187.961,121.356z"/>
			</g>
			<g>
				<path style="fill:#525D7D;" d="M170.533,94.164c-0.458,0-0.919-0.145-1.311-0.444l-0.395-0.299
					c-0.955-0.714-1.15-2.066-0.437-3.022c0.715-0.953,2.068-1.151,3.022-0.436l0.434,0.327c0.947,0.725,1.127,2.08,0.403,3.028
					C171.824,93.873,171.182,94.164,170.533,94.164z"/>
			</g>
			<g>
				<path style="fill:#525D7D;" d="M92.003,158.346c-0.751,0-1.481-0.392-1.879-1.092c-4.682-8.233-7.084-17.601-6.945-27.092
					c0.417-28.459,24.258-51.815,53.146-52.065c5.271-0.035,10.456,0.686,15.454,2.177l0.524,0.159
					c1.141,0.344,1.787,1.549,1.443,2.69c-0.345,1.141-1.553,1.788-2.691,1.442l-0.515-0.155c-4.579-1.366-9.331-2.049-14.175-1.996
					c-26.564,0.23-48.485,21.678-48.867,47.808c-0.128,8.723,2.079,17.331,6.38,24.897c0.59,1.036,0.227,2.355-0.809,2.943
					C92.732,158.255,92.365,158.346,92.003,158.346z"/>
			</g>
			<g>
				<path style="fill:#525D7D;" d="M104.498,146.751c-0.877,0-1.702-0.538-2.025-1.409c-2.014-5.437-3.035-10.658-3.035-15.518
					c0-22.087,21.794-34.004,42.301-34.004c6.966,0,10.156,1.972,12.97,3.712c0.755,0.467,1.469,0.908,2.223,1.285
					c1.066,0.534,1.498,1.83,0.966,2.897c-0.533,1.067-1.829,1.499-2.897,0.966c-0.928-0.464-1.759-0.978-2.563-1.474
					c-2.551-1.577-4.961-3.067-10.7-3.067c-18.413,0-37.982,10.404-37.982,29.686c0,4.348,0.931,9.064,2.766,14.017
					c0.414,1.119-0.157,2.361-1.275,2.775C105,146.709,104.747,146.751,104.498,146.751z"/>
			</g>
			<g>
				<path style="fill:#525D7D;" d="M136.2,166.961c-2.736,0-5.452-0.305-8.072-0.907c-1.162-0.267-1.888-1.425-1.621-2.588
					c0.266-1.162,1.429-1.893,2.587-1.621c2.304,0.528,4.695,0.797,7.106,0.797c12.91,0,27.823-8.154,31.348-23.738
					c0.262-1.164,1.422-1.895,2.582-1.629c1.163,0.263,1.893,1.418,1.629,2.582C168.207,155.563,153.252,166.961,136.2,166.961z"/>
			</g>
			<g>
				<path style="fill:#525D7D;" d="M169.726,126.6c-0.999,0-1.895-0.696-2.11-1.712c-0.989-4.668-2.889-7.072-4.417-9.005
					c-0.731-0.925-1.421-1.798-1.912-2.779c-0.533-1.067-0.1-2.363,0.966-2.897c1.065-0.531,2.363-0.101,2.897,0.966
					c0.292,0.583,0.822,1.255,1.437,2.033c1.711,2.165,4.054,5.13,5.252,10.788c0.247,1.167-0.498,2.312-1.664,2.56
					C170.025,126.584,169.874,126.6,169.726,126.6z"/>
			</g>
			<g>
				<path style="fill:#525D7D;" d="M135.921,148.781c-0.271,0-0.541-0.004-0.813-0.015c-8.905-0.359-16.484-7.725-16.896-16.422
					c-0.471-9.973,6.602-18.767,15.768-19.604c0.292-0.027,0.584-0.046,0.877-0.06c5.345-0.256,10.59,1.636,14.38,5.184
					c3.449,3.227,5.398,7.564,5.487,12.211c0.096,4.951-1.912,9.809-5.506,13.328C145.658,146.888,140.962,148.781,135.921,148.781z
					 M135.814,116.974c-0.25,0-0.5,0.006-0.751,0.017c-0.229,0.011-0.46,0.028-0.69,0.049c-7.725,0.706-12.165,8.386-11.847,15.098
					c0.335,7.072,6.865,12.076,12.755,12.312c4.166,0.172,8.024-1.302,10.917-4.134c2.748-2.692,4.282-6.394,4.211-10.161
					c-0.067-3.469-1.53-6.716-4.121-9.139C143.519,118.425,139.738,116.974,135.814,116.974z"/>
			</g>
			<g>
				<path style="fill:#525D7D;" d="M136.26,136.535c-1.436,0-2.775-0.534-3.783-1.511c-0.992-0.963-1.546-2.241-1.557-3.6
					c-0.018-2.269,1.761-4.657,3.807-5.111c0.389-0.086,0.715-0.072,0.912-0.063l-0.075,2.158l0.086-2.158
					c1.25,0.049,3.078,0.281,4.508,1.705c0.728,0.724,1.21,1.764,1.288,2.782c0.117,1.501-0.396,3.004-1.406,4.123
					c-0.946,1.046-2.241,1.64-3.646,1.674C136.349,136.534,136.304,136.535,136.26,136.535z M135.686,130.575
					c-0.209,0.201-0.45,0.593-0.448,0.814c0.002,0.26,0.154,0.447,0.245,0.534c0.117,0.114,0.363,0.364,0.811,0.292
					c0.137-0.003,0.344-0.032,0.543-0.252c0.209-0.232,0.328-0.582,0.304-0.894C136.858,130.765,136.413,130.623,135.686,130.575z"
					/>
			</g>
			<g>
				<path style="fill:#525D7D;" d="M137.78,133.506c-1.18,0-2.144-0.95-2.158-2.134c-0.014-1.192,0.941-2.17,2.133-2.184
					l56.716-0.679c1.153,0.006,2.171,0.94,2.185,2.134c0.014,1.192-0.941,2.17-2.133,2.184
					C194.522,132.827,137.806,133.506,137.78,133.506z"/>
			</g>
			<g>
				<path style="fill:#525D7D;" d="M172.578,145.277c-0.665,0-1.294-0.306-1.704-0.834c-0.862-1.106-1.728-2.21-2.591-3.309
					c-2.161-2.755-4.396-5.603-6.509-8.447c-0.628-0.845-0.555-2.018,0.172-2.78c2.228-2.329,4.388-4.835,6.476-7.259
					c1.39-1.614,2.781-3.227,4.204-4.809c0.397-0.441,0.957-0.7,1.55-0.714c2.998-0.079,5.935-0.089,8.413-0.089l6.535,0.01
					c2.607,0,5.7-0.011,8.868-0.1c0.828-0.062,1.585,0.423,1.969,1.148c0.384,0.728,0.322,1.609-0.16,2.276
					c-1.323,1.827-2.666,3.643-4.01,5.458c-1.448,1.958-2.896,3.915-4.32,5.89c0.795,0.907,1.579,1.826,2.364,2.748
					c1.573,1.847,3.199,3.757,4.879,5.496c0.574,0.593,0.758,1.463,0.475,2.239c-0.283,0.776-0.983,1.323-1.805,1.408
					c-7.81,0.813-16.131,1.372-24.733,1.664C172.627,145.277,172.603,145.277,172.578,145.277z M166.322,131.556
					c1.757,2.322,3.583,4.648,5.358,6.912c0.641,0.817,1.282,1.633,1.922,2.453c6.563-0.24,12.951-0.64,19.058-1.191
					c-0.717-0.822-1.42-1.649-2.114-2.463c-1.134-1.333-2.268-2.664-3.435-3.951c-0.682-0.751-0.748-1.875-0.161-2.702
					c1.758-2.473,3.564-4.913,5.37-7.353c0.472-0.64,0.945-1.278,1.417-1.917c-1.638,0.018-3.196,0.021-4.613,0.021l-6.535-0.01
					c-2.192,0-4.746,0.008-7.372,0.065c-1.188,1.337-2.357,2.692-3.525,4.047C169.958,127.481,168.174,129.55,166.322,131.556z"/>
			</g>
			<g>
				<path style="fill:#525D7D;" d="M177.288,103.865c-5.124,0-6.915-4.419-7.882-7.852c-0.756,1.355-1.898,2.986-4.047,2.986
					c-3.366,0-4.413-3.497-5.128-6.663c-0.925,1.117-2.168,1.983-3.934,1.983c-3.163,0-6.858-2.339-6.858-8.929
					c0-0.658,0.024-1.321,0.048-1.972c0.011-0.301,0.023-0.599,0.031-0.893c-0.035-0.027-0.07-0.055-0.103-0.081
					c-0.247-0.201-0.469-0.389-0.61-0.53c-0.338-0.337-0.54-0.758-0.609-1.196c-3.447-0.112-6.832-0.052-9.942,0.143
					c-1.195,0.076-2.215-0.829-2.29-2.02c-0.074-1.191,0.83-2.215,2.02-2.29c6.994-0.433,30.621-1.108,40.986,8.629
					c3.119,2.931,4.701,6.509,4.701,10.635C183.671,103.285,178.786,103.865,177.288,103.865z M170.376,89.443
					c0.834,0,1.619,0.486,1.972,1.282c0.344,0.772,0.583,1.705,0.862,2.785c1.052,4.09,1.931,6.037,4.079,6.037
					c0.67,0,2.065,0,2.065-3.731c0-2.927-1.092-5.376-3.34-7.488c-4.56-4.284-13.242-6.453-22.265-7.271
					c0.064,0.212,0.1,0.441,0.1,0.689c0,0.588-0.022,1.205-0.046,1.833c-0.022,0.597-0.045,1.207-0.045,1.812
					c0,1.722,0.33,4.61,2.54,4.61c0.606,0,1.342-1.528,1.88-2.644c0.268-0.557,0.532-1.101,0.81-1.586
					c0.377-0.659,1.073-1.072,1.832-1.088c0.776,0.006,1.472,0.371,1.874,1.015c0.779,1.248,1.161,2.998,1.566,4.852
					c0.24,1.099,0.652,2.988,1.094,3.843c0.183-0.291,0.392-0.68,0.549-0.977c0.739-1.386,1.752-3.283,3.88-3.891
					C169.979,89.47,170.179,89.443,170.376,89.443z"/>
			</g>
			<g>
				<path style="fill:#525D7D;" d="M83.92,122.782c-9.581,0-18.276-5.339-21.638-13.286c-0.465-1.098,0.049-2.364,1.147-2.83
					c1.098-0.461,2.364,0.049,2.83,1.148c2.695,6.369,9.792,10.649,17.661,10.649c0.502,0,1.005-0.018,1.507-0.053
					c1.19-0.105,2.222,0.811,2.307,2c0.085,1.189-0.81,2.222-2,2.307C85.131,122.761,84.526,122.782,83.92,122.782z"/>
			</g>
			<g>
				<path style="fill:#525D7D;" d="M25.393,131.53c-2.146-0.045-4.222-0.321-6.217-0.818c-1.157-0.288-1.861-1.459-1.573-2.616
					c0.288-1.158,1.457-1.871,2.617-1.573c1.684,0.419,3.44,0.651,5.218,0.689c1.192,0.027,2.138,1.013,2.112,2.205
					C27.526,130.593,26.564,131.53,25.393,131.53z M8.559,124.491c-0.558,0-1.115-0.215-1.539-0.644
					c-1.482-1.505-2.761-3.195-3.802-5.022c-0.59-1.036-0.228-2.355,0.808-2.945c1.037-0.59,2.353-0.228,2.945,0.808
					c0.855,1.501,1.907,2.89,3.126,4.128c0.836,0.849,0.826,2.217-0.023,3.053C9.653,124.285,9.106,124.491,8.559,124.491z
					 M47.721,116.506c-0.234,0-0.472-0.038-0.705-0.118c-1.127-0.389-1.725-1.619-1.336-2.745c0.562-1.629,0.921-3.343,1.068-5.094
					c0.098-1.188,1.131-2.058,2.331-1.974c1.188,0.1,2.071,1.143,1.972,2.331c-0.175,2.11-0.609,4.177-1.288,6.145
					C49.454,115.945,48.617,116.506,47.721,116.506z M2.16,107.479c-0.03,0-0.06,0-0.091-0.001
					c-1.191-0.049-2.118-1.056-2.068-2.248c0.086-2.09,0.425-4.169,1.006-6.179c0.331-1.146,1.526-1.813,2.674-1.473
					c1.146,0.33,1.806,1.528,1.474,2.673c-0.485,1.677-0.768,3.413-0.841,5.159C4.268,106.57,3.311,107.479,2.16,107.479z
					 M46.509,98.324c-0.791,0-1.553-0.436-1.932-1.192c-0.777-1.55-1.749-3.014-2.889-4.348c-0.775-0.907-0.668-2.269,0.238-3.043
					c0.904-0.776,2.269-0.669,3.044,0.238c1.368,1.6,2.535,3.357,3.468,5.219c0.534,1.067,0.103,2.364-0.964,2.897
					C47.164,98.251,46.834,98.324,46.509,98.324z M9.852,90.967c-0.593,0-1.184-0.243-1.611-0.721
					c-0.794-0.888-0.718-2.253,0.171-3.047c1.576-1.408,3.329-2.603,5.211-3.552c1.066-0.533,2.363-0.108,2.9,0.957
					c0.537,1.064,0.109,2.363-0.956,2.9c-1.545,0.777-2.984,1.758-4.277,2.914C10.878,90.786,10.364,90.967,9.852,90.967z
					 M32.745,86.334c-0.233,0-0.469-0.038-0.701-0.117c-1.664-0.572-3.377-0.933-5.092-1.072c-1.188-0.097-2.073-1.139-1.976-2.328
					c0.097-1.188,1.13-2.063,2.328-1.976c2.073,0.169,4.14,0.605,6.143,1.292c1.128,0.388,1.728,1.616,1.34,2.744
					C34.48,85.772,33.642,86.334,32.745,86.334z"/>
			</g>
		</g>
	</g>
</g>
<g id="Layer_1">
</g>
</svg>
