<?xml version="1.0" encoding="iso-8859-1"?>
<!-- Generator: Adobe Illustrator 21.0.2, SVG Export Plug-In . SVG Version: 6.00 Build 0)  -->
<svg version="1.1" xmlns="http://www.w3.org/2000/svg" xmlns:xlink="http://www.w3.org/1999/xlink" x="0px" y="0px"
	 viewBox="0 0 199.165 199.256" style="enable-background:new 0 0 199.165 199.256;" xml:space="preserve">
<g id="_x31_15">
	<g>
		<g>
			<path style="fill:#E0DFE6;" d="M32.664,32.946c-0.46,1.241-0.808,2.428-1.535,3.546c-0.077,0.176-0.18,0.331-0.281,0.487
				c-0.875-0.42-3.419-0.39-4.092-0.468c-1.754-0.204-3.237-0.125-4.989,0.117c-4.028,0.558-5.55,6.881-2.472,9.364
				c4.423,3.569,11.362,6.415,16.975,4.4c5.208-1.87,9.15-8.453,10.041-13.684C47.84,27.74,35.856,24.339,32.664,32.946z"/>
			<path style="fill:#E0DFE6;" d="M41.994,160.523c-3.266-1.799-6.563-0.524-8.676,2.275c-0.79,1.046-1.145,2.405-1.524,3.676
				c-0.209,0.086-0.448,0.212-0.307,0.21c-0.89,0.17-1.509,0.079-2.448-0.133c-0.824-0.186-1.647-0.434-2.448-0.705
				c-1.119-0.378-2.914-1.91-0.464,0.065c-2.265-1.826-5.276-2.175-7.521,0c-3.918,3.795-1.18,8.612,2.339,11.268
				c3.632,2.741,8.115,4.31,12.701,3.85c4.378-0.439,8.524-3.07,10.755-6.911C46.955,169.717,46.975,163.266,41.994,160.523z"/>
			<path style="fill:#E0DFE6;" d="M33.849,97.31c-0.289-7.07,1.658-17.568-4.088-22.658c-1.723-1.526-4.404-1.761-6.107,0
				c-2.803,2.899-3.143,5.305-3.07,8.62c-3.716,4.656-4.387,11.062-4.619,16.967c-0.165,4.206,0.464,7.986-2.392,11.543
				c-2.431,3.027-5.484,4.996-7.436,8.457c-0.101,0.179-0.153,0.355-0.207,0.531c-3.043,0.325-4.511,3.27-3.234,6.013
				c4.854,10.423,26.318,0.284,30.128-6.857C36.194,113.613,34.128,104.123,33.849,97.31z"/>
			<path style="fill:#E0DFE6;" d="M120.416,9.553c-3.532-2.406-10.576-0.297-11.335,4.381c-0.13-0.009-0.261-0.018-0.391-0.027
				c-1.649-0.381-3.639-0.256-5.331-0.352c-3.999-0.226-7.996-0.333-12.001-0.209c-3.728,0.115-7.452,0.418-11.142,0.978
				c-1.75,0.266-3.459,0.585-5.178,1.012c-1.026,0.299-2.054,0.589-3.084,0.873c-1.82-2.086-5.552-2.677-6.945,0.338
				c-1.714,3.709-1.785,7.948,1.54,10.881c4.784,4.22,12.675,0.993,18.185,0.596c7.98-0.574,15.989,0.093,23.956,0.558
				c5.43,0.317,9.841-0.493,12.558-5.651C123.437,18.776,125.052,12.711,120.416,9.553z"/>
			<path style="fill:#E0DFE6;" d="M158.747,29.987c-1.165,0.731-1.913,1.421-2.713,1.866c0.648-0.36-0.672,0.01-0.544,0.088
				c-1.043,0.02-1.899-0.424-3.256-1.143c-4.202-2.225-10.303,1.515-8.565,6.584c3.587,10.458,19.294,12.323,24.955,2.483
				C172.139,33.755,164.983,26.074,158.747,29.987z"/>
			<path style="fill:#E0DFE6;" d="M197.671,91.491c-0.304-8.087-1.048-18.297-6.078-24.929c-3.352-4.42-11.696-3.613-11.441,3.099
				c0.218,5.738,2.311,11.161,2.923,16.871c0.674,6.297,0.459,12.721-0.334,18.995c-0.359,2.836-0.854,5.653-1.432,8.453
				c-1.899-0.35-3.955-0.1-5.816,0.263c-2.364,0.461-3.831,1.432-5.432,2.872c-0.738-0.026-1.489-0.012-2.272,0.07
				c-3.011,0.312-4.794,3.066-3.379,5.888c3.047,6.077,11.81,10.829,18.635,10.782c8.586-0.059,10.331-8.867,11.86-15.57
				C196.895,109.554,198.008,100.452,197.671,91.491z"/>
			<path style="fill:#E0DFE6;" d="M141.092,175.004c-1.327-0.433-4.093-1.091-4.84-2.252c-2.461-3.824-8.203-2.233-8.424,2.282
				c-0.064,1.3-0.041,2.556,0.083,3.76c-17.671,6.478-39.355,8.447-56.66,1.801c-2.861-1.099-6.544,1.758-6.276,4.781
				c1.197,13.459,23.622,13.807,33.745,13.878c15.439,0.109,30.338-3.515,44.211-10.18
				C149.274,186.025,146.913,176.902,141.092,175.004z"/>
			<path style="fill:#E0DFE6;" d="M171.237,160.343c-1.371,1.299-2.477,3.56-4.521,3.71c-2.167,0.16-4.173-2.074-6.042-2.913
				c-2.733-1.226-7.088-0.534-7.681,3.125c-1.303,8.033,6.11,14.18,13.684,14.667c6.846,0.441,15.666-4.133,16.773-11.48
				C184.492,160.536,176.941,154.938,171.237,160.343z"/>
			<path style="fill:#E0DFE6;" d="M144.32,98.083c0.06-0.071,0.135-0.125,0.193-0.199c2.595-3.363,1.263-7.232-1.834-9.605
				c-2.79-2.138-5.575-4.298-8.493-6.258c-2.775-1.864-5.549-3.853-8.967-4.1c-2.292-0.166-3.505,2.213-3.156,4.142
				c0.602,3.32,3.363,6.074,5.468,8.582c2.28,2.717,4.74,5.282,7.183,7.854c-0.635,0.682-1.157,1.513-1.47,2.541
				c-0.639,2.099-4.362,5.39-5.897,7.174c-2.346,2.727-4.897,5.484-7.85,7.575c-0.909,0.643-1.848,1.204-2.809,1.702
				c8.679-5.955,14.906-17.153,9.873-27.004c-1.031-2.017-3.601-3.461-5.851-3.356c-0.39,0.018-0.78,0.037-1.17,0.055
				c-0.828,0.039-1.653,0.266-2.418,0.63c-2.301-0.356-4.887,0.454-6.261,2.552c-1.881,2.873-2.508,6.676-5.146,9.044
				c-2.51,2.254-6.712,1.93-9.73,1.074c-3.44-0.977-4.546,3.916-1.435,5.205c2.172,0.9,3.722,2.52,5.638,3.675
				c-5.519,0.409-11.017-1.26-16.518-2.053c-1.33-1.486-3.687-1.123-4.377,0.876c-1.862,5.394,3.789,8.848,8.021,10.907
				c1.631,0.794,3.362,1.428,5.144,1.92c-6.62-0.195-13.219-0.974-19.439-3.394c-5.749-2.237-10.554-6.963-16.425-8.658
				c-1.668-0.481-2.889,0.825-3.075,2.342c-1.064,8.694,8.505,15.587,15.41,18.753c9.93,4.553,21.399,5.304,32.168,4.942
				c10.538-0.354,20.517-2.692,28.86-9.421c6.192-4.993,15.998-14.312,16.275-22.782C146.3,100.734,145.517,99.163,144.32,98.083z"
				/>
			<g>
				<path style="fill:#E0DFE6;" d="M10.518,122.779c0.056,0.425,0.087,0.656,0.1,0.757
					C10.622,123.284,10.598,123.032,10.518,122.779z"/>
				<path style="fill:#E0DFE6;" d="M10.618,123.537c0,0,0,0.002,0,0.003C10.628,123.616,10.627,123.604,10.618,123.537z"/>
				<path style="fill:#E0DFE6;" d="M10.154,121.854c-0.193-0.348-0.444-0.659-0.724-0.943c-0.448-0.455-0.932-0.74-1.493-0.968
					c-0.435-0.289-0.91-0.481-1.461-0.555c0.096,0.013,0.173,0.023,0.303,0.041c-0.101-0.027-0.202-0.024-0.303-0.041
					c-0.142-0.019-0.229-0.031-0.304-0.041c-0.289-0.021-0.639-0.012-0.989,0.082c-1.158,0.431-2.033,1.147-2.375,2.413
					c-0.256,0.952-0.084,1.894,0.288,2.777c0.62,1.47,1.925,2.535,3.584,2.551c1.094,0.011,2.15-0.322,2.932-1.119
					c0.404-0.412,0.746-0.99,0.898-1.556c0.025-0.155,0.046-0.311,0.064-0.467c0.037-0.163,0.042-0.325,0.044-0.488
					c-0.01-0.073-0.026-0.196-0.053-0.397C10.544,122.681,10.407,122.252,10.154,121.854z"/>
				<path style="fill:#E0DFE6;" d="M6.172,119.348C6.017,119.327,6.008,119.325,6.172,119.348L6.172,119.348z"/>
			</g>
			<path style="fill:#E0DFE6;" d="M131.506,175.09c-4.389-0.491-8.605,2.26-13.078,2.621c-5.393,0.435-10.904,0.174-16.312,0.198
				c-5.351,0.023-10.695,0.185-16.044,0.355c-4.947,0.158-10.213-0.467-15.045,0.556c-1.651,0.349-1.877,2.387-0.923,3.496
				c3.371,3.918,8.54,4.778,13.498,5.394c7.469,0.929,15.074,1.084,22.587,1.388c8.666,0.35,26.733,3.026,29.741-8.2
				C136.771,177.76,134.43,175.417,131.506,175.09z"/>
			<path style="fill:#E0DFE6;" d="M48.334,41.777c-3.722,5.145-7.415,9.505-13.778,11.328c-5.836,1.672-12.52,0.399-18.447-0.344
				c-3.344-0.419-4.248,3.992-2.5,6.037C26.876,74.326,53.43,63.73,59.407,46.446C61.807,39.508,52.087,36.589,48.334,41.777z"/>
			<path style="fill:#E0DFE6;" d="M187.993,34.234c-0.763-1.722-3.232-2.061-4.708-1.234c-2.78,1.557-3.822,3.638-5.473,6.269
				c-2.492,3.969-5.343,7.18-9.475,9.51c-7.266,4.097-15.501,1.622-22.559,4.973c-0.982,0.466-1.207,1.851-0.714,2.723
				c5.255,9.303,21.243,5.851,28.778,1.722C181.447,54.032,192.134,43.581,187.993,34.234z"/>
			<path style="fill:#E0DFE6;" d="M196.85,162.426c-1.245-1.465-3.656-1.553-5.233-0.675c-2.784,1.55-3.35,3.336-4.558,6.097
				c-1.764,4.034-4.241,7.408-8.038,9.753c-3.71,2.291-8.035,3.175-12.333,3.417c-3.56,0.2-7.187-0.782-10.61,0.24
				c-1.113,0.332-1.565,1.364-1.39,2.448c1.854,11.485,22.157,8.104,29.246,4.551C191.798,184.317,204.381,171.295,196.85,162.426z"
				/>
			<path style="fill:#E0DFE6;" d="M56.585,176.985c-0.339-2.599-2.531-5.205-5.509-4.196c-6.467,2.19-9.422,9.089-16.466,11.218
				c-7.248,2.191-11.796-0.337-18.503-2.113c-0.989-0.262-1.986,0.328-2.282,1.296c-3.022,9.875,12.572,12.959,19.204,12.319
				C41.407,194.7,57.952,187.468,56.585,176.985z"/>
		</g>
		<g>
			<g>
				<path style="fill:#525D7D;" d="M95.32,125.794c-15.227,0-38.853-13.016-51.594-28.423c-0.652-0.79-0.661-1.93-0.018-2.73
					c10.76-13.378,27.854-31.164,51.972-31.164c24.003,0,41.475,15.573,51.903,28.638c0.616,0.77,0.631,1.861,0.036,2.648
					C138.863,106.353,120.425,125.794,95.32,125.794z M48.201,95.963c12.093,13.74,33.675,25.514,47.12,25.514
					c22.312,0,39.193-16.937,47.825-27.978c-9.938-12.029-25.965-25.703-47.465-25.703C79.127,67.795,64.007,76.755,48.201,95.963z"
					/>
			</g>
			<g>
				<path style="fill:#525D7D;" d="M96.476,115.293c-0.221,0-0.441-0.003-0.663-0.01c-8.525-0.228-20.966-7.548-21.165-20.186
					c-0.173-10.992,7.737-20.402,18.005-21.421c0.356-0.038,0.729-0.067,1.106-0.086c3.101-0.146,5.701-0.19,8.678,0.673
					c9.981,2.889,16.466,10.694,16.519,19.884c0.031,5.317-2.318,10.683-6.442,14.723
					C108.27,113.026,102.597,115.293,96.476,115.293z M93.974,77.903c-0.295,0.016-0.589,0.037-0.88,0.068
					c-9.003,0.895-14.249,9.376-14.128,17.059c0.162,10.313,10.961,15.777,16.962,15.938c5.194,0.114,10.011-1.704,13.564-5.183
					c3.246-3.178,5.17-7.519,5.146-11.612c-0.051-8.787-7.25-13.982-13.401-15.763C98.893,77.733,96.744,77.774,93.974,77.903z"/>
			</g>
			<g>
				<path style="fill:#525D7D;" d="M96.228,102.88c-0.07,0-0.14,0-0.212-0.001c-4.98-0.117-7.756-4.057-7.838-7.704
					c-0.08-3.493,2.028-6.605,5.249-7.742c1.195-0.423,2.39-0.623,3.579-0.558c4.189,0.187,7.512,3.624,7.565,7.824
					c0.028,2.115-0.849,4.211-2.405,5.752C100.576,102.022,98.475,102.88,96.228,102.88z M96.619,91.182
					c-0.564,0-1.153,0.108-1.751,0.321c-1.434,0.506-2.409,1.976-2.371,3.573c0.03,1.369,1.021,3.424,3.622,3.485
					c1.133,0.048,2.212-0.392,3.009-1.181c0.727-0.72,1.137-1.677,1.124-2.626c-0.021-1.643-1.341-3.473-3.44-3.567
					C96.75,91.183,96.685,91.182,96.619,91.182z"/>
			</g>
			<g>
				<path style="fill:#525D7D;" d="M99.976,190.884c-11.986,0-24.036-2.225-35.37-6.682c-1.095-0.43-1.643-1.657-1.234-2.761
					c2.183-5.873,4.189-11.807,5.965-17.639c0.176-0.581,0.588-1.06,1.136-1.32c0.55-0.261,1.181-0.281,1.74-0.052
					c17.62,7.143,37.549,7.145,54.671,0.01c1.099-0.457,2.364,0.062,2.824,1.162l6.725,16.137c0.441,0.224,0.808,0.597,1.016,1.089
					c0.462,1.099-0.053,2.364-1.153,2.828C124.857,188.472,112.451,190.884,99.976,190.884z M68.159,180.933
					c20.739,7.607,43.791,7.506,63.984-0.26l-5.604-13.448c-16.987,6.487-36.334,6.505-53.757,0.055
					C71.364,171.808,69.815,176.383,68.159,180.933z"/>
			</g>
			<g>
				<path style="fill:#525D7D;" d="M186.4,125.972c-0.226,0-0.455-0.035-0.682-0.111c-0.458-0.152-0.832-0.444-1.088-0.811
					l-16.759-5.511c-1.133-0.373-1.749-1.593-1.376-2.725c4.906-14.924,4.452-31.332-1.278-46.203
					c-0.221-0.569-0.188-1.206,0.089-1.751c0.275-0.545,0.769-0.947,1.359-1.108c6.917-1.882,12.621-3.566,17.949-5.298
					c1.108-0.358,2.29,0.218,2.692,1.303c7.259,19.569,7.665,41.14,1.143,60.739C188.147,125.399,187.305,125.972,186.4,125.972z
					 M171.24,116.1l13.889,4.568c5.192-17.351,4.781-36.161-1.178-53.468c-4.221,1.34-8.721,2.666-13.885,4.093
					C175.125,85.803,175.538,101.546,171.24,116.1z"/>
			</g>
			<g>
				<path style="fill:#525D7D;" d="M68.554,26.71c-0.343,0-0.683-0.081-0.994-0.242c-0.51-0.266-0.895-0.723-1.067-1.272
					c-1.347-4.303-2.437-8.705-3.493-12.961c-0.45-1.813-0.898-3.624-1.366-5.426c-0.29-1.119,0.351-2.267,1.455-2.606
					c18.487-5.685,38.748-5.6,57.056,0.24c0.555,0.177,1.016,0.572,1.276,1.094c0.26,0.523,0.298,1.129,0.104,1.678l-6.238,17.749
					c-0.387,1.102-1.579,1.692-2.692,1.342c-13.755-4.376-29.166-4.269-43.381,0.299C69,26.676,68.776,26.71,68.554,26.71z
					 M66.332,7.748c0.29,1.147,0.575,2.297,0.86,3.448c0.87,3.511,1.766,7.122,2.801,10.658c13.781-3.999,28.502-4.096,41.905-0.267
					l4.807-13.678C100.449,3.175,82.729,3.118,66.332,7.748z"/>
			</g>
			<g>
				<path style="fill:#525D7D;" d="M167.015,171.057c-1.192,0-2.274-0.176-3.271-0.529c-2.359-0.835-4.383-2.339-5.856-4.349
					c-3.607-4.921-2.96-11.654,1.475-15.328c2.39-1.978,5.766-2.896,9.021-2.446c3.334,0.458,6.24,2.252,8.179,5.052
					c3.499,5.05,2.595,11.415-2.152,15.134c-1.58,1.237-3.432,2.037-5.36,2.312C168.337,171.005,167.66,171.057,167.015,171.057z
					 M166.718,152.61c-1.718,0-3.382,0.557-4.601,1.567c-2.347,1.944-3.268,6.01-0.746,9.45c0.959,1.307,2.277,2.287,3.813,2.831
					c0.86,0.305,1.926,0.364,3.257,0.17c1.179-0.167,2.322-0.664,3.307-1.435c2.935-2.301,3.455-6.115,1.265-9.276
					c-1.244-1.795-3.096-2.943-5.218-3.234C167.436,152.634,167.077,152.61,166.718,152.61z"/>
			</g>
			<g>
				<path style="fill:#525D7D;" d="M167.933,184.965c-0.25,0-0.5-0.004-0.749-0.013l-0.011-2.16l0.131-2.155
					c0.219,0.006,0.425,0.01,0.63,0.01c1.462,0,2.941-0.166,4.394-0.493c1.172-0.27,2.321,0.468,2.581,1.631
					c0.263,1.164-0.468,2.319-1.631,2.581C171.511,184.762,169.714,184.965,167.933,184.965z M167.172,182.792l0.119-2.156
					L167.172,182.792z M155.271,181.458c-0.412,0-0.828-0.117-1.196-0.363c-1.681-1.12-3.243-2.429-4.64-3.887
					c-0.825-0.862-0.796-2.228,0.065-3.053c0.862-0.825,2.229-0.794,3.053,0.065c1.179,1.231,2.498,2.336,3.918,3.282
					c0.992,0.661,1.261,2.002,0.599,2.994C156.652,181.12,155.968,181.458,155.271,181.458z M183.771,178.563
					c-0.569,0-1.139-0.225-1.563-0.67c-0.822-0.863-0.79-2.229,0.075-3.052c1.223-1.165,2.284-2.478,3.153-3.899
					c0.624-1.019,1.954-1.334,2.969-0.717c1.018,0.623,1.338,1.951,0.717,2.969c-1.066,1.743-2.364,3.35-3.861,4.774
					C184.842,178.365,184.307,178.563,183.771,178.563z M144.854,167.037c-0.95,0-1.82-0.631-2.082-1.593
					c-0.536-1.971-0.841-3.995-0.904-6.016c-0.038-1.192,0.898-2.189,2.089-2.227c1.231-0.001,2.19,0.921,2.227,2.089
					c0.053,1.685,0.308,3.375,0.755,5.021c0.313,1.151-0.365,2.338-1.517,2.65C145.232,167.013,145.04,167.037,144.854,167.037z
					 M190.341,162.21c-1.153,0-2.11-0.911-2.156-2.073c-0.066-1.669-0.339-3.351-0.811-5c-0.328-1.146,0.336-2.34,1.483-2.669
					c1.141-0.328,2.34,0.335,2.669,1.483c0.565,1.978,0.893,4.002,0.974,6.015c0.048,1.191-0.88,2.196-2.072,2.243
					C190.399,162.21,190.371,162.21,190.341,162.21z M146.977,149.45c-0.363,0-0.728-0.09-1.066-0.281
					c-1.036-0.589-1.4-1.907-0.811-2.945c1.025-1.804,2.272-3.452,3.705-4.902c0.838-0.848,2.207-0.856,3.053-0.017
					c0.848,0.839,0.856,2.205,0.017,3.053c-1.167,1.179-2.183,2.525-3.019,3.999C148.459,149.058,147.728,149.45,146.977,149.45z
					 M183.181,145.949c-0.554,0-1.108-0.212-1.529-0.635c-1.195-1.198-2.533-2.256-3.979-3.146c-1.015-0.624-1.333-1.954-0.707-2.97
					c0.626-1.015,1.957-1.332,2.97-0.707c1.735,1.066,3.341,2.336,4.775,3.776c0.842,0.843,0.839,2.211-0.006,3.053
					C184.284,145.739,183.732,145.949,183.181,145.949z M161.322,139.269c-1.016,0-1.922-0.721-2.118-1.757
					c-0.222-1.171,0.547-2.301,1.719-2.523c1.981-0.375,4.057-0.519,6.057-0.436c1.191,0.048,2.118,1.053,2.071,2.245
					c-0.048,1.191-1.053,2.142-2.245,2.071c-1.704-0.068-3.421,0.049-5.079,0.363C161.592,139.256,161.455,139.269,161.322,139.269z
					"/>
			</g>
			<g>
				<path style="fill:#525D7D;" d="M154.885,42.18c-1.345,0-2.697-0.285-3.999-0.86c-0.003-0.001-0.167-0.074-0.167-0.074
					c-0.773-0.342-1.573-0.696-2.374-1.434c-0.363-0.332-0.716-0.686-1.042-1.066c-2.211-2.575-3.282-5.67-3.009-8.712
					c0.24-2.69,1.501-5.091,3.551-6.76c2.153-1.753,5.23-2.557,8.24-2.137c3.007,0.415,5.617,2.003,7.353,4.471
					c1.538,2.19,2.144,5.007,1.66,7.731c-0.506,2.844-2.114,5.334-4.529,7.01C158.82,41.563,156.862,42.18,154.885,42.18z
					 M152.636,37.372c1.803,0.798,3.798,0.592,5.469-0.569c1.465-1.015,2.437-2.513,2.74-4.218c0.284-1.6-0.059-3.237-0.942-4.492
					c-1.33-1.892-3.133-2.499-4.411-2.676c-1.81-0.249-3.7,0.212-4.921,1.207c-1.14,0.928-1.841,2.274-1.976,3.795
					c-0.167,1.871,0.538,3.83,1.986,5.517c0.214,0.25,0.445,0.478,0.684,0.697c0.269,0.246,0.561,0.381,1.199,0.663L152.636,37.372z
					"/>
			</g>
			<g>
				<path style="fill:#525D7D;" d="M152.449,55.964c-0.112,0-0.226-0.008-0.34-0.027c-2.012-0.318-4.003-0.909-5.919-1.756
					l0.801-2.007l0.919-1.954l-0.919,1.954l0.933-1.947c1.585,0.7,3.216,1.185,4.859,1.445c1.178,0.187,1.982,1.292,1.795,2.47
					C154.41,55.206,153.492,55.964,152.449,55.964z M164.794,54.153c-0.81,0-1.587-0.458-1.955-1.24
					c-0.508-1.078-0.045-2.364,1.034-2.873c1.036-0.488,2.054-1.075,3.026-1.749c0.448-0.312,0.883-0.637,1.302-0.971
					c0.936-0.748,2.291-0.593,3.035,0.336c0.745,0.932,0.595,2.29-0.336,3.035c-0.495,0.396-1.008,0.78-1.541,1.15
					c-1.171,0.81-2.397,1.518-3.648,2.107C165.415,54.087,165.102,54.153,164.794,54.153z M137.371,46.423
					c-0.675,0-1.339-0.315-1.761-0.908c-1.188-1.67-2.205-3.424-3.025-5.214c-0.498-1.085-0.021-2.366,1.063-2.862
					c1.089-0.495,2.366-0.021,2.862,1.063c0.707,1.543,1.588,3.062,2.62,4.511c0.69,0.971,0.464,2.319-0.509,3.011
					C138.241,46.293,137.804,46.423,137.371,46.423z M176.981,41.082c-0.26,0-0.526-0.046-0.783-0.146
					c-1.11-0.433-1.661-1.684-1.23-2.794c0.62-1.594,1.05-3.258,1.278-4.946c0.16-1.181,1.254-2.018,2.429-1.85
					c1.181,0.159,2.01,1.247,1.85,2.429c-0.273,2.024-0.789,4.02-1.531,5.93C178.66,40.56,177.845,41.082,176.981,41.082z
					 M132.258,29.239c-0.058,0-0.114-0.001-0.171-0.007c-1.189-0.093-2.078-1.131-1.983-2.321c0.162-2.069,0.583-4.099,1.254-6.033
					c0.388-1.129,1.621-1.726,2.745-1.334c1.127,0.389,1.725,1.619,1.334,2.745c-0.548,1.588-0.895,3.257-1.029,4.959
					C134.318,28.38,133.374,29.239,132.258,29.239z M176.673,23.253c-0.828,0-1.618-0.478-1.975-1.283
					c-0.51-1.153-1.131-2.25-1.847-3.267c-0.257-0.367-0.522-0.72-0.791-1.058c-0.742-0.933-0.588-2.291,0.344-3.035
					c0.936-0.742,2.291-0.588,3.035,0.344c0.323,0.406,0.638,0.829,0.945,1.266c0.876,1.243,1.638,2.589,2.262,3.998
					c0.484,1.091-0.008,2.366-1.098,2.849C177.262,23.194,176.965,23.253,176.673,23.253z M140.794,13.695
					c-0.669,0-1.328-0.311-1.751-0.894c-0.699-0.966-0.482-2.315,0.485-3.015c1.621-1.172,3.456-2.151,5.455-2.907
					c1.112-0.423,2.361,0.139,2.783,1.254c0.423,1.115-0.139,2.361-1.254,2.783c-1.643,0.623-3.142,1.42-4.454,2.37
					C141.675,13.562,141.232,13.695,140.794,13.695z M163.659,11.054c-0.254,0-0.514-0.045-0.766-0.141
					c-1.586-0.602-3.258-1.025-4.972-1.258c-1.182-0.162-2.009-1.25-1.848-2.43c0.16-1.182,1.252-2.021,2.43-1.848
					c2.038,0.278,4.031,0.781,5.922,1.5c1.115,0.423,1.676,1.67,1.252,2.785C165.35,10.524,164.53,11.054,163.659,11.054z"/>
			</g>
			<g>
				<path style="fill:#525D7D;" d="M29.07,171.641c-1.772,0-3.47-0.439-4.766-1.451c-0.021-0.016-0.157-0.129-0.178-0.146
					l-0.239-0.201c-1.215-1.019-2.47-2.072-3.416-3.432c-1.474-2.122-2.01-5.225-1.434-8.3c0.582-3.102,2.191-5.68,4.535-7.259
					c4.294-2.89,10.178-2.003,13.687,2.068c2.208,2.56,3.323,6.019,2.98,9.253c-0.304,2.868-1.728,5.398-4.009,7.124
					C34.337,170.727,31.625,171.641,29.07,171.641z M26.905,166.738l0.131,0.111c1.219,0.953,4.648,0.471,6.587-0.997
					c1.692-1.279,2.196-2.955,2.321-4.135c0.219-2.069-0.512-4.304-1.955-5.978c-2.082-2.413-5.523-2.976-8.005-1.306
					c-1.857,1.251-2.491,3.338-2.703,4.473c-0.357,1.905-0.069,3.882,0.735,5.041c0.617,0.885,1.602,1.712,2.645,2.588
					L26.905,166.738z"/>
			</g>
			<g>
				<path style="fill:#525D7D;" d="M29.303,187.129c-2.273-0.024-4.321-0.468-6.112-1.321l-0.423-0.222
					c-1.053-0.547-1.497-1.854-0.959-2.912c0.536-1.057,1.794-1.501,2.86-0.966c0.02,0.01,0.097,0.049,0.115,0.06l0.343,0.181
					c1.141,0.541,2.579,0.845,4.197,0.862c1.193,0.013,2.149,0.99,2.136,2.182C31.45,186.178,30.485,187.129,29.303,187.129z
					 M41.566,183.486c-0.741,0-1.463-0.382-1.865-1.068c-0.602-1.029-0.256-2.352,0.773-2.955c1.586-0.928,3.022-1.976,4.267-3.116
					c0.88-0.807,2.243-0.745,3.05,0.135c0.805,0.88,0.745,2.246-0.135,3.05c-1.47,1.345-3.153,2.576-5.001,3.659
					C42.312,183.39,41.937,183.486,41.566,183.486z M12.847,178.857c-0.554,0-1.108-0.212-1.529-0.635
					c-1.421-1.427-2.671-3.174-3.715-5.194c-0.547-1.058-0.132-2.361,0.928-2.91c1.054-0.543,2.361-0.134,2.91,0.928
					c0.839,1.626,1.829,3.015,2.936,4.128c0.842,0.845,0.839,2.212-0.006,3.053C13.949,178.648,13.398,178.857,12.847,178.857z
					 M52.665,169.119c-0.162,0-0.326-0.018-0.491-0.056c-1.161-0.27-1.884-1.431-1.614-2.592c0.335-1.438,0.505-2.939,0.506-4.461
					c0-0.228-0.004-0.457-0.011-0.685c-0.041-1.191,0.894-2.19,2.086-2.229c1.175-0.075,2.189,0.894,2.229,2.086
					c0.01,0.275,0.014,0.552,0.014,0.829c-0.001,1.851-0.209,3.681-0.618,5.439C54.534,168.446,53.646,169.119,52.665,169.119z
					 M6.549,161.721c-1.178,0-2.142-0.946-2.159-2.128l-0.001-0.319c0-1.992,0.19-3.96,0.565-5.847
					c0.235-1.169,1.379-1.926,2.538-1.698c1.169,0.233,1.93,1.369,1.698,2.539c-0.32,1.612-0.483,3.298-0.483,5.007l0.001,0.257
					C8.725,160.723,7.772,161.704,6.549,161.721z M49.511,151.161c-0.737,0-1.453-0.377-1.857-1.056
					c-0.901-1.517-1.964-2.949-3.157-4.261c-0.804-0.881-0.741-2.246,0.142-3.049c0.879-0.805,2.243-0.742,3.049,0.142
					c1.39,1.525,2.629,3.195,3.677,4.96c0.61,1.025,0.273,2.35-0.752,2.959C50.267,151.064,49.886,151.161,49.511,151.161z
					 M12.867,144.645c-0.544,0-1.088-0.204-1.508-0.614c-0.853-0.832-0.87-2.2-0.037-3.053c1.488-1.525,3.164-2.832,4.977-3.885
					c1.027-0.597,2.352-0.249,2.95,0.783c0.599,1.03,0.249,2.352-0.783,2.95c-1.474,0.857-2.839,1.923-4.055,3.168
					C13.989,144.428,13.428,144.645,12.867,144.645z M35.437,139.47c-0.225,0-0.455-0.035-0.682-0.11
					c-1.661-0.554-3.378-0.9-5.102-1.029c-1.188-0.09-2.079-1.127-1.99-2.317c0.09-1.189,1.108-2.084,2.317-1.99
					c2.076,0.157,4.142,0.573,6.14,1.237c1.132,0.377,1.743,1.6,1.368,2.731C37.185,138.898,36.343,139.47,35.437,139.47z"/>
			</g>
			<g>
				<g>
					<g>
						<path style="fill:#525D7D;" d="M6.623,124.85c-0.918,0-1.768-0.588-2.059-1.508c-5.807-18.381-6.078-37.605-0.783-55.59
							c0.336-1.144,1.538-1.796,2.681-1.46c1.144,0.336,1.798,1.536,1.461,2.681c-5.05,17.159-4.788,35.509,0.76,53.068
							c0.358,1.137-0.271,2.35-1.408,2.71C7.058,124.818,6.838,124.85,6.623,124.85z"/>
					</g>
					<g>
						<g>
							<g>
								<path style="fill:#525D7D;" d="M23.623,116.772c-4.358-14.218-4.519-29.027-0.475-42.878L6.463,68.84l0.416-1.378
									l18.06,5.471l-0.208,0.689c-4.171,13.774-4.078,28.548,0.27,42.729L23.623,116.772z"/>
							</g>
						</g>
						<g>
							<g>
								<path style="fill:#525D7D;" d="M24.31,118.72c-0.924,0-1.778-0.597-2.063-1.527c-4.297-14.018-4.589-28.606-0.867-42.331
									L6.045,70.217c-1.141-0.346-1.787-1.55-1.441-2.692c0.346-1.143,1.56-1.782,2.692-1.441l17.371,5.263
									c1.141,0.346,1.787,1.55,1.441,2.692c-4.088,13.498-3.995,27.983,0.268,41.889c0.349,1.14-0.292,2.347-1.432,2.697
									C24.733,118.69,24.521,118.72,24.31,118.72z"/>
							</g>
						</g>
					</g>
				</g>
				<g>
					<path style="fill:#525D7D;" d="M6.429,124.233c-0.926,0-1.784-0.602-2.066-1.536c-0.344-1.141,0.302-2.346,1.445-2.69
						c5.925-1.787,11.851-3.634,17.786-5.483l0.718,2.038l0.642,2.061c-6.023,1.878-11.962,3.729-17.901,5.52
						C6.847,124.203,6.636,124.233,6.429,124.233z"/>
				</g>
			</g>
			<g>
				<path style="fill:#525D7D;" d="M26.718,44.445c-0.618,0-1.272-0.049-1.962-0.186c-2.137-0.419-4.05-1.594-5.533-3.396
					c-2.17-2.639-3.182-5.777-2.849-8.84c0.309-2.842,1.73-5.392,4.003-7.177c2.28-1.791,5.336-2.582,8.379-2.169
					c3.054,0.412,5.795,1.99,7.523,4.331c3.566,4.831,2.645,11.686-2.055,15.279c-1.4,1.07-3.07,1.742-4.83,1.943l-0.312,0.037
					C28.353,44.352,27.567,44.445,26.718,44.445z M27.162,26.887c-1.535,0-2.995,0.474-4.117,1.355
					c-1.352,1.061-2.196,2.57-2.378,4.248c-0.209,1.924,0.444,3.871,1.891,5.63c0.852,1.036,1.871,1.676,3.031,1.903
					c0.978,0.193,1.865,0.087,2.99-0.045l0.325-0.038c1.001-0.115,1.909-0.479,2.7-1.084c2.487-1.9,3.563-6.085,1.202-9.284
					c-1.037-1.406-2.724-2.359-4.626-2.616C27.839,26.909,27.498,26.887,27.162,26.887z"/>
			</g>
			<g>
				<path style="fill:#525D7D;" d="M31.815,57.422c-1.085,0-2.047-0.805-2.175-1.905c-0.138-1.184,0.675-2.25,1.858-2.389
					l0.252,2.144l-0.216-2.149c1.66-0.191,3.23-0.596,4.705-1.209c1.099-0.46,2.364,0.066,2.822,1.167
					c0.457,1.101-0.065,2.364-1.167,2.822c-1.846,0.766-3.806,1.272-5.828,1.505C31.982,57.417,31.898,57.422,31.815,57.422z
					 M19.637,57.014c-0.222,0-0.45-0.034-0.673-0.108c-1.916-0.628-3.735-1.556-5.409-2.759c-0.968-0.696-1.189-2.044-0.493-3.012
					c0.697-0.971,2.046-1.186,3.012-0.493c1.316,0.945,2.741,1.671,4.237,2.163c1.133,0.371,1.75,1.591,1.377,2.724
					C21.389,56.438,20.545,57.014,19.637,57.014z M46.244,48.265c-0.402,0-0.808-0.111-1.171-0.346
					c-1.002-0.648-1.288-1.985-0.641-2.986c0.886-1.368,1.61-2.852,2.153-4.412c0.391-1.124,1.623-1.722,2.749-1.327
					c1.126,0.392,1.721,1.623,1.327,2.749c-0.656,1.884-1.532,3.679-2.603,5.334C47.645,47.918,46.951,48.265,46.244,48.265z
					 M7.205,45.126c-0.803,0-1.572-0.449-1.945-1.219c-0.873-1.806-1.541-3.676-1.982-5.557c-0.273-1.16,0.447-2.322,1.608-2.595
					c1.161-0.277,2.322,0.447,2.595,1.608c0.37,1.572,0.931,3.142,1.667,4.662c0.519,1.074,0.07,2.364-1.004,2.884
					C7.84,45.058,7.52,45.126,7.205,45.126z M49.447,31.332c-1.004,0-1.902-0.703-2.113-1.725c-0.327-1.598-0.855-3.16-1.566-4.639
					c-0.516-1.075-0.063-2.364,1.012-2.882c1.072-0.517,2.364-0.062,2.882,1.012c0.863,1.798,1.503,3.694,1.903,5.639
					c0.239,1.168-0.513,2.309-1.681,2.55C49.738,31.317,49.592,31.332,49.447,31.332z M5.916,27.957c-0.232,0-0.468-0.037-0.7-0.117
					c-1.127-0.387-1.729-1.614-1.342-2.742c0.648-1.891,1.538-3.693,2.645-5.357c0.662-0.995,2.003-1.261,2.994-0.602
					c0.992,0.662,1.262,2.002,0.602,2.994c-0.904,1.356-1.629,2.824-2.156,4.364C7.652,27.393,6.813,27.957,5.916,27.957z
					 M39.716,17.154c-0.395,0-0.794-0.108-1.153-0.335c-1.376-0.87-2.869-1.585-4.44-2.127c-1.127-0.388-1.726-1.616-1.338-2.744
					c0.388-1.126,1.614-1.723,2.744-1.338c1.888,0.649,3.686,1.511,5.343,2.56c1.008,0.638,1.309,1.971,0.67,2.978
					C41.132,16.799,40.432,17.154,39.716,17.154z M17.559,15.34c-0.834,0-1.628-0.485-1.982-1.299
					c-0.475-1.094,0.027-2.366,1.12-2.841c1.798-0.782,3.717-1.348,5.701-1.685c1.169-0.2,2.29,0.59,2.489,1.767
					c0.199,1.175-0.59,2.29-1.767,2.489c-1.642,0.28-3.223,0.746-4.703,1.39C18.138,15.282,17.846,15.34,17.559,15.34z"/>
			</g>
		</g>
	</g>
</g>
<g id="Layer_1">
</g>
</svg>
