<?xml version="1.0" encoding="iso-8859-1"?>
<!-- Generator: Adobe Illustrator 21.0.2, SVG Export Plug-In . SVG Version: 6.00 Build 0)  -->
<svg version="1.1" xmlns="http://www.w3.org/2000/svg" xmlns:xlink="http://www.w3.org/1999/xlink" x="0px" y="0px"
	 viewBox="0 0 196.235 201.549" style="enable-background:new 0 0 196.235 201.549;" xml:space="preserve">
<g id="_x31_16">
	<g>
		<g>
			<path style="fill:#E0DFE6;" d="M78.988,21.898c-0.588-3.451-4.837-5.385-7.969-4.524c-0.273,0.075-0.506,0.189-0.754,0.29
				c-1.255-0.452-2.692-0.389-4.102,0.542c-2.262,1.493-4.321,3.554-6.188,5.513c-1.713,1.798-4.057,4.948-1.224,6.936
				c-0.174,0.12-0.346,0.244-0.512,0.393c-0.96,0.861-1.684,1.911-1.743,3.087c-3.289,2.9-6.448,5.965-9.797,8.803
				c-2.139,1.813-4.272,3.637-6.443,5.411c-0.317,0.259-0.638,0.514-0.957,0.771c-0.324-0.784-0.671-1.554-1.047-2.308
				c-1.473-2.96-5.847-1.97-6.721,0.878c-3.991,13.008-0.98,28.945-0.659,42.382c0.171,7.148,0.229,14.299,0.173,21.449
				c-0.055,7.015-0.993,14.592,0.968,21.386c1.489,5.158,8.251,4.63,9.954,0c2.428-6.601,1.844-14.424,1.911-21.386
				c0.073-7.627,0.016-15.254-0.171-22.879c-0.201-8.226,0.078-17.574-1.102-26.396c0.936-0.694,1.844-1.463,2.786-2.201
				c3.429-2.688,6.773-5.477,9.857-8.558c3.39-3.386,6.863-7.124,8.285-11.562c3.127,0.348,6.542-0.443,8.746-1.929
				C77.714,34.329,80.072,28.258,78.988,21.898z"/>
			<path style="fill:#E0DFE6;" d="M114.066,79.228c-0.559-1.074-2.304-1.628-3.323-0.871c-3.451,2.563-4.846,6.643-6.397,10.55
				c-1.934,4.871-3.875,9.789-5.606,14.734c-2.142,6.121,8.004,10.541,10.606,4.471C112.598,100.523,118.24,87.242,114.066,79.228z"
				/>
			<path style="fill:#E0DFE6;" d="M88.954,129.634c-3.108,3.122-4.188,6.646-4.658,10.935c-0.12,1.097,0.082,5.136-0.529,5.994
				c-0.986,1.385-5.462,1.351-7.439,1.602c-10.257,1.3-23.989-0.191-33.153,5.036c-1.194,0.681-0.975,2.188,0,2.913
				c5.289,3.93,12.42,4.135,18.798,4.295c7.826,0.197,15.621-0.187,23.379-1.268c13.205-1.841,7.984-13.639,13.298-22.026
				C102.432,131.146,93.865,124.701,88.954,129.634z"/>
			<path style="fill:#E0DFE6;" d="M196.063,141.3c-2.17-7.822-8.638-14.875-12.943-21.702c-2.317-3.674-4.588-7.377-6.817-11.106
				c0.113-0.109,0.227-0.212,0.339-0.332c9.953-10.725,14.651-26.509,8.663-40.249c-0.853-1.957-3.973-1.313-4.439,0.58
				c-2.512,10.203-5.525,19.431-11.642,27.821c-4.024-7.107-8.16-14.15-12.247-21.221c-2.199-3.806-4.34-7.662-6.606-11.427
				c-1.89-3.141-4.31-6.051-6.244-9.181c7.129,1.524,15.636,1.107,21.684,1.097c8.309-0.014,16.779-2.472,19.328-11.235
				c0.017-0.057,0.024-0.116,0.038-0.173c1.267-2.104,2.036-4.598,2.321-7.175c0.249-0.864,0.265-1.705,0.125-2.508
				c-0.041-3.573-0.992-7.099-2.865-9.748c-2.748-3.888-7.138-5.937-11.697-6.219c-1.369-5.216-5.88-8.438-12.324-8.602
				c-2.348-0.06-2.757,3.404-0.547,4.042c3.315,0.957,4.86,5.329,4.121,8.323c-0.913,3.698,2.261,6.297,5.725,5.725
				c4.557-0.752,5.459,2.049,5.256,5.595c-0.11,0.1-0.219,0.203-0.341,0.293c-2.736,2.009-6.943,1.838-10.162,1.887
				c-10.071,0.153-20.418-1.823-30.31,0.805c-2.931,0.779-4.067,5.667-0.919,7.029c1.303,0.564,2.658,1.056,4.04,1.507
				c-0.672,0.33-1.323,0.692-1.931,1.115c-1.81,1.258-1.728,3.506,0,4.777c1.006,0.74,2.14,1.355,3.358,1.88
				c1.681,4.102,2.052,8.514,3.407,12.692c1.474,4.545,3.381,9.025,5.212,13.436c3.392,8.17,7.093,16.245,11.308,24.023
				c4.206,7.763,8.602,15.424,13.179,22.973c3.458,5.703,6.747,12.333,11.247,17.51c-6.572,1.043-13.123,1.987-19.675,2.949
				c-6.087,0.894-12.66,1.276-18.161,4.152c-2.851,1.49-1.746,5.316,0.822,6.289c6.503,2.466,14.631,1.51,21.435,0.896
				c7.392-0.667,14.716-1.604,22.032-2.849c3.771-0.642,5.04-4.525,4.125-7.716C195.636,145.801,196.661,143.454,196.063,141.3z"/>
			<path style="fill:#E0DFE6;" d="M138.716,127.128c-9.152-0.487-18.642,0.776-27.785,1.415c-7.657,0.535-16.222,0.458-22.966,4.533
				c-0.923,0.558-0.909,1.886,0,2.447c7.059,4.355,16.324,4.03,24.356,4.135c9.214,0.12,18.82,0.321,27.911-1.331
				C146.835,137.128,144.833,127.454,138.716,127.128z"/>
			<path style="fill:#E0DFE6;" d="M87.487,158.934c-1.545-4.448-8.869-6.674-11.209-1.465c-4.301,9.576-9.748,16.557-19.803,20.613
				c-11.499,4.639-22.331,0.551-33.882,2.464c-1.375,0.228-1.396,1.901-0.729,2.763c8.953,11.583,30.043,10.21,42.082,5.125
				c6.116-2.583,11.745-6.595,16.11-11.617C83.843,172.461,89.607,165.038,87.487,158.934z"/>
			<path style="fill:#E0DFE6;" d="M183.658,175.062c-4.739,0.363-7.749,4.693-6.108,9.059c-1.172-0.212-5.15,0.248-5.542,0.254
				c-4.184,0.06-8.366,0.147-12.548,0.281c-8.842,0.285-17.652,0.808-26.462,1.612c-7.749,0.707-16.169,3.167-23.851,3.271
				c-2.894,0.039-0.577,0.247-2.713-0.346c-0.967-0.268-1.371-1.023-2.542-1.137c-1.428-0.139-2.332,0.643-3.624,1.205
				c-0.557,0.242-0.18,0.947,0.272,1.006c0.763,0.099,1.87,6.741,3.202,8.137c3.316,3.475,8.234,3.186,12.579,3.104
				c13.918-0.264,27.824-1.293,41.745-1.614c9.608-0.221,25.556,2.766,32.606-5.69C196.043,187.76,193.942,174.274,183.658,175.062z
				"/>
			<path style="fill:#E0DFE6;" d="M108.828,71.128c-0.477-0.754-1.467-0.876-2.119-0.273c-5.369,4.961-7.743,13.34-10.679,19.868
				c-2.913,6.477-8.071,13.587-9.374,20.552c-0.869,4.645,4.71,8.822,8.424,4.904c5.407-5.705,8.183-15.414,10.926-22.71
				C108.417,87.055,112.896,77.562,108.828,71.128z"/>
			<path style="fill:#E0DFE6;" d="M86.685,126.964c-5.209-1.181-8.963,5.914-10.957,9.658c-3.04,5.707-6.725,12.306-4.061,18.602
				c1.09,2.577,5.201,3.408,7.385,1.936c5.333-3.594,6.262-11.679,8.145-17.537C88.002,137.12,91.419,128.037,86.685,126.964z"/>
			<path style="fill:#E0DFE6;" d="M183.78,149.525c-7.072-20.517-17.201-40.302-26.19-60.033
				c-4.609-10.117-9.399-20.119-14.41-30.042c-2.294-4.542-4.574-9.091-6.99-13.569c-3.008-5.578-6.761-9.695-10.5-14.744
				c-1.003-1.354-3.439-0.633-2.898,1.222c3.017,10.338,6.275,19.653,10.666,29.566c4.514,10.19,8.965,20.407,13.45,30.61
				c8.961,20.386,16.095,41.62,25.341,61.852C175.205,160.852,186.104,156.269,183.78,149.525z"/>
		</g>
		<g>
			<g>
				<path style="fill:#525D7D;" d="M96.008,111.717c-0.693,0-1.347-0.333-1.754-0.9c-0.43-0.6-0.524-1.379-0.249-2.064
					l15.348-38.164c0.319-0.796,1.08-1.326,1.936-1.353c0.848-0.029,1.649,0.456,2.017,1.23l16.949,35.594
					c0.305,0.64,0.275,1.39-0.077,2.004c-0.354,0.615-0.987,1.017-1.694,1.075c-2.971,0.247-5.943,0.506-8.914,0.766
					c-7.676,0.67-15.615,1.364-23.439,1.808C96.089,111.716,96.049,111.717,96.008,111.717z M111.523,76.766l-12.237,30.428
					c6.657-0.434,13.377-1.021,19.908-1.591c1.94-0.169,3.881-0.339,5.821-0.505L111.523,76.766z"/>
			</g>
			<g>
				<path style="fill:#525D7D;" d="M38.872,154.035c-0.727,0-1.407-0.366-1.806-0.977c-0.417-0.637-0.468-1.446-0.134-2.13
					c8.396-17.192,18.961-41.922,30.147-68.104C75.214,63.78,83.627,44.087,91.93,25.569c0.336-0.748,1.067-1.242,1.886-1.274
					c10.795-0.42,21.412-0.642,31.554-0.659c0.912,0,1.723,0.568,2.034,1.421c14.307,39.356,26.02,60.507,37.346,80.962
					c7.328,13.232,14.249,25.731,21.73,42.665c0.295,0.667,0.232,1.439-0.166,2.05c-0.398,0.611-1.078,0.98-1.808,0.981
					c-11.959,0.008-23.92,0.027-35.88,0.084c-0.842,0-1.601-0.479-1.96-1.231l-10.504-22.059
					c-14.703,0.507-30.395,1.077-46.171,1.796l-8.465,21.047c-0.322,0.8-1.089,1.333-1.951,1.353
					c-14.3,0.343-27.584,0.777-40.613,1.326C38.932,154.034,38.901,154.035,38.872,154.035z M95.323,28.559
					c-8.11,18.126-16.325,37.354-24.274,55.961c-10.523,24.63-20.498,47.979-28.665,65.05c11.47-0.463,23.189-0.839,35.667-1.145
					l8.452-21.016c0.315-0.784,1.06-1.312,1.903-1.352c16.771-0.775,33.472-1.375,49.023-1.91c0.915-0.023,1.654,0.454,2.024,1.229
					l10.524,22.099c10.4-0.047,20.801-0.067,31.2-0.075c-6.892-15.25-13.37-26.948-20.203-39.289
					c-11.272-20.354-22.92-41.389-37.109-80.153C114.656,27.992,105.068,28.194,95.323,28.559z"/>
			</g>
			<g>
				<path style="fill:#525D7D;" d="M29.735,47.038c-1.117,0-2.063-0.862-2.151-1.995c-0.09-1.189,0.8-2.227,1.989-2.317
					c15.67-1.195,23.373-9.039,27.077-15.409c0.6-1.032,1.923-1.379,2.952-0.782c1.03,0.599,1.38,1.921,0.782,2.952
					c-4.224,7.266-12.94,16.207-30.481,17.544C29.846,47.036,29.791,47.038,29.735,47.038z"/>
			</g>
			<g>
				<path style="fill:#525D7D;" d="M29.516,136.86c-0.072,0-0.145-0.004-0.218-0.011c-1.186-0.119-2.052-1.177-1.933-2.363
					c0.68-6.81,1.012-14.186,1.012-22.55c0-6.971-0.224-15.539-0.665-25.467c-0.291-6.526-0.432-12.838-0.432-19.299
					c0-4.121,0.06-8.38,0.18-12.659c0.094-3.383,0.111-6.748,0.118-9.638c0.003-1.191,0.97-2.153,2.159-2.153
					c1.198,0.003,2.162,0.972,2.159,2.165c-0.007,2.916-0.024,6.314-0.121,9.747c-0.117,4.239-0.177,8.458-0.177,12.539
					c0,6.396,0.139,12.646,0.426,19.107c0.445,9.992,0.67,18.625,0.67,25.659c0,8.508-0.339,16.025-1.035,22.98
					C31.55,136.03,30.611,136.86,29.516,136.86z"/>
			</g>
			<g>
				<path style="fill:#525D7D;" d="M38.96,58.959h-8.5c-1.192,0-2.159-0.966-2.159-2.159c0-1.193,0.967-2.159,2.159-2.159h8.5
					c1.192,0,2.159,0.966,2.159,2.159C41.119,57.993,40.152,58.959,38.96,58.959z"/>
			</g>
			<g>
				<path style="fill:#525D7D;" d="M30.012,79.762c-1.192,0-2.159-0.966-2.159-2.159c0-1.193,0.967-2.159,2.159-2.159
					c0.707,0,1.477-0.065,2.291-0.133c1.366-0.115,2.835-0.229,4.213-0.077c1.185,0.133,2.038,1.2,1.905,2.386
					c-0.131,1.184-1.196,2.038-2.385,1.905c-1.044-0.116-2.156-0.013-3.368,0.088C31.798,79.686,30.902,79.762,30.012,79.762z"/>
			</g>
			<g>
				<path style="fill:#525D7D;" d="M31.457,101.045c-0.273,0-0.545-0.016-0.819-0.05c-1.184-0.149-2.021-1.229-1.872-2.412
					c0.15-1.183,1.231-2.018,2.412-1.872c0.485,0.062,0.997-0.041,1.588-0.145c1.213-0.21,2.814-0.346,4.134,0.148
					c1.116,0.418,1.682,1.663,1.264,2.78c-0.417,1.115-1.659,1.681-2.779,1.264c-0.455-0.173-1.109-0.072-1.881,0.063
					C32.898,100.925,32.21,101.045,31.457,101.045z"/>
			</g>
			<g>
				<path style="fill:#525D7D;" d="M30.906,120.473c-0.967,0-1.848-0.655-2.093-1.636c-0.29-1.157,0.413-2.329,1.57-2.618
					c1.74-0.435,3.504-0.472,5.162-0.472l0.838,0.001c1.192,0,2.159,0.966,2.159,2.159c0,1.193-0.967,2.159-2.159,2.159
					l-0.838-0.001c-1.446,0-2.848,0.026-4.113,0.342C31.256,120.452,31.079,120.473,30.906,120.473z"/>
			</g>
			<g>
				<path style="fill:#525D7D;" d="M108.38,195.03c-0.465,0-0.919-0.15-1.293-0.43c-7.375-5.517-13.207-9.834-17.831-13.197
					c-0.564-0.411-0.894-1.068-0.888-1.765c0.006-0.697,0.349-1.349,0.919-1.749c3.125-2.189,6.251-4.362,9.375-6.533
					c2.696-1.875,5.393-3.75,8.091-5.635c0.36-0.252,0.789-0.388,1.227-0.39l74.792-0.326c0.728,0,1.399,0.357,1.801,0.952
					c2.374,3.524,3.629,7.887,3.629,12.616c0,4.438-1.278,9.637-3.417,13.907c-0.36,0.718-1.088,1.177-1.891,1.191
					C182.896,193.672,108.42,195.03,108.38,195.03z M94.241,179.696c4.068,2.98,8.957,6.604,14.839,11.003l72.393-1.32
					c1.503-3.423,2.412-7.454,2.412-10.806c0-3.439-0.791-6.61-2.297-9.246l-72.913,0.318c-2.516,1.758-5.032,3.506-7.548,5.256
					C98.832,176.497,96.536,178.093,94.241,179.696z"/>
			</g>
			<g>
				<path style="fill:#525D7D;" d="M109.354,194.133c-0.364,0-0.732-0.092-1.071-0.286c-1.035-0.592-1.393-1.911-0.801-2.946
					c0.41-0.718,0.602-1.462,0.602-2.342c0-1.368-0.803-3.825-1.234-5.145c-0.354-1.088-0.488-1.496-0.488-1.983
					c0-2.217,1.474-3.598,2.55-4.607c0.994-0.93,1.428-1.404,1.428-2.038c0-0.999-1.157-2.188-2.276-3.337
					c-0.677-0.696-1.379-1.415-1.955-2.21c-0.701-0.964-0.488-2.314,0.476-3.016c0.963-0.7,2.317-0.486,3.015,0.477
					c0.395,0.543,0.96,1.122,1.556,1.735c1.56,1.602,3.501,3.596,3.501,6.35c0,2.572-1.615,4.085-2.793,5.19
					c-0.513,0.481-1.042,0.976-1.161,1.323c0.059,0.196,0.149,0.46,0.252,0.775c0.731,2.241,1.446,4.589,1.446,6.485
					c0,1.618-0.395,3.127-1.172,4.487C110.832,193.742,110.102,194.133,109.354,194.133z"/>
			</g>
			<g>
				<path style="fill:#525D7D;" d="M157.08,98.716c-0.838,0-1.635-0.491-1.986-1.309c-0.47-1.096,0.038-2.366,1.134-2.835
					c13.548-5.811,22.65-18.537,22.65-31.668c0-1.703-0.152-3.4-0.451-5.046c-0.214-1.173,0.564-2.297,1.737-2.511
					c1.177-0.218,2.297,0.565,2.51,1.737c0.346,1.9,0.521,3.858,0.521,5.819c0,14.834-10.154,29.154-25.268,35.636
					C157.652,98.659,157.364,98.716,157.08,98.716z"/>
			</g>
			<g>
				<path style="fill:#525D7D;" d="M160.868,47.107c-6.562,0-10.679-0.579-13.986-1.044c-2.624-0.37-4.653-0.652-6.923-0.528
					c-1.234,0.076-2.21-0.847-2.274-2.037c-0.065-1.191,0.848-2.209,2.038-2.274c2.65-0.145,5.027,0.178,7.761,0.563
					c3.174,0.446,7.127,1.002,13.384,1.002c10.011,0,15.435-0.948,15.435-5.949c0-2.129-0.475-8.586-6.058-9.876
					c0.014,0.444,0.024,0.89,0.024,1.336c0,6.829-3.984,8.651-6.337,8.651c-3.149,0-5.031-3.142-5.031-6.18
					c0-4.05,3.143-7.023,6.712-8.002c-0.919-3.606-4.345-8.342-10.087-8.342c-0.225,0-0.453,0.008-0.683,0.026
					c0.017,0.306,0.025,0.617,0.025,0.933c0,2.333,0,9.433-6.778,9.433c-0.402,0-0.81-0.022-1.219-0.044
					c-0.33-0.019-0.662-0.039-0.992-0.039c-2.45,0-3.552-2.741-3.552-4.688c0-4.156,3.501-7.229,7.471-8.788
					c-1.775-4.551-6.341-6.942-9.844-6.942c-6.044,0-16.024,6.45-17.949,13.047c-0.336,1.146-1.542,1.801-2.678,1.468
					c-1.146-0.334-1.802-1.533-1.469-2.677C120.355,7.606,132.293,0,139.955,0c5.07,0,11.723,3.516,14.059,10.197
					c0.517-0.059,1.023-0.089,1.512-0.089c8.088,0,13.396,6.692,14.46,12.428c6.522,0.849,10.635,6.274,10.635,14.303
					C180.621,47.107,168.256,47.107,160.868,47.107z M165.933,27.212c-1.507,0.654-2.713,1.939-2.713,3.559
					c0,0.981,0.484,1.862,0.713,1.862c0.699,0,2.019-0.905,2.019-4.333C165.951,27.937,165.944,27.574,165.933,27.212z
					 M146.708,20.441c0.136,0.007,0.271,0.014,0.408,0.022c0.326,0.018,0.652,0.038,0.976,0.038c1.022,0,2.415-0.001,2.458-4.877
					c-2.199,1.051-3.903,2.681-3.903,4.424C146.646,20.15,146.671,20.298,146.708,20.441z"/>
			</g>
			<g>
				<path style="fill:#525D7D;" d="M38.283,185.503C24.542,185.503,0,172.431,0,146.384c0-12.802,6.456-25.673,16.848-33.591
					c0.947-0.72,2.304-0.539,3.026,0.409c0.722,0.949,0.54,2.303-0.409,3.026c-9.343,7.118-15.147,18.673-15.147,30.156
					c0,22.849,22.111,34.801,33.964,34.801c13.978,0,27.728-7.594,33.436-18.468c0.555-1.056,1.86-1.462,2.915-0.908
					c1.056,0.554,1.462,1.86,0.908,2.915C69.017,177.153,54.044,185.503,38.283,185.503z"/>
			</g>
			<g>
				<g>
					<path style="fill:#525D7D;" d="M19.897,134.707c-0.392,0-0.79-0.106-1.146-0.33c-1.011-0.634-1.316-1.966-0.682-2.976
						c0.516-0.822,1.086-1.663,1.697-2.502c0.7-0.967,2.052-1.176,3.016-0.476c0.964,0.701,1.176,2.052,0.475,3.016
						c-0.552,0.759-1.067,1.519-1.531,2.257C21.317,134.349,20.615,134.707,19.897,134.707z"/>
				</g>
				<g>
					<path style="fill:#525D7D;" d="M41.895,169.876c-0.69,0-1.4-0.027-2.124-0.079c-1.189-0.088-2.082-1.122-1.995-2.312
						c0.087-1.19,1.108-2.063,2.312-1.995c0.626,0.046,1.234,0.096,1.833,0.068c1.143,0,2.273-0.077,3.359-0.228
						c1.175-0.168,2.272,0.661,2.435,1.841c0.165,1.181-0.659,2.271-1.841,2.436C44.584,169.787,43.282,169.878,41.895,169.876z
						 M27.795,166.256c-0.351,0-0.708-0.086-1.037-0.267c-1.844-1.013-3.532-2.203-5.021-3.537
						c-0.887-0.796-0.962-2.161-0.166-3.049c0.798-0.888,2.16-0.964,3.05-0.166c1.241,1.114,2.66,2.112,4.214,2.966
						c1.046,0.574,1.428,1.887,0.853,2.932C29.296,165.851,28.557,166.256,27.795,166.256z M16.736,152.265
						c-0.974,0-1.857-0.663-2.097-1.651c-0.467-1.924-0.713-3.972-0.734-6.086c-0.011-1.192,0.946-2.168,2.138-2.18
						c1.236-0.06,2.169,0.946,2.18,2.138c0.017,1.786,0.224,3.505,0.613,5.11c0.281,1.159-0.432,2.326-1.59,2.607
						C17.074,152.244,16.903,152.265,16.736,152.265z"/>
				</g>
				<g>
					<path style="fill:#525D7D;" d="M57.172,164.667c-0.635,0-1.264-0.278-1.69-0.813c-0.744-0.933-0.59-2.291,0.343-3.034
						c0.676-0.54,1.338-1.132,1.964-1.757c0.843-0.843,2.21-0.843,3.053,0c0.843,0.843,0.843,2.21,0,3.053
						c-0.739,0.74-1.522,1.44-2.326,2.08C58.119,164.513,57.644,164.667,57.172,164.667z"/>
				</g>
			</g>
			<g>
				<g>
					<path style="fill:#525D7D;" d="M167.22,58.025c-0.069,0-0.138-0.003-0.208-0.01c-1.186-0.113-2.058-1.167-1.944-2.354
						c0.084-0.881,0.127-1.777,0.127-2.663c0-1.193,0.967-2.159,2.159-2.159c1.192,0,2.159,0.966,2.159,2.159
						c0,1.023-0.049,2.056-0.146,3.073C169.26,57.188,168.319,58.025,167.22,58.025z"/>
				</g>
				<g>
					<path style="fill:#525D7D;" d="M160.467,73.678c-0.503,0-1.011-0.176-1.42-0.533c-0.898-0.785-0.99-2.149-0.204-3.047
						c1.094-1.252,2.062-2.593,2.879-3.986c0.602-1.029,1.927-1.373,2.953-0.772c1.029,0.602,1.375,1.925,0.772,2.954
						c-0.953,1.628-2.08,3.191-3.354,4.646C161.668,73.428,161.069,73.678,160.467,73.678z"/>
				</g>
				<g>
					<path style="fill:#525D7D;" d="M148.519,82.386c-0.811,0-1.587-0.459-1.955-1.241c-0.507-1.08-0.043-2.365,1.036-2.872
						c0.848-0.399,1.661-0.813,2.439-1.243c1.044-0.577,2.356-0.2,2.935,0.846c0.576,1.044,0.197,2.357-0.846,2.934
						c-0.859,0.474-1.764,0.935-2.692,1.371C149.139,82.32,148.827,82.386,148.519,82.386z"/>
				</g>
			</g>
			<g>
				<path style="fill:#525D7D;" d="M62.424,31.412c-0.059,0-0.118,0-0.177-0.001c-5.708-0.056-9.756-3.986-9.841-9.557
					c-0.062-4.147,2.266-7.837,5.929-9.403c0.779-0.332,1.585-0.537,2.399-0.609c3.222-0.279,6.245,0.722,8.528,2.837
					c2.08,1.926,3.254,4.509,3.223,7.088c-0.053,4.492-3.842,9.435-9.395,9.633C62.87,31.408,62.646,31.412,62.424,31.412z
					 M60.032,16.422c-2.013,0.861-3.343,3.018-3.308,5.367c0.048,3.189,2.234,5.27,5.568,5.303c0.214,0.003,0.429-0.001,0.641-0.009
					c2.962-0.106,5.205-2.922,5.235-5.37c0.017-1.34-0.67-2.787-1.839-3.868c-1.376-1.275-3.223-1.884-5.212-1.704
					C60.75,16.175,60.396,16.267,60.032,16.422z"/>
			</g>
		</g>
	</g>
</g>
<g id="Layer_1">
</g>
</svg>
