<?xml version="1.0" encoding="iso-8859-1"?>
<!-- Generator: Adobe Illustrator 21.0.2, SVG Export Plug-In . SVG Version: 6.00 Build 0)  -->
<svg version="1.1" xmlns="http://www.w3.org/2000/svg" xmlns:xlink="http://www.w3.org/1999/xlink" x="0px" y="0px"
	 viewBox="0 0 214.515 217.265" style="enable-background:new 0 0 214.515 217.265;" xml:space="preserve">
<g id="_x31_18">
	<g>
		<g>
			<path style="fill:#E0DFE6;" d="M58.107,106.592c-1.295-6.648-11.198-6.044-12.856,0c-2.904,10.587-6.8,19.155-15.199,26.72
				c-7.582,6.829-13.772,0.025-21.968-0.945c-1.109-0.131-2.517,0.958-2.706,2.06c-2.553,14.889,19.446,19.055,29.341,13.556
				C47.546,140.855,61.029,121.596,58.107,106.592z"/>
			<path style="fill:#E0DFE6;" d="M45.154,89.81c-0.693-1.489-1.669-2.821-2.286-4.358c-0.597-1.487-0.967-3.111-1.414-4.647
				c-1.065-3.664-5.718-3.179-6.969,0c-1.727,4.388-1.272,10.487,1.245,14.514c1.561,2.496,4.868,3.477,7.466,1.958
				C45.935,95.674,46.402,92.492,45.154,89.81z"/>
			<path style="fill:#E0DFE6;" d="M47.795,107.6c-1.254-1.804-3.371-2.918-5.595-2.277c-6.336,1.825-7.987,10.216-11.907,14.932
				c-2.041,2.456-4.293,4.939-7.048,6.604c-2.806,1.696-5.69,1.391-8.643,2.355c-1.294,0.422-2.096,1.711-1.742,3.068
				c2.553,9.79,16.362,4.71,21.752,0.864C40.901,128.659,53.638,116.005,47.795,107.6z"/>
			<path style="fill:#E0DFE6;" d="M159.009,94.478c-1.367-9.584-5.654-16.379-10.43-24.449c-1.315-2.222-4.565-0.712-4.053,1.709
				c2.421,11.447,4.26,26.996,0.723,38.321c-3.439,11.009-11.65,14.728-20.252,20.973c-0.818,0.594-1.336,1.343-1.625,2.134
				c-3.437,1.337-7.054,2.203-10.731,2.473c-14.182,1.041-24.398-7.58-36.998-12.123c-1.332-0.48-2.291,0.932-2.088,2.088
				c2.98,17.02,25.156,23.479,40.176,22.21c9.674-0.818,25.258-5.979,32.582-15.123c4.658-4.378,8.307-10.184,10.319-15.242
				C159.544,110.129,160.116,102.24,159.009,94.478z"/>
			<path style="fill:#E0DFE6;" d="M146.753,92.168c0-3.002-4.499-2.973-4.643,0c-0.354,7.304-4.951,16.237-10.296,23.142
				c0.359-3.749-0.402-7.862-0.479-11.274c-0.085-3.75,0.768-4.36,3.147-6.994c1.777-1.968,2.94-3.645,3.725-6.201
				c0.583-1.899,0.017-4.508-1.541-5.828c-5.611-4.759-9.9,1.545-13.533,5.675c-2.491,2.831-3.84,5.353-4.312,9.125
				c-0.198,1.581,0.973,8.66,1.038,12.348c-3.984-1.025-8.076-3.451-12.144-3.548c-4.963-0.119-8.808,2.194-12.217,5.619
				c-2.061,2.071-0.715,6.744,2.623,6.334c2.85-0.35,6.36-1.722,9.159-1.383c3.367,0.409,7.151,2.74,10.246,4.008
				c1.678,0.688,3.397,1.176,5.058,1.282c-3.383,2.366-7.154,4.056-11.184,5.104c-4.681,1.217-9.274,1.206-13.595,3.583
				c-2.243,1.233-2.965,4.943-0.863,6.693c10.585,8.811,27.657,0.287,36.527-7.433c5.164-4.495,9.157-10.453,11.58-16.839
				C148.188,107.309,146.755,100.624,146.753,92.168z"/>
			<path style="fill:#E0DFE6;" d="M132.422,161.092c-9.928-9.669-23.473,6.279-34.687,1.331c-3.905-1.723-7.156-3.421-11.257-1.157
				c-4.021,2.22-7.575,7.503-9.114,11.717c-0.536,1.469,1.157,3.211,2.642,2.642c3.492-1.336,7.556-6.378,10.882-6.379
				c3.875-0.001,7.21,4.1,11.683,4.277c4.415,0.175,8.59-1.324,12.659-2.841c5.386-2.007,9.937-2.158,15.48-3.105
				C133.645,167.076,134.364,162.983,132.422,161.092z"/>
			<path style="fill:#E0DFE6;" d="M140.604,170.859c-0.716-1.059-1.933-1.647-3.208-1.306c-3.966,1.061-8.681,5.376-11.442,8.253
				c-0.192,0.2-0.378,0.408-0.563,0.619c-1.136-0.459-2.523-0.308-3.486,0.636c-7.074,6.936-6.757,22.389-17.615,25.434
				c-3.701,1.038-2.149,6.613,1.584,5.746c1.264-0.294,2.522-0.685,3.76-1.158c-2.019,1.586-4.15,2.91-6.303,3.858
				c-2.344,1.032-0.651,5.139,1.762,4.18c6.716-2.671,13.194-3.927,18.759-9.038c3.645-3.347,6.202-7.489,7.682-12.05
				c2.409-2.506,1.751-4.535,2.535-7.461c0.451-1.68,2.022-3.277,3.068-4.649C139.693,180.569,143.472,175.1,140.604,170.859z"/>
			<path style="fill:#E0DFE6;" d="M211.575,111.265c-11.917-2.366-16.437,13.705-20.398,21.712
				c-2.816,5.693-7.438,11.872-14.141,12.7c-1.788,0.221-8.102-1.355-8.813,1.794c-1.113,4.933,3.822,7.828,8.136,8.682
				c6.208,1.229,12.62-1.684,17.143-5.823c4.971-4.549,8.454-10.49,10.938-16.686c1.608-4.012,3.296-7.084,6.184-10.318
				c2.459-2.754,4.06-4.408,3.877-8.22C214.421,113.456,213.329,111.613,211.575,111.265z"/>
			<path style="fill:#E0DFE6;" d="M189.098,96.21c-3.282-2.646-7.734-1.965-10.535,1.02c-3.851,4.105-5.744,11.404-2.662,16.36
				c1.227,1.973,3.828,1.818,5.086,0c0.781-1.129,1.435-2.287,2.098-3.46c3.481,3.653,10.892,1.087,10.663-4.434
				C193.603,102.226,191.837,98.418,189.098,96.21z"/>
			<path style="fill:#E0DFE6;" d="M136.941,24.412c-0.181-0.604-0.444-1.118-0.742-1.589c1.839-0.872,1.522-4.227-0.965-4.227
				c-1.293,0-1.994,0.911-2.116,1.906c-1.501-0.441-3.213-0.32-4.828,0.39c-2.21,0.972-3.496,2.557-4.715,4.269
				c0.444-4.572-0.828-8.973-4.602-11.374c-0.962-0.613-2.573-0.264-3.081,0.808c-1.494,3.154-1.688,6.657-3.077,9.832
				c-1.528,3.493-4.561,5.794-6.47,9.045c-0.468,0.797-0.682,1.598-0.706,2.366c-9.694,0.902-17.386-3.682-26.558-6.222
				c-2.215-0.613-4.473,1.116-4.473,3.408c-0.004,14.398,24.709,17.83,35.153,16.407C120.235,48.003,140.972,37.884,136.941,24.412z
				"/>
			<path style="fill:#E0DFE6;" d="M172.744,50.348c-3.52-4.202-9.569-11.367-15.637-8.605c-1.236,0.562-1.249,2.346-0.414,3.21
				c4.058,4.197,6.838,9.965,9.554,15.114c2.509,4.759,3.9,12.611,9.115,14.912c3.162,1.395,5.997,0.244,7.278-2.961
				C185.406,65.098,176.981,55.405,172.744,50.348z"/>
			<path style="fill:#E0DFE6;" d="M162.829,140.8c-4.702,3.08-9.004,6.621-13.327,10.16c-2.596-0.318-4.988,1.399-5.879,4.141
				c-0.563,1.732,0.658,3.91,2.444,4.304c0.785,0.173,1.567,0.201,2.31,0.103c0.384-0.026,0.713-0.105,1.036-0.233
				c0.413-0.13,0.805-0.301,1.169-0.515c5.987-2.731,12.031-5.228,17.746-8.555C174.407,146.668,168.691,136.96,162.829,140.8z"/>
			<path style="fill:#E0DFE6;" d="M68.592,158.338c-3.437-0.902-6.694-2.544-9.329-4.957c-2.515-2.304-4.531-6.396-7.57-7.877
				c-1.286-0.627-3.07-0.418-3.792,0.994c-2.202,4.306,0.815,10.126,3.392,13.664c3.19,4.38,7.328,7.827,12.332,9.954
				c3.53,1.5,7.499,0.818,9.142-3.082C74.236,163.551,72.359,159.327,68.592,158.338z"/>
		</g>
		<g>
			<g>
				<path style="fill:#525D7D;" d="M93.628,118.338c-0.304,0-0.609-0.063-0.897-0.195c-0.801-0.365-1.3-1.182-1.259-2.062
					c0.151-3.319,0.403-6.687,0.646-9.945c0.12-1.612,0.24-3.22,0.349-4.826c-2.778-1.934-6.517-4.692-10.126-7.838
					c-0.563-0.492-0.832-1.238-0.712-1.976c0.121-0.738,0.614-1.361,1.305-1.646c4.632-1.917,9.309-3.184,14.426-4.449
					c1.003-6.407,2.085-12.244,3.3-17.807c0.187-0.856,0.873-1.514,1.737-1.666c0.86-0.143,1.732,0.235,2.199,0.975
					c1.399,2.222,3.721,6.237,7.936,13.525l0.583,1.009c5.034-0.034,10.392-0.153,15.804-0.649c0.873-0.077,1.715,0.381,2.117,1.164
					c0.402,0.784,0.288,1.733-0.288,2.399c-3.561,4.117-6.693,7.952-9.555,11.701c0.44,4.37,1.494,8.74,2.515,12.975
					c0.281,1.164,0.561,2.325,0.829,3.486c0.19,0.822-0.116,1.678-0.782,2.194c-0.666,0.515-1.571,0.597-2.319,0.207
					c-2.983-1.555-6.045-2.894-9.007-4.189c-2.033-0.89-4.124-1.805-6.168-2.78c-3.995,3.114-7.711,6.538-11.148,9.799
					C94.705,118.134,94.171,118.338,93.628,118.338z M87.971,92.557c2.982,2.408,5.857,4.461,7.947,5.89
					c0.63,0.429,0.986,1.158,0.938,1.919c-0.129,2.023-0.28,4.055-0.432,6.092c-0.11,1.472-0.221,2.966-0.325,4.466
					c2.704-2.463,5.568-4.93,8.606-7.227c0.654-0.492,1.529-0.573,2.261-0.211c2.331,1.155,4.694,2.19,7.195,3.283
					c1.68,0.735,3.39,1.483,5.113,2.281c-1.046-4.349-2.075-8.836-2.458-13.459c-0.044-0.529,0.11-1.056,0.43-1.48
					c2.132-2.817,4.408-5.673,6.892-8.649c-4.225,0.229-8.346,0.284-12.254,0.301c-0.78,0-1.493-0.411-1.879-1.078l-1.212-2.094
					c-2.12-3.666-3.757-6.497-5.034-8.68c-0.84,4.273-1.617,8.756-2.352,13.569c-0.132,0.864-0.772,1.565-1.622,1.771
					C95.579,90.278,91.699,91.265,87.971,92.557z"/>
			</g>
			<g>
				<path style="fill:#525D7D;" d="M109.076,137.52c-11.733,0-23.22-4.74-31.626-13.077c-8.295-8.227-12.802-19.042-12.692-30.454
					c0.225-23.3,20.135-42.145,44.418-41.891c2.586,0.022,5.192,0.267,7.748,0.728c8.009,1.448,15.219,4.878,21.43,10.197
					c8.468,7.253,13.638,18.59,13.834,30.325c0.424,25.571-21.967,43.798-42.33,44.165
					C109.598,137.518,109.336,137.52,109.076,137.52z M108.79,56.415c-21.73,0-39.512,16.804-39.713,37.616
					c-0.099,10.236,3.955,19.947,11.415,27.347c7.769,7.704,18.46,12.021,29.289,11.817c18.323-0.329,38.472-16.745,38.089-39.775
					c-0.174-10.518-4.781-20.656-12.324-27.116c-5.7-4.882-12.042-7.901-19.389-9.227c-2.315-0.419-4.676-0.641-7.017-0.661
					C109.024,56.415,108.906,56.415,108.79,56.415z"/>
			</g>
			<g>
				<path style="fill:#525D7D;" d="M73.75,163.588c-0.293,0-0.59-0.059-0.876-0.186l-0.559-0.254
					c-1.082-0.5-1.554-1.782-1.054-2.865c0.501-1.084,1.782-1.557,2.866-1.054l0.501,0.226c1.089,0.485,1.58,1.761,1.096,2.851
					C75.366,163.11,74.577,163.588,73.75,163.588z M61.974,156.946c-0.422,0-0.849-0.124-1.224-0.381
					c-1.62-1.118-3.215-2.311-4.743-3.546c-0.927-0.75-1.07-2.11-0.32-3.036c0.75-0.928,2.11-1.071,3.037-0.321
					c1.441,1.167,2.948,2.293,4.477,3.347c0.982,0.678,1.229,2.021,0.552,3.004C63.335,156.62,62.66,156.946,61.974,156.946z
					 M48.059,144.516c-0.604,0-1.204-0.252-1.631-0.744c-1.294-1.491-2.541-3.047-3.706-4.626c-0.708-0.96-0.504-2.311,0.455-3.019
					c0.959-0.706,2.311-0.503,3.019,0.455c1.098,1.487,2.272,2.953,3.492,4.359c0.781,0.901,0.685,2.265-0.215,3.046
					C49.065,144.342,48.561,144.516,48.059,144.516z"/>
			</g>
			<g>
				<path style="fill:#525D7D;" d="M137.499,161.063c-0.783,0-1.539-0.427-1.922-1.172c-0.545-1.061-0.127-2.363,0.934-2.907
					c1.647-0.846,3.286-1.768,4.873-2.742c1.019-0.623,2.347-0.306,2.969,0.711c0.624,1.016,0.306,2.346-0.71,2.969
					c-1.68,1.03-3.416,2.007-5.159,2.903C138.168,160.987,137.832,161.063,137.499,161.063z M152.939,150.576
					c-0.602,0-1.201-0.25-1.628-0.739c-0.784-0.9-0.691-2.263,0.208-3.046c1.394-1.217,2.765-2.506,4.076-3.833
					c0.837-0.849,2.206-0.853,3.053-0.018c0.848,0.839,0.857,2.205,0.018,3.054c-1.385,1.401-2.835,2.765-4.31,4.05
					C153.948,150.4,153.443,150.576,152.939,150.576z M165.402,136.685c-0.425,0-0.854-0.125-1.229-0.385
					c-0.98-0.68-1.222-2.025-0.542-3.005c0.736-1.06,1.452-2.155,2.128-3.253c0.626-1.015,1.957-1.331,2.971-0.706
					c1.015,0.626,1.331,1.955,0.706,2.972c-0.718,1.164-1.478,2.325-2.259,3.449C166.757,136.362,166.086,136.685,165.402,136.685z"
					/>
			</g>
			<g>
				<path style="fill:#525D7D;" d="M175.269,77.774c-0.939,0-1.804-0.617-2.075-1.566c-0.511-1.787-1.101-3.567-1.752-5.296
					c-0.421-1.116,0.142-2.361,1.258-2.782c1.118-0.419,2.361,0.143,2.782,1.258c0.694,1.839,1.321,3.733,1.865,5.634
					c0.328,1.146-0.336,2.34-1.482,2.669C175.666,77.747,175.465,77.774,175.269,77.774z M167.777,60.693
					c-0.725,0-1.434-0.365-1.841-1.028c-0.971-1.581-2.021-3.13-3.121-4.605c-0.713-0.956-0.515-2.308,0.441-3.021
					c0.955-0.714,2.309-0.517,3.021,0.44c1.176,1.577,2.299,3.234,3.338,4.923c0.625,1.016,0.307,2.346-0.708,2.97
					C168.553,60.59,168.163,60.693,167.777,60.693z M155.787,46.415c-0.507,0-1.015-0.177-1.425-0.538l-0.516-0.445
					c-1.245-1.067-2.531-2.1-3.828-3.077c-0.952-0.718-1.142-2.072-0.425-3.024c0.718-0.953,2.073-1.141,3.024-0.426
					c1.368,1.03,2.724,2.121,4.031,3.24l0.566,0.491c0.895,0.787,0.983,2.151,0.195,3.046
					C156.983,46.168,156.386,46.415,155.787,46.415z M140.347,35.931c-0.33,0-0.663-0.075-0.977-0.235
					c-1.447-0.735-2.936-1.43-4.426-2.061c-1.097-0.465-1.61-1.733-1.144-2.831c0.466-1.096,1.732-1.609,2.831-1.144
					c1.58,0.67,3.16,1.406,4.696,2.187c1.063,0.54,1.486,1.84,0.946,2.903C141.892,35.499,141.133,35.931,140.347,35.931z"/>
			</g>
			<g>
				<path style="fill:#525D7D;" d="M39.852,69.004c-0.306,0-0.616-0.065-0.911-0.202c-1.081-0.503-1.548-1.788-1.044-2.869
					c0.832-1.785,1.752-3.559,2.735-5.271c0.594-1.033,1.916-1.387,2.947-0.797c1.035,0.593,1.392,1.913,0.798,2.948
					c-0.922,1.605-1.786,3.27-2.567,4.945C41.444,68.543,40.666,69.004,39.852,69.004z M49.97,53.334
					c-0.498,0-0.997-0.17-1.404-0.52c-0.905-0.776-1.011-2.139-0.234-3.045c1.28-1.493,2.64-2.955,4.04-4.342
					c0.847-0.841,2.215-0.834,3.053,0.014c0.839,0.848,0.833,2.214-0.014,3.053c-1.318,1.306-2.597,2.681-3.802,4.086
					C51.183,53.078,50.578,53.334,49.97,53.334z M63.867,40.881c-0.688,0-1.365-0.327-1.783-0.939
					c-0.674-0.983-0.423-2.326,0.56-3.001c1.624-1.113,3.312-2.174,5.016-3.156c1.031-0.595,2.353-0.24,2.948,0.794
					c0.595,1.033,0.24,2.353-0.793,2.948c-1.607,0.925-3.199,1.927-4.729,2.976C64.713,40.759,64.287,40.881,63.867,40.881z"/>
			</g>
			<g>
				<g>
					<path style="fill:#525D7D;" d="M20.622,141.428c-6.265,0-11.129-1.699-14.375-8.254c-3.17-6.404-4.881-17.265-6.1-38.738
						l-0.015-0.259c-0.122-2.134-0.289-5.056,0.17-7.557c0.9-4.907,3.861-5.8,5.547-5.897c0.263-0.013,0.525-0.001,0.775,0.044
						c0.202-1.493,0.72-2.806,1.534-3.866c1.16-1.512,2.823-2.404,4.682-2.509c2.116-0.091,3.866,1.553,5.268,4.332
						c0.672-5.93,2.535-9.146,5.62-9.768c0.141-0.028,0.316-0.046,0.458-0.046c1.648-0.094,2.728-0.156,4.047,9.748
						c1.306-2.56,3.021-4.134,4.97-4.244c2.546-0.183,5.748,1.848,6.335,12.174c0.209,3.684-0.443,9.45-0.757,12.221
						c-0.068,0.607-0.121,1.054-0.139,1.278c0.041,0.533,0.166,0.962,0.399,1.344c0.043,0.015,0.084,0.032,0.124,0.048
						c0.186-0.326,0.537-1.164,0.78-1.746c0.92-2.2,2.46-5.88,6.987-6.137c1.869-0.081,3.518,0.935,4.527,2.856
						c0.876,1.67,1.067,3.544,1.108,4.272c0.167,2.934-2.614,12.621-7.521,21.732c-4.473,8.305-11.921,18.324-22.009,18.897
						C22.211,141.401,21.405,141.428,20.622,141.428z M5.839,85.07c-0.386,0.097-0.953,0.5-1.289,2.329
						c-0.365,1.993-0.216,4.616-0.106,6.532l0.015,0.26c1.167,20.569,2.807,31.308,5.658,37.067
						c2.372,4.789,5.45,6.203,12.675,5.784c8.52-0.483,15.218-10.628,18.452-16.633c4.769-8.854,7.107-17.755,7.011-19.44
						c-0.096-1.685-0.734-2.941-1.049-3.061c-1.688,0.094-2.293,1.137-3.279,3.491c-0.768,1.837-1.82,4.351-4.596,4.508
						c-0.763,0.034-1.335-0.221-1.647-0.364c-0.552-0.045-1.061-0.285-1.434-0.686c-1.191-1.276-1.822-2.787-1.926-4.62
						c-0.016-0.289,0.013-0.555,0.166-1.913c0.3-2.652,0.925-8.171,0.737-11.49c-0.336-5.912-1.499-7.635-1.869-8.039
						c-1.156,0.766-3.899,6.057-3.366,15.449c0.074,1.3,0.176,2.601,0.278,3.887c0.102,1.288,0.202,2.56,0.273,3.805
						c0.037,0.658,0.071,1.252,0.071,1.778c0.011,0.139,0.02,0.238,0.026,0.29c-0.074,1.476-0.465,2.339-1.991,2.443
						c-1.531,0.096-2.037-0.734-2.274-2.155c-0.032-0.051-0.036-0.143-0.042-0.283c-0.068-0.496-0.112-1.054-0.16-1.661
						c-1.294-16.35-2.236-23.904-2.863-27.344c-0.807,2.101-1.47,6.308-1.024,14.173c0.565,9.948,0.883,13.836,0.917,14.246
						c0.099,1.188-0.781,2.236-1.968,2.338c-1.186,0.11-2.232-0.783-2.335-1.969c-1.086-12.464-3.865-24.195-5.947-25.105
						c-0.282,0.041-0.878,0.203-1.368,0.842c-0.552,0.718-0.802,1.815-0.725,3.168c0.072,1.265,0.353,2.716,0.625,4.12
						c0.153,0.787,0.308,1.59,0.432,2.383c0.873,3.764,1.28,8.088,1.47,11.424c0.322,5.673,0.334,5.894-0.821,6.651
						c-0.647,0.423-1.476,0.468-2.163,0.122c-0.824-0.415-1.756-0.886-2.484-13.748c-0.043-0.746-0.071-1.669-0.084-2.068
						L7.829,91.42c-0.015-0.261-0.041-0.537-0.076-0.822C7.169,87.817,6.48,85.737,5.839,85.07z"/>
				</g>
			</g>
			<g>
				<g>
					<path style="fill:#525D7D;" d="M70.235,175.956c-1.009,0-1.91-0.71-2.115-1.736c-0.234-1.169,0.524-2.307,1.694-2.54
						c4.018-0.804,7.361-4.054,10.594-7.197c3.801-3.695,7.73-7.516,12.963-7.516c2.828,0,5.415,1.584,7.917,3.116
						c2.321,1.421,4.721,2.89,7.027,2.89c2,0,4.118-1.414,6.362-2.911c2.709-1.808,5.779-3.857,9.455-3.857
						c5.683,0,8.751,4.81,11.457,9.055c1.538,2.411,2.99,4.688,4.728,5.953c0.964,0.701,1.177,2.052,0.476,3.016
						c-0.702,0.963-2.053,1.179-3.016,0.475c-2.4-1.746-4.143-4.48-5.829-7.124c-2.801-4.391-4.724-7.058-7.817-7.058
						c-2.367,0-4.646,1.521-7.058,3.13c-2.68,1.788-5.45,3.638-8.759,3.638c-3.523,0-6.583-1.872-9.281-3.525
						c-2.084-1.276-4.052-2.481-5.663-2.481c-3.479,0-6.623,3.057-9.953,6.295c-3.511,3.413-7.489,7.281-12.758,8.334
						C70.517,175.943,70.374,175.956,70.235,175.956z"/>
				</g>
				<g>
					<path style="fill:#525D7D;" d="M104.016,213.635c-11.116,0-17.752-6.751-17.752-18.059c0-3.106,0.457-6.193,0.899-9.179
						c0.435-2.939,0.846-5.715,0.846-8.46c0-1.077-0.063-2.061-0.193-3.008c-0.161-1.182,0.666-2.27,1.847-2.432
						c1.179-0.173,2.269,0.665,2.432,1.847c0.156,1.144,0.232,2.319,0.232,3.593c0,3.064-0.454,6.129-0.893,9.093
						c-0.439,2.962-0.853,5.759-0.853,8.546c0,11.357,7.305,13.741,13.434,13.741c9.035,0,15.592-8.029,15.592-19.09
						c0-5.142-1.297-10.524-2.551-15.729l-0.249-1.036c-0.278-1.16,0.436-2.325,1.595-2.603c1.158-0.278,2.326,0.436,2.603,1.597
						l0.248,1.03c1.314,5.451,2.671,11.086,2.671,16.741C123.926,203.79,115.553,213.635,104.016,213.635z"/>
				</g>
				<g>
					<path style="fill:#525D7D;" d="M101.283,197.355c-0.363,0-0.731-0.091-1.069-0.284c-1.035-0.592-1.395-1.912-0.803-2.946
						c2.208-3.864,3.375-8.653,3.375-13.847c0-1.49-0.096-3.015-0.286-4.535c-0.148-1.183,0.691-2.263,1.874-2.411
						c1.177-0.146,2.262,0.69,2.41,1.874c0.212,1.697,0.32,3.403,0.32,5.071c0,5.944-1.364,11.474-3.944,15.989
						C102.761,196.965,102.033,197.355,101.283,197.355z"/>
				</g>
				<g>
					<path style="fill:#525D7D;" d="M89.54,183.09c-0.102,0-0.205-0.007-0.308-0.021c-6.405-0.915-11.317-4.488-16.069-7.945
						c-0.964-0.701-1.177-2.051-0.476-3.015c0.701-0.966,2.049-1.182,3.016-0.476c4.524,3.289,8.797,6.397,14.139,7.16
						c1.181,0.169,2.001,1.262,1.832,2.443C91.52,182.312,90.597,183.09,89.54,183.09z"/>
				</g>
				<g>
					<path style="fill:#525D7D;" d="M120.586,182.669c-0.845,0-1.648-0.499-1.994-1.328c-0.458-1.101,0.062-2.366,1.163-2.824
						c4.784-1.993,9.236-4.827,13.231-8.423c0.886-0.797,2.252-0.725,3.049,0.16c0.798,0.887,0.726,2.252-0.16,3.05
						c-4.359,3.923-9.224,7.017-14.46,9.198C121.144,182.616,120.863,182.669,120.586,182.669z"/>
				</g>
			</g>
			<g>
				<g>
					<path style="fill:#525D7D;" d="M178.965,150.009c-3.294,0-6.429-1.452-8.826-4.089c-0.802-0.881-0.737-2.248,0.145-3.049
						c0.884-0.804,2.25-0.738,3.05,0.145c1.569,1.725,3.568,2.675,5.631,2.675c5.578,0,7.167-4.578,9.121-12.118
						c0.741-2.859,1.507-5.815,2.749-8.185c1.392-2.657,4.158-4.613,7.086-6.684c5.41-3.825,11.004-7.78,11.004-16.786
						c0-13.573-10.026-21.974-19.314-21.974c-6.502,0-12.072,3.806-13.862,9.474c-0.358,1.137-1.574,1.763-2.709,1.408
						c-1.137-0.36-1.768-1.573-1.408-2.71c2.359-7.471,9.584-12.49,17.979-12.49c11.365,0,23.632,10.052,23.632,26.292
						c0,11.241-7.415,16.484-12.829,20.311c-2.6,1.839-4.845,3.427-5.755,5.163c-1.011,1.93-1.682,4.521-2.393,7.264
						C190.493,141.497,188.287,150.009,178.965,150.009z"/>
				</g>
				<g>
					<path style="fill:#525D7D;" d="M175.662,131.761c-1.337,0-2.713-0.349-4.09-1.037c-1.066-0.534-1.498-1.83-0.966-2.897
						c0.535-1.065,1.834-1.496,2.897-0.966c0.772,0.387,1.498,0.582,2.158,0.582c0.087,0,2.127-0.017,2.127-1.545
						c0-0.548-0.129-1.23-0.264-1.953c-0.169-0.901-0.345-1.833-0.345-2.815c0-4.693,3.863-5.921,6.967-6.906
						c4.067-1.29,7.578-2.405,7.578-9.419c0-2.166-0.477-9.236-6.611-9.236c-2.046,0-5.478,0.7-5.478,5.389
						c0,0.617,0.034,1.245,0.067,1.877c0.037,0.714,0.074,1.432,0.074,2.146c0,7.432-4.435,8.541-7.078,8.541
						c-1.151,0-2.153-0.417-2.976-1.241c-0.843-0.843-0.843-2.21,0-3.053c0.836-0.835,2.183-0.843,3.029-0.025
						c1.124-0.001,2.707-0.098,2.707-4.221c0-0.64-0.034-1.282-0.068-1.921c-0.036-0.707-0.072-1.41-0.072-2.101
						c0-5.897,3.845-9.707,9.796-9.707c6.64,0,10.93,5.32,10.93,13.555c0,10.174-6.373,12.197-10.589,13.535
						c-3.364,1.068-3.955,1.486-3.955,2.79c0,0.579,0.131,1.278,0.271,2.017c0.167,0.886,0.339,1.801,0.339,2.751
						C182.107,129.706,178.786,131.761,175.662,131.761z"/>
				</g>
			</g>
			<g>
				<g>
					<path style="fill:#525D7D;" d="M100.768,41.954c-14.01,0-23.732-6.886-30.594-21.672c-0.337-0.725-0.245-1.576,0.236-2.212
						C79.224,6.417,90.227,0,101.393,0c8.681,0,22.245,5.389,32.978,17.43c0.687,0.772,0.732,1.921,0.107,2.744l-0.673,0.885
						C126.005,31.332,117.941,41.954,100.768,41.954z M74.653,19.644c6.092,12.43,14.191,17.992,26.115,17.992
						c14.762,0,21.536-8.577,29.178-18.637c-9.617-10.128-21.147-14.68-28.554-14.68C92.077,4.318,82.39,9.886,74.653,19.644z"/>
				</g>
				<g>
					<path style="fill:#525D7D;" d="M101.727,35.457c-0.239,0-0.478-0.006-0.717-0.017c-8.102-0.389-14.132-6.92-14.028-15.188
						c0.085-6.526,4.049-12.06,9.865-13.771c1.07-0.315,2.188-0.523,3.319-0.618c4.419-0.38,9.307,1.305,12.776,4.383
						c2.932,2.602,4.614,5.964,4.735,9.467c0.136,3.943-1.551,7.947-4.631,10.986C109.957,33.746,105.867,35.457,101.727,35.457z
						 M98.065,10.625c-4.049,1.191-6.704,4.99-6.765,9.682c-0.076,5.989,4.095,10.539,9.917,10.821
						c3.196,0.159,6.386-1.125,8.795-3.503c2.223-2.193,3.444-5.022,3.349-7.763c-0.08-2.308-1.247-4.577-3.286-6.386
						c-2.615-2.321-6.273-3.594-9.544-3.312C99.69,10.237,98.86,10.392,98.065,10.625z"/>
				</g>
				<g>
					<path style="fill:#525D7D;" d="M102.13,27.036c-0.103,0-0.206-0.003-0.309-0.008c-3.503-0.169-6.11-2.98-6.066-6.54
						c0.037-2.821,1.779-5.221,4.335-5.973c0.454-0.134,0.926-0.221,1.402-0.26c1.875-0.162,3.878,0.521,5.346,1.825
						c1.28,1.134,2.015,2.624,2.069,4.196c0.06,1.722-0.661,3.454-1.978,4.754C105.626,26.313,103.892,27.035,102.13,27.036z
						 M102.029,18.55c-0.06,0-0.119,0.003-0.177,0.007c-0.19,0.017-0.37,0.049-0.541,0.1c-0.9,0.264-1.229,1.181-1.238,1.885
						c-0.016,1.223,0.788,2.117,1.955,2.173c0.653,0.025,1.346-0.246,1.868-0.76c0.46-0.454,0.713-1.012,0.696-1.531
						c-0.018-0.507-0.396-0.916-0.619-1.115C103.448,18.843,102.688,18.55,102.029,18.55z"/>
				</g>
			</g>
			<g>
				<path style="fill:#525D7D;" d="M19.697,59.02c-0.254,0-0.512-0.045-0.763-0.139c-1.115-0.423-1.678-1.669-1.255-2.785
					c5.836-15.421,18.828-28.74,34.753-35.626c1.097-0.475,2.366,0.031,2.839,1.124c0.473,1.095-0.031,2.366-1.125,2.839
					C39.27,30.865,27.148,43.273,21.717,57.625C21.39,58.488,20.569,59.02,19.697,59.02z"/>
			</g>
			<g>
				<path style="fill:#525D7D;" d="M59.772,185.297c-2.527,0-24.665-8.875-33.053-28.876c-0.461-1.099,0.056-2.364,1.156-2.825
					c1.101-0.464,2.366,0.056,2.826,1.156c7.2,17.17,25.753,25.289,29.04,26.181c0.953-0.23,1.983,0.214,2.442,1.133
					c0.533,1.067,0.1,2.363-0.966,2.897C60.774,185.184,60.287,185.297,59.772,185.297z M59.289,181.098l-0.001,0.001
					L59.289,181.098z"/>
			</g>
			<g>
				<path style="fill:#525D7D;" d="M145.46,188.468c-0.772,0-1.519-0.415-1.907-1.143c-0.561-1.053-0.163-2.36,0.889-2.921
					l2.593-1.377c11.365-6.022,23.116-12.25,30.437-22.865c0.678-0.981,2.023-1.229,3.003-0.551
					c0.982,0.676,1.229,2.021,0.552,3.003c-7.92,11.485-20.146,17.964-31.97,24.23l-2.582,1.37
					C146.15,188.386,145.802,188.468,145.46,188.468z"/>
			</g>
			<g>
				<path style="fill:#525D7D;" d="M189.7,58.202c-0.827,0-1.616-0.478-1.974-1.282c-4.981-11.207-14.262-26.382-30.19-35.028
					c-1.048-0.569-1.436-1.879-0.867-2.928c0.569-1.046,1.879-1.434,2.928-0.867c16.993,9.225,26.822,25.251,32.075,37.069
					c0.484,1.089-0.006,2.366-1.096,2.851C190.291,58.143,189.992,58.202,189.7,58.202z"/>
			</g>
		</g>
	</g>
</g>
<g id="Layer_1">
</g>
</svg>
