<?xml version="1.0" encoding="iso-8859-1"?>
<!-- Generator: Adobe Illustrator 21.0.2, SVG Export Plug-In . SVG Version: 6.00 Build 0)  -->
<svg version="1.1" xmlns="http://www.w3.org/2000/svg" xmlns:xlink="http://www.w3.org/1999/xlink" x="0px" y="0px"
	 viewBox="0 0 198.11 219.562" style="enable-background:new 0 0 198.11 219.562;" xml:space="preserve">
<g id="_x31_19">
	<g>
		<g>
			<path style="fill:#E0DFE6;" d="M161.878,155.163c-2.568-16.692-6.435-32.586-11.849-48.512c-0.919-2.705-4.806-2.521-5.36,0.135
				c-0.458-1.234-0.964-2.45-1.593-3.618c-1.049-1.945-4.453-2.163-5.437,0c-3.351,7.368-3.005,15.682-2.758,23.639
				c0.095,3.052,0.286,6.109,0.522,9.165c-0.472-0.098-0.947-0.201-1.425-0.317c-4.264-1.03-8.452-2.423-12.749-3.3
				c-6.845-1.397-14.207-2.147-20.346,1.737c-1.203,0.761-1.629,2.155-1.361,3.384c-3.255-1.172-6.413,0.178-8.523,2.998
				c-2.966,3.965-5.931,7.93-8.897,11.895c-4.64-0.949-9.417-1.553-13.864,0.063c-5.246,1.906-7.752,10.223-1.714,13.114
				c2.607,1.249,5.044,1.62,7.165,1.103c4.425,6.98,15.538,18.357,24.318,16.324c1.75-0.405,3.508-1.109,5.254-1.943
				c-1.039,0.752-2.062,1.527-3.049,2.351c-2.596,2.17,0.315,5.506,2.961,5.087c8.504-1.348,16.575-5.191,24.438-8.578
				c7.567-3.26,17.209-6.253,23.13-12.07c1.35-1.326,1.777-2.841,1.582-4.251c1.411,0.555,3.012,0.686,4.297,0.297
				c0.127-0.039,0.255-0.077,0.382-0.116C160.924,162.564,162.466,158.983,161.878,155.163z M106.022,156.346
				c2.39,1.129,4.793,2.23,7.213,3.293c-0.605,0.327-1.205,0.661-1.81,0.988C109.669,159.106,107.875,157.648,106.022,156.346z
				 M145.5,158.816c-3.338,0.578-6.695,1.957-9.992,3.643c2.152-3.598-0.065-8.764-4.221-10.36
				c-8.41-3.23-16.586-6.92-24.598-10.995c5.291,1.471,10.446,3.025,15.679,5.063c4.375,1.704,9.577,4.35,14.578,4.797
				c0.137,0.876,0.274,1.753,0.411,2.629c0.792,5.073,6.789,6.153,10.716,4.152c0.146,0.456,0.287,0.916,0.45,1.356
				C147.592,158.763,146.564,158.631,145.5,158.816z"/>
			<path style="fill:#E0DFE6;" d="M170.598,163.12c-1.181,1.062-2.038,2.741-3.681,2.962c-1.633,0.219-3.464-1.112-4.971-1.604
				c-2.137-0.697-3.837,1.13-4.03,3.07c-0.492,4.956,4.697,8.715,9.043,9.524c6.008,1.119,12.152-1.963,14.201-7.803
				C183.383,162.929,174.952,159.203,170.598,163.12z"/>
			<path style="fill:#E0DFE6;" d="M46.882,172.305c-1.559,0.57-3.11,1.154-4.546,1.992c-1.277,0.745-2.544,1.831-3.987,2.244
				c-1.314,0.376-2.996,0.175-3.285-1.296c-0.805-4.099-6.102-3.106-7.354,0c-2.368,5.874,2.429,11.711,8.018,13.155
				c6.755,1.745,13.873-2.604,17.118-8.335C54.965,176.325,51.389,170.658,46.882,172.305z"/>
			<path style="fill:#E0DFE6;" d="M164.359,172.541c-3.884,6.422-6.236,12.917-11.618,18.443
				c-4.972,5.105-10.777,9.244-17.176,12.37c-15.738,7.688-36.099,10.127-53.45,10.346c-1.556,0.02-2.025,2.526-0.381,2.817
				c20.998,3.716,40.609,5.521,60.713-3.539c14.666-6.61,31.253-20.379,33.189-37.383
				C176.35,169.323,167.228,167.798,164.359,172.541z"/>
			<path style="fill:#E0DFE6;" d="M79.73,197.682c-8.517-2.573-14.842-5.75-21.414-11.922c-5.49-5.156-10.531-11.078-17.859-13.53
				c-2.39-0.799-3.916,1.969-3.003,3.906c7.08,15.016,23.72,35.802,42.276,32.813C85.744,207.98,84.814,199.218,79.73,197.682z"/>
			<path style="fill:#E0DFE6;" d="M191.74,57.596c-5.622-4.449-13.495-5.762-19.99-2.764c-4.305,1.987-3.106,7.473-0.137,9.852
				c-3.508,0.568-6.987,1.279-10.259,1.678c-8.84,1.077-17.596,2.21-26.511,2.413c-1.024,0.023-1.787,0.425-2.293,1.014
				c-2.469,0.044-4.869,0.248-7.129,0.718c-2.583,0.537-3.155,3.456-2.237,5.499c4.387,9.765,20.464,9.45,29.36,10.194
				c13.34,1.115,26.328,1.017,39.479-1.716c2.4-0.499,5.186-3.028,5.54-5.54C198.694,70.939,198.632,63.051,191.74,57.596z"/>
			<path style="fill:#E0DFE6;" d="M93.757,32.26c2.919-3.116,1.105-9.664-3.809-9.197c-9.299,0.884-17.526,7.673-26.11,11.17
				c-7.454,3.037-16.507,4.273-21.658,10.967c-1.155,1.501,0.453,3.382,1.994,3.474c4.691,0.28,9.927-0.327,15-1.386
				c-3,4.157-3.447,11.068-2.257,15.29c2.307,8.186,15.266,4.635,12.751-3.515c-0.635-2.058-1.433-3.887-1.527-6.064
				c-0.093-2.177,0.286-4.553-0.542-6.617c-0.16-0.398-0.371-0.765-0.622-1.09c1.03-0.316,2.034-0.645,3.004-0.982
				C77.676,41.638,88.176,38.218,93.757,32.26z"/>
			<path style="fill:#E0DFE6;" d="M12.159,114.993c-0.249-0.81-0.923-1.427-1.774-1.528c-0.915-0.109-1.591,0.302-2.126,1.019
				c-1.233,1.649-0.959,3.715-0.687,5.623c0.234,1.636,2.739,1.786,3.453,0.451C11.947,118.832,12.765,116.961,12.159,114.993z"/>
			<path style="fill:#E0DFE6;" d="M69.29,53.615c-8.002-4.818-20.548,3.496-27.717,7.396c-9.482,5.158-18.688,11.486-26.078,19.403
				c-1.237,1.326-2.035,3.415-1.38,5.221c0.383,1.055,0.683,2.274,1.77,2.843l0.696,0.364c1.649,0.863,3.785,1.079,5.417,0
				c8.286-5.481,16.386-11.118,25.276-15.617c4.663-2.36,9.465-4.29,14.333-6.174c4.055-1.569,7.568-2.424,9.452-6.687
				C72.148,57.9,71.782,55.116,69.29,53.615z"/>
			<path style="fill:#E0DFE6;" d="M128.58,16.69c-3.769-5.622-12.412-2.89-12.232,3.443c-1.176,0.42-2.336,0.881-3.478,1.386
				c-1.868,0.773-3.745,1.559-5.581,2.402c-4.227,1.943-8.702,3.845-12.389,6.691c-2.809,2.168-2.243,7.194,1.942,7.171
				c0.374-0.002,0.808-0.018,1.268-0.04c-0.781,5.158-0.917,10.485-1.174,15.586c-0.358,7.09-2.257,16.123-0.248,22.945
				c0.719,2.439,3.288,4.816,6.011,4.576c0.219-0.019,0.438-0.039,0.657-0.058c4.781-0.422,7.399-5.577,5.11-9.208
				c-1.148-6.612-0.04-14.528-0.135-21.108c-0.067-4.633-0.025-9.345-0.534-13.971C120.302,34.121,136.269,28.159,128.58,16.69z"/>
			<path style="fill:#E0DFE6;" d="M14.519,59.101c-1.326,0.073-2.298,0.311-3.535,0.853c-0.071,0.031-0.521,0.215-0.786,0.328
				c-0.273,0.078-0.767,0.229-0.844,0.25c-0.148,0.04-1.672,0.261-0.653,0.187c-0.593,0.043-1.17,0.055-1.763,0.124
				C6.143,60.94,6.024,60.96,6.58,60.904c-0.412,0.055-0.825,0.111-1.237,0.166c-2.008,0.552-3.196,2.267-3.394,4.262
				c-0.366,3.687,3.883,5.821,6.883,6.34c4.108,0.711,8.246-0.265,10.706-3.826C22.001,64.282,18.749,58.868,14.519,59.101z"/>
			<path style="fill:#E0DFE6;" d="M60.471,10.1l-0.1-0.511c-0.407-2.08-2.327-3.664-4.253-4.253
				c-4.24-1.297-8.003-3.764-12.194-5.073c-3.148-0.984-4.973,2.501-3.871,5.036c2.063,4.747,7.201,8.41,11.373,11.167
				c1.778,1.175,4.358,1.065,6.147,0c0.136-0.081,0.271-0.161,0.407-0.242C60.172,14.917,60.941,12.499,60.471,10.1z"/>
			<path style="fill:#E0DFE6;" d="M109.334,19.999l-0.421-0.543c-0.981-1.266-2.896-1.432-4.32-1.142
				c-23.713,4.832-48.143,7.048-70.177,17.657c-1.716,0.826-0.382,3.033,1.186,2.813c12.065-1.694,23.582-4.209,35.438-7.057
				c5.376-1.291,10.781-2.573,16.226-3.535c4.534-0.8,11.579-2.647,16.49-1.508c0.982,0.608,2.23,0.847,3.256,0.558
				c0.148-0.041,0.295-0.083,0.443-0.124C110.829,26.17,111.234,22.45,109.334,19.999z"/>
			<path style="fill:#E0DFE6;" d="M93.81,91.286c-1.511-1.541-3.8-1.315-5.343,0c-3.99,3.402-4.203,9.721-4.149,15.651
				c-1.571-0.739-3.164-1.428-4.791-2.043c-3.855-1.459-8.688-3.296-12.751-1.96c-1.552,0.51-2.804,2.572-1.673,4.111
				c2.942,4.003,8.412,5.906,12.563,8.493c3.7,2.305,8.525,7.356,13.308,6.071c5.688-1.528,5.214-8.265,5.436-12.821
				C96.696,102.961,98.301,95.866,93.81,91.286z"/>
			<path style="fill:#E0DFE6;" d="M122.88,106.503c-2.785-5.119-9.483-4.408-14.1-2.602c-0.403,0.158-0.806,0.342-1.21,0.523
				c-1.213-1.436-3.912-1.822-4.873,0.228c-0.599,1.278-1.207,2.533-1.847,3.788c-0.163,0.319-0.324,0.74-0.496,1.178
				c-1.095,1.299-1.971,2.758-2.451,4.417c-1.014,4.196,3.509,8.903,8.067,6.202c2.446-1.45,4.23-3.593,7.034-4.483
				c3.207-1.017,6.648-0.52,9.104-3.273C123.616,110.79,123.975,108.515,122.88,106.503z"/>
		</g>
		<g>
			<g>
				<path style="fill:#525D7D;" d="M14.28,96.496c-0.037,0-0.073-0.001-0.11-0.003c-1.191-0.059-2.107-1.072-2.048-2.264
					c1.314-26.27,1.459-44.805,1.564-58.337C13.947,2.599,13.962,0.606,33.062,0.34c3.08-0.042,6.57-0.091,10.745-0.336
					c0.901-0.058,1.735,0.457,2.1,1.278c1.053,2.37,1.681,4.845,2.29,7.239c0.506,1.996,0.985,3.881,1.685,5.672
					c0.433,1.11-0.115,2.363-1.226,2.797c-1.112,0.43-2.363-0.114-2.797-1.226c-0.797-2.04-1.331-4.144-1.848-6.181
					c-0.46-1.81-0.9-3.545-1.501-5.185c-3.59,0.18-6.649,0.222-9.387,0.26C24.617,4.777,21.6,4.965,20.113,7.844
					c-1.919,3.718-1.986,12.371-2.109,28.082c-0.107,13.571-0.252,32.157-1.57,58.519C16.377,95.599,15.423,96.496,14.28,96.496z"/>
			</g>
			<g>
				<path style="fill:#525D7D;" d="M55.935,50.547c-3.872-0.093-7.732-0.356-11.466-0.609c-5.351-0.364-10.866-0.739-16.277-0.606
					c-0.592,0-1.144-0.207-1.56-0.613c-0.416-0.406-0.652-0.963-0.652-1.545c-0.004-4.949-0.167-10-0.325-14.883
					c-0.098-3.031-0.195-6.061-0.259-9.092c-0.018-0.893,0.514-1.704,1.341-2.042c16.175-6.629,30.82-12.524,46.272-17.539
					c0.288-0.096,0.595-0.127,0.898-0.093c2.131,0.231,4.256,0.453,6.38,0.676c3.135,0.329,6.32,0.662,9.526,1.022
					c0.025,0.003,0.051,0.006,0.075,0.008c3.507,0.394,7.041,0.817,10.563,1.296c21.744,2.963,24.402,4.187,23.689,10.926
					c-0.048,0.451-0.1,0.939-0.125,1.472c-0.041,0.883-0.617,1.653-1.453,1.94c-0.685,0.236-1.292,0.446-1.893,0.662
					c-2.274,0.819-4.637,1.712-7.023,2.65c-0.316,0.127-0.659,0.177-1.001,0.14c-6.672-0.655-14.782-1.324-22.985-1.122
					c-0.585-0.004-1.146-0.208-1.56-0.614c-0.416-0.406-0.651-0.963-0.651-1.545V9.306c-2.56-0.28-5.102-0.547-7.612-0.81
					c-1.976-0.207-3.953-0.415-5.935-0.628C59.19,12.664,45.145,18.286,29.746,24.59c0.062,2.52,0.143,5.041,0.223,7.562
					c0.136,4.204,0.276,8.531,0.316,12.833c4.887,0.035,9.744,0.323,14.475,0.644c3.523,0.239,7.158,0.486,10.724,0.586
					c5.863-2.721,11.79-5.59,17.528-8.368c7.418-3.591,15.09-7.305,22.771-10.774c1.085-0.488,2.364-0.007,2.856,1.08
					c0.491,1.087,0.007,2.366-1.08,2.856c-7.63,3.445-15.274,7.146-22.667,10.725c-5.904,2.858-12.007,5.812-18.051,8.612
					C56.557,50.479,56.248,50.547,55.935,50.547z M92.71,18.841c7.128,0,14.002,0.562,19.839,1.127
					c2.259-0.883,4.495-1.725,6.654-2.503c0.205-0.075,0.411-0.148,0.617-0.219c0.008-0.083,0.017-0.165,0.025-0.246
					c0.208-1.965,0.208-1.965-1.081-2.546c-2.423-1.092-7.898-2.149-18.896-3.648c-2.696-0.367-5.403-0.701-8.102-1.015v9.052
					C92.082,18.843,92.397,18.841,92.71,18.841z"/>
			</g>
			<g>
				<path style="fill:#525D7D;" d="M29.444,47.092c-0.697,0-1.382-0.337-1.798-0.962c-0.662-0.992-0.394-2.332,0.599-2.994
					c9.749-6.501,49.036-21.073,60.285-24.225c1.144-0.323,2.339,0.349,2.661,1.497c0.322,1.148-0.349,2.339-1.497,2.661
					c-10.76,3.014-49.8,17.489-59.054,23.66C30.272,46.975,29.856,47.092,29.444,47.092z"/>
			</g>
			<g>
				<path style="fill:#525D7D;" d="M58.303,66.168c-1.192,0-2.159-0.967-2.159-2.159c0-2.286-0.344-4.584-0.71-7.017
					c-0.373-2.484-0.758-5.05-0.758-7.656c0-1.192,0.967-2.159,2.159-2.159c1.192,0,2.159,0.967,2.159,2.159
					c0,2.284,0.344,4.582,0.71,7.015c0.373,2.484,0.758,5.05,0.758,7.658C60.462,65.201,59.495,66.168,58.303,66.168z"/>
			</g>
			<g>
				<path style="fill:#525D7D;" d="M5.015,64.78c-0.732,0-1.448-0.374-1.853-1.049C0.336,59.021,0,42.829,0,42.671
					c0-5.787,2.221-9.647,6.601-11.471c1.105-0.457,2.366,0.063,2.824,1.162c0.458,1.101-0.062,2.366-1.162,2.824
					c-2.728,1.136-3.944,3.445-3.944,7.485c0,2.994,0.79,15.912,2.547,18.84c0.614,1.022,0.283,2.347-0.741,2.962
					C5.777,64.682,5.393,64.78,5.015,64.78z"/>
			</g>
			<g>
				<path style="fill:#525D7D;" d="M6.455,124.377c-1.257-0.037-2.194-1.03-2.159-2.222c0.193-6.597,4.238-40.527,65.021-60.788
					c1.133-0.377,2.356,0.235,2.731,1.365c0.377,1.132-0.233,2.355-1.365,2.731c-6.244,2.082-61.03,21.357-62.071,56.819
					C8.577,123.452,7.617,124.377,6.455,124.377z"/>
			</g>
			<g>
				<path style="fill:#525D7D;" d="M137.752,77.009c-1.192,0-2.159-0.967-2.159-2.159c0-1.192,0.967-2.159,2.159-2.159
					c2.401,0,4.409-0.257,6.737-0.555c3.108-0.398,6.632-0.849,12.114-0.849c4.09,0,8.188,0.246,12.152,0.482
					c3.923,0.235,7.978,0.478,11.984,0.478l0.353,0.003c1.31,0.016,4.041,0.041,5.523-1.424c0.814-0.805,1.21-2.019,1.21-3.707
					c0-4.83-5.584-7.82-10.759-7.82c-0.593,0-1.099,0.044-1.529,0.117c-0.06,0.26-0.127,0.509-0.195,0.746
					c-0.918,3.158-2.457,3.821-3.589,3.821c-1.598,0-2.804-1.38-2.804-3.212c0-1.498,0.753-2.963,2.066-4.017
					c0.215-0.173,0.443-0.333,0.683-0.481c0.153-1.296,0.263-3.009,0.263-5.26c0-5.34-1.836-7.053-7.552-7.053
					c-2.596,0-5.136,0.856-7.248,2.246c0.124,0.8,0.188,1.625,0.188,2.468c0,4.433-1.373,12.817-6.569,12.817
					c-3.13,0-3.289-5.471-3.289-6.567c0-3.946,1.858-7.658,4.799-10.435c-1.716-4.63-6.058-7.419-9.262-7.419
					c-4.099,0-13.809,9.326-13.809,24.032c0,0.558,0.014,1.116,0.044,1.673c0.062,1.191-0.853,2.207-2.044,2.269
					c-1.186,0.037-2.207-0.853-2.269-2.044c-0.032-0.633-0.049-1.264-0.049-1.898c0-16.446,10.828-28.35,18.127-28.35
					c4.934,0,10.293,3.628,12.831,9.131c2.543-1.413,5.482-2.241,8.549-2.241c5.095,0,11.871,1.179,11.871,11.372
					c0,1.449-0.042,2.782-0.128,3.995c0.297-0.018,0.602-0.027,0.915-0.027c7.411,0,15.077,4.54,15.077,12.138
					c0,2.86-0.838,5.14-2.491,6.777c-2.761,2.732-6.861,2.69-8.604,2.672l-0.309-0.003c-4.135,0-8.257-0.246-12.242-0.485
					c-3.901-0.233-7.933-0.475-11.895-0.475c-5.208,0-8.586,0.433-11.565,0.814C142.668,76.723,140.429,77.009,137.752,77.009z
					 M152.929,50.717c-0.713,1.326-1.119,2.756-1.119,4.207c0.001,0.139,0.018,0.36,0.046,0.621
					C152.309,54.367,152.739,52.647,152.929,50.717z"/>
			</g>
			<g>
				<path style="fill:#525D7D;" d="M31.887,42.2c-0.306,0-0.616-0.065-0.912-0.203c-1.08-0.505-1.548-1.789-1.043-2.87
					c1.671-3.582,10.302-21.449,16.035-21.449c2.004,0,3.281,2.071,5.212,5.206c0.631,1.023,1.612,2.617,2.242,3.358
					c1.092-0.828,2.949-4.237,3.992-6.154c2.551-4.686,4.96-9.111,8.716-9.111c0.405,0,0.801,0.114,1.144,0.327
					c1.953,1.221,3.489,2.741,4.975,4.21c1.432,1.418,2.796,2.766,4.357,3.631c0.664-0.704,1.712-2.557,2.506-3.963
					c0.817-1.444,1.742-3.08,2.83-4.712c0.662-0.992,2.003-1.262,2.994-0.599c0.992,0.661,1.261,2.002,0.599,2.994
					c-0.999,1.5-1.884,3.063-2.664,4.442c-2.082,3.681-3.586,6.341-6.262,6.341c-0.374,0-0.73-0.072-1.059-0.212
					c-2.599-1.151-4.499-3.033-6.339-4.852c-1.16-1.148-2.267-2.242-3.51-3.136c-1.29,0.818-3.414,4.719-4.495,6.705
					c-2.506,4.604-4.669,8.579-8.108,8.579c-2.156,0-3.598-2.342-5.596-5.583c-0.576-0.936-1.385-2.249-1.933-2.949
					c-2.376,1.605-8.176,11.152-11.724,18.754C33.478,41.739,32.699,42.2,31.887,42.2z"/>
			</g>
			<g>
				<path style="fill:#525D7D;" d="M47.141,70.48c-0.325,0-0.654-0.073-0.964-0.228c-7.46-3.731-14.883-6.438-23.812-9.589
					c-1.124-0.396-1.715-1.629-1.317-2.754c0.395-1.124,1.631-1.715,2.754-1.317c9.073,3.202,16.623,5.956,24.306,9.797
					c1.067,0.534,1.498,1.83,0.966,2.897C48.696,70.043,47.932,70.48,47.141,70.48z"/>
			</g>
			<g>
				<path style="fill:#525D7D;" d="M36.294,77.908c-0.141,0-0.284-0.013-0.426-0.042c-5.046-1.009-10.264-2.052-14.569-5.281
					c-0.953-0.715-1.147-2.069-0.432-3.023c0.717-0.952,2.069-1.144,3.024-0.432c3.521,2.641,8.04,3.545,12.824,4.502
					c1.169,0.233,1.928,1.37,1.694,2.54C38.202,77.198,37.301,77.908,36.294,77.908z"/>
			</g>
			<g>
				<path style="fill:#525D7D;" d="M31.887,69.592c-0.451,0-0.905-0.14-1.295-0.432c-0.953-0.715-1.147-2.069-0.432-3.024
					c4.036-5.381,9.84-8.403,15.451-11.327c0.959-0.499,1.916-0.998,2.863-1.507c1.047-0.565,2.36-0.171,2.924,0.877
					c0.567,1.05,0.173,2.359-0.877,2.924c-0.963,0.52-1.938,1.027-2.914,1.536c-5.423,2.824-10.545,5.492-13.992,10.088
					C33.191,69.294,32.543,69.592,31.887,69.592z"/>
			</g>
			<g>
				<path style="fill:#525D7D;" d="M32.172,179.726c-0.089,0-0.177-0.001-0.267-0.004c-4.535-0.127-7.962-3.435-8.146-7.866
					c-0.184-4.431,2.831-8.333,7.011-9.075c0.083-0.015,0.24-0.035,0.325-0.039c0.458-0.046,0.894,0.056,1.181,0.122
					c1.646,0.02,3.239,0.543,4.522,1.496c2.765,2.049,4.331,5.139,4.085,8.064C40.536,176.499,36.656,179.726,32.172,179.726z
					 M31.298,167.07c-1.861,0.405-3.315,2.408-3.223,4.606c0.091,2.201,1.643,3.666,3.953,3.731
					c2.218,0.094,4.395-1.498,4.553-3.347c0.119-1.421-0.805-3.084-2.356-4.232c-0.544-0.403-1.224-0.626-1.919-0.626
					C31.869,167.202,31.528,167.123,31.298,167.07z"/>
			</g>
			<g>
				<path style="fill:#525D7D;" d="M170.805,168.812c-0.073,0-0.146-0.001-0.219-0.004c-4.395-0.131-7.939-3.791-7.897-8.161
					c0.032-3.175,1.928-6.018,4.831-7.24c0.85-0.358,1.757-0.568,2.698-0.62c2.391-0.107,4.733,0.744,6.497,2.377
					c1.579,1.465,2.511,3.407,2.557,5.33c0.046,2.01-0.864,4.093-2.501,5.718C175.099,167.871,172.935,168.812,170.805,168.812z
					 M170.674,157.093c-0.074,0-0.149,0.001-0.223,0.006c-0.437,0.024-0.86,0.121-1.251,0.285c-1.318,0.557-2.179,1.853-2.193,3.305
					c-0.021,2.208,1.9,3.749,3.709,3.804c0.949,0.006,2.134-0.472,3.012-1.345c0.786-0.78,1.244-1.735,1.224-2.553
					c-0.017-0.752-0.457-1.598-1.175-2.265C172.921,157.537,171.801,157.093,170.674,157.093z"/>
			</g>
			<g>
				<path style="fill:#525D7D;" d="M99.816,186.88c-0.364,0-0.729-0.093-1.058-0.277l-42.18-23.727
					c-0.67-0.377-1.089-1.082-1.101-1.85c-0.281-19.07-0.308-38.493-0.312-56.755c0-0.786,0.427-1.51,1.115-1.891l41.246-22.778
					c0.617-0.339,1.362-0.357,1.993-0.049L145.419,102c0.711,0.349,1.175,1.057,1.209,1.848l2.302,54.591
					c0.034,0.822-0.402,1.594-1.125,1.988c-2.87,1.563-6.079,3.289-9.485,5.121c-11.885,6.389-26.675,14.34-37.362,21.004
					C100.608,186.77,100.212,186.88,99.816,186.88z M59.776,159.72l39.986,22.493c10.7-6.591,24.97-14.263,36.513-20.469
					c2.939-1.58,5.731-3.081,8.283-4.467l-2.191-51.962l-43.738-21.39l-39.147,21.619C59.488,123.019,59.519,141.522,59.776,159.72z
					"/>
			</g>
			<g>
				<path style="fill:#525D7D;" d="M57.634,163.024c-0.77,0-1.517-0.413-1.905-1.14c-0.564-1.051-0.167-2.36,0.884-2.922
					l4.833-2.588c12.93-6.923,26.301-14.082,39.522-20.781c0.613-0.311,1.337-0.309,1.947-0.003l43.324,21.828
					c1.066,0.537,1.493,1.836,0.957,2.9c-0.537,1.067-1.836,1.49-2.9,0.957l-42.35-21.338c-12.86,6.535-25.871,13.501-38.462,20.243
					l-4.833,2.588C58.327,162.943,57.978,163.024,57.634,163.024z"/>
			</g>
			<g>
				<path style="fill:#525D7D;" d="M100.85,140.232c-1.122,0-2.069-0.867-2.151-2.003c-0.242-3.357-0.597-6.442-0.973-9.709
					c-0.867-7.548-1.851-16.104-1.851-31.312c0-4.651,0.079-9.37,0.153-13.934l0.027-1.621c0.02-1.181,0.983-2.124,2.158-2.124
					c1.229,0.02,2.18,1.002,2.16,2.194l-0.027,1.622c-0.076,4.546-0.153,9.246-0.153,13.862c0,14.96,0.969,23.385,1.823,30.819
					c0.381,3.313,0.741,6.443,0.99,9.89c0.086,1.189-0.808,2.224-1.997,2.309C100.956,140.231,100.904,140.232,100.85,140.232z"/>
			</g>
			<g>
				<path style="fill:#525D7D;" d="M101.425,215.089c-31.731,0-48.923-12.959-64.974-32.415c-0.759-0.919-0.628-2.28,0.292-3.039
					c0.919-0.759,2.28-0.63,3.039,0.292c21.118,25.598,39.916,30.844,61.643,30.844c32.553,0,51.836-21.787,62.279-40.065
					c0.593-1.036,1.915-1.393,2.946-0.804c1.036,0.592,1.396,1.912,0.804,2.946C151.664,200.483,128.831,215.089,101.425,215.089z"
					/>
			</g>
			<g>
				<path style="fill:#525D7D;" d="M97.776,124.961c-0.329,0-0.663-0.074-0.977-0.235c-0.919-0.467-2.748-1.394-5.149-2.602
					c-1.066-0.536-1.494-1.833-0.959-2.898c0.534-1.064,1.831-1.498,2.898-0.959c2.409,1.21,4.244,2.141,5.166,2.61
					c1.063,0.54,1.487,1.84,0.946,2.903C99.321,124.53,98.562,124.961,97.776,124.961z M109.78,120.706
					c-0.834,0-1.628-0.485-1.981-1.297c-0.477-1.094,0.024-2.366,1.118-2.841c1.65-0.72,3.421-1.497,5.274-2.312
					c1.094-0.476,2.367,0.017,2.847,1.106c0.481,1.092-0.016,2.366-1.106,2.846c-1.858,0.818-3.635,1.598-5.291,2.318
					C110.361,120.649,110.067,120.706,109.78,120.706z M80.987,116.585c-0.318,0-0.641-0.07-0.946-0.219
					c-1.705-0.832-3.447-1.678-5.177-2.51c-1.075-0.516-1.528-1.806-1.011-2.88c0.516-1.074,1.806-1.532,2.88-1.011
					c1.739,0.835,3.489,1.684,5.202,2.522c1.071,0.523,1.515,1.816,0.992,2.887C82.554,116.139,81.786,116.585,80.987,116.585z
					 M126.911,113.109c-0.824,0-1.611-0.474-1.971-1.273c-0.489-1.088-0.003-2.366,1.084-2.855l5.253-2.367
					c1.088-0.493,2.364-0.007,2.856,1.08c0.491,1.087,0.007,2.366-1.08,2.856l-5.258,2.37
					C127.507,113.048,127.206,113.109,126.911,113.109z M64.025,108.602c-0.29,0-0.585-0.059-0.869-0.183
					c-2.163-0.952-3.916-1.675-5.209-2.149c-1.119-0.411-1.694-1.65-1.283-2.771c0.411-1.12,1.648-1.692,2.771-1.283
					c1.378,0.505,3.215,1.262,5.462,2.25c1.091,0.481,1.587,1.754,1.106,2.847C65.647,108.122,64.856,108.602,64.025,108.602z"/>
			</g>
			<g>
				<path style="fill:#525D7D;" d="M96.673,77.028c-1.192,0-2.159-0.967-2.159-2.159V22.86c0-1.192,0.967-2.159,2.159-2.159
					c1.192,0,2.159,0.967,2.159,2.159v52.009C98.832,76.061,97.865,77.028,96.673,77.028z"/>
			</g>
		</g>
	</g>
</g>
<g id="Layer_1">
</g>
</svg>
