<?xml version="1.0" encoding="iso-8859-1"?>
<!-- Generator: Adobe Illustrator 21.0.2, SVG Export Plug-In . SVG Version: 6.00 Build 0)  -->
<svg version="1.1" xmlns="http://www.w3.org/2000/svg" xmlns:xlink="http://www.w3.org/1999/xlink" x="0px" y="0px"
	 viewBox="0 0 188.118 200.161" style="enable-background:new 0 0 188.118 200.161;" xml:space="preserve">
<g id="_x31_2">
	<g>
		<path style="fill:#E0DFE6;" d="M110.488,9.279C98.862,23.774,78.186,24.848,61.647,29.681c-1.566,0.457-1.419,2.517,0,3.035
			c4.299,1.568,8.927,2.198,13.607,2.184c-3.336,0.491-6.667,0.973-9.98,1.591c-2.411-3.482-8.552-4.479-11.054,0.089
			c-2.941,5.369-5.201,10.417-9.514,14.91c-2.018,2.102-4.142,3.957-6.415,5.775c-1.762,1.409-3.768,2.565-4.261,4.886
			c-0.099,0.465-0.036,1.085,0.372,1.407c4.613,3.641,13.243-1.448,17.239-4.234c4.463-3.112,8.651-7.225,11.559-11.984
			c7.638,1.778,15.368,1.975,23.284,0.88c3.537-0.489,7.641-1.228,11.644-2.417c0.198,12.067-0.508,24.674-7.509,34.802
			C82.353,92.56,69.871,92.936,57.08,95.946c-1.333,0.314-1.349,2.036-0.356,2.721c12.461,8.596,31.64,1.865,41.53-7.725
			c14.018-13.593,16.174-34.151,15.332-52.647c-0.031-0.674-0.134-1.3-0.292-1.884c2.552-4.281,0.442-9.937-4.222-10.744
			c4.154-2.454,7.821-5.557,10.233-9.583C122.487,10.773,114.564,4.198,110.488,9.279z"/>
		<path style="fill:#E0DFE6;" d="M25.972,58.997c-1.926-2.488-5.289-1.624-7.714-0.509c-1.952,0.898-3.529,2.206-4.276,4.247
			c-0.558,1.526,0.915,3.48,2.543,3.338c1.288-0.112,2.653-0.59,3.626-0.595c0.043,0,0.332,0.009,0.49,0.009
			c0.167,0.04,0.65,0.126,0.715,0.137c1.335,0.233,2.739,0.083,3.859-0.749C27.326,63.307,27.561,61.05,25.972,58.997z"/>
		<path style="fill:#E0DFE6;" d="M104.543,171.498c-3.376-9.787-7.037-19.366-9.703-29.396c-2.379-8.953-3.636-18.518-6.64-27.311
			c3.6-0.79,7.01-2.005,10-3.603c6.616-3.537,2.054-15.128-5.211-12.36c-5.515,2.101-10.628,4.707-16.449,5.933
			c-6.072,1.278-12.228,1.184-18.335,1.98c-1.094,0.143-2.195,1.635-1.053,2.541c6.966,5.53,17.035,7.334,26.483,6.254
			c-0.921,5.231-1.041,10.823-0.594,16.524c-0.384-1.042-0.753-2.089-1.157-3.123c-0.828-2.121-4.176-1.992-4.177,0.565
			c-0.007,16.068,4.443,32.258,9.159,47.57c-1.169,1.003-2.286,2.054-3.373,2.999c-3.189,2.772-6.244,5.685-9.205,8.699
			c-2.314,2.356,0.795,6.817,3.659,4.743c3.232-2.341,6.532-4.579,9.93-6.674c3.227-1.989,7.468-3.527,9.879-6.485
			c0.636-0.781,0.974-1.677,1.065-2.571C102.057,178.112,105.837,175.247,104.543,171.498z"/>
		<path style="fill:#E0DFE6;" d="M60.046,172.211c-1.178-0.176-2.39-0.465-3.572-0.176c-1.093,0.268-2.217,0.799-3.239,1.243
			c-1.229,0.533-2.736,0.986-3.888,1.787c-3.712-10.423-5.872-21.422-9.791-31.719c-0.595-1.563-3.34-2.058-3.691,0
			c-1.318,7.732-0.826,15.881,0.248,23.854c-0.748-0.618-1.632-1.05-2.555-1.313c0.273-0.653,0.439-1.405,0.43-2.291
			c-0.049-4.389,0.037-8.769,0.326-13.148c0.256-3.874,0.931-7.817-0.008-11.626c-0.319-1.295-2.213-1.905-3.128-0.826
			c-5.173,6.099-6.36,16.556-7.801,24.164c-0.613,3.235,1.095,5.339,3.302,6.184c-0.302,0.65-0.484,1.405-0.476,2.294
			c-1.654,0.286-3.258,0.068-5.077-0.165c-2.648-0.34-3.378,3.174-1.985,4.792c1.895,2.2,4.705,3.105,7.549,3.123
			c-0.064,1.17-0.24,2.35-0.632,3.569c-0.485,1.512-1.17,3-1.954,4.38c-0.622,1.096-3.91,4.294-3.744,5.538
			c-0.16-1.189-1.487-1.974-2.469-1.023c-1.856,1.798-1.4,4.567,0.875,5.859c3.406,1.934,8.405-0.909,11.112-2.919
			c4.101-3.045,7.293-8.184,8.514-13.588c1.996,4.526,9.205,3.381,11.062-0.612c1.516,0.655,3.398,0.576,5.002,0.725
			c0.929,0.086,1.871,0.165,2.806,0.136c1.396-0.043,2.483-0.543,3.707-1.168C63.747,177.866,63.362,172.707,60.046,172.211z"/>
		<path style="fill:#E0DFE6;" d="M174.349,159.349c-0.677-1.606-3.003-2.73-4.585-1.546c-2.114,1.582-4.188,3.24-6.423,4.645
			c-2.258-3.188-7.811-4.249-9.723,0.076c-1.077,2.436-4.09,2.692-6.431,3.249c-2.595,0.617-7.912,3.444-10.324,1.898
			c-1.448-0.928-3.197,0.037-3.701,1.506c-2.784,8.104,9.326,7.809,13.916,7.492c7.002-0.484,14.647-2.253,17.003-9.735
			c0.139-0.443,0.2-0.872,0.223-1.294c2.594-0.836,5.29-1.339,7.952-1.93C174.157,163.289,175.061,161.039,174.349,159.349z"/>
		<path style="fill:#E0DFE6;" d="M188.107,180.49c-0.549-15.797-2.297-31.541-3.841-47.261c-0.312-3.181-4.829-3.272-5.019,0
			c-0.5,8.634-1.136,17.275-1.459,25.917c-0.152,4.063-0.202,8.132-0.297,12.196c-0.048,2.033-0.111,4.066-0.142,6.098
			c-0.055,3.487-0.733,3.791,2.33,5.604c-1.912-1.132-3.993-0.769-5.586,0.33c-9.242,0.275-18.49,0.338-27.729,0.707
			c-2.829,0.113-27.956-0.313-28.383,3.19c0.21-1.725-2.005-2.099-3.049-1.263c-7.923,6.336,12.954,8.048,15.169,8.23
			c15.736,1.293,31.543,1.127,47.312,1.714c2.522,0.094,4.261-1.114,5.224-2.815C186.207,191.057,188.287,185.685,188.107,180.49z"
			/>
		<path style="fill:#E0DFE6;" d="M161.049,106.627c-0.467-1.106-1.232-1.871-2.338-2.338c-1.403-0.592-2.584-0.362-3.937,0.223
			c-0.756,0.327-1.407,0.628-2.063,1.129c-0.191,0.146-0.369,0.29-0.536,0.438c-0.712-0.629-1.656-1.011-2.83-0.934
			c-2.199,0.144-4.282,0.732-6.411,1.261c-2.054,0.511-3.975,0.934-5.827,1.997c-2.32,1.332-1.933,5.194,0.762,5.83
			c2.089,0.493,4.037,0.373,6.162,0.277c2.179-0.099,4.365-0.107,6.501-0.592c0.974-0.222,1.702-0.728,2.22-1.383
			c0.582,0.345,1.251,0.551,1.977,0.558c1.191,0.011,2.305-0.217,3.453-0.495C160.771,111.972,162.042,108.979,161.049,106.627z"/>
		<path style="fill:#E0DFE6;" d="M33.166,131.617c-0.109,0-0.11,0.17,0,0.17C33.275,131.787,33.275,131.617,33.166,131.617z"/>
		<g>
			<g>
				<path style="fill:#525D7D;" d="M22.079,200.161c-8.483,0-14.76-10.111-18.656-30.052C0.68,156.069,0,141.59,0,140.024
					c0-24.875,18.885-38.838,36.653-39.344c1.202-0.066,2.186,0.904,2.22,2.096c0.034,1.192-0.905,2.186-2.097,2.22
					c-15.735,0.45-32.459,12.878-32.459,35.028c0.006,11.362,4.658,55.819,17.761,55.819c5.023,0,14.492-2.596,14.619-12.389
					c-0.392-2.071-3.338-18.313-4.396-43.707c-0.05-1.192,0.876-2.197,2.067-2.248c1.198-0.065,2.198,0.876,2.247,2.068
					c1.113,26.723,4.327,43.104,4.36,43.267c0.027,0.139,0.041,0.28,0.041,0.422C41.017,194.354,31.49,200.161,22.079,200.161z"/>
			</g>
			<g>
				<path style="fill:#525D7D;" d="M5.997,174.099c-1.04,0-1.956-0.753-2.128-1.812c-0.191-1.178,0.607-2.287,1.785-2.478
					c6.758-1.099,13.695-1.615,20.404-2.113c3.442-0.256,7.001-0.52,10.486-0.86c1.179-0.121,2.243,0.752,2.359,1.94
					c0.115,1.186-0.753,2.242-1.94,2.359c-3.534,0.344-7.118,0.61-10.584,0.867c-6.617,0.492-13.46,1.001-20.032,2.069
					C6.229,174.091,6.112,174.099,5.997,174.099z"/>
			</g>
			<g>
				<path style="fill:#525D7D;" d="M32.675,197.119c-0.59,0-1.177-0.24-1.603-0.713c-2.074-2.297-3.125-4.641-3.125-6.972
					c0-5.892,5.544-8.77,9.714-10.421c1.106-0.446,2.362,0.104,2.802,1.212c0.439,1.109-0.103,2.364-1.212,2.803
					c-4.831,1.914-6.985,3.889-6.985,6.407c0,1.529,1.094,3.062,2.012,4.079c0.799,0.884,0.729,2.249-0.155,3.049
					C33.709,196.935,33.191,197.119,32.675,197.119z"/>
			</g>
			<g>
				<path style="fill:#525D7D;" d="M38.644,183.704c-0.933,0-1.794-0.609-2.071-1.55c-0.337-1.144,0.318-2.343,1.462-2.681
					c5.196-1.526,10.596-1.677,15.818-1.823c1.702-0.048,3.411-0.094,5.12-0.19c1.182-0.028,2.21,0.846,2.275,2.037
					c0.066,1.191-0.845,2.21-2.036,2.276c-1.749,0.097-3.497,0.145-5.239,0.194c-5.175,0.145-10.062,0.28-14.72,1.65
					C39.05,183.676,38.845,183.704,38.644,183.704z"/>
			</g>
			<g>
				<path style="fill:#525D7D;" d="M72.418,106.28c-26.188,0-43.371-12.386-48.556-34.926c-9.7-1.288-14.614-5.575-14.614-12.76
					c0-3.489,1.59-8.073,8.849-10.802c-0.791-5.124-1.58-10.749-1.58-16.095c0-8.885,1.61-17.916,13.288-23.787
					C40.534,2.513,59.696,0,90.105,0c5.66,0,11.409,0.093,16.968,0.183c4.187,0.068,8.368,0.135,12.538,0.165
					c1.146,0.008,2.084,0.909,2.141,2.054c0.025,0.493,0.037,0.987,0.037,1.48c0,6.723-3.143,12.811-9.198,17.971
					c1.637,8.565,2.434,18.053,2.434,28.952C115.025,87.097,100.291,106.28,72.418,106.28z M90.105,4.318
					c-64.301,0-69.27,11.348-69.27,27.379c0,5.645,0.961,11.799,1.808,17.229c0.167,1.068-0.482,2.096-1.519,2.402
					c-7.557,2.245-7.557,6.023-7.557,7.266c0,3.479,1.396,7.606,12.283,8.64c0.947,0.09,1.723,0.79,1.912,1.722
					c4.296,21.284,20.156,33.006,44.657,33.006c25.406,0,38.288-17.212,38.288-51.158c0-9.74-0.649-18.3-1.978-26.048
					c-1.947,1.3-4.106,2.527-6.47,3.676c-10.556,5.128-22.712,7.423-30.079,7.423c-4.572,0-8.941-0.613-13.019-1.826
					c-3.52,11.831-13.276,21.91-25.174,25.963c0.771,4.194,2.049,7.917,3.808,11.083c0.579,1.043,0.204,2.357-0.839,2.936
					c-1.045,0.579-2.357,0.202-2.936-0.839c-2.265-4.076-3.813-8.912-4.604-14.374c-0.155-1.071,0.507-2.092,1.549-2.387
					c12.023-3.402,21.902-13.699,24.582-25.625c0.136-0.604,0.525-1.122,1.068-1.42c0.544-0.297,1.191-0.347,1.772-0.138
					c4.233,1.531,8.874,2.307,13.793,2.307c12.306,0,44.413-8.276,45.273-26.89c-3.477-0.035-6.961-0.091-10.449-0.148
					C101.462,4.411,95.73,4.318,90.105,4.318z"/>
			</g>
			<g>
				<path style="fill:#525D7D;" d="M66.435,124.664c-1.046,0-1.957-0.758-2.129-1.81c-1.154-7.059-1.912-12.815-2.386-18.116
					c-0.106-1.188,0.771-2.236,1.959-2.343c1.183-0.107,2.236,0.77,2.343,1.958c0.419,4.695,1.069,9.769,2.03,15.836
					c2.279-0.149,4.558-0.178,6.779-0.208c1.44-0.02,2.914-0.038,4.372-0.091c-0.174-4.925-0.3-10.135-0.205-15.397
					c0.022-1.192,1.006-2.1,2.198-2.12c1.192,0.022,2.141,1.006,2.119,2.198c-0.107,5.922,0.072,11.809,0.282,17.287
					c0.044,1.169-0.85,2.162-2.018,2.238c-2.236,0.145-4.501,0.174-6.692,0.204c-2.789,0.037-5.673,0.075-8.432,0.354
					C66.582,124.66,66.508,124.664,66.435,124.664z"/>
			</g>
			<g>
				<path style="fill:#525D7D;" d="M79.862,195.673c-0.457,0-0.915-0.145-1.299-0.434c-6.421-4.837-12.973-9.453-19.133-13.767
					c-0.655-0.458-1.003-1.241-0.904-2.035c1.327-10.656,2.335-21.451,3.309-31.892c0.84-8.996,1.708-18.297,2.78-27.519
					c0.137-1.186,1.208-2.031,2.394-1.896c1.184,0.138,2.033,1.21,1.895,2.394c-1.066,9.175-1.932,18.452-2.769,27.422
					c-0.938,10.055-1.907,20.435-3.165,30.736c5.471,3.835,11.225,7.903,16.92,12.156c5.064-3.653,10.284-7.61,15.548-11.789
					c-7.06-20.983-11.975-39.781-15.018-57.424c-0.203-1.175,0.586-2.291,1.761-2.495c1.173-0.197,2.292,0.585,2.494,1.761
					c3.074,17.821,8.091,36.861,15.338,58.209c0.292,0.862,0.013,1.813-0.697,2.381c-6.172,4.931-12.296,9.572-18.2,13.792
					C80.742,195.539,80.301,195.673,79.862,195.673z"/>
			</g>
			<g>
				<path style="fill:#525D7D;" d="M110.858,186.4c-1.128,0-2.066-0.869-2.153-1.993c-1.016-13.178-1.255-26.545-1.486-39.472
					c-0.113-6.317-0.229-12.849-0.435-19.266c-0.019-0.583,0.2-1.151,0.607-1.571c0.407-0.419,0.966-0.657,1.551-0.657
					c24.822,0,47.23,0.024,70.115,0.326c0.573,0.008,1.121,0.243,1.521,0.655c0.399,0.412,0.619,0.966,0.609,1.541
					c-0.131,7.768-0.469,15.611-0.797,23.197c-0.417,9.638-0.847,19.604-0.847,29.43c0,1.854,0.015,3.71,0.048,5.566
					c0.011,0.585-0.216,1.148-0.628,1.562c-0.412,0.413-0.978,0.666-1.558,0.637c-6.535-0.083-13.526-0.122-21.37-0.122
					c-8.296,0-16.578,0.042-24.875,0.086C124.409,186.353,117.648,186.387,110.858,186.4z M111.168,127.76
					c0.166,5.722,0.269,11.495,0.369,17.098c0.218,12.208,0.443,24.811,1.326,37.22c6.107-0.014,12.194-0.046,18.275-0.077
					c8.304-0.044,16.593-0.086,24.897-0.086c6.983,0,13.292,0.031,19.207,0.097c-0.012-1.141-0.018-2.281-0.018-3.421
					c0-9.918,0.433-19.932,0.851-29.615c0.297-6.851,0.602-13.913,0.752-20.917C155.404,127.791,134.312,127.761,111.168,127.76z"/>
			</g>
			<g>
				<path style="fill:#525D7D;" d="M132.736,162.647h-3.811c-10.493,0-17.247-3.029-21.253-9.533
					c-0.625-1.016-0.309-2.346,0.706-2.971c1.016-0.623,2.346-0.308,2.971,0.706c2.145,3.483,6.081,7.481,17.576,7.481h3.811
					c1.193,0,2.159,0.967,2.159,2.159C134.895,161.68,133.928,162.647,132.736,162.647z"/>
			</g>
			<g>
				<path style="fill:#525D7D;" d="M150.72,162.385c-1.148,0-2.104-0.905-2.156-2.063c-0.053-1.192,0.87-2.2,2.061-2.253
					c13.515-0.597,20.816-2.598,26.042-7.131c0.899-0.781,2.264-0.687,3.045,0.215c0.782,0.901,0.685,2.265-0.216,3.046
					c-6.968,6.047-16.505,7.645-28.68,8.184C150.785,162.385,150.752,162.385,150.72,162.385z"/>
			</g>
			<g>
				<path style="fill:#525D7D;" d="M151.221,168.658c-0.026,0-0.052,0-0.078-0.001c-2.832-0.103-5.696-0.194-8.56-0.285
					c-3.173-0.1-6.348-0.201-9.478-0.318c-1.076-0.041-1.957-0.866-2.068-1.937c-0.419-4.069-0.666-8.269-0.757-12.84
					c-0.012-0.595,0.222-1.168,0.647-1.584c0.424-0.416,1.004-0.647,1.597-0.616c3.13,0.125,6.301,0.152,9.367,0.178
					c2.744,0.023,5.58,0.046,8.395,0.141c1.129,0.038,2.038,0.939,2.084,2.068c0.091,2.208,0.304,4.473,0.51,6.664
					c0.191,2.037,0.389,4.144,0.497,6.261c0.031,0.604-0.193,1.195-0.618,1.626C152.353,168.427,151.798,168.658,151.221,168.658z
					 M135.153,163.807c2.508,0.089,5.037,0.169,7.566,0.249c2.068,0.066,4.135,0.131,6.19,0.201
					c-0.097-1.251-0.214-2.502-0.329-3.726c-0.15-1.595-0.303-3.23-0.414-4.875c-2.115-0.048-4.24-0.066-6.311-0.083
					c-2.355-0.021-4.772-0.041-7.2-0.105C134.751,158.37,134.916,161.126,135.153,163.807z"/>
			</g>
			<g>
				<path style="fill:#525D7D;" d="M105.084,120.183c-0.702,0-1.391-0.342-1.806-0.973c-2.089-3.174-5.157-6.367-9.119-9.488
					c-0.937-0.739-1.098-2.096-0.36-3.033c0.738-0.935,2.097-1.093,3.032-0.36c4.327,3.41,7.71,6.945,10.054,10.509
					c0.656,0.995,0.38,2.335-0.617,2.99C105.903,120.068,105.491,120.183,105.084,120.183z"/>
			</g>
			<g>
				<path style="fill:#525D7D;" d="M139.753,116.621c-5.365,0-7.13-3.618-8.078-5.562c-0.136-0.278-0.261-0.538-0.391-0.766
					c-0.592-1.034-0.232-2.354,0.803-2.946c1.035-0.59,2.354-0.231,2.946,0.804c0.172,0.301,0.342,0.645,0.523,1.015
					c0.949,1.945,1.659,3.137,4.197,3.137c1.522,0,3.203-0.745,4.731-2.1c0.461-0.409,1.075-0.597,1.689-0.527
					c0.613,0.073,1.165,0.406,1.517,0.912c0.531,0.766,1.436,1.549,4.111,1.549c3.584,0,5.85-4.249,5.85-5.312
					c0-1.825,0-7.38-14.753-7.38c-9.137,0-11.596,3.545-14.198,7.299c-2.306,3.324-4.919,7.093-11.815,7.093
					c-6.784,0-10.863-6.372-13.841-11.024c-0.643-1.004-0.35-2.339,0.654-2.983c1.006-0.642,2.34-0.35,2.982,0.655
					c2.576,4.024,5.783,9.034,10.205,9.034c4.636,0,6.08-2.083,8.267-5.236c2.829-4.079,6.35-9.156,17.747-9.156
					c15.762,0,19.071,6.362,19.071,11.698c0,3.306-3.96,9.63-10.168,9.63c-2.606,0-4.598-0.562-6.112-1.749
					C143.791,115.952,141.737,116.621,139.753,116.621z"/>
			</g>
			<g>
				<path style="fill:#525D7D;" d="M145.951,114.028c-0.027,0-0.055,0-0.082-0.001c-1.191-0.045-2.121-1.047-2.077-2.238l0.003-0.2
					c0-2.058-1.113-4.322-2.189-6.512c-0.216-0.44-0.431-0.877-0.635-1.307c-0.511-1.078-0.051-2.366,1.027-2.876
					c1.077-0.513,2.364-0.052,2.875,1.026c0.196,0.413,0.401,0.831,0.609,1.254c1.233,2.509,2.631,5.354,2.631,8.416l-0.006,0.36
					C148.063,113.113,147.106,114.028,145.951,114.028z"/>
			</g>
			<g>
				<path style="fill:#525D7D;" d="M122.744,127.764c-0.13,0-0.263-0.011-0.396-0.037c-1.172-0.216-1.947-1.344-1.73-2.516
					c1.471-7.931,5.812-13.581,12.556-16.342c1.103-0.446,2.364,0.076,2.816,1.181c0.452,1.103-0.077,2.364-1.18,2.817
					c-5.393,2.207-8.74,6.625-9.946,13.132C124.672,127.037,123.765,127.764,122.744,127.764z"/>
			</g>
			<g>
				<path style="fill:#525D7D;" d="M162.035,127.909c-1.028,0-1.938-0.737-2.123-1.782c-0.789-4.459-2.936-8.584-5.891-11.32
					c-0.875-0.81-0.928-2.176-0.118-3.05c0.811-0.874,2.177-0.929,3.052-0.118c3.686,3.41,6.246,8.289,7.21,13.734
					c0.208,1.175-0.576,2.295-1.75,2.503C162.287,127.899,162.161,127.909,162.035,127.909z"/>
			</g>
		</g>
	</g>
</g>
<g id="Layer_1">
</g>
</svg>
