<?xml version="1.0" encoding="iso-8859-1"?>
<!-- Generator: Adobe Illustrator 21.0.2, SVG Export Plug-In . SVG Version: 6.00 Build 0)  -->
<svg version="1.1" xmlns="http://www.w3.org/2000/svg" xmlns:xlink="http://www.w3.org/1999/xlink" x="0px" y="0px"
	 viewBox="0 0 225.861 218.248" style="enable-background:new 0 0 225.861 218.248;" xml:space="preserve">
<g id="_x31_20">
	<g>
		<g>
			<path style="fill:#E0DFE6;" d="M187.654,30.411c-0.757-2.33-3.386-4.053-5.78-3.785c1.451-3.026,2.383-6.355,2.401-9.667
				c0.026-4.913-1.734-7.853-4.334-11.761c-1.858-2.792-5.598-0.924-5.15,2.171c0.818,5.652-2.998,12.772-6.94,16.397
				c-4.214,3.875-10.836,5.054-12.754,10.875c-0.717,2.176,0.537,4.144,2.19,5.382c5.257,3.938,12.787-0.012,18.02-4.751
				c-1.763,5.072-2.39,10.742-3.651,15.845c-0.805,3.257-1.165,7.854-4.023,9.899c-2.497,1.788-6.794,1.69-9.704,2.227
				c-4.986,0.92-3.858,7.55,0,9.016c8.408,3.195,18.524,1.511,23.048-6.894c2.547-4.732,3.599-10.759,4.862-15.945
				C187.32,43.34,189.644,36.534,187.654,30.411z"/>
			<path style="fill:#E0DFE6;" d="M128.845,21.658c-3.843,0.537-6.706-0.253-10.558-0.45c-3.596-0.183-6.085,1.045-9.404,2.067
				c-4.403,1.356-6.623-1.551-10.634-2.602c-3.322-0.871-5.811,0.007-8.935,0.956c-1.563,0.475-3.935,1.702-5.542,1.331
				c-1.394-0.321-3.212-2.273-4.524-2.905c-2.042-0.983-4.224-1.51-6.486-1.45c-4.413,0.118-9.647,2.429-10.355,7.158
				c-0.162,1.082,0.609,2.007,1.754,1.754c4.135-0.912,7.407-2.738,11.305,0.35c2.126,1.684,3.508,3.737,6.102,4.819
				c2.831,1.18,5.651,0.843,8.512-0.005c4.83-1.431,4.759-1.657,9.278,0.632c6.898,3.493,11.032,0.101,17.896-0.02
				c6.801-0.12,13.217,3.363,17.56-3.869C137.439,25.058,133.122,21.061,128.845,21.658z"/>
			<path style="fill:#E0DFE6;" d="M81.766,53.298c-2.826-3.564-6.377-9.206-11.002-10.424c-1.476-0.388-3.301,0.485-3.637,2.065
				c-0.586,2.755,0.366,5.16,1.322,7.718c1.04,2.782,2.263,5.514,3.505,8.211c1.581,3.432,6.496,3.824,9.18,1.753
				C84.32,60.162,84.086,56.223,81.766,53.298z"/>
			<path style="fill:#E0DFE6;" d="M33.862,113.433c-6.647-1.718-15.726-4.286-22.456-2.184c-2.594,0.81-3.348,3.889-1.55,5.872
				c4.716,5.202,13.83,7.585,20.381,9.463C38.688,129.007,42.362,115.631,33.862,113.433z"/>
			<path style="fill:#E0DFE6;" d="M118.118,64.26c-4.59-2.891-12.401-2.061-16.258,1.705c-1.587,1.55-2.485,4.278-1.744,6.45
				c-1.387,1.222-2.04,3.253-1.502,5.087c-0.083-0.047-0.166-0.094-0.25-0.142c1.893,4.499,5.973,10.246,11.032,11.334
				c5.806,1.249,10.67-4.619,12.74-9.407C124.417,74.013,123.201,67.462,118.118,64.26z"/>
			<path style="fill:#E0DFE6;" d="M161.06,168.49c-4.687,0.208-9.379,0.383-14.074,0.539c1.184-3.009,0.372-6.66-3.632-7.39
				c-11.498-2.096-25.042,1.226-36.652,2.331c-11.63,1.106-23.264,2.178-34.889,3.329c-5.95-3.261-12.489-5.572-19.333-5.258
				c-4.379,0.201-4.721,5.702-0.98,7.243c3.768,1.551,7.36,3.234,10.856,5.115c0.031,3.061,2.102,6.05,6.314,6.321
				c1.409,0.091,2.817,0.165,4.225,0.24c5.097,3.738,10.045,8.312,15.676,10.979c6.051,2.866,11.343-0.052,17.309-1.627
				c3.188-0.841,22.55-5.732,23.44-0.128c0.595,3.747,5.633,5.274,8.569,3.486c8.498-5.177,17.166-10.13,26.013-14.688
				C168.835,176.441,166.564,168.246,161.06,168.49z"/>
			<path style="fill:#E0DFE6;" d="M181.469,141.677c-0.295-8.201-0.577-16.406-1.106-24.596c-0.497-7.69-0.695-16.117-3.738-23.265
				c-1.163-2.732-4.826-1.419-5.658,0.74c-4.518,11.725-2.866,27.536-2.867,39.888c0,3.376,0,6.752,0,10.128
				c0,0.671,0.28,7.57,0.747,7.93c-0.238-0.034-0.504-0.073-0.824-0.12c-1.249,0.004-2.414,0.319-3.494,0.945
				c-0.375,0.217-0.719,0.468-1.044,0.738c-1.83,0.319-3.691,0.726-5.611,1.029c-7.826,1.235-15.534,1.988-23.452,2.068
				c-4.164,0.042-4.168,6.409,0,6.47c7.755,0.114,15.523,0.377,23.279,0.299c1.747-0.018,3.507,0.021,5.244-0.005
				c0.82,0.909,1.906,1.631,3.237,2.054c4.991,1.585,10.396-0.27,13.31-4.693C183.134,155.755,181.692,147.858,181.469,141.677z"/>
			<path style="fill:#E0DFE6;" d="M39.156,197.483c-1.822-2.893-6.319-4.723-9.397-2.464c-2.009,1.475-3.394,3.29-3.402,5.93
				c-0.025,0.9,0.15,1.749,0.526,2.545c0.552,0.8,0.346,0.994-0.617,0.585c-1.486,0.803-4.062,0.423-5.641,0.454
				c-6.56,0.127-16.219-0.128-20.327,5.882c-0.495,0.725-0.369,2.085,0.343,2.656c3.731,2.994,8.653,2.72,13.267,3.336
				c5.104,0.681,10.216,2.081,15.373,1.025C38.343,215.576,44.48,205.937,39.156,197.483z"/>
			<path style="fill:#E0DFE6;" d="M219.047,201.009c-5.883,0.064-11.829,1.315-17.631,2.271c-4.622,0.761-10.36,3.015-13.85-0.958
				c-1.524-1.735-4.352-1.092-5.463,0.704c-3.79,6.128,1.787,13.137,7.974,14.701c4.35,1.099,8.892,0.198,13.251-0.316
				c5.835-0.688,11.915-1.106,17.577-2.668C228.449,212.661,227.022,200.922,219.047,201.009z"/>
			<path style="fill:#E0DFE6;" d="M196.815,190.67c-4.715-2.693-10.04-2.259-15.363-2.502c-1.821-0.083-3.665-0.11-5.516-0.132
				c4.789-2.663,9.531-5.857,12.293-9.482c2.126-1.086,3.76-3.164,3.916-6.236c0.243-4.801-1.226-10.102-1.818-14.889
				c-0.701-5.669-1.311-11.347-1.985-17.019c-0.622-5.234-1.204-10.48-1.908-15.704c-0.659-4.888-2.131-10.279-1.177-15.213
				c0.508-2.626-2.424-4.454-4.477-2.606c-7.401,6.661-5.523,18.853-5.356,27.844c0.203,10.922,1.686,21.958,1.928,32.887
				c-0.34,0.507-0.649,1.054-0.885,1.679c-0.229,0.031-0.727,0.58-1.517,1.695c-1.262,1.221-2.627,2.315-4.097,3.28
				c-1.942,1.376-4.033,2.542-6.076,3.759c-6.301,3.754-12.649,7.432-18.973,11.148c-5.906,3.47-11.855,6.879-17.468,10.816
				c-3.771,2.645-7.651,4.695-7.931,9.578c-0.032,0.555,0.331,1.147,0.81,1.412c5.363,2.96,11.497-1.25,16.54-3.598
				c8.433-3.928,16.611-8.407,24.86-12.705c0.453-0.236,0.988-0.499,1.555-0.775c4.893,1.412,9.663,3.28,14.617,4.554
				c5.504,1.416,11.204,3.481,16.775,1.81C199.816,198.994,200.816,192.955,196.815,190.67z"/>
			<path style="fill:#E0DFE6;" d="M75.845,183.42c-7.412-3.14-15.847-0.103-23.449,1.763c-8.358,2.051-17.227,4.338-24.357,9.311
				c-1.842,1.285-1.213,4.193,1.159,4.278c8.245,0.296,16.505-1.765,24.653-2.838c6.93-0.913,16.196,0.033,21.994-4.104
				C78.437,189.98,79.55,184.99,75.845,183.42z"/>
			<path style="fill:#E0DFE6;" d="M155.881,138.257c-14.903,5.405-29.231,9.086-45.222,8.773
				c-16.479-0.322-32.584-4.357-48.707-7.373c-2.504-0.468-4.57,3.235-1.876,4.45c28.964,13.064,70.848,21.308,99.264,2.352
				C163.319,143.802,160.933,136.424,155.881,138.257z"/>
			<path style="fill:#E0DFE6;" d="M36.204,121.258c-6.136-1.042-13.507-2.478-18.711-5.959c-1.13-0.756-2.127,1.03-1.053,1.802
				c6.208,4.468,11.477,7.554,19.339,7.3C37.495,124.346,38.058,121.574,36.204,121.258z"/>
		</g>
		<g>
			<g>
				<path style="fill:#525D7D;" d="M113.652,213.417c-0.415,0-0.831-0.12-1.192-0.359L36.696,162.93
					c-0.611-0.405-0.976-1.092-0.967-1.825c0.163-14.609,0.548-29.459,0.921-43.821c0.266-10.244,0.54-20.839,0.731-31.249
					c0.014-0.737,0.402-1.414,1.029-1.801c6.129-3.766,12.247-7.543,18.366-11.319c17.163-10.593,34.912-21.547,52.596-32.102
					c0.755-0.451,1.715-0.401,2.418,0.139l70.723,54.083c0.547,0.418,0.862,1.071,0.848,1.758c-0.16,7.921-0.405,15.968-0.64,23.75
					c-0.409,13.497-0.832,27.454-0.832,41.164c0,2.444,0.013,4.89,0.042,7.335c0.01,0.777-0.401,1.5-1.072,1.89
					c-16.145,9.401-32.093,19.89-47.518,30.033c-6.158,4.05-12.319,8.103-18.518,12.105
					C114.467,213.302,114.059,213.417,113.652,213.417z M40.061,159.978l73.605,48.701c5.788-3.748,11.547-7.536,17.302-11.32
					c15.127-9.949,30.758-20.228,46.631-29.523c-0.02-2.042-0.028-4.086-0.028-6.129c0-13.775,0.423-27.766,0.834-41.295
					c0.225-7.413,0.457-15.067,0.616-22.613l-68.691-52.529C93.087,55.579,75.787,66.256,59.044,76.59
					c-5.787,3.572-11.574,7.143-17.368,10.707c-0.19,10.045-0.454,20.234-0.71,30.1C40.604,131.358,40.23,145.779,40.061,159.978z"
					/>
			</g>
			<g>
				<path style="fill:#525D7D;" d="M107.041,92.624c-0.576,0-1.147-0.229-1.567-0.672c-1.945-2.048-3.864-4.114-5.783-6.181
					c-2.464-2.654-5.012-5.398-7.572-8.049c-0.427-0.443-0.645-1.046-0.6-1.659c0.045-0.614,0.35-1.178,0.838-1.553
					c5.686-4.369,11.518-9.024,17.336-13.836c0.803-0.665,1.966-0.658,2.764,0.01c5.204,4.366,10.548,11.189,14.115,16.144
					c0.682,0.946,0.488,2.265-0.439,2.974c-5.871,4.501-11.82,8.465-17.906,12.465C107.862,92.507,107.45,92.624,107.041,92.624z
					 M96.894,76.465c2.02,2.124,4.017,4.273,5.961,6.367c1.498,1.614,2.997,3.229,4.509,4.834
					c4.909-3.237,9.726-6.479,14.458-10.017c-3.851-5.194-7.602-9.523-10.801-12.474C106.286,69.071,101.548,72.857,96.894,76.465z"
					/>
			</g>
			<g>
				<path style="fill:#525D7D;" d="M2.283,208.028c-0.765,0-1.476-0.405-1.864-1.07c-0.412-0.704-0.391-1.579,0.051-2.262
					c4.398-6.802,9.214-13.933,14.315-21.198c0.396-0.565,1.04-0.907,1.732-0.918c0.713,0.01,1.345,0.311,1.761,0.862
					c4.367,5.807,9.561,12.679,14.954,19.613c0.5,0.644,0.596,1.514,0.247,2.25c-0.35,0.737-1.084,1.215-1.899,1.234
					c-8.305,0.2-16.751,0.72-24.921,1.224l-4.246,0.26C2.37,208.027,2.327,208.028,2.283,208.028z M16.617,188.415
					c-3.561,5.115-6.969,10.15-10.18,15.036c6.81-0.42,13.812-0.852,20.788-1.101C23.463,197.473,19.854,192.711,16.617,188.415z"/>
			</g>
			<g>
				<path style="fill:#525D7D;" d="M222.761,206.987c-12.895-0.028-23.384-0.117-33.014-0.28c-0.877-0.015-1.657-0.559-1.975-1.376
					c-0.319-0.817-0.111-1.746,0.526-2.349c2.194-2.083,4.385-4.152,6.57-6.216c3.953-3.731,7.884-7.443,11.774-11.18
					c0.441-0.422,1.05-0.641,1.652-0.596c0.611,0.045,1.174,0.346,1.549,0.829c4.054,5.223,8.421,10.369,12.645,15.347l1.922,2.266
					c0.544,0.642,0.665,1.542,0.311,2.305C224.365,206.499,223.602,206.987,222.761,206.987z M195.118,202.47
					c6.933,0.094,14.418,0.155,22.97,0.186c-3.397-4.006-6.861-8.118-10.178-12.304c-3.334,3.189-6.698,6.365-10.077,9.554
					C196.929,200.76,196.025,201.614,195.118,202.47z"/>
			</g>
			<g>
				<path style="fill:#525D7D;" d="M165.503,40.956c-0.483,0-0.967-0.017-1.452-0.048c-7.337-0.486-17.836-6.744-18.207-19.139
					c-0.171-5.687,2.006-11.349,5.975-15.534c3.698-3.901,8.562-6.112,13.692-6.23c0.984-0.024,1.975,0.034,2.95,0.167
					c4.118,0.557,7.731,1.976,10.738,4.22c4.8,3.579,7.693,9.494,7.738,15.823c0.039,5.52-2.321,10.933-6.474,14.849
					C176.447,38.85,171.062,40.956,165.503,40.956z M165.935,4.319c-0.108,0-0.216,0.001-0.325,0.004
					c-3.972,0.09-7.756,1.825-10.658,4.883c-3.182,3.355-4.93,7.887-4.793,12.433c0.291,9.69,8.465,14.582,14.176,14.959
					c4.869,0.336,9.672-1.382,13.165-4.675c3.285-3.097,5.15-7.353,5.119-11.677c-0.035-4.91-2.333-9.66-6.001-12.394
					c-2.447-1.825-5.305-2.938-8.736-3.402C167.237,4.363,166.584,4.319,165.935,4.319z"/>
			</g>
			<g>
				<path style="fill:#525D7D;" d="M159.206,66.083c-1.112,0-2.049-0.85-2.149-1.968c-0.178-2.018-0.245-4.064-0.308-6.041
					c-0.051-1.579-0.101-3.161-0.208-4.748c-0.042-0.603,0.171-1.196,0.589-1.633c0.416-0.44,0.97-0.687,1.602-0.672
					c2.932,0.052,5.866,0.164,8.798,0.278c2.373,0.091,4.745,0.183,7.119,0.24c0.574,0.016,1.119,0.257,1.514,0.675
					c0.395,0.416,0.607,0.974,0.59,1.548c-0.105,3.607-0.128,7.271-0.136,10.063c-0.001,0.573-0.232,1.124-0.641,1.528
					c-0.405,0.401-0.95,0.624-1.518,0.624c-0.018,0-1.645-0.016-1.645-0.016c-1.851-0.017-3.695-0.035-5.538-0.035
					c-3.095,0-5.628,0.049-7.971,0.155C159.272,66.081,159.238,66.083,159.206,66.083z M160.975,55.39
					c0.035,0.85,0.062,1.698,0.09,2.546c0.041,1.286,0.08,2.527,0.148,3.753c1.823-0.055,3.798-0.082,6.062-0.082
					c1.676,0,3.351,0.014,5.034,0.031c0.011-1.794,0.031-3.797,0.074-5.843c-1.673-0.053-3.347-0.118-5.021-0.181
					C165.233,55.531,163.105,55.449,160.975,55.39z"/>
			</g>
			<g>
				<path style="fill:#525D7D;" d="M159.573,54.475c-0.959,0-1.834-0.642-2.087-1.614c-1.909-7.316-4.904-13.542-7.856-19.179
					c-0.552-1.057-0.145-2.361,0.911-2.915c1.059-0.552,2.36-0.145,2.915,0.911c2.924,5.583,6.185,12.337,8.208,20.092
					c0.301,1.154-0.389,2.333-1.543,2.634C159.937,54.452,159.752,54.475,159.573,54.475z"/>
			</g>
			<g>
				<path style="fill:#525D7D;" d="M174.458,57.447c-0.06,0-0.121-0.003-0.181-0.007c-1.189-0.1-2.072-1.143-1.974-2.33
					c0.552-6.632,1.708-15.157,5.776-22.278c0.593-1.036,1.916-1.39,2.946-0.804c1.036,0.592,1.396,1.912,0.804,2.946
					c-3.649,6.384-4.707,14.305-5.222,20.493C176.513,56.593,175.569,57.447,174.458,57.447z"/>
			</g>
			<g>
				<path style="fill:#525D7D;" d="M104.916,27.388c-3.154,0-5.333-2.003-7.255-3.77c-1.498-1.379-2.793-2.57-4.175-2.57
					c-1.377,0-2.881,1.126-4.474,2.317c-2.131,1.595-4.546,3.403-7.718,3.403c-3.198,0-5.538-1.782-7.603-3.354
					c-1.777-1.351-3.31-2.519-5.132-2.519c-2.735,0-5.403,2.345-6.833,4.667c-0.624,1.018-1.955,1.334-2.97,0.707
					c-1.016-0.625-1.332-1.955-0.707-2.97c2-3.25,5.811-6.722,10.51-6.722c3.278,0,5.652,1.806,7.746,3.402
					c1.743,1.326,3.249,2.471,4.989,2.471c1.736,0,3.385-1.234,5.132-2.541c1.99-1.49,4.246-3.178,7.06-3.178
					c3.066,0,5.208,1.971,7.099,3.708c1.535,1.413,2.86,2.631,4.331,2.631c1.542,0,2.21-0.685,3.575-2.235
					c1.695-1.924,4.016-4.56,9.288-4.56c2.231,0,4.251,1.465,6.389,3.014c2.232,1.618,4.54,3.291,6.933,3.291
					c1.022,0,1.983-0.356,2.938-1.085c0.945-0.724,2.302-0.544,3.026,0.403c0.724,0.947,0.544,2.302-0.403,3.026
					c-1.712,1.31-3.583,1.974-5.561,1.974c-3.794,0-6.938-2.28-9.467-4.113c-1.417-1.027-3.024-2.191-3.854-2.191
					c-3.321,0-4.523,1.366-6.047,3.095C110.28,25.338,108.474,27.388,104.916,27.388z"/>
			</g>
			<g>
				<g>
					<path style="fill:#525D7D;" d="M38.946,114.195c-0.027,0-0.053,0-0.08-0.001l-2.879-0.104
						c-1.192-0.043-2.122-1.044-2.079-2.236c0.044-1.192,1.081-2.1,2.236-2.079l2.879,0.104c1.192,0.043,2.122,1.044,2.079,2.236
						C41.061,113.28,40.102,114.195,38.946,114.195z"/>
				</g>
				<g>
					<path style="fill:#525D7D;" d="M24.256,113.72c-1.803-0.045-3.549-0.086-5.294-0.118c-1.193-0.022-2.141-1.006-2.12-2.198
						c0.022-1.179,0.984-2.12,2.158-2.12c1.796,0.032,3.554,0.073,5.309,0.119c1.192,0.03,2.134,1.021,2.103,2.212
						C26.383,112.789,25.423,113.72,24.256,113.72z"/>
				</g>
				<g>
					<path style="fill:#525D7D;" d="M4.298,113.514c-0.576,0-1.127-0.23-1.534-0.64c-0.41-0.413-0.635-0.975-0.625-1.557
						c0.017-0.949,0.027-1.898,0.03-2.847c0.003-1.19,0.97-2.153,2.159-2.153c1.199,0.003,2.162,0.973,2.159,2.165
						c0,0.233-0.001,0.467-0.003,0.7c0.231-0.001,0.444-0.065,0.693-0.003c1.189,0,2.156,0.963,2.159,2.153
						c0.003,1.192-0.96,2.162-2.153,2.165C6.226,113.501,5.272,113.506,4.298,113.514z"/>
				</g>
				<g>
					<path style="fill:#525D7D;" d="M4.087,99.119c-1.153,0-2.11-0.911-2.156-2.073c-0.067-1.699-0.143-3.402-0.223-5.102
						c-0.056-1.191,0.864-2.203,2.055-2.258c1.158-0.081,2.203,0.864,2.258,2.055c0.08,1.712,0.159,3.423,0.226,5.133
						c0.046,1.192-0.881,2.196-2.072,2.243C4.144,99.119,4.115,99.119,4.087,99.119z M3.308,82.491c-1.15,0-2.106-0.905-2.156-2.065
						c-0.074-1.715-0.14-3.431-0.194-5.146c-0.038-1.192,0.898-2.189,2.09-2.225c1.191-0.09,2.189,0.898,2.225,2.09
						c0.053,1.698,0.119,3.395,0.194,5.093c0.052,1.192-0.873,2.2-2.063,2.252C3.371,82.491,3.339,82.491,3.308,82.491z
						 M3.02,65.849c-1.238-0.025-2.184-1.011-2.16-2.203c0.038-1.806,0.101-3.522,0.183-5.18c0.058-1.191,1.029-2.093,2.262-2.051
						c1.191,0.058,2.11,1.071,2.051,2.262c-0.079,1.618-0.142,3.295-0.177,5.056C5.154,64.912,4.191,65.849,3.02,65.849z"/>
				</g>
				<g>
					<path style="fill:#525D7D;" d="M3.994,49.222c-0.055,0-0.11-0.001-0.164-0.006c-1.189-0.09-2.08-1.126-1.992-2.315
						c0.072-0.949,0.143-1.899,0.211-2.859c0.074-1.072,0.928-1.927,2-2.003c0.97-0.069,1.947-0.132,2.931-0.176
						c1.175-0.119,2.2,0.869,2.253,2.059c0.055,1.191-0.867,2.2-2.059,2.253c-0.319,0.016-0.637,0.031-0.954,0.049
						c-0.025,0.335-0.051,0.668-0.074,0.999C6.059,48.359,5.111,49.222,3.994,49.222z"/>
				</g>
				<g>
					<path style="fill:#525D7D;" d="M28.642,47.107c-2.405-0.048-4.608-0.138-6.775-0.274c-1.191-0.075-2.094-1.101-2.02-2.29
						c0.075-1.189,1.113-2.096,2.29-2.02c2.107,0.132,4.249,0.219,6.548,0.266c1.192,0.024,2.139,1.011,2.115,2.203
						C30.776,46.169,29.813,47.107,28.642,47.107z M43.591,47c-1.168,0-2.128-0.932-2.158-2.107
						c-0.028-1.192,0.915-2.182,2.107-2.211l6.639-0.171c1.185-0.087,2.184,0.909,2.214,2.101c0.032,1.192-0.909,2.183-2.101,2.214
						C50.291,46.826,43.644,47,43.591,47z"/>
				</g>
				<g>
					<path style="fill:#525D7D;" d="M67.926,49.496c-0.032,0-0.065,0-0.097-0.001c-1.191-0.053-2.114-1.061-2.062-2.253
						c0.01-0.214,0.02-0.429,0.03-0.644c-0.204-0.001-0.408-0.003-0.611-0.003c-1.193-0.003-2.156-0.973-2.153-2.165
						c0.003-1.191,0.97-2.153,2.159-2.153c0.974,0.003,1.941,0.013,2.91,0.027c0.589,0.008,1.148,0.257,1.549,0.689
						c0.402,0.43,0.609,1.006,0.575,1.594c-0.053,0.949-0.101,1.898-0.142,2.847C70.031,48.591,69.075,49.496,67.926,49.496z"/>
				</g>
				<g>
					<path style="fill:#525D7D;" d="M67.608,60.521c-1.234-0.022-2.183-1.008-2.16-2.2l0.069-3.399
						c0.027-1.177,0.988-2.111,2.158-2.111c1.241,0.027,2.187,1.015,2.16,2.207l-0.069,3.385
						C69.743,59.58,68.78,60.521,67.608,60.521z"/>
				</g>
				<g>
					<path style="fill:#525D7D;" d="M67.435,71.036c-1.234-0.022-2.183-1.008-2.16-2.2l0.051-2.87
						c0.02-1.181,0.983-2.124,2.159-2.124c1.227,0.02,2.177,1.002,2.159,2.194l-0.051,2.881
						C69.57,70.096,68.607,71.036,67.435,71.036z"/>
				</g>
			</g>
			<g>
				<path style="fill:#525D7D;" d="M24.751,195.234c-0.942,0-1.808-0.621-2.076-1.572c-0.325-1.148,0.343-2.34,1.49-2.665
					c3.961-1.119,8.011-2.388,11.927-3.615c10.064-3.156,20.472-6.417,31.164-7.754c1.181-0.143,2.263,0.69,2.411,1.874
					c0.148,1.184-0.692,2.263-1.874,2.411c-10.309,1.289-20.528,4.491-30.411,7.589c-3.944,1.237-8.023,2.515-12.042,3.65
					C25.143,195.209,24.945,195.234,24.751,195.234z"/>
			</g>
			<g>
				<path style="fill:#525D7D;" d="M198.911,195.83c-0.201,0-0.403-0.028-0.606-0.086c-12.658-3.693-25.848-5.809-38.604-7.857
					c-1.919-0.308-3.837-0.616-5.757-0.929c-1.177-0.192-1.975-1.302-1.782-2.479c0.193-1.175,1.3-1.979,2.48-1.782
					c1.915,0.313,3.829,0.62,5.743,0.928c12.888,2.069,26.214,4.207,39.13,7.974c1.144,0.335,1.802,1.534,1.469,2.678
					C200.707,195.219,199.845,195.83,198.911,195.83z"/>
			</g>
			<g>
				<path style="fill:#525D7D;" d="M178.435,170.166c-0.081,0-0.164-0.004-0.247-0.014c-39.214-4.474-74.43-6.65-107.662-6.65
					c-9.756,0-19.474,0.191-28.882,0.569c-1.181,0.072-2.197-0.88-2.245-2.071c-0.048-1.192,0.88-2.197,2.071-2.245
					c9.465-0.38,19.242-0.572,29.056-0.572c33.396,0,68.774,2.184,108.151,6.678c1.185,0.135,2.035,1.205,1.9,2.389
					C180.452,169.353,179.517,170.166,178.435,170.166z"/>
			</g>
			<g>
				<path style="fill:#525D7D;" d="M130.465,200.585c-0.486,0-0.977-0.164-1.38-0.5c-0.423-0.352-0.826-0.827-1.337-1.427
					c-2.205-2.593-6.313-7.423-15.948-7.423c-5.842,0-10.659,2-13.563,5.632c-0.746,0.932-2.103,1.084-3.035,0.339
					c-0.932-0.745-1.082-2.104-0.339-3.035c3.742-4.678,9.756-7.255,16.937-7.255c11.632,0,16.962,6.268,19.237,8.944
					c0.301,0.353,0.673,0.791,0.811,0.907c0.916,0.763,1.04,2.124,0.277,3.04C131.697,200.321,131.083,200.585,130.465,200.585z"/>
			</g>
			<g>
				<path style="fill:#525D7D;" d="M50.682,113.94c-0.419,0-0.842-0.121-1.215-0.375c-0.985-0.672-1.24-2.014-0.568-3
					c1.444-2.118,2.551-4.423,3.725-6.865c1.248-2.595,2.537-5.277,4.262-7.693c0.694-0.968,2.041-1.193,3.012-0.502
					c0.97,0.693,1.195,2.041,0.502,3.012c-1.508,2.111-2.662,4.512-3.884,7.053c-1.191,2.478-2.423,5.039-4.05,7.426
					C52.05,113.61,51.371,113.94,50.682,113.94z"/>
			</g>
			<g>
				<path style="fill:#525D7D;" d="M61.503,110.009c-2.517,0-5.301-0.879-7.444-2.352c-0.983-0.675-1.231-2.02-0.557-3.002
					c0.676-0.983,2.021-1.233,3.003-0.557c1.429,0.983,3.345,1.593,4.998,1.593c3.42,0,3.459-2.523,3.459-2.548
					c0-1.521-2.981-3.062-4.955-4.079l-0.916-0.479c-1.051-0.561-1.449-1.868-0.888-2.921c0.561-1.051,1.867-1.449,2.921-0.888
					l0.866,0.451c2.903,1.5,7.291,3.766,7.291,7.917C69.28,105.798,67.169,110.009,61.503,110.009z"/>
			</g>
			<g>
				<path style="fill:#525D7D;" d="M67.047,125.478c-0.313,0-0.631-0.068-0.933-0.212c-1.074-0.516-1.528-1.806-1.012-2.882
					c2.648-5.514,10.621-16.737,10.96-17.212c0.689-0.971,2.04-1.2,3.011-0.506c0.971,0.691,1.198,2.04,0.506,3.011
					c-0.08,0.112-8.096,11.394-10.583,16.577C68.624,125.027,67.851,125.478,67.047,125.478z"/>
			</g>
			<g>
				<path style="fill:#525D7D;" d="M81.173,121.704c-3.3,0-5.215-1.718-6.612-2.972c-0.455-0.409-0.885-0.794-1.3-1.071
					c-0.992-0.662-1.261-2.002-0.599-2.994c0.662-0.992,2.003-1.261,2.994-0.599c0.673,0.448,1.24,0.957,1.789,1.449
					c1.328,1.193,2.158,1.868,3.728,1.868c1.358,0,3.372-0.758,3.372-1.803c0-2.096-2.47-4.567-6.956-6.959
					c-1.051-0.561-1.449-1.868-0.888-2.921c0.559-1.051,1.865-1.451,2.921-0.888c6.133,3.27,9.242,6.892,9.242,10.769
					C88.863,119.805,84.367,121.704,81.173,121.704z"/>
			</g>
			<g>
				<path style="fill:#525D7D;" d="M76.159,131.688c-0.101,0-0.205-0.007-0.308-0.021c-1.181-0.169-2.002-1.262-1.833-2.443
					c0.326-2.274,0.845-4.594,1.348-6.836c0.169-0.756,0.337-1.51,0.498-2.255c0.25-1.167,1.411-1.906,2.564-1.659
					c1.167,0.25,1.909,1.399,1.659,2.564c-0.163,0.759-0.335,1.524-0.508,2.294c-0.483,2.16-0.984,4.395-1.285,6.501
					C78.14,130.911,77.216,131.688,76.159,131.688z"/>
			</g>
			<g>
				<path style="fill:#525D7D;" d="M94.601,136.906c-4.005,0-6.697-3.354-6.697-8.347c0-4.885,3.115-10.369,7.574-13.341
					c0.786-0.523,1.695-0.788,2.707-0.788c3.326,0,4.873,1.459,5.585,2.683c0.825,1.415,0.824,2.959,0.822,3.979
					C104.593,128.757,101.466,136.906,94.601,136.906z M98.186,118.748c-0.143,0-0.249,0.021-0.312,0.063
					c-3.222,2.146-5.651,6.337-5.651,9.748c0,0.945,0.172,4.029,2.378,4.029c3.913,0,5.673-6.667,5.673-11.401
					c0-0.72,0.001-1.494-0.236-1.902C99.767,118.818,98.761,118.748,98.186,118.748z"/>
			</g>
			<g>
				<path style="fill:#525D7D;" d="M110.124,138.899c-1.192,0-2.159-0.967-2.159-2.159c0-2.37,0.069-4.835,0.135-7.219
					c0.066-2.392,0.135-4.868,0.135-7.254c0-1.175-0.017-2.342-0.058-3.493c-0.042-1.192,0.888-2.193,2.08-2.235
					c1.186-0.086,2.191,0.887,2.235,2.08c0.044,1.202,0.06,2.419,0.06,3.648c0,2.447-0.07,4.952-0.136,7.374
					c-0.066,2.354-0.134,4.789-0.134,7.1C112.283,137.932,111.316,138.899,110.124,138.899z"/>
			</g>
			<g>
				<path style="fill:#525D7D;" d="M110.86,139.687c-1.018,0-1.924-0.724-2.12-1.761c-0.219-1.171,0.552-2.3,1.725-2.52
					c2.38-0.447,6.82-4.308,6.82-10.098c0-2.44-0.668-4.698-5.513-4.698c-0.299,0-0.593,0.011-0.881,0.03
					c-1.212,0.08-2.215-0.829-2.291-2.018c-0.076-1.189,0.828-2.215,2.019-2.291c0.375-0.024,0.762-0.038,1.154-0.038
					c8.553,0,9.831,5.649,9.831,9.016c0,7.984-6.114,13.549-10.343,14.343C111.127,139.676,110.992,139.687,110.86,139.687z"/>
			</g>
			<g>
				<path style="fill:#525D7D;" d="M132.888,136.765c-7.703,0-8.774-10.174-9.289-15.064c-0.081-0.776-0.166-1.579-0.236-1.875
					c-0.277-1.161,0.44-2.325,1.6-2.6c1.172-0.28,2.325,0.443,2.6,1.6c0.136,0.569,0.218,1.347,0.33,2.425
					c0.382,3.634,1.178,11.197,4.994,11.197c0.097-0.006,0.545-0.447,0.545-2.858c0-3.272-0.893-4.904-1.837-6.632
					c-0.641-1.172-1.304-2.384-1.593-3.969c-0.214-1.174,0.565-2.298,1.737-2.511c1.178-0.214,2.297,0.567,2.51,1.737
					c0.163,0.9,0.592,1.681,1.133,2.671c1.054,1.929,2.367,4.328,2.367,8.704C137.752,135.52,135.106,136.765,132.888,136.765z"/>
			</g>
			<g>
				<path style="fill:#525D7D;" d="M148.682,131.044c-7.685,0-9.991-13.207-9.991-14.633c0-4.502,2.425-5.94,4.194-6.989
					c0.356-0.211,0.721-0.426,1.077-0.679c0.969-0.692,2.317-0.468,3.011,0.503c0.693,0.97,0.468,2.318-0.503,3.011
					c-0.457,0.327-0.925,0.607-1.383,0.878c-1.511,0.897-2.078,1.233-2.078,3.275c0.031,1.712,2.457,10.315,5.673,10.315
					c1.364,0,2.72-0.27,3.821-0.759c1.094-0.486,2.366,0.008,2.851,1.096c0.483,1.089-0.007,2.366-1.096,2.851
					C152.592,130.654,150.665,131.044,148.682,131.044z"/>
			</g>
			<g>
				<path style="fill:#525D7D;" d="M163.673,123.587c-0.831,0-1.622-0.481-1.978-1.289c-0.943-2.142-2.092-4.162-3.309-6.302
					c-1.645-2.893-3.345-5.884-4.495-9.203c-0.389-1.126,0.208-2.356,1.335-2.747c1.126-0.384,2.357,0.207,2.747,1.335
					c1.018,2.941,2.547,5.631,4.166,8.479c1.217,2.139,2.477,4.352,3.508,6.697c0.481,1.092-0.015,2.366-1.106,2.846
					C164.259,123.528,163.962,123.587,163.673,123.587z"/>
			</g>
			<g>
				<path style="fill:#525D7D;" d="M149.84,109.298c-0.673,0-1.337-0.313-1.758-0.904c-0.693-0.97-0.468-2.318,0.502-3.012
					c1.587-1.133,3.254-2.023,4.866-2.883c1.555-0.829,3.025-1.612,4.38-2.579c0.967-0.692,2.317-0.47,3.011,0.503
					c0.693,0.97,0.468,2.318-0.503,3.011c-1.583,1.132-3.247,2.019-4.856,2.876c-1.558,0.831-3.031,1.616-4.387,2.586
					C150.713,109.167,150.274,109.298,149.84,109.298z"/>
			</g>
			<g>
				<path style="fill:#525D7D;" d="M80.004,145.812c-5.61,0-16.071-4.428-23.507-8.801c-1.028-0.604-1.37-1.928-0.766-2.956
					c0.606-1.026,1.928-1.369,2.956-0.766c7.821,4.601,17.185,8.205,21.316,8.205c0.358,0,0.718-0.022,1.077-0.044
					c0.446-0.027,0.891-0.052,1.334-0.052c1.192,0,2.159,0.967,2.159,2.159s-0.967,2.159-2.159,2.159
					c-0.359,0-0.718,0.022-1.077,0.044C80.892,145.786,80.447,145.812,80.004,145.812z"/>
			</g>
			<g>
				<path style="fill:#525D7D;" d="M109.238,150.12c-3.601,0-7.326,0-11.048-0.413c-1.185-0.132-2.038-1.2-1.907-2.385
					c0.134-1.185,1.203-2.033,2.385-1.907c3.483,0.388,7.086,0.388,10.57,0.388c1.192,0,2.159,0.967,2.159,2.159
					C111.397,149.153,110.43,150.12,109.238,150.12z"/>
			</g>
			<g>
				<path style="fill:#525D7D;" d="M134.46,149.319c-1.146,0-2.1-0.901-2.155-2.056c-0.058-1.192,0.863-2.203,2.054-2.259
					c5.559-0.264,10.376-2.823,15.477-5.531c2.002-1.063,4.072-2.162,6.168-3.094c1.092-0.486,2.366,0.008,2.851,1.096
					c0.483,1.089-0.007,2.366-1.096,2.851c-1.959,0.87-3.871,1.886-5.897,2.962c-5.296,2.811-10.773,5.719-17.298,6.029
					C134.528,149.318,134.493,149.319,134.46,149.319z"/>
			</g>
		</g>
	</g>
</g>
<g id="Layer_1">
</g>
</svg>
