<?xml version="1.0" encoding="iso-8859-1"?>
<!-- Generator: Adobe Illustrator 21.0.2, SVG Export Plug-In . SVG Version: 6.00 Build 0)  -->
<svg version="1.1" xmlns="http://www.w3.org/2000/svg" xmlns:xlink="http://www.w3.org/1999/xlink" x="0px" y="0px"
	 viewBox="0 0 219.881 199.027" style="enable-background:new 0 0 219.881 199.027;" xml:space="preserve">
<g id="_x31_3">
	<g>
		<path style="fill:#E0DFE6;" d="M71.912,81.636c-0.245-0.611-1.214-0.584-1.215,0.164c-0.005,3.383-0.04,6.777-0.107,10.171
			c-0.109-0.216-0.202-0.439-0.319-0.652c-0.585-1.071-2.3-0.831-2.6,0.34c-2.382,9.3-2.8,18.671-7.137,27.467
			c-2.049,4.155-4.64,7.924-7.691,11.405c-2.696,3.077-6.343,5.216-5.827,9.711c0.172,1.5,0.919,2.769,2.442,3.216
			c-0.152,1.318,0.9,3.062,2.083,3.612c10.149,4.721,23.225-11.726,26.431-20.113C83.312,112.991,77.193,94.776,71.912,81.636z"/>
		<path style="fill:#E0DFE6;" d="M56.021,150.606c-1.032-1.117-3.187-0.899-3.885,0.501c-2.119,4.246-2.155,11.289-0.232,15.541
			c1.586,3.506,8.043,2.806,8.602-1.124C61.165,160.887,59.275,154.126,56.021,150.606z"/>
		<path style="fill:#E0DFE6;" d="M22.261,176.701c-1.731-1.654-4.447-0.858-5.169,1.365c-1.489,4.585-2.606,9.899-2.99,14.716
			c-0.589,7.394,10.734,8.547,12.669,1.715C28.474,188.486,26.786,181.025,22.261,176.701z"/>
		<path style="fill:#E0DFE6;" d="M81.623,170.259c-1.689-7.047-4.79-15.097-10.477-19.841c-1.743-1.454-4.822-0.621-4.751,1.968
			c0.077,2.818,0.517,5.62,1.058,8.419c-0.945-0.435-2.293,0.072-2.208,1.316c0.348,5.074,0.995,10.127,1.21,15.211
			c0.201,4.738-1.029,10,0.645,14.476c0.986,2.636,5.189,3.961,6.659,0.87c0.166-0.35,0.294-0.723,0.432-1.09
			c1.868,1.195,4.231,0.883,5.955-0.616C85.8,186.06,83.161,176.678,81.623,170.259z"/>
		<path style="fill:#E0DFE6;" d="M115.238,158.107c-0.471-10.191,0.198-23.284-4.416-32.588c-0.691-1.393-2.928-1.349-3.632,0
			c-4.594,8.809-4.234,21.44-4.931,31.155c-0.41,5.716-0.63,11.47-0.859,17.196c-0.226,5.665-1.082,12.073,1.081,17.391
			c1.698,4.174,8.858,6.896,11.191,1.463C118.01,182.624,115.738,168.933,115.238,158.107z"/>
		<path style="fill:#E0DFE6;" d="M143.876,20.997c-2.97-3.211-8.289-4.052-11.115-0.165c-1.444,1.987-1.283,4.222-1.51,6.523
			c-0.352,3.578-1.516,5.503-4.302,7.959c-5.018,4.423-11.216,4.271-16.513,7.569c-1.881,1.171-3.819,3.387-4.42,5.544
			c-0.836,2.999,0.791,5.603-0.658,8.55c-2.384,4.85-10.285,9.834-14.742,12.903c-1.361,0.937-0.575,3.407,1.191,2.826
			c7.225-2.375,14.194-0.509,20.81-5.366c4.653-3.415,6.716-7.544,7.239-12.569c1.637-0.346,3.808-0.732,4.613-1.035
			c2.736-1.03,5.443-2.295,7.908-3.87c5.082-3.248,9.884-7.626,12.488-13.139C147.201,31.784,147.857,25.302,143.876,20.997z"/>
		<path style="fill:#E0DFE6;" d="M213.496,162.624c-3.217-5.43-10.318-11.68-17.837-14.856c1.835,0.032,3.671,0.082,5.503-0.005
			c4.615-0.219,10.192-0.438,13.595-4.082c7.699-8.243-0.501-19.894-2.078-28.624c-1.079-5.972,0.605-12.323,0.986-18.317
			c0.381-6.005,0.244-12.005-0.74-17.949c-1.607-9.718-6.501-17.964-14.598-23.561c-1.443-0.997-3.257,0.949-2.369,2.369
			c6.171,9.877,7.159,22.024,5.479,33.343c-1.533,10.328-5.285,20.117-3.157,30.642c0.444,2.193,1.13,4.311,1.783,6.447
			c0.351,1.029,0.666,2.069,0.949,3.118c-3.593-0.016-9.721-0.027-11.956,0.014c2.599-6.691,0.511-15.245-0.043-22.208
			c-0.604-7.595-0.426-16.035-3.709-23.033c-1.07-2.281-4.132-1.281-4.861,0.635c-2.776,7.293-1.788,16.071-1.824,23.753
			c-0.033,6.948-1.549,15.991,2.137,22.154c-6.136,1.751-11.429,5.491-9.524,13.044c1.123,4.453,6.639,7.177,10.852,5.669
			c4.16,5.286,11.867,8.282,16.138,13.593c0.762,0.947,1.483,2.099,2.159,3.368c-2.797-3.895-6.17-7.285-10.66-9.319
			c-1.471-0.667-3.426,0.782-2.4,2.4c4.115,6.493,7.236,12.947,9.794,20.213c2.137,6.068,3.403,13.5,9.211,17.017
			c1.496,0.906,3.023,0.62,4.121-0.291c0.872,0.108,1.804,0.002,2.767-0.382C225.151,193.016,218.379,170.867,213.496,162.624z"/>
		<path style="fill:#E0DFE6;" d="M188.86,178.726c-0.453-2.745-4.591-2.434-5.248,0c-0.717,2.656-1.58,5.273-2.28,7.932
			c-0.9,3.419-1.206,5.994,1.073,8.901c1.492,1.903,4.845,1.588,6.385,0C192.838,191.385,189.7,183.813,188.86,178.726z"/>
		<path style="fill:#E0DFE6;" d="M152.958,128.333c-1.019-1.741-3.272-3.323-5.392-3.093c-1.371,0.149-2.341,0.391-3.566,0.906
			c0.111-0.048,0.213-0.092,0.369-0.159c-0.52,0.22-1.041,0.439-1.561,0.659c-0.38,0.197-0.561,0.281-0.576,0.297
			c-0.061,0.006-0.124,0.014-0.186,0.022c-0.031-0.015-0.153-0.045-0.382-0.095c0.051,0.026,0.08,0.04,0.12,0.061
			c-0.551-0.217-1.109-0.528-1.647-0.772c-0.152-0.069-0.228-0.1-0.277-0.119c-0.031-0.022-0.078-0.054-0.155-0.102
			c-1.259-0.796-3.408-0.36-4.062,1.065c-1.835,4,0.3,7.684,3.778,9.935c4.053,2.623,11.255,2.87,13.538-2.301
			C153.889,132.529,154.184,130.427,152.958,128.333z"/>
		<path style="fill:#E0DFE6;" d="M177.226,72.373c-5.757-1.68-10.434-5.2-15.125-8.778c-1.589-1.212-3.423,0.781-3.089,2.375
			c1.151,5.492,4.722,10.162,9.131,13.58c4.132,3.203,12.484,8.113,16.888,2.744C189.498,76.846,181.077,73.497,177.226,72.373z"/>
		<path style="fill:#E0DFE6;" d="M63.8,69.635c-5.389-2.793-11.469-0.837-17.32-0.127c-6.137,0.745-12.489,1.091-18.528,2.421
			c-2.274,0.501-2.081,3.807,0,4.413c6.272,1.828,13.308,2.246,19.807,2.452c6.091,0.193,11.934,0.955,16.842-2.943
			C66.564,74.292,65.883,70.714,63.8,69.635z"/>
		<path style="fill:#E0DFE6;" d="M183.891,159.36c-0.448-1.996-2.995-2.949-4.691-1.909c-4.39,2.692-5.525,9.174-10.777,10.717
			c-5.318,1.562-11.37-0.187-16.249,2.947c-0.834,0.536-0.786,1.63,0,2.175c4.844,3.358,15.986,4.62,21.503,1.851
			C179.035,172.452,185.306,165.669,183.891,159.36z"/>
		<g>
			<g>
				<path style="fill:#525D7D;" d="M38.51,146.627c-1.087,0-2.022-0.819-2.144-1.924c-0.401-3.663-1.94-4.144-6.334-4.996
					c-6.623-1.285-15.587-3.024-19.122-22.804c-1.427,0.529-2.771,0.789-4.061,0.789c-5.389,0-6.519-4.457-6.519-8.196
					c0-8.99,3.173-14.358,8.486-14.358c4.109,0,5.38,1.33,6.329,2.693c0.083,0.118,0.195,0.28,0.24,0.321
					c1.066,0.535,1.485,1.823,0.951,2.889c-0.533,1.065-1.838,1.491-2.908,0.956c-0.988-0.494-1.493-1.219-1.827-1.697
					c-0.328-0.472-0.588-0.844-2.787-0.844c-3.29,0-4.168,6.311-4.168,10.04c0,3.878,1.069,3.878,2.201,3.878
					c1.325,0,2.858-0.498,4.688-1.524c0.623-0.349,1.376-0.368,2.015-0.051c0.639,0.316,1.08,0.928,1.179,1.634
					c2.726,19.436,9.844,20.817,16.123,22.035c4.235,0.822,9.036,1.752,9.804,8.764c0.13,1.186-0.726,2.252-1.911,2.382
					C38.668,146.623,38.588,146.627,38.51,146.627z"/>
			</g>
			<g>
				<path style="fill:#525D7D;" d="M50.05,147.009c-0.249,0-0.501-0.044-0.748-0.134c-1.119-0.413-1.691-1.655-1.278-2.773
					c2.512-6.802,6.667-9.074,10.334-11.079c5.594-3.06,10.879-5.95,10.879-27.337c0-10.413-1.598-27.881-12.3-27.881
					c-1.193,0-2.159-0.966-2.159-2.159c0-1.193,0.966-2.159,2.159-2.159c10.717,0,16.618,11.436,16.618,32.2
					c0,23.948-6.672,27.597-13.125,31.126c-3.436,1.879-6.403,3.502-8.354,8.787C51.754,146.469,50.928,147.009,50.05,147.009z"/>
			</g>
			<g>
				<path style="fill:#525D7D;" d="M18.336,104.59c-0.159,0-0.32-0.018-0.481-0.054c-1.162-0.264-1.891-1.421-1.627-2.584
					c0.623-2.743,1.443-5.461,2.236-8.089c1.673-5.548,3.253-10.789,3.253-16.496c0-0.235-0.009-0.424-0.017-0.574
					c-0.025-0.54-0.069-1.445,0.665-2.207c0.742-0.769,1.663-0.755,2.318-0.752l0.341,0.002c2.618,0,5.053,0.552,7.408,1.087
					c2.103,0.477,4.09,0.928,5.992,0.928c1.084,0,2.17,0.051,3.255,0.102c1.017,0.049,2.034,0.098,3.05,0.098
					c3.275,0,6.914-0.762,9.273-1.942c1.066-0.531,2.364-0.101,2.897,0.966c0.533,1.067,0.101,2.364-0.966,2.897
					c-3.535,1.768-8.106,2.397-11.204,2.397c-1.084,0-2.17-0.051-3.255-0.102c-1.017-0.049-2.034-0.098-3.05-0.098
					c-2.386,0-4.705-0.526-6.947-1.034c-1.873-0.425-3.657-0.83-5.451-0.947c-0.141,6.025-1.81,11.561-3.427,16.922
					c-0.806,2.676-1.569,5.203-2.158,7.801C20.212,103.91,19.322,104.59,18.336,104.59z"/>
			</g>
			<g>
				<path style="fill:#525D7D;" d="M4.544,98.286c-1.091,0-2.028-0.824-2.144-1.933c-0.206-1.957-0.64-3.915-1.1-5.987
					C0.661,87.485,0,84.505,0,81.497c0-6.662,4.728-15.891,13.607-15.891c1.229,0,1.973-0.885,3.636-3.227
					c2.721-3.832,6.833-9.623,18.784-9.623c7.105,0,9.608,2.018,12.029,3.969c0.078,0.063,0.156,0.126,0.233,0.188
					c2.262-2.38,5.313-3.838,8.233-3.838c6.512,0,14.15,17.291,14.15,26.16c0,1.708-0.089,3.341-0.157,4.421
					c-0.074,1.19-1.092,2.091-2.289,2.021c-1.19-0.074-2.095-1.099-2.021-2.289c0.064-1.023,0.148-2.565,0.148-4.153
					c0-8.648-7.285-21.496-9.853-21.843c-2.097,0.001-4.589,1.52-6.039,3.693c-0.662,0.991-2.002,1.259-2.994,0.599
					c-0.809-0.539-1.476-1.077-2.122-1.597c-2.088-1.683-3.738-3.013-9.319-3.013c-9.721,0-12.665,4.147-15.263,7.805
					c-1.761,2.481-3.582,5.045-7.157,5.045c-5.981,0-9.289,6.843-9.289,11.573c0,2.535,0.582,5.157,1.198,7.934
					c0.466,2.099,0.947,4.269,1.179,6.469c0.125,1.186-0.735,2.249-1.921,2.373C4.696,98.283,4.62,98.286,4.544,98.286z"/>
			</g>
			<g>
				<path style="fill:#525D7D;" d="M48.273,122.33c-1.874,0-4.261-0.117-6.089-1.031c-1.066-0.533-1.498-1.83-0.966-2.897
					c0.535-1.066,1.831-1.495,2.897-0.966c1.15,0.576,3.414,0.576,4.157,0.576c1.732,0,3.252-1.491,3.252-3.191
					c0-1.66-0.736-2.184-2.864-3.455c-3.268-1.951-7.744-4.624-7.744-14.498c0-5.783,4.563-9.806,12.207-10.762
					c1.181-0.146,2.262,0.691,2.41,1.874c0.148,1.183-0.691,2.262-1.874,2.41c-3.146,0.394-8.425,1.758-8.425,6.477
					c0,7.422,2.74,9.059,5.639,10.79c2.214,1.322,4.968,2.967,4.968,7.162C55.843,118.891,52.376,122.33,48.273,122.33z"/>
			</g>
			<g>
				<path style="fill:#525D7D;" d="M31.555,101.446c-0.685,0-1.323-0.259-1.795-0.729c-0.483-0.481-0.749-1.143-0.749-1.865
					c0-1.378,0.911-2.396,1.19-2.675c0.405-0.405,0.954-0.632,1.526-0.632c0.574,0,1.123,0.228,1.528,0.634
					c0.772,0.773,1.18,1.643,1.18,2.516C34.435,100.34,32.946,101.446,31.555,101.446z M31.555,97.128
					c-0.934,0-1.438,0.807-1.438,1.566c0,0.328,0.105,0.548,0.145,0.605l1.465-1.595l1.527,1.526
					c0.027-0.037,0.075-0.172,0.075-0.378c0-0.422-0.195-0.869-0.521-1.194C32.469,97.321,32.013,97.128,31.555,97.128z"/>
			</g>
			<g>
				<path style="fill:#525D7D;" d="M53.252,101.071c-1.801,0-2.744-1.282-2.744-2.548c0-0.857,0.398-1.569,0.748-2.198
					c0.072-0.129,0.144-0.255,0.204-0.376c0.366-0.732,1.114-1.193,1.931-1.193c0.82,0.001,1.567,0.464,1.933,1.196
					c0.289,0.582,0.635,1.462,0.635,2.35C55.96,99.907,54.822,101.071,53.252,101.071z M53.252,96.753
					c-0.662,0-1.215,0.443-1.466,0.962l1.606-0.8l1.067,0.533C54.126,97.01,53.631,96.753,53.252,96.753z"/>
			</g>
			<g>
				<path style="fill:#525D7D;" d="M41.366,133.215c-3.312,0-6.709-2.318-8.078-5.512c-0.469-1.096,0.038-2.365,1.134-2.835
					c1.094-0.467,2.365,0.039,2.835,1.134c0.834,1.947,3.36,3.367,5.107,2.716c1.115-0.42,2.361,0.145,2.781,1.26
					c0.42,1.116-0.144,2.361-1.26,2.781C43.082,133.062,42.234,133.215,41.366,133.215z"/>
			</g>
			<g>
				<path style="fill:#525D7D;" d="M4.544,194.795c-1.097,0-2.037-0.833-2.146-1.948c-0.176-1.79-0.265-3.632-0.265-5.475
					c0-27.495,16.026-45.261,40.827-45.261c31.264,0,32.082,27.799,32.679,48.098c0.035,1.192-0.903,2.186-2.095,2.222
					c-1.16,0.049-2.187-0.903-2.222-2.095c-0.706-24.022-3.329-43.906-28.362-43.906c-17.65,0-36.509,10.756-36.509,40.943
					c0,1.702,0.082,3.402,0.244,5.053c0.117,1.187-0.751,2.243-1.938,2.359C4.686,194.791,4.615,194.795,4.544,194.795z"/>
			</g>
			<g>
				<path style="fill:#525D7D;" d="M46.574,188.785c-3.177,0-5.61-3.068-9.844-8.405c-1.761-2.22-3.756-4.735-6.24-7.601
					c-2.458-2.835-4.425-5.927-6.327-8.918c-2.092-3.288-4.067-6.394-6.623-9.147c-0.812-0.874-0.761-2.24,0.113-3.051
					c0.873-0.812,2.241-0.76,3.051,0.113c2.824,3.041,4.999,6.46,7.103,9.767c1.902,2.99,3.698,5.814,5.946,8.408
					c2.546,2.937,4.661,5.604,6.36,7.746c2.685,3.385,5.495,6.892,6.548,6.765c1.976-0.21,6.22-8.803,12.095-20.697
					c1.463-2.961,3.091-6.257,4.917-9.91c0.535-1.067,1.833-1.496,2.897-0.966c1.066,0.533,1.498,1.83,0.966,2.897
					c-1.823,3.645-3.448,6.935-4.908,9.891c-8.356,16.918-11.172,22.617-15.51,23.078C46.933,188.775,46.752,188.785,46.574,188.785
					z"/>
			</g>
			<g>
				<path style="fill:#525D7D;" d="M45.764,160.086c-8.991,0-9.197-5.53-9.333-9.191c-0.05-1.341-0.097-2.608-0.449-3.665
					c-0.377-1.131,0.234-2.354,1.366-2.73c1.133-0.377,2.354,0.235,2.73,1.366c0.548,1.643,0.612,3.357,0.668,4.87
					c0.136,3.662,0.188,5.033,5.018,5.033c3.064,0,3.064-1.499,3.064-2.395c0-1.059-0.281-2.384-0.553-3.664
					c-0.196-0.924-0.399-1.88-0.515-2.806c-0.148-1.184,0.691-2.262,1.874-2.411c1.195-0.139,2.263,0.691,2.411,1.874
					c0.093,0.744,0.268,1.571,0.455,2.446c0.318,1.498,0.647,3.049,0.647,4.561C53.146,157.514,50.318,160.086,45.764,160.086z"/>
			</g>
			<g>
				<path style="fill:#525D7D;" d="M33.697,174.312c-0.226,0-0.456-0.036-0.682-0.112c-1.131-0.377-1.743-1.6-1.366-2.73
					c0.545-1.636,1.18-3.224,1.794-4.76c1.213-3.033,2.359-5.897,2.847-9.067c0.181-1.179,1.291-1.997,2.462-1.806
					c1.179,0.181,1.987,1.283,1.806,2.462c-0.562,3.658-1.855,6.89-3.105,10.014c-0.618,1.545-1.203,3.005-1.708,4.52
					C35.443,173.74,34.601,174.312,33.697,174.312z"/>
			</g>
			<g>
				<path style="fill:#525D7D;" d="M57.296,173.727c-0.637,0-1.269-0.281-1.695-0.82c-3.027-3.83-4.842-8.572-6.598-13.159
					l-0.384-1.002c-0.428-1.112,0.127-2.362,1.24-2.79c1.118-0.432,2.362,0.127,2.79,1.24l0.386,1.008
					c1.64,4.283,3.335,8.712,5.953,12.025c0.739,0.935,0.58,2.293-0.355,3.033C58.238,173.576,57.765,173.727,57.296,173.727z"/>
			</g>
			<g>
				<path style="fill:#525D7D;" d="M24.637,195.584c-0.905,0-1.747-0.572-2.048-1.477c-1.509-4.526-2.418-9.321-2.862-15.092
					c-0.091-1.188,0.798-2.227,1.988-2.318c1.178-0.089,2.226,0.798,2.318,1.988c0.415,5.408,1.259,9.875,2.652,14.058
					c0.377,1.131-0.234,2.354-1.366,2.73C25.093,195.548,24.863,195.584,24.637,195.584z"/>
			</g>
			<g>
				<path style="fill:#525D7D;" d="M86.089,194.795c-0.06,0-0.12-0.002-0.181-0.008c-1.188-0.099-2.071-1.143-1.972-2.331
					c0.323-3.872,0.653-8.44,0.653-12.956c0-14.482-3.039-19.948-5.481-24.341c-1.632-2.936-3.174-5.71-3.174-10.12
					c0-3.979,1.81-5.997,5.379-5.997c3.333,0,5.736,1.924,7.469,4.472c-0.017-2.088-0.027-4.48-0.027-7.208
					c0-6.099-0.087-11.049-0.271-15.577c-0.029-0.692,0.276-1.354,0.819-1.783c0.541-0.429,1.255-0.573,1.923-0.384
					c6.603,1.859,11.866,4.194,16.091,7.141c0.529,0.369,0.865,0.955,0.916,1.598c0.333,4.143,0.73,11.023,0.73,20.27
					c0,7.352-0.365,16.94-1.087,28.497c-0.03,0.478-0.049,0.777-0.053,0.864c0.001,4.514,0.706,9.451,1.273,13.417
					c0.169,1.18-0.651,2.274-1.832,2.442c-1.178,0.162-2.274-0.651-2.442-1.832c-0.586-4.102-1.315-9.207-1.315-14.096
					c0-0.046,0.02-0.419,0.06-1.065c0.716-11.468,1.079-20.965,1.079-28.228c0-8.372-0.33-14.758-0.637-18.891
					c-3.048-1.99-6.708-3.672-11.103-5.1c0.114,3.768,0.168,7.892,0.168,12.725c0,8.925,0.115,14.231,0.178,17.083
					c0.072,3.322,0.102,4.697-1.909,4.932c-2.005,0.228-2.401-1.668-2.62-2.688c-2.18-10.144-5.232-12.273-7.408-12.273
					c-0.57,0-0.825,0.104-0.87,0.14c-0.042,0.051-0.19,0.323-0.19,1.539c0,3.291,1.103,5.275,2.63,8.022
					c2.543,4.573,6.025,10.837,6.025,26.439c0,4.675-0.338,9.354-0.668,13.315C88.144,193.942,87.2,194.795,86.089,194.795z"/>
			</g>
			<g>
				<path style="fill:#525D7D;" d="M102.419,179.18c-2.724,0-5.269-0.556-7.73-1.094c-2.395-0.523-4.656-1.018-7.027-1.018
					c-1.193,0-2.159-0.966-2.159-2.159c0-1.193,0.966-2.159,2.159-2.159c2.837,0,5.436,0.568,7.949,1.117
					c2.34,0.512,4.549,0.994,6.808,0.994c0.659,0,1.279-0.04,1.896-0.122c1.191-0.151,2.267,0.673,2.425,1.855
					c0.157,1.182-0.673,2.268-1.855,2.425C104.089,179.126,103.259,179.18,102.419,179.18z"/>
			</g>
			<g>
				<path style="fill:#525D7D;" d="M97.51,146.343c-1.193,0-2.159-0.966-2.159-2.159c0-7.639,0.526-14.333,1.609-20.465
					c0.207-1.174,1.331-1.956,2.501-1.751c1.174,0.207,1.958,1.327,1.751,2.501c-1.038,5.881-1.543,12.33-1.543,19.714
					C99.669,145.377,98.703,146.343,97.51,146.343z"/>
			</g>
			<g>
				<path style="fill:#525D7D;" d="M85.626,72.205c-0.956,0-1.799-0.629-2.07-1.547c-0.273-0.921,0.096-1.911,0.905-2.43
					c2.706-1.735,5.933-4.57,5.933-8.22c0-1.691-0.828-2.185-3.388-3.272c-2.68-1.138-6.729-2.858-6.729-8.609
					c0-2.665,1.252-5.256,3.814-7.869c-5.154-4.202-7.798-9.294-7.868-15.166c-0.07-5.828,2.365-11.236,7.039-15.64
					c7.29-6.867,18.59-9.924,25.982-9.393c12.368,0.886,26.629,10.345,27.2,21.679c0.321,6.366-2.044,12.602-6.659,17.558
					c-5.495,5.902-13.431,9.255-22.345,9.44c-0.125,0.003-0.25,0.005-0.375,0.006c-1.857,2.23-2.025,2.973-2.025,3.491
					c0,0.511,0.495,0.924,1.68,1.716c1.16,0.775,2.749,1.836,2.749,3.794C109.467,63.145,98.329,72.139,85.626,72.205z
					 M107.459,4.315c-6.411,0-15.321,2.708-21.236,8.28c-3.825,3.605-5.737,7.791-5.682,12.446c0.062,5.226,2.728,9.565,8.15,13.264
					c0.561,0.382,0.909,1.006,0.94,1.684c0.031,0.678-0.258,1.33-0.78,1.763c-2.864,2.37-4.256,4.455-4.256,6.375
					c0,2.771,1.331,3.459,4.099,4.635c2.54,1.079,6.018,2.555,6.018,7.247c0,2.432-0.824,4.762-2.423,6.92
					c7.304-2.083,12.163-6.987,12.791-8.858c-0.215-0.167-0.529-0.376-0.76-0.531c-1.347-0.9-3.599-2.404-3.599-5.306
					c0-2.093,0.94-3.878,3.726-7.075c0.422-0.485,1.045-0.763,1.68-0.74c0.406,0.01,0.815,0.01,1.223,0.002
					c7.736-0.162,14.581-3.026,19.275-8.066c3.813-4.095,5.768-9.208,5.507-14.398c-0.453-9.003-12.842-16.848-23.196-17.59
					C108.46,4.332,107.967,4.315,107.459,4.315z"/>
			</g>
			<g>
				<path style="fill:#525D7D;" d="M94.753,30.139c-4.077,0-4.686-2.222-4.686-3.547c0-1.312,0.803-2.115,1.189-2.501
					c0.34-0.34,0.781-0.555,1.254-0.615c0.411-0.23,0.997-0.559,1.799-0.559c1.335,0,3.899,1.495,3.899,3.539
					C98.208,27.922,96.83,30.139,94.753,30.139z M93.914,26.748l0.361,0.361c0.058-0.129,0.11-0.308,0.11-0.517
					c0-0.213-0.117-0.449-0.265-0.62c-0.102,0.054-0.169,0.11-0.2,0.143c0.004,0.012-0.03,0.141-0.03,0.341
					C93.89,26.561,93.899,26.658,93.914,26.748z"/>
			</g>
			<g>
				<path style="fill:#525D7D;" d="M106.657,28.985c-1.991,0-3.033-1.297-3.033-2.579c0-0.094-0.014-0.2-0.025-0.311
					c-0.026-0.272-0.05-0.558-0.05-0.835c0-2.075,1.342-3.083,2.599-3.334c0.24-0.049,0.469-0.069,0.682-0.069
					c1.699,0,3.082,1.334,3.082,2.974c0.005-0.051,0.023,0.018,0.038,0.075c0.07,0.272,0.166,0.644,0.166,1.091
					C110.115,27.7,108.628,28.985,106.657,28.985z M105.839,25.638c0.275,0.391,0.68,0.618,1.154,0.521
					c0.305-0.06,0.596-0.322,0.753-0.592c-0.297-0.593-0.854-0.9-1.09-0.9C106.445,24.694,105.982,25.055,105.839,25.638z
					 M105.593,24.83c0,0.001,0,0.001,0,0.003C105.593,24.831,105.593,24.83,105.593,24.83z"/>
			</g>
			<g>
				<path style="fill:#525D7D;" d="M119.238,28.056c-1.787,0-3.084-1.423-3.084-3.383c0-0.992,0.37-1.731,0.696-2.384
					c0.447-0.896,1.449-1.366,2.427-1.136c0.323,0.077,0.614,0.223,0.859,0.42c1.555,0.344,1.986,1.651,1.986,2.469
					c0,0.152,0.007,0.299,0.013,0.437c0.031,0.733,0.077,1.841-0.774,2.729C120.99,27.595,120.321,28.056,119.238,28.056z"/>
			</g>
			<g>
				<path style="fill:#525D7D;" d="M144.869,140.568c-6.358,0-12.627-1.597-18.632-4.747c-0.517-0.271-0.901-0.739-1.067-1.298
					c-0.166-0.559-0.098-1.161,0.187-1.67c3.947-7.038,6.034-14.863,6.034-22.629c0-4.048-0.667-8.418-1.374-13.045
					c-0.739-4.847-1.505-9.858-1.505-14.74c0-21.59,15.522-33.531,26.25-33.531c3.27,0,6.295,1.377,8.872,2.758
					c4.435-4.473,10.923-7.293,17-7.293c15.421,0,26.167,20.733,26.167,39.34c0,6.789-1.16,13.242-3.645,20.245
					c0.691,1.926,1.414,3.849,2.136,5.771c2.874,7.648,5.845,15.557,6.81,23.764c0.13,1.109-0.607,2.134-1.7,2.364
					c-6.835,1.437-14.958,2.922-23.39,3.03c-0.601,0.02-1.164-0.229-1.578-0.656c-0.413-0.426-0.633-1.004-0.607-1.597
					c0.198-4.53,0.294-9.35,0.294-14.733c0-5.831-0.109-11.613-0.273-18.501c-0.016-0.662,0.273-1.295,0.784-1.716
					c0.511-0.422,1.188-0.584,1.834-0.445c0.754,0.165,1.375,0.273,1.956,0.273c2.085,0,4.209-2.108,4.209-4.178
					c0-2.549-2.573-4.011-7.06-4.011c-0.394,0-0.791,0.008-1.19,0.02c-1.133,0.086-2.113-0.822-2.218-1.96
					c-0.115-1.245-0.236-2.496-0.357-3.748c-0.086-0.885-0.172-1.77-0.255-2.652c-10.84-0.058-21.035-5.835-25.989-14.423
					c-4.887,5.159-11.391,9.132-18.28,11.1c-1.146,0.323-2.341-0.337-2.669-1.483c-0.328-1.146,0.337-2.342,1.483-2.669
					c7.13-2.037,13.791-6.471,18.276-12.165c0.477-0.605,1.236-0.912,2.004-0.801c0.763,0.11,1.409,0.618,1.696,1.334
					c3.49,8.708,13.214,14.789,23.647,14.789c0.553,0,1.106-0.018,1.658-0.053c1.147-0.083,2.186,0.795,2.29,1.963
					c0.137,1.539,0.287,3.092,0.438,4.644c0.058,0.6,0.116,1.198,0.174,1.797c7.852,0.235,10.672,4.407,10.672,8.319
					c0,4.513-4.222,8.607-8.725,8.494c0.131,5.833,0.215,10.929,0.215,16.073c0,4.542-0.068,8.689-0.207,12.604
					c6.476-0.278,12.763-1.342,18.308-2.466c-1.12-7.027-3.745-14.014-6.292-20.791c-0.822-2.189-1.645-4.379-2.423-6.574
					c-0.167-0.474-0.165-0.991,0.008-1.463c2.489-6.798,3.648-12.994,3.648-19.498c0-16.532-9.344-35.022-21.848-35.022
					c-5.433,0-11.283,2.777-14.901,7.074c-0.667,0.789-1.799,0.997-2.7,0.496c-3.095-1.719-5.67-3.035-8.271-3.035
					c-7.408,0-21.932,8.821-21.932,29.213c0,4.555,0.74,9.402,1.455,14.088c0.7,4.583,1.423,9.322,1.423,13.697
					c0,7.77-1.9,15.581-5.515,22.732c5.695,2.609,11.652,3.68,17.551,3.17c1.186-0.098,2.234,0.776,2.338,1.964
					c0.103,1.188-0.776,2.234-1.964,2.338C147.043,140.521,145.95,140.568,144.869,140.568z"/>
			</g>
			<g>
				<path style="fill:#525D7D;" d="M153.66,153.253c-0.109,0-0.218-0.008-0.33-0.025c-1.179-0.181-1.987-1.283-1.808-2.461
					c0.436-2.848,0.84-5.897,0.84-8.904c0-9.617-3.636-12.506-7.153-15.301c-2.246-1.784-4.568-3.63-5.636-6.922
					c-1.832-5.646-2.152-11.266-2.462-16.702c-0.256-4.49-0.498-8.732-1.523-13.004c-0.278-1.16,0.436-2.325,1.595-2.603
					c1.159-0.276,2.325,0.436,2.603,1.595c1.116,4.648,1.38,9.284,1.636,13.766c0.308,5.4,0.599,10.499,2.258,15.615
					c0.666,2.054,2.232,3.298,4.215,4.874c3.914,3.111,8.785,6.981,8.785,18.682c0,3.296-0.427,6.541-0.889,9.558
					C155.628,152.489,154.708,153.253,153.66,153.253z"/>
			</g>
			<g>
				<path style="fill:#525D7D;" d="M176.688,152.646c-0.714,0-1.412-0.354-1.824-1c-1.158-1.82-3.1-5.429-3.1-9.161
					c0-5.012,3.298-7.169,6.487-9.255c2.364-1.547,5.045-3.3,7.183-6.546c0.655-0.997,1.992-1.271,2.991-0.615
					c0.996,0.656,1.271,1.995,0.615,2.99c-2.631,3.994-5.844,6.096-8.425,7.784c-3.143,2.056-4.532,3.073-4.532,5.641
					c0,1.926,0.884,4.42,2.425,6.843c0.64,1.006,0.344,2.34-0.663,2.981C177.486,152.537,177.085,152.646,176.688,152.646z"/>
			</g>
			<g>
				<path style="fill:#525D7D;" d="M153.211,114.7c-3.187,0-6.599-2.326-6.599-5.788c0-0.507,0.077-1.018,0.23-1.517
					c0.81-2.633,2.62-3.259,3.818-3.673c1.745-0.604,4.661-1.612,5.634-19.647c-0.325-0.207-1.212-0.489-2.324-0.489
					c-2.367,0-5.223,1.248-8.26,3.61c-0.94,0.732-2.297,0.564-3.03-0.379c-0.732-0.941-0.562-2.298,0.379-3.03
					c3.856-2.999,7.527-4.52,10.911-4.52c3.979,0,6.653,1.86,6.653,4.627c0,0.048-0.003,0.159-0.006,0.207
					c-1.027,19.538-4.478,22.295-8.546,23.701c-0.937,0.324-0.937,0.324-1.102,0.861c-0.027,0.088-0.04,0.169-0.04,0.248
					c0,0.642,1.106,1.47,2.281,1.47c0.202,0,0.393-0.025,0.568-0.075c1.144-0.327,2.341,0.338,2.668,1.486
					c0.326,1.147-0.339,2.341-1.486,2.668C154.402,114.62,153.813,114.7,153.211,114.7z"/>
			</g>
			<g>
				<path style="fill:#525D7D;" d="M147.495,97.556c-1.779,0-3.021-1.303-3.021-3.168c0-0.324,0.037-0.674,0.077-1.011
					c0.018-0.143,0.039-0.28,0.04-0.4c0.004-1.19,0.97-2.159,2.159-2.159h1.182c0.573,0,1.124,0.228,1.529,0.635
					c0.37,0.37,1.229,1.387,1.229,2.822C150.689,96.084,149.256,97.556,147.495,97.556z M146.749,93.507
					c-0.224,0.182-0.378,0.448-0.378,0.767c0,0.16,0.042,0.245,0.042,0.245l0.336-0.34V93.507z"/>
			</g>
			<g>
				<path style="fill:#525D7D;" d="M170.326,96.501c-1.674,0-2.889-1.482-2.889-3.525c0-0.759,0.392-1.427,0.984-1.812
					c0.474-0.786,1.41-1.21,2.352-0.974c1.941,0.486,2.632,1.886,2.632,3.033C173.405,94.774,172.14,96.501,170.326,96.501z
					 M171.763,93.05h0.014H171.763z"/>
			</g>
			<g>
				<path style="fill:#525D7D;" d="M163.294,124.448c-1.556,0-3.06-0.454-4.35-1.314c-0.992-0.661-1.26-2.002-0.599-2.994
					c0.66-0.992,2-1.262,2.994-0.599c0.585,0.39,1.243,0.588,1.955,0.588c1.878,0,3.908-1.382,4.723-3.214
					c0.485-1.089,1.759-1.578,2.85-1.096c1.089,0.484,1.58,1.76,1.096,2.85C170.45,122.072,166.885,124.448,163.294,124.448z"/>
			</g>
			<g>
				<path style="fill:#525D7D;" d="M208.591,196.371c-1.036,0.001-1.951-0.748-2.127-1.804
					c-4.568-27.409-12.868-42.261-43.591-42.261c-20.725,0-33.098,13.628-33.098,36.453c0,1.716,0.073,3.492,0.218,5.279
					c0.096,1.188-0.789,2.23-1.978,2.326c-1.208,0.099-2.231-0.789-2.326-1.978c-0.154-1.903-0.232-3.796-0.232-5.628
					c0-25.148,14.337-40.771,37.416-40.771c33.479,0,43.131,17.551,47.85,45.869c0.196,1.176-0.598,2.288-1.775,2.484
					C208.828,196.361,208.709,196.371,208.591,196.371z"/>
			</g>
			<g>
				<path style="fill:#525D7D;" d="M159.185,167.448c-3.583,0-6.616-4.868-9.016-14.467c-0.289-1.157,0.414-2.329,1.571-2.618
					c1.16-0.295,2.328,0.415,2.618,1.571c1.517,6.072,3.484,9.985,4.577,10.981c2.453-1.696,10.35-7.743,13.247-11.727
					c0.701-0.964,2.049-1.179,3.016-0.476c0.964,0.701,1.177,2.052,0.476,3.016C172.348,158.3,161.025,167.448,159.185,167.448z"/>
			</g>
			<g>
				<path style="fill:#525D7D;" d="M153.681,172.434c-6.696,0-11.555-5.128-11.555-12.195c0-1.85,0.361-3.728,1.043-5.433
					c0.442-1.107,1.701-1.645,2.806-1.202c1.107,0.443,1.645,1.699,1.202,2.806c-0.48,1.2-0.734,2.525-0.734,3.83
					c0,4.638,2.976,7.877,7.237,7.877c1.197,0,2.741-1.242,3.321-1.71c0.479-0.386,0.975-0.784,1.779-0.784
					c0.387,0,0.759,0.083,1.105,0.247c2.153,1.013,5.409,2.224,8.66,2.224c6.853,0,9.921-5.825,9.921-11.598l-0.001-0.888
					c0-1.193,0.966-2.159,2.159-2.159c1.193,0,2.159,0.966,2.159,2.159l0.001,0.888c0,9.371-5.855,15.916-14.239,15.916
					c-3.524,0-6.934-1.087-9.445-2.162C157.927,171.142,155.943,172.434,153.681,172.434z M158.041,169.773
					c0.003,0.001,0.008,0.003,0.011,0.005C158.049,169.777,158.045,169.775,158.041,169.773z"/>
			</g>
			<g>
				<path style="fill:#525D7D;" d="M157.776,195.977c-0.999,0-1.897-0.698-2.111-1.715c-0.567-2.695-0.843-5.651-0.843-9.039
					c0-3.189,0.239-6.388,0.47-9.481c0.122-1.642,0.245-3.272,0.329-4.885c0.062-1.192,1.081-2.122,2.269-2.043
					c1.191,0.063,2.106,1.079,2.043,2.269c-0.086,1.644-0.211,3.307-0.336,4.98c-0.225,3.014-0.457,6.131-0.457,9.159
					c0,3.085,0.245,5.751,0.75,8.149c0.246,1.167-0.501,2.312-1.668,2.557C158.073,195.962,157.923,195.977,157.776,195.977z"/>
			</g>
			<g>
				<path style="fill:#525D7D;" d="M187.322,194.795c-1.193,0-2.159-0.966-2.159-2.159c0-1.441-0.184-2.908-0.377-4.459
					c-0.202-1.615-0.411-3.285-0.411-4.995c0-1.193,0.966-2.159,2.159-2.159c1.193,0,2.159,0.966,2.159,2.159
					c0,1.441,0.183,2.908,0.377,4.459c0.202,1.615,0.411,3.285,0.411,4.995C189.481,193.829,188.515,194.795,187.322,194.795z"/>
			</g>
		</g>
	</g>
</g>
<g id="Layer_1">
</g>
</svg>
