<?xml version="1.0" encoding="iso-8859-1"?>
<!-- Generator: Adobe Illustrator 21.0.2, SVG Export Plug-In . SVG Version: 6.00 Build 0)  -->
<svg version="1.1" xmlns="http://www.w3.org/2000/svg" xmlns:xlink="http://www.w3.org/1999/xlink" x="0px" y="0px"
	 viewBox="0 0 188.767 192.283" style="enable-background:new 0 0 188.767 192.283;" xml:space="preserve">
<g id="_x31_4">
	<g>
		<path style="fill:#E0DFE6;" d="M140.721,20.324c0.073-1.776-1.553-2.49-2.904-2.103c-0.983-1.517-2.877-2.418-5.128-2.085
			c-3.445,0.509-5.857,3.392-8.392,5.544c-2.271,1.927-4.682,3.764-6.475,6.161c-1.143,1.527,0.451,3.324,1.982,3.454
			c3.199,0.271,6.586-0.853,9.513-2.037c0.753-0.304,1.524-0.613,2.286-0.942c-3.125,4.617-6.652,9.05-8.127,14.363
			c-0.324,1.168-0.061,2.292,0.549,3.179c-0.489,0.377-0.932,0.826-1.302,1.331c-2.673,3.653-1.539,8.164-3.814,12.13
			c-2.608,4.548-6.382,8.57-9.687,12.617c-2.386,2.922-5.928,8.467-9.83,9.433c-4.463,1.104-7.975-2.227-12.431,1.073
			c-0.694,0.514-1.207,1.087-1.607,1.697c-1.785-4.69-6.069-6.681-9.824-9.666c-3.071-2.442-6.3-6.259-10.156-7.35
			c-2.015-0.57-3.562,0.991-3.758,2.863c-0.455,4.351,3.03,9.041,5.516,12.323c3.177,4.194,7.029,8.96,12.639,9.208
			c1.179,0.052,2.337-0.371,3.313-1.077c-0.273,0.614-0.62,1.201-1.096,1.742c-3.538,4.019-10.513,1.562-14.379-0.305
			c-6.696-3.235-14.095-10.693-22.052-9.453c-0.951,0.148-1.833,1.352-1.752,2.301c0.041,0.477,0.081,0.953,0.122,1.43
			c0.016,0.192,0.117,0.325,0.297,0.39c6.076,2.192,10.959,9.026,15.939,13.006c4.512,3.607,9.628,6.731,15.468,7.424
			c4.937,0.586,9.846-0.689,13.922-3.561c1.914-1.349,3.683-3.111,4.894-5.133c0.665-1.111,0.98-2.382,1.292-3.637
			c1.234,0.276,2.526,0.603,3.586,0.531c2.471-0.168,4.944-0.973,7.131-2.124c5.095-2.683,8.823-7.096,12.407-11.472
			c7.42-9.06,17.519-18.869,15.004-31.579c-0.258-1.301-1.06-2.405-2.086-3.239c3.775-1.639,6.504-5.37,7.816-9.342
			C141.557,31.492,140.476,26.324,140.721,20.324z"/>
		<path style="fill:#E0DFE6;" d="M183.44,136.268c-3.035-1.273-6.069-4.78-8.602-6.838c-3.224-2.619-6.386-5.28-9.536-7.987
			c-3.69-3.172-7.413-6.792-11.428-9.844c5.995-7.109,11.68-16.671,9.393-25.795c-0.885-3.531-5.472-3.687-7.317-0.956
			c-2.867,4.242-4.765,8.85-8.091,12.814c3.546-5.027,6.315-11.238,6.747-17.406c0.826-0.502,1.419-1.371,1.376-2.412
			c-0.151-3.649-1.697-5.637-3.459-8.289c-0.459-0.883-0.968-1.753-1.594-2.593c-3.196-5.826-11.783-0.69-8.855,5.176
			c5.243,10.505-11.592,24.138-18.696,29.984c-9.354,7.698-20.185,13.596-31.197,18.552c-11.097,4.994-22.801,8.411-33.984,13.145
			c-4.985,2.11-9.55,5.32-11.752,9.716c-0.316-0.28-0.62-0.57-0.956-0.835c-1.24-0.974-2.788-0.071-2.556,1.488
			c0.444,2.982,1.535,5.701,2.518,8.545c0.234,0.677,0.676,1.236,1.222,1.669c-3.164-1.105-6.603,1.124-6.693,4.65
			c-0.068,2.67,1.3,4.342,2.242,6.685c0.229,0.57,0.342,1.213,0.426,1.803c0.012,0.082,0.049,0.076,0.088,0.038
			c-0.047,0.084-0.107,0.195-0.188,0.35c-1.269,2.432-2.977,4.505-3.692,7.217c-0.361,1.371-0.013,2.977,1.048,3.964
			c0.238,0.224,0.495,0.424,0.771,0.603c1.296,0.84,2.913,0.703,4.166,0.035c0.73-0.389,1.454-0.874,2.157-1.421
			c-2.182,2.622-3.857,5.378-3.805,8.996c0.021,1.474,1.788,2.153,2.841,1.177c5.841-5.416,14.49-9.705,18.373-16.884
			c1.97-3.643,2.643-7.78,1.723-11.536c8.934-4.45,17.805-8.834,27.113-12.594c10.479-4.232,20.962-8.448,31.021-13.626
			c8.155-4.198,16.126-9.164,22.951-15.373c2.864,5.537,7.062,10.651,11.126,15.219c-4.706,2.454-8.196,7.214-12.348,10.496
			c-5.216,4.125-10.694,7.923-15.803,12.185c-7.226,6.027-17.723,16.465-9.54,25.755c1.05,1.193,3.241-0.063,2.706-1.575
			c-3.899-11.035,16.967-20.101,24.071-24.662c5.668-3.639,14.173-8.901,16.586-15.871c5.681,6.317,12.925,13.439,21.16,9.499
			C191.502,146.503,188.541,138.407,183.44,136.268z M53.862,153.424c-2.743,2.313-2.063,7.68,1.188,9.22
			c4.207,1.992-0.326,7.51-3.764,11.109c0.424-0.612,0.814-1.231,1.137-1.845c2.749-5.235,0.705-13.413-4.274-16.73
			c1.877,0.575,4.049-0.06,4.464-2.445c0.787-4.533,7.647-6.01,12.21-7.161C60.986,147.945,57.3,150.525,53.862,153.424z"/>
		<path style="fill:#E0DFE6;" d="M42.237,76.692c-1.436-1.318-4.056-2.033-5.77-0.745c-1.04,0.782-1.771,1.55-2.497,2.605
			c-0.097,0.141-0.448,0.598-0.38,0.518c-0.279,0.347-0.563,0.688-0.836,1.041c-0.575,0.745-0.525,0.712-1.029,1.313
			c-0.245,0.088-0.458,0.181-0.681,0.319c-0.158,0.077-0.286,0.131-0.414,0.185c-0.658,0.385-1.07,1.072-1.268,1.794
			c-0.653,2.382,1.757,4.334,3.922,4.445c1.379,0.071,2.755-0.384,4.03-0.959c1.131,1.318,3.438,0.414,4.006-1.102
			c0.476-1.271,1.035-2.44,1.66-3.644C43.927,80.643,43.836,78.159,42.237,76.692z"/>
		<path style="fill:#E0DFE6;" d="M151.192,129.815c-6.3,2.84-11.654,8.118-16.92,12.519c-5.803,4.85-11.897,9.713-16.614,15.651
			c-1.025,1.291,0.219,3.131,1.799,2.331c6.608-3.347,12.421-8.214,18.213-12.792c5.702-4.507,12.134-8.878,16.414-14.816
			C155.459,130.8,152.888,129.05,151.192,129.815z"/>
		<path style="fill:#E0DFE6;" d="M113.045,46.203c-4.595-4.549-10.695-7.712-15.663-11.922c-4.587-3.887-8.527-8.582-13.49-12.002
			c-1.036-0.714-2.084,0.462-1.916,1.473c1.108,6.68,5.386,12.479,9.6,17.598c4.372,5.312,9.967,10.951,16.437,13.496
			C113,56.809,116.488,49.61,113.045,46.203z"/>
		<path style="fill:#E0DFE6;" d="M98.865,60.964c-4.529-2.121-9.553-2.366-14.027-4.819c-1.952-1.07-10.333-5.315-8.892-8.489
			c0.197-0.433-0.216-0.935-0.677-0.677c-5.337,2.983-2.099,8.493,1.075,12.188c4.443,5.172,13.127,11.049,20.225,10.273
			c2.02-0.221,3.817-1.26,4.386-3.34c0.105-0.383,0.174-0.812,0.162-1.209C101.075,63.392,100.309,61.64,98.865,60.964z"/>
		<g>
			<g>
				<path style="fill:#525D7D;" d="M25.988,101.677c-0.815,0-1.595-0.464-1.961-1.252c-4.771-10.303-7.091-18.733-7.091-25.771
					c0-12.603,6.945-18.138,13.525-21.408c-0.073-0.829-0.11-1.635-0.11-2.435c0-13.327,9.989-17.646,14.995-19.263
					c0.795-11.097,11.8-16.269,16.456-16.844C68.555,4.657,81.384,2.149,91.757,0.124C92.172,0.042,92.596,0,93.015,0
					c5.562,0,8.752,7.017,9.597,9.168c4.783,12.177,11.659,22.802,20.436,31.579c2.295,2.294,3.558,5.174,3.558,8.108
					c0,6.673-4.685,7.409-7.786,7.896c-0.48,0.076-0.966,0.152-1.445,0.247c-1.17,0.23-2.307-0.523-2.541-1.694
					c-0.234-1.168,0.524-2.307,1.693-2.54c0.538-0.108,1.083-0.194,1.623-0.278c3.279-0.516,4.137-0.769,4.137-3.631
					c0-1.781-0.815-3.576-2.293-5.055c-9.2-9.2-16.4-20.32-21.402-33.052c-1.257-3.201-3.47-6.429-5.578-6.429
					c-0.14,0-0.284,0.014-0.429,0.042C80.464,6.729,70.011,9.386,64.864,17.933c-0.411,0.682-1.16,1.064-1.96,1.043
					c-0.1-0.006-0.201-0.008-0.299-0.008c-2.203,0-12.986,3.775-12.986,13.864l0.003,0.285c0.019,0.973-0.615,1.839-1.548,2.113
					c-9.269,2.731-13.403,7.537-13.403,15.581c0,1.096,0.082,2.217,0.25,3.421c0.132,0.946-0.372,1.867-1.24,2.263
					c-6.453,2.95-12.425,7.193-12.425,18.158c0,6.397,2.189,14.233,6.692,23.958c0.501,1.081,0.03,2.364-1.052,2.866
					C26.6,101.613,26.292,101.677,25.988,101.677z"/>
			</g>
			<g>
				<path style="fill:#525D7D;" d="M107.969,74.305c-3.374,0-6.401-0.693-9.254-2.118c-1.067-0.533-1.499-1.83-0.966-2.896
					c0.533-1.068,1.828-1.501,2.896-0.967c2.271,1.134,4.598,1.663,7.324,1.663c6.065,0,7.21-0.977,7.21-6.151
					c0-1.983-0.404-6.77-4.15-8.354C94.277,48.393,87.737,37.647,82.961,29.8c-3.679-6.046-5.786-9.2-9.802-9.2
					c-2.617,0-5.316,2.679-5.893,5.852c-0.213,1.174-1.342,1.95-2.511,1.737c-1.173-0.214-1.951-1.337-1.737-2.51
					c0.958-5.27,5.412-9.397,10.141-9.397c6.63,0,9.809,5.223,13.491,11.273c4.719,7.753,10.593,17.405,26.063,23.949
					c4.312,1.824,6.786,6.32,6.786,12.332C119.498,72.553,115.087,74.305,107.969,74.305z"/>
			</g>
			<g>
				<path style="fill:#525D7D;" d="M92.293,84.543c-10.725,0-18.344-6.833-25.065-12.86c-5.238-4.698-9.762-8.754-14.597-8.754
					c-2.019,0-4.303,0.402-7.186,1.267c-1.141,0.34-2.346-0.305-2.688-1.448c-0.342-1.143,0.306-2.346,1.449-2.688
					c3.298-0.988,5.975-1.449,8.426-1.449c6.488,0,11.827,4.789,17.48,9.858c6.445,5.78,13.11,11.757,22.182,11.757
					c2.836,0,7.335-1.349,7.335-4.972c0-3.04-2.893-6.734-6.318-8.066c-10.655-4.145-17.863-10.386-23.655-15.402
					c-4.646-4.023-8.314-7.201-11.537-7.201c-1.497,0-5.036,0.403-5.569,4.134c-0.169,1.181-1.267,1.992-2.442,1.833
					c-1.181-0.169-2.001-1.262-1.832-2.443c0.68-4.764,4.545-7.842,9.844-7.842c4.833,0,9.039,3.642,14.364,8.254
					c5.54,4.797,12.434,10.769,22.393,14.641c5.086,1.979,9.071,7.29,9.071,12.091C103.946,81.288,97.942,84.543,92.293,84.543z"/>
			</g>
			<g>
				<path style="fill:#525D7D;" d="M74.219,97.631c-5.812,0-10.511-3.857-15.485-7.94c-5.509-4.52-11.204-9.196-18.949-9.196
					l-1.243,0.001c-4.05,0-9.331-0.454-11.497-2.62c-0.843-0.842-0.843-2.21-0.001-3.053c0.843-0.843,2.21-0.843,3.054,0
					c0.657,0.657,3.84,1.355,8.444,1.355l1.243-0.001c9.29,0,15.877,5.406,21.688,10.177c4.549,3.735,8.479,6.959,12.745,6.959
					c5.527,0,7.098-4.003,8.452-8.839l0.176-0.624c0.328-1.148,1.524-1.808,2.669-1.483c1.146,0.327,1.81,1.522,1.483,2.669
					l-0.17,0.602C85.656,89.83,83.471,97.631,74.219,97.631z"/>
			</g>
			<g>
				<path style="fill:#525D7D;" d="M2.158,130.824c-0.46,0-0.924-0.146-1.317-0.45c-0.945-0.728-1.12-2.085-0.391-3.028
					c29.662-38.451,40.225-46.354,47.221-49.165c1.11-0.447,2.364,0.093,2.809,1.198c0.445,1.106-0.091,2.364-1.198,2.809
					c-6.122,2.461-16.304,10.064-45.413,47.796C3.443,130.534,2.804,130.824,2.158,130.824z"/>
			</g>
			<g>
				<path style="fill:#525D7D;" d="M44.679,184.382c-0.49,0-0.983-0.166-1.387-0.506c-0.913-0.767-1.031-2.13-0.264-3.042
					c3.242-3.858,6.949-7.389,10.534-10.805c1.141-1.087,2.279-2.172,3.4-3.262c-9.63-9.752-17.561-18.712-25.935-28.17
					c-6.214-7.02-12.639-14.28-19.838-21.907c-0.819-0.867-0.779-2.234,0.088-3.052c0.868-0.818,2.234-0.777,3.052,0.089
					c7.247,7.676,13.695,14.962,19.932,22.007c8.768,9.906,17.05,19.262,27.288,29.524c0.841,0.843,0.841,2.21-0.002,3.052
					c-1.63,1.631-3.315,3.236-5.006,4.847c-3.5,3.334-7.119,6.782-10.206,10.456C45.906,184.12,45.295,184.382,44.679,184.382z"/>
			</g>
			<g>
				<path style="fill:#525D7D;" d="M51.997,159.108c-0.537,0-1.075-0.198-1.493-0.599c-0.862-0.825-0.892-2.191-0.068-3.053
					c13.543-14.153,18.758-14.983,26.652-16.241c10.113-1.609,25.395-4.043,73.119-39.209c4.112-3.029,7.424-9.37,7.424-12.599
					c0-2.716-2.379-6.401-6.36-7.867c-1.042-0.384-1.623-1.494-1.343-2.568c0.498-1.919,0.751-3.652,0.751-5.15
					c0-5.825-5.33-8.608-9.801-9.917c-0.987-0.288-1.633-1.234-1.545-2.259c0.089-1.016,0.131-1.922,0.131-2.768
					c0-12.575-12.308-16.18-16.942-17.537c-1.068-0.312-1.656-0.485-2.112-0.759c-1.023-0.613-1.355-1.938-0.742-2.962
					c0.613-1.022,1.94-1.356,2.962-0.741c0.117,0.038,0.543,0.153,1.106,0.318c4.958,1.452,20.046,5.871,20.046,21.681
					c0,0.458-0.011,0.929-0.032,1.42c7.271,2.591,11.247,7.347,11.247,13.524c0,1.387-0.157,2.855-0.477,4.449
					c4.839,2.551,7.429,7.426,7.429,11.137c0,4.961-4.29,12.472-9.181,16.076c-48.569,35.787-64.476,38.32-75.001,39.996
					c-7.526,1.199-11.673,1.86-24.211,14.962C53.132,158.885,52.565,159.108,51.997,159.108z"/>
			</g>
			<g>
				<path style="fill:#525D7D;" d="M122.916,37.502c-0.617,0-1.229-0.059-1.817-0.177c-1.169-0.232-1.929-1.369-1.696-2.539
					c0.233-1.169,1.362-1.938,2.539-1.695c0.311,0.062,0.639,0.093,0.973,0.093c3.795,0,13.077-4.88,13.077-13.926
					c0-7.188-2.812-7.188-4.865-7.188c-2.918,0.056-20.268,2.993-21.716,9.868c-0.245,1.168-1.387,1.92-2.557,1.668
					c-1.167-0.246-1.914-1.39-1.668-2.557c2.37-11.258,25.71-13.297,25.941-13.297c6.179,0,9.183,3.764,9.183,11.506
					C140.311,31.063,128.82,37.502,122.916,37.502z"/>
			</g>
			<g>
				<path style="fill:#525D7D;" d="M118.027,169.187c-0.579,0-1.156-0.23-1.581-0.689c-5.729-6.157-17.09-17.916-28.798-27.494
					c-0.923-0.755-1.059-2.116-0.304-3.039c0.756-0.922,2.115-1.057,3.038-0.304c11.906,9.741,23.421,21.658,29.225,27.896
					c0.812,0.873,0.763,2.239-0.11,3.05C119.081,168.995,118.553,169.187,118.027,169.187z"/>
			</g>
			<g>
				<path style="fill:#525D7D;" d="M178.839,154.039c-0.493,0-0.987-0.167-1.393-0.51c-5.336-4.516-9.678-8.007-13.507-11.085
					c-12.306-9.893-17.922-14.408-26.02-28.984c-0.579-1.043-0.204-2.357,0.838-2.936c1.045-0.578,2.357-0.201,2.936,0.839
					c7.688,13.838,12.741,17.901,24.951,27.716c3.85,3.094,8.213,6.602,13.591,11.152c0.911,0.77,1.024,2.134,0.254,3.043
					C180.061,153.779,179.453,154.039,178.839,154.039z"/>
			</g>
			<g>
				<path style="fill:#525D7D;" d="M128.633,192.283c-0.575,0-1.148-0.228-1.573-0.679c-5.809-6.172-11.644-11.821-17.344-16.79
					c-0.46-0.401-0.728-0.977-0.739-1.587c-0.012-0.61,0.235-1.196,0.68-1.614c7.543-7.091,16.078-13.764,25.114-20.83
					c7-5.473,14.238-11.133,21.846-17.601c0.907-0.773,2.271-0.662,3.043,0.246c0.772,0.908,0.663,2.271-0.246,3.043
					c-7.675,6.528-14.949,12.214-21.983,17.714c-8.262,6.46-16.102,12.59-23.077,18.962c5.231,4.665,10.554,9.87,15.851,15.497
					c0.817,0.869,0.776,2.235-0.093,3.053C129.695,192.089,129.163,192.283,128.633,192.283z"/>
			</g>
			<g>
				<path style="fill:#525D7D;" d="M110.349,159.268c-0.718,0-1.419-0.357-1.829-1.009c-0.635-1.008-0.332-2.342,0.677-2.977
					c7.032-4.426,13.522-9.782,19.799-14.962c5.821-4.803,11.841-9.77,18.264-13.971c0.997-0.649,2.337-0.37,2.988,0.626
					c0.653,0.998,0.373,2.336-0.625,2.99c-6.222,4.068-12.148,8.958-17.879,13.687c-6.382,5.266-12.981,10.71-20.246,15.285
					C111.14,159.162,110.742,159.268,110.349,159.268z"/>
			</g>
			<g>
				<path style="fill:#525D7D;" d="M125.078,159.268c-0.656,0-1.305-0.298-1.729-0.864l-4.57-6.093
					c-0.716-0.954-0.523-2.308,0.432-3.024c0.952-0.714,2.308-0.521,3.022,0.432l4.572,6.096c0.716,0.953,0.521,2.307-0.432,3.022
					C125.983,159.128,125.529,159.268,125.078,159.268z"/>
			</g>
			<g>
				<path style="fill:#525D7D;" d="M136.76,149.617c-0.656,0-1.304-0.298-1.728-0.863l-4.572-6.096
					c-0.716-0.953-0.521-2.307,0.432-3.022c0.956-0.714,2.309-0.523,3.023,0.433l4.57,6.093c0.716,0.954,0.523,2.308-0.432,3.024
					C137.666,149.477,137.211,149.617,136.76,149.617z"/>
			</g>
			<g>
				<path style="fill:#525D7D;" d="M148.44,143.523c-0.473,0-0.949-0.155-1.347-0.472c-1.166-0.933-2.098-1.999-3-3.028
					c-1.172-1.341-2.28-2.606-3.729-3.33c-1.066-0.534-1.498-1.83-0.966-2.897c0.536-1.067,1.832-1.494,2.897-0.966
					c2.208,1.103,3.716,2.828,5.047,4.348c0.812,0.929,1.581,1.808,2.447,2.499c0.931,0.745,1.082,2.104,0.337,3.035
					C149.701,143.246,149.073,143.523,148.44,143.523z"/>
			</g>
		</g>
	</g>
</g>
<g id="Layer_1">
</g>
</svg>
