<?xml version="1.0" encoding="iso-8859-1"?>
<!-- Generator: Adobe Illustrator 21.0.2, SVG Export Plug-In . SVG Version: 6.00 Build 0)  -->
<svg version="1.1" xmlns="http://www.w3.org/2000/svg" xmlns:xlink="http://www.w3.org/1999/xlink" x="0px" y="0px"
	 viewBox="0 0 220.315 162.199" style="enable-background:new 0 0 220.315 162.199;" xml:space="preserve">
<g id="_x31_5">
	<g>
		<path style="fill:#E0DFE6;" d="M91.078,94.164c-4.561-3.378-10.076-6.635-15.81-8.506c1.556-0.755,3.092-1.49,3.435-1.729
			c1.267-0.881,2.233-1.987,2.884-3.291c4.356-1.902,7.887-4.524,8.509-9.828c0.805-6.874-1.372-14.737-2.225-21.572
			c-1.028-8.23-2.037-16.461-3.009-24.698c0.605-2.345-1.612-4.242-3.934-4.667c0.979-1.532,1.932-3.078,2.738-4.704
			c0.915-1.847-0.957-3.906-2.862-2.862c-6.198,3.399-10.95,8.627-14.561,14.627c-1.21,2.011-2.274,4.799-5.015,5.276
			c-1.432,0.249-3.525-0.685-5.013-0.836c-2.976-0.302-5.739-0.083-8.298,1.613c-15.075,9.999,6.308,27.516-1.246,38.46
			c-2.383,3.452,1.022,7.5,4.477,7.659c-0.697,2.4-0.434,4.996,1.337,7.46c3.29,4.575,10.013,1.267,8.648-3.67
			c-1.597-4.072,4.882-4.695,7.527-5.608c2.954-1.02,5.555-2.436,7.909-4.501c2.963-2.6,4.736-5.448,5.761-8.696
			c0.15,1.668,0.231,3.314,0.169,4.905c-0.221,5.645-7.86,6.72-12.084,9.482c-2.609,1.705-4.578,3.718-6.071,6.218
			c-0.284,0.262-0.57,0.508-0.854,0.787c-1.712,1.677-2.054,5.249,0,6.866c3.471,2.733,7.414,4.745,11.153,7.087
			c3.63,2.273,7.165,5.748,11.361,6.765C93.627,108.048,96.901,98.476,91.078,94.164z M72.195,35.8
			c1.814-2.838,2.888-6.135,4.498-9.094c0.239,1.7,0.475,3.4,0.716,5.1c-0.722-0.042-1.446,0.211-2.027,0.92
			c-1.739,2.118-3.177,4.645-5.539,6.12c-0.129,0.08-0.265,0.138-0.396,0.211C70.388,38.26,71.293,37.212,72.195,35.8z
			 M81.278,56.835c-2.066,3.769-5.898,7.472-9.563,9.662c-3.66,2.188-7.787,2.459-11.719,3.85c-0.661,0.234-1.312,0.536-1.95,0.875
			c0.846-2.99,0.85-6.19,0.131-9.576c-0.751-3.535-2.354-6.717-3.603-10.08c-0.625-1.683-2.295-5.546-1.769-7.326
			c0.781-2.642,2.845-2.329,4.695-2.29c-1.388,1.361-1.379,3.945,1.041,4.57c5.178,1.337,11.049,1.71,15.936-0.848
			c1.636-0.856,3.198-2.08,4.381-3.542c0.192,1.388,0.394,2.774,0.584,4.162C79.899,49.638,80.649,53.215,81.278,56.835z"/>
		<path style="fill:#E0DFE6;" d="M133.477,120.994c-3.621-7.05-14.088-7.343-21.184-8.008c-9.268-0.868-18.586-0.205-27.858,0.226
			c-9.702,0.451-19.376,0.261-29.07-0.281c-8.278-0.462-18.723-2.994-26.73-0.62c-1.046,0.31-1.353,1.583-0.625,2.368
			c1.003,1.081,2.176,2.033,3.469,2.877c-1.343-0.07-2.685-0.138-4.03-0.177c-1.057-0.031-1.549,1.568-0.556,2.054
			c26.393,12.913,59.665,12.302,88.08,8.417c0.957-0.131,1.701-0.47,2.287-0.925c0.219,0.041,0.441,0.066,0.659,0.111
			c4.534,0.912,8.087,2.981,12.618,1.185C133.575,127.017,135.049,124.054,133.477,120.994z"/>
		<path style="fill:#E0DFE6;" d="M190.071,103.639c0.022-0.878-0.117-1.759-0.512-2.634c-0.367-0.815-1.401-1.277-2.243-1.287
			c-5.273-0.057-8.242,7.742-11.091,11.393c-4.149,5.316-8.398,10.498-12.883,15.537c-1.136,1.276,0.293,3.298,1.86,2.411
			c6.105-3.455,11.913-7.814,16.639-13.019c0.035-0.038,0.074-0.079,0.11-0.118c-4.991,7.315-11.411,12.903-19.967,17.669
			c-11.865,6.609-27.023,15.886-41.111,13.078c-6.519-1.299-12.358-4.766-18.237-7.706c-3.949-1.975-8.689-4.802-13.295-3.777
			c-2.474,0.55-4.139,1.876-5.212,3.663c0.043-1.181,0.072-2.402,0.039-3.685c-0.052-2.022-2.071-2.987-3.79-2.175
			c-9.173,4.333-8.371,18.47-4.108,25.868c2.327,4.038,6.709,3.399,9.065,0.841c0.195,0.501,0.389,0.969,0.578,1.397
			c0.578,1.308,2.422,0.753,2.805-0.367c1.142-3.339,1.893-6.544,2.498-10.017c0.274-1.739,0.569-3.475,0.885-5.207
			c-0.64-1.354,0.126-1.179,2.299,0.526c5.546,1.983,10.587,5.569,16.068,7.803c12.032,4.905,23.559,3.709,35.398-1.181
			c18.958-7.831,48.393-20.997,49.217-45.047C195.172,105.01,192.36,103.259,190.071,103.639z"/>
		<path style="fill:#E0DFE6;" d="M213.665,112.666c-2.815-6.229-6.955-12.162-11.936-16.859c-5.397-5.09-10.247-7.101-16.664-9.197
			c0.951-2.959,1.433-6.247,2.59-8.964c2.331-5.47,5.177-10.701,7.277-16.276c2.011-5.337,2.74-10.357,2.457-15.279
			c1.302-3.249,2.095-6.679,2.072-10.302c-0.092-14.437-14.982-28.135-29.486-26.745c-0.787,0.075-1.375,1.054-0.696,1.68
			c6.095,5.609,13.204,9,16.202,17.383c2.821,7.888-0.526,14.359-5.144,20.685c-8.198,11.23-19.116,23.995-11.959,38.649
			c1.289,2.639,3.466,3.627,5.655,3.49c0.107,0.175,0.185,0.361,0.307,0.529c1.849,2.555,4.792,2.956,7.232,0.932
			c0.698-0.579,1.269-1.255,1.757-1.992c4.061,3.388,7.877,6.414,11.064,11.068c3.171,4.63,5.863,9.593,7.933,14.808
			c2.054,5.174,3.519,10.579,4.151,16.118c0.463,4.058,1.251,12.379-0.09,15.257c-1.788,3.838,0.24,9.664,5.314,9.261
			c0.184-0.015,0.368-0.029,0.552-0.044c2.129-0.169,4.652-1.076,5.607-3.216C223.243,141.593,218.828,124.092,213.665,112.666z"/>
		<path style="fill:#E0DFE6;" d="M193.452,130.444c0.179-2.381-3.668-2.901-4.175-0.565c-1.406,6.478-3.475,12.666-4.624,19.244
			c-0.506,2.896,0.756,5.383,3.616,6.369c0.949,0.327,1.801,0.299,2.753,0c1.949-0.611,4.089-2.727,3.801-4.992
			C194,144.027,192.963,136.949,193.452,130.444z"/>
		<path style="fill:#E0DFE6;" d="M13.671,129.324c-0.378-1.953-2.895-1.467-3.492,0c-2.397,5.898-3.573,12.884-3.716,19.246
			c-0.126,5.56,8.495,5.555,8.634,0C15.255,142.266,14.87,135.523,13.671,129.324z"/>
		<path style="fill:#E0DFE6;" d="M148.877,74.189c-0.135-7.637,0.195-19.751-5.33-25.632c-1.523-1.621-4.656-1.327-5.687,0.733
			c-1.86,3.716-1.556,7.399-1.374,11.455c0.163,3.639,0.161,7.275,0.146,10.914c-1.259-0.229-2.498-0.535-3.697-1.002
			c-0.393-0.153-0.735,0.364-0.533,0.694c1.181,1.931,2.642,3.246,4.353,4.335c0.767,3.72,4.688,5.133,7.869,4.278
			c0.157,0.124,0.325,0.231,0.473,0.367c1.873,1.724,1.864,3.27,2.299,5.64c0.812,4.412,7.885,4.286,8.791,0
			C157.309,80.656,153.441,76.359,148.877,74.189z"/>
		<g>
			<g>
				<path style="fill:#525D7D;" d="M35.04,91.48c-0.072,0-0.143-0.003-0.216-0.011c-1.186-0.117-2.052-1.175-1.936-2.362
					c0.091-0.917,0.138-1.812,0.138-2.66c0-5.96-4.228-11.862-9.124-18.696c-6.469-9.03-13.801-19.264-13.801-33.103
					c0-10.762,4.044-19.792,11.696-26.113C28.461,3.031,37.369,0,46.879,0c8.188,0,17.222,2.542,25.193,4.785
					c5.329,1.499,10.362,2.915,14.51,3.421c0.645,0.078,1.221,0.443,1.567,0.994c0.346,0.55,0.425,1.228,0.215,1.844
					c-3.86,11.359-10.243,21.222-18.459,28.525c-1.472,1.309-3.628,1.392-5.911,1.478c-4.772,0.181-6.716,0.67-6.716,4.847
					c0,3.634,3.232,5.953,5.999,6.834c0.756,0.24,1.32,0.877,1.466,1.657c0.148,0.78-0.145,1.578-0.762,2.078
					c-6.47,5.239-9.616,10.296-9.616,15.46c0,0.812,0.079,1.639,0.235,2.458c0.222,1.172-0.547,2.302-1.718,2.525
					c-1.174,0.224-2.302-0.547-2.525-1.718c-0.207-1.085-0.311-2.184-0.311-3.265c0-5.748,2.827-11.193,8.621-16.571
					c-3.552-2.161-5.708-5.622-5.708-9.457c0-8.749,7.072-9.017,10.87-9.162c1.122-0.042,2.817-0.107,3.216-0.397
					c7.061-6.278,12.684-14.625,16.355-24.252c-3.825-0.7-8.063-1.893-12.499-3.141c-8.078-2.273-16.432-4.623-24.024-4.623
					c-15.633,0-32.46,9.492-32.46,30.331c0,12.451,6.903,22.087,12.992,30.588c5.108,7.129,9.932,13.864,9.932,21.211
					c0,0.99-0.053,2.028-0.159,3.086C37.075,90.648,36.136,91.48,35.04,91.48z"/>
			</g>
			<g>
				<path style="fill:#525D7D;" d="M59.569,91.737c-1.022,0-1.93-0.729-2.121-1.77c-0.122-0.672-0.287-1.689-0.287-2.75
					c0-5.223,4.862-7.728,10.011-10.379c6.559-3.379,13.985-7.204,14.118-17.332c-0.069-0.198-0.177-0.486-0.313-0.854
					c-1.265-3.432-4.629-12.547-4.629-22.121c0-1.635,0.035-3.27,0.072-4.905c0.035-1.605,0.07-3.211,0.07-4.817
					c0-1.193,0.967-2.159,2.159-2.159c1.192,0,2.159,0.966,2.159,2.159c0,1.638-0.035,3.275-0.072,4.911
					c-0.035,1.604-0.07,3.208-0.07,4.811c0,8.803,3.17,17.392,4.362,20.626c0.458,1.242,0.582,1.576,0.582,2.07
					c0,12.97-9.515,17.871-16.461,21.449c-4.755,2.45-7.669,4.076-7.669,6.541c0,0.548,0.066,1.155,0.216,1.971
					c0.215,1.173-0.562,2.298-1.734,2.513C59.829,91.725,59.699,91.737,59.569,91.737z"/>
			</g>
			<g>
				<path style="fill:#525D7D;" d="M2.567,150.6c-1.092,0-2.03-0.826-2.145-1.938C0.142,145.946,0,143.185,0,140.454
					c0-13.085,3.34-25.533,9.404-35.052c0.64-1.006,1.975-1.301,2.98-0.661c1.006,0.641,1.302,1.976,0.661,2.981
					c-5.627,8.834-8.726,20.458-8.726,32.732c0,2.584,0.135,5.197,0.399,7.765c0.122,1.186-0.741,2.247-1.927,2.369
					C2.716,150.596,2.641,150.6,2.567,150.6z"/>
			</g>
			<g>
				<path style="fill:#525D7D;" d="M85.623,104.444c-0.457,0-0.918-0.145-1.31-0.443c-8.444-6.455-20.598-13.863-39.798-13.863
					c-4.946,0-9.615,0.858-13.872,2.551c-1.105,0.44-2.363-0.1-2.803-1.209c-0.441-1.108,0.1-2.364,1.209-2.804
					c4.766-1.896,9.97-2.856,15.466-2.856c20.494,0,33.436,7.883,42.421,14.75c0.947,0.725,1.127,2.08,0.403,3.027
					C86.915,104.153,86.272,104.444,85.623,104.444z"/>
			</g>
			<g>
				<path style="fill:#525D7D;" d="M129.514,130.101c-8.237,0-15.455-2.498-23.401-8.101c-0.974-0.687-1.207-2.035-0.52-3.009
					c0.686-0.975,2.034-1.207,3.008-0.521c7.173,5.057,13.622,7.313,20.913,7.313c9.702,0,13.633-3.263,21.467-9.764
					c2.855-2.368,6.088-5.052,10.226-8.085c0.959-0.706,2.312-0.497,3.018,0.464c0.704,0.962,0.496,2.313-0.465,3.018
					c-4.033,2.957-7.214,5.597-10.021,7.926C145.653,126.051,140.774,130.101,129.514,130.101z"/>
			</g>
			<g>
				<path style="fill:#525D7D;" d="M120.102,128.793c-1.092,0-2.03-0.826-2.145-1.936c-0.273-2.629-1.03-4.989-7.177-5.022
					c-0.153,0.024-0.415,0.071-0.776,0.135c-9.66,1.699-18.726,2.561-26.947,2.561c-0.763,0-76.275-1.02-76.275-23.722
					c0-10.884,15.546-16.324,19.215-16.324c0.793,0,1.522,0.434,1.899,1.131c0.07,0.122,8.938,14.647,52.634,14.647
					c16.54,0,27.979-4.362,38.073-8.212c7.907-3.015,14.735-5.619,22.427-5.619c3.249,0,6.497,0.34,9.637,0.668
					c2.017,0.212,4.103,0.429,6.129,0.548c1.191,0.07,2.099,1.092,2.028,2.282c-0.07,1.19-1.072,2.085-2.281,2.029
					c-2.124-0.125-4.259-0.349-6.324-0.564c-3.03-0.317-6.165-0.645-9.189-0.645c-6.896,0-13.38,2.473-20.888,5.336
					c-10.443,3.982-22.276,8.495-39.612,8.495c-39.654,0-52.373-11.672-55.545-15.635c-3.731,0.82-13.885,5.116-13.885,11.863
					c0,14.626,53.514,19.403,71.957,19.403c7.971,0,16.786-0.84,26.198-2.496c0.964-0.17,1.139-0.2,1.397-0.2
					c7.183,0,10.978,2.909,11.601,8.893c0.124,1.186-0.738,2.248-1.924,2.371C120.252,128.79,120.176,128.793,120.102,128.793z"/>
			</g>
			<g>
				<path style="fill:#525D7D;" d="M23.405,115.71c-0.284,0-0.572-0.056-0.849-0.175c-1.097-0.47-1.604-1.739-1.134-2.835
					c1.718-4.007,4.452-7.009,7.094-9.912c2.139-2.349,4.159-4.567,5.589-7.221c0.564-1.049,1.872-1.44,2.924-0.878
					c1.05,0.565,1.444,1.874,0.877,2.924c-1.681,3.123-3.977,5.644-6.196,8.082c-2.513,2.76-4.887,5.367-6.318,8.706
					C25.04,115.219,24.243,115.71,23.405,115.71z"/>
			</g>
			<g>
				<path style="fill:#525D7D;" d="M120.324,162.199c-1.192,0-2.159-0.966-2.159-2.159v-11.599c0-1.193,0.967-2.159,2.159-2.159
					c1.192,0,2.159,0.966,2.159,2.159v11.599C122.483,161.233,121.516,162.199,120.324,162.199z"/>
			</g>
			<g>
				<path style="fill:#525D7D;" d="M83.013,158.353c-0.096,0-0.193-0.006-0.291-0.019c-1.182-0.16-2.01-1.247-1.851-2.428
					c0.059-0.437,0.087-0.95,0.087-1.565c0-1.601-0.2-3.534-0.411-5.58c-0.235-2.274-0.478-4.625-0.478-6.825
					c0-6.61,2.51-9.962,7.46-9.962c4.897,0,8.84,2.38,13.013,4.9c5.625,3.396,12,7.245,23.013,7.245
					c32.22,0,66.295-30.213,66.463-46.57c-0.555-1.282-5.488-4.613-9.314-4.613c-3.123,0-3.922,2.068-4.893,6.458
					c-0.665,3.007-1.493,6.751-5.233,6.751c-0.505,0-0.994-0.177-1.382-0.5c-1.597-1.329-2.203-3.295-2.737-5.029
					c-0.527-1.706-0.829-2.467-1.23-2.467c-1.777,0-3.757,1.853-3.757,4.511c0,1.654,0.326,2.052,0.867,2.71
					c0.687,0.838,1.631,1.985,1.631,4.471c0,1.193-0.967,2.159-2.159,2.159s-2.159-0.966-2.159-2.159
					c0-0.939-0.163-1.139-0.649-1.73c-0.974-1.186-1.848-2.495-1.848-5.451c0-5.282,4.176-8.83,8.075-8.83
					c3.656,0,4.679,3.317,5.355,5.513c0.146,0.473,0.294,0.952,0.457,1.392c0.208-0.713,0.409-1.619,0.554-2.274
					c0.814-3.682,2.176-9.844,9.108-9.844c5.382,0,13.632,4.725,13.632,8.81c0,20.141-37.965,51.01-70.781,51.01
					c-12.215,0-19.44-4.362-25.244-7.866c-3.961-2.39-7.089-4.279-10.783-4.279c-1.251,0-3.142,0-3.142,5.644
					c0,1.977,0.23,4.216,0.455,6.382c0.222,2.16,0.433,4.199,0.433,6.023c0,0.81-0.041,1.511-0.127,2.142
					C85.003,157.566,84.077,158.353,83.013,158.353z M190.039,97.606L190.039,97.606L190.039,97.606z"/>
			</g>
			<g>
				<path style="fill:#525D7D;" d="M166.358,131.701c-0.451,0-0.905-0.141-1.295-0.432c-6.161-4.621-11.175-10.789-11.175-13.749
					c0-0.543,0.122-1.062,0.363-1.543c0.534-1.065,1.83-1.497,2.897-0.966c0.971,0.486,1.417,1.606,1.085,2.608
					c0.373,1.169,3.499,5.755,9.422,10.196c0.953,0.715,1.147,2.069,0.432,3.023C167.663,131.403,167.015,131.701,166.358,131.701z"
					/>
			</g>
			<g>
				<path style="fill:#525D7D;" d="M169.366,91.637c-0.968,0-1.848-0.656-2.093-1.637c-0.531-2.13-0.801-4.246-0.801-6.29
					c0-8.78,6.27-14.966,12.908-21.515c7.336-7.237,14.921-14.72,14.921-26.496c0-19.839-12.32-28.686-39.947-28.686
					c-8.255,0-16.983,0.9-28.003,2.904c1.534,3.705,2.309,7.713,2.309,11.954c0,11.134-5.277,21.827-10.18,29.357
					c1.548,1.357,3.203,3.966,3.203,8.918c0,0.541-0.01,1.08-0.018,1.616c-0.01,0.507-0.018,1.011-0.018,1.512
					c0,7.98,4.438,9.385,10.057,11.162c5.391,1.705,12.1,3.828,12.1,13.43c0,1.193-0.967,2.159-2.159,2.159
					c-1.192,0-2.159-0.966-2.159-2.159c0-6.141-3.282-7.478-9.085-9.313c-5.824-1.843-13.072-4.135-13.072-15.279
					c0-0.526,0.01-1.056,0.018-1.588c0.01-0.511,0.018-1.025,0.018-1.541c0-5.349-2.318-6.085-2.416-6.113
					c-1.016-0.197-1.663-1.067-1.663-2.101c0-0.469,0.141-0.923,0.406-1.313c4.861-7.068,10.649-17.786,10.649-28.748
					c0-4.546-1.023-8.767-3.042-12.545c-0.323-0.605-0.339-1.328-0.044-1.947s0.869-1.061,1.542-1.19
					c12.613-2.416,22.344-3.493,31.555-3.493c29.785,0,44.265,10.796,44.265,33.004c0,13.583-8.61,22.076-16.206,29.57
					c-6.237,6.152-11.623,11.466-11.623,18.441c0,1.692,0.226,3.457,0.672,5.244c0.29,1.157-0.415,2.329-1.572,2.618
					C169.715,91.616,169.539,91.637,169.366,91.637z"/>
			</g>
			<g>
				<path style="fill:#525D7D;" d="M206.094,154.961c-1.139,0-2.09-0.89-2.155-2.04c-0.152-2.747-0.235-5.613-0.315-8.386
					c-0.433-15.046-0.881-30.605-12.084-41.035c-0.873-0.813-0.921-2.178-0.108-3.051c0.813-0.874,2.18-0.92,3.052-0.109
					c12.524,11.66,13.02,28.879,13.458,44.071c0.083,2.87,0.16,5.581,0.311,8.271c0.066,1.191-0.846,2.209-2.037,2.275
					C206.174,154.959,206.134,154.961,206.094,154.961z"/>
			</g>
			<g>
				<path style="fill:#525D7D;" d="M158.248,77.415c-4.283,0-8.465-1.761-12.346-3.665c-1.023-0.502-1.48-1.712-1.044-2.765
					c0.663-1.602,1.001-3.392,1.001-5.321c0-2.968-0.782-6.299-2.321-9.9c-0.117-0.277-0.181-0.59-0.181-0.883
					c0-0.806,0.465-1.553,1.181-1.924c0.139-0.073,3.436-1.812,3.436-4.279c0-1.726-1.244-6.654-6.77-6.654
					c-2.398,0-3.32,0.491-3.624,0.652c-1.231,0.659-2.124,0.219-2.544-0.099c-0.751-0.569-1.011-1.407-0.773-2.493
					c0.084-0.385,0.26-1.188,0.26-2.839c0-5.252-2.669-9.67-7.516-12.44c-1.036-0.592-1.396-1.91-0.804-2.946
					c0.593-1.035,1.914-1.392,2.946-0.803c6.16,3.52,9.692,9.421,9.692,16.189c0,0.214-0.003,0.417-0.007,0.611
					c0.67-0.093,1.455-0.151,2.37-0.151c7.648,0,11.088,6.416,11.088,10.972c0,3.419-2.364,5.787-4.107,7.068
					c1.323,3.518,1.993,6.848,1.993,9.918c0,1.758-0.222,3.44-0.661,5.025c2.898,1.33,5.894,2.408,8.732,2.408
					c1.299,0,2.492-0.216,3.651-0.661c1.105-0.428,2.361,0.126,2.79,1.24c0.427,1.113-0.128,2.362-1.241,2.79
					C161.81,77.096,160.061,77.415,158.248,77.415z"/>
			</g>
			<g>
				<path style="fill:#525D7D;" d="M117.418,46.898c-0.122,0-0.245-0.011-0.368-0.032c-1.175-0.202-1.964-1.318-1.763-2.494
					c0.018-0.108,0.025-0.216,0.025-0.323c0-0.649-0.254-1.437-0.524-2.272c-0.323-1.001-0.69-2.135-0.69-3.333
					c0-2.692,1.905-4.723,4.431-4.723c1.4,0,2.419,0.995,4.958,4.842l0.089,0.134c0.661,0.992,0.391,2.333-0.602,2.993
					c-0.988,0.661-2.332,0.393-2.994-0.601l-0.097-0.148c-0.61-0.924-1.074-1.586-1.424-2.06c0.079,0.455,0.254,1,0.439,1.568
					c0.344,1.064,0.734,2.27,0.734,3.6c0,0.352-0.027,0.704-0.087,1.054C119.362,46.155,118.45,46.898,117.418,46.898z"/>
			</g>
			<g>
				<path style="fill:#525D7D;" d="M141.164,40.114c-0.049,0-0.097-0.001-0.146-0.005c-3.701-0.247-7.552-0.744-11.279-1.224
					c-3.659-0.472-7.444-0.961-11.012-1.199c-1.19-0.079-2.09-1.108-2.012-2.298c0.08-1.191,1.116-2.106,2.298-2.011
					c3.701,0.247,7.553,0.744,11.279,1.224c3.659,0.472,7.444,0.961,11.012,1.199c1.191,0.079,2.09,1.108,2.011,2.298
					C143.238,39.24,142.29,40.114,141.164,40.114z"/>
			</g>
			<g>
				<path style="fill:#525D7D;" d="M15.41,152.238c-0.954,0-1.827-0.637-2.084-1.604c-1.508-5.657-1.716-11.228-1.716-16.405
					c0-1.329,0.015-2.658,0.03-3.986c0.015-1.313,0.03-2.626,0.03-3.939c0-1.193,0.967-2.159,2.159-2.159s2.159,0.966,2.159,2.159
					c0,1.329-0.015,2.658-0.03,3.986c-0.016,1.313-0.03,2.626-0.03,3.939c0,4.884,0.19,10.116,1.57,15.293
					c0.308,1.152-0.378,2.335-1.529,2.642C15.781,152.214,15.594,152.238,15.41,152.238z"/>
			</g>
			<g>
				<path style="fill:#525D7D;" d="M189.757,156.465c-0.173,0-0.35-0.021-0.526-0.065c-1.157-0.289-1.86-1.462-1.57-2.619
					c0.777-3.107,1.155-6.442,1.155-10.194c0-4.746-0.611-9.64-1.203-14.373c-0.148-1.183,0.692-2.262,1.874-2.41
					c1.186-0.145,2.263,0.691,2.411,1.874c0.609,4.864,1.237,9.894,1.237,14.909c0,4.109-0.42,7.787-1.285,11.242
					C191.604,155.81,190.724,156.465,189.757,156.465z"/>
			</g>
		</g>
	</g>
</g>
<g id="Layer_1">
</g>
</svg>
