<?xml version="1.0" encoding="iso-8859-1"?>
<!-- Generator: Adobe Illustrator 21.0.2, SVG Export Plug-In . SVG Version: 6.00 Build 0)  -->
<svg version="1.1" xmlns="http://www.w3.org/2000/svg" xmlns:xlink="http://www.w3.org/1999/xlink" x="0px" y="0px"
	 viewBox="0 0 206.077 212.441" style="enable-background:new 0 0 206.077 212.441;" xml:space="preserve">
<g id="_x31_6">
	<g>
		<path style="fill:#E0DFE6;" d="M99.515,67.997c-11.874-5.057-26.033-4.157-38.393-1.236c-12.003,2.837-26.026,7.032-35.761,14.801
			c-1.299,1.037-0.194,3.24,1.327,3.203c11.211-0.27,22.522-4.331,33.497-6.456c12.761-2.47,23.611-0.291,36.222,1.164
			C102.324,80.155,105.035,70.348,99.515,67.997z"/>
		<path style="fill:#E0DFE6;" d="M172.452,64.962c-0.605-1.561-2.636-1.248-2.835,0.384c-1.672,13.736-6.318,26.159-16.084,36.231
			c-3.975,4.1-8.347,7.95-13.254,10.897c-1.193-5.172-4.777-8.094-7.824-12.947c-1.988-3.166-0.742-7.928-0.805-11.633
			c-0.075-4.346-0.432-8.917-1.378-13.168c-2.65-11.909-11.467-25.669-24.881-26.318c-1.37-0.066-1.862,1.637-1.055,2.546
			c10.605,11.933,12.581,24.114,11.062,39.756c-0.279,2.875-0.557,5.701-0.396,8.459c-0.35-0.207-1.063-0.563-2.101-1.325
			c-1.105-0.811-2.161-1.648-3.181-2.567c-2.296-2.068-4.54-4.2-6.706-6.403c-3.068-3.121-6.859-8.152-11.483-8.664
			c-0.338-0.037-0.651,0.267-0.742,0.565c-1.79,5.824,4.108,15.63,7.184,20.412c4.266,6.632,10.995,14.665,19.589,13.191
			c1.523-0.261,2.719-1.028,3.6-2.066c2.187,2.607,3.514,4.924,0.741,9.521c-3.173,5.259-8.557,9.002-12.108,14.041
			c-0.839,1.191-1.568,2.411-2.204,3.662c-4.391,5.364-7.214,12.043-12.232,17.172c-9.018,9.218-23.256,10.421-32.793,19.031
			c-1.248,1.126-0.228,3.171,1.327,3.203c5.383,0.109,10.716-1.219,15.913-2.802c-2.571,1.132-5.178,2.217-7.72,3.678
			c-1.715,0.986-2.024,3.447-0.623,4.836c6.227,6.172,16.821,3.826,23.763,0.089c1.525-0.821,3.238-1.896,4.941-3.153
			c0.546,0.02,1.087,0.033,1.606,0.014c-0.091,0.062-0.182,0.123-0.273,0.185c-1.735,1.174-2.403,2.988-2.097,4.695
			c-0.615,1.935-3.228,4.925-4.214,6.176c-1.517,1.923-3.232,3.639-5.069,5.229c-0.2-1.99-1.168-3.977-3.016-4.816
			c-0.716-0.325-1.46-0.72-2.228-0.897c-0.247-0.033-0.494-0.067-0.742-0.1c-0.037-0.009-0.094-0.022-0.202-0.043
			c-0.286-0.084-0.585-0.159-0.876-0.23c-0.515-0.295-1.059-0.478-1.582-0.704c-0.032-0.023-0.049-0.037-0.098-0.07
			c-0.538-0.364-1.101-0.677-1.676-0.976l0.054,0.133c-1.828-1.12-4.436-0.423-5.351,2.022c-0.826,2.207-0.216,5.443,1.124,7.348
			c1.454,2.069,3.228,3.698,5.44,4.582c-3.769,1.978-7.732,3.514-11.819,5.038c-0.99,0.369-1.2,1.95,0,2.227
			c9.308,2.151,19.4-1.069,26.89-6.683c5.436-4.075,16.478-13.809,12.714-21.483c-0.552-1.125-1.691-1.91-2.953-2.254
			c1.59-0.455,3.023-1.13,4.299-2.004c0.876,0.371,1.753,0.727,2.597,1.096c3.261,1.429,6.265,3.669,9.755,4.458
			c7.311,1.653,11.819-8.221,5.162-12.245c-2.547-1.539-6.472-2.548-10.475-2.788c1.803-4.452,2.727-9.586,3.144-14.436
			c1.013-11.79,11.999-18.202,17.42-27.832c9.637-2.775,20.017-12.852,24.649-18.513C172.19,96.686,178.325,80.118,172.452,64.962z"
			/>
		<path style="fill:#E0DFE6;" d="M188.666,23.087c-1.742,3.21-3.681,9.533-8.007,9.997c-2.538,0.272-5.664-2.053-8.329-2.157
			c-6.501-0.254-8.985,4.419-12.726,8.793c-0.921,1.077-0.4,3.142,1.259,3.039c4.472-0.277,6.431-3.59,10.999-1.337
			c3.518,1.736,6.06,4.126,10.321,4.055c9.685-0.159,16.654-10.766,17.488-19.409C200.243,20.136,191.337,18.166,188.666,23.087z"/>
		<path style="fill:#E0DFE6;" d="M171.422,172.062c-1.105-5.984-0.119-13.639-5.008-18.006c-0.867-0.774-1.841-1.099-2.813-1.048
			c0.197-1.851,0.201-3.685,0.035-5.382c-0.309-3.153-2.535-13.074-7.787-10.667c-3.037,1.392-2.948,7.086-3.71,9.882
			c-1.238,4.545-4.567,8.235-5.472,12.793c-0.159,0.799-0.158,1.583-0.05,2.335c-2,6.844,2.449,15.756,3.396,22.352
			c0.099,0.679,0.161,1.362,0.238,2.043c-1.747,0.323-3.684,0.688-4.154,0.747c-4.573,0.577-9.13,0.376-13.262,2.619
			c-2.086,1.132-2.42,4.193-0.75,5.818c2.046,1.991,4.627,3.136,7.386,3.801c-0.426,1.213,0.151,2.697,1.834,2.7
			c10.983,0.017,31.696,4.734,33.078-10.94C174.957,184.616,172.587,178.367,171.422,172.062z"/>
		<path style="fill:#E0DFE6;" d="M204.058,141.705c-0.139-0.354-0.341-0.628-0.574-0.844c-0.508-1.016-1.09-1.957-1.773-2.764
			c0.22-5.76-3.216-12.292-8.031-14.565c-1.812-0.856-4.875,0.111-4.561,2.617c0.4,3.183,1.762,6.091,2.331,9.243
			c0.129,0.715,0.254,1.417,0.388,2.11c-2.061,2.835-2.401,6.456-2.323,9.987c0.057,2.61,0.876,5.722,0.633,8.478
			c-2.274,1.238-6.002,2.006-7.974,3.119c-3.17,1.79-1.933,5.814,0.916,7.011c8.098,3.402,19.289,4.726,22.127-5.949
			c0.508-1.91,0.791-4.353,0.79-6.961C206.311,149.383,205.631,145.706,204.058,141.705z"/>
		<path style="fill:#E0DFE6;" d="M71.399,138.093c-2.663-4.365-7.88-2.328-10.731,0.635c1.337-1.39-0.63,0.519-0.867,0.74
			c-0.202,0.188-0.418,0.411-0.616,0.624c-0.348,0.165-0.674,0.327-0.973,0.506c-1.794,1.076-3.176,2.046-3.451,4.285
			c-0.245,1.996,1.703,3.871,3.275,4.806c2.044,1.217,4.849,1.114,7.096,0.634C70.362,149.205,74.464,143.116,71.399,138.093z"/>
		<path style="fill:#E0DFE6;" d="M66.39,96.495c-2.967-5.534-10.425-4.229-15.531-2.809c-4.711,1.31-9.479,3.91-12.168,8.094
			c-0.68,1.059,0.204,2.579,1.454,2.534c4.28-0.156,8.445-1.003,12.759-0.711c4.86,0.328,8.536,2.371,12.711-1.103
			C67.329,101.074,67.362,98.309,66.39,96.495z"/>
		<path style="fill:#E0DFE6;" d="M26.976,130.982c-1.728-1.728-4.36-1.866-6.624-1.397c-1.214,0.251-2.436,0.53-3.639,0.827
			c-0.508,0.126-1.021,0.221-1.502,0.43c-0.275,0.085-0.522,0.221-0.741,0.409c-0.589,0.516-0.702,0.575-0.336,0.176
			c-1.086,0.28-1.427,1.478-0.977,2.403c-0.343-0.705,0.105,0.559,0.186,0.82c0.236,0.76,0.711,1.305,1.231,1.884
			c0.952,1.057,2.065,1.858,3.345,2.469c3.53,1.685,8.653,2.1,10.292-2.392C28.939,134.614,28.503,132.509,26.976,130.982z"/>
		<g>
			<g>
				<path style="fill:#525D7D;" d="M67.531,182.362c-27.846,0-43.513-24.088-46.812-47.439c-0.547,0.086-1.093,0.128-1.645,0.128
					c-3.826,0-9.897-2.485-9.897-9.154c0-3.939,2.01-15.009,10.823-15.536c-0.071-0.771-0.143-1.544-0.215-2.315
					c-0.437-4.679-0.89-9.517-0.89-14.29c0-7.795,1.222-14.092,3.846-19.816c0.531-1.161,1.905-1.669,3.061-1.137
					c1.159,0.531,1.669,1.902,1.137,3.061c-2.336,5.1-3.425,10.785-3.425,17.892c0,4.557,0.442,9.287,0.87,13.86
					c0.156,1.672,0.313,3.343,0.45,5.012c0.059,0.711-0.216,1.409-0.743,1.891c-0.526,0.481-1.24,0.695-1.95,0.573
					c-0.51-0.087-1.009-0.132-1.481-0.132c-6.354,0-6.865,10.828-6.865,10.937c0,4.413,5.226,4.536,5.279,4.536
					c0.875,0,1.761-0.197,2.708-0.6c0.675-0.286,1.449-0.236,2.081,0.137c0.633,0.374,1.049,1.027,1.122,1.758
					c3.184,31.788,23.664,46.017,42.547,46.017c12.65,0,37.907-12.468,41.451-25.23c1.364-4.909,1.688-9.792,2.034-14.964
					c0.117-1.761,0.234-3.519,0.394-5.28c0.038-0.407,0.054-0.806,0.054-1.198c0-0.352-0.014-0.698-0.036-1.043
					c-0.069-1.06,0.595-2.03,1.609-2.351c5.232-1.654,8.747-6.036,8.747-10.906c0-4.874-2.7-6.31-6.436-8.297
					c-1.72-0.916-3.497-1.861-5.036-3.234c-0.69-0.616-0.946-1.585-0.65-2.461c2.181-6.463,3.989-12.28,3.989-18.019
					c0-5.092-1.219-9.051-3.837-12.462c-0.302-0.392-0.469-0.872-0.478-1.367c-0.391-22.966-23.465-25.445-33.368-25.445
					c-28.766,0-58.205,18.697-71.591,45.468c-0.57,1.141-1.955,1.601-3.099,1.033c-1.141-0.571-1.603-1.957-1.033-3.099
					c14.138-28.273,45.277-48.021,75.723-48.021c23.151,0,37.283,10.91,37.966,29.234c2.956,4.11,4.336,8.79,4.336,14.658
					c0,5.947-1.634,11.691-3.709,17.936c0.893,0.601,1.905,1.14,2.956,1.699c3.96,2.106,8.887,4.728,8.887,12.376
					c0,6.349-4.083,12.071-10.324,14.703c-0.009,0.4-0.03,0.804-0.068,1.215c-0.156,1.721-0.272,3.444-0.386,5.169
					c-0.346,5.175-0.702,10.527-2.192,15.891c-2.649,9.538-13.48,16.784-19.701,20.254C84.63,179.081,74.345,182.362,67.531,182.362
					z"/>
			</g>
			<g>
				<path style="fill:#525D7D;" d="M12.323,95.985c-0.547,0-1.098-0.194-1.538-0.588c-0.95-0.851-1.031-2.311-0.182-3.261
					C26.895,73.926,50.177,63.054,72.88,63.054c9.494,0,18.662,1.866,27.248,5.546c1.173,0.502,1.715,1.86,1.213,3.032
					c-0.504,1.171-1.863,1.711-3.032,1.213c-8.009-3.432-16.563-5.173-25.429-5.173c-21.41,0-43.405,10.297-58.835,27.543
					C13.588,95.725,12.957,95.985,12.323,95.985z"/>
			</g>
			<g>
				<path style="fill:#525D7D;" d="M108.705,104.747c-0.185,0-0.373-0.023-0.562-0.069c-1.237-0.31-1.989-1.564-1.679-2.801
					c0.024-0.098,0.036-0.189,0.036-0.284c0-2.305-3.947-6.644-7.119-10.129c-3.858-4.241-7.502-8.246-7.988-11.879
					c-0.022-0.192-0.034-0.361-0.034-0.525c0-2.275,1.825-3.656,3.437-4.877c1.254-0.95,2.551-1.932,2.956-3.144
					c0.401-1.209,1.711-1.869,2.921-1.46c1.21,0.403,1.863,1.711,1.46,2.921c-0.857,2.569-2.903,4.119-4.549,5.364
					C97.049,78.272,96.269,78.863,96,79.2c0.415,2.141,3.802,5.863,6.797,9.156c4.28,4.704,8.321,9.147,8.321,13.238
					c0,0.471-0.059,0.943-0.174,1.406C110.682,104.047,109.74,104.747,108.705,104.747z"/>
			</g>
			<g>
				<path style="fill:#525D7D;" d="M8.567,90.352c-0.472,0-0.947-0.143-1.356-0.442c-1.031-0.75-1.26-2.193-0.51-3.225
					c3.831-5.269,9.276-8.765,14.543-12.145c2.007-1.289,4.082-2.621,5.994-4.011c1.025-0.752,2.475-0.526,3.225,0.51
					c0.75,1.031,0.522,2.475-0.51,3.225c-2.021,1.47-4.152,2.838-6.215,4.163c-5.133,3.295-9.981,6.408-13.302,10.973
					C9.985,90.023,9.28,90.352,8.567,90.352z"/>
			</g>
			<g>
				<path style="fill:#525D7D;" d="M66.374,145.215c-4.652,0-9.559-1.675-13.817-4.715c-0.552-0.394-0.904-1.012-0.959-1.688
					c-0.056-0.676,0.189-1.344,0.669-1.824c0.937-0.937,2.055-1.594,3.138-2.231c3.739-2.198,8.392-4.934,8.392-22.419
					c0-9.251-2.078-18.614-6.047-18.614c-6.239,0-12.33,4.407-17.701,8.293c-0.929,0.672-1.84,1.332-2.735,1.957
					c-1.043,0.734-2.485,0.48-3.216-0.567c-0.732-1.045-0.478-2.485,0.567-3.216c0.876-0.613,1.768-1.258,2.676-1.915
					c5.94-4.298,12.674-9.171,20.409-9.171c9.895,0,10.665,17.783,10.665,23.232c0,18.149-4.811,22.873-10.273,26.164
					c4.091,2.073,8.559,2.654,12.262,1.496c1.216-0.386,2.512,0.296,2.894,1.514c0.38,1.218-0.296,2.512-1.514,2.894
					C70.069,144.943,68.25,145.215,66.374,145.215z"/>
			</g>
			<g>
				<path style="fill:#525D7D;" d="M71.81,161.408c-4.399,0-8.569-1.278-12.06-3.695c-1.048-0.726-1.31-2.165-0.583-3.214
					c0.728-1.046,2.166-1.307,3.214-0.583c2.714,1.881,5.975,2.874,9.429,2.874c6.266,0,12.546-3.282,16.001-8.364
					c0.717-1.055,2.154-1.326,3.208-0.61c1.054,0.717,1.328,2.153,0.61,3.208C87.276,157.429,79.68,161.408,71.81,161.408z"/>
			</g>
			<g>
				<path style="fill:#525D7D;" d="M46.256,115.548c-1.173,0-3.901-0.457-3.901-4.694c0-2.777,1.888-4.274,3.665-4.274
					c1.446,0,2.96,0.391,4.053,1.046c1.099,0.66,1.727,1.742,1.727,2.971c0,1.927-1.867,4.901-4.348,4.901
					c-0.168,0-0.334,0.012-0.495,0.021C46.715,115.534,46.48,115.548,46.256,115.548z M47.199,110.408L47.199,110.408
					L47.199,110.408z"/>
			</g>
			<g>
				<path style="fill:#525D7D;" d="M86.895,112.822c-2.293,0-4.231-2.033-4.231-4.438c0-2.379,1.346-4.282,3.689-5.22
					c0.508-0.203,1.072-0.221,1.589-0.046c2.378,0.792,3.742,2.309,3.742,4.161c0,0.171-0.012,0.344-0.039,0.52
					C91.299,110.226,89.514,112.822,86.895,112.822z"/>
			</g>
			<g>
				<path style="fill:#525D7D;" d="M17.364,210.064c-0.242,0-0.487-0.038-0.729-0.119c-1.21-0.403-1.864-1.711-1.461-2.92
					c0.162-0.49,0.346-1.153,0.567-1.947c2.058-7.392,7.526-27.03,28.195-27.03c1.299,0,2.577,0.075,3.811,0.149
					c1.2,0.071,2.33,0.137,3.446,0.137c1.973,0,3.452-0.214,4.797-0.695c1.2-0.43,2.521,0.198,2.951,1.4
					c0.429,1.201-0.198,2.523-1.4,2.951c-1.84,0.657-3.858,0.962-6.349,0.962c-1.251,0-2.505-0.074-3.716-0.146
					c-1.17-0.069-2.379-0.14-3.541-0.14c-17.162,0-21.776,16.574-23.747,23.65c-0.245,0.884-0.453,1.622-0.635,2.167
					C19.232,209.452,18.33,210.064,17.364,210.064z"/>
			</g>
			<g>
				<path style="fill:#525D7D;" d="M118.12,184.136c-0.128,0-0.257-0.01-0.386-0.032c-2.577-0.434-5.612-0.622-8.828-0.819
					c-6.826-0.422-14.562-0.899-22.162-3.822c-1.191-0.459-1.785-1.795-1.328-2.984c0.459-1.192,1.798-1.78,2.984-1.328
					c6.938,2.669,14.298,3.123,20.791,3.523c3.339,0.206,6.493,0.401,9.309,0.875c1.258,0.212,2.106,1.404,1.894,2.661
					C120.204,183.337,119.226,184.136,118.12,184.136z"/>
			</g>
			<g>
				<path style="fill:#525D7D;" d="M66.047,212.441c-5.235,0-11.372-7.714-21.182-26.627c-0.372-0.716-0.668-1.288-0.878-1.681
					c-0.606-1.123-0.185-2.523,0.938-3.127c1.125-0.606,2.523-0.183,3.129,0.938c0.218,0.406,0.526,1.001,0.911,1.742
					c11.3,21.785,15.709,24.136,17.082,24.136c0.215-0.006,23.744-2.566,31.513-25.872c0.401-1.209,1.711-1.869,2.921-1.46
					c1.21,0.403,1.863,1.711,1.46,2.921C93.948,207.394,70.361,212.441,66.047,212.441z"/>
			</g>
			<g>
				<path style="fill:#525D7D;" d="M52.464,193.586c-1.088,0-2.058-0.774-2.267-1.884c-0.234-1.254,0.591-2.46,1.845-2.696
					c3.196-0.6,6.015-2.738,8.999-5c1.694-1.285,3.446-2.615,5.325-3.689c1.105-0.628,2.518-0.247,3.151,0.86
					c0.631,1.106,0.248,2.518-0.86,3.151c-1.618,0.925-3.175,2.106-4.826,3.357c-3.279,2.488-6.671,5.061-10.939,5.862
					C52.748,193.574,52.605,193.586,52.464,193.586z"/>
			</g>
			<g>
				<path style="fill:#525D7D;" d="M90.794,195.019c-0.365,0-0.735-0.086-1.08-0.268c-1.681-0.89-3.399-1.688-5.22-2.532
					c-4.637-2.15-9.431-4.372-13.543-8.209c-0.932-0.87-0.983-2.332-0.113-3.264c0.869-0.932,2.332-0.982,3.264-0.113
					c3.572,3.333,7.828,5.307,12.334,7.395c1.795,0.831,3.65,1.693,5.439,2.639c1.126,0.597,1.556,1.995,0.961,3.123
					C92.422,194.572,91.621,195.019,90.794,195.019z"/>
			</g>
			<g>
				<path style="fill:#525D7D;" d="M64.69,199.281c-0.256,0-0.51-0.016-0.761-0.051c-2.823-0.379-4.456-2.679-6.717-5.862
					l-0.534-0.749c-0.741-1.039-0.501-2.481,0.537-3.222c1.039-0.741,2.479-0.501,3.222,0.537l0.54,0.759
					c1.528,2.15,2.733,3.847,3.568,3.96c1.673,0.195,6.635-3.661,11.534-7.672c0.989-0.806,2.442-0.662,3.25,0.325
					c0.807,0.988,0.662,2.443-0.325,3.25C71.759,196.485,67.976,199.281,64.69,199.281z"/>
			</g>
			<g>
				<path style="fill:#525D7D;" d="M80.766,204.69c-0.591,0-1.182-0.226-1.633-0.677c-1.096-1.096-2.042-2.285-2.956-3.435
					c-1.275-1.604-2.479-3.12-3.961-4.231c-1.019-0.765-1.227-2.213-0.462-3.234c0.767-1.018,2.213-1.224,3.234-0.462
					c1.956,1.469,3.404,3.291,4.805,5.053c0.872,1.096,1.696,2.132,2.605,3.043c0.902,0.902,0.902,2.363,0,3.265
					C81.948,204.465,81.357,204.69,80.766,204.69z"/>
			</g>
			<g>
				<path style="fill:#525D7D;" d="M126.058,87.305c-0.374,0-0.752-0.012-1.131-0.035c-4.04-0.244-8.372-2.76-11.309-6.57
					c-0.777-1.01-0.589-2.461,0.42-3.24c1.013-0.779,2.46-0.589,3.24,0.42c2.079,2.699,5.265,4.62,7.926,4.781
					c4.73,0.281,7.812-1.723,9.584-3.456c2.548-2.491,3.989-6.098,3.855-9.649c-0.132-3.509-1.631-6.57-4.113-8.397
					c-1.678-1.234-3.126-1.857-4.785-2.41c-1.057-0.353-2.195-0.496-3.292-0.511c-2.959,0.041-5.901,1.344-8.069,3.577
					c-2.3,2.368-3.538,5.603-3.483,9.111c0.006,0.388,0.022,0.77,0.048,1.141c0.083,1.261-0.86,2.404-2.121,2.503
					c-1.237,0.125-2.362-0.785-2.478-2.045c-0.003-0.033-0.01-0.162-0.012-0.196c-0.027-0.4-0.047-0.86-0.056-1.328
					c-0.074-4.748,1.627-9.151,4.788-12.406c3.017-3.105,7.144-4.919,11.322-4.976c1.667-0.004,3.27,0.232,4.815,0.749
					c2.452,0.818,4.208,1.708,6.06,3.072c3.622,2.667,5.805,7.019,5.991,11.942c0.185,4.904-1.725,9.688-5.241,13.126
					C134.83,85.624,130.618,87.305,126.058,87.305z"/>
			</g>
			<g>
				<path style="fill:#525D7D;" d="M99.106,75.653c-1.219,0-2.239-0.955-2.305-2.186c-0.035-0.651-0.059-1.316-0.071-1.991
					c-0.004-0.287-0.006-0.573-0.003-0.858c0.015-1.275,0.997-2.333,2.336-2.282c1.275,0.015,2.297,1.06,2.282,2.336
					c-0.003,0.24-0.002,0.484,0.003,0.728c0.009,0.619,0.033,1.227,0.065,1.821c0.068,1.275-0.91,2.362-2.183,2.43
					C99.189,75.652,99.147,75.653,99.106,75.653z"/>
			</g>
			<g>
				<path style="fill:#525D7D;" d="M125.365,101.189c-0.687,0-1.377-0.021-2.072-0.063c-3.28-0.197-6.802-1.279-10.183-3.129
					c-1.119-0.613-1.531-2.016-0.919-3.135c0.615-1.12,2.018-1.529,3.135-0.919c2.789,1.526,5.639,2.414,8.243,2.572
					c7.821,0.478,15.07-2.153,20.419-7.383c5.499-5.378,8.487-12.859,8.197-20.525c-0.284-7.538-3.542-14.141-8.939-18.113
					c-3.517-2.587-6.528-3.882-9.968-5.029c-2.303-0.768-4.673-1.159-7.165-1.114c-7.443,0.102-14.694,3.865-19.393,10.064
					c-0.77,1.016-2.216,1.215-3.235,0.445c-1.016-0.77-1.216-2.219-0.445-3.235c5.551-7.325,14.153-11.77,23.014-11.892
					c2.953-0.027,5.89,0.419,8.685,1.352c4.561,1.521,7.819,3.169,11.244,5.69c6.537,4.811,10.48,12.705,10.817,21.658
					c0.338,8.966-3.154,17.715-9.583,24.001C141.403,98.12,133.707,101.189,125.365,101.189z"/>
			</g>
			<g>
				<path style="fill:#525D7D;" d="M125.421,115.288c-0.68,0-1.358-0.015-2.042-0.046c-1.274-0.057-2.26-1.137-2.201-2.411
					c0.059-1.272,1.126-2.248,2.411-2.201c18.461,0.833,35.469-11.071,41.385-28.963c3.703-11.202,2.524-22.676-3.234-31.482
					c-3.174-4.852-6.574-8.53-11.739-12.698c-2.975-2.399-6.316-4.274-9.929-5.57c-16.317-5.832-34.991,0.368-45.399,15.084
					c-0.737,1.042-2.181,1.288-3.219,0.552c-1.042-0.737-1.289-2.177-0.552-3.219c11.6-16.401,32.457-23.297,50.727-16.765
					c4.103,1.472,7.893,3.599,11.27,6.325c5.569,4.491,9.249,8.479,12.704,13.762c6.534,9.99,7.904,22.915,3.754,35.46
					C163.015,102.301,145.132,115.288,125.421,115.288z"/>
			</g>
			<g>
				<path style="fill:#525D7D;" d="M149.22,164.021c-0.359,0-0.722-0.01-1.085-0.03c-8.687-0.487-15.718-8.433-15.673-17.712
					c0.045-8.914,5.878-16.15,13.871-17.21c0.661-0.089,1.326-0.153,1.994-0.182c11.536-0.448,18.23,7.075,18.925,14.78
					c0.502,5.585-1.37,11.023-5.134,14.918C158.705,162.114,154.16,164.021,149.22,164.021z M149.32,133.487
					c-0.263,0-0.529,0.005-0.801,0.017c-0.525,0.022-1.051,0.074-1.574,0.144c-6.441,0.852-9.837,7.01-9.865,12.654
					c-0.033,6.86,5.041,12.726,11.313,13.077c3.975,0.236,7.691-1.197,10.402-4.002c2.832-2.93,4.237-7.047,3.855-11.294
					C162.167,138.729,157.448,133.487,149.32,133.487z"/>
			</g>
			<g>
				<path style="fill:#525D7D;" d="M136.962,198.648c-4.016,0-5.916-0.062-7.304-1.472c-1.334-1.354-1.303-3.13-1.257-5.818
					c0.01-0.606,0.022-1.288,0.022-2.055c0-6.532,0-26.412,16.826-30.774c1.237-0.316,2.496,0.422,2.814,1.657
					c0.32,1.234-0.421,2.494-1.657,2.814c-9.118,2.363-13.366,10.721-13.366,26.302c0,0.797-0.012,1.505-0.022,2.135
					c-0.017,0.914-0.033,1.927,0.027,2.448c0.761,0.147,2.589,0.146,4.489,0.144h0.694c3.362,0,6.832-0.302,10.186-0.595
					c3.453-0.302,7.024-0.613,10.585-0.613c0.359,0,0.69,0.02,0.992,0.042c0.186-1.458,0.186-4.441,0.186-5.552
					c0-6.319-1.227-17.856-9.44-24.137c-1.013-0.774-1.206-2.223-0.432-3.237c0.774-1.013,2.227-1.206,3.237-0.432
					c9.792,7.487,11.253,20.634,11.253,27.806c0,6.106-0.209,8.072-1.591,9.342c-1.111,1.022-2.449,0.908-3.33,0.834
					c-0.259-0.021-0.55-0.048-0.877-0.048c-3.36,0-6.83,0.302-10.184,0.595c-3.453,0.302-7.024,0.613-10.587,0.613h-0.692
					C137.343,198.648,137.15,198.648,136.962,198.648z M133.098,194.151h0.016H133.098z"/>
			</g>
			<g>
				<path style="fill:#525D7D;" d="M188.972,145.424c-3.53,0-6.779-1.364-9.219-3.888c-2.687-2.778-4.022-6.654-3.664-10.632
					c0.573-6.356,6.344-10.93,13.517-10.632c0.471,0.02,0.941,0.066,1.409,0.128c5.757,0.761,9.959,5.945,9.993,12.325
					c0.032,6.642-5.02,12.328-11.261,12.678C189.487,145.416,189.229,145.424,188.972,145.424z M188.91,124.877
					c-5.02,0-7.927,3.186-8.221,6.442c-0.238,2.64,0.632,5.194,2.385,7.008c1.669,1.727,3.967,2.613,6.415,2.464
					c3.826-0.214,6.922-3.822,6.901-8.043c-0.018-3.47-2.078-7.253-5.979-7.768c-0.329-0.044-0.662-0.078-0.995-0.092
					C189.245,124.88,189.075,124.877,188.91,124.877z"/>
			</g>
			<g>
				<path style="fill:#525D7D;" d="M197.209,168.727c-0.122,0-0.248,0-0.376,0h-0.465c-2.429,0-4.85-0.21-7.189-0.415
					c-2.344-0.204-4.558-0.398-6.788-0.398c-0.197,0-0.371,0.017-0.528,0.03c-0.631,0.056-1.824,0.152-2.814-0.758
					c-1.201-1.105-1.314-2.754-1.314-6.844c0-4.966,1.022-14.077,7.869-19.313c1.01-0.773,2.461-0.583,3.237,0.432
					c0.081,0.105,0.152,0.216,0.21,0.329c0.364-1.171,1.583-1.854,2.786-1.549c11.887,3.083,11.887,16.901,11.887,21.442
					c0,0.511,0.008,0.965,0.015,1.37c0.032,1.855,0.057,3.32-1.063,4.458C201.528,168.68,200.053,168.727,197.209,168.727z
					 M182.414,163.295c2.422,0.002,4.833,0.212,7.167,0.415c2.344,0.204,4.558,0.398,6.788,0.398h0.469
					c0.84-0.001,1.708,0.002,2.294-0.028c0.002-0.289-0.005-0.628-0.01-0.947c-0.008-0.429-0.015-0.908-0.015-1.449
					c0-10.225-2.599-15.458-8.43-16.971c-0.655-0.17-1.173-0.606-1.464-1.164c-0.137,0.442-0.407,0.846-0.803,1.149
					c-5.27,4.031-6.056,11.531-6.056,15.645C182.354,161.631,182.373,162.617,182.414,163.295z"/>
			</g>
			<g>
				<path style="fill:#525D7D;" d="M127.379,71.713c-0.568,0-1.137-0.207-1.583-0.628c-0.928-0.873-0.973-2.335-0.098-3.264
					c12.06-12.812,25.062-25.051,37.637-36.886c0.928-0.874,2.411-0.846,3.282,0.081c0.875,0.929,0.848,2.372-0.08,3.246
					c-12.561,11.824-25.512,24.014-37.477,36.726C128.606,71.469,127.993,71.713,127.379,71.713z"/>
			</g>
			<g>
				<path style="fill:#525D7D;" d="M179.165,36.842c-0.143,0-0.286-0.014-0.428-0.041c-5.26-0.991-10.357-2.169-15.15-3.5
					c-1-0.278-1.691-1.188-1.691-2.225c0-4.62,0-9.398-0.544-14.03c-0.09-0.776,0.216-1.544,0.816-2.045
					c3.004-2.499,6.084-4.963,9.063-7.346c2.894-2.316,5.889-4.711,8.792-7.124c0.692-0.571,1.648-0.693,2.454-0.316
					c0.81,0.378,1.329,1.19,1.332,2.084c0.014,3.858,0.048,8.818,0.196,14.05c3.295,0.206,7.024,0.469,10.93,0.849
					c0.902,0.089,1.669,0.696,1.962,1.553c0.292,0.858,0.056,1.807-0.604,2.428l-2.871,2.69c-4.222,3.945-8.586,8.025-12.575,12.248
					C180.404,36.585,179.793,36.842,179.165,36.842z M166.512,29.312c3.791,1.007,7.765,1.918,11.85,2.717
					c3.547-3.689,7.31-7.236,10.99-10.677c-2.778-0.217-5.393-0.379-7.728-0.517c-1.191-0.069-2.132-1.034-2.173-2.227
					c-0.137-4.032-0.201-7.966-0.234-11.445c-1.711,1.387-3.423,2.757-5.103,4.101c-2.646,2.117-5.373,4.298-8.042,6.501
					C166.455,21.643,166.506,25.52,166.512,29.312z"/>
			</g>
		</g>
	</g>
</g>
<g id="Layer_1">
</g>
</svg>
