<?xml version="1.0" encoding="iso-8859-1"?>
<!-- Generator: Adobe Illustrator 21.0.2, SVG Export Plug-In . SVG Version: 6.00 Build 0)  -->
<svg version="1.1" xmlns="http://www.w3.org/2000/svg" xmlns:xlink="http://www.w3.org/1999/xlink" x="0px" y="0px"
	 viewBox="0 0 200.07 194.246" style="enable-background:new 0 0 200.07 194.246;" xml:space="preserve">
<g id="_x31_8">
	<g>
		<path style="fill:#E0DFE6;" d="M64.976,25.663c-9.826-1.079-19.943,9.841-25.331,16.951c-3.63,4.79-12.599,17.227-7.813,23.139
			c0.261,0.322,0.762,0.392,1.138,0.301c3.34-0.808,4.012-3.478,5.667-6.344c2.562-4.437,5.425-8.504,8.871-12.299
			c3.156-3.476,6.58-6.615,10.454-9.285c3.637-2.506,7.062-4.282,9.539-8.063C68.834,28.027,67.014,25.887,64.976,25.663z"/>
		<path style="fill:#E0DFE6;" d="M151.53,45.722c-0.476-0.631-1.503-0.287-1.315,0.555c1.188,5.331,2.499,10.688,3.728,16.061
			c-2.842-6.332-6.414-12.339-10.307-17.795c-0.653-0.916-2.21-0.399-1.891,0.797c5.297,19.878,10.708,42.972-1.113,61.79
			c-5.018,7.988-12.711,13.935-18.325,21.49c-1.885,2.536-3.889,5.497-5.393,8.609c-10.948,1.404-24.668,2.133-33.614,8.418
			c-2.132,1.498-1.399,4.827,1.339,4.945c10.45,0.451,20.735,0.914,31.162,0.846c0.423,0.846,0.935,1.678,1.613,2.478
			c0.345,0.407,0.81,0.742,1.326,1.021c-1.55,0.199-3.106,0.464-4.618,0.606c-5.497,0.515-10.955,1.222-16.428,1.947
			c-3,0.397-3.006,4.28,0,4.678c5.473,0.724,10.931,1.431,16.428,1.946c2.459,0.23,5.037,0.791,7.512,0.856
			c-0.182,0.349-0.384,0.695-0.548,1.048c-5.168-0.366-11.601,1.382-16.149,2.087c-7.554,1.171-15.833,2.855-22.316,7.083
			c-1.599,1.042-0.816,3.136,0.908,3.353c6.605,0.832,13.439-0.056,20.088-0.143c4.639-0.061,9.302,0.386,13.938,0.545
			c-6.206,2.305-11.9,6.081-17.933,8.657c-1.222,0.522-1.621,2.468-0.92,3.508c2.271,3.369,5.612,3.072,9.311,2.584
			c5.646-0.745,11.947-1.415,17.244-3.507c5.637-2.227,5.607-9.024,1.867-11.683c0.218-0.146,0.428-0.308,0.624-0.493
			c4.001-3.774,5.506-9.676,9.14-13.984c3.791-4.493,8.181-8.441,12.131-12.788c8.312-9.148,14.422-20.145,17.773-32.05
			C173.949,93.757,167.236,66.546,151.53,45.722z M153.998,121.756c-4.643,11.578-12.54,20.17-21.016,29.05
			c-1.566,1.64-3.364,3.496-5.131,5.498c-0.977-0.689-2.019-1.109-3.103-1.35c0.042-0.029,0.093-0.045,0.133-0.075
			c4.802-3.591,4.52-7.409,6.996-12.446c2.502-5.089,6.538-9.22,10.318-13.355c6.693-7.321,12.976-14.8,16.007-24.422
			c0.021-0.067,0.038-0.135,0.059-0.202C157.632,110.239,156.302,116.011,153.998,121.756z"/>
		<path style="fill:#E0DFE6;" d="M190.615,64.888c-3.028,1.548-4.847,4.418-6.479,7.31c-0.168-0.204-0.334-0.408-0.504-0.611
			c-1.191-1.413-4.023-1.092-4.804,0.619c-1.216,2.665-1.669,5.258-0.68,8.109c1.189,3.428,4.616,6.031,8.287,6.075
			c4.034,0.049,6.3-2.518,8.535-5.416c2.571-3.333,4.792-6.315,5.086-10.669C200.397,65.268,194.551,62.875,190.615,64.888z"/>
		<g>
			<path style="fill:#E0DFE6;" d="M130.148,9.744c-1.953,0.309-3.979,1.845-5.426,3.151c-0.137,0.123-0.226,0.214-0.285,0.284
				c-0.174-0.119-0.391-0.269-0.665-0.457c-0.072-0.03-0.168-0.07-0.369-0.167c-1.058-0.513-1.951-1.084-3.215-0.66
				c-7.031,2.36-3.71,11.419,1.345,13.928c6.69,3.32,17.342-1.408,16.995-9.694C138.334,11.468,134.476,9.06,130.148,9.744z"/>
			<path style="fill:#E0DFE6;" d="M123.76,12.713C124.036,12.809,123.133,12.279,123.76,12.713L123.76,12.713z"/>
		</g>
		<path style="fill:#E0DFE6;" d="M167.876,24.918c-3.685,0.176-5.915,2.156-8.326,4.678c-0.041,0.043-0.285,0.26-0.508,0.471
			c-0.427-0.08-0.667-0.106-0.078,0.074c-1.753-0.341-3.268,0.557-4.268,1.923c-3.612,4.937,2.245,10.626,7.17,10.621
			c5.399-0.006,10.772-4.213,12.553-9.176C175.876,29.45,172.056,24.718,167.876,24.918z"/>
		<path style="fill:#E0DFE6;" d="M67.528,63.168c-4.072,1.467-5.591,4.823-8.893,7.205c-1.884,1.359-4.153,1.081-6.307,1.464
			c-1.287,0.229-2.618,1.881-2.452,3.221c0.716,5.804,7.262,8.105,12.458,7.082c6.315-1.244,12.333-6.621,12.776-13.197
			C75.358,65.244,71.053,61.898,67.528,63.168z"/>
		<g>
			<path style="fill:#E0DFE6;" d="M105.497,103.095c0.175-0.035,0.351-0.068,0.542-0.094
				C105.26,103.108,105.257,103.118,105.497,103.095z"/>
			<path style="fill:#E0DFE6;" d="M115.187,99.261c-0.972,0.259-1.903,0.678-2.762,1.195c-0.328,0.197-3.047,2.04-1.5,1.035
				c-0.42,0.272-0.831,0.556-1.256,0.821c-0.076,0.04-0.116,0.064-0.159,0.089c-0.142,0.045-0.282,0.096-0.426,0.134
				c-0.375,0.104-0.751,0.235-1.134,0.32c-0.377,0.023-1.767,0.17-1.926,0.184c-0.194,0.022-0.397,0.044-0.529,0.057
				c-0.727,0.144-1.338,0.38-1.961,0.942c-4.519,4.08,1.543,9.621,5.549,10.721c5.841,1.603,12.816-0.734,14.727-6.872
				C125.428,102.698,120.207,97.924,115.187,99.261z"/>
			<path style="fill:#E0DFE6;" d="M106.153,103.022c-0.14,0.016-0.166,0.02-0.127,0.016
				C106.459,102.99,106.828,102.944,106.153,103.022z"/>
		</g>
		<path style="fill:#E0DFE6;" d="M124.88,68.701c-6.187-4.766-17.741-0.441-24.791,0.866c-6.148,1.14-11.98,1.704-15.724,7.086
			c-1.265,1.818,1.107,3.398,2.708,2.708c5.341-2.304,14.386-0.39,20.015-0.494c6.431-0.119,13.997,1.405,18.612-3.808
			C127.595,72.918,127.014,70.345,124.88,68.701z"/>
		<g>
			<g>
				<path style="fill:#525D7D;" d="M99.759,194.246c-24.714,0-25.377-13.127-25.963-24.708c-0.216-4.284-0.44-8.715-1.749-12.641
					c-2.941-8.819-9.772-15.923-17.003-23.443c-8.442-8.778-17.171-17.856-20.288-30.455c-1.084-4.379-1.712-8.968-1.865-13.64
					c-0.552-16.802,4.882-33.817,14.905-46.685c10.69-13.722,25.758-21.918,42.432-23.079c0.672-0.048,1.362-0.087,2.061-0.117
					c18.031-0.867,36.887,6.493,50.4,19.696c13.34,13.034,20.43,30.511,19.963,49.208c-0.207,8.324-1.955,16.28-5.195,23.646
					c-4.856,11.038-10.61,20.525-18.651,30.759c-9.769,12.434-10.712,22.839-11.472,31.2
					C126.163,186.925,124.305,194.246,99.759,194.246z M95.18,23.727c-0.901,0-1.799,0.021-2.696,0.065
					c-0.671,0.028-1.319,0.065-1.951,0.11c-27.206,1.896-54.588,26.846-53.326,65.317c0.143,4.369,0.73,8.657,1.742,12.743
					c2.838,11.477,11.161,20.13,19.208,28.499c7.246,7.534,14.738,15.326,17.987,25.07c1.496,4.485,1.735,9.215,1.965,13.788
					c0.606,11.965,1.043,20.609,21.651,20.609c21.796,0,22.26-5.118,23.276-16.331c0.766-8.456,1.816-20.039,12.375-33.478
					c7.81-9.938,13.39-19.138,18.095-29.832c3.012-6.847,4.639-14.253,4.83-22.012c0.437-17.486-6.19-33.827-18.663-46.013
					C127.675,30.541,111.222,23.727,95.18,23.727z"/>
			</g>
			<g>
				<path style="fill:#525D7D;" d="M73.792,157.504c-1.188,0-2.153-0.96-2.159-2.149c-0.006-1.193,0.957-2.163,2.149-2.169
					c19.893-0.087,39.545-0.859,56.144-1.6c0.034-0.003,0.066-0.003,0.098-0.003c1.148,0,2.104,0.904,2.155,2.062
					c0.053,1.192-0.869,2.201-2.059,2.253C113.476,156.644,93.77,157.415,73.792,157.504z"/>
			</g>
			<g>
				<path style="fill:#525D7D;" d="M102.611,167.577c-6.729,0-13.307-0.243-19.551-0.725c-1.189-0.091-2.079-1.129-1.986-2.318
					c0.091-1.191,1.137-2.104,2.318-1.986c6.134,0.472,12.6,0.711,19.219,0.711c7.625,0,15.529-0.304,24.163-0.928
					c1.184-0.09,2.224,0.808,2.309,1.997c0.086,1.189-0.808,2.224-1.997,2.309C118.348,167.27,110.342,167.577,102.611,167.577z"/>
			</g>
			<g>
				<path style="fill:#525D7D;" d="M85.709,180.714c-1.115,0-2.061-0.859-2.149-1.989c-0.094-1.189,0.793-2.228,1.982-2.322
					c8.125-0.642,16.366-1.013,24.337-1.373c4.578-0.207,9.155-0.413,13.733-0.67c1.184-0.045,2.21,0.845,2.277,2.035
					c0.066,1.191-0.845,2.21-2.035,2.277c-4.594,0.257-9.187,0.464-13.781,0.672c-7.935,0.357-16.14,0.728-24.191,1.363
					C85.824,180.711,85.766,180.714,85.709,180.714z"/>
			</g>
			<g>
				<path style="fill:#525D7D;" d="M26.264,69.076C9.082,69.076,0,60.744,0,44.981c0-6.636,5.132-12.083,12.326-13.772
					c2.182-12.984,14.498-21.506,18.85-21.506c0.453,0,0.909,0.031,1.352,0.062c0.32,0.024,0.632,0.048,0.928,0.048l0.301-0.014
					c0.302-0.015,0.685-0.034,1.067-0.034c4.913,0,10.078,2.603,13.11,7.162c0.54-0.055,1.101-0.084,1.681-0.084
					c13.14,0,15.181,6.706,16.162,9.928c0.111,0.367,0.26,0.859,0.354,1.051c0.749,0.848,0.718,2.144-0.093,2.955
					c-0.843,0.843-2.21,0.843-3.053,0c-0.724-0.724-1.023-1.707-1.34-2.748c-0.873-2.869-2.065-6.788-11.731-6.867
					c0.445,1.496,0.69,3.116,0.69,4.854c0,5.551-3.733,8.047-6.384,8.047c-2.758,0-6.317-3.662-6.317-7.551
					c0-3.185,1.895-6.505,5.495-8.307c-2.018-2.435-4.989-4.121-8.574-4.121c-0.302,0-0.607,0.017-0.846,0.028
					c-0.221,0.011-0.403,0.02-0.521,0.02c-0.392,0-0.808-0.028-1.236-0.058c-0.343-0.025-0.694-0.052-1.044-0.052
					c-2.049,0.068-12.006,6.168-14.363,16.646c6.571-0.15,11.692,4.99,11.692,11.842c0,3.729-1.455,7.491-4.706,7.491
					c-0.157,0-0.295-0.01-0.422-0.024c-0.402,0.24-1.039,0.624-1.919,0.624c-2.827,0-9.177-5.571-9.454-14.787
					c-4.519,1.542-7.686,5.071-7.686,9.169c0,13.491,6.973,19.776,21.946,19.776c3.24,0,6.788-0.359,10.846-1.097
					c1.178-0.215,2.297,0.564,2.51,1.737c0.214,1.174-0.565,2.297-1.737,2.51C33.567,68.695,29.767,69.076,26.264,69.076z
					 M16.314,35.001c-0.001,0.062-0.001,0.122-0.001,0.184c0,6.375,3.603,10.111,5.056,10.963c0.412-0.233,1.043-0.526,1.851-0.526
					c0.115,0,0.222,0.007,0.326,0.017c0.295-0.491,0.641-1.753,0.641-3.13c0-3.74-2.435-7.526-7.087-7.526
					C16.835,34.983,16.574,34.989,16.314,35.001z M45.555,21.975c-2.186,1.009-3.334,2.809-3.334,4.536
					c0,1.585,1.511,2.97,2.104,3.223c0.617-0.1,1.961-1.039,1.961-3.719C46.286,24.663,46.032,23.287,45.555,21.975z M66.038,27.723
					c0,0,0.001,0,0.001,0.001C66.04,27.723,66.038,27.723,66.038,27.723z"/>
			</g>
			<g>
				<path style="fill:#525D7D;" d="M62.582,78.742c-0.718,0-1.393-0.358-1.795-0.959c-0.782-1.169-1.555-2.343-2.329-3.518
					c-2.869-4.355-5.835-8.857-9.227-13.098c-0.564-0.706-0.628-1.688-0.163-2.463c0.467-0.775,1.354-1.174,2.255-1.006
					c6.082,1.16,12.521,1.279,18.748,1.394l1.234,0.022c0.772,0.016,1.476,0.44,1.848,1.115c0.374,0.675,0.358,1.498-0.039,2.158
					c-3.125,5.188-6.119,10.61-8.636,15.229c-0.363,0.663-1.044,1.089-1.799,1.123C62.646,78.741,62.614,78.742,62.582,78.742z
					 M55.828,62.722c2.208,3.053,4.245,6.145,6.237,9.167c0.114,0.173,0.228,0.346,0.342,0.519c1.588-2.883,3.314-5.965,5.112-9.047
					C63.653,63.279,59.727,63.145,55.828,62.722z"/>
			</g>
			<g>
				<path style="fill:#525D7D;" d="M113.282,109.561c-0.718,0-1.393-0.358-1.795-0.959c-0.783-1.174-1.559-2.35-2.336-3.531
					c-2.866-4.351-5.831-8.85-9.218-13.084c-0.565-0.706-0.631-1.69-0.165-2.463c0.465-0.773,1.358-1.175,2.253-1.008
					c6.077,1.157,12.509,1.278,18.73,1.393l1.257,0.024c0.77,0.015,1.475,0.44,1.848,1.115c0.372,0.675,0.357,1.498-0.041,2.158
					c-3.15,5.232-6.134,10.634-8.638,15.229c-0.361,0.663-1.044,1.089-1.799,1.123C113.346,109.559,113.314,109.561,113.282,109.561
					z M106.529,93.539c2.204,3.05,4.239,6.138,6.227,9.158c0.117,0.176,0.233,0.353,0.35,0.53c1.583-2.874,3.308-5.954,5.114-9.047
					C114.354,94.097,110.428,93.962,106.529,93.539z"/>
			</g>
			<g>
				<path style="fill:#525D7D;" d="M128.69,21.083c-0.72,0-1.393-0.358-1.795-0.96c-0.776-1.161-1.545-2.329-2.315-3.497
					c-2.873-4.362-5.843-8.871-9.239-13.117c-0.565-0.706-0.631-1.688-0.164-2.463s1.349-1.178,2.255-1.006
					c6.083,1.16,12.523,1.279,18.75,1.394l1.234,0.022c0.772,0.016,1.476,0.44,1.848,1.115c0.374,0.675,0.358,1.498-0.039,2.158
					c-3.137,5.209-6.127,10.622-8.638,15.229c-0.363,0.663-1.044,1.089-1.799,1.123C128.755,21.081,128.723,21.083,128.69,21.083z
					 M121.937,5.063c2.213,3.06,4.253,6.16,6.248,9.187c0.11,0.166,0.219,0.333,0.329,0.499c1.585-2.879,3.312-5.96,5.112-9.047
					C129.761,5.619,125.837,5.486,121.937,5.063z"/>
			</g>
			<g>
				<path style="fill:#525D7D;" d="M187.575,77.806c-0.69,0-1.345-0.332-1.754-0.9c-0.873-1.217-1.737-2.435-2.601-3.65
					c-2.865-4.033-5.826-8.205-8.975-12.132c-0.51-0.637-0.618-1.504-0.281-2.246c0.337-0.741,1.064-1.229,1.878-1.262
					c6.325-0.254,12.752-0.929,18.966-1.583l0.478-0.051c0.763-0.073,1.524,0.257,1.976,0.884c0.453,0.628,0.534,1.451,0.215,2.155
					c-0.873,1.927-1.775,3.85-2.678,5.777c-1.785,3.809-3.632,7.748-5.225,11.662c-0.297,0.728-0.966,1.238-1.746,1.33
					C187.744,77.8,187.659,77.806,187.575,77.806z M180.173,61.709c2.276,3.002,4.449,6.062,6.569,9.048
					c0.117,0.165,0.233,0.329,0.35,0.495c1.229-2.803,2.529-5.578,3.798-8.286c0.359-0.765,0.717-1.529,1.074-2.294
					C188.078,61.072,184.129,61.451,180.173,61.709z"/>
			</g>
			<g>
				<path style="fill:#525D7D;" d="M164.85,34.084c-0.571,0-1.124-0.226-1.535-0.641c-2.495-2.522-4.786-5.183-7.003-7.756
					l-1.34-1.552c-0.502-0.579-0.659-1.38-0.413-2.106c0.245-0.725,0.856-1.267,1.605-1.423l0.888-0.184
					c4.325-0.898,8.799-1.826,13.077-2.986c0.831-0.233,1.723,0.065,2.259,0.745c0.537,0.678,0.616,1.611,0.203,2.37
					c-1.906,3.503-3.732,7.381-5.749,12.205c-0.278,0.666-0.872,1.15-1.58,1.288C165.126,34.071,164.986,34.084,164.85,34.084z
					 M160.635,24.087c1.146,1.326,2.315,2.664,3.52,3.974c0.828-1.889,1.633-3.636,2.436-5.285
					C164.604,23.24,162.61,23.671,160.635,24.087z"/>
			</g>
			<g>
				<path style="fill:#525D7D;" d="M11.651,103.733c-0.72,0-1.423-0.36-1.832-1.015c-0.633-1.011-0.325-2.343,0.686-2.974
					c8.417-5.261,16.478-11.348,24.275-17.234c6.886-5.199,14.009-10.576,21.475-15.476c0.995-0.654,2.335-0.378,2.99,0.62
					c0.655,0.998,0.377,2.336-0.62,2.99c-7.349,4.823-14.412,10.156-21.243,15.313c-7.871,5.942-16.01,12.087-24.589,17.448
					C12.438,103.627,12.044,103.733,11.651,103.733z"/>
			</g>
			<g>
				<path style="fill:#525D7D;" d="M71.353,111.095c-0.048,0-0.094-0.001-0.142-0.001c-4.388-0.079-7.844-3.566-7.866-7.94
					c-0.014-2.869,1.491-5.422,4.027-6.833c1.684-0.939,3.529-1.349,5.319-1.196c3.715,0.316,6.532,3.116,6.85,6.806
					c0.199,2.311-0.683,4.764-2.362,6.562C75.608,110.173,73.543,111.095,71.353,111.095z M71.942,99.411
					c-0.825,0-1.653,0.229-2.467,0.683c-1.158,0.644-1.819,1.75-1.812,3.038c0.01,2.009,1.602,3.61,3.625,3.645
					c1.385,0.001,2.302-0.769,2.735-1.231c0.845-0.905,1.31-2.146,1.216-3.243c-0.139-1.608-1.283-2.735-2.917-2.876
					C72.196,99.416,72.07,99.411,71.942,99.411z"/>
			</g>
			<g>
				<path style="fill:#525D7D;" d="M78.041,134.048c-3.427,0-7.242-2.333-7.569-6.665c-0.073-0.977,0-2.408,0.765-3.683
					c0.096-0.16,0.188-0.437,0.287-0.731c0.245-0.729,0.578-1.727,1.474-2.548c1.181-1.084,2.685-1.711,4.348-1.81
					c2.068-0.118,4.355,0.672,5.925,2.076c1.43,1.278,2.236,2.977,2.336,4.913c0.119,2.328-0.678,4.575-2.186,6.168
					C82.029,133.234,80.124,134.044,78.041,134.048z M74.937,125.922c-0.105,0.178-0.202,0.569-0.159,1.136
					c0.148,1.961,2.03,2.672,3.262,2.672c0.905-0.001,1.659-0.316,2.245-0.933c0.7-0.739,1.067-1.823,1.008-2.976
					c-0.041-0.783-0.336-1.41-0.902-1.917c-0.828-0.741-2.013-1.025-2.789-0.984c-0.678,0.041-1.23,0.264-1.687,0.685
					c-0.08,0.086-0.211,0.476-0.298,0.735C75.466,124.793,75.276,125.36,74.937,125.922z"/>
			</g>
			<g>
				<path style="fill:#525D7D;" d="M135.38,111.87c-0.097,0-0.194-0.003-0.291-0.006c-4.667-0.148-7.43-4.816-7.557-7.985
					c-0.11-2.749,1.833-7.42,5.011-8.192l0.432-0.105c1.283-0.321,2.738-0.682,4.235-0.492c3.549,0.448,6.37,4.033,6.421,8.161
					c0.031,2.478-0.855,4.731-2.498,6.344C139.633,111.067,137.598,111.87,135.38,111.87z M133.569,99.881
					c-0.654,0.247-1.774,2.532-1.722,3.826c0.051,1.283,1.406,3.778,3.378,3.842c1.179,0.032,2.156-0.323,2.883-1.037
					c0.794-0.777,1.222-1.917,1.205-3.206c-0.028-2.352-1.553-3.794-2.643-3.931c-0.694-0.09-1.692,0.159-2.655,0.398
					L133.569,99.881z M133.561,99.884h0.001H133.561z"/>
			</g>
			<g>
				<path style="fill:#525D7D;" d="M124.573,61.089c-0.131,0-0.26-0.003-0.389-0.01c-4.535-0.235-7.139-4.376-7.038-8.245
					c0.104-4.105,2.929-7.28,6.719-7.55c0.228-0.018,0.478-0.024,0.728-0.02c1.162,0.021,4.047,0.28,5.905,2.203
					c1.248,1.29,1.979,2.943,2.111,4.781c0.171,2.356-0.7,4.699-2.391,6.425C128.703,60.221,126.665,61.089,124.573,61.089z
					 M124.417,49.581c-0.076,0-0.152,0.003-0.226,0.008c-1.826,0.131-2.69,1.83-2.728,3.355c-0.041,1.522,0.848,3.714,2.943,3.822
					c0.992,0.049,1.972-0.344,2.727-1.115c0.814-0.829,1.25-1.986,1.169-3.092c-0.059-0.815-0.373-1.538-0.909-2.092
					c-0.492-0.509-1.65-0.864-2.883-0.885C124.475,49.581,124.448,49.581,124.417,49.581z"/>
			</g>
			<g>
				<path style="fill:#525D7D;" d="M89.234,46.568c-1.934,0-4.033-0.881-5.566-2.357c-1.591-1.531-2.435-3.561-2.374-5.717
					c0.104-3.756,3.088-6.751,5.811-7.191c0.436-0.072,0.815-0.048,1.133-0.02c1.297,0.108,2.967,0.333,4.388,1.122
					c2.114,1.172,3.433,3.085,3.618,5.25l0.03,0.306c0.052,0.524,0.104,1.067,0.062,1.681c-0.214,3.15-2.633,6.643-6.694,6.913
					C89.507,46.564,89.37,46.568,89.234,46.568z M87.71,35.575c-0.561,0.094-2.054,1.355-2.101,3.039
					c-0.025,0.952,0.329,1.788,1.053,2.485c0.883,0.851,1.996,1.198,2.695,1.147c1.878-0.124,2.61-2.004,2.672-2.896
					c0.017-0.259-0.014-0.572-0.052-0.969l-0.034-0.347c-0.08-0.93-0.811-1.521-1.411-1.854c-0.711-0.394-1.857-0.528-2.657-0.594
					C87.816,35.581,87.762,35.575,87.71,35.575z"/>
			</g>
			<g>
				<path style="fill:#525D7D;" d="M79.251,79.874c-0.713,0-1.411-0.353-1.823-0.999c-0.64-1.006-0.343-2.342,0.662-2.981
					c3.239-2.059,6.636-4.591,9.828-7.319c0.846-0.721,2.107-0.683,2.904,0.09c1.787,1.73,3.721,3.348,5.601,4.911
					c1.775-1.563,3.596-3.07,5.367-4.536l1.536-1.274c0.817-0.68,2.011-0.662,2.808,0.041c2.276,2.009,4.202,3.825,5.888,5.812
					c2.793-1.761,5.454-3.463,8.151-5.562c0.939-0.728,2.298-0.562,3.031,0.379c0.731,0.942,0.562,2.298-0.38,3.031
					c-3.063,2.381-6.138,4.318-9.113,6.19l-1.018,0.642c-0.952,0.602-2.205,0.37-2.88-0.531c-1.439-1.92-3.132-3.641-5.163-5.492
					l-0.108,0.09c-2.203,1.822-4.48,3.707-6.612,5.656c-0.797,0.728-2.013,0.755-2.842,0.062l-1.192-0.994
					c-1.538-1.279-3.116-2.591-4.657-3.992c-2.903,2.384-5.926,4.588-8.832,6.438C80.05,79.765,79.649,79.874,79.251,79.874z"/>
			</g>
			<g>
				<path style="fill:#525D7D;" d="M26.505,137.579c-0.739,0-1.461-0.381-1.863-1.064c-0.604-1.029-0.261-2.352,0.766-2.956
					c8.77-5.157,15.162-9.956,21.932-15.036c6.032-4.528,12.27-9.21,20.38-14.219c1.009-0.623,2.342-0.312,2.971,0.703
					c0.627,1.015,0.312,2.345-0.703,2.971c-7.943,4.906-14.101,9.529-20.057,13.999c-6.567,4.928-13.356,10.024-22.334,15.305
					C27.254,137.483,26.877,137.579,26.505,137.579z"/>
			</g>
			<g>
				<path style="fill:#525D7D;" d="M80.162,125.824c-0.576,0-1.118-0.256-1.6-0.921c-1.292-1.782-0.323-2.598,4.328-6.519
					c2.255-1.9,5.37-4.469,9.259-7.634c6.75-5.495,14.042-11.322,15.226-12.215c1.455-1.103,2.7-0.302,3.156,0.277
					c0.947,1.205,0.54,2.099-0.499,3.108c-0.017,0.032-0.052,0.058-0.093,0.089c-0.394,0.371-0.867,0.759-1.387,1.185
					c-0.167,0.136-0.347,0.243-0.535,0.322c-5.156,4.09-18.45,14.817-23.789,19.392c-0.096,0.548-0.402,1.061-0.895,1.404
					C82.256,125.059,81.157,125.824,80.162,125.824z"/>
			</g>
			<g>
				<path style="fill:#525D7D;" d="M136.414,104.727c-0.648,0-1.289-0.291-1.715-0.845c-0.725-0.947-0.547-2.302,0.399-3.028
					c5.912-4.532,11.626-9.482,17.152-14.269c8.383-7.261,17.052-14.77,26.718-21.114c0.995-0.655,2.335-0.378,2.99,0.62
					c0.655,0.998,0.377,2.336-0.62,2.99c-9.426,6.186-17.984,13.599-26.26,20.768c-5.575,4.828-11.338,9.821-17.351,14.432
					C137.335,104.582,136.872,104.727,136.414,104.727z"/>
			</g>
			<g>
				<path style="fill:#525D7D;" d="M128.957,53.032c-0.666,0-1.326-0.308-1.747-0.89c-0.701-0.964-0.488-2.314,0.477-3.015
					c1.895-1.377,3.804-2.756,5.721-4.14c9.038-6.522,18.386-13.268,26.949-20.607c0.907-0.777,2.269-0.67,3.045,0.233
					c0.776,0.905,0.672,2.269-0.233,3.045c-8.701,7.458-18.123,14.256-27.234,20.83c-1.912,1.38-3.818,2.755-5.708,4.13
					C129.843,52.898,129.399,53.032,128.957,53.032z"/>
			</g>
			<g>
				<path style="fill:#525D7D;" d="M91.677,38.617c-0.316,0-0.634-0.069-0.929-0.211c-0.752-0.358-1.23-1.116-1.23-1.948V35.96
					c0-1.136,0.876-2.066,1.989-2.152c3.296-2.723,6.552-5.624,9.712-8.439c6.452-5.749,13.123-11.693,20.594-16.567
					c0.997-0.647,2.336-0.371,2.988,0.63c0.651,0.999,0.37,2.336-0.63,2.988c-7.198,4.695-13.747,10.53-20.081,16.173
					c-3.576,3.186-7.274,6.483-11.055,9.543C92.644,38.454,92.162,38.617,91.677,38.617z"/>
			</g>
		</g>
	</g>
</g>
<g id="Layer_1">
</g>
</svg>
