<?xml version="1.0" encoding="iso-8859-1"?>
<!-- Generator: Adobe Illustrator 21.0.2, SVG Export Plug-In . SVG Version: 6.00 Build 0)  -->
<svg version="1.1" xmlns="http://www.w3.org/2000/svg" xmlns:xlink="http://www.w3.org/1999/xlink" x="0px" y="0px"
	 viewBox="0 0 201.674 203.736" style="enable-background:new 0 0 201.674 203.736;" xml:space="preserve">
<g id="_x31_9">
	<g>
		<path style="fill:#E0DFE6;" d="M75.526,92.882c4.652-4.057,9.568-7.751,14.533-11.411c4.123-3.04,8.535-5.513,11.407-9.808
			c2.542-3.803-1.642-8.147-5.588-7.268c-0.904,0.201-1.794,0.494-2.672,0.85c0.292-2.446-1.984-5.027-5.196-3.566
			C76.14,67.077,66.952,74.58,61.064,86.441c-2.922,5.887-10.187,23.029-3.457,28.032c0.125,0.093,0.375,0.096,0.499,0
			c1.697-1.309,2.128-2.634,2.375-4.296c0.458,3.745,0.229,8.145-2.612,10.436c-2.572,2.074-5.882,1.495-7.003-1.356
			c-0.703-1.789-0.887-3.984-1.059-5.859c-0.328-3.576-4.924-5.24-6.97-1.888c-1.861,3.048-3.684,6.079-5.324,9.254
			c-0.523,1.013-0.681,2.35,0,3.35c0.104,0.153,0.696,1.349,1.214,1.42c0.257,0.035,0.513,0.07,0.77,0.105
			c1.647,0.225,2.754-0.207,3.748-1.525c0.303-0.402,0.577-0.819,0.872-1.225c1.252,3.229,3.354,5.962,6.966,7.255
			c7.603,2.722,15.032-3.689,17.406-10.538c0.955-2.754,1.368-5.73,1.295-8.677c5.89,8.327,13.497,15.762,20.707,22.471
			c5.926,5.514,14.899-3.497,8.879-8.879c-9.665-8.638-19.334-18.498-30.365-25.535C70.279,96.735,73.682,94.491,75.526,92.882z
			 M69.604,84.63c3.64-5.22,8.083-9.285,13.467-12.532c-1.663,1.464-3.245,2.952-4.733,4.299
			C75.406,79.05,72.455,81.793,69.604,84.63z"/>
		<path style="fill:#E0DFE6;" d="M197.933,106.392c1.648-2.274-1.12-5.943-3.772-4.906c-7.136,2.79-13.156,8.86-19.204,13.523
			c-6.657,5.132-13.387,10.182-19.953,15.428c-6.425,5.133-13.007,10.206-19.056,15.779c-2.972,2.738-6.093,5.536-8.433,8.842
			c-1.351-0.807-2.781-1.49-4.142-2.056c1.586-0.422,3.103-0.995,4.465-2.006c3.347-2.485,4.66-6.903,2.295-10.54
			c-2.552-3.924-7.356-4.528-11.474-3.04c-0.578,0.209-0.644,0.892-0.163,1.243c1.682,1.228,7.02,3.65,5.172,6.146
			c-1.015,1.37-5.704,0.858-7.367,1.23c-3.487,0.781-7.008,2.758-7.234,6.702c-0.248,4.337,3.455,6.607,6.806,8.436
			c3.947,2.153,7.456,5.795,11.767,6.881c-0.218,0.719-0.368,1.458-0.425,2.221c-0.014,0.182,0.033,0.36,0.112,0.526
			c-3.034,2.477-4.96,6.761-8.212,9.124c-6.786,4.932-15.78,7.341-23.992,5.41c-0.734-0.173-1.214,0.852-0.524,1.243
			c8.488,4.816,17.607,6.834,26.783,2.51c-2.794,3.126-6.162,5.641-10.296,6.927c-3.448,1.072-7.223,0.33-10.449,1.899
			c-0.24,0.117-0.357,0.452-0.284,0.699c1.959,6.618,12.579,5.56,17.527,3.765c9.058-3.286,14.598-10.784,18.927-19.028
			c0.785-1.495,1.016-3.519,0-4.994c-0.698-1.013-1.386-1.691-2.061-2.108c0.547-1.861,0.525-3.798-0.342-5.739
			c-0.126-0.282-0.311-0.514-0.526-0.714c3.498-2.072,6.549-5.516,9.413-8.017c6.206-5.419,12.293-10.959,18.443-16.441
			c5.803-5.172,11.675-10.267,17.613-15.283c4.971-4.2,14.107-8.925,15.335-15.619c0.237-1.29-0.252-2.503-1.239-3.138
			C195.103,109.781,196.643,108.173,197.933,106.392z M138.381,154.929c-1.628,1.667-3.597,3.4-5.429,5.262
			c-0.467-0.857-1.09-1.646-1.814-2.374c3.695-2.411,7.239-5.2,10.808-7.629c1.496-1.018,2.98-2.06,4.461-3.11
			C143.686,149.644,141,152.248,138.381,154.929z"/>
		<path style="fill:#E0DFE6;" d="M160.99,80.396c-1.49-1.327-3.392-1.935-5.01-3.095c-1.294-0.928-2.501-1.965-3.797-2.9
			c-1.114-0.803-2.427,0.305-2.513,1.442c-0.302,4.018,2.222,9.655,5.764,11.753C159.819,90.194,164.954,83.925,160.99,80.396z"/>
		<path style="fill:#E0DFE6;" d="M173.872,67.775c-7.173-6.388-13.408-14.264-20.051-21.224
			c-5.251-5.502-11.872-14.635-19.601-16.365c-0.347-0.078-0.836,0.174-0.783,0.596c1.045,8.287,10.267,16.469,15.528,22.599
			c1.01,1.177,2.021,2.355,3.031,3.533c-5.675-4.422-10.738-7.531-11.981-5.753c-2.668,3.816,4.035,10.604,6.242,13.317
			c4.929,6.063,9.995,12.256,16.172,17.099c5.116,4.012,11.964-1.404,9.377-6.486C174.718,74.351,176.447,70.068,173.872,67.775z"/>
		<g>
			<g>
				<g>
					<path style="fill:#525D7D;" d="M66.304,173.455c-0.559,0-1.117-0.216-1.539-0.645c-0.836-0.85-0.825-2.217,0.025-3.053
						c1.773-1.744,3.532-3.454,5.276-5.134c0.858-0.826,2.225-0.801,3.053,0.058c0.827,0.859,0.801,2.226-0.058,3.053
						c-1.732,1.669-3.482,3.369-5.244,5.102C67.398,173.249,66.851,173.455,66.304,173.455z"/>
				</g>
				<g>
					<path style="fill:#525D7D;" d="M103.815,138.835c-0.6,0-1.196-0.249-1.623-0.735c-0.786-0.896-0.698-2.26,0.198-3.047
						c3.143-2.759,6.131-5.361,8.941-7.808c13.543-11.794,24.239-21.109,25.289-24.788c0.532-1.862,0.712-5.055,0.902-8.437
						c0.513-9.111,1.151-20.45,9.541-20.45c3.856,0,5.033,5,6.278,10.294c0.405,1.722,1.025,4.36,1.628,5.715
						c0.933-0.966,2.334-2.532,3.617-3.967c8.717-9.745,17.005-18.492,22.598-18.492c3.002,0,4.573,1.982,4.573,3.94
						c0,7.76-9.256,17.03-16.015,23.799c-1.857,1.86-3.461,3.466-4.528,4.701c-0.781,0.902-2.143,1.002-3.045,0.223
						c-0.902-0.779-1.002-2.143-0.223-3.045c1.169-1.353,2.824-3.011,4.74-4.93c5.748-5.756,14.37-14.39,14.74-20.355
						c-0.064-0.008-0.144-0.015-0.242-0.015c-4.126,0-14.815,11.951-19.38,17.053c-4.786,5.351-5.451,6.035-6.833,6.035
						c-3.558,0-4.613-4.483-5.834-9.672c-0.507-2.157-1.435-6.101-2.274-6.958c-4.126,0.289-4.648,9.565-5.031,16.368
						c-0.213,3.785-0.397,7.055-1.061,9.38c-1.343,4.7-9.584,12.034-26.606,26.857c-2.806,2.444-5.79,5.043-8.928,7.798
						C104.829,138.659,104.321,138.835,103.815,138.835z"/>
				</g>
				<g>
					<path style="fill:#525D7D;" d="M169.615,107.471c-0.552,0-1.105-0.211-1.527-0.632c-0.843-0.843-0.843-2.21,0-3.053
						c2.293-2.293,4.976-4.797,7.572-7.218c6.48-6.046,15.354-14.325,15.354-17.44c0-0.645-0.205-0.961-0.308-1.061
						c-5.209,0.312-8.955,4.124-12.918,8.158c-0.458,0.466-0.913,0.93-1.369,1.385c-0.843,0.843-2.21,0.843-3.053,0
						c-0.843-0.843-0.843-2.21,0-3.053c0.446-0.447,0.893-0.902,1.342-1.358c4.201-4.275,8.961-9.121,15.919-9.452
						c0.035-0.001,0.146-0.004,0.181-0.004c2.224,0,4.525,2.014,4.525,5.386c0,4.656-6.319,10.887-16.727,20.598
						c-2.686,2.507-5.224,4.874-7.464,7.114C170.72,107.26,170.168,107.471,169.615,107.471z"/>
				</g>
				<g>
					<path style="fill:#525D7D;" d="M177.865,113.236c-0.573,0-1.146-0.227-1.57-0.677c-0.819-0.867-0.78-2.233,0.087-3.052
						c3.3-3.118,6.192-5.789,8.697-8.102c7.655-7.072,12.276-11.34,12.276-13.556c0-0.337-0.228-0.871-0.418-1.091
						c-2.603,0.084-4.881,1.848-7.29,3.712c-0.851,0.659-1.731,1.34-2.622,1.934c-0.995,0.66-2.333,0.393-2.994-0.599
						c-0.661-0.992-0.394-2.333,0.599-2.994c0.764-0.51,1.546-1.115,2.374-1.756c2.797-2.165,5.967-4.618,10.126-4.618
						c2.925,0,4.543,3.2,4.543,5.412c0,4.105-4,7.801-13.665,16.728c-2.494,2.304-5.374,4.965-8.662,8.069
						C178.93,113.041,178.396,113.236,177.865,113.236z"/>
				</g>
				<g>
					<path style="fill:#525D7D;" d="M123.267,169.012c-0.623,0-1.24-0.268-1.667-0.786c-0.759-0.92-0.628-2.281,0.292-3.039
						c50.268-41.442,71.385-60.359,74.84-64.712c-0.273-0.132-0.642-0.247-1.002-0.247c-2.163,0-5.242,2.309-6.722,3.419
						c-0.103,0.077-0.214,0.146-0.33,0.204c-1.066,0.533-2.374,0.107-2.908-0.961c-0.495-0.991-0.166-2.177,0.739-2.768
						c2.939-2.197,6.087-4.212,9.219-4.212c2.726,0,5.645,1.82,5.645,4.528c0,1.684,0,4.818-76.736,68.081
						C124.237,168.851,123.751,169.012,123.267,169.012z"/>
				</g>
				<g>
					<path style="fill:#525D7D;" d="M196.559,114.905c-0.638,0-1.27-0.281-1.696-0.821c-1.328-1.682-2.654-3.321-3.987-4.944
						c-0.758-0.921-0.624-2.281,0.297-3.038c0.92-0.758,2.281-0.625,3.038,0.297c1.351,1.643,2.696,3.305,4.04,5.008
						c0.739,0.936,0.579,2.294-0.356,3.033C197.5,114.753,197.027,114.905,196.559,114.905z"/>
				</g>
				<g>
					<path style="fill:#525D7D;" d="M99.416,188.618c-0.625,0-1.244-0.269-1.671-0.79c-0.756-0.922-0.622-2.282,0.3-3.038
						l0.166-0.138c0.914-0.767,2.276-0.649,3.042,0.263c0.767,0.912,0.65,2.274-0.263,3.042l-0.207,0.172
						C100.382,188.458,99.897,188.618,99.416,188.618z"/>
				</g>
				<g>
					<path style="fill:#525D7D;" d="M88.928,197.209c-0.638,0-1.27-0.282-1.697-0.822c-0.739-0.936-0.578-2.293,0.358-3.032
						c1.639-1.294,3.239-2.588,4.821-3.887c0.921-0.756,2.281-0.622,3.039,0.299c0.756,0.921,0.622,2.282-0.299,3.039
						c-1.603,1.316-3.224,2.626-4.885,3.938C89.869,197.057,89.396,197.209,88.928,197.209z"/>
				</g>
				<g>
					<path style="fill:#525D7D;" d="M154.534,140.652c-0.588,0-1.172-0.238-1.598-0.707c-2.683-2.95-5.253-6.078-7.739-9.102
						c-4.529-5.51-9.211-11.207-14.704-15.983c-0.9-0.782-0.994-2.146-0.212-3.046c0.782-0.9,2.147-0.995,3.046-0.212
						c5.765,5.013,10.564,10.853,15.205,16.5c2.452,2.983,4.988,6.068,7.598,8.94c0.802,0.882,0.737,2.248-0.145,3.049
						C155.572,140.467,155.052,140.652,154.534,140.652z"/>
				</g>
			</g>
			<g>
				<g>
					<path style="fill:#525D7D;" d="M129.927,34.666c-0.566,0-1.132-0.221-1.555-0.661c-0.827-0.859-0.801-2.226,0.058-3.053
						c1.743-1.678,3.501-3.388,5.273-5.13c0.85-0.837,2.215-0.824,3.054,0.026c0.836,0.851,0.824,2.217-0.026,3.054
						c-1.784,1.753-3.553,3.473-5.306,5.162C131.006,34.465,130.466,34.666,129.927,34.666z"/>
				</g>
				<g>
					<path style="fill:#525D7D;" d="M20.335,131.537c-3.002,0-4.573-1.982-4.573-3.94c0-7.758,9.255-17.028,16.012-23.796
						c1.858-1.861,3.463-3.468,4.53-4.705c0.779-0.902,2.142-1.001,3.045-0.223c0.902,0.779,1.002,2.143,0.223,3.045
						c-1.169,1.354-2.825,3.012-4.743,4.933c-5.746,5.755-14.367,14.389-14.737,20.352c0.064,0.008,0.144,0.015,0.243,0.015
						c4.126,0,14.815-11.951,19.38-17.053c4.786-5.351,5.451-6.035,6.833-6.035c3.558,0,4.613,4.483,5.834,9.672
						c0.507,2.157,1.435,6.101,2.274,6.958c4.126-0.289,4.648-9.567,5.031-16.37l0.029-0.512
						c0.831-14.671,4.185-17.302,16.663-27.09c4.932-3.868,11.069-8.683,19.258-15.864l0.51-0.447
						c0.899-0.783,2.264-0.69,3.046,0.209c0.784,0.899,0.689,2.262-0.209,3.046l-0.502,0.441
						c-8.275,7.257-14.727,12.318-19.437,16.012c-12.392,9.721-14.297,11.215-15.017,23.937l-0.029,0.51
						c-0.512,9.112-1.151,20.453-9.541,20.453c-3.856,0-5.033-5-6.278-10.293c-0.405-1.723-1.025-4.36-1.628-5.715
						c-0.933,0.966-2.334,2.532-3.617,3.967C34.216,122.79,25.928,131.537,20.335,131.537z"/>
				</g>
				<g>
					<path style="fill:#525D7D;" d="M10.712,124.915c-2.224,0-4.525-2.014-4.525-5.385c0-4.656,6.32-10.888,16.728-20.6
						c2.686-2.506,5.223-4.873,7.463-7.113c0.843-0.843,2.21-0.843,3.053,0c0.843,0.843,0.843,2.21,0,3.053
						c-2.293,2.293-4.975,4.796-7.57,7.217c-6.481,6.046-15.356,14.327-15.356,17.442c0,0.647,0.206,0.962,0.308,1.061
						c5.193-0.297,8.945-4.116,12.915-8.157c0.458-0.467,0.915-0.931,1.371-1.387c0.843-0.843,2.211-0.843,3.053,0
						c0.843,0.843,0.843,2.21,0,3.053c-0.447,0.448-0.895,0.903-1.344,1.361c-4.2,4.274-8.96,9.118-15.917,9.45
						C10.858,124.912,10.747,124.915,10.712,124.915z"/>
				</g>
				<g>
					<path style="fill:#525D7D;" d="M5.509,115.8C2.061,115.8,0,113.03,0,110.352c0-0.954,0.261-1.955,0.756-2.891
						c1.637-3.111,5.586-6.758,12.755-13.38c2.495-2.305,5.376-4.965,8.664-8.07c0.867-0.82,2.233-0.779,3.052,0.087
						c0.819,0.867,0.78,2.233-0.087,3.052c-3.301,3.118-6.193,5.79-8.698,8.104c-6.593,6.091-10.572,9.766-11.865,12.221
						c-0.166,0.316-0.257,0.626-0.257,0.878c0,0.011,0.051,1.13,1.191,1.13c1.18,0,3.087-0.844,4.859-2.151
						c0.512-0.377,1.013-0.765,1.508-1.148c0.85-0.658,1.728-1.337,2.618-1.931c0.992-0.663,2.332-0.393,2.994,0.599
						c0.661,0.992,0.394,2.333-0.599,2.994c-0.763,0.509-1.544,1.113-2.371,1.753c-0.522,0.404-1.051,0.813-1.589,1.21
						C11.71,113.707,8.543,115.8,5.509,115.8z"/>
				</g>
				<g>
					<path style="fill:#525D7D;" d="M107.745,9.676c-0.625,0-1.244-0.269-1.671-0.79c-0.756-0.921-0.622-2.282,0.3-3.038
						c1.602-1.315,3.222-2.625,4.882-3.935c0.935-0.739,2.294-0.579,3.032,0.357c0.739,0.935,0.579,2.293-0.357,3.032
						c-1.638,1.293-3.236,2.586-4.819,3.884C108.711,9.515,108.226,9.676,107.745,9.676z"/>
				</g>
				<g>
					<path style="fill:#525D7D;" d="M86.126,27.489c-0.623,0-1.241-0.268-1.668-0.786c-0.723-0.877-0.637-2.156,0.171-2.93
						c0.035-0.034,0.068-0.063,0.101-0.091c0.945-0.777,2.34-0.673,3.097,0.246c0.756,0.919,0.664,2.246-0.252,3.005
						c-0.009,0.008-0.083,0.068-0.083,0.068C87.092,27.329,86.608,27.489,86.126,27.489z"/>
				</g>
				<g>
					<path style="fill:#525D7D;" d="M5.79,102.746c-2.726,0-5.645-1.82-5.645-4.528c0-1.432,0-2.914,22.783-22.708
						c12.465-10.83,15.78-13.804,16.567-14.522c0.104-0.108,0.221-0.215,0.351-0.324c0.248-0.208,0.53-0.351,0.824-0.431
						c1.158-0.869,3.91-3.01,10.441-8.281c4.428-3.573,8.576-7.173,12.588-10.654c3.258-2.827,6.626-5.75,10.097-8.617l3.087-2.546
						c0.919-0.76,2.28-0.628,3.039,0.292c0.759,0.92,0.628,2.281-0.292,3.039l-3.084,2.545c-3.43,2.833-6.779,5.738-10.017,8.548
						c-4.04,3.506-8.219,7.132-12.707,10.754c-4.345,3.506-7.538,6.049-9.492,7.557c-0.857,0.661-1.588,1.226-2.241,1.593
						c-0.438,0.395-1.164,1.043-2.33,2.074c-2.382,2.104-6.611,5.813-13.999,12.232C10.578,91.961,6.086,96.573,4.794,98.184
						c0.273,0.131,0.639,0.245,0.996,0.245c2.165,0,5.242-2.309,6.722-3.418c0.937-0.704,2.281-0.543,3.008,0.377
						c0.725,0.921,0.599,2.241-0.306,2.987C12.138,100.688,8.957,102.746,5.79,102.746z"/>
				</g>
				<g>
					<path style="fill:#525D7D;" d="M99.727,198.512c-1.432,0-2.914,0-22.708-22.783c-10.828-12.463-13.803-15.778-14.522-16.565
						c-0.108-0.105-0.216-0.221-0.325-0.351c-0.208-0.248-0.351-0.53-0.431-0.824c-0.869-1.158-3.01-3.91-8.281-10.441
						c-3.573-4.428-7.173-8.576-10.654-12.588c-2.827-3.258-5.75-6.626-8.617-10.097l-2.61-3.163
						c-0.759-0.92-0.628-2.281,0.292-3.039c0.919-0.758,2.281-0.627,3.039,0.292l2.608,3.161c2.833,3.43,5.738,6.779,8.548,10.017
						c3.506,4.04,7.132,8.219,10.754,12.707c3.506,4.345,6.049,7.538,7.557,9.492c0.661,0.857,1.226,1.588,1.593,2.24
						c0.394,0.438,1.043,1.164,2.074,2.331c2.104,2.381,5.813,6.611,12.232,13.999c13.191,15.182,17.803,19.674,19.413,20.967
						c0.131-0.272,0.245-0.639,0.245-0.995c0-2.165-2.309-5.243-3.418-6.722c-0.716-0.954-0.523-2.307,0.432-3.022
						c0.954-0.715,2.307-0.523,3.022,0.432c2.224,2.965,4.282,6.145,4.282,9.313C104.255,195.593,102.435,198.512,99.727,198.512z
						 M62.307,158.774h0.015H62.307z"/>
				</g>
				<g>
					<path style="fill:#525D7D;" d="M71.291,85.652c-0.666,0-1.322-0.306-1.744-0.885c-2.841-3.888-6.199-6.604-10.087-9.748
						c-3.721-3.009-7.939-6.421-12.346-11.466c-0.569-0.651-1.142-1.297-1.723-1.935c-0.803-0.882-0.739-2.248,0.143-3.05
						c0.882-0.805,2.247-0.739,3.05,0.143c0.601,0.661,1.194,1.328,1.782,2.001c4.161,4.764,8.05,7.909,11.81,10.95
						c3.951,3.196,7.684,6.214,10.857,10.557c0.704,0.963,0.493,2.314-0.469,3.017C72.179,85.517,71.733,85.652,71.291,85.652z"/>
				</g>
			</g>
			<g>
				<g>
					<path style="fill:#525D7D;" d="M172.804,137.528c-0.559,0-1.117-0.216-1.54-0.646c-1.821-1.852-3.607-3.689-5.358-5.509
						c-0.827-0.859-0.801-2.226,0.058-3.052c0.859-0.827,2.224-0.801,3.052,0.058c1.741,1.808,3.517,3.634,5.327,5.476
						c0.836,0.85,0.824,2.217-0.027,3.053C173.897,137.322,173.35,137.528,172.804,137.528z"/>
				</g>
				<g>
					<path style="fill:#525D7D;" d="M139.336,101.327c-0.599,0-1.195-0.248-1.622-0.733c-3.186-3.623-6.172-7.051-8.956-10.247
						c-11.796-13.545-21.113-24.244-24.793-25.295c-1.861-0.532-5.054-0.712-8.434-0.902c-9.111-0.512-20.451-1.151-20.451-9.541
						c0-3.856,5-5.032,10.293-6.278c1.722-0.405,4.36-1.025,5.716-1.628c-0.966-0.933-2.533-2.335-3.967-3.618
						c-9.745-8.716-18.492-17.004-18.492-22.597c0-3.002,1.982-4.573,3.94-4.573c7.758,0,17.028,9.255,23.797,16.014
						c1.86,1.858,3.467,3.461,4.702,4.528c0.902,0.779,1.002,2.143,0.223,3.045c-0.781,0.902-2.144,1.001-3.045,0.223
						c-1.354-1.169-3.011-2.824-4.931-4.74c-5.756-5.747-14.39-14.368-20.354-14.739c-0.008,0.064-0.015,0.144-0.015,0.243
						c0,4.126,11.95,14.814,17.053,19.379c5.351,4.786,6.035,5.451,6.035,6.833c0,3.559-4.483,4.613-9.674,5.835
						c-2.156,0.507-6.1,1.435-6.956,2.274c0.289,4.125,9.566,4.647,16.369,5.03c3.785,0.213,7.053,0.397,9.378,1.061
						c4.7,1.343,12.036,9.586,26.862,26.611c2.78,3.192,5.76,6.614,8.942,10.232c0.788,0.895,0.701,2.26-0.195,3.047
						C140.351,101.15,139.842,101.327,139.336,101.327z"/>
				</g>
				<g>
					<path style="fill:#525D7D;" d="M106.82,34.217c-0.552,0-1.105-0.211-1.526-0.633c-2.293-2.293-4.797-4.977-7.219-7.572
						c-6.045-6.48-14.325-15.354-17.44-15.354c-0.646,0-0.961,0.205-1.061,0.308c0.312,5.209,4.124,8.954,8.158,12.918
						c0.466,0.457,0.93,0.913,1.385,1.369c0.843,0.843,0.843,2.21,0,3.053c-0.843,0.843-2.21,0.843-3.053,0
						c-0.447-0.446-0.902-0.893-1.358-1.342c-4.275-4.2-9.121-8.96-9.452-15.917c-0.001-0.034-0.004-0.146-0.004-0.181
						c0-2.224,2.014-4.525,5.386-4.525c4.656,0,10.887,6.319,20.597,16.726c2.507,2.687,4.875,5.225,7.115,7.465
						c0.843,0.843,0.843,2.21,0,3.053C107.925,34.007,107.373,34.217,106.82,34.217z"/>
				</g>
				<g>
					<path style="fill:#525D7D;" d="M112.586,25.968c-0.573,0-1.146-0.227-1.57-0.677c-3.116-3.299-5.787-6.19-8.1-8.694
						C95.843,8.94,91.574,4.318,89.358,4.318c-0.337,0-0.871,0.228-1.091,0.417c0.084,2.603,1.848,4.882,3.713,7.291
						c0.658,0.85,1.339,1.73,1.933,2.621c0.661,0.992,0.394,2.333-0.599,2.994c-0.995,0.661-2.333,0.393-2.994-0.599
						c-0.51-0.764-1.115-1.545-1.755-2.373c-2.165-2.797-4.619-5.967-4.619-10.126c0-2.925,3.2-4.543,5.412-4.543
						c4.106,0,7.801,4.001,16.73,13.667c2.304,2.494,4.964,5.373,8.067,8.659c0.819,0.867,0.78,2.233-0.087,3.052
						C113.65,25.772,113.117,25.968,112.586,25.968z"/>
				</g>
				<g>
					<path style="fill:#525D7D;" d="M168.29,80.478c-0.623,0-1.24-0.268-1.667-0.786c-41.395-50.207-60.29-71.299-64.639-74.75
						c-0.132,0.273-0.247,0.642-0.247,1.001c0,2.165,2.309,5.243,3.418,6.722c0.716,0.954,0.523,2.307-0.432,3.022
						c-0.951,0.718-2.307,0.524-3.022-0.432c-2.224-2.964-4.282-6.145-4.282-9.313c0-2.725,1.82-5.644,4.528-5.644
						c1.683,0,4.816,0,68.008,76.647c0.759,0.92,0.628,2.281-0.292,3.039C169.26,80.316,168.773,80.478,168.29,80.478z M101.341,4.5
						L101.341,4.5L101.341,4.5z"/>
				</g>
				<g>
					<path style="fill:#525D7D;" d="M114.738,71.922c-0.502,0-1.007-0.174-1.416-0.53c-0.9-0.782-0.994-2.146-0.212-3.046
						c5.014-5.765,10.854-10.565,16.501-15.207c2.983-2.452,6.068-4.987,8.938-7.597c0.883-0.803,2.249-0.736,3.05,0.146
						c0.802,0.882,0.737,2.248-0.146,3.05c-2.95,2.682-6.077,5.252-9.101,7.737c-5.51,4.529-11.208,9.213-15.984,14.705
						C115.941,71.671,115.341,71.922,114.738,71.922z"/>
				</g>
			</g>
			<g>
				<g>
					<path style="fill:#525D7D;" d="M34.006,70.879c-0.566,0-1.131-0.221-1.555-0.661c-1.675-1.739-3.381-3.494-5.121-5.263
						c-0.836-0.851-0.825-2.217,0.025-3.053c0.85-0.837,2.217-0.826,3.053,0.025c1.751,1.78,3.468,3.546,5.153,5.296
						c0.827,0.859,0.801,2.226-0.058,3.053C35.085,70.679,34.545,70.879,34.006,70.879z"/>
				</g>
				<g>
					<path style="fill:#525D7D;" d="M129.106,182.895c-7.758,0-17.028-9.255-23.797-16.012c-1.861-1.858-3.468-3.463-4.704-4.53
						c-0.902-0.779-1.002-2.143-0.223-3.045c0.778-0.903,2.141-1.002,3.045-0.223c1.354,1.169,3.012,2.825,4.932,4.742
						c5.755,5.746,14.389,14.365,20.352,14.737c0.008-0.064,0.015-0.144,0.015-0.242c0-4.126-11.95-14.814-17.053-19.379
						c-5.351-4.786-6.035-5.451-6.035-6.833c0-3.559,4.483-4.613,9.674-5.835c2.156-0.507,6.1-1.435,6.956-2.274
						c-0.289-4.126-9.567-4.647-16.37-5.03l-0.512-0.029c-14.671-0.831-17.302-4.185-27.09-16.663
						c-3.868-4.932-8.683-11.069-15.864-19.258l-1.811-2.061c-0.787-0.895-0.7-2.26,0.195-3.047c0.896-0.786,2.26-0.699,3.047,0.195
						l1.815,2.067c7.258,8.276,12.319,14.728,16.014,19.439c9.721,12.392,11.215,14.297,23.937,15.017l0.51,0.029
						c9.112,0.512,20.453,1.15,20.453,9.541c0,3.856-5,5.032-10.293,6.278c-1.722,0.405-4.36,1.025-5.716,1.628
						c0.966,0.933,2.533,2.335,3.967,3.618c9.745,8.716,18.492,17.004,18.492,22.597
						C133.045,181.324,131.063,182.895,129.106,182.895z"/>
				</g>
				<g>
					<path style="fill:#525D7D;" d="M121.038,192.47c-4.656,0-10.888-6.32-20.598-16.728c-2.507-2.686-4.874-5.224-7.114-7.464
						c-0.843-0.843-0.843-2.21,0-3.053c0.843-0.843,2.21-0.843,3.053,0c2.293,2.292,4.797,4.976,7.218,7.571
						c6.046,6.48,14.326,15.355,17.441,15.355c0.645,0,0.96-0.205,1.061-0.308c-0.312-5.208-4.124-8.953-8.157-12.916
						c-0.466-0.458-0.931-0.914-1.386-1.371c-0.843-0.843-0.843-2.21,0-3.053c0.843-0.843,2.211-0.843,3.053,0
						c0.447,0.447,0.902,0.894,1.359,1.343c4.275,4.2,9.119,8.96,9.451,15.917c0.001,0.035,0.004,0.146,0.004,0.181
						C126.423,190.168,124.409,192.47,121.038,192.47z"/>
				</g>
				<g>
					<path style="fill:#525D7D;" d="M111.86,198.657c-0.952,0-1.952-0.261-2.889-0.755c-3.112-1.638-6.76-5.587-13.382-12.755
						c-2.305-2.495-4.965-5.376-8.07-8.664c-0.819-0.867-0.78-2.233,0.087-3.052c0.867-0.82,2.234-0.779,3.052,0.087
						c3.118,3.301,5.79,6.193,8.104,8.698c6.091,6.593,9.766,10.572,12.221,11.865c0.316,0.166,0.627,0.257,0.878,0.257
						c0.011,0,1.13-0.051,1.13-1.192c0-1.179-0.844-3.087-2.151-4.86c-0.375-0.509-0.763-1.009-1.145-1.503
						c-0.659-0.851-1.34-1.731-1.933-2.622c-0.661-0.992-0.394-2.333,0.599-2.994c0.993-0.662,2.332-0.394,2.994,0.599
						c0.51,0.764,1.115,1.546,1.755,2.374c0.403,0.521,0.811,1.048,1.207,1.585c0.9,1.221,2.993,4.388,2.993,7.421
						C117.308,196.596,114.538,198.657,111.86,198.657z"/>
				</g>
				<g>
					<path style="fill:#525D7D;" d="M8.993,93.031c-0.624,0-1.243-0.269-1.671-0.789c-1.304-1.589-2.603-3.195-3.902-4.841
						c-0.739-0.935-0.579-2.293,0.357-3.032c0.935-0.739,2.295-0.578,3.032,0.357c1.282,1.623,2.565,3.208,3.851,4.776
						c0.756,0.922,0.622,2.283-0.299,3.039C9.96,92.871,9.475,93.031,8.993,93.031z"/>
				</g>
				<g>
					<path style="fill:#525D7D;" d="M61.673,153.829c-0.587,0-1.172-0.238-1.598-0.707c-0.802-0.882-0.737-2.248,0.145-3.05
						c0.66-0.6,1.327-1.193,2-1.78c4.764-4.161,7.908-8.049,10.949-11.809c3.196-3.952,6.215-7.684,10.558-10.858
						c0.963-0.703,2.315-0.494,3.017,0.469c0.704,0.963,0.493,2.314-0.469,3.017c-3.888,2.841-6.604,6.2-9.749,10.087
						c-3.01,3.721-6.42,7.939-11.466,12.346c-0.651,0.569-1.297,1.143-1.936,1.723C62.711,153.643,62.191,153.829,61.673,153.829z"
						/>
				</g>
			</g>
		</g>
	</g>
</g>
<g id="Layer_1">
</g>
</svg>
