<?xml version="1.0" encoding="iso-8859-1"?>
<!-- Generator: Adobe Illustrator 21.0.2, SVG Export Plug-In . SVG Version: 6.00 Build 0)  -->
<svg version="1.1" xmlns="http://www.w3.org/2000/svg" xmlns:xlink="http://www.w3.org/1999/xlink" x="0px" y="0px"
	 viewBox="0 0 168.449 161.919" style="enable-background:new 0 0 168.449 161.919;" xml:space="preserve">
<g id="_x32_">
	<g>
		<path style="fill:#E0DFE6;" d="M123.952,53.406c-1.182-1.282-2.966,0.345-2.287,1.765c7.511,15.701,4.357,30.874-4.678,43.389
			c-0.814,0.344-1.56,1-2.118,2.073c-0.381,0.733-0.801,1.433-1.226,2.128c-2.252,2.591-4.753,5.047-7.464,7.34
			c-0.709,0.6-1.112,1.313-1.273,2.058c-2.356,1.641-4.968,2.966-7.846,3.904c-9.229,3.008-18.852,1.188-28.325,1.534
			c-1.346,0.049-1.9,1.855-0.695,2.567c16.453,9.721,42.831,5.516,53.042-11.507C134.664,93.298,138.971,69.702,123.952,53.406z"/>
		<path style="fill:#E0DFE6;" d="M110.168,97.57c6.775-8.206,10.1-18.246,5.691-30.284c-0.488-1.334-2.387-0.815-2.125,0.586
			c2.714,14.509-6.948,25.653-18.233,33.74c-8.708,3.576-17.117,6.038-27.514,3.413c-1.933-0.488-3.504,1.972-1.991,3.421
			c4.604,4.409,10.194,6.228,16.046,6.371c1.006,1.065,2.581,1.597,4.245,0.726c0.741-0.388,1.485-0.79,2.229-1.199
			c7.637-1.232,15.269-4.676,21.36-8.415C112.971,104.03,112.503,99.462,110.168,97.57z"/>
		<path style="fill:#E0DFE6;" d="M99.27,69.819c-2.464-3.411-6.64-2.84-8.43-0.113c-1.823-0.697-3.966-0.511-5.436,1.1
			c-1.944,2.132-3.447,5.98-6.356,7.06c-1.898,0.704-4.733-0.171-5.886-1.832c-0.324-0.466-1.117-0.731-1.545-0.199
			c-2.489,3.089-1.054,6.659,1.61,8.927c-1.156,0.283-1.893,1.774-0.851,2.742c5.555,5.163,14.634,6.705,21.186,2.534
			C99.751,86.1,104.021,76.396,99.27,69.819z"/>
		<g>
			<path style="fill:#E0DFE6;" d="M138.236,34.579c-0.244-0.048-0.493-0.072-0.74-0.108c0.038-0.072,0.07-0.133,0.095-0.18
				c0.652-1.411,0.029-2.864-1.442-3.388c-0.74-0.264-1.518-0.281-2.276-0.071c-0.429,0.119-0.917,0.313-1.303,0.538
				c-0.378,0.292-0.869,0.359-1.255,0.589c-0.674,0.403-1.177,0.982-1.594,1.635c-0.604,0.946-0.828,2.2-0.849,3.307
				c-0.088,4.522,4.922,8.702,9.363,7.243c2.006-0.66,3.741-2.546,3.641-4.782C141.784,37.288,140.42,35.011,138.236,34.579z"/>
			<path style="fill:#E0DFE6;" d="M137.591,34.29c-0.012,0.027-0.017,0.054-0.031,0.081
				C137.666,34.158,137.652,34.176,137.591,34.29z"/>
		</g>
		<path style="fill:#E0DFE6;" d="M146.683,121.12c1.725-2.309,1.303-4.919-0.422-7.083c-0.54-0.677-1.263-1.193-2.066-1.569
			c-0.29-6.282-0.515-12.567-0.844-18.813c-0.73-13.822-2.285-27.559-2.917-41.385c-0.063-1.368-2.058-1.368-2.125,0
			c-0.681,13.787-1.831,27.572-1.586,41.385c0.078,4.382,0.272,8.755,0.507,13.125c-3.758,1.622-7.328,6.77-7.347,9.765
			c-0.022,3.519,3.007,5.65,6.171,6.08c0.728,0.099,1.414,0.086,2.113,0.054c0.224,3.854,0.419,7.711,0.55,11.572
			c-17.743-0.914-36.582-0.54-54.19,1.423c-1.328,0.148-1.909,2.243-0.345,2.551c17.865,3.526,37.539,4.854,55.73,4.109
			c2.663-0.109,3.94-2.153,3.861-4.153c1.279-0.423,2.251-1.494,2.057-3.195c-0.464-4.09-0.799-8.203-1.072-12.325
			C145.512,122.295,146.189,121.781,146.683,121.12z"/>
		<path style="fill:#E0DFE6;" d="M31.915,89.887c-0.779-2.834-3.673-4.284-6.439-3.656c-2.654,0.603-5.001,0.373-7.712,0.551
			c-3.294,0.217-4.788,3.861-2.625,6.338c3.077,3.525,8.828,4.181,13.121,3.206C31.017,95.7,32.64,92.524,31.915,89.887z"/>
		<path style="fill:#E0DFE6;" d="M166.937,100.665c-0.863-11.784-2.261-23.483-3.834-35.192
			c-1.451-10.803-2.326-23.192-6.879-33.189c-0.584-1.282-2.745-0.94-3.021,0.395c-1.894,9.138-0.696,19.251-0.461,28.542
			c0.273,10.794,0.463,21.606,0.868,32.394c0.388,10.343,0.65,20.693,0.954,31.038c0.197,6.694,1.058,14.603-2.085,20.77
			c-0.696-0.208-1.465-0.321-2.35-0.253c-2.681,0.207-5.356,0.455-8.033,0.684c-0.444-0.16-0.914-0.289-1.437-0.349
			c-7.565-0.861-16.039,1.65-23.586,2.595c-2.994,0.375-5.993,0.724-8.991,1.074c-5.691,0.606-11.384,1.217-17.08,1.827
			c-14.455,1.369-28.939,2.098-43.434,2.844c-5.596-0.163-11.169-0.64-16.689-1.594c-1.563-0.27-2.903,2.051-1.183,2.805
			c17.79,7.805,36.56,7.274,55.579,6.352c21.636-1.049,43.242-1.7,64.855-3.252c0.239-0.017,0.448-0.079,0.674-0.116
			c2.319,2.397,6.136,3.183,9.235,0.005c6.135-6.293,7.986-14.504,8.309-23.064C168.776,123.592,167.768,112.017,166.937,100.665z"
			/>
		<g>
			<g>
				<path style="fill:#525D7D;" d="M18.396,153.087c-6.281,0-11.582-4.972-11.923-11.294c-0.647-12.004-1.351-24.031-2.056-36.066
					C2.692,76.257,0.908,45.785,0.005,15.933c-0.094-3.121,1.084-6.21,3.23-8.477c2.148-2.267,5.169-3.61,8.29-3.686
					c17.779-0.431,35.861-1.066,53.347-1.68C89.278,1.232,114.515,0.346,139.348,0c3.454-0.02,6.883,1.315,9.366,3.739
					c2.482,2.424,3.925,5.805,3.957,9.275c0.264,27.862,1.233,56.204,2.17,83.614c0.429,12.516,0.871,25.457,1.241,38.189
					c0.237,8.138-6.19,14.998-14.326,15.292c-19.584,0.706-39.437,1.048-58.637,1.378c-21.033,0.362-42.782,0.737-64.248,1.591
					C18.712,153.085,18.554,153.087,18.396,153.087z M139.529,4.318c-0.04,0-0.08,0-0.12,0.001
					c-24.788,0.344-50.001,1.231-74.384,2.087C47.526,7.02,29.431,7.656,11.629,8.087c-1.979,0.048-3.896,0.9-5.259,2.338
					c-1.361,1.438-2.108,3.398-2.049,5.378c0.9,29.791,2.683,60.232,4.406,89.671c0.705,12.042,1.409,24.076,2.058,36.086
					c0.222,4.136,3.749,7.353,7.913,7.202c21.515-0.856,43.289-1.231,64.345-1.593c19.18-0.33,39.013-0.671,58.556-1.376
					c5.774-0.209,10.334-5.077,10.166-10.852c-0.37-12.72-0.812-25.656-1.24-38.167c-0.938-27.435-1.909-55.805-2.173-83.72
					c-0.022-2.33-0.99-4.599-2.656-6.226C144.058,5.229,141.816,4.318,139.529,4.318z"/>
			</g>
			<g>
				<path style="fill:#525D7D;" d="M78.147,121.856c-24.709,0-44.065-20.595-44.065-46.885c0-14.676,6.078-27.955,16.676-36.433
					c8.002-6.402,17.681-9.892,28.766-10.374c0.698-0.031,1.401-0.046,2.106-0.046c29.145,0,45.264,23.425,45.264,39.617
					c0,1.457,0.067,2.818,0.132,4.134c0.064,1.304,0.126,2.57,0.126,3.871C127.152,97.918,108.416,121.856,78.147,121.856z
					 M53.455,41.909C43.888,49.564,38.4,61.614,38.4,74.971c0,26.644,20.209,42.567,39.747,42.567
					c27.602,0,44.687-21.696,44.687-41.798c0-1.23-0.06-2.427-0.121-3.658c-0.068-1.368-0.137-2.783-0.137-4.347
					c0-14.427-14.581-35.299-40.946-35.299c-0.642,0-1.281,0.013-1.917,0.041C69.561,32.918,60.727,36.092,53.455,41.909z"/>
			</g>
			<g>
				<path style="fill:#525D7D;" d="M78.801,110.013c-18.485,0-32.964-15.39-32.964-35.038c0-10.963,4.547-20.888,12.473-27.229
					c5.98-4.784,13.207-7.392,21.479-7.751c0.521-0.023,1.046-0.034,1.573-0.034c21.794,0,33.847,17.558,33.847,29.695
					c0,1.072,0.049,2.056,0.096,3.011c0.048,0.968,0.093,1.907,0.093,2.874C115.398,92.119,101.406,110.013,78.801,110.013z
					 M81.361,44.278c-0.462,0-0.924,0.01-1.384,0.03c-7.339,0.318-13.721,2.61-18.97,6.81C54.11,56.635,50.155,65.33,50.155,74.975
					c0,19.229,14.565,30.72,28.646,30.72c19.938,0,32.279-15.652,32.279-30.155c0-0.895-0.043-1.765-0.088-2.661
					c-0.051-1.023-0.102-2.075-0.102-3.224C110.89,59.283,100.375,44.278,81.361,44.278z"/>
			</g>
			<g>
				<path style="fill:#525D7D;" d="M79.933,89.522c-7.715,0-13.758-6.387-13.758-14.54c0-4.539,1.896-8.659,5.201-11.304
					c2.48-1.983,5.464-3.064,8.87-3.213c9.44-0.378,14.742,7.272,14.742,12.514c0,0.38,0.018,0.729,0.035,1.068
					c0.019,0.386,0.036,0.763,0.036,1.148C95.06,82.085,89.276,89.522,79.933,89.522z M74.074,67.05
					c-2.276,1.82-3.581,4.712-3.581,7.932c0,5.024,3.531,10.222,9.44,10.222c6.676,0,10.809-5.195,10.809-10.009
					c0-0.314-0.016-0.62-0.032-0.935c-0.02-0.406-0.04-0.825-0.04-1.281c0-2.946-3.266-8.21-9.773-8.21
					c-0.156,0-0.312,0.003-0.467,0.01C77.962,64.886,75.822,65.651,74.074,67.05z"/>
			</g>
			<g>
				<path style="fill:#525D7D;" d="M24.412,139.266c-1.107,0-2.041-0.842-2.148-1.953c-0.584-6.093-0.954-12.268-1.313-18.24
					c-0.46-7.664-0.935-15.589-1.867-23.352c-0.142-1.184,0.702-2.259,1.886-2.401c1.177-0.151,2.259,0.702,2.401,1.886
					c0.947,7.89,1.426,15.881,1.89,23.608c0.316,5.268,0.642,10.695,1.114,16.056c26.42-1.013,53.389-1.642,79.49-2.251
					c10.806-0.252,21.6-0.504,32.364-0.782l-0.44-7.688c-2.616-0.053-10.466-2.972-10.466-9.671c0-5.692,4.528-9.835,9.251-11.663
					c-0.987-17.823-1.939-36.904-2.352-56.4c-5.578-1.013-8.959-4.727-8.959-10.029c0-4.657,3.087-8.044,8.744-9.663
					c0.001-3.164,0.02-6.331,0.058-9.5c-16.049,0.8-32.391,1.141-48.217,1.47c-21.694,0.453-44.103,0.92-66.023,2.574
					c0.633,18.511,1.515,36.853,2.62,54.555c0.075,1.191-0.83,2.215-2.02,2.29c-1.214,0.069-2.215-0.83-2.29-2.02
					c-1.15-18.402-2.056-37.494-2.695-56.746c-0.039-1.153,0.837-2.133,1.988-2.224c22.698-1.794,45.896-2.278,68.331-2.745
					c16.551-0.346,33.666-0.702,50.384-1.584c0.598-0.035,1.181,0.186,1.612,0.602c0.431,0.415,0.671,0.99,0.661,1.588
					c-0.061,3.973-0.09,7.942-0.09,11.906l0.001,1.524c0.001,1.025-0.718,1.91-1.723,2.118c-4.66,0.962-7.023,2.932-7.023,5.856
					c0,4.802,4.322,5.795,6.898,5.959c1.121,0.072,1.999,0.99,2.021,2.113c0.401,20.681,1.427,40.948,2.476,59.768
					c0.057,1.019-0.608,1.939-1.594,2.205c-3.847,1.037-7.742,4.133-7.742,8.047c0,3.485,4.972,5.191,6.122,5.343
					c0.161-0.042,0.531-0.152,1.284-0.43c0.641-0.235,1.357-0.156,1.93,0.219c0.573,0.375,0.933,0.999,0.973,1.682l0.717,12.524
					c0.033,0.583-0.171,1.154-0.567,1.584c-0.396,0.429-0.948,0.68-1.532,0.696c-11.506,0.302-23.047,0.571-34.602,0.84
					c-26.759,0.624-54.429,1.27-81.469,2.328C24.469,139.265,24.441,139.266,24.412,139.266z"/>
			</g>
			<g>
				<path style="fill:#525D7D;" d="M25.461,87.846H12.373c-1.193,0-2.159-0.966-2.159-2.159c0-1.193,0.966-2.159,2.159-2.159h13.088
					c1.193,0,2.159,0.966,2.159,2.159C27.62,86.88,26.654,87.846,25.461,87.846z"/>
			</g>
		</g>
	</g>
</g>
<g id="Layer_1">
</g>
</svg>
