<?xml version="1.0" encoding="iso-8859-1"?>
<!-- Generator: Adobe Illustrator 21.0.2, SVG Export Plug-In . SVG Version: 6.00 Build 0)  -->
<svg version="1.1" xmlns="http://www.w3.org/2000/svg" xmlns:xlink="http://www.w3.org/1999/xlink" x="0px" y="0px"
	 viewBox="0 0 231.826 202.644" style="enable-background:new 0 0 231.826 202.644;" xml:space="preserve">
<g id="_x32_0">
	<g>
		<path style="fill:#E0DFE6;" d="M98.488,150.723c-1.933-4.979-3.535-11.521-8.92-13.503c-0.484-0.178-1.197,0.013-1.532,0.405
			c-3.757,4.4-1.894,10.979-1.123,16.29c1.161,8.002,1.976,16.312,5.344,23.715c0.943,2.072,3.882,3.702,6.126,3.514
			c1.344-0.113,2.359-0.404,3.58-0.969c2.069-0.956,3.704-3.871,3.514-6.126C104.794,165.977,101.402,158.23,98.488,150.723z"/>
		<path style="fill:#E0DFE6;" d="M106.215,189.535c-0.448-2.709-3.104-4.004-5.425-4.791c-1.738-0.589-4.256-0.792-5.792,0.359
			c-0.924,0.692-1.506,1.709-1.178,2.895c0.266,0.962,0.744,1.657,1.432,2.367c0.07,0.072,0.113,0.114,0.146,0.146
			c0.047,0.066,0.115,0.157,0.237,0.315c0.273,0.354,0.549,0.621,0.856,0.94c0.178,0.184,0.345,0.377,0.517,0.567
			c0.046,0.051,0.08,0.089,0.113,0.124c0.062,0.083,0.138,0.182,0.244,0.319c0.813,1.052,2.025,2.029,3.379,2.23
			C104.264,195.527,106.806,193.106,106.215,189.535z"/>
		<path style="fill:#E0DFE6;" d="M136.941,165.409c-0.751-4.379-1.619-8.87-3.214-13.02c-0.641-1.666-2.973-1.828-3.557,0
			c-1.462,4.579-2.037,9.513-2.566,14.284C126.906,172.979,138.211,172.811,136.941,165.409z"/>
		<path style="fill:#E0DFE6;" d="M131.217,78.492c-1.173-1.707-3.275-2.85-5.385-2.191c-4.876,1.523-5.368,4.158-7.242,8.55
			c-2.06,4.826-4.91,9.713-8.27,13.766c-7.376,8.897-16.508,12.683-27.379,15.459c-1.435,0.366-1.3,2.347,0,2.776
			c11.117,3.669,24.002-0.929,32.828-7.895C122.579,103.582,137.55,87.707,131.217,78.492z"/>
		<path style="fill:#E0DFE6;" d="M56.75,158.162c-2.564-3.387-6.792-5.111-10.985-4.068c-4.726,1.176-7.423,5.097-6.596,9.881
			c0.628,3.634,5.213,4.814,8.052,3.276c0.108-0.059,0.225-0.115,0.338-0.172c0.022,0.088,0.05,0.185,0.056,0.248
			c0.354,3.735-2.465,8.594,1.923,11.028c0.01-0.037,0.02-0.075,0.03-0.112c0.541,0.33,1.157,0.546,1.791,0.604
			c4.394,0.403,6.705-5.562,7.529-8.977C59.871,165.796,59.315,161.551,56.75,158.162z"/>
		<path style="fill:#E0DFE6;" d="M20.299,180.365c-3.646-1.586-6.263-1.224-9.695,0.539c1.416-0.727-0.739,0.148-1.074,0.271
			c-0.635,0.134-0.698,0.18-0.187,0.14c-0.623-0.017-1.213,0.097-1.77,0.342c-2.33,0.87-3.846,3.04-3.18,5.6
			c1.933,7.428,14.772,10.249,18.472,2.898C24.444,187.022,24.018,181.983,20.299,180.365z"/>
		<path style="fill:#E0DFE6;" d="M203.004,7.026c-0.529-0.625-1.41-0.19-1.654,0.437c-3.324,8.545-4.017,19.379-10.354,26.533
			c-3.949,4.458-9.359,5.433-14.626,6.861c-0.024-0.164-0.039-0.331-0.065-0.495c-1.164-7.337-12.37-3.44-11.212,2.359
			c-0.396,2.669-0.755,5.313-1.122,7.939c-0.649,0.547-1.171,1.273-1.451,2.194c-1.68,5.538-2.28,11.184-2.114,16.96
			c0.15,5.21,5.174,6.844,8.716,4.87c-0.335,0.495-0.608,0.955-0.767,1.353c-1.099,2.756-1.266,4.681-0.824,7.519
			c0.257,1.65,2.712,1.769,3.453,0.451c2.814-5.007,11.114-10.592,11.442-16.655c0.232-4.275-3.45-6.534-6.622-9.09
			c0.215-1.148,0.389-2.304,0.541-3.461c9.624-0.768,20.339-6.447,25.075-14.087C206.47,32.568,209.668,14.9,203.004,7.026z"/>
		<path style="fill:#E0DFE6;" d="M223.09,63.169c-1.98-3.779-15.116-26.008-21.081-20.335c-0.318,0.303-0.187,0.758,0.127,0.987
			c0.07,0.051,0.14,0.102,0.21,0.154c0.305,0.223,0.757-0.077,0.744-0.427c0.143,4.186,2.294,7.208,4.244,11.172
			c2.558,5.2,4.74,10.62,6.465,16.156c3.478,11.16,5.539,22.387,4.849,34.121c-0.66,11.238-3.908,22.759-8.974,32.804
			c-2.545,5.047-5.499,10.125-9.359,14.286c-1.625,1.752-3.448,3.113-5.382,4.286c1.926-2.01,3.259-4.366,3.461-6.971
			c0.135-1.735-1.771-2.911-3.303-2.516c-3.487,0.9-5.631,3.45-8.222,5.755c-1.736,1.544-3.653,2.861-5.508,4.254
			c-0.879-0.883-2.07-1.496-3.24-1.593c-2.801-0.23-4.972,1.237-7.295,2.576c-0.798,0.46-1.565,0.821-2.334,1.139
			c-0.83-2.574-2.071-4.999-3.864-7.154c-1.579-6.231-3.697-12.27-6.275-17.889c-3.382-7.37-8.776-13.015-16.162-16.424
			c-3.194-1.474-6.541-2.501-10.001-3.111c-0.32-0.057-0.958-0.104-1.776-0.153c6.293-7.396,12.525-17.011,16.408-25.658
			c4.536-10.102,1.716-20.25-1.864-30.185c-5.305-14.724-15.057-38.325-34.337-37.466c-0.775,0.034-1.018,1.001-0.386,1.425
			c13.669,9.157,19.331,21.861,24.418,36.865c-0.422-0.068-0.852-0.094-1.29-0.045c-2.055,0.228-2.325,0.525-3.229-0.11
			c-1.482-1.041-2.617-3.306-3.687-4.76c-2.538-3.449-4.548-7.26-7.144-10.654c-3.096-4.049-9.96-9.749-15.193-6.026
			c-0.737,0.524-0.902,1.272-0.549,2.092c0.853,1.98,2.477,3.029,3.775,4.73c1.572,2.059,2.347,4.365,3.22,6.77
			c1.9,5.232,3.866,10.729,6.989,15.372c4.694,6.978,15.139,11.514,20.425,4.422c0.849,5.24,0.341,10.281-3.226,15.555
			c-4.473,6.612-9.255,14.404-14.706,20.213c-1.237,1.318-1.759,2.788-1.764,4.214c-0.699-1.025-1.973-1.448-3.329-0.79
			c-5.31,2.578-3.041,9.494,1.12,12.057c3.54,2.18,7.754,1.467,11.698,1.935c4.396,0.522,8.961,1.758,12.742,4.118
			c8.741,5.456,11.817,16.815,14.025,26.286c1.912,8.2,2.269,16.2,2.136,24.35c-0.445,2.103-1.216,3.908-2.567,4.894
			c-3.432,2.504-10.839,2.911-14.914,3.826c-5.671,1.273-11.751,1.999-17.118,4.24c-2.147,0.897-2.181,3.534,0,4.424
			c7.276,2.969,15.997,2.388,23.637,1.471c5.015-0.602,11.799-1.068,16.446-3.994c2.06,0.009,3.991-1.092,4.451-3.721
			c0.096-0.55,0.166-1.108,0.25-1.662c2.366-4.847,2.724-11.273,2.999-16.173c0.115-2.047,0.118-4.116-0.034-6.16
			c4.089,0.11,8.193-0.314,11.048-2.966c1.302-0.132,2.697-0.417,4.128-0.867c-0.254,1.195,0.315,2.612,1.338,3.309
			c11.945,8.132,24.786-7.892,30.721-16.703c8.586-12.749,13.385-27.454,14.533-42.747C232.693,91.448,229.955,76.275,223.09,63.169
			z"/>
		<path style="fill:#E0DFE6;" d="M198.293,88.651c-0.376-2.12-4.055-1.658-3.799,0.514c0.653,5.535-0.053,11.552-2.435,16.644
			c-1.821,3.891-5.432,6.13-4.327,10.806c0.315,1.335,1.524,2.544,2.859,2.859c0.248,0.058,0.496,0.117,0.744,0.175
			c1.784,0.421,4.001,0.081,5.263-1.391C204.471,109.074,200.143,99.083,198.293,88.651z"/>
		<g>
			<g>
				<path style="fill:#525D7D;" d="M134.026,68.014c-1.122,0-2.069-0.867-2.151-2.003c-0.273-3.766-0.964-7.469-2.052-11.009
					c-8.437-27.438-21.042-33.094-41.352-33.936c-3.736-0.153-7.052,0.405-10.151,1.709c-1.1,0.468-2.365-0.052-2.828-1.151
					c-0.463-1.098,0.053-2.364,1.151-2.827c3.697-1.559,7.623-2.215,12.006-2.047c21.766,0.902,36.156,7.243,45.301,36.982
					c1.184,3.85,1.936,7.876,2.232,11.966c0.087,1.189-0.807,2.224-1.997,2.309C134.131,68.012,134.078,68.014,134.026,68.014z"/>
			</g>
			<g>
				<path style="fill:#525D7D;" d="M89.676,121.744c-0.787,0-1.574-0.022-2.365-0.072c-14.241-0.869-26.266-8.818-33.862-22.382
					c-2.184-3.901-3.472-10.878-3.303-14.946c0.026-0.451,0.087-1.48,0.123-2.339c0.128-3.09,0.109-6.24,0.089-9.577
					c-0.02-3.336-0.041-6.785,0.1-10.167c0.261-6.332,1.093-14.486,5.233-21.391c1.489-2.482,2.828-4.595,4.095-6.46
					c0.67-0.984,2.012-1.24,2.999-0.573c0.986,0.67,1.243,2.013,0.573,3c-1.22,1.796-2.517,3.843-3.962,6.255
					c-2.839,4.734-4.265,10.702-4.623,19.35c-0.136,3.279-0.115,6.677-0.096,9.962c0.019,3.24,0.039,6.59-0.093,9.782
					c-0.037,0.888-0.1,1.953-0.119,2.279c-0.145,3.459,1.004,9.595,2.752,12.718c6.853,12.237,17.634,19.403,30.357,20.181
					c20.004,1.203,39.58-16,43.615-38.391c0.211-1.174,1.332-1.943,2.508-1.743c1.173,0.212,1.953,1.334,1.742,2.508
					C131.111,103.752,111.277,121.743,89.676,121.744z"/>
			</g>
			<g>
				<path style="fill:#525D7D;" d="M126.26,82.062c-1.025,0-1.936-0.734-2.122-1.779c-0.21-1.174,0.571-2.296,1.745-2.505
					c0.67-0.119,1.521-0.15,2.597-0.187c5.15-0.181,8.362-0.783,8.463-3.223c0.091-2.197-0.427-3.91-1.54-5.093
					c-1.193-1.268-3.095-1.964-5.655-2.069c-0.826-0.034-1.72-0.006-2.659,0.089c-1.185,0.134-2.245-0.746-2.364-1.933
					c-0.119-1.186,0.746-2.245,1.933-2.363c1.139-0.114,2.239-0.15,3.27-0.108c3.726,0.155,6.626,1.307,8.62,3.426
					c1.911,2.031,2.848,4.878,2.709,8.231c-0.286,6.924-8.621,7.218-12.625,7.358c-0.796,0.028-1.62,0.056-1.988,0.122
					C126.514,82.05,126.386,82.062,126.26,82.062z"/>
			</g>
			<g>
				<path style="fill:#525D7D;" d="M80.959,95.047c-0.19,0-0.381-0.004-0.573-0.011c-2.073-0.086-3.66-0.537-4.854-1.378
					c-1.1-0.775-2.388-2.266-2.276-4.97c0.106-2.551,1.885-4.463,2.47-5.091c0.925-0.992,1.955-1.68,2.951-2.343
					c2.688-1.791,5.228-3.482,5.583-12.066c0.231-5.604-2.291-8.438-7.709-8.661c-2.888-0.131-6.128,0.486-8.934,1.067
					c-1.163,0.249-2.309-0.509-2.551-1.677c-0.241-1.168,0.51-2.311,1.678-2.551c3.059-0.631,6.609-1.288,9.986-1.154
					c7.743,0.321,12.171,5.239,11.844,13.155c-0.446,10.78-4.359,13.387-7.503,15.482c-0.861,0.574-1.604,1.07-2.184,1.691
					c-0.859,0.922-1.29,1.684-1.316,2.329c-0.038,0.918,0.279,1.141,0.449,1.261c0.274,0.194,0.969,0.527,2.545,0.592
					c1.071,0.046,2.201-0.104,3.4-0.263c1.37-0.181,2.785-0.371,4.318-0.305c1.191,0.049,2.117,1.056,2.068,2.246
					c-0.049,1.191-1.045,2.089-2.246,2.069c-1.156-0.056-2.331,0.108-3.575,0.271C83.38,94.891,82.194,95.047,80.959,95.047z"/>
			</g>
			<g>
				<path style="fill:#525D7D;" d="M88.973,110.153c-0.224,0-0.447-0.004-0.669-0.013c-1.425-0.058-2.832-0.305-4.182-0.732
					c-1.137-0.36-1.766-1.573-1.406-2.71c0.36-1.137,1.574-1.767,2.711-1.406c0.983,0.311,2.011,0.491,3.054,0.533
					c2.616,0.114,5.389-0.644,7.815-2.118c1.016-0.623,2.346-0.298,2.967,0.722c0.619,1.019,0.296,2.347-0.723,2.966
					C95.596,109.186,92.225,110.153,88.973,110.153z"/>
			</g>
			<g>
				<path style="fill:#525D7D;" d="M68.761,71.742c-0.283,0-0.554-0.008-0.81-0.018c-0.506-0.021-1.013-0.059-1.52-0.097
					c-0.45-0.034-0.9-0.068-1.35-0.086c-1.191-0.051-2.116-1.058-2.065-2.249c0.051-1.192,1.047-2.115,2.249-2.066
					c0.496,0.021,0.992,0.058,1.487,0.096c0.459,0.034,0.919,0.069,1.378,0.087c1.479,0.068,2.449-0.081,3.369-0.495
					c1.089-0.491,2.366-0.004,2.855,1.084c0.489,1.087,0.004,2.366-1.084,2.855C71.648,71.581,70.071,71.742,68.761,71.742z"/>
			</g>
			<g>
				<path style="fill:#525D7D;" d="M100.627,70.987c-0.16,0-0.32-0.004-0.479-0.01c-1.09-0.045-2.184-0.246-3.25-0.599
					c-1.132-0.375-1.746-1.597-1.37-2.728c0.375-1.131,1.594-1.743,2.728-1.371c0.682,0.226,1.379,0.354,2.069,0.382
					c1.323,0.053,2.69-0.242,4.171-0.907c1.087-0.489,2.366-0.003,2.854,1.084c0.489,1.088,0.003,2.366-1.084,2.855
					C104.355,70.552,102.461,70.987,100.627,70.987z"/>
			</g>
			<g>
				<path style="fill:#525D7D;" d="M63.057,55.075c-0.938,0-1.802-0.616-2.074-1.562c-0.33-1.146,0.332-2.342,1.477-2.672
					c0.837-0.24,1.675-0.526,2.519-0.813c2.636-0.894,5.365-1.802,8.402-1.695c0.418,0.017,0.841,0.055,1.266,0.117
					c1.18,0.17,1.999,1.264,1.829,2.444c-0.171,1.179-1.261,2-2.445,1.829c-0.278-0.039-0.553-0.063-0.827-0.075
					c-2.247-0.104-4.473,0.665-6.838,1.469c-0.908,0.308-1.811,0.614-2.711,0.873C63.456,55.048,63.255,55.075,63.057,55.075z"/>
			</g>
			<g>
				<path style="fill:#525D7D;" d="M108.256,53.751c-0.313,0-0.63-0.067-0.931-0.212c-0.456-0.218-0.954-0.328-1.613-0.356
					c-0.558-0.03-1.163,0.018-1.804,0.062c-0.728,0.051-1.482,0.103-2.281,0.069c-0.881-0.037-1.669-0.174-2.408-0.419
					c-1.132-0.375-1.746-1.597-1.37-2.728c0.375-1.131,1.6-1.742,2.728-1.37c0.358,0.118,0.748,0.183,1.229,0.202
					c0.564,0.03,1.167-0.017,1.807-0.062c0.729-0.051,1.484-0.103,2.28-0.069c1.239,0.053,2.316,0.308,3.297,0.777
					c1.076,0.514,1.53,1.805,1.014,2.88C109.833,53.3,109.061,53.751,108.256,53.751z"/>
			</g>
			<g>
				<path style="fill:#525D7D;" d="M131.102,60.83c-0.257,0-0.51-0.006-0.76-0.015c-7.619-0.316-10.002-6.394-12.105-11.758
					c-2.25-5.739-4.194-10.697-11.514-10.999c-0.958-0.045-4.854,0.367-15.436,7.225c-0.514,0.333-0.914,0.623-1.616,0.564
					c-0.336-0.016-0.658-0.079-0.967-0.186c-3.558-1.259-4.256-4.213-4.765-6.369c-0.67-2.839-1.113-4.716-6.971-4.958
					c-5.831-0.219-13.276,3.583-17.331,8.893c-0.724,0.947-2.08,1.127-3.026,0.406c-0.948-0.724-1.129-2.079-0.406-3.026
					c4.913-6.434,13.713-10.849,20.942-10.589c9.13,0.379,10.253,5.135,10.996,8.281c0.403,1.711,0.654,2.515,1.371,2.988
					c8.039-5.152,13.887-7.655,17.388-7.545c10.134,0.42,13.029,7.804,15.356,13.739c2.209,5.632,3.682,8.829,8.266,9.019
					c0.623,0.03,1.305,0.01,2.034-0.053c1.181-0.081,2.232,0.782,2.333,1.971c0.1,1.188-0.782,2.232-1.97,2.333
					C132.281,60.803,131.68,60.83,131.102,60.83z"/>
			</g>
			<g>
				<path style="fill:#525D7D;" d="M59.08,38.002c-0.347,0-0.682-0.008-1.003-0.021c-1.113-0.046-2.221-0.165-3.292-0.278
					c-1.054-0.112-2.051-0.218-3.03-0.257c-2.678-0.111-3.137-1.892-3.213-2.435C47.643,28.66,76.003,18.988,79.24,17.906
					c1.134-0.377,2.355,0.233,2.733,1.364c0.377,1.131-0.233,2.354-1.364,2.733c-14.128,4.723-22.191,8.96-25.745,11.367
					c0.127,0.013,0.252,0.027,0.377,0.039c1.049,0.113,2.041,0.216,3.016,0.257c2.33,0.098,3.922-0.223,5.315-1.071
					c1.019-0.623,2.346-0.297,2.967,0.721c0.62,1.019,0.297,2.347-0.721,2.967C63.475,37.71,61.074,38.002,59.08,38.002z"/>
			</g>
			<g>
				<path style="fill:#525D7D;" d="M66.358,135.486c-0.855,0-1.663-0.51-2.002-1.351c-0.447-1.105,0.087-2.364,1.193-2.81
					c5.663-2.287,11.353-5.408,14.621-12.687c0.489-1.088,1.764-1.573,2.854-1.085c1.088,0.488,1.574,1.766,1.086,2.853
					c-3.903,8.695-10.756,12.423-16.944,14.922C66.902,135.435,66.628,135.486,66.358,135.486z"/>
			</g>
			<g>
				<path style="fill:#525D7D;" d="M159.027,184.355c-1.13,0-2.08-0.878-2.153-2.021c-0.235-3.69-0.102-7.37,0.027-10.927
					c0.207-5.707,0.401-11.097-0.781-16.584c-4.078-18.921-20.574-22.74-33.83-25.81c-9.504-2.2-17.712-4.1-17.401-11.613
					c0.014-0.349,0.049-0.706,0.105-1.071c0.181-1.179,1.28-1.992,2.461-1.806c1.179,0.18,1.988,1.283,1.806,2.461
					c-0.031,0.202-0.05,0.402-0.058,0.596c-0.155,3.743,5.242,5.185,14.061,7.228c13.683,3.167,32.421,7.506,37.076,29.105
					c1.296,6.013,1.082,11.93,0.875,17.65c-0.124,3.452-0.254,7.023-0.032,10.496c0.076,1.191-0.828,2.217-2.018,2.293
					C159.12,184.354,159.073,184.355,159.027,184.355z"/>
			</g>
			<g>
				<path style="fill:#525D7D;" d="M22.492,195.391c-1.074,0-1.985-0.79-2.137-1.854c-0.94-6.591-1.913-13.183-2.887-19.788
					c-1.888-12.8-3.84-26.037-5.54-39.198c-0.081-0.627,0.117-1.258,0.541-1.726c0.424-0.468,1.031-0.762,1.664-0.708
					c13.473,0.398,27.122-0.083,40.323-0.551c9.408-0.333,19.136-0.678,28.691-0.697c1.044,0,1.937,0.742,2.127,1.765
					c2.033,10.951,4.196,23.394,6.104,34.372c2.074,11.927,3.865,22.226,4.452,24.547c0.161,0.635,0.024,1.312-0.372,1.834
					c-0.396,0.523-1.009,0.838-1.666,0.855C68.937,194.87,43.968,195.165,22.492,195.391z M16.536,136.498
					c1.616,12.298,3.438,24.651,5.203,36.621c0.883,5.985,1.765,11.961,2.622,17.935c20.252-0.216,43.487-0.498,66.724-1.066
					c-0.839-4.283-2.261-12.459-3.962-22.243c-1.804-10.378-3.837-22.066-5.767-32.552c-8.907,0.055-17.968,0.377-26.748,0.687
					C42.161,136.322,29.318,136.773,16.536,136.498z"/>
			</g>
			<g>
				<path style="fill:#525D7D;" d="M23.686,202.644c-1.187,0-2.153-0.959-2.159-2.148c-0.006-1.192,0.955-2.163,2.147-2.17
					c20.574-0.112,41.34-0.666,61.424-1.203c10.557-0.281,21.132-0.564,31.762-0.789c1.207,0.022,2.179,0.922,2.204,2.114
					c0.025,1.192-0.921,2.179-2.113,2.204c-10.622,0.224-21.189,0.506-31.738,0.787C65.107,201.976,44.317,202.532,23.686,202.644z"
					/>
			</g>
			<g>
				<path style="fill:#525D7D;" d="M3.617,191.677c-1.028,0-1.853-0.224-2.53-0.78c-0.741-0.609-1.127-1.511-1.084-2.539
					c0.348-8.409,5.074-17.437,14.85-18.653c1.169-0.15,2.262,0.692,2.409,1.875c0.147,1.184-0.693,2.263-1.877,2.409
					c-7.247,0.902-10.388,7.472-10.98,13.309c1.042-0.153,2.619-0.534,3.964-0.859c3.329-0.803,7.473-1.803,11.83-1.957
					c1.162-0.08,2.193,0.888,2.234,2.082c0.042,1.192-0.89,2.191-2.082,2.234c-3.92,0.138-7.828,1.081-10.968,1.84
					C6.947,191.226,5.077,191.677,3.617,191.677z"/>
			</g>
			<g>
				<path style="fill:#525D7D;" d="M50.052,175.737c-0.46,0-0.925-0.146-1.317-0.45l-0.492-0.379
					c-4.265-3.288-8.676-6.689-12.9-10.192c-0.529-0.439-0.818-1.103-0.777-1.791c0.041-0.687,0.407-1.313,0.985-1.685
					c3.714-2.394,7.29-4.845,11.074-7.44l3.372-2.308c0.89-0.606,2.089-0.465,2.814,0.332c2.803,3.081,5.889,6.006,9.435,8.943
					c0.481,0.399,0.767,0.987,0.782,1.611c0.015,0.626-0.242,1.227-0.704,1.647c-3.625,3.305-7.417,6.912-10.58,10.897
					C51.318,175.458,50.688,175.737,50.052,175.737z M40.369,163.251c3.083,2.495,6.245,4.947,9.347,7.34
					c2.478-2.908,5.2-5.589,7.893-8.095c-2.423-2.099-4.64-4.21-6.709-6.389l-1.831,1.254
					C46.223,159.311,43.305,161.313,40.369,163.251z"/>
			</g>
			<g>
				<path style="fill:#525D7D;" d="M121.665,194.759c-0.16,0-0.32-0.004-0.481-0.01c-5.552-0.23-9.741-4.693-13.437-8.63
					c-0.67-0.714-1.329-1.417-1.982-2.076c-2.841,2.995-5.895,5.535-9.817,5.385c-1.587-0.066-3.065-0.581-4.163-1.449
					c-1.38-1.093-2.1-2.673-2.026-4.452c0.49-11.845,18.381-23.653,27.762-23.27c4.478,0.187,8.692,2.872,11.868,7.561
					c2.75,4.062,4.287,9.027,4.111,13.281c-0.147,3.552-1.291,6.874-3.221,9.354C128.11,193.24,125.065,194.759,121.665,194.759z
					 M108.678,180.847c0.729,0.731,1.467,1.517,2.218,2.317c3.282,3.497,6.677,7.114,10.467,7.27
					c2.233,0.086,4.076-0.793,5.507-2.633c1.363-1.751,2.207-4.261,2.316-6.882c0.257-6.225-4.712-16.052-11.843-16.348
					c-3.412-0.18-9.255,2.343-14.179,6.043c-5.525,4.151-8.923,9.045-9.091,13.092c-0.016,0.395,0.098,0.652,0.393,0.885
					c0.377,0.298,0.997,0.493,1.661,0.52c0.052,0.003,0.104,0.004,0.156,0.004c2.744,0,5.417-2.973,8.243-6.116
					c2.101-2.336,4.275-4.752,6.848-6.4c1.006-0.642,2.341-0.349,2.982,0.655c0.643,1.004,0.35,2.339-0.654,2.983
					C111.961,177.353,110.295,179.07,108.678,180.847z"/>
			</g>
			<g>
				<path style="fill:#525D7D;" d="M152.574,184.922c-0.824,0-1.611-0.474-1.971-1.275c-3.066-6.823-11.124-9.533-17.094-9.779
					c-0.901-0.038-1.794-0.024-2.653,0.042c-1.196,0.108-2.226-0.797-2.318-1.986c-0.091-1.189,0.798-2.227,1.987-2.318
					c1.028-0.082,2.092-0.097,3.162-0.053c7.2,0.298,16.981,3.705,20.854,12.326c0.488,1.087,0.003,2.364-1.084,2.854
					C153.17,184.861,152.87,184.922,152.574,184.922z"/>
			</g>
			<g>
				<path style="fill:#525D7D;" d="M147.603,194.757c-0.785,0.001-1.614-0.018-2.49-0.053c-2.491-0.104-5.054-0.398-7.533-0.682
					c-2.471-0.283-5.026-0.575-7.494-0.676c-0.711-0.031-1.42-0.048-2.129-0.038c-1.204,0-2.168-0.953-2.179-2.138
					c-0.011-1.193,0.946-2.169,2.139-2.18c0.777-0.01,1.563,0.008,2.348,0.041c2.624,0.108,5.258,0.41,7.806,0.701
					c2.513,0.288,4.886,0.559,7.221,0.656c6.573,0.277,8.957-0.603,9.798-1.387c0.681-0.633,0.746-1.671,0.801-3.452
					c0.042-1.375,0.09-2.932,0.622-4.539c0.375-1.132,1.599-1.744,2.728-1.37c1.132,0.374,1.747,1.595,1.371,2.728
					c-0.334,1.009-0.368,2.128-0.405,3.314c-0.067,2.151-0.142,4.589-2.175,6.481C156.128,193.935,152.863,194.757,147.603,194.757z
					"/>
			</g>
			<g>
				<path style="fill:#525D7D;" d="M174.737,40.653c-0.544,0-1.097-0.013-1.664-0.035c-9.158-0.38-15.781-3.764-19.685-10.06
					c-3.324-5.36-4.738-12.862-4.32-22.936c0.049-1.191,1.042-2.127,2.246-2.068c1.191,0.049,2.118,1.056,2.068,2.248
					c-0.38,9.18,0.822,15.879,3.676,20.48c3.148,5.077,8.445,7.7,16.194,8.021c18.496,0.779,21.078-12.684,24.067-28.26l0.195-1.018
					c0.226-1.168,1.356-1.933,2.529-1.711c1.171,0.225,1.937,1.358,1.712,2.529l-0.195,1.013
					C198.694,23.783,195.452,40.65,174.737,40.653z"/>
			</g>
			<g>
				<path style="fill:#525D7D;" d="M173.647,29.014c-0.119,0-0.238-0.003-0.359-0.007c-4.631-0.193-7.223-1.82-7.114-4.467
					c0.049-1.192,1.052-2.148,2.246-2.069c0.992,0.041,1.799,0.745,2.014,1.667c0.489,0.225,1.626,0.496,3.033,0.554
					c1.04,0.042,1.475-0.262,1.843-0.766c0.701-0.964,2.054-1.175,3.016-0.475c0.964,0.703,1.177,2.052,0.474,3.016
					C177.568,28.158,175.835,29.014,173.647,29.014z"/>
			</g>
			<g>
				<path style="fill:#525D7D;" d="M174.607,18.601c-0.032,0-0.064,0-0.096-0.001l-0.855-0.028
					c-2.012-0.083-3.471-0.655-4.464-1.747c-1.461-1.608-1.346-3.735-1.253-5.444l0.032-0.621c0.119-2.883,0.592-5.791,1.487-9.154
					c0.306-1.154,1.496-1.843,2.642-1.531c1.153,0.306,1.838,1.489,1.531,2.641c-0.813,3.05-1.24,5.663-1.347,8.222l-0.034,0.676
					c-0.041,0.76-0.11,2.035,0.137,2.307c0.097,0.107,0.51,0.298,1.444,0.336l0.869,0.028c1.191,0.053,2.115,1.061,2.062,2.253
					C176.711,17.696,175.756,18.601,174.607,18.601z"/>
			</g>
			<g>
				<path style="fill:#525D7D;" d="M134.048,49.795c-0.853,0-1.661-0.509-2.002-1.348c-0.448-1.105,0.084-2.364,1.19-2.811
					l1.766-0.718c9.886-4.023,20.108-8.181,31.236-9.051c1.197-0.117,2.228,0.796,2.321,1.983c0.093,1.189-0.796,2.228-1.985,2.321
					c-10.458,0.818-20.364,4.848-29.945,8.746l-1.771,0.72C134.593,49.745,134.318,49.795,134.048,49.795z"/>
			</g>
			<g>
				<path style="fill:#525D7D;" d="M181.579,166.831c-0.83,0-1.617-0.481-1.974-1.282c-1.373-3.087-2.368-5.67-3.104-8.085
					c-0.311,0.118-0.621,0.235-0.931,0.351c-0.971,0.365-1.941,0.731-2.913,1.105c-0.539,0.21-1.139,0.19-1.665-0.046
					c-0.527-0.237-0.936-0.678-1.137-1.219c-3.606-9.749-6.439-20.092-8.662-31.618c-0.224-1.162,0.529-2.288,1.688-2.525
					c2.097-0.427,4.179-0.918,6.254-1.406c1.536-0.361,3.102-0.73,4.677-1.072c-3.551-4.745-6.335-9.452-6.134-14.3
					c0.099-2.398,1.134-4.993,2.768-6.941c1.952-2.329,4.528-3.535,7.273-3.435c6.059,0.25,6.867,4.949,7.456,8.38
					c0.779,4.536,1.515,8.82,10.653,9.964c3.416,0.427,13.074,7.859,12.289,26.817l-0.1,2.323c-0.013,0.302-0.086,0.588-0.209,0.843
					c5.27-6.944,9.199-16.532,9.756-29.996c1.691-40.831-9.173-64.843-33.212-73.408c-1.123-0.401-1.709-1.635-1.309-2.759
					c0.401-1.122,1.634-1.712,2.759-1.309c25.694,9.155,37.832,35.281,36.077,77.656c-1.555,37.571-27.212,47.197-39.541,51.823
					C182.087,166.788,181.831,166.831,181.579,166.831z M177.948,152.443c0.343,0,0.685,0.082,0.996,0.243
					c0.55,0.287,0.951,0.794,1.1,1.397c0.588,2.374,1.436,4.849,2.697,7.842c6.915-2.647,16.969-7.01,24.509-16.52
					c-0.398,0.336-0.918,0.523-1.479,0.506c-1.191-0.051-2.117-1.056-2.067-2.248l0.1-2.323c0.755-18.234-8.525-22.345-8.619-22.372
					c-12.207-1.522-13.446-8.729-14.264-13.498c-0.664-3.861-1.028-4.699-3.378-4.796c-1.751-0.087-3.026,0.991-3.786,1.896
					c-1.026,1.223-1.701,2.889-1.762,4.345c-0.178,4.305,3.53,9.38,7.344,14.208c0.469,0.595,0.593,1.39,0.326,2.099
					c-0.267,0.708-0.885,1.226-1.63,1.364c-2.621,0.482-5.309,1.113-7.91,1.725c-1.402,0.33-2.837,0.668-4.281,0.987
					c1.952,9.665,4.358,18.477,7.319,26.811c0.295-0.111,0.59-0.222,0.886-0.333c1.04-0.392,2.08-0.783,3.12-1.185
					C177.42,152.491,177.685,152.443,177.948,152.443z"/>
			</g>
			<g>
				<path style="fill:#525D7D;" d="M199.585,120.998c-0.363,0-0.73-0.091-1.068-0.284c-1.035-0.592-1.396-1.91-0.805-2.946
					c3.524-6.172,5.355-13.633,5.764-23.478c0.197-4.759,0.06-9.612-0.072-14.305c-0.035-1.267-0.07-2.525-0.099-3.773
					c-0.027-1.192,0.916-2.18,2.109-2.208c1.214-0.028,2.182,0.918,2.208,2.11c0.029,1.24,0.064,2.491,0.099,3.75
					c0.134,4.767,0.272,9.695,0.069,14.605c-0.437,10.562-2.448,18.646-6.327,25.442
					C201.064,120.607,200.335,120.998,199.585,120.998z"/>
			</g>
			<g>
				<path style="fill:#525D7D;" d="M166.487,137.434c-1.003,0-1.902-0.701-2.113-1.722c-0.241-1.168,0.51-2.311,1.678-2.551
					c2.84-0.588,5.563-0.945,8.198-1.292c2.557-0.336,5.201-0.685,7.888-1.238c1.164-0.245,2.31,0.509,2.551,1.677
					c0.241,1.168-0.51,2.311-1.678,2.551c-2.84,0.588-5.563,0.945-8.198,1.292c-2.557,0.336-5.202,0.685-7.888,1.238
					C166.778,137.42,166.631,137.434,166.487,137.434z"/>
			</g>
			<g>
				<path style="fill:#525D7D;" d="M169.362,148.499c-0.226,0-0.453-0.006-0.681-0.014c-1.191-0.051-2.117-1.056-2.067-2.248
					c0.049-1.192,1.024-2.13,2.247-2.068c2.012,0.084,3.995-0.354,6.105-0.817c2.286-0.502,4.654-1.009,7.207-0.915
					c1.191,0.049,2.117,1.056,2.068,2.246c-0.049,1.192-1.079,2.117-2.246,2.069c-1.987-0.084-3.991,0.354-6.103,0.817
					C173.809,148.027,171.661,148.499,169.362,148.499z"/>
			</g>
			<g>
				<path style="fill:#525D7D;" d="M177.782,157.073c-0.108,0-0.215-0.001-0.324-0.006c-1.191-0.049-2.117-1.056-2.068-2.246
					c0.048-1.192,1.04-2.141,2.246-2.069c1.002,0.063,2.002-0.349,3.069-0.759c0.765-0.295,1.555-0.6,2.406-0.776
					c1.172-0.24,2.31,0.51,2.551,1.677c0.242,1.168-0.509,2.309-1.677,2.551c-0.503,0.104-1.098,0.333-1.726,0.576
					C181.036,156.493,179.532,157.073,177.782,157.073z"/>
			</g>
			<g>
				<path style="fill:#525D7D;" d="M170.195,91.703c-0.609,0-1.191-0.257-1.601-0.71c-6.769-7.481-17.327-27.096-21.302-34.482
					c-0.588-1.092-1.002-1.861-1.198-2.207c-0.59-1.036-0.228-2.354,0.808-2.945c1.035-0.588,2.354-0.229,2.945,0.808
					c0.205,0.36,0.636,1.161,1.247,2.297c3.246,6.03,12.583,23.376,19.055,31.656c2.241-2.806,4.538-5.575,6.774-8.271
					c7.441-8.972,14.468-17.445,19.723-27.213c0.564-1.049,1.872-1.442,2.924-0.879c1.051,0.565,1.444,1.875,0.878,2.925
					c-5.458,10.146-12.954,19.183-20.202,27.923c-2.771,3.341-5.637,6.796-8.351,10.267c-0.392,0.502-0.987,0.805-1.623,0.828
					C170.247,91.703,170.221,91.703,170.195,91.703z"/>
			</g>
			<g>
				<path style="fill:#525D7D;" d="M173.066,52.913c-0.129,0-0.26-0.003-0.394-0.008c-8.335-0.346-8.806-5.876-8.593-11.031
					l0.076-1.666c0.05-1.191,1.04-2.109,2.248-2.068c1.191,0.051,2.116,1.057,2.066,2.248l-0.076,1.664
					c-0.236,5.719,0.693,6.382,4.457,6.538c0.994,0.031,1.751-0.207,2.257-0.732c0.496-0.516,0.792-1.348,0.834-2.34
					c0.051-1.251-0.254-2.703-0.526-3.829c-0.281-1.16,0.432-2.326,1.591-2.606c1.162-0.275,2.326,0.433,2.606,1.591
					c0.339,1.4,0.718,3.236,0.643,5.022c-0.086,2.075-0.788,3.857-2.032,5.153C177.305,51.804,175.677,52.913,173.066,52.913z"/>
			</g>
			<g>
				<path style="fill:#525D7D;" d="M156.899,71.289c-0.313,0-0.63-0.068-0.931-0.211c-1.075-0.514-1.53-1.805-1.016-2.88
					c0.671-1.404,1.321-2.831,1.974-4.266c2.286-5.027,4.651-10.223,8.16-14.87c0.718-0.953,2.071-1.14,3.024-0.422
					c0.951,0.72,1.14,2.073,0.421,3.025c-3.222,4.265-5.485,9.242-7.675,14.055c-0.664,1.46-1.325,2.912-2.009,4.342
					C158.477,70.836,157.704,71.289,156.899,71.289z"/>
			</g>
			<g>
				<path style="fill:#525D7D;" d="M187.097,69.799c-0.583,0-1.163-0.235-1.589-0.697c-3.244-3.523-5.642-7.558-7.961-11.46
					c-1.283-2.159-2.496-4.199-3.839-6.153c-0.675-0.983-0.426-2.326,0.557-3.002c0.984-0.678,2.327-0.424,3.003,0.557
					c1.423,2.071,2.729,4.268,3.992,6.393c2.205,3.711,4.487,7.55,7.425,10.742c0.807,0.877,0.751,2.243-0.126,3.05
					C188.143,69.611,187.619,69.799,187.097,69.799z"/>
			</g>
			<g>
				<path style="fill:#525D7D;" d="M72.305,135.328c-0.626,0-1.247-0.271-1.673-0.793c-0.55-0.673-1.07-1.375-1.545-2.086
					c-0.663-0.991-0.396-2.332,0.595-2.995c0.992-0.662,2.332-0.398,2.995,0.595c0.399,0.597,0.836,1.188,1.299,1.754
					c0.754,0.923,0.617,2.284-0.306,3.039C73.268,135.169,72.785,135.328,72.305,135.328z"/>
			</g>
			<g>
				<path style="fill:#525D7D;" d="M95.836,145.769c-0.486,0-0.973-0.01-1.465-0.03c-3.564-0.149-7.049-0.821-10.36-1.999
					c-1.123-0.399-1.71-1.635-1.31-2.758c0.399-1.124,1.631-1.715,2.758-1.31c2.902,1.032,5.961,1.622,9.091,1.751
					c11.003,0.454,20.38-4.734,27.864-15.427c0.684-0.977,2.028-1.216,3.007-0.53c0.977,0.683,1.215,2.03,0.531,3.007
					C118.014,139.814,107.626,145.769,95.836,145.769z"/>
			</g>
		</g>
	</g>
</g>
<g id="Layer_1">
</g>
</svg>
