<?xml version="1.0" encoding="iso-8859-1"?>
<!-- Generator: Adobe Illustrator 21.0.2, SVG Export Plug-In . SVG Version: 6.00 Build 0)  -->
<svg version="1.1" xmlns="http://www.w3.org/2000/svg" xmlns:xlink="http://www.w3.org/1999/xlink" x="0px" y="0px"
	 viewBox="0 0 245.692 170.105" style="enable-background:new 0 0 245.692 170.105;" xml:space="preserve">
<g id="_x32_1">
	<g>
		<path style="fill:#E0DFE6;" d="M89.667,145.114c-7.3-12.727-17.349-22.236-21.926-36.512c-0.583-1.819-2.945-2.106-3.977-0.52
			c-4.707,7.233-3.527,14.962-0.336,22.475c-1.538-2.19-3.271-4.204-5.329-5.828c-1.337-1.055-4.111-0.583-3.876,1.606
			c0.683,6.375,3.566,12.389,5.46,18.484c1.754,5.645,2.079,13.385,5.257,18.314c3.843,5.959,13.427,2.242,11.586-4.884
			c-1.14-4.412-3.045-8.792-5.08-12.996c1.663,2.763,3.232,5.415,4.456,7.908c1.24,2.527,4.212,3.861,6.882,3.948
			c2.329,0.075,4.182-0.465,5.636-2.334C90.651,151.907,91.589,148.465,89.667,145.114z"/>
		<path style="fill:#E0DFE6;" d="M137.257,127.796c-0.237-6.362-0.267-12.957-2.588-18.974c-1.498-3.884-5.744-8.905-10.392-11.074
			c0.169-5.207-0.386-10.584-0.476-15.69c-0.132-7.486-0.274-14.967-0.208-22.455c0.13-14.582,0.517-29.018-0.683-43.565
			c-0.173-2.102-3.03-2.599-3.717-0.503c-4.709,14.375-6.859,29.027-8.193,44.068c-0.706,7.967-1.324,15.957-1.575,23.953
			c-0.082,2.615-0.415,5.667-0.563,8.753c-0.951,0.338-1.887,0.823-2.94,1.268c-1.89,0.799-3.79,1.54-5.68,2.35
			c-1.075,0.461-0.897,2.1,0,2.614c2.427,1.39,5.925,2.353,9.032,2.019c0.284,1.406,0.708,2.733,1.344,3.922
			c1.715,3.204,6.114,4.171,9.388,2.897c0.569,0.499,1.11,1.039,1.597,1.663c3.034,3.889,3.411,8.683,3.617,13.447
			c0.4,9.233-1.153,19.88,2.865,28.399c1.816,3.851,6.864,2.099,8.127-1.062C138.893,143.118,137.522,134.894,137.257,127.796z"/>
		<path style="fill:#E0DFE6;" d="M179.856,98.574c-1.324-2.242-1.883-6.001-2.773-8.534c-1.436-4.085-2.842-8.179-4.195-12.291
			c-2.555-7.765-5.084-15.547-7.536-23.345c-4.505-14.326-7.49-31.011-14.872-44.121c-0.622-1.105-2.734-1.031-2.939,0.384
			c-0.187,1.286-0.314,2.593-0.414,3.908c-0.595-1.523-1.237-3.017-1.931-4.473c-0.908-1.903-3.456-0.741-3.614,0.979
			c-1.19,12.988,1.816,27.229,3.66,40.107c1.93,13.478,3.182,27.597,6.36,40.826c1.432,5.959,8.148,5.584,11.033,1.801
			c1.592,5.961,3.656,12.968,9.919,14.259C177.907,109.177,182.868,103.671,179.856,98.574z"/>
		<path style="fill:#E0DFE6;" d="M242.315,55.103c4.445-4.286,3.563-14.299,2.573-19.356c-1.901-9.716-7.21-14.992-12.891-22.575
			c-1.107-1.477-3.623-0.097-2.532,1.48c5.541,8.012,4.728,20.941,3.144,30.058c-0.076,0.44-0.143,0.924-0.2,1.428
			c-2.789-0.346-5.798-0.1-8.022-2.056c-4.283-3.767-1.974-9.832-4.729-14.07c-2.71-4.169-7.251-2.981-11.427-2.748
			c-6.781,0.378-12.741-1.08-19.228-2.754c-1.449-0.374-2.917,1.287-2.03,2.641c2.564,3.912,6.426,6.472,10.795,8.144
			c2.906,1.112,6.031,1.639,9.097,2.065c0.9,0.131,1.806,0.219,2.712,0.31c1,9.14,2.621,17.823,12.848,21.795
			c4.245,1.649,9.213,2.092,13.045-0.761c0.066-0.049,0.127-0.104,0.192-0.155c-1.14,3.07-1.52,6.32-2.548,9.566
			c-1.848,5.831-4.934,10.331-9.199,14.62c-6.531,6.568-13.283,13.107-12.058,23.128c0.2,1.637,2.62,2.854,3.526,0.955
			c5.017-10.517,16.593-15.481,23.043-25.005c4.756-7.023,9.7-18.916,4.012-26.579C242.399,55.185,242.353,55.15,242.315,55.103z"/>
		<path style="fill:#E0DFE6;" d="M218.48,132.144c-2.729-7.343-5.69-14.577-9.063-21.648c-1.085-2.275-3.989-0.819-4.231,1.146
			c-0.618,5.022-0.812,10.004-0.602,14.991c-0.542-0.851-1.115-1.685-1.762-2.475c-1.06-1.293-3.362-0.551-3.716,0.981
			c-1.771,7.657,0.19,16.12,1.29,23.785c0.749,5.223,0.549,11.453,3.894,15.225c-0.813,1.706,0.797,3.195,2.455,2.468
			c0.178-0.078,0.342-0.187,0.515-0.278c0.359,0.167,0.728,0.327,1.132,0.461c4.729,1.577,8.9-2.937,8.522-7.335
			c2.987,0.304,6.012-1.201,6.868-4.636C225.679,147.211,221.13,139.275,218.48,132.144z"/>
		<path style="fill:#E0DFE6;" d="M93.435,64.223c-0.618-8.688-2.198-26.015-12.879-28.336c-0.67-0.146-1.408,0.597-0.962,1.251
			c5.158,7.552,5.598,22.145,2.989,31.886c-0.12-1.535-0.444-3.098-1.002-4.68c-0.897-2.541-4.613-3.451-6.052-0.791
			c-2.572,4.753-5.144,10.374-9.041,14.168c-4.203,4.092-9.758,5.595-12.571,11.117c-1.82,3.571-3.352,15.193,1.396,18.184
			c-0.434,0.372-0.753,0.934-0.835,1.691c-0.308,2.87-0.757,5.681-0.426,8.556c0.406,3.521,5.081,3.528,5.487,0
			c0.331-2.872-0.117-5.689-0.426-8.556c-0.049-0.457-0.193-0.836-0.389-1.153c0.676-0.31,1.102-1.004,1.173-1.792
			c0.482-5.362-2.386-8.918,3.482-12.965c1.442-0.994,2.971-1.769,4.503-2.526c-1.704,2.563-2.989,5.428-3.388,8.961
			c-0.989,8.775,13.365,7.778,13.466,0.729c2.821-5.917,7.919-9.986,11.365-15.537C93.047,78.44,93.927,71.145,93.435,64.223z"/>
		<path style="fill:#E0DFE6;" d="M60.073,29.609c-0.681-1.88-3.627-2.747-4.669-0.61c-2.709,5.556-1.293,11.776-0.696,17.68
			c0.213,2.108,3.487,2.964,3.995,0.541C59.882,41.607,62.113,35.236,60.073,29.609z"/>
		<path style="fill:#E0DFE6;" d="M62.433,4.547c-6.604,1.525-12.007,6.784-17.647,10.393c-5.197,3.326-12.459,6.203-16.891,10.43
			c-3.447,3.288-3.053,10.649-4.593,15.128c-2.354,6.846-5.707,13.318-11.335,17.969c-1.428,1.18-0.085,3.045,1.338,3.23
			c11.382,1.481,18.179-16.336,20.831-24.872c1.264-4.068,1.658-4.265,5.563-6.101c3.74-1.757,7.389-3.657,10.975-5.709
			c6.238-3.571,13.507-6.892,17.421-13.102C70.531,8.049,66.521,3.604,62.433,4.547z"/>
		<path style="fill:#E0DFE6;" d="M194.244,68.671c-2.302-2.181-4.582-1.889-7.468-1.601c-1.906,0.19-3.965,0.107-5.848-0.244
			c-2.004-0.374-4.496,1.848-2.992,3.891c3.063,4.158,11.771,10.281,16.308,4.722C195.844,73.479,196.273,70.593,194.244,68.671z"/>
		<g>
			<g>
				<path style="fill:#525D7D;" d="M36.011,93.724c-0.204,0-0.409-0.027-0.615-0.084c-10.5-2.946-19.459-9.963-25.229-19.759
					c-0.636-1.079-0.275-2.472,0.806-3.109c1.078-0.634,2.472-0.276,3.109,0.806c5.171,8.779,13.175,15.062,22.541,17.69
					c1.208,0.339,1.911,1.592,1.573,2.8C37.915,93.069,37.003,93.724,36.011,93.724z"/>
			</g>
			<g>
				<path style="fill:#525D7D;" d="M13.999,60.245c-0.643,0-1.282-0.272-1.731-0.8c-0.813-0.955-0.696-2.389,0.259-3.2
					c6.438-5.474,10.438-14.076,10.438-22.448c0-1.597-0.145-3.174-0.429-4.687c-0.2-1.057,0.369-2.108,1.364-2.519
					c9.842-4.064,20.287-8.797,29.986-15.85c1.01-0.739,2.435-0.516,3.171,0.501c0.738,1.014,0.513,2.433-0.501,3.171
					c-9.536,6.936-19.658,11.668-29.273,15.69c0.148,1.214,0.223,2.449,0.223,3.694c0,9.669-4.612,19.595-12.037,25.907
					C15.041,60.068,14.518,60.245,13.999,60.245z"/>
			</g>
			<g>
				<path style="fill:#525D7D;" d="M10.399,75.143c-5.817,0-9.872-4.211-9.872-7.99c0-4.62,5.44-7.727,8.69-9.585
					c1.087-0.618,2.476-0.244,3.098,0.846c0.621,1.09,0.244,2.476-0.846,3.098c-1.916,1.094-6.402,3.657-6.402,5.641
					c0,0.95,1.639,3.449,5.331,3.449c2.503,0,5.054-1.202,6.503-3.063c0.767-0.99,2.197-1.169,3.186-0.398
					c0.99,0.77,1.168,2.197,0.398,3.185C18.175,73.298,14.311,75.143,10.399,75.143z"/>
			</g>
			<g>
				<path style="fill:#525D7D;" d="M59.698,70.46c-0.733,0-1.453-0.355-1.891-1.011c-0.696-1.044-0.414-2.454,0.63-3.149
					c0.327-0.217,0.671-0.44,1.024-0.67c2.213-1.431,4.968-3.212,4.968-5.085c0-2.826-2.492-5.092-5.378-7.715
					c-3.704-3.368-8.315-7.56-8.315-14.428c0-4.506,1.978-8.418,3.638-10.909c0.696-1.044,2.105-1.326,3.149-0.63
					c1.044,0.695,1.326,2.105,0.63,3.149c-1.311,1.968-2.875,5.022-2.875,8.39c0,4.859,3.317,7.875,6.829,11.067
					c3.375,3.067,6.863,6.238,6.863,11.075c0,4.345-4.071,6.977-7.044,8.899c-0.336,0.217-0.662,0.427-0.971,0.634
					C60.569,70.337,60.131,70.46,59.698,70.46z"/>
			</g>
			<g>
				<path style="fill:#525D7D;" d="M40.24,50.918c-2.52,0-4.214-1.895-4.214-4.714c0-2.109,1.274-3.18,2.467-3.477
					c0.313-0.078,0.637-0.118,0.961-0.118c2.86,0,4.571,2.278,4.571,4.482c0,0.974-0.333,1.892-0.937,2.582
					C42.385,50.476,41.373,50.918,40.24,50.918z M40.221,46.377c-0.115,0-0.401,0.099-0.597,0.362
					c-0.135,0.183-0.149,0.343-0.137,0.377c-0.002,0,0.106,0.016,0.106,0.018c0.414-0.104,0.708-0.396,0.86-0.653
					C40.375,46.425,40.288,46.382,40.221,46.377z M40.624,46.665L40.624,46.665L40.624,46.665z"/>
			</g>
			<g>
				<path style="fill:#525D7D;" d="M63.476,37.327c-2.028,0-3.389-1.305-3.389-3.249c0-0.349,0.047-0.739,0.106-1.135
					c0.027-0.182,0.062-0.365,0.062-0.537c0-0.448,0.132-0.886,0.38-1.258c0.794-1.194,2.027-1.879,3.381-1.879
					c2.288,0,4.081,1.682,4.081,3.83C68.097,35.39,65.981,37.327,63.476,37.327z M63.556,33.077c0,0.408,0.282,0.733,0.46,0.733
					c0.195,0,0.365-0.108,0.414-0.164L63.556,33.077z"/>
			</g>
			<g>
				<path style="fill:#525D7D;" d="M46.189,80.765c-4.319,0-7.945-2.093-9.697-5.598c-0.56-1.122-0.105-2.486,1.016-3.047
					c1.123-0.557,2.486-0.105,3.047,1.016c0.967,1.934,3.073,3.088,5.635,3.088c1.023,0,2.065-0.189,3.016-0.546
					c1.172-0.44,2.483,0.152,2.924,1.328c0.44,1.174-0.154,2.483-1.328,2.924C49.345,80.476,47.751,80.765,46.189,80.765z"/>
			</g>
			<g>
				<path style="fill:#525D7D;" d="M63.324,109.384c-1.014,0-1.938-0.685-2.2-1.712c-0.458-1.808-0.692-3.701-0.692-5.627
					c0-6.875,3.017-14.278,8.08-19.854c0.086-0.115,0.182-0.225,0.291-0.325c7.104-6.563,11.367-15.971,12.005-26.488
					c0.9-14.893-6.46-29.695-18.751-37.707c-0.693-0.452-1.085-1.245-1.024-2.071c0.207-2.778,0.664-5.243,1.387-7.465
					c-5.521-1.227-11.208-2.451-16.655-2.451c-8.407,0.004-41.234,8.43-41.223,32.231c0.004,8.494,2.557,16.632,4.779,22.772
					c0.427,1.18-0.183,2.482-1.361,2.908c-1.177,0.429-2.481-0.18-2.908-1.361C2.702,55.744,0.004,47.117,0,37.918
					C-0.012,10.358,36.055,1.149,45.745,1.143c6.188,0.021,12.296,1.366,18.244,2.689l1.994,0.442
					c0.673,0.148,1.242,0.593,1.548,1.209c0.306,0.616,0.315,1.339,0.027,1.963c-0.95,2.047-1.567,4.411-1.876,7.193
					c12.945,9.044,20.629,24.985,19.659,41.013c-0.702,11.601-5.41,22.021-13.269,29.375c-4.464,4.837-7.098,11.177-7.098,17.017
					c0,1.549,0.186,3.067,0.553,4.51c0.309,1.215-0.427,2.451-1.642,2.76C63.697,109.362,63.509,109.384,63.324,109.384z"/>
			</g>
			<g>
				<path style="fill:#525D7D;" d="M44.407,110.304c-1.184,0-2.183-0.919-2.263-2.12c-0.374-5.632-3.255-11.273-7.709-15.09
					c-0.952-0.816-1.061-2.248-0.245-3.202c0.816-0.95,2.247-1.064,3.202-0.245c5.36,4.594,8.831,11.412,9.285,18.235
					c0.083,1.252-0.865,2.333-2.115,2.417C44.509,110.302,44.459,110.304,44.407,110.304z"/>
			</g>
			<g>
				<path style="fill:#525D7D;" d="M127.229,151.041c-1.202,0-2.205-0.943-2.266-2.157c-0.208-4.152-0.33-7.919-0.44-11.331
					c-0.815-25.13-0.939-28.993-29.331-28.993c-16.079,0-32.378,0.82-48.14,1.613c-8.733,0.439-17.765,0.894-26.713,1.208
					c-1.246,0.068-2.305-0.937-2.349-2.189c-0.044-1.253,0.936-2.304,2.189-2.349c8.914-0.313,17.928-0.766,26.645-1.205
					c15.817-0.795,32.175-1.619,48.368-1.619c31.585,0,32.995,6.376,33.869,33.386c0.111,3.388,0.232,7.128,0.437,11.251
					c0.062,1.254-0.902,2.319-2.154,2.382C127.306,151.039,127.268,151.041,127.229,151.041z"/>
			</g>
			<g>
				<path style="fill:#525D7D;" d="M54.926,124.226c-7.288,0-8.361-6.728-9.07-11.18c-0.197-1.224-0.381-2.381-0.646-3.31
					c-0.344-1.206,0.353-2.463,1.56-2.807c1.2-0.346,2.461,0.352,2.807,1.56c0.34,1.19,0.554,2.538,0.763,3.843
					c0.881,5.517,1.666,7.353,4.587,7.353c4.35,0,4.35-1.567,4.35-3.734c0-0.726-0.04-1.49-0.08-2.265
					c-0.046-0.88-0.09-1.771-0.09-2.643c0-0.835,0.04-1.56,0.123-2.214c0.158-1.245,1.293-2.115,2.537-1.969
					c1.245,0.157,2.126,1.293,1.969,2.537c-0.059,0.464-0.087,1.004-0.087,1.647c0,0.795,0.043,1.608,0.084,2.41
					c0.043,0.856,0.086,1.699,0.086,2.498C63.818,117.998,63.818,124.226,54.926,124.226z"/>
			</g>
			<g>
				<path style="fill:#525D7D;" d="M67.15,170.105c-0.294,0-0.591-0.058-0.872-0.174c-6.766-2.815-14.154-5.502-22.586-8.219
					c-1.113-0.359-1.771-1.503-1.522-2.646l0.399-1.82c2.614-11.94,5.316-24.287,6.646-36.521c0.136-1.248,1.276-2.145,2.503-2.012
					c1.246,0.136,2.148,1.256,2.012,2.503c-1.35,12.411-4.058,24.814-6.683,36.811c7.248,2.377,13.736,4.744,19.743,7.203
					c2.373-1.857,4.763-3.688,7.149-5.512c1.487-1.14,2.973-2.276,4.449-3.416c-8.495-9.945-15.572-20.923-21.05-32.661
					c-0.531-1.137-0.038-2.488,1.097-3.019c1.141-0.532,2.486-0.037,3.018,1.097c5.632,12.07,13.008,23.307,21.924,33.402
					c0.415,0.47,0.618,1.09,0.559,1.713c-0.058,0.624-0.37,1.196-0.865,1.58c-2.106,1.644-4.237,3.274-6.373,4.909
					c-2.718,2.081-5.446,4.167-8.142,6.294C68.149,169.939,67.651,170.105,67.15,170.105z"/>
			</g>
			<g>
				<path style="fill:#525D7D;" d="M135.19,151.303c-0.028,0-0.055,0-0.083-0.002c-1.252-0.044-2.232-1.097-2.188-2.35
					c0.031-0.887,0.046-1.775,0.046-2.665c0-2.523-0.109-5.115-0.217-7.622c-0.108-2.559-0.22-5.203-0.22-7.829
					c0-25.609,5.778-25.693,61.063-26.499c11.261-0.164,25.276-0.368,41.718-0.812c1.31-0.08,2.299,0.955,2.331,2.207
					c0.034,1.253-0.953,2.299-2.207,2.331c-16.472,0.447-30.503,0.65-41.776,0.815c-56.588,0.825-56.588,1.221-56.588,21.958
					c0,2.529,0.111,5.125,0.217,7.635c0.108,2.554,0.22,5.196,0.22,7.815c0,0.943-0.015,1.885-0.049,2.828
					C137.414,150.339,136.406,151.303,135.19,151.303z"/>
			</g>
			<g>
				<path style="fill:#525D7D;" d="M207.719,108.662c-0.129,0-0.26-0.01-0.392-0.034c-1.236-0.214-2.062-1.39-1.848-2.625
					c1.116-6.429,3.576-12.039,7.31-16.674c0.177-0.22,0.395-0.405,0.64-0.546c8.773-5.02,15.892-14.577,19.04-25.561
					c0.347-1.205,1.604-1.9,2.809-1.558c1.206,0.346,1.902,1.604,1.558,2.809c-3.422,11.938-11.168,22.38-20.768,28.03
					c-3.101,3.966-5.158,8.767-6.116,14.278C209.762,107.884,208.802,108.662,207.719,108.662z"/>
			</g>
			<g>
				<path style="fill:#525D7D;" d="M191.887,108.903c-1.211,0-2.216-0.955-2.268-2.174c-0.216-5.121-1.512-9.161-3.857-12.018
					c-13.858-5.617-23.04-19.393-24.014-36.104c-0.813-13.926,4.519-27.705,14.297-37.068c-0.444-0.81-2.466-2.418-3.468-3.215
					c-2.29-1.82-3.802-3.023-3.802-4.798c0-1.236,0-3.304,13.731-7.542c3.978-1.227,14.082-4.083,21.952-4.083
					c32.792,0,33.615,26.473,34.107,42.292c0.047,1.493,0.09,2.906,0.158,4.207c0.034,0.686,0.055,1.367,0.061,2.047
					c0.012,1.253-0.996,2.279-2.25,2.291c-1.265,0-2.279-1.002-2.291-2.25c-0.006-0.618-0.024-1.237-0.055-1.857
					c-0.069-1.327-0.114-2.772-0.161-4.299c-0.498-15.99-1.18-37.891-29.569-37.891c-9.733,0-25.196,5.02-30.153,7.443
					c0.371,0.307,0.769,0.624,1.097,0.884c2.572,2.044,5.23,4.158,5.23,6.753c0,0.25-0.018,0.52-0.037,0.766l-0.016,0.25
					c-0.012,0.622-0.279,1.249-0.738,1.669c-9.245,8.456-14.314,21.217-13.561,34.138c0.883,15.127,9.183,27.52,21.661,32.345
					c0.337,0.13,0.637,0.34,0.878,0.609c3.27,3.678,5.066,8.806,5.338,15.239c0.052,1.254-0.921,2.312-2.173,2.365
					C191.952,108.903,191.919,108.903,191.887,108.903z"/>
			</g>
			<g>
				<path style="fill:#525D7D;" d="M178.373,44.734c-0.053,0-0.105-0.002-0.158-0.002c-2.467-0.052-4.092-1.79-4.044-4.325
					c0.028-1.494,0.777-2.801,2.059-3.583c0.409-0.245,0.865-0.393,1.37-0.451c1.449-0.198,2.85,0.296,3.811,1.342
					c0.992,1.084,1.364,2.585,1.023,4.123C182.193,42.928,181.343,44.734,178.373,44.734z M178.046,40.821
					c0.044,0,0.111,0.044,0.161,0.055c0.012-0.007,0.171-0.047,0.37-0.164l-0.219-0.367C178.19,40.486,178.04,40.687,178.046,40.821
					z M178.37,40.335l0.223,0.367c0.056-0.04,0.117-0.148,0.118-0.21c-0.022-0.022-0.138-0.133-0.265-0.214
					c-0.025,0.016-0.05,0.035-0.076,0.056l-0.083-0.136L178.37,40.335z M178.283,40.189l-0.871-1.427L178.283,40.189z"/>
			</g>
			<g>
				<path style="fill:#525D7D;" d="M188.416,69.508c-0.069,0-0.139-0.003-0.21-0.009c-4.814-0.44-10.012-3.719-10.012-8.252
					c0-3.027,2.013-4.992,4.145-7.07c2.917-2.846,6.222-6.071,6.222-13.313c0-2.429-0.587-6.736-4.513-8.308
					c-1.163-0.466-1.729-1.787-1.264-2.952c0.466-1.163,1.784-1.728,2.952-1.264c4.682,1.873,7.366,6.438,7.366,12.524
					c0,9.156-4.387,13.437-7.592,16.562c-1.721,1.679-2.775,2.761-2.775,3.821c0,1.719,3.236,3.487,5.885,3.728
					c1.248,0.114,2.169,1.22,2.055,2.469C190.567,68.622,189.577,69.508,188.416,69.508z"/>
			</g>
			<g>
				<path style="fill:#525D7D;" d="M196.458,82.291c-0.933,0-1.849-0.111-2.721-0.327c-1.217-0.303-1.957-1.536-1.656-2.752
					c0.303-1.218,1.534-1.96,2.752-1.656c0.515,0.129,1.061,0.194,1.625,0.194c2.084,0,3.996-0.86,4.985-2.247
					c0.729-1.02,2.146-1.255,3.168-0.528c1.02,0.729,1.257,2.146,0.528,3.168C203.283,80.741,200.038,82.291,196.458,82.291z"/>
			</g>
			<g>
				<path style="fill:#525D7D;" d="M204.681,52.783c-1.486,0-3.684-0.97-3.684-3.05c0-0.114,0.013-0.251,0.034-0.389
					c-0.086-0.278-0.21-0.683-0.21-1.171c0-0.983,0.566-2.237,2.138-2.667c0.024-0.022,0.049-0.043,0.074-0.064
					c0.398-0.333,1.137-0.951,2.237-0.951c1.84,0,3.97,2.415,3.97,3.991C209.24,50.613,206.94,52.783,204.681,52.783z
					 M204.756,48.965c0.106,0.031,0.238,0.056,0.392,0.067c0.046-0.089,0.087-0.182,0.12-0.281
					c-0.179-0.293-0.401-0.467-0.516-0.514c-0.043,0.069-0.053,0.154-0.053,0.248C204.699,48.674,204.724,48.835,204.756,48.965z
					 M201.123,48.934c-0.004,0.015-0.01,0.031-0.015,0.047C201.114,48.965,201.119,48.949,201.123,48.934z"/>
			</g>
			<g>
				<path style="fill:#525D7D;" d="M233.461,53.369c-7.418,0-12.886-7.808-15.867-22.609c-18.821-0.333-26.568-4.999-30.793-7.543
					c-0.912-0.55-1.7-1.024-2.142-1.15c-1.206-0.344-1.904-1.601-1.56-2.807c0.346-1.206,1.602-1.899,2.807-1.559
					c1.021,0.293,1.999,0.881,3.237,1.626c3.985,2.401,11.406,6.871,30.336,6.911c1.097,0.003,2.035,0.788,2.231,1.867
					c1.125,6.231,4.523,20.725,11.75,20.725c0.279,0,0.56-0.038,0.842-0.071c0.461-0.055,0.924-0.103,1.388-0.103
					c1.254,0,2.271,1.017,2.271,2.271s-1.017,2.271-2.271,2.271c-0.287,0-0.574,0.038-0.86,0.072
					C234.373,53.32,233.914,53.369,233.461,53.369z"/>
			</g>
			<g>
				<path style="fill:#525D7D;" d="M227.938,67.159c-1.16,0-2.151-0.886-2.259-2.065c-0.114-1.249,0.807-2.353,2.056-2.467
					c8.235-0.748,12.958-2.761,12.958-5.523c0-2.404-3.59-4.566-6.68-4.823c-1.249-0.105-2.177-1.202-2.074-2.452
					c0.105-1.251,1.197-2.158,2.452-2.074c5.214,0.435,10.843,4.133,10.843,9.35c0,5.635-5.749,9.014-17.088,10.046
					C228.077,67.156,228.008,67.159,227.938,67.159z"/>
			</g>
			<g>
				<path style="fill:#525D7D;" d="M200.397,124.838c-10.732,0-10.732-10.929-10.732-16.181v-0.718c0-1.254,1.017-2.271,2.271-2.271
					c1.254,0,2.271,1.017,2.271,2.271v0.718c0,8.812,1.505,11.64,6.191,11.64c1.749,0,2.636-0.447,2.636-2.887
					c0-0.769-0.08-1.63-0.165-2.541c-0.096-1.03-0.195-2.095-0.195-3.181c0-1.2,0.124-2.24,0.381-3.175
					c0.33-1.209,1.574-1.926,2.789-1.589c1.209,0.331,1.922,1.58,1.589,2.789c-0.146,0.538-0.219,1.186-0.219,1.975
					c0,0.875,0.089,1.833,0.176,2.758c0.09,0.976,0.185,1.984,0.185,2.964C207.574,122.13,204.957,124.838,200.397,124.838z"/>
			</g>
			<g>
				<path style="fill:#525D7D;" d="M203.388,168.635c-0.409,0-0.82-0.109-1.187-0.334l-6.52-4.003
					c-4.58-2.814-9.161-5.629-13.742-8.414c-0.909-0.551-1.313-1.66-0.971-2.668c1.014-2.995,2.061-5.982,3.106-8.968
					c2.699-7.709,5.49-15.681,7.628-23.595c0.327-1.209,1.567-1.923,2.785-1.599c1.211,0.327,1.926,1.574,1.599,2.785
					c-2.182,8.073-5.001,16.125-7.727,23.91c-0.84,2.399-1.679,4.8-2.504,7.205c4.068,2.477,8.136,4.977,12.203,7.475l5.053,3.103
					c2.735-2.494,5.585-4.899,8.362-7.237c-4.273-11.699-9.931-29.638-9.931-31.174c0-1.323,0.355-2.556,1.027-3.567
					c0.696-1.044,2.106-1.324,3.149-0.633c1.044,0.695,1.327,2.103,0.633,3.149c-0.151,0.225-0.242,0.538-0.263,0.891
					c0.477,2.142,5.443,18.499,10.194,31.251c0.336,0.899,0.069,1.91-0.664,2.528l-0.953,0.804
					c-3.251,2.736-6.611,5.566-9.724,8.479C204.507,168.426,203.949,168.635,203.388,168.635z"/>
			</g>
			<g>
				<path style="fill:#525D7D;" d="M112.37,95.368c-7.215-0.155-14.908-0.687-24.259-1.678c-0.615-0.065-1.177-0.378-1.555-0.866
					c-0.38-0.489-0.543-1.113-0.451-1.725c1.978-13.325,3.422-27.028,4.818-40.28C92.618,34.733,94.37,18.1,97.099,1.894
					c0.208-1.237,1.385-2.068,2.617-1.863c1.237,0.208,2.071,1.379,1.862,2.616c-2.705,16.067-4.451,32.629-6.139,48.647
					c-1.319,12.523-2.682,25.451-4.5,38.124c7.325,0.735,13.607,1.174,19.459,1.356c1.267-9.233,5.162-37.951,8.251-64.477
					c0.034-0.287,0.037-0.837,0.049-1.552c0.086-4.996,0.245-14.297,6.009-14.297c0.979,0,3.959,0,5.356,11.109
					c0.157,1.245-0.726,2.38-1.969,2.537c-1.242,0.16-2.378-0.726-2.537-1.969c-0.251-1.996-0.823-4.659-1.357-6.269
					c-0.415,1.146-0.871,3.641-0.962,8.968c-0.015,0.921-0.034,1.631-0.077,1.999c-3.376,28.975-7.707,60.551-8.541,66.587
					C114.463,94.533,113.501,95.368,112.37,95.368z"/>
			</g>
			<g>
				<path style="fill:#525D7D;" d="M141.15,94.923c-0.807,0-1.613-0.024-2.418-0.074c-1.183-0.074-2.109-1.045-2.129-2.229
					c-0.099-6.151-1.135-11.651-2.854-20.766c-1.947-10.324-4.614-24.463-7.802-48.886c-0.163-1.243,0.714-2.383,1.957-2.545
					c1.252-0.173,2.383,0.714,2.546,1.957c3.172,24.296,5.824,38.363,7.762,48.634c1.565,8.306,2.581,13.688,2.862,19.369
					c3.169-0.019,6.371-0.389,9.734-0.806c2.152-0.267,4.356-0.543,6.58-0.702c-1.944-10.92-4.048-21.931-6.089-32.602
					c-3.156-16.512-6.42-33.585-9.121-50.512c-0.197-1.239,0.646-2.402,1.885-2.6c1.237-0.191,2.402,0.645,2.6,1.885
					c2.689,16.859,5.947,33.897,9.097,50.375c2.201,11.515,4.478,23.422,6.548,35.204c0.114,0.652-0.061,1.321-0.48,1.833
					c-0.42,0.511-1.042,0.815-1.704,0.831c-2.881,0.065-5.734,0.42-8.756,0.795C148.041,94.496,144.603,94.923,141.15,94.923z"/>
			</g>
			<g>
				<path style="fill:#525D7D;" d="M84.312,106.687c-0.585,0-1.169-0.225-1.614-0.673c-0.881-0.891-0.874-2.33,0.016-3.212
					c1.209-1.196,2.461-2.347,3.715-3.499c2.466-2.266,4.794-4.405,6.795-6.881c0.786-0.974,2.214-1.128,3.193-0.337
					c0.974,0.788,1.127,2.217,0.337,3.193c-2.211,2.736-4.775,5.091-7.252,7.369c-1.212,1.113-2.424,2.226-3.592,3.384
					C85.467,106.468,84.89,106.687,84.312,106.687z"/>
			</g>
			<g>
				<path style="fill:#525D7D;" d="M110.013,109.034c-1.152,0-2.138-0.872-2.256-2.043c-0.065-0.647-0.093-1.305-0.093-1.969
					c0-1.527,0.148-3.06,0.29-4.541c0.139-1.438,0.269-2.797,0.269-4.106c0-0.511-0.019-1.017-0.069-1.515
					c-0.126-1.248,0.783-2.361,2.031-2.486c1.258-0.133,2.362,0.783,2.486,2.031c0.065,0.649,0.093,1.305,0.093,1.971
					c0,1.527-0.148,3.06-0.29,4.541c-0.139,1.438-0.269,2.797-0.269,4.106c0,0.51,0.019,1.017,0.069,1.514
					c0.126,1.248-0.783,2.361-2.031,2.486C110.166,109.031,110.089,109.034,110.013,109.034z"/>
			</g>
			<g>
				<path style="fill:#525D7D;" d="M143.231,110.209c-0.996,0-1.91-0.661-2.188-1.667c-0.955-3.471-1.189-7.14-1.415-10.689
					c-0.071-1.137-0.143-2.279-0.241-3.422c-0.105-1.249,0.823-2.347,2.073-2.454c1.239-0.089,2.347,0.822,2.454,2.072
					c0.099,1.174,0.173,2.347,0.247,3.515c0.222,3.472,0.43,6.752,1.261,9.771c0.333,1.209-0.377,2.46-1.586,2.792
					C143.633,110.183,143.431,110.209,143.231,110.209z"/>
			</g>
			<g>
				<path style="fill:#525D7D;" d="M169.239,107.86c-0.658,0-1.31-0.284-1.759-0.832c-1.354-1.654-2.883-3.243-4.503-4.927
					c-2.452-2.548-4.99-5.183-6.979-8.166c-0.696-1.044-0.414-2.452,0.63-3.149c1.042-0.698,2.452-0.416,3.149,0.63
					c1.763,2.644,4.157,5.131,6.472,7.536c1.611,1.673,3.277,3.403,4.747,5.199c0.794,0.971,0.65,2.401-0.319,3.196
					C170.253,107.692,169.745,107.86,169.239,107.86z"/>
			</g>
		</g>
	</g>
</g>
<g id="Layer_1">
</g>
</svg>
