<?xml version="1.0" encoding="iso-8859-1"?>
<!-- Generator: Adobe Illustrator 21.0.2, SVG Export Plug-In . SVG Version: 6.00 Build 0)  -->
<svg version="1.1" xmlns="http://www.w3.org/2000/svg" xmlns:xlink="http://www.w3.org/1999/xlink" x="0px" y="0px"
	 viewBox="0 0 190.037 194.281" style="enable-background:new 0 0 190.037 194.281;" xml:space="preserve">
<g id="_x32_2">
	<g>
		<path style="fill:#E0DFE6;" d="M178.801,62.809c-2,1.849-4.969,2.468-8.199,2.694c1.012-0.539,2.005-1.132,2.979-1.768
			c4.921-1.71,8.469-8.547,3.851-13.734c-10.823-12.158-24.18-21.469-39.252-27.582c-7.585-3.076-15.604-4.948-23.698-6.088
			c-6.131-0.864-13.534-1.86-19.312,0.843c-0.685,0.321-0.539,1.274,0,1.631c2.532,1.677,5.514,2.766,8.582,3.682
			c5.124,5.453,9.899,11.392,13.324,18.087c3.337,6.524,2.888,13.055,4.516,19.708c-5.994,0.339-11.964,0.735-17.914,1.329
			c1.164-5.233-0.627-10.806-1.596-16.051c-1.279-6.922-2.966-13.587-5.34-20.213c-0.338-0.941-1.567-0.725-1.679,0.227
			c-0.825,7.038-1.134,14.019-1.234,21.103c-0.079,5.542-0.927,10.892,1.009,15.986c-3.165,0.441-6.324,0.955-9.479,1.573
			c-0.435,0.085-0.424,0.775,0,0.867c2.992,0.656,6,1.205,9.014,1.71c-2.556,1.427-5.012,2.759-8.134,2.475
			c-3.958-0.36-7.693-2.616-11.456-3.781c-7.311-2.263-13.215-1.285-20.151,1.589c-8.963,3.713-15.893-0.487-24.911-1.042
			c-4.948-0.305-11.106,0.356-13.371,5.381c-0.35,0.776,0.225,1.665,1.118,1.454c4.568-1.083,8.24-1.749,12.812-0.06
			c3.921,1.448,7.455,3.771,11.451,5.079c8.248,2.701,13.75-0.57,21.713-1.703c7.531-1.072,14.417,5.211,21.935,5.899
			c3.67,0.336,6.996-0.277,10.395-1.662c1.948-0.794,3.862-2.098,5.821-3.184c-1.498,3.639-1.759,7.654-2,11.583
			c-0.297,4.825-0.79,9.951,1.597,14.293c1.66,3.02,6.81,2.505,7.564-0.989c0.944-4.376-0.438-8.563-1.047-12.933
			c-0.606-4.354-0.521-8.94-1.989-13.115c-0.059-0.167-0.143-0.32-0.241-0.46c0.058-0.014,0.115-0.037,0.173-0.05
			c6.282-1.363,12.741,5.51,19.621,5.083c3.987-0.247,7.665-2.962,11.559-2.966c3.21-0.003,6.442,2.504,9.499,3.312
			c7.725,2.041,14.936-2.658,22.7-2.896c7.218-0.221,13.552-0.924,18.995-6.09C194.136,66.233,184.953,57.119,178.801,62.809z
			 M131.418,59.753c1.595-7.228-1.834-15.486-5.963-21.348c-4.348-6.172-10.039-10.599-16.331-14.405
			c1.389,0.388,2.756,0.788,4.059,1.242c6.942,2.42,13.49,5.694,19.889,9.293c9.931,5.586,18.884,12.561,26.875,20.593
			C150.947,58.589,141.354,59.225,131.418,59.753z"/>
		<path style="fill:#E0DFE6;" d="M73.362,156.005c5.114-7.151,6.39-16.276,6.253-25.674c-0.201-13.781,0.651-30.485-5.331-43.239
			c-0.676-1.441-3.15-1.096-3.453,0.451c-0.301,1.537-0.549,3.091-0.758,4.656c-0.441-0.968-0.904-1.917-1.413-2.824
			c-0.642-1.144-2.464-0.898-2.795,0.365c-3.233,12.329-0.271,25.884-2.759,38.497c-1.065,5.4-2.535,10.837-5.014,15.769
			c-2.141,4.26-5.01,7.815-3.781,12.721c0.181,0.721,0.616,1.353,1.18,1.839c0.143,1.626,0.895,3.02,2.445,4.025
			c0.315,0.204,0.63,0.408,0.944,0.612c1.955,1.267,4.923,1.257,6.879,0c1.268-0.815,2.409-1.7,3.467-2.63
			c2.971,2.947,4.109,7.807,4.63,11.816c0.127,0.977,0.103,2.229,0.037,3.601c-1.889,0.408-3.7,1.458-5.112,3.318
			c-5.731,7.555,2.288,18.032,11.003,14.126C92.368,187.797,83.892,161.464,73.362,156.005z"/>
		<path style="fill:#E0DFE6;" d="M52.744,167.881c-0.775-0.896-2.051-0.288-2.406,0.635c-1.352,3.516-3.511,5.731-6.43,8.002
			c-2.219,1.727-1.813,5.543,0,7.356c2.065,2.065,5.277,1.901,7.356,0C55.577,179.934,56.674,172.425,52.744,167.881z"/>
		<path style="fill:#E0DFE6;" d="M64.394,167.361c-3.201,2.94-5.493,6.669-7.95,10.221c-2.482,3.589-5.746,7.083-7.497,11.092
			c-0.92,2.107,1.011,4.479,3.262,3.262c4.075-2.204,7.251-6.268,10.112-9.82c2.934-3.643,5.669-7.355,6.96-11.911
			C70.103,167.303,66.49,165.436,64.394,167.361z"/>
		<path style="fill:#E0DFE6;" d="M185.637,149.545c-2.31-1.065-4.543-1.43-6.797-1.467c1.452-2.117,1.353-4.398-0.345-6.505
			c-3.72-4.617-10.215-3.156-15.521-2.994c-4.192,0.128-8.472,0.136-12.667,0.63c-0.874-3.593-1.57-7.264-2.249-10.855
			c-0.291-1.537-2.846-1.555-3.123,0c-0.534,2.994-1.086,6.042-1.734,9.058c-0.234-0.408-0.53-0.751-0.863-1.048
			c0.819-1.2,1.361-2.532,1.187-4.064c-0.702-6.192-8.744-4.75-12.502-2.46c-2.707,1.649-4.262,4.781-6.765,6.428
			c-0.512,0.337-1.174,0.569-1.902,0.753c0.112-7.319-2.626-15.39-6.666-18.922c-1.229-1.074-3.174-0.36-3.225,1.336
			c-0.12,3.963,0.336,7.732-0.046,11.603c-0.685-6.167-3.136-12.064-4.543-18.254c-0.323-1.422-2.53-1.407-2.863,0
			c-1.666,7.038-0.591,14.376-2.333,21.361c-1.377,5.52-7.305,10.499-5.65,16.288c0.301,1.054,1.185,2.057,2.293,2.294
			c4.318,0.923,7.442-1.588,9.572-5.071c0.353,1.191,1.177,2.199,2.219,2.816c-2.244,0.28-4.453,0.708-6.564,1.633
			c-0.874,0.383-0.937,1.734-0.301,2.331c0.726,0.681,1.508,1.289,2.329,1.84c-1.707,8.791-0.632,19.588,6.006,26.052
			c5.8,5.647,19.907,5.3,19.727-5.125c-0.034-1.961-1.749-4.044-3.868-3.868c-1.889,0.157-3.774,0.875-5.638,0.966
			c-2.443,0.12-3.518-0.995-4.988-2.987c-2.736-3.704-4.899-8.22-6.54-12.712c11.053,3.84,25.891-0.736,30.86-11.126
			c0.653,1.187,1.742,2.131,3.085,2.465c1.35,0.336,2.719,0.584,4.099,0.778c-3.31,1.514-4.348,6.937,0.165,7.854
			c6.156,1.25,12.501,1.809,18.778,1.898c5.852,0.083,12.417,0.943,17.371-2.537C188.319,156.051,189.238,151.207,185.637,149.545z
			 M116.76,149.899c0.504-0.319,0.969-0.681,1.399-1.083c0.837,0.197,1.679,0.367,2.525,0.475
			C119.388,149.577,118.076,149.757,116.76,149.899z"/>
		<g>
			<path style="fill:#E0DFE6;" d="M46.914,134.811c0.025-0.009,0.051-0.019,0.075-0.028
				C47.428,134.624,46.149,135.006,46.914,134.811z"/>
			<path style="fill:#E0DFE6;" d="M50.32,136.009c-0.838-1.133-1.984-1.564-3.349-1.212c-0.336,0.114-0.643,0.219-0.893,0.365
				c-0.559,0.327-0.9,0.772-1.241,1.295c-0.089,0.137-0.147,0.217-0.169,0.25c-0.063,0.07-0.126,0.139-0.187,0.211
				c-0.577,0.754-0.724,0.943-0.442,0.568c-0.142,0.11-0.284,0.297-0.433,0.454c0.006-0.003-0.193,0.103-0.326,0.177
				c-0.099,0.031-0.493,0.194-0.746,0.302c0.002-0.013-0.48-0.027-0.488-0.028c-1.955-0.171-2.389,2.235-1.431,3.455
				c1.439,1.834,3.873,2.222,6.02,1.576c1.351-0.406,2.77-1.231,3.501-2.482C51.013,139.439,51.415,137.489,50.32,136.009z"/>
		</g>
		<path style="fill:#E0DFE6;" d="M49.463,123.003c-0.872-1.108-1.596-1.206-2.216-2.634c-0.487-1.121-0.441-2.319-0.63-3.484
			c-0.046-0.285-0.378-0.499-0.651-0.495c-2.238,0.029-3.756,2.472-4.227,4.384c-0.75,3.05,0.237,6.659,2.973,8.385
			c1.637,1.033,3.932,0.496,5.057-1.01C51.028,126.465,50.707,124.584,49.463,123.003z"/>
		<path style="fill:#E0DFE6;" d="M83.15,29.35c-4.916,3.885-9.089,8.317-11.951,13.925c-2.32,4.547-5.135,10.549-3.794,15.666
			c0.455,1.734,3.189,2.272,4.028,0.527c2.037-4.235,1.77-9.215,3.364-13.699c2.042-5.743,5.036-11.131,9.052-15.719
			C84.277,29.561,83.643,28.96,83.15,29.35z"/>
		<g>
			<g>
				<path style="fill:#525D7D;" d="M161.799,72.447c-0.38,0-0.76-0.1-1.101-0.302c-2.938-1.741-6.452-3.521-10.254-3.521
					c-1.91,0-7.512,0.997-12.413,3.398c-0.654,0.32-1.424,0.289-2.051-0.082c-5.246-3.11-11.313-4.753-17.545-4.753
					c-6.085,0-11.847,1.579-16.66,4.568c-0.682,0.424-1.538,0.433-2.229,0.029c-3.873-2.266-8.334-3.464-12.902-3.464
					c-3.884,0-7.737,0.883-11.141,2.555c-0.72,0.354-1.576,0.28-2.222-0.193c-5.011-3.648-6.113-3.638-9.12-3.634l-0.557,0.001
					c-7.599,0-14.059,1.166-19.203,3.466c-0.652,0.292-1.41,0.241-2.017-0.135c-4.088-2.53-9.071-3.868-14.408-3.868
					c-5.146,0-10.306,1.22-14.921,3.529c-0.822,0.413-1.822,0.256-2.481-0.392c-0.658-0.648-0.831-1.642-0.43-2.475
					c17.547-36.477,49.887-55.757,93.527-55.757c30.827,0,60.142,17.932,84.774,51.858c0.527,0.726,0.55,1.701,0.059,2.451
					c-0.492,0.751-1.392,1.121-2.271,0.926c-1.801-0.397-3.554-0.59-5.358-0.59c-6.39,0-13.023,2.214-17.742,5.921
					C162.743,72.292,162.272,72.447,161.799,72.447z M150.444,64.306c4.273,0,8.021,1.622,11.206,3.404
					c5.621-3.948,13.169-6.206,20.278-5.944c-16.823-21.889-43.302-46.028-78.256-46.028c-39.773,0-69.735,16.638-87.016,48.208
					c3.66-1.152,7.493-1.749,11.321-1.749c5.727,0,11.128,1.357,15.7,3.935c5.511-2.256,12.208-3.399,19.928-3.399l0.542-0.001
					c3.594-0.014,5.527,0.142,10.639,3.721c3.69-1.605,7.762-2.449,11.858-2.449c4.897,0,9.696,1.182,13.957,3.429
					c5.261-2.988,11.398-4.562,17.835-4.562c6.613,0,13.07,1.651,18.746,4.783C142.319,65.349,147.926,64.306,150.444,64.306z"/>
			</g>
			<g>
				<path style="fill:#525D7D;" d="M97.347,14.128c-1.192,0-2.159-0.966-2.159-2.159c0-2.413,0-4.691-0.448-6.935
					c-0.235-1.169,0.524-2.307,1.694-2.54c1.161-0.234,2.307,0.524,2.54,1.694c0.533,2.662,0.533,5.264,0.533,7.781
					C99.506,13.162,98.539,14.128,97.347,14.128z"/>
			</g>
			<g>
				<path style="fill:#525D7D;" d="M10.527,53.37c-0.267,0-0.54-0.05-0.803-0.155c-1.106-0.443-1.645-1.7-1.202-2.807
					c0.209-0.522,0.302-1.16,0.302-2.067c0-0.507-0.028-1.02-0.054-1.529c-0.031-0.578-0.059-1.154-0.059-1.718
					c0-0.827,0.06-1.512,0.188-2.154c0.235-1.169,1.37-1.924,2.54-1.694c1.169,0.233,1.927,1.37,1.694,2.54
					c-0.07,0.356-0.104,0.772-0.104,1.308c0,0.491,0.027,0.992,0.053,1.496c0.03,0.584,0.059,1.171,0.059,1.752
					c0,0.921-0.063,2.303-0.612,3.672C12.194,52.856,11.383,53.37,10.527,53.37z"/>
			</g>
			<g>
				<path style="fill:#525D7D;" d="M10.036,35.22c-1.192,0-2.159-0.966-2.159-2.159c0-1.034-0.143-2.108-0.295-3.246
					c-0.165-1.227-0.333-2.496-0.333-3.817c0-0.754,0.055-1.449,0.167-2.122C7.612,22.7,8.721,21.9,9.901,22.102
					c1.177,0.197,1.971,1.309,1.774,2.485c-0.073,0.436-0.108,0.897-0.108,1.411c0,1.034,0.143,2.108,0.295,3.246
					c0.164,1.227,0.333,2.496,0.333,3.817C12.195,34.254,11.228,35.22,10.036,35.22z"/>
			</g>
			<g>
				<path style="fill:#525D7D;" d="M8.565,14.619c-1.192,0-2.159-0.966-2.159-2.159V5.592c0-1.193,0.967-2.159,2.159-2.159
					c1.192,0,2.159,0.966,2.159,2.159v6.867C10.724,13.652,9.756,14.619,8.565,14.619z"/>
			</g>
			<g>
				<path style="fill:#525D7D;" d="M21.318,15.109c-1.192,0-2.159-0.966-2.159-2.159V4.121c0-1.193,0.967-2.159,2.159-2.159
					c1.192,0,2.159,0.966,2.159,2.159v8.829C23.477,14.143,22.51,15.109,21.318,15.109z"/>
			</g>
			<g>
				<path style="fill:#525D7D;" d="M22.299,36.692c-1.192,0-2.159-0.966-2.159-2.159V22.76c0-1.193,0.967-2.159,2.159-2.159
					c1.192,0,2.159,0.966,2.159,2.159v11.773C24.458,35.726,23.491,36.692,22.299,36.692z"/>
			</g>
			<g>
				<path style="fill:#525D7D;" d="M35.543,13.147c-1.192,0-2.159-0.966-2.159-2.159V5.102c0-1.193,0.967-2.159,2.159-2.159
					c1.192,0,2.159,0.966,2.159,2.159v5.886C37.702,12.181,36.735,13.147,35.543,13.147z"/>
			</g>
			<g>
				<path style="fill:#525D7D;" d="M36.034,28.844c-1.192,0-2.159-0.966-2.159-2.159v-7.358c0-1.193,0.967-2.159,2.159-2.159
					c1.192,0,2.159,0.966,2.159,2.159v7.358C38.193,27.877,37.225,28.844,36.034,28.844z"/>
			</g>
			<g>
				<path style="fill:#525D7D;" d="M49.744,16.542c-1.004,0-1.889-0.679-2.093-1.697c-0.181-0.908-0.19-5.056-0.19-5.098
					c0-0.564,0.03-1.14,0.059-1.719c0.027-0.51,0.055-1.022,0.055-1.529c0-0.907-0.093-1.544-0.302-2.066
					c-0.443-1.107,0.096-2.364,1.202-2.807c1.105-0.443,2.364,0.095,2.807,1.202C51.83,4.197,51.893,5.58,51.893,6.5
					c0,0.582-0.029,1.169-0.06,1.754c-0.027,0.503-0.053,1.004-0.053,1.493c0,1.028,0.049,3.809,0.115,4.307
					c0.155,1.156-0.628,2.265-1.778,2.457C49.991,16.532,49.866,16.542,49.744,16.542z"/>
			</g>
			<g>
				<path style="fill:#525D7D;" d="M62.521,13.147c-1.192,0-2.159-0.966-2.159-2.159c0-1.882,0-3.658-0.426-5.363
					c-0.29-1.157,0.413-2.329,1.57-2.618c1.161-0.294,2.331,0.415,2.619,1.571c0.555,2.22,0.555,4.35,0.555,6.41
					C64.68,12.181,63.713,13.147,62.521,13.147z"/>
			</g>
			<g>
				<path style="fill:#525D7D;" d="M75.275,10.204c-1.192,0-2.159-0.966-2.159-2.159V4.121c0-1.193,0.967-2.159,2.159-2.159
					c1.192,0,2.159,0.966,2.159,2.159v3.924C77.434,9.238,76.467,10.204,75.275,10.204z"/>
			</g>
			<g>
				<path style="fill:#525D7D;" d="M113.536,8.733c-0.791,0-1.555-0.438-1.933-1.194c-0.221-0.443-0.333-0.931-0.333-1.453
					c0-0.524,0.111-0.983,0.2-1.352c0.008-0.034,0.018-0.07,0.027-0.104c-0.669-0.728-0.788-1.851-0.209-2.695
					c0.666-0.975,1.972-1.248,2.955-0.592c1.054,0.703,1.635,1.763,1.635,2.983c0,0.559-0.115,1.038-0.209,1.423
					c-0.018,0.078-0.039,0.155-0.056,0.23c0.283,0.98-0.166,2.053-1.11,2.526C114.19,8.659,113.861,8.733,113.536,8.733z
					 M111.848,4.937h0.014H111.848z"/>
			</g>
			<g>
				<path style="fill:#525D7D;" d="M126.778,11.185c-1.192,0-2.159-0.966-2.159-2.159c0-0.413,0.018-0.845,0.039-1.291
					c0.018-0.403,0.038-0.817,0.038-1.236c0-1.22-0.181-1.96-0.627-2.554c-0.715-0.954-0.521-2.307,0.433-3.023
					c0.954-0.713,2.307-0.522,3.022,0.432c1.335,1.781,1.49,3.789,1.49,5.145c0,0.486-0.021,0.966-0.042,1.433
					c-0.018,0.377-0.035,0.744-0.035,1.094C128.938,10.219,127.97,11.185,126.778,11.185z"/>
			</g>
			<g>
				<path style="fill:#525D7D;" d="M139.53,14.129c-0.939,0-1.804-0.618-2.075-1.567c-0.482-1.688-0.697-3.383-0.697-5.498
					c0-0.81,0.031-1.619,0.062-2.443c0.031-0.8,0.062-1.616,0.062-2.462c0-1.193,0.967-2.159,2.159-2.159
					c1.192,0,2.159,0.966,2.159,2.159c0,0.902-0.032,1.772-0.065,2.626c-0.029,0.77-0.059,1.524-0.059,2.279
					c0,1.696,0.164,3.026,0.531,4.312c0.328,1.146-0.336,2.342-1.483,2.669C139.927,14.101,139.727,14.129,139.53,14.129z"/>
			</g>
			<g>
				<path style="fill:#525D7D;" d="M152.285,10.204c-1.192,0-2.159-0.966-2.159-2.159c0-0.535,0.032-1.07,0.065-1.606
					c0.028-0.446,0.058-0.892,0.058-1.337c0-0.846-0.115-1.437-0.385-1.977c-0.533-1.067-0.101-2.364,0.966-2.897
					c1.07-0.529,2.364-0.1,2.897,0.966c0.753,1.507,0.841,2.952,0.841,3.908c0,0.536-0.032,1.07-0.065,1.606
					c-0.028,0.446-0.058,0.892-0.058,1.337C154.444,9.238,153.477,10.204,152.285,10.204z"/>
			</g>
			<g>
				<path style="fill:#525D7D;" d="M152.774,25.41c-1.192,0-2.159-0.966-2.159-2.159v-7.357c0-1.193,0.967-2.159,2.159-2.159
					c1.192,0,2.159,0.966,2.159,2.159v7.357C154.933,24.443,153.966,25.41,152.774,25.41z"/>
			</g>
			<g>
				<path style="fill:#525D7D;" d="M164.057,16.09c-1.192,0-2.159-0.966-2.159-2.159V2.65c0-1.193,0.967-2.159,2.159-2.159
					s2.159,0.966,2.159,2.159v11.282C166.216,15.124,165.249,16.09,164.057,16.09z"/>
			</g>
			<g>
				<path style="fill:#525D7D;" d="M164.547,31.296c-0.966,0-1.844-0.651-2.092-1.63c-0.146-0.576-0.214-1.188-0.214-1.927
					c0-0.474,0.03-0.959,0.06-1.447c0.027-0.402,0.053-0.806,0.053-1.206c0-0.623-0.072-1.044-0.231-1.364
					c-0.531-1.068-0.097-2.364,0.97-2.896c1.067-0.531,2.363-0.096,2.896,0.97c0.613,1.23,0.683,2.466,0.683,3.289
					c0,0.491-0.031,0.988-0.062,1.482c-0.025,0.396-0.052,0.788-0.052,1.172c0,0.367,0.027,0.651,0.081,0.867
					c0.292,1.156-0.408,2.33-1.563,2.623C164.899,31.275,164.722,31.296,164.547,31.296z"/>
			</g>
			<g>
				<path style="fill:#525D7D;" d="M175.339,14.619c-1.192,0-2.159-0.966-2.159-2.159V2.65c0-1.193,0.967-2.159,2.159-2.159
					s2.159,0.966,2.159,2.159v9.81C177.498,13.652,176.531,14.619,175.339,14.619z"/>
			</g>
			<g>
				<path style="fill:#525D7D;" d="M176.317,31.787c-1.008,0-1.909-0.71-2.114-1.737c-0.128-0.637-0.19-1.3-0.19-2.025
					c0-0.51,0.031-1.008,0.062-1.503c0.025-0.398,0.052-0.794,0.052-1.195c0-0.705-0.091-1.234-0.304-1.768
					c-0.441-1.108,0.098-2.363,1.206-2.805c1.108-0.439,2.363,0.098,2.806,1.207c0.416,1.044,0.61,2.114,0.61,3.366
					c0,0.493-0.029,0.98-0.06,1.47c-0.027,0.405-0.053,0.812-0.053,1.229c0,0.444,0.034,0.819,0.105,1.179
					c0.235,1.169-0.524,2.307-1.694,2.54C176.601,31.773,176.458,31.787,176.317,31.787z"/>
			</g>
			<g>
				<path style="fill:#525D7D;" d="M180.245,46.993c-0.173,0-0.349-0.021-0.524-0.065c-1.157-0.289-1.861-1.461-1.572-2.617
					c0.025-0.104,0.038-0.215,0.038-0.34c0-0.427-0.138-0.976-0.283-1.557c-0.193-0.772-0.412-1.645-0.412-2.605
					c0-0.479,0.056-0.944,0.166-1.384c0.288-1.157,1.458-1.86,2.617-1.573c1.157,0.289,1.861,1.46,1.572,2.617
					c-0.024,0.1-0.037,0.211-0.037,0.339c0,0.427,0.138,0.976,0.283,1.557c0.193,0.772,0.412,1.645,0.412,2.605
					c0,0.475-0.056,0.941-0.167,1.385C182.093,46.337,181.213,46.993,180.245,46.993z"/>
			</g>
			<g>
				<path style="fill:#525D7D;" d="M41.396,165.794c-11.262,0-26.053-9.291-31.915-29.689c-0.33-1.146,0.332-2.343,1.479-2.671
					c1.134-0.332,2.342,0.33,2.671,1.478c5.246,18.251,18.069,26.564,27.766,26.564c24.443,0,29.573-29.104,29.573-53.52
					c0-7.188-0.402-14.751-1.226-23.064c-3.642-0.052-7.307-0.212-10.87-0.369c-4.283-0.188-8.712-0.382-13.026-0.382
					c-25.594,0-34.549,2.704-34.549,33.014c0,1.513,0.044,3.014,0.129,4.458c0.072,1.191-0.836,2.213-2.027,2.284
					c-1.22,0.067-2.212-0.838-2.283-2.027c-0.091-1.53-0.138-3.116-0.138-4.715c0-31.691,10.184-37.332,38.867-37.332
					c4.408,0,8.885,0.196,13.214,0.386c4.155,0.182,8.451,0.37,12.638,0.382c1.102,0.003,2.025,0.836,2.142,1.933
					c0.973,9.224,1.445,17.543,1.445,25.433C75.287,145.794,63.569,165.794,41.396,165.794z"/>
			</g>
			<g>
				<path style="fill:#525D7D;" d="M15.923,129.399c-0.237,0-0.481-0.04-0.718-0.124c-1.125-0.396-1.715-1.629-1.318-2.754
					c0.735-2.082,0.834-4.773,0.834-7.129c0-0.786-0.011-1.58-0.023-2.373c-0.013-0.815-0.024-1.629-0.024-2.437
					c0-17.92,12.673-19.61,46.21-19.61c3.69,0,6.006,3.024,8.049,5.691c1.438,1.876,2.924,3.816,4.627,4.436
					c1.12,0.408,1.698,1.646,1.292,2.767c-0.408,1.121-1.647,1.7-2.768,1.291c-2.889-1.051-4.85-3.61-6.58-5.868
					c-1.574-2.056-3.063-3.999-4.62-3.999c-36.961,0-41.892,3.074-41.892,15.292c0,0.786,0.011,1.581,0.023,2.374
					c0.013,0.815,0.024,1.629,0.024,2.436c0,2.859-0.131,5.876-1.078,8.565C17.646,128.845,16.813,129.399,15.923,129.399z"/>
			</g>
			<g>
				<path style="fill:#525D7D;" d="M10.212,137.746C3.34,137.746,0,135.12,0,129.718c0-5.17,5.154-9.248,10.004-10.459
					c1.157-0.294,2.329,0.414,2.617,1.571c0.29,1.157-0.415,2.329-1.572,2.618c-3.251,0.813-6.732,3.525-6.732,6.27
					c0,1.739,0,3.71,5.894,3.71c0.89,0,1.753-0.123,2.637-0.376c1.14-0.327,2.34,0.335,2.669,1.483
					c0.328,1.146-0.336,2.341-1.483,2.669C12.777,137.563,11.491,137.746,10.212,137.746z"/>
			</g>
			<g>
				<path style="fill:#525D7D;" d="M31.014,122.207c-1.373,0-2.603-0.495-3.464-1.395c-0.762-0.796-1.199-1.884-1.199-2.981
					c0-1.677,0.981-3.012,2.392-3.416c0.694-0.467,1.521-0.719,2.395-0.719c2.342,0,3.977,1.638,3.977,3.981
					C35.116,120.048,33.16,122.207,31.014,122.207z"/>
			</g>
			<g>
				<path style="fill:#525D7D;" d="M58.47,121.962c-1.83,0-3.35-1.328-3.611-3.052c-0.209-0.589-0.157-1.241,0.173-1.784
					c0.316-0.89,1.098-1.856,2.99-1.856c0.855,0,1.615,0.497,1.978,1.217c0.103,0.085,0.201,0.176,0.294,0.273
					c0.593,0.622,0.932,1.467,0.932,2.319C61.225,120.696,60.015,121.962,58.47,121.962z"/>
			</g>
			<g>
				<path style="fill:#525D7D;" d="M42.402,142.697c-0.399,0-0.803-0.022-1.213-0.068c-1.185-0.131-2.038-1.199-1.907-2.384
					c0.134-1.186,1.202-2.036,2.385-1.907c0.247,0.027,0.493,0.041,0.735,0.041c3.982,0,5.8-3.522,6.209-5.072
					c-0.179-0.196-0.395-0.427-0.586-0.631c-2.229-2.383-6.871-7.34-6.871-13.141c0-5.104,3.985-10.288,6.848-10.288
					c0.675,0,1.318,0.271,1.815,0.764c0.846,0.84,0.852,2.207,0.011,3.053c-0.458,0.462-1.071,0.679-1.677,0.633
					c-0.932,0.773-2.679,3.175-2.679,5.838c0,4.095,3.711,8.06,5.706,10.189c1.227,1.311,1.843,1.968,1.843,3.034
					C53.021,136.226,49.374,142.697,42.402,142.697z"/>
			</g>
			<g>
				<path style="fill:#525D7D;" d="M41.232,153.058c-2.558,0-4.682-0.66-6.494-2.018c-0.953-0.715-1.147-2.069-0.432-3.023
					c0.717-0.954,2.068-1.146,3.024-0.432c1.05,0.788,2.29,1.155,3.902,1.155c1.442,0,2.978-0.28,4.605-0.576
					c1.046-0.19,2.13-0.387,3.202-0.507c1.185-0.137,2.253,0.722,2.385,1.907c0.131,1.185-0.723,2.253-1.907,2.384
					c-0.925,0.103-1.888,0.278-2.907,0.464C44.866,152.729,43.063,153.058,41.232,153.058z"/>
			</g>
			<g>
				<path style="fill:#525D7D;" d="M9.057,191.694c-0.042,0-0.086-0.001-0.128-0.004c-1.191-0.07-2.099-1.092-2.028-2.283
					c0.047-0.801,0.052-1.778,0.06-2.878c0.059-8.409,0.184-25.909,19.618-25.909c1.276,0,2.537,0.068,3.756,0.134
					c1.213,0.066,2.468,0.133,3.736,0.133c1.192,0,2.159,0.966,2.159,2.159c0,1.193-0.967,2.159-2.159,2.159
					c-1.385,0-2.699-0.071-3.969-0.14c-1.215-0.065-2.363-0.127-3.523-0.127c-13.978,0-15.223,10.681-15.3,21.622
					c-0.008,1.185-0.017,2.238-0.069,3.102C11.142,190.809,10.191,191.694,9.057,191.694z"/>
			</g>
			<g>
				<path style="fill:#525D7D;" d="M75.276,189.731c-0.042,0-0.084-0.001-0.128-0.003c-1.189-0.07-2.099-1.091-2.028-2.281
					l0.045-0.765c0.121-2.042,0.246-4.153,0.246-6.197c0-12.087-4.609-17.244-15.411-17.244l-1.855,0.004
					c-1.192,0-2.159-0.966-2.159-2.159c0-1.193,0.967-2.159,2.159-2.159l1.855-0.004c13.092,0,19.729,7.255,19.729,21.562
					c0,2.172-0.129,4.349-0.254,6.453l-0.045,0.76C77.363,188.846,76.412,189.731,75.276,189.731z"/>
			</g>
			<g>
				<path style="fill:#525D7D;" d="M48.3,190.275c-0.611,0-1.196-0.259-1.608-0.718c-7.756-8.654-14.89-16.303-23.647-22.274
					c-0.985-0.671-1.24-2.015-0.568-3c0.67-0.986,2.016-1.239,3-0.568c8.428,5.746,15.303,12.85,22.539,20.857
					c2.686-4.067,5.593-8.007,8.418-11.838c1.924-2.609,3.915-5.307,5.79-7.985c0.683-0.978,2.031-1.212,3.007-0.531
					c0.977,0.684,1.215,2.03,0.53,3.007c-1.905,2.721-3.91,5.441-5.852,8.071c-3.33,4.514-6.772,9.182-9.782,13.967
					c-0.36,0.574-0.97,0.945-1.645,1.002C48.423,190.272,48.361,190.275,48.3,190.275z"/>
			</g>
			<g>
				<path style="fill:#525D7D;" d="M39.469,179.431c-0.173,0-0.349-0.021-0.526-0.065c-1.157-0.289-1.86-1.461-1.57-2.618
					c0.917-3.667,0.917-7.955,0.917-11.739c0-1.193,0.967-2.159,2.159-2.159c1.192,0,2.159,0.966,2.159,2.159
					c0,4.033,0,8.604-1.046,12.786C41.317,178.776,40.436,179.431,39.469,179.431z"/>
			</g>
			<g>
				<path style="fill:#525D7D;" d="M54.179,179.922c-1.008,0-1.909-0.711-2.114-1.737c-0.402-2.011-1.177-3.962-1.997-6.027
					c-1.056-2.656-2.148-5.403-2.447-8.406c-0.119-1.186,0.746-2.245,1.933-2.364c1.188-0.116,2.245,0.747,2.363,1.933
					c0.24,2.401,1.175,4.752,2.163,7.241c0.856,2.153,1.742,4.381,2.22,6.776c0.233,1.169-0.524,2.307-1.694,2.541
					C54.461,179.908,54.319,179.922,54.179,179.922z"/>
			</g>
			<g>
				<path style="fill:#525D7D;" d="M100.351,153.741c-5.281,0-13.138-5.595-13.138-21.009c0-4.528,0.721-14.521,6.487-21.759
					c2.596-5.729,6.57-6.19,7.765-6.19c4.899,0,14.048,6.446,14.048,21.974c0,10.962-3.243,17.466-5.963,20.992
					C106.373,151.866,102.554,153.741,100.351,153.741z M96.666,114.263c-3.274,4.5-5.135,11.027-5.135,18.469
					c0,12.16,5.41,16.691,8.82,16.691c1.418-0.046,10.843-4.508,10.843-22.667c0-14.399-8.217-17.655-9.73-17.655
					c-0.173,0.494-0.463,0.948-0.91,1.264c-1.154,0.814-2.212,1.81-3.167,2.966C97.232,113.717,96.978,114.033,96.666,114.263z"/>
			</g>
			<g>
				<path style="fill:#525D7D;" d="M111.082,124.493H99.8c-1.192,0-2.159-0.966-2.159-2.159c0-1.193,0.967-2.159,2.159-2.159h11.282
					c1.192,0,2.159,0.966,2.159,2.159C113.241,123.527,112.274,124.493,111.082,124.493z"/>
			</g>
			<g>
				<path style="fill:#525D7D;" d="M110.591,135.775H99.8c-1.192,0-2.159-0.966-2.159-2.159c0-1.193,0.967-2.159,2.159-2.159h10.791
					c1.192,0,2.159,0.966,2.159,2.159C112.75,134.809,111.783,135.775,110.591,135.775z"/>
			</g>
			<g>
				<path style="fill:#525D7D;" d="M100.781,145.095c-0.856,0-1.667-0.514-2.004-1.358c-0.443-1.108,0.096-2.364,1.203-2.806
					c1.043-0.417,2.113-0.611,3.368-0.611c0.492,0,0.978,0.03,1.467,0.06c0.838,0.053,1.716,0.086,2.409-0.052
					c1.158-0.237,2.305,0.524,2.54,1.694c0.235,1.169-0.524,2.307-1.694,2.54c-1.081,0.215-2.329,0.202-3.528,0.128
					c-0.399-0.025-0.794-0.052-1.195-0.052c-0.707,0-1.234,0.091-1.766,0.302C101.32,145.045,101.048,145.095,100.781,145.095z"/>
			</g>
			<g>
				<path style="fill:#525D7D;" d="M127.71,116.105c-10.479,0-12.807-8.406-14.346-13.969c-0.9-3.245-1.569-5.372-2.641-5.372
					c-2.18,0-4.051,4.857-5.056,7.466c-0.364,0.947-0.68,1.766-0.992,2.391c-0.531,1.068-1.829,1.497-2.897,0.966
					c-1.067-0.534-1.499-1.83-0.966-2.897c0.221-0.44,0.514-1.203,0.825-2.012c1.57-4.075,3.943-10.232,9.086-10.232
					c4.439,0,5.694,4.536,6.802,8.538c1.808,6.525,3.492,10.802,10.185,10.802l15.744-0.015c1.193,0,2.159,0.966,2.16,2.158
					c0.001,1.193-0.966,2.16-2.158,2.16L127.71,116.105z"/>
			</g>
			<g>
				<path style="fill:#525D7D;" d="M121.077,150.976c-1.529,0-3.019-0.231-4.46-0.454c-2.231-0.346-4.342-0.586-5.897-0.123
					c-1.143,0.342-2.347-0.306-2.687-1.449c-0.343-1.142,0.306-2.345,1.448-2.688c2.315-0.692,5.204-0.41,7.797-0.007
					c1.338,0.207,2.602,0.403,3.8,0.403c3.834,0,4.629-1.467,6.07-4.13c2.017-3.728,4.78-8.833,17.029-8.833l0.364,0.001
					c1.193,0.007,2.153,0.98,2.146,2.172c-0.007,1.188-0.973,2.146-2.159,2.146c-0.013,0-0.351-0.001-0.351-0.001
					c-9.676,0-11.404,3.192-13.233,6.571C129.403,147.432,127.484,150.976,121.077,150.976z"/>
			</g>
			<g>
				<path style="fill:#525D7D;" d="M145.226,152.625c-0.527,0-1.037-0.193-1.434-0.545c-0.429-0.382-0.689-0.919-0.722-1.492
					c-0.744-13.108-1.156-25.742-1.258-38.623c-0.006-0.645,0.278-1.259,0.773-1.673c0.495-0.414,1.148-0.588,1.784-0.466
					c5.445,1.021,10.925,1.151,15.09,1.151c2.44,0,4.889-0.051,7.343-0.103c4.172-0.087,8.358-0.171,12.541-0.018
					c1.191,0.044,2.121,1.046,2.078,2.237c-0.045,1.191-0.977,2.125-2.238,2.078c-4.1-0.152-8.205-0.065-12.291,0.02
					c-2.484,0.052-4.963,0.103-7.433,0.103c-3.704,0-8.411-0.101-13.304-0.8c0.127,11.225,0.491,22.298,1.109,33.706
					c2.312-0.092,4.499-0.106,6.257-0.106c1.348,0,2.7,0.01,4.052,0.02c1.344,0.01,2.688,0.02,4.033,0.02
					c7.363,0,13.508-0.322,19.568-1.893c1.156-0.299,2.332,0.393,2.633,1.548c0.299,1.154-0.394,2.333-1.548,2.632
					c-6.502,1.685-12.959,2.031-20.653,2.031c-1.355,0-2.71-0.01-4.065-0.02c-1.341-0.01-2.682-0.02-4.02-0.02
					c-2.238,0-5.188,0.024-8.16,0.207C145.315,152.623,145.27,152.625,145.226,152.625z"/>
			</g>
			<g>
				<path style="fill:#525D7D;" d="M98.878,107.685c-1.113,0-2.059-0.857-2.149-1.987c-0.578-7.216-0.652-14.34-0.652-19.739
					c0-2.845,0.022-5.691,0.046-8.54c0.023-2.846,0.046-5.694,0.046-8.55c0-1.193,0.967-2.159,2.159-2.159
					c1.192,0,2.159,0.966,2.159,2.159c0,2.868-0.024,5.729-0.046,8.586c-0.024,2.837-0.046,5.672-0.046,8.505
					c0,5.32,0.073,12.332,0.638,19.395c0.096,1.188-0.791,2.229-1.979,2.324C98.995,107.683,98.936,107.685,98.878,107.685z"/>
			</g>
			<g>
				<path style="fill:#525D7D;" d="M119.556,183.483c-15.379,0-16.474-17.076-17.062-26.25c-0.121-1.883-0.225-3.508-0.411-4.622
					c-0.197-1.176,0.599-2.288,1.774-2.484c1.181-0.2,2.288,0.597,2.485,1.775c0.222,1.329,0.333,3.057,0.461,5.056
					c0.72,11.237,2.298,22.208,12.752,22.208c7.107,0,9.477-6.906,9.477-8.761c0-1.193,0.967-2.159,2.159-2.159
					s2.159,0.966,2.159,2.159C133.351,175.099,128.741,183.483,119.556,183.483z"/>
			</g>
		</g>
	</g>
</g>
<g id="Layer_1">
</g>
</svg>
