<?xml version="1.0" encoding="iso-8859-1"?>
<!-- Generator: Adobe Illustrator 21.0.2, SVG Export Plug-In . SVG Version: 6.00 Build 0)  -->
<svg version="1.1" xmlns="http://www.w3.org/2000/svg" xmlns:xlink="http://www.w3.org/1999/xlink" x="0px" y="0px"
	 viewBox="0 0 178.616 196.155" style="enable-background:new 0 0 178.616 196.155;" xml:space="preserve">
<g id="_x32_4">
	<g>
		<path style="fill:#E0DFE6;" d="M115.17,67.548c-6.162-6.472-15.477-9.787-24.35-9.131c-16.568,1.225-34.182,15.589-35.452,32.884
			c-0.136,1.848,2.395,2.762,3.609,1.495c9.074-9.469,14.565-22.957,29.557-24.309c6.709-0.605,13.643,2.676,18.017,7.68
			c3.905,4.468,3.902,11,8.289,14.875c2.224,1.964,5.185,1.515,6.853-0.883C126.607,83.092,120.25,72.884,115.17,67.548z"/>
		<path style="fill:#E0DFE6;" d="M137.308,109.394c-0.483-0.498-1.293-0.463-1.781,0c-1.294,1.226-2.244,2.801-3.039,4.497
			c-0.085-0.319-0.16-0.639-0.264-0.958c-0.608-1.876-3.277-2.966-4.736-1.251c-4.034,4.742-5.995,10.637-9.667,15.646
			c-4.463,6.088-10.902,10.999-17.992,13.582c-16.958,6.178-32.963-1.885-48.351-8.425c-0.42-0.178-0.959,0.21-0.677,0.677
			c4.083,6.751,10.533,11.997,17.957,15.423c-1.752-0.615-3.505-1.219-5.091-2.023c-4.042-2.048-7.948-4.73-11.823-7.071
			c-0.405-0.244-1.071,0.063-1.015,0.583c0.609,5.718,3.029,9.732,7.246,13.737c4.161,3.952,10.449,8.145,16.369,6.835
			c3.497-0.774,4.73-5.669,2.13-8.068c-0.963-0.889-2.08-1.575-3.27-2.165c9.587,3.319,20.238,3.76,29.339,0.704
			c4.964-1.667,10.892-4.894,16.197-9.124c1.199,3.859,6.057,6.46,9.713,2.659c5.055-5.257,8.749-11.455,10.583-18.541
			C140.473,120.94,141.344,113.56,137.308,109.394z"/>
		<path style="fill:#E0DFE6;" d="M100.555,164.948c-2.698-0.335-5.469,0.334-8.199,0.115c-2.499-0.2-4.936-1.169-7.436-1.121
			c-1.36,0.026-2.683,1.431-2.169,2.847c2.387,6.573,12.846,10.671,19.249,8.845C108.309,173.834,106.342,165.665,100.555,164.948z"
			/>
		<path style="fill:#E0DFE6;" d="M156.493,175.34l0.219-0.414c0.531-1.006,0.681-2.367,0-3.36l-0.679-0.991
			c-1.566-2.285-3.664-2.948-6.305-2.566c-13.148,1.904-25.461,5.168-37.908,9.79c-2.318,0.861-1.381,3.986,1.004,3.643
			c5.952-0.854,11.977-1.461,18.018-1.865c-1.45,0.353-2.9,0.711-4.357,1.03c-7.682,1.682-16.076,4.115-23.896,1.917
			c-6.657-1.871-11.98-6.954-18.335-9.632c-5.904-2.488-11.829-2.95-18.025-1.531c-0.423,0.097-0.343,0.649,0,0.781
			c8.86,3.413,15.042,8.673,22.246,14.603c5.305,4.366,10.881,7.695,17.741,8.852c7.054,1.189,14.223,0.283,21.214-0.935
			c9.178-1.599,18.725-3.516,27.536-6.552C161.501,185.86,161.043,178.058,156.493,175.34z"/>
		<path style="fill:#E0DFE6;" d="M170.839,185.114c-2.545,0.39-4.665,2.05-7.016,3.036c-2.553,1.071-5.207,1.771-7.958,2.1
			c-1.947,0.233-2.644,3.018-0.49,3.622c6.042,1.695,14.511,2.717,19.629-1.604C178.647,189.193,174.563,184.543,170.839,185.114z"
			/>
		<path style="fill:#E0DFE6;" d="M169.792,40.886c3.052-12.268-0.151-27.065-6.768-36.373c-1.227-1.725-4.107-0.742-3.535,1.49
			c2.073,8.087,2.485,17.132,0.8,25.34c-1.304,6.352-4.388,11.916-6.664,17.853c-2.691,5.287-3.92,11.463-4.46,17.217
			c-0.58,6.185-1.305,16.148,3.775,20.737c-0.426,0.702-0.887,1.365-1.433,1.923c-6.197,6.336-10.37-1.394-15.337-4.635
			c-1.003-0.654-2.139,0.051-2.511,1.022c-2.423,6.327,2.597,13.866,8.192,16.827c7.474,3.956,15.335-0.766,19.934-6.802
			c4.987-6.545,6.423-14.496,6.87-22.518c0.282-5.054,0.099-10.237,0.881-15.243c0.728-4.662,2.275-9.078,2.772-13.79
			C172.501,42.112,171.25,41.093,169.792,40.886z"/>
		<path style="fill:#E0DFE6;" d="M139.688,40.017c-1.475-1.904-3.808-2.371-6.069-1.758c-2.324,0.63-3.946,2.377-5.618,4.001
			c-2.713,2.634-6.025,6.118-7.033,9.851c-0.417,1.545,0.779,3.232,2.429,3.188c3.753-0.099,7.649-2.29,10.792-4.192
			C137.813,48.916,143.378,44.78,139.688,40.017z"/>
		<path style="fill:#E0DFE6;" d="M42.069,56.244c-0.921-5.353-1.788-10.802-4.374-15.642c-1.045-1.956-3.794-1.291-4.439,0.58
			c-1.094,3.173-1.501,6.544-1.668,9.927c-0.46-0.469-0.929-0.88-1.412-1.185c-0.431-0.272-1.137,0.191-0.925,0.711
			c1.248,3.06,0.05,7.161-0.248,10.334c-0.351,3.744-0.552,7.488-0.82,11.236c-0.382,5.351-4.14,11.564-2.859,16.623
			c0.065,0.256,0.173,0.512,0.304,0.76c-1.868,0.121-3.504,0.763-4.155,2.636c-1.752,5.036,5.989,7.492,9.541,7.157
			c6.174-0.583,10.878-6.276,8.07-12.34c-0.32-0.691-0.851-1.189-1.472-1.542c1.407-3.755,1.727-8.793,1.237-13.939
			c0.654-0.21,1.263-0.561,1.749-1.012C44.657,66.78,42.91,61.131,42.069,56.244z"/>
		<path style="fill:#E0DFE6;" d="M65.222,29.594c-3.158-4.681-8.516-7.669-12.414-11.77c-3.299-3.472-6.032-9.884-10.366-11.932
			c-0.605-0.286-1.525-0.225-1.846,0.484c-2.287,5.048,1.81,12.175,4.547,16.403c2.739,4.23,6.698,9.382,11.529,11.827
			c-1.922-0.357-3.966-0.488-5.968-0.778c-4.308-0.625-9.749-2.388-13.989-1.007c-1.169,0.381-2.047,1.892-1.236,3.04
			c2.662,3.769,7.726,5.243,11.899,6.847c4.463,1.714,10.485,4.611,14.852,1.559c1.714-1.197,2.74-3.596,1.452-5.539
			c-0.867-1.308-1.926-2.201-3.109-2.84C63.859,36.303,67.468,32.923,65.222,29.594z"/>
		<g>
			<g>
				<path style="fill:none;" d="M98.943,61.44c-3.635-1.403-7.404-2.312-11.234-2.504c-0.406-0.02-0.811-0.033-1.216-0.037
					c-18.595-0.217-33.902,15.741-33.527,34.01c0.001,0.053,0.006,0.104,0.007,0.156c12.426-0.051,24.852-0.021,37.275-0.549
					c9.423-0.401,18.843-0.976,28.263-1.504c0.003-0.41,0.007-0.819-0.004-1.233C118.149,76.338,109.994,65.706,98.943,61.44z"/>
			</g>
			<g>
				<path style="fill:none;" d="M54.086,99.063c0.409,16.097,13.917,28.591,31.32,28.492c17.344-0.102,30.455-13.454,30.564-30.364
					c-8.895,0.481-17.79,1.005-26.687,1.37C77.553,99.044,65.82,99.016,54.086,99.063z"/>
			</g>
			<g>
				<path style="fill:#525D7D;" d="M82.54,154.394c-0.044,0-0.087-0.001-0.131-0.004c-25.86-1.552-45.741-21.193-46.243-45.688
					l0.001-0.247c-0.016-1.186,0.929-2.241,2.115-2.266c5.597-0.114,11.139-0.149,16.294-0.169c1.179,0,2.137,0.933,2.167,2.104
					c0.382,15.074,12.815,26.388,28.953,26.388c0.065,0,0.131,0,0.196,0c16.097-0.094,28.314-12.225,28.417-28.218
					c0.008-1.141,0.902-2.08,2.042-2.142c6.033-0.327,11.111-0.586,16.284-0.784c0.582-0.035,1.154,0.195,1.577,0.599
					c0.423,0.406,0.663,0.966,0.665,1.552c0.075,22.026-13.868,40.896-34.694,46.954c-1.146,0.333-2.344-0.326-2.676-1.47
					c-0.333-1.144,0.325-2.343,1.47-2.676c18.249-5.309,30.691-21.442,31.536-40.551c-3.808,0.16-7.654,0.353-11.96,0.583
					c-1.134,17.144-15.1,30.37-32.637,30.473c-0.07,0-0.141,0-0.211,0c-17.49,0.001-31.63-12.316-33.154-28.484
					c-3.855,0.018-7.895,0.049-11.984,0.118c1.428,21.392,19.191,38.24,42.1,39.615c1.191,0.072,2.097,1.094,2.026,2.284
					C84.625,153.509,83.673,154.394,82.54,154.394z"/>
			</g>
			<g>
				<path style="fill:#525D7D;" d="M35.755,95.41c-0.559,0-1.097-0.216-1.5-0.606c-0.414-0.399-0.652-0.949-0.659-1.524
					c-0.189-14.013,5.55-27.909,15.747-38.124c10.203-10.222,23.53-15.798,37.57-15.597c0.645,0.007,1.29,0.027,1.937,0.059
					c5.749,0.287,11.74,1.619,17.805,3.961c18.424,7.113,30.677,24.846,31.218,45.179c0.008,0.322,0.007,0.641,0.006,0.96
					l-0.001,0.427c0.003,1.161-0.912,2.118-2.073,2.165c-5.79,0.23-11.677,0.548-17.175,0.857c-0.598,0.021-1.178-0.181-1.61-0.592
					c-0.432-0.412-0.675-0.983-0.67-1.58c0.004-0.481,0.006-0.818-0.003-1.158c-0.316-11.886-7.453-22.241-18.182-26.384
					c-3.621-1.399-7.175-2.194-10.565-2.363c-0.376-0.018-0.754-0.03-1.131-0.034c-8.259-0.106-16.137,3.194-22.151,9.26
					c-6.013,6.067-9.364,14.283-9.196,22.542c0.002,0.034,0.006,0.134,0.007,0.149c0.015,0.58-0.205,1.143-0.609,1.56
					c-0.405,0.416-0.96,0.652-1.541,0.655C47.526,95.246,41.669,95.284,35.755,95.41z M86.311,43.876
					c-12.65,0-24.672,5.076-33.912,14.332c-8.851,8.867-14.051,20.73-14.463,32.841c4.388-0.079,8.738-0.112,12.89-0.132
					c0.351-8.725,4.087-17.242,10.426-23.637c6.845-6.906,15.801-10.621,25.265-10.539c0.43,0.004,0.862,0.018,1.295,0.039
					c3.853,0.193,7.858,1.082,11.908,2.647c12.059,4.655,20.179,16.09,20.903,29.306c4.186-0.232,8.552-0.461,12.904-0.649
					C132.744,69.832,121.654,54,105.1,47.609c-5.635-2.176-11.175-3.413-16.464-3.677c-0.592-0.03-1.181-0.046-1.772-0.053
					C86.68,43.876,86.495,43.876,86.311,43.876z"/>
			</g>
			<g>
				<g>
					<path style="fill:#525D7D;" d="M17.855,90.37c-1.95,0-3.256-0.779-4.04-1.486c-1.113-1.004-1.833-2.473-2.027-4.135
						c-0.252-2.158,0.259-3.937,0.799-5.822c0.701-2.446,1.496-5.216,0.942-9.963c-0.933-7.974-4.109-14.787-7.181-21.377
						C3.553,41.596,0.914,35.935,0.21,29.908C-1.143,18.338,4.297,8.229,9.099,1.785c0.713-0.954,2.064-1.153,3.022-0.441
						c0.956,0.713,1.153,2.066,0.441,3.022c-4.334,5.815-9.25,14.88-8.062,25.041c0.624,5.336,3.12,10.688,5.762,16.355
						c3.067,6.578,6.544,14.034,7.557,22.701c0.656,5.606-0.306,8.96-1.08,11.654c-0.472,1.645-0.813,2.834-0.661,4.131
						c0.072,0.62,0.296,1.127,0.63,1.428c0.347,0.312,0.875,0.43,1.559,0.35c0.595-0.069,1.232-0.284,1.794-0.606
						c1.034-0.599,2.353-0.236,2.947,0.798c0.593,1.035,0.235,2.353-0.799,2.946c-1.072,0.616-2.261,1.013-3.44,1.151
						C18.448,90.353,18.145,90.37,17.855,90.37z"/>
				</g>
				<g>
					<path style="fill:#525D7D;" d="M24.996,94.723c-1.614,0-3.092-0.765-4.214-2.197c-0.916-1.168-1.551-2.768-1.74-4.387
						c-0.239-2.04,0.037-3.579,0.328-5.208c0.398-2.225,0.849-4.747,0.255-9.827c-0.271-2.319-0.68-4.669-1.074-6.944
						c-0.405-2.336-0.824-4.753-1.11-7.198c-0.621-5.309-0.334-8.258-0.055-11.112c0.057-0.583,0.114-1.171,0.164-1.784
						c0.096-1.188,1.134-2.068,2.326-1.978c1.188,0.097,2.074,1.139,1.978,2.326c-0.052,0.637-0.111,1.247-0.17,1.854
						c-0.268,2.747-0.52,5.341,0.046,10.192c0.272,2.326,0.681,4.682,1.076,6.961c0.405,2.332,0.823,4.743,1.108,7.18
						c0.668,5.714,0.135,8.694-0.293,11.089c-0.264,1.474-0.454,2.54-0.29,3.947c0.097,0.826,0.422,1.678,0.85,2.224
						c0.462,0.59,0.795,0.55,0.924,0.536c6.805-0.796,8.498-17.173,7.498-25.729c-0.314-2.686-0.941-5.465-1.548-8.151
						c-0.628-2.785-1.278-5.663-1.615-8.553c-0.209-1.782-0.344-4.806-0.037-7.454c0.484-4.19,1.983-6.462,4.453-6.751
						c0.479-0.056,0.959,0.049,1.37,0.298c1.813,1.099,3.927,2.678,6.164,4.35c4.995,3.733,11.204,8.378,14.937,8.118
						c0.649-0.046,2.169-0.153,3.121-3.447c0.252-0.87,0.314-1.872,0.185-2.976c-0.59-5.053-3.802-7.072-7.869-9.629
						c-5.329-3.35-11.963-7.519-13.396-19.78c-0.319-2.731-0.334-5.67-0.042-8.737c0.112-1.188,1.183-2.065,2.353-1.945
						c1.187,0.112,2.058,1.167,1.945,2.353c-0.262,2.765-0.252,5.399,0.032,7.829C43.85,20.4,49.04,23.664,54.061,26.82
						c4.439,2.79,9.029,5.674,9.859,12.781c0.197,1.677,0.087,3.251-0.325,4.678c-1.48,5.115-4.606,6.387-6.967,6.553
						c-5.31,0.412-11.967-4.588-17.825-8.965c-1.639-1.226-3.209-2.399-4.587-3.327c-0.59,1.493-0.913,5.287-0.488,8.924
						c0.311,2.662,0.907,5.305,1.539,8.104c0.63,2.796,1.283,5.687,1.623,8.601c0.499,4.269,0.419,11.258-0.886,17.251
						c-2.227,10.22-6.884,12.856-10.399,13.268C25.401,94.712,25.197,94.723,24.996,94.723z"/>
				</g>
			</g>
			<g>
				<g>
					<path style="fill:#525D7D;" d="M154.751,90.37c-0.29,0-0.593-0.017-0.912-0.053c-1.178-0.138-2.367-0.536-3.439-1.15
						c-1.035-0.593-1.393-1.913-0.801-2.948c0.594-1.033,1.916-1.39,2.947-0.8c0.562,0.322,1.2,0.538,1.794,0.607
						c0.689,0.084,1.212-0.036,1.56-0.35c0.333-0.301,0.557-0.808,0.629-1.428c0.152-1.299-0.189-2.487-0.661-4.133
						c-0.773-2.695-1.735-6.049-1.08-11.653c1.013-8.667,4.489-16.123,7.556-22.701c2.643-5.666,5.138-11.019,5.762-16.355
						c1.188-10.161-3.728-19.226-8.061-25.041c-0.713-0.956-0.515-2.309,0.441-3.022c0.958-0.711,2.309-0.513,3.021,0.441
						c4.802,6.443,10.242,16.553,8.888,28.123c-0.704,6.027-3.343,11.688-6.136,17.679c-3.072,6.59-6.249,13.403-7.181,21.377
						c-0.555,4.745,0.24,7.517,0.941,9.962c0.541,1.886,1.051,3.666,0.799,5.824c-0.194,1.663-0.914,3.132-2.026,4.135
						C158.007,89.591,156.7,90.37,154.751,90.37z"/>
				</g>
				<g>
					<path style="fill:#525D7D;" d="M147.609,94.723c-0.201,0-0.404-0.011-0.609-0.035c-3.515-0.412-8.172-3.047-10.398-13.268
						c-1.305-5.992-1.386-12.982-0.887-17.251c0.34-2.915,0.993-5.807,1.624-8.604c0.632-2.797,1.228-5.44,1.539-8.101
						c0.425-3.638,0.103-7.432-0.489-8.924c-1.377,0.928-2.948,2.101-4.587,3.327c-5.857,4.377-12.479,9.363-17.825,8.965
						c-2.361-0.166-5.487-1.438-6.968-6.553c-0.413-1.429-0.522-3.002-0.325-4.679c0.831-7.106,5.421-9.99,9.86-12.78
						c5.021-3.156,10.212-6.42,11.405-16.626c0.284-2.43,0.294-5.065,0.032-7.829c-0.113-1.186,0.758-2.241,1.945-2.353
						c1.165-0.122,2.24,0.758,2.353,1.945c0.292,3.067,0.277,6.006-0.042,8.737c-1.433,12.261-8.066,16.431-13.396,19.782
						c-4.067,2.555-7.278,4.574-7.869,9.626c-0.129,1.103-0.067,2.106,0.185,2.978c0.953,3.292,2.473,3.399,3.122,3.445
						c3.762,0.253,9.943-4.384,14.937-8.118c2.237-1.673,4.35-3.251,6.164-4.35c0.41-0.249,0.89-0.359,1.37-0.298
						c2.47,0.29,3.968,2.561,4.453,6.751c0.306,2.65,0.171,5.672-0.037,7.454c-0.337,2.889-0.987,5.767-1.615,8.55
						c-0.607,2.688-1.234,5.467-1.548,8.154c-0.999,8.556,0.694,24.933,7.498,25.729c0.124,0.014,0.46,0.055,0.924-0.536
						c0.427-0.545,0.753-1.397,0.85-2.224c0.164-1.406-0.027-2.473-0.29-3.947c-0.428-2.394-0.961-5.375-0.292-11.088
						c0.285-2.44,0.703-4.854,1.108-7.185c0.396-2.277,0.804-4.632,1.076-6.956c0.567-4.852,0.314-7.447,0.046-10.195
						c-0.059-0.606-0.118-1.214-0.17-1.851c-0.096-1.188,0.789-2.229,1.977-2.326c1.195-0.09,2.23,0.789,2.327,1.978
						c0.05,0.611,0.107,1.198,0.164,1.781c0.278,2.853,0.567,5.803-0.055,11.114c-0.285,2.444-0.704,4.859-1.11,7.194
						c-0.395,2.274-0.803,4.627-1.075,6.948c-0.594,5.081-0.143,7.603,0.254,9.828c0.292,1.629,0.567,3.167,0.328,5.206
						c-0.189,1.619-0.824,3.219-1.74,4.388C150.701,93.958,149.222,94.723,147.609,94.723z"/>
				</g>
			</g>
			<g>
				<path style="fill:#525D7D;" d="M104.77,167.734c-0.188,0-0.378-0.024-0.568-0.076c-0.88-0.239-1.874-0.346-3.221-0.346
					c-0.638,0-1.28,0.022-1.922,0.045c-0.691,0.022-1.384,0.046-2.073,0.046c-2.508,0-20.79-2.852-20.79-9.281
					c0-4.426,5.813-9.359,14.154-9.359c1.811,0,3.604,0.16,5.338,0.316c1.718,0.155,3.339,0.299,4.961,0.299
					c3.401,0,5.951-0.905,8.903-1.954c3.634-1.29,7.753-2.754,14.161-2.754c6.42,0,11.04,2.898,15.115,5.454
					c3.7,2.321,6.895,4.325,11.058,4.325c1.126,0,2.229-0.164,3.373-0.503c1.147-0.337,2.345,0.315,2.683,1.458
					c0.338,1.144-0.315,2.345-1.458,2.683c-1.527,0.451-3.073,0.68-4.599,0.68c-5.405,0-9.445-2.534-13.352-4.984
					c-3.931-2.465-7.644-4.795-12.821-4.795c-5.664,0-9.249,1.273-12.716,2.505c-3.05,1.082-6.202,2.203-10.348,2.203
					c-1.815,0-3.61-0.162-5.346-0.316c-1.716-0.155-3.335-0.299-4.953-0.299c-6.537,0-9.621,3.605-9.825,4.91
					c1.308,2.059,12.486,5.094,16.461,5.094c0.64,0,1.283-0.023,1.926-0.045c0.691-0.022,1.382-0.046,2.069-0.046
					c1.747,0,3.089,0.153,4.354,0.498c1.15,0.312,1.83,1.498,1.517,2.65C106.591,167.103,105.72,167.734,104.77,167.734z"/>
			</g>
			<g>
				<path style="fill:#525D7D;" d="M109.797,184.294c-13.98,0-23.104-5.762-29.765-9.969c-1.309-0.828-2.546-1.608-3.688-2.26
					c-5.306-3.032-12.726-3.764-18.689-4.353c-7.43-0.732-13.848-1.366-13.848-6.564c0-6.767,10.664-7.777,17.021-7.777
					c3.967,0,7.932,0.424,11.767,0.836c1.909,0.204,3.806,0.408,5.681,0.557c1.189,0.094,2.076,1.133,1.982,2.322
					c-0.093,1.189-1.131,2.078-2.322,1.982c-1.916-0.152-3.852-0.359-5.801-0.568c-3.723-0.399-7.572-0.811-11.308-0.811
					c-7.242,0-12.703,1.487-12.703,3.459c0,1.286,6.23,1.9,9.953,2.267c6.372,0.628,14.301,1.411,20.407,4.9
					c1.224,0.7,2.5,1.505,3.851,2.359c6.562,4.145,14.729,9.303,27.46,9.303c4.549,0,9.283-0.949,14.295-1.952
					c5.612-1.126,11.415-2.288,17.665-2.288c3.627,0,6.914,0.415,10.047,1.269c1.15,0.313,1.829,1.501,1.515,2.651
					c-0.314,1.15-1.508,1.829-2.651,1.515c-2.758-0.752-5.672-1.118-8.911-1.118c-5.821,0-11.411,1.12-16.817,2.204
					C119.712,183.305,114.775,184.294,109.797,184.294z"/>
			</g>
			<g>
				<path style="fill:#525D7D;" d="M156.225,192.81c-0.523,0-1.033-0.191-1.429-0.541c-0.46-0.406-0.725-0.99-0.73-1.604
					c-0.048-7.715-0.388-15.624-0.717-23.27c-0.178-4.152-0.356-8.299-0.491-12.43c-0.02-0.603,0.214-1.188,0.645-1.611
					c0.431-0.423,1.019-0.641,1.622-0.616c2.765,0.141,4.587,0.311,6.195,0.461c2.371,0.222,4.244,0.398,8.167,0.398
					c1.311,0,2.62-0.021,3.931-0.065c1.165-0.07,2.19,0.893,2.23,2.085c0.04,1.192-0.893,2.191-2.085,2.231
					c-1.359,0.046-2.716,0.068-4.076,0.068c-4.125,0-6.184-0.193-8.569-0.416c-1.056-0.098-2.205-0.207-3.663-0.308
					c0.121,3.331,0.264,6.673,0.408,10.018c0.296,6.896,0.602,14.004,0.696,21.023c2.228-0.252,4.052-0.441,5.762-0.62
					c3.591-0.374,6.691-0.697,12.04-1.435c1.177-0.155,2.27,0.664,2.433,1.844c0.163,1.182-0.663,2.271-1.844,2.435
					c-5.419,0.746-8.553,1.072-12.181,1.451c-2.267,0.238-4.735,0.495-8.092,0.888C156.393,192.805,156.309,192.81,156.225,192.81z"
					/>
			</g>
			<g>
				<path style="fill:#525D7D;" d="M165.648,184.384c-0.993,0-3.719-0.708-3.719-2.99l-0.004-0.332
					c-0.016-0.897-0.041-2.253,0.935-3.247c0.398-0.405,1.105-0.887,2.217-0.887h1.318c0.572,0,1.12,0.226,1.525,0.631
					c1.715,1.711,1.715,2.835,1.715,3.205C169.635,182.66,167.734,184.384,165.648,184.384z M166.247,181.35l0.001,0.045
					C166.247,181.379,166.247,181.365,166.247,181.35z"/>
			</g>
		</g>
	</g>
</g>
<g id="Layer_1">
</g>
</svg>
