<?xml version="1.0" encoding="iso-8859-1"?>
<!-- Generator: Adobe Illustrator 21.0.2, SVG Export Plug-In . SVG Version: 6.00 Build 0)  -->
<svg version="1.1" xmlns="http://www.w3.org/2000/svg" xmlns:xlink="http://www.w3.org/1999/xlink" x="0px" y="0px"
	 viewBox="0 0 242.143 197.411" style="enable-background:new 0 0 242.143 197.411;" xml:space="preserve">
<g id="_x32_5">
	<g>
		<g>
			<path style="fill:#E0DFE6;" d="M125.359,133.56c-5.403-7.935-18.128-8.422-25.35-2.767c-7.477,5.854-6.386,14.599-2.339,22.008
				c0.749,1.372,3.166,0.433,2.584-1.089c-1.727-4.508,1.438-10.203,5.252-12.759c4.786-3.208,8.463-0.64,12.679,1.782
				C122.517,143.225,128.413,138.046,125.359,133.56z"/>
		</g>
		<g>
			<path style="fill:#E0DFE6;" d="M200.506,52.159c0.254-1.598-1.821-2.727-2.75-1.16c-8.247,13.911-16.433,27.591-25.795,40.812
				c-8.893,12.558-17.879,25.109-24.634,38.977c-0.915-1.505-1.973-2.905-3.21-4.132c-1.124-1.115-2.789,0.04-2.515,1.464
				c0.525,2.722,0.956,5.394,1.125,8.07c-0.457,0.411-0.845,0.9-1.11,1.49c-2.165,4.822-2.337,10.064-2.852,15.272
				c-0.457,0.44-0.872,0.967-1.183,1.67c-0.365,0.825-0.758,1.639-1.165,2.446c-0.403,0.653-0.808,1.312-1.214,1.99
				c-0.227,0.378-0.386,0.754-0.51,1.127c-5.374,8.953-13.622,15.925-24.886,16.066c-13.662,0.171-23.761-10.648-30.149-21.544
				c-0.527-0.899-1.949-0.51-1.954,0.529c-0.015,2.845,0.457,5.541,1.293,8.08c-0.167,0.016-0.334,0.035-0.499,0.06
				c-0.727-0.682-1.454-1.363-2.197-2.025c1.862-2.35,2.223-5.679-0.719-8.197c-17.58-15.046-35.861-29.243-53.584-44.073
				c-1.02-0.854-2.933,0.293-2.005,1.547c13.942,18.841,28.561,36.294,46.238,51.876c0.612,0.539,1.252,0.937,1.903,1.216
				c1.642,4.294,4.033,8.235,6.976,11.747c13.805,26.685,53.207,28.46,73.704,8.422c5.023-4.91,8.982-10.917,11.64-17.403
				c3.387-8.264,3.26-16.142,3.591-24.897c0.364-9.609,5.021-18.157,8.636-26.905c3.02-7.309,5.7-14.671,8.328-22.077
				C189.321,80.261,198.133,67.078,200.506,52.159z M153.905,139.823c-0.122,1.029-0.234,2.059-0.335,3.091
				c-0.182-0.873-0.387-1.733-0.646-2.563C153.266,140.22,153.593,140.04,153.905,139.823z"/>
		</g>
		<g>
			<path style="fill:#E0DFE6;" d="M97.237,103.048c-6.839,0.384-13.094-1.199-19.675,1.502c-4.248,1.744-8.09,4.28-11.584,7.239
				c-12.035-7.478-24.011-15.359-36.955-20.811c-2.946-1.241-4.372,2.886-2.795,4.801c9.297,11.294,21.836,20.248,34.177,28.579
				c1.034,1.5,2.622,2.612,4.338,2.917c1.768,1.185,3.526,2.362,5.258,3.535c6.087,4.119,12.223-3.407,10.183-8.88
				c2.196-2.362,4.736-4.201,7.314-6.136c2.276-1.708,2.665-4.094,1.888-5.976c2.552-1.775,5.224-3.311,8.238-3.903
				C99.232,105.599,98.878,102.956,97.237,103.048z"/>
		</g>
		<g>
			<path style="fill:#E0DFE6;" d="M145.479,57.647c-5.44-1.181-10.652,4.855-8.061,9.567c-0.268,0.089-0.468,0.156-0.482,0.16
				c-3.185,0.844-7.553,1.376-9.819,3.958c-1.423,1.622-1.04,3.636,0.628,4.87c2.657,1.966,7.416,1.747,10.622,1.743
				c3.443-0.004,6.888-0.582,9.67-2.732C153.857,70.713,153.738,59.441,145.479,57.647z"/>
		</g>
		<g>
			<path style="fill:#E0DFE6;" d="M202.582,36.049c-1.53-2.614-4.759-2.657-6.947-0.895c-1.653,1.331-3.448,2.504-5.184,3.732
				c-2.627,1.858-1.11,6.159,2.249,5.334c2.406-0.591,4.801-1.233,7.239-1.673C202.794,42.03,203.925,38.344,202.582,36.049z"/>
		</g>
		<g>
			<path style="fill:#E0DFE6;" d="M239.506,34.289c-5.101-0.738-10.055,0.445-15.142,1.155c-5.84,0.815-11.965,1.15-17.552,3.095
				c-1.291,0.45-1.565,2.587,0,2.902c5.283,1.063,10.689,0.728,16.056,0.743c5.474,0.015,11.347,0.76,16.638-0.772
				C242.723,40.481,243.31,34.84,239.506,34.289z"/>
		</g>
		<g>
			<path style="fill:#E0DFE6;" d="M172.565,60.235c-0.092-0.474-0.688-0.965-1.187-0.904c-8.011,0.986-13.897,12.268-18.35,18.191
				c-7.066,9.4-13.459,19.346-19.843,29.216c-3.891,6.017,5.821,11.7,9.607,5.616c5.966-9.587,12.255-18.956,18.342-28.464
				C165.176,77.576,174.104,68.192,172.565,60.235z"/>
		</g>
		<g>
			<g>
				<g>
					<path style="fill:#525D7D;" d="M111.861,187.686c-22.513,0-41.88-18.584-42.386-40.773
						c-0.258-11.305,4.323-22.641,12.568-31.103c8.158-8.372,19.229-13.193,30.374-13.228c0.95-0.008,1.923,0.013,2.9,0.058
						c21.143,1,37.185,17.219,38.148,38.566c0.581,12.89-3.693,24.842-12.036,33.655c-7.725,8.161-18.086,12.714-29.175,12.821
						C112.123,187.686,111.992,187.686,111.861,187.686z M112.696,106.901c-0.087,0-0.175,0-0.262,0.001
						c-9.995,0.031-19.943,4.376-27.297,11.923c-7.441,7.636-11.576,17.839-11.345,27.991c0.453,19.892,17.849,36.551,38.067,36.553
						c0.119,0,0.235-0.001,0.354-0.002c9.906-0.096,19.169-4.17,26.081-11.472c7.531-7.954,11.387-18.784,10.859-30.493
						c-0.86-19.067-15.174-33.554-34.036-34.446C114.303,106.918,113.494,106.901,112.696,106.901z"/>
				</g>
			</g>
			<g>
				<g>
					<path style="fill:#525D7D;" d="M110.553,166.32c-9.078-0.002-21.644-7.666-21.642-22.051
						c0.002-9.786,5.914-18.212,14.71-20.968c1.56-0.491,3.365-0.699,4.958-0.882l0.352-0.041c0.928-0.109,1.882-0.151,2.823-0.123
						c9.051,0.281,19.375,7.374,20.277,18.343c0.628,7.633-1.413,14.428-5.745,19.13C122.37,163.979,116.783,166.32,110.553,166.32z
						 M111.185,126.565c-0.585,0-1.174,0.035-1.753,0.103l-0.36,0.041c-1.402,0.161-2.99,0.344-4.156,0.711
						c-6.99,2.189-11.685,8.96-11.687,16.85c-0.002,11.566,10.057,17.729,17.32,17.731c5.013,0,9.472-1.846,12.562-5.199
						c3.505-3.804,5.144-9.433,4.616-15.85c-0.707-8.595-8.909-14.158-16.103-14.38
						C111.478,126.567,111.331,126.565,111.185,126.565z"/>
				</g>
			</g>
			<g>
				<g>
					<path style="fill:#525D7D;" d="M110.402,151.759c-0.09,0-0.181-0.001-0.271-0.005c-4.192-0.155-7.337-3.078-7.645-7.11
						c-0.288-3.751,2.146-8.156,6.229-8.736c0.223-0.032,0.414-0.103,0.597-0.163c0.463-0.15,1.103-0.365,1.862-0.323
						c0.059,0.002,0.237,0.016,0.295,0.023c4.081,0.488,7.179,3.657,7.359,7.536c0.103,2.224-0.82,4.49-2.532,6.219
						C114.677,150.835,112.542,151.759,110.402,151.759z M109.322,140.182c-1.587,0.226-2.664,2.406-2.531,4.131
						c0.14,1.826,1.513,3.052,3.499,3.125c1.043,0.042,2.098-0.428,2.939-1.278c0.852-0.861,1.333-1.975,1.286-2.981
						c-0.081-1.761-1.581-3.211-3.565-3.449c-0.038,0.021-0.167,0.077-0.308,0.122C110.295,139.966,109.862,140.106,109.322,140.182
						z"/>
				</g>
			</g>
			<g>
				<g>
					<path style="fill:#525D7D;" d="M72.48,156.132c-0.474,0-0.95-0.155-1.348-0.474c-2.752-2.205-5.523-4.404-8.299-6.607
						C44.359,134.385,25.255,119.22,9.81,101.084c-2.655-3.118-5.451-6.468-8.313-9.958C0.504,89.913,0,88.473,0,86.845
						c0-3.496,2.031-8.42,6.547-8.42c1.044,0,2.581,0.322,3.981,1.857c0.808,0.885,1.595,1.744,2.362,2.576
						c10.032,10.888,44.42,37.482,61.822,49.413c0.983,0.675,1.234,2.018,0.56,3.002c-0.675,0.983-2.019,1.234-3.002,0.56
						c-17.561-12.04-52.335-38.956-62.556-50.048c-0.771-0.836-1.562-1.701-2.377-2.593c-0.41-0.449-0.697-0.449-0.791-0.449
						c-1.383,0-2.229,2.656-2.229,4.102c0,0.63,0.16,1.106,0.519,1.543c2.844,3.47,5.624,6.799,8.261,9.897
						c15.173,17.816,34.108,32.848,52.42,47.385c2.781,2.208,5.556,4.41,8.313,6.618c0.931,0.746,1.081,2.104,0.336,3.035
						C73.74,155.855,73.113,156.132,72.48,156.132z"/>
				</g>
			</g>
			<g>
				<g>
					<path style="fill:#525D7D;" d="M23.701,95.172c-0.423,0-0.851-0.124-1.225-0.382c-0.981-0.678-1.227-2.023-0.55-3.004
						L84.685,0.932c0.672-0.973,2-1.224,2.984-0.564c18.104,12.2,37.646,24.548,56.068,36.076
						c11.686,7.313,23.696,14.474,35.694,21.284c1.037,0.589,1.401,1.907,0.813,2.943c-0.588,1.037-1.907,1.399-2.943,0.813
						c-12.052-6.841-24.115-14.033-35.854-21.38c-17.856-11.173-36.764-23.119-54.419-34.964l-61.546,89.1
						C25.06,94.847,24.386,95.172,23.701,95.172z"/>
				</g>
			</g>
			<g>
				<g>
					<path style="fill:#525D7D;" d="M52.489,119.366c-0.435,0-0.874-0.131-1.254-0.403c-0.97-0.694-1.193-2.043-0.499-3.012
						l66.272-92.579c0.694-0.97,2.041-1.193,3.012-0.499c0.97,0.694,1.193,2.043,0.499,3.012l-66.272,92.579
						C53.825,119.053,53.163,119.366,52.489,119.366z"/>
				</g>
			</g>
			<g>
				<g>
					<path style="fill:#525D7D;" d="M65.262,128.828c-0.418,0-0.839-0.121-1.21-0.373c-0.987-0.67-1.244-2.013-0.574-2.999
						c21.661-31.911,44.775-63.424,68.703-93.664c0.739-0.935,2.098-1.094,3.033-0.354c0.935,0.74,1.094,2.098,0.354,3.033
						c-23.862,30.159-46.914,61.587-68.516,93.41C66.634,128.497,65.954,128.828,65.262,128.828z"/>
				</g>
			</g>
			<g>
				<g>
					<path style="fill:#525D7D;" d="M142.709,117.424c-0.376,0-0.756-0.098-1.103-0.304c-1.025-0.61-1.361-1.936-0.75-2.959
						c14.752-24.765,30.711-49.236,47.433-72.735c0.691-0.971,2.04-1.198,3.011-0.508c0.971,0.692,1.199,2.04,0.508,3.011
						c-16.655,23.405-32.55,47.778-47.242,72.442C144.162,117.047,143.445,117.424,142.709,117.424z"/>
				</g>
			</g>
			<g>
				<g>
					<path style="fill:#525D7D;" d="M149.613,131.437c-0.351,0-0.706-0.086-1.035-0.266c-1.046-0.573-1.429-1.886-0.856-2.931
						c15.335-27.982,31.666-55.905,48.537-82.994c0.63-1.013,1.964-1.32,2.974-0.691c1.012,0.63,1.322,1.962,0.692,2.974
						c-16.83,27.022-33.12,54.875-48.416,82.786C151.116,131.032,150.376,131.437,149.613,131.437z"/>
				</g>
			</g>
			<g>
				<g>
					<path style="fill:#525D7D;" d="M197.015,46.631c-0.168,0-0.337-0.004-0.507-0.011c-2.589-0.105-4.887-0.906-6.644-2.318
						c-3.674-2.951-4.749-6.93-2.877-10.642c2.331-4.622,8.766-7.693,13.504-6.452c1.883,0.495,6.224,2.454,5.871,9.926
						c-0.094,1.956-0.373,4.207-1.739,6.086C203.053,45.376,200.235,46.631,197.015,46.631z M192.568,40.936
						c1.018,0.817,2.479,1.304,4.114,1.371c1.544,0.056,3.506-0.333,4.447-1.626c0.697-0.959,0.855-2.435,0.919-3.752
						c0.15-3.175-0.744-5.041-2.656-5.544c-2.814-0.738-7.124,1.391-8.55,4.22C189.889,37.493,190.454,39.238,192.568,40.936z"/>
				</g>
			</g>
			<g>
				<g>
					<path style="fill:#525D7D;" d="M205.437,43.254c-0.468,0-0.943-0.133-1.358-0.405c-0.947-0.623-1.303-1.824-0.846-2.856
						c0.307-0.695,1.021-1.525,2.675-1.534c10.041-0.074,20.172-0.415,30.178-1.017l0.079-4.944
						c0.027-1.607-0.234-1.912-0.264-1.942c-0.202-0.093-0.995,0.013-1.294,0.054c-9.92,1.34-20.018,2.093-30.016,2.237
						c-1.2-0.044-2.172-0.935-2.19-2.128c-0.017-1.192,0.935-2.172,2.128-2.19c9.825-0.141,19.751-0.881,29.499-2.198
						c0.983-0.134,2.634-0.356,4.105,0.53c2.418,1.457,2.368,4.544,2.349,5.706l-0.112,6.94c-0.018,1.126-0.898,2.049-2.022,2.12
						c-10.43,0.664-21.013,1.047-31.469,1.141C206.47,43.09,205.957,43.254,205.437,43.254z"/>
				</g>
			</g>
			<g>
				<g>
					<path style="fill:#525D7D;" d="M151.063,80.021c-0.096,0-0.191-0.006-0.287-0.019c-7.614-1.019-15.367-1.834-23.044-2.42
						c-1.157-0.089-2.037-1.075-1.993-2.235c0.011-0.297,0.082-0.578,0.202-0.833c0.07-0.355,0.181-1.097,0.283-1.765
						c1.237-8.192,2.539-13.216,5.53-14.655c4.431-2.13,11.213-0.404,16.664,0.983c1.698,0.432,3.302,0.841,4.532,1.049
						c1.117,0.189,1.898,1.211,1.788,2.339l-1.526,15.608c-0.057,0.583-0.349,1.118-0.807,1.482
						C152.02,79.858,151.547,80.021,151.063,80.021z M130.482,73.468c6.219,0.513,12.473,1.171,18.65,1.964l1.12-11.455
						c-0.913-0.21-1.89-0.459-2.898-0.716c-4.519-1.151-10.711-2.726-13.729-1.275c-0.702,0.455-1.834,2.814-3.132,11.407
						C130.489,73.419,130.485,73.443,130.482,73.468z M127.897,73.27c-0.276,0-0.529,0.051-0.754,0.136
						C127.378,73.318,127.632,73.27,127.897,73.27z"/>
				</g>
			</g>
		</g>
	</g>
</g>
<g id="Layer_1">
</g>
</svg>
