<?xml version="1.0" encoding="iso-8859-1"?>
<!-- Generator: Adobe Illustrator 21.0.2, SVG Export Plug-In . SVG Version: 6.00 Build 0)  -->
<svg version="1.1" xmlns="http://www.w3.org/2000/svg" xmlns:xlink="http://www.w3.org/1999/xlink" x="0px" y="0px"
	 viewBox="0 0 192.996 207.683" style="enable-background:new 0 0 192.996 207.683;" xml:space="preserve">
<g id="_x32_6">
	<g>
		<g>
			<path style="fill:#E0DFE6;" d="M134.228,46.467c-1.166-1.679-3.178-2.657-5.773-1.796c-2.565,0.85-5.059,2.057-7.474,3.451
				c-0.118-1.276-0.236-2.556-0.35-3.838c3.19,1.39,7.904-0.152,7.964-4.72c0.116-8.762-0.526-17.577-3.179-25.961
				c-0.251-0.792-0.905-1.114-1.543-1.049c-0.308-1.252-0.643-2.494-1.031-3.719c-0.639-2.016-3.638-2.145-4.221,0
				c-0.669,2.459-1.095,4.983-1.371,7.54c-0.591-3.143-1.264-6.263-2.11-9.329c-0.381-1.38-2.579-1.486-2.902,0
				c-3.224,14.859-3.07,30.501-3.772,45.633c-0.066,1.419,0.286,2.587,0.902,3.519c-3.618,2.706-8.146,6.031-9.911,10.192
				c-2.78-1.775-5.485-3.648-8.073-5.119c-5.526-3.142-11.14-6.221-17.094-8.473c-2.608-0.986-3.819,2.475-2.44,4.192
				c4.617,5.751,10.463,10.51,16.423,14.819c5.17,3.737,12.116,10.43,18.561,11.575c5.715,1.015,9.575-4.672,12.845-8.501
				c2.65-3.102,5.26-6.247,8.093-9.156c1.373-1.249,2.717-2.515,4.026-3.776c1.271-1.076,2.59-2.1,4-3.029
				C141.149,55.398,138.723,48.029,134.228,46.467z M107.181,70.597c-0.647-0.263-1.291-0.56-1.934-0.874
				c1.622-0.602,3.215-1.457,4.761-2.368C109.103,68.515,108.17,69.622,107.181,70.597z"/>
		</g>
		<g>
			<path style="fill:#E0DFE6;" d="M184.491,89.175c1.44-4.061,3.716-7.403,2.829-11.799c-0.164-0.813-0.935-1.101-1.632-0.963
				c0.185-3.884-3.336-7.698-7.606-5.016c-6.058,3.805-10.297,10.466-16.906,13.365c-6.691,2.935-14.37,1.694-21.216,4.282
				c-1.479,0.559-1.806,2.924,0,3.342c4.156,0.961,8.573,2.059,12.994,2.547c-10.273,1.377-20.582,3.359-30.883,4.212
				c-1.328,0.11-1.369,2.074,0,2.098c9.124,0.156,18.217,1.435,27.327,1.985c2.277,0.138,4.554,0.275,6.832,0.413
				c0.781,0.047,1.561,0.094,2.342,0.141c-0.29,4.478,0.155,9.16,0.382,13.62c0.947,18.572-0.24,37.968,2.413,56.349
				c0.162,1.121,0.535,2.003,1.032,2.71c-1.28,2.042-2.187,1.854-4.676,2.328c-9.546,1.816-19.269,2.827-28.891,4.142
				c-10.409,1.422-21.872,3.675-33.134,4.316c-0.486-1.945-1.861-3.68-4.275-4.409c-2.806-0.849-3.547-8.678-4.163-10.882
				c-1.204-4.312-2.381-8.634-3.594-12.943c-2.098-7.449-3.388-16.775-7.86-23.175c-0.751-1.075-2.209-0.85-2.667,0.348
				c-3.635,9.508-1.073,23.017,0.919,33.478c-1.02,0.379-1.89,1.221-2.283,2.658c-1.023,3.744-1.539,7.721-1.751,11.594
				c-0.047,0.851,0.192,1.626,0.589,2.306c-0.632,0.705-0.88,1.722-0.258,2.62c1.64,2.368,3.556,4.103,5.663,5.394
				c-2.545-0.378-5.098-0.693-7.703-0.737c-1.126-0.019-1.791,1.248-1.26,2.196c7.201,12.841,32.624,11.802,45.078,11.963
				c20.044,0.259,42.354-1.405,61.803-6.454c2.614-0.679,4.178-2.627,4.816-4.876c4.713-5.52,5.23-14.094,5.111-21.176
				c-0.205-12.118-1.408-24.191-1.972-36.291c-0.51-10.943-1.669-22.202-0.668-33.142C181.727,100.22,182.64,94.394,184.491,89.175z
				 M170.474,98.405c-0.222,0.829-0.393,1.671-0.569,2.511c-1.293-3.893-3.514-5.697-6.664-6.337
				c0.467-0.103,0.931-0.217,1.393-0.35c3.313-0.956,6.681-2.759,9.813-4.988C172.695,92.2,171.303,95.308,170.474,98.405z"/>
		</g>
		<g>
			<path style="fill:#E0DFE6;" d="M57.162,84.91c-0.276-0.026-0.557-0.032-0.835-0.052c-7.943-7.266-16.595-13.397-25.519-19.438
				c-1.158-0.784-2.714,0.776-1.934,1.934c4.144,6.149,8.329,12.166,12.893,17.916c-1.651,0.092-3.292,0.157-4.91,0.152
				c-3.536-0.011-4.418,5.444-0.849,6.27c4.442,1.028,9.288,2.367,14.061,3.096c1.95,1.686,4.268,1.582,6.13,0.508
				c0.32,0,0.645,0.021,0.963,0.011C63.953,95.096,63.737,85.531,57.162,84.91z"/>
		</g>
		<g>
			<g>
				<path style="fill:#525D7D;" d="M81.802,200.002c-1.552,0-3.111-0.052-4.672-0.188c-6.84-0.596-13.182-2.981-19.315-5.287
					c-1.604-0.603-3.211-1.207-4.832-1.782l-9.551-3.388c-0.889-0.316-1.995-0.708-2.951-1.547
					c-3.326-2.919-3.724-9.541-3.877-17.255c-0.032-1.579-0.058-2.943-0.145-3.887c-0.708-7.731-1.298-15.598-1.753-23.381
					c-0.909-15.601-1.304-31.427-1.174-47.057c-2.069-1.994-4.17-4.061-6.296-6.152c-6.139-6.037-12.486-12.28-18.809-17.511
					c-1.68-1.392-3.371-2.771-5.062-4.149l-0.163-0.133c-0.557-0.455-1.134-0.926-1.627-1.063C0.6,66.947-0.055,66.03,0.004,65.016
					c0.059-1.013,0.815-1.848,1.817-2.007c8.793-1.396,18.042-4.235,26.021-6.786c0.712-0.226,1.491-0.071,2.061,0.415
					C43.15,67.967,56.297,80.43,68.985,93.69c29.244,0.449,62.921-0.897,100.118-4.015c3.208-3.539,6.538-7.359,9.765-11.06
					c3.426-3.928,6.967-7.99,10.373-11.73c0.804-0.881,2.169-0.944,3.05-0.142c0.881,0.803,0.945,2.168,0.142,3.05
					c-3.374,3.704-6.9,7.749-10.31,11.66c-3.433,3.938-6.983,8.009-10.397,11.757c-0.367,0.403-0.872,0.651-1.415,0.697
					c-38.06,3.214-72.48,4.587-102.3,4.087c-0.578-0.01-1.127-0.251-1.526-0.669c-12.49-13.094-25.431-25.41-38.477-36.622
					c-6.319,2.01-13.359,4.145-20.378,5.62c1.187,0.97,2.372,1.941,3.553,2.918c6.465,5.35,12.879,11.658,19.083,17.76
					c2.343,2.304,4.657,4.58,6.931,6.761c0.429,0.413,0.67,0.984,0.664,1.579c-0.153,15.835,0.237,31.882,1.159,47.695
					c0.451,7.736,1.037,15.555,1.741,23.239c0.1,1.097,0.129,2.533,0.162,4.194c0.085,4.262,0.243,12.195,2.409,14.096
					c0.332,0.292,0.949,0.511,1.545,0.722l9.551,3.388c1.646,0.584,3.279,1.198,4.908,1.81c6.131,2.305,11.92,4.482,18.171,5.027
					c3.803,0.33,7.747,0.113,11.563-0.096l73.461-4.038c3.625-0.199,6.233-1.125,7.157-2.539c0.63-0.966,0.598-2.392-0.095-4.237
					c-0.419-1.116,0.146-2.361,1.262-2.78c1.113-0.418,2.362,0.145,2.78,1.262c1.203,3.203,1.091,5.933-0.332,8.114
					c-1.757,2.693-5.302,4.204-10.535,4.491l-73.461,4.038C86.847,199.863,84.335,200.002,81.802,200.002z"/>
			</g>
			<g>
				<path style="fill:#525D7D;" d="M171.798,192.337c-1.17,0-2.132-0.935-2.158-2.111l-2.174-98.454
					c-0.027-1.192,0.919-2.18,2.111-2.206c1.204-0.014,2.18,0.919,2.206,2.111l2.174,98.454
					C173.983,191.322,173.038,192.31,171.798,192.337z"/>
			</g>
			<g>
				<path style="fill:#525D7D;" d="M72.317,189.661c-1.111,0-2.054-0.851-2.149-1.978c-2.535-30.142-3.826-60.764-3.837-91.015
					c-0.001-1.193,0.966-2.159,2.158-2.16c1.193,0,2.159,0.966,2.16,2.158c0.011,30.131,1.296,60.631,3.821,90.655
					c0.1,1.188-0.782,2.232-1.971,2.332C72.438,189.659,72.377,189.661,72.317,189.661z"/>
			</g>
			<g>
				<path style="fill:#525D7D;" d="M36.218,96.845c-1.111,0-2.055-0.852-2.149-1.979c-0.1-1.188,0.783-2.232,1.971-2.331
					c9.958-0.834,20.058-0.834,30.023-0.003c1.188,0.099,2.071,1.142,1.972,2.33c-0.098,1.188-1.131,2.074-2.33,1.972
					c-9.725-0.81-19.584-0.809-29.305,0.003C36.339,96.843,36.278,96.845,36.218,96.845z"/>
			</g>
			<g>
				<path style="fill:#525D7D;" d="M132.266,95.088c-0.566,0-1.131-0.221-1.555-0.661c-0.827-0.858-0.802-2.225,0.057-3.052
					c7.69-7.41,15.629-14.782,23.596-21.912c0.403-0.36,0.91-0.563,1.463-0.55c10.449,0.097,21.553-1.139,32.29-2.345l2.054-0.23
					c1.188-0.131,2.252,0.72,2.385,1.906c0.132,1.185-0.721,2.252-1.906,2.385l-2.051,0.23c-10.583,1.189-21.58,2.423-31.975,2.378
					c-7.72,6.921-15.407,14.068-22.861,21.248C133.345,94.887,132.805,95.088,132.266,95.088z"/>
			</g>
			<g>
				<path style="fill:#525D7D;" d="M126.896,150.639c-0.471,0-1.034-0.14-1.621-0.597c-2.501-1.934-4.802-4.124-6.859-6.529
					c-2.773,2.303-5.73,4.398-8.814,6.245c-1.025,0.614-2.35,0.28-2.962-0.742c-0.613-1.023-0.28-2.349,0.742-2.962
					c3.499-2.096,6.821-4.531,9.877-7.238c0.447-0.396,1.032-0.589,1.633-0.534c0.595,0.056,1.14,0.356,1.506,0.828
					c1.985,2.567,4.265,4.897,6.786,6.938c0.145,0.013,0.29,0.041,0.431,0.084c0.873,0.271,1.5,1.046,1.597,1.976
					c0.091,0.857-0.391,1.806-1.143,2.228C127.891,150.437,127.46,150.639,126.896,150.639z M127.917,146.627
					c0.001,0.001,0.003,0.002,0.004,0.004C127.92,146.629,127.919,146.628,127.917,146.627z"/>
			</g>
			<g>
				<path style="fill:#525D7D;" d="M118.692,174.537c-1.177,0-2.14-0.945-2.158-2.126l-0.471-30.783
					c-0.018-1.192,0.934-2.174,2.126-2.192c1.236,0.004,2.174,0.934,2.192,2.126l0.471,30.783
					C120.87,173.538,119.918,174.519,118.692,174.537z"/>
			</g>
			<g>
				<path style="fill:#525D7D;" d="M133.275,149.223c-0.605,0-1.207-0.253-1.635-0.748c-0.779-0.902-0.68-2.265,0.223-3.045
					l10.957-9.466c0.493-0.425,1.153-0.604,1.791-0.491c0.641,0.115,1.196,0.512,1.51,1.082c0.853,1.548,2.396,2.753,4.029,4.029
					c1.453,1.135,2.948,2.303,4.157,3.837c0.045,0.018,0.089,0.036,0.133,0.056c0.891,0.415,1.415,1.368,1.305,2.371
					c-0.101,0.92-0.865,1.782-1.769,1.98c-0.384,0.087-1.721,0.254-2.677-1.205c-0.899-1.365-2.312-2.468-3.807-3.637
					c-1.255-0.98-2.536-1.981-3.632-3.215l-9.175,7.927C134.278,149.05,133.775,149.223,133.275,149.223z M154.906,145.248
					c0.001,0.001,0.001,0.002,0.001,0.002S154.907,145.25,154.906,145.248z"/>
			</g>
			<g>
				<path style="fill:#525D7D;" d="M144.071,172.339c-1.174,0-2.136-0.94-2.158-2.119c-0.19-10.139-0.224-20.436-0.099-30.607
					c0.015-1.192,0.993-2.132,2.186-2.132c1.192,0.015,2.147,0.993,2.132,2.186c-0.124,10.125-0.091,20.378,0.098,30.473
					C146.252,171.332,145.304,172.317,144.071,172.339z"/>
			</g>
			<g>
				<path style="fill:#525D7D;" d="M109.496,177.274c-1.163,0-2.122-0.926-2.157-2.096c-0.034-1.192,0.904-2.187,2.096-2.221
					l41.771-1.21c1.181-0.039,2.186,0.904,2.221,2.096c0.035,1.192-0.904,2.187-2.096,2.221
					C151.33,176.064,109.56,177.274,109.496,177.274z"/>
			</g>
			<g>
				<path style="fill:#525D7D;" d="M105.092,75.409c-0.491,0-0.985-0.167-1.388-0.506c-3.597-3.021-7.41-5.861-11.336-8.44
					c-4.87-3.2-10.074-6.105-15.106-8.915l-17.212-9.61c-0.813-0.453-1.243-1.377-1.068-2.291c0.175-0.914,0.916-1.613,1.839-1.735
					c3.792-0.498,7.693-0.602,11.465-0.704c3.619-0.097,7.344-0.196,10.904-0.652c-0.101-10.579-1.33-22.541-3.839-37.43
					c-0.103-0.612,0.062-1.238,0.453-1.72c0.391-0.482,0.971-0.772,1.59-0.797c5.897-0.235,12.143-0.775,18.185-1.297
					c6.093-0.527,12.395-1.072,18.396-1.311c0.607-0.015,1.223,0.221,1.651,0.67c0.429,0.451,0.642,1.065,0.585,1.684
					c-1.319,14.407-1.55,28.655-0.689,42.383c1.362-0.228,2.777-0.498,4.241-0.778c4.298-0.821,8.756-1.657,12.818-1.605
					c0.909,0.015,1.711,0.597,2.007,1.457c0.296,0.859,0.021,1.812-0.686,2.383c-11.148,8.992-21.662,18.599-31.252,28.552
					C106.225,75.186,105.66,75.409,105.092,75.409z M68.391,47.65l10.975,6.127c5.1,2.847,10.373,5.79,15.373,9.077
					c3.506,2.303,6.926,4.808,10.191,7.461c7.765-7.961,16.108-15.69,24.881-23.056c-1.735,0.273-3.501,0.61-5.242,0.943
					c-1.931,0.369-3.915,0.748-5.812,1.027c-0.18,0.154-0.352,0.258-0.479,0.323c-0.829,0.427-1.839,0.316-2.571-0.287
					c-0.756-0.623-1.073-1.613-0.807-2.522c0.075-0.257,0.205-0.5,0.375-0.715c-0.9-13.484-0.759-27.459,0.417-41.6
					c-5.163,0.27-10.53,0.735-15.744,1.185C94.68,6.069,89.257,6.538,84.006,6.812c2.423,14.893,3.54,26.898,3.507,37.614
					c-0.004,1.052-0.764,1.948-1.801,2.123c-4.391,0.738-8.926,0.859-13.311,0.976C71.075,47.56,69.734,47.596,68.391,47.65z"/>
			</g>
		</g>
	</g>
</g>
<g id="Layer_1">
</g>
</svg>
