<?xml version="1.0" encoding="iso-8859-1"?>
<!-- Generator: Adobe Illustrator 21.0.2, SVG Export Plug-In . SVG Version: 6.00 Build 0)  -->
<svg version="1.1" xmlns="http://www.w3.org/2000/svg" xmlns:xlink="http://www.w3.org/1999/xlink" x="0px" y="0px"
	 viewBox="0 0 150.449 216.019" style="enable-background:new 0 0 150.449 216.019;" xml:space="preserve">
<g id="_x32_7">
	<g>
		<g>
			<path style="fill:#E0DFE6;" d="M46.712,120.492c-2.453-2.472-4.9-4.727-7.268-7.014c-0.105-1.706-0.393-3.357-0.895-4.925
				c-1.092-3.408-4.372-4.695-7.175-3.933c-0.713-0.946-1.408-1.925-2.075-2.961c-0.743-1.155-2.787-0.78-2.719,0.737
				c0.092,2.062,0.377,4.013,0.82,5.9c-0.033,0.088-0.078,0.166-0.108,0.257c-1.289,3.898-1.058,8.051-2.151,12.037
				c-1.046,3.816-2.554,7.406-4.556,10.816c-3.968,6.76-9.628,11.135-14.78,16.707c-0.204,0.109-0.417,0.218-0.611,0.325
				c-0.538,0.298-0.795,0.895-0.769,1.475c-0.318,1.068,0.372,2.249,1.648,2.306c0.848,0.038,1.699-0.003,2.549-0.081
				c1.409,0.286,2.756,0.547,3.213,0.889c1.491,1.114,2.35,4.564,3.988,6.076c3.46,3.194,8.457,4.921,12.416,1.6
				c1.143-0.96,2.205-2.035,3.241-3.153c1.848-0.626,3.435-2.062,4.141-4.497c0.013-0.044,0.023-0.089,0.036-0.134
				c1.024-1.104,2.08-2.176,3.224-3.15c1.904-1.622,3.782-3.276,5.424-5.099c3.66,1.36,8.376,0.176,9.185-4.409
				C54.846,132.589,52.171,125.992,46.712,120.492z M38.276,132.209c-0.058-1.017-0.146-2.032-0.27-3.041
				c0.345,0.758,0.649,1.532,0.912,2.326C38.701,131.736,38.491,131.969,38.276,132.209z"/>
		</g>
		<g>
			<path style="fill:#E0DFE6;" d="M99.747,46.047c0.536-0.036,1.063-0.172,1.525-0.442c1.604-0.938,2.322-3.246,1.276-4.866
				l-3.832-5.936c-1.963-3.04-6.187-1.128-6,1.851c-2.036-1.583-4.996-1.964-7.412,0.343c-11.447,10.931-25.817,16.58-41.818,14.231
				c-1.552-0.228-2.966,2.074-1.195,2.834c14.731,6.321,32.244,4.868,45.408-4.228c2.068,3.066,5.588,5.332,8.78,6.678
				c3.135,1.322,6.551-1.713,6.943-4.625C103.815,48.963,102.15,46.946,99.747,46.047z M96.658,45.174
				c-0.051-0.028-0.118-0.065-0.212-0.116c-0.36-0.192-0.719-0.38-1.066-0.596c-0.053-0.033-0.379-0.249-0.508-0.33
				c-0.073-0.068-0.258-0.226-0.417-0.364c0.362-0.634,0.567-1.288,0.641-1.938c0.437,0.833,0.873,1.666,1.31,2.499
				c0.213,0.406,0.514,0.74,0.865,1.007c-0.153-0.047-0.308-0.09-0.462-0.137C96.692,45.164,96.658,45.163,96.658,45.174z"/>
		</g>
		<g>
			<path style="fill:#E0DFE6;" d="M90.317,22.532c-3.94-0.472-6.708,2.602-9.474,4.896c-10.869,9.016-23.181,16.05-37.783,14.848
				c-1.688-0.139-1.911,2.403-0.388,2.866c8.351,2.537,16.434,1.884,24.602-1.145c3.995-1.482,7.83-3.426,11.477-5.619
				c1.848-1.111,4.925-4.042,7.578-5.835c3.225,2.87,9.468,3.309,9.576-3.456C95.96,25.622,93.795,22.948,90.317,22.532z"/>
		</g>
		<g>
			<path style="fill:#E0DFE6;" d="M91.356,174.452c-13.396,1.253-27.554,0.64-40.526,4.621c-1.302,0.4-1.387,2.366,0,2.726
				c13.095,3.402,27.125,2.199,40.526,2.867C97.998,184.998,97.86,173.844,91.356,174.452z"/>
		</g>
		<g>
			<path style="fill:#E0DFE6;" d="M146.564,138.206c-2.739-11.761-1.929-22.678-0.788-34.546
				c0.993-10.328,1.955-20.361-0.868-30.485c-0.419-1.504-2.843-1.251-2.777,0.376c0.442,10.786-2.935,20.917-5.666,31.165
				c0.611-4.233,1.232-8.438,1.745-12.587c2.273-18.386,3.248-43.302-10.055-58.16c-1.012-1.13-2.77,0.074-2.439,1.42
				c2.903,11.82,4.931,22.274,4.172,34.556c-0.686,11.103-2.775,22.034-4.58,32.995c-2.19,13.3-3.888,26.64-2.871,39.755
				c-0.164-1.455-0.324-2.907-0.511-4.341c-0.271-2.081-3.299-3.097-4.156-1.042c-4.097-2.97-11.597-0.712-11.297,5.481
				c0.039,0.795,0.094,1.588,0.147,2.381c-0.429-0.586-0.872-1.16-1.288-1.755c0.727-0.996,1.133-2.185,0.978-3.443
				c-0.337-2.741-1.156-4.963-3.686-6.411c-0.661-0.379-1.322-0.602-2.014-0.787c-0.024-0.327-0.049-0.655-0.105-0.985
				c-0.379-2.237-1.414-4.206-3.435-5.378c0.257-0.92,0.474-1.85,0.592-2.802c0.273-2.212-2.556-3.891-4.47-3.04
				c-0.166-2.527-2.287-4.969-5.162-3.857c-6.253,2.417-13.534,6.394-17.863,11.628c-0.745,0.9-0.312,2.425,1,2.413
				c0.403-0.004,0.816-0.04,1.226-0.065c-0.174,0.447-0.191,0.942,0.05,1.505c0.157,0.368,0.389,0.654,0.662,0.896
				c-0.146,3.451,2.053,7.205,4.395,9.462c3.233,3.117,7.055,5.257,11.16,6.978c2.727,1.143,6.02-1.232,6.731-3.822
				c0.128-0.464,0.172-0.918,0.178-1.364c0.056,0.015,0.114,0.033,0.18,0.053c1.077,1.116,2.55,1.822,4.314,1.822
				c0.86,0,1.761-0.234,2.606-0.636c1.348,4.52,3.213,8.788,5.556,12.852c0.623,3.557,1.391,7.091,2.317,10.6
				c0.295,1.117,0.773,2.033,1.377,2.765c-0.063,0.215-0.122,0.435-0.157,0.671c-0.761,5.031-0.355,9.938-0.185,15.023
				c0.189,5.657,2.115,12.222-4.748,13.848c-4.931,1.169-10.704,0.685-15.771,0.992c-5.506,0.334-11.013,0.668-16.519,1.002
				c-5.52,0.335-11.007,0.911-16.519,1.316c-2.108,0.155-4.733,0.705-6.758,0.015c-2.181-0.743-3.664-2.853-5.497-4.102
				c-7.399-5.042-12.092,1.848-19.068,3.441c-2.042,0.466-2.691,3.837-0.621,4.751c4.549,2.007,6.93-0.74,11.338-0.502
				c3.467,0.188,5.241,3.714,7.979,5.27c1.527,0.868,3.312,1.403,5.02,1.777c5.919,1.294,12.628,0.477,18.619,0.236
				c6.885-0.277,13.767-0.72,20.649-1.079c9.363-0.489,24.154,1.4,31.008-6.661c3.663-4.308,3.538-9.555,3.433-14.917
				c-0.061-3.123-0.007-6.315-0.064-9.499c1.436,0.225,3.069,0.035,4.843-0.746c7.805-3.438,15.852-7.819,19.617-15.892
				C152.905,157.344,148.747,147.582,146.564,138.206z M87.554,127.191c-0.214-0.2-0.438-0.391-0.677-0.564
				c0.452-0.21,0.907-0.417,1.345-0.635C87.986,126.382,87.777,126.791,87.554,127.191z M124.521,168.481
				c0.064-0.341,0.1-0.696,0.108-1.062c1.101-0.79,1.964-1.936,2.376-3.258c0.332,0.901,0.657,1.803,1.029,2.7
				C126.927,167.428,125.739,167.96,124.521,168.481z M133.882,133.651c0.86,6.005,2.312,11.918,3.103,17.945
				c0.142,1.084,0.176,2.082,0.144,3.028C134.866,147.798,133.975,140.766,133.882,133.651z"/>
		</g>
		<g>
			<g>
				<g>
					<path style="fill:#525D7D;" d="M112.576,173.245c-0.988,0-1.881-0.683-2.106-1.687c-0.26-1.164,0.471-2.319,1.635-2.579
						c8.172-1.831,15.688-4.618,22.373-8.294c-3.201-7.379-4.759-15.498-4.759-24.748c0-12.604,2.822-25.093,5.313-36.112
						c2.1-9.285,4.082-18.055,4.082-25.451c0-21.735-10.492-66.615-42.92-66.615c-4.064,0-8.12,0.664-12.055,1.971
						c-0.585,0.195-1.224,0.13-1.757-0.177c-5.96-3.425-13.054-5.235-20.515-5.235C28.602,4.318,5.42,34.487,5.42,61.562
						c0,5.85,1.25,12.116,2.698,19.372c2.044,10.246,4.36,21.858,4.36,37.113c0,10.085-2.872,21.747-7.724,31.5
						c6.223,6.818,13.517,11.7,21.17,14.154c1.136,0.364,1.761,1.579,1.397,2.715c-0.364,1.135-1.577,1.761-2.716,1.396
						c-8.805-2.823-17.129-8.534-24.076-16.515c-0.585-0.672-0.696-1.634-0.281-2.423c3.823-7.273,7.911-19.191,7.911-30.828
						c0-14.829-2.271-26.219-4.277-36.268c-1.491-7.481-2.78-13.941-2.78-20.217c0-16.468,6.712-32.051,18.899-43.878
						C31.582,6.446,46.841,0,61.867,0c7.87,0,15.393,1.844,21.825,5.339c4.088-1.26,8.289-1.898,12.502-1.898
						c15.593,0,28.408,9.148,37.058,26.455c7.506,15.014,10.18,32.82,10.18,44.477c0,7.879-2.034,16.877-4.187,26.403
						c-2.561,11.326-5.208,23.038-5.208,35.159c0,9.363,1.692,17.448,5.173,24.717c0.485,1.013,0.112,2.229-0.856,2.796
						c-7.486,4.379-15.999,7.657-25.304,9.742C112.891,173.227,112.732,173.245,112.576,173.245z"/>
				</g>
			</g>
			<g>
				<g>
					<path style="fill:#525D7D;" d="M114.725,85.231c-3.424,0-8.757-2.998-10.376-5.831c-0.59-1.035-0.231-2.355,0.804-2.946
						c1.033-0.59,2.354-0.233,2.946,0.803c0.859,1.503,4.759,3.655,6.626,3.655c7.319,0,7.69-8.027,7.69-9.636
						c0-4.047-1.86-4.933-2.577-4.933c-0.509,0-1.179,0.221-1.889,0.455c-0.95,0.312-2.027,0.666-3.215,0.666
						c-6.626,0-18.273-15.666-21.236-33.607C80.197,48.956,66.977,52.054,49.286,52.054c-10.4,0-19.01-2.097-26.323-6.41
						c-1.027-0.606-1.369-1.929-0.763-2.957c0.606-1.027,1.933-1.366,2.956-0.763c6.63,3.91,14.524,5.811,24.13,5.811
						c18.228,0,30.65-3.263,44.07-20.476c0.551-0.706,1.483-1,2.336-0.736c0.856,0.263,1.462,1.028,1.521,1.922
						c1.313,19.938,14.337,34.701,17.523,34.701c0.496,0,1.161-0.219,1.864-0.451c0.956-0.314,2.04-0.67,3.24-0.67
						c2.385,0,6.895,1.934,6.895,9.251C126.733,78.222,123.02,85.231,114.725,85.231z"/>
				</g>
			</g>
			<g>
				<g>
					<path style="fill:#525D7D;" d="M22.652,58.735c-2.734,0-5.573-0.558-8.21-1.613c-1.106-0.443-1.645-1.699-1.202-2.806
						c0.443-1.107,1.702-1.644,2.807-1.202c4.563,1.827,9.811,1.701,13.14-0.441c1.001-0.642,2.338-0.356,2.984,0.648
						c0.645,1.003,0.354,2.339-0.648,2.984C29.05,57.894,25.982,58.735,22.652,58.735z"/>
				</g>
			</g>
			<g>
				<g>
					<path style="fill:#525D7D;" d="M21.365,66.867c-3.281,0-6.517-0.571-9.646-1.124c-1.174-0.207-1.958-1.327-1.751-2.501
						c0.208-1.174,1.335-1.957,2.502-1.751c3.083,0.544,5.994,1.058,8.895,1.058c2.238,0,4.222-0.316,6.067-0.968
						c1.123-0.396,2.359,0.193,2.754,1.317c0.398,1.125-0.193,2.358-1.317,2.755C26.555,66.47,24.101,66.867,21.365,66.867z"/>
				</g>
			</g>
			<g>
				<g>
					<path style="fill:#525D7D;" d="M22.95,188.652c-1.192,0-2.159-0.966-2.159-2.159c0-1.255-0.027-2.536-0.053-3.83
						c-0.027-1.35-0.055-2.714-0.055-4.076c0-19.306,12.013-26.255,21.667-31.838c6.852-3.964,11.052-6.637,11.052-11.436
						c0-7.41-4.775-11.683-10.821-17.094c-8.147-7.292-18.287-16.367-18.287-36.719c0-4.05,0.603-8.057,1.794-11.909
						c0.353-1.138,1.564-1.773,2.702-1.425c1.139,0.352,1.777,1.561,1.425,2.7c-1.064,3.439-1.602,7.017-1.602,10.634
						c0,18.421,8.951,26.432,16.849,33.501c6.304,5.642,12.259,10.972,12.259,20.311c0,7.532-6.417,11.244-13.209,15.173
						C35.366,155.776,25,161.772,25,178.587c0,1.333,0.028,2.667,0.055,3.987c0.027,1.324,0.053,2.635,0.053,3.919
						C25.109,187.685,24.142,188.652,22.95,188.652z"/>
				</g>
			</g>
			<g>
				<g>
					<path style="fill:#525D7D;" d="M101.196,140.436c-0.784,0-1.515-0.427-1.896-1.126c-0.419-0.77-0.332-1.718,0.224-2.397
						c2.551-3.13,4.473-7.052,5.927-12.15c-2.908,1.159-5.958,2.074-9.113,2.734c-0.947,0.198-1.905-0.257-2.353-1.111
						c-0.448-0.855-0.275-1.903,0.424-2.568c9.017-8.563,14.188-21.241,14.188-34.783c0-2.189-0.142-4.398-0.42-6.567
						c-0.153-1.182,0.682-2.264,1.865-2.417c1.181-0.155,2.266,0.684,2.416,1.866c0.304,2.35,0.457,4.745,0.457,7.118
						c0,11.987-3.754,23.377-10.479,32.254c1.792-0.65,3.528-1.397,5.199-2.239c0.742-0.374,1.631-0.29,2.29,0.219
						c0.658,0.507,0.966,1.347,0.793,2.159c-1.191,5.593-2.783,10.121-4.906,13.881c4.757-1.073,9.612-2.945,14.495-5.59
						c1.05-0.57,2.359-0.179,2.928,0.87c0.568,1.049,0.177,2.359-0.87,2.927c-7.051,3.819-14.093,6.143-20.931,6.906
						C101.355,140.431,101.274,140.436,101.196,140.436z"/>
				</g>
			</g>
			<g>
				<g>
					<path style="fill:#525D7D;" d="M59.842,207.953c-1.147,0-2.099-0.901-2.155-2.053c-0.127-2.558-0.136-5.123-0.136-7.325
						l0.001-2.38c0-4.642-0.06-9.165-0.793-13.497c-0.101-0.59,0.049-1.196,0.413-1.671c0.364-0.476,0.909-0.779,1.505-0.837
						c2.21-0.216,4.558-0.321,7.183-0.321c2.754,0,5.212,0.105,7.382,0.197c1.55,0.067,2.908,0.125,4.026,0.125
						c2.239,0,4.549-0.135,6.782-0.266c2.295-0.134,4.668-0.273,7.034-0.273c2.597,0,4.886,0.171,6.996,0.523
						c1.175,0.196,1.971,1.309,1.774,2.484c-0.195,1.176-1.304,1.972-2.485,1.775c-1.871-0.312-3.927-0.464-6.285-0.464
						c-2.239,0-4.549,0.135-6.782,0.266c-2.295,0.134-4.668,0.273-7.034,0.273c-1.168,0-2.588-0.06-4.21-0.129
						c-2.127-0.091-4.537-0.193-7.198-0.193c-1.604,0-3.095,0.041-4.508,0.124c0.472,3.904,0.517,7.856,0.517,11.884l-0.001,2.38
						c0,1.541,0.006,3.262,0.052,5.02c2.749-0.046,5.511-0.062,8.279-0.078c11.573-0.069,23.539-0.14,34.801-2.44
						c2.18-0.446,7.252-1.879,7.252-5.551c0-1.153,0.011-2.305,0.022-3.463c0.013-1.151,0.024-2.306,0.024-3.468
						c0-13.484-2.935-31.259-16.917-39.369c-1.408-0.817-2.711-1.49-3.972-2.141c-5.005-2.585-9.329-4.818-9.329-12.03
						c0-16.021,13.812-22.992,23.897-28.082c1.064-0.537,2.363-0.11,2.9,0.954c0.537,1.064,0.11,2.363-0.954,2.9
						c-11.776,5.944-21.525,11.87-21.525,24.227c0,4.582,2.047,5.639,6.993,8.193c1.245,0.643,2.658,1.373,4.158,2.243
						c12.474,7.235,19.067,22.14,19.067,43.104c0,1.177-0.011,2.346-0.024,3.511c-0.011,1.143-0.022,2.281-0.022,3.419
						c0,4.826-3.902,8.392-10.705,9.782c-11.678,2.385-23.859,2.457-35.639,2.527C66.767,207.855,63.318,207.875,59.842,207.953z"/>
				</g>
			</g>
			<g>
				<g>
					<path style="fill:#525D7D;" d="M13.941,208.948c-7.531,0-8.344-4.056-8.344-5.8c0-4.087,4.813-6.37,10.385-9.014
						c2.706-1.284,5.503-2.611,7.762-4.148c2.174-1.482,3.49-2.684,4.65-3.745c3.507-3.206,5.365-4.507,16.294-4.507
						c1.016,0,2.031,0.011,3.045,0.021c0.995,0.01,1.989,0.02,2.983,0.02c2.363,0,5.156-0.051,7.956-0.434
						c1.186-0.165,2.27,0.667,2.432,1.848c0.162,1.181-0.666,2.27-1.847,2.431c-3.057,0.417-6.033,0.473-8.541,0.473
						c-1.008,0-2.017-0.011-3.028-0.021c-0.998-0.01-1.997-0.02-3-0.02c-9.688,0-10.618,0.85-13.38,3.376
						c-1.205,1.102-2.703,2.472-5.135,4.128c-2.534,1.726-5.485,3.126-8.34,4.48c-3.153,1.496-7.918,3.756-7.918,5.112
						c0,1.375,3.081,1.482,4.026,1.482c5.978,0,25.486-9.293,27.25-10.428c0.585-0.377,1.33-0.455,1.976-0.2
						c0.647,0.256,1.143,0.801,1.312,1.476c0.963,3.847,3.016,5.416,7.093,5.416c2.558,0,5.079-0.448,7.746-0.923l0.791,4.246
						c-2.771,0.492-5.599,0.995-8.538,0.995c-5.076,0-8.566-2.061-10.407-6.134C35.208,202.056,20.171,208.948,13.941,208.948z"/>
				</g>
			</g>
			<g>
				<g>
					<path style="fill:#525D7D;" d="M72.824,163.418c-11.703,0-20.085-5.334-24.911-15.855c-0.143-0.315-0.249-0.559-0.335-0.706
						c-0.593-1.022-0.267-2.351,0.746-2.957c1.016-0.607,2.317-0.304,2.935,0.701c0.139,0.226,0.332,0.624,0.579,1.162
						c1.673,3.648,6.116,13.337,20.985,13.337c5.576,0,13.668-5.637,16.364-13.725c0.375-1.132,1.594-1.746,2.731-1.366
						c1.13,0.377,1.742,1.6,1.365,2.73C89.96,156.716,80.021,163.418,72.824,163.418z"/>
				</g>
			</g>
			<g>
				<g>
					<path style="fill:#525D7D;" d="M70.594,118.424c-5.694,0-9.608-4.754-9.697-9.219c-0.086-4.218,2.998-8.262,7.173-9.407
						l0.571,2.082l-0.573-2.082l0.573,2.082l-0.544-2.09c0.673-0.186,1.369-0.377,2.239-0.414c0.298-0.011,0.583-0.011,0.87-0.001
						c4.803,0.186,8.563,3.613,8.94,8.147c0.228,2.743-0.805,5.659-2.765,7.801C75.567,117.306,73.18,118.407,70.594,118.424z
						 M70.786,103.685c-0.091,0-0.183,0.001-0.275,0.006c-0.372,0.015-0.728,0.114-1.267,0.262c-2.321,0.637-4.076,2.901-4.03,5.166
						c0.048,2.416,2.22,4.987,5.379,4.987c1.342-0.008,2.607-0.611,3.6-1.697c1.144-1.251,1.775-2.987,1.647-4.53
						c-0.229-2.759-2.651-4.106-4.804-4.189C70.952,103.687,70.869,103.685,70.786,103.685z"/>
				</g>
			</g>
			<g>
				<g>
					<path style="fill:#525D7D;" d="M81.766,110.814c-0.859,0-1.723-0.038-2.569-0.112c-1.188-0.105-2.066-1.153-1.961-2.34
						c0.104-1.187,1.155-2.065,2.34-1.961c0.72,0.063,1.456,0.096,2.19,0.096c10.091,0,20.125-6.1,26.184-15.92
						c0.627-1.015,1.957-1.33,2.972-0.703c1.015,0.626,1.33,1.956,0.703,2.971C104.784,103.928,93.344,110.814,81.766,110.814z"/>
				</g>
			</g>
			<g>
				<g>
					<path style="fill:#525D7D;" d="M62.326,110.71c-4.976,0-11.353-1.834-14.335-6.983c-0.597-1.032-0.246-2.352,0.786-2.95
						c1.034-0.596,2.352-0.247,2.95,0.786c2.063,3.563,6.999,4.828,10.599,4.828c1.192,0,2.159,0.966,2.159,2.159
						C64.485,109.744,63.518,110.71,62.326,110.71z"/>
				</g>
			</g>
			<g>
				<g>
					<path style="fill:#525D7D;" d="M61.136,94.972c-1.046,0-2.094-0.085-2.863-1.044c-0.897-1.118-0.618-2.319-0.157-4.308
						c0.6-2.584,1.847-7.962,2.492-18.6c0.072-1.189,1.089-2.091,2.286-2.024c1.191,0.072,2.096,1.095,2.024,2.286
						c-0.666,11-1.969,16.615-2.595,19.314c1.189-0.022,2.46-0.42,3.8-0.838c0.964-0.302,1.962-0.614,2.998-0.82
						c1.16-0.236,2.307,0.523,2.54,1.694c0.235,1.169-0.524,2.307-1.694,2.54c-0.813,0.162-1.659,0.427-2.555,0.708
						c-1.711,0.535-3.48,1.089-5.438,1.089l-0.496,0.003C61.364,94.97,61.25,94.972,61.136,94.972z"/>
				</g>
			</g>
			<g>
				<g>
					<path style="fill:#525D7D;" d="M43.67,77.436c-2.919,0-5.121-2.358-5.121-5.485c0-1.646,0.581-3.254,1.593-4.41
						c0.779-0.888,2.124-0.987,3.024-0.224c0.8-0.219,1.699,0.039,2.255,0.735c0.06,0.034,0.43,0.16,0.673,0.244
						c0.947,0.325,3.164,1.085,3.164,3.721C49.257,74.701,46.438,77.436,43.67,77.436z M42.898,71.545
						c-0.02,0.135-0.031,0.272-0.031,0.407c0,0.436,0.104,1.167,0.803,1.167c0.274-0.02,0.758-0.383,1.043-0.73
						C44.169,72.201,43.514,71.977,42.898,71.545z"/>
				</g>
			</g>
			<g>
				<g>
					<path style="fill:#525D7D;" d="M81.678,77.318c-1.726,0-5.108-1.136-5.108-3.761c0-0.134-0.021-0.266-0.038-0.401
						c-0.037-0.305-0.068-0.611-0.068-0.915c0-2.568,2.799-5.826,5.943-5.826c0.579,0,1.147,0.106,1.691,0.315
						c1.753,0.675,2.92,2.158,3.119,3.965l0.021,0.188c0.046,0.393,0.093,0.824,0.093,1.257
						C87.332,75.338,84.397,77.318,81.678,77.318z M80.836,72.774c0.278,0.116,0.648,0.221,0.845,0.226
						c0.456,0,1.333-0.335,1.333-0.86c0-0.259-0.035-0.517-0.063-0.751l-0.025-0.218c-0.013-0.118-0.03-0.277-0.378-0.411
						c-0.63-0.247-1.69,0.994-1.766,1.519c0.001,0.096,0.023,0.229,0.039,0.363C80.825,72.685,80.831,72.73,80.836,72.774z"/>
				</g>
			</g>
			<g>
				<g>
					<path style="fill:#525D7D;" d="M36.957,65.218c-0.838,0-1.635-0.491-1.986-1.309c-0.47-1.096,0.038-2.365,1.134-2.835
						c3.177-1.361,6.462-2.769,10.112-3.013c1.133-0.086,2.218,0.819,2.298,2.01c0.079,1.19-0.821,2.219-2.012,2.298
						c-2.914,0.195-5.724,1.399-8.698,2.674C37.529,65.162,37.241,65.218,36.957,65.218z"/>
				</g>
			</g>
			<g>
				<g>
					<path style="fill:#525D7D;" d="M84.857,60.186c-0.052,0-0.104-0.001-0.156-0.006c-1.08-0.077-2.132-0.205-3.177-0.334
						c-1.896-0.233-3.645-0.456-5.482-0.322c-1.169,0.087-2.222-0.806-2.309-1.997c-0.086-1.189,0.808-2.224,1.997-2.309
						c2.203-0.16,4.312,0.096,6.321,0.343c0.971,0.119,1.952,0.241,2.956,0.313c1.189,0.084,2.084,1.117,2,2.307
						C86.926,59.318,85.978,60.186,84.857,60.186z"/>
				</g>
			</g>
		</g>
	</g>
</g>
<g id="Layer_1">
</g>
</svg>
