<?xml version="1.0" encoding="iso-8859-1"?>
<!-- Generator: Adobe Illustrator 21.0.2, SVG Export Plug-In . SVG Version: 6.00 Build 0)  -->
<svg version="1.1" xmlns="http://www.w3.org/2000/svg" xmlns:xlink="http://www.w3.org/1999/xlink" x="0px" y="0px"
	 viewBox="0 0 222.325 206.181" style="enable-background:new 0 0 222.325 206.181;" xml:space="preserve">
<g id="_x32_8">
	<g>
		<g>
			<path style="fill:#E0DFE6;" d="M176.209,175.991c-6.137-5.926-13.14-11.505-19.964-16.634c-2.098-1.577-4.33-2.775-6.674-3.549
				c2.256-4.066,0.355-10.841-5.844-11.061c-17.293-0.615-34.565-1.563-51.849-2.377c-2.962-0.139-5.932-0.234-8.902-0.337
				c-1.321-0.519-2.81-0.639-4.277-0.171c-3.076-0.131-6.149-0.293-9.21-0.573c-3.327-0.304-7.347-0.78-9.897-3.236
				c-1.496-1.441-2.381-3.416-3.149-5.451c3.963-0.959,7.303-2.65,10.501-5.189c1.848-1.467,3.59-3.955,5.434-6.148
				c-0.366,2.34,0.347,4.818,2.218,6.743c4.758,4.896,14.698,4.124,20.81,4.403c20.208,0.921,40.372,0.551,60.582,0.126
				c6.946-0.146,6.751-11.317,0-10.67c-0.25,0.024-0.5,0.041-0.75,0.064c0.893-0.662,1.491-1.709,1.412-3.168
				c-0.118-2.183-0.236-4.366-0.355-6.55c-0.114-2.114-1.735-4.044-3.99-3.99c-10.742,0.256-24.398-1.245-34.532,2.653
				c-1.293,0.497-1.293,2.139,0,2.638c0.093,0.036,0.19,0.064,0.284,0.099c-0.709,2.533-1.402,5.07-2.124,7.6
				c-0.18,0.629-0.201,1.259-0.105,1.86c-6.34-0.065-12.674-0.274-19.012-0.46c-3.54-0.104-20.62,1.831-19.993-4.721
				c0.017-0.18-0.016-0.338-0.071-0.485c0.253-0.122,0.509-0.227,0.77-0.31c4.065-1.296,7.645-0.548,11.371-3.261
				c2.949-2.147,4.436-5.03,4.39-8.658c-0.073-5.827-9.545-7.613-10.569-1.43c-0.517,3.12-5.635,2.344-8.063,2.937
				c-3.068,0.75-5.567,2.316-7.588,4.734c-4.416,5.287-8.085,10.966-12.708,16.13c-0.872-1.001-2.7-0.475-3.081,0.793
				c-2.024,6.736-0.967,14.252,4.215,19.313c2.723,2.66,6.132,4.179,9.755,5.099c-4.384,3.762-8.786,7.502-13.256,11.183
				c-7.149,5.888-16.873,11.707-21.723,19.735c-0.803,1.329,0.209,3.446,1.89,3.293c9.779-0.888,19.366-8.002,27.241-13.426
				c8.191-5.642,16.187-12.01,23.485-18.841c19.091,1.307,38.194,2.408,57.277,3.836c10.789,7.132,19.567,17.549,30.081,25.193
				C174.811,187.048,180.165,179.811,176.209,175.991z M146.439,120.791c0.683,1.16,2.158,1.872,3.5,1.135
				c0.207,0.147,0.423,0.281,0.654,0.389c-2.312,0.167-4.628,0.292-6.945,0.4C144.736,122.349,145.703,121.663,146.439,120.791z
				 M131.396,120.411c0.61,0.801,1.381,1.471,2.242,1.886c1.765,0.851,3.611,0.604,5.179-0.267c0.537,0.379,1.128,0.66,1.778,0.82
				c-3.278,0.12-6.559,0.192-9.839,0.231C131.231,122.271,131.445,121.331,131.396,120.411z M130.099,115.963
				c-0.081,0.525-0.079,1.064,0.014,1.6c-0.07-0.068-0.131-0.105-0.187-0.152c-0.157-0.495-0.313-0.988-0.466-1.484
				C129.67,115.945,129.887,115.946,130.099,115.963z"/>
		</g>
		<g>
			<path style="fill:#E0DFE6;" d="M173.277,49.13c-0.189-0.006-0.366,0.015-0.546,0.027c1.081-2.049,1.913-4.185,2.387-6.408
				c0.25-1.173,0.071-2.199-0.38-3.02c2.385-8.801,2.231-18.143-1.26-25.935c-1.016-2.267-4.078-0.848-4.249,1.151
				c-0.757,8.848-1.886,17.156-5.946,25.186c-4.042,7.993-10.011,12.589-16.223,18.66c-1.049,1.025-1.455,2.409-1.391,3.791
				c-0.649,0.136-1.199,0.72-0.983,1.539c1.141,4.326,3.099,11.185,7.848,12.831c4.85,1.68,11.317-1.737,15.361-4.109
				c4.777-2.802,10.665-7.649,12.564-13.044C182.348,54.433,178.869,49.299,173.277,49.13z M160.001,66.45
				c-1.105,0.789-4.772,3.778-6.091,3.723c-0.919-0.038-1.826-0.571-2.676-1.339c0.526,0.17,1.119,0.134,1.698-0.242
				c4.882-3.167,10.322-7.284,14.652-12.155c0.118,0.783,0.382,1.528,0.805,2.171C166.279,61.747,162.491,64.672,160.001,66.45z"/>
		</g>
		<g>
			<path style="fill:#E0DFE6;" d="M156.237,21.066c-1.418-1.418-4.363-1.721-5.739,0c-2.924,3.655-4.22,7.901-3.209,12.542
				c0.762,3.499,6.43,2.751,6.27-0.849c-0.11-2.477,0.746-4.406,2.679-5.954C157.949,25.434,157.666,22.496,156.237,21.066z"/>
		</g>
		<g>
			<path style="fill:#E0DFE6;" d="M222.077,155.57c-0.858-10.068-2.416-21.129-5.632-30.766c0.025-0.16,0.062-0.31,0.072-0.481
				c0.972-16.251,0.15-32.804-0.198-49.076c-0.328-15.365-0.099-31.525-3.598-46.565c-0.309-1.327-2.444-1.369-2.726,0
				c-3.111,15.094-2.498,31.221-2.442,46.565c0.06,16.281-0.347,32.848,1.03,49.076c0.183,2.159,1.601,3.405,3.188,3.732
				c-0.199,2.323-0.12,4.647,0.086,6.971c-0.937,0.195-1.786,0.806-2.071,1.864c-2.129,7.888-3.284,16.381-4.615,24.451
				c-0.217,1.317,0.029,2.473,0.547,3.441c-0.513,3.516-1.31,6.91-4.622,8.86c-5.506,3.241-12.764,3.207-18.77,4.872
				c-1.931,0.536-1.885,3.311,0,3.869c7.4,2.193,19.355,2.72,26.336-1.186c0.304-0.17,0.593-0.362,0.883-0.55
				c-0.764,3.819,4.707,6.542,7.117,2.708C221.849,175.099,222.892,165.127,222.077,155.57z"/>
		</g>
		<g>
			<path style="fill:#E0DFE6;" d="M126.405,26.236c-9.363,1.307-18.777,2.654-28.256,2.53c-6.317-0.083-13.814-2.194-19.834,0.535
				c-4.801,2.177-6.237,6.462-6.738,11.368c-0.936,9.172-0.955,18.497-0.999,27.708c-0.006,1.295,2.097,1.666,2.329,0.315
				c1.202-7.015,2.531-14.007,3.94-20.984c0.448-2.219,0.72-4.916,1.505-7.06c1.707-4.661,5.364-5.034,9.735-4.683
				c13.324,1.071,26.368,1.342,39.748,0.84C135.509,36.518,134.28,25.137,126.405,26.236z"/>
		</g>
		<g>
			<path style="fill:#E0DFE6;" d="M131.763,92.418c-0.724-3.753-0.525-7.8-1.536-11.451c-0.723-2.611-3.597-4.311-6.238-3.542
				c-4.055,1.182-8.167,0.335-12.174,1.292c-1.276,0.305-2.628,1.53-2.862,2.863c-0.666,3.782-2.407,8.534-1.783,12.638
				c-0.237,0.018-0.471,0.044-0.71,0.059c-3.501,0.217-4.807,5.895-0.885,6.538c6.305,1.034,13.39,1.484,19.623-0.228
				c0.8-0.22,1.428-0.573,1.926-1.002c0.21-0.029,0.426-0.044,0.625-0.099C130.939,98.61,132.353,95.475,131.763,92.418z"/>
		</g>
		<g>
			<path style="fill:#E0DFE6;" d="M198.198,47.196c-0.006-0.537-0.087-1.024-0.206-1.482c0.565-3.826-0.773-7.871-3.821-10.754
				c-4.075-3.854-11.172-3.827-14.848,0.452c-0.909,1.058-0.331,2.781,1.161,2.802c2.675,0.039,5.321,1.379,6.852,3.581
				c0.288,0.414,0.509,0.865,0.694,1.332c-0.998,0.932-1.596,2.287-1.414,4.068c1.048,10.257,2.526,20.369,5.01,30.346
				c-0.174-0.035-0.336-0.087-0.521-0.107c-5.576-0.611-12.436,0.19-17.752,1.915c-3.708,1.203-3.105,6.053,0.312,6.879
				c-0.138,1.749-0.309,3.499-0.789,5.107c-0.614,2.058,0.742,4.071,2.676,4.713c4.274,1.418,9.73,1.15,14.13,0.561
				c2.465-0.33,4.606-1.881,4.606-4.606c0-1.403-0.839-2.99-2.078-3.895c0.055-0.297,0.075-0.604,0.062-0.923
				c2.786-0.51,3.912-3.054,3.481-5.426c0.145-0.189,0.262-0.408,0.306-0.693C197.798,69.803,198.325,58.597,198.198,47.196z"/>
		</g>
		<g>
			<g>
				<g>
					<path style="fill:#525D7D;" d="M151.062,146.557c-0.038,0-0.077-0.001-0.117-0.003c-26.086-1.391-59.432-3.322-87.024-5.041
						c-5.78-0.359-10.338-4.994-10.604-10.781l-0.139-3.094c-0.055-1.191,0.867-2.201,2.059-2.254c1.191-0.047,2.2,0.869,2.253,2.06
						l0.139,3.092c0.166,3.578,2.984,6.445,6.559,6.668c27.583,1.717,60.913,3.648,86.988,5.038c1.191,0.064,2.104,1.08,2.041,2.272
						C153.155,145.665,152.202,146.557,151.062,146.557z"/>
				</g>
			</g>
			<g>
				<g>
					<path style="fill:#525D7D;" d="M207.74,128.342c-1.178,0-2.141-0.945-2.159-2.125c-0.287-18.53-0.426-35.229-0.426-51.054
						c0-16.28,0.146-31.36,0.446-46.103c0.077-3.795-2.82-6.936-6.594-7.15c-6.507-0.368-14.184-0.784-22.596-1.221
						c-1.191-0.062-2.106-1.077-2.044-2.268c0.062-1.191,1.016-2.125,2.269-2.044c8.417,0.436,16.103,0.854,22.615,1.222
						c6.105,0.345,10.791,5.418,10.667,11.549c-0.299,14.713-0.446,29.764-0.446,46.015c0,15.802,0.139,32.48,0.426,50.987
						C209.918,127.342,208.966,128.323,207.74,128.342z"/>
				</g>
			</g>
			<g>
				<g>
					<path style="fill:#525D7D;" d="M53.999,93.454c-1.165,0-2.125-0.929-2.156-2.102c-0.292-11.032-0.434-21.114-0.434-30.823
						c0-10.511,0.819-21.014,1.614-31.173c0.174-2.242,0.35-4.485,0.516-6.729c0.443-5.954,5.473-10.535,11.418-10.51
						c15.853,0.161,38.734,0.891,68.009,2.168c1.191,0.052,2.115,1.06,2.064,2.251c-0.052,1.191-1.018,2.109-2.252,2.063
						c-29.227-1.276-52.06-2.004-67.865-2.164c-3.728-0.001-6.793,2.847-7.066,6.512c-0.167,2.249-0.343,4.497-0.519,6.744
						c-0.786,10.076-1.6,20.495-1.6,30.837c0,9.67,0.142,19.715,0.432,30.709C56.19,92.43,55.25,93.422,53.999,93.454z"/>
				</g>
			</g>
			<g>
				<g>
					<path style="fill:#525D7D;" d="M2.161,150.996c-0.689,0-1.368-0.33-1.785-0.943c-0.672-0.985-0.417-2.328,0.568-3
						c32.774-22.346,35.754-36.536,37.535-45.014c2.114-10.065,4.207-13.545,30.966-13.545c3.226,0,6.474,0.162,9.616,0.318
						c2.547,0.127,5.18,0.258,7.751,0.299c0.008-0.007,0.076-0.028,0.142-0.045c0.284-0.072,0.672-0.171,1.155-0.171
						c2.807,0,7.82,2.658,7.82,7.955c0,5.124-5.034,12.748-18.899,12.748c-2.825,0-5.714-0.242-8.507-0.475
						c-2.647-0.221-5.147-0.43-7.457-0.43c-1.192,0-2.159-0.966-2.159-2.159c0-1.193,0.967-2.159,2.159-2.159
						c2.491,0,5.077,0.216,7.817,0.446c2.704,0.226,5.502,0.46,8.147,0.46c10.698,0,14.581-5.041,14.581-8.43
						c0-2.834-3.144-3.635-3.502-3.636c0.028,0.004-0.032,0.023-0.093,0.038c-0.28,0.071-0.7,0.178-1.213,0.178
						c-2.704-0.042-5.375-0.175-7.957-0.304c-3.088-0.154-6.283-0.313-9.401-0.313c-24.615,0-25.107,2.345-26.741,10.115
						c-1.915,9.114-5.118,24.369-39.328,47.694C3.004,150.875,2.579,150.996,2.161,150.996z"/>
				</g>
			</g>
			<g>
				<g>
					<path style="fill:#525D7D;" d="M157.445,135.354c-0.044,0-0.087-0.001-0.132-0.004c-2.191-0.133-4.381-0.289-6.575-0.445
						c-5.644-0.401-11.48-0.817-17.253-0.817c-3.65,0-6.993,0.207-10.532,0.425c-3.681,0.227-7.488,0.462-11.799,0.462
						c-28.815,0-36.461-2.056-39.928-5.609c-2.397-2.455-2.324-5.481-2.253-8.407c0.013-0.529,0.025-1.075,0.025-1.638
						c0-1.143,0.031-2.287,0.063-3.438c0.031-1.126,0.063-2.259,0.063-3.407c0-1.193,0.967-2.159,2.159-2.159
						c1.192,0,2.159,0.966,2.159,2.159c0,1.189-0.032,2.362-0.065,3.527c-0.031,1.11-0.062,2.214-0.062,3.318
						c0,0.599-0.014,1.18-0.027,1.742c-0.066,2.716-0.049,4.185,1.026,5.287c2.948,3.019,13.965,4.307,36.839,4.307
						c4.177,0,7.917-0.231,11.533-0.455c3.607-0.223,7.014-0.433,10.798-0.433c5.926,0,11.84,0.421,17.559,0.828
						c2.179,0.155,4.355,0.31,6.531,0.442c1.191,0.072,2.097,1.096,2.024,2.286C159.53,134.471,158.578,135.354,157.445,135.354z"/>
				</g>
			</g>
			<g>
				<g>
					<path style="fill:#525D7D;" d="M28.671,181.375c-0.573,0-1.146-0.227-1.57-0.677c-0.818-0.867-0.779-2.234,0.087-3.052
						c9.835-9.288,19.194-14.901,26.713-19.409c9.82-5.889,16.914-10.143,19.412-18.889c0.328-1.147,1.525-1.807,2.669-1.483
						c1.147,0.327,1.811,1.522,1.483,2.669c-2.967,10.385-11.076,15.248-21.343,21.406c-7.723,4.631-16.475,9.879-25.968,18.845
						C29.736,181.18,29.204,181.375,28.671,181.375z"/>
				</g>
			</g>
			<g>
				<g>
					<path style="fill:#525D7D;" d="M55.878,161.727c-0.384,0-0.77-0.101-1.122-0.315c-9.08-5.528-22.04-14.893-29.73-32.34
						c-0.481-1.091,0.014-2.366,1.106-2.846c1.089-0.483,2.363,0.013,2.847,1.105c7.118,16.151,18.715,24.726,28.024,30.393
						c1.018,0.62,1.341,1.948,0.721,2.967C57.318,161.359,56.606,161.727,55.878,161.727z"/>
				</g>
			</g>
			<g>
				<g>
					<path style="fill:#525D7D;" d="M52.328,127.684c-0.691,0-1.372-0.319-1.785-0.921c-0.661-0.964-0.471-2.254,0.474-2.941
						c0.391-0.284,0.928-0.548,2.106-1.115c3.974-1.917,14.529-7.009,14.529-13.889c0-0.096-0.008-0.192-0.027-0.288
						c-0.231-1.17,0.531-2.305,1.701-2.536c1.157-0.232,2.305,0.53,2.536,1.701c0.072,0.365,0.108,0.742,0.108,1.122
						c0,9.592-11.892,15.328-16.97,17.778c-0.606,0.292-1.292,0.623-1.469,0.737C53.161,127.57,52.742,127.684,52.328,127.684z"/>
				</g>
			</g>
			<g>
				<g>
					<path style="fill:#525D7D;" d="M154.009,73.565c-0.578,0-1.133-0.232-1.539-0.644c-13.009-13.217-23.592-35.349-23.592-49.335
						C128.877,10.794,144.549,0,154.391,0c12.812,0,26.531,12.074,26.531,30.048c0,10.773-8.29,24.786-25.344,42.84
						C155.175,73.315,154.617,73.559,154.009,73.565z M154.391,4.318c-7.973,0-21.196,9.332-21.196,19.268
						c0,12.241,9.375,32.19,20.802,44.672C169,52.07,176.604,39.22,176.604,30.048C176.604,17.878,167.482,4.318,154.391,4.318z"/>
				</g>
			</g>
			<g>
				<g>
					<path style="fill:#525D7D;" d="M154.829,38.979c-6.54,0-11.379-4.577-11.55-10.981c-0.169-6.268,4.328-11.565,10.237-12.058
						c0.194-0.017,0.385-0.027,0.576-0.033c3.045-0.098,6.133,1.129,8.469,3.364c2.271,2.172,3.544,4.978,3.583,7.903
						c0.083,6.056-5.173,11.682-11.027,11.802C155.021,38.978,154.925,38.979,154.829,38.979z M154.432,20.219
						c-0.068,0-0.135,0.001-0.201,0.003c-0.117,0.004-0.233,0.011-0.35,0.02c-4.055,0.339-6.379,4.15-6.286,7.64
						c0.108,4.015,3.074,6.778,7.24,6.778c0.063,0,0.128,0,0.194-0.001c3.48-0.072,6.848-3.75,6.798-7.427
						c-0.024-1.757-0.822-3.476-2.249-4.84C158.126,21.004,156.26,20.219,154.432,20.219z"/>
				</g>
			</g>
			<g>
				<g>
					<path style="fill:#525D7D;" d="M69.159,92.813c-1.124,0-2.073-0.872-2.151-2.012c-0.318-4.641-0.472-9.458-0.472-14.728
						c0-10.571,0.638-21.301,1.255-31.678c0.193-3.221,0.384-6.438,0.557-9.652c0.297-5.516,4.871-9.834,10.412-9.834
						c0.008,0,0.938,0.001,0.938,0.001c10.084,0,20.3-0.141,30.179-0.278c7.086-0.098,14.179-0.197,21.302-0.247
						c1.202,0,2.166,0.956,2.174,2.144c0.008,1.193-0.952,2.166-2.144,2.175c-7.115,0.05-14.198,0.148-21.273,0.246
						c-9.894,0.137-20.125,0.279-30.239,0.279l-0.935-0.001c-3.25,0-5.929,2.524-6.102,5.748c-0.174,3.222-0.365,6.448-0.558,9.676
						c-0.614,10.314-1.248,20.979-1.248,31.422c0,5.171,0.15,9.892,0.461,14.433c0.081,1.19-0.817,2.22-2.006,2.302
						C69.259,92.811,69.209,92.813,69.159,92.813z"/>
				</g>
			</g>
			<g>
				<g>
					<path style="fill:#525D7D;" d="M195.437,121.251c-1.25-0.032-2.191-1.024-2.159-2.216c0.554-21.059,1.126-42.833,1.126-64.243
						c0-5.225-0.034-10.32-0.101-15.141c-0.038-2.787-2.179-5.052-4.979-5.271c-3.009-0.236-6.011-0.5-9.021-0.764l-1.77-0.155
						c-1.188-0.104-2.066-1.151-1.962-2.339c0.104-1.188,1.136-2.066,2.339-1.962l1.771,0.155c2.997,0.263,5.985,0.526,8.981,0.76
						c5.038,0.394,8.891,4.485,8.96,9.517c0.067,4.841,0.101,9.955,0.101,15.201c0,21.466-0.574,43.27-1.129,64.357
						C197.564,120.321,196.602,121.251,195.437,121.251z"/>
				</g>
			</g>
			<g>
				<g>
					<path style="fill:#525D7D;" d="M171.509,206.181c-1.192,0-2.159-0.966-2.159-2.159c0-3.526,0.384-6.972,0.755-10.304
						c0.371-3.326,0.721-6.469,0.721-9.683c0-7.913-5.19-11.417-11.199-15.474c-5.94-4.01-12.673-8.555-12.673-18.135
						c0-5.614,2.917-8.125,5.048-9.958c1.501-1.292,2.364-2.089,2.637-3.421c0.89-4.349,1.321-10.326,1.778-16.655
						c1.158-16.036,2.252-31.183,10.86-31.183c7.696,0,7.911,21.783,7.911,22.003c0,3.38-0.212,6.81-0.416,10.127
						c-0.2,3.221-0.405,6.552-0.405,9.737c0,1.259,0.031,2.419,0.096,3.545c0.068,1.191-0.843,2.21-2.034,2.278
						c-1.21,0.068-2.21-0.843-2.279-2.033c-0.068-1.208-0.101-2.447-0.101-3.79c0-3.319,0.209-6.718,0.413-10.004
						c0.2-3.251,0.408-6.613,0.408-9.861c0-7.273-2.014-16.871-3.716-17.708c-4.467,0.023-5.648,16.378-6.429,27.2
						c-0.467,6.472-0.908,12.585-1.854,17.21c-0.582,2.841-2.425,4.429-4.053,5.828c-1.98,1.705-3.545,3.052-3.545,6.685
						c0,7.285,4.991,10.655,10.771,14.557c6.14,4.146,13.1,8.845,13.1,19.053c0,3.454-0.38,6.864-0.748,10.161
						c-0.357,3.215-0.728,6.54-0.728,9.826C173.668,205.214,172.701,206.181,171.509,206.181z"/>
				</g>
			</g>
			<g>
				<g>
					<path style="fill:#525D7D;" d="M209.228,186.728c-0.431,0-0.867-0.129-1.247-0.397c-0.973-0.689-1.203-2.037-0.514-3.009
						c4.838-6.833,4.833-13.988,4.827-21.562v-0.793c0-18.526-1.41-29.324-4.19-32.096c-0.793-0.791-1.646-0.815-3.241-0.821
						l-0.288,0.001c-3.986,0-5.405,2.363-6.124,4.14c-0.728,1.797-2.049,1.747-2.582,1.64c-1.787-0.351-1.782-2.109-1.779-2.954
						v-0.413c0-0.302,0.024-0.603,0.051-0.905c0.016-0.177,0.034-0.354,0.034-0.533c0-0.861-1.934-3.162-3.976-3.162
						c-1.719,0-2.804,1.526-3.767,3.09c-0.495,0.803-1.414,2.295-3.13,1.81c-1.82-0.516-1.82-2.193-1.82-4.97
						c0-1.844-0.492-1.844-0.654-1.844c-3.277,0-5.561,3.739-5.561,7.095c0,1.193-0.967,2.159-2.159,2.159
						c-1.192,0-2.159-0.966-2.159-2.159c0-5.511,3.969-11.413,9.879-11.413c0.967,0,3.752,0.306,4.672,3.674
						c1.177-0.985,2.717-1.759,4.699-1.759c3.12,0,5.998,2.115,7.399,4.523c2.204-1.847,4.824-2.336,6.979-2.336l0.275-0.001
						c1.812-0.007,4.207-0.011,6.304,2.081c2.699,2.691,5.458,8.973,5.458,35.153v0.789c0.007,7.918,0.013,16.105-5.62,24.06
						C210.57,186.411,209.904,186.728,209.228,186.728z"/>
				</g>
			</g>
			<g>
				<g>
					<path style="fill:#525D7D;" d="M216.17,203.788c-1.124,0-2.072-0.872-2.151-2.01c-0.035-0.494-0.048-1.015-0.048-1.554
						c0-1.054,0.053-2.187,0.11-3.345c0.055-1.138,0.111-2.301,0.111-3.433c0-6.869,0-7.28-22.888-7.28
						c-6.131,0-12.232,0.268-18.134,0.796c-1.206,0.099-2.236-0.77-2.343-1.958c-0.107-1.188,0.77-2.237,1.958-2.343
						c6.029-0.54,12.26-0.813,18.519-0.813c21.983,0,27.206,0,27.206,11.599c0,1.2-0.059,2.433-0.117,3.64
						c-0.052,1.086-0.104,2.149-0.104,3.137c0,0.435,0.01,0.856,0.037,1.256c0.083,1.19-0.815,2.221-2.004,2.303
						C216.271,203.787,216.221,203.788,216.17,203.788z"/>
				</g>
			</g>
			<g>
				<g>
					<path style="fill:#525D7D;" d="M97.309,50.302c-2.352,0-4.723-0.09-7.017-0.178c-2.252-0.086-4.581-0.174-6.85-0.174
						c-1.192,0-2.159-0.966-2.159-2.159c0-1.193,0.967-2.159,2.159-2.159c2.352,0,4.722,0.09,7.014,0.178
						c3.856,0.146,8.002,0.255,11.272,0.04c1.161-0.095,2.218,0.819,2.298,2.011c0.079,1.19-0.822,2.219-2.011,2.298
						C100.561,50.255,99.02,50.302,97.309,50.302z"/>
				</g>
			</g>
			<g>
				<g>
					<path style="fill:#525D7D;" d="M98.781,62.315c-2.21,0-4.381-0.15-6.481-0.294c-2.98-0.205-5.765-0.399-8.714-0.205
						c-1.178,0.071-2.219-0.82-2.298-2.011c-0.079-1.19,0.822-2.219,2.011-2.298c3.192-0.214,6.313-0.001,9.298,0.205
						c2.98,0.205,5.762,0.4,8.714,0.204c1.175-0.093,2.218,0.82,2.298,2.011c0.079,1.19-0.822,2.219-2.012,2.298
						C100.651,62.289,99.713,62.315,98.781,62.315z"/>
				</g>
			</g>
			<g>
				<g>
					<path style="fill:#525D7D;" d="M101.128,73.839c-0.14,0-0.284-0.014-0.426-0.043c-2.687-0.538-5.424-0.799-8.365-0.799
						c-2.695,0-5.559,0.215-9.019,0.677c-1.179,0.156-2.267-0.672-2.425-1.854c-0.159-1.182,0.672-2.268,1.854-2.426
						c3.652-0.488,6.699-0.715,9.589-0.715c3.229,0,6.242,0.289,9.211,0.883c1.169,0.234,1.929,1.371,1.694,2.541
						C103.037,73.13,102.136,73.839,101.128,73.839z"/>
				</g>
			</g>
			<g>
				<g>
					<path style="fill:#525D7D;" d="M118.854,102.043c-1.151,0-2.107-0.907-2.156-2.068c-0.049-1.191,0.876-2.198,2.066-2.248
						c1.91-0.081,3.77-0.243,5.528-0.479c1.191-0.165,2.27,0.67,2.429,1.85c0.16,1.181-0.669,2.269-1.85,2.428
						c-1.891,0.255-3.884,0.429-5.925,0.514C118.916,102.042,118.885,102.043,118.854,102.043z M105.93,101.517
						c-0.083,0-0.165-0.004-0.249-0.014c-1.874-0.215-3.829-0.491-5.811-0.822c-1.175-0.196-1.971-1.309-1.774-2.484
						c0.195-1.177,1.306-1.977,2.485-1.775c1.909,0.318,3.791,0.584,5.592,0.791c1.185,0.136,2.035,1.206,1.899,2.391
						C107.946,100.705,107.012,101.517,105.93,101.517z M136.999,98.095c-0.817,0-1.597-0.465-1.962-1.255
						c-0.499-1.082-0.027-2.366,1.056-2.865c1.666-0.769,3.227-1.664,4.64-2.662c0.973-0.687,2.322-0.455,3.009,0.519
						c0.687,0.974,0.455,2.321-0.519,3.009c-1.628,1.148-3.417,2.177-5.32,3.054C137.609,98.031,137.301,98.095,136.999,98.095z
						 M150.455,85.608c-0.339,0-0.682-0.08-1.002-0.248c-1.056-0.555-1.462-1.86-0.908-2.916c1.095-2.084,1.688-3.906,2.041-4.993
						c0.368-1.133,1.583-1.755,2.721-1.385c1.134,0.368,1.754,1.587,1.386,2.721c-0.371,1.139-1.06,3.258-2.325,5.667
						C151.982,85.188,151.231,85.608,150.455,85.608z"/>
				</g>
			</g>
		</g>
	</g>
</g>
<g id="Layer_1">
</g>
</svg>
