<?xml version="1.0" encoding="iso-8859-1"?>
<!-- Generator: Adobe Illustrator 21.0.2, SVG Export Plug-In . SVG Version: 6.00 Build 0)  -->
<svg version="1.1" xmlns="http://www.w3.org/2000/svg" xmlns:xlink="http://www.w3.org/1999/xlink" x="0px" y="0px"
	 viewBox="0 0 178.566 217.73" style="enable-background:new 0 0 178.566 217.73;" xml:space="preserve">
<g id="_x32_9">
	<g>
		<g>
			<path style="fill:#E0DFE6;" d="M121.041,26.969c-1.088-5.308-8.943-3.829-9.136,1.236c-0.056,1.473-0.193,2.924-0.369,4.366
				c-0.944-0.357-2.007-0.518-3.186-0.349c-23.179,3.326-47.005,2.514-70.35,4.047c-3.006,0.197-4.163,5.135-0.764,5.643
				c1.185,0.177,2.368,0.338,3.553,0.499c-2.007,0.17-3.987,0.52-5.902,1.21c-2.118,0.763-3.254,4.291-0.708,5.417
				c23,10.172,51.498,4.177,75.596,2.335c2.482-0.19,4.145-1.595,5.015-3.374c0.155,0.033,0.298,0.092,0.458,0.114
				c3.801,0.514,6.92-2.363,7.078-6.135C122.534,36.92,122.058,31.928,121.041,26.969z"/>
		</g>
		<g>
			<path style="fill:#E0DFE6;" d="M38.584,115.837c-1.224,2.666-2.646,3.116-5.544,3.678c-3.695,0.717-7.173,1.071-10.109,3.634
				c-2.256,1.97-0.432,5.893,2.418,5.838c8.756-0.169,21.201,2.57,24.82-8.267C52.41,114.01,41.603,109.26,38.584,115.837z"/>
		</g>
		<g>
			<path style="fill:#E0DFE6;" d="M44.329,74.394c-4.162-1.754-7.933,0.64-9.477,4.551c-1.475,3.736-6.283,5.1-9.908,4.886
				c-5.912-0.349-6.041,7.704-1.297,9.584c9.031,3.58,19.097-1.173,24.041-9.059C49.934,80.771,48.064,75.967,44.329,74.394z"/>
		</g>
		<path style="fill:#E0DFE6;" d="M45.486,159.849c-3.686,4.774-8.674,5.703-14.297,5.489c-2.547-0.097-2.96,3.146-1.197,4.419
			c7.168,5.172,18.293,2.664,24.087-3.276C59.486,160.937,50.419,153.46,45.486,159.849z"/>
		<path style="fill:#E0DFE6;" d="M97.629,158.735c-2.327,1.284-4.029,3.421-6.111,5.048c-1.008,0.788-2.047,1.534-3.107,2.25
			c-0.25-0.03-0.487-0.079-0.751-0.087c-11.088-0.299-23.106,3.545-33.93,5.762c-10.45,2.14-21.216,3.616-31.554,6.133
			c-1.52,0.37-1.786,2.578-0.436,3.334c2.997,1.678,6.305,2.574,9.745,3.008c-2.491,0.277-4.981,0.594-7.47,0.984
			c-3.547,0.556-3.415,6.366,0,7.035c11.423,2.237,23.026,3.211,34.627,3.996c9.26,0.627,21.144,3.176,28.136-4.598
			c3.052-3.394,2.107-8.318-0.628-11.039c1.138-0.272,2.265-0.567,3.365-0.911c3.966-1.239,5.427-4.937,4.763-8.183
			c0.487-0.211,0.983-0.402,1.466-0.623c2.684-1.228,5.657-2.375,7.742-4.517C107.332,162.374,102.457,156.07,97.629,158.735z"/>
		<g>
			<path style="fill:#E0DFE6;" d="M149.913,115.234c-1.22-12.098-2.49-24.188-4.27-36.218c-1.788-12.088-3.139-24.776-7.429-36.283
				c-1.193-3.199-5.324-2.488-5.732,0.776c-1.135,9.055-0.684,18.339-0.214,27.52c-0.807-9.867-1.777-19.725-3.22-29.509
				c-0.286-1.939-2.938-1.185-3.135,0.424c-1.788,14.596-2.503,29.345-3.22,44.025c-0.347,7.1-0.643,14.205-1.042,21.303
				c-0.362,6.444-2.228,12.424-2.795,18.776c-0.517,5.801,7.106,7.916,10.82,4.482c3.202-2.961,4.855-7.031,5.596-11.591
				C138.913,125.143,150.771,123.742,149.913,115.234z"/>
		</g>
		<path style="fill:#E0DFE6;" d="M169.299,122.429c-3.414-1.998-7.382-0.025-8.641,3.515c-0.081,0.228-0.112,0.329-0.119,0.368
			c-0.146,0.303-0.287,0.607-0.444,0.906c-0.399,0.759-0.845,1.506-1.356,2.196c-0.054,0.073-0.46,0.684-0.66,0.874
			c-0.614,0.587-1.492,1.006-2.228,1.417c-1.788,0.998-2.506,3.342-1.698,5.182c0.744,1.694,2.964,3.213,4.895,2.403
			c4.248-1.783,8.388-4.097,11.44-7.622C172.946,128.83,172.72,124.431,169.299,122.429z"/>
		<path style="fill:#E0DFE6;" d="M165.235,137.741c-3.009,3.306-5.907,6.749-8.748,10.258c-2.229-2.866-6.515-4.315-9.574-0.945
			c-11.75,12.947-23.756,26.183-34.35,40.094c-2.277,2.989,2.469,6.212,5.013,3.868c7.073-6.517,14.016-13.088,21.057-19.565
			c-3.467,4.674-6.938,9.32-10.484,13.839c-5.93,7.556-10.86,14.789-20.18,18.242c-5.176,1.917-10.628,3.507-15.878,5.495
			c0.639-1.126,0.88-2.345,0.698-3.7c-0.037-0.807-0.277-1.559-0.72-2.255c-0.539-0.911-1.264-1.637-2.176-2.176
			c-2.245-1.676-5.563-1.85-8.189-1.122c-2.026,0.562-3.746,2.625-3.649,4.793c0.092,2.057,1.226,3.673,3.012,4.524
			c0.188,0.091,0.358,0.211,0.534,0.319c0.328,0.327,0.645,0.667,0.943,1.012c0.704,0.813,1.709,1.283,2.757,1.539
			c-1.147,0.574-2.276,1.179-3.372,1.841c-1.803,1.088-1.016,3.851,1.059,3.909c9.834,0.273,20.849-2.124,30.364-4.503
			c9.352-2.338,15.737-7.717,22.15-14.639c14.664-15.828,30.749-32.867,41.979-51.377
			C182.009,139.727,171.274,131.107,165.235,137.741z"/>
		<g>
			<g>
				<g>
					<path style="fill:#525D7D;" d="M25.251,186.767c-9.578,0-17.677-7.506-18.282-17.168c-1.049-16.757-2.215-32.311-3.567-47.554
						c-1.233-13.899-1.739-32.712-2.229-50.907C0.843,58.889,0.531,47.319,0.017,37.885c-0.162-2.981,0.848-5.843,2.842-8.059
						c1.997-2.215,4.738-3.517,7.721-3.666c6.625-0.33,14.215-0.665,22.558-0.994c1.237-0.021,2.196,0.883,2.243,2.072
						c0.046,1.192-0.881,2.196-2.072,2.243c-8.33,0.329-15.905,0.662-22.516,0.991c-1.826,0.091-3.504,0.888-4.726,2.243
						c-1.221,1.356-1.839,3.108-1.739,4.932c0.517,9.495,0.829,21.093,1.16,33.374c0.488,18.129,0.992,36.874,2.214,50.64
						c1.355,15.281,2.526,30.872,3.576,47.667c0.477,7.64,7.115,13.497,14.74,13.099c33.343-1.822,54.667-2.377,67.407-2.709
						c1.184-0.103,2.184,0.91,2.214,2.101c0.032,1.192-0.909,2.183-2.101,2.214c-12.717,0.332-34.002,0.887-67.284,2.706
						C25.918,186.758,25.584,186.767,25.251,186.767z"/>
				</g>
			</g>
			<g>
				<g>
					<path style="fill:#525D7D;" d="M134.379,130.576c-1.217-0.014-2.173-0.991-2.159-2.184c0.034-2.919,0.049-5.839,0.049-8.757
						c0-19.07-0.687-38.46-1.352-57.211c-0.316-8.948-0.645-18.2-0.894-27.311c-0.1-3.674-3.04-6.6-6.694-6.659
						c-4.047-0.066-8.085-0.163-12.121-0.259l-0.498-0.011c-1.192-0.03-2.135-1.018-2.107-2.211c0.03-1.192,1.085-2.12,2.211-2.107
						l0.498,0.013c4.024,0.096,8.051,0.191,12.087,0.257c5.971,0.098,10.777,4.868,10.939,10.859
						c0.25,9.093,0.578,18.338,0.894,27.276c0.666,18.789,1.355,38.216,1.355,57.364c0,2.935-0.016,5.871-0.049,8.808
						C136.524,129.626,135.559,130.576,134.379,130.576z"/>
				</g>
			</g>
			<g>
				<g>
					<path style="fill:#525D7D;" d="M65.029,46.058c-1.871,0-3.44-0.519-4.956-1.019c-1.604-0.53-3.118-1.03-5.155-1.03
						c-1.746,0-3.475,0.319-5.305,0.656c-1.907,0.351-3.88,0.716-5.952,0.716c-2.405,0-3.739-0.429-4.812-0.775
						c-0.801-0.257-1.382-0.444-2.425-0.444c-0.655,0-1.37,0.089-2.127,0.263c-0.63,0.143-1.295,0-1.808-0.398
						c-0.512-0.396-0.819-1.004-0.835-1.652c-0.136-5.278-0.388-10.646-0.631-15.839l-0.184-3.995
						c-0.055-1.191,0.866-2.2,2.056-2.255c6.39-0.298,12.215-0.576,18.047-0.943C51.993,9.436,57.982,0,68.134,0
						c11.573,0,16.987,10.156,18.632,16.868c2.637-0.069,5.266-0.118,7.89-0.167c5.09-0.094,10.354-0.193,15.499-0.446
						c1.13-0.063,2.138,0.797,2.253,1.941c0.637,6.355,0.659,12.817,0.682,19.066c0.006,1.678,0.011,3.354,0.029,5.024
						c0.008,0.826-0.455,1.585-1.196,1.955c-0.855,0.426-2.22,0.992-4.183,0.992c-1.941,0-3.776-0.474-5.549-0.931
						c-1.586-0.409-3.081-0.794-4.477-0.794c-0.888,0-1.848,0.261-2.962,0.565c-1.529,0.416-3.262,0.888-5.445,0.888
						c-2.245,0-4.363-0.477-6.414-0.939c-1.742-0.392-3.386-0.762-4.844-0.762c-2.353,0-5.036,0.828-7.403,1.559
						C68.491,45.485,66.631,46.058,65.029,46.058z M54.918,39.691c2.731,0,4.738,0.664,6.51,1.248
						c1.302,0.43,2.425,0.801,3.601,0.801c0.952,0,2.599-0.509,4.342-1.046c2.66-0.821,5.673-1.751,8.677-1.751
						c1.937,0,3.898,0.441,5.793,0.867c1.819,0.41,3.701,0.834,5.465,0.834c1.605,0,2.981-0.375,4.311-0.737
						c1.293-0.353,2.63-0.717,4.096-0.717c1.944,0,3.78,0.474,5.554,0.931c1.584,0.409,3.08,0.794,4.473,0.794
						c0.399,0,0.744-0.039,1.049-0.103c-0.008-1.176-0.013-2.354-0.017-3.535c-0.02-5.471-0.039-11.107-0.478-16.616
						c-4.536,0.188-9.113,0.274-13.557,0.357c-3.211,0.059-6.428,0.119-9.658,0.216c-1.016,0.053-2.03-0.748-2.197-1.823
						c-0.818-5.221-4.953-15.094-14.747-15.094c-8.092,0-12.673,8.626-13.016,17.147c-0.045,1.102-0.914,1.995-2.016,2.068
						c-5.838,0.385-11.597,0.673-17.849,0.967l0.086,1.836c0.208,4.428,0.42,8.985,0.564,13.519c0.176-0.007,0.35-0.011,0.523-0.011
						c1.722,0,2.797,0.346,3.748,0.652c0.945,0.304,1.761,0.567,3.489,0.567c1.677,0,3.372-0.313,5.168-0.644
						C50.77,40.061,52.777,39.691,54.918,39.691z"/>
				</g>
			</g>
			<g>
				<g>
					<path style="fill:#525D7D;" d="M68.086,29.075c-1.95-0.008-3.728-0.749-5.039-2.086c-1.297-1.324-1.996-3.097-1.966-4.989
						c0.045-2.768,1.697-5.195,4.207-6.186c0.767-0.302,1.57-0.474,2.384-0.506c2.049-0.093,3.971,0.628,5.382,1.938
						c1.276,1.186,2.012,2.806,2.071,4.563c0.062,1.844-0.703,3.771-2.048,5.157C71.755,28.328,69.984,29.075,68.086,29.075z
						 M67.978,19.621c-0.043,0-0.089,0.001-0.133,0.003c-0.329,0.013-0.655,0.083-0.971,0.208c-1.067,0.42-1.462,1.432-1.474,2.238
						c-0.011,0.729,0.249,1.403,0.732,1.896c0.498,0.508,1.186,0.789,1.943,0.791c0.935,0,1.55-0.433,1.905-0.798
						c0.536-0.551,0.853-1.319,0.831-2.003c-0.021-0.617-0.254-1.136-0.694-1.545C69.578,19.912,68.786,19.621,67.978,19.621z"/>
				</g>
			</g>
			<g>
				<g>
					<path style="fill:#525D7D;" d="M20.304,85.378c-0.502,0-0.992-0.176-1.382-0.5c-0.465-0.387-0.746-0.952-0.774-1.556
						c-0.242-5.073-0.371-10.182-0.495-15.125l-0.079-3.084c-0.031-1.171,0.878-2.153,2.049-2.213
						c1.846-0.093,3.701-0.156,5.562-0.218c4.356-0.146,8.861-0.298,13.226-0.864c0.593-0.079,1.191,0.096,1.65,0.474
						c0.461,0.38,0.745,0.933,0.783,1.529c0.276,4.294,0.797,8.607,1.3,12.776c0.183,1.522,0.367,3.042,0.538,4.558
						c0.066,0.576-0.104,1.155-0.471,1.607c-0.367,0.45-0.9,0.734-1.477,0.787c-2.363,0.215-4.724,0.394-7.076,0.571
						c-4.317,0.326-8.781,0.662-13.067,1.238C20.497,85.371,20.4,85.378,20.304,85.378z M21.945,67.119l0.025,0.969
						c0.104,4.161,0.212,8.439,0.388,12.7c3.66-0.422,7.37-0.701,10.977-0.973c1.598-0.121,3.199-0.242,4.803-0.374
						c-0.093-0.775-0.186-1.549-0.28-2.325c-0.423-3.506-0.859-7.111-1.157-10.756c-3.822,0.384-7.648,0.513-11.37,0.638
						C24.199,67.036,23.071,67.074,21.945,67.119z"/>
				</g>
			</g>
			<g>
				<g>
					<path style="fill:#525D7D;" d="M29.912,76.471c-2.636,0-4.737-2.04-8.761-5.946c-2.361-2.291-5.301-5.143-9.405-8.662
						c-0.905-0.776-1.009-2.139-0.233-3.045c0.776-0.905,2.138-1.012,3.045-0.233c4.206,3.604,7.323,6.632,9.6,8.841
						c2.61,2.533,4.869,4.724,5.781,4.724c1.049-0.066,3.348-2.96,6.261-6.625c2.196-2.764,4.93-6.202,8.667-10.516
						c0.78-0.9,2.142-0.999,3.046-0.218c0.901,0.782,0.998,2.145,0.218,3.046c-3.679,4.244-6.38,7.642-8.55,10.375
						c-4.397,5.533-6.403,8.057-9.329,8.245C30.137,76.467,30.024,76.471,29.912,76.471z"/>
				</g>
			</g>
			<g>
				<g>
					<path style="fill:#525D7D;" d="M23.73,122.614c-1.15,0-2.1-0.901-2.156-2.052l-0.149-2.977
						c-0.299-5.911-0.607-12.022-0.697-18.026c-0.017-1.148,0.867-2.108,2.013-2.186c7.075-0.481,13.891-0.761,20.837-0.857
						c1.193,0,2.149,0.924,2.187,2.089c0.198,6.108,0.857,12.738,2.016,20.268c0.178,1.158-0.599,2.246-1.751,2.454
						c-6.472,1.165-13.051,1.214-19.413,1.262C26.616,122.588,23.755,122.614,23.73,122.614z M25.085,101.546
						c0.119,5.27,0.389,10.624,0.652,15.82l0.045,0.911l0.801-0.007c5.486-0.041,11.14-0.083,16.613-0.862
						c-0.869-5.998-1.415-11.446-1.661-16.54C36.06,100.975,30.643,101.197,25.085,101.546z"/>
				</g>
			</g>
			<g>
				<g>
					<path style="fill:#525D7D;" d="M33.375,115.606c-1.587,0-2.806-1.165-4.887-3.154c-2.529-2.416-6.762-6.462-14.872-12.036
						c-0.983-0.676-1.231-2.02-0.557-3.002c0.676-0.983,2.02-1.233,3.003-0.557c8.396,5.771,12.786,9.967,15.41,12.474
						c0.637,0.609,1.289,1.233,1.754,1.626c0.322-0.446,0.745-1.105,1.16-1.749c2.087-3.246,5.974-9.286,14.883-18.193
						c0.843-0.843,2.21-0.843,3.053,0c0.843,0.843,0.843,2.21,0,3.053c-8.581,8.581-12.305,14.368-14.305,17.476
						c-1.535,2.387-2.461,3.827-4.235,4.037C33.644,115.598,33.509,115.606,33.375,115.606z"/>
				</g>
			</g>
			<g>
				<g>
					<path style="fill:#525D7D;" d="M28.159,169.077c-1.072,0-1.997-0.797-2.138-1.882c-0.815-6.303-1.043-12.527-1.261-18.545
						c-0.051-1.38-0.101-2.765-0.159-4.159c-0.046-1.14,0.801-2.118,1.936-2.236c6.972-0.721,14.415-1.477,22.033-2.113
						c0.589-0.043,1.157,0.141,1.597,0.523c0.44,0.382,0.706,0.926,0.739,1.508c0.413,7.343,1.082,14.869,1.682,21.262
						c0.107,1.127-0.676,2.145-1.792,2.332l-2.176,0.367c-6.578,1.109-13.38,2.257-20.248,2.933
						C28.301,169.074,28.231,169.077,28.159,169.077z M28.995,146.342c0.028,0.718,0.053,1.435,0.08,2.151
						c0.2,5.482,0.388,10.694,0.977,16.055c6.018-0.676,12.022-1.69,17.849-2.673l0.202-0.034
						c-0.491-5.313-1.005-11.27-1.377-17.208C40.638,145.16,34.674,145.757,28.995,146.342z"/>
				</g>
			</g>
			<g>
				<g>
					<path style="fill:#525D7D;" d="M36.639,159.184c-0.521,0-1.028-0.188-1.423-0.535c-2.099-1.837-4.089-3.798-6.015-5.693
						c-3.541-3.486-6.886-6.779-10.918-9.467c-0.992-0.662-1.261-2.002-0.599-2.994c0.662-0.994,2.003-1.262,2.994-0.599
						c4.373,2.915,8.022,6.508,11.552,9.983c1.365,1.342,2.762,2.719,4.192,4.044c1.231-1.472,2.453-2.939,3.672-4.402
						c4.422-5.315,8.996-10.811,13.658-16.021c0.796-0.887,2.159-0.966,3.049-0.17c0.888,0.796,0.964,2.16,0.17,3.049
						c-4.612,5.155-8.958,10.376-13.559,15.905c-1.695,2.037-3.399,4.083-5.121,6.131c-0.374,0.444-0.909,0.72-1.489,0.765
						C36.749,159.182,36.694,159.184,36.639,159.184z"/>
				</g>
			</g>
			<g>
				<g>
					<path style="fill:#525D7D;" d="M62.537,74.624c-1.164,0-2.124-0.928-2.156-2.099c-0.034-1.192,0.905-2.186,2.097-2.218
						c9.99-0.278,20.011-0.936,29.701-1.572c5.109-0.336,10.233-0.672,15.407-0.96c1.203-0.042,2.208,0.848,2.276,2.037
						c0.066,1.191-0.846,2.21-2.037,2.276c-5.159,0.287-10.268,0.621-15.364,0.956C82.731,73.683,72.668,74.344,62.537,74.624z"/>
				</g>
			</g>
			<g>
				<g>
					<path style="fill:#525D7D;" d="M63.802,108.816c-1.04,0-1.957-0.754-2.128-1.813c-0.191-1.177,0.609-2.286,1.785-2.477
						c8.345-1.354,16.862-1.407,25.099-1.461c7.342-0.046,14.933-0.094,22.234-1.081c1.182-0.169,2.27,0.668,2.429,1.85
						c0.16,1.182-0.669,2.27-1.85,2.429c-7.575,1.025-15.307,1.074-22.785,1.12c-8.073,0.052-16.421,0.104-24.435,1.404
						C64.034,108.807,63.917,108.816,63.802,108.816z"/>
				</g>
			</g>
			<g>
				<g>
					<path style="fill:#525D7D;" d="M70.54,147.757c-2.271,0-4.561-0.036-6.805-0.108c-1.192-0.038-2.127-1.035-2.089-2.227
						c0.038-1.191,1.035-2.114,2.227-2.089c12.298,0.392,24.936-0.292,38.911-2.094c1.178-0.164,2.264,0.682,2.418,1.864
						c0.153,1.183-0.682,2.266-1.864,2.418C91.677,147.027,80.949,147.757,70.54,147.757z"/>
				</g>
			</g>
			<g>
				<g>
					<path style="fill:#525D7D;" d="M80.054,216.112c-0.523,0-1.04-0.19-1.445-0.555c-0.638-0.575-0.874-1.473-0.603-2.287
						c23.395-70.071,68.454-101.183,81.632-101.183c9.291,0,15.22,10.726,15.22,18.112c0,8.735-20.247,33.574-60.178,73.83
						c-0.35,0.353-0.811,0.573-1.306,0.627c-12.399,1.307-20.314,5.274-27.297,8.773c-1.774,0.888-3.448,1.728-5.131,2.492
						C80.661,216.049,80.356,216.112,80.054,216.112z M159.638,116.405c-4.834,0-18.494,7.129-33.731,22.981
						c-12.481,12.983-29.66,35.56-42.113,70.355c0.115-0.058,0.232-0.115,0.347-0.173c6.815-3.414,15.263-7.648,28.01-9.123
						c52.689-53.17,58.389-66.835,58.389-70.247C170.54,125.335,166.4,116.405,159.638,116.405z"/>
				</g>
			</g>
			<g>
				<g>
					<path style="fill:#525D7D;" d="M94.948,207.151c-0.609,0-1.213-0.256-1.64-0.753l-0.997-1.151
						c-2.263-2.601-4.401-5.058-5.996-8.646c-0.483-1.091,0.007-2.366,1.096-2.851c1.091-0.486,2.366,0.008,2.851,1.096
						c1.331,2.997,3.174,5.114,5.308,7.566l1.016,1.174c0.776,0.905,0.672,2.269-0.233,3.045
						C95.944,206.98,95.444,207.151,94.948,207.151z"/>
				</g>
			</g>
			<g>
				<g>
					<path style="fill:#525D7D;" d="M154.548,151.518c-0.484,0-0.969-0.162-1.371-0.492c-6.667-5.489-13.03-11.463-19.184-17.239
						l-1.594-1.496c-0.869-0.815-0.914-2.182-0.097-3.052c0.815-0.87,2.18-0.911,3.052-0.097l1.594,1.496
						c6.103,5.729,12.416,11.654,18.973,17.053c0.921,0.758,1.053,2.118,0.295,3.039
						C155.789,151.249,155.171,151.518,154.548,151.518z"/>
				</g>
			</g>
			<g>
				<g>
					<path style="fill:#525D7D;" d="M158.779,144.696c-0.378,0-0.762-0.098-1.109-0.308c-6.59-3.954-11.862-9.657-16.578-15.231
						c-0.77-0.911-0.656-2.273,0.254-3.043c0.909-0.769,2.273-0.654,3.043,0.254c4.475,5.291,9.451,10.687,15.501,14.318
						c1.023,0.613,1.355,1.94,0.741,2.962C160.227,144.322,159.511,144.696,158.779,144.696z"/>
				</g>
			</g>
			<g>
				<g>
					<path style="fill:#525D7D;" d="M160.89,134.143c-0.451,0-0.905-0.141-1.295-0.432c-0.294-0.222-0.589-0.429-0.878-0.633
						c-1.465-1.03-3.125-2.198-4.051-4.513c-0.443-1.108,0.096-2.364,1.202-2.807c1.105-0.443,2.364,0.096,2.807,1.202
						c0.43,1.074,1.2,1.654,2.527,2.588c0.325,0.228,0.655,0.461,0.985,0.708c0.953,0.715,1.147,2.069,0.432,3.024
						C162.195,133.845,161.547,134.143,160.89,134.143z"/>
				</g>
			</g>
			<g>
				<g>
					<path style="fill:#525D7D;" d="M113.74,199.902c-0.14,0-0.284-0.014-0.427-0.042c-1.168-0.233-1.927-1.372-1.692-2.541
						c0.097-0.484,0.252-1.053,0.42-1.659c0.249-0.897,0.557-2.006,0.574-2.723c-0.162-0.024-0.405-0.046-0.756-0.046
						c-4.594,0-6.192,0.898-6.429,1.05c-0.536,0.521-1.074,0.613-1.504,0.613c-1.192,0-2.159-0.967-2.159-2.161
						c0-0.281,0-0.828,0.541-1.438c0.159-0.299,0.781-1.695,0.781-5.214c0-0.472,0-1.579-2.336-1.579
						c-0.544,0-1.115,0.038-1.695,0.076c-0.7,0.043-1.414,0.089-2.124,0.089c-1.335,0-2.422-0.155-3.417-0.486
						c-1.131-0.375-1.743-1.598-1.366-2.73c0.375-1.131,1.598-1.749,2.73-1.366c0.543,0.18,1.196,0.264,2.054,0.264
						c0.617,0,1.238-0.041,1.847-0.08c0.676-0.044,1.338-0.084,1.972-0.084c4.911,0,6.654,3.177,6.654,5.897
						c0,1.151-0.058,2.208-0.173,3.167c1.347-0.224,2.893-0.336,4.625-0.336c4.417,0,5.076,2.695,5.076,4.3
						c0,1.302-0.389,2.704-0.732,3.941c-0.136,0.495-0.269,0.959-0.347,1.354C115.649,199.194,114.748,199.902,113.74,199.902z
						 M105.396,193.962L105.396,193.962L105.396,193.962z M105.61,193.749c-0.048,0.055-0.094,0.105-0.142,0.153
						C105.513,193.86,105.56,193.809,105.61,193.749z"/>
				</g>
			</g>
			<g>
				<g>
					<path style="fill:#525D7D;" d="M105.593,191.973c-0.51,0-1.022-0.18-1.432-0.545c-0.893-0.793-0.973-2.156-0.18-3.047
						c5.502-6.19,11.254-12.336,16.817-18.279c8.111-8.666,16.498-17.627,24.235-26.86c0.765-0.912,2.128-1.033,3.041-0.267
						c0.915,0.765,1.034,2.127,0.268,3.042c-7.811,9.322-16.241,18.328-24.391,27.036c-5.544,5.923-11.277,12.049-16.743,18.196
						C106.782,191.729,106.189,191.973,105.593,191.973z"/>
				</g>
			</g>
		</g>
	</g>
</g>
<g id="Layer_1">
</g>
</svg>
