<?xml version="1.0" encoding="iso-8859-1"?>
<!-- Generator: Adobe Illustrator 21.0.2, SVG Export Plug-In . SVG Version: 6.00 Build 0)  -->
<svg version="1.1" xmlns="http://www.w3.org/2000/svg" xmlns:xlink="http://www.w3.org/1999/xlink" x="0px" y="0px"
	 viewBox="0 0 210.367 175.171" style="enable-background:new 0 0 210.367 175.171;" xml:space="preserve">
<g id="_x33_">
	<g>
		<path style="fill:#E0DFE6;" d="M119.748,133.29c-0.352-1.783-1.633-3.101-3.214-3.809c4.33-16.396-7.965-35.57-14.214-49.829
			c-4.164-9.503-8.249-19.046-12.494-28.513c-2.74-6.108-5.28-14.616-10.124-19.852c0.069-0.386,0.039-0.772-0.058-1.145
			c1.517-0.655,2.473-2.347,1.982-4.049c-0.922-3.195-2.847-5.793-5.564-7.684c-2.661-1.852-5.627,2.206-3.408,4.417
			c0.656,0.653,1.176,1.338,1.581,2.177c0.169,0.351,0.246,0.568,0.377,1.027c0.071,0.247,0.132,0.496,0.183,0.748
			c0.079,0.43,0.093,0.508,0.045,0.234c0.025,0.24,0.072,0.474,0.131,0.7c-0.498,0.248-0.965,0.664-1.355,1.296
			c-1.606,2.605-3.847,4.56-6.565,5.947c-1.851,0.945-0.483,3.486,1.331,3.157c2.387-0.432,4.609-1.287,6.654-2.481
			c0.9,5.602,3.84,11.324,5.713,16.268c3.342,8.819,6.922,17.554,10.394,26.323c6.626,16.733,16.622,34.41,14.502,52.812
			c-0.067,0.58-0.026,1.088,0.062,1.56c-2.265,1.239-4.507,2.521-6.466,4.097c-1.979,1.592-0.981,5.601,1.578,5.976
			c0.553,0.081,1.115,0.129,1.68,0.16c-1.67,0.928-2.773,2.498-3.142,4.216c-0.772-2.455-2.841-4.356-6.22-4.11
			c-3.186,0.233-6.421,0.542-9.668,0.897c-0.293-2.045-1.623-3.963-4.164-4.813c-6.195-2.07-12.983-1.947-19.362-3.425
			c-6.304-1.46-12.383-3.617-18.628-5.261c-2.031-0.534-3.611,2.052-2.072,3.559c5.316,5.203,13.313,10.407,21.612,13.647
			c-6.217,1.427-12.305,3.212-18.09,5.457c-1.775,0.689-1.43,3.015,0.438,3.235c16.296,1.918,33.57,1.335,49.933,0.361
			c3.909-0.233,6.068-3.107,6.487-6.161c0.446,1.15,1.268,2.227,2.544,3.073c5.029,3.336,11.841,0.114,15.116-4.18
			C120.829,144.677,120.832,138.777,119.748,133.29z"/>
		<path style="fill:#E0DFE6;" d="M66.656,15.58c-1.129-1.664-2.162-3.397-2.952-5.251c-0.792-1.859-1.19-3.837-2.035-5.67
			c-1.199-2.6-4.754-1.532-5.509,0.743c-0.051,0.048-0.048,0.114-0.056,0.179c-0.771,1.035-0.771,2.485-0.053,3.395
			c0.318,3.77,1.75,7.571,3.251,10.902C61.535,24.834,69.784,20.192,66.656,15.58z"/>
		<path style="fill:#E0DFE6;" d="M129.024,108.931c-4.96-10.963-9.681-22.041-14.826-32.919c-1.079-2.282-2.157-4.626-3.255-6.984
			c0.257-2.058-0.575-4.261-2.498-5.266c-3.153-6.491-6.63-12.881-11.014-18.307c-0.777-0.962-2.68-0.197-2.537,1.051
			c1.037,9.085,4.576,18.049,7.581,26.641c3.335,9.537,7.056,18.936,10.746,28.34c3.387,8.633,6.995,17.239,10.019,26.008
			c1.424,4.128,2.919,8.606,2.475,13.025c-0.379,3.77-2.414,6.956-3.824,10.408c-1.152,2.819,1.269,6.189,4.126,6.92
			c-0.163,0.767-0.345,1.534-0.426,2.304c-0.174,1.654-0.298,3.262-0.322,4.925c-0.076,5.14,8.392,4.091,6.944-0.94
			c-0.459-1.596-1.001-3.116-1.603-4.665c-0.29-0.747-0.686-1.467-1.058-2.193C148.609,148.354,134.97,122.074,129.024,108.931z"/>
		<path style="fill:#E0DFE6;" d="M210.092,114.436c-2.841-8.786-6.44-18.63-10.974-27.398c0.744-1.075,1.018-2.529,0.344-4.082
			c-1.334-3.074-2.968-5.996-4.075-9.169c-1.003-2.874-1.526-5.813-2.96-8.52c-0.965-1.821-3.816-1.351-4.332,0.566
			c-0.69,2.564-0.647,5.542-0.135,8.543c-0.868-0.221-1.858,0.023-2.266,0.902c-5.043,10.895-6.313,24.505-9.147,36.146
			c-2.943,12.09-6.374,23.365-10.513,35.06c-1.672,4.724,4.903,8.117,8.191,4.768c5.367-5.464,8.165-13.107,9.978-20.924
			c3.72-0.455,7.388-1.846,10.888-2.992c4.755-1.558,9.792-2.555,12.761-6.812c0.216-0.31,0.369-0.625,0.492-0.94
			C209.914,118.626,210.867,116.836,210.092,114.436z M190.562,118.722c-1.497,0.803-3.045,1.558-4.569,2.356
			c0.307-1.84,0.595-3.648,0.881-5.388c1.705-10.374,4.154-22.514,3.413-33.491c0.261,0.612,0.537,1.2,0.821,1.775
			c1.505,10.046,4.811,20.534,8.339,29.941C196.317,115.013,193.343,117.229,190.562,118.722z"/>
		<path style="fill:#E0DFE6;" d="M189.339,53.389c-2.465-8.366-3.909-18.597-9.258-25.708c-0.686-0.912-1.713-1.019-2.48-0.646
			c-0.899-0.436-1.949-0.58-2.978-0.329c-2.185,0.533-4.131,0.795-6.388,0.527c-1.296-0.154-2.597,1.05-2.919,2.222
			c-0.085,0.31-0.11,0.61-0.096,0.902c-0.571-0.129-1.145-0.243-1.727-0.324c-2.093-0.293-4.654,2.417-2.423,4.163
			c2.027,1.586,4.232,2.761,6.479,4.008c2.342,1.3,4.483,3.264,7.092,3.917c2.349,0.588,4.201-0.678,4.988-2.428
			c0.128,0.666,0.26,1.33,0.403,1.985c0.986,4.487,1.971,8.975,2.956,13.462C183.891,59.263,190.546,57.486,189.339,53.389z"/>
		<g>
			<g>
				<path style="fill:#525D7D;" d="M10.811,96.794c-1.005,0-1.905-0.706-2.113-1.728c-0.818-4.013-1.619-8.03-2.422-12.048
					c-1.959-9.816-3.985-19.967-6.223-29.873C-0.205,52,0.499,50.858,1.638,50.574c5.713-1.42,11.433-2.814,17.163-4.189
					c1.16-0.281,2.325,0.437,2.603,1.597c0.278,1.16-0.437,2.325-1.597,2.603c-5.032,1.207-10.06,2.43-15.08,3.672
					c2.068,9.298,3.956,18.754,5.784,27.917c0.8,4.012,1.601,8.023,2.418,12.029c0.237,1.168-0.516,2.309-1.684,2.547
					C11.099,96.78,10.954,96.794,10.811,96.794z"/>
			</g>
			<g>
				<path style="fill:#525D7D;" d="M180.007,47.41c-1.051,0-1.972-0.769-2.132-1.839c-0.86-5.743-2.148-11.921-4.036-19.365
					c-5.537-2.319-11.204-4.775-17.268-7.482c-23.474,5.86-47.473,11.352-70.057,16.478c-1.162,0.266-2.319-0.465-2.584-1.628
					c-0.264-1.162,0.465-2.319,1.628-2.584c22.794-5.173,47.027-10.719,70.688-16.637c0.47-0.118,0.966-0.073,1.406,0.124
					c6.654,2.977,12.818,5.646,18.844,8.158c0.625,0.262,1.092,0.8,1.261,1.456c2.071,8.058,3.465,14.68,4.389,20.838
					c0.177,1.179-0.635,2.279-1.815,2.456C180.222,47.402,180.114,47.41,180.007,47.41z"/>
			</g>
			<g>
				<path style="fill:#525D7D;" d="M161.669,157.309c-0.524,0-1.051-0.056-1.577-0.169c-10.624-2.287-24.343-5.258-39.303-8.514
					c-1.165-0.254-1.903-1.404-1.65-2.57c0.254-1.162,1.403-1.9,2.57-1.65c14.954,3.255,28.671,6.227,39.293,8.511
					c0.81,0.177,1.64,0.024,2.333-0.426c0.686-0.443,1.178-1.154,1.348-1.951c3.149-14.655,6.308-29.326,9.468-43.996
					c3.05-14.163,6.1-28.326,9.141-42.475c0.311-1.444-0.569-2.858-2.004-3.218c-45.583-11.428-72.617-17.334-92.356-21.647
					l-1.808-0.395c-1.165-0.256-1.903-1.406-1.649-2.571c0.254-1.162,1.394-1.9,2.571-1.649l1.808,0.395
					c19.766,4.32,46.837,10.235,92.485,21.678c3.704,0.93,5.978,4.582,5.176,8.314c-3.04,14.149-6.092,28.314-9.142,42.477
					c-3.16,14.669-6.32,29.34-9.467,43.994c-0.409,1.909-1.585,3.611-3.227,4.671C164.465,156.903,163.08,157.309,161.669,157.309z"
					/>
			</g>
			<g>
				<path style="fill:#525D7D;" d="M95.318,143.018c-0.152,0-0.308-0.016-0.462-0.049c-23.043-5.042-64.791-14.21-85.499-18.97
					c-3.184-0.732-5.229-3.823-4.657-7.037c1.065-5.986,2.111-11.972,3.157-17.953c4.28-24.476,8.706-49.788,14.33-74.403
					c0.394-1.725,1.498-3.22,3.029-4.103c1.528-0.883,3.372-1.094,5.063-0.572c7.776,2.387,14.942,4.439,21.907,6.275
					c1.154,0.304,1.841,1.484,1.538,2.637c-0.304,1.154-1.491,1.843-2.637,1.538c-7.023-1.85-14.243-3.918-22.075-6.323
					c-0.542-0.164-1.141-0.101-1.636,0.186c-0.496,0.285-0.852,0.767-0.98,1.326C20.796,50.074,16.38,75.33,12.109,99.753
					c-1.046,5.985-2.093,11.975-3.16,17.965c-0.167,0.946,0.436,1.855,1.375,2.072c20.687,4.757,62.419,13.92,85.453,18.959
					c1.165,0.256,1.903,1.407,1.649,2.571C97.204,142.329,96.311,143.018,95.318,143.018z"/>
			</g>
			<g>
				<path style="fill:#525D7D;" d="M172.791,125.273c-0.983,0-1.871-0.673-2.101-1.671c-0.27-1.161,0.453-2.321,1.615-2.591
					c8.209-1.906,15.757-3.693,23.002-5.448l-0.33-1.711c-2.048-10.604-4.165-21.57-7.493-32.029
					c-0.361-1.137,0.267-2.352,1.403-2.713c1.137-0.363,2.352,0.268,2.713,1.403c3.405,10.702,5.545,21.793,7.617,32.519
					l0.723,3.729c0.221,1.133-0.489,2.238-1.609,2.51c-7.871,1.916-16.065,3.86-25.048,5.944
					C173.115,125.255,172.952,125.273,172.791,125.273z"/>
			</g>
			<g>
				<path style="fill:#525D7D;" d="M26.929,157.843c-0.887,0-1.708-0.551-2.025-1.415c-3.548-9.681-6.737-20.254-9.748-32.323
					c-0.289-1.157,0.415-2.329,1.572-2.617c1.157-0.29,2.329,0.415,2.617,1.572c2.789,11.175,5.727,21.04,8.964,30.086
					c12.919-3.015,27.098-6.221,44.414-10.045c1.169-0.26,2.318,0.481,2.574,1.643c0.257,1.164-0.478,2.317-1.643,2.574
					c-18.137,4.005-32.826,7.33-46.23,10.469C27.258,157.825,27.092,157.843,26.929,157.843z"/>
			</g>
			<g>
				<path style="fill:#525D7D;" d="M109.661,155.919c-14.432,0-33.346-40.399-61.328-130.993c-0.319-1.036,0.18-2.151,1.167-2.6
					c8.43-3.847,17.554-7.056,27.892-9.813c1.032-0.274,2.103,0.243,2.533,1.215l0.447,1.016
					c11.918,27.035,43.578,98.847,43.578,126.382C123.949,154.238,116.313,155.919,109.661,155.919z M53.023,25.477
					c7.274,23.499,16.8,53.206,26.909,78.404c16.657,41.52,25.775,47.72,29.728,47.72c7.547,0,9.97-2.546,9.97-10.475
					c0-26.381-31.926-99.042-42.91-123.957C68.045,19.56,60.257,22.291,53.023,25.477z"/>
			</g>
			<g>
				<path style="fill:#525D7D;" d="M54.516,39.664c-0.85,0-1.657-0.505-1.999-1.34c-0.453-1.103,0.074-2.364,1.178-2.817
					c7.356-3.016,15.011-5.586,22.414-8.073c2.232-0.749,4.461-1.498,6.681-2.258c1.123-0.391,2.356,0.215,2.741,1.344
					c0.386,1.127-0.215,2.355-1.344,2.741c-2.227,0.763-4.464,1.514-6.703,2.266c-7.337,2.464-14.925,5.013-22.15,7.974
					C55.066,39.612,54.789,39.664,54.516,39.664z"/>
			</g>
			<g>
				<path style="fill:#525D7D;" d="M56.491,23.833c-0.85,0-1.656-0.505-1.999-1.34c-2.106-5.129-3.761-9.893-5.064-14.564
					c-0.284-1.015,0.207-2.084,1.158-2.533c2.408-1.136,4.774-2.271,7.139-3.407l3.708-1.777c0.54-0.26,1.164-0.283,1.72-0.06
					c0.558,0.219,1,0.659,1.219,1.217c0.714,1.81,1.479,3.614,2.246,5.422c1.359,3.201,2.764,6.508,3.891,9.896
					c0.377,1.13-0.235,2.353-1.366,2.73c-1.13,0.38-2.353-0.235-2.73-1.366c-1.074-3.222-2.444-6.451-3.769-9.571
					c-0.479-1.127-0.956-2.252-1.421-3.378l-1.631,0.782c-1.829,0.877-3.656,1.754-5.504,2.633c1.175,3.953,2.62,8.008,4.398,12.339
					c0.453,1.103-0.074,2.364-1.178,2.817C57.041,23.781,56.764,23.833,56.491,23.833z"/>
			</g>
			<g>
				<path style="fill:#525D7D;" d="M98.823,138.025c-0.89,0-1.723-0.554-2.035-1.441c-0.398-1.125,0.193-2.357,1.317-2.754
					c3.885-1.372,7.756-2.966,11.501-4.508c3.171-1.306,6.452-2.657,9.727-3.865c1.115-0.416,2.36,0.159,2.773,1.278
					c0.413,1.119-0.159,2.36-1.278,2.773c-3.201,1.182-6.444,2.518-9.579,3.808c-3.794,1.563-7.717,3.178-11.708,4.585
					C99.304,137.986,99.062,138.025,98.823,138.025z"/>
			</g>
			<g>
				<path style="fill:#525D7D;" d="M121.222,175.171c-0.711,0-1.399-0.352-1.808-0.976c-4.447-6.792-8.394-12.947-11.644-19.498
					c-0.53-1.068-0.094-2.364,0.974-2.894c1.073-0.53,2.364-0.093,2.894,0.974c2.903,5.852,6.428,11.449,10.392,17.527
					c0.281-0.128,0.555-0.256,0.822-0.382c-1.541-5.306-3.41-11.03-5.964-18.269c-0.398-1.124,0.192-2.357,1.317-2.754
					c1.123-0.398,2.359,0.191,2.754,1.317c2.863,8.113,4.88,14.356,6.538,20.244c0.275,0.977-0.167,2.013-1.063,2.491
					c-1.299,0.691-2.731,1.362-4.38,2.052C121.783,175.117,121.5,175.171,121.222,175.171z"/>
			</g>
			<g>
				<g>
					<path style="fill:#525D7D;" d="M152.585,110.007c-6.972,0-14.957-4.308-20.358-7.548c-1.023-0.613-1.355-1.94-0.741-2.962
						c0.614-1.023,1.943-1.355,2.962-0.741c4.961,2.976,12.237,6.933,18.137,6.933c6.376,0,8.503-5.538,8.503-7.027
						c0-2.589-5.68-4.431-10.69-6.054c-7.377-2.392-15.738-5.102-15.738-12.356c0-4.223,6.324-10.357,16.235-10.357
						c4.214,0,8.691,1.078,12.606,3.035c1.067,0.534,1.499,1.83,0.966,2.897c-0.533,1.068-1.827,1.498-2.897,0.966
						c-3.326-1.663-7.117-2.579-10.674-2.579c-8.222,0-11.917,4.8-11.917,6.039c0,4.114,6.481,6.216,12.751,8.247
						c6.725,2.18,13.677,4.435,13.677,10.163C165.405,102.494,161.534,110.007,152.585,110.007z"/>
				</g>
				<g>
					<path style="fill:#525D7D;" d="M144.109,115.307c-0.101,0-0.205-0.007-0.308-0.021c-1.181-0.169-2.002-1.264-1.833-2.443
						c0.284-1.982,0.826-3.887,1.351-5.728l0.309-1.093c0.319-1.148,1.511-1.823,2.66-1.499c1.148,0.321,1.819,1.511,1.498,2.66
						l-0.315,1.115c-0.507,1.782-0.985,3.465-1.227,5.156C146.089,114.53,145.166,115.307,144.109,115.307z"/>
				</g>
				<g>
					<path style="fill:#525D7D;" d="M153.504,74.357c-0.155,0-0.312-0.017-0.469-0.052c-1.164-0.259-1.898-1.411-1.639-2.575
						l1.767-7.954c0.259-1.164,1.404-1.9,2.575-1.639c1.164,0.259,1.898,1.411,1.639,2.575l-1.767,7.954
						C155.386,73.672,154.495,74.357,153.504,74.357z"/>
				</g>
			</g>
			<g>
				<path style="fill:#525D7D;" d="M51.323,56.989c-0.118,0-0.237-0.01-0.357-0.03c-0.96-0.16-1.907-0.308-2.845-0.454
					c-5.783-0.905-11.245-1.76-16.838-4.812c-1.046-0.571-1.432-1.882-0.86-2.929c0.569-1.049,1.881-1.434,2.929-0.86
					c4.932,2.69,10.035,3.489,15.437,4.334c0.952,0.149,1.913,0.301,2.886,0.462c1.177,0.195,1.972,1.309,1.775,2.484
					C53.274,56.241,52.358,56.989,51.323,56.989z"/>
			</g>
			<g>
				<path style="fill:#525D7D;" d="M123.413,70.961c-0.226,0-0.457-0.035-0.683-0.111c-1.744-0.582-3.57-0.949-5.503-1.337
					c-3.396-0.683-6.907-1.389-10.048-3.351c-1.011-0.633-1.318-1.965-0.687-2.976c0.632-1.012,1.966-1.318,2.976-0.687
					c2.474,1.546,5.454,2.146,8.609,2.78c1.976,0.398,4.02,0.808,6.019,1.474c1.131,0.377,1.742,1.6,1.365,2.731
					C125.161,70.389,124.317,70.961,123.413,70.961z"/>
			</g>
			<g>
				<path style="fill:#525D7D;" d="M57.468,87.168c-0.181,0-0.367-0.022-0.551-0.072c-3.414-0.898-6.91-1.577-10.292-2.233
					c-7.077-1.373-14.396-2.794-21.42-6.306c-1.067-0.533-1.498-1.83-0.966-2.897c0.534-1.067,1.831-1.497,2.897-0.966
					c6.495,3.247,13.207,4.55,20.313,5.93c3.449,0.669,7.015,1.362,10.568,2.297c1.153,0.302,1.841,1.484,1.538,2.637
					C59.3,86.527,58.425,87.168,57.468,87.168z"/>
			</g>
			<g>
				<path style="fill:#525D7D;" d="M61.042,115.933c-0.086,0-0.173-0.004-0.26-0.015c-13.65-1.638-27.023-4.679-40.884-9.3
					c-1.13-0.377-1.742-1.6-1.365-2.731c0.375-1.13,1.594-1.745,2.731-1.365c13.581,4.526,26.676,7.505,40.033,9.108
					c1.183,0.142,2.028,1.217,1.886,2.401C63.051,115.127,62.119,115.933,61.042,115.933z"/>
			</g>
			<g>
				<path style="fill:#525D7D;" d="M159.838,30.678c-0.902,0-1.737-0.569-2.042-1.463c-1.089-3.199-2.082-6.467-3.042-9.627
					l-0.713-2.343c-0.349-1.14,0.294-2.347,1.434-2.696c1.141-0.349,2.347,0.292,2.696,1.434l0.716,2.352
					c0.756,2.489,1.532,5.048,2.356,7.566c4.287-1.162,8.708-2.366,13.019-3.666c1.132-0.342,2.343,0.301,2.69,1.445
					c0.343,1.141-0.302,2.346-1.445,2.69c-4.483,1.351-9.055,2.592-13.477,3.792l-1.624,0.44
					C160.216,30.654,160.026,30.678,159.838,30.678z"/>
			</g>
		</g>
	</g>
</g>
<g id="Layer_1">
</g>
</svg>
