<?xml version="1.0" encoding="iso-8859-1"?>
<!-- Generator: Adobe Illustrator 21.0.2, SVG Export Plug-In . SVG Version: 6.00 Build 0)  -->
<svg version="1.1" xmlns="http://www.w3.org/2000/svg" xmlns:xlink="http://www.w3.org/1999/xlink" x="0px" y="0px"
	 viewBox="0 0 209.103 157.001" style="enable-background:new 0 0 209.103 157.001;" xml:space="preserve">
<g id="_x33_0">
	<g>
		<g>
			<path style="fill:#E0DFE6;" d="M61.25,64.641c-0.323-2.424-0.718-4.307-1.863-6.49c-1.645-3.137-5.755-4.104-8.984-3.024
				c-0.224-0.002-0.448-0.005-0.675,0.008c0.362-3.653-3.087-7.565-7.022-6.162C32.62,52.568,23.626,59.224,19.354,69.319
				c-1.386,3.275,2.596,7.457,5.443,4.2c1.155-1.322,2.348-2.556,3.568-3.736c0,2.034,0.723,4.009,2.543,5.82
				c2.854,2.841,6.516,2.955,10.081,1.585c2.036-0.782,3.861-1.986,5.614-3.261c0.998-0.746,1.971-1.523,2.919-2.331
				c0.243-0.147,0.425-0.284,0.608-0.422C54.965,73.349,62.101,71.018,61.25,64.641z"/>
		</g>
		<g>
			<path style="fill:#E0DFE6;" d="M207.872,101.077c-0.402-12.308-1.065-24.595-1.803-36.887
				c-0.739-12.307-1.004-25.292-4.152-37.265c-0.348-1.325-2.546-1.455-2.814,0c-2.987,16.228-1.709,33.59-1.863,50.033
				c-0.08,8.514-0.09,17.024-0.086,25.539c0.002,4.257-0.003,8.514-0.017,12.771c0,0.036,0,0.114,0,0.172
				c-0.206-1.116-0.357-2.238-0.52-3.387c-0.421-2.958-4.487-5.04-7.165-4.068c-5.216,1.894-11.089,1.175-16.458,2.421
				c-0.831,0.193-1.431,0.821-1.741,1.579c-0.359-1.873-1.777-3.533-4.472-3.757c-5.924-0.494-11.763,0.942-16.69,3.842
				c-0.692-2.324-2.571-4.227-5.676-4.183c-1.982,0.029-3.974,0.044-5.967,0.057c-0.885-0.791-2.092-1.281-3.633-1.217
				c-4.547,0.187-9.064,0.771-13.585,1.355c-8.419,0.126-16.844,0.44-25.164,1.331c-4.908-0.074-9.811-0.043-14.615,0.823
				c-0.265,0.048-0.504,0.142-0.729,0.258c-0.091-0.965-0.177-1.921-0.23-2.848c-0.377-6.632-0.861-13.256-1.359-19.88
				c-1.07-14.238-2.428-28.404-4.065-42.588c-0.223-1.936-3.047-2.046-3.101,0c-0.322,12.307-0.598,24.597-0.682,36.908
				c-0.039,5.68-0.112,11.359-0.155,17.039c-0.032,4.183,1.091,11.009,0.436,15.977c-1.163-2.422-2.499-4.843-4.369-6.498
				c-1.8-1.592-5.068-1.544-6.442,0.458c-3.323-3.097-7.466-5.157-11.759-5.248c-8.891-0.189-24.067,6.636-22.791,17.394
				c0.147,1.239,1.636,2.165,2.647,1.096c4.542-4.799,12.914-9.776,19.786-7.291c6.314,2.283,5.493,10.84,9.272,15.497
				c0.465,0.573,1.023,0.986,1.63,1.266c-1.137-0.311-2.417-0.137-3.713,0.819c-6.136,4.529-9.846,11.636-18.54,8.551
				c-2.01-0.713-8.142-6.138-10.119-3.543c-4.966,6.516,6.352,14.348,11.601,15.445c1.161,0.243,2.329,0.356,3.493,0.367
				c1.07,0.19,2.131,0.308,3.157,0.33c8.438,0.184,17.424-4.359,21.242-12.066c0.681-1.374,0.722-2.838,0.336-4.174
				c12.751-0.127,25.537-0.885,38.294-0.943c7.261-0.033,14.536,0.41,21.796,0.609c5.197,0.142,10.733,0.997,15.592-0.753
				c-2.502,10.053,8.347,19.097,17.414,20.363c11.889,1.66,23.246-6.257,27.945-16.951c1.204,0.044,2.408,0.004,3.609-0.08
				c5.782,2.024,12.578-1.323,15.305-7.338C210.973,123.546,208.18,110.512,207.872,101.077z M138.59,125.516
				c-23.368,2.576-49.592-6.152-71.564,3.795c0.185-0.308,0.325-0.64,0.44-0.983c0.972,0.065,1.955-0.072,2.851-0.45
				c1.316-0.555,2.282-1.44,2.917-2.497c1.947,0.843,4.376,0.476,5.956-1.965c0.835-1.29,1.319-2.691,1.589-4.149
				c1.223,2.024,3.347,3.259,5.664,3.252c1.162-0.004,2.371-0.339,3.388-0.907c0.702-0.392,1.242-1.03,1.937-1.418
				c0.586-0.328,0.907-0.181,1.788,0.138c1.022,0.369,1.953,0.209,2.703-0.261c3.672,0.323,7.372,0.406,10.974,0.441
				c6.108,0.058,12.632,0.031,18.939-0.754c5.09,0.153,10.17,0.268,15.21,0.43C140.264,121.833,139.311,123.608,138.59,125.516z
				 M194.818,127.05c-3.048-1.99-6.119-0.801-7.841,1.515c-2.381-1.86-5.822-2.339-8.282-0.401
				c-1.967-0.245-4.082,0.493-5.699,2.775c-4.229,5.969-8.16,10.531-15.468,12.071c-4.62-1.48-7.456-5.202-11.09-8.718
				c2.975-2.804,1.564-7.094-1.702-8.617c4.901-6.192,12.756-9.853,20.774-8.046c3.16,0.712,5.164-1.203,5.69-3.486
				c0.199,0.528,0.562,0.988,1.143,1.261c4.07,1.91,8.393,2.227,12.687,2.903c0.076,0.914,0.188,1.841,0.325,2.806
				c0.834,5.858,8.471,5.628,11.429,1.837C196.476,125.606,195.902,127.758,194.818,127.05z"/>
		</g>
		<g>
			<path style="fill:#E0DFE6;" d="M161.92,61.014c0.974-4.503,0.701-9.383-1.085-14.049c-1.627-4.25-7.751-2.655-6.859,1.891
				c1.973,10.062-4.981,17.435-14.054,20.441c-5.006,1.658-4.452,9.821,1.297,9.584c0.138-0.006,0.272-0.022,0.409-0.03
				c-2.218,1.119-4.74,1.872-7.682,2.126c-10.083,0.872-17.435-4.997-25.083-10.449c-1.391-0.991-2.858,0.641-2.612,2.008
				c0.361,2.01,1.07,3.851,2.002,5.556c-1.141-0.539-2.58,0.858-1.795,1.988c6.467,9.309,17.085,17.743,29.054,17.037
				c11.497-0.679,22.659-9.71,26.75-20.272c0.345-0.892,0.41-1.735,0.299-2.521c1.206-2.263,2.055-4.68,2.425-7.214
				C165.366,64.499,163.898,62.158,161.92,61.014z"/>
		</g>
		<g>
			<path style="fill:#E0DFE6;" d="M21.056,122.815c-0.998-3.084-4.159-5.125-7.404-4.204c-1.176,0.334-2.3,0.869-3.508,1.089
				c-0.03-0.03-1.035,0.036-1.047,0.036c-0.72,0.015-1.414,0.08-2.134,0.139c-3.647,0.296-4.948,4.029-2.805,6.772
				c2.704,3.462,8.601,4.733,12.694,3.572C19.879,129.36,22.062,125.925,21.056,122.815z"/>
		</g>
		<g>
			<path style="fill:#E0DFE6;" d="M20.36,130.513c-1.947,0.348-3.946,0.399-5.919,0.299c-1.79-0.091-3.597-0.455-5.226,0.461
				c-0.585,0.329-0.858,1.062-0.692,1.699c0.558,2.138,2.755,3.322,4.602,4.256c2.311,1.169,4.749,2.069,7.235,2.782
				c3.087,0.885,6.234-1.587,6.234-4.749C26.594,131.893,23.47,129.956,20.36,130.513z"/>
		</g>
		<g>
			<g>
				<g>
					<path style="fill:#525D7D;" d="M10.113,131.62c-3.378,0-6.282-2.513-6.733-5.932C1.508,111.488,0,94.001,0,88.989
						c0-51.466,53.973-57.528,77.02-60.116c1.185-0.145,2.252,0.72,2.387,1.905c0.133,1.185-0.72,2.253-1.905,2.385
						c-15.348,1.725-32.978,4.532-47.365,12.284C12.764,54.809,4.318,69.052,4.318,88.989c0,4.341,1.404,21.426,3.343,36.133
						c0.174,1.32,1.325,2.248,2.65,2.172c2.281-0.181,4.738-0.335,7.464-0.47c1.366-15.726,14.649-23.939,27.607-23.939
						c10.439,0,17.849,8.05,21.504,23.312c14.732-1.871,26.983-2.607,43.034-2.607c8.676,0,17.477,0.219,25.994,0.433
						c5.862-11.083,17.549-17.046,25.916-17.046c6.604,0,17.682,5.376,22.144,20.034c1.489-0.086,3.092-0.127,4.923-0.127
						c1.672,0,3.344,0.034,5.016,0.068c0.765,0.016,1.53,0.031,2.295,0.044c-1.855-33.287-2.35-66.931-2.83-99.491
						c-0.111-7.564-0.223-15.133-0.35-22.712c-10.062,0.083-20.333-0.072-30.268-0.225c-7.975-0.124-16.222-0.25-24.311-0.25
						c-10.963,0-15.868,0.181-20.611,0.357c-4.109,0.153-7.99,0.297-15.439,0.297c-2.264,0-4.528-0.011-6.791-0.024
						c-2.256-0.011-4.513-0.022-6.77-0.022c-5.163,0-9.106,0.062-12.786,0.202c-1.219,0.055-2.194-0.884-2.24-2.076
						c-0.045-1.191,0.884-2.194,2.075-2.239c3.737-0.142,7.73-0.205,12.95-0.205c2.264,0,4.528,0.011,6.792,0.024
						c2.256,0.011,4.513,0.022,6.769,0.022c7.37,0,11.212-0.142,15.279-0.294C122.463,0.183,127.408,0,138.451,0
						c8.122,0,16.386,0.127,24.378,0.25c7.957,0.122,16.187,0.249,24.239,0.249c2.689,0,5.374-0.014,8.057-0.046
						c1.202,0,2.165,0.943,2.185,2.121c0.143,8.3,0.265,16.588,0.387,24.868c0.49,33.267,0.996,67.666,2.953,101.612
						c0.034,0.593-0.179,1.175-0.588,1.608c-0.408,0.43-0.975,0.675-1.568,0.675c-1.558-0.004-3.113-0.035-4.669-0.068
						c-1.642-0.032-3.286-0.066-4.928-0.066c-2.457,0-4.471,0.076-6.339,0.239c-1.058,0.087-2.017-0.592-2.279-1.617
						c-3.887-15.202-14.635-18.53-18.448-18.53c-6.299,0-17.49,4.915-22.648,15.843c-0.365,0.773-1.156,1.234-2.006,1.237
						l-1.169-0.03c-8.553-0.215-17.398-0.437-26.087-0.437c-16.553,0-29.009,0.791-44.427,2.824
						c-1.11,0.143-2.162-0.592-2.394-1.697c-2.097-9.959-6.873-21.832-17.717-21.832c-15.762,0-23.178,11.266-23.399,21.732
						c-0.024,1.139-0.927,2.062-2.064,2.113c-3.472,0.152-6.504,0.332-9.269,0.55C10.471,131.612,10.291,131.62,10.113,131.62z"/>
				</g>
			</g>
			<g>
				<g>
					<path style="fill:#525D7D;" d="M79.454,129.153c-1.182,0-2.146-0.953-2.158-2.138c-0.202-20.191-0.76-40.747-1.301-60.626
						c-0.394-14.513-0.802-29.52-1.068-44.268c-0.082-4.544-0.425-9.325-0.757-13.947c-0.122-1.688-0.243-3.378-0.353-5.063
						c-0.077-1.191,0.824-2.218,2.014-2.295c1.194-0.068,2.217,0.825,2.295,2.014c0.11,1.676,0.23,3.357,0.351,5.035
						c0.336,4.679,0.683,9.518,0.767,14.177c0.265,14.728,0.673,29.725,1.067,44.228c0.541,19.898,1.1,40.474,1.302,60.702
						C81.625,128.164,80.668,129.14,79.454,129.153z"/>
				</g>
			</g>
			<g>
				<g>
					<path style="fill:#525D7D;" d="M132.368,91.543c-9.253,0-17.89-3.552-24.329-10.007c-6.281-6.297-9.859-14.821-9.817-23.388
						c0.075-16.014,12.78-30.3,28.925-32.521c0.945-0.131,1.952-0.212,2.993-0.243c10.375-0.336,19.755,3.081,26.443,9.574
						c6.313,6.127,9.785,14.485,9.778,23.533c-0.013,18.179-15.222,33.006-33.903,33.052
						C132.428,91.543,132.398,91.543,132.368,91.543z M131.462,29.681c-0.396,0-0.793,0.007-1.192,0.018
						c-0.889,0.027-1.74,0.096-2.532,0.205c-14.066,1.936-25.132,14.35-25.197,28.264c-0.036,7.425,3.082,14.829,8.556,20.317
						c5.622,5.638,13.174,8.739,21.271,8.739c0.027,0,0.053,0,0.079,0c16.307-0.039,29.584-12.932,29.596-28.737
						c0.006-7.87-3.001-15.126-8.468-20.432C147.987,32.633,140.171,29.681,131.462,29.681z"/>
				</g>
			</g>
			<g>
				<g>
					<path style="fill:#525D7D;" d="M117.472,71.187c-3.329,0-5.338,0-5.847-2.003c-0.479-1.886,1.117-2.754,2.967-3.759
						c3.656-1.986,10.461-5.684,10.461-13.165c0-2.848-1.12-6.172-4.274-6.172c-2.692,0-5.434,3.105-5.434,6.154
						c0,0.405,0.051,0.798,0.152,1.167c0.315,1.15-0.363,2.338-1.513,2.652c-1.147,0.315-2.338-0.363-2.652-1.514
						c-0.203-0.739-0.305-1.515-0.305-2.305c0-5.481,4.648-10.472,9.752-10.472c5.059,0,8.592,4.314,8.592,10.49
						c0,7.212-4.591,11.743-8.589,14.489c2.78-0.198,5.574-0.647,8.342-1.338c1.158-0.288,2.328,0.415,2.618,1.57
						c0.289,1.157-0.414,2.329-1.571,2.619C125.96,70.653,121.687,71.187,117.472,71.187z"/>
				</g>
			</g>
			<g>
				<g>
					<path style="fill:#525D7D;" d="M138.597,67.889c-1.611,0-2.643-0.322-3.471-1.019c-1.522-1.283-1.472-3.149-1.413-5.308
						c0.013-0.492,0.028-1.032,0.028-1.621c0-2.3,0.152-4.616,0.298-6.855c0.148-2.25,0.287-4.374,0.287-6.491
						c0-0.807-0.02-1.608-0.07-2.402c-0.074-1.189,0.829-2.215,2.019-2.29c1.188-0.072,2.216,0.829,2.29,2.02
						c0.055,0.884,0.079,1.775,0.079,2.672c0,2.257-0.15,4.553-0.296,6.772c-0.142,2.172-0.289,4.416-0.289,6.574
						c0,0.633-0.015,1.21-0.029,1.737c-0.018,0.658-0.039,1.446,0.008,1.875c1.534,0.236,7.023-0.86,11.484-1.751
						c1.169-0.242,2.306,0.526,2.54,1.694c0.234,1.169-0.524,2.307-1.694,2.54C144.474,67.216,140.929,67.889,138.597,67.889z"/>
				</g>
			</g>
			<g>
				<g>
					<path style="fill:#525D7D;" d="M150.841,71.017c-0.816,0-1.598-0.464-1.962-1.254c-2.29-4.961-2.482-10.367-2.482-15.045
						c0-0.818,0.007-1.633,0.014-2.444c0.007-0.79,0.014-1.576,0.014-2.354c0-1.192,0.966-2.159,2.159-2.159
						c1.193,0,2.159,0.967,2.159,2.159c0,0.791-0.007,1.59-0.014,2.392c-0.007,0.798-0.014,1.601-0.014,2.406
						c0,4.218,0.161,9.069,2.084,13.234c0.5,1.082,0.027,2.366-1.055,2.866C151.452,70.954,151.144,71.017,150.841,71.017z"/>
				</g>
			</g>
			<g>
				<g>
					<path style="fill:#525D7D;" d="M3.388,81.839c-1.108,0-2.05-0.848-2.148-1.972c-0.103-1.188,0.776-2.235,1.964-2.338
						c8.344-0.725,15.406-1.134,21.637-1.494c25.664-1.483,30.497-2.186,30.497-15.57c0-3.4-0.58-7.117-1.141-10.711
						c-0.582-3.731-1.183-7.589-1.183-11.275c0-0.758,0.025-1.507,0.079-2.245c0.087-1.191,1.132-2.092,2.312-1.995
						c1.189,0.089,2.082,1.123,1.995,2.312c-0.047,0.634-0.068,1.276-0.068,1.927c0,3.351,0.55,6.876,1.132,10.61
						c0.586,3.756,1.192,7.641,1.192,11.376c0,17.883-10.119,18.469-34.566,19.881c-6.201,0.359-13.23,0.765-21.512,1.484
						C3.514,81.836,3.451,81.839,3.388,81.839z"/>
				</g>
			</g>
			<g>
				<g>
					<path style="fill:#525D7D;" d="M24.698,78.121c-0.601,0-1.199-0.25-1.626-0.738c-1.059-1.209-2.023-2.444-2.955-3.638
						c-1.869-2.394-3.634-4.656-5.847-6.316c-0.954-0.716-1.148-2.069-0.432-3.024c0.718-0.953,2.071-1.146,3.023-0.432
						c2.673,2.006,4.7,4.602,6.661,7.113c0.895,1.148,1.822,2.335,2.801,3.454c0.785,0.897,0.694,2.262-0.203,3.046
						C25.709,77.945,25.202,78.121,24.698,78.121z"/>
				</g>
			</g>
			<g>
				<g>
					<path style="fill:#525D7D;" d="M6.793,119.873c-1.086,0-2.021-0.817-2.143-1.922c-0.131-1.185,0.722-2.252,1.908-2.384
						c2.582-0.285,5.368-2.107,5.368-4.552c0-0.756,0-3.056-3.961-3.056c-0.962,0-2.052,0.145-3.149,0.419
						c-1.159,0.285-2.33-0.415-2.618-1.572c-0.289-1.157,0.414-2.329,1.571-2.617c1.435-0.359,2.886-0.548,4.196-0.548
						c5.029,0,8.279,2.894,8.279,7.374c0,4.897-4.683,8.342-9.211,8.844C6.952,119.868,6.872,119.873,6.793,119.873z"/>
				</g>
			</g>
			<g>
				<g>
					<path style="fill:#525D7D;" d="M41.684,149.475c-5.12,0-9.732-1.704-13.096-4.862c-3.366-3.16-5.241-7.526-5.281-12.292
						c-0.068-8.504,5.639-15.777,13.571-17.295c1.368-0.264,2.754-0.401,4.119-0.403c11.301,0,17.601,8.619,17.81,16.738
						c0.209,8.13-6.243,17.555-15.837,18.079C42.538,149.464,42.109,149.475,41.684,149.475z M41.031,118.941
						c-1.119,0.003-2.232,0.112-3.334,0.325c-5.89,1.126-10.123,6.601-10.072,13.02c0.03,3.575,1.422,6.836,3.919,9.18
						c2.775,2.605,6.748,3.916,11.19,3.662c6.921-0.378,11.914-7.522,11.756-13.654C54.365,126.625,50.599,118.941,41.031,118.941z"
						/>
				</g>
			</g>
			<g>
				<g>
					<path style="fill:#525D7D;" d="M40.396,138.999c-0.135,0-0.272-0.003-0.411-0.007c-3.338-0.141-6.985-3.406-6.9-7.565
						c0.068-3.414,2.683-6.119,5.067-6.667c0.32-0.073,0.649-0.101,0.997-0.069c0.377-0.131,0.956-0.309,1.678-0.297
						c3.247,0.133,6.789,2.89,6.848,7.111c0.06,4.27-2.915,7.422-7.074,7.492C40.533,138.999,40.465,138.999,40.396,138.999z
						 M38.978,129.015c-0.598,0.254-1.552,1.281-1.576,2.499c-0.037,1.858,1.782,3.122,2.745,3.163
						c0.117,0.004,0.252,0.008,0.382,0.003c2.118-0.035,2.85-1.631,2.829-3.112c-0.027-1.943-1.776-2.82-2.707-2.858
						c0.046,0.008-0.02,0.035-0.085,0.056c-0.24,0.081-0.57,0.194-0.976,0.24C39.39,129.032,39.185,129.036,38.978,129.015z
						 M38.788,128.994L38.788,128.994L38.788,128.994z"/>
				</g>
			</g>
			<g>
				<g>
					<path style="fill:#525D7D;" d="M162.333,149.584c-5.123,0-9.736-1.704-13.101-4.863c-3.364-3.16-5.239-7.524-5.28-12.291
						c-0.068-8.504,5.639-15.777,13.571-17.295c1.369-0.264,2.755-0.401,4.12-0.403c11.301,0,17.601,8.618,17.81,16.737
						c0.209,8.132-6.244,17.556-15.837,18.081C163.186,149.571,162.757,149.584,162.333,149.584z M161.678,119.049
						c-1.118,0.003-2.232,0.112-3.335,0.325c-5.89,1.126-10.123,6.601-10.072,13.02c0.03,3.575,1.421,6.834,3.918,9.179
						c2.775,2.605,6.753,3.915,11.192,3.663c6.919-0.378,11.914-7.522,11.756-13.657
						C175.012,126.732,171.245,119.049,161.678,119.049z"/>
				</g>
			</g>
			<g>
				<g>
					<path style="fill:#525D7D;" d="M161.042,139.107c-0.136,0-0.273-0.003-0.411-0.007c-3.338-0.141-6.985-3.406-6.9-7.565
						c0.068-3.414,2.683-6.119,5.067-6.667c0.323-0.073,0.652-0.1,0.998-0.069c0.374-0.132,0.952-0.322,1.678-0.297
						c3.247,0.133,6.788,2.89,6.848,7.111c0.059,4.272-2.916,7.422-7.075,7.492C161.179,139.107,161.111,139.107,161.042,139.107z
						 M159.623,129.123c-0.596,0.253-1.55,1.279-1.575,2.498c-0.037,1.86,1.782,3.123,2.745,3.164
						c0.115,0.004,0.252,0.008,0.381,0.003c2.118-0.035,2.851-1.632,2.83-3.114c-0.027-1.941-1.776-2.818-2.707-2.856
						c0.045,0.008-0.021,0.035-0.086,0.056c-0.24,0.081-0.57,0.194-0.975,0.24C160.032,129.14,159.827,129.143,159.623,129.123z
						 M159.433,129.101L159.433,129.101L159.433,129.101z"/>
				</g>
			</g>
			<g>
				<g>
					<path style="fill:#525D7D;" d="M99.702,143.028c-18.264,0-18.264-3.982-18.264-5.291c0-0.513,0.039-1.084,0.08-1.669
						c0.037-0.506,0.075-1.026,0.075-1.517c0-0.333-0.02-0.6-0.058-0.793c-0.233-1.169,0.528-2.305,1.697-2.538
						c1.172-0.232,2.306,0.528,2.538,1.698c0.095,0.477,0.14,1.011,0.14,1.633c0,0.59-0.043,1.215-0.086,1.825
						c-0.018,0.252-0.037,0.502-0.05,0.742c1.876,0.911,8.704,1.591,13.926,1.591c3.401,0,8.11-0.751,9.581-1.48
						c-0.038-0.776-0.164-1.671-0.529-1.878c-0.615-0.349-2.299-0.342-4.05-0.346h-0.318c-3.751,0-7.463,0.543-11.393,1.118
						c-1.498,0.219-2.997,0.439-4.499,0.626c-1.186,0.142-2.262-0.692-2.41-1.874c-0.148-1.183,0.691-2.263,1.874-2.411
						c1.471-0.184,2.94-0.399,4.409-0.614c3.91-0.571,7.954-1.163,12.018-1.163h0.315c2.558,0.003,4.57-0.003,6.176,0.904
						c2.428,1.37,2.739,4.071,2.739,6.27C113.616,142.883,101.126,143.028,99.702,143.028z"/>
				</g>
			</g>
		</g>
	</g>
</g>
<g id="Layer_1">
</g>
</svg>
