<?xml version="1.0" encoding="iso-8859-1"?>
<!-- Generator: Adobe Illustrator 21.0.2, SVG Export Plug-In . SVG Version: 6.00 Build 0)  -->
<svg version="1.1" xmlns="http://www.w3.org/2000/svg" xmlns:xlink="http://www.w3.org/1999/xlink" x="0px" y="0px"
	 viewBox="0 0 204.02 140.684" style="enable-background:new 0 0 204.02 140.684;" xml:space="preserve">
<g id="_x33_1">
	<g>
		<g>
			<path style="fill:#E0DFE6;" d="M199.938,83.516c-6.824-20.45-18.833-39.05-33.398-54.793c-1.548-1.673-3.949,0.235-3.362,2.139
				c-2.011-0.486-4.347,1.384-3.878,3.895c2.427,12.996,6.024,25.649,7.46,38.839c1.398,12.846,1.289,25.456,0.864,38.343
				c-0.157,4.765,3.386,7.208,7.094,7.337c-0.002,0.064-0.005,0.127-0.007,0.191c-4.16-0.158-8.321-0.288-12.47-0.485
				c-8.08-0.385-16.328-0.892-24.273,0.862c-0.119-11.749-0.205-23.497-0.275-35.245c0.65-5.952,0.618-11.981-0.1-17.903
				c-0.195-1.61-0.735-2.979-1.478-4.141c0.402-3.659-1.72-7.722-6.418-7.703c-13.573,0.056-27.148,0.035-40.719,0.25
				c-6.789,0.108-13.58,0.131-20.359,0.515c-3.86,0.219-10.399,2.068-14.286,1.491c-0.314-0.251-0.701-0.397-1.147-0.348
				c-0.157,0.017-0.313,0.034-0.47,0.051c-1.509,0.165-2.605,1.341-2.228,2.925c0.869,3.647,5.414,3.353,8.422,3.782
				c7.57,1.08,15.168,1.696,22.797,2.168c0.853,0.053,1.707,0.093,2.56,0.145c-6.896,0.453-13.792,0.906-20.688,1.359
				c-2.217,0.146-4.35,1.03-5.95,2.458c-0.503-1.561-1.031-3.109-1.623-4.622c-1.022-2.615-4.403-2.088-4.747,0.643
				c-1.212,9.626-0.014,19.473,0.516,29.155c0.532,9.731,1.071,19.486,1.277,29.23c0.077,3.669,2.881,6.115,6.4,6.4
				c2.819,0.228,5.639,0.419,8.459,0.594c-1.73,0.484-1.964,2.902-0.457,3.977c7.756,5.535,18.84,5.413,27.992,5.559
				c11.7,0.188,23.386,0.087,35.086-0.037c11.265-0.119,22.526-0.336,33.789-0.558c7.888-0.155,16.549,0.231,24.469-1.542
				c0.905,0.048,1.811-0.069,2.677-0.412c0.663-0.262,1.28-0.571,1.871-0.904c1.118-0.402,2.216-0.852,3.284-1.38
				c2.522-1.248,3.398-3.442,3.145-5.6c2.509-4.892,3.374-10.993,3.926-16.389C204.745,103.509,203.189,93.256,199.938,83.516z
				 M70.449,117.269c0.749-0.665,1.408-1.521,1.92-2.613c0.071-0.151,0.147-0.3,0.219-0.451c0.299,1.05,0.771,2.06,1.379,2.98
				C72.794,117.208,71.622,117.239,70.449,117.269z M88.207,117.028c1.792-2.286,3.564-4.588,5.312-6.909
				c-0.288,2.436,0.45,4.947,1.844,6.894C92.977,117.013,90.592,117.018,88.207,117.028z M117.331,82.824
				c-1.692-0.349-3.461-0.138-5.06,0.815c-0.272-1.084-0.641-2.101-1.12-3.037c2.01-0.3,4.277-0.69,6.445-0.922
				C117.525,80.732,117.431,81.787,117.331,82.824z M131.848,129.154c1.685-0.522,3.216-1.492,4.326-2.884
				c1.878,0.965,3.813,1.759,5.785,2.441C138.589,128.853,135.218,129,131.848,129.154z M178.697,66.331
				c-0.186-0.35-0.44-0.625-0.731-0.842c-0.809-3.319-1.72-6.602-2.744-9.825c3.04,6.809,5.819,13.72,8.056,20.739
				C181.906,72.881,180.376,69.496,178.697,66.331z"/>
		</g>
		<g>
			<path style="fill:#E0DFE6;" d="M41.151,119.335c-6.06,1.138-12.035,2.507-18.157,3.328c-5.44,0.729-11.228,0.56-16.484,2.157
				c-1.691,0.514-2.367,3.232-0.534,4.084c10.308,4.788,25.895,4.668,36.993,3.866C52.794,132.061,51.028,117.48,41.151,119.335z"/>
		</g>
		<g>
			<path style="fill:#E0DFE6;" d="M118.529,29.513c-0.325-5.737-5.093-7.202-8.843-5.914c0.087-0.389,0.135-0.78,0.135-1.162
				c0-2.956-2.793-6.481-6.065-6.065c-3.58,0.456-7.16,0.912-10.741,1.368c-6.024,0.767-6.037,8.625,0,9.393
				c3.58,0.456,7.161,0.912,10.741,1.368c0.513,0.065,1.013,0.024,1.494-0.088c-0.218,1.306,0.002,2.807,0.873,4.459
				c1.05,1.993-4.007,4.596-5.157,5.014c-3.983,1.448-8.362,0.863-12.516,0.938c-2.183,0.039-3.327,3.27-1.174,4.334
				c6.43,3.177,14.504,5.566,21.402,2.458C115.128,42.711,118.927,36.551,118.529,29.513z"/>
		</g>
		<g>
			<g>
				<g>
					<path style="fill:#525D7D;" d="M2.453,134.754c-1.131,0-2.083-0.881-2.153-2.025c-0.198-3.209-0.3-6.481-0.3-9.727
						C0,63.761,32.702,0,104.502,0c79.641,0,86.151,93.877,88.603,129.219c0.083,1.189-0.814,2.221-2.004,2.302
						c-1.169,0.1-2.219-0.815-2.302-2.004c-1.761-25.391-5.06-54.665-16.168-79.255c-13.771-30.485-36.693-45.943-68.128-45.943
						C35.669,4.318,4.318,65.84,4.318,123.002c0,3.157,0.098,6.339,0.291,9.46c0.073,1.191-0.831,2.215-2.021,2.288
						C2.543,134.753,2.496,134.754,2.453,134.754z"/>
				</g>
			</g>
			<g>
				<g>
					<path style="fill:#525D7D;" d="M10.788,134.199c-1.129,0-2.078-0.877-2.152-2.02c-0.076-1.191,0.827-2.217,2.016-2.294
						c7.704-0.496,15.483-0.516,23.007-0.534c5.007-0.013,10.164-0.025,15.227-0.181c-0.623-10.815-0.746-21.742-0.866-32.332
						c-0.135-11.834-0.274-24.071-1.11-36.076c-0.083-1.189,0.814-2.221,2.003-2.304c1.168-0.096,2.221,0.812,2.304,2.003
						c0.846,12.131,0.985,24.431,1.12,36.327c0.128,11.258,0.26,22.901,0.994,34.323c0.037,0.58-0.162,1.151-0.551,1.583
						c-0.389,0.433-0.936,0.689-1.518,0.713c-5.845,0.233-11.816,0.247-17.592,0.263c-7.458,0.018-15.171,0.037-22.74,0.526
						C10.883,134.197,10.836,134.199,10.788,134.199z"/>
				</g>
			</g>
			<g>
				<g>
					<path style="fill:#525D7D;" d="M57.114,62.814c-5.673,0-11.238-0.065-16.539-0.19c-1.178-0.028-2.117-0.998-2.107-2.177
						c0.01-1.175,0.03-2.349,0.049-3.522c0.027-1.656,0.055-3.315,0.055-4.979c0-1.312-0.018-2.629-0.066-3.951
						c-0.021-0.575,0.188-1.136,0.583-1.556c0.394-0.419,0.939-0.665,1.514-0.68c11.605-0.325,23.502-0.535,35.007-0.739
						c21.903-0.388,44.552-0.79,66.556-1.986c1.172-0.038,2.205,0.846,2.273,2.034c0.257,4.516,0.751,8.926,1.153,12.261
						c0.072,0.595-0.107,1.192-0.492,1.65c-0.387,0.457-0.945,0.734-1.542,0.765l-6.608,0.339
						C110.767,61.425,83.693,62.814,57.114,62.814z M42.813,58.354c4.618,0.094,9.418,0.142,14.301,0.142
						c26.47,0,53.487-1.386,79.615-2.727l4.305-0.221c-0.274-2.419-0.558-5.197-0.768-8.091c-21.409,1.113-43.344,1.503-64.58,1.879
						c-10.784,0.191-21.911,0.388-32.81,0.679c0.01,0.644,0.014,1.288,0.014,1.93c0,1.688-0.028,3.371-0.056,5.05
						C42.827,57.448,42.82,57.901,42.813,58.354z"/>
				</g>
			</g>
			<g>
				<g>
					<path style="fill:#525D7D;" d="M167.116,132.468c-7.723,0-15.558-0.429-23.134-0.843l-3.334-0.181
						c-1.092-0.059-1.968-0.925-2.04-2.016c-1.473-22.688-3.008-46.891-4.148-71.392c-0.056-1.191,0.864-2.201,2.056-2.256
						c1.168-0.045,2.201,0.864,2.256,2.056c1.108,23.778,2.586,47.286,4.02,69.399l1.425,0.077
						c7.519,0.412,15.293,0.838,22.898,0.838c6.055,0,11.405-0.268,16.357-0.819c1.186-0.121,2.253,0.722,2.385,1.907
						c0.131,1.185-0.722,2.253-1.907,2.385C178.839,132.192,173.333,132.468,167.116,132.468z"/>
				</g>
			</g>
			<g>
				<g>
					<path style="fill:#525D7D;" d="M98.298,39.563c-4.147,0-7.873-1.377-10.596-3.94c-2.709-2.548-4.256-6.131-4.245-9.832
						c0.02-6.216,4.906-13.189,12.762-13.618c2.662-0.138,4.733,0.243,6.969,1.295c7.183,3.371,8.714,8.527,8.733,12.259
						c0.034,6.392-4.596,13.3-12.402,13.798C99.109,39.55,98.701,39.563,98.298,39.563z M96.455,16.485
						c-5.176,0.281-8.666,5.046-8.68,9.319c-0.007,2.508,1.044,4.941,2.886,6.674c1.491,1.403,4.199,3.026,8.583,2.735
						c5.261-0.336,8.382-5.076,8.359-9.465c-0.02-3.669-2.063-6.408-6.251-8.372C99.764,16.629,98.395,16.381,96.455,16.485z"/>
				</g>
			</g>
			<g>
				<g>
					<path style="fill:#525D7D;" d="M104.561,28.976c-2.405,0-4.84-0.152-7.195-0.298c-3.506-0.216-7.28-0.401-10.181-0.159
						c-1.172,0.08-2.231-0.783-2.332-1.972c-0.098-1.188,0.783-2.232,1.972-2.332c3.166-0.267,7.153-0.073,10.809,0.153
						c2.288,0.142,4.656,0.29,6.927,0.29c2.193,0,4.085-0.138,5.786-0.42c1.167-0.198,2.287,0.597,2.484,1.775
						c0.195,1.176-0.599,2.288-1.775,2.484C109.118,28.82,106.994,28.976,104.561,28.976z"/>
				</g>
			</g>
			<g>
				<g>
					<path style="fill:#525D7D;" d="M97.125,134.507c-1.148,0-2.103-0.904-2.155-2.062c-0.541-12.027-0.953-24.316-1.352-36.202
						c-0.398-11.874-0.81-24.152-1.348-36.154c-0.055-1.192,0.869-2.2,2.059-2.253c1.169-0.119,2.2,0.869,2.253,2.059
						c0.541,12.027,0.953,24.318,1.352,36.204c0.398,11.873,0.81,24.152,1.348,36.153c0.055,1.192-0.869,2.2-2.059,2.253
						C97.191,134.507,97.158,134.507,97.125,134.507z"/>
				</g>
			</g>
			<g>
				<g>
					<path style="fill:#525D7D;" d="M50.96,79.158c-0.661,0-1.314-0.302-1.737-0.876c-0.708-0.959-0.506-2.311,0.453-3.019
						c6.07-4.485,12.344-9.123,18.231-14.207c0.904-0.78,2.269-0.679,3.045,0.222c0.78,0.902,0.68,2.266-0.222,3.045
						c-6.011,5.192-12.353,9.879-18.487,14.412C51.855,79.021,51.406,79.158,50.96,79.158z"/>
				</g>
			</g>
			<g>
				<g>
					<path style="fill:#525D7D;" d="M50.42,102.378c-0.654,0-1.3-0.295-1.725-0.858c-0.718-0.952-0.53-2.307,0.422-3.025
						c9.401-7.099,19.604-13.328,29.471-19.353c4.123-2.517,8.385-5.119,12.523-7.747c1.005-0.638,2.34-0.342,2.98,0.666
						c0.638,1.006,0.34,2.34-0.666,2.98c-4.169,2.647-8.448,5.259-12.586,7.786c-9.778,5.97-19.888,12.143-29.118,19.114
						C51.331,102.236,50.873,102.378,50.42,102.378z"/>
				</g>
			</g>
			<g>
				<g>
					<path style="fill:#525D7D;" d="M51.23,122.898c-0.684,0-1.358-0.325-1.777-0.931c-0.679-0.98-0.434-2.325,0.547-3.004
						c8.164-5.652,16.539-11.11,24.637-16.387c5.845-3.808,11.889-7.746,17.774-11.707c0.988-0.666,2.332-0.403,2.997,0.585
						c0.666,0.99,0.403,2.332-0.585,2.997c-5.914,3.979-11.97,7.926-17.828,11.744c-8.074,5.261-16.422,10.701-24.538,16.319
						C52.083,122.774,51.654,122.898,51.23,122.898z"/>
				</g>
			</g>
			<g>
				<g>
					<path style="fill:#525D7D;" d="M67.7,132.346c-0.722,0-1.429-0.364-1.839-1.025c-0.627-1.015-0.312-2.345,0.703-2.972
						c5.003-3.09,9.962-6.587,14.758-9.97c3.955-2.79,8.046-5.674,12.201-8.365c0.999-0.645,2.339-0.363,2.987,0.64
						c0.647,1.002,0.361,2.339-0.64,2.987c-4.083,2.643-8.139,5.502-12.06,8.268c-4.848,3.42-9.862,6.955-14.977,10.115
						C68.48,132.242,68.088,132.346,67.7,132.346z"/>
				</g>
			</g>
			<g>
				<g>
					<path style="fill:#525D7D;" d="M137.891,75.57c-0.267,0-0.538-0.049-0.801-0.155c-8.674-3.469-16.218-8.742-22.608-13.411
						c-0.963-0.703-1.174-2.054-0.47-3.016c0.704-0.966,2.055-1.174,3.016-0.469c6.178,4.513,13.456,9.605,21.664,12.888
						c1.108,0.443,1.646,1.699,1.203,2.806C139.559,75.057,138.748,75.57,137.891,75.57z"/>
				</g>
			</g>
			<g>
				<g>
					<path style="fill:#525D7D;" d="M139.269,99.034c-0.422,0-0.846-0.122-1.22-0.378c-6.834-4.691-14.087-9.107-21.101-13.38
						c-7.068-4.304-14.377-8.756-21.312-13.517c-0.984-0.675-1.233-2.019-0.558-3.001c0.673-0.984,2.02-1.233,3.001-0.558
						c6.838,4.694,14.097,9.113,21.115,13.389c7.063,4.301,14.367,8.75,21.298,13.507c0.984,0.673,1.233,2.018,0.558,3.001
						C140.632,98.707,139.956,99.034,139.269,99.034z"/>
				</g>
			</g>
			<g>
				<g>
					<path style="fill:#525D7D;" d="M140.059,120.157c-0.343,0-0.692-0.081-1.015-0.254c-10.296-5.49-24.008-14.307-33.082-20.14
						c-4.658-2.995-8.338-5.361-9.562-5.998c-1.057-0.551-1.469-1.854-0.919-2.913c0.551-1.058,1.854-1.47,2.912-0.919
						c1.4,0.728,4.968,3.022,9.904,6.197c9.014,5.795,22.638,14.554,32.779,19.963c1.051,0.561,1.449,1.868,0.888,2.921
						C141.577,119.742,140.831,120.157,140.059,120.157z"/>
				</g>
			</g>
			<g>
				<g>
					<path style="fill:#525D7D;" d="M120.885,134.507c-0.47,0-0.942-0.152-1.338-0.467c-4.466-3.535-8.441-7.408-12.287-11.152
						c-1.857-1.809-3.724-3.627-5.662-5.429c-0.606-0.561-1.331-1.075-2.099-1.619c-1.025-0.727-2.083-1.479-3.09-2.485
						c-0.843-0.843-0.843-2.21,0-3.053c0.843-0.843,2.21-0.843,3.053,0c0.749,0.748,1.617,1.364,2.536,2.016
						c0.848,0.602,1.723,1.223,2.537,1.978c1.965,1.825,3.856,3.667,5.738,5.499c3.94,3.839,7.662,7.464,11.952,10.861
						c0.936,0.739,1.093,2.097,0.353,3.032C122.153,134.226,121.521,134.507,120.885,134.507z"/>
				</g>
			</g>
		</g>
	</g>
</g>
<g id="Layer_1">
</g>
</svg>
