<?xml version="1.0" encoding="iso-8859-1"?>
<!-- Generator: Adobe Illustrator 21.0.2, SVG Export Plug-In . SVG Version: 6.00 Build 0)  -->
<svg version="1.1" xmlns="http://www.w3.org/2000/svg" xmlns:xlink="http://www.w3.org/1999/xlink" x="0px" y="0px"
	 viewBox="0 0 218.225 142.72" style="enable-background:new 0 0 218.225 142.72;" xml:space="preserve">
<g id="_x33_2">
	<g>
		<g>
			<path style="fill:#E0DFE6;" d="M169.247,126.448c-6.261-2.366-13.531-3.444-20.179-2.219c-3.537,0.652-7.29,3.375-10.832,3.415
				c-3.088,0.034-4.323-2.491-6.865-4.135c-4.884-3.158-10.121-2.399-14.985,0.406c-7.44,4.29-12.461,5.069-18.887-1.383
				c-3.896-3.912-7.72-5.314-12.969-2.782c-5.504,2.655-12.924,10.151-19.307,5.293c-3.423-2.606-4.093-7.262-9.392-6.769
				c-0.449,0.042-0.876,0.138-1.289,0.268c-0.913-0.84-2.197-1.372-3.891-1.348c-2.63,0.037-5.129-0.299-7.667-1.01
				c-2.658-0.745-4.828-2.216-7.326-3.295c-2.679-1.157-5.325,1.221-3.993,3.993c1.175,2.445,3.089,4.544,5.366,6.286
				c-0.139,0.227-0.268,0.466-0.376,0.726c-0.196,0.475-0.421,1.072-0.692,1.659c-1.047,1.025-2.007,2.108-2.869,3.219
				c-0.136,0.163-0.274,0.321-0.388,0.497c-0.058,0.079-0.126,0.155-0.183,0.234c-0.98,1.805-0.943,4.12,0.414,5.878
				c2.033,2.635,5.482,2.588,7.899,0.536c1.377-1.17,2.689-2.224,4.255-3.21c1.724-1.086,3.612-1.823,5.368-2.838
				c0.573-0.332,1.014-0.732,1.398-1.156c1.419-0.3,2.511-1.128,3.252-2.212c0.584,0.942,0.626,2.602,1.324,3.88
				c1.315,2.41,3.623,4.243,6.021,5.476c5.348,2.749,11.348,2.079,16.743-0.087c2.992-1.201,5.586-2.998,8.406-4.503
				c1.201-0.641,1.387-0.911,1.409-0.971c0.001,0.036,0.048,0.15,0.436,0.288c0.779,0.278,2.801,2.91,3.419,3.411
				c4.218,3.419,9.689,5.265,15.119,5.206c2.974-0.032,5.988-0.717,8.694-1.919c3.175-1.41,5.929-4.434,9.373-2.748
				c2.491,1.219,3.87,3.628,6.671,4.621c2.589,0.918,5.516,1.008,8.199,0.357c9.553-2.317,15.382-7.043,25.681-3.477
				C172.707,138.146,175.148,128.677,169.247,126.448z"/>
		</g>
		<g>
			<path style="fill:#E0DFE6;" d="M208.8,78.085c-4.119,5.715-7.105,12.02-9.53,18.62c-1.233,3.357,1.067,5.862,3.869,6.637
				c-4.297,8.759-11.209,15.569-18.81,22.393c-6.022,5.407,1.911,15.922,8.731,11.315c13.653-9.222,19.098-25.729,18.014-41.53
				c1.292-4.531,2.945-8.926,4.891-13.246C218.162,77.399,211.946,73.719,208.8,78.085z"/>
		</g>
		<g>
			<path style="fill:#E0DFE6;" d="M193.961,67.455c-1.187-7.583,1.077-15.266-5.354-21.128c-5.543-5.053-20.344-0.563-17.928-12.232
				c0.651-3.142-3.745-5.391-5.417-2.284c-1.633,3.034-2.041,7.031-1.422,10.818c-9.584-0.225-19.564,2.01-29.172,2.476
				c-10.013,0.485-20.059,0.849-30.069,0.284c-2.725-0.154-3.419,4.399-0.655,4.837c10.245,1.621,20.361,3.305,30.723,3.99
				c10.214,0.675,21.58,1.94,31.623-0.294c1.174-0.261,2.069-0.792,2.728-1.477c2.018,1.391,4.247,1.441,7.061,2.162
				c3.867,0.99,4.881,0.974,5.019,4.946c0.068,1.975-0.091,3.966-0.228,5.957c-15.616,0.617-31.242,1.075-46.868,1.303
				c-15.291,0.223-30.78,0.084-45.961,2.137c-0.175,0.024-0.336,0.069-0.492,0.119c0.309-2.389,0.577-4.786,0.891-7.177
				c0.129-0.352,0.26-0.704,0.339-1.117c0.376-1.964,0.975-4.393,1.569-7.045c1.955,0.716,4.448,0.568,6.326-0.087
				c7.783-2.712,3.132-14.21-4.427-10.501c0.836-0.41,0.538-0.53-0.105-0.579c0.358-5.737-0.544-11.129-4.603-14.231
				c-1.709-1.306-3.691-1.908-5.822-2.013c-2.02-0.099-5.184,1.23-6.329,0.351c-1.307-1.003-2.702-6.583-3.395-8.152
				c-1.643-3.721-3.262-7.467-5.169-11.058c-1.761-3.316-6.036-0.814-5.584,2.354c0.909,6.373,2.377,12.722,3.916,18.975
				c0.938,3.808,1.774,7.666,5.685,9.5c1.401,0.657,2.985,0.956,4.542,0.913c1.122-0.119,2.233-0.305,3.334-0.557
				c2.037-0.74,2.414-0.732,1.133,0.025c0.78,1.451-0.784,5.591-1.136,7.197c-0.115-0.386-0.228-0.762-0.334-1.109
				c-1.356-4.473-6.373-4.834-9.246-2.712c-0.542-0.185-1.12-0.342-1.777-0.438c-11.385-1.664-23.829-1.109-35.355-1.609
				c-5.791-0.251-11.579-0.278-17.375-0.321c-3.561-0.027-8.203-0.791-11.079,1.845c-5.237,4.801-2.122,15.122,0.888,21.516
				c-0.432,0.524-0.576,1.24-0.102,1.932c3.914,5.71,10.873,6.671,17.356,7.034c10.448,0.584,21.056-0.001,31.512-0.208
				c5.067-0.101,10.134-0.201,15.201-0.302c3.255-0.065,7.073,0.278,9.712-2c0.369-0.319,0.696-0.671,0.992-1.046
				c0.272,2.288,0.653,4.458,1.128,6.384c0.757,3.072,5.79,3.274,6.42,0c0.005-0.027,0.009-0.054,0.014-0.081
				c0.365,0.349,0.819,0.607,1.371,0.709c30.472,5.6,63.112,3.292,93.924,2.323c1.991-0.063,3.479-0.896,4.47-2.099
				C190.414,76.024,194.853,73.15,193.961,67.455z M42.127,52.064c-0.122,2.865-0.243,5.731-0.365,8.597
				c-0.018,0.415,0.014,0.801,0.081,1.162c-1.294,0.027-2.578,0.064-3.84,0.13c-1.704,0.088-3.412,0.21-5.12,0.343
				c0.032-0.773-0.091-1.577-0.543-2.166c-0.795-1.034-1.589-2.069-2.384-3.103c-0.681-0.887-1.328-1.576-2.453-1.886
				c-0.982-0.27-2.29-0.148-3.162,0.414c-1.711,1.103-2.829,3.762-1.472,5.615c0.437,0.597,0.874,1.194,1.311,1.792
				c-2.833,0.181-5.663,0.295-8.484,0.242c0.001-0.054,0.013-0.103,0.012-0.157c-0.052-3.967-0.224-8.227-1.176-12.208
				c3.915,0.104,7.998,0.655,11.68,0.683c5.339,0.041,10.683-0.115,16.021-0.258C42.18,51.524,42.138,51.79,42.127,52.064z
				 M65.675,51.205c-1.55-0.076-1.934,0.845-1.152,2.765c-0.049,1.71-0.098,3.42-0.147,5.13c-0.026,0.908,0.173,1.674,0.507,2.327
				c-4.339,0.344-8.812,0.37-13.251,0.36c0.062-0.35,0.087-0.726,0.07-1.127c-0.122-2.866-0.243-5.731-0.365-8.597
				c-0.014-0.34-0.069-0.67-0.149-0.992c3.256-0.05,6.513-0.082,9.774-0.077L63.858,51C67.103,50.828,67.709,50.896,65.675,51.205z"
				/>
		</g>
		<g>
			<path style="fill:#E0DFE6;" d="M187.896,92.709c-0.628-0.075-1.298-0.032-1.966,0.087c-0.256-0.603-0.615-1.176-1.105-1.681
				c-1.098-1.133-2.581-1.629-4.1-1.527c0.143-0.019,0.286-0.038,0.429-0.058c-0.056,0.006-0.11,0-0.166-0.004
				c-1.172-0.083-2.395,0.476-3.287,1.165c-0.168,0.129-0.305,0.268-0.448,0.405c-0.31,0.098-0.613,0.235-0.903,0.422
				c-0.915,0.59-1.59,1.348-2.015,2.355c-0.964,2.284-0.083,4.835,2.015,6.15c1.014,0.635,2.181,0.93,3.354,0.932
				c-0.341,0.452-0.798,0.837-1.465,1.105c-1.824,0.731-4.117,0.128-5.947-0.262c-1.401-0.299-3.21,0.671-3.059,2.33
				c0.531,5.832,6.382,9.042,11.876,8.528c6.835-0.64,12.218-6.851,12.401-13.589C193.597,95.88,190.983,93.076,187.896,92.709z"/>
		</g>
		<g>
			<path style="fill:#E0DFE6;" d="M62.837,29.014c-2.722-4.959-4.473-10.102-6.217-15.461c-0.786-2.415-2.864-8.018-6.549-5.935
				c-3.846,2.175-3.461,7.543-3.216,11.4c0.333,5.247,1.414,10.48,2.896,15.512C52.663,44.406,67.913,38.26,62.837,29.014z"/>
		</g>
		<g>
			<g>
				<g>
					<path style="fill:#525D7D;" d="M169.658,140.299c-0.775,0-1.524-0.419-1.912-1.151c-0.555-1.056-0.152-2.361,0.902-2.918
						c28.636-15.103,30.552-24.136,33.451-37.809c1.569-7.399,3.489-16.456,10.173-28.177c-5.323-0.073-10.899-0.405-16.949-1.004
						c-1.285,1.268-2.599,2.499-3.878,3.695c-1.39,1.302-2.779,2.602-4.128,3.947c-0.377,0.375-0.877,0.599-1.407,0.628
						c-5.145,0.28-10.638,0.416-16.793,0.416c-7.294,0-13.487-0.16-20.043-0.33c-7.524-0.194-16.054-0.415-27.633-0.415
						c-6.186,0-12.347,0.048-18.505,0.097c-8.3,0.066-16.598,0.132-24.936,0.076c-1.181-0.008-2.137-0.963-2.145-2.144l-0.03-3.68
						c-0.027-3.094-0.052-6.171-0.052-9.265c0-11.334,0.571-16.241,1.03-20.182c0.01-0.089,0.021-0.176,0.031-0.263
						c-4.627,0.053-9.239,0.086-13.847,0.118c-14.531,0.101-29.559,0.205-44.473,1.023c-3.248,0.177-6.498,0.475-9.643,0.763
						c-1.505,0.138-3.008,0.275-4.513,0.401c0.606,26.18,5.164,57.95,32.425,76.703c0.751,0.516,1.096,1.449,0.863,2.331
						c-0.77,2.907-1.483,6.044-1.483,9.291c0,0.426,0.013,0.855,0.038,1.288c0.066,1.191-0.845,2.21-2.035,2.277
						c-1.181,0.038-2.208-0.845-2.277-2.035c-0.028-0.514-0.044-1.022-0.044-1.529c0-3.177,0.564-6.157,1.251-8.936
						C0.929,100.383,0.28,59.677,0,42.17c-0.018-1.144,0.859-2.103,1.999-2.189c2.163-0.16,4.318-0.359,6.479-0.555
						c3.182-0.292,6.473-0.593,9.8-0.776c15.016-0.824,30.096-0.928,44.68-1.029c5.407-0.038,10.822-0.074,16.259-0.148
						c0.631,0,1.207,0.253,1.616,0.697c0.416,0.451,0.62,1.058,0.561,1.67c-0.089,0.911-0.193,1.801-0.302,2.742
						c-0.446,3.832-1.001,8.6-1.001,19.683c0,3.081,0.025,6.147,0.052,9.228l0.013,1.553c7.597,0.028,15.172-0.028,22.746-0.087
						c6.168-0.049,12.342-0.097,18.539-0.097c11.636,0,20.193,0.221,27.744,0.416c6.528,0.17,12.694,0.329,19.932,0.329
						c5.752,0,10.911-0.119,15.74-0.367c1.196-1.172,2.416-2.315,3.638-3.459c1.494-1.397,3.039-2.844,4.494-4.312
						c0.46-0.465,1.106-0.694,1.754-0.628c7.187,0.741,13.677,1.101,19.842,1.101l1.463-0.007c0.855-0.013,1.517,0.415,1.901,1.102
						c0.386,0.686,0.367,1.528-0.048,2.197c-7.89,12.693-9.849,21.932-11.577,30.082c-3.039,14.331-5.235,24.684-35.66,40.734
						C170.342,140.218,169.998,140.299,169.658,140.299z"/>
				</g>
			</g>
			<g>
				<g>
					<path style="fill:#525D7D;" d="M180.172,103.261c-0.281,0-0.562-0.014-0.842-0.045c-3.542-0.388-7.305-3.769-7.208-8.555
						c0.063-3.203,1.976-6.032,4.875-7.208c1.473-0.597,3.088-0.862,4.679-0.748c4.08,0.278,6.999,2.803,7.433,6.429
						c0.325,2.695-0.62,5.381-2.588,7.37C184.778,102.265,182.456,103.261,180.172,103.261z M180.972,90.999
						c-0.798,0-1.619,0.159-2.35,0.455c-1.317,0.534-2.152,1.796-2.182,3.293c-0.049,2.354,1.924,4.019,3.361,4.176
						c1.233,0.143,2.627-0.423,3.652-1.458c0.609-0.614,1.595-1.929,1.369-3.816c-0.261-2.186-2.495-2.572-3.442-2.637
						C181.244,91.004,181.108,90.999,180.972,90.999z"/>
				</g>
			</g>
			<g>
				<g>
					<path style="fill:#525D7D;" d="M25.858,42.611c-1.053,0-1.975-0.77-2.132-1.843c-2.031-13.739-4.528-26.19-7.633-38.065
						c-0.18-0.686-0.011-1.417,0.451-1.954c0.461-0.537,1.165-0.804,1.862-0.741C30.146,1.24,38.551,1.908,49.338,1.908
						c2.927,0,5.615-0.053,8.22-0.163c1.016-0.028,1.986,0.682,2.203,1.713c1.829,8.708,5.537,24.181,8.811,35.707
						c0.325,1.147-0.34,2.342-1.487,2.668c-1.156,0.319-2.343-0.342-2.668-1.487c-3.087-10.873-6.557-25.227-8.501-34.22
						c-2.097,0.067-4.266,0.1-6.577,0.1c-10.003,0-17.967-0.561-28.295-1.604c2.79,11.121,5.071,22.774,6.954,35.513
						c0.176,1.181-0.639,2.277-1.819,2.451C26.069,42.604,25.964,42.611,25.858,42.611z"/>
				</g>
			</g>
			<g>
				<g>
					<path style="fill:#525D7D;" d="M22.623,20.547c-1.078,0-2.01-0.805-2.141-1.903c-0.142-1.184,0.703-2.258,1.888-2.399
						c2.948-0.353,6.195-0.517,10.219-0.517c2.047,0,4.099,0.039,6.151,0.08c2.025,0.039,4.05,0.079,6.068,0.079
						c3.849,0,6.933-0.155,9.707-0.486c1.164-0.148,2.259,0.703,2.399,1.888c0.142,1.183-0.703,2.257-1.888,2.399
						c-2.948,0.353-6.195,0.517-10.219,0.517c-2.047,0-4.099-0.039-6.151-0.08c-2.026-0.039-4.05-0.079-6.068-0.079
						c-3.849,0-6.933,0.155-9.707,0.486C22.795,20.543,22.708,20.547,22.623,20.547z"/>
				</g>
			</g>
			<g>
				<g>
					<path style="fill:#525D7D;" d="M23.047,27.738c-1.151,0-2.107-0.908-2.156-2.069c-0.049-1.192,0.876-2.197,2.068-2.248
						c5.098-0.212,10.378-0.321,15.484-0.424c5.083-0.104,10.338-0.211,15.392-0.422c1.247-0.075,2.197,0.877,2.248,2.068
						c0.049,1.192-0.876,2.197-2.068,2.248c-5.098,0.212-10.378,0.321-15.484,0.425c-5.083,0.104-10.339,0.211-15.392,0.422
						C23.108,27.738,23.077,27.738,23.047,27.738z"/>
				</g>
			</g>
			<g>
				<g>
					<path style="fill:#525D7D;" d="M36.464,74.726c-6.924,0-13.938-0.261-20.723-0.514c-3.629-0.135-7.271-0.271-10.939-0.371
						c-1.192-0.032-2.131-1.025-2.099-2.217c0.031-1.171,0.991-2.1,2.156-2.1c3.74,0.1,7.398,0.236,11.043,0.373
						c6.744,0.252,13.717,0.512,20.562,0.512c6.131,0,13.112-0.351,16.467-0.521c1.047-0.052,1.729-0.084,1.907-0.084
						c2.418,0,4.838,0.142,7.179,0.278c2.273,0.134,4.623,0.271,6.904,0.271c2.302,0,4.325-0.142,6.181-0.434
						c1.172-0.187,2.283,0.618,2.468,1.796c0.186,1.178-0.618,2.283-1.796,2.468c-2.08,0.329-4.322,0.488-6.853,0.488
						c-2.408,0-4.823-0.142-7.157-0.278c-2.279-0.134-4.634-0.271-6.926-0.271c-0.177,0.001-0.78,0.034-1.691,0.08
						C49.758,74.37,42.705,74.726,36.464,74.726z"/>
				</g>
			</g>
			<g>
				<g>
					<path style="fill:#525D7D;" d="M21.865,63.413c-7.457,0-8.262-4.705-8.262-6.727c0-3.947,1.754-5.225,3.551-6.196
						c0.405-0.218,0.753-0.406,0.983-0.637c0.405-0.405,0.954-0.633,1.528-0.633c5.447,0,8.996,2.342,9.738,6.425
						c0.079,0.433,0.118,0.853,0.118,1.252C29.52,59.525,27.087,63.413,21.865,63.413z M20.419,53.558
						c-0.429,0.308-0.849,0.534-1.213,0.731c-1.012,0.547-1.285,0.694-1.285,2.397c0,0.96,0,2.409,3.944,2.409
						c2.721,0,3.337-1.855,3.337-2.197c0-0.163-0.02-0.326-0.048-0.482C24.768,54.298,22.51,53.669,20.419,53.558z"/>
				</g>
			</g>
			<g>
				<g>
					<path style="fill:#525D7D;" d="M39.85,62.778c-3.851,0-8.16-3.071-8.16-7.181c0-2.719,2.423-6.346,5.434-6.778
						c1.267-0.177,2.397,0.02,3.331,0.195c0.589,0.111,1.098,0.207,1.626,0.207c2.733,0,5.042,2.789,5.042,6.091
						C47.124,59.567,43.997,62.778,39.85,62.778z M37.735,53.094c-0.595,0.084-1.726,1.594-1.726,2.502
						c0,1.338,2.047,2.863,3.842,2.863c1.74,0,2.956-1.295,2.956-3.149c0-0.997-0.544-1.698-0.776-1.78
						c-0.862,0.001-1.674-0.142-2.374-0.274C38.931,53.121,38.371,53,37.735,53.094z"/>
				</g>
			</g>
			<g>
				<g>
					<path style="fill:#525D7D;" d="M56.808,63.365c-3.979,0-6.979-3.174-6.979-7.382c0-3.374,1.902-6.223,4.731-7.09
						c0.479-0.148,0.977-0.222,1.477-0.222c2.728,0,7.97,3.264,7.97,7.73C64.007,60.761,60.347,63.365,56.808,63.365z
						 M56.009,52.988c-0.045,0.001-0.112,0.011-0.181,0.032c-1.155,0.354-1.681,1.784-1.681,2.963c0,1.525,0.822,3.064,2.661,3.064
						c1.397,0,2.882-0.928,2.882-2.647C59.689,54.732,56.885,53.063,56.009,52.988z"/>
				</g>
			</g>
			<g>
				<g>
					<path style="fill:#525D7D;" d="M180.506,77.746c-1.172,0-2.135-0.94-2.158-2.118c-0.063-3.381-0.18-6.736-0.295-10.084
						c-0.135-3.872-0.273-7.855-0.325-11.838c-5.465,0.427-14.678,0.845-34.129,0.845c-10.011,0-20.178-0.149-30.01-0.294
						c-7.599-0.112-15.433-0.228-23.197-0.274c0.294,7.53,0.353,14.903,0.368,21.221c0.003,1.192-0.962,2.162-2.153,2.165
						c-1.196,0-2.162-0.963-2.165-2.153c-0.017-6.907-0.086-15.077-0.458-23.304c-0.027-0.592,0.19-1.167,0.599-1.594
						c0.406-0.423,0.97-0.663,1.558-0.663c8.532,0.035,17.164,0.163,25.512,0.285c9.817,0.145,19.968,0.294,29.947,0.294
						c22.607,0,31.41-0.586,36.064-1.027c0.602-0.065,1.205,0.143,1.654,0.55c0.448,0.408,0.706,0.985,0.708,1.591
						c0.017,4.695,0.181,9.45,0.342,14.048c0.117,3.372,0.233,6.75,0.298,10.153C182.689,76.739,181.741,77.724,180.506,77.746z"/>
				</g>
			</g>
			<g>
				<g>
					<path style="fill:#525D7D;" d="M165.154,54.307c-1.124,0-2.073-0.873-2.151-2.012c-0.471-6.893-0.893-13.178-1.224-19.444
						c-10.558,0.122-21.277-0.392-31.637-0.878c-8.165-0.382-16.586-0.776-24.894-0.869c0.049,1.974,0.11,3.947,0.17,5.921
						c0.133,4.339,0.271,8.826,0.271,13.255l-0.007,1.691c-0.009,1.186-0.974,2.142-2.159,2.142
						c-1.209-0.008-2.168-0.983-2.159-2.176l0.007-1.657c0-4.363-0.136-8.816-0.27-13.122c-0.083-2.73-0.167-5.459-0.219-8.189
						c-0.011-0.58,0.214-1.143,0.621-1.556c0.406-0.412,0.96-0.644,1.538-0.644c9.123,0.039,18.365,0.472,27.303,0.891
						c10.974,0.514,22.324,1.042,33.446,0.845c1.102,0.008,2.137,0.887,2.194,2.052c0.344,6.927,0.804,13.809,1.326,21.443
						c0.081,1.191-0.817,2.221-2.006,2.301C165.254,54.306,165.205,54.307,165.154,54.307z"/>
				</g>
			</g>
			<g>
				<g>
					<path style="fill:#525D7D;" d="M134.764,52.158c-1.126,0-2.075-0.874-2.152-2.016l-0.089-1.321
						c-0.401-5.992-0.817-12.19-0.817-18.166c0-1.192,0.967-2.159,2.159-2.159c1.192,0,2.159,0.967,2.159,2.159
						c0,5.832,0.41,11.956,0.808,17.878l0.089,1.323c0.079,1.189-0.821,2.218-2.012,2.298
						C134.861,52.157,134.813,52.158,134.764,52.158z"/>
				</g>
			</g>
			<g>
				<g>
					<path style="fill:#525D7D;" d="M118.639,73.842c-1.192,0-2.159-0.967-2.159-2.159c0-6.203,0-12.617-0.419-18.89
						c-0.079-1.189,0.821-2.218,2.012-2.298c1.161-0.073,2.217,0.819,2.298,2.011c0.427,6.417,0.427,12.904,0.427,19.177
						C120.798,72.874,119.831,73.842,118.639,73.842z"/>
				</g>
			</g>
			<g>
				<g>
					<path style="fill:#525D7D;" d="M151.63,75.96c-1.192,0-2.159-0.967-2.159-2.159c0-6.689,0-13.607,0.427-20.441
						c0.075-1.189,1.081-2.085,2.29-2.02c1.191,0.074,2.094,1.099,2.02,2.29c-0.419,6.699-0.419,13.548-0.419,20.171
						C153.789,74.993,152.822,75.96,151.63,75.96z"/>
				</g>
			</g>
			<g>
				<g>
					<path style="fill:#525D7D;" d="M137.809,142.72c-5.551,0-10.964-2.534-14.886-6.881c-4.332,3.718-9.354,5.531-15.282,5.531
						c-9.037,0-14.318-4.848-16.994-8.452c-5.008,4.715-10.216,7.013-15.854,7.013c-6.754,0-13.217-3.545-17.473-9.425
						c-5.95,6.758-14.17,10.714-22.516,10.714c-7.073,0-13.207-2.897-17.271-8.157c-0.728-0.943-0.554-2.3,0.389-3.029
						c0.945-0.725,2.298-0.555,3.029,0.389c3.227,4.178,8.147,6.479,13.853,6.479c7.928,0,15.771-4.252,20.981-11.373
						c0.436-0.596,1.143-0.928,1.882-0.88c0.737,0.048,1.397,0.468,1.753,1.115c3.389,6.168,9.137,9.849,15.373,9.849
						c5.171,0,9.818-2.409,14.624-7.583c0.47-0.506,1.15-0.752,1.841-0.675c0.686,0.083,1.29,0.491,1.626,1.094
						c1.788,3.213,6.081,8.604,14.756,8.604c5.601,0,10.036-1.869,13.954-5.884c0.445-0.455,1.077-0.687,1.705-0.645
						c0.635,0.048,1.219,0.374,1.591,0.891c3.156,4.376,7.984,6.987,12.918,6.987c4.269,0,12.239-3.981,17.298-9.907
						c0.429-0.503,1.063-0.789,1.728-0.756c0.661,0.027,1.273,0.354,1.663,0.89c1.313,1.812,6.286,7.724,15.129,7.724
						c5.15,0,9.726-2.151,14.571-4.428c0.623-0.294,1.244-0.586,1.865-0.873c1.087-0.5,2.364-0.025,2.866,1.056
						c0.499,1.084,0.027,2.366-1.056,2.866c-0.613,0.283-1.226,0.571-1.839,0.859c-5.062,2.378-10.294,4.838-16.408,4.838
						c-8.559,0-14.173-4.498-16.967-7.505C151.153,138.653,143.278,142.72,137.809,142.72z"/>
				</g>
			</g>
		</g>
	</g>
</g>
<g id="Layer_1">
</g>
</svg>
