<?xml version="1.0" encoding="iso-8859-1"?>
<!-- Generator: Adobe Illustrator 21.0.2, SVG Export Plug-In . SVG Version: 6.00 Build 0)  -->
<svg version="1.1" xmlns="http://www.w3.org/2000/svg" xmlns:xlink="http://www.w3.org/1999/xlink" x="0px" y="0px"
	 viewBox="0 0 168.635 204.804" style="enable-background:new 0 0 168.635 204.804;" xml:space="preserve">
<g id="_x33_3">
	<g>
		<g>
			<path style="fill:#E0DFE6;" d="M120.083,29.558c-1.84-2.592-3.314-5.166-4.222-8.223c-0.882-2.967-0.897-6.1-1.841-9.029
				c-0.872-2.706-4.271-3.368-6.079-1.348c-0.982-0.603-2.227-0.926-3.771-0.786c-8.66,0.789-17.309,1.785-25.971,2.59
				c-7.282,0.678-14.797,0.967-21.583,3.845c-1.419,0.602-1.263,2.892,0,3.544c3.694,1.906,7.907,3.123,12.361,3.878
				c-2.654,1.566-2.347,6.146,0.948,6.984c5.746,1.462,12.113,1.292,18.006,1.687c4.595,0.308,6.126-4.728,4.622-8.021
				c4.049-0.286,7.944-0.694,11.509-1.089c-0.087,0.05-0.176,0.096-0.261,0.149c0.286-0.176-0.647,0.458-1.316,1.003
				c-0.053,0.019-0.101,0.035-0.149,0.052c-1.01-0.178-1.702-0.198-2.738,0.024c-1.424,0.304-2.752,1.663-3.073,3.073
				c-0.978,4.293,3.109,7.973,7.018,8.76c1.451,0.292,2.954,0.372,4.408,0.151C112.309,44.261,125.442,37.11,120.083,29.558z"/>
		</g>
		<g>
			<path style="fill:#E0DFE6;" d="M107.139,104.549c-1.662-7.413-13.061-5.647-13.077,1.77c-0.001,0.334-0.004,0.664-0.009,0.993
				c-2.854-1.044-6.391-0.12-7.892,3.959c-2.306,6.268-8.73,4.858-13.907,4.544c-1.576-0.096-3.005,1.721-2.462,3.232
				c0.433,1.204,1.085,2.243,1.882,3.141c0.025,9.655,14.51,10.158,20.978,7.9C102.973,126.485,109.547,115.291,107.139,104.549z"/>
		</g>
		<g>
			<path style="fill:#E0DFE6;" d="M141.711,86.203c-2.82-7.419-7.833-14.005-13.836-19.17c-6.089-5.24-11.087-11.024-18.942-13.512
				c-16.9-5.351-39.766-3.955-55.475,4.374C21.3,74.947,13.225,115.82,26.602,147.424c0.988,2.334,4.401,0.596,3.917-1.652
				c-6.137-28.505-3.407-64.101,25.369-79.479c13.644-7.291,31.591-7.357,46.228-3.366c6.838,1.864,15.899,3.846,21.118,8.745
				c5.247,4.925,8.315,11.146,11.309,17.552C136.404,93.205,143.295,90.37,141.711,86.203z"/>
		</g>
		<g>
			<path style="fill:#E0DFE6;" d="M153.798,67.157c0.589-0.216,1.135-0.548,1.578-1.014c1.894-1.993,3.303-4.37,4.82-6.652
				c2.39-3.596-0.019-8.63-3.951-9.713c-4.333-1.193-8.032,2.144-8.37,6.376c-0.096,1.208-0.227,2.417-0.301,3.627
				c-6.124-3.117-14.158,2.916-10.334,10.608c6.713,13.505,11.978,26.916,14.012,41.323c-1.5,16.54-5.228,33.008-13.19,46.434
				c-0.909,1.533-1.264,3.087-1.206,4.565c-4.099,4.136-9.583,7.059-15.128,9.848c-11.533,5.801-23.925,9.894-36.772,11.426
				c-11.908,1.42-23.717,0.068-34.988-4.07c-5.216-1.915-10.356-4.623-14.84-7.903c-4.529-3.313-8.356-6.626-14.027-7.668
				c-1.437-0.264-2.346,1.588-1.019,2.417c1.776,1.109,3.346,2.555,4.821,4.159c-0.075,0.133-0.151,0.267-0.226,0.4
				c-0.657,1.163-0.689,2.613,0,3.774c24.139,40.668,81.484,35.315,114.954,9.526c18.019-13.884,27.818-33.289,28.881-55.999
				C169.473,108.056,164.888,84.987,153.798,67.157z"/>
		</g>
		<g>
			<path style="fill:#E0DFE6;" d="M34.75,40.149c-0.57,0.032-1.133,0.029-1.698,0.002c0.205-0.032-1.269-0.284-1.502-0.334
				c-0.292-0.108-0.444-0.159-0.488-0.167c-0.21-0.102-0.423-0.201-0.627-0.314c-0.629-0.348-1.243-0.715-1.873-1.062
				c-3.623-1.994-7.988,0.965-7.953,4.611c-4.029,4.315-7.297,12.339-4.752,17.877c1.124,2.445,4.657,3.051,6.817,1.788
				c0.379-0.222,0.703-0.504,1-0.81c1.773-1.451,2.587-3.982,3.776-5.929c0.615-1.007,1.777-2.366,2.876-3.704
				c0.898,0.292,1.806,0.532,2.714,0.672c3.799,0.584,7.464-1.179,8.024-5.345C41.55,43.815,38.669,39.932,34.75,40.149z"/>
		</g>
		<g>
			<path style="fill:#E0DFE6;" d="M148.19,50.453c-0.556-0.9-1.218-1.657-1.961-2.4c-1.52-1.52-4.304-1.633-5.804,0
				c-1.504,1.638-1.622,4.182,0,5.804c0.744,0.744,1.5,1.405,2.4,1.961c1.422,0.879,3.604,0.638,4.752-0.613
				C148.738,53.94,149.131,51.975,148.19,50.453z"/>
		</g>
		<path style="fill:#E0DFE6;" d="M41.395,117.072c-1.564-1.564-3.545-1.859-5.634-1.489c-0.893,0.158-1.725,0.46-2.583,0.747
			c-2.028,0.679-3.784,2.567-3.682,4.837c0.103,2.299,1.504,4.108,3.682,4.837c0.858,0.287,1.691,0.59,2.583,0.748
			c2.018,0.357,4.158,0.118,5.634-1.489c1.04-1.133,1.696-2.526,1.696-4.095C43.092,119.682,42.445,118.122,41.395,117.072z"/>
		<path style="fill:#E0DFE6;" d="M87.6,159.668c-1.858-2.405-6.002-3.08-8.166-0.554c-0.322,0.375-0.652,0.739-1.012,1.078
			c-0.12,0.114-0.246,0.221-0.371,0.329c-0.32,0.208-0.631,0.428-0.965,0.616c-0.207,0.117-1.647,0.743-0.545,0.307
			c-2.157,0.854-3.626,2.62-3.299,5.053c0.278,2.07,2.241,4.23,4.523,3.993c2.97-0.308,5.791-1.11,8.301-2.784
			C88.779,165.898,89.684,162.366,87.6,159.668z"/>
		<path style="fill:#E0DFE6;" d="M137.054,116.896c-0.907-1.55-2.414-2.486-4.164-2.721c-1.777-0.239-3.499,0.278-4.788,1.568
			c-0.842,0.842-1.3,1.809-1.492,2.846c-0.266,0.29-0.503,0.604-0.667,0.885c-0.54,0.922-0.703,1.978-0.563,3.024
			c0.23,1.71,1.571,3.621,3.397,3.943c1.831,0.322,3.561,0.227,5.225-0.699c1.22-0.679,2.461-1.801,3.052-3.091
			c0.516-0.889,0.775-1.848,0.778-2.877C137.829,118.744,137.569,117.785,137.054,116.896z"/>
		<g>
			<path style="fill:#E0DFE6;" d="M95.219,68.805c-1.188-2.815-4.957-4.434-7.698-2.595c-1.732,1.163-3.434,2.339-5.103,3.591
				c-1.783,1.337-2.733,3.335-1.81,5.523c0.852,2.019,3.067,3.132,5.218,2.561c1.982-0.526,3.925-1.126,5.876-1.758
				C94.789,75.129,96.519,71.887,95.219,68.805z"/>
		</g>
		<g>
			<g>
				<g>
					<path style="fill:#525D7D;" d="M82.993,197.302c-44.448,0.001-82.412-37.262-82.986-81.544
						c-0.259-19.124,6.381-38.143,18.697-53.553c12.357-15.459,29.654-26.291,48.702-30.5c5.143-1.141,10.565-1.691,16.118-1.676
						c47.017,0.246,81.428,34.858,81.821,82.301c0.186,22.379-8.949,44.567-25.061,60.877
						c-15.264,15.452-35.487,24.008-56.944,24.093C83.226,197.301,83.108,197.302,82.993,197.302z M83.126,34.347
						c-5.1,0-10.072,0.53-14.785,1.576C31.339,44.093,3.819,78.391,4.325,115.701c0.543,41.967,36.535,77.28,78.668,77.283
						c0.111,0,0.219-0.001,0.33-0.001c20.3-0.08,39.439-8.179,53.889-22.809c15.311-15.499,23.991-36.568,23.815-57.805
						c-0.188-22.653-8.037-42.2-22.701-56.523C124.25,42.093,104.78,34.459,83.502,34.348
						C83.377,34.348,83.251,34.347,83.126,34.347z"/>
				</g>
			</g>
			<g>
				<g>
					<path style="fill:#525D7D;" d="M82.929,180.671c-35.612,0.001-66.03-29.856-66.489-65.334
						c-0.434-32.009,22.272-60.327,53.989-67.333c4.124-0.915,8.487-1.335,12.924-1.344c37.673,0.197,65.244,27.929,65.559,65.94
						c0.148,17.927-7.168,35.702-20.073,48.766c-12.232,12.381-28.437,19.237-45.633,19.305
						C83.115,180.671,83.021,180.671,82.929,180.671z M83.036,50.977c-4.026,0-7.952,0.419-11.674,1.244
						c-29.25,6.459-51.004,33.568-50.604,63.058c0.43,33.253,28.97,61.187,62.431,61.074c16.038-0.063,31.159-6.463,42.578-18.022
						c12.104-12.253,18.966-28.908,18.827-45.694c-0.294-35.544-26.06-61.474-61.263-61.658
						C83.232,50.978,83.135,50.977,83.036,50.977z"/>
				</g>
			</g>
			<g>
				<g>
					<path style="fill:#525D7D;" d="M20.513,65.56c-0.559,0-1.117-0.215-1.539-0.645c-4.283-4.356-8.259-9.187-11.767-13.451
						c-0.693-0.842-0.649-2.068,0.101-2.859c3.578-3.769,8.347-8.673,13.512-13.185c0.443-0.387,1.019-0.576,1.613-0.524
						c0.586,0.052,1.126,0.343,1.494,0.803c3.247,4.062,7.075,8.739,11.417,12.821c0.869,0.817,0.911,2.183,0.094,3.052
						c-0.816,0.87-2.183,0.912-3.052,0.094c-3.918-3.683-7.387-7.766-10.408-11.498c-3.791,3.43-7.321,7.003-10.223,10.031
						c3.243,3.931,6.609,7.94,10.295,11.689c0.836,0.851,0.825,2.217-0.025,3.053C21.607,65.354,21.06,65.56,20.513,65.56z"/>
				</g>
			</g>
			<g>
				<g>
					<path style="fill:#525D7D;" d="M145.824,63.06c-0.567,0-1.131-0.222-1.555-0.662c-0.827-0.859-0.801-2.225,0.058-3.053
						c2.742-2.64,5.61-5.087,8.552-7.526c-2.332-2.784-4.495-5.711-6.6-8.556c-0.425-0.575-0.85-1.148-1.274-1.72
						c-2.802,2.563-5.572,5.25-8.265,7.863l-1.301,1.262c-0.857,0.829-2.224,0.808-3.053-0.048c-0.83-0.856-0.808-2.224,0.048-3.053
						l1.299-1.259c3.284-3.188,6.681-6.483,10.147-9.567c0.451-0.401,1.043-0.594,1.647-0.535c0.599,0.059,1.147,0.365,1.51,0.846
						c0.91,1.203,1.811,2.422,2.715,3.643c2.48,3.354,5.045,6.823,7.818,9.956c0.388,0.439,0.581,1.018,0.535,1.601
						c-0.046,0.585-0.327,1.125-0.78,1.497c-3.47,2.855-6.846,5.669-10.002,8.708C146.903,62.859,146.363,63.06,145.824,63.06z"/>
				</g>
			</g>
			<g>
				<g>
					<path style="fill:#525D7D;" d="M89.531,25.446c-6.637,0-13.375-0.141-19.89-0.277c-4.15-0.087-8.3-0.174-12.45-0.226
						c-1.144-0.014-2.078-0.919-2.13-2.062c-0.25-5.587-0.55-12.943-0.656-20.3c-0.017-1.188,0.928-2.166,2.115-2.19
						C63,0.26,69.514,0.344,76.038,0.427c4.062,0.052,8.129,0.104,12.194,0.104c7.132,0,12.927-0.167,18.239-0.527
						c0.59-0.037,1.175,0.166,1.612,0.571c0.436,0.403,0.687,0.968,0.692,1.563c0.035,3.604,0.178,7.261,0.316,10.798
						c0.126,3.222,0.256,6.554,0.308,9.889c0.018,1.16-0.884,2.127-2.042,2.19C101.981,25.304,96.149,25.446,89.531,25.446z
						 M59.286,20.653c3.482,0.053,6.964,0.127,10.446,0.198c6.493,0.136,13.207,0.277,19.799,0.277
						c5.692,0,10.79-0.106,15.508-0.322c-0.063-2.592-0.164-5.181-0.263-7.703c-0.11-2.83-0.224-5.738-0.284-8.65
						c-4.792,0.27-10.028,0.396-16.26,0.396c-4.083,0-8.168-0.052-12.249-0.104c-5.754-0.074-11.5-0.152-17.223-0.073
						C58.87,10.382,59.084,15.993,59.286,20.653z"/>
				</g>
			</g>
			<g>
				<g>
					<path style="fill:#525D7D;" d="M69.337,33.606c-0.857,0-1.669-0.513-2.006-1.359c-0.566-1.417-0.631-2.847-0.631-3.798
						c0-0.606,0.031-1.217,0.062-1.827c0.027-0.527,0.056-1.051,0.056-1.566c0-0.565-0.035-1.005-0.111-1.386
						c-0.234-1.169,0.524-2.307,1.694-2.54c1.167-0.243,2.307,0.524,2.54,1.694c0.134,0.666,0.195,1.376,0.195,2.232
						c0,0.588-0.03,1.188-0.061,1.791c-0.028,0.534-0.057,1.071-0.057,1.602c0,0.96,0.1,1.638,0.323,2.198
						c0.442,1.108-0.098,2.363-1.205,2.806C69.875,33.557,69.604,33.606,69.337,33.606z"/>
				</g>
			</g>
			<g>
				<g>
					<path style="fill:#525D7D;" d="M94.964,33.093c-0.857,0-1.667-0.513-2.005-1.356c-0.567-1.415-0.633-2.757-0.633-3.642
						c0-0.559,0.031-1.118,0.063-1.677c0.027-0.477,0.056-0.953,0.056-1.43c0-0.519-0.035-0.938-0.111-1.318
						c-0.234-1.169,0.524-2.307,1.694-2.54c1.169-0.243,2.307,0.524,2.54,1.694c0.131,0.658,0.195,1.365,0.195,2.165
						c0,0.559-0.031,1.118-0.063,1.677c-0.027,0.477-0.056,0.953-0.056,1.43c0,0.85,0.1,1.479,0.323,2.037
						c0.443,1.108-0.095,2.364-1.202,2.807C95.503,33.044,95.231,33.093,94.964,33.093z"/>
				</g>
			</g>
			<g>
				<g>
					<path style="fill:#525D7D;" d="M83.273,126.982c-9.933,0.001-17.658-7.169-18.003-16.745
						c-0.175-4.866,1.676-9.554,5.213-13.196c3.688-3.797,8.798-6.001,13.931-5.923c0.221,0,0.441,0.007,0.66,0.018
						c7.521,0.474,15.669,6.507,15.995,16.761c0.165,5.17-1.658,10.011-5.133,13.63c-3.335,3.475-7.769,5.412-12.484,5.455
						C83.393,126.982,83.332,126.982,83.273,126.982z M84.298,95.436c-3.966,0-7.867,1.678-10.717,4.613
						c-2.709,2.79-4.129,6.354-3.996,10.033c0.259,7.194,6.135,12.582,13.691,12.582c0.046,0,0.091,0,0.137,0
						c3.543-0.032,6.884-1.499,9.408-4.127c2.663-2.775,4.06-6.505,3.933-10.503c-0.245-7.704-6.331-12.235-11.932-12.587
						c-0.129-0.007-0.304-0.006-0.431-0.011C84.36,95.436,84.329,95.436,84.298,95.436z"/>
				</g>
			</g>
			<g>
				<g>
					<path style="fill:#525D7D;" d="M82.95,111.338c-0.688,0-1.364-0.327-1.782-0.938c-0.675-0.984-0.424-2.328,0.559-3.002
						c5.364-3.679,10.725-7.721,15.91-11.632c7.682-5.794,15.627-11.785,23.873-16.824c1.017-0.618,2.347-0.302,2.968,0.717
						c0.622,1.018,0.302,2.346-0.716,2.969c-8.066,4.928-15.924,10.854-23.525,16.587c-5.223,3.939-10.623,8.012-16.068,11.745
						C83.795,111.215,83.37,111.338,82.95,111.338z"/>
				</g>
			</g>
			<g>
				<g>
					<path style="fill:#525D7D;" d="M82.493,71.103c-0.853,0-3.638-0.287-3.638-3.978c0-3.232,1.799-5.488,4.376-5.488
						c0.283,0,0.584,0.028,0.902,0.091c2.219,0.444,3.829,2.512,3.829,4.918c0,2.295-1.631,4.31-3.49,4.31
						c-0.27,0-0.546,0.035-0.815,0.063C83.25,71.065,82.855,71.103,82.493,71.103z M83.378,66.009
						c-0.069,0.156-0.144,0.406-0.181,0.718c0.147-0.017,0.296-0.032,0.445-0.045C83.643,66.371,83.514,66.113,83.378,66.009z"/>
				</g>
			</g>
			<g>
				<g>
					<path style="fill:#525D7D;" d="M35.492,120.979c-3.251,0-5.895-2.307-5.895-5.143c0-2.543,2.125-5.388,4.97-5.388l0.44-0.001
						c3.717,0,5.602,1.771,5.602,5.263C40.609,118.861,38.553,120.979,35.492,120.979z M34.569,114.766
						c-0.212,0.041-0.654,0.654-0.654,1.07c0,0.36,0.765,0.825,1.577,0.825c0.446,0,0.799,0,0.799-0.952
						c0-0.846-0.117-0.863-0.129-0.866c-0.041,0-0.311-0.079-1.155-0.079L34.569,114.766z"/>
				</g>
			</g>
			<g>
				<g>
					<path style="fill:#525D7D;" d="M79.573,162.948c-2.799,0-5.075-2.283-5.075-5.088c0-1.871,1.529-5.004,3.834-5.465l0.425,2.117
						l-0.365-2.128c0.705-0.142,1.503-0.302,2.369-0.302c2.867,0,4.649,1.668,4.649,4.355
						C85.41,160.391,83.118,162.948,79.573,162.948z M79.434,156.578c-0.257,0.287-0.597,0.983-0.618,1.296
						c0,0.364,0.283,0.756,0.757,0.756c0.531,0,1.518,0,1.518-2.194C80.789,156.381,80.097,156.447,79.434,156.578z M79.183,156.628
						c-0.002,0-0.004,0-0.004,0H79.183z M78.757,154.512l-0.425-2.117C78.334,152.395,78.757,154.512,78.757,154.512z"/>
				</g>
			</g>
			<g>
				<g>
					<path style="fill:#525D7D;" d="M128.39,121.651c-2.983,0-4.765-2.068-4.765-4.068c0-1.403,0.576-2.919,1.533-4.096
						c0.255-0.701,0.862-1.5,2.286-1.736c0.686-0.306,1.468-0.467,2.293-0.467c2.897,0,4.844,1.854,4.844,4.613
						C134.581,119.5,132.266,121.651,128.39,121.651z M127.981,117.274c0.091,0.031,0.226,0.059,0.41,0.059
						c1.872,0,1.872-0.634,1.872-1.435c0-0.183-0.028-0.262-0.033-0.274c0.016,0.042-0.158-0.021-0.493-0.021
						c-0.271,0-0.448,0.058-0.488,0.077c-0.145,0.073-0.286,0.129-0.419,0.173c-0.051,0.065-0.107,0.127-0.166,0.186
						C128.337,116.366,128.075,116.852,127.981,117.274z M127.313,111.82h-0.002H127.313z"/>
				</g>
			</g>
		</g>
	</g>
</g>
<g id="Layer_1">
</g>
</svg>
