<?xml version="1.0" encoding="iso-8859-1"?>
<!-- Generator: Adobe Illustrator 21.0.2, SVG Export Plug-In . SVG Version: 6.00 Build 0)  -->
<svg version="1.1" xmlns="http://www.w3.org/2000/svg" xmlns:xlink="http://www.w3.org/1999/xlink" x="0px" y="0px"
	 viewBox="0 0 177.046 186.64" style="enable-background:new 0 0 177.046 186.64;" xml:space="preserve">
<g id="_x33_4">
	<g>
		<path style="fill:#E0DFE6;" d="M129.413,131.701c-1.488-3.526-5.101-4.187-8.345-2.813c0.83-0.352-1.146,0.326-1.368,0.378
			c-0.644,0.132-0.752,0.149-0.323,0.053c-0.292,0.021-0.584,0.027-0.877,0.019c-1.544-0.019-3.102-0.445-4.603,0.084
			c-1.949,0.687-3.19,2.557-2.643,4.656c1.459,5.606,9.694,6.421,14.348,5.562C129.102,138.993,130.668,134.674,129.413,131.701z"/>
		<path style="fill:#E0DFE6;" d="M141.643,168.12c-0.721-2.622-3.754-4.566-6.451-3.663c-2.529,0.848-4.715,1.663-7.446,1.295
			c-1.575-0.213-3.105,0.143-3.965,1.614c-0.721,1.234-0.656,3.306,0.549,4.255c3.731,2.937,8.972,4.518,13.65,2.95
			C140.665,173.671,142.423,170.958,141.643,168.12z"/>
		<path style="fill:#E0DFE6;" d="M157.866,147.196c-0.288,1.279-0.613,2.53-0.978,3.763c-0.472,0.261-0.9,0.579-1.269,0.948
			c0.202-5.908,0.039-11.837-0.509-17.862c-0.238-2.624-3.899-2.654-4.104,0c-0.595,7.707-1.808,15.267-3.311,22.842
			c-0.69,3.478-1.41,6.938-2.301,10.371c-0.446,1.718-0.922,3.427-1.429,5.128c-0.405,0.673-0.661,1.216-0.787,1.645
			c-3.196,0.696-5.468,4.657-2.44,7.468c8.15,7.563,11.714-4.575,12.847-10.603c0.461-2.453,0.823-4.895,1.131-7.334
			c0.441,0.247,0.942,0.389,1.457,0.429c0.271,7.055-3.176,13.128-6.074,20.203c-0.742,1.81,1.564,2.895,2.947,2.266
			c10.854-4.936,13.608-20.487,12.745-30.987c-0.062-0.754-0.222-1.414-0.452-1.998c0.496-0.832,0.985-1.667,1.445-2.52
			C170.244,144.536,159.39,140.419,157.866,147.196z"/>
		<g>
			<path style="fill:#E0DFE6;" d="M171.002,31.761c-2.587,2.793-5.22,5.542-7.86,8.284c3.358-5.197,6.214-10.699,8.376-16.587
				c2.428-6.612-8.54-9.774-10.641-2.933c-8.484,27.626-35.736,47.231-57.229,64.669c-24.24,19.666-51.452,35.511-74.704,56.412
				c-1.518,1.365,0.079,4.405,2.085,3.582c14.576-5.982,27.977-14.113,40.754-23.227c-6.241,5.146-12.801,9.88-19.22,14.79
				c-3.484-0.378-7.146,1.524-7.745,6.138c-0.242,0.201-0.489,0.395-0.73,0.597c-1.188,0.995-0.664,2.752,0.458,3.493
				c-0.284,3.84-0.854,7.749-2.51,11.195c-0.428,0.891-0.969,1.717-1.563,2.501c-1.751-1.743-7.04-5.752-7.635-6.273
				c-2.211-1.935-5.292,0.459-4.011,3.095c2.073,4.265,3.71,10.525,7.085,13.907c3.767,3.775,9.317,1.916,12.84-1.205
				c6.954-6.159,8.84-15.861,10.32-24.562c0.224-1.315,0.172-2.496-0.089-3.538c18.872-8.695,37.591-22.073,51.361-36.205
				c1.123-1.152,1.73-2.388,1.941-3.605c0.266,0.302,0.556,0.58,0.872,0.826c-0.123,0.658-0.215,1.33-0.262,2.026
				c-0.487,7.349,11.107,8.842,12.809,1.733c1.721-7.192,10.303-10.696,13.413-17.468c0.988-2.15,0.921-4.163,0.211-5.796
				c1.174-0.109,2.368-0.536,3.513-1.337c0.139,1.814,0.341,3.622,0.532,5.438c0.355,3.383,0.24,7.096,2.92,9.581
				c2.497,2.315,6.115,2.547,8.818,0.608c1.809,2.072,3.32,4.279,3.889,6.795c0.294,1.297,0.351,2.555,0.243,3.783
				c-1.563-0.267-3.241,0.146-4.367,1.366c-1.834,1.986-3.047,4.501-4.406,6.825c-1.129,1.932-0.591,4.419,1.151,5.765
				c0.18,0.139,0.375,0.254,0.572,0.363c-0.284,0.429-0.563,0.856-0.829,1.28c-1.861,2.966-0.065,6.306,2.558,7.697
				c0.395,0.528,0.94,0.937,1.588,1.084c1.182,0.269,2.587-0.165,3.315-1.157c0.398-0.261,0.783-0.57,1.133-0.992
				c6.192-7.467,11.756-17.089,9.833-27.169c-1.317-6.905-6.406-11.342-12.284-14.442c-0.599-1.444-1.817-2.546-3.241-3.225
				c-0.544-1.062-1.079-2.284-1.583-3.173c-1.07-1.888-2.135-3.721-3.375-5.504c-0.148-0.213-0.317-0.397-0.495-0.567
				c11.365-11.745,20.692-26.045,27.849-40.5C178.386,32.639,173.933,28.596,171.002,31.761z M131.069,76.483
				c-0.628,0.174-1.268,0.467-1.907,0.932c-0.425,0.308-0.822,0.649-1.241,0.964c-5.796,4.371-11.033,9.376-15.78,14.832
				c-0.977,1.122-1.479,2.396-1.609,3.672c-1.06-1.129-2.487-1.941-4.051-2.208c1.906-1.576,3.81-3.15,5.711-4.718
				c6.224-5.131,12.74-10.337,19.133-15.782C131.103,74.95,131.019,75.726,131.069,76.483z"/>
		</g>
		<path style="fill:#E0DFE6;" d="M26.49,132.621c-0.609-1.152-1.818-1.835-3.065-2.003c-2.332-0.313-4.478,1.378-4.708,3.713
			c-1.414,0.711-2.292,2.105-2.068,3.767c0.242,1.801,1.752,3.126,3.583,3.163c3.094,0.062,6.229-2.253,6.681-5.408
			C27.082,134.671,27.053,133.687,26.49,132.621z"/>
		<g>
			<path style="fill:#E0DFE6;" d="M46.484,38.171c-1.294-3.07-4.725-4.455-7.763-3.361c-0.331-0.217-0.685-0.411-1.078-0.564
				c-1.029-0.401-1.923-0.668-3.049-0.674c-1.734-0.01-3.52,1.9-2.814,3.694c0.125,0.317,0.249,0.619,0.387,0.915
				c-2.532,1.348-5.018,2.805-7.018,4.642c-2.502,2.298-0.499,6.505,2.708,6.539c4.773,0.05,9.996-1.842,14.637-2.882
				C46.117,45.667,47.842,41.395,46.484,38.171z"/>
		</g>
		<g>
			<path style="fill:#E0DFE6;" d="M82.818,70.748c-1.026-3.171-3.856-4.531-7.012-3.981c0.918-0.16-0.038-0.067-0.649-0.009
				c1.517-1.083,2.862-2.402,3.911-3.933c1.811-2.642,0.496-6.577-2.127-8.111c-2.935-1.717-6.296-0.521-8.111,2.127
				c-0.319,0.465-0.694,0.863-1.091,1.229c-0.074-0.925-0.381-1.839-0.979-2.613c-1.33-1.721-4.024-2.456-6.03-1.489
				c-0.253-0.141-0.526-0.258-0.832-0.327c-0.938-0.214-1.841-0.164-2.732,0.211c-1.761,0.743-3.188,2.994-2.429,4.949
				c0.38,0.979,0.896,1.836,1.545,2.559c-1.017,1.716-0.762,4.278,1.216,5.803c2.014,1.552,4.312,2.38,6.668,2.629
				c0.811,2.667,3.017,4.894,5.321,6.336c2.906,1.82,6.03,2.208,9.348,1.63C81.782,77.247,83.703,73.482,82.818,70.748z"/>
		</g>
		<g>
			<path style="fill:#E0DFE6;" d="M113.801,32.934c-1.338-0.639-2.627-1.036-4.057-0.963c-0.283-0.1-0.577-0.179-0.86-0.277
				c-0.361-0.125-0.666-0.239-0.957-0.354c-0.034-0.06-0.053-0.128-0.09-0.186c-1.015-1.575-2.581-2.401-4.247-2.437
				c0.545-2.377-0.699-4.863-3.113-5.519l-2.095-0.569c-2.185-0.594-4.808,0.739-5.329,3.026c-0.253,1.109-0.198,2.354,0.437,3.338
				c0.652,1.011,1.485,1.536,2.589,1.991c0.584,0.241,1.168,0.481,1.752,0.722c-0.953,1.582-1.092,3.727-0.105,5.257
				c1.466,2.274,4.071,2.99,6.482,1.989c0.02,0.017,0.032,0.039,0.052,0.055c0.056,0.045,0.111,0.091,0.166,0.136
				c0.042,0.083,0.084,0.167,0.125,0.25c0.346,1.164,0.943,2.233,1.899,3.066c2.727,2.376,6.725,2.396,9.051-0.614
				C117.549,39.197,117.125,34.52,113.801,32.934z"/>
		</g>
		<g>
			<path style="fill:#E0DFE6;" d="M69.558,9.837c-1.563-1.12-4.244-0.669-5.511,0.711c-1.292,1.407-1.783,3.624-0.794,5.348
				c-0.448,0.768-0.728,1.57-0.772,2.551c-0.071,1.595,0.794,3.069,2.013,4.011c2.499,1.93,5.811,1.117,7.504-1.433
				C74.529,17.212,73.092,12.37,69.558,9.837z"/>
		</g>
		<g>
			<g>
				<g>
					<path style="fill:#525D7D;" d="M10.698,159.075c-0.717,0-1.402-0.358-1.807-0.977c-0.501-0.766-0.464-1.765,0.091-2.492
						c8.614-11.276,39.34-50.777,73.031-85.647c37-38.294,64.657-57.711,82.202-57.711c6.669,0,10.812,4.207,10.812,10.98
						c0,9.125-9.514,31.594-73.234,79.563c-36.324,27.344-77.805,53.091-90.582,56.223
						C11.041,159.055,10.869,159.075,10.698,159.075z M164.216,16.566c-16.099,0-43.45,19.5-79.096,56.394
						c-29.038,30.052-55.876,63.581-68.118,79.319C53.37,135.898,170.71,53.385,170.71,23.227
						C170.71,18.806,168.524,16.566,164.216,16.566z"/>
				</g>
			</g>
			<g>
				<g>
					<path style="fill:#525D7D;" d="M21.51,145.195c-0.517,0-1.034-0.184-1.448-0.558c-4.87-4.405-10.893-7.434-18.412-9.26
						c-0.728-0.177-1.313-0.72-1.544-1.432c-0.231-0.713-0.077-1.494,0.409-2.065c1.264-1.486,2.54-2.953,3.813-4.417
						c1.053-1.212,2.103-2.42,3.143-3.634c0.358-0.419,0.864-0.685,1.413-0.744c1.638-0.173,3.284-0.26,4.894-0.26
						c7.227,0,13.794,1.701,19.52,5.056c1.029,0.603,1.374,1.926,0.772,2.953c-0.603,1.029-1.926,1.375-2.955,0.772
						c-5.981-3.504-13.139-4.977-20.932-4.307c-0.86,1-1.728,1.996-2.596,2.995c-0.521,0.6-1.042,1.199-1.564,1.801
						c6.71,2.051,12.275,5.122,16.937,9.339c0.884,0.8,0.952,2.165,0.152,3.049C22.686,144.956,22.099,145.195,21.51,145.195z"/>
				</g>
			</g>
			<g>
				<g>
					<path style="fill:#525D7D;" d="M39.132,172.798c-0.261,0-0.522-0.048-0.772-0.142c-0.619-0.238-1.095-0.745-1.291-1.379
						c-2.076-6.709-5.79-13.729-11.039-20.864c-0.707-0.96-0.501-2.312,0.46-3.018c0.96-0.706,2.311-0.5,3.018,0.46
						c4.853,6.595,8.473,13.136,10.788,19.481c0.174-0.117,0.349-0.232,0.523-0.349c1.382-0.921,2.806-1.868,4.348-2.695
						c0.009-0.472,0.015-0.943,0.015-1.415c0-3.798-2.309-14.755-4.577-21.711c-0.369-1.134,0.25-2.353,1.384-2.721
						c1.131-0.374,2.352,0.249,2.722,1.383c2.214,6.796,4.789,18.345,4.789,23.05c0,0.945-0.023,1.889-0.047,2.831
						c-0.022,0.859-0.55,1.624-1.345,1.947c-0.118,0.048-0.234,0.1-0.347,0.155c-1.555,0.779-3.01,1.747-4.551,2.773
						c-0.982,0.654-1.962,1.304-2.969,1.907C39.902,172.694,39.517,172.798,39.132,172.798z M47.295,165.654h0.014H47.295z"/>
				</g>
			</g>
			<g>
				<g>
					<path style="fill:#525D7D;" d="M16.415,154.82c-0.759,0-1.495-0.401-1.889-1.11c-0.579-1.043-0.204-2.357,0.838-2.936
						c8.574-4.764,22.668-17.5,32.999-27.83c0.843-0.843,2.21-0.843,3.053,0c0.843,0.843,0.843,2.21,0,3.053
						c-10.537,10.538-24.991,23.571-33.955,28.553C17.13,154.733,16.77,154.82,16.415,154.82z"/>
				</g>
			</g>
			<g>
				<g>
					<path style="fill:#525D7D;" d="M141.941,50.728c-0.028,0-0.057,0-0.085-0.001c-0.635-0.025-1.228-0.329-1.619-0.831
						c-2.683-3.447-6.142-6.386-10.28-8.736c-0.618-0.351-1.025-0.985-1.085-1.694c-0.06-0.708,0.232-1.402,0.781-1.853
						c4.19-3.438,8.026-5.109,11.729-5.109c5.937,0,7.183,3.576,7.183,6.575c0,3.457-1.834,7.446-5.031,10.946
						C143.125,50.474,142.546,50.728,141.941,50.728z M134.868,39.123c2.642,1.778,4.996,3.804,7.039,6.053
						c1.49-2.118,2.341-4.296,2.341-6.096c0-1.566-0.116-2.257-2.865-2.257C139.39,36.822,137.241,37.579,134.868,39.123z"/>
				</g>
			</g>
			<g>
				<g>
					<path style="fill:#525D7D;" d="M147.413,185.023c-2.555,0-4.722-1.494-6.442-4.442c-4.109-7.044-6.546-15.387-9.369-25.048
						c-4.698-16.081-10.544-36.093-27.183-57.42c-0.734-0.94-0.566-2.297,0.374-3.03c0.941-0.732,2.298-0.565,3.03,0.374
						c17.147,21.98,23.123,42.433,27.923,58.867c2.743,9.388,5.112,17.497,8.954,24.083c1.203,2.061,2.124,2.3,2.712,2.3
						c2.753,0,4.398-5.814,4.398-11.435c0-0.88-0.018-1.767-0.036-2.654c-0.019-0.922-0.037-1.844-0.037-2.763
						c0-3.164,0.303-5.121,0.595-7.014c0.325-2.097,0.66-4.266,0.66-8.428c0-52.626-13.713-66.484-20.303-73.144
						c-0.838-0.848-0.831-2.214,0.016-3.053c0.847-0.839,2.214-0.834,3.054,0.017c6.995,7.069,21.551,21.779,21.551,76.18
						c0,4.495-0.377,6.935-0.711,9.089c-0.292,1.889-0.545,3.523-0.545,6.354c0,0.89,0.018,1.784,0.037,2.676
						c0.018,0.917,0.037,1.832,0.037,2.741C156.129,176.537,153.846,185.023,147.413,185.023z"/>
				</g>
			</g>
			<g>
				<g>
					<path style="fill:#525D7D;" d="M84.144,73.023c-0.588,0-1.175-0.239-1.601-0.71c-2.749-3.036-3.712-4.889-4.562-6.524
						c-2.118-4.072-3.79-7.29-45.558-34.208c-1.764-1.137-4.043-2.381-6.454-3.698c-7.573-4.138-14.725-8.046-14.725-12.734
						c0-3.688,1.946-8.087,11.216-8.087c0.512,0,58.933,7.361,89.703,36.676c0.863,0.822,0.896,2.189,0.074,3.053
						c-0.823,0.86-2.191,0.893-3.052,0.073C79.659,18.737,22.909,11.414,22.377,11.38c-6.816,0.001-6.816,2.643-6.816,3.77
						c0,2.127,8.117,6.562,12.477,8.944c2.482,1.355,4.828,2.637,6.723,3.859c42.732,27.538,44.45,30.844,47.05,35.845
						c0.765,1.472,1.556,2.993,3.932,5.617c0.801,0.884,0.733,2.249-0.151,3.05C85.179,72.839,84.66,73.023,84.144,73.023z"/>
				</g>
			</g>
			<g>
				<g>
					<path style="fill:#525D7D;" d="M110.503,134.195c-0.703,0-1.366-0.343-1.772-0.926c-0.435-0.625-0.508-1.434-0.193-2.127
						c2.972-6.529,5.739-11.564,8.708-15.844c0.68-0.98,2.023-1.223,3.005-0.543c0.98,0.679,1.223,2.024,0.543,3.005
						c-2.265,3.264-4.419,7.02-6.663,11.633c2.986-0.496,6.725-1.307,10.348-2.26c1.157-0.308,2.334,0.387,2.638,1.538
						c0.304,1.153-0.385,2.333-1.538,2.637c-5.741,1.512-11.597,2.643-14.92,2.882C110.606,134.193,110.555,134.195,110.503,134.195
						z"/>
				</g>
			</g>
			<g>
				<g>
					<path style="fill:#525D7D;" d="M152.533,115.26c-0.728,0-1.439-0.368-1.846-1.034c-0.621-1.019-0.299-2.347,0.72-2.967
						c2.799-1.708,4.942-3.326,6.756-5.118c-0.184-0.302-0.372-0.613-0.564-0.932c-1.922-3.185-4.554-7.548-7.205-7.548
						c-0.387,0-0.798,0.112-1.259,0.343c-1.063,0.538-2.364,0.107-2.898-0.959c-0.536-1.065-0.105-2.364,0.96-2.898
						c1.061-0.534,2.137-0.804,3.197-0.804c5.089,0,8.449,5.569,10.902,9.636c0.491,0.815,0.953,1.581,1.389,2.235
						c0.547,0.821,0.469,1.909-0.191,2.641c-2.312,2.571-5.121,4.823-8.839,7.09C153.304,115.158,152.916,115.26,152.533,115.26z"/>
				</g>
			</g>
			<g>
				<g>
					<path style="fill:#525D7D;" d="M124.425,168.49c-0.721,0-1.395-0.36-1.796-0.96c-0.406-0.609-0.477-1.382-0.187-2.054
						c2.093-4.859,5.081-9.36,9.135-13.755c0.81-0.877,2.176-0.935,3.051-0.124c0.877,0.808,0.933,2.175,0.124,3.05
						c-2.804,3.04-5.046,6.122-6.792,9.342c2.832-0.263,5.43-0.803,7.873-1.631c1.131-0.385,2.356,0.222,2.738,1.349
						c0.383,1.13-0.221,2.356-1.351,2.74C133.353,167.76,129.176,168.428,124.425,168.49z"/>
				</g>
			</g>
			<g>
				<g>
					<path style="fill:#525D7D;" d="M155.044,154.369c-0.586,0-1.168-0.236-1.594-0.703c-0.805-0.88-0.744-2.245,0.136-3.05
						c3.144-2.875,6.557-6.242,10.319-10.005c-1.557-1.622-3.215-3.426-4.819-5.378c-0.983,0.708-1.975,1.414-2.969,2.121
						c-0.973,0.689-2.32,0.461-3.01-0.512c-0.69-0.973-0.462-2.321,0.511-3.011c1.545-1.097,3.083-2.194,4.596-3.302
						c0.945-0.692,2.272-0.505,2.987,0.426c2.364,3.073,5.005,5.852,7.276,8.163c0.83,0.845,0.825,2.201-0.011,3.039
						c-4.402,4.411-8.34,8.333-11.965,11.647C156.086,154.182,155.564,154.369,155.044,154.369z"/>
				</g>
			</g>
			<g>
				<g>
					<path style="fill:#525D7D;" d="M54.844,64.442c-0.626,0-1.231-0.273-1.647-0.762c-0.526-0.62-0.659-1.483-0.344-2.233
						c1.969-4.688,4.467-9.374,7.426-13.926c0.651-1.001,1.987-1.283,2.987-0.634c1,0.651,1.283,1.987,0.634,2.987
						c-1.96,3.015-3.707,6.088-5.218,9.177c4.696-1.337,8.839-2.914,12.577-4.779c1.064-0.531,2.364-0.101,2.896,0.967
						c0.533,1.067,0.1,2.363-0.967,2.896c-5.148,2.571-10.985,4.615-17.844,6.248C55.177,64.422,55.01,64.442,54.844,64.442z"/>
				</g>
			</g>
			<g>
				<g>
					<path style="fill:#525D7D;" d="M96.882,36.78c-0.506,0-1.013-0.177-1.424-0.537c-0.896-0.786-0.985-2.151-0.198-3.046
						c0.98-1.118,1.863-2.101,2.697-3.008c-2.771-2.851-5.273-5.971-7.688-9.059c-2.631,2.22-5.126,4.436-7.439,6.611
						c-0.87,0.817-2.238,0.775-3.052-0.094c-0.817-0.869-0.775-2.235,0.094-3.052c2.875-2.703,6.021-5.466,9.352-8.217
						c0.45-0.371,1.027-0.545,1.61-0.481c0.58,0.063,1.109,0.36,1.467,0.819l0.295,0.378c3.083,3.958,6.272,8.05,9.859,11.48
						c0.861,0.822,0.893,2.187,0.071,3.05c-1.22,1.279-2.498,2.685-4.022,4.421C98.078,36.531,97.482,36.78,96.882,36.78z"/>
				</g>
			</g>
			<g>
				<g>
					<path style="fill:#525D7D;" d="M24.778,43.228c-0.55,0-1.089-0.209-1.498-0.605c-0.585-0.562-0.804-1.406-0.568-2.183
						c1.401-4.606,3.436-9.167,6.049-13.559c0.609-1.022,1.936-1.358,2.96-0.751c1.025,0.61,1.361,1.936,0.751,2.96
						c-1.599,2.685-2.964,5.435-4.081,8.217c3.227-1.449,6.546-3.298,9.913-5.523c0.998-0.659,2.335-0.384,2.992,0.61
						c0.657,0.995,0.384,2.335-0.611,2.991c-5.192,3.433-10.307,6.03-15.202,7.723C25.253,43.188,25.015,43.228,24.778,43.228z"/>
				</g>
			</g>
			<g>
				<g>
					<path style="fill:#525D7D;" d="M58.339,19.516c-0.52,0-1.042-0.187-1.455-0.565c-0.881-0.805-0.942-2.17-0.138-3.05
						c1.541-1.687,3.008-3.404,4.377-5.128C58.791,8.929,56.604,6.957,54.484,5c-3.962,3.173-7.429,6.287-10.561,9.482
						c-0.836,0.853-2.202,0.866-3.053,0.031c-0.852-0.835-0.866-2.201-0.031-3.053c3.641-3.715,7.706-7.313,12.426-11.002
						c0.836-0.654,2.02-0.603,2.798,0.118c2.976,2.761,6.053,5.616,9.379,8.063c0.465,0.342,0.774,0.856,0.857,1.428
						c0.083,0.572-0.066,1.153-0.415,1.614c-1.811,2.394-3.813,4.795-5.95,7.132C59.508,19.28,58.924,19.516,58.339,19.516z"/>
				</g>
			</g>
		</g>
	</g>
</g>
<g id="Layer_1">
</g>
</svg>
