<?xml version="1.0" encoding="iso-8859-1"?>
<!-- Generator: Adobe Illustrator 21.0.2, SVG Export Plug-In . SVG Version: 6.00 Build 0)  -->
<svg version="1.1" xmlns="http://www.w3.org/2000/svg" xmlns:xlink="http://www.w3.org/1999/xlink" x="0px" y="0px"
	 viewBox="0 0 240.566 208.212" style="enable-background:new 0 0 240.566 208.212;" xml:space="preserve">
<g id="_x33_5">
	<g>
		<g>
			<path style="fill:#E0DFE6;" d="M119.167,116.817c-9.457,3.883-13.613,12.446-15.716,21.932
				c-2.188,9.869-9.111,19.502-17.089,25.767c1.777-2.989,1.523-6.355-0.927-9.227c-0.102-0.119-0.204-0.239-0.306-0.358
				c-0.28-0.328-0.578-0.606-0.885-0.857c-0.422-0.953-0.814-1.917-1.151-2.905c-0.721-1.949-1.329-3.942-1.88-5.945
				c-1.271-4.628-2.298-9.42-2.858-14.189c-0.976-8.306,0.251-16.874-1.232-25.062c-0.216-1.196-1.963-1.604-2.744-0.724
				c-2.578,2.907-4.368,6.483-5.606,10.348c0.002-2.754-1.492-5.323-4.296-6.209c1.919-2.338,1.592-5.839-0.845-7.722
				c-2.729-2.108-6.08-1.111-7.973,1.523c-0.035,0.048-0.048,0.065-0.074,0.1c-0.154,0.179-0.304,0.362-0.463,0.537
				c-0.444,0.489-0.916,0.953-1.412,1.39c-0.034,0.03-0.21,0.177-0.34,0.286c-0.14,0.101-0.345,0.251-0.384,0.278
				c-0.548,0.373-1.117,0.707-1.7,1.023c-2.098,1.137-2.852,3.864-1.959,5.979c0.157,0.372,0.384,0.718,0.639,1.045
				c-1.394-0.325-3.202,0.501-3.419,1.986c-0.807,5.546,3.759,9.884,9.086,10.472c4.855,0.536,9.78-2.083,11.995-6.341
				c-1.227,5.81-1.449,11.948-1.281,17.31c0.188,5.987,1.256,11.978,2.906,17.732c1.272,4.437,2.419,10.013,6.738,12.472
				c2.667,1.518,6.947,1.363,9.059-1.169c-0.871,2.662,1.312,6.372,4.338,6.06c9.965-1.028,16.552-8.919,21.898-16.79
				c3.089-4.547,4.343-9.119,5.306-14.466c1.183-6.563,3.967-9.598,8.431-14.215C128.86,122.908,125.042,114.404,119.167,116.817z
				 M54.927,115.916c-0.476,0.106-0.98,0.016-1.481-0.165c0.509,0.032,1.026-0.016,1.529-0.197c0.324-0.116,0.628-0.266,0.946-0.394
				C55.687,115.521,55.375,115.816,54.927,115.916z"/>
		</g>
		<path style="fill:#E0DFE6;" d="M134.835,142.928c-1.861-1.436-5.263-1.646-6.875,0.409c-0.274,0.349-0.545,0.704-0.814,1.064
			c-3.905,5.239-7.157,11.519-7.257,18.077c-0.007,0.454,0.093,0.883,0.26,1.283c-0.029,2.763,1.254,5.336,4.222,6.151
			c2.998,0.824,6.563-1.009,7.292-4.14c1.281-5.502,2.24-10.861,4.519-16.089C137.24,147.259,137.063,144.647,134.835,142.928z"/>
		<g>
			<path style="fill:#E0DFE6;" d="M237.991,95.758c-0.432-1.829-1.757-2.649-3.167-2.704c-0.272-3.323-0.794-6.534-1.506-9.317
				c-1.917-7.503-12.191-5.282-12.808,1.734c-0.502,5.711,0.517,11.451,0.042,17.171c-0.081,0.978-0.106,1.623-0.163,2.061
				c-0.545-2.537-0.853-5.362-1.1-6.564c-0.878-4.278-1.15-8.714-2.482-12.878c-1.068-3.339-5.95-3.508-6.947,0
				c-1.843,6.485-1.007,13.734-0.197,20.335c0.036,0.297,0.069,0.598,0.101,0.9c-0.597,0.067-1.194,0.136-1.79,0.199
				c-9.89,1.037-20.627,3.617-30.555,2.713c-3.586-0.327-4.114,4.504-1.68,6.203c5.474,3.821,13.715,2.521,20.047,2.512
				c5.868-0.008,11.808,0.157,17.714,0.092c0.719,0.603,1.586,1.105,2.661,1.465c2.147,0.719,4.665-0.164,6.245-1.823
				c3.11-0.344,5.918-1.262,8.036-3.1c-0.137,0.657-0.285,1.31-0.447,1.961c-0.313,0.046-0.632,0.108-0.96,0.195
				c-2.526,0.678-4.995,1.545-7.476,2.37c-4.486,1.49-5.744,5.753-4.001,9.834c0.147,0.344,0.256,0.694,0.342,1.048
				c-0.739-1.778-2.279-3.168-4.949-3.683c-4.865-0.939-10.381,0.526-15.404,0.034c-6.787-0.665-13.308-2.775-20.121-3.368
				c-1.797-0.156-3.68-0.295-5.588-0.422c0.426-0.187,0.828-0.434,1.19-0.795c0.72-0.72,1.263-1.902,1.216-2.936
				c-0.063-1.411-0.689-2.511-1.654-3.232c-0.03-10.793-0.141-21.587-0.264-32.379c-0.099-8.744-0.814-18.138-8.501-23.73
				c-3.151-2.292-6.975-3.649-10.897-3.757c1.002-0.848,2.423-3.019,3.019-3.998c3.673-6.041,3.734-14.549-0.153-20.443
				c-0.901-1.366-3.285-0.932-3.229,0.875c0.162,5.218-0.627,9.712-4.221,13.701c-0.521,0.578-1.093,1.109-1.682,1.623
				c1.244-3.921,2.489-7.841,3.734-11.762c0.456-1.436-0.131-2.489-1.086-3.02c0.09-1.947-0.804-3.867-3.098-4.759
				c1.07-0.122,2.141-0.29,3.216-0.553c3.715-0.907,4.326-4.681,3.105-7.445c0.153-5.762-2.845-11.68-7.33-15.201
				c-1.974-1.55-4.652-1.925-6.578,0c-1.791,1.791-1.771,4.785,0,6.578c2.106,2.133,2.907,4.574,2.988,7.297
				c-8.487,1.288-17.843-1.269-25.075,4.363c-1.317,1.026-0.253,3.632,1.419,3.425c3.362-0.416,6.688-0.213,9.997,0.177
				c-0.256,0.032-0.511,0.054-0.768,0.09c-4.013,0.563-2.409,6.021,0.873,6.449c4.679,0.61,9.171,2.137,13.288,4.419
				c0.217,0.12,0.432,0.224,0.644,0.314c-1.543,2.057-3.085,4.113-4.628,6.17c-1.829,2.438-0.073,6.074,2.399,7.116
				c0.849,0.358,1.712,0.44,2.536,0.339c-0.415,0.488-0.806,0.999-1.134,1.568c-0.279,0.485-0.5,0.986-0.694,1.493
				c-0.023-0.032-0.052-0.07-0.073-0.1c-1.372-1.998-4.535-2.362-5.827,0c-1.279,2.338-1.363,4.38-0.879,6.962
				c0.423,2.254,1.331,4.902,3.052,6.465c2.833,2.573,6.554,1.428,8.135-1.128c0.541,0.263,1.109,0.492,1.728,0.653
				c4.212,1.096,8.514-0.637,11.376,3.882c2.492,3.936,1.548,10.217,1.524,14.671c-0.004,0.776-0.009,1.551-0.014,2.327
				c2.624,1.384,3.484,4.886,2.92,7.542c-0.249,1.172-0.743,2.088-1.071,3.212c-0.397,1.361-1.084,2.391-1.93,3.151
				c-0.026,5.065-0.045,10.13-0.035,15.195c0.004,2.096,0.814,3.671,2.026,4.736c-6.93-0.096-13.922,0.261-20.096,1.576
				c-9.676,2.061-6.44,12.379-4.367,19.285c0.923,5.605,10.516,5.256,10.259-1.031c-0.024-0.583-0.077-3.804-0.276-6.304
				c0.581,0.012,1.162,0.024,1.743,0.036c7.192,0.161,14.375,0.437,21.571,0.444c6.307,0.006,12.382-0.569,18.62-1.393
				c3.884-0.513,7.652-0.853,11.564-0.612c1.883,0.123,3.749,0.364,5.608,0.665c-2.143,3.682,1.01,8.098,4.621,8.528
				c-0.435,0.677-0.632,1.527-0.404,2.484c0.984,4.121,1.546,8.053,1.783,11.923c-2.965-8.688-7.421-16.452-16.834-19.899
				c-2.784-1.019-5.179,3.114-2.928,5.03c7.297,6.213,9.124,16.081,10.028,25.572c-10.663,1.569-21.294,3.284-32.007,4.596
				c-11.808,1.446-24.11,1.811-35.53,5.38c-2.083,0.651-2.253,3.825,0,4.397c0.066,0.017,0.134,0.03,0.2,0.046
				c-20.221-0.161-40.451-0.366-60.665-0.037c1.012-2.343,0.453-5.222-1.284-7.427c-1.981-2.516-2.818-6.065-4.308-8.981
				c-1.68-3.289-6.162-2.017-7.251,0.948c-1.659,4.519-0.581,9.887,0.584,14.421c0.087,0.337,0.208,0.653,0.344,0.96
				c-1.196,0.011-2.38,0.057-3.542,0.157c0.073-0.092,0.167-0.16,0.235-0.258c1.095-1.276,1.663-2.997,1.308-4.846
				c0.979-9.645-2.551-20.911-9.111-27.801c-2.233-2.345-5.368,0.185-4.954,2.884c0.554,3.618,1.24,7.164,1.52,10.795
				c-7.805-5.123-17.478-8.2-25.438-7.729c-2.078,0.123-3.092,2.962-1.105,4.079c5.46,3.068,11.092,5.67,16.072,9.544
				c2.151,1.674,4,3.58,5.772,5.546c-2.872-0.722-6.091,0.119-7.874,3.307c-1.778,3.181-2.606,9.205-6.882,10.035
				c-6.381,1.238-11.126-6.12-12.872-11.04c-0.565-1.592-3.046-1.418-3.045,0.412c0.003,7.98,2.249,16.243,8.821,20.347
				c-0.022,0.242-0.009,0.483,0.082,0.708c2.886,7.078,11.517,9.375,18.595,8.354c4.486-0.647,8.885-2.697,12.214-5.808
				c1.257-1.175,2.097-2.75,3.333-3.903c2.374-2.215,4.355-1.429,7.941-1.314c28.818,0.926,57.649,0.99,86.48,1.25
				c1.395,0.013,2.575-0.307,3.553-0.851c7.398,9.682,20.401,14.344,31.894,9.564c5.603-2.33,13.327-5.446,17.522-10.012
				c2.068-1.003,2.383-1.56,0.946-1.67c-1.124-0.246-1.009-0.233,0.346,0.039c1.845-0.026,3.314,0.518,5.26,0.331
				c3.712-0.357,6.251-1.82,9.038-4.192c1.045-0.89,1.643-1.999,1.896-3.177c0.9-0.739,1.626-1.819,2.032-3.295
				c3.289-11.944,1.303-25.422-4.018-36.63c6.021-4.061,10.37-9.383,11.5-16.038c1.032-0.134,2.064-0.256,3.092-0.425
				c0.113-0.019,0.215-0.049,0.324-0.071c2.89,0.384,5.873-0.83,6.41-4.313C241.381,116.088,240.485,106.31,237.991,95.758z
				 M47.251,187.952c0.578-1.225,1.064-2.476,1.428-3.731c0.065-0.224,0.084-0.436,0.125-0.654c0.725,0.614,1.593,1.073,2.521,1.367
				C49.849,185.661,48.482,186.646,47.251,187.952z M169.901,189.546c-3.842-0.076-7.372-2.637-11.175-2.267
				c-0.692,0.067-1.423,0.459-1.583,1.205c-0.155,0.72-0.173,1.403-0.117,2.063c-0.039-0.017-0.076-0.036-0.115-0.053
				c0.02-2.002-0.657-4.019-2.058-5.438c6.122-0.031,12.259-0.479,18.221-0.886c2.428-0.166,4.867-0.351,7.31-0.548
				C177.69,186.907,174.403,189.635,169.901,189.546z M199.142,181.784c-1.875,1.124-2.933,3.199-4.455,4.714
				c-1.266,1.259-2.684,2.311-4.157,3.289c1.134-2.549-0.019-5.248-2.011-6.892c3.704-0.369,7.399-0.826,11.083-1.327
				C199.45,181.641,199.283,181.699,199.142,181.784z"/>
		</g>
		<g>
			<path style="fill:#E0DFE6;" d="M124.082,107.685c-3.471-1.192-4.838-4.214-4.644-7.096c-1.26,0.016-2.532-0.051-3.818-0.254
				c-3.022-0.477-5.25,3.515-2.214,5.251c5.162,2.951,10.324,3.651,15.434,3.061C127.266,108.533,125.68,108.234,124.082,107.685z"
				/>
		</g>
		<g>
			<path style="fill:#E0DFE6;" d="M106.559,95.117c2.81-0.045,5.621-0.177,8.433-0.414c1.972-0.167,3.328-1.042,4.138-2.226
				C114.964,93.473,110.762,94.296,106.559,95.117z"/>
		</g>
		<g>
			<g>
				<g>
					<path style="fill:#525D7D;" d="M30.054,201.142c-0.043,0-0.086,0-0.129,0C17.393,201.074,6.249,190.25,6.077,177.98
						c-0.105-7.536,3.53-14.811,9.721-19.462c0.956-0.715,2.308-0.523,3.024,0.429c0.717,0.954,0.524,2.308-0.429,3.024
						c-5.094,3.826-8.084,9.789-7.998,15.95c0.141,10.014,9.279,18.848,19.554,18.904c0.035,0,0.072,0,0.107,0
						c8.795,0,16.869-6.228,19.224-14.846c0.315-1.151,1.498-1.829,2.652-1.514c1.15,0.315,1.827,1.501,1.514,2.652
						C50.586,193.58,40.762,201.142,30.054,201.142z"/>
				</g>
			</g>
			<g>
				<g>
					<path style="fill:#525D7D;" d="M30.154,186.161c-0.063,0-0.127,0-0.19-0.001c-2.664-0.048-5.15-1.106-7-2.98
						c-1.85-1.875-2.844-4.335-2.799-6.924c0.076-4.207,3.486-8.047,6.501-8.864c0.579-0.155,1.088-0.108,1.368-0.083
						c0.588,0.051,1.181,0.059,1.77,0.068c0.326,0.006,0.651,0.01,0.974,0.021c1.196,0.035,2.27,0.153,3.276,0.363
						c4.602,0.952,6.327,5.694,6.362,8.649c0.03,2.346-1.085,4.875-2.981,6.763C35.494,185.104,32.914,186.161,30.154,186.161z
						 M27.639,171.609c-1.265,0.46-3.118,2.584-3.156,4.723c-0.025,1.418,0.527,2.773,1.555,3.815
						c1.051,1.067,2.474,1.669,4.002,1.695c2.152,0.06,3.534-0.921,4.349-1.73c1.279-1.275,1.72-2.762,1.709-3.649
						c-0.014-1.217-0.77-4.029-2.921-4.474c-0.758-0.157-1.586-0.247-2.533-0.275c-0.305-0.01-0.606-0.014-0.907-0.018
						C29.043,171.683,28.346,171.67,27.639,171.609z"/>
				</g>
			</g>
			<g>
				<g>
					<path style="fill:#525D7D;" d="M57.912,189.221c-2.487,0-5.18-2.474-10.069-6.966c-8.576-7.88-22.931-21.069-40.335-21.069
						c-1.68,0-3.372,0.127-5.031,0.374c-0.807,0.114-1.604-0.219-2.075-0.878c-0.472-0.658-0.534-1.527-0.163-2.246
						c6.945-13.46,19.396-20.874,35.062-20.874c10.036,0,29.71,11.455,29.71,37.934C65.012,183.76,65.012,189.221,57.912,189.221z
						 M7.509,156.868c19.086,0,34.216,13.902,43.257,22.208c2.735,2.513,6.138,5.641,7.211,5.832
						c2.128-0.004,2.717-0.004,2.717-9.412c0-23.943-17.919-33.616-25.391-33.616c-12.53,0-22.742,5.296-29.164,15.014
						C6.595,156.876,7.052,156.868,7.509,156.868z"/>
				</g>
			</g>
			<g>
				<g>
					<path style="fill:#525D7D;" d="M132.342,188.029c-1.945,0-2.741-1.716-3.123-2.542c-0.056-0.122-0.129-0.281-0.197-0.413
						c-5.464-0.001-10.926-0.038-16.39-0.074c-5.6-0.037-11.201-0.073-16.803-0.073c-13.531,0-23.869,0.226-33.522,0.735
						c-1.234,0.028-2.208-0.853-2.27-2.042c-0.062-1.191,0.852-2.207,2.042-2.27c9.731-0.512,20.14-0.741,33.749-0.741
						c5.61,0,11.221,0.037,16.832,0.074c5.6,0.037,11.202,0.073,16.803,0.073c2.292,0,3.212,1.922,3.656,2.88
						c15.586-1.348,31.348-1.505,46.603-1.657c11.63-0.117,23.634-0.236,35.458-0.884c-0.841-32.69-11.365-45.485-37.126-45.485
						c-20.929,0-39.639,14.935-43.523,34.74c-0.229,1.169-1.365,1.933-2.534,1.702c-1.169-0.229-1.933-1.363-1.702-2.534
						c4.273-21.793,24.805-38.226,47.759-38.226c35.956,0,41.147,26.191,41.483,51.812c0.015,1.153-0.879,2.114-2.03,2.183
						c-12.597,0.759-25.38,0.887-37.743,1.011c-15.477,0.155-31.482,0.315-47.159,1.719
						C132.543,188.022,132.407,188.029,132.342,188.029z"/>
				</g>
			</g>
			<g>
				<g>
					<path style="fill:#525D7D;" d="M138.493,157.008c-1.123,0-2.071-0.87-2.151-2.007c-0.353-5.025-1.936-8.573-3.465-12.004
						c-1.438-3.226-2.797-6.272-2.797-9.974c0-4.911,3.791-10.767,21.855-10.767c3.451,0,6.123,0.191,8.951,0.394
						c3.122,0.224,6.352,0.455,11.015,0.455c5.728,0,11.556-0.337,17.192-0.663c5.694-0.33,11.582-0.67,17.428-0.67l1.482-0.003
						c5.742-0.035,10.254-0.035,12.938,2.64c1.333,1.328,2.009,3.177,2.009,5.495c0,3.666-2.804,6.827-5.514,9.886
						c-2.084,2.35-4.241,4.782-4.241,6.598c0,0.107,0.011,0.205,0.035,0.298c0.287,1.158-0.418,2.329-1.574,2.617
						c-1.16,0.284-2.329-0.417-2.617-1.574c-0.107-0.433-0.162-0.884-0.162-1.341c0-3.455,2.709-6.509,5.327-9.463
						c2.177-2.456,4.428-4.994,4.428-7.021c0-1.699-0.557-2.253-0.739-2.436c-1.414-1.41-5.534-1.4-9.873-1.38l-1.497,0.003
						c-5.721,0-11.546,0.337-17.18,0.663c-5.697,0.329-11.588,0.67-17.441,0.67c-4.817,0-8.125-0.237-11.324-0.467
						c-2.749-0.197-5.346-0.382-8.642-0.382c-6.549,0-17.537,0.838-17.537,6.449c0,2.783,1.123,5.301,2.423,8.216
						c1.604,3.598,3.421,7.675,3.828,13.459c0.084,1.191-0.813,2.222-2.002,2.305C138.596,157.007,138.545,157.008,138.493,157.008z
						"/>
				</g>
			</g>
			<g>
				<g>
					<path style="fill:#525D7D;" d="M161.817,151.781c-1.15,0-2.106-0.905-2.156-2.065c-0.051-1.192,0.873-2.2,2.063-2.252
						c8.036-0.348,16.357-0.348,24.405-0.348c1.192,0,2.159,0.967,2.159,2.159c0,1.192-0.967,2.159-2.159,2.159
						c-8.001,0-16.276,0-24.216,0.346C161.88,151.781,161.848,151.781,161.817,151.781z"/>
				</g>
			</g>
			<g>
				<g>
					<path style="fill:#525D7D;" d="M173.366,160.867c-1.563,0-3.128-0.014-4.702-0.028c-1.576-0.014-3.161-0.028-4.761-0.028
						c-1.192,0-2.159-0.967-2.159-2.159s0.967-2.159,2.159-2.159c1.612,0,3.211,0.014,4.8,0.028c1.56,0.014,3.112,0.028,4.663,0.028
						c4.085,0,8.929-0.087,13.872-0.732c1.189-0.165,2.266,0.679,2.42,1.861c0.155,1.182-0.679,2.266-1.861,2.421
						C182.608,160.775,177.589,160.867,173.366,160.867z"/>
				</g>
			</g>
			<g>
				<g>
					<path style="fill:#525D7D;" d="M168.228,170.012c-2.442,0-5.056-0.055-8.226-0.173c-1.192-0.045-2.121-1.046-2.078-2.238
						c0.045-1.191,1.066-2.139,2.238-2.078c3.115,0.117,5.679,0.17,8.066,0.17c7.588,0,13.673-0.589,19.152-1.853
						c1.168-0.259,2.322,0.457,2.589,1.619c0.267,1.161-0.457,2.321-1.619,2.589C182.544,169.388,176.15,170.012,168.228,170.012z"
						/>
				</g>
			</g>
			<g>
				<g>
					<path style="fill:#525D7D;" d="M173.321,202.542c-10.204,0-21.737-6.227-24.04-18.129c-0.226-1.171,0.538-2.304,1.709-2.53
						c1.17-0.228,2.302,0.538,2.53,1.709c1.858,9.606,11.369,14.631,19.801,14.631c9.505,0,16.04-4.463,19.424-13.266
						c0.429-1.115,1.684-1.661,2.79-1.241c1.113,0.429,1.669,1.678,1.241,2.79C192.742,196.997,184.632,202.542,173.321,202.542z"/>
				</g>
			</g>
			<g>
				<g>
					<path style="fill:#525D7D;" d="M173.416,190.67c-3.012,0-5.379-1.567-6.334-4.194c-0.406-1.12,0.172-2.359,1.293-2.766
						c1.123-0.406,2.359,0.171,2.766,1.293c0.405,1.115,1.461,1.349,2.274,1.349c1.245,0,2.588-0.579,3.343-1.442
						c0.783-0.897,2.148-0.991,3.046-0.204c0.898,0.784,0.99,2.148,0.204,3.046C178.436,189.553,175.91,190.67,173.416,190.67z"/>
				</g>
			</g>
			<g>
				<g>
					<path style="fill:#525D7D;" d="M34.056,141.896c-0.377,0-0.756-0.097-1.102-0.304c-1.025-0.61-1.362-1.934-0.752-2.959
						c0.765-1.288,1.555-2.558,2.346-3.832c1.414-2.274,2.875-4.626,4.162-7.035c2.148-4.016,4.862-9.693,7.849-16.419
						c0.485-1.088,1.756-1.584,2.851-1.096c1.089,0.485,1.58,1.76,1.096,2.851c-3.031,6.819-5.793,12.594-7.987,16.7
						c-1.355,2.533-2.853,4.947-4.303,7.278c-0.777,1.251-1.553,2.498-2.304,3.76C35.509,141.52,34.791,141.896,34.056,141.896z"/>
				</g>
			</g>
			<g>
				<g>
					<path style="fill:#525D7D;" d="M55.898,96.951c-0.267,0-0.538-0.049-0.801-0.155c-1.108-0.443-1.646-1.699-1.203-2.806
						c3.149-7.871,4.131-11.01,4.21-11.57c-0.003-0.035-0.015-0.082-0.03-0.122c-0.306,0.011-0.682,0.083-1.075,0.159
						c-0.649,0.124-1.385,0.264-2.19,0.264c-4.331,0-8.338-3.326-12.249-10.168c-0.59-1.035-0.232-2.354,0.804-2.946
						c1.033-0.588,2.354-0.232,2.946,0.804c3.775,6.607,6.705,7.992,8.498,7.992c0.396,0,0.873-0.091,1.377-0.188
						c0.614-0.117,1.251-0.239,1.928-0.239c2.492,0,4.3,1.927,4.3,4.581c0,0.481,0,1.757-4.512,13.036
						C57.565,96.438,56.754,96.951,55.898,96.951z"/>
				</g>
			</g>
			<g>
				<g>
					<path style="fill:#525D7D;" d="M100,107.327c-0.412,0-0.827-0.117-1.193-0.361c-0.744-0.493-1.508-1.074-2.339-1.775
						c-0.911-0.77-1.026-2.132-0.257-3.043c0.77-0.911,2.132-1.026,3.043-0.257c0.703,0.595,1.338,1.078,1.943,1.48
						c0.994,0.659,1.264,2,0.603,2.993C101.383,106.989,100.698,107.327,100,107.327z"/>
				</g>
			</g>
			<g>
				<g>
					<path style="fill:#525D7D;" d="M99.761,176.52c-1.58,0-19.271-1.181-23.317-2.193c-0.685-0.17-1.243-0.665-1.494-1.323
						c-0.267-0.701-0.613-1.591-1.019-2.634c-5.742-14.777-11.613-30.805-11.613-37.637c0-0.423,3.552-42.269,19.212-42.269
						c2.624,0,5.188,0.866,7.838,2.65c0.99,0.665,1.253,2.006,0.588,2.995c-0.668,0.991-2.009,1.251-2.997,0.586
						c-1.941-1.304-3.666-1.913-5.429-1.913c-9.652,0-14.745,32.77-14.894,37.972c0,6.923,8.224,28.086,11.321,36.052
						c0.216,0.559,0.417,1.075,0.597,1.542c4.982,0.822,19.715,1.854,21.207,1.854c6.851,0,14.428-0.901,21.113-1.695
						c4.997-0.593,9.311-1.106,12.287-1.106c1.192,0,2.159,0.967,2.159,2.159c0,1.192-0.967,2.159-2.159,2.159
						c-2.72,0-6.917,0.499-11.776,1.077C114.579,175.603,106.868,176.52,99.761,176.52z"/>
				</g>
			</g>
			<g>
				<g>
					<path style="fill:#525D7D;" d="M79.513,173.314c-0.032,0-0.066-0.001-0.1-0.003c-1.191-0.053-2.113-1.063-2.058-2.255
						c0.378-8.352,4.615-10.991,8.019-13.11c3.274-2.04,5.639-3.513,5.639-9.647c0-25.588,17.012-32.379,24.277-35.279
						c0.807-0.322,1.791-0.714,2.18-0.933c0.209-0.354,0.305-0.766,0.305-1.31c0-0.879-0.252-1.936-0.517-3.056
						c-0.325-1.365-0.661-2.775-0.661-4.262c0-1.192,0.967-2.159,2.159-2.159c1.192,0,2.159,0.967,2.159,2.159
						c0,0.98,0.264,2.089,0.543,3.262c0.312,1.313,0.635,2.671,0.635,4.055c0,1.542-0.42,2.896-1.25,4.026
						c-0.675,0.921-1.839,1.385-3.953,2.228c-6.999,2.793-21.56,8.605-21.56,31.268c0,8.532-4.255,11.182-7.675,13.311
						c-3.192,1.989-5.713,3.559-5.99,9.643C81.615,172.41,80.66,173.314,79.513,173.314z"/>
				</g>
			</g>
			<g>
				<g>
					<path style="fill:#525D7D;" d="M97.921,174.702c-0.066,0-0.132-0.003-0.198-0.008c-1.188-0.108-2.062-1.158-1.955-2.346
						c0.737-8.098,4.997-10.593,8.421-12.597c3.168-1.854,5.26-3.08,5.26-8.289c0-19.485,13.297-30.22,19.737-32.365
						c1.139-0.379,2.355,0.235,2.731,1.365c0.377,1.131-0.235,2.354-1.365,2.731c-5.476,1.825-16.785,11.136-16.785,28.269
						c0,7.685-4.1,10.085-7.395,12.015c-3.095,1.812-5.769,3.376-6.303,9.262C99.966,173.86,99.024,174.702,97.921,174.702z"/>
				</g>
			</g>
			<g>
				<g>
					<path style="fill:#525D7D;" d="M118.064,173.661c-0.077,0-0.155-0.004-0.233-0.013c-1.185-0.126-2.044-1.191-1.916-2.377
						c2.482-23.176,4.473-25.48,16.035-35.391c0.908-0.777,2.269-0.67,3.045,0.233c0.776,0.905,0.672,2.269-0.233,3.045
						c-10.795,9.253-12.183,10.441-14.554,32.574C120.089,172.838,119.153,173.661,118.064,173.661z"/>
				</g>
			</g>
			<g>
				<g>
					<path style="fill:#525D7D;" d="M153.486,126.429c-0.732,0-1.448-0.374-1.853-1.049c-0.614-1.022-0.283-2.349,0.741-2.962
						c5.741-3.445,8.141-7.867,8.141-26.337c0-28.752-7.635-29.662-13.77-30.393c-3.653-0.436-8.656-1.032-8.656-8.702
						c0-4.63,3.284-7.748,6.458-10.763c2.862-2.716,5.563-5.282,5.563-8.656c0-2.204-0.834-2.204-1.715-2.204
						c-0.832,0-1.756,0.412-2.732,0.849c-0.373,0.166-0.742,0.33-1.112,0.478c-1.103,0.444-2.363-0.094-2.806-1.203
						c-0.443-1.106,0.096-2.363,1.203-2.806c0.316-0.127,0.633-0.268,0.953-0.412c1.285-0.573,2.741-1.224,4.494-1.224
						c3.778,0,6.033,2.439,6.033,6.522c0,5.229-3.67,8.714-6.907,11.788c-2.744,2.605-5.114,4.855-5.114,7.631
						c0,3.836,1.028,3.958,4.848,4.414c7,0.835,17.577,2.094,17.577,34.681c0,18.536-2.297,25.275-10.239,30.04
						C154.247,126.33,153.864,126.429,153.486,126.429z"/>
				</g>
			</g>
			<g>
				<g>
					<path style="fill:#525D7D;" d="M150.707,34.397c-0.748,0-1.476-0.389-1.875-1.085c-0.521-0.911-0.774-1.885-0.774-2.981
						c0-0.952,0.197-1.834,0.37-2.613c0.136-0.616,0.266-1.198,0.266-1.676c0-0.19-0.021-0.354-0.063-0.506
						c-0.327-1.146,0.339-2.34,1.486-2.667c1.14-0.327,2.34,0.337,2.667,1.486c0.152,0.533,0.229,1.101,0.229,1.687
						c0,0.952-0.197,1.834-0.37,2.613c-0.136,0.616-0.266,1.198-0.266,1.676c0,0.336,0.06,0.585,0.204,0.834
						c0.592,1.035,0.235,2.355-0.8,2.948C151.44,34.306,151.071,34.397,150.707,34.397z"/>
				</g>
			</g>
			<g>
				<g>
					<path style="fill:#525D7D;" d="M111.738,28.967c-0.555,0-1.091-0.214-1.494-0.602c-0.444-0.424-0.684-1.018-0.663-1.632
						C110.096,11.743,121.277,0,135.035,0c13.153,0,20.297,8.129,22.487,25.584c0.077,0.614-0.114,1.233-0.524,1.698
						c-0.409,0.464-1,0.73-1.618,0.73L145.71,28c-10.236,0-22.134,0.074-33.808,0.961C111.846,28.966,111.793,28.967,111.738,28.967
						z M135.035,4.318c-10.684,0-19.5,8.677-20.947,20.158c11.001-0.729,22.036-0.794,31.621-0.794l7.179,0.008
						C150.115,6.687,142.349,4.318,135.035,4.318z"/>
				</g>
			</g>
			<g>
				<g>
					<path style="fill:#525D7D;" d="M129.931,59.085c-10.627,0-17.228-8.392-17.228-21.901c0-1.198,0.028-2.399,0.055-3.596
						c0.027-1.151,0.053-2.297,0.053-3.427c0-0.676-0.01-1.345-0.035-2.006c-0.046-1.192,0.883-2.196,2.073-2.242
						c1.257-0.032,2.197,0.883,2.242,2.073c0.028,0.717,0.038,1.442,0.038,2.174c0,1.163-0.027,2.342-0.055,3.527
						c-0.027,1.163-0.053,2.332-0.053,3.496c0,4.124,0.931,17.583,12.909,17.583c0.836,0,1.536-0.125,2.139-0.384
						c1.103-0.468,2.367,0.041,2.835,1.134c0.47,1.096-0.039,2.366-1.134,2.835C132.62,58.846,131.364,59.085,129.931,59.085z"/>
				</g>
			</g>
			<g>
				<g>
					<path style="fill:#525D7D;" d="M106.04,84.08c-35.685,0-41.134-3.181-45.513-5.738c-1.706-0.995-3.06-1.785-6.448-2.262
						c-0.233,0.287-0.54,1.049-0.54,1.653c0,1.192-0.967,2.159-2.159,2.159c-1.192,0-2.159-0.967-2.159-2.159
						c0-2.513,1.636-5.994,4.709-5.994c0.172,0,0.339,0.01,0.506,0.032c4.405,0.588,6.369,1.733,8.266,2.841
						c3.717,2.169,8.802,5.139,43.155,5.149c1.155-0.336,6.58-2.839,11.994-6.426c6.113-4.048,9.762-7.908,9.762-10.326
						c0-0.507-0.067-1.063-0.14-1.65c-0.084-0.689-0.172-1.401-0.172-2.169c0-0.405,0.024-0.808,0.083-1.213
						c0.169-1.181,1.272-2.004,2.444-1.829c1.181,0.17,1.999,1.265,1.829,2.444c-0.028,0.199-0.038,0.398-0.038,0.597
						c0,0.505,0.068,1.057,0.139,1.643c0.086,0.69,0.173,1.404,0.173,2.176C131.932,72.693,108.224,84.08,106.04,84.08z"/>
				</g>
			</g>
			<g>
				<g>
					<path style="fill:#525D7D;" d="M95.943,111.333c-1.192,0-2.045-0.405-2.61-0.672c-0.135-0.065-0.259-0.139-0.398-0.174
						c-5.555,0.001-10.472-4.244-10.472-9.08c0-5.496,3.12-9.048,7.949-9.048c1.899,0,3.71,0.325,5.46,0.64
						c1.64,0.295,3.191,0.573,4.712,0.573c16.847,0,38.624-14.592,44.897-19.065c0.429-0.305,0.834-0.595,1.529-0.595
						c4.526,0,6.213,5.807,6.213,9.467c0,15.861-38.753,22.687-44.906,22.687c-1.705,0-3.331-0.315-4.904-0.62
						c-1.14-0.221-2.218-0.429-3.287-0.516c-0.589,0.003-1.279,0.474-1.279,0.706c0,0.281,0.053,0.568,0.097,0.853
						c0.067,0.437,0.145,0.933,0.145,1.463C99.089,110.448,97.394,111.333,95.943,111.333z M90.412,96.677
						c-3.001,0-3.631,2.572-3.631,4.73c0,2.451,3.024,4.769,6.223,4.769c0.626,0,1.148,0.146,1.58,0.318
						c-0.032-0.271-0.055-0.558-0.055-0.857c0-3.144,3.192-5.267,5.951-5.008c1.306,0.105,2.55,0.346,3.753,0.579
						c1.436,0.278,2.793,0.541,4.083,0.541c8.484,0,40.588-7.815,40.588-18.369c0-1.907-0.756-4.259-1.491-4.949
						c-7.207,5.076-29.199,19.46-46.83,19.46c-1.906,0-3.721-0.326-5.475-0.641C93.472,96.955,91.926,96.677,90.412,96.677z"/>
				</g>
			</g>
			<g>
				<g>
					<path style="fill:#525D7D;" d="M55.126,117.073c-0.094,0-0.188-0.001-0.284-0.003c-7.333-0.156-11.335-6.339-11.377-12.08
						c-0.038-5.292,3.206-10.011,8.074-11.744c1.143-0.411,2.286-0.618,3.492-0.637c3.182-0.032,6.27,1.226,8.58,3.589
						c2.439,2.496,3.762,5.919,3.629,9.39C67.026,111.159,62.344,117.073,55.126,117.073z M55.208,96.926
						c-0.038,0-0.074,0-0.112,0.001c-0.723,0.011-1.408,0.136-2.097,0.384c-3.196,1.136-5.24,4.137-5.215,7.648
						c0.027,3.705,2.543,7.696,7.152,7.793c0.06,0.001,0.122,0.003,0.184,0.003c4.654,0,7.669-3.776,7.805-7.333
						c0.087-2.291-0.788-4.553-2.402-6.206C59.076,97.737,57.192,96.926,55.208,96.926z"/>
				</g>
			</g>
			<g>
				<g>
					<path style="fill:#525D7D;" d="M135.18,75.948c-4.071,0-7.595-1.739-9.669-4.771c-0.673-0.984-0.42-2.328,0.564-3.001
						c0.985-0.672,2.328-0.42,3.001,0.564c1.72,2.515,4.563,2.89,6.105,2.89c4.563,0,7.597-2.274,9.551-7.159
						c0.443-1.106,1.697-1.645,2.807-1.202c1.106,0.443,1.645,1.699,1.202,2.807C146.12,72.626,141.557,75.948,135.18,75.948z"/>
				</g>
			</g>
			<g>
				<g>
					<path style="fill:#525D7D;" d="M176.029,120.308c-1.178,0-2.139-0.945-2.159-2.124c-0.09-5.531-0.417-11.228-0.735-16.738
						c-0.378-6.574-0.769-13.37-0.769-20.027c0-1.195,0.013-2.385,0.039-3.576c0.027-1.175,0.988-2.11,2.158-2.11
						c0.042,0,2.371,0.049,2.371,0.049c2.262,0.048,4.536,0.097,6.798,0.097c0.013-0.003,12.613-0.642,47.066-1.49
						c1.141-0.02,2.12,0.849,2.207,1.996c0.505,6.688,0.707,13.496,0.902,20.08c0.202,6.824,0.412,13.881,0.96,20.757
						c0.048,0.604-0.16,1.2-0.574,1.645c-0.408,0.437-0.98,0.686-1.578,0.686c-11.49-0.117-23.239,0.138-34.607,0.38
						C190.868,120.085,183.382,120.244,176.029,120.308z M176.69,80.096c-0.004,0.44-0.006,0.881-0.006,1.323
						c0,6.532,0.388,13.266,0.762,19.779c0.28,4.849,0.567,9.842,0.696,14.772c6.623-0.073,13.349-0.216,19.874-0.354
						c10.625-0.225,21.606-0.461,32.373-0.399c-0.43-6.223-0.617-12.516-0.798-18.623c-0.174-5.86-0.353-11.9-0.746-17.835
						c-32.819,0.82-44.881,1.431-45.001,1.437c-2.346,0.034-4.707-0.045-7.002-0.096L176.69,80.096z"/>
				</g>
			</g>
			<g>
				<g>
					<path style="fill:#525D7D;" d="M197.885,118.859c-1.106,0-2.049-0.846-2.148-1.969c-1.016-11.506-1.488-23.443-1.488-37.566
						c0-1.192,0.967-2.159,2.159-2.159c1.192,0,2.159,0.967,2.159,2.159c0,13.993,0.468,25.809,1.472,37.186
						c0.105,1.188-0.773,2.235-1.961,2.34C198.013,118.856,197.949,118.859,197.885,118.859z"/>
				</g>
			</g>
			<g>
				<g>
					<path style="fill:#525D7D;" d="M208.98,117.34c-1.103,0-2.045-0.842-2.148-1.964c-0.351-3.866-0.514-8.004-0.514-13.025
						c0-2.97,0.055-5.933,0.111-8.9c0.055-2.95,0.111-5.905,0.111-8.878c0-1.844-0.022-3.694-0.077-5.555
						c-0.037-1.192,0.901-2.187,2.093-2.222c1.161-0.07,2.187,0.901,2.222,2.093c0.058,1.903,0.08,3.798,0.08,5.684
						c0,3-0.056,5.982-0.111,8.96c-0.056,2.941-0.111,5.876-0.111,8.819c0,4.887,0.157,8.902,0.498,12.634
						c0.107,1.188-0.767,2.238-1.955,2.346C209.112,117.337,209.046,117.34,208.98,117.34z"/>
				</g>
			</g>
			<g>
				<g>
					<path style="fill:#525D7D;" d="M85.087,94.632c-0.432,0-0.863-0.128-1.233-0.385c-0.588-0.259-2.742-0.894-4.654-1.458
						c-5.455-1.61-13.701-4.043-18.554-6.772c-1.039-0.585-1.408-1.902-0.824-2.941c0.585-1.039,1.903-1.408,2.94-0.824
						c4.428,2.491,12.391,4.84,17.659,6.394c4.828,1.425,5.563,1.671,6.192,2.3c0.843,0.843,0.843,2.21,0,3.053
						C86.192,94.421,85.64,94.632,85.087,94.632z M83.923,94.278h0.014H83.923z M83.564,94.002v0.001V94.002z M83.561,93.999
						c0,0.001,0.001,0.001,0.001,0.003C83.562,94.001,83.561,94.001,83.561,93.999z"/>
				</g>
			</g>
			<g>
				<g>
					<path style="fill:#525D7D;" d="M132.224,114.273c-4.283,0-8.383-0.47-12.19-1.396c-1.158-0.281-1.869-1.449-1.587-2.607
						c0.281-1.158,1.451-1.872,2.607-1.587c3.472,0.843,7.231,1.272,11.169,1.272c10.168,0,20.304-2.755,28.88-5.448
						c1.137-0.365,2.349,0.274,2.706,1.413c0.358,1.137-0.274,2.349-1.413,2.706C153.511,111.418,142.976,114.273,132.224,114.273z"
						/>
				</g>
			</g>
		</g>
	</g>
</g>
<g id="Layer_1">
</g>
</svg>
