<?xml version="1.0" encoding="iso-8859-1"?>
<!-- Generator: Adobe Illustrator 21.0.2, SVG Export Plug-In . SVG Version: 6.00 Build 0)  -->
<svg version="1.1" xmlns="http://www.w3.org/2000/svg" xmlns:xlink="http://www.w3.org/1999/xlink" x="0px" y="0px"
	 viewBox="0 0 170.941 171.054" style="enable-background:new 0 0 170.941 171.054;" xml:space="preserve">
<g id="_x33_6">
	<g>
		<g>
			<path style="fill:#E0DFE6;" d="M170.706,139.692c-0.451-3.563-2.445-4.365-4.092-6.888c-2.216-3.393-1.869-10.664-2.321-14.948
				c-0.609-5.775-1.186-11.554-1.73-17.336c-2.089-22.199-4.615-44.336-6.311-66.575c-0.194-2.545-3.985-2.615-4.013,0
				c-0.213,20.244-0.328,40.562,0.546,60.793c0.416,9.636,1.124,19.276,1.842,28.893c0.562,7.519,0.388,12.502,5.252,17.166
				c0.615,3.108-0.166,7.018-0.794,10.374c-3.655,0.344-7.285,0.75-10.91,1.151c0.346-1.935,0.397-3.868-0.481-5.588
				c-0.959-1.879-3.157-2.384-5.047-2.054c-2.86,0.501-5.025,4.048-6.792,6.131c-0.725,0.854-1.316,1.831-1.659,2.876
				c-3.235,0.243-6.485,0.419-9.765,0.465c-12.302,0.173-24.599-0.334-36.899-0.468c-18.93-0.206-37.918-0.71-56.812,0.382
				c0.283-0.459,0.531-0.945,0.74-1.506c0.033-0.088,0.066-0.175,0.098-0.263c0.222-0.477,0.44-0.955,0.711-1.408
				c0.152-0.254,0.312-0.504,0.48-0.749c0.046-0.068,0.096-0.133,0.143-0.2c0.024-0.029,0.036-0.043,0.067-0.081
				c1.187-1.424,1.759-3.505,0.67-5.194c-0.995-1.544-2.995-2.582-4.841-1.97c-1.418,0.47-2.83,1.065-4.118,1.827
				c-1.654,0.978-3.516,2.236-4.296,4.043c-0.618,1.432-1.098,2.921-0.588,4.498c0.209,0.646,0.498,1.228,0.868,1.752
				c-2.534,0.231-5.067,0.489-7.596,0.795c-1.921,0.233-2.849,3.384-0.509,3.762c0.074,0.012,0.148,0.022,0.222,0.034
				c-1.476,0.21-2.945,0.447-4.401,0.731c-2.766,0.54-2.437,4.55,0,5.276c12.052,3.589,25.523,4.036,38.013,4.748
				c13.384,0.763,26.775,0.886,40.178,0.889c26.282,0.006,53,0.196,79.084-3.331c4.815-0.651,5.441-6.012,3.222-9.402
				c1.061-0.956,1.771-2.331,1.756-4.18C170.586,149.43,171.295,144.341,170.706,139.692z"/>
		</g>
		<g>
			<path style="fill:#E0DFE6;" d="M120.763,93.386c-0.207-2.677-4.057-2.721-4.195,0c-0.709,13.913-0.669,27.923-1.682,41.811
				c-0.41,5.617,9.214,5.535,8.664,0C122.171,121.321,121.839,107.295,120.763,93.386z"/>
		</g>
		<g>
			<path style="fill:#E0DFE6;" d="M152.649,27.95c6.871,0.003,6.882-10.595,0.064-10.579c-2.054,0.005-4.11,0.004-6.167,0.003
				c-0.196-0.979-0.711-1.869-1.576-2.537c-1.112-0.859-2.698-1.158-4.049-0.691c-0.285-0.129-0.577-0.243-0.886-0.33
				c-1.075-0.289-2.15-0.289-3.224,0c-1.83,0.504-3.205,1.792-3.93,3.511c-36.099-0.11-72.454-0.377-108.26,3.88
				c0.74-0.447,1.38-1.051,1.821-1.781c1.621-1.068,2.129-3.314,0.613-4.872c-0.488-0.502-1.023-0.876-1.597-1.191
				c-1.228-1.086-2.904-1.583-4.578-1.122c-2.483,0.684-4.259,3.527-3.44,6.058c0.506,1.563,1.77,2.87,3.299,3.396
				c-1.038,0.133-2.078,0.251-3.115,0.392c-0.894,0.122-0.532,1.336,0.194,1.433c0.646,0.087,1.294,0.157,1.94,0.24
				c-2.235,0.39-4.43,0.891-6.554,1.562c-1.85,0.585-1.598,2.845,0,3.518c14.666,6.177,33.484,5.065,49.117,5.857
				c0.354,0.018,0.708,0.036,1.062,0.054c-2.66,1.29-4.555,3.99-3.465,7.563c1.676,5.497,3.86,11.086,5.092,16.7
				c0.882,4.019,1.377,3.51-2.282,5.195c-2.305,1.061-5.142,1.705-7.562,2.458c-8.906,2.773-20.399,4.089-28.22,9.257
				c-1.591,1.051-1.429,3.639,0.545,4.167c6.407,1.715,13.645-0.057,20.043-1.25c7.422-1.384,15.341-2.958,22.341-5.878
				c4.4-1.836,7.22-5.158,7.248-10.05c0.045-7.879-2.78-16.46-4.19-24.187c-0.298-1.634-1.067-2.813-2.091-3.597
				c5.265,0.266,10.53,0.533,15.794,0.799c7.825,0.396,15.66,1.256,23.238-1.195c3.214-1.04,4.182-4.049,3.58-6.623
				c5.758-0.017,11.512-0.048,17.26-0.081c-13.379,16.579-27.106,32.876-40.928,49.089c-3.661,4.295-7.364,8.556-11.063,12.82
				c-0.059-0.049-0.109-0.1-0.172-0.148c-1.414-1.093-3.066-1.401-4.81-0.988c-1.792,0.425-3.053,1.58-4.423,2.708
				c-1.666,1.372-2.3,4.259-1.654,6.256c0.364,1.124,0.963,2.131,1.792,2.936c-1.003,1.176-2.011,2.347-3.007,3.529
				c-7.397,8.776-15.662,17.889-21.452,27.827c-1.069,1.835,1.213,4.549,3.119,3.119c2.397-1.797,4.73-3.704,7.012-5.691
				c-0.071,4.607,6.107,8.916,10.422,4.66c7.726-7.621,14.266-16.286,20.215-25.332c7.904-8.12,15.45-16.641,22.887-25.186
				c12.251-14.077,23.841-28.774,35.177-43.62c-1.371,13.439-1.25,27.187-1.519,40.61c-0.307,15.296-0.686,30.568-1.326,45.849
				c-0.973-7.518-1.669-15.048-1.922-22.631c-0.139-4.181-6.251-4.154-6.475,0c-0.469,8.703-0.875,17.409-0.91,26.127
				c-0.023,5.692,7.23,6.013,9.164,1.849c0.498,6.906,12.221,6.689,11.903-0.748c-0.719-16.817-1.079-33.617-1.368-50.446
				c-0.27-15.753,0.011-31.966-2.238-47.592c0.881-1.163,1.763-2.326,2.642-3.49C152.184,29.003,152.463,28.472,152.649,27.95z"/>
		</g>
		<g>
			<path style="fill:#E0DFE6;" d="M46.188,112.444c-1.767-7.157-2.415-14.552-4.3-21.686c-0.973-3.683-5.777-2.481-6.18,0.836
				c-0.691,5.687-0.654,11.425-0.946,17.139c-1.245-0.066-2.522,0.374-3.582,1.572c-2.817,3.183-4.083,7.355-5.449,11.322
				c-1.451,4.214-3.172,9.853-8.551,9.697c-1.68-0.049-2.066,2.572-0.4,2.956c10.348,2.386,16.258-7.057,20.798-14.959
				C41.583,120.857,47.69,118.527,46.188,112.444z"/>
		</g>
		<g>
			<g>
				<g>
					<path style="fill:#525D7D;" d="M3.958,25.723c-1.136,0-2.078-0.88-2.154-2.014c-0.183-2.72-0.385-5.436-0.588-8.15
						c-0.306-4.097-0.621-8.334-0.862-12.52C0.32,2.443,0.534,1.858,0.947,1.425c0.413-0.433,0.967-0.658,1.584-0.669
						c13.318,0.129,26.876-0.122,39.993-0.361C53.227,0.201,64.293,0,75.185,0c17.875,0,26.12,0.45,33.394,0.848
						c5.271,0.287,9.824,0.535,17.059,0.535c10.225,0,20.708-0.517,30.845-1.019l2.901-0.142c0.597-0.027,1.173,0.188,1.602,0.6
						c0.429,0.412,0.668,0.983,0.663,1.577c-0.022,2.368-0.058,4.737-0.095,7.105c-0.058,3.847-0.117,7.694-0.117,11.542
						c0,0.737,0.002,1.472,0.007,2.208c0.004,0.575-0.222,1.127-0.627,1.535c-0.405,0.408-0.956,0.638-1.531,0.638
						c-25.524,0.017-51.176,0.082-76.826,0.148C56.247,25.642,30.036,25.708,3.958,25.723z M4.804,5.093
						c0.216,3.399,0.47,6.819,0.718,10.146c0.153,2.054,0.306,4.109,0.451,6.165c25.409-0.018,50.941-0.081,76.475-0.146
						c24.929-0.063,49.858-0.127,74.67-0.146c0-3.934,0.059-7.803,0.117-11.672c0.025-1.597,0.049-3.194,0.069-4.792l-0.609,0.031
						c-10.189,0.503-20.726,1.023-31.058,1.023c-7.352,0-11.96-0.252-17.294-0.542c-7.219-0.394-15.401-0.841-33.158-0.841
						c-10.853,0-21.9,0.201-32.583,0.395C30.216,4.938,17.408,5.176,4.804,5.093z"/>
				</g>
			</g>
			<g>
				<g>
					<path style="fill:#525D7D;" d="M2.638,161.765c-1.149,0-2.104-0.905-2.155-2.063c-0.379-8.522-0.457-16.97-0.482-23.38
						c-0.005-1.153,0.897-2.106,2.048-2.165c12.846-0.662,26.584-0.984,42-0.984c18.863,0,38.027,0.485,56.561,0.954
						c20.224,0.512,41.142,1.04,61.688,0.94c0.557,0.017,1.136,0.228,1.545,0.64c0.408,0.413,0.633,0.971,0.625,1.552
						c-0.089,5.876-0.358,11.715-0.737,18.673c-0.06,1.099-0.935,1.976-2.033,2.04c-30.333,1.722-61.27,2.085-91.187,2.435
						c-22.253,0.26-45.262,0.529-67.79,1.358C2.692,161.765,2.664,161.765,2.638,161.765z M4.328,138.367
						c0.032,5.489,0.115,12.176,0.379,19.004c21.894-0.77,44.178-1.03,65.751-1.283c29.236-0.342,59.443-0.696,89.063-2.321
						c0.276-5.226,0.483-9.838,0.585-14.373c-19.868,0.048-40.075-0.455-59.607-0.95c-18.507-0.468-37.644-0.953-56.452-0.953
						C29.528,137.491,16.509,137.778,4.328,138.367z"/>
				</g>
			</g>
			<g>
				<g>
					<path style="fill:#525D7D;" d="M11.655,136.421c-1.175,0-2.138-0.943-2.158-2.122c-0.211-12.453-0.354-25.077-0.492-37.284
						C8.732,72.988,8.45,48.143,7.638,23.632c-0.04-1.192,0.894-2.19,2.086-2.229c1.194-0.069,2.189,0.894,2.229,2.086
						c0.815,24.559,1.096,49.428,1.369,73.477c0.138,12.202,0.282,24.821,0.493,37.261C13.834,135.418,12.884,136.4,11.655,136.421z
						"/>
				</g>
			</g>
			<g>
				<g>
					<path style="fill:#525D7D;" d="M152.95,137.055c-1.193,0-2.159-0.967-2.159-2.159c0-4.702-0.494-9.495-0.972-14.132
						c-0.348-3.375-0.708-6.867-0.885-10.357c-0.384-7.54-0.562-15.768-0.562-25.897c0-5.087,0.042-10.164,0.084-15.241
						c0.041-5.063,0.084-10.125,0.084-15.193c0-12.204-0.256-21.57-0.83-30.366c-0.078-1.189,0.824-2.217,2.014-2.296
						c1.2-0.06,2.217,0.824,2.295,2.014c0.581,8.893,0.84,18.346,0.84,30.647c0,5.08-0.042,10.154-0.084,15.229
						c-0.041,5.065-0.084,10.13-0.084,15.206c0,10.054,0.177,18.214,0.557,25.678c0.171,3.379,0.526,6.813,0.868,10.133
						c0.489,4.745,0.994,9.651,0.994,14.575C155.109,136.088,154.143,137.055,152.95,137.055z"/>
				</g>
			</g>
			<g>
				<g>
					<path style="fill:#525D7D;" d="M25.285,136.052c-0.503,0-1.008-0.174-1.417-0.53c-0.9-0.783-0.994-2.148-0.211-3.046
						c0.505-0.581,51.056-58.633,97.37-109.737c0.801-0.886,2.167-0.953,3.05-0.15c0.883,0.8,0.951,2.166,0.15,3.049
						C77.942,76.711,27.419,134.73,26.914,135.309C26.487,135.8,25.887,136.052,25.285,136.052z"/>
				</g>
			</g>
			<g>
				<g>
					<path style="fill:#525D7D;" d="M50.328,135.735c-0.435,0-0.874-0.131-1.255-0.403c-0.97-0.694-1.193-2.042-0.499-3.012
						c13.437-18.774,86.539-100.06,94.831-109.267l0.131-0.145c0.798-0.888,2.163-0.959,3.05-0.162
						c0.886,0.798,0.958,2.163,0.161,3.049l-0.132,0.148c-8.275,9.189-81.228,90.308-94.528,108.89
						C51.664,135.422,51.001,135.735,50.328,135.735z"/>
				</g>
			</g>
			<g>
				<g>
					<path style="fill:#525D7D;" d="M137.184,18.197c-2.749,0-5.072-2.215-5.072-4.838c0-2.485,1.47-4.384,3.576-4.619
						c0.59-0.065,1.163-0.115,1.699-0.115c2.933,0,4.982,1.962,4.982,4.774C142.368,16.269,139.688,18.197,137.184,18.197z
						 M136.472,12.999c-0.022,0.091-0.041,0.215-0.041,0.36c0,0.167,0.357,0.52,0.754,0.52c0.435,0,0.866-0.353,0.866-0.481
						c0-0.322,0-0.455-0.664-0.455C137.095,12.943,136.787,12.967,136.472,12.999z"/>
				</g>
			</g>
			<g>
				<g>
					<path style="fill:#525D7D;" d="M25.221,151.766c-2.558,0-4.414-2.093-4.414-4.977c0-1.652,0.614-3.212,1.685-4.28
						c0.783-0.78,1.812-1.192,2.978-1.192c2.674,0,5.537,1.854,5.537,4.615C31.008,148.75,28.682,151.766,25.221,151.766z
						 M25.479,145.635c-0.214,0.264-0.354,0.713-0.354,1.154c0,0.441,0.13,0.671,0.165,0.707c0.774-0.045,1.324-0.832,1.393-1.441
						C26.482,145.874,25.932,145.638,25.479,145.635z"/>
				</g>
			</g>
			<g>
				<g>
					<path style="fill:#525D7D;" d="M21.09,17.894c-2.52,0-5.218-1.881-5.218-4.682c0-1.435,1.261-4.8,3.707-4.8l0.613-0.003
						c3.442,0,5.496,1.853,5.496,4.955C25.689,15.945,23.712,17.894,21.09,17.894z M20.385,12.729
						c-0.096,0.207-0.18,0.439-0.2,0.576c0.074,0.016,0.545,0.27,0.905,0.27c0.281,0,0.281-0.103,0.281-0.212
						c0-0.335-0.064-0.448-0.066-0.453C21.302,12.911,21.096,12.755,20.385,12.729z M19.595,12.729h-0.015
						C19.584,12.729,19.59,12.729,19.595,12.729z"/>
				</g>
			</g>
			<g>
				<g>
					<path style="fill:#525D7D;" d="M140.03,152.056c-2.348,0-4.974-1.961-4.974-4.584c0-1.559,1.515-4.175,3.61-4.599
						c0.251-0.051,0.503-0.077,0.749-0.077c2.137,0,4.518,1.958,4.518,4.769C143.933,149.773,142.473,152.056,140.03,152.056z
						 M139.439,147.506c0.045,0.024,0.107,0.056,0.175,0.09c0.001-0.124-0.028-0.204-0.069-0.27
						C139.507,147.385,139.471,147.447,139.439,147.506z M139.294,147.1L139.294,147.1L139.294,147.1z"/>
				</g>
			</g>
			<g>
				<g>
					<path style="fill:#525D7D;" d="M27.092,76.767c-0.409,0-0.813-0.117-1.165-0.342c-0.516-0.33-0.867-0.864-0.966-1.469
						c-0.483-2.96-0.932-5.928-1.38-8.895c-1.044-6.912-2.124-14.059-3.648-20.913c-0.251-1.127,0.431-2.253,1.547-2.553
						c7.053-1.898,14.278-3.923,21.264-5.881c6.056-1.698,12.112-3.396,18.139-5.036c0.576-0.155,1.187-0.068,1.695,0.242
						c0.507,0.311,0.864,0.818,0.985,1.4l0.705,3.396c1.732,8.373,3.524,17.032,6.062,25.353c0.17,0.555,0.108,1.156-0.171,1.666
						c-0.279,0.51-0.751,0.885-1.311,1.043c-6.388,1.794-12.889,3.708-19.176,5.561c-7.21,2.124-14.665,4.321-22.007,6.349
						C27.478,76.742,27.285,76.767,27.092,76.767z M24.584,46.231c1.33,6.362,2.314,12.871,3.267,19.186
						c0.325,2.155,0.651,4.311,0.99,6.463c6.554-1.836,13.181-3.788,19.612-5.683c5.611-1.653,11.391-3.355,17.121-4.98
						c-2.268-7.843-3.926-15.856-5.534-23.625l-0.237-1.143c-5.285,1.449-10.589,2.936-15.893,4.422
						C37.565,42.651,31.024,44.485,24.584,46.231z"/>
				</g>
			</g>
			<g>
				<g>
					<path style="fill:#525D7D;" d="M42.045,57.928c-4.01,0-7.598-2.704-9.364-7.056c-0.218-0.54-0.21-1.144,0.023-1.678
						c0.233-0.533,0.672-0.949,1.217-1.154c1.732-0.654,3.442-1.351,5.149-2.045c3.395-1.383,6.905-2.813,10.553-3.877
						c1.031-0.299,2.134,0.207,2.574,1.192c0.779,1.739,1.173,3.584,1.173,5.483C53.371,54.161,46.023,57.928,42.045,57.928z
						 M37.762,51.179c1.005,1.358,2.456,2.43,4.284,2.43c2.376,0,7.007-2.6,7.007-4.817c0-0.648-0.068-1.286-0.202-1.912
						c-2.723,0.9-5.375,1.981-8.151,3.112C39.722,50.391,38.744,50.788,37.762,51.179z"/>
				</g>
			</g>
			<g>
				<g>
					<path style="fill:#525D7D;" d="M48.743,63.453c-1.057,0-1.981-0.777-2.134-1.854c-0.157-1.098-0.65-2.18-1.172-3.326
						c-0.339-0.745-0.689-1.514-0.958-2.319c-0.377-1.131,0.234-2.354,1.366-2.731c1.134-0.378,2.354,0.236,2.73,1.365
						c0.197,0.589,0.486,1.223,0.791,1.895c0.596,1.309,1.272,2.793,1.517,4.507c0.169,1.181-0.651,2.274-1.832,2.443
						C48.947,63.446,48.844,63.453,48.743,63.453z"/>
				</g>
			</g>
			<g>
				<g>
					<path style="fill:#525D7D;" d="M42.085,66.623c-0.983,0-1.872-0.675-2.101-1.674c-0.268-1.162,0.457-2.321,1.619-2.589
						c3.549-0.818,7.456-2.222,11.944-4.294c1.082-0.498,2.365-0.025,2.865,1.056c0.5,1.084,0.027,2.366-1.056,2.866
						c-4.761,2.197-8.943,3.695-12.783,4.581C42.41,66.606,42.246,66.623,42.085,66.623z"/>
				</g>
			</g>
			<g>
				<g>
					<path style="fill:#525D7D;" d="M36.7,110.056c-1.254-0.034-2.193-1.027-2.16-2.22c0.045-1.611,0.064-3.213,0.064-4.813
						c0-4.81-0.176-9.683-0.347-14.397c-0.173-4.775-0.351-9.713-0.351-14.651c0-1.192,0.966-2.159,2.159-2.159
						s2.159,0.967,2.159,2.159c0,4.861,0.177,9.758,0.349,14.495c0.172,4.751,0.35,9.664,0.35,14.553
						c0,1.639-0.019,3.283-0.065,4.934C38.824,109.128,37.864,110.056,36.7,110.056z"/>
				</g>
			</g>
			<g>
				<g>
					<path style="fill:#525D7D;" d="M54.767,94.838c-1.115,0-2.059-0.856-2.15-1.986c-0.324-4.05-0.324-8.203-0.324-12.219
						c0-3.931,0-7.998-0.311-11.875c-0.096-1.189,0.791-2.229,1.98-2.325c1.183-0.09,2.229,0.79,2.324,1.979
						c0.325,4.05,0.325,8.203,0.325,12.221c0,3.932,0,7.998,0.31,11.874c0.096,1.189-0.791,2.229-1.98,2.325
						C54.883,94.835,54.825,94.838,54.767,94.838z"/>
				</g>
			</g>
			<g>
				<g>
					<path style="fill:#525D7D;" d="M86.153,64.087c-1.166,0-2.126-0.929-2.157-2.103c-0.159-6.037-0.24-12.087-0.318-17.94
						c-0.077-5.838-0.158-11.873-0.316-17.884c-0.032-1.192,0.909-2.183,2.101-2.214c1.174-0.08,2.184,0.908,2.215,2.101
						c0.159,6.037,0.24,12.088,0.318,17.94c0.077,5.838,0.158,11.874,0.316,17.884C88.344,63.064,87.403,64.055,86.153,64.087z"/>
				</g>
			</g>
			<g>
				<g>
					<path style="fill:#525D7D;" d="M87.842,135.735c-1.172,0-2.133-0.936-2.158-2.114c-0.066-3.123-0.098-6.303-0.098-9.718
						c0-8.711,0.214-17.555,0.42-26.107c0.072-2.988,0.145-5.977,0.209-8.967c0.025-1.192,0.994-2.138,2.204-2.113
						c1.193,0.025,2.138,1.013,2.113,2.205c-0.063,2.993-0.136,5.985-0.208,8.979c-0.207,8.525-0.42,17.343-0.42,26.002
						c0,3.385,0.032,6.533,0.097,9.629C90.027,134.723,89.081,135.71,87.842,135.735z"/>
				</g>
			</g>
			<g>
				<g>
					<path style="fill:#525D7D;" d="M115.639,121.876c-1.261-0.038-2.197-1.034-2.159-2.226l0.012-0.384
						c0.502-16.071,1.022-32.69,1.022-49.039c0-3.701-0.026-7.405-0.084-11.119c-0.018-1.192,0.933-2.174,2.125-2.193
						c1.236,0.02,2.174,0.933,2.193,2.125c0.058,3.736,0.084,7.462,0.084,11.186c0,16.416-0.521,33.069-1.024,49.173l-0.013,0.384
						C117.759,120.954,116.8,121.876,115.639,121.876z"/>
				</g>
			</g>
			<g>
				<g>
					<path style="fill:#525D7D;" d="M135.602,117.988c-1.142,0-2.095-0.895-2.154-2.05c-0.184-3.614-0.273-7.433-0.273-11.674
						c0-6.033,0.185-12.132,0.363-18.03c0.178-5.871,0.362-11.942,0.362-17.922c0-2.918-0.043-5.606-0.131-8.213
						c-0.041-1.192,0.893-2.19,2.084-2.231c1.229-0.083,2.19,0.893,2.231,2.084c0.09,2.657,0.134,5.392,0.134,8.359
						c0,6.044-0.185,12.149-0.364,18.052c-0.178,5.866-0.361,11.933-0.361,17.899c0,4.166,0.088,7.914,0.268,11.455
						c0.06,1.191-0.855,2.205-2.047,2.266C135.677,117.986,135.64,117.988,135.602,117.988z"/>
				</g>
			</g>
			<g>
				<g>
					<path style="fill:#525D7D;" d="M73.995,96.262c-2.442,0-4.583-2.267-4.583-4.851c0-1.077,0.536-1.879,0.926-2.465
						c0.09-0.135,0.185-0.267,0.252-0.402c0.366-0.731,1.113-1.193,1.931-1.193c0.194,0,0.401-0.011,0.614-0.022
						c0.3-0.015,0.606-0.031,0.907-0.031c3.108,0,4.215,1.954,4.215,3.783c0,0.284-0.026,0.574-0.056,0.863
						c-0.015,0.141-0.033,0.281-0.033,0.42C78.169,94.404,76.18,96.262,73.995,96.262z M73.784,91.619
						c0.026,0.058,0.059,0.113,0.096,0.162c0.005-0.055,0.01-0.11,0.015-0.164C73.858,91.618,73.82,91.619,73.784,91.619z"/>
				</g>
			</g>
		</g>
	</g>
</g>
<g id="Layer_1">
</g>
</svg>
