<?xml version="1.0" encoding="iso-8859-1"?>
<!-- Generator: Adobe Illustrator 21.0.2, SVG Export Plug-In . SVG Version: 6.00 Build 0)  -->
<svg version="1.1" xmlns="http://www.w3.org/2000/svg" xmlns:xlink="http://www.w3.org/1999/xlink" x="0px" y="0px"
	 viewBox="0 0 191.76 203.53" style="enable-background:new 0 0 191.76 203.53;" xml:space="preserve">
<g id="_x33_7">
	<g>
		<g>
			<path style="fill:#E0DFE6;" d="M47.712,77.292c-7.099,3.361-9.015,13.85-13.558,19.825c-6.388,8.401-14.662,12.35-22.985,18.279
				c-0.991,0.706-0.766,2.577,0.676,2.497c8.136-0.453,15.852-5.764,21.774-11.019c3.224-2.861,6.038-6.162,8.466-9.723
				c2.911-4.27,4.431-11.488,8.877-14.297C54.511,80.611,51.426,75.533,47.712,77.292z"/>
		</g>
		<g>
			<path style="fill:#E0DFE6;" d="M142.869,46.73c-8.351,6.692-16.094,13.177-25.726,18.05c-8.075,4.085-16.582,6.491-25.115,9.164
				c-0.029-1.375-1.83-1.869-2.647-1.018c-0.598-1.453-3.07-1.165-3.245,0.703c-0.306,3.259-0.707,6.492-0.872,9.764
				c-0.114,2.25-0.808,5.336,1.1,7.015c0.161,0.141,0.331,0.259,0.506,0.363c0.002,3.681,6.272,3.527,5.886-0.155
				c-0.41-3.906-0.635-7.852-0.705-11.792c19.811-1.347,42.383-13.425,54.816-28.098C149.249,47.915,145.694,44.467,142.869,46.73z"
				/>
		</g>
		<g>
			<path style="fill:#E0DFE6;" d="M113.141,108.001c0.419-2.244-1.285-4.886-4.077-3.981c-7.851,2.546-16.695,4.929-24.98,3.578
				c-2.34-0.382-4.477-1.142-6.49-2.14c-2.983-4.048-6.016-7.962-8.405-12.431c-2.351-4.399-4.044-9.042-5.792-13.685
				c4.397-4.514,9.359-10.908,9.433-17.16c0.013-1.119-1.379-1.636-2.158-0.894c-0.871,0.83-1.618,1.803-2.337,2.806
				c-0.035,0.022-0.07,0.023-0.104,0.049c-4.193,3.151-8.145,6.562-11.859,10.255c-0.167,0.101-0.329,0.219-0.482,0.367
				c-0.295,0.285-0.548,0.585-0.795,0.894c-0.17,0.214-0.314,0.397-0.461,0.589c-1.644,2.142,0.764,4.29,2.942,3.935
				c0.373,0.473,0.873,0.854,1.43,1.083c0.771,8.889,4.747,18.09,10.489,25.041c-0.884-0.081-1.812,0.469-1.752,1.546
				c0.482,8.66,5.487,12.837,12.005,14.203c-6.356,10.799-12.295,21.346-21.204,30.426c-3.054,3.113-10.06,6.971-11.549,11.111
				c-1.36,3.781,1.558,6.885,3.924,9.583c3.023,3.448,7.818-1.53,4.984-4.984c-2.562-3.122,6.358-9.477,8.372-11.696
				c2.909-3.205,5.621-6.602,8.086-10.161c4.989-7.203,9.276-15.214,11.243-23.799c8.71,0.444,18.889-2.993,24.722-7.114
				c1.667-1.178,1.823-3.038,1.118-4.418c0.076-0.024,0.151-0.048,0.227-0.072c0.589,3.89,1.882,7.596,3.044,11.421
				c1.411,4.645,1.781,10.1,4.124,14.326c1.064,1.919,4.734,1.776,5.082-0.664C123.228,126.859,116.987,116.407,113.141,108.001z
				 M72.95,110.007c0.16,0.151,0.315,0.313,0.477,0.461c0.867,0.789,1.989,0.934,3.003,0.673c1.564,0.893,3.249,1.622,5.086,2.132
				c4.409,1.223,9.202,1.324,13.98,0.792C87.34,117.008,79.203,117.259,72.95,110.007z"/>
		</g>
		<g>
			<path style="fill:#E0DFE6;" d="M135.803,143.562c-4.022,1.702-8.288,1.788-12.348,3.104c-1.947,0.631-1.705,3.009,0,3.725
				c4.446,1.866,10.508,0.673,14.969-0.609C143.039,148.454,140.452,141.594,135.803,143.562z"/>
		</g>
		<g>
			<path style="fill:#E0DFE6;" d="M149.243,133.026c-11.194-6.537-15.574-19.055-19.722-30.626
				c-0.657-1.831-3.263-1.109-2.906,0.801c2.615,13.981,6.425,27.806,19.132,35.806C149.523,141.384,153.1,135.278,149.243,133.026z
				"/>
		</g>
		<g>
			<path style="fill:#E0DFE6;" d="M118.434,189.994c1.794-2.152-0.359-5.971-3.704-4.456c-4.379,1.983-8.393,4.777-12.674,6.969
				c-0.413,0.211-0.629,0.558-0.708,0.939c-0.021,0.035-0.056,0.056-0.072,0.095c-1.771,4.127,3.382,8.855,7.083,9.741
				c5.921,1.417,10.426-3.53,13.293-7.997C123.339,192.655,120.95,189.998,118.434,189.994z M107.621,193.937
				c2.568-0.771,5.15-1.496,7.682-2.363C112.995,193.403,110.553,193.795,107.621,193.937z"/>
		</g>
		<g>
			<path style="fill:#E0DFE6;" d="M191.663,125.765c-0.435-4.281-3.014-9.07-8.047-6.233c-3.365,1.897-6.156,5.251-7.614,8.813
				c-0.543,0.027-1.077,0.081-1.582,0.207c-2.431,0.604-2,3.729,0,4.513c2.346,0.919,4.772,1.612,7.195,2.308
				c1.782,0.512,3.789,1.241,5.665,0.746C191.53,134.997,192.028,129.356,191.663,125.765z"/>
		</g>
		<g>
			<path style="fill:#E0DFE6;" d="M78.71,4.299c-0.472,0.183-0.944,0.331-1.415,0.499c-1.129,0.132-2.996-0.263-3.702-0.308
				c-1.583-0.101-3.171-0.155-4.757-0.167c-2.677-0.02-5.679-0.129-8.305,0.426c-1.496,0.317-2.305,0.803-2.971,2.181
				c-0.514,1.063-0.272,3.172-0.371,4.02c-0.186,1.595-0.659,3.19-1.005,4.754c-0.456,2.063,2.531,2.898,3.169,0.874
				c0.784-2.491,1.207-5.655,3.926-6.38c0.154-0.041,0.325-0.064,0.492-0.092c-0.332,1.896,0.819,4.18,3.104,3.985
				c4.536-0.386,8.856-1.604,13.038-3.33c0.44-0.137,0.872-0.314,1.293-0.545C84.337,8.493,82.194,2.947,78.71,4.299z"/>
		</g>
		<g>
			<path style="fill:#E0DFE6;" d="M86.132,31.917c-2.86,4.37-5.651,10.055-4.902,15.394c0.452,3.217,5.213,2.697,6.006,0
				c0.646-2.195,0.473-4.604,0.636-6.881c0.177-2.476,0.463-4.963,0.875-7.41C89.011,31.452,87.06,30.499,86.132,31.917z"/>
		</g>
		<g>
			<path style="fill:#525D7D;" d="M9.426,116.089c-4.87,0-7.571-0.338-8.822-2.185c-1.188-1.753-0.405-3.713,0.5-5.982
				c0.654-1.638,1.469-3.678,1.949-6.285c0.214-1.166,1.332-1.94,2.496-1.736c1.221,0.214,2.366,0.323,3.404,0.323
				c6.585,0,7.513-2.942,9.546-9.388c2.069-6.558,4.902-15.541,15.849-24.434c6.414-5.211,12.727-8.713,17.8-11.526
				c8.936-4.956,13.232-7.589,13.232-13.239c0-3.466-1.434-4.325-4.037-5.884c-3.698-2.213-8.761-5.245-8.761-17.229l-0.003-1.725
				C52.56,10.22,52.549,6.249,55.281,3.51C58.296,0.488,63.721,0,75.538,0c8.887,0,13.027,2.723,14.936,5.008
				c0.757,0.905,0.647,2.25-0.247,3.02c-3.733,3.217-11.421,8.002-17.3,8.002c-3.296,0-6.188-1.219-8.593-3.625
				c-0.843-0.843-0.843-2.21,0-3.053c0.843-0.843,2.21-0.843,3.053,0c1.588,1.588,3.4,2.36,5.54,2.36
				c3.599,0,8.881-2.813,12.452-5.372c-1.716-1-4.722-2.021-9.842-2.021c-9.705,0-15.321,0.357-17.2,2.241
				c-1.466,1.47-1.457,4.766-1.442,10.227l0.003,1.737c0,9.537,3.235,11.474,6.661,13.524c2.877,1.723,6.137,3.674,6.137,9.589
				c0,8.444-6.821,12.226-15.456,17.016c-5.181,2.872-11.053,6.129-17.171,11.1c-9.941,8.077-12.443,16.009-14.453,22.383
				c-2.1,6.657-3.914,12.407-13.664,12.407c-0.672,0-1.373-0.036-2.099-0.106c-0.538,2.08-1.213,3.77-1.739,5.088
				c-0.26,0.65-0.567,1.417-0.711,1.919c0.6,0.151,1.957,0.328,5.022,0.328c11.54,0,25.325-24.386,29.855-32.399
				c0.207-0.367,0.517-0.665,0.893-0.857c7.456-3.832,21.158-11.456,29.166-19.463c0.843-0.843,2.21-0.843,3.053,0
				c0.843,0.843,0.843,2.21,0,3.053c-8.217,8.217-21.877,15.917-29.671,19.954C33.656,98.028,21.743,116.089,9.426,116.089z"/>
		</g>
		<g>
			<path style="fill:#525D7D;" d="M55.937,21.816c-1.193,0-2.159-0.966-2.159-2.159c0-1.193,0.966-2.159,2.159-2.159
				c3.229,0,6.734-1.972,7.009-5.273c0.098-1.188,1.127-2.079,2.331-1.972c1.188,0.098,2.071,1.142,1.972,2.331
				C66.767,18.362,61.12,21.816,55.937,21.816z"/>
		</g>
		<g>
			<path style="fill:#525D7D;" d="M91.997,74.085c-2.06,0-4.109-0.274-6.091-0.814c-1.15-0.313-1.829-1.501-1.515-2.651
				c0.313-1.151,1.5-1.829,2.651-1.515c1.612,0.439,3.279,0.662,4.956,0.662c9.366,0,58.344-20.933,58.344-30.501
				c0-1.022-0.59-2.437-1.02-2.938c-0.566,0.134-1.592,0.586-2.308,0.901c-1.729,0.762-3.689,1.626-5.614,1.626
				c-4.932,0-5.208-4.093-5.325-5.84c-0.028-0.412-0.068-0.998-0.146-1.309c-0.036-0.003-0.078-0.004-0.128-0.004
				c-0.89,0-1.195,0.192-1.699,4.209c-0.608,4.854-1.526,12.19-11.1,15.198c-5.954,1.871-11.019,4.741-16.382,7.78
				c-1.425,0.807-2.849,1.614-4.288,2.399c-0.672,0.368-1.49,0.352-2.149-0.046c-2.414-1.454-5.481-2.899-8.446-4.297
				c-8.222-3.875-15.989-7.535-15.989-13.414c0-3.458,2.09-5.74,4.112-7.947c2.52-2.752,5.127-5.599,5.127-11.505
				c0-2.794-0.491-5.847-0.966-8.8c-0.325-2.015-0.66-4.099-0.843-6.114c-0.108-1.187,0.767-2.238,1.955-2.345
				c1.166-0.11,2.237,0.766,2.345,1.955c0.17,1.867,0.479,3.786,0.806,5.818c0.502,3.12,1.021,6.346,1.021,9.487
				c0,7.585-3.619,11.537-6.261,14.422c-1.902,2.076-2.978,3.334-2.978,5.031c0,3.14,7.491,6.671,13.511,9.508
				c2.649,1.248,5.376,2.534,7.749,3.872c1.059-0.588,2.111-1.184,3.165-1.781c5.322-3.015,10.826-6.133,17.215-8.142
				c6.928-2.177,7.529-6.975,8.111-11.615c0.422-3.372,1-7.99,5.983-7.99c4.221,0,4.474,3.743,4.582,5.341
				c0.035,0.523,0.1,1.496,0.273,1.708c-0.002-0.001,0.095,0.105,0.744,0.105c1.016,0,2.534-0.669,3.872-1.259
				c1.524-0.672,2.965-1.307,4.311-1.307c3.333,0,5.077,4.749,5.077,7.295C154.659,53.34,101.28,74.085,91.997,74.085z"/>
		</g>
		<g>
			<path style="fill:#525D7D;" d="M84.085,95.732c-0.085,0-0.17-0.005-0.257-0.015c-1.184-0.141-2.03-1.214-1.891-2.398
				c1.154-9.75,1.715-18.367,1.715-26.343c0-1.754-0.027-3.508-0.084-5.261c-0.039-1.192,0.896-2.189,2.087-2.228
				c1.16-0.049,2.189,0.896,2.228,2.087c0.058,1.801,0.087,3.601,0.087,5.402c0,8.147-0.571,16.93-1.745,26.85
				C86.096,94.925,85.164,95.732,84.085,95.732z"/>
		</g>
		<g>
			<path style="fill:#525D7D;" d="M117.819,138.606c-0.302,0-0.604-0.063-0.886-0.191c-0.613-0.275-1.062-0.821-1.216-1.475
				c-2.311-9.846-4.5-17.531-6.977-24.45c-5.115,3.424-12.086,5.204-17.06,5.204c-19.727,0-35.209-21.952-39.76-42.606
				c-0.257-1.165,0.479-2.317,1.644-2.573c1.164-0.262,2.316,0.479,2.573,1.644c4.189,19.011,18.07,39.217,35.544,39.217
				c4.875,0,12.353-2.099,16.608-5.991c0.527-0.482,1.262-0.672,1.956-0.507c0.696,0.166,1.265,0.665,1.519,1.333
				c2.735,7.195,5.081,15.006,7.514,25.044c1.631-0.821,3.285-1.612,4.902-2.384c1.662-0.794,3.366-1.608,5.033-2.451
				c-3.296-7.195-3.962-14.169-4.507-19.864c-0.91-9.519-1.367-14.297-11.369-14.297c-4.376,0-8.862,0.382-13.2,0.751
				c-4.424,0.376-8.999,0.765-13.549,0.765c-3.499,0-6.643-0.228-9.611-0.697c-1.178-0.186-1.982-1.292-1.796-2.469
				c0.186-1.179,1.3-1.989,2.469-1.796c2.743,0.433,5.667,0.644,8.938,0.644c4.367,0,8.849-0.381,13.183-0.749
				c4.429-0.377,9.007-0.766,13.567-0.766c13.926,0,14.772,8.842,15.667,18.204c0.587,6.136,1.252,13.092,4.989,20.219
				c0.551,1.052,0.15,2.352-0.899,2.91c-2.321,1.234-4.726,2.383-7.053,3.494c-2.401,1.148-4.883,2.333-7.198,3.581
				C118.524,138.519,118.171,138.606,117.819,138.606z"/>
		</g>
		<g>
			<path style="fill:#525D7D;" d="M49.613,176.875c-7.084,0-12.867-0.264-18.201-0.832c-0.602-0.064-1.149-0.378-1.509-0.865
				c-0.359-0.487-0.498-1.103-0.382-1.697c1.587-8.109,6.692-15.576,12.095-23.482c8.508-12.448,18.152-26.556,18.152-47.883
				c0-1.842-0.086-3.705-0.256-5.538c-0.11-1.187,0.763-2.239,1.951-2.349c1.186-0.106,2.239,0.764,2.349,1.951
				c0.182,1.964,0.274,3.961,0.274,5.935c0,22.662-10.043,37.355-18.905,50.32c-4.79,7.008-8.998,13.164-10.855,19.549
				c4.51,0.389,9.439,0.571,15.287,0.571c4.166,0,8.427-0.091,12.546-0.179c3.755-0.08,7.626-0.163,11.468-0.178v-8.976
				c0-0.617,0.264-1.205,0.726-1.615c0.461-0.408,1.07-0.603,1.69-0.529l0.517,0.062c10.154,1.217,20.635,2.474,31.011,2.609
				c-0.037-3.821-0.117-6.93-0.251-9.87c-0.027-0.597,0.195-1.179,0.611-1.607c0.418-0.428,0.994-0.687,1.591-0.65
				c5.482,0.116,11.973,0.235,18.557,0.235c4.089,0,7.863-0.045,11.471-0.137c-0.117-4.119-0.311-8.184-0.49-11.708
				c-0.06-1.181,0.842-2.191,2.023-2.265c3.423-0.211,6.826,0.087,10.09,0.377c2.501,0.222,4.863,0.432,7.266,0.432
				c1.885,0,3.57-0.133,5.152-0.409c1.172-0.201,2.293,0.582,2.497,1.758c0.204,1.174-0.583,2.292-1.758,2.497
				c-1.828,0.318-3.755,0.472-5.891,0.472c-2.593,0-5.163-0.228-7.648-0.449c-2.516-0.224-4.945-0.433-7.308-0.432
				c0.178,3.648,0.352,7.721,0.439,11.778c0.025,1.184-0.907,2.167-2.091,2.205c-4.301,0.134-8.799,0.2-13.751,0.2
				c-5.725,0-11.372-0.089-16.353-0.188c0.101,2.895,0.157,6.054,0.179,9.922c0.003,0.574-0.223,1.127-0.628,1.534
				c-0.405,0.408-0.956,0.637-1.531,0.637h-0.355c-10.574,0-21.165-1.196-31.446-2.424v8.701c0,0.574-0.229,1.125-0.636,1.53
				c-0.407,0.406-0.944,0.666-1.533,0.629l-0.908-0.002c-4.202,0-8.479,0.091-12.617,0.18
				C58.109,176.783,53.826,176.875,49.613,176.875z"/>
		</g>
		<g>
			<path style="fill:#525D7D;" d="M56.304,176.812c-0.427,0-0.858-0.126-1.235-0.389c-0.505-0.354-1.016-0.704-1.527-1.054
				c-4.706-3.232-9.572-6.573-10.902-12.16c-0.221-0.925,0.19-1.884,1.01-2.364c16.82-9.838,29.225-27.011,34.928-48.355
				c0.308-1.152,1.493-1.834,2.643-1.529c1.152,0.308,1.836,1.491,1.529,2.643c-5.828,21.811-18.37,39.516-35.409,50.058
				c1.459,3.211,4.963,5.618,8.645,8.146c0.52,0.357,1.041,0.715,1.556,1.075c0.977,0.683,1.216,2.029,0.533,3.007
				C57.656,176.491,56.986,176.812,56.304,176.812z"/>
		</g>
		<g>
			<path style="fill:#525D7D;" d="M49.451,160.758c-0.089,0-0.18-0.006-0.271-0.017c-1.726-0.216-3.27-0.814-4.762-1.392
				c-1.47-0.569-2.859-1.108-4.369-1.276c-1.185-0.131-2.04-1.199-1.907-2.384c0.131-1.185,1.209-2.04,2.384-1.907
				c2.07,0.23,3.868,0.926,5.453,1.541c1.306,0.506,2.539,0.985,3.738,1.134c1.183,0.148,2.023,1.227,1.874,2.41
				C51.454,159.958,50.524,160.758,49.451,160.758z"/>
		</g>
		<g>
			<path style="fill:#525D7D;" d="M122.627,148.49c-0.366,0-0.732-0.093-1.06-0.278c-0.626-0.353-1.035-0.993-1.092-1.709
				c-0.115-1.446-0.38-2.875-0.66-4.387c-0.389-2.099-0.791-4.268-0.791-6.579c0-1.193,0.966-2.159,2.159-2.159
				c1.193,0,2.159,0.966,2.159,2.159c0,1.915,0.349,3.798,0.718,5.793c0.108,0.581,0.216,1.167,0.318,1.763
				c4.229-1.952,8.56-3.569,12.957-4.835c-3.738-1.148-7.565-2.78-9.874-6.768c-0.597-1.032-0.245-2.353,0.787-2.95
				c1.032-0.596,2.353-0.245,2.95,0.787c1.886,3.259,5.584,4.305,9.499,5.413c1.837,0.52,3.735,1.057,5.502,1.843
				c0.862,0.382,1.375,1.281,1.269,2.217c-0.107,0.937-0.809,1.696-1.735,1.875c-7.574,1.466-15.022,4.019-22.139,7.588
				C123.289,148.414,122.958,148.49,122.627,148.49z"/>
		</g>
		<g>
			<path style="fill:#525D7D;" d="M73.448,32.41c-0.791,0-1.554-0.437-1.932-1.193c-0.533-1.066-0.102-2.364,0.964-2.897
				c0.957-0.479,0.957-0.877,0.957-1.167c0-0.956-0.704-2.392-1.326-3.657c-0.348-0.709-0.707-1.442-0.976-2.147
				c-0.425-1.115,0.135-2.362,1.249-2.787c1.115-0.425,2.362,0.135,2.787,1.249c0.197,0.519,0.498,1.133,0.817,1.782
				c0.828,1.688,1.767,3.601,1.767,5.56c0,1.531-0.58,3.646-3.343,5.029C74.103,32.336,73.773,32.41,73.448,32.41z"/>
		</g>
		<g>
			<path style="fill:#525D7D;" d="M109.951,199.827c-2.733,0.001-5.4-1.099-7.401-3.069c-2.184-2.149-3.305-5.06-3.157-8.193
				c0.183-3.849,2.364-7.105,5.833-8.711c1.222-0.566,2.537-0.872,3.906-0.911c2.779-0.078,5.504,0.981,7.531,2.908
				c1.377,1.307,2.342,2.921,2.827,4.686c29.487-5.512,54.248-29.894,59.309-58.743c0.207-1.174,1.33-1.953,2.5-1.753
				c1.174,0.206,1.959,1.326,1.753,2.5c-5.395,30.747-31.871,56.702-63.31,62.34c-0.723,5.313-4.969,8.665-9.156,8.927
				C110.376,199.82,110.163,199.827,109.951,199.827z M109.424,183.256c-0.056,0-0.112,0.001-0.169,0.003
				c-0.783,0.022-1.527,0.194-2.215,0.513c-1.983,0.917-3.229,2.785-3.333,4.996c-0.089,1.89,0.576,3.635,1.872,4.912
				c1.283,1.264,3.015,1.93,4.738,1.817c2.63-0.165,5.299-2.61,5.214-6.415c-0.036-1.553-0.689-3.008-1.841-4.102
				C112.531,183.879,110.985,183.256,109.424,183.256z"/>
		</g>
		<g>
			<path style="fill:#525D7D;" d="M187.887,131.714c-0.083,0-0.166-0.005-0.249-0.015c-3.1-0.361-6.124-1.146-9.049-1.905
				c-2.397-0.622-4.876-1.266-7.333-1.652c-0.78-0.123-1.431-0.662-1.697-1.406c-0.266-0.744-0.104-1.574,0.421-2.163
				c1.002-1.124,1.994-2.258,2.987-3.393c3.399-3.884,6.913-7.9,10.798-11.488c0.59-0.544,1.431-0.718,2.188-0.448
				c0.756,0.269,1.3,0.935,1.414,1.729c0.267,1.867,0.521,3.741,0.774,5.616c0.56,4.145,1.139,8.432,1.873,12.592
				c0.119,0.672-0.087,1.36-0.555,1.856C189.048,131.471,188.479,131.714,187.887,131.714z M175.694,124.62
				c1.35,0.311,2.677,0.656,3.981,0.994c1.912,0.496,3.754,0.975,5.588,1.337c-0.522-3.277-0.967-6.573-1.401-9.786
				c-0.061-0.453-0.122-0.907-0.184-1.36c-2.588,2.648-5.054,5.467-7.461,8.217C176.042,124.222,175.868,124.421,175.694,124.62z"/>
		</g>
	</g>
</g>
<g id="Layer_1">
</g>
</svg>
