<?xml version="1.0" encoding="iso-8859-1"?>
<!-- Generator: Adobe Illustrator 21.0.2, SVG Export Plug-In . SVG Version: 6.00 Build 0)  -->
<svg version="1.1" xmlns="http://www.w3.org/2000/svg" xmlns:xlink="http://www.w3.org/1999/xlink" x="0px" y="0px"
	 viewBox="0 0 233.762 177.054" style="enable-background:new 0 0 233.762 177.054;" xml:space="preserve">
<g id="_x33_8">
	<g>
		<g>
			<path style="fill:#E0DFE6;" d="M56.043,101.365c-0.107-2.038-2.162-3.569-4.041-3.345c-2.04-3.172-4.07-6.527-6.638-9.212
				c-1.088-1.138-3.141,0.03-2.668,1.553c0.276,0.888,0.613,1.765,0.979,2.635c-1.282-2.616-2.352-5.448-3.586-7.901
				c-0.846-1.681-3.398-0.811-3.421,0.926c-0.088,6.956,2.755,15.308,8.179,19.825c-2.9,2.566-6.374,4.088-10.363,4.838
				c-2.197-1.74-4.03-3.841-5.39-6.446c-1.003-1.922-3.764-0.235-2.874,1.68c0.881,1.898,2,3.691,3.314,5.323
				c-2.15,0.129-2.561,3.13-0.471,3.797c1.776,0.567,3.616,0.824,5.466,0.832c0.543,0.363,1.102,0.704,1.681,1.015
				c1.489,0.801,2.876-0.295,3.151-1.555c4.39-1.005,8.58-3.321,11.845-6.425c1.702,0.317,3.543,0.32,5.522-0.074
				C60.762,108.029,60.038,101.322,56.043,101.365z"/>
		</g>
		<g>
			<path style="fill:#E0DFE6;" d="M232.795,98.02c-0.517-1.752-2.101-3.079-4.295-2.252c-5.058,1.908-10.184,3.294-15.392,4.315
				c-2.097-1.47-3.197-3.53-4.274-6.044c-0.761-1.777-3.375-0.734-3.42,0.926c-0.06,2.167,0.728,4.265,1.97,6.089
				c-2.859,0.415-5.742,0.746-8.658,0.992c-0.443,0.037-0.934,0.09-1.464,0.152c-1.412-2.373-3.522-4.29-6.112-5.4
				c-2.136-0.915-4.05,2.128-1.87,3.199c1.392,0.684,2.552,1.636,3.48,2.783c-5.704,0.742-13.037,1.525-18.154,0.027
				c-0.208-1.106-0.939-1.95-1.842-2.414c4.059-2.526,7.87-6.121,9.563-7.985c6.212-6.839,10.817-16.538,9.985-25.942
				c-0.058-0.659-0.397-1.132-0.835-1.429c0.27-1.389,0.445-2.823,0.449-4.33c0.011-4.403-7.193-5.691-7.939-1.074
				c-2.37,14.666-15.422,19.076-28.439,21.243c-0.028-0.009-0.048-0.023-0.077-0.032c-1.49-0.471-2.274-2.824-2.993-4.047
				c-0.991-1.687-2.021-3.351-3.095-4.985c-1.724-2.623-3.646-6.215-6.537-7.614c-0.944-0.457-2.452,0.068-2.324,1.334
				c0.418,4.152,3.825,8.222,5.693,11.908c0.73,1.44,1.379,3.047,2.161,4.558c-9.466,1.444-18.958,2.742-28.438,4.088
				c-0.184-0.231-0.399-0.451-0.682-0.639c-7.046-4.686-12.052-10.557-15.996-18.011c-0.934-1.765-3.916-0.556-3.261,1.375
				c2.4,7.078,6.865,13.424,12.487,18.364C91.392,90.571,48.995,100.25,44.778,70.33c-0.222-1.575-2.828-1.194-2.766,0.374
				c1.402,35.452,45.651,28.398,68.888,25.119c18.228-2.572,37.527-3.66,55.342-8.348c2.62-0.689,5.241-1.632,7.763-2.798
				c-1.782,1.796-3.712,3.457-5.605,5.145c0.327-2.279-3.097-3.051-3.926-0.756c-0.428,1.184-0.735,2.465-0.975,3.771
				c-17.245,3.009-34.487,5.901-51.827,8.338c-9.431,1.326-18.881,2.488-28.328,3.692c-4.384,0.559-8.895,1.513-13.281,0.661
				c-0.592-0.115-1.152-0.284-1.701-0.472c0.031-0.207,0.089-0.408,0.113-0.617c0.455-4.106-4.552-4.848-6.872-2.392
				c-0.235-0.086-0.466-0.177-0.707-0.253c-0.639-0.199-1.138,0.329-1.198,0.912c-0.145,1.402-0.025,2.623,0.28,3.713
				c-2.962,7.95-17.104,14.144-24.142,14.459c-9.005,0.404-21.404-0.961-27.25-8.334c-1.089-1.373-3.546,0.111-2.953,1.719
				C10.09,126.366,28.231,129.396,39.615,128c9.22-1.13,20.826-7.185,26.101-15.855c10.131,4.007,29.916-0.267,35.659-0.964
				c20.2-2.45,40.375-5.466,60.389-9.198c0.7,0.613,1.503,0.977,2.385,1.125c0.177,0.453,0.354,0.906,0.58,1.336
				c1.339,2.546,4.643,3.947,7.087,3.172c4.29,2.036,10.265,1.989,14.844,1.934c4.604-0.055,9.21-0.246,13.797-0.604
				c-0.544,0.106-1.074,0.208-1.581,0.305c-8.276,1.582-24.805,5.204-31.445-1.705c-1.055-1.097-2.918,0.033-2.525,1.47
				c3.089,11.281,21.896,9.219,30.516,8.225c11.144-1.285,31.38-4.694,37.829-15.02C234.162,100.76,233.76,99.16,232.795,98.02z
				 M183.43,78.596c-0.897,1.568-1.898,3.101-3.075,4.592c-0.394,0.499-0.807,0.988-1.226,1.471c-0.68-0.767-1.665-1.237-2.679-1.21
				C178.972,82.083,181.339,80.467,183.43,78.596z"/>
		</g>
		<g>
			<path style="fill:#525D7D;" d="M81.104,103.703c-29.698,0-44.134-10.985-44.134-33.583c0-9.233,6.454-17.238,14.196-21.385
				C56.062,27.423,87.827,0,109.739,0c11.691,0,19.187,6.285,23.003,14.735c8.719-2.722,17.352-3.571,20.448-3.571
				c15.886,0,21.678,13.512,22.324,21.3c7.907,2.241,15.239,11.088,15.239,24.235c0,33.029-33.274,37.912-60.011,41.836
				c-2.879,0.422-5.7,0.836-8.42,1.275c-0.029,0.004-0.058,0.008-0.087,0.012c-2.374,0.285-4.916,0.62-7.583,0.971
				C104.288,102.157,92.539,103.703,81.104,103.703z M50.522,54.183c-5.226,3.719-9.234,9.559-9.234,15.936
				c0,19.966,12.652,29.265,39.816,29.265c11.152,0,22.752-1.527,32.987-2.874c2.666-0.351,5.21-0.685,7.587-0.971
				c2.725-0.439,5.553-0.854,8.437-1.277c26.398-3.874,56.32-8.265,56.32-37.564c0-10.423-5.235-17.573-11.073-19.765
				c-0.699,5.398-3.312,13.418-10.603,13.418c-3.316,0-6.673-2.394-6.673-6.97c0-6.689,6.628-11.239,12.999-11.468
				c-0.818-5.414-4.83-16.432-17.895-16.432c-3.677,0-11.379,0.942-18.943,3.303c1.036,3.47,1.539,7.167,1.539,10.854
				c0,17.413-9.934,18.767-12.978,18.767c-7.733,0-12.537-4.539-12.537-11.846c0-10.342,8.713-16.66,18.395-20.406
				c-3.121-6.684-9.069-11.836-18.927-11.836c-20.21,0-46.949,24.167-53.436,42.296c2.002-0.587,4.016-0.9,5.961-0.9
				c9.508,0,13.839,5.97,13.839,11.518c0,5.661-6.134,9.463-11.862,9.463C55.432,66.695,50.564,62.252,50.522,54.183z
				 M121.979,97.678h0.014H121.979z M55.019,51.643c-0.118,0.836-0.178,1.649-0.178,2.436c0,5.738,2.899,8.298,9.4,8.298
				c3.948,0,7.544-2.452,7.544-5.145c0-3.321-2.494-7.2-9.52-7.2C59.909,50.032,57.423,50.609,55.019,51.643z M171.075,36.239
				c-3.715,0.216-8.671,2.74-8.671,7.143c0,2.393,1.647,2.652,2.355,2.652C168.975,46.034,170.584,39.976,171.075,36.239z
				 M130.177,20.211c-8.368,3.279-15.588,8.497-15.588,16.35c0,6.222,4.469,7.528,8.219,7.528c5.585,0,8.66-5.131,8.66-14.449
				C131.468,26.538,131.067,23.298,130.177,20.211z"/>
		</g>
		<g>
			<path style="fill:#525D7D;" d="M101.878,177.054c-1.112,0-2.056-0.852-2.149-1.98c-0.962-11.55-1.411-24.006-1.411-39.199
				c0-9.443,0.171-19.036,0.336-28.313c0.165-9.251,0.335-18.816,0.335-28.207c0-3.666-0.026-7.331-0.087-10.995
				c-0.02-1.192,0.931-2.174,2.123-2.195c1.207-0.003,2.175,0.931,2.195,2.123c0.061,3.688,0.087,7.377,0.087,11.067
				c0,9.428-0.171,19.014-0.336,28.283c-0.165,9.258-0.335,18.831-0.335,28.236c0,15.071,0.443,27.413,1.395,38.84
				c0.099,1.188-0.784,2.232-1.972,2.331C101.999,177.052,101.938,177.054,101.878,177.054z"/>
		</g>
		<g>
			<path style="fill:#525D7D;" d="M144.819,175c-1.193,0-2.159-0.966-2.159-2.159c0-31.029-1.275-64.314-4.134-107.923
				c-0.078-1.19,0.823-2.217,2.013-2.295c1.167-0.082,2.218,0.822,2.295,2.013c2.866,43.706,4.144,77.078,4.144,108.205
				C146.978,174.033,146.012,175,144.819,175z"/>
		</g>
		<g>
			<path style="fill:#525D7D;" d="M109.671,86.024c-2.698,0-5.161-0.055-7.529-0.169c-1.191-0.057-2.111-1.068-2.053-2.26
				c0.056-1.191,1.042-2.118,2.26-2.053c2.299,0.11,4.694,0.163,7.323,0.163c4.887,0,9.858-0.191,14.665-0.376
				c4.871-0.187,9.906-0.381,14.923-0.381c1.193,0,2.159,0.966,2.159,2.159c0,1.193-0.966,2.159-2.159,2.159
				c-4.933,0-9.927,0.192-14.757,0.377C119.653,85.831,114.641,86.024,109.671,86.024z"/>
		</g>
		<g>
			<path style="fill:#525D7D;" d="M102.242,113.059c-1.016,0-1.921-0.721-2.119-1.756c-0.223-1.172,0.546-2.302,1.717-2.525
				c6.632-1.263,13.301-1.368,19.03-1.368l6.209,0.017c3.886,0,8.055-0.055,12.213-0.451c1.18-0.122,2.241,0.757,2.354,1.945
				c0.113,1.187-0.758,2.241-1.945,2.354c-4.337,0.413-8.63,0.47-12.622,0.47l-6.209-0.017c-5.533,0-11.959,0.1-18.222,1.292
				C102.512,113.046,102.376,113.059,102.242,113.059z"/>
		</g>
		<g>
			<path style="fill:#525D7D;" d="M115.1,137.96c-2.316,0-4.637-0.016-6.969-0.033c-2.344-0.016-4.698-0.033-7.07-0.033
				c-1.193,0-2.159-0.966-2.159-2.159s0.966-2.159,2.159-2.159c2.381,0,4.746,0.017,7.1,0.033c2.322,0.017,4.633,0.033,6.939,0.033
				c8.688,0,18.044-0.219,27.59-1.81c1.175-0.203,2.288,0.597,2.484,1.775c0.196,1.176-0.598,2.288-1.775,2.484
				C133.545,137.733,123.974,137.96,115.1,137.96z"/>
		</g>
		<g>
			<path style="fill:#525D7D;" d="M101.651,159.772c-1.108,0-2.051-0.848-2.149-1.972c-0.103-1.188,0.776-2.234,1.964-2.338
				c6.893-0.6,13.855-0.6,20.588-0.6c6.64,0,13.506,0,20.213-0.583c1.191-0.1,2.234,0.776,2.338,1.964
				c0.103,1.188-0.776,2.234-1.964,2.338c-6.893,0.6-13.855,0.6-20.587,0.6c-6.64,0-13.507,0-20.214,0.583
				C101.777,159.769,101.714,159.772,101.651,159.772z"/>
		</g>
		<g>
			<path style="fill:#525D7D;" d="M32.599,120.079C10.968,120.079,0,114.147,0,102.448c0-2.9,0.883-7.38,3.359-11.251
				c2.917-4.559,7.167-6.969,12.288-6.969c0.427,0,0.843,0.011,1.269,0.022c0.562,0.014,1.181-0.009,1.793,0.042
				c4.804-4.93,12.162-8.392,19.05-9.157c1.179-0.133,2.253,0.723,2.384,1.907c0.132,1.185-0.723,2.253-1.907,2.384
				c-6.549,0.728-11.795,3.499-15.343,6.821c3.43,3.117,5.144,9.002,5.144,10.763c0,3.639-3.076,7.507-8.778,7.507
				c-4.296,0-5.855-5.181-5.855-8.664c0-2.567,0.751-5.03,2.052-7.307C7.129,88.69,4.318,98.126,4.318,102.448
				c0,8.833,9.515,13.312,28.281,13.312c10.22,0,22.85-2.826,24.987-16.289c0.187-1.178,1.293-1.98,2.47-1.794
				c1.178,0.187,1.981,1.293,1.794,2.47C59.811,113.001,49.423,120.079,32.599,120.079z M20.07,89.491
				c-1.533,2.21-2.349,4.454-2.349,6.364c0,1.99,0.833,4.345,1.537,4.345c3.528,0,4.46-2.086,4.46-3.189
				C23.663,95.743,22.089,91.39,20.07,89.491z"/>
		</g>
		<g>
			<path style="fill:#525D7D;" d="M27.765,157.624c-1.105,0-2.048-0.845-2.148-1.968c-0.597-6.727-0.678-13.29-0.678-18.823
				c0-2.179,0.014-4.358,0.028-6.537c0.014-2.17,0.028-4.341,0.028-6.514c0-4.213-0.048-9.768-0.421-15.37
				c-0.079-1.19,0.821-2.218,2.011-2.298c1.167-0.085,2.218,0.82,2.298,2.011c0.382,5.728,0.431,11.376,0.431,15.657
				c0,2.182-0.014,4.362-0.028,6.543c-0.014,2.169-0.028,4.339-0.028,6.509c0,5.438,0.079,11.881,0.661,18.441
				c0.105,1.188-0.772,2.236-1.959,2.342C27.894,157.621,27.83,157.624,27.765,157.624z"/>
		</g>
		<g>
			<path style="fill:#525D7D;" d="M47.808,157.093c-1.15,0-2.105-0.906-2.155-2.066c-0.141-3.243-0.207-6.642-0.207-10.699
				c0-3.421,0.047-6.836,0.095-10.252c0.047-3.393,0.094-6.785,0.094-10.179c0-6.764-0.201-12.23-0.633-17.202
				c-0.103-1.188,0.776-2.235,1.964-2.338c1.166-0.104,2.234,0.775,2.338,1.964c0.443,5.1,0.65,10.684,0.65,17.576
				c0,3.414-0.047,6.826-0.095,10.239c-0.047,3.395-0.094,6.791-0.094,10.192c0,3.993,0.065,7.333,0.203,10.512
				c0.052,1.191-0.872,2.199-2.063,2.25C47.872,157.092,47.84,157.093,47.808,157.093z"/>
		</g>
		<g>
			<path style="fill:#525D7D;" d="M28.487,126.977c-1.065,0-1.993-0.788-2.137-1.874c-0.157-1.182,0.673-2.268,1.855-2.425
				c1.802-0.24,3.729-0.347,6.247-0.347c1.115,0,2.235,0.02,3.352,0.041c1.086,0.02,2.171,0.04,3.248,0.04
				c1.348,0,2.458-0.032,3.492-0.1c1.217-0.081,2.218,0.822,2.298,2.011c0.079,1.19-0.822,2.219-2.012,2.298
				c-1.131,0.075-2.333,0.11-3.778,0.11c-1.103,0-2.214-0.02-3.327-0.041c-1.091-0.02-2.184-0.041-3.273-0.041
				c-2.321,0-4.072,0.096-5.677,0.309C28.678,126.971,28.581,126.977,28.487,126.977z"/>
		</g>
		<g>
			<path style="fill:#525D7D;" d="M28.135,138.246c-1.073,0-2.003-0.799-2.139-1.891c-0.148-1.184,0.691-2.262,1.874-2.41
				c2.531-0.316,5.22-0.457,8.719-0.457c1.42,0,2.839,0.022,4.259,0.044c1.397,0.023,2.794,0.044,4.192,0.044
				c1.193,0,2.159,0.966,2.159,2.159s-0.966,2.159-2.159,2.159c-1.42,0-2.839-0.022-4.259-0.044
				c-1.397-0.022-2.794-0.044-4.192-0.044c-3.313,0-5.837,0.131-8.184,0.424C28.314,138.24,28.224,138.246,28.135,138.246z"/>
		</g>
		<g>
			<path style="fill:#525D7D;" d="M28.842,148.457c-1.193,0-2.159-0.966-2.159-2.159s0.966-2.159,2.159-2.159
				c2.388,0,4.856-0.176,7.241-0.347c2.461-0.176,5.007-0.358,7.548-0.358c1.193,0,2.159,0.966,2.159,2.159
				s-0.966,2.159-2.159,2.159c-2.387,0-4.854,0.176-7.24,0.346C33.929,148.275,31.384,148.457,28.842,148.457z"/>
		</g>
		<g>
			<path style="fill:#525D7D;" d="M169.334,111.158c-5.557,0-11.22-7.046-11.22-13.962c0-3.838,1.632-7.257,4.596-9.628
				c0.932-0.744,2.289-0.593,3.035,0.337c0.745,0.931,0.594,2.29-0.337,3.035c-2.459,1.966-2.975,4.488-2.975,6.256
				c0,4.784,4.015,9.644,6.902,9.644c45.56,0,58.734-3.291,58.734-14.671c0-3.56-2.924-12.548-11.881-14.769
				c-0.709,5.633-4.468,13.822-11.033,13.822c-3.525,0-6.392-2.895-6.392-6.454c0-7.812,4.607-12.135,12.977-12.188
				c-1.547-8.741-9.81-11.667-14.02-11.667c-1.295,0-2.283,0.37-3.532,0.838c-0.774,0.29-1.653,0.619-2.673,0.874
				c-1.165,0.29-2.329-0.415-2.619-1.57c-0.29-1.157,0.413-2.329,1.57-2.619c0.783-0.196,1.474-0.455,2.207-0.73
				c1.46-0.547,2.969-1.112,5.047-1.112c7.186,0,17.105,5.1,18.44,16.361c12.04,2.219,16.227,13.685,16.227,19.214
				C232.386,108.519,213.799,111.158,169.334,111.158z M211.895,76.897c-6.096,0-8.815,2.428-8.815,7.871
				c0,1.259,1.093,2.136,2.074,2.136C208.504,86.904,211.381,81.221,211.895,76.897z"/>
		</g>
		<g>
			<path style="fill:#525D7D;" d="M180.947,95.327c-4.462,0-7.827-3.71-7.827-8.63c0-1.487,0.329-2.986,0.95-4.334
				c0.5-1.083,1.782-1.557,2.865-1.056c1.082,0.5,1.555,1.782,1.056,2.866c-0.363,0.785-0.554,1.658-0.554,2.525
				c0,2.077,1.098,4.312,3.508,4.312c3.392,0,3.431-5.039,3.431-5.253c0-1.371-0.456-2.863-3.841-3.541
				c-1.169-0.233-1.927-1.371-1.693-2.541s1.372-1.928,2.541-1.693c6.361,1.272,7.311,5.417,7.311,7.774
				C188.696,90.366,186.271,95.327,180.947,95.327z"/>
		</g>
		<g>
			<path style="fill:#525D7D;" d="M188.753,155.609c-1.135,0-2.087-0.886-2.153-2.035c-0.248-4.291-0.363-8.813-0.363-14.228
				c0-4.49,0.081-9.048,0.16-13.456c0.079-4.388,0.16-8.927,0.16-13.378c0-5.247-0.117-9.819-0.356-13.979
				c-0.069-1.191,0.841-2.211,2.031-2.28c1.166-0.062,2.211,0.841,2.28,2.031c0.245,4.244,0.363,8.898,0.363,14.228
				c0,4.49-0.082,9.048-0.16,13.456c-0.079,4.389-0.16,8.927-0.16,13.378c0,5.33,0.113,9.772,0.356,13.979
				c0.069,1.191-0.841,2.211-2.031,2.28C188.837,155.607,188.795,155.609,188.753,155.609z"/>
		</g>
		<g>
			<path style="fill:#525D7D;" d="M210.42,153.63c-1.077,0-2.009-0.805-2.141-1.902c-2.258-18.814-3.527-37.446-4.472-53.19
				c-0.072-1.191,0.835-2.213,2.026-2.284c1.193-0.076,2.212,0.835,2.284,2.025c0.941,15.681,2.205,34.232,4.45,52.934
				c0.142,1.184-0.702,2.259-1.886,2.401C210.593,153.625,210.506,153.63,210.42,153.63z"/>
		</g>
		<g>
			<path style="fill:#525D7D;" d="M191.47,119.289c-0.616,0-1.236-0.019-1.862-0.064c-1.189-0.087-2.083-1.12-1.997-2.309
				c0.086-1.188,1.11-2.063,2.309-1.997c1.918,0.139,3.75-0.012,5.717-0.171c1.441-0.115,2.93-0.235,4.45-0.235
				c1.666,0,3.161,0.146,4.567,0.448c1.166,0.25,1.909,1.397,1.659,2.563c-0.249,1.167-1.401,1.905-2.563,1.659
				c-2.202-0.471-4.917-0.358-7.768-0.131C194.527,119.168,193.021,119.289,191.47,119.289z"/>
		</g>
		<g>
			<path style="fill:#525D7D;" d="M189.412,132.259c-1.193,0-2.159-0.966-2.159-2.159c0-1.193,0.966-2.159,2.159-2.159
				c2.046,0,4.12-0.107,6.316-0.221c3.378-0.175,7.063-0.325,10.025-0.127c1.19,0.079,2.09,1.108,2.011,2.298
				c-0.079,1.19-1.121,2.104-2.298,2.011c-2.744-0.18-6.259-0.038-9.516,0.131C193.797,132.144,191.569,132.259,189.412,132.259z"/>
		</g>
		<g>
			<path style="fill:#525D7D;" d="M196.463,143.674c-2.423,0-4.594-0.31-6.638-0.949c-1.138-0.356-1.773-1.566-1.417-2.704
				c0.355-1.139,1.564-1.778,2.704-1.417c1.621,0.506,3.371,0.752,5.351,0.752c2.454,0,4.915-0.364,7.522-0.748
				c1.039-0.154,2.079-0.307,3.118-0.437c1.182-0.15,2.262,0.692,2.41,1.874c0.148,1.183-0.691,2.262-1.874,2.41
				c-1.007,0.126-2.015,0.275-3.023,0.424C201.97,143.27,199.233,143.674,196.463,143.674z"/>
		</g>
	</g>
</g>
<g id="Layer_1">
</g>
</svg>
