<?xml version="1.0" encoding="iso-8859-1"?>
<!-- Generator: Adobe Illustrator 21.0.2, SVG Export Plug-In . SVG Version: 6.00 Build 0)  -->
<svg version="1.1" xmlns="http://www.w3.org/2000/svg" xmlns:xlink="http://www.w3.org/1999/xlink" x="0px" y="0px"
	 viewBox="0 0 183.66 192.357" style="enable-background:new 0 0 183.66 192.357;" xml:space="preserve">
<g id="_x33_9">
	<g>
		<g>
			<path style="fill:#E0DFE6;" d="M98.448,91.683c-0.273-1.666-2.496-1.003-2.679,0.363c-0.729,5.433-0.831,10.957-2.507,16.226
				c-1.916,6.023-5.766,8.92-9.767,13.276c-1.286,1.401-2.345,2.898-3.188,4.468c-1.672-0.363-3.612,0.358-4.191,2.375
				c-0.295,1.026-0.497,2.04-0.629,3.042c-0.352-1.363-0.792-2.703-1.364-3.901c0.032-0.934,0.05-1.87,0.014-2.82
				c-0.013-0.344-0.142-0.607-0.328-0.799c3.632-1.02,7.054-2.837,9.951-5.233c0.099-0.082,0.18-0.17,0.254-0.261
				c2.336,0.004,2.723-2.94,1.212-3.947c2.702-3.15,4.849-6.828,6.374-10.737c2.338-5.989,3.295-12.428,3.728-18.817
				c0.381-5.633,1.254-12.064-1.614-17.155c-0.808-1.434-2.807-0.685-2.919,0.791c-1.307,17.31-2.133,41.863-21.643,48.647
				c-0.818,0.285-1.4,0.766-1.778,1.341c-0.921-0.105-1.867-0.106-2.819-0.158c-2.436-0.134-4.705-0.818-7.083-1.27
				c-1.474-0.28-2.425,1.325-1.439,2.473c1.949,2.269,4.874,3.674,7.751,4.423c0.189,0.345,0.524,0.625,0.951,0.677
				c0.211,0.026,0.422,0.02,0.633,0.04c0.097,0.382,0.369,0.721,0.834,0.859c0.317,0.094,0.602,0.248,0.871,0.428
				c0.022,0.1,0.05,0.186,0.066,0.3c0.178,1.221,0.132,2.425,0.152,3.634c-1.281,3.902-1.37,8.12-0.115,12.179
				c0.629,2.034,2.822,2.298,4.232,1.464c0.951,0.047,1.933-0.35,2.472-1.159c1.242,0.038,2.431-0.66,2.67-2.164
				c0.895,2.23,2.27,4.326,4.109,6.247c0.447,0.467,0.933,0.745,1.426,0.9c-0.021,0.108-0.052,0.209-0.065,0.323
				c-0.245,2.223-0.65,4.258-1.138,6.337c-0.974-0.294-2.048-0.571-3.04-0.701c-0.031-0.099-0.043-0.188-0.077-0.289
				c-0.538-1.576-3.382-2.02-3.662,0c-0.601,4.337-2.487,8.043-0.656,12.317c2.288,5.339,4.509,10.14,5.864,15.867
				c0.924,4.31,7.722,2.493,6.64-1.831c-1.11-4.437-2.307-8.883-4.428-12.963c-1.412-2.715-2.815-4.46-3.023-7.658
				c-0.02-0.306-0.03-0.583-0.044-0.87c0.026,0.017,0.062,0.041,0.082,0.054c0.982,0.634,1.962,1.268,2.923,1.933
				c1.281,0.887,2.964,0.16,3.751-0.984c2.086-3.03,3.218-7.552,3.034-11.213c-0.076-1.506-0.888-2.431-1.902-2.806
				c0.324-1.022,0.174-2.184-0.738-3.196c0.06-0.457,0.033-0.956-0.119-1.497c-3.272-11.588,7.008-15.863,11.118-24.97
				C99.888,107.996,99.712,99.396,98.448,91.683z"/>
		</g>
		<g>
			<path style="fill:#E0DFE6;" d="M72.343,148.792c-0.776-1.945-4.046-3.137-5.135-0.671c-0.843,1.907-0.621,4.07-2.281,5.598
				c-1.699,1.564-3.952,1.793-6.071,1.062c-1.754-0.606-2.564,1.891-1.196,2.836c2.903,2.006,6.813,2.371,9.94,0.633
				C70.517,156.628,73.727,152.258,72.343,148.792z"/>
		</g>
		<g>
			<path style="fill:#E0DFE6;" d="M117.201,146.03c-1.668-2.503-6.334-0.998-5.162,2.176c1.214,3.287,2.884,6.37,4.073,9.676
				c1.175,3.268,1.76,6.749,3.025,9.967c0.407,1.036,2.042,1.274,2.351,0C123.114,161.16,120.979,151.696,117.201,146.03z"/>
		</g>
		<g>
			<path style="fill:#E0DFE6;" d="M162.307,53.368c-14.511,4.557-30.734,0.589-45.276,5.377c-0.911,0.3-1.022,1.713,0,1.961
				c7.913,1.925,16.423,1.241,24.506,1.11c7.443-0.12,15.4,0.381,22.525-2.082C168.039,58.36,166.397,52.083,162.307,53.368z"/>
		</g>
		<g>
			<path style="fill:#E0DFE6;" d="M172.028,40.263c-0.582-0.829-1.651-1.156-2.733-0.972c-1.727,0.294-2.907,1.77-3.57,3.279
				c-1.559,3.547-1.765,9.68,1.241,12.585c3.612,3.491,8.141-0.26,8.783-4.231C176.379,47.011,176.06,41.965,172.028,40.263z"/>
		</g>
		<g>
			<path style="fill:#E0DFE6;" d="M95.946,58.006c-3.105,0.942-6.369,1.7-9.324,3.054c-1.885,0.863-0.946,4.007,1.053,3.889
				c3.252-0.192,6.521-1.09,9.71-1.719C100.779,62.56,99.321,56.982,95.946,58.006z"/>
		</g>
		<g>
			<path style="fill:#E0DFE6;" d="M80.147,84.338c-1.309-1.202-3.353-1.303-4.648,0c-0.672,0.676-1.184,1.437-1.655,2.233
				c-0.182,0.029-0.374,0.059-0.586,0.085c-1.507,0.184-2.421,1.847-1.271,3.069c0.671,0.713,1.294,1.435,2.13,1.964
				c0.773,0.489,2.061,0.56,2.826,0c1.128-0.826,2.338-1.586,3.204-2.702C81.199,87.631,81.566,85.641,80.147,84.338z"/>
		</g>
		<g>
			<path style="fill:#E0DFE6;" d="M59.318,66.315c-0.857-1.11-2.4-1.158-3.416-0.232c-0.291,0.265-0.678,0.443-1.163,0.507
				c-0.342,0.045-0.695-0.011-1.037,0.012c-0.367,0.024-0.641,0.183-0.988,0.254c-0.517,0.105-0.877,0.757-0.71,1.251
				c0.195,0.577,0.376,1.076,0.899,1.446c0.516,0.365,1.112,0.595,1.733,0.706c1.434,0.257,2.725,0.014,4.04-0.58
				C59.939,69.108,60.072,67.291,59.318,66.315z"/>
		</g>
		<g>
			<path style="fill:#E0DFE6;" d="M92.882,31.83c-0.713-0.523-1.481-0.72-2.273-0.686c4.341-3.253,7.234-7.982,7.161-14.609
				c-0.05-4.525-7.063-4.537-7.036,0c0.118,19.599-32.029,12.014-44.058,17.291c-14.155,6.21-16.889,22.659-16.549,36.506
				c0.018,0.734,0.602,1.216,1.227,1.336c-0.719,0.996,0.341,2.489,1.525,1.785c10.179-6.053,7.518-23.113,18.499-27.345
				c7.482-2.884,17.322-1.103,25.341-2.668c4.623-0.902,15.198-1.804,17.415-6.839C94.956,34.731,94.551,33.055,92.882,31.83z
				 M45.075,42.806c-8.009,6.452-6.766,18.196-11.956,26.432c1.58-9.148,2.657-19.292,9.688-26.063
				c7.246-6.977,17.806-5.689,27.015-5.918c1.574-0.039,3.188-0.154,4.81-0.353c-4.424,0.897-8.906,1.463-13.409,1.772
				C55.575,39.065,49.706,39.075,45.075,42.806z M80.819,35.704c2.202-0.601,4.326-1.395,6.288-2.399
				c-0.109,0.223-0.197,0.454-0.24,0.698C85.424,34.667,83.01,35.251,80.819,35.704z"/>
		</g>
		<g>
			<path style="fill:#E0DFE6;" d="M28.885,76.296c-0.645-1.532-2.363-2.006-3.801-1.281c-2.677,1.35-4.996,3.66-5.603,6.64
				c-0.3,1.475,1.666,3.063,2.811,1.637c1.277-1.591,2.795-2.983,4.857-3.378C28.74,79.607,29.46,77.66,28.885,76.296z"/>
		</g>
		<g>
			<path style="fill:#E0DFE6;" d="M57.402,162.046c-0.724-1.379-1.932-2.535-2.967-3.694c-0.793-0.888-1.605-1.739-2.654-2.334
				c-2.065-1.171-4.73-1.378-6.548,0.353c-1.346,1.282-0.283,3.518,1.476,3.562c1.227,0.031,1.758,0.704,2.485,1.667
				c1.066,1.41,1.914,3.101,3.251,4.272C55.124,168.219,59.111,165.299,57.402,162.046z"/>
		</g>
		<g>
			<path style="fill:#E0DFE6;" d="M150.431,98.261c-0.788-1.453-3.021-0.451-2.625,1.107c1.669,6.567,4.839,13.379,5.938,20.253
				c-1.01,0.465-1.74,1.398-1.589,2.732c0.941,8.307,0.792,16.574,0.004,24.818c0.049-3.774-0.168-7.554-0.468-11.206
				c-1.187-14.45-2.431-31.153-10.165-43.79c-0.318-0.52-0.797-0.694-1.249-0.635c-0.595-1.308-1.228-2.596-1.874-3.878
				c0.567-0.324,1.064-0.783,1.425-1.302c0.076-0.109,0.151-0.218,0.227-0.326c0.887-1.276,0.443-3.102-0.537-4.162
				c-0.073-0.079-0.146-0.157-0.218-0.236c-0.266-0.288-0.548-0.494-0.836-0.661c-0.196-0.337-0.393-0.674-0.589-1.011l-2.321-3.985
				c-0.689-1.184-1.077-1.575-0.849-2.767c0.255-1.336,1.534-2.944,2.13-4.181c0.992-2.056-0.157-5.095-2.82-4.915
				c-3.276,0.221-8.613-0.013-10.868,2.728c-0.558,0.678-0.479,1.545,0.264,2.051c1.423,0.969,3.339,1.175,5.277,1.274
				c-1.078,2.348-1.478,4.719-0.05,7.562c1.165,2.319,2.478,5.855,4.472,8.176c-1.238,0.942-1.947,2.605-1.013,4.365
				c16.142,30.392,13.516,66.119-1.993,96.194c-0.882,1.711,1.422,2.969,2.53,1.479c3.591-4.828,6.574-9.982,9-15.357
				c0.962,0.566,2.169,0.559,3.073-0.56c2.675-3.313,4.442-7.025,5.59-10.947c-0.007,0.042-0.013,0.085-0.02,0.127
				c-1.114,6.638-2.914,12.639-7.386,17.885c-3.375,3.959-7.614,6.951-11.29,10.59c-1.014,1.004,0.016,3.179,1.496,2.57
				c7.598-3.131,13.805-7.769,18.018-14.051c0.667-0.19,1.285-0.641,1.724-1.455c3.008-5.578,4.317-11.431,4.763-17.414
				c1.811-9.756,2.766-20.135,1.877-29.972C161.417,118.536,155.458,107.531,150.431,98.261z"/>
		</g>
		<g>
			<path style="fill:#E0DFE6;" d="M168.518,62.054c-4.715,0.503-9.414,1.186-14.115,1.807c-3.712,0.491-7.924,0.543-11.463,1.686
				c-6.003,1.938-3.071,8.838-1.751,13.323c0.487,1.653,2.684,1.186,2.849-0.386c0.293-2.779-0.851-5.645,2.299-7.063
				c1.785-0.804,5.079-0.433,7.058-0.624c5.042-0.487,10.098-0.954,15.123-1.591C172.992,68.638,173.13,61.561,168.518,62.054z"/>
		</g>
		<g>
			<path style="fill:#525D7D;" d="M2.919,180.935c-1.001,0-1.899-0.701-2.111-1.719C0.273,176.642,0,173.964,0,171.254
				c0-23.577,17.076-25.178,30.795-26.465c12.772-1.198,20.6-2.476,20.6-13.192c0-4.677-1.771-5.684-5.298-7.691
				c-6.167-3.51-15.441-8.788-18.202-38.015c-0.082,0.065-0.162,0.129-0.236,0.188c-1.282,1.025-3.219,2.572-5.825,2.572
				c-2.808,0-7.52-1.252-7.52-9.638c0-7.028,6.235-10.653,8.896-10.653c2.163,0,6.204,3.24,7.661,6.882
				c0.443,1.107-0.096,2.363-1.202,2.806c-1.103,0.443-2.364-0.095-2.807-1.203c-0.811-2.027-2.965-3.739-3.783-4.135
				c-0.845,0.267-4.448,2.073-4.448,6.301c0,5.32,2.163,5.32,3.202,5.32c1.092,0,2.128-0.827,3.129-1.627
				c1.015-0.811,2.063-1.65,3.403-1.65c1.931,0,3.563,1.387,3.714,3.158c2.411,28.118,10.353,32.637,16.152,35.938
				c3.678,2.092,7.481,4.257,7.481,11.444c0,15.191-13.023,16.413-24.514,17.491c-13.823,1.297-26.88,2.521-26.88,22.165
				c0,2.413,0.242,4.796,0.718,7.081c0.243,1.167-0.506,2.311-1.674,2.554C3.215,180.92,3.066,180.935,2.919,180.935z M28.69,85.324
				L28.69,85.324L28.69,85.324z M22.918,72.645L22.918,72.645L22.918,72.645z"/>
		</g>
		<g>
			<path style="fill:#525D7D;" d="M27.201,74.546c-0.656,0-1.305-0.298-1.729-0.864c-9.227-12.301-12.665-24.793-12.665-29.778
				c0-3.891,4.003-6.506,7.742-6.506c4.283,0,6.845,3.255,8.905,5.87c0.344,0.437,0.686,0.872,1.032,1.287
				c0.763,0.916,0.64,2.277-0.275,3.04c-0.918,0.763-2.279,0.641-3.042-0.275c-0.371-0.445-0.738-0.911-1.108-1.381
				c-2.069-2.627-3.472-4.223-5.511-4.223c-1.697,0-3.424,1.104-3.424,2.188c0,3.737,2.884,15.299,11.802,27.187
				c0.715,0.954,0.521,2.307-0.432,3.023C28.106,74.406,27.652,74.546,27.201,74.546z"/>
		</g>
		<g>
			<path style="fill:#525D7D;" d="M32.188,74.807c-0.967,0-1.848-0.655-2.093-1.636c-0.274-1.094,0.34-2.201,1.386-2.563
				c0.758-0.845,1.557-4.894,2.145-7.869c2.042-10.33,5.461-27.621,21.8-27.621c0.224,0,1.212,0.046,2.602,0.112
				c3.153,0.151,8.427,0.405,11.216,0.405c7.65,0,25.439-1.557,25.439-15.979c0-7.076-3.958-15.338-15.113-15.338
				c-1.93,0-4.03,0.231-6.273,0.689c0.68,1.3,1.016,2.788,1.016,4.485c0,9.864-10.717,10.885-21.079,11.873
				c-15.501,1.478-25.661,3.455-25.661,16.941c0,0.801,0.049,1.645,0.146,2.509c0.132,1.185-0.721,2.253-1.907,2.385
				c-1.167,0.129-2.253-0.721-2.385-1.906c-0.114-1.023-0.171-2.028-0.171-2.988c0-18.421,16.395-19.984,29.569-21.24
				c10.646-1.015,17.171-1.924,17.171-7.575c0-1.813-0.566-3.023-1.896-4.045c-0.647-0.497-0.959-1.317-0.804-2.118
				c0.153-0.802,0.746-1.448,1.531-1.671C72.708,0.558,76.323,0,79.569,0C92.92,0,99,10.189,99,19.656
				c0,12.709-11.124,20.297-29.757,20.297c-2.891,0-8.231-0.256-11.422-0.41c-1.264-0.061-2.17-0.106-2.398-0.108
				c-11.81,0-15.046,11.419-17.561,24.14c-1.237,6.258-2.054,10.392-5.149,11.166C32.538,74.786,32.361,74.807,32.188,74.807z"/>
		</g>
		<g>
			<path style="fill:#525D7D;" d="M73.804,86.758c-1.085,0-2.02-0.817-2.144-1.921c-0.131-1.185,0.723-2.253,1.907-2.384
				l0.472-0.051c0.991-0.107,3.216-0.346,3.941-0.78c-0.252-3.236-1.588-6.385-3.002-9.715c-1.34-3.155-2.724-6.417-3.305-10.037
				c-0.188-1.178,0.614-2.285,1.791-2.473c1.169-0.192,2.286,0.613,2.474,1.79c0.496,3.1,1.719,5.982,3.015,9.033
				c1.524,3.589,3.099,7.301,3.352,11.362c0.003,0.044,0.008,0.214,0.008,0.259c0,4.014-4.89,4.541-7.813,4.855l-0.457,0.05
				C73.965,86.754,73.884,86.758,73.804,86.758z"/>
		</g>
		<g>
			<path style="fill:#525D7D;" d="M51.311,68.303c-0.995,0-1.89-0.694-2.108-1.707c-0.25-1.166,0.493-2.314,1.659-2.564
				c4.019-0.861,8.307-0.967,12.87-0.315c1.181,0.169,2.002,1.262,1.833,2.443c-0.17,1.18-1.269,2-2.443,1.832
				c-4.058-0.581-7.835-0.493-11.355,0.263C51.615,68.286,51.462,68.303,51.311,68.303z"/>
		</g>
		<g>
			<path style="fill:#525D7D;" d="M71.962,100.013c-3.261,0-6.514-1.449-8.698-3.877c-0.797-0.886-0.725-2.252,0.162-3.05
				c0.886-0.797,2.249-0.725,3.049,0.161c2.033,2.258,5.568,3.088,8.257,1.846c1.087-0.505,2.364-0.027,2.866,1.056
				c0.499,1.082,0.027,2.365-1.056,2.865C75.105,99.677,73.564,100.013,71.962,100.013z"/>
		</g>
		<g>
			<path style="fill:#525D7D;" d="M96.72,54.252c-1.053,0-1.975-0.772-2.134-1.845c-0.967-6.583-2.481-12.495-4.627-18.076
				c-0.427-1.113,0.128-2.362,1.241-2.79c1.106-0.429,2.36,0.126,2.79,1.24c2.262,5.882,3.854,12.096,4.869,18.998
				c0.173,1.18-0.642,2.277-1.823,2.45C96.931,54.245,96.824,54.252,96.72,54.252z"/>
		</g>
		<g>
			<path style="fill:#525D7D;" d="M124.588,159.045c-0.711,0-1.408-0.351-1.82-0.995c-4.161-6.5-11.561-10.868-18.415-10.868
				c-1.761,0-3.981,0.338-6.331,0.696c-2.838,0.433-5.772,0.88-8.641,0.88c-10.101,0-16.376-6.028-16.376-15.732
				c0-8.551,3.887-11.974,7.999-15.598c6.604-5.816,14.823-13.055,14.823-46.501c0-1.878-0.032-3.713-0.094-5.454
				c-0.042-1.191,0.888-2.192,2.08-2.235c1.163-0.046,2.191,0.888,2.235,2.08c0.065,1.793,0.097,3.68,0.097,5.609
				c0,35.397-9.414,43.688-16.286,49.742c-3.936,3.466-6.536,5.757-6.536,12.357c0,4.263,1.566,11.414,12.057,11.414
				c2.541,0,5.311-0.422,7.99-0.831c2.516-0.383,4.893-0.746,6.982-0.746c8.268,0,17.131,5.167,22.053,12.858
				c0.642,1.004,0.35,2.34-0.655,2.982C125.391,158.935,124.988,159.045,124.588,159.045z"/>
		</g>
		<g>
			<path style="fill:#525D7D;" d="M85.586,68.177c-0.818,0-1.569-0.463-1.934-1.2c-1.088-2.193-1.639-4.462-1.639-6.745
				c0-2.338,0.541-4.709,1.566-6.856c0.297-0.622,0.873-1.066,1.55-1.192c6.226-1.167,12.438-2.438,18.465-3.776
				c1.165-0.265,2.318,0.476,2.576,1.64c0.257,1.164-0.476,2.317-1.64,2.576c-5.706,1.267-11.577,2.473-17.468,3.589
				c-0.479,1.295-0.731,2.666-0.731,4.019c0,1.187,0.218,2.381,0.648,3.565c4.363-0.195,9.169-0.452,14.971-0.801
				c1.172-0.083,2.212,0.835,2.284,2.025c0.072,1.191-0.835,2.213-2.025,2.285c-6.494,0.392-11.747,0.668-16.532,0.87
				C85.647,68.176,85.616,68.177,85.586,68.177z"/>
		</g>
		<g>
			<path style="fill:#525D7D;" d="M114.408,66.542c-1.132,0-2.082-0.88-2.153-2.024c-0.075-1.19,0.829-2.215,2.02-2.29
				c14.987-0.938,28.522-1.715,42.402-1.715c5.275,0,10.175,0.112,14.978,0.344c6.931,0.313,7.687-8.174,7.687-11.8
				c0-6.228-2.248-14.999-7.246-14.999c-0.108,0-0.212,0.013-0.319,0.039c-4.982,1.251-10.708,3.007-17.34,5.039
				c-4.13,1.266-8.632,2.646-13.584,4.099c-1.143,0.332-2.343-0.32-2.679-1.464c-0.336-1.144,0.32-2.344,1.465-2.68
				c4.932-1.447,9.419-2.822,13.532-4.083c6.689-2.05,12.467-3.821,17.555-5.099c0.448-0.112,0.91-0.169,1.371-0.169
				c7.945,0,11.564,10.013,11.564,19.317c0,10.231-4.633,16.469-12.213,16.112c-4.734-0.228-9.565-0.339-14.77-0.339
				c-13.757,0-27.22,0.773-42.133,1.706C114.497,66.541,114.452,66.542,114.408,66.542z"/>
		</g>
		<g>
			<path style="fill:#525D7D;" d="M117.854,49.422c-0.969,0-1.85-0.656-2.094-1.638c-0.287-1.158,0.418-2.328,1.574-2.617
				l1.789-0.45c1.161-0.291,2.331,0.408,2.623,1.564c0.292,1.155-0.408,2.33-1.563,2.622l-1.806,0.454
				C118.201,49.401,118.027,49.422,117.854,49.422z"/>
		</g>
		<g>
			<path style="fill:#525D7D;" d="M168.63,63.627c-4.097,0-9.811-6.111-9.811-16.064c0-7.918,4.093-14.077,10.68-16.073
				c1.143-0.346,2.346,0.298,2.693,1.44c0.346,1.141-0.299,2.347-1.439,2.692c-7.066,2.141-7.616,9.681-7.616,11.941
				c0,7.94,4.407,11.738,5.493,11.745c1.189,0.008,2.156,0.978,2.151,2.167C170.776,62.665,169.819,63.627,168.63,63.627z"/>
		</g>
		<g>
			<path style="fill:#525D7D;" d="M173.209,54.556c-0.298,0-0.602-0.063-0.891-0.194c-1.087-0.493-1.566-1.773-1.074-2.858
				c0.312-0.687,0.471-1.433,0.471-2.217c0-1.594-0.675-3.376-1.851-4.889c-0.732-0.941-0.564-2.298,0.378-3.03
				c0.939-0.733,2.298-0.563,3.029,0.379c1.781,2.29,2.762,4.967,2.762,7.54c0,1.404-0.288,2.75-0.856,4.002
				C174.815,54.085,174.03,54.556,173.209,54.556z"/>
		</g>
		<g>
			<path style="fill:#525D7D;" d="M120.235,169.522c-0.346,0-0.696-0.083-1.021-0.258c-1.05-0.564-1.445-1.873-0.88-2.924
				c3.754-6.989,5.503-14.922,5.503-24.968c0-11.708-4.62-56.629-8.171-60.683c-8.879-4.485-18.311-13.555-18.311-25.658
				c0-2.526,0-10.213,7.401-10.646c1.174-0.068,2.211,0.839,2.28,2.03c0.07,1.191-0.839,2.212-2.03,2.281
				c-1.756,0.103-3.333,0.664-3.333,6.335c0,10.201,8.3,17.984,16.068,21.867c7.067,3.535,10.414,60.902,10.414,64.473
				c0,10.787-1.912,19.37-6.017,27.012C121.749,169.11,121.004,169.522,120.235,169.522z M115.611,80.629L115.611,80.629
				L115.611,80.629z"/>
		</g>
		<g>
			<path style="fill:#525D7D;" d="M116.198,61.092c-0.94,0-1.789-0.614-2.066-1.538c-0.267-0.891-0.403-1.811-0.403-2.734
				c0-0.071,0.001-0.141,0.003-0.211c-1.289,1.107-3.432,2.574-5.746,2.574c-3.663,0-6.123-3.863-6.123-7.472
				c0-14.495,15.274-19.66,29.566-19.66c3.028,0,11.071,0,11.071,8.142c0,3.773-3.175,7.803-5.067,9.87
				c-1.143,1.247-5.088,5.316-7.924,5.316c-1.29,0-2.29-0.654-3.019-1.617c-1.948,3.474-5.066,6.58-9.973,7.307
				C116.409,61.085,116.304,61.092,116.198,61.092z M120.525,40.625c0.215,0,0.432,0.032,0.644,0.098
				c0.901,0.281,1.515,1.116,1.515,2.061c0,3.07-1.378,5.773-2.593,8.158c-0.928,1.821-1.81,3.553-2.004,5.22
				c4.76-2.122,6.372-8.292,6.888-11.381c0.105-3.161,0.534-4.044,2.26-4.129c1.14-0.035,2.156,0.848,2.269,1.993
				c0.039,0.402-0.001,1.36-0.195,2.64c-0.028,0.841-0.051,1.964-0.051,3.418c0,0.859,0.278,1.8,0.531,2.26
				c2.072-0.927,8.393-7.129,8.393-10.769c0-2.93-1.577-3.823-6.753-3.823c-23.428,0-25.248,11.743-25.248,15.342
				c0,1.624,1.016,3.154,1.805,3.154c0.863,0,2.276-0.832,3.515-2.071c1.865-1.867,3.151-4.194,4.512-6.658
				c0.839-1.521,1.708-3.093,2.737-4.58C119.16,40.962,119.83,40.625,120.525,40.625z"/>
		</g>
		<g>
			<path style="fill:#525D7D;" d="M121.441,67.96c-7.214,0-11.674-2.766-12.559-7.787c-0.207-1.174,0.578-2.295,1.751-2.501
				c1.167-0.205,2.294,0.576,2.502,1.751c0.614,3.487,4.856,4.219,8.306,4.219c1.192,0,2.159,0.966,2.159,2.159
				C123.6,66.994,122.633,67.96,121.441,67.96z"/>
		</g>
		<g>
			<path style="fill:#525D7D;" d="M130.832,191.927c-0.732,0.001-1.448-0.373-1.853-1.048c-0.614-1.023-0.283-2.349,0.741-2.962
				c17.832-10.7,20.237-35.057,20.237-57.473c0-32.318-15.38-54.307-15.536-54.526c-0.26-0.365-0.399-0.803-0.399-1.252
				c0-2.347,1.317-4.563,2.592-6.705c1.074-1.808,2.186-3.678,2.406-5.434c0.148-1.184,1.23-2.019,2.411-1.874
				c1.182,0.148,2.021,1.227,1.874,2.41c-0.332,2.652-1.739,5.018-2.98,7.106c-0.826,1.389-1.677,2.82-1.917,3.929
				c2.72,4.095,15.868,25.489,15.868,56.346c0,23.625-2.654,49.367-22.334,61.175C131.594,191.828,131.21,191.927,130.832,191.927z"
				/>
		</g>
		<g>
			<path style="fill:#525D7D;" d="M121.835,94.948c-0.843,0-1.643-0.496-1.992-1.322c-0.462-1.098,0.053-2.365,1.153-2.827
				c5.693-2.398,11.861-4.617,18.386-4.617c0.897,0,1.789,0.042,2.654,0.125c1.186,0.114,2.056,1.169,1.943,2.356
				c-0.114,1.187-1.168,2.059-2.356,1.943c-0.728-0.07-1.482-0.105-2.241-0.105c-5.757,0-11.433,2.056-16.71,4.278
				C122.399,94.893,122.113,94.948,121.835,94.948z"/>
		</g>
		<g>
			<path style="fill:#525D7D;" d="M43.112,159.649c-0.433,0-0.852-0.099-1.269-0.313c-0.582-0.297-1.557-1.073-1.557-2.932
				c0-1.11,0.049-2.235,0.1-3.364c0.048-1.073,0.097-2.149,0.097-3.219c0-1.69-0.128-3.033-0.403-4.226
				c-0.267-1.162,0.458-2.321,1.619-2.589c1.164-0.263,2.322,0.458,2.589,1.619c0.35,1.521,0.513,3.172,0.513,5.196
				c0,1.134-0.051,2.275-0.101,3.412c-0.016,0.354-0.031,0.707-0.046,1.06c0.527-0.366,1.096-0.777,1.614-1.151
				c4.144-2.996,10.406-7.524,17.246-7.524c6.883,0,11.779,2.353,15.011,4.644c-0.412-1.619-0.898-3.601-1.452-5.998
				c-0.267-1.162,0.457-2.321,1.619-2.589c1.167-0.27,2.321,0.457,2.589,1.618c0.957,4.152,1.716,7.044,2.218,8.957
				c0.912,3.484,1.255,4.787-0.357,5.715c-1.562,0.895-2.768-0.306-3.652-1.186c-2.056-2.048-6.874-6.843-15.976-6.843
				c-5.441,0-11.023,4.036-14.716,6.706C46.337,158.419,44.636,159.649,43.112,159.649z"/>
		</g>
		<g>
			<path style="fill:#525D7D;" d="M70.484,146.994c-4.461,0-8.909-0.711-13.21-1.399c-2.302-0.368-4.682-0.748-6.999-1.006
				c-1.185-0.131-2.038-1.199-1.907-2.384c0.132-1.186,1.198-2.045,2.385-1.907c2.418,0.268,4.851,0.658,7.202,1.034
				c4.325,0.691,8.41,1.344,12.528,1.344c2.376,0,4.521-0.22,6.557-0.673c1.167-0.265,2.317,0.475,2.575,1.639
				c0.26,1.164-0.474,2.317-1.639,2.576C75.63,146.741,73.179,146.994,70.484,146.994z"/>
		</g>
		<g>
			<path style="fill:#525D7D;" d="M62.631,163.024c-6.68,0-8.309-3.657-9.884-7.193c-0.432-0.97-0.877-1.972-1.453-3.007
				c-0.579-1.042-0.204-2.357,0.839-2.936c1.039-0.579,2.356-0.207,2.936,0.838c0.668,1.202,1.175,2.342,1.623,3.348
				c1.501,3.37,2.062,4.632,5.939,4.632c2.986,0,5.102-0.546,6.124-1.579c1.044-1.057,1.026-2.738,1.008-4.364
				c-0.008-0.682-0.016-1.326,0.06-1.933c0.148-1.184,1.233-2.021,2.411-1.874c1.183,0.148,2.023,1.227,1.874,2.411
				c-0.039,0.316-0.034,0.817-0.028,1.347c0.024,2.035,0.059,5.109-2.255,7.449C69.922,162.089,66.915,163.024,62.631,163.024z"/>
		</g>
		<g>
			<path style="fill:#525D7D;" d="M50.517,183.596c-0.101,0-0.204-0.007-0.308-0.022c-1.181-0.169-2-1.262-1.833-2.442
				c0.957-6.702,3.598-12.936,6.152-18.966l0.661-1.563c0.462-1.099,1.722-1.617,2.828-1.152c1.099,0.462,1.615,1.729,1.153,2.827
				l-0.665,1.572c-2.447,5.774-4.976,11.746-5.853,17.891C52.498,182.819,51.574,183.596,50.517,183.596z"/>
		</g>
		<g>
			<path style="fill:#525D7D;" d="M79.265,183.027c-0.967,0-1.848-0.655-2.093-1.636c-1.313-5.25-4.024-9.764-6.895-14.543
				c-1.245-2.074-2.534-4.218-3.68-6.405c-0.552-1.056-0.145-2.361,0.911-2.915c1.06-0.554,2.361-0.145,2.915,0.91
				c1.086,2.075,2.285,4.072,3.555,6.185c2.907,4.84,5.914,9.844,7.382,15.719c0.29,1.157-0.413,2.329-1.57,2.618
				C79.615,183.006,79.438,183.027,79.265,183.027z"/>
		</g>
	</g>
</g>
<g id="Layer_1">
</g>
</svg>
