<?xml version="1.0" encoding="iso-8859-1"?>
<!-- Generator: Adobe Illustrator 21.0.2, SVG Export Plug-In . SVG Version: 6.00 Build 0)  -->
<svg version="1.1" xmlns="http://www.w3.org/2000/svg" xmlns:xlink="http://www.w3.org/1999/xlink" x="0px" y="0px"
	 viewBox="0 0 184.387 189.515" style="enable-background:new 0 0 184.387 189.515;" xml:space="preserve">
<g id="_x34_">
	<g>
		<path style="fill:#E0DFE6;" d="M94.14,150.68c-12.95,1.764-24.486,2.325-37.31-1.084c-10.747-2.857-21.456-8.618-32.509-9.765
			c-1.966-0.204-3.555,2.522-2.364,4.12c5.087,6.827,13.091,11.792,21.389,15.415c-3.66,7.61-7.97,21.496-1.74,28.427
			c0.85,0.946,2.42,0.624,3.035-0.391c2.01-3.317,1.797-7.45,2.612-11.175c0.979-4.47,2.742-8.621,4.924-12.628
			c0.139-0.254,0.227-0.505,0.318-0.756c1.077,0.356,2.146,0.698,3.194,1.015c13.187,3.98,29.207,6.113,42.518,1.576
			C107.775,162.173,103.695,149.379,94.14,150.68z"/>
		<path style="fill:#E0DFE6;" d="M184.134,126.055c-1.833-6.787-5.488-17.703-11.942-22.646
			c2.563-13.782-2.552-31.788-12.946-40.531c-2.255-1.897-5.133-0.058-4.711,2.742c0.329,2.185,0.748,4.34,1.177,6.489
			c-1.297-2.579-5.101-2.842-6.691-0.259c-2.428,3.944-1.912,8.248-2.605,12.664c-0.594,3.785-1.588,5.208-4.392,7.633
			c-6.345,5.489,1.732,14.471,8.539,11.067c4.251-2.126,6.364-5.997,7.228-10.447c-0.281,4.276-0.87,8.498-1.035,12.839
			c-0.777,2.856,1.288,6.479,4.149,7.066c2.06,0.423,3.576,2.213,4.788,4.565c-1.451-1.043-3.178-1.551-4.882-1.564
			c-1.788-2.65-3.929-5.052-6.495-7.064c-3.284-2.574-7.123,1.269-4.556,4.555c1.611,2.061,2.975,4.228,4.087,6.51
			c-0.605,1.374-0.724,3.067-0.1,5.035c1.938,6.115,3.982,11.223,3.003,17.791c-0.897,6.018-3.74,12.009-8.36,16.048
			c-10.915,9.542-24.58,6.556-36.975,2.32c-2.826-0.966-5.573,2.627-3.931,5.113c0.35,0.53,0.749,1.002,1.131,1.495
			c-0.986-0.195-1.993-0.216-2.964,0.014c-2.74,0.649-5.209,1.724-7.656,2.814c-7.346,0.711-14.639,1.68-22.04,1.544
			c-2.178-0.04-4.356-0.208-6.532-0.416c-1.267-0.372-2.548-0.756-3.877-1.148c-0.978-0.288-1.993-0.064-2.841,0.454
			c-3.069-0.31-6.134-0.554-9.192-0.509c-1.919,0.028-2.52,2.521-0.955,3.527c3.311,2.128,7.144,3.734,11.247,4.906
			c12.465,12.428,39.366,14.111,50.35-0.112c0.553-0.717,0.913-1.454,1.117-2.193c0.008,0.273,0.081,0.543,0.241,0.787
			c4.612,7,13.677,10.21,21.596,11.802c9.809,1.971,17.769-1.387,25.529-7.293c14.228-10.829,25.536-30.313,19.015-48.271
			C183.701,131.707,184.95,129.075,184.134,126.055z M115.402,175.669c0.104-0.721,0.066-1.435-0.097-2.127
			c0.475,0.3,0.936,0.623,1.429,0.895C116.127,174.567,115.626,175.074,115.402,175.669z M140.789,177.737
			c2.166-0.399,4.295-0.962,6.347-1.69C145.16,176.915,143.068,177.474,140.789,177.737z"/>
		<path style="fill:#E0DFE6;" d="M96.9,84.18c-3.821-7.158-9.483-13.527-13.672-20.557c-4.233-7.104-8.129-14.396-12.588-21.365
			C67.345,37.106,53.606,15.744,46.782,29.1c-1.066,2.087,1.032,3.909,3.03,3.03c2.028-0.893,10.513,17.467,14.446,26.048
			c-6.334-8.895-12.53-17.916-19.937-25.909c-2.912-3.142-7.148,0.846-5.565,4.294c1.375,2.997,2.885,5.924,4.471,8.813
			c-0.525-0.076-1.079-0.098-1.669-0.044c-8.84,0.804-13.931,7.523-19.39,13.97c-4.646,5.487-8.907,11.265-12.795,17.299
			c-2.447,1.802-4.018,4.532-4.006,8.671c0.005,1.621,0.474,3.013,1.226,4.167c-0.129,0.093-0.272,0.172-0.398,0.269
			c-1.496,1.144-1.699,3.202,0,4.311c7.124,4.649,17.985,3.148,26.118,3.077c10.224-0.09,20.455-0.614,30.665-1.151
			c5.774-0.304,15.629,0.761,20.236-4.111c0.542,0.56,1.098,1.102,1.671,1.618C91.317,99.243,101.072,91.996,96.9,84.18z
			 M31.035,73.123c3.005-3.954,7.838-11.795,12.558-12.763c3-0.615,4.69-2.837,5.23-5.391c3.929,6.431,8.044,12.764,11.846,19.253
			C50.818,73.399,40.94,73.026,31.035,73.123z"/>
		<path style="fill:#E0DFE6;" d="M133.581,21.158c-0.515,0.474-1.015,0.97-1.523,1.453c1.072-5.334-5.796-10.221-10.391-6.672
			c-2.467-2.086-5.266-3.79-8.214-5.167c-4.09-1.911-9.437-4.171-13.989-2.944c-1.934,0.521-2.808,3.235-1.226,4.644
			c2.89,2.573,6.849,3.717,9.978,6.046c1.511,1.125,2.801,2.407,4.02,3.752c-4.825,5.088-8.67,11.697-12.006,17.442
			c-3.67,3.93-7.379,8.134-9.487,12.844c-0.594,1.326,0.089,2.868,1.254,3.306c-1.076,2.95-1.816,5.917-1.936,8.781
			c-0.086,2.051,2.416,2.743,3.781,1.566c0.321-0.277,0.627-0.577,0.937-0.871c-1.281,2.525-1.889,4.997-1.263,7.203
			c0.647,2.278,2.949,2.833,4.908,1.997c8.681-3.705,15.948-12.546,22.596-18.99c7.898-7.654,16.322-15.116,23.493-23.456
			C150.963,24.59,140.975,14.345,133.581,21.158z"/>
		<g>
			<g>
				<path style="fill:#525D7D;" d="M86.336,172.637c-21.699,0-43.141-7.378-58.829-20.244C14.958,142.104,0,123.418,0,92.834
					c0-30.601,16.685-59.64,42.506-73.984c1.033-0.572,2.335-0.212,2.922,0.814c10.185,17.756,20.771,35.721,31.009,53.095
					c3.51,5.956,7.027,11.924,10.547,17.915c8.144-4.446,16.287-8.84,24.431-13.233c12.453-6.719,25.33-13.667,37.989-20.694
					c0.517-0.287,1.129-0.349,1.691-0.173c0.564,0.176,1.03,0.575,1.293,1.103c4.972,10.052,7.493,20.427,7.493,30.835
					c0,6.654-0.838,13.359-2.492,19.928c-0.291,1.157-1.463,1.854-2.621,1.567c-1.156-0.292-1.858-1.465-1.567-2.622
					c1.567-6.224,2.361-12.575,2.361-18.873c0-9.038-2.042-18.069-6.072-26.877c-12.031,6.66-24.218,13.235-36.025,19.604
					c-8.749,4.72-17.497,9.44-26.247,14.226c-1.024,0.557-2.308,0.204-2.898-0.801c-3.872-6.595-7.742-13.162-11.603-19.715
					C62.833,58.178,52.624,40.85,42.758,23.686C19.34,37.618,4.318,64.514,4.318,92.834c0,28.896,14.099,46.522,25.926,56.221
					c14.929,12.243,35.373,19.264,56.091,19.264c6.119,0,12.546-1.369,19.103-4.069c1.104-0.453,2.365,0.072,2.819,1.174
					c0.454,1.102-0.072,2.364-1.174,2.818C100.002,171.159,93.022,172.637,86.336,172.637z"/>
			</g>
			<g>
				<path style="fill:#525D7D;" d="M91.536,72.496c-0.122,0-0.245-0.01-0.367-0.031c-0.734-0.127-1.351-0.623-1.632-1.313
					c-3.258-7.984-6.822-16.041-10.269-23.834C73.166,33.523,66.856,19.259,61.904,4.655c-0.2-0.588-0.136-1.231,0.173-1.77
					c0.31-0.538,0.836-0.917,1.444-1.04C69.578,0.621,75.808,0,82.04,0c21.808,0,41.802,7.308,56.299,20.577
					c0.854,0.781,0.94,2.099,0.193,2.984c-7.936,9.419-16.752,18.398-25.28,27.082c-6.712,6.836-13.653,13.905-20.107,21.131
					C92.733,72.237,92.145,72.496,91.536,72.496z M66.804,5.622c4.762,13.609,10.68,26.987,16.414,39.95
					c3.005,6.792,6.098,13.786,9.009,20.777c5.847-6.408,11.986-12.661,17.945-18.73c7.982-8.129,16.22-16.519,23.695-25.235
					C120.45,10.88,101.693,4.318,82.04,4.318C76.925,4.318,71.811,4.757,66.804,5.622z"/>
			</g>
			<g>
				<path style="fill:#525D7D;" d="M2.263,99.304c-1.163,0-2.123-0.926-2.157-2.097c-0.035-1.192,0.904-2.186,2.096-2.22
					c7.543-0.218,15.22-0.277,22.643-0.333c20.326-0.155,41.343-0.315,61.794-3.766c1.172-0.191,2.289,0.593,2.488,1.77
					c0.198,1.177-0.594,2.29-1.77,2.489c-20.791,3.507-41.985,3.669-62.48,3.825C17.477,99.028,9.824,99.086,2.263,99.304z"/>
			</g>
			<g>
				<path style="fill:#525D7D;" d="M23.771,98.981c-1.084,0-2.019-0.815-2.143-1.919c-1.425-12.714-2.589-26.125-3.558-41.001
					c-0.078-1.191,0.824-2.218,2.014-2.295c1.189-0.062,2.218,0.825,2.295,2.014c0.966,14.808,2.124,28.155,3.542,40.801
					c0.133,1.185-0.72,2.253-1.905,2.385C23.933,98.976,23.852,98.981,23.771,98.981z"/>
			</g>
			<g>
				<path style="fill:#525D7D;" d="M39.219,98.822c-1.115,0-2.059-0.856-2.15-1.986c-1.02-12.698-1.713-25.594-2.383-38.066
					c-0.427-7.929-0.867-16.128-1.387-24.187c-0.077-1.191,0.826-2.217,2.016-2.294c1.196-0.07,2.217,0.826,2.294,2.016
					c0.521,8.082,0.963,16.293,1.389,24.233c0.669,12.444,1.361,25.311,2.376,37.952c0.096,1.189-0.791,2.229-1.979,2.325
					C39.335,98.819,39.277,98.822,39.219,98.822z"/>
			</g>
			<g>
				<path style="fill:#525D7D;" d="M55.725,98.331c-1.092,0-2.029-0.825-2.145-1.936c-0.492-4.74-0.808-9.581-1.113-14.262
					c-0.548-8.418-1.115-17.125-2.732-25.41c-0.228-1.169,0.535-2.304,1.706-2.533c1.168-0.228,2.304,0.537,2.532,1.706
					c1.669,8.556,2.246,17.402,2.803,25.955c0.303,4.641,0.615,9.44,1.099,14.096c0.123,1.186-0.739,2.248-1.925,2.371
					C55.876,98.327,55.8,98.331,55.725,98.331z"/>
			</g>
			<g>
				<path style="fill:#525D7D;" d="M68.485,97.493c-1.131,0-2.082-0.88-2.153-2.024c-0.406-6.516-0.914-12.995-1.4-19.072
					c-0.049-0.6,0.157-1.193,0.566-1.636c0.408-0.443,0.984-0.694,1.586-0.694h0.39c1.193,0,2.159,0.967,2.159,2.159
					c0,0.398-0.108,0.772-0.296,1.092c0.456,5.727,0.924,11.781,1.304,17.881c0.074,1.191-0.831,2.215-2.021,2.29
					C68.575,97.492,68.53,97.493,68.485,97.493z"/>
			</g>
			<g>
				<path style="fill:#525D7D;" d="M38.966,188.896c-0.942,0-1.808-0.621-2.077-1.573c-0.924-3.275-1.392-6.649-1.392-10.028
					c0-7.666,2.72-33.454,37.716-43.452c1.143-0.328,2.34,0.335,2.669,1.483c0.327,1.147-0.337,2.342-1.483,2.669
					c-32.09,9.168-34.584,32.399-34.584,39.3c0,2.983,0.414,5.963,1.23,8.855c0.323,1.148-0.344,2.34-1.492,2.664
					C39.358,188.871,39.16,188.896,38.966,188.896z"/>
			</g>
			<g>
				<path style="fill:#525D7D;" d="M69.74,151.979c-0.202,0-0.406-0.028-0.61-0.087c-1.144-0.337-1.798-1.538-1.462-2.681
					c0.488-1.66,0.931-3.355,1.377-5.062c0.646-2.467,1.309-5.001,2.125-7.503c-2.242-1.12-4.349-2.509-6.402-3.86
					c-1.03-0.678-2.062-1.358-3.111-2.004c-1.016-0.624-1.332-1.955-0.707-2.97c0.625-1.015,1.955-1.332,2.97-0.707
					c1.087,0.669,2.157,1.373,3.223,2.075c2.551,1.68,4.961,3.267,7.526,4.321c1.071,0.441,1.604,1.647,1.208,2.735
					c-1.061,2.917-1.871,6.013-2.655,9.007c-0.457,1.749-0.912,3.486-1.413,5.185C71.534,151.37,70.673,151.979,69.74,151.979z"/>
			</g>
			<g>
				<path style="fill:#525D7D;" d="M135.481,182.141c-25.769,0-41.168-22.203-41.168-43.669c0-18.261,14.473-34.712,33.666-38.266
					c2.3-0.426,4.641-0.642,6.959-0.642c21.442,0,40.252,18.368,40.252,39.306c0,9.846-3.875,20.563-10.367,28.668
					C157.28,176.954,146.859,182.141,135.481,182.141z M128.765,104.451c-17.179,3.181-30.134,17.807-30.134,34.021
					c0,19.343,13.784,39.351,36.85,39.351c12.87,0,21.227-7.062,25.972-12.985c5.898-7.363,9.419-17.072,9.419-25.968
					c0-16.549-14.758-34.988-35.934-34.988C132.883,103.882,130.806,104.073,128.765,104.451z"/>
			</g>
			<g>
				<path style="fill:#525D7D;" d="M119.499,140.209c-3.781,0-9.375-3.015-9.375-9.487c0-4.668,2.825-8.511,7.03-9.562
					c0.637-0.159,1.291-0.24,1.945-0.24c3.949,0,9.792,3.063,9.792,9.638C128.89,136.06,124.853,140.209,119.499,140.209z
					 M119.098,125.238c-0.304,0-0.597,0.037-0.895,0.111c-2.778,0.693-3.762,3.329-3.762,5.374c0,4.249,4.054,5.168,5.057,5.168
					c2.444,0,5.074-1.668,5.074-5.333C124.572,126.163,119.998,125.238,119.098,125.238z"/>
			</g>
			<g>
				<path style="fill:#525D7D;" d="M144.168,162.725c-2.988,0-8.562-3.181-8.562-9.262c0-4.792,3.245-9.963,8.488-9.963
					c0.45,0,0.907,0.038,1.359,0.114c1.989,0.332,3.812,1.314,5.417,2.919c2.948,2.946,2.948,6.158,2.948,7.701
					C153.817,158.242,149.69,162.725,144.168,162.725z M144.093,147.818c-2.721,0-4.17,3.278-4.17,5.645
					c0,3.597,3.524,4.944,4.244,4.944c3.307,0,5.331-2.702,5.331-4.172c0-1.624-0.127-3.092-1.682-4.648
					c-0.97-0.97-1.976-1.531-3.074-1.714C144.518,147.836,144.302,147.818,144.093,147.818z"/>
			</g>
			<g>
				<path style="fill:#525D7D;" d="M120.997,158c-0.405,0-0.815-0.114-1.179-0.352c-0.998-0.654-1.278-1.992-0.625-2.99
					c3.344-5.114,7.103-9.689,10.737-14.114c3.563-4.338,7.248-8.823,10.464-13.744c0.653-0.997,1.991-1.275,2.988-0.626
					c0.998,0.654,1.278,1.992,0.626,2.99c-3.345,5.117-7.105,9.693-10.741,14.12c-3.561,4.336-7.245,8.82-10.46,13.739
					C122.392,157.656,121.701,158,120.997,158z"/>
			</g>
		</g>
	</g>
</g>
<g id="Layer_1">
</g>
</svg>
