<?xml version="1.0" encoding="iso-8859-1"?>
<!-- Generator: Adobe Illustrator 21.0.2, SVG Export Plug-In . SVG Version: 6.00 Build 0)  -->
<svg version="1.1" xmlns="http://www.w3.org/2000/svg" xmlns:xlink="http://www.w3.org/1999/xlink" x="0px" y="0px"
	 viewBox="0 0 186.204 196.332" style="enable-background:new 0 0 186.204 196.332;" xml:space="preserve">
<g id="_x34_0">
	<g>
		<g>
			<path style="fill:#E0DFE6;" d="M46.265,172.344c-2.935,0.13-5.69,1.235-8.635,1.248c-2.921,0.013-5.602-0.962-8.303-1.968
				c-2.305-0.859-3.959,2.415-2.331,4.005c2.388,2.334,5.367,3.739,8.65,4.332c3.738,0.675,6.928-0.117,10.62-0.565
				C50.64,178.865,50.91,172.139,46.265,172.344z"/>
		</g>
		<g>
			<path style="fill:#E0DFE6;" d="M183.458,85.764c-13.008,11.135-24.22,24.642-34.881,38.221
				c-0.509-12.777-1.547-25.577-2.446-38.309c-0.637-9.023-0.956-18.295-1.931-27.429c0.1-0.29,0.169-0.606,0.171-0.968
				c0.048-11.137-0.011-24.124-3.736-34.74c-0.556-1.584-2.767-1.286-2.891,0.391c-0.583,7.888,0.056,16.057,0.525,24.139
				c-0.969,13.248,0.371,26.88,0.978,40.059c0.683,14.82,1.192,29.759,2.606,44.531c-0.894,0.471-1.53,1.369-1.459,2.712
				c0.003,0.053,0.008,0.111,0.011,0.164c-1.225,1.869-0.721,3.777,0.487,4.933c0.589,5.124,1.204,10.947-0.834,14.805
				c-0.575,1.088-1.255,2.155-1.979,3.211c0.037-2.597-3.518-4.302-5.481-2.248c-1.394,1.458-3.387,2.908-4.407,4.613
				c-0.097,0.162-0.255,0.541-0.42,0.974c-0.159-1.432-2.33-2.205-3.437-1.108c-2.831,2.805-3.104,6.051,0.35,8.374
				c0.844,0.568,1.985,0.455,2.839,0c0.374-0.199,0.733-0.423,1.091-0.65c-0.195,0.968-0.379,1.939-0.515,2.932
				c-0.02,0.143-0.022,0.289-0.021,0.435c-1.41,1.676-2.853,3.11-4.244,3.771c-1.193,0.567-2.749,0.593-4.426,0.38
				c1.057-0.068,2.111-0.151,3.153-0.263c4.107-0.44,4.273-6.818,0-6.553c-9.298,0.577-18.032-0.195-27.062-1.303
				c10.256-13.711,19.169-30.753,18.705-47.063c-0.023-0.827-0.966-1.279-1.6-0.912c-0.275-1.353-2.569-2.051-3.273-0.536
				c-0.475,1.022-0.95,2.045-1.425,3.067c-0.466,1.002-0.207,2.169,0.886,2.629c0.345,0.146,0.677,0.172,0.987,0.123
				c-0.532,1.144-1.051,2.295-1.553,3.454c0.656-3.644-4.485-6.459-6.243-2.654c-0.867,1.876-1.795,3.702-2.73,5.523
				c-4.684,8.564-11.034,15.985-17.357,23.485c-7.505,8.902-14.647,18.106-22.456,26.722c-1.148,1.267-0.023,3.199,1.646,2.828
				c2.541-0.564,4.623-1.894,6.498-3.541c0.958,0.187,2.009-0.007,2.944-0.818c14.649-12.705,26.455-28.601,35.135-45.913
				c0.348-0.656,0.684-1.321,1.015-1.99c-2.1,5.041-4.145,10.119-6.757,14.921c-4.477,8.229-9.74,15.859-15.796,22.962
				c-0.863,0.145-1.658,0.682-2.157,1.776c-0.25,0.548-0.5,1.095-0.749,1.643c-0.447,0.98-0.428,2.014-0.118,2.937
				c-0.484,0.165-0.98,0.301-1.456,0.483c-2.029,0.776-1.849,3.887,0.532,3.929c1.64,0.029,3.279,0.008,4.918-0.032
				c-0.224,0.303-0.318,0.708-0.147,1.213c0.99,2.934,3.476,5.352,6.573,5.9c-0.443,0.43-0.879,0.794-1.298,0.999
				c-1.887,0.926-3.477-1.026-5.39-2.342c-3.184-2.19-6.345-4.231-9.889-5.78c-1.52-0.664-2.744,0.938-1.73,2.243
				c2.848,3.666,6.29,6.64,9.787,9.672c1.923,1.667,4.686,4.892,7.617,4.539c2.304-0.277,3.396-2.187,4.722-3.832
				c3.099-3.845,6.604-6.963,10.707-9.723c0.847-0.57,1.447-1.498,1.658-2.484c4.276,0.562,8.496,1.345,12.837,1.971
				c8.787,1.267,13.783-7.94,18.715-14.127c0.532-0.667,0.793-1.385,0.851-2.087c2.711-3.21,5.276-6.552,6.729-10.003
				c2.069-4.913,0.912-12.142,0.287-18.084c12.8-16.776,27.059-32.739,38.81-50.265C186.983,86.104,184.743,84.664,183.458,85.764z
				 M96.798,172.697c-2.142,0.099-4.281,0.28-6.393,0.58c0.592-0.706,1.182-1.436,1.772-2.167
				C93.687,171.709,95.228,172.24,96.798,172.697z M96.266,181.422c-0.683,0.611-1.449,1.587-2.245,2.608
				c-0.333-0.726-1.037-1.276-1.9-1.236c-1.803,0.084-3.591-0.777-4.307-2.511c-0.083-0.2-0.198-0.36-0.328-0.498
				c3.68-0.124,7.359-0.288,11.045-0.225C97.764,180.165,96.996,180.768,96.266,181.422z"/>
		</g>
		<g>
			<path style="fill:#E0DFE6;" d="M74.543,82.243c-0.39-3.222-1.475-6.263-3.204-8.902c-1.167-2.604-2.475-5.145-3.821-7.575
				c-0.941-1.7-3.217-2.198-4.863-1.275c-3.18,1.784-6.462,3.069-9.995,3.957c-3.539,0.889-3.199,5.79,0,6.838
				c4.59,1.505,7.08,4.718,9.09,8.917c1.32,2.759,5.079,1.919,6.245-0.321c0.021,0.05,0.041,0.099,0.062,0.149
				c1.311,3.154,6.938,3.263,6.607-0.894C74.64,82.835,74.579,82.542,74.543,82.243z M62.114,72.663
				c0.265-0.117,0.534-0.227,0.797-0.349c0.328,0.662,0.645,1.329,0.956,1.996C63.314,73.728,62.731,73.179,62.114,72.663z"/>
		</g>
		<g>
			<path style="fill:#E0DFE6;" d="M82.587,75.075c-0.125-7.3-0.809-14.6-2.033-21.796c-0.74-4.351-7.126-2.428-6.546,1.804
				c0.732,5.341,1.377,10.671,1.654,16.057c0.205,3.988,2.027,12.543-2.35,14.852c-3.545,1.87-11.17,1.026-15.173,1.223
				c-5.751,0.283-11.499,0.554-17.248,0.866c-2.126,0.115-2.075,3.069,0,3.267c8.142,0.776,16.24,1.386,24.428,1.246
				c4.448-0.076,11.228,0.626,14.751-2.935C83.606,86.083,82.665,79.629,82.587,75.075z"/>
		</g>
		<g>
			<path style="fill:#525D7D;" d="M124.276,176.144c-6.334-0.016-12.78-0.378-19.014-0.728c-6.266-0.352-12.746-0.716-18.99-0.716
				c-1.192,0-2.159-0.966-2.159-2.159c0-1.193,0.967-2.159,2.159-2.159c6.365,0,12.907,0.368,19.233,0.723
				c5.835,0.328,11.857,0.666,17.742,0.716c5.236-6.439,11.085-12.086,15.798-16.43c-0.347-12.031-0.808-24.244-1.254-36.065
				c-0.918-24.37-1.868-49.57-1.868-74.378c0-7.345,0.084-14.518,0.253-21.356c-8.061-0.058-16.596-0.086-26.642-0.086
				c-9.596,0-19.187,0.025-28.778,0.051c-9.595,0.026-19.19,0.051-28.79,0.051c-9.235,0-17.482-0.024-25.13-0.075
				c-0.367,9.617-0.545,19.616-0.545,30.492c0,23.518,0.864,47.457,1.699,70.608c0.512,14.162,1.039,28.785,1.365,43.208
				c4.142,0.005,8.266,0.288,12.602,0.866c1.182,0.157,2.013,1.243,1.855,2.425s-1.254,2.007-2.426,1.855
				c-4.865-0.649-9.446-0.913-14.093-0.806c-0.505,0.026-1.127-0.202-1.542-0.598c-0.415-0.396-0.654-0.941-0.666-1.515
				c-0.321-15.082-0.874-30.433-1.41-45.28c-0.836-23.19-1.702-47.168-1.702-70.764c0-11.724,0.207-22.439,0.631-32.755
				c0.048-1.158,1.001-2.071,2.158-2.071c8.24,0.06,17.133,0.09,27.205,0.09c9.596,0,19.187-0.025,28.777-0.051
				c9.595-0.026,19.19-0.051,28.79-0.051c10.975,0,20.15,0.032,28.875,0.103c0.58,0.005,1.134,0.243,1.536,0.66
				c0.403,0.417,0.621,0.979,0.604,1.558c-0.204,7.455-0.308,15.341-0.308,23.439c0,24.727,0.949,49.885,1.865,74.216
				c0.458,12.154,0.932,24.722,1.282,37.09c0.018,0.626-0.238,1.23-0.699,1.653c-4.907,4.496-11.242,10.539-16.724,17.424
				C125.555,175.844,124.934,176.144,124.276,176.144z"/>
		</g>
		<g>
			<path style="fill:#525D7D;" d="M123.17,174.397c-1.143,0-2.097-0.898-2.155-2.052c-0.191-3.842-0.409-8.195-0.409-12.495
				c0-1.731,0.037-3.406,0.11-4.978c0.049-1.091,0.907-1.974,1.996-2.054c2.45-0.181,5.057-0.27,7.971-0.27
				c3.981,0,8.002,0.168,11.552,0.316c1.192,0.049,2.117,1.056,2.068,2.247c-0.049,1.193-1.047,2.118-2.248,2.067
				c-5.355-0.224-11.927-0.442-17.095-0.175c-0.023,0.924-0.035,1.876-0.035,2.847c0,4.192,0.215,8.489,0.403,12.28
				c0.059,1.191-0.857,2.205-2.048,2.264C123.242,174.396,123.207,174.397,123.17,174.397z"/>
		</g>
		<g>
			<path style="fill:#525D7D;" d="M36.61,89.511c-0.536,0-1.054-0.2-1.453-0.563c-0.441-0.402-0.697-0.97-0.706-1.567
				c-0.208-15.496-0.225-31.003-0.225-48.213c0-0.587,0.239-1.148,0.662-1.556c0.423-0.407,1.001-0.61,1.58-0.602
				c4.488,0.173,9.033,0.495,13.428,0.807c6.429,0.456,13.078,0.928,19.579,0.928c2.841,0,5.452-0.086,7.984-0.265
				c0.603-0.046,1.216,0.176,1.657,0.605c0.44,0.429,0.678,1.025,0.652,1.639c-0.204,4.849-0.302,9.847-0.302,15.281
				c0,10.252,0.364,20.685,0.738,30.492c0.045,1.184-0.871,2.182-2.054,2.239c-4.634,0.222-9.2,0.251-12.658,0.251
				c-1.893,0-3.785-0.01-5.679-0.02c-1.886-0.009-3.774-0.019-5.662-0.019c-5.16,0-11.259,0.066-17.369,0.557
				C36.725,89.509,36.667,89.511,36.61,89.511z M38.544,41.423c0.001,15.46,0.024,29.578,0.195,43.61
				c5.469-0.352,10.811-0.404,15.413-0.404c1.895,0,3.79,0.01,5.683,0.02c1.886,0.009,3.771,0.019,5.658,0.019
				c2.875,0,6.521-0.02,10.315-0.157c-0.344-9.216-0.659-18.928-0.659-28.507c0-4.609,0.07-8.911,0.214-13.076
				c-1.884,0.09-3.829,0.134-5.887,0.134c-6.654,0-13.38-0.477-19.884-0.938C45.966,41.867,42.237,41.602,38.544,41.423z"/>
		</g>
		<g>
			<path style="fill:#525D7D;" d="M56.975,70.528c-0.141,0-0.283-0.003-0.425-0.009c-5.257-0.211-9.189-3.675-9.782-8.619
				c-0.399-3.32,0.635-6.774,2.766-9.236c1.905-2.201,4.518-3.451,7.358-3.52c0.193-0.005,0.382-0.005,0.573,0.003
				c4.156,0.132,7.773,2.255,9.437,5.54c0.552,1.091,0.9,2.348,1.028,3.738c0.28,3.02-0.923,6.266-3.219,8.684
				C62.611,69.323,59.877,70.528,56.975,70.528z M57.133,53.459c-0.046,0-0.093,0.001-0.138,0.001
				c-2.059,0.05-3.419,1.131-4.196,2.028c-1.348,1.559-2,3.763-1.745,5.896c0.342,2.846,2.513,4.693,5.669,4.819
				c1.794,0.092,3.523-0.662,4.856-2.068c1.409-1.482,2.213-3.567,2.052-5.313c-0.079-0.833-0.278-1.588-0.58-2.184
				c-0.952-1.878-3.144-3.095-5.724-3.178C57.263,53.46,57.198,53.459,57.133,53.459z"/>
		</g>
		<g>
			<path style="fill:#525D7D;" d="M43.412,88.314c-1.143,0-2.097-0.897-2.155-2.05c-0.021-0.427-0.032-0.855-0.032-1.283
				c0-8.013,3.532-15.082,9.449-18.909c1-0.648,2.338-0.362,2.986,0.64c0.647,1.002,0.361,2.338-0.641,2.986
				c-4.61,2.983-7.475,8.84-7.475,15.284c0,0.356,0.008,0.711,0.027,1.065c0.06,1.191-0.857,2.206-2.048,2.265
				C43.485,88.313,43.448,88.314,43.412,88.314z"/>
		</g>
		<g>
			<path style="fill:#525D7D;" d="M66.602,86.908c-1.192,0-2.159-0.966-2.159-2.159c0-5.258-1.822-10.364-5.571-15.61
				c-0.693-0.971-0.468-2.319,0.502-3.012c0.971-0.692,2.318-0.468,3.012,0.502c4.23,5.921,6.375,12.018,6.375,18.121
				C68.761,85.942,67.794,86.908,66.602,86.908z"/>
		</g>
		<g>
			<path style="fill:#525D7D;" d="M98.23,85.512c-2.315,0-5.355-0.11-7.831-2.581c-2.835-2.827-4.155-7.978-4.155-16.208
				c0-11.112,5.572-17.566,14.889-17.159c1.19,0.053,2.114,1.063,2.059,2.254c-0.055,1.191-1.002,2.098-2.253,2.06
				c-8.532-0.386-10.376,6.814-10.376,12.845c0,6.816,0.971,11.241,2.886,13.152c1.241,1.238,2.744,1.318,5.112,1.318l0.339-0.001
				c0.661,0,1.323-0.014,1.969-0.028c0.644-0.013,1.272-0.027,1.869-0.027c1.192,0,2.159,0.966,2.159,2.159
				c0,1.193-0.967,2.159-2.159,2.159c-0.568,0-1.165,0.013-1.778,0.026c-0.676,0.014-1.369,0.029-2.061,0.029l-0.329,0.001
				C98.459,85.512,98.345,85.512,98.23,85.512z"/>
		</g>
		<g>
			<path style="fill:#525D7D;" d="M117.033,82.138c-0.998-0.012-1.843-0.671-2.089-1.612c-1.58-6.03-3.659-12.099-5.67-17.968
				c-1.221-3.568-2.485-7.258-3.622-10.896c-0.356-1.138,0.278-2.349,1.417-2.704c1.141-0.356,2.35,0.28,2.704,1.417
				c1.119,3.581,2.374,7.243,3.587,10.784c1.22,3.565,2.467,7.202,3.618,10.877c1.486-5.632,2.859-11.314,4.201-16.863l1.08-4.454
				c0.28-1.158,1.448-1.865,2.607-1.588c1.158,0.282,1.869,1.45,1.587,2.608l-1.077,4.448c-1.94,8.021-3.944,16.313-6.269,24.388
				C118.841,81.501,117.995,82.138,117.033,82.138z"/>
		</g>
		<g>
			<path style="fill:#525D7D;" d="M58.65,104.513c-1.879,0-3.074-0.779-4.034-1.404c-0.817-0.532-1.356-0.883-2.409-0.883
				c-1.213,0-2.578,0.377-4.022,0.775c-1.625,0.448-3.305,0.912-5.038,0.912c-2.321,0-4.303-0.871-5.89-2.59
				c-0.808-0.876-0.753-2.242,0.122-3.051c0.874-0.807,2.242-0.755,3.052,0.122c0.776,0.842,1.588,1.201,2.716,1.201
				c1.148,0,2.48-0.367,3.889-0.756c1.657-0.457,3.372-0.93,5.17-0.93c2.335,0,3.739,0.915,4.765,1.583
				c0.751,0.488,1.106,0.704,1.678,0.704c0.834,0,1.823-0.55,2.87-1.132c1.311-0.729,2.799-1.556,4.525-1.556
				c2.184,0,3.687,0.908,4.893,1.638c1.091,0.66,1.756,1.033,2.733,1.033c1.247,0,2.689-0.737,4.085-1.448
				c1.635-0.834,3.326-1.697,5.173-1.697c1.59,0,2.641,0.664,3.486,1.198c0.849,0.536,1.521,0.96,3.059,0.96
				c1.341,0,2.728-0.417,4.197-0.857c1.564-0.47,3.181-0.954,4.871-0.954c0.732,0,1.449,0.179,2.28,0.386
				c0.991,0.248,2.115,0.529,3.425,0.529c0.961,0,1.92-0.104,2.935-0.214c1.074-0.117,2.184-0.238,3.359-0.238
				c2.061,0,3.419,0.394,4.509,0.71c0.791,0.23,1.364,0.396,2.096,0.396c0.297,0,0.559-0.039,0.804-0.121
				c1.133-0.379,2.354,0.234,2.731,1.366c0.377,1.131-0.233,2.354-1.365,2.73c-0.683,0.228-1.413,0.343-2.17,0.343
				c-1.347,0-2.384-0.301-3.299-0.566c-0.956-0.277-1.858-0.539-3.306-0.539c-0.94,0-1.889,0.103-2.893,0.212
				c-1.085,0.118-2.205,0.24-3.402,0.24c-1.841,0-3.362-0.38-4.473-0.658c-0.46-0.115-1.032-0.258-1.233-0.258
				c-1.056,0-2.305,0.375-3.629,0.772c-1.623,0.487-3.464,1.04-5.438,1.04c-2.787,0-4.338-0.979-5.364-1.627
				c-0.67-0.423-0.874-0.531-1.181-0.531c-0.81,0-2.03,0.623-3.21,1.225c-1.764,0.9-3.763,1.92-6.047,1.92
				c-2.229,0-3.748-0.919-4.968-1.657c-1.071-0.648-1.723-1.015-2.658-1.015c-0.606,0-1.532,0.515-2.426,1.012
				C62.205,103.623,60.604,104.513,58.65,104.513z"/>
		</g>
		<g>
			<path style="fill:#525D7D;" d="M53.58,116.8c-1.542,0-2.898-0.577-4.096-1.086c-0.919-0.391-1.787-0.76-2.492-0.76
				c-0.819,0-1.781,0.328-2.859,0.976c-1.022,0.61-2.349,0.284-2.963-0.74c-0.614-1.022-0.283-2.348,0.739-2.962
				c1.76-1.056,3.47-1.592,5.083-1.592c1.586,0,2.965,0.586,4.182,1.104c0.897,0.381,1.744,0.741,2.406,0.741
				c0.326-0.027,1.337-0.539,2.006-0.878c1.742-0.883,3.909-1.983,6.379-1.983c1.919,0,3.594,0.745,4.845,2.155
				c0.793,0.892,0.711,2.256-0.18,3.048c-0.894,0.791-2.259,0.708-3.047-0.181c-0.439-0.493-0.922-0.704-1.618-0.704
				c-1.438,0-3.025,0.805-4.425,1.516C56.116,116.177,54.887,116.8,53.58,116.8z"/>
		</g>
		<g>
			<path style="fill:#525D7D;" d="M75.737,115.368c-1.192,0-2.159-0.966-2.159-2.159c0-1.485,0.749-3.255,4.318-3.255
				c1.459,0,2.817,0.181,4.13,0.356c1.151,0.153,2.239,0.298,3.265,0.298c0.894,0,1.881-0.211,3.129-0.478
				c1.96-0.42,4.397-0.941,7.851-0.941c0.902,0,1.825,0.042,2.741,0.126c1.188,0.108,2.062,1.158,1.955,2.345
				c-0.108,1.188-1.188,2.062-2.346,1.955c-0.787-0.071-1.577-0.108-2.35-0.108c-2.997,0-5.095,0.449-6.947,0.845
				c-1.379,0.294-2.682,0.573-4.033,0.573c-1.311,0-2.595-0.171-3.836-0.336c-1.227-0.163-2.385-0.318-3.559-0.318
				c-0.069,0-0.171,0-0.281,0.001C77.244,114.928,76.542,115.368,75.737,115.368z"/>
		</g>
		<g>
			<path style="fill:#525D7D;" d="M41.303,129.424c-0.343,0-0.692-0.082-1.015-0.254c-1.051-0.561-1.449-1.869-0.888-2.921
				c1.373-2.577,3.669-3.884,6.82-3.884c1.517,0,3.059,0.283,4.549,0.557c1.333,0.245,2.592,0.476,3.667,0.476
				c0.897,0,1.493-0.176,2.319-0.42c1.209-0.357,2.714-0.802,5.405-0.802c1.497,0,2.921,0.129,4.297,0.254
				c2.56,0.231,4.999,0.356,7.072-0.089c1.158-0.244,2.314,0.493,2.564,1.659c0.25,1.166-0.492,2.314-1.659,2.564
				c-1.306,0.28-2.666,0.416-4.158,0.416c-1.452,0-2.854-0.127-4.209-0.249c-1.339-0.122-2.605-0.236-3.908-0.236
				c-2.066,0-3.094,0.304-4.182,0.625c-0.994,0.294-2.021,0.597-3.542,0.597c-1.469,0-2.983-0.278-4.448-0.547
				c-1.361-0.25-2.645-0.486-3.768-0.486c-1.574,0-2.39,0.433-3.011,1.597C42.821,129.008,42.075,129.424,41.303,129.424z"/>
		</g>
		<g>
			<path style="fill:#525D7D;" d="M44.114,148.748c-1.192,0-2.159-0.966-2.159-2.159c0-0.643,0.243-3.851,5.043-3.851
				c1.081,0,2.072,0.197,2.948,0.37c0.692,0.137,1.347,0.267,1.899,0.267c1.192,0,2.159,0.966,2.159,2.159
				c0,1.193-0.967,2.159-2.159,2.159c-0.977,0-1.874-0.178-2.74-0.35c-0.746-0.148-1.451-0.287-2.107-0.287
				c-0.367,0-0.621,0.028-0.79,0.058C45.974,148.053,45.125,148.748,44.114,148.748z"/>
		</g>
		<g>
			<path style="fill:#525D7D;" d="M43.762,138.558c-0.464,0-0.931-0.148-1.324-0.455c-0.942-0.732-1.11-2.089-0.378-3.03
				c1.542-1.983,3.909-2.988,7.034-2.988c2.034,0,4.116,0.417,5.79,0.752l0.195,0.039c1.169,0.233,1.927,1.37,1.694,2.54
				c-0.233,1.171-1.366,1.933-2.54,1.694l-0.198-0.039c-1.563-0.313-3.336-0.668-4.941-0.668c-2.329,0-3.185,0.754-3.627,1.321
				C45.042,138.272,44.405,138.558,43.762,138.558z"/>
		</g>
		<g>
			<path style="fill:#525D7D;" d="M63.935,188.692c-3.25,0-12.646-4.236-12.646-12.322c0-8.075,32.234-56.818,61.277-63.954
				c0.734-0.179,1.498,0.033,2.033,0.56c0.534,0.528,0.756,1.295,0.586,2.025C107.566,147.744,73.314,188.692,63.935,188.692z
				 M110.022,117.702c-26.37,9.585-54.415,52.403-54.415,58.668c0,5.218,6.973,8.004,8.328,8.004
				C68.816,184.374,100.753,150.031,110.022,117.702z"/>
		</g>
		<g>
			<path style="fill:#525D7D;" d="M108.061,128.018c-0.488,0-0.977-0.164-1.382-0.501c-0.741-0.618-1.482-1.19-2.207-1.751
				c-1.323-1.023-2.69-2.08-3.909-3.3c-0.843-0.843-0.843-2.21,0-3.053c0.843-0.843,2.21-0.843,3.053,0
				c1.025,1.025,2.227,1.953,3.497,2.937c0.766,0.592,1.549,1.198,2.332,1.851c0.915,0.763,1.039,2.125,0.275,3.04
				C109.294,127.753,108.679,128.018,108.061,128.018z"/>
		</g>
		<g>
			<path style="fill:#525D7D;" d="M112.278,117.125c-0.412,0-0.828-0.117-1.196-0.363c-0.992-0.661-1.261-2.002-0.599-2.994
				c1.578-2.367,3.843-4.254,6.032-6.079c0.916-0.765,2.28-0.643,3.043,0.274c0.763,0.916,0.642,2.276-0.274,3.039
				c-2.047,1.707-3.977,3.314-5.208,5.161C113.66,116.788,112.975,117.125,112.278,117.125z"/>
		</g>
		<g>
			<path style="fill:#525D7D;" d="M51.446,177.268c-3.825,0-6.109-3.189-6.109-8.531c0-8.168,6.488-11.738,12.212-14.889
				c3.424-1.884,6.016-3.422,7.495-5.279c-0.897,0.349-1.823,0.533-2.716,0.533c-3.347,0-5.419-2.676-5.419-5.154
				c0-3.737,4.312-6.031,7.404-6.031c5.783,0,6.452,3.821,6.452,6.694c0,6.893-5.915,10.147-11.134,13.019
				c-5.353,2.946-9.976,5.49-9.976,11.106c0,1.267,0.174,4.213,1.791,4.213c0.134,0,0.273-0.012,0.422-0.034
				c1.168-0.185,2.281,0.626,2.463,1.805c0.181,1.178-0.625,2.281-1.805,2.463C52.146,177.242,51.788,177.268,51.446,177.268z
				 M64.313,142.235c-1.5,0-3.085,1.114-3.085,1.713c0,0.262,0.277,0.836,1.101,0.836c0.614,0,1.369-0.259,2.02-0.694
				c0.642-0.429,1.434-0.468,2.089-0.171C66.385,142.374,66.056,142.235,64.313,142.235z"/>
		</g>
		<g>
			<path style="fill:#525D7D;" d="M52.01,194.842c-2.578,0-6.322-2.276-6.322-5.842c0-2.24,1.317-4.428,2.479-6.358
				c0.541-0.899,1.053-1.748,1.323-2.423c0.443-1.106,1.704-1.643,2.807-1.202c1.106,0.443,1.644,1.699,1.202,2.806
				c-0.399,0.999-0.998,1.993-1.632,3.046c-0.829,1.376-1.861,3.09-1.861,4.13c0,0.783,1.459,1.524,2.004,1.524
				c0.925,0,1.653-0.997,2.742-2.64c0.807-1.217,1.642-2.474,2.865-3.348c0.971-0.691,2.319-0.469,3.012,0.502
				c0.693,0.97,0.468,2.319-0.502,3.012c-0.576,0.411-1.186,1.331-1.777,2.222C57.07,192.2,55.319,194.842,52.01,194.842z"/>
		</g>
		<g>
			<path style="fill:#525D7D;" d="M26.257,138.688c-0.6,0-1.198-0.248-1.623-0.735l-4.301-4.908
				c-6.386-7.297-12.988-14.841-19.752-22.088c-0.73-0.782-0.777-1.981-0.11-2.818c4.883-6.131,10.326-11.88,15.589-17.44
				c2.021-2.135,4.038-4.266,6.02-6.413c0.811-0.877,2.179-0.93,3.052-0.122c0.876,0.809,0.931,2.175,0.122,3.051
				c-1.995,2.16-4.024,4.304-6.058,6.453c-4.781,5.05-9.712,10.258-14.182,15.717c6.363,6.871,12.562,13.953,18.568,20.816
				l4.296,4.904c0.787,0.896,0.699,2.26-0.198,3.047C27.271,138.512,26.762,138.688,26.257,138.688z"/>
		</g>
		<g>
			<path style="fill:#525D7D;" d="M90.572,191.377c-0.55,0-1.08-0.21-1.48-0.588c-1.214-1.144-2.415-2.309-3.614-3.474
				c-2.984-2.899-6.071-5.897-9.322-8.464c-0.936-0.739-1.095-2.096-0.357-3.033c0.741-0.934,2.097-1.095,3.033-0.356
				c3.426,2.704,6.592,5.781,9.655,8.756c0.641,0.623,1.282,1.245,1.924,1.865c1.051-1.292,2.049-2.647,3.087-4.055
				c2.503-3.397,5.092-6.911,8.659-9.727c0.937-0.739,2.293-0.578,3.033,0.356c0.738,0.936,0.579,2.294-0.357,3.033
				c-3.111,2.456-5.417,5.586-7.859,8.9c-1.496,2.031-3.043,4.131-4.8,6.076c-0.389,0.431-0.935,0.687-1.515,0.711
				C90.63,191.377,90.602,191.377,90.572,191.377z"/>
		</g>
		<g>
			<path style="fill:#525D7D;" d="M84.417,23.547c-0.538,0-1.077-0.2-1.496-0.602c-0.86-0.825-0.888-2.192-0.062-3.052
				c5.786-6.03,12.344-12.863,19.126-19.299c0.848-0.805,2.189-0.789,3.014,0.041c7.323,7.339,13.733,13.805,19.051,19.216
				c0.835,0.85,0.824,2.217-0.028,3.053c-0.85,0.836-2.217,0.824-3.053-0.027c-4.945-5.033-10.837-10.98-17.534-17.696
				c-6.169,5.937-12.143,12.161-17.461,17.702C85.551,23.324,84.983,23.547,84.417,23.547z"/>
		</g>
		<g>
			<path style="fill:#525D7D;" d="M140.326,131.491c-0.499,0-1.001-0.172-1.409-0.524c-0.904-0.779-1.004-2.141-0.225-3.045
				c11.968-13.878,24.857-27.223,37.322-40.129l4.09-4.239c-27.503-26.739-30.786-30.435-35.712-35.978
				c-1.875-2.11-3.999-4.502-7.853-8.595c-0.818-0.868-0.777-2.234,0.091-3.052c0.867-0.817,2.235-0.778,3.052,0.091
				c3.898,4.139,6.044,6.555,7.939,8.687c4.952,5.574,8.223,9.257,37.034,37.249c0.853,0.828,0.876,2.19,0.051,3.046l-5.586,5.789
				c-12.424,12.863-25.271,26.164-37.159,39.949C141.535,131.237,140.933,131.491,140.326,131.491z"/>
		</g>
	</g>
</g>
<g id="Layer_1">
</g>
</svg>
