<?xml version="1.0" encoding="iso-8859-1"?>
<!-- Generator: Adobe Illustrator 21.0.2, SVG Export Plug-In . SVG Version: 6.00 Build 0)  -->
<svg version="1.1" xmlns="http://www.w3.org/2000/svg" xmlns:xlink="http://www.w3.org/1999/xlink" x="0px" y="0px"
	 viewBox="0 0 181.888 191.57" style="enable-background:new 0 0 181.888 191.57;" xml:space="preserve">
<g id="_x34_1">
	<g>
		<g>
			<path style="fill:#E0DFE6;" d="M177.771,88.19c-0.469-1.208-2.449-1.158-2.41,0.326c0.547,20.442-1.488,40.15-12.672,57.847
				c-8.396,13.284-20.301,22.574-34.142,28.817c0.772-2.437,1.494-4.885,2.172-7.345c6.568-2.547,13.504-9.763,17.648-13.986
				c6.506-6.629,12.102-14.417,16.188-22.764c7.82-15.975,12.634-37.541,6.366-54.84c-0.571-1.575-2.908-1.366-2.971,0.402
				c-0.223,6.289-0.497,12.363-1.131,18.311c-0.699-0.114-1.496,0.369-1.581,1.261c-1.047,10.915-6.727,21.316-14.35,30.132
				c-1.15-1.387-3.185-2.061-5.063-1.017c-2.791,1.552-5.57,2.605-8.549,3.347c0.394-6.814,0.188-13.682-1.374-20.002
				c-0.387-1.567-2.915-1.649-3.253,0c-2.358,11.502-2.216,23.555-4.307,35.172c-0.089,0.496-0.193,0.989-0.287,1.484
				c-0.049,0.038-0.094,0.079-0.143,0.117c-1.604,1.25-1.613,3.053-0.794,4.504c-0.815,3.767-1.734,7.507-2.757,11.22
				c-0.446,0.314-0.818,0.7-1.023,1.155l-0.183,0.406c-0.485,1.074-0.521,2.296-0.19,3.365c-0.778,2.578-1.6,5.144-2.474,7.695
				c-1.112,0.62-1.924,1.72-1.859,3.246l0.084,1.968c-0.247,0.082-0.489,0.173-0.736,0.253c-1.036,0.338-1.741,0.946-2.187,1.67
				c-0.591-0.663-1.439-1.134-2.557-1.207c-1.737-0.114-3.478-0.186-5.218-0.247c-0.42-1.242-1.571-2.167-3.129-1.578
				c-1.566,0.592-3.13,1.018-4.695,1.299c-0.733-0.032-1.465-0.07-2.198-0.111c2.784-1.952,5.285-4.07,7.367-6.339
				c0.348-0.379,0.582-0.779,0.758-1.184c0.363,0.435,0.724,0.873,1.088,1.302c0.195,0.23,0.415,0.496,0.644,0.773
				c0.085,0.418,0.231,0.817,0.491,1.154c0.57,0.739,1.215,1.237,1.904,1.545c2.322,2.33,5.199,4.126,7.695,1.187
				c1.736-2.043,0.639-5.322-1.393-6.255c3.766-11.061,6.952-22.39,9.688-33.735c2.41-9.99,6.288-21.925,4.711-32.242
				c-0.148-0.969-1.507-0.956-1.952-0.255c-5.75,9.053-7.425,21.729-10.356,31.975c-2.735,9.557-5.721,19.018-8.694,28.494
				c-0.374-0.396-0.763-0.779-1.134-1.179c-2.484-2.675-4.847-5.492-7.503-7.996c-1.358-1.28-3.009-0.569-3.571,0.741
				c-1.113-0.202-2.318,0.073-3.361,1.119c-11.647,11.683-28.074,17.556-44.47,14.345c-17.238-3.375-26.417-15.54-39.394-25.836
				c-1.655-1.313-4.171,0.294-3.048,2.352c18.821,34.491,64.386,42.946,92.663,14.89c0.064-0.064,0.104-0.132,0.163-0.197
				c0.466,0.742,0.959,1.469,1.464,2.189c-0.7,0.135-1.398,0.499-2.029,1.176c-9.593,10.295-24.884,15.44-38.683,16.62
				c-14.837,1.268-26.774-3.795-37.912-13.29c-1.245-1.062-2.979,0.245-2.251,1.737c11.611,23.768,45.711,23.12,68.837,11.776
				c7.526,2.309,16.602,2.943,23.521,3.144c1.407,0.041,2.382-0.564,2.952-1.434c0.839,1.013,2.177,1.613,3.887,1.197
				C160.626,177.013,193.794,129.451,177.771,88.19z M145.654,144.787c-2.951,3.329-7.509,8.58-12.291,12.205
				c0.443-2.077,0.848-4.164,1.22-6.258c6.967-4.347,13.27-9.658,18.574-15.889C150.9,138.334,148.414,141.673,145.654,144.787z"/>
		</g>
		<g>
			<path style="fill:#E0DFE6;" d="M66.672,123.528c-18.966-0.604-35.254-7.161-43.552-24.296c-0.602-1.969-1.14-3.973-1.618-6.005
				c-0.376-1.599-2.664-1.151-2.753,0.373c-0.425,7.297,0.972,14.318,3.69,20.805c-0.284,0.354-0.504,0.76-0.609,1.225
				c-2.649,11.656,4.818,19.77,13.312,26.619c1.896,1.529,4.212,0.904,5.508-0.485c0.705,1.463,2.219,2.581,4.24,2.208
				c5.327-0.983,10.247-2.691,14.864-5.147c1.565,0.018,2.949-0.933,3.688-2.174c1.177-0.759,2.341-1.552,3.48-2.421
				c1.31-0.999,1.871-2.459,1.686-3.797C71.34,128.733,70.702,123.656,66.672,123.528z"/>
		</g>
		<g>
			<path style="fill:#E0DFE6;" d="M95.615,57.398c-1.865-4.533-9.317-2.662-7.505,2.069c4.144,10.822-4.986,10.129-11.441,14.207
				c-1.826,1.153-3.105,2.617-4.025,4.588c-0.396,0.849-0.462,2.01-0.949,2.771c-3.319,5.19-6.307,3.244-9.983,1.655
				c-2.059-0.89-4.851,1.783-2.679,3.471c3.502,2.722,7.527,5.327,12.185,4.554c6.758-1.122,5.589-8.028,10.58-10.994
				c4.403-2.617,8.911-2.484,12.521-6.816C98.089,68.374,97.747,62.581,95.615,57.398z"/>
		</g>
		<g>
			<path style="fill:#E0DFE6;" d="M87.382,50.798c-0.875-5.917-4.061-12.16-6.615-17.536c-0.423-0.89-1.402-1.025-2.196-0.707
				c-0.346-0.862-0.707-1.718-1.096-2.559c-0.874-1.89-4.216-0.519-3.402,1.434c2.119,5.082,2.462,10.117,2.077,15.558
				c-0.205,2.901,3.794,3.28,4.904,1.09c0.201,1.429,0.415,2.855,0.75,4.257C82.688,56.043,87.911,54.381,87.382,50.798z"/>
		</g>
		<g>
			<path style="fill:#E0DFE6;" d="M63.286,13.414c-0.899,2.466-1.705,4.714-3.522,6.693c-1.212,1.32-3.321,3.564-5.148,2.219
				c-1.987-1.462-3.868,1.267-3.046,3.046c1.798,3.888,7.11,2.968,10.006,1.011c3.711-2.508,7.105-6.773,7.991-11.237
				C70.388,11.013,64.722,9.475,63.286,13.414z"/>
		</g>
		<g>
			<path style="fill:#E0DFE6;" d="M60.703,32.377c-0.844,0.684-1.21,2.219-0.852,3.225c2.586,7.281,3.099,14.594-3.945,19.329
				c-1.685,1.133-0.659,3.808,1.397,3.315c8.139-1.951,10.274-10.201,9.899-17.777c1.355,0.472,2.994,0.17,3.633-1.271
				C73.824,32.45,65.912,28.157,60.703,32.377z"/>
		</g>
		<g>
			<path style="fill:#E0DFE6;" d="M72.715,74.801c-0.103-0.982-0.624-1.784-1.322-2.339c-0.702-2.239-0.648-5.775-0.944-7.613
				c-0.545-3.393-1.227-6.761-1.884-10.134c-0.459-2.358-4.202-1.795-4.155,0.562c0.091,4.518,0.223,9.021,0.47,13.534
				c0.156,2.854-0.436,6.694,1.747,8.892c1.157,1.165,2.675,1.12,4.068,0.525l0.44-0.188c0.946-0.404,1.729-1.819,1.623-2.829
				C72.744,75.074,72.729,74.938,72.715,74.801z"/>
		</g>
		<g>
			<path style="fill:#525D7D;" d="M30.158,143.974c-0.687,0-1.365-0.327-1.782-0.939c-9.401-13.723-14.219-29.475-13.937-45.552
				c0.389-22.211,10.679-43.5,28.228-58.408c0.907-0.77,2.272-0.659,3.043,0.249c0.772,0.908,0.661,2.27-0.249,3.043
				C28.858,56.471,19.125,76.588,18.757,97.559c-0.268,15.177,4.29,30.058,13.181,43.036c0.675,0.984,0.423,2.328-0.561,3.001
				C31.004,143.852,30.578,143.974,30.158,143.974z"/>
		</g>
		<g>
			<path style="fill:#525D7D;" d="M97.336,181.045c-5.53,0-11.19-0.675-16.855-2.01c-1.16-0.274-1.879-1.436-1.605-2.598
				c0.273-1.16,1.425-1.882,2.598-1.605c5.911,1.396,11.814,2.021,17.532,1.874c3.868-0.104,7.835-0.575,11.791-1.401
				c1.169-0.237,2.311,0.506,2.555,1.673c0.243,1.167-0.506,2.311-1.673,2.555c-4.207,0.879-8.432,1.379-12.558,1.489
				C98.528,181.038,97.932,181.045,97.336,181.045z"/>
		</g>
		<g>
			<path style="fill:#525D7D;" d="M119.911,177.212c-0.901,0-1.742-0.568-2.045-1.469c-0.382-1.13,0.225-2.355,1.355-2.735
				c27.999-9.444,55.441-37.736,53.636-79.652c-0.815-18.955-8.392-36.372-21.333-49.041c-13.101-12.824-31.194-20.224-50.95-20.837
				c-3.597-0.113-7.2-0.011-10.694,0.298c-7.073,0.624-14.037,2.198-20.697,4.679c-1.119,0.415-2.36-0.152-2.776-1.269
				c-0.416-1.117,0.152-2.36,1.269-2.776c7.023-2.616,14.364-4.277,21.824-4.935c3.663-0.323,7.434-0.429,11.207-0.312
				c42.519,1.318,74.677,32.443,76.465,74.008c1.9,44.154-27.043,73.969-56.571,83.928
				C120.372,177.175,120.14,177.212,119.911,177.212z"/>
		</g>
		<g>
			<path style="fill:#525D7D;" d="M56.711,30.246c-0.136,0-0.271-0.003-0.408-0.007c-3.68-0.114-7.149-1.73-9.768-4.553
				c-2.889-3.114-4.372-7.277-4.177-11.723c0.327-7.437,5.821-13.424,12.777-13.927c0.634-0.046,1.285-0.048,1.93-0.004
				c5.454,0.357,10.163,3.022,12.6,7.128c1.245,2.099,1.955,4.495,2.054,6.931c0.173,4.267-1.497,8.501-4.582,11.615
				C64.264,28.605,60.485,30.246,56.711,30.246z M56.122,4.317c-0.225,0-0.45,0.008-0.672,0.025
				c-4.775,0.344-8.548,4.561-8.777,9.809c-0.145,3.285,0.931,6.338,3.028,8.597c1.827,1.969,4.22,3.097,6.737,3.175
				c2.723,0.077,5.496-1.102,7.631-3.257c2.245-2.265,3.459-5.327,3.334-8.401c-0.069-1.722-0.571-3.417-1.452-4.901
				c-1.685-2.839-5.199-4.764-9.172-5.022C56.555,4.326,56.338,4.317,56.122,4.317z"/>
		</g>
		<g>
			<path style="fill:#525D7D;" d="M43.804,18.303c-0.939,0-1.803-0.617-2.075-1.566c-0.328-1.147,0.336-2.342,1.483-2.669
				c7.541-2.155,13.483-6.966,17.14-10.624c0.843-0.843,2.21-0.843,3.053,0c0.843,0.843,0.843,2.21,0,3.053
				c-4.017,4.019-10.577,9.314-19.007,11.723C44.2,18.277,44.001,18.303,43.804,18.303z"/>
		</g>
		<g>
			<path style="fill:#525D7D;" d="M65.603,85.175c-10.409,0-14.215-15.875-15.841-22.655c-0.06-0.253-0.122-0.515-0.184-0.765
				c-0.024,0-0.049,0-0.073,0c-7.25,0-7.617-16.619-7.617-19.95c0-8.716,3.302-14.173,9.816-16.22
				c1.139-0.358,2.349,0.274,2.706,1.411c0.358,1.139-0.274,2.35-1.413,2.707c-4.633,1.456-6.791,5.302-6.791,12.101
				c0,8.325,2.056,15.632,3.299,15.632c0.204,0,0.409-0.031,0.606-0.055c0.351-0.044,0.687-0.079,0.991-0.079
				c1.851,0,2.189,1.407,2.86,4.209c1.268,5.291,4.637,19.344,11.641,19.344c2.471,0,3.788-5.299,3.788-9.125
				c0-3.337-0.678-6.858-1.394-10.587c-0.737-3.833-1.498-7.797-1.498-11.684c0-3.262,0-4.901,1.99-5.226
				c1.92-0.319,2.525,1.484,2.924,2.673c1.396,4.151,2.366,5.022,2.935,5.022c0.287-0.146,1.022-1.532,1.022-4.679
				c0-13.979-7.658-19.898-10.704-19.898c-1.192,0-2.159-0.967-2.159-2.159c0-1.192,0.967-2.159,2.159-2.159
				c6.14,0,15.022,8.624,15.022,24.216c0,8.12-3.735,8.997-5.34,8.997c-1.186,0-2.184-0.401-3.026-1.034
				c0.261,1.704,0.592,3.423,0.916,5.115c0.724,3.763,1.472,7.654,1.472,11.403C73.709,78.206,71.172,85.175,65.603,85.175z"/>
		</g>
		<g>
			<path style="fill:#525D7D;" d="M72.063,72.525c-1.08,0-2.013-0.808-2.142-1.907c-0.138-1.185,0.71-2.258,1.893-2.397
				c3.078-0.36,12.555-2.63,14.793-4.128c-0.271-1.884-0.775-3.788-1.303-5.794c-0.388-1.47-0.784-2.973-1.089-4.515
				c-0.384,0.103-0.767,0.204-1.15,0.305c-3.229,0.856-6.28,1.664-9.211,2.837c-1.103,0.445-2.363-0.094-2.806-1.203
				c-0.443-1.106,0.096-2.363,1.203-2.806c3.174-1.269,6.495-2.151,9.707-3.001c1.136-0.302,2.279-0.604,3.423-0.926
				c0.611-0.17,1.262-0.066,1.788,0.287c0.526,0.351,0.869,0.916,0.942,1.545c0.243,2.113,0.79,4.183,1.368,6.376
				c0.592,2.245,1.205,4.564,1.49,7.003c0.017,0.135,0.027,0.278,0.027,0.426c0,5.361-18.491,7.863-18.678,7.886
				C72.232,72.52,72.147,72.525,72.063,72.525z"/>
		</g>
		<g>
			<path style="fill:#525D7D;" d="M66.81,84.027c-0.81,0-1.587-0.458-1.955-1.24c-2.204-4.684-5.135-11.747-5.135-18.993
				c0-1.192,0.967-2.159,2.159-2.159c1.192,0,2.159,0.967,2.159,2.159c0,6.38,2.696,12.846,4.724,17.154
				c0.508,1.078,0.045,2.364-1.034,2.873C67.431,83.961,67.118,84.027,66.81,84.027z"/>
		</g>
		<g>
			<path style="fill:#525D7D;" d="M52.347,62.338c-0.939,0-1.803-0.617-2.075-1.566c-0.971-3.402-1.105-6.882-1.105-10.136
				c0-0.822,0.01-1.646,0.018-2.473c0.01-0.814,0.018-1.629,0.018-2.444c0-1.192,0.967-2.159,2.159-2.159
				c1.192,0,2.159,0.967,2.159,2.159c0,0.831-0.01,1.663-0.018,2.492c-0.01,0.81-0.018,1.619-0.018,2.425
				c0,2.941,0.114,6.06,0.939,8.95c0.327,1.147-0.337,2.342-1.483,2.669C52.744,62.311,52.544,62.338,52.347,62.338z"/>
		</g>
		<g>
			<path style="fill:#525D7D;" d="M68.12,51.164c-1.095,0-2.034-0.831-2.145-1.944c-0.153-1.528-0.461-2.988-0.787-4.536
				c-0.335-1.59-0.68-3.236-0.856-4.994c-0.119-1.186,0.746-2.245,1.933-2.363c1.183-0.143,2.245,0.746,2.363,1.933
				c0.153,1.528,0.461,2.988,0.787,4.536c0.335,1.59,0.68,3.236,0.856,4.994c0.119,1.186-0.746,2.245-1.933,2.363
				C68.265,51.162,68.192,51.164,68.12,51.164z"/>
		</g>
		<g>
			<path style="fill:#525D7D;" d="M52.675,58.395c-1.047,0-1.966-0.763-2.131-1.83c-0.181-1.179,0.627-2.281,1.805-2.463
				c2.056-0.316,4.189-0.81,6.251-1.285c2.138-0.493,4.349-1.004,6.564-1.345c1.169-0.177,2.281,0.627,2.463,1.805
				c0.181,1.179-0.627,2.281-1.805,2.463c-2.057,0.316-4.189,0.81-6.251,1.285c-2.138,0.493-4.349,1.004-6.564,1.345
				C52.896,58.387,52.785,58.395,52.675,58.395z"/>
		</g>
		<g>
			<path style="fill:#525D7D;" d="M117.815,186.027c-0.557,0-1.101-0.215-1.51-0.616l-0.991-0.97
				c-5.226-5.112-10.614-10.385-15.746-15.731c-10.066,7.904-26.793,15.884-45.467,15.884c-19.354,0-37.427-11.873-53.715-35.288
				c-0.68-0.978-0.44-2.325,0.54-3.005c0.978-0.682,2.324-0.439,3.005,0.54c15.434,22.187,32.313,33.436,50.17,33.436
				c18.522,0,35.007-8.342,44.259-16.149c0.873-0.738,2.169-0.666,2.96,0.164c4.93,5.199,10.166,10.36,15.291,15.378
				c5.611-23.482,9.946-48.454,12.902-74.324c-22.642,3.965-45.233,5.899-66.501,7.318c0.87,1.248,1.746,2.494,2.622,3.738
				c3.369,4.786,6.852,9.734,9.915,14.919c0.534,0.902,0.342,2.059-0.457,2.74c-9.166,7.824-20.855,12.495-31.271,12.495
				c-17.968,0-34.049-12.11-39.105-29.447c-0.333-1.144,0.325-2.343,1.469-2.678c1.144-0.325,2.343,0.323,2.678,1.469
				c4.52,15.507,18.897,26.337,34.958,26.337c8.899,0,18.892-3.825,27.058-10.302c-2.744-4.477-5.805-8.827-8.777-13.049
				c-1.618-2.297-3.234-4.594-4.809-6.918c-0.434-0.641-0.492-1.465-0.15-2.16c0.34-0.694,1.026-1.154,1.799-1.205
				c23.119-1.491,47.921-3.496,72.65-8.016c0.668-0.127,1.359,0.079,1.86,0.544c0.499,0.465,0.749,1.139,0.675,1.816
				c-3.13,28.444-7.914,55.845-14.218,81.438c-0.184,0.754-0.759,1.348-1.504,1.56C118.211,186,118.012,186.027,117.815,186.027z"/>
		</g>
		<g>
			<path style="fill:#525D7D;" d="M28.256,135.92c-0.926,0-1.784-0.602-2.065-1.535c-2.078-6.879-3.13-14.128-3.13-21.546
				c0-17.15,5.575-33.808,15.697-46.906c0.728-0.946,2.087-1.117,3.028-0.388c0.943,0.728,1.118,2.085,0.388,3.028
				c-9.54,12.346-14.794,28.066-14.794,44.266c0,6.994,0.991,13.823,2.945,20.297c0.346,1.141-0.301,2.346-1.442,2.69
				C28.674,135.891,28.463,135.92,28.256,135.92z"/>
		</g>
		<g>
			<path style="fill:#525D7D;" d="M89.293,108.138c-0.297,0-0.597-0.06-0.884-0.19c-1.088-0.489-1.573-1.768-1.084-2.855
				c2.425-5.386,4.764-11.029,7.025-16.484c7.687-18.539,15.611-37.65,29.102-52.873c-10.41,1.664-21.533,4.613-30.781,11.37
				c-0.96,0.703-2.312,0.496-3.016-0.47c-0.704-0.963-0.493-2.314,0.469-3.016c11.88-8.681,26.326-11.457,38.89-13.027
				c0.907-0.11,1.81,0.368,2.212,1.203c0.403,0.835,0.229,1.833-0.433,2.481c-15.558,15.234-24.147,35.952-32.455,55.986
				c-2.274,5.485-4.626,11.156-7.076,16.601C90.904,107.664,90.117,108.138,89.293,108.138z"/>
		</g>
		<g>
			<path style="fill:#525D7D;" d="M124.427,102.601c-0.231,0-0.465-0.037-0.696-0.115c-1.129-0.384-1.732-1.611-1.348-2.74
				c5.493-16.137,8.164-34.376,8.164-55.762c0-1.774-0.018-3.546-0.055-5.31c-0.024-1.193,0.922-2.179,2.114-2.204
				c1.193,0.017,2.179,0.922,2.204,2.114c0.037,1.795,0.055,3.596,0.055,5.4c0,21.866-2.745,40.561-8.394,57.153
				C126.166,102.036,125.327,102.601,124.427,102.601z"/>
		</g>
		<g>
			<path style="fill:#525D7D;" d="M122.424,167.489c-0.579,0-1.157-0.232-1.583-0.69c-0.811-0.873-0.761-2.239,0.114-3.052
				c1.306-1.212,2.633-2.402,3.968-3.6c13.511-12.115,27.482-24.642,27.482-69.209c0-17.376-3.618-31.635-11.062-43.591
				c-0.63-1.012-0.32-2.345,0.692-2.974c1.012-0.63,2.342-0.322,2.974,0.691c7.883,12.662,11.715,27.667,11.715,45.874
				c0,46.494-15.362,60.271-28.917,72.424c-1.317,1.181-2.626,2.355-3.913,3.551C123.477,167.298,122.95,167.489,122.424,167.489z"
				/>
		</g>
		<g>
			<path style="fill:#525D7D;" d="M60.92,114.956c-0.197,0-0.396-0.027-0.595-0.083c-11.826-3.379-24.008-4.118-35.489-2.135
				c-1.164,0.205-2.291-0.585-2.495-1.761c-0.203-1.175,0.586-2.293,1.761-2.495c12.121-2.089,24.963-1.316,37.41,2.239
				c1.146,0.327,1.81,1.522,1.483,2.669C62.724,114.338,61.859,114.956,60.92,114.956z"/>
		</g>
		<g>
			<path style="fill:#525D7D;" d="M45.249,144.322c-1.015,0-1.92-0.72-2.118-1.754c-0.604-3.17-0.911-6.48-0.911-9.84
				c0-14.328,5.401-28.003,11.418-41.917c0.474-1.094,1.742-1.6,2.839-1.125c1.093,0.474,1.598,1.744,1.124,2.839
				c-5.831,13.481-11.064,26.7-11.064,40.202c0,3.088,0.281,6.127,0.835,9.03c0.224,1.171-0.545,2.302-1.716,2.526
				C45.52,144.309,45.384,144.322,45.249,144.322z"/>
		</g>
		<g>
			<path style="fill:#525D7D;" d="M51.408,81.199c-0.308,0-0.621-0.066-0.918-0.205c-1.525-0.718-3.087-1.435-4.668-2.16
				c-5.916-2.717-12.034-5.526-17.445-8.906c-1.011-0.633-1.318-1.965-0.687-2.976c0.634-1.012,1.966-1.318,2.976-0.687
				c5.177,3.236,11.166,5.985,16.959,8.645c1.593,0.731,3.168,1.455,4.705,2.177c1.08,0.507,1.542,1.795,1.035,2.873
				C52.995,80.741,52.218,81.199,51.408,81.199z"/>
		</g>
		<g>
			<path style="fill:#525D7D;" d="M108.236,107.297c-0.274,0-0.554-0.052-0.824-0.165c-12.01-4.969-24.427-10.108-36.68-15.6
				c-1.088-0.488-1.576-1.766-1.088-2.853c0.489-1.088,1.766-1.573,2.854-1.088c12.197,5.468,24.584,10.594,36.565,15.552
				c1.102,0.455,1.626,1.718,1.169,2.82C109.887,106.795,109.083,107.297,108.236,107.297z"/>
		</g>
		<g>
			<path style="fill:#525D7D;" d="M162.875,139.489c-0.28,0-0.565-0.055-0.839-0.17c-9.305-3.937-18.206-9.19-26.811-14.269
				c-1.652-0.974-3.292-1.943-4.924-2.894c-1.03-0.602-1.377-1.923-0.777-2.953c0.603-1.03,1.927-1.377,2.953-0.777
				c1.639,0.956,3.285,1.928,4.942,2.906c8.485,5.008,17.258,10.185,26.298,14.01c1.099,0.465,1.612,1.732,1.148,2.83
				C164.517,138.994,163.717,139.489,162.875,139.489z"/>
		</g>
		<g>
			<path style="fill:#525D7D;" d="M141.342,166.668c-0.697,0-1.382-0.337-1.798-0.962c-4.093-6.138-9.305-11.519-14.734-16.949
				c-0.843-0.843-0.843-2.21,0-3.053c0.843-0.843,2.21-0.843,3.053,0c5.589,5.589,10.963,11.14,15.274,17.607
				c0.662,0.992,0.394,2.332-0.599,2.994C142.17,166.552,141.754,166.668,141.342,166.668z"/>
		</g>
		<g>
			<path style="fill:#525D7D;" d="M174.326,98.877c-0.042,0-0.086-0.001-0.131-0.004c-27.833-1.661-59.354-6.075-82.122-26.215
				c-0.893-0.79-0.977-2.153-0.186-3.047c0.787-0.893,2.149-0.98,3.047-0.186c21.782,19.268,52.42,23.521,79.518,25.138
				c1.189,0.07,2.097,1.093,2.026,2.284C176.412,97.993,175.46,98.877,174.326,98.877z"/>
		</g>
		<g>
			<path style="fill:#525D7D;" d="M150.899,70.574c-31.6,0-48.652-23.539-48.652-45.686c0-0.644,0.015-1.289,0.045-1.933
				c0.056-1.191,1.065-2.109,2.256-2.056c1.191,0.055,2.111,1.064,2.056,2.256c-0.027,0.576-0.039,1.157-0.039,1.733
				c0,20.054,15.538,41.368,44.334,41.368c5.214,0,10.812-0.657,16.643-1.951c1.162-0.263,2.317,0.475,2.575,1.639
				c0.259,1.164-0.475,2.317-1.639,2.575C162.341,69.882,156.428,70.574,150.899,70.574z"/>
		</g>
	</g>
</g>
<g id="Layer_1">
</g>
</svg>
