<?xml version="1.0" encoding="iso-8859-1"?>
<!-- Generator: Adobe Illustrator 21.0.2, SVG Export Plug-In . SVG Version: 6.00 Build 0)  -->
<svg version="1.1" xmlns="http://www.w3.org/2000/svg" xmlns:xlink="http://www.w3.org/1999/xlink" x="0px" y="0px"
	 viewBox="0 0 189.383 206.284" style="enable-background:new 0 0 189.383 206.284;" xml:space="preserve">
<g id="_x34_2">
	<g>
		<g>
			<path style="fill:#E0DFE6;" d="M171.201,191.586c-23.439,4.831-47.291,5.985-71.089,3.466
				c-21.865-2.314-42.254-1.303-62.998,6.868c-1.16,0.457-1.165,2.544,0.324,2.395c11.431-1.144,22.591-4.216,34.078-4.92
				c10.959-0.671,21.715,1.176,32.586,2.241c23.027,2.257,46.184,0.835,68.853-3.685
				C177.113,197.124,175.36,190.729,171.201,191.586z"/>
		</g>
		<g>
			<path style="fill:#E0DFE6;" d="M129.496,161.511c-1.985,3.315-1.438,6.23-2.451,9.739c-1.761,6.096-14.777,5.606-20.34,6.083
				c-11.936,1.024-23.922,1.27-35.845,2.416c-1.407,0.135-2.028,2.471-0.366,2.707c15.135,2.151,30.637,1.541,45.836,0.338
				c4.822-0.382,11.43-0.014,14.926-3.991c3.407-3.876,1.755-9.574,4.091-13.872C137.43,161.099,131.742,157.76,129.496,161.511z"/>
		</g>
		<g>
			<path style="fill:#E0DFE6;" d="M141.032,103.432c-3.489-4.388-8.084-6.954-13.623-7.717c-4.13-0.569-20.631,0.402-23.203-5.285
				c4.758-4.965,6.792-12.005,6.233-18.854c-0.241-2.96-0.737-5.862-1.179-8.776c0.162-4.149-0.217-8.342-0.818-12.014
				c-0.024-0.148-0.071-0.276-0.112-0.409c-0.046-3.378-0.038-6.76-0.098-10.135c-0.034-1.933-1.625-3.631-3.608-3.608
				c-7.663,0.088-16.886-1.165-24.322,0.998c-6.056,1.761-9.658,7.335-12.946,12.348c-1.344,2.049,1.535,3.901,3.209,2.476
				c5.035-4.285,8.406-8.723,15.557-8.845c4.947-0.085,9.917,0.083,14.875,0.181c-0.046,6.602-0.097,13.254,0.777,19.789
				c0.061,0.453,0.119,0.894,0.178,1.335c-0.569,5.795-2.095,8.301-5.898,12.6c-4.289,4.849-6.456,10.788-6.409,17.215
				c0.013,1.791,2.651,2.176,3.134,0.424c1.527-5.546,4.081-10.259,8.364-14.147c0.057-0.052,0.113-0.1,0.169-0.151
				c-0.787,2.018-1.964,4.044-3.703,6.161c-2.153,2.621-0.256,5.744,2.302,5.923c0.097,0.32,0.175,0.639,0.305,0.958
				c1.647,4.025,5.254,6.211,9.236,7.331c-1.148,0.172-2.284,0.379-3.389,0.652c-0.991,0.246-1.251,1.777-0.295,2.255
				c10.285,5.142,23.148,1.391,27.044,15.451c3.094,11.169,1.613,25.296-0.851,36.388c-0.998,4.494,5.84,6.419,6.924,1.909
				c3.221-13.396,5.261-31.271-0.603-44.228c-2.643-5.841-7.573-9.475-13.302-11.334c1.629,0.135,3.233,0.419,4.781,1.04
				c4.572,1.833,7.289,5.792,9.068,10.271c3.798,9.559,3.937,20.416,2.72,30.483c-0.574,4.743,6.872,4.702,7.441,0
				C150.585,130.946,149.673,114.3,141.032,103.432z"/>
		</g>
		<g>
			<path style="fill:#E0DFE6;" d="M184.907,81.058c0.812-0.012,1.563-0.425,1.93-1.297c0.533-1.265-0.181-2.512-1.418-2.953
				c0.303,0.108-0.076-0.068-0.282-0.176c-0.007-0.036-0.254-0.274-0.272-0.259c-0.084-0.146-0.218-0.396-0.233-0.392
				c-0.047-0.199-0.127-0.674-0.107-0.397c-0.078-1.07-0.857-1.986-1.986-1.986c-1.095,0-1.963,0.909-1.986,1.986
				c-0.044,2.074,1.131,4.141,2.981,5.109l-0.213-0.055c-0.724-0.187-1.406-0.136-2.011,0.081
				c-6.184-0.451-12.382-0.468-18.565-0.022c1.02-0.654,1.888-1.568,2.473-2.618c0.602-1.08,0.867-2.346,0.815-3.574
				c-0.03-0.708-0.228-1.378-0.423-2.051c-0.161-0.439-0.31-0.882-0.447-1.329c-0.009-0.123-0.019-0.209-0.028-0.289
				c3.325-1.755,0.276-6.993-3.196-5.208c-2.464,1.267-3.171,4.15-2.332,6.664c0.361,1.082,1.424,2.277,1.442,3.431
				c0.024,1.513-1.317,2.192-2.576,2.444c-1.618,0.324-1.58,2.102-0.635,3.006c-5.53,0.971-20.631,4.919-22.309,1.579
				c-0.782-1.556-2.998-0.692-3.08,0.834c-0.371,6.876,11.738,5.723,15.964,5.403c11.967-0.905,23.403-1.664,35.408-0.573
				C188.061,88.804,188.843,82.179,184.907,81.058z"/>
		</g>
		<g>
			<path style="fill:#E0DFE6;" d="M28.353,58.063c-1.111,3.438-0.969,6.692-0.679,10.267c0.281,3.463,1.807,10.946-0.394,13.849
				c-1.258,1.659-1.943,0.962-4.105,0.951c-1.529-0.008-3.011,0.128-4.523,0.343c-4.057,0.577-7.977,1.424-12.049,1.854
				c-0.493-0.088-0.889-0.047-1.558,0.191c-1.98,0.705-2.114,3.506,0,4.161c4.796,1.486,9.552,0.098,14.431-0.119
				c3.825-0.171,8.37,1.749,11.878-0.49c3.361-2.145,3.45-6.622,3.706-10.207c0.447-6.263-1.499-12.826,0.077-18.93
				C36.276,55.527,29.742,53.768,28.353,58.063z"/>
		</g>
		<g>
			<path style="fill:#E0DFE6;" d="M106.26,106.103c-1.165-2.81-5.405-2.98-6.073-0.015c-0.845-0.052-1.658,0.213-2.312,0.776
				c-0.055-0.085-0.101-0.177-0.157-0.261c-1.27-1.912-3.884-0.646-3.55,1.497c0.401,2.573,1.167,5.122,1.934,7.653
				c0.248,1.524,0.722,3.026,1.411,4.476c1.688,3.557,6.946,0.761,5.806-2.733c1.701,0.193,3.449-0.906,3.675-3.237
				C107.252,111.594,107.301,108.614,106.26,106.103z"/>
		</g>
		<g>
			<path style="fill:#E0DFE6;" d="M173.587,159.141c-0.97-4.402-7.171-2.405-6.59,1.817c0.534,3.88,1.426,9.026-0.166,12.782
				c-1.593,3.757-6.247,2.209-9.36,1.698c-2.355-0.386-4.017,2.693-1.708,4.052c4.694,2.762,11.371,4.214,15.498-0.3
				C175.735,174.297,174.889,165.053,173.587,159.141z"/>
		</g>
		<g>
			<path style="fill:#E0DFE6;" d="M124.171,150.484c-0.042-7.962,0.001-15.937-0.264-23.895c-0.149-4.476-6.952-4.509-6.978,0
				c-0.031,5.31,0.119,10.622,0.228,15.93c0.096,4.691,1.433,11.579,0.219,16.086c-1.38,5.122-10.477,4.184-14.983,4.607
				c-5.93,0.556-11.84,1.259-17.758,1.931c-1.757,0.199-1.857,2.781,0,2.815c7.743,0.141,15.477,0.257,23.222,0.225
				c3.922-0.016,11.62,1.535,14.675-2.078C125.551,162.532,124.193,154.672,124.171,150.484z"/>
		</g>
		<g>
			<path style="fill:#E0DFE6;" d="M61.446,161.238c-1.486-3.432-7.266-0.987-6.06,2.555c0.237,0.696,0.354,1.301,0.417,1.888
				c-3.241-1.3-6.539-2.722-9.853-3.382c-1.453-0.29-2.727,1.471-1.524,2.618c3.403,3.243,8.191,5.489,12.272,7.755
				c1.493,0.829,3.403,0.356,4.29-1.125C62.937,168.296,62.922,164.647,61.446,161.238z"/>
		</g>
		<g>
			<path style="fill:#E0DFE6;" d="M61.917,142.325c-0.587-1.003-1.746-1.552-2.871-1.467c-0.089-0.418-0.192-0.83-0.319-1.229
				c-0.666-2.105-3.801-2.783-4.929-0.644c-1.181,2.24-2.469,5.21-1.911,7.784c0.321,1.485,2.029,1.751,3.102,1.016
				c0.878,0.737,2.108,0.983,3.3,0.282c0.874-0.513,1.713-1.044,2.546-1.62C62.173,145.523,62.782,143.805,61.917,142.325z"/>
		</g>
		<g>
			<path style="fill:#E0DFE6;" d="M131.663,139.784c-0.095-0.808-0.499-1.452-1.039-1.894c-0.406-1.585-0.493-3.293-0.677-4.864
				c-0.245-2.088-3.324-2.894-3.929-0.532c-0.768,3.002-0.236,5.776,0.128,8.78c0.426,3.521,5.347,3.673,5.599,0
				C131.781,140.751,131.724,140.304,131.663,139.784z"/>
		</g>
		<g>
			<path style="fill:#E0DFE6;" d="M141.275,61.286c-0.891,5.006-1.928,9.951-2.911,14.928c-0.458,0.147-0.83,0.595-0.841,1.099
				c-0.034,1.574,0.233,2.165,1.499,3.108c0.902,0.672,2.511,0.189,2.991-0.784c2.616-5.311,4.229-11.721,4.782-17.604
				C147.088,58.907,141.83,58.166,141.275,61.286z"/>
		</g>
		<g>
			<path style="fill:#E0DFE6;" d="M148.971,28.451c-0.475-4.787-7.563-3.839-6.513,0.881c0.365,1.64-0.507,3.226-1.966,3.991
				c-1.888,0.99-3.691,0.007-5.21-1.183c-1.177-0.922-3.635-0.129-2.908,1.693c1.503,3.767,6.096,5.589,9.946,4.625
				C146.61,37.385,149.395,32.722,148.971,28.451z"/>
		</g>
		<g>
			<path style="fill:#525D7D;" d="M63.192,172.334c-1.141,0-2.086-0.888-2.155-2.028c-0.33-5.439-0.744-10.943-1.145-16.265
				c-0.678-9.014-1.38-18.335-1.69-27.581c-0.001-0.024-0.003-0.152-0.003-0.176c0-3.315,3.143-5.857,5.954-5.918
				c5.836-0.125,11.757-0.177,17.483-0.228c13.112-0.117,26.67-0.237,39.872-1.241c0.739-0.055,1.449,0.269,1.891,0.859
				c0.111,0.145,0.579,0.433,0.889,0.624c1.02,0.628,2.728,1.68,2.819,3.812c0.201,4.696,0.321,9.451,0.437,14.049
				c0.249,9.838,0.505,20.012,1.574,30.033c0.063,0.596-0.123,1.191-0.515,1.642c-0.391,0.453-0.953,0.723-1.551,0.745
				C106.501,171.432,84.641,172.195,63.192,172.334z M120.869,123.276c-13.038,0.947-26.33,1.066-39.194,1.181
				c-5.712,0.051-11.62,0.103-17.428,0.228c-0.651,0.013-1.728,0.793-1.728,1.6c0.307,9.189,1.005,18.463,1.68,27.432
				c0.352,4.674,0.714,9.487,1.022,14.284c19.922-0.166,40.184-0.855,59.374-1.569c-0.894-9.436-1.133-18.903-1.365-28.08
				c-0.114-4.515-0.231-9.182-0.426-13.777c-0.176-0.148-0.53-0.365-0.778-0.519C121.667,123.835,121.261,123.587,120.869,123.276z"
				/>
		</g>
		<g>
			<path style="fill:#525D7D;" d="M63.512,181.146c-1.1,0-2.036-0.834-2.146-1.945c-0.271-2.725-0.628-5.496-0.942-7.848
				c-0.157-1.182,0.672-2.267,1.855-2.426c1.191-0.153,2.267,0.673,2.425,1.855c0.239,1.792,0.503,3.826,0.737,5.908
				c12.1-0.787,24.287-0.867,36.093-0.945c7.701-0.051,15.64-0.102,23.501-0.351c-0.365-2.148-0.712-4.36-0.712-6.616
				c0-0.457,0.013-0.912,0.044-1.366c0.08-1.191,1.103-2.089,2.3-2.01c1.19,0.082,2.089,1.11,2.009,2.3
				c-0.024,0.358-0.034,0.718-0.034,1.077c0,2.097,0.365,4.225,0.751,6.477c0.108,0.626,0.214,1.25,0.313,1.874
				c0.097,0.61-0.072,1.233-0.465,1.709c-0.392,0.478-0.97,0.765-1.588,0.787c-8.724,0.325-17.553,0.382-26.091,0.438
				c-12.414,0.082-25.251,0.166-37.892,1.077C63.617,181.145,63.564,181.146,63.512,181.146z"/>
		</g>
		<g>
			<path style="fill:#525D7D;" d="M93.281,156.529c-0.409,0-0.821-0.115-1.184-0.354c-2.186-1.435-4.356-2.944-6.455-4.402
				c-0.904-0.628-1.81-1.259-2.723-1.888c-0.512-0.351-0.847-0.907-0.92-1.522c-0.074-0.617,0.122-1.236,0.536-1.697
				c2.643-2.949,5.41-5.769,7.767-8.139c0.815-0.819,2.129-0.852,2.983-0.076c2.527,2.297,5.322,4.417,8.309,6.297
				c0.538,0.34,0.899,0.898,0.987,1.528c0.089,0.63-0.106,1.266-0.53,1.74c-1.286,1.435-2.596,2.848-3.913,4.266
				c-1.085,1.169-2.174,2.343-3.255,3.537C94.459,156.286,93.873,156.529,93.281,156.529z M87.402,147.737
				c0.235,0.163,0.47,0.326,0.704,0.489c1.581,1.099,3.202,2.227,4.83,3.321c0.678-0.739,1.358-1.472,2.037-2.203
				c0.727-0.784,1.453-1.566,2.174-2.352c-1.818-1.248-3.562-2.579-5.212-3.979C90.489,144.481,88.941,146.078,87.402,147.737z"/>
		</g>
		<g>
			<path style="fill:#525D7D;" d="M50.166,165.006c-2.657,0-5.59-0.121-7.889-2.415c-2.688-2.681-3.887-7.791-3.887-16.571
				c0-42.875,11.188-46.934,25.814-47.786c4.729-0.275,8.812-0.515,11.692-3.673c0.856-0.939,1.29-2.137,1.29-3.558
				c0-4.965-2.319-6.143-5.256-7.633c-1.775-0.902-3.611-1.834-4.711-3.695c-1.741-2.946-1.685-4.702-1.463-6.386
				c0.178-1.347,0.362-2.74-6.017-9.118c-0.837-0.835-1.318-2.103-1.318-3.476c0-1.934,1.015-3.525,1.91-4.928
				c0.567-0.89,1.153-1.808,1.197-2.429l-0.07-0.697c-0.439-4.248-1.021-10.197-1.021-12.784c0-17.828,16.308-20.231,32.261-20.231
				c16.572,0,21.884,2.298,26.272,4.859c0.598,0.35,0.992,0.966,1.06,1.654c0.067,0.69-0.2,1.37-0.719,1.829
				c-9.192,8.119-22.478,11.871-37.949,10.676c-0.262,0.954-0.32,1.955-0.384,3.059c-0.234,4.065-0.525,9.125-11.379,14.058
				c-1.084,0.498-2.364,0.014-2.859-1.071c-0.493-1.086-0.013-2.366,1.072-2.859c8.479-3.854,8.645-6.732,8.854-10.375
				c0.107-1.847,0.227-3.94,1.387-6.117c0.412-0.772,1.246-1.216,2.118-1.134c2.291,0.228,4.566,0.343,6.761,0.343
				c7.65,0,18.236-1.413,27.005-7.797c-3.686-1.593-9.237-2.806-21.241-2.806c-20.108,0-27.943,4.461-27.943,15.913
				c0,2.665,0.751,9.949,0.997,12.342c0.067,0.647,0.096,1.037,0.096,1.068c0,1.881-0.997,3.444-1.878,4.823
				c-0.606,0.95-1.232,1.931-1.232,2.606c0,0.239,0.066,0.426,0.096,0.474c7.294,7.285,7.589,9.755,7.202,12.686
				c-0.132,0.998-0.227,1.718,0.9,3.625c0.459,0.776,1.612,1.362,2.948,2.04c3.034,1.541,7.619,3.87,7.619,11.484
				c0,2.496-0.836,4.731-2.418,6.467c-4.064,4.457-9.436,4.771-14.631,5.073c-10.692,0.624-21.747,1.268-21.747,43.476
				c0,7.235,0.881,11.782,2.617,13.514c1.113,1.11,2.654,1.15,5.301,1.154l0.509-0.001c2.08,0,4.147-0.176,6.333-0.361
				c1.416-0.119,2.833-0.24,4.249-0.311c1.207-0.031,2.205,0.857,2.264,2.048c0.06,1.191-0.857,2.205-2.048,2.264
				c-1.367,0.069-2.734,0.186-4.1,0.301c-2.18,0.186-4.435,0.377-6.699,0.377l-0.497,0.001
				C50.483,165.006,50.325,165.006,50.166,165.006z"/>
		</g>
		<g>
			<path style="fill:#525D7D;" d="M127.461,164.582c-0.905,0-1.751-0.571-2.053-1.475c-0.377-1.132,0.226-2.352,1.358-2.728
				c7.387-2.463,9.871-3.291,9.871-25.761c0-31.215-14.285-31.7-26.888-32.127c-7.179-0.245-15.317-0.52-15.317-9.612
				c0-6.254,2.847-8.205,5.358-9.927c3.003-2.059,6.407-4.393,6.407-17.351c0-5.317-0.748-10.846-1.472-16.191
				c-0.612-4.525-1.245-9.204-1.437-13.795c-0.05-1.192,0.876-2.197,2.067-2.248c1.193-0.073,2.198,0.876,2.247,2.068
				c0.183,4.391,0.803,8.969,1.402,13.396c0.743,5.488,1.511,11.162,1.511,16.771c0,14.087-3.752,17.805-8.283,20.912
				c-2.245,1.539-3.482,2.388-3.482,6.366c0,4.515,2.889,5.015,11.145,5.295c12.368,0.42,31.06,1.056,31.06,36.444
				c0,24.344-3.291,26.68-12.808,29.852C127.92,164.545,127.689,164.582,127.461,164.582z"/>
		</g>
		<g>
			<path style="fill:#525D7D;" d="M126.505,146.281c-0.698,0-1.382-0.337-1.798-0.961c-0.661-0.992-0.394-2.332,0.599-2.994
				c1.16-0.773,2.262-1.93,3.329-3.049c0.388-0.408,0.772-0.81,1.156-1.193c0.843-0.843,2.21-0.843,3.053,0
				c0.843,0.843,0.843,2.21,0,3.053c-0.359,0.36-0.718,0.737-1.082,1.119c-1.229,1.29-2.501,2.624-4.059,3.663
				C127.332,146.164,126.916,146.281,126.505,146.281z"/>
		</g>
		<g>
			<path style="fill:#525D7D;" d="M58.818,150.492c-0.196,0-0.396-0.027-0.594-0.083c-0.356-0.101-0.721-0.194-1.089-0.287
				c-1.92-0.488-4.309-1.094-5.993-3.115c-0.763-0.915-0.64-2.277,0.276-3.04c0.917-0.763,2.279-0.64,3.041,0.277
				c0.786,0.943,2.154,1.29,3.738,1.692c0.41,0.104,0.817,0.207,1.213,0.32c1.146,0.328,1.81,1.522,1.483,2.669
				C60.622,149.875,59.758,150.492,58.818,150.492z"/>
		</g>
		<g>
			<path style="fill:#525D7D;" d="M79.562,109.263c-0.522,0-1.042-0.188-1.449-0.558c-0.98-0.887-1.909-1.816-2.808-2.714
				c-1.382-1.382-2.687-2.686-4.141-3.829c-0.938-0.737-1.101-2.094-0.364-3.032c0.736-0.939,2.094-1.101,3.032-0.364
				c1.657,1.303,3.116,2.761,4.526,4.172c0.486,0.485,0.971,0.97,1.464,1.448c0.485-0.297,0.974-0.59,1.463-0.884
				c1.905-1.143,3.705-2.222,5.27-3.546c0.577-0.488,1.368-0.637,2.081-0.398c3.154,1.057,6.103,2.484,9.059,4.013
				c1.122-0.963,2.272-1.86,3.393-2.734c0.994-0.776,1.99-1.55,2.957-2.367c0.912-0.77,2.272-0.655,3.043,0.259
				c0.769,0.911,0.654,2.273-0.258,3.042c-1.01,0.852-2.048,1.663-3.087,2.473c-1.503,1.172-2.922,2.279-4.264,3.517
				c-0.671,0.62-1.656,0.749-2.467,0.325c-2.992-1.569-5.74-2.97-8.65-4.045c-1.563,1.191-3.232,2.191-4.856,3.165
				c-0.93,0.558-1.86,1.116-2.762,1.707C80.383,109.146,79.971,109.263,79.562,109.263z"/>
		</g>
		<g>
			<path style="fill:#525D7D;" d="M87.624,100.315c-3.195,0-6.618-0.148-11.096-0.478c-1.189-0.089-2.082-1.123-1.995-2.312
				c0.089-1.189,1.123-2.092,2.312-1.995c4.369,0.323,7.693,0.467,10.778,0.467c3.121,0,5.99-0.15,8.773-0.46
				c1.182-0.122,2.253,0.723,2.384,1.909c0.131,1.185-0.723,2.252-1.907,2.384C93.932,100.156,90.906,100.315,87.624,100.315z"/>
		</g>
		<g>
			<path style="fill:#525D7D;" d="M78.931,61.94c-0.505,0-1.011-0.176-1.421-0.534c-0.898-0.786-0.988-2.149-0.203-3.047
				c2.3-2.627,5.641-2.981,8.607-2.981c1.193,0,2.159,0.967,2.159,2.159c0,1.192-0.966,2.159-2.159,2.159
				c-2.097,0-4.198,0.183-5.357,1.508C80.129,61.691,79.532,61.94,78.931,61.94z"/>
		</g>
		<g>
			<path style="fill:#525D7D;" d="M96.386,60.693c-0.552,0-1.104-0.211-1.525-0.631c-0.844-0.842-0.846-2.21-0.003-3.053
				c0.973-0.976,2.326-1.261,3.862-1.116c0.242,0.022,0.486,0.069,0.739,0.024c1.169-0.232,2.305,0.531,2.536,1.701
				c0.231,1.169-0.531,2.305-1.701,2.536c-0.622,0.124-1.314,0.103-1.979,0.038c-0.171-0.015-0.34-0.035-0.504-0.035
				C97.405,60.514,96.895,60.693,96.386,60.693z"/>
		</g>
		<g>
			<path style="fill:#525D7D;" d="M87.163,77.93c-0.749,0-1.459-0.198-2.111-0.588c-1.016-0.609-1.334-1.912-0.735-2.934
				c0.587-1.001,1.872-1.345,2.889-0.807c0.219-0.058,0.716-0.284,1.043-0.493c0.006-0.309,0.015-0.618,0.025-0.928
				c0.015-0.477,0.03-0.953,0.03-1.43c0-1.022-0.077-1.784-0.247-2.467c-0.29-1.157,0.413-2.329,1.57-2.619
				c1.153-0.285,2.329,0.413,2.619,1.57c0.261,1.04,0.377,2.125,0.377,3.516c0,0.521-0.016,1.043-0.032,1.564
				c-0.015,0.477-0.03,0.953-0.03,1.428C92.561,76.491,88.551,77.93,87.163,77.93z"/>
		</g>
		<g>
			<path style="fill:#525D7D;" d="M88.277,113.542c-3.433,0-6.601-1.722-8.69-4.726c-0.681-0.978-0.439-2.323,0.539-3.005
				c0.98-0.68,2.325-0.439,3.006,0.54c1.271,1.826,3.146,2.873,5.145,2.873c1.204,0,4.088-0.33,4.853-3.393
				c0.288-1.155,1.458-1.861,2.618-1.57c1.157,0.29,1.86,1.462,1.571,2.619C96.291,110.989,92.827,113.542,88.277,113.542z"/>
		</g>
		<g>
			<path style="fill:#525D7D;" d="M81.887,124.133c-0.173,0-0.349-0.021-0.525-0.065c-1.157-0.29-1.86-1.462-1.571-2.619
				c0.441-1.766,1.068-3.442,1.675-5.065c0.423-1.131,0.822-2.2,1.167-3.303c0.356-1.139,1.565-1.775,2.705-1.417
				c1.139,0.356,1.772,1.567,1.417,2.704c-0.38,1.217-0.819,2.391-1.244,3.528c-0.59,1.579-1.148,3.071-1.531,4.601
				C83.734,123.48,82.855,124.133,81.887,124.133z"/>
		</g>
		<g>
			<path style="fill:#525D7D;" d="M96.278,122.905c-0.904,0-1.746-0.571-2.048-1.476c-1.032-3.092-2.614-5.824-4.171-8.314
				c-0.632-1.011-0.325-2.343,0.687-2.976c1.011-0.631,2.342-0.323,2.975,0.687c1.698,2.717,3.431,5.717,4.605,9.236
				c0.377,1.131-0.234,2.354-1.365,2.731C96.734,122.87,96.504,122.905,96.278,122.905z"/>
		</g>
		<g>
			<path style="fill:#525D7D;" d="M2.513,84.792c-1.134,0-2.083-0.883-2.153-2.027C0.117,78.826,0,74.528,0,69.63
				c0-4.639,0.104-9.333,0.204-13.874l0.055-2.522c0.023-1.099,0.869-2.006,1.965-2.104c7.065-0.635,14.216-0.849,21.131-1.057
				l3.135-0.094c1.16-0.09,2.153,0.862,2.223,2.028c0.389,6.531,0.701,13.185,1.002,19.62c0.156,3.341,0.312,6.681,0.479,10.014
				c0.029,0.574-0.171,1.134-0.557,1.559c-0.385,0.424-0.924,0.679-1.497,0.706c-4.362,0.207-8.788,0.333-13.068,0.457
				C10.985,84.479,6.76,84.6,2.613,84.79C2.58,84.791,2.546,84.792,2.513,84.792z M4.534,55.269l-0.013,0.583
				c-0.1,4.516-0.203,9.187-0.203,13.778c0,3.944,0.077,7.485,0.235,10.755c3.485-0.141,6.987-0.24,10.394-0.339
				c3.552-0.102,7.205-0.207,10.826-0.357c-0.128-2.617-0.25-5.237-0.373-7.86c-0.268-5.734-0.545-11.641-0.877-17.469l-1.04,0.031
				C17.265,54.577,10.853,54.768,4.534,55.269z"/>
		</g>
		<g>
			<path style="fill:#525D7D;" d="M10.258,64.145c-1.193,0-2.159-0.967-2.159-2.159c0-1.192,0.966-2.159,2.159-2.159
				c2.167,0,4.213,0,5.933-0.574c1.137-0.378,2.354,0.236,2.731,1.365c0.377,1.131-0.234,2.354-1.365,2.731
				C15.172,64.145,12.674,64.145,10.258,64.145z"/>
		</g>
		<g>
			<path style="fill:#525D7D;" d="M16.875,70.763h-6.388c-1.193,0-2.159-0.967-2.159-2.159c0-1.192,0.966-2.159,2.159-2.159h6.388
				c1.193,0,2.159,0.967,2.159,2.159C19.034,69.796,18.067,70.763,16.875,70.763z"/>
		</g>
		<g>
			<path style="fill:#525D7D;" d="M16.19,76.238h-5.247c-1.193,0-2.159-0.967-2.159-2.159c0-1.192,0.966-2.159,2.159-2.159h5.247
				c1.193,0,2.159,0.967,2.159,2.159C18.349,75.271,17.383,76.238,16.19,76.238z"/>
		</g>
		<g>
			<path style="fill:#525D7D;" d="M132.741,84.116c-1.125,0-2.074-0.872-2.152-2.012c-0.637-9.322-0.779-18.703-0.915-27.775
				c-0.058-3.837-0.115-7.68-0.209-11.536c-0.015-0.602,0.223-1.184,0.656-1.602c0.432-0.419,1.025-0.626,1.622-0.606
				c1.696,0.094,3.378,0.202,5.06,0.311c1.486,0.096,2.974,0.191,4.471,0.278c1.152,0.065,2.049,1.026,2.035,2.18
				c-0.03,2.584-0.045,5.167-0.045,7.751c0,10.029,0.221,19.01,0.737,30.027c0.056,1.191-0.864,2.203-2.056,2.258
				c-1.187,0.066-2.201-0.864-2.258-2.055c-0.519-11.089-0.741-20.129-0.741-30.23c0-1.915,0.008-3.829,0.025-5.743
				c-0.816-0.051-1.631-0.104-2.445-0.156c-0.896-0.058-1.792-0.115-2.691-0.172c0.065,3.083,0.111,6.158,0.157,9.229
				c0.135,9.016,0.275,18.339,0.905,27.546c0.081,1.191-0.817,2.221-2.006,2.301C132.84,84.115,132.79,84.116,132.741,84.116z"/>
		</g>
		<g>
			<path style="fill:#525D7D;" d="M151.05,83.589c-1.089,0-2.026-0.821-2.144-1.929c-0.811-7.565-0.921-15.06-0.921-21.394
				c0-2.376,0.017-4.751,0.034-7.126c0.017-2.366,0.034-4.733,0.034-7.099l-0.003-1.787c-0.006-1.186,0.948-2.156,2.135-2.169
				c0.906-0.01,1.815-0.013,2.725-0.017c2.006-0.007,4.081-0.014,6.098-0.098c1.223-0.037,2.196,0.874,2.247,2.065l0.122,2.827
				c0.501,11.691,0.974,22.735,1.888,34.175c0.095,1.188-0.791,2.229-1.98,2.324c-1.21,0.079-2.23-0.793-2.324-1.981
				c-0.921-11.519-1.418-23.117-1.898-34.334l-0.03-0.696c-1.383,0.028-2.76,0.032-4.107,0.037c-0.185,0.001-0.37,0.001-0.554,0.003
				c-0.001,2.26-0.018,4.52-0.034,6.781c-0.017,2.366-0.034,4.73-0.034,7.096c0,6.22,0.106,13.571,0.895,20.933
				c0.127,1.186-0.731,2.25-1.917,2.377C151.205,83.585,151.128,83.589,151.05,83.589z"/>
		</g>
		<g>
			<path style="fill:#525D7D;" d="M147.106,57.648h-5.261c-1.193,0-2.159-0.967-2.159-2.159s0.966-2.159,2.159-2.159h5.261
				c1.193,0,2.159,0.967,2.159,2.159S148.299,57.648,147.106,57.648z"/>
		</g>
		<g>
			<path style="fill:#525D7D;" d="M172.444,82.264c-0.165,0-0.331-0.018-0.494-0.058c-0.587-0.138-1.09-0.514-1.386-1.04
				c-2.022-3.583-3.908-7.292-5.731-10.881c-1.759-3.462-3.578-7.041-5.511-10.487c-0.281-0.5-0.351-1.094-0.194-1.646
				c0.157-0.552,0.529-1.021,1.031-1.299c1.401-0.776,2.707-1.671,4.09-2.62c1.006-0.69,2.012-1.379,3.052-2.021
				c0.495-0.305,1.093-0.399,1.657-0.257c0.565,0.141,1.049,0.503,1.342,1.005c1.872,3.203,3.832,6.417,5.729,9.523
				c2.23,3.655,4.536,7.434,6.727,11.245c0.583,1.015,0.252,2.309-0.746,2.919l-1.29,0.786c-2.349,1.431-4.778,2.911-7.067,4.46
				C173.294,82.137,172.872,82.264,172.444,82.264z M164.104,59.525c1.596,2.935,3.109,5.911,4.579,8.805
				c1.458,2.868,2.955,5.814,4.52,8.688c1.58-1.018,3.182-1.999,4.755-2.957c-1.845-3.151-3.756-6.283-5.614-9.329
				c-1.523-2.496-3.087-5.06-4.62-7.641c-0.344,0.233-0.687,0.468-1.03,0.703C165.852,58.369,164.995,58.958,164.104,59.525z"/>
		</g>
		<g>
			<path style="fill:#525D7D;" d="M126.936,84.393c-1.139,0-2.091-0.891-2.153-2.042c-0.065-1.191,0.848-2.208,2.038-2.273
				c8.856-0.481,17.797-0.67,26.443-0.853c11.065-0.235,22.507-0.476,33.796-1.337c1.188-0.084,2.226,0.8,2.317,1.989
				c0.091,1.189-0.8,2.226-1.989,2.318c-11.407,0.867-22.908,1.11-34.032,1.347c-8.612,0.183-17.516,0.371-26.3,0.849
				C127.015,84.392,126.975,84.393,126.936,84.393z"/>
		</g>
		<g>
			<path style="fill:#525D7D;" d="M138.381,34.26c-0.1,0-0.2-0.001-0.3-0.006c-3.96-0.15-7.039-3.303-7.161-7.335
				c-0.122-4.085,2.803-7.697,6.521-8.054c0.507-0.048,1.022-0.032,1.531,0.041c1.118,0.167,2.418,0.43,3.617,1.119
				c2.158,1.234,3.624,3.818,3.648,6.425c0.016,1.958-0.936,4.109-2.487,5.614C142.285,33.487,140.388,34.26,138.381,34.26z
				 M138.034,23.155c-0.063,0-0.124,0.003-0.185,0.008c-1.444,0.139-2.667,1.833-2.612,3.626c0.053,1.76,1.318,3.084,3.009,3.149
				c0.968,0.037,1.795-0.29,2.498-0.974c0.82-0.796,1.181-1.817,1.176-2.477c-0.008-0.925-0.562-2.194-1.476-2.717
				c-0.467-0.269-1.076-0.44-2.103-0.593C138.238,23.164,138.135,23.155,138.034,23.155z"/>
		</g>
		<g>
			<path style="fill:#525D7D;" d="M29.459,70.664c-1.023,0-1.932-0.731-2.122-1.774c-0.213-1.172,0.566-2.297,1.739-2.509
				c1.233-0.224,2.408-0.392,3.585-0.561c1.122-0.16,2.245-0.319,3.423-0.533c1.168-0.214,2.296,0.565,2.51,1.739
				c0.213,1.172-0.566,2.297-1.739,2.509c-1.231,0.224-2.407,0.392-3.583,0.559c-1.123,0.162-2.247,0.32-3.423,0.534
				C29.717,70.653,29.587,70.664,29.459,70.664z"/>
		</g>
		<g>
			<path style="fill:#525D7D;" d="M42.818,63.001c-0.451,0-0.906-0.14-1.294-0.432c-0.954-0.715-1.148-2.069-0.432-3.023l0.63-0.827
				c1.075-1.397,2.09-2.717,2.532-4.19c0.342-1.143,1.547-1.788,2.688-1.448c1.142,0.342,1.791,1.545,1.448,2.688
				c-0.67,2.236-2.038,4.015-3.246,5.583l-0.598,0.786C44.122,62.703,43.474,63.001,42.818,63.001z"/>
		</g>
		<g>
			<path style="fill:#525D7D;" d="M48.513,47.017c-0.173,0-0.349-0.021-0.524-0.065c-1.157-0.288-1.861-1.46-1.571-2.617
				c0.322-1.289,0.459-2.229,0.459-3.144c0-0.358-0.022-0.722-0.069-1.099c-0.149-1.183,0.689-2.263,1.873-2.412
				c1.181-0.145,2.263,0.69,2.411,1.872c0.069,0.55,0.102,1.085,0.102,1.639c0,1.269-0.181,2.563-0.588,4.19
				C50.362,46.362,49.481,47.017,48.513,47.017z"/>
		</g>
		<g>
			<path style="fill:#525D7D;" d="M51.58,30.594c-0.089,0-0.179-0.006-0.27-0.017c-1.183-0.148-2.023-1.226-1.875-2.409
				c0.163-1.306,0.519-2.456,0.862-3.569c0.174-0.561,0.35-1.129,0.499-1.723c0.288-1.157,1.455-1.86,2.618-1.572
				c1.157,0.288,1.86,1.46,1.571,2.617c-0.168,0.675-0.366,1.318-0.562,1.954c-0.302,0.975-0.588,1.899-0.704,2.827
				C53.583,29.794,52.654,30.594,51.58,30.594z"/>
		</g>
		<g>
			<path style="fill:#525D7D;" d="M59.68,15.923c-0.609,0-1.214-0.256-1.64-0.755c-0.776-0.905-0.67-2.269,0.235-3.044
				c0.306-0.263,0.612-0.534,0.921-0.808c1.323-1.172,2.69-2.384,4.335-3.206c1.065-0.533,2.363-0.1,2.897,0.966
				c0.533,1.067,0.1,2.364-0.966,2.897c-1.137,0.568-2.238,1.543-3.402,2.575c-0.327,0.29-0.651,0.578-0.976,0.856
				C60.676,15.753,60.177,15.923,59.68,15.923z"/>
		</g>
		<g>
			<path style="fill:#525D7D;" d="M74.131,8.261c-0.904,0-1.747-0.573-2.049-1.477c-0.377-1.131,0.235-2.354,1.366-2.731
				c0.636-0.212,1.271-0.448,1.907-0.683c1.358-0.502,2.763-1.023,4.219-1.347c1.16-0.258,2.318,0.476,2.576,1.64
				c0.259,1.164-0.475,2.317-1.64,2.576c-1.169,0.259-2.376,0.707-3.655,1.181c-0.681,0.252-1.362,0.504-2.042,0.731
				C74.587,8.225,74.357,8.261,74.131,8.261z"/>
		</g>
		<g>
			<path style="fill:#525D7D;" d="M94.823,4.592c-0.531,0-1.063-0.013-1.602-0.027c-0.514-0.013-1.037-0.027-1.572-0.027
				c-1.193,0-2.159-0.966-2.159-2.159c0-1.193,0.966-2.159,2.159-2.159c0.574,0,1.133,0.014,1.685,0.029
				c0.501,0.013,0.996,0.026,1.49,0.026c1.101,0,1.95-0.072,2.752-0.232c1.169-0.234,2.307,0.524,2.541,1.693
				c0.234,1.169-0.524,2.307-1.693,2.541C97.33,4.495,96.22,4.592,94.823,4.592z"/>
		</g>
		<g>
			<path style="fill:#525D7D;" d="M112.889,6.509c-0.173,0-0.349-0.021-0.525-0.065c-0.637-0.159-1.275-0.37-1.912-0.582
				c-1.03-0.344-2.002-0.668-2.82-0.668c-1.193,0-2.159-0.966-2.159-2.159s0.966-2.159,2.159-2.159c1.518,0,2.935,0.472,4.185,0.889
				c0.531,0.178,1.063,0.357,1.594,0.49c1.157,0.289,1.86,1.461,1.571,2.618C114.737,5.854,113.857,6.509,112.889,6.509z"/>
		</g>
		<g>
			<path style="fill:#525D7D;" d="M125.368,13.516c-0.284,0-0.573-0.056-0.85-0.174c-1.613-0.692-3.104-1.631-4.692-2.954
				c-0.916-0.764-1.04-2.125-0.276-3.041c0.764-0.915,2.126-1.039,3.041-0.276c1.275,1.063,2.394,1.773,3.628,2.302
				c1.096,0.47,1.604,1.739,1.134,2.835C127.002,13.026,126.205,13.516,125.368,13.516z"/>
		</g>
		<g>
			<path style="fill:#525D7D;" d="M133.251,21.616c-0.552,0-1.105-0.211-1.526-0.633c-0.968-0.967-2.065-2.065-2.667-3.572
				c-0.443-1.106,0.096-2.363,1.202-2.806c1.108-0.446,2.364,0.096,2.806,1.203c0.273,0.683,0.972,1.382,1.711,2.121
				c0.843,0.843,0.843,2.21,0,3.053C134.356,21.405,133.804,21.616,133.251,21.616z"/>
		</g>
		<g>
			<path style="fill:#525D7D;" d="M24.457,196.571c-5.607,0-8.992,0-11.041-2.059c-2.024-2.034-2.01-5.091-1.981-11.182l0.008-2.582
				c0-1.642-0.006-3.199-0.012-4.677c-0.096-24.337,0.744-28.952,27.912-29.996c1.19-0.039,2.194,0.883,2.241,2.075
				c0.046,1.192-0.883,2.194-2.075,2.241c-23.858,0.916-23.852,2.315-23.76,25.664c0.006,1.483,0.012,3.046,0.012,4.693
				l-0.008,2.602c-0.02,4.269-0.035,7.354,0.723,8.116c0.784,0.787,4.119,0.787,7.981,0.787c1.974,0,4.003-0.089,5.966-0.174
				c2.01-0.087,4.088-0.178,6.157-0.178c11.446,0,23.199-1.016,34.565-1.997c11.465-0.991,23.321-2.016,34.969-2.016
				c0.157,0,0.808,0.008,1.803,0.021c3.253,0.041,10.022,0.125,15.413,0.125c0.024,0,0.048,0,0.072,0
				c7.191,0,41.286-0.097,57.271-1.902c0.024-1.397,0.036-2.797,0.036-4.197c0-8.383-0.414-16.959-0.814-25.251
				c-0.108-2.224-0.215-4.446-0.314-6.664c-1.274-0.396-4.389-0.544-13.295-0.932c-4.961-0.215-11.665-0.507-20.798-0.975
				c-1.191-0.06-2.107-1.075-2.046-2.267c0.061-1.19,1.089-2.09,2.267-2.045c9.118,0.468,15.811,0.759,20.765,0.974
				c13.609,0.592,14.721,0.64,16.655,2.376c0.432,0.388,0.689,0.932,0.715,1.512c0.113,2.601,0.239,5.205,0.365,7.814
				c0.402,8.344,0.819,16.972,0.819,25.459c0,2.058-0.024,4.116-0.078,6.168c-0.028,1.06-0.82,1.943-1.871,2.083
				c-15.311,2.059-52.148,2.166-59.582,2.166c-5.538,0.034-12.357-0.087-15.633-0.127c-0.966-0.011-1.596-0.02-1.749-0.02
				c-11.462,0-23.224,1.016-34.598,1.999c-11.457,0.991-23.304,2.014-34.936,2.014c-1.974,0-4.005,0.089-5.968,0.174
				C28.602,196.48,26.524,196.571,24.457,196.571z"/>
		</g>
		<g>
			<path style="fill:#525D7D;" d="M159.792,177.539c-6.304,0-10.069-4.234-10.069-11.325c0-5.793,2.96-12.027,9.461-12.027
				c0.613,0,1.247,0.059,1.886,0.176c0.534,0.097,1.146,0.131,1.794,0.166c1.931,0.105,4.334,0.238,6.03,2.291
				c1.878,2.273,2.87,5.041,2.87,8.002C171.764,171.715,166.282,177.539,159.792,177.539z M159.184,158.505
				c-4.059,0-5.142,4.845-5.142,7.709c0,4.715,1.881,7.007,5.75,7.007c4.579,0,7.654-4.342,7.654-8.399
				c0-1.945-0.651-3.763-1.882-5.253c-0.467-0.567-1.421-0.645-2.938-0.73c-0.752-0.041-1.53-0.083-2.33-0.229
				C159.912,158.54,159.538,158.505,159.184,158.505z"/>
		</g>
		<g>
			<path style="fill:#525D7D;" d="M160.683,170.317c-1.193,0-2.159-0.967-2.159-2.159c0-0.124-0.009-0.254-0.018-0.391
				c-0.015-0.238-0.028-0.485-0.028-0.735c0-0.495,0-2.002,1.248-3.248c0.843-0.841,2.205-0.839,3.049,0.003
				c0.832,0.831,0.843,2.173,0.034,3.021c-0.006,0.035-0.013,0.104-0.013,0.225c0,0.162,0.011,0.321,0.02,0.474
				c0.013,0.228,0.025,0.447,0.025,0.652C162.842,169.35,161.876,170.317,160.683,170.317z"/>
		</g>
		<g>
			<path style="fill:#525D7D;" d="M36.844,206.284c-14.571,0-21.949-0.43-23.412-9.939c-0.181-1.179,0.627-2.281,1.806-2.463
				c1.181-0.177,2.281,0.627,2.462,1.805c0.935,6.074,4.856,6.278,21.314,6.278l2.67-0.003c12.865,0,25.682-0.872,38.094-2.589
				c1.184-0.149,2.271,0.663,2.435,1.843c0.164,1.182-0.661,2.271-1.843,2.435c-12.607,1.746-25.623,2.63-38.686,2.63l-2.664,0.003
				C38.277,206.283,37.551,206.284,36.844,206.284z"/>
		</g>
		<g>
			<path style="fill:#525D7D;" d="M117.389,203.092H93.09c-1.193,0-2.159-0.967-2.159-2.159c0-1.192,0.966-2.159,2.159-2.159h24.299
				c1.193,0,2.159,0.967,2.159,2.159C119.549,202.125,118.582,203.092,117.389,203.092z"/>
		</g>
		<g>
			<path style="fill:#525D7D;" d="M136.191,203.671c-1.172,0-2.134-0.939-2.158-2.115c-0.024-1.192,0.923-2.179,2.115-2.203
				c2.536-0.051,5.036-0.074,7.479-0.098c18.647-0.18,33.375-0.322,36.781-11.67c0.343-1.143,1.541-1.788,2.688-1.448
				c1.142,0.343,1.79,1.546,1.447,2.688c-4.318,14.395-21.259,14.558-40.875,14.748C141.24,203.597,138.757,203.621,136.191,203.671
				z"/>
		</g>
	</g>
</g>
<g id="Layer_1">
</g>
</svg>
