<?xml version="1.0" encoding="iso-8859-1"?>
<!-- Generator: Adobe Illustrator 21.0.2, SVG Export Plug-In . SVG Version: 6.00 Build 0)  -->
<svg version="1.1" xmlns="http://www.w3.org/2000/svg" xmlns:xlink="http://www.w3.org/1999/xlink" x="0px" y="0px"
	 viewBox="0 0 208.771 196.758" style="enable-background:new 0 0 208.771 196.758;" xml:space="preserve">
<g id="_x34_3">
	<g>
		<g>
			<path style="fill:#E0DFE6;" d="M53.384,39.346c-0.029-0.377-0.059-0.755-0.088-1.132c0.681-0.874,1.039-1.992,0.664-3.11
				c-0.04-0.118-0.095-0.207-0.138-0.317c-0.273-2.481-1.721-4.567-3.96-5.87c-2.015-1.173-4.728-0.1-5.336,2.171
				c-0.139,0.517-0.256,1.035-0.358,1.553c-0.443,0.295-0.758,0.759-0.721,1.337c0.087,1.357,0.24,2.706,0.404,4.055
				c0.027,0.308,0.067,0.616,0.111,0.923c0.204,1.648,0.392,3.299,0.517,4.956c0.002,0.13,0.024,0.27,0.031,0.402
				c0.019,0.278,0.051,0.554,0.064,0.832c0.011,0.235,0.043,0.454,0.091,0.658c0.006,0.033,0.004,0.062,0.01,0.096
				c0.336,1.158,1.226,1.805,2.211,1.946c0.103,0.467,0.212,0.933,0.311,1.4c0.81,3.818,7.124,3.02,6.866-0.929
				c-0.139-2.137-0.315-4.271-0.481-6.406C53.517,41.054,53.451,40.2,53.384,39.346z"/>
		</g>
		<g>
			<path style="fill:#E0DFE6;" d="M111.245,103.602c-8.175,3.724-17.554,3.559-26.365,4.055c-9.603,0.541-19.239,0.958-28.858,0.677
				c-14.202-0.416-34.069-7.129-47.082,0.576c-1.543,0.913-0.858,3.285,0.901,3.326c9.56,0.221,18.398,0.604,27.927,2.134
				c9.241,1.485,18.506,2.106,27.866,2.096c15.93-0.017,34.945,0.926,49.747-5.791C120.171,108.502,116.014,101.43,111.245,103.602z
				"/>
		</g>
		<g>
			<path style="fill:#E0DFE6;" d="M122.375,60.504c-0.366-5.815-2.843-11.961-4.323-17.566c-1.597-6.046-2.988-12.313-5.758-17.938
				c-0.423-0.859-1.635-0.372-1.684,0.456c-0.31,5.334,0.586,10.672,1.317,15.957c0.413,2.982,1.025,18.554,4.003,19.918
				c-4.637-2.124-8.197,3.875-4,6.844C117.796,72.322,122.746,66.414,122.375,60.504z"/>
		</g>
		<g>
			<path style="fill:#E0DFE6;" d="M147.316,78.913c-2.323-1.985-3.847-4.432-5.517-6.954c-0.915-1.382-3-0.512-2.654,1.119
				c0.685,3.227,2.418,6.171,4.115,8.965C145.28,85.371,150.095,81.288,147.316,78.913z"/>
		</g>
		<g>
			<path style="fill:#E0DFE6;" d="M169.28,18.567c-1.189-1.095-2.786,0.27-2.15,1.659c3.883,8.48,2.036,16.445-2.048,23.742
				c-2.036-1.278-5.363-0.822-5.845,2.017c-0.533,3.136-0.893,6.267-1.257,9.428c-0.461,4.004,5.408,5.025,7.231,1.959
				C171.79,46.307,181.305,29.644,169.28,18.567z"/>
		</g>
		<g>
			<path style="fill:#E0DFE6;" d="M196.016,135.48c-0.073-0.714-0.156-1.428-0.255-2.143c0.695-3.703,0.279-7.496-1.928-11.208
				c1.633-0.556,3.106-2.088,3.279-3.832c1.211-12.206,1.025-31.964-8.736-41.033c-0.643-0.597-1.639-0.161-1.684,0.698
				c-0.346,6.556,2.319,13.248,2.953,19.804c0.511,5.28,0.469,10.52,0.011,15.763c-1.122,1.067-1.696,2.789-0.899,4.641
				c0.261,0.607,0.523,1.213,0.784,1.82c-1.646,0.521-2.971,2.249-2.657,4.418c0.494,3.412,0.758,6.969,1.241,10.461
				c-1.087,3.089-3.115,6.064-4.888,8.734c-1.261,1.899-0.243,3.724,1.347,4.515c-0.658,1.056-1.313,2.113-1.946,3.184
				c-1.175,1.987,1.796,4.47,3.299,2.546c2.444-3.128,4.739-6.368,7.101-9.557c1.581-0.121,3.095-1.274,3.185-3.278
				c0.013-0.299,0.002-0.601,0.007-0.901c0.064-0.08,0.124-0.164,0.188-0.244C197.596,138.396,197.188,136.44,196.016,135.48z"/>
		</g>
		<g>
			<path style="fill:#E0DFE6;" d="M201.076,134.431c-0.73-0.771-1.865,0.046-1.677,0.976c0.887,4.387,0.344,9.09-2.267,12.821
				c-0.71,1.014-1.54,1.799-2.43,2.478c-1.245-2.004-4.949-2.39-6.117,0.027c-0.986,2.04-1.651,4.084-2.274,6.259
				c-1.151,4.014,3.615,5.954,6.419,3.737c2.512-1.986,5.443-2.492,7.703-5.053c1.774-2.01,2.996-4.489,3.703-7.065
				C205.52,143.568,204.725,138.283,201.076,134.431z"/>
		</g>
		<g>
			<path style="fill:#E0DFE6;" d="M152.491,168.57c-0.506-2.957-1.622-5.628-3.774-7.803c-0.717-0.724-1.683-1.505-2.562-2.051
				c1.973-4.858,4.965-8.652,4.581-14.86c-0.355-5.729-2.542-10.175-6.476-14.223c-1.197-1.231-3.127,0.334-2.333,1.8
				c2.819,5.203,3.698,11.261,1.692,16.901c-0.612,1.722-1.54,3.203-2.513,4.642c-1.712-0.576-3.662-0.271-4.506,1.704
				c-1.648,3.855-0.944,5.954,0.6,7.596c0.438,1.709,2.033,2.816,3.687,2.992c1.677,1.308,3.278,2.865,3.962,5.409
				C146.195,175.689,153.335,173.51,152.491,168.57z"/>
		</g>
		<g>
			<path style="fill:#E0DFE6;" d="M97.578,185.021c-1.994-2.737-4.136-5.38-6.319-7.99c-2.277-5.219-5.358-10.045-9.428-14.173
				c0.76-0.257,1.479-0.748,2.057-1.542c-0.28,0.451,0.761,1.396,2.183,2.4c-0.785,3.441,1.187,7.491,6.464,7.416
				c3.311-0.047,4.466-2.972,3.639-5.298c1.479-1.98,1.09-5.347-2.006-6.558c-2.788-1.09-4.376-3.383-6.671-4.744
				c2.951-7.986,2.289-17.198-2.828-24.286c-1.074-1.488-3.898-0.673-3.201,1.35c2.874,8.347,2.45,16.777-2.919,23.815
				c-0.557,0.535-1.061,1.164-1.501,1.907c-1.264,2.133-0.431,4.045,1.097,5.039c-1.002,0.854-1.473,2.378-0.59,3.496
				c-1.821,1.353-2.653,4.517-0.933,6.571c1.361,1.625,2.711,3.272,4.064,4.921c0.951,1.988,1.613,4.173,2.37,6.101
				c1.336,3.402,2.846,6.48,5.28,9.238c2.306,2.613,5.829,0.763,6.599-1.985C97.353,190.127,99.361,187.468,97.578,185.021z"/>
		</g>
		<g>
			<path style="fill:#E0DFE6;" d="M148.831,189.527c-0.939-9.644-7.6-18.122-15.124-23.745c-0.954-0.713-1.976-0.792-2.889-0.48
				c-0.526,0.014-0.986,0.307-1.269,0.743c-1.369,1.183-2.084,3.284-1.066,4.962c4.354,7.183,7.981,14.636,11.403,22.299
				c1.321,2.957,5.132,2.018,6.394-0.332C147.799,192.705,149.032,191.589,148.831,189.527z"/>
		</g>
		<g>
			<path style="fill:#E0DFE6;" d="M203.475,172.332c-1.348-1.855-3.389-3.414-5.458-4.613c-0.047-0.072-0.092-0.144-0.139-0.216
				c0.097-0.262,0.191-0.526,0.249-0.804c0.562-2.654-0.921-5.152-3.585-5.745c-2.421-0.539-4.164,1.052-4.511,2.937
				c-0.171,0.026-0.368,0.058-0.619,0.102c-0.372,0.065-0.798,0.27-1.197,0.516c-3.003-0.303-6.059-0.047-9.057,0.792
				c-4.092,1.144-3.452,7.927,1.032,7.623c2.772-0.188,5.366-0.065,8.085,0.52c0.941,0.202,1.877,0.083,2.679-0.284
				c0.941,4.779,2.133,9.483,3.614,14.146c1.309,4.123,7.466,2.441,6.485-1.788c-0.006-0.027-0.013-0.055-0.019-0.081
				c1.645-0.279,3.134-1.558,3.238-3.667C204.425,178.666,205.402,174.984,203.475,172.332z"/>
		</g>
		<g>
			<path style="fill:#E0DFE6;" d="M139.771,130.114c-1.688-3.403-7.219-1.751-7.095,1.922c0.107,3.187-0.414,6.254-1.495,9.07
				c-0.879,1.584-1.771,3.162-2.722,4.702c-0.157,0.254-0.265,0.51-0.348,0.765c-1.589,2.06-3.562,3.868-5.905,5.323
				c-4.254,2.642-0.32,9.415,3.933,6.729c4.749-2.999,8.485-7.134,10.931-11.93C140.772,141.823,142.851,136.323,139.771,130.114z"
				/>
		</g>
		<g>
			<path style="fill:#E0DFE6;" d="M77.064,127.796c-0.325-2.166-3.87-1.637-3.799,0.514c0.118,3.607,0.714,9.823-0.108,14.77
				c-0.822-3.051-5.346-3.137-6.861-0.61c-2.417,4.03-7.32,10.703-6.163,15.783c0.803,3.527,4.219,5.527,7.629,4.285
				c1.702-0.62,2.505-1.928,2.593-3.264c0.701-0.429,1.293-1.047,1.623-1.861c0.196-0.483,0.363-0.962,0.524-1.44
				c0.888-0.693,3.091-1.754,3.621-2.308c1.491-1.56,1.954-3.303,2.225-5.42C79.198,141.601,78.053,134.373,77.064,127.796z"/>
		</g>
		<g>
			<path style="fill:#E0DFE6;" d="M167.99,95.212c-0.259,0.243-0.518,0.486-0.777,0.73c-0.974,0.915,0.55,2.44,1.466,1.466
				c0.243-0.259,0.486-0.518,0.73-0.777C170.294,95.689,168.933,94.327,167.99,95.212z"/>
		</g>
		<g>
			<path style="fill:#E0DFE6;" d="M126.615,90.428c-3.557-3.54-6.988-6.623-11.642-2.93c-2.957,2.346-4.77,4.094-8.89,2.906
				c-3.48-1.004-6.213-3.671-9.239-5.505c-0.059-0.036-0.119-0.045-0.179-0.069c-0.249-0.388-0.614-0.736-1.149-0.997
				c-5.204-2.537-9.636-5.42-14.163-9.015c-0.198-0.157-0.399-0.267-0.6-0.356c-0.746-1.568-2.85-2.424-4.419-0.856
				c-4.427,4.422-7.907,8.726-14.139,10.646c-7.37,2.271-14.625,0.835-21.427-2.508c-1.029-0.506-2.341,0.886-1.317,1.706
				c11.342,9.074,31.437,8.396,39.974-4.369c3.527,4.061,8.32,7.654,13.048,9.959c1.436,0.7,2.794,0.215,3.655-0.706
				c2.526,3.766,6.135,7.179,10.481,8.477c2.183,0.652,4.602,0.839,6.843,0.331c1.947-0.441,3.673-2.262,5.392-3.256
				c0.774,0.697,1.496,1.52,2.168,2.147C124.733,99.505,130.247,94.042,126.615,90.428z"/>
		</g>
		<g>
			<path style="fill:#E0DFE6;" d="M83.581,63.737c-0.838-1.778-3.263-1.371-4.201,0c-1.465,2.143-3.533,3.713-5.806,4.912
				c-2.352,1.241-0.284,4.684,2.07,3.542c1.243-0.603,2.408-1.33,3.525-2.123c0.957,1.358,3.171,1.826,4.23-0.058
				C84.536,67.99,84.562,65.818,83.581,63.737z"/>
		</g>
		<g>
			<path style="fill:#E0DFE6;" d="M163.723,13.336c-1.087-1.534-2.775-1.817-4.169-1.345c-0.142-0.077-0.277-0.161-0.436-0.224
				c-3.371-1.345-3.859-4.617-6.715-6.277c-2.15-1.25-4.55-0.616-6.867-0.084c-7.257,1.665-14.74,4.532-20.817,8.874
				c-1.693,1.21-0.741,4.53,1.542,3.657c6.191-2.367,13.121-5.954,19.872-6.223c3.208-0.128,3.143,1.574,5.191,3.664
				c1.657,1.691,3.645,2.674,5.865,3.391c0.582,0.188,1.113,0.237,1.593,0.181c2.926,6.978-2.54,11.225-5.426,17.748
				c-1.934,4.372-2.669,9.006-1.882,13.716c0.274,1.637,2.986,1.612,3.282,0c0.778-4.235,1.6-8.183,3.913-11.903
				c1.95-3.135,4.829-5.598,6.469-8.931C167.74,24.286,167.093,18.091,163.723,13.336z"/>
		</g>
		<g>
			<path style="fill:#525D7D;" d="M36.121,196.758c-1.226,0-2.246-0.961-2.308-2.198c-0.072-1.455-0.239-3.013-0.414-4.662
				c-0.259-2.42-0.525-4.922-0.525-7.398c0-13.949,10.081-16.025,16.751-17.4c5.726-1.179,7.392-1.885,7.392-4.281
				c0-1.882-0.776-2.372-4.096-3.647c-4.481-1.723-11.254-4.324-11.254-17.111c0-16.498,9.883-23.882,19.678-23.882
				c14.229,0,22.065,10.176,22.065,28.651c0,6.667-2.721,9.727-4.707,11.96c-1.321,1.486-1.956,2.257-1.956,3.525
				c0,0.575,0.163,0.928,0.237,1c14.121,0.67,20.467,12.969,20.467,24.843c0,1.534-0.105,3.082-0.315,4.603
				c-0.175,1.266-1.351,2.131-2.607,1.977c-1.266-0.175-2.15-1.342-1.977-2.606c0.181-1.313,0.273-2.65,0.273-3.974
				c0-8.976-4.225-19.666-16.132-20.261c-2.692-0.136-4.571-2.43-4.571-5.582c0-3.082,1.661-4.949,3.124-6.598
				c1.741-1.956,3.538-3.98,3.538-8.887c0-15.943-5.868-24.025-17.439-24.025c-6.944,0-15.053,5.043-15.053,19.257
				c0,9.609,4.025,11.156,8.288,12.793c3.145,1.209,7.062,2.713,7.062,7.965c0,6.529-6.146,7.793-11.084,8.811
				c-6.716,1.384-13.059,2.691-13.059,12.869c0,2.228,0.253,4.608,0.498,6.907c0.184,1.717,0.357,3.338,0.435,4.924
				c0.063,1.275-0.918,2.361-2.195,2.424C36.198,196.756,36.159,196.758,36.121,196.758z"/>
		</g>
		<g>
			<path style="fill:#525D7D;" d="M150.207,186.692c-1.149,0-2.146-0.855-2.292-2.025c-1.521-12.157-12.919-18.632-17.21-21.068
				c-1.813-1.03-2.811-1.598-2.811-3.09c0-3.361,2.465-5.768,5.074-8.318c3.472-3.391,7.408-7.235,7.408-14.407
				c0-12.196-9.972-19.66-15.404-19.66c-11.09,0-16.013,17.235-16.013,23.784c0,6.777,1.742,6.892,4.377,7.068
				c2.284,0.15,6.533,0.434,6.533,6.604c0,7.261-5.418,8.914-10.198,10.373c-5.291,1.616-10.289,3.141-12.159,10.992
				c-0.297,1.242-1.543,2.012-2.786,1.714c-1.242-0.295-2.01-1.542-1.714-2.786c2.483-10.429,9.896-12.692,15.309-14.343
				c5.127-1.565,6.922-2.427,6.922-5.949c0-1.841,0-1.841-2.213-1.989c-4.209-0.28-8.697-1.435-8.697-11.683
				c0-4.242,1.47-11.204,4.752-17.201c4.016-7.333,9.509-11.209,15.887-11.209c7.974,0,20.029,9.686,20.029,24.286
				c0,9.12-5.086,14.088-8.801,17.716c-1.507,1.471-2.858,2.79-3.414,3.962c0.065,0.036,0.133,0.074,0.202,0.113
				c4.842,2.751,17.707,10.058,19.516,24.516c0.158,1.268-0.741,2.424-2.007,2.582C150.4,186.686,150.303,186.692,150.207,186.692z"
				/>
		</g>
		<g>
			<path style="fill:#525D7D;" d="M150.626,193.403c-1.125,0-2.111-0.821-2.284-1.966c-0.178-1.178-0.268-2.346-0.268-3.474
				c0-10.561,7.648-17.131,13.794-22.41c3.436-2.951,6.681-5.738,6.681-7.843c0-1.113,0-1.574-2.116-1.574
				c-0.283,0-0.568,0.006-0.854,0.014c-0.318,0.006-0.635,0.014-0.947,0.014c-6.738,0-9.184-9.203-9.184-15.39
				c0-14.104,11.49-26.653,20.547-26.653c14.342,0,25.158,8.795,25.158,20.457c0,8.279-5.025,13.052-8.693,16.537
				c-2.15,2.042-4.007,3.805-4.007,5.378c0,2.667,0.872,3.013,5.32,3.593c5.972,0.777,14.997,1.951,14.997,19.38
				c0,1.208-0.026,2.414-0.05,3.621c-0.026,1.172-0.05,2.344-0.05,3.514c0,1.277-1.036,2.313-2.313,2.313
				c-1.277,0-2.313-1.036-2.313-2.313c0-1.203,0.026-2.406,0.05-3.612c0.026-1.173,0.05-2.349,0.05-3.523
				c0-13.366-5.327-14.06-10.968-14.794c-3.946-0.513-9.349-1.217-9.349-8.179c0-3.558,2.646-6.071,5.446-8.732
				c3.566-3.388,7.253-6.892,7.253-13.184c0-10.283-10.579-15.831-20.532-15.831c-6.142,0-15.922,10.081-15.922,22.027
				c0,4.495,1.735,10.764,4.558,10.764c0.278,0,0.56-0.006,0.843-0.014c0.321-0.006,0.642-0.014,0.958-0.014
				c5.865,0,6.741,3.883,6.741,6.199c0,4.228-3.843,7.53-8.294,11.352c-5.71,4.906-12.181,10.465-12.181,18.901
				c0,0.898,0.072,1.833,0.217,2.781c0.191,1.263-0.677,2.442-1.941,2.633C150.858,193.394,150.742,193.403,150.626,193.403z"/>
		</g>
		<g>
			<path style="fill:#525D7D;" d="M58.031,159.024c-1.277,0-2.313-1.036-2.313-2.313c0-1.277,1.036-2.313,2.313-2.313
				c1.667,0,3.397-0.343,5.231-0.708c1.971-0.39,4.01-0.795,6.13-0.795c1.646,0,3.136,0.244,4.556,0.745
				c1.205,0.425,1.837,1.745,1.411,2.95c-0.424,1.206-1.747,1.837-2.95,1.411c-2.292-0.806-5.192-0.381-8.248,0.227
				C62.19,158.619,60.151,159.024,58.031,159.024z"/>
		</g>
		<g>
			<path style="fill:#525D7D;" d="M58.621,168.232c-1.149,0-2.146-0.857-2.292-2.027c-0.158-1.266,0.741-2.423,2.009-2.581
				c2.411-0.301,4.844-0.53,7.199-0.75c2.319-0.218,4.716-0.443,7.057-0.735c1.247-0.149,2.423,0.741,2.581,2.009
				c0.158,1.266-0.741,2.423-2.009,2.581c-2.411,0.301-4.844,0.53-7.199,0.75c-2.319,0.218-4.716,0.443-7.057,0.735
				C58.814,168.226,58.718,168.232,58.621,168.232z"/>
		</g>
		<g>
			<path style="fill:#525D7D;" d="M130.731,156.398c-2.609,0-5.092-0.348-7.494-0.685c-1.652-0.232-3.213-0.45-4.769-0.554
				c-1.275-0.086-2.239-1.188-2.155-2.462c0.086-1.277,1.236-2.23,2.462-2.155c1.724,0.116,3.442,0.357,5.104,0.59
				c2.701,0.379,5.469,0.776,8.257,0.598c1.286-0.08,2.373,0.888,2.454,2.162c0.081,1.274-0.887,2.373-2.162,2.454
				C131.86,156.383,131.294,156.398,130.731,156.398z"/>
		</g>
		<g>
			<path style="fill:#525D7D;" d="M115.651,165.856c-1.277,0-2.313-1.036-2.313-2.313c0-1.277,1.036-2.313,2.313-2.313
				c4.898,0,9.963,0,14.878-0.578c1.269-0.148,2.418,0.757,2.567,2.028c0.149,1.268-0.759,2.418-2.028,2.567
				C125.885,165.856,120.683,165.856,115.651,165.856z"/>
		</g>
		<g>
			<path style="fill:#525D7D;" d="M172.972,158.134c-1.212,0-2.23-0.943-2.307-2.168c-0.08-1.274,0.888-2.373,2.164-2.453
				c2.417-0.152,4.781-0.227,7.068-0.301c2.24-0.074,4.556-0.148,6.892-0.294c1.31-0.083,2.373,0.89,2.453,2.164
				c0.08,1.275-0.89,2.373-2.164,2.453c-2.405,0.15-4.757,0.226-7.032,0.3c-2.251,0.072-4.58,0.148-6.928,0.295
				C173.068,158.133,173.02,158.134,172.972,158.134z"/>
		</g>
		<g>
			<path style="fill:#525D7D;" d="M173.824,167.028c-1.489,0-2.856-0.101-4.18-0.31c-1.262-0.199-2.123-1.382-1.924-2.644
				c0.199-1.262,1.388-2.122,2.644-1.924c1.083,0.17,2.215,0.253,3.46,0.253c2.347,0,4.698-0.289,7.185-0.595
				c1.888-0.232,3.841-0.471,5.802-0.575c1.305-0.057,2.364,0.914,2.432,2.188c0.068,1.275-0.912,2.364-2.188,2.432
				c-1.801,0.095-3.588,0.315-5.482,0.547C179.057,166.709,176.455,167.028,173.824,167.028z"/>
		</g>
		<g>
			<path style="fill:#525D7D;" d="M115.304,143.108c-0.211,0-0.425-0.029-0.637-0.089c-1.229-0.351-1.939-1.631-1.589-2.859
				c0.369-1.292,1.206-2.257,1.879-3.033c0.491-0.563,0.997-1.147,0.997-1.503c0-1.506-2.042-2.889-3.843-4.109
				c-0.809-0.548-1.573-1.066-2.218-1.629c-0.961-0.842-1.057-2.304-0.217-3.264c0.842-0.961,2.301-1.058,3.264-0.217
				c0.428,0.375,1.077,0.816,1.765,1.281c2.478,1.679,5.874,3.978,5.874,7.938c0,2.082-1.23,3.501-2.129,4.535
				c-0.391,0.453-0.837,0.965-0.924,1.271C117.236,142.447,116.31,143.108,115.304,143.108z"/>
		</g>
		<g>
			<path style="fill:#525D7D;" d="M176.247,154.394c-0.91,0-1.763-0.536-2.122-1.433c-0.267-0.667-4.255-15.25-4.255-17.51
				c0-1.602-2.474-3.019-4.866-4.391c-1.209-0.693-2.46-1.409-3.558-2.232c-1.021-0.766-1.229-2.216-0.462-3.239
				c0.769-1.021,2.216-1.227,3.239-0.462c0.869,0.652,1.942,1.268,3.081,1.92c3.204,1.836,7.193,4.12,7.193,8.403
				c0.108,1.614,3.469,14.505,3.937,15.83c0.422,1.187-0.176,2.518-1.355,2.962C176.804,154.344,176.524,154.394,176.247,154.394z"
				/>
		</g>
		<g>
			<path style="fill:#525D7D;" d="M6.322,98.977c-1.277,0-2.313-1.036-2.313-2.313v-0.176c0-0.521-0.008-1.048-0.038-1.578
				C2.587,70.009,1.018,41.784,1.018,14.42l0.003-2.079c0.003-0.616,0.251-1.206,0.691-1.638c0.432-0.426,1.015-0.664,1.622-0.664
				c12.656,0.152,25.495,0.477,37.911,0.792c17.144,0.435,34.871,0.884,52.283,0.884c4.743,0,9.351-0.033,13.696-0.099
				c1.265,0,2.281,0.964,2.344,2.195c0.307,6.032,0.578,12.099,0.849,18.167c0.431,9.596,0.875,19.517,1.456,29.122
				c0.077,1.275-0.893,2.371-2.168,2.448c-1.318,0.069-2.372-0.894-2.448-2.168c-0.584-9.641-1.03-19.582-1.459-29.196
				c-0.238-5.312-0.476-10.624-0.738-15.912c-3.701,0.047-7.571,0.069-11.532,0.069c-17.471,0-35.228-0.45-52.401-0.885
				c-11.635-0.294-23.641-0.598-35.484-0.76c0.01,27.15,1.571,55.201,2.947,79.96c0.033,0.617,0.044,1.229,0.044,1.834v0.176
				C8.634,97.941,7.598,98.977,6.322,98.977z"/>
		</g>
		<g>
			<path style="fill:#525D7D;" d="M115.09,108.692c-5.172-0.125-10.28-0.256-15.383-0.387c-22.765-0.581-46.304-1.184-69.449-1.184
				c-9.903,0-19.026,0.105-27.889,0.324c-0.661,0.011-1.242-0.229-1.689-0.675c-0.447-0.444-0.693-1.054-0.681-1.685
				c0.057-2.805,0.078-5.633,0.087-8.44c0.004-1.274,1.039-2.305,2.313-2.305c8.144,0.006,16.387,0.108,24.358,0.206
				c8.179,0.101,16.635,0.206,24.95,0.206c14.917,0,23.824-0.352,31.68-0.663c6.22-0.245,11.592-0.458,18.706-0.458
				c4.52,0,8.604,0.111,12.484,0.34c1.176,0.069,2.113,1.01,2.174,2.186c0.093,1.777,0.217,3.567,0.34,5.359
				c0.108,1.581,0.218,3.161,0.307,4.73c0.036,0.644-0.199,1.275-0.649,1.739C116.316,108.439,115.715,108.692,115.09,108.692z
				 M30.259,102.496c23.203,0,46.772,0.602,69.566,1.185c4.263,0.11,8.53,0.218,12.8,0.324c-0.048-0.721-0.098-1.444-0.148-2.168
				c-0.077-1.119-0.154-2.239-0.224-3.355c-3.179-0.149-6.523-0.223-10.159-0.223c-7.023,0-12.351,0.211-18.522,0.455
				c-7.9,0.312-16.855,0.665-31.864,0.665c-8.343,0-16.814-0.105-25.007-0.206c-7.205-0.089-14.634-0.181-21.999-0.202
				c-0.008,1.263-0.02,2.53-0.036,3.793C12.813,102.583,21.213,102.496,30.259,102.496z"/>
		</g>
		<g>
			<path style="fill:#525D7D;" d="M11.301,167.93c-0.324,0-0.654-0.068-0.968-0.212c-1.159-0.536-1.665-1.909-1.131-3.07
				c3.623-7.849,7.185-15.727,10.736-23.577c5.243-11.591,10.662-23.577,16.122-35.1c0.545-1.153,1.921-1.649,3.081-1.099
				c1.153,0.547,1.646,1.926,1.099,3.081c-5.442,11.486-10.853,23.452-16.087,35.023c-3.555,7.861-7.122,15.75-10.749,23.611
				C13.011,167.432,12.176,167.93,11.301,167.93z"/>
		</g>
		<g>
			<path style="fill:#525D7D;" d="M60.333,119.862c-1.277,0-2.313-1.036-2.313-2.313v-9.579c0-1.277,1.036-2.313,2.313-2.313
				c1.277,0,2.313,1.036,2.313,2.313v9.579C62.646,118.826,61.61,119.862,60.333,119.862z"/>
		</g>
		<g>
			<path style="fill:#525D7D;" d="M92.589,138.314c-0.78,0-1.542-0.395-1.977-1.11c-5.633-9.256-10.947-18.436-14.066-28.964
				c-0.363-1.224,0.336-2.512,1.561-2.874c1.217-0.36,2.512,0.336,2.874,1.561c2.96,9.995,8.114,18.888,13.582,27.871
				c0.664,1.092,0.318,2.514-0.772,3.179C93.414,138.206,93,138.314,92.589,138.314z"/>
		</g>
		<g>
			<path style="fill:#525D7D;" d="M51.213,88.592c-8.444,0-17.296-3.79-23.802-10.219c-6.307-6.234-9.729-14.301-9.631-22.715
				c0.206-16.864,14.542-31.003,31.956-31.521c0.372-0.012,0.742-0.014,1.123-0.015c14.583,0.036,26.404,7.636,30.845,19.833
				c0.438,1.2-0.181,2.527-1.382,2.963c-1.192,0.435-2.525-0.179-2.963-1.382c-3.76-10.325-13.919-16.757-26.516-16.789
				c-0.325,0.002-0.648,0.003-0.967,0.012c-14.971,0.446-27.294,12.537-27.47,26.954c-0.083,7.146,2.849,14.026,8.256,19.37
				c5.8,5.731,13.672,9.054,21.1,8.876c7.461-0.173,14.682-3.487,19.811-9.093c0.864-0.941,2.325-1.006,3.267-0.145
				c0.943,0.861,1.007,2.325,0.145,3.268c-5.975,6.53-14.399,10.392-23.114,10.596C51.651,88.589,51.432,88.592,51.213,88.592z"/>
		</g>
		<g>
			<path style="fill:#525D7D;" d="M94.424,27.796h-7.989c-1.277,0-2.313-1.036-2.313-2.313c0-1.277,1.036-2.313,2.313-2.313h7.989
				c1.277,0,2.313,1.036,2.313,2.313C96.737,26.76,95.701,27.796,94.424,27.796z"/>
		</g>
		<g>
			<path style="fill:#525D7D;" d="M95.152,36.511c-1.349,0-2.772-0.095-4.15-0.187c-1.361-0.09-2.646-0.176-3.84-0.176
				c-1.277,0-2.313-1.036-2.313-2.313c0-1.277,1.036-2.313,2.313-2.313c1.348,0,2.771,0.095,4.147,0.187
				c1.361,0.09,2.647,0.176,3.843,0.176c1.277,0,2.313,1.036,2.313,2.313C97.465,35.475,96.429,36.511,95.152,36.511z"/>
		</g>
		<g>
			<path style="fill:#525D7D;" d="M96.603,43.774h-8.715c-1.277,0-2.313-1.036-2.313-2.313c0-1.277,1.036-2.313,2.313-2.313h8.715
				c1.277,0,2.313,1.036,2.313,2.313C98.916,42.738,97.88,43.774,96.603,43.774z"/>
		</g>
		<g>
			<path style="fill:#525D7D;" d="M21.433,61.205c-1.212,0-2.23-0.943-2.307-2.168c-0.08-1.275,0.888-2.373,2.164-2.453
				c3.501-0.22,6.984-0.388,10.459-0.557c5.881-0.285,11.946-0.578,17.948-1.125c2.212-9.128,4.422-18.055,6.917-26.785
				c0.351-1.23,1.635-1.936,2.859-1.589c1.229,0.351,1.939,1.632,1.589,2.859c-2.619,9.158-4.927,18.566-7.258,28.204
				c-0.232,0.956-1.04,1.661-2.019,1.757c-6.646,0.661-13.339,0.985-19.812,1.299c-3.454,0.167-6.914,0.334-10.394,0.553
				C21.529,61.203,21.481,61.205,21.433,61.205z"/>
		</g>
		<g>
			<path style="fill:#525D7D;" d="M49.513,58.449c-0.917,0-1.786-0.55-2.147-1.455c-0.486-1.217-1.039-2.411-1.573-3.566
				c-1.036-2.24-2.108-4.556-2.757-7.157l-0.309-1.235c-1.15-4.629-2.238-9.001-4.147-13.137c-0.534-1.161-0.029-2.534,1.131-3.07
				c1.164-0.536,2.533-0.029,3.07,1.131c2.093,4.535,3.284,9.327,4.436,13.961l0.306,1.229c0.544,2.177,1.479,4.198,2.468,6.336
				c0.56,1.209,1.138,2.46,1.67,3.791c0.474,1.186-0.102,2.531-1.289,3.005C50.09,58.396,49.799,58.449,49.513,58.449z"/>
		</g>
		<g>
			<path style="fill:#525D7D;" d="M127.069,109.398c-1.277,0-2.313-1.036-2.313-2.313c0-1.453,0.007-2.913,0.015-4.38
				c0.008-1.47,0.015-2.944,0.015-4.422c0-2.858-0.026-6.125-0.185-9.474c-2.926,0.527-5.415,0.614-7.693,0.614
				c-9.923,0-27.808-1.462-36.094-11.254c-2.109-2.49-5.104-3.493-8.275-4.555c-6.143-2.057-13.107-4.389-13.107-17.709
				c0-0.578,0.006-1.156,0.014-1.736l0.004-0.482c0.011-0.968,0.622-1.826,1.533-2.153c2.137-0.765,4.364-1.153,6.622-1.153
				c8.304,0,14.968,5.005,16.873,12.403c9.387,0.105,17.79,3.993,25.923,7.754c13.496-9.024,21.128-11.005,25.28-12.083
				c2.993-0.777,2.993-0.777,2.993-3.709c0-1.198-0.208-1.391-2.466-2.293c-4.79-1.914-9.465-4.824-9.465-17.269
				c0-7.896,1.108-13.673,3.386-17.661c0.637-1.11,2.054-1.491,3.156-0.861c1.11,0.634,1.494,2.048,0.861,3.156
				c-1.87,3.27-2.778,8.297-2.778,15.366c0,10.353,3.332,11.686,6.556,12.973c2.269,0.906,5.375,2.149,5.375,6.589
				c0,5.949-1.771,6.97-6.457,8.187c-3.989,1.036-11.413,2.963-24.894,12.174c-0.673,0.462-1.536,0.53-2.274,0.191l-1.215-0.562
				c-8.215-3.801-16.688-7.732-25.77-7.297c-1.211,0.035-2.247-0.815-2.403-2.009c-0.941-7.161-7.233-10.424-12.681-10.424
				c-1.197,0-2.385,0.143-3.546,0.426c-0.001,0.158-0.001,0.316-0.001,0.473c0,9.99,4.174,11.388,9.95,13.321
				c3.466,1.161,7.395,2.475,10.338,5.955c7.345,8.679,25.219,9.616,32.563,9.616c2.471,0,5.428-0.083,9.271-1.063
				c0.664-0.167,1.37-0.036,1.926,0.364c0.556,0.402,0.905,1.028,0.953,1.714c0.312,4.404,0.354,8.775,0.354,12.47
				c0,1.486-0.008,2.969-0.015,4.446c-0.008,1.458-0.015,2.91-0.015,4.356C129.381,108.362,128.345,109.398,127.069,109.398z"/>
		</g>
		<g>
			<path style="fill:#525D7D;" d="M148.746,128.545c-1.066,0-2.025-0.742-2.259-1.828c-7.017-32.745-1.878-39.081,5.237-47.852
				c2.715-3.347,5.521-6.809,8.068-12.446c0.527-1.162,1.897-1.682,3.06-1.156c1.164,0.526,1.682,1.896,1.156,3.06
				c-2.793,6.184-5.927,10.048-8.691,13.457c-6.539,8.063-10.859,13.389-4.306,43.969c0.268,1.25-0.529,2.478-1.777,2.746
				C149.07,128.529,148.908,128.545,148.746,128.545z"/>
		</g>
		<g>
			<path style="fill:#525D7D;" d="M167.441,30.441c-0.027,0-0.054,0-0.08-0.002c-6.449-0.218-12.154-4.338-14.476-10.24
				c-4.418,0.229-9.147,0.333-15.047,0.333c-3.106,0-6.214-0.027-9.33-0.056c-2.353-0.021-4.713-0.042-7.078-0.051
				c-0.813-0.003-1.564-0.434-1.98-1.132c-0.414-0.699-0.432-1.565-0.045-2.28C125.161,6.36,134.867,0,145.369,0
				c16.37,0,24.936,11.945,24.936,23.744c0,1.695-0.211,3.367-0.626,4.967C169.412,29.732,168.489,30.441,167.441,30.441z
				 M154.531,15.477c1.046,0,1.973,0.708,2.238,1.733c1.102,4.255,4.586,7.487,8.804,8.372c0.072-0.601,0.107-1.211,0.107-1.839
				c0-12.552-10.218-19.118-20.311-19.118c-7.629,0-14.812,4.121-19.8,11.2c0.995,0.008,1.989,0.016,2.983,0.026
				c3.1,0.029,6.195,0.056,9.287,0.056c6.604,0,11.709-0.131,16.551-0.425C154.437,15.479,154.485,15.477,154.531,15.477z"/>
		</g>
		<g>
			<path style="fill:#525D7D;" d="M185.461,114.256c-1.173,0-2.179-0.89-2.298-2.082c-0.239-2.393-0.351-4.915-0.351-7.938
				c0-2.076,0.053-4.144,0.104-6.214c0.053-2.031,0.104-4.064,0.104-6.107c0-21.768-11.106-25.392-20.029-28.305
				c-5.137-1.677-10.448-3.41-10.448-9.068c0-5.908,3.391-10.508,6.67-14.956c2.911-3.949,5.66-7.678,5.809-11.984
				c0.045-1.277,1.138-2.302,2.391-2.232c1.277,0.044,2.275,1.114,2.231,2.391c-0.197,5.738-3.507,10.227-6.708,14.569
				c-2.966,4.023-5.769,7.824-5.769,12.211c0,2.093,2.1,2.987,7.258,4.669c9.247,3.018,23.22,7.578,23.22,32.703
				c0,2.082-0.053,4.154-0.105,6.225c-0.051,2.03-0.102,4.059-0.102,6.097c0,2.865,0.104,5.241,0.327,7.477
				c0.128,1.271-0.8,2.405-2.07,2.531C185.616,114.253,185.537,114.256,185.461,114.256z"/>
		</g>
		<g>
			<path style="fill:#525D7D;" d="M171.313,117.236c-0.068,0-0.136-0.003-0.203-0.009c-1.272-0.11-2.215-1.232-2.103-2.504
				c0.081-0.947,0.122-1.944,0.122-3.043c0-2.344-0.191-4.794-0.377-7.164c-0.191-2.45-0.388-4.983-0.388-7.491
				c0-0.623,0.01-1.247,0.038-1.866c0.057-1.277,1.152-2.271,2.412-2.21c1.277,0.057,2.266,1.137,2.21,2.412
				c-0.024,0.553-0.035,1.107-0.035,1.664c0,2.328,0.182,4.662,0.375,7.131c0.191,2.459,0.39,4.999,0.39,7.524
				c0,1.235-0.045,2.361-0.14,3.444C173.51,116.328,172.499,117.236,171.313,117.236z"/>
		</g>
		<g>
			<path style="fill:#525D7D;" d="M146.498,87.848c-0.679,0-1.351-0.297-1.807-0.867c-3.716-4.647-6.605-9.825-9.397-14.834
				c-1.542-2.765-3.136-5.622-4.833-8.319c-0.681-1.081-0.355-2.509,0.726-3.189c1.08-0.679,2.508-0.357,3.189,0.726
				c1.763,2.801,3.386,5.713,4.958,8.53c2.825,5.067,5.493,9.852,8.968,14.196c0.798,0.998,0.637,2.453-0.36,3.251
				C147.515,87.683,147.004,87.848,146.498,87.848z"/>
		</g>
		<g>
			<path style="fill:#525D7D;" d="M147.427,70.733c-3.617,0-5.778-3.707-5.778-7.292c0-1.277,1.036-2.313,2.313-2.313
				c1.277,0,2.313,1.036,2.313,2.313c0,1.432,0.772,2.667,1.152,2.667c0.37,0,0.84-0.783,1.025-1.711
				c0.25-1.253,1.471-2.073,2.721-1.814c1.253,0.25,2.064,1.468,1.814,2.721C152.33,68.602,150.147,70.733,147.427,70.733z"/>
		</g>
		<g>
			<path style="fill:#525D7D;" d="M141.145,78.989c-0.313,0-0.632-0.063-0.938-0.199c-1.167-0.519-1.692-1.887-1.174-3.054
				c0.571-1.283,1.141-2.493,1.711-3.706c0.557-1.182,1.113-2.364,1.668-3.615c0.519-1.165,1.881-1.695,3.054-1.174
				c1.167,0.519,1.693,1.887,1.174,3.053c-0.571,1.283-1.141,2.493-1.711,3.706c-0.557,1.182-1.113,2.364-1.668,3.615
				C142.877,78.477,142.032,78.989,141.145,78.989z"/>
		</g>
		<g>
			<path style="fill:#525D7D;" d="M154.945,77.299c-0.771,0-1.524-0.385-1.963-1.087l-4.224-6.758
				c-0.676-1.083-0.346-2.51,0.736-3.188c1.083-0.676,2.508-0.346,3.188,0.736l4.223,6.758c0.676,1.083,0.346,2.51-0.736,3.187
				C155.789,77.186,155.364,77.299,154.945,77.299z"/>
		</g>
	</g>
</g>
<g id="Layer_1">
</g>
</svg>
