<?xml version="1.0" encoding="iso-8859-1"?>
<!-- Generator: Adobe Illustrator 21.0.2, SVG Export Plug-In . SVG Version: 6.00 Build 0)  -->
<svg version="1.1" xmlns="http://www.w3.org/2000/svg" xmlns:xlink="http://www.w3.org/1999/xlink" x="0px" y="0px"
	 viewBox="0 0 175.693 195.526" style="enable-background:new 0 0 175.693 195.526;" xml:space="preserve">
<g id="_x34_4">
	<g>
		<g>
			<path style="fill:#E0DFE6;" d="M84.063,98.534c-2.115,5.184-4.407,10.334-6.301,15.602c-0.117,0.28-0.166,0.55-0.188,0.815
				c-0.51,0.645-1.041,1.278-1.616,1.882c-1.933,2.03,0.952,4.814,3.04,3.04c0.664-0.564,1.288-1.162,1.886-1.78
				c0.307,0.014,0.612-0.002,0.903-0.073c1.156,2.709,5.664,3.344,6.272-0.184c1.055-6.113,1.91-12.245,2.553-18.415
				C91.035,95.354,85.35,95.377,84.063,98.534z"/>
		</g>
		<g>
			<path style="fill:#E0DFE6;" d="M140.702,80.402c-3.273-13.348-22.003-6.855-31.118-7.844c-4.88-0.529-4.832,7.096,0,7.631
				c9.531,1.055,21.109-7.291,28.376,1.809C139.044,83.355,141.061,81.864,140.702,80.402z"/>
		</g>
		<g>
			<path style="fill:#E0DFE6;" d="M130.805,66.511c-3.531-1.118-7.267-1.415-10.644-2.703c0.542-0.337,0.922-0.896,0.86-1.606
				c-0.097-1.092-0.499-1.997-0.939-2.986c-0.73-1.639-3.614-0.849-3.431,0.929c0.074,0.716,0.155,1.381,0.328,2.039
				c-2.653-1.62-5.4,1.775-4.075,4.281c1.337,2.529,4.134,3.285,6.817,3.514c3.459,0.294,7.21,0.106,10.653-0.275
				C132.135,69.508,132.652,67.096,130.805,66.511z"/>
		</g>
		<g>
			<path style="fill:#E0DFE6;" d="M105.381,55.909c0.316-1.479-0.98-2.394-2.168-2.275c-1.596-1.032-3.338-1.535-5.372-1.372
				c-1.267,0.102-2.46,0.752-3.113,1.782c-2.172-1.465-4.216-3.137-6.335-4.72c-1.427-1.067-3.23,0.977-2.371,2.371
				c-1.539,1.249-2.218,3.673-0.453,5.33c3.282,3.08,6.825,5.833,10.606,8.273c1.859,1.2,4.279,0.142,5.111-1.713
				c0.832-0.517,1.376-1.488,1.534-2.536c0.696-0.091,1.333-0.518,1.567-1.392c0.022-0.083,0.045-0.167,0.067-0.25
				C105.347,58.462,105.798,57.123,105.381,55.909z"/>
		</g>
		<g>
			<path style="fill:#E0DFE6;" d="M74.818,60.954c-0.255-0.784-0.777-1.473-1.679-1.679c-1.152-0.262-2.747,0.351-2.957,1.679
				c-0.169,1.072-0.549,2.257-0.479,3.331c0.094,1.457,1.219,2.868,2.797,2.797c1.596-0.072,2.696-1.23,2.797-2.797
				C75.367,63.206,74.988,62.029,74.818,60.954z"/>
		</g>
		<g>
			<path style="fill:#E0DFE6;" d="M112.726,17.86c-0.331-2.333-3.256-2.871-4.98-2.026c-1.727,0.847-3.232,1.813-4.579,2.966
				c-1.13-2.756-2.124-5.566-3.673-8.129c-0.566-0.937-2.138-0.576-2.108,0.571c0.114,4.414,1.548,8.6,1.872,13
				c0.191,2.588,3.238,4.113,5.227,2.165c0.488-0.478,0.972-0.922,1.46-1.345c-0.692,4.678-2.799,8.894-6.418,12.499
				c-3.428,3.415,1.938,8.781,5.309,5.309C111.474,36.032,114.055,27.217,112.726,17.86z"/>
		</g>
		<g>
			<path style="fill:#E0DFE6;" d="M131.091,174.477c-2.234-2.926-4.357-5.936-6.614-8.842c-1.155-1.487-3.079-0.366-3.422,1.136
				c-0.053-0.803-0.383-1.619-1.125-2.35c-3.182-3.14-6.799-3.792-11.144-2.832c-3.112,0.687-6.802,1.953-9.688,3.309
				c-4.146,1.948-2.977,0.233-4.462-3.838c-1.337-3.666-1.931-5.415-5.757-5.885c-5.827-0.715-13.717,1.672-19.385,2.822
				c-1.445,0.293-1.133,2.674,0.35,2.586c3.165-0.188,6.324-0.323,9.495-0.342c1.819-0.011,6.14-0.783,7.625-0.048
				c2.695,1.334,1.621,8.062,4.078,11.053c6.286,7.653,17.727-6.987,23.426-1.364c2.571,2.536,6.138,0.353,6.554-2.371
				c0.031,0.213,0.089,0.427,0.199,0.635c0.725,1.38,1.485,2.741,2.247,4.103c-0.419,0.241-0.805,0.592-1.111,1.105
				c-5.725,9.596-22.339,13.493-32.6,14.417c-11.335,1.02-22.214-1.313-32.77-5.288c-1.602-0.603-2.508,1.845-1.133,2.688
				c11.85,7.268,26.13,9.279,39.767,7.318c10.174-1.463,24.583-5.647,31.115-14.554
				C128.784,180.027,133.069,177.069,131.091,174.477z"/>
		</g>
		<g>
			<path style="fill:#E0DFE6;" d="M160.523,166.317c-5.253-2.791-12.755-0.124-16.107-5.433c-3.753-5.944-3.675-14.463-2.898-21.17
				c0.249-2.146-2.958-2.321-3.586-0.485c-2.696,7.877-3.215,17.407,0.698,25.037c1.399,2.728,3.42,5.105,6.235,6.414
				c4.108,1.91,8.639,0.465,12.884,2.215C161.531,174.455,164.082,168.208,160.523,166.317z"/>
		</g>
		<g>
			<path style="fill:#E0DFE6;" d="M25.771,151.967c-1.477,0.865-2.662,2.243-4.025,3.286c-1.351,1.034-2.812,1.907-4.15,2.953
				c-1.506,1.177,0.133,3.655,1.821,3.128c1.696-0.529,3.324-1.44,4.843-2.35c1.487-0.89,3.334-1.877,4.433-3.23
				C30.331,153.74,28.292,150.49,25.771,151.967z"/>
		</g>
		<g>
			<path style="fill:#E0DFE6;" d="M169.455,65.199c-0.456,1.132-1.001,2.312-1.61,3.515c-0.116-0.004-0.224-0.025-0.344-0.016
				c-0.194,0.015-0.388,0.029-0.582,0.043c-2.19,0.163-3.425,1.595-3.566,3.509c-0.592,0.526-1.773,2.929-2.275,3.607
				c-1.76,2.378-3.607,4.684-5.58,6.888c-3.583,4.003-7.536,7.678-12.125,10.508c-2.534,1.562-5.278,2.811-8.131,3.703
				c-2.685,0.365-5.387,0.238-8.057-0.516c-1.762-0.497-3.086,0.348-3.739,1.586c-1.226-0.158-2.591-0.352-3.941-0.554
				c0.811-1.08,0.947-2.53-0.41-3.658c-1.033-0.862-2.069-1.721-3.109-2.575c-2.048-1.69-4.811-0.173-4.683,2.113
				c-0.174,0.099-0.336,0.213-0.497,0.33c-0.198-0.086-0.399-0.147-0.601-0.16c-0.264-0.915-0.517-1.833-0.805-2.74
				c-0.588-1.852-3.183-1.072-2.866,0.79c0.858,5.05,1.88,10.063,2.411,15.163c0.159,1.526,0.832,5.551,0.969,8.417
				c-0.32-0.443-0.571-0.961-0.68-1.63c-0.974-3.287-6.542-2.845-6.222,0.842c0.289,3.33,1.663,6.188,4.735,7.772
				c0.89,0.459,1.92,0.791,2.946,0.911c-0.098,0.528-0.114,1.068-0.034,1.561l0.065,0.399c0.006,0.034,0.023,0.063,0.03,0.097
				c-0.479-0.326-0.987-0.637-1.565-0.915c-7.637-3.678-19.025-2.384-27.267-3.169c-1.447-0.138-1.79,2.298-0.346,2.556
				c6.015,1.073,12.107,2.096,18.055,3.498c2.464,0.581,5.521,1.069,7.376,2.931c2.206,2.215,2.02,5.028,2.846,7.712
				c2.413,7.84,7.004,8.697,14.031,7.472c3.658-0.638,3.605-0.267,3.637,3.588c0.018,2.129-0.585,4.268-0.543,6.425
				c0.087,4.408,1.244,8.711,3.499,12.509c3.746,6.309,10.875,11.962,18.439,11.919c3.15-0.018,4.962-4.928,1.723-6.363
				c-5.43-2.405-10.292-3.952-13.598-9.393c-3.707-6.103-2.066-11.973-1.286-18.49c0.595-4.976-1.47-8.752-5.658-9.444
				c2.097-9.582,3.167-19.928-0.339-29.28c-0.644-1.717-3.35-1.58-3.343,0.452c0.025,8.077,0.181,15.738-1.727,23.39
				c-1.821,0.336-3.452,1.99-2.752,4.126c0.388,0.98,0.648,1.993,0.82,3.03c-0.351,0.154-0.638,0.257-0.801,0.264
				c-6.135,0.26-5.158-2.619-6.438-6.052c-0.636-1.707-1.339-3.176-2.287-4.429c0.623,0.166,1.273,0.195,1.847,0.037
				c3.952-1.089,3.972-6.029,3.817-9.41c-0.129-2.822-0.729-5.602-1.399-8.339c-0.135-0.551-1-3.783-1.506-6.567
				c0.291,0.11,0.577,0.216,0.833,0.307c7.042,2.519,14.908,2.128,21.967-0.186c5.914-1.483,11.364-4.942,16.181-9.278
				c2.739-2.465,5.501-5.135,8.035-8.011c3.688-3.809,8.037-8.85,8.282-12.706c1.004-2.412,1.737-4.927,2.084-7.561
				C173.693,63.312,170.216,63.312,169.455,65.199z"/>
		</g>
		<g>
			<path style="fill:#E0DFE6;" d="M92.635,88.532c-1.026-1.827-2.132-3.618-4.113-4.475c-1.256-0.543-2.626-0.555-3.658,0.472
				c-3.674,3.659-5.675,10.204-7.976,14.802c-2.581,5.157-6.027,10.537-7.18,16.218c-0.277,1.364,1.361,2.513,2.432,1.416
				c3.55-3.638,5.752-8.53,8.217-12.942c1.999-3.578,3.952-8.884,6.588-12.66c0.082,0.117,0.164,0.233,0.246,0.35
				C88.88,95.34,94.651,92.123,92.635,88.532z"/>
		</g>
		<g>
			<path style="fill:#E0DFE6;" d="M105.232,83.61c-0.648-0.838-1.996-1.474-3.064-1.045c-0.849,0.342-1.571,0.678-2.219,1.353
				c-1.132,1.179-1.259,3.258,0,4.414c1.317,1.209,3.096,1.147,4.414,0c0.453-0.394,0.844-0.934,1.097-1.485
				C105.963,85.752,106.004,84.61,105.232,83.61z"/>
		</g>
		<g>
			<path style="fill:#525D7D;" d="M131.865,97.588c-7.28,0-14.32-1.81-20.361-5.237c-1.053-0.596-1.422-1.935-0.825-2.987
				c0.599-1.05,1.933-1.421,2.987-0.824c5.382,3.053,11.676,4.666,18.199,4.666c18.551,0,33.691-11.378,38.667-28.664
				c-2.765,0.514-5.575,0.773-8.394,0.773c-12.618,0-18.465-3.899-24.655-8.026c-7.641-5.096-16.301-10.87-41.193-11.227
				c-1.156-0.017-2.1-0.927-2.157-2.081c-0.001-0.037-0.004-0.157-0.004-0.194c0-1.153,0.218-2.228,0.649-3.195
				c0.923-2.078,2.511-3.481,4.191-4.963c3.586-3.167,7.652-6.755,7.652-18.959c0-11.401-10.652-12.287-13.916-12.287
				c-6.107,0-12.632,2.964-17.551,7.79c1.402,0.029,2.743,0.044,4.043,0.05c0.836,0.003,1.598,0.482,1.963,1.234
				c0.365,0.753,0.27,1.648-0.244,2.305c-1.615,2.067-3.265,4.986-3.265,10.962c0,7.506,6.26,10.772,8.952,11.826
				c0.839,0.33,1.516,1.191,1.516,2.093c0,2.837-2.528,8.204-12.097,8.204c-0.626,0-1.257-0.014-1.887-0.028
				c-0.601-0.013-1.201-0.027-1.802-0.027c-6.454,0-13.4,3.518-13.4,11.241c0,4.497,1.672,12.106,7.94,12.106
				c0.639,0,1.247,0.28,1.663,0.765c0.417,0.485,0.599,1.128,0.502,1.76c-0.345,2.245-1.663,3.829-2.825,5.227
				c-0.883,1.061-1.651,1.984-1.699,2.872c0.434,0.069,1.261,0.138,2.835,0.138c3.706,0,4.408-1.295,4.408-3.686
				c0-2.571-1.679-5.318-3.302-7.973c-1.645-2.69-3.197-5.23-3.197-7.853c0-4.984,4.391-9.12,9.997-9.415
				c1.211-0.058,2.24,0.864,2.304,2.073c0.064,1.208-0.865,2.24-2.073,2.304c-3.224,0.17-5.846,2.431-5.846,5.039
				c0,1.39,1.298,3.514,2.553,5.566c1.849,3.026,3.946,6.455,3.946,10.26c0,3.013-1.143,8.069-8.79,8.069
				c-3.384,0-7.22,0-7.22-4.431c0-2.501,1.442-4.234,2.715-5.763c0.292-0.354,0.573-0.69,0.824-1.02
				c-6.241-1.865-9.119-9.176-9.119-16.036c0-9.053,7.478-15.624,17.782-15.624c0.633,0,1.267,0.014,1.9,0.029
				c0.598,0.013,1.196,0.027,1.789,0.027c4.467,0,6.478-1.424,7.27-2.605c-3.698-1.862-10.023-6.333-10.023-15.136
				c0-4.585,0.873-7.793,2.004-10.166c-1.551-0.03-3.171-0.074-4.887-0.134c-0.813-0.028-1.545-0.505-1.899-1.238
				c-0.353-0.733-0.271-1.602,0.214-2.255C74.519,5.076,83.941,0,92.705,0c11.116,0,18.298,6.544,18.298,16.669
				c0,14.181-5.28,18.842-9.134,22.244c-1.17,1.033-2.14,1.887-2.745,2.829c24.077,0.758,32.939,6.665,40.789,11.9
				c6.109,4.073,10.933,7.29,22.224,7.29c3.648,0,7.278-0.479,10.795-1.425c0.736-0.198,1.516,0,2.07,0.519
				c0.554,0.519,0.797,1.288,0.646,2.033C171.396,82.978,153.39,97.588,131.865,97.588z"/>
		</g>
		<g>
			<path style="fill:#525D7D;" d="M68.308,122.112c-3.541,0-5.919-2.027-5.919-5.043c0-0.235,0.039-0.468,0.113-0.692
				c0.098-0.298,9.953-30.246,11.265-60.895c0.053-1.208,1.046-2.14,2.284-2.096c1.208,0.053,2.147,1.074,2.096,2.284
				c-1.247,29.102-10.03,57.537-11.328,61.599c0.213,0.411,1.086,0.461,1.489,0.461c2.972,0,9.566-9.144,17.023-29.22
				c0.422-1.136,1.682-1.709,2.817-1.291c1.134,0.421,1.712,1.683,1.291,2.817C81.535,111.32,74.425,122.112,68.308,122.112z"/>
		</g>
		<g>
			<path style="fill:#525D7D;" d="M119.618,61.576c-0.561,0-1.121-0.214-1.549-0.642c-5.937-5.936-14.131-6.28-22.808-6.645
				c-2.996-0.125-6.093-0.255-9.04-0.643c-1.2-0.158-2.046-1.258-1.887-2.458c0.158-1.2,1.264-2.044,2.458-1.887
				c2.755,0.362,5.621,0.484,8.653,0.61c9.133,0.384,18.578,0.78,25.722,7.925c0.856,0.856,0.856,2.243,0,3.098
				C120.739,61.362,120.179,61.576,119.618,61.576z"/>
		</g>
		<g>
			<path style="fill:#525D7D;" d="M102.333,90.563c-2.962,0-10.752-3.385-10.752-11.007c0-5.271,3.625-8.35,6.823-11.066
				c2.67-2.267,4.976-4.225,4.976-7.053c0-0.599-0.114-1.208-0.348-1.86c-0.408-1.14,0.184-2.394,1.322-2.803
				c1.144-0.407,2.394,0.183,2.803,1.322c0.401,1.12,0.605,2.244,0.605,3.341c0,4.856-3.465,7.798-6.521,10.394
				c-2.832,2.405-5.278,4.482-5.278,7.725c0,4.799,5.425,6.625,6.37,6.625c0.3,0,2.93-0.056,2.93-1.996
				c0-0.498-0.202-0.763-0.829-1.455c-0.679-0.75-1.706-1.886-1.706-3.653c0-0.989,0.391-1.412,2.037-3.198
				c2.476-2.686,9.054-9.823,9.054-14.198c0-1.529-0.559-2.954-1.709-4.36c-0.766-0.937-0.628-2.317,0.308-3.084
				c0.939-0.765,2.317-0.629,3.084,0.308c1.79,2.19,2.699,4.589,2.699,7.136c0,6.087-6.899,13.571-10.214,17.169
				c-0.194,0.21-0.397,0.429-0.581,0.63c0.094,0.109,0.194,0.218,0.277,0.311c0.782,0.863,1.961,2.168,1.961,4.395
				C109.645,87.882,106.57,90.563,102.333,90.563z"/>
		</g>
		<g>
			<path style="fill:#525D7D;" d="M99.287,70.95c-0.932,0-1.795-0.596-2.09-1.531c-0.602-1.909-0.883-3.909-0.883-6.295
				c0-1.755,0.154-3.489,0.304-5.167c0.091-1.036,0.184-2.071,0.238-3.107c0.063-1.208,1.107-2.136,2.302-2.074
				c1.21,0.064,2.137,1.094,2.074,2.302c-0.057,1.089-0.154,2.178-0.25,3.267c-0.148,1.655-0.287,3.218-0.287,4.779
				c0,1.926,0.215,3.506,0.68,4.974c0.364,1.154-0.275,2.385-1.429,2.75C99.728,70.917,99.505,70.95,99.287,70.95z"/>
		</g>
		<g>
			<path style="fill:#525D7D;" d="M105.966,122.287c-8.093,0-12.447-12.554-15.945-22.641c-1.282-3.7-2.738-7.896-3.622-8.78
				c-0.856-0.856-0.856-2.243,0-3.098c0.856-0.856,2.242-0.856,3.098,0c1.522,1.522,2.705,4.793,4.665,10.444
				c2.539,7.324,6.782,19.557,11.721,19.692c0.003-0.218,0.001-0.464,0-0.672l-0.001-0.472c0-5.676-1.457-11.333-3-17.321
				c-0.649-2.524-1.322-5.133-1.867-7.722c-0.25-1.184,0.508-2.347,1.692-2.596c1.186-0.24,2.348,0.508,2.596,1.692
				c0.525,2.495,1.185,5.056,1.823,7.534c1.544,5.989,3.139,12.183,3.139,18.414l0.001,0.444c0.01,1.408,0.019,2.863-1.086,3.974
				C108.077,122.287,106.488,122.287,105.966,122.287z"/>
		</g>
		<g>
			<path style="fill:#525D7D;" d="M103.531,34.497c-0.427,0-0.857-0.124-1.235-0.382c-3.546-2.427-4.14-6.15-4.665-9.435
				c-0.795-4.979-1.32-8.268-10.629-8.268c-1.12,0-2.257,0.04-3.387,0.08c-1.703,0.06-3.389,0.117-4.997,0.053
				c-1.208-0.047-2.151-1.066-2.104-2.275c0.047-1.208,1.014-2.167,2.275-2.104c1.501,0.058,3.08,0.003,4.672-0.053
				c1.183-0.041,2.371-0.083,3.541-0.083c13.047,0,14.151,6.913,14.957,11.96c0.441,2.762,0.822,5.147,2.81,6.508
				c1,0.683,1.255,2.047,0.572,3.046C104.916,34.163,104.23,34.497,103.531,34.497z"/>
		</g>
		<g>
			<path style="fill:#525D7D;" d="M48.79,134.762c-0.855,0-1.666-0.502-2.02-1.337c-2.405-5.686-3.578-11.86-3.484-18.353
				c0.154-10.514,4.117-20.601,11.161-28.4c0.81-0.9,2.198-0.969,3.094-0.158c0.899,0.812,0.97,2.197,0.158,3.094
				c-6.331,7.012-9.895,16.077-10.032,25.527c-0.086,5.882,0.97,11.459,3.138,16.581c0.471,1.116-0.05,2.401-1.164,2.873
				C49.363,134.707,49.074,134.762,48.79,134.762z"/>
		</g>
		<g>
			<path style="fill:#525D7D;" d="M122.26,138.638c-0.364,0-0.73-0.09-1.07-0.28c-1.056-0.592-1.432-1.927-0.84-2.983
				c3.307-5.903,5.036-12.654,4.997-19.521c-0.037-6.973-2.024-13.772-5.746-19.662c-0.648-1.024-0.342-2.377,0.68-3.023
				c1.021-0.645,2.377-0.342,3.023,0.68c4.161,6.585,6.384,14.186,6.425,21.98c0.043,7.624-1.879,15.123-5.557,21.688
				C123.772,138.235,123.026,138.638,122.26,138.638z"/>
		</g>
		<g>
			<path style="fill:#525D7D;" d="M2.193,186.71c-0.166,0-0.334-0.019-0.504-0.059c-1.178-0.277-1.907-1.456-1.631-2.635
				c4.715-20.039,12.599-21.919,20.271-22.127c3.644-0.098,4.111-0.111,4.111-3.605c0-0.758-0.057-1.551-0.113-2.354
				c-0.064-0.923-0.127-1.857-0.127-2.769c0-0.033,0.003-0.161,0.004-0.194c0.046-1.02,0.792-1.873,1.797-2.056
				c3.815-0.693,7.629-0.782,10.527-0.782c0.986,0,1.971,0.011,2.954,0.026c16.604-31.129,21.407-32.211,38.42-31.718
				c2.014,0.058,4.297,0.124,6.785,0.124c26.4,0,28.96,0.755,30.448,8.969c0.439,2.422,0.974,5.378,3.395,9.399
				c3.124-0.867,6.311-1.663,9.407-2.436c2.456-0.615,4.912-1.228,7.344-1.877c0.655-0.177,1.362-0.036,1.903,0.382
				c0.541,0.417,0.856,1.061,0.853,1.743c-0.007,1.852-0.058,3.769-0.111,5.713c-0.059,2.129-0.117,4.29-0.117,6.434
				c0,16.918,6.317,22.946,12.227,22.946c1.305,0,2.726-0.345,4.23-0.712c1.672-0.408,3.401-0.829,5.201-0.829
				c7.061,0,9.615,6.535,11.305,10.86c0.469,1.204,0.914,2.34,1.367,3.17c0.58,1.063,0.188,2.394-0.873,2.973
				c-1.061,0.583-2.394,0.19-2.973-0.873c-0.586-1.076-1.08-2.338-1.604-3.675c-1.846-4.728-3.445-8.073-7.223-8.073
				c-1.274,0-2.678,0.342-4.164,0.705c-1.689,0.411-3.435,0.836-5.267,0.836c-8.03,0-16.609-7.18-16.609-27.328
				c0-2.183,0.06-4.385,0.118-6.552c0.024-0.927,0.05-1.846,0.07-2.756c-1.535,0.394-3.074,0.779-4.615,1.164
				c-3.583,0.896-7.288,1.822-10.836,2.843c-0.92,0.267-1.899-0.096-2.428-0.887c-3.659-5.472-4.414-9.633-4.912-12.388
				c-0.522-2.883-0.632-3.482-2.89-4.14c-3.534-1.027-11.2-1.228-23.247-1.228c-2.551,0-4.868-0.067-6.91-0.125
				c-15.357-0.441-18.56-0.536-35.053,30.575c-0.388,0.729-1.148,1.156-1.973,1.166c-1.405-0.024-2.813-0.047-4.223-0.047
				c-2.227,0-5.026,0.054-7.876,0.422c0.014,0.231,0.031,0.462,0.047,0.693c0.063,0.906,0.123,1.802,0.123,2.656
				c0,7.759-4.84,7.89-8.374,7.986c-5.253,0.143-11.789,0.319-16.126,18.751C4.087,186.03,3.187,186.71,2.193,186.71z"/>
		</g>
		<g>
			<path style="fill:#525D7D;" d="M126.775,183.302c-0.785,0-1.545-0.424-1.937-1.166c-2.19-4.134-5.301-7.722-8.415-11.161
				c-7.052,3.401-15.268,5.097-25.052,5.181c-0.943-0.051-1.755-0.565-2.074-1.432c-1.365-3.698-1.9-7.681-2.167-11.307
				c-3.547-0.016-7.15-0.301-10.638-0.579c-3.034-0.241-6.164-0.489-9.184-0.548c-5.942,4.882-11.223,10.919-16.334,16.765
				l-2.076,2.368c-0.799,0.907-2.184,0.997-3.093,0.197c-0.909-0.799-0.997-2.184-0.197-3.093l2.066-2.357
				c5.411-6.187,11.006-12.585,17.498-17.792c0.389-0.312,0.873-0.482,1.371-0.482c3.434,0.028,6.923,0.305,10.295,0.574
				c4.073,0.325,8.271,0.653,12.284,0.541c1.225-0.001,2.191,0.907,2.253,2.074c0.177,3.345,0.506,7.158,1.548,10.661
				c9.064-0.255,16.592-2.031,22.975-5.414c0.884-0.474,1.973-0.277,2.646,0.461l0.123,0.134c3.619,3.979,7.361,8.093,10.043,13.159
				c0.566,1.07,0.16,2.395-0.91,2.962C127.473,183.221,127.122,183.302,126.775,183.302z"/>
		</g>
		<g>
			<path style="fill:#525D7D;" d="M34.265,150.927c-0.712,0-1.411-0.347-1.832-0.986c-0.913-1.388-1.779-2.815-2.571-4.24
				c-0.588-1.058-0.205-2.392,0.852-2.98c1.053-0.585,2.391-0.208,2.98,0.852c0.739,1.33,1.546,2.662,2.399,3.957
				c0.665,1.011,0.385,2.37-0.625,3.036C35.098,150.81,34.678,150.927,34.265,150.927z M26.631,134.754
				c-0.936,0-1.803-0.605-2.093-1.548c-0.591-1.919-1.097-3.889-1.507-5.855c-0.247-1.184,0.514-2.345,1.699-2.592
				c1.177-0.245,2.345,0.515,2.592,1.699c0.381,1.833,0.855,3.671,1.404,5.461c0.355,1.157-0.294,2.382-1.451,2.738
				C27.062,134.722,26.845,134.754,26.631,134.754z M23.854,116.037c-1.214-0.001-2.193-0.984-2.191-2.194
				c0.003-2.016,0.098-4.046,0.285-6.033c0.111-1.205,1.177-2.096,2.385-1.977c1.205,0.113,2.09,1.181,1.977,2.385
				c-0.173,1.854-0.263,3.749-0.265,5.631C26.043,115.059,25.062,116.037,23.854,116.037z M26.698,97.338
				c-0.215,0-0.434-0.031-0.65-0.098c-1.155-0.36-1.802-1.588-1.442-2.743c0.595-1.912,1.288-3.822,2.063-5.679
				c0.466-1.117,1.75-1.643,2.866-1.18c1.117,0.466,1.645,1.749,1.18,2.866c-0.723,1.732-1.369,3.512-1.923,5.294
				C28.498,96.736,27.633,97.338,26.698,97.338z M34.971,80.335c-0.429,0-0.862-0.126-1.243-0.387
				c-0.996-0.688-1.247-2.051-0.561-3.049c1.138-1.652,2.368-3.271,3.652-4.812c0.776-0.929,2.156-1.053,3.087-0.28
				c0.929,0.776,1.054,2.157,0.28,3.087c-1.2,1.438-2.347,2.949-3.409,4.492C36.352,80.004,35.667,80.335,34.971,80.335z
				 M47.904,66.526c-0.648,0-1.288-0.285-1.72-0.832c-0.75-0.95-0.589-2.328,0.36-3.078c1.571-1.241,3.221-2.427,4.909-3.525
				c1.013-0.66,2.372-0.374,3.031,0.641c0.661,1.014,0.374,2.371-0.641,3.031c-1.575,1.026-3.117,2.133-4.581,3.291
				C48.86,66.372,48.38,66.526,47.904,66.526z"/>
		</g>
		<g>
			<path style="fill:#525D7D;" d="M141.479,148.403c-0.381,0-0.766-0.098-1.117-0.307c-1.04-0.618-1.384-1.962-0.766-3.003
				c0.957-1.613,1.85-3.288,2.653-4.976c0.519-1.094,1.832-1.558,2.919-1.039c1.094,0.519,1.558,1.826,1.039,2.919
				c-0.86,1.81-1.816,3.603-2.842,5.332C142.955,148.021,142.226,148.403,141.479,148.403z M148.59,130.874
				c-0.168,0-0.338-0.019-0.509-0.06c-1.177-0.28-1.905-1.461-1.624-2.639c0.432-1.815,0.785-3.678,1.05-5.539
				c0.171-1.197,1.268-2.026,2.479-1.86c1.198,0.171,2.03,1.281,1.86,2.479c-0.285,1.993-0.663,3.99-1.127,5.936
				C150.48,130.196,149.581,130.874,148.59,130.874z M150.175,112.022c-1.146,0-2.109-0.89-2.184-2.05
				c-0.121-1.879-0.331-3.765-0.621-5.606c-0.188-1.194,0.628-2.317,1.823-2.505c1.185-0.188,2.317,0.628,2.505,1.823
				c0.312,1.973,0.535,3.993,0.666,6.006c0.078,1.207-0.837,2.25-2.046,2.328C150.271,112.02,150.223,112.022,150.175,112.022z"/>
		</g>
		<g>
			<path style="fill:#525D7D;" d="M87.081,195.526c-18.652,0-36.207-6.128-50.768-17.722c-0.946-0.755-1.103-2.133-0.349-3.08
				c0.756-0.946,2.133-1.103,3.08-0.35c13.776,10.97,30.388,16.769,48.038,16.769c15.629,0,30.681-4.646,43.529-13.438
				c0.999-0.68,2.362-0.427,3.046,0.572c0.683,0.999,0.428,2.362-0.572,3.046C119.505,190.615,103.598,195.526,87.081,195.526z"/>
		</g>
		<g>
			<path style="fill:#525D7D;" d="M144.228,171.236c-0.548,0-1.096-0.204-1.521-0.613c-0.872-0.839-0.897-2.227-0.057-3.098
				c1.305-1.355,2.582-2.779,3.793-4.233c0.776-0.932,2.158-1.054,3.086-0.281c0.93,0.775,1.056,2.157,0.281,3.086
				c-1.278,1.535-2.626,3.038-4.004,4.469C145.376,171.013,144.803,171.236,144.228,171.236z M155.66,156.133
				c-0.377,0-0.756-0.096-1.104-0.299c-1.044-0.611-1.397-1.952-0.786-2.997c0.949-1.623,1.85-3.307,2.681-5.004
				c0.534-1.088,1.849-1.536,2.932-1.006c1.087,0.532,1.538,1.844,1.006,2.932c-0.879,1.793-1.832,3.574-2.835,5.29
				C157.146,155.745,156.413,156.133,155.66,156.133z M163.189,138.754c-0.207,0-0.417-0.028-0.625-0.09
				c-1.16-0.344-1.822-1.564-1.478-2.725c0.538-1.812,1.013-3.66,1.411-5.497c0.257-1.183,1.424-1.933,2.606-1.676
				c1.183,0.257,1.933,1.424,1.676,2.606c-0.421,1.942-0.923,3.897-1.491,5.813C165.007,138.138,164.134,138.754,163.189,138.754z
				 M166.356,120.082c-0.036,0-0.071-0.001-0.107-0.003c-1.208-0.058-2.141-1.086-2.083-2.294c0.061-1.265,0.091-2.539,0.093-3.822
				c0-0.619-0.007-1.241-0.023-1.86c-0.028-1.21,0.927-2.215,2.137-2.245c1.23,0.006,2.215,0.927,2.245,2.137
				c0.016,0.656,0.023,1.313,0.023,1.971c-0.001,1.354-0.034,2.696-0.098,4.03C168.488,119.169,167.518,120.082,166.356,120.082z
				 M165.035,101.18c-1.03,0-1.949-0.73-2.15-1.779c-0.355-1.859-0.783-3.722-1.271-5.536c-0.315-1.168,0.378-2.371,1.546-2.685
				c1.175-0.314,2.371,0.378,2.685,1.546c0.516,1.919,0.969,3.887,1.345,5.85c0.227,1.188-0.552,2.337-1.74,2.565
				C165.311,101.167,165.172,101.18,165.035,101.18z"/>
		</g>
		<g>
			<path style="fill:#525D7D;" d="M22.835,162.767c-0.676,0-1.344-0.312-1.773-0.902c-1.168-1.606-2.295-3.283-3.35-4.983
				c-0.636-1.029-0.319-2.379,0.709-3.017c1.027-0.635,2.378-0.321,3.017,0.709c0.996,1.608,2.061,3.193,3.167,4.712
				c0.712,0.979,0.496,2.35-0.482,3.062C23.734,162.63,23.283,162.767,22.835,162.767z M13.605,146.223
				c-0.864,0-1.683-0.514-2.03-1.362c-0.758-1.853-1.452-3.75-2.067-5.636c-0.374-1.15,0.255-2.387,1.407-2.762
				c1.154-0.375,2.387,0.257,2.762,1.407c0.581,1.785,1.238,3.579,1.956,5.334c0.458,1.12-0.08,2.399-1.2,2.857
				C14.162,146.172,13.881,146.223,13.605,146.223z M8.579,127.955c-1.067,0-2.003-0.78-2.164-1.867
				c-0.294-1.969-0.518-3.976-0.666-5.967c-0.09-1.207,0.816-2.258,2.023-2.348c1.198-0.09,2.26,0.816,2.348,2.023
				c0.14,1.884,0.352,3.783,0.629,5.645c0.178,1.197-0.646,2.312-1.843,2.491C8.796,127.948,8.686,127.955,8.579,127.955z
				 M8.032,109.016c-0.066,0-0.131-0.003-0.197-0.009c-1.205-0.107-2.096-1.171-1.989-2.377c0.177-1.98,0.429-3.981,0.752-5.953
				c0.195-1.194,1.333-2.007,2.517-1.809c1.194,0.195,2.004,1.322,1.809,2.516c-0.305,1.866-0.545,3.762-0.712,5.634
				C10.11,108.158,9.153,109.016,8.032,109.016z M11.953,90.489c-0.235,0-0.474-0.037-0.709-0.118
				c-1.146-0.391-1.756-1.636-1.364-2.782c0.645-1.887,1.368-3.773,2.148-5.602c0.475-1.111,1.76-1.631,2.876-1.155
				c1.113,0.475,1.631,1.763,1.155,2.876c-0.739,1.73-1.424,3.513-2.034,5.3C13.715,89.917,12.865,90.489,11.953,90.489z
				 M20.182,73.432c-0.405,0-0.813-0.111-1.18-0.345c-1.019-0.652-1.317-2.007-0.665-3.027c1.071-1.675,2.223-3.335,3.419-4.933
				c0.726-0.97,2.101-1.164,3.067-0.439c0.969,0.725,1.166,2.098,0.439,3.067c-1.131,1.512-2.22,3.083-3.234,4.668
				C21.611,73.075,20.903,73.432,20.182,73.432z M32.217,58.804c-0.576,0-1.153-0.227-1.583-0.676
				c-0.836-0.874-0.806-2.262,0.069-3.098c1.441-1.377,2.949-2.719,4.485-3.987c0.933-0.772,2.314-0.639,3.084,0.294
				c0.77,0.933,0.639,2.314-0.294,3.084c-1.454,1.201-2.882,2.472-4.245,3.776C33.307,58.603,32.762,58.804,32.217,58.804z
				 M47.363,47.424c-0.756,0-1.492-0.392-1.899-1.094c-0.605-1.047-0.247-2.388,0.8-2.994c1.728-0.998,3.512-1.946,5.303-2.813
				c1.09-0.528,2.401-0.071,2.927,1.016c0.528,1.09,0.073,2.399-1.016,2.927c-1.695,0.822-3.384,1.718-5.02,2.665
				C48.114,47.33,47.736,47.424,47.363,47.424z M64.774,39.965c-0.949,0-1.822-0.621-2.101-1.576
				c-0.34-1.161,0.327-2.378,1.488-2.718c1.916-0.561,3.875-1.056,5.82-1.469c1.177-0.245,2.347,0.501,2.599,1.686
				c0.252,1.184-0.502,2.347-1.686,2.599c-1.84,0.392-3.692,0.86-5.504,1.39C65.185,39.936,64.978,39.965,64.774,39.965z"/>
		</g>
	</g>
</g>
<g id="Layer_1">
</g>
</svg>
