<?xml version="1.0" encoding="iso-8859-1"?>
<!-- Generator: Adobe Illustrator 21.0.2, SVG Export Plug-In . SVG Version: 6.00 Build 0)  -->
<svg version="1.1" xmlns="http://www.w3.org/2000/svg" xmlns:xlink="http://www.w3.org/1999/xlink" x="0px" y="0px"
	 viewBox="0 0 187.954 209.718" style="enable-background:new 0 0 187.954 209.718;" xml:space="preserve">
<g id="_x34_5">
	<g>
		<g>
			<path style="fill:#E0DFE6;" d="M121.14,124.644c2.8-7.295,2.327-15.706-2.399-22.972c-0.961-1.478-3.587-0.577-2.976,1.255
				c4.027,12.068,0.419,23.919-10.903,30.243c-2.025,1.131-2.012,3.271-0.989,4.735c-3.275,1.22-7.123,1.377-11.758,0.169
				c-10.777-2.808-17.095-11.609-18.895-22.148c-0.236-1.383-2.561-1.385-2.796,0c-2.286,13.487,7.354,24.977,19.857,28.8
				c14.372,4.396,26.016-2.413,31.707-15.772C122.701,127.281,122.164,125.687,121.14,124.644z"/>
		</g>
		<g>
			<path style="fill:#E0DFE6;" d="M162.697,117.06c0.957-1.871-1.546-4.142-3.072-2.37c-7.441,8.637-16.909,12.968-26.737,17.018
				c1.407-9.324-2.23-18.866-6.95-26.832c-0.999-1.686-3.548-0.558-3.112,1.312c1.734,7.445,5.513,20.464,2.337,28.702
				c-3.019,1.273-6.031,2.615-8.989,4.144c-1.483,0.766-1.897,2.066-1.633,3.278c-0.374,0.035-0.741,0.076-1.136,0.092
				c-4.559,0.184-4.581,6.959,0,7.099c3.08,0.094,5.978-0.602,8.559-1.889c-0.78,2.179,0.68,5.016,3.268,4.293
				c-6.484,3.548-13.441,5.773-22.096,5.866c-14.349,0.155-28.161-4.478-41.739-8.576c-1.746-0.527-2.972,2.188-1.266,3.003
				c14.662,7.004,30.318,13.161,46.868,12.343c15.339-0.758,27.742-8.083,38.709-18.416c1.454-1.37,1.379-2.987,0.553-4.179
				c5.539-3.55,10.446-7.922,13.991-13.708c1.114-1.819-1.499-3.89-2.978-2.298c-8.638,9.296-19.573,14.227-31.092,18.804
				c1.375-1.241,2.571-2.693,3.572-4.295C142.581,135.18,156.265,129.636,162.697,117.06z"/>
		</g>
		<g>
			<path style="fill:#E0DFE6;" d="M154.291,174.479c-0.01,1.769-0.082,3.549-0.326,5.303c-0.015,0.109-0.222,1.017-0.391,1.82
				c-3.384-1.264-6.197-3.47-9.456-4.949c-0.38-0.173-0.771-0.211-1.138-0.161c-1.104-7.288-2.702-14.589-2.567-21.311
				c0.052-2.578-3.792-2.525-3.972,0c-0.993,13.958,2.559,27.437-1.088,40.796c-13.388,2.714-69.144,5.151-75.198,5.788
				c-2.472,0.26-2.592,3.889,0,3.942c18.169,0.367,36.375-0.434,54.534-1.02c3.389-0.109,11.767,0.461,18.846-0.544
				c0.961,2.079,3.94,2.903,5.71,0.369c0.528-0.756,0.992-1.527,1.419-2.307c3.275-1.588,5.091-4.14,3.874-8.223
				c-0.168-0.564-0.471-1.011-0.847-1.361c0.447-3.476,0.341-7.068-0.02-10.699c1.109,1.155,2.368,2.173,3.676,3.125
				c2.136,1.554,5.042,3.809,7.791,3.876c6.224,0.152,6.259-10.238,6.251-14.444C161.382,169.91,154.317,169.904,154.291,174.479z"
				/>
		</g>
		<g>
			<path style="fill:#E0DFE6;" d="M36.545,169.592c-1.39,3.536-3.123,6.705-5.831,9.416c-0.629,0.629-1.276,1.25-1.966,1.812
				c-0.202,0.18-0.431,0.324-0.65,0.482c-0.013-0.063-0.02-0.122-0.051-0.201c-0.15-1.816,0.418-3.08-1.093-4.344
				c-0.359-0.352-0.896-0.517-1.408-0.182c-5.214,3.417-1.909,13.868,4.884,10.786c6.055-2.747,10.958-9.712,12.846-15.915
				C44.611,167.061,38.151,165.507,36.545,169.592z"/>
		</g>
		<g>
			<path style="fill:#E0DFE6;" d="M78.326,143.6c-17.158-5.292-31.842-13.457-46.493-23.651c-1.322-0.919-2.637,1.04-1.648,2.136
				c12.143,13.463,29.065,23.004,46.302,28.188C80.764,151.559,82.574,144.91,78.326,143.6z"/>
		</g>
		<g>
			<path style="fill:#E0DFE6;" d="M171.618,79.04c-1.457-0.778-2.915-1.421-4.385-1.95c0.187-0.058,0.37-0.13,0.55-0.215
				c1.849,0.855,4.662-0.368,4.188-3.293c-0.875-5.399-1.244-11.176-2.779-16.428c-0.55-1.881-3.083-1.365-3.257,0.441
				c-0.402,4.163-0.09,8.509,0.146,12.773c-0.364,0.145-0.73,0.354-1.088,0.661c-0.195,0.167-5.406-1.089-6.17-1.173
				c-1.796-0.197-3.602-0.318-5.409-0.312c-3.788,0.012-7.804,0.315-11.353,1.665c-2.054,0.781-1.856,3.905,0.536,3.959
				c4.881,0.111,9.508-0.224,14.272,0.409c-0.497,0.029-0.993,0.054-1.5,0.112c-2.052,0.233-3.225,1.785-3.474,3.405
				c-6.998-0.222-13.979-0.834-21.106-1.419c-1.681-0.138-2.492,2.597-0.889,3.284c12.536,5.376,26.378,6.222,39.849,4.984
				C173.139,85.63,175.127,80.912,171.618,79.04z"/>
		</g>
		<g>
			<path style="fill:#E0DFE6;" d="M60.348,79.07c-0.337-1.249-1.301-1.997-2.404-2.298c1.042-0.495,1.789-1.566,1.472-3.17
				c-0.73-3.684-1.194-7.425-1.748-11.139c-0.35-2.343-4.175-1.767-4.105,0.556c0.114,3.776,0.321,7.563,0.256,11.341
				c-0.023,1.326,0.673,2.143,1.581,2.505c-1.246,0.45-2.179,1.509-1.965,3.141c0.502,3.828-34.945-0.52-37.608,2.605
				c-0.88,1.033-0.556,2.556,0.788,2.986c9.782,3.13,21.414,3.11,31.573,3.025C54.287,88.571,62.539,87.18,60.348,79.07z"/>
		</g>
		<g>
			<path style="fill:#E0DFE6;" d="M48.009,70.439c-2.935,1.189-5.953,2.155-9.08,2.689c-1.578,0.269-3.148,0.406-4.744,0.48
				c-0.545,0.026-2.247,0.277-3.305,0.301c-0.094-0.083-0.173-0.172-0.303-0.238c-0.095-0.048-0.19-0.097-0.286-0.145
				c-0.533-0.271-1.345-0.283-1.766,0.228c-0.086,0.104-0.171,0.208-0.257,0.312c-0.468,0.567-0.534,1.153-0.234,1.813
				c1.162,2.56,5.907,2.241,8.185,2.281c4.549,0.08,9.035-0.63,13.376-1.966C53.325,75.045,51.505,69.023,48.009,70.439z"/>
		</g>
		<g>
			<path style="fill:#E0DFE6;" d="M120.418,23.779c-2.074-3.412-8.076-4.491-11.45-5.654c-3.668-1.265-6.32,4.803-2.678,6.352
				c4.258,1.811,7.193,2.591,8.107,7.685c1.068,5.947,0.088,11.944-7.088,13.344c-2.36,0.46-4.997-0.404-7.291,0.614
				c-2.37,1.052-1.931,2.11-3.278,3.9c-3.691,4.905-8.408,5.122-13.764,2.596c-4.318-2.037-4.663-4.818-7.037-8.296
				c-3.078-4.51-5.447-2.839-9.668-0.967c-1.739,0.771-0.371,3.036,1.186,2.813c4.908-0.705,3.14,2.462,4.163,5.417
				c0.559,1.614,1.167,3.192,2.408,4.43c2.715,2.71,7.932,4.083,11.526,5c4.34,1.107,9.145,1.202,13.024-1.367
				c1.757-1.164,2.53-2.548,3.867-4.063c0.391-0.863,0.712-1.752,0.963-2.667c0.892-0.182,1.791-0.251,2.698-0.209
				c4.49-1.021,8.407-0.135,11.905-3.992c2.758-3.041,3.45-7.246,3.619-11.196C121.792,33.721,122.498,27.201,120.418,23.779z"/>
		</g>
		<g>
			<path style="fill:#E0DFE6;" d="M87.982,19.401c-2.217,1.516-3.517,4.213-4.585,6.625c-0.513,1.159-0.991,2.34-1.345,3.559
				c-0.182,0.627-0.365,1.276-0.456,1.925c-0.026,0.194-0.052,0.388-0.078,0.581c-0.016,0.105-0.016,0.159-0.021,0.233
				c-0.099,0.117-0.203,0.224-0.287,0.375c-0.757,1.351,0.23,2.73,1.647,2.869c2.726,0.268,2.963-3.05,3.833-4.881
				c0.622-1.309,1.341-2.571,2.164-3.765c0.901-1.307,2.172-2.366,2.845-3.806C92.738,20.891,90.438,17.721,87.982,19.401z"/>
		</g>
		<g>
			<path style="fill:#525D7D;" d="M95.246,157.092c-25.831,0-52.259-12.285-72.508-33.703c-0.783-0.828-0.814-2.114-0.07-2.978
				c20.93-24.313,49.607-38.829,76.71-38.829c35.388,0,56.431,22.716,67.737,34.919c0.786,0.849,0.791,2.158,0.011,3.01
				C156.816,130.812,129.171,157.092,95.246,157.092z M27.372,121.791c19.217,19.631,43.85,30.853,67.874,30.853
				c30.748,0,56.353-23.107,67.201-34.627c-14.771-15.753-33.163-31.987-63.069-31.987C74.119,86.03,47.338,99.363,27.372,121.791z"
				/>
		</g>
		<g>
			<path style="fill:#525D7D;" d="M96.014,150.518c-8.573,0-17.41-3.694-23.735-9.939c-6.057-5.985-9.24-13.572-9.202-21.944
				c0.04-8.24,3.477-16.003,9.678-21.858c6.854-6.474,16.199-9.914,25.688-9.406c0.455,0.023,0.914,0.056,1.371,0.1
				c7.435,0.688,14.648,4.098,19.789,9.357c3.942,4.036,8.096,11.456,8.487,18.942c0.494,9.444-2.59,18.243-8.686,24.776
				c-5.857,6.278-13.986,9.817-22.889,9.968C96.348,150.517,96.18,150.518,96.014,150.518z M96.635,91.773
				c-7.719,0-15.233,2.955-20.827,8.237c-5.308,5.013-8.25,11.634-8.284,18.645c-0.041,9.031,4.263,15.185,7.88,18.758
				c5.614,5.546,13.486,8.798,21.034,8.652c7.686-0.129,14.686-3.167,19.713-8.555c5.265-5.643,7.928-13.281,7.496-21.509
				c-0.329-6.293-3.977-12.739-7.226-16.065c-4.414-4.515-10.617-7.445-17.017-8.038c-0.4-0.038-0.795-0.065-1.19-0.085
				C97.687,91.786,97.16,91.773,96.635,91.773z"/>
		</g>
		<g>
			<path style="fill:#525D7D;" d="M97.575,133.735c-0.07,0-0.14,0-0.21-0.001c-9.449-0.135-14.803-7.573-15.044-14.504
				c-0.353-10.144,7.057-16.043,14.207-16.445c1.233-0.062,2.485,0.052,3.721,0.362c6.576,1.638,11.289,6.086,12.61,11.898
				c0.241,1.06,0.363,2.159,0.36,3.262c-0.009,4.06-1.649,7.906-4.618,10.825C105.62,132.064,101.612,133.735,97.575,133.735z
				 M97.204,107.214c-0.143,0-0.285,0.004-0.426,0.013c-4.023,0.224-10.297,3.64-10.012,11.849c0.174,5,3.891,10.114,10.662,10.21
				c2.926,0.114,5.862-1.17,8.053-3.325c2.115-2.079,3.283-4.801,3.289-7.664c0.001-0.769-0.082-1.532-0.249-2.266
				c-0.941-4.143-4.436-7.346-9.35-8.568C98.512,107.297,97.853,107.214,97.204,107.214z"/>
		</g>
		<g>
			<path style="fill:#525D7D;" d="M102.201,130.221c-0.26,0-0.523-0.045-0.781-0.142c-1.15-0.431-1.732-1.713-1.301-2.863
				c0.275-0.736,0.569-1.454,0.859-2.163c0.628-1.533,1.2-2.931,1.528-4.35c-0.824,0.663-1.719,1.436-2.39,2.017
				c-3.671,3.177-6.324,5.478-8.717,4.377c-0.681-0.311-1.822-1.158-1.822-3.336c0-1.2,0.682-2.632,2.205-5.2
				c-0.693,0.574-1.466,1.225-2.329,1.965c-0.932,0.798-2.337,0.692-3.136-0.24c-0.799-0.934-0.691-2.337,0.242-3.136
				c8.246-7.069,10.433-8.243,12.326-6.633c1.979,1.684,0.489,4.122-2.213,8.55c-0.277,0.453-0.607,0.995-0.94,1.554
				c0.532-0.449,1.046-0.892,1.475-1.264c3.628-3.141,6.021-5.213,8.298-4.175c0.649,0.297,1.74,1.098,1.74,3.116
				c0,3.188-1.092,5.859-2.149,8.44c-0.274,0.669-0.551,1.345-0.811,2.039C103.949,129.67,103.101,130.221,102.201,130.221z
				 M94.014,123.915L94.014,123.915L94.014,123.915z"/>
		</g>
		<g>
			<path style="fill:#525D7D;" d="M53.391,201.74c-0.577,0-1.134-0.224-1.55-0.628c-0.444-0.432-0.688-1.028-0.673-1.648
				c0.169-7.327,0.343-15.967,0.343-24.486c0-8.563-0.172-16.256-0.526-23.519c-0.06-1.228,0.886-2.27,2.113-2.33
				c1.221-0.049,2.269,0.886,2.329,2.113c0.358,7.335,0.531,15.099,0.531,23.736c0,7.652-0.139,15.39-0.29,22.196
				c16.08-0.792,33.224-1.177,52.316-1.177c7.869,0,16.168,0.065,25.297,0.2c-1.41-14.103-2.783-29.075-3.54-43.815
				c-0.063-1.226,0.88-2.273,2.108-2.336c1.213-0.049,2.272,0.88,2.335,2.107c0.796,15.515,2.283,31.317,3.773,46.083
				c0.063,0.631-0.146,1.26-0.576,1.728c-0.429,0.468-1.03,0.723-1.673,0.72c-10.098-0.159-19.167-0.237-27.724-0.237
				c-19.965,0-37.785,0.423-54.478,1.293C53.468,201.739,53.429,201.74,53.391,201.74z"/>
		</g>
		<g>
			<path style="fill:#525D7D;" d="M73.596,167.781c-1.623,0-2.831-0.831-3.801-1.497c-0.836-0.575-1.378-0.927-1.979-0.927
				c-0.424,0-0.93,0.07-1.467,0.142c-0.634,0.087-1.29,0.177-1.966,0.177c-1.229,0-2.224-0.996-2.224-2.224
				c0-1.228,0.995-2.224,2.224-2.224c0.374,0,0.855-0.065,1.365-0.135c0.629-0.087,1.343-0.184,2.069-0.184
				c2.013,0,3.45,0.987,4.499,1.709c0.463,0.319,1.04,0.715,1.281,0.715c1.93-0.194,3.795-0.695,5.769-1.227
				c2.578-0.694,5.245-1.41,8.134-1.41c1.636,0,3.368,0.323,4.425,0.56c0.211-0.08,0.615-0.307,0.993-0.686
				c0.867-0.869,2.275-0.867,3.145-0.001c0.869,0.869,0.87,2.276,0.001,3.146c-0.474,0.473-2.182,2.023-4.253,2.023
				c-0.175,0-0.419-0.036-0.589-0.078c-1.368-0.327-2.724-0.516-3.722-0.516c-2.302,0-4.573,0.611-6.979,1.258
				c-2.06,0.553-4.19,1.126-6.491,1.357C73.887,167.774,73.741,167.781,73.596,167.781z"/>
		</g>
		<g>
			<path style="fill:#525D7D;" d="M115.739,165.707c-1.546,0-3.028-0.305-4.462-0.599c-1.295-0.266-2.517-0.518-3.653-0.518
				c-1.088,0-1.975,0.238-2.792,0.749c-1.042,0.65-2.414,0.333-3.065-0.708c-0.651-1.043-0.335-2.414,0.707-3.065
				c1.533-0.957,3.218-1.423,5.149-1.423c1.589,0,3.094,0.31,4.55,0.61c1.271,0.261,2.472,0.508,3.565,0.508
				c1.28,0,2.05-0.43,3.326-1.141c0.438-0.245,0.896-0.5,1.397-0.75c1.098-0.549,2.435-0.104,2.984,0.995
				c0.549,1.099,0.103,2.436-0.995,2.984c-0.437,0.219-0.836,0.442-1.218,0.654C119.73,164.84,118.177,165.707,115.739,165.707z"/>
		</g>
		<g>
			<path style="fill:#525D7D;" d="M104.664,176.933c-1.807,0-3.586-0.145-5.305-0.285c-2.181-0.177-4.216-0.343-6.333-0.242
				c-1.246,0.052-2.269-0.888-2.328-2.115c-0.059-1.227,0.888-2.269,2.115-2.327c2.369-0.111,4.688,0.068,6.908,0.251
				c1.706,0.139,3.317,0.271,4.943,0.271c2.71,0,4.973-0.503,7.162-0.989c2.118-0.472,4.31-0.959,6.78-0.959
				c2.014,0,3.829,0.352,5.547,1.074c1.132,0.476,1.664,1.781,1.187,2.913c-0.477,1.132-1.783,1.664-2.913,1.187
				c-1.161-0.489-2.411-0.727-3.821-0.727c-1.982,0-3.844,0.414-5.815,0.852C110.48,176.351,107.862,176.933,104.664,176.933z"/>
		</g>
		<g>
			<path style="fill:#525D7D;" d="M76.689,177.98c-0.637,0-1.27-0.272-1.709-0.799c-0.354-0.426-0.859-0.818-2.142-0.818
				c-1.045,0-2.317,0.266-3.548,0.526c-1.13,0.236-2.298,0.482-3.44,0.563c-1.242,0.101-2.291-0.836-2.377-2.06
				c-0.087-1.225,0.835-2.289,2.06-2.376c0.841-0.061,1.813-0.265,2.843-0.481c1.452-0.304,2.954-0.62,4.461-0.62
				c2.351,0,4.221,0.814,5.558,2.417c0.787,0.944,0.66,2.346-0.284,3.133C77.696,177.811,77.191,177.98,76.689,177.98z"/>
		</g>
		<g>
			<path style="fill:#525D7D;" d="M64.384,190.023c-0.66,0-1.314-0.292-1.753-0.853c-0.757-0.969-0.586-2.366,0.381-3.123
				c3.452-2.7,7.436-3.013,10.132-3.013c1.771,0,3.563,0.153,5.295,0.301c1.707,0.145,3.32,0.282,4.885,0.282
				c1.023,0,2.215-0.103,2.663-0.142c0.215-0.019,0.347-0.023,0.373-0.023c0.95,0,1.827,0.193,2.601,0.362
				c0.603,0.133,1.172,0.258,1.632,0.258c1.165,0,5.139-0.882,6.645-1.823c1.041-0.653,2.415-0.337,3.065,0.705
				c0.652,1.042,0.336,2.414-0.706,3.065c-2.441,1.528-7.285,2.501-9.003,2.501c-0.942,0-1.815-0.191-2.585-0.361
				c-0.607-0.133-1.18-0.259-1.648-0.259c-0.489,0.049-1.82,0.165-3.036,0.165c-1.754,0-3.538-0.152-5.263-0.3
				c-1.715-0.146-3.335-0.284-4.917-0.284c-3.283,0-5.563,0.638-7.391,2.069C65.347,189.868,64.864,190.023,64.384,190.023z"/>
		</g>
		<g>
			<path style="fill:#525D7D;" d="M119.624,187.667c-2.615,0-5.085,0-7.814-0.274c-1.222-0.122-2.114-1.212-1.992-2.434
				c0.123-1.224,1.211-2.134,2.435-1.991c2.508,0.251,4.762,0.251,7.371,0.251c1.229,0,2.224,0.996,2.224,2.224
				C121.848,186.671,120.852,187.667,119.624,187.667z"/>
		</g>
		<g>
			<path style="fill:#525D7D;" d="M61.094,209.718c-2.644,0-5.291-0.014-7.941-0.046c-1.229-0.015-2.212-1.022-2.197-2.252
				c0.015-1.226,1.042-2.141,2.251-2.197c12.076,0.148,24.29-0.09,36.107-0.32c9.247-0.181,18.808-0.368,28.24-0.368
				c7.322,0,13.882,0.111,20.055,0.34c1.227,0.046,2.186,1.077,2.14,2.305c-0.046,1.228-1.032,2.223-2.305,2.14
				c-6.118-0.227-12.624-0.337-19.89-0.337c-9.389,0-18.929,0.187-28.154,0.366C80.138,209.532,70.56,209.718,61.094,209.718z"/>
		</g>
		<g>
			<path style="fill:#525D7D;" d="M14.362,83.493c-1.042,0-1.972-0.736-2.181-1.797c-0.236-1.205,0.549-2.373,1.755-2.609
				c14.913-2.923,30.289-3.168,44.76-3.168c1.229,0,2.224,0.996,2.224,2.224s-0.995,2.224-2.224,2.224
				c-14.252,0-29.383,0.237-43.905,3.084C14.648,83.48,14.504,83.493,14.362,83.493z"/>
		</g>
		<g>
			<path style="fill:#525D7D;" d="M20.579,81.517c-1.062,0-2.002-0.763-2.189-1.846c-1.032-5.979-1.62-12.225-1.748-18.564
				c-0.025-1.222,0.942-2.236,2.164-2.268c1.432-0.039,2.865-0.046,4.298-0.046l3.197,0.004c2.733,0,5.907-0.025,9.002-0.313
				c0.611-0.064,1.213,0.138,1.673,0.541c0.46,0.403,0.733,0.977,0.756,1.588c0.106,2.789,0.271,5.586,0.437,8.379
				c0.165,2.777,0.329,5.551,0.436,8.311c0.047,1.226-0.909,2.26-2.137,2.308c-1.197,0.075-2.261-0.909-2.308-2.137
				c-0.105-2.729-0.268-5.472-0.431-8.219c-0.122-2.056-0.244-4.115-0.343-6.17c-2.491,0.143-4.924,0.158-7.086,0.158l-3.197-0.004
				c-0.65,0-1.3,0.001-1.95,0.007c0.204,5.349,0.747,10.608,1.619,15.667c0.209,1.21-0.603,2.36-1.814,2.57
				C20.832,81.507,20.704,81.517,20.579,81.517z"/>
		</g>
		<g>
			<path style="fill:#525D7D;" d="M53.295,79.231c-1.145,0-2.118-0.877-2.214-2.039c-0.384-4.615-0.507-9.213-0.55-13.311
				c-1.082,0.012-2.3-0.007-3.461-0.027c-0.111-0.003-0.223-0.004-0.334-0.007c0.255,4.476,0.537,8.274,0.874,11.807
				c0.117,1.224-0.78,2.309-2.003,2.425c-1.216,0.111-2.309-0.779-2.425-2.003c-0.4-4.203-0.724-8.767-1.018-14.361
				c-0.032-0.61,0.187-1.206,0.608-1.648c0.42-0.443,1.003-0.694,1.613-0.694c1,0,1.882,0.016,2.766,0.032
				c1.809,0.033,3.632,0.07,5.441-0.049c0.607-0.035,1.213,0.175,1.662,0.592c0.449,0.418,0.705,1.004,0.708,1.616
				c0.023,4.547,0.106,9.913,0.552,15.257c0.102,1.225-0.807,2.299-2.031,2.402C53.419,79.228,53.357,79.231,53.295,79.231z"/>
		</g>
		<g>
			<path style="fill:#525D7D;" d="M36.531,70.705c-1.229,0-2.224-0.996-2.224-2.224s0.995-2.224,2.224-2.224
				c2.136,0,4.557,0,6.566-0.501c1.195-0.295,2.399,0.427,2.697,1.619c0.297,1.192-0.428,2.399-1.62,2.696
				C41.635,70.705,38.923,70.705,36.531,70.705z"/>
		</g>
		<g>
			<path style="fill:#525D7D;" d="M28.857,77.81c-0.983,0-1.882-0.656-2.147-1.651c-1.212-4.545-1.212-9.316-1.212-13.931
				c0-1.228,0.995-2.224,2.224-2.224c1.229,0,2.224,0.996,2.224,2.224c0,4.528,0,8.804,1.061,12.784
				c0.316,1.187-0.389,2.406-1.576,2.722C29.239,77.786,29.046,77.81,28.857,77.81z"/>
		</g>
		<g>
			<path style="fill:#525D7D;" d="M124.627,79.516c-1.209,0-2.2-0.969-2.223-2.182c-0.023-1.229,0.954-2.243,2.182-2.266
				c4.464-0.083,9.048-0.291,13.481-0.492c5.849-0.265,11.898-0.54,17.866-0.54c5.659,0,10.652,0.249,15.263,0.76
				c1.221,0.136,2.1,1.235,1.965,2.456c-0.136,1.222-1.237,2.088-2.456,1.966c-4.447-0.494-9.279-0.734-14.772-0.734
				c-5.867,0-11.864,0.272-17.664,0.536C133.807,79.222,129.193,79.432,124.627,79.516z"/>
		</g>
		<g>
			<path style="fill:#525D7D;" d="M129.457,79.516c-1.019,0-1.939-0.705-2.169-1.742c-1.055-4.748-1.075-9.581-1.095-14.255
				c-0.007-1.72-0.014-3.446-0.072-5.174c-0.021-0.621,0.219-1.222,0.661-1.659c0.442-0.436,1.04-0.662,1.668-0.637
				c0.711,0.033,1.422,0.077,2.133,0.119c2.134,0.13,4.124,0.252,6.155,0.138c0.607-0.028,1.203,0.182,1.647,0.601
				c0.444,0.417,0.697,0.998,0.701,1.607c0.013,2.126,0.034,4.272,0.054,6.417c0.034,3.501,0.068,7.002,0.068,10.421
				c0,1.228-0.995,2.224-2.224,2.224c-1.229,0-2.224-0.996-2.224-2.224c0-3.404-0.034-6.891-0.067-10.378
				c-0.014-1.394-0.028-2.789-0.038-4.177c-1.363-0.015-2.716-0.091-4.034-0.169c0.012,0.959,0.017,1.917,0.021,2.873
				c0.02,4.644,0.038,9.028,0.989,13.31c0.266,1.199-0.489,2.386-1.689,2.653C129.779,79.498,129.617,79.516,129.457,79.516z"/>
		</g>
		<g>
			<path style="fill:#525D7D;" d="M164.975,77.927c-1.084,0-2.034-0.794-2.197-1.898c-0.562-3.791-0.634-7.434-0.634-10.185
				c0-1.567,0.027-3.133,0.054-4.7c0.013-0.738,0.025-1.475,0.036-2.215c-2.802-0.017-5.617-0.133-8.348-0.245
				c-2.176-0.09-4.407-0.181-6.622-0.223c0.123,5.053,0.185,10.208,0.185,15.36c0,1.228-0.995,2.224-2.224,2.224
				s-2.224-0.996-2.224-2.224c0-5.898-0.083-11.799-0.245-17.543c-0.017-0.599,0.21-1.182,0.629-1.613
				c0.419-0.43,0.994-0.673,1.595-0.673c3.049,0,6.119,0.126,9.088,0.248c3.413,0.14,6.934,0.285,10.376,0.233
				c0.615,0.003,1.17,0.223,1.594,0.642c0.424,0.418,0.662,0.99,0.662,1.585c-0.002,1.51-0.028,3.017-0.054,4.522
				c-0.027,1.542-0.054,3.083-0.054,4.623c0,2.598,0.067,6.029,0.586,9.533c0.18,1.215-0.66,2.346-1.874,2.525
				C165.193,77.92,165.083,77.927,164.975,77.927z"/>
		</g>
		<g>
			<path style="fill:#525D7D;" d="M154.467,77.526c-1.229,0-2.224-0.996-2.224-2.224V57.966c0-1.228,0.995-2.224,2.224-2.224
				c1.229,0,2.224,0.996,2.224,2.224v17.337C156.692,76.53,155.696,77.526,154.467,77.526z"/>
		</g>
		<g>
			<path style="fill:#525D7D;" d="M137.698,65.875c-1.089,0-2.04-0.799-2.199-1.908c-0.174-1.216,0.67-2.343,1.887-2.518
				c0.556-0.078,1.184-0.266,1.85-0.463c1.425-0.426,3.111-0.915,4.999-0.678c1.219,0.156,2.08,1.27,1.924,2.488
				c-0.155,1.219-1.276,2.075-2.488,1.926c-1.029-0.136-2.04,0.191-3.167,0.527c-0.791,0.235-1.608,0.478-2.489,0.605
				C137.909,65.867,137.803,65.875,137.698,65.875z"/>
		</g>
		<g>
			<path style="fill:#525D7D;" d="M87.222,56.66c-1.994,0-4.107-0.177-6.282-0.526c-1.009-0.162-1.778-0.992-1.863-2.01
				c-0.161-1.916-0.264-3.982-0.318-6.412c-2.609-1.164-4.871-2.873-6.504-4.906c-0.485,0.245-0.976,0.501-1.48,0.763
				c-0.711,0.371-1.421,0.741-2.138,1.09c-0.538,0.265-1.161,0.298-1.725,0.096c-0.565-0.201-1.024-0.623-1.273-1.169
				c-2.526-5.517-4.041-11.039-4.502-16.414c-0.08-0.937,0.438-1.824,1.295-2.214c1.567-0.714,3.175-0.986,4.741-1.219
				c0.324-3.068,1.313-6.092,2.912-8.902c-1.027-0.901-2.055-1.852-2.985-2.95c-0.742-0.876-0.696-2.173,0.108-2.994
				C71.698,4.31,77.05,1.25,82.684,0.05c0.973-0.211,1.976,0.261,2.438,1.15c0.787,1.515,1.549,3.096,2.406,4.996
				c2.202-0.058,4.507,0.327,7.028,1.014c0.284-0.514,0.562-1.028,0.84-1.542c0.554-1.021,1.107-2.042,1.703-3.064
				c0.556-0.959,1.732-1.36,2.756-0.943c6.571,2.661,11.615,6.991,14.204,12.189c0.494,0.992,0.182,2.195-0.729,2.824l-1.019,0.695
				c-1.108,0.754-2.171,1.477-3.154,2.254c0.691,2.291,1.147,4.495,1.363,6.587c1.266,0.171,2.609,0.434,4.112,0.802
				c0.943,0.232,1.627,1.047,1.69,2.016c0.079,1.197,0.119,2.363,0.119,3.462c0,5.727-1.019,10.359-3.117,14.16
				c-0.499,0.902-1.552,1.347-2.546,1.067c-1.758-0.491-3.392-1.264-4.972-2.02c-1.999,1.452-4.264,2.696-6.764,3.718l0.563,2.541
				c0.23,1.034-0.303,2.085-1.271,2.514C95.051,55.923,91.312,56.66,87.222,56.66z M83.38,51.981
				c4.319,0.5,8.148,0.184,11.467-0.927l-0.567-2.558c-0.243-1.1,0.375-2.207,1.438-2.579c3.264-1.141,6.095-2.67,8.416-4.544
				c0.662-0.533,1.57-0.644,2.338-0.285l1.135,0.539c0.898,0.43,1.767,0.846,2.623,1.196c1.169-2.822,1.76-6.288,1.76-10.334
				c0-0.492-0.009-1.001-0.026-1.52c-1.345-0.275-2.54-0.442-3.679-0.516c-1.143-0.074-2.044-1.005-2.079-2.15
				c-0.083-2.642-0.665-5.572-1.728-8.702c-0.285-0.84-0.044-1.768,0.612-2.363c1.276-1.157,2.657-2.139,4.02-3.071
				c-2.009-3.022-5.216-5.686-9.144-7.592c-0.222,0.404-0.44,0.808-0.659,1.21c-0.575,1.061-1.15,2.123-1.772,3.184
				c-0.527,0.902-1.612,1.318-2.604,0.992c-3.28-1.058-6.009-1.486-8.641-1.265c-0.94,0.073-1.835-0.453-2.218-1.321
				c-0.77-1.752-1.447-3.216-2.107-4.558c-3.56,1.045-6.971,2.987-10.023,5.705c0.608,0.574,1.257,1.134,1.925,1.71l0.567,0.489
				c0.85,0.74,1.014,1.997,0.381,2.929c-2.111,3.107-3.255,6.584-3.31,10.055c-0.017,1.07-0.795,1.976-1.85,2.156
				c-0.479,0.082-0.96,0.152-1.439,0.223c-0.86,0.124-1.691,0.246-2.46,0.431c0.478,3.634,1.485,7.348,3.005,11.088
				c1.079-0.563,2.194-1.144,3.344-1.651c1.037-0.46,2.25-0.064,2.819,0.915c1.329,2.278,3.795,4.185,6.768,5.229
				c0.88,0.308,1.474,1.135,1.487,2.068C83.209,48.372,83.274,50.263,83.38,51.981z"/>
		</g>
		<g>
			<path style="fill:#525D7D;" d="M88.621,39.721c-6.375-0.03-11.594-5.078-11.7-11.254c-0.101-5.759,4.072-10.811,9.706-11.749
				c0.767-0.126,1.55-0.182,2.312-0.174c6.173,0.08,11.086,4.632,11.422,10.588c0.185,3.281-1.061,6.666-3.33,9.057
				C94.834,38.501,91.928,39.721,88.621,39.721z M87.357,21.106c-3.419,0.571-6.05,3.771-5.987,7.285
				c0.063,3.713,3.364,6.863,7.209,6.882c2.563,0.019,4.289-1.16,5.226-2.147c1.441-1.518,2.231-3.665,2.115-5.744
				c-0.177-3.132-2.653-6.332-7.045-6.388C88.373,20.979,87.859,21.024,87.357,21.106z"/>
		</g>
		<g>
			<path style="fill:#525D7D;" d="M29.577,184.295c-0.259,0-0.521-0.045-0.772-0.139c-0.83-0.307-1.398-1.077-1.447-1.961
				c-0.413-7.382-1.058-13.525-2.034-19.338c-0.135-0.805,0.182-1.619,0.826-2.121c0.645-0.501,1.513-0.613,2.258-0.284
				c3.87,1.691,6.893,4.382,9.817,6.983c1.006,0.895,2.013,1.793,3.056,2.647c0.505,0.413,0.803,1.027,0.814,1.678
				c0.012,0.653-0.262,1.277-0.752,1.709c-2.978,2.631-5.687,5.463-8.554,8.462l-1.609,1.681
				C30.753,184.056,30.171,184.295,29.577,184.295z M30.406,166.721c0.432,3.199,0.781,6.545,1.059,10.166
				c1.633-1.694,3.308-3.394,5.045-5.027c-0.416-0.365-0.83-0.733-1.242-1.1C33.644,169.314,32.072,167.916,30.406,166.721z"/>
		</g>
		<g>
			<path style="fill:#525D7D;" d="M156.121,181.807c-0.3,0-0.602-0.061-0.886-0.184l-1.451-0.633
				c-3.839-1.677-7.809-3.41-11.781-4.615c-0.756-0.23-1.334-0.843-1.517-1.612c-0.184-0.769,0.054-1.577,0.626-2.124l1.861-1.784
				c3.731-3.579,7.59-7.282,11.528-10.744c0.654-0.576,1.586-0.715,2.383-0.356c0.796,0.359,1.308,1.15,1.31,2.023
				c0.009,4.883,0.035,11.313,0.152,17.764c0.014,0.757-0.358,1.468-0.987,1.89C156.986,181.68,156.555,181.807,156.121,181.807z
				 M146.837,173.312c2.379,0.873,4.714,1.859,7.005,2.853c-0.044-3.278-0.069-6.478-0.083-9.397
				C151.457,168.89,149.182,171.063,146.837,173.312z"/>
		</g>
		<g>
			<path style="fill:#525D7D;" d="M7.244,174.528c-0.496,0-0.981-0.167-1.376-0.476c-0.481-0.378-0.785-0.938-0.84-1.548
				l-0.324-3.671c-0.107-1.224,0.799-2.302,2.022-2.408c1.237-0.101,2.302,0.799,2.409,2.023l0.117,1.319
				c1.17-0.138,2.255,0.714,2.423,1.9c0.173,1.216-0.673,2.341-1.889,2.515l-2.216,0.321C7.461,174.521,7.353,174.528,7.244,174.528
				z M28.675,173.282c-0.087,0-0.174-0.004-0.262-0.014c-1.618-0.191-3.354-0.287-5.158-0.287l-0.482,0.003
				c-1.239,0-2.233-0.983-2.243-2.205c-0.011-1.228,0.977-2.233,2.205-2.243l0.521-0.003c1.976,0,3.886,0.106,5.676,0.316
				c1.22,0.143,2.093,1.248,1.95,2.469C30.748,172.449,29.787,173.282,28.675,173.282z M5.824,157.565
				c-1.151,0-2.126-0.886-2.215-2.053c-0.152-1.975-0.301-3.95-0.444-5.925c-0.089-1.225,0.832-2.289,2.057-2.379
				c1.228-0.087,2.291,0.831,2.38,2.058c0.143,1.966,0.29,3.936,0.442,5.905c0.094,1.225-0.822,2.294-2.047,2.388
				C5.939,157.564,5.881,157.565,5.824,157.565z M4.483,138.337c-1.166,0-2.144-0.908-2.218-2.087
				c-0.122-1.976-0.241-3.953-0.355-5.931c-0.07-1.226,0.867-2.278,2.092-2.347c1.21-0.091,2.278,0.864,2.349,2.092
				c0.114,1.969,0.231,3.94,0.353,5.911c0.076,1.226-0.856,2.282-2.082,2.357C4.576,138.335,4.529,138.337,4.483,138.337z
				 M3.44,119.09c-1.182,0-2.166-0.93-2.221-2.121c-0.091-1.979-0.178-3.957-0.26-5.935c-0.051-1.228,0.903-2.265,2.13-2.315
				c1.213-0.068,2.263,0.902,2.314,2.13c0.082,1.972,0.169,3.944,0.26,5.915c0.056,1.228-0.892,2.268-2.119,2.324
				C3.509,119.089,3.474,119.09,3.44,119.09z M2.706,99.829c-1.198,0-2.186-0.953-2.222-2.157c-0.059-1.981-0.112-3.96-0.161-5.941
				c-0.03-1.228,0.94-2.247,2.168-2.279c1.224-0.043,2.247,0.941,2.278,2.169c0.049,1.972,0.103,3.946,0.161,5.918
				C4.967,98.767,4.001,99.792,2.706,99.829z M2.296,80.558c-1.215,0-2.207-0.977-2.223-2.195c-0.025-1.981-0.045-3.962-0.059-5.944
				c-0.009-1.228,0.98-2.231,2.207-2.24c1.238,0,2.232,0.985,2.241,2.208c0.015,1.974,0.034,3.946,0.059,5.918
				C4.536,79.535,3.553,80.542,2.296,80.558z M2.224,61.283C0.985,61.277-0.006,60.275,0,59.047c0.01-1.981,0.026-3.962,0.048-5.944
				c0.014-1.219,1.006-2.199,2.223-2.199c1.253,0.013,2.238,1.021,2.225,2.249c-0.022,1.973-0.038,3.946-0.048,5.918
				C4.442,60.294,3.448,61.283,2.224,61.283z M4.726,44.09c-1.14,0-2.111-0.872-2.213-2.03c-0.107-1.224,0.798-2.302,2.021-2.409
				c1.982-0.174,3.967-0.327,5.954-0.463c1.234-0.094,2.287,0.84,2.372,2.065c0.084,1.227-0.841,2.288-2.066,2.372
				c-1.96,0.136-3.917,0.287-5.871,0.458C4.857,44.087,4.791,44.09,4.726,44.09z M23.965,42.911c-1.185,0-2.17-0.934-2.221-2.13
				c-0.052-1.226,0.9-2.265,2.127-2.317c1.98-0.084,3.96-0.161,5.939-0.233c1.239-0.039,2.26,0.914,2.304,2.141
				c0.045,1.227-0.914,2.259-2.141,2.304c-1.971,0.072-3.942,0.149-5.913,0.233C24.028,42.911,23.996,42.911,23.965,42.911z
				 M43.228,42.193c-1.188,0-2.174-0.938-2.221-2.136c-0.048-1.228,0.907-2.262,2.135-2.311c1.971-0.078,3.941-0.161,5.908-0.255
				c1.228-0.055,2.269,0.889,2.327,2.115c0.059,1.227-0.888,2.269-2.116,2.327c-1.979,0.094-3.96,0.18-5.945,0.258
				C43.287,42.193,43.257,42.193,43.228,42.193z"/>
		</g>
		<g>
			<path style="fill:#525D7D;" d="M183.294,173.922h-5.931c-1.229,0-2.224-0.996-2.224-2.224c0-1.228,0.995-2.224,2.224-2.224h5.931
				c1.229,0,2.224,0.996,2.224,2.224C185.518,172.926,184.523,173.922,183.294,173.922z M164.02,173.922h-5.931
				c-1.229,0-2.224-0.996-2.224-2.224c0-1.228,0.995-2.224,2.224-2.224h5.931c1.229,0,2.224,0.996,2.224,2.224
				C166.244,172.926,165.248,173.922,164.02,173.922z M185.728,163.606c-1.174,0-2.155-0.918-2.219-2.104l-0.313-5.929
				c-0.064-1.227,0.88-2.272,2.106-2.336c1.2-0.062,2.273,0.879,2.336,2.107l0.313,5.918c0.066,1.226-0.875,2.275-2.102,2.341
				C185.809,163.605,185.768,163.606,185.728,163.606z M184.757,144.354c-1.181,0-2.164-0.928-2.221-2.12l-0.273-5.93
				c-0.055-1.226,0.895-2.266,2.122-2.321c1.235-0.074,2.267,0.893,2.322,2.121l0.273,5.921c0.057,1.227-0.891,2.269-2.118,2.325
				C184.827,144.353,184.791,144.354,184.757,144.354z M183.907,125.096c-1.186,0-2.171-0.935-2.221-2.131l-0.242-5.931
				c-0.048-1.227,0.906-2.262,2.134-2.311c1.221-0.083,2.262,0.906,2.312,2.134l0.24,5.922c0.051,1.228-0.903,2.265-2.13,2.315
				C183.969,125.096,183.938,125.096,183.907,125.096z M183.153,105.835c-1.19,0-2.177-0.943-2.221-2.141l-0.216-5.929
				c-0.043-1.228,0.916-2.259,2.144-2.302c1.221-0.04,2.258,0.917,2.301,2.143l0.216,5.924c0.046,1.228-0.913,2.26-2.14,2.305
				C183.209,105.835,183.181,105.835,183.153,105.835z M182.471,86.573c-1.193,0-2.181-0.947-2.221-2.149l-0.199-5.928
				c-0.041-1.228,0.922-2.256,2.149-2.297c1.21-0.072,2.256,0.922,2.296,2.149l0.199,5.925c0.042,1.227-0.919,2.256-2.147,2.298
				C182.523,86.573,182.496,86.573,182.471,86.573z M181.835,67.309c-1.195,0-2.183-0.948-2.221-2.152l-0.19-5.93
				c-0.039-1.228,0.924-2.254,2.152-2.293c1.216-0.061,2.254,0.924,2.293,2.152l0.19,5.927
				C184.099,66.241,183.136,67.269,181.835,67.309z M181.223,48.044c-1.196,0-2.184-0.95-2.221-2.155l-0.187-5.925
				c-0.039-1.228,0.924-2.255,2.152-2.294c1.235-0.083,2.254,0.925,2.293,2.152l0.188,5.928
				C183.486,46.977,182.523,48.005,181.223,48.044z M127.153,40.907c-1.197,0-2.186-0.953-2.222-2.158
				c-0.037-1.228,0.929-2.253,2.157-2.289c1.971-0.059,3.944-0.122,5.921-0.188c1.208-0.094,2.256,0.921,2.297,2.147
				c0.041,1.228-0.92,2.257-2.148,2.298C131.177,40.784,129.198,40.847,127.153,40.907z M146.417,40.199
				c-1.184,0-2.169-0.934-2.221-2.129c-0.053-1.226,0.899-2.265,2.126-2.318c1.97-0.084,3.941-0.177,5.911-0.274
				c1.236-0.062,2.27,0.885,2.331,2.113c0.061,1.226-0.885,2.27-2.112,2.33c-1.979,0.097-3.959,0.19-5.937,0.277
				C146.482,40.199,146.449,40.199,146.417,40.199z M165.665,39.187c-1.166,0-2.145-0.908-2.218-2.088
				c-0.075-1.225,0.857-2.28,2.083-2.356c1.97-0.122,3.938-0.249,5.906-0.382c1.196-0.077,2.286,0.843,2.369,2.069
				c0.082,1.226-0.844,2.286-2.069,2.37c-1.976,0.133-3.953,0.261-5.932,0.382C165.758,39.186,165.712,39.187,165.665,39.187z"/>
		</g>
	</g>
</g>
<g id="Layer_1">
</g>
</svg>
