<?xml version="1.0" encoding="iso-8859-1"?>
<!-- Generator: Adobe Illustrator 21.0.2, SVG Export Plug-In . SVG Version: 6.00 Build 0)  -->
<svg version="1.1" xmlns="http://www.w3.org/2000/svg" xmlns:xlink="http://www.w3.org/1999/xlink" x="0px" y="0px"
	 viewBox="0 0 202.2 185.685" style="enable-background:new 0 0 202.2 185.685;" xml:space="preserve">
<g id="_x34_8">
	<g>
		<g>
			<path style="fill:#E0DFE6;" d="M89.963,37.112c2.029-3.774-3.457-6.978-5.738-3.354c-1.832,2.91-3.884,5.96-5.767,9.079
				c-0.915-1.406-2.722-2.284-4.325-1.157c-4.134,2.906-7.443,8-7.884,13.222c-0.293-0.363-0.535-0.784-0.717-1.191
				c-1.006-2.241-4.156-0.555-3.745,1.579c0.658,3.414,3.483,5.34,6.757,5.89c1.98,0.332,3.322-0.779,3.573-2.722
				c0.353-2.734,0.904-4.997,1.976-7.026c-1.883,5.4,0.919,11.511-0.622,16.999c-0.677-0.192-1.368-0.473-2.062-0.787
				c0.24-0.689,0.484-1.378,0.79-2.062c1.368-3.059-3.095-5.762-4.561-2.666c-0.324,0.684-0.607,1.372-0.871,2.062
				c-1.916-1.285-3.715-2.641-5.188-3.63c-1.314-0.882-2.534,1-1.603,2.078c1.534,1.778,3.436,3.841,5.538,5.729
				c-1.292,5.889-0.731,11.924,0.867,17.834c0.869,8.399,3.996,16.19,10.346,22.88c1.806,1.903,4.577-0.51,3.487-2.691
				c-5.186-10.379-11.582-22.6-10.005-34.456c1.437,0.878,2.906,1.567,4.369,1.941c1.368,0.35,2.615-0.256,3.383-1.377
				c3.24-4.729,1.803-10.978,2.092-16.273C80.423,50.22,86.773,43.045,89.963,37.112z"/>
		</g>
		<g>
			<path style="fill:#E0DFE6;" d="M42.449,53.998c-5.064,0.488-9.628,0.421-14.615-0.842c-2.732-0.692-4.457,1.663-4.281,3.804
				c-1.582-0.791-3.082-1.587-4.442-2.298c-3.401-1.779-6.292-4.183-10.207-3.297c-1.428,0.323-1.463,2.621,0,2.923
				c3.09,0.637,5.925,3.87,8.495,5.592c2.872,1.923,5.947,3.557,9.115,4.934c3.288,1.43,9.602,5.033,13.247,3.014
				c3.616-2.003,3.202-4.481,1.131-6.832c0.815-0.093,1.633-0.207,2.456-0.355C47.06,59.972,46.253,53.631,42.449,53.998z"/>
		</g>
		<g>
			<path style="fill:#E0DFE6;" d="M200.175,40.105c-1.643-4.031-8.097-2.542-6.722,1.853c0.94,3.007,3.727,8.936,0.255,11.467
				c-2.928,2.134-5.462-2.452-7.752-3.816c-1.126-0.671-2.56-0.422-3.49,0.45c-1.8,1.688-3.422,3.44-4.907,5.325
				c-3.331-10.405-9.259-19.744-18.001-25.825c-0.886-0.616-1.973,0.579-1.446,1.446c9.681,15.91,16.98,32.307,15.343,50.401
				c-0.085,0.082-0.145,0.192-0.221,0.285c0.741-8.445-0.917-17.423-5.731-26.603c-0.325-0.62-0.751-1.033-1.22-1.302
				c-2.094-10.609-7.314-20.795-15.831-26.871c-1.046-0.746-2.269,0.682-1.689,1.689c8.002,13.891,13.314,25.802,11.897,42.25
				c-0.275,3.188,3.382,3.774,5.253,2.03c1.962,20.28-11.48,39.66-30.29,48.872c-25.675,12.574-54.481,9.053-74.604-11.433
				c-0.842-0.857-2.263,0.24-1.659,1.28c23.369,40.257,83.664,25.942,105.77-7.476c-5.208,9.68-12.626,17.974-22.184,24.106
				c-5.146,2.994-10.712,5.31-16.56,6.772c-0.964,0.241-1.626,0.752-2.052,1.386c-13.602,3.574-28.047,2.836-41.808-0.562
				c0.661-3.242-3.407-6.517-5.95-3.459c-0.398,0.479-0.787,0.964-1.181,1.445c-0.351-0.111-0.704-0.215-1.053-0.33
				c0.075-0.077,0.146-0.157,0.221-0.234c2.343-2.406,0.018-7.255-3.478-5.974c-0.096,0.035-0.182,0.073-0.275,0.109
				c-2.932-2.934-12.865-8.833-14.981-2.826c-0.862,2.445,1.208,5.826,2.82,7.569c1.237,1.337,3.025,2.362,4.843,2.552
				c-4.695,5.263-9.119,10.756-13.217,16.515c-4.588,6.448-15.245,29.645-24.808,15.925c-0.419-0.602-1.586-0.651-1.742,0.228
				c-0.126,0.713-0.182,1.375-0.175,1.991c-0.396,0.409-0.644,0.986-0.544,1.627c2.134,13.668,15.336,19.221,26.648,10.596
				c6.672-5.088,10.338-13.095,14.653-20.057c4.554-7.347,9.605-14.339,15.032-21.055c17.22,7.146,36.3,6.728,53.2,0.481
				c21.549-6.876,39.472-24.211,45.814-46.176c3.046-10.551,3.302-23.024,0.527-34.623c1.577-1.574,3.247-3.022,5.076-4.279
				c3.619,3.951,8.127,7.088,13.457,3.368C203.824,54.745,202.763,46.456,200.175,40.105z M56.125,161.149
				c-3.135,5.309-5.883,11.363-10.973,15.103c-3.107,2.284-7.17,3.936-11.096,2.708c-1.831-0.573-3.153-1.689-4.232-3.039
				c4.496,0.751,10.261-0.805,13.232-3.321c5.218-4.418,8.534-11.326,12.459-16.816c4.852-6.788,10.225-13.143,15.922-19.22
				c0.402,0.232,0.814,0.432,1.219,0.655C66.635,144.831,61.067,152.778,56.125,161.149z"/>
		</g>
		<g>
			<path style="fill:#E0DFE6;" d="M103.325,157.145c-0.199-3.619-4.551-4.628-6.568-1.779c-2.399,3.39-5.424,3.985-9.184,4.961
				c-1.132,0.294-2.128,0.738-3,1.3c-0.286,0.003-0.571,0.112-0.803,0.392c-0.142,0.172-0.246,0.35-0.37,0.525
				c-1.3,1.236-2.135,2.887-2.345,4.99c-0.161,1.604,1.053,2.876,2.492,3.354c1.639,2.275,4.447,3.864,7.523,3.781
				C100.139,174.428,103.749,164.852,103.325,157.145z M92.794,167.724c-1.047,0.664-2.244,0.861-3.352,0.692
				c0.256-0.412,0.411-0.858,0.472-1.317c1.463-0.404,3.556-1.011,4.989-1.491C94.383,166.428,93.697,167.152,92.794,167.724z"/>
		</g>
		<g>
			<path style="fill:#E0DFE6;" d="M126.765,47.066c-1.14-1.866-3.827-0.235-2.899,1.694c3.348,6.962,3.63,14.27,1.384,20.917
				c0-0.132,0.012-0.256-0.003-0.396c-0.302-2.857-0.747-5.665-1.304-8.447c1.019-4.235,0.161-8.722-3.578-11.804
				c-2.273-1.874-6.249-0.189-5.275,3.071c0.991,3.317,1.742,6.652,2.297,10.027c-1.146,2.078-2.86,3.988-4.193,5.234
				c-3.825,3.576-8.114,6.47-13.3,7.525c-0.914,0.186-1.335,0.977-1.336,1.782c-0.545,0.648-0.688,1.662,0.017,2.575
				c3.156,4.079,7.985,5.15,12.915,5.552c0.258,0.021,0.499,0.042,0.729,0.064c-0.151,0.272-0.285,0.565-0.375,0.904
				c-1.765,6.618-2.094,13.138-1.152,19.837c-1.78,0.253-3.573,0.435-5.39,0.52c-2.193,0.104-10.861,1.15-12.234-0.546
				c-0.722-0.892-1.899-0.05-2.006,0.831c-1.057,8.671,26.536,4.873,30.655,3.638c4.876-1.461,9.605-3.935,10.017-9.582
				c0.445-6.107-2.424-13.413-4.631-19.829C133.601,70.463,133.38,57.894,126.765,47.066z M114.755,78.944
				c-4.033,0.267-7.665,0.848-11.142-0.87c5.446-1.225,10.719-4.214,14.741-8.155c0.683,2.881,4.455,3.452,6.122,1.789
				c-0.283,0.665-0.592,1.322-0.927,1.97c-0.443-0.193-0.92-0.312-1.415-0.321c-1.703-0.03-2.677,0.288-4.211,0.992
				c-1.87,0.858-2.096,2.923-1.365,4.547C115.982,78.879,115.383,78.902,114.755,78.944z"/>
		</g>
		<g>
			<path style="fill:#E0DFE6;" d="M36.819,119.467c-0.743-4.472-1.494-9.098-2.588-13.495c-0.667-2.681-3.131-5.511-2.943-7.964
				c0.363-4.721-6.738-4.549-7.266,0l-1.673,14.415c-0.223,1.917-0.176,5.237-0.716,7.211c-3.304,1.957-6.605,3.765-10.286,5.171
				c-2.037,0.778-2.85,2.982-2.381,4.729c-0.203,0.193-0.37,0.448-0.432,0.837c-0.597,3.754,0.947,7.071,4.907,8.132
				c6.246,1.674,13.028-4.388,18.029-7.235C36.349,128.493,37.722,124.902,36.819,119.467z M12.016,131.881
				c0.099,0.005,0.189,0.021,0.292,0.019c2.557-0.049,5.267-0.298,7.737-1.057C17.241,132.891,13.162,135.212,12.016,131.881z
				 M26.349,126.679c0.389-0.517,0.747-1.075,1.054-1.697c0.146-0.296,0.264-0.608,0.385-0.919c0.425-0.321,0.851-0.639,1.266-0.978
				c0.092-0.075,0.158-0.159,0.238-0.239c-0.345,1.088-0.974,2.14-2.045,3.154C26.987,126.246,26.675,126.466,26.349,126.679z"/>
		</g>
		<g>
			<path style="fill:#E0DFE6;" d="M139.651,47.771c-0.85-1.548-3.17-0.178-2.362,1.381c7.846,15.121,7.349,33.259-1.329,47.918
				c-1.828,3.088,3.211,5.951,4.766,2.786C149.009,82.995,148.711,64.266,139.651,47.771z"/>
		</g>
		<g>
			<path style="fill:#E0DFE6;" d="M43.421,44.368c-10.276,2.111-42.336,3.357-37.2-15.753c0.57-2.12-2.494-2.886-3.237-0.893
				c-8.616,23.111,28.241,27.205,42.227,23.139C49.403,49.643,47.642,43.501,43.421,44.368z"/>
		</g>
		<g>
			<path style="fill:#525D7D;" d="M107.457,139.124c-0.51,0-1.02-0.006-1.531-0.016c-17.172-0.356-33.068-7.28-44.759-19.5
				c-12.416-12.977-19.01-30.425-18.569-49.127c0.822-34.461,29.894-62.743,64.804-63.05c4.828-0.045,9.655,0.475,14.344,1.536
				c15.158,3.424,28.538,11.336,38.693,22.882c8.305,9.442,13.602,24.651,13.822,39.692c0.271,18.425-6.61,35.557-19.375,48.236
				C142.292,132.289,125.501,139.124,107.457,139.124z M107.936,11.747c-0.166,0-0.332,0.001-0.498,0.003
				c-32.606,0.285-59.757,26.679-60.525,58.834c-0.414,17.547,5.756,33.897,17.372,46.04c10.892,11.384,25.712,17.836,41.73,18.166
				c17.461,0.411,33.718-6.047,45.827-18.075c11.925-11.847,18.353-27.867,18.1-45.11c-0.205-14.059-5.09-28.2-12.746-36.905
				c-9.549-10.857-22.137-18.299-36.402-21.522C116.59,12.229,112.267,11.747,107.936,11.747z"/>
		</g>
		<g>
			<path style="fill:#525D7D;" d="M107.664,125.464c-0.404,0-0.807-0.004-1.213-0.013c-13.612-0.281-26.214-5.771-35.482-15.459
				C61.13,99.709,55.904,85.886,56.253,71.07c0.652-27.316,23.694-49.736,51.363-49.979c3.859-0.042,7.656,0.378,11.374,1.219
				c12.001,2.71,22.596,8.976,30.639,18.12c6.593,7.495,10.798,19.557,10.972,31.478c0.214,14.6-5.239,28.176-15.355,38.225
				C135.266,120.046,121.96,125.464,107.664,125.464z M108.04,25.408c-0.129,0-0.257,0-0.386,0.001
				C82.289,25.632,61.167,46.161,60.57,71.173c-0.322,13.658,4.479,26.385,13.519,35.834c8.47,8.853,19.995,13.869,32.453,14.127
				c13.599,0.288,26.24-4.706,35.662-14.065c9.277-9.215,14.278-21.681,14.08-35.097c-0.159-10.939-3.952-21.932-9.897-28.691
				c-7.437-8.455-17.239-14.25-28.348-16.759C114.769,25.782,111.406,25.408,108.04,25.408z"/>
		</g>
		<g>
			<path style="fill:#525D7D;" d="M109.009,79.447c-0.064,0-0.127-0.001-0.19-0.001c-9.688-0.087-20.118-7.375-20.805-19.42
				c-0.538-9.415,4.812-18.294,13.309-22.097c2.676-1.196,5.615-1.801,8.548-1.736c5.304,0.113,10.537,2.487,14.358,6.515
				c4.115,4.339,6.273,10.13,6.077,16.305C129.945,70.318,120.41,79.447,109.009,79.447z M103.088,41.87
				c-6.874,3.076-11.198,10.272-10.762,17.909c0.542,9.519,8.832,15.279,16.532,15.348c0.048,0,0.096,0.001,0.143,0.001
				c8.943,0,16.707-7.41,16.989-16.253c0.16-5.014-1.578-9.7-4.894-13.196c-3.033-3.198-7.157-5.081-11.315-5.169
				C107.506,40.451,105.184,40.932,103.088,41.87z"/>
		</g>
		<g>
			<path style="fill:#525D7D;" d="M90.02,107.963c-0.435,0-0.864-0.132-1.229-0.384c-0.502-0.347-0.834-0.891-0.912-1.497
				c-0.357-2.738-0.538-5.396-0.538-7.902c0-10.094,2.903-18.247,8.628-24.232c0.826-0.86,2.191-0.891,3.053-0.068
				c0.862,0.825,0.892,2.191,0.068,3.053c-4.931,5.155-7.431,12.302-7.431,21.246c0,1.605,0.081,3.282,0.24,5.008
				c7.923-1.573,15.915-1.801,22.799-1.801c1.976,0,3.952,0.02,5.925,0.045c-0.734-8.815-2.745-17.19-5.857-24.347
				c-0.476-1.094,0.025-2.364,1.119-2.841c1.097-0.47,2.366,0.027,2.841,1.12c3.584,8.241,5.786,17.97,6.371,28.132
				c0.034,0.597-0.181,1.184-0.595,1.616c-0.414,0.433-0.985,0.655-1.588,0.666l-0.781-0.01c-2.475-0.032-4.955-0.065-7.435-0.065
				c-7.325,0-15.926,0.261-24.185,2.2C90.351,107.944,90.185,107.963,90.02,107.963z"/>
		</g>
		<g>
			<path style="fill:#525D7D;" d="M92.433,68.972c-0.552,0-1.105-0.211-1.527-0.633c-0.843-0.843-0.843-2.21,0-3.053
				c2.075-2.076,3.223-4.284,4.438-6.623c3.28-6.316,6.673-12.846,27.558-14.007c1.181-0.03,2.209,0.846,2.275,2.037
				c0.066,1.191-0.845,2.21-2.036,2.276c-18.427,1.023-20.994,5.964-23.965,11.685c-1.252,2.409-2.67,5.139-5.217,7.686
				C93.537,68.761,92.985,68.972,92.433,68.972z"/>
		</g>
		<g>
			<path style="fill:#525D7D;" d="M37.139,56.03c-0.067,0-0.136-0.003-0.204-0.01c-1.972-0.184-3.977-0.304-6.101-0.43
				C17.096,54.773,0,53.756,0,30.91C0,3.513,27.258,0,51.006,0c10.968,0,25.832,1.728,28.263,16.66
				c0.192,1.177-0.607,2.287-1.784,2.478c-1.177,0.198-2.287-0.607-2.478-1.784c-1.468-9.016-8.87-13.036-24.001-13.036
				c-32.725,0-46.687,7.953-46.687,26.592c0,18.776,12.406,19.514,26.772,20.369c2.066,0.124,4.204,0.25,6.248,0.443
				c1.187,0.111,2.059,1.164,1.948,2.35C39.181,55.191,38.24,56.03,37.139,56.03z"/>
		</g>
		<g>
			<path style="fill:#525D7D;" d="M72.804,68.674c-0.615,0-1.215-0.263-1.632-0.745c-2.222-2.564-5.358-4.636-9.32-6.159
				c-1.113-0.429-1.668-1.678-1.24-2.79c0.427-1.113,1.674-1.664,2.79-1.241c2.821,1.085,5.301,2.429,7.418,4.016
				c0.016-0.351,0.032-0.701,0.048-1.051c0.125-2.71,0.254-5.51,0.254-8.271c0-0.572,0.228-1.122,0.633-1.527
				c5.21-5.211,7.964-11.702,7.964-18.774c0-0.43-0.011-0.863-0.031-1.299c-0.056-1.191,0.865-2.201,2.056-2.256
				c1.222-0.034,2.202,0.866,2.258,2.056c0.023,0.5,0.035,1.001,0.035,1.498c0,7.95-2.97,15.255-8.6,21.182
				c-0.022,2.564-0.14,5.114-0.254,7.588c-0.087,1.889-0.174,3.775-0.22,5.666c-0.022,0.891-0.589,1.678-1.428,1.979
				C73.295,68.633,73.048,68.674,72.804,68.674z"/>
		</g>
		<g>
			<path style="fill:#525D7D;" d="M22.823,34.692c-2.544,0-4.537-2.083-4.537-4.741c0-1.373,1.725-5.34,4.391-5.34
				c0.267,0,0.541,0.031,0.815,0.093c3.648,0.812,3.648,4.57,3.648,5.985l-0.001,0.436C27.138,33.101,24.778,34.692,22.823,34.692z
				 M22.82,31.119v0.006V31.119z M22.612,30.076c0.029,0.226,0.136,0.294,0.206,0.298c-0.005-0.281-0.017-0.51-0.034-0.697
				C22.709,29.826,22.648,29.967,22.612,30.076z M22.586,30.166L22.586,30.166L22.586,30.166z M22.537,28.915
				c0.015,0.004,0.04,0.008,0.075,0.011C22.61,28.924,22.608,28.922,22.537,28.915z"/>
		</g>
		<g>
			<path style="fill:#525D7D;" d="M37.871,32.504c-1.628,0-3.441-1.709-3.441-4.161c0-2.315,1.198-4.093,3.203-4.758
				c0.302-0.1,0.609-0.15,0.912-0.15c2.529,0,3.314,3.205,3.314,4.373c0,1.961-1.208,4.189-3.517,4.65
				C38.205,32.486,38.013,32.504,37.871,32.504z"/>
		</g>
		<g>
			<path style="fill:#525D7D;" d="M54.752,31.675c-2.171,0-3.872-1.581-3.872-3.601c0-1.348,1.851-4.647,4.277-4.647
				c0.285,0,0.58,0.034,0.879,0.101c1.892,0.42,3.114,1.891,3.114,3.749C59.151,29.701,57.178,31.675,54.752,31.675z M55.098,27.73
				c0.01-0.042,0.47-2.096,0.47-2.096l-0.465,2.046c-0.104-0.204-0.268-0.325-0.351-0.325C54.823,27.451,54.967,27.643,55.098,27.73
				z"/>
		</g>
		<g>
			<path style="fill:#525D7D;" d="M36.196,180.024c-5.59,0-15.575-4.289-15.575-12.835c0-7.299,7.617-15.427,17.261-25.718
				c6.84-7.299,14.594-15.573,21.408-25.307c0.684-0.976,2.031-1.216,3.007-0.53c0.977,0.683,1.214,2.03,0.531,3.007
				c-6.991,9.986-14.855,18.379-21.794,25.782c-8.636,9.215-16.094,17.174-16.094,22.766c0,5.51,7.437,8.517,11.257,8.517
				c6.209,0,13.202-11.029,20.604-22.704c5.578-8.799,11.346-17.897,18.027-24.576c0.843-0.843,2.21-0.843,3.053,0
				c0.843,0.843,0.843,2.21,0,3.053c-6.342,6.342-11.98,15.234-17.433,23.835C52.04,168.572,44.78,180.024,36.196,180.024z"/>
		</g>
		<g>
			<path style="fill:#525D7D;" d="M63.018,145.053c-0.44,0-0.884-0.134-1.268-0.413c-3.842-2.794-7.687-6.38-12.1-11.282
				c-0.798-0.887-0.726-2.252,0.16-3.05c0.887-0.797,2.252-0.727,3.049,0.16c4.206,4.674,7.838,8.067,11.431,10.68
				c0.964,0.701,1.177,2.051,0.476,3.015C64.343,144.745,63.685,145.053,63.018,145.053z"/>
		</g>
		<g>
			<path style="fill:#525D7D;" d="M90.548,167.285c-0.105,0-0.209-0.001-0.315-0.006c-4.176-0.145-8.856-3.582-9.135-8.879
				c-0.254-4.833,3.097-9.283,7.794-10.353c0.637-0.146,1.246-0.207,1.947-0.214c4.764,0.038,9.207,4.086,9.511,8.664
				c0.195,2.936-0.805,5.696-2.816,7.772C95.669,166.197,93.138,167.285,90.548,167.285z M90.786,152.152
				c-0.311,0-0.626,0.035-0.932,0.105c-2.636,0.6-4.587,3.198-4.444,5.915c0.15,2.858,2.697,4.713,4.971,4.792
				c1.477,0.046,2.957-0.569,4.05-1.698c1.151-1.188,1.723-2.78,1.61-4.481C95.873,154.239,93.042,152.169,90.786,152.152z"/>
		</g>
		<g>
			<path style="fill:#525D7D;" d="M18.505,111.529c-0.079,0-0.159,0-0.238-0.001c-7.689-0.129-13.512-6.05-13.547-13.774
				c-0.03-6.519,4.062-12.084,9.948-13.532c1.023-0.253,2.059-0.401,3.078-0.437c8.462-0.283,14.266,5.98,14.81,11.982
				c0.365,4.036-1.113,8.271-3.953,11.329C25.94,109.96,22.362,111.529,18.505,111.529z M18.312,88.093
				c-0.136,0-0.271,0.001-0.409,0.007c-0.725,0.027-1.465,0.132-2.201,0.315c-3.946,0.97-6.685,4.802-6.665,9.319
				c0.024,5.313,4.022,9.387,9.3,9.475c2.766,0.075,5.229-1.039,7.101-3.053c2.02-2.174,3.073-5.166,2.817-8.001
				C27.896,92.194,23.84,88.093,18.312,88.093z"/>
		</g>
		<g>
			<path style="fill:#525D7D;" d="M12.264,131.601c-1.024,0-1.964-0.239-2.811-0.876c-1.974-1.484-2.379-4.387-2.379-8.29
				c0-5.857,2.258-10.889,6.359-14.17c0.933-0.741,2.29-0.593,3.035,0.339c0.745,0.93,0.594,2.29-0.337,3.035
				c-3.056,2.443-4.738,6.278-4.738,10.797c0,4.105,0.594,4.781,0.662,4.844c0.439,0.173,2.325-0.377,3.7-0.773
				c2.713-0.784,6.428-1.858,11.114-1.858c0.432,0,0.51-0.096,0.639-0.391c1.17-2.672-1.659-11.358-4.115-14.017
				c-0.809-0.876-0.754-2.242,0.121-3.052c0.878-0.807,2.244-0.754,3.051,0.122c2.997,3.246,7.072,13.713,4.898,18.678
				c-0.828,1.892-2.503,2.977-4.594,2.977c-4.075,0-7.314,0.936-9.915,1.688C15.247,131.147,13.675,131.601,12.264,131.601z"/>
		</g>
		<g>
			<path style="fill:#525D7D;" d="M8.114,104.267c-0.325,0-0.654-0.073-0.964-0.228c-1.066-0.534-1.498-1.83-0.966-2.897
				c4.301-8.601,12.956-10.419,20.594-12.022l0.501-0.105c1.161-0.253,2.312,0.5,2.558,1.669c0.246,1.167-0.501,2.311-1.668,2.557
				l-0.503,0.106c-7.007,1.472-14.252,2.994-17.619,9.728C9.668,103.83,8.905,104.267,8.114,104.267z"/>
		</g>
		<g>
			<path style="fill:#525D7D;" d="M179.002,56.369c-0.287,0-0.576-0.058-0.85-0.174c-0.791-0.34-1.304-1.115-1.308-1.975
				l-0.011-2.405c0-2.245,0.065-4.622,0.479-6.99c-1.076-0.95-2.105-1.931-3.107-2.889c-0.569-0.544-1.139-1.087-1.715-1.622
				c-0.647-0.602-0.862-1.538-0.542-2.361c0.319-0.824,1.108-1.371,1.993-1.379c2.413-0.022,4.921-0.121,7.347-0.216
				c0.294-3.929,0.683-7.812,1.525-11.772c0.195-0.915,0.957-1.6,1.887-1.698c0.943-0.083,1.818,0.416,2.198,1.271
				c1.334,3,2.984,5.891,4.717,8.815c0.688,0.152,1.371,0.316,2.052,0.481c1.545,0.371,3.003,0.721,4.483,0.925
				c0.786,0.11,1.451,0.641,1.728,1.386c0.277,0.744,0.124,1.58-0.401,2.177c-1.646,1.877-2.959,3.552-4.046,5.176
				c0.013,0.048,0.025,0.097,0.034,0.146c0.652,3.257,1.847,6.522,3.003,9.679c0.299,0.815,0.079,1.732-0.557,2.323
				c-0.636,0.592-1.566,0.746-2.358,0.387c-3.058-1.379-5.928-2.959-9.159-4.862c-2.205,1.688-4.147,3.33-5.909,4.991
				C180.075,56.166,179.543,56.369,179.002,56.369z M179.248,40.756c0.597,0.548,1.196,1.082,1.816,1.601
				c0.625,0.524,0.902,1.354,0.716,2.148c-0.364,1.556-0.526,3.147-0.592,4.904c1.18-0.973,2.432-1.951,3.771-2.948
				c0.7-0.521,1.646-0.568,2.394-0.121c1.873,1.116,3.6,2.12,5.283,3.032c-0.234-0.723-0.456-1.452-0.663-2.189
				c-0.402,0.043-0.821-0.037-1.207-0.239c-1.055-0.555-1.461-1.861-0.905-2.915c1.05-1.995,2.35-3.978,4.002-6.092
				c-0.406-0.094-0.809-0.191-1.208-0.288c-0.941-0.226-1.884-0.453-2.841-0.645c-0.598-0.121-1.117-0.488-1.429-1.012
				c-0.807-1.354-1.601-2.699-2.365-4.055c-0.245,2.201-0.411,4.414-0.565,6.651c-0.076,1.101-0.971,1.968-2.073,2.009l-1.89,0.073
				C180.751,40.7,180.001,40.728,179.248,40.756z"/>
		</g>
		<g>
			<path style="fill:#525D7D;" d="M188.581,77.063c-5,0-10.137-4.01-11.694-9.131c-0.347-1.141,0.297-2.347,1.437-2.695
				c1.141-0.346,2.347,0.297,2.694,1.438c1.001,3.291,4.464,6.07,7.563,6.07c4.195,0,6.582-3.043,7.512-9.578l0.074-0.493
				c0.196-1.177,1.308-1.969,2.485-1.774c1.176,0.197,1.97,1.309,1.774,2.485l-0.058,0.391
				C198.805,74.757,193.095,77.063,188.581,77.063z"/>
		</g>
		<g>
			<path style="fill:#525D7D;" d="M112.053,162.631c-2.015-0.038-4-0.145-5.94-0.318c-1.188-0.105-2.065-1.155-1.959-2.342
				c0.106-1.189,1.16-2.061,2.343-1.96c1.841,0.165,3.724,0.266,5.597,0.301c1.193,0.022,2.141,1.008,2.118,2.2
				C114.189,161.69,113.226,162.631,112.053,162.631z M124.97,161.884c-1.066,0-1.993-0.789-2.137-1.874
				c-0.157-1.182,0.673-2.269,1.855-2.426c1.844-0.245,3.707-0.555,5.538-0.923c1.174-0.229,2.308,0.523,2.542,1.692
				c0.235,1.168-0.523,2.307-1.692,2.541c-1.924,0.386-3.882,0.713-5.819,0.971C125.161,161.879,125.065,161.884,124.97,161.884z
				 M143.125,157.468c-0.885,0-1.715-0.548-2.032-1.428c-0.403-1.123,0.179-2.359,1.302-2.762c1.761-0.634,3.517-1.331,5.218-2.075
				c1.094-0.482,2.365,0.021,2.843,1.113c0.477,1.092-0.021,2.366-1.114,2.842c-1.789,0.783-3.634,1.517-5.486,2.182
				C143.614,157.427,143.367,157.468,143.125,157.468z M159.895,149.238c-0.71,0-1.406-0.35-1.818-0.991
				c-0.645-1.004-0.354-2.339,0.649-2.984c1.576-1.013,3.119-2.09,4.587-3.202c0.951-0.72,2.305-0.531,3.024,0.419
				c0.72,0.95,0.533,2.305-0.418,3.025c-1.555,1.177-3.19,2.318-4.859,3.39C160.699,149.127,160.295,149.238,159.895,149.238z
				 M174.179,137.231c-0.517,0-1.037-0.186-1.451-0.561c-0.883-0.801-0.949-2.166-0.148-3.049c1.253-1.38,2.448-2.821,3.55-4.279
				c0.72-0.953,2.073-1.14,3.025-0.42c0.951,0.718,1.139,2.073,0.42,3.023c-1.181,1.562-2.458,3.101-3.797,4.577
				C175.352,136.992,174.766,137.231,174.179,137.231z M184.499,121.725c-0.302,0-0.609-0.063-0.9-0.197
				c-1.084-0.499-1.558-1.781-1.06-2.865c0.769-1.673,1.462-3.402,2.058-5.136c0.387-1.129,1.612-1.722,2.744-1.341
				c1.127,0.388,1.728,1.617,1.339,2.744c-0.643,1.871-1.389,3.735-2.219,5.538C186.098,121.26,185.316,121.725,184.499,121.725z
				 M189.443,103.78c-0.078,0-0.157-0.004-0.236-0.013c-1.186-0.129-2.042-1.195-1.913-2.38c0.197-1.812,0.311-3.676,0.338-5.538
				c0.018-1.181,0.981-2.127,2.158-2.127c1.225,0.018,2.177,0.998,2.16,2.191c-0.029,1.996-0.152,3.995-0.363,5.94
				C191.467,102.96,190.53,103.78,189.443,103.78z"/>
		</g>
	</g>
</g>
<g id="Layer_1">
</g>
</svg>
