<?xml version="1.0" encoding="iso-8859-1"?>
<!-- Generator: Adobe Illustrator 21.0.2, SVG Export Plug-In . SVG Version: 6.00 Build 0)  -->
<svg version="1.1" xmlns="http://www.w3.org/2000/svg" xmlns:xlink="http://www.w3.org/1999/xlink" x="0px" y="0px"
	 viewBox="0 0 209.857 178.235" style="enable-background:new 0 0 209.857 178.235;" xml:space="preserve">
<g id="_x34_9">
	<g>
		<g>
			<path style="fill:#E0DFE6;" d="M189.564,88.03c-4.045-2.922-8.376,1.888-7.641,5.875c1.188,6.452,0.367,15.257-5.814,18.848
				c-6.77,3.933-15.237,1.932-22.403,0.399c-2.673-0.572-4.823,3.514-1.986,4.712c10.897,4.601,24.15,9.072,34.417,0.489
				C193.747,111.991,198.708,94.636,189.564,88.03z"/>
		</g>
		<g>
			<path style="fill:#E0DFE6;" d="M196.733,140.883c-2.285-2.85-4.692-5.326-6.466-8.574c-1.667-3.052-2.53-6.346-4.409-9.282
				c-0.893-1.395-2.783-1.023-3.333,0.436c-2.913,7.722,1.565,19.037,6.574,25.055C193.576,153.897,201.016,146.226,196.733,140.883
				z"/>
		</g>
		<g>
			<path style="fill:#E0DFE6;" d="M142.562,45.875c2.511,1.28,5.231,1.623,8.009,1.426c7.863-0.559,13.215-6.332,19.516-10.33
				c6.585-4.178,0.363-14.789-6.112-10.456c-5.524,3.697-12.192,12.175-19.431,9.328c-1.735-0.682-2.979-2.146-4.991-2.197
				c-2.238-0.056-4.918,1.531-6.842,2.409c-15.752,7.183-31.415,14.604-46.3,23.463c-1.781,1.06-0.623,4.185,1.456,3.453
				c0.832-0.293,1.657-0.602,2.487-0.901c-1.126,4.613-4.023,6.17-9.205,6.187c-4.311,0.014-9.166-0.669-11.727-4.528
				c-1.206-1.817-3.99-0.683-3.513,1.481c1.778,8.058,9.972,11.699,17.446,12.845c10.066,1.543,18.589-5.282,19.312-15.442
				c0.138-1.934-0.695-3.437-1.961-4.467c3.589-1.435,7.154-2.932,10.688-4.523c4.167-1.875,8.324-3.771,12.483-5.663
				c1.179-0.536,2.349-1.09,3.523-1.634c0.693,8.936,0.086,18.057-1.839,26.797c-0.201,0.911-0.441,1.929-0.719,3.012
				c-0.843,1.44-1.709,2.856-2.622,4.227c-2.056-1.013-4.548-0.941-6.347,1.178c-8.253,9.717-17.363,17.145-30.231,19.59
				c-12.721,2.417-27.986-0.583-38.333-8.6c-1.894-1.467-4.561,0.957-2.718,2.718c0.591,0.565,1.192,1.111,1.795,1.653
				c-1.44-0.207-3.053,1.175-1.98,2.666c6.929,9.632,16.766,15.915,27.436,18.666c-0.78,0.71-0.981,1.846-0.525,2.83
				c0,0.045,0.001,0.09,0.001,0.135c0.021,0.071-0.102,0.337-0.134,0.454c-0.223,0.825-0.397,1.658-0.474,2.511
				c-0.159,1.751,0.296,3.552,1.243,5.038c2.248,3.525,6.579,4.797,10.528,5.16c1.726,0.159,3.408-0.75,4.561-2.103
				c3.433,1.298,5.963,3.475,5.431,8.386c-0.179,1.657,0.555,2.93,1.683,3.767c-0.384,1.33-0.518,2.701-0.162,4.117
				c0.694,2.766,2.932,4.78,5.726,5.291c2.064,0.377,4.168,0.291,6.252,0.419c1.964,0.121,3.714-1.036,4.743-2.631
				c3.247,2.362,3.089,6.685,2.894,10.982c-0.411,1.66-0.359,3.515-0.001,5.216c0.052,0.547,0.121,1.083,0.237,1.591
				c0.275,1.21,0.875,2.077,1.645,2.657c2.267,2.882,6.484,4.812,10.185,4.378c1.356,0.919,2.913,1.52,4.821,1.768
				c4.609,0.599,5.322-6.585,1.45-7.985c-0.006-0.219,0-0.433-0.031-0.663c-0.367-2.73-2.796-5.144-5.689-5.022
				c-0.527,0.022-1.047,0.098-1.572,0.124c-0.63-0.748-1.236-1.515-1.854-2.273c-0.367-5.381,0.499-10.852-3.703-15.315
				c-3.019-3.206-7.018-3.229-10.79-3.791c-0.26-0.128-0.523-0.251-0.805-0.349c-0.799-0.278-1.621-0.384-2.448-0.388
				c-0.742-0.831-1.487-1.658-2.215-2.495c-0.115-0.132-0.227-0.271-0.34-0.407c0.101-4.715-1.74-9.286-5.588-12.312
				c-1.953-1.536-4.387-2.547-6.881-2.74c-0.926-0.072-1.847-0.002-2.765,0.132c-1.083-1.406-2.771-2.277-4.785-2.462
				c-0.597-0.055-1.2-0.103-1.8-0.12c-0.308-0.103-0.636-0.13-0.919-0.209c-0.367-0.102-0.747-0.268-1.129-0.377
				c-0.278-0.593-0.941-1.622-1.356-2.226c13.993,1.995,28.788-1.921,40.017-12.206c-0.003,1.282,0.412,2.583,1.157,3.593
				c0.697,0.945,1.438,1.764,2.481,2.351c0.953,0.537,2.02,0.694,3.045,0.548c0.121,0.134,0.241,0.269,0.362,0.403
				c-0.705,0.408-1.139,1.162-0.748,2.119c4.796,11.738,5.736,24.291,9.816,36.181c3.306,9.636,11.8,22.787,23.433,16.483
				c4.423,2.285,9.191,2.53,12.599-2.278c3.645-5.143-2.001-9.679-6.9-8.759c-6.644-0.634-10.882-11.767-12.98-16.611
				c-0.689-1.591-1.38-3.155-2.095-4.691c-1.514-6.536-3.955-13.072-7.006-18.856c-1.529-2.899-3.463-5.538-6.03-7.589
				c-3.023-2.415-7.266-3.412-9.364-6.871c-0.302-0.498-0.693-0.838-1.115-1.092c5.207-5.501,8.399-13.693,10.419-20.437
				c3.82-12.749,3.011-25.401-2.364-37.467c1.524-0.871,3.765-2.429,4.957-2.388C138.46,41.807,140.592,44.87,142.562,45.875z"/>
		</g>
		<g>
			<path style="fill:#E0DFE6;" d="M108.653,69.041c-7.998,6.247-15.541,14.528-25.861,16.888
				c-10.449,2.39-20.073-4.049-28.254-9.714c-2.378-1.647-5.682,1.64-4.021,4.021c7.21,10.33,18.337,18.744,31.53,17.828
				c12.979-0.901,27.29-10.309,35.538-20.089C122.925,71.647,115.003,64.082,108.653,69.041z"/>
		</g>
		<g>
			<path style="fill:#E0DFE6;" d="M173.266,93.699c-3.219-0.435-5.569,1.96-5.819,5.044c0.061-0.751-0.121,0.214-0.059,0.215
				c-0.114,0.216-0.369,0.715-0.43,0.801c-0.02,0.028-0.739,0.727-1.027,0.922c-1.082,0.734-2.133,1.014-3.525,0.799
				c-4.172-0.645-6.208,4.139-2.821,6.69c6.566,4.944,16.378-0.828,17.952-8.062C178.192,97.094,176.435,94.128,173.266,93.699z"/>
		</g>
		<g>
			<path style="fill:#E0DFE6;" d="M153.814,12.774c-2.443,1.456-4.719,3.204-7.098,4.765c-2.338,1.534-4.78,2.903-6.948,4.676
				c-2.944,2.408,0.293,6.668,3.466,5.953c2.734-0.616,5.356-1.925,7.924-3.03c2.611-1.123,5.297-2.208,7.741-3.665
				C164.465,18.158,159.403,9.443,153.814,12.774z"/>
		</g>
		<g>
			<g>
				<path style="fill:#525D7D;" d="M82.885,111.885c-13.508,0.001-27.424-5.646-37.715-15.411
					C34.804,86.637,29.137,73.496,29.21,59.472c0.077-13.792,5.786-26.735,16.073-36.445C56.105,12.809,70.786,7.397,85.535,8.159
					c1.912,0.1,3.811,0.298,5.642,0.589c10.582,1.681,20.085,6.853,27.481,14.957c9.097,9.966,13.493,20.66,13.831,33.654
					c0.755,28.972-19.828,52.888-46.858,54.447C84.72,111.86,83.803,111.885,82.885,111.885z M82.766,12.406
					c-12.717,0-25.172,4.938-34.52,13.76c-9.421,8.893-14.647,20.73-14.718,33.331c-0.068,12.818,5.124,24.839,14.616,33.846
					c10.14,9.623,24.06,14.912,37.241,14.155c24.687-1.425,43.483-23.398,42.79-50.025c-0.311-11.896-4.349-21.7-12.706-30.855
					c-6.73-7.374-15.364-12.077-24.97-13.604c-1.683-0.267-3.428-0.45-5.19-0.541C84.462,12.428,83.612,12.406,82.766,12.406z"/>
			</g>
			<g>
				<path style="fill:#525D7D;" d="M82.183,94.606c-9.005,0-18.278-3.76-25.129-10.262c-6.918-6.564-10.7-15.335-10.65-24.697
					c0.052-9.208,3.86-17.847,10.724-24.326c7.212-6.809,17.015-10.417,26.824-9.906c1.288,0.068,2.553,0.2,3.76,0.392
					c7.076,1.126,13.428,4.582,18.37,9.995c6.067,6.647,8.997,13.781,9.222,22.449c0.503,19.315-13.24,35.26-31.287,36.301
					C83.408,94.588,82.795,94.606,82.183,94.606z M82.102,29.685c-8.108,0-16.051,3.149-22.011,8.775
					c-5.998,5.66-9.325,13.193-9.37,21.21c-0.043,8.155,3.261,15.806,9.304,21.541c6.469,6.138,15.345,9.498,23.743,9.031
					c15.705-0.907,27.662-14.908,27.22-31.878c-0.201-7.675-2.697-13.734-8.096-19.651c-4.275-4.684-9.759-7.672-15.858-8.642
					c-1.06-0.169-2.173-0.285-3.308-0.344C83.185,29.699,82.642,29.685,82.102,29.685z"/>
			</g>
			<g>
				<path style="fill:#525D7D;" d="M82.565,77.944c-0.94,0-1.848-0.086-2.734-0.169l-0.356-0.032
					c-7.734-0.714-15.804-8.358-15.492-18.602c0.183-6.013,3.264-11.387,8.241-14.371c2.12-1.271,4.159-2.024,6.062-2.241
					c6.224-0.699,11.885,0.929,15.943,4.595c3.66,3.306,5.642,8.056,5.583,13.37c-0.108,9.436-8.761,16.982-16.426,17.426
					C83.11,77.936,82.836,77.944,82.565,77.944z M74.446,48.472c-3.711,2.225-6.009,6.263-6.147,10.801
					c-0.237,7.815,5.791,13.636,11.573,14.169l0.364,0.035c1.023,0.096,1.995,0.181,2.9,0.134
					c5.535-0.322,12.281-6.265,12.36-13.165c0.046-4.118-1.392-7.617-4.159-10.118c-3.126-2.824-7.579-4.069-12.564-3.508
					C77.507,46.963,76.01,47.534,74.446,48.472z"/>
			</g>
			<g>
				<path style="fill:#525D7D;" d="M83.238,62.909c-0.735,0-1.453-0.377-1.857-1.054c-0.61-1.025-0.274-2.35,0.751-2.96
					c14.751-8.78,30.556-16.383,45.841-23.736c10.548-5.074,21.456-10.322,31.846-15.878c1.046-0.564,2.36-0.169,2.921,0.886
					c0.564,1.051,0.166,2.359-0.885,2.921c-10.471,5.601-21.42,10.868-32.01,15.964c-15.199,7.312-30.917,14.873-45.502,23.554
					C83.994,62.81,83.615,62.909,83.238,62.909z"/>
			</g>
			<g>
				<path style="fill:#525D7D;" d="M152.287,40.462c-0.208,0-0.417-0.03-0.621-0.091c-5.514-1.659-10.951-3.677-16.21-5.628
					l-0.479-0.178c-0.548-0.203-0.99-0.618-1.224-1.153c-0.236-0.534-0.246-1.14-0.027-1.681c1.504-3.718,2.595-7.671,3.649-11.494
					L138,17.982c0.186-0.659,0.672-1.192,1.312-1.435c7.222-2.747,14.396-5.978,21.931-9.88c0.723-0.375,1.597-0.311,2.26,0.17
					c0.661,0.479,0.995,1.29,0.863,2.096c-0.378,2.311-0.776,4.616-1.174,6.92c-0.183,1.057-0.365,2.115-0.547,3.174
					c1.639,0.648,3.255,1.316,4.865,1.982c1.791,0.739,3.575,1.476,5.372,2.179c0.77,0.301,1.3,1.015,1.366,1.84
					c0.066,0.824-0.344,1.612-1.057,2.033c-5.585,3.288-12.859,7.732-19.58,12.95C153.228,40.306,152.761,40.462,152.287,40.462z
					 M138.523,31.275c4.365,1.617,8.839,3.248,13.331,4.639c5.215-3.971,10.665-7.468,15.402-10.34
					c-0.465-0.191-0.929-0.384-1.394-0.575c-2.114-0.874-4.238-1.751-6.41-2.582c-0.96-0.368-1.528-1.361-1.358-2.374
					c0.277-1.645,0.559-3.285,0.843-4.925c0.153-0.891,0.308-1.782,0.46-2.673c-5.954,2.953-11.73,5.504-17.528,7.748l-0.332,1.193
					C140.64,24.639,139.717,27.984,138.523,31.275z"/>
			</g>
			<g>
				<path style="fill:#525D7D;" d="M23.828,82.78c-0.661,0-1.314-0.302-1.737-0.876c-6.04-8.172-8.976-18.743-8.976-32.316
					c0-6.178,0.59-12.273,1.103-16.893c0.134-1.185,1.2-2.028,2.385-1.907c1.185,0.132,2.038,1.2,1.907,2.385
					c-0.502,4.509-1.078,10.45-1.078,16.415c0,12.79,2.584,22.243,8.13,29.749c0.708,0.959,0.506,2.311-0.453,3.019
					C24.723,82.642,24.273,82.78,23.828,82.78z"/>
			</g>
			<g>
				<path style="fill:#525D7D;" d="M27.014,22.667c-0.451,0-0.905-0.14-1.295-0.432c-0.953-0.715-1.147-2.069-0.432-3.023
					c6.653-8.871,17.58-15.667,30.768-19.138c1.157-0.311,2.333,0.385,2.637,1.538c0.304,1.153-0.385,2.335-1.538,2.637
					c-12.252,3.225-22.341,9.459-28.412,17.555C28.319,22.369,27.671,22.667,27.014,22.667z"/>
			</g>
			<g>
				<path style="fill:#525D7D;" d="M6.363,172.586c-1.458,0-2.938-0.068-4.4-0.201c-1.188-0.11-2.062-1.16-1.954-2.347
					s1.148-2.062,2.347-1.954c1.331,0.122,2.679,0.184,4.006,0.184c11.291,0,18.549-3.316,22.186-10.137
					c3.184-5.97,3.178-13.713,3.174-19.935v-1.59c0-25.033,3.645-27.314,24.125-28.887c1.179-0.112,2.228,0.796,2.318,1.986
					c0.091,1.189-0.797,2.226-1.986,2.318c-17.846,1.372-20.139,1.549-20.139,24.583v1.586c0.006,6.705,0.011,15.047-3.681,21.971
					C27.963,168.406,19.216,172.586,6.363,172.586z"/>
			</g>
			<g>
				<path style="fill:#525D7D;" d="M138.276,177.128h-23.081c-1.192,0-2.159-0.967-2.159-2.159v-20.688
					c-6.954-0.18-13.706-0.218-19.486-0.229c-1.165-0.003-2.118-0.929-2.153-2.094c-0.101-3.341-0.178-6.704-0.257-10.067
					c-0.059-2.576-0.119-5.153-0.188-7.72c-6.427-0.313-12.271-0.378-17.832-0.202c-1.03,0.046-1.82-0.573-2.12-1.483
					c-0.593-1.805-1.133-3.622-1.671-5.44c-1.193-4.029-2.321-7.833-4.03-11.535c-0.499-1.084-0.027-2.366,1.056-2.866
					c1.087-0.502,2.364-0.025,2.866,1.056c1.839,3.986,3.063,8.12,4.248,12.118c0.375,1.265,0.75,2.53,1.144,3.79
					c5.809-0.134,11.828-0.02,18.56,0.354c1.12,0.063,2.006,0.971,2.038,2.093c0.096,3.232,0.172,6.483,0.247,9.735
					c0.06,2.652,0.122,5.306,0.195,7.949c5.921,0.018,12.699,0.076,19.607,0.285c1.167,0.035,2.094,0.991,2.094,2.158v20.628h20.922
					c1.192,0,2.159,0.967,2.159,2.159C140.435,176.161,139.468,177.128,138.276,177.128z"/>
			</g>
			<g>
				<path style="fill:#525D7D;" d="M163.132,169.435c-19.455,0-23.533-16.741-27.13-31.511c-3.251-13.347-6.06-24.873-18.37-24.873
					c-2.596,0-5.424,0.256-8.16,0.502c-4.501,0.408-9.347,0.742-12.926,0.232c-1.181-0.169-2.002-1.261-1.834-2.442
					c0.167-1.181,1.262-1.997,2.441-1.834c3.152,0.451,7.673,0.128,11.931-0.256c2.831-0.256,5.757-0.52,8.548-0.52
					c15.704,0,19.191,14.321,22.565,28.169c3.535,14.51,6.874,28.215,22.936,28.215c1.192,0,2.159,0.967,2.159,2.159
					C165.291,168.468,164.324,169.435,163.132,169.435z"/>
			</g>
			<g>
				<path style="fill:#525D7D;" d="M165.173,118.58c-6.744,0-12.899-2.432-17.378-6.876c-4.467-4.435-6.888-10.587-6.817-17.324
					c0.117-10.403,6.413-19.254,15.666-22.028c2.846-0.852,5.719-1.25,8.584-1.247c6.82,0.06,12.928,2.643,17.198,7.271
					c4.535,4.917,6.736,11.76,6.196,19.267c-0.715,9.96-9,20.681-22.943,20.933C165.51,118.579,165.341,118.58,165.173,118.58z
					 M157.883,76.487c-7.434,2.228-12.493,9.438-12.587,17.939c-0.059,5.559,1.909,10.608,5.541,14.214
					c3.754,3.726,9.048,5.736,14.763,5.618c6.774-0.121,17.844-4.824,18.715-16.924c0.453-6.306-1.345-11.998-5.063-16.03
					c-3.503-3.797-8.366-5.831-14.063-5.881C162.82,75.419,160.313,75.759,157.883,76.487z"/>
			</g>
			<g>
				<path style="fill:#525D7D;" d="M163.746,104.653c-4.774,0-11.415-4.994-11.415-9.91l0.007-0.278
					c0.27-5.414,5.545-10.341,11.068-10.341c0.779,0,1.548,0.1,2.286,0.297c0.73,0.194,1.271,0.739,1.493,1.406
					c5.582,1.77,6.574,5.963,6.574,8.716C173.758,97.327,170.68,104.653,163.746,104.653z M160.469,89.259
					c-2.061,1.134-3.712,3.289-3.819,5.417c-0.001,2.21,4.376,5.659,7.096,5.659c4.029,0,5.674-4.937,5.694-5.795
					c0-1.428,0-5.229-8.497-5.229C160.78,89.311,160.621,89.293,160.469,89.259z"/>
			</g>
			<g>
				<path style="fill:#525D7D;" d="M163.846,96.727c-0.801,0-1.572-0.447-1.944-1.217c-0.52-1.073-0.072-2.364,1.001-2.884
					c8.757-4.246,16.877-10.004,24.729-15.572c1.562-1.108,3.123-2.215,4.692-3.313c0.977-0.684,2.325-0.445,3.007,0.53
					c0.685,0.977,0.447,2.324-0.53,3.007c-1.562,1.093-3.116,2.196-4.671,3.298c-7.995,5.67-16.263,11.533-25.344,15.936
					C164.483,96.658,164.162,96.727,163.846,96.727z"/>
			</g>
			<g>
				<path style="fill:#525D7D;" d="M159.654,63.838c-0.755,0-1.487-0.396-1.884-1.101c-0.585-1.04-0.215-2.356,0.824-2.941
					c5.049-2.837,11.553-2.978,18.261-0.461c1.118,0.419,1.682,1.663,1.264,2.779c-0.419,1.116-1.666,1.684-2.779,1.264
					c-5.496-2.061-10.7-2.025-14.628,0.183C160.377,63.749,160.013,63.838,159.654,63.838z"/>
			</g>
			<g>
				<path style="fill:#525D7D;" d="M145.785,130.584c-1.066,0-1.993-0.788-2.138-1.874c-0.157-1.182,0.673-2.267,1.855-2.426
					c4.686-0.624,9.46-0.661,14.075-0.697c5.038-0.038,10.246-0.079,15.198-0.904c1.177-0.194,2.288,0.597,2.485,1.774
					c0.197,1.177-0.599,2.29-1.774,2.485c-5.289,0.881-10.671,0.924-15.875,0.963c-4.482,0.035-9.118,0.07-13.538,0.661
					C145.976,130.579,145.88,130.584,145.785,130.584z"/>
			</g>
			<g>
				<path style="fill:#525D7D;" d="M147.076,151.543c-1.134,0-2.086-0.886-2.153-2.033c-0.07-1.189,0.838-2.211,2.028-2.281
					c0.953-0.056,1.916-0.103,2.886-0.15c2.25-0.108,4.56-0.219,6.831-0.464c0.008-0.315,0.015-0.63,0.024-0.945
					c0.058-2.419,0.119-4.92,0.284-7.46c0.075-1.139,0.997-2.031,2.165-2.019c1.48,0.007,2.955,0.034,4.425,0.059
					c3.271,0.06,6.643,0.094,9.335-0.028c-0.014-0.682-0.025-1.363-0.025-2.047c0-1.152,0.032-2.111,0.103-3.015
					c0.091-1.191,1.146-2.106,2.318-1.986c1.189,0.091,2.079,1.129,1.986,2.318c-0.06,0.791-0.089,1.643-0.089,2.683
					c0,0.824,0.018,1.648,0.037,2.473l0.03,1.576c0.016,1.141-0.859,2.096-1.996,2.183c-2.007,0.152-4.137,0.222-6.705,0.222
					c-1.69,0-3.378-0.031-5.07-0.06c-0.77-0.014-1.542-0.028-2.315-0.039c-0.08,1.77-0.124,3.528-0.165,5.244
					c-0.022,0.937-0.045,1.877-0.075,2.818c-0.031,1.047-0.811,1.921-1.848,2.07c-3.043,0.44-6.092,0.588-9.041,0.73
					c-0.954,0.046-1.902,0.091-2.841,0.146C147.162,151.541,147.119,151.543,147.076,151.543z"/>
			</g>
			<g>
				<path style="fill:#525D7D;" d="M201.799,161.354c-12.427,0-21.089-13.106-21.089-24.869c0-1.192,0.967-2.159,2.159-2.159
					s2.159,0.967,2.159,2.159c0,9.72,6.888,20.55,16.771,20.55c1.685,0,3.416-0.326,5.145-0.97c1.12-0.412,2.361,0.153,2.778,1.271
					c0.415,1.119-0.153,2.361-1.271,2.778C206.238,160.936,204.001,161.354,201.799,161.354z"/>
			</g>
		</g>
	</g>
</g>
<g id="Layer_1">
</g>
</svg>
