<?xml version="1.0" encoding="iso-8859-1"?>
<!-- Generator: Adobe Illustrator 21.0.2, SVG Export Plug-In . SVG Version: 6.00 Build 0)  -->
<svg version="1.1" xmlns="http://www.w3.org/2000/svg" xmlns:xlink="http://www.w3.org/1999/xlink" x="0px" y="0px"
	 viewBox="0 0 212.297 186.855" style="enable-background:new 0 0 212.297 186.855;" xml:space="preserve">
<g id="_x35_">
	<g>
		<path style="fill:#E0DFE6;" d="M135.62,168.203c-4.359,0.369-8.13,2.146-12.411,2.859c-4.478,0.745-9.159,0.476-13.666,0.083
			c-8.941-0.779-18.34-3.606-27.119-0.597c-1.297,0.444-2.018,1.673-1.987,2.874c-0.685-2.596-1.745-5.219-3.542-6.74
			c-1.65-1.396-4.313-0.977-4.934,1.302c-0.418,1.537-0.249,3.06-0.249,4.619c-0.302,0.103-0.604,0.206-0.906,0.308
			c-1.439,0.49-2.539,2.024-2.034,3.583c0.331,1.024,1.239,1.885,2.294,2.102c-0.047,2.887,2.045,5.494,5.167,5.494
			c3.605,0,5.603-3.32,5.048-6.626c-0.15-0.892-0.332-1.888-0.565-2.915c0.219,0.427,0.549,0.816,1.04,1.106
			c8.933,5.267,20.553,8.366,30.767,9.769c8.811,1.211,21.503,1.294,27.662-6.203C143.354,175.364,141.742,167.685,135.62,168.203z"
			/>
		<path style="fill:#E0DFE6;" d="M192.803,96.898c-0.471-3.376-5.919-2.507-5.875,0.795c0.055,4.15-0.165,8.205-0.634,12.184
			c-0.972-0.408-2.204,0.005-2.662,1.228c-2.51,6.7-2.608,13.987-3.534,21.051c-1.266-0.477-2.722-0.343-3.686,0.821
			c-5.366,6.483-10.119,13.471-15.407,20.028c-2.737,3.394-1.644,6.977,0.711,9.009c-0.371,0.308-0.742,0.615-1.111,0.914
			c-0.58-2.222-1.341-4.439-2.95-6.002c-1.277-1.24-3.121-0.843-4.08,0.526c-1.804,2.577-1.673,6.457-1.866,9.511
			c-0.237,3.729-0.586,7.454,0.04,11.146c1.1,6.482,11.167,5.083,11.629-1.047c1.344,0.144,2.747-0.091,4.093-0.841
			c9.548-5.323,18.807-17.327,22.321-27.66c1.829-5.379,1.585-10.899,1.052-16.449C193.93,120.725,194.445,108.663,192.803,96.898z"
			/>
		<path style="fill:#E0DFE6;" d="M56.93,90.434c-0.19-0.565-0.532-1.069-1.046-1.455c-0.046-0.054-0.092-0.108-0.139-0.162
			c-3.204-3.751-9.152,2.193-5.399,5.399c0.054,0.046,0.108,0.093,0.163,0.139c0.386,0.514,0.89,0.856,1.455,1.046
			c1.696,0.862,3.172,0.278,4.105-0.861C57.208,93.606,57.792,92.13,56.93,90.434z"/>
		<path style="fill:#E0DFE6;" d="M63.762,91.458c-3.07-1.294-5.954,0.459-7.064,3.392c-0.942,2.487-4.04,3.391-6.676,3.483
			c-3.13,0.109-3.958,3.949-1.53,5.647c5.951,4.162,14.319,0.462,17.773-5.097C67.928,96.207,66.556,92.635,63.762,91.458z"/>
		<path style="fill:#E0DFE6;" d="M186.399,94.513c-0.474-3.509-3.936-5.883-7.417-4.941c-1.487,0.402-2.824,0.478-4.405,0.107
			c-1.909-0.449-3.435-1.675-5.307-2.19c-0.539-0.148-1.092-0.17-1.628-0.092c-2.95-2.69-8.928-1.093-9.623,4.122
			c-0.677,5.081-0.731,10.068-1.848,15.105c-0.69,3.113-1.866,6.142-2.807,9.197c-0.674,0.541-1.239,1.245-1.625,2.144
			c-8.042,18.72-27.281,26.774-46.831,27.839c-22.483,1.225-38.56-8.558-55.5-21.908c-2.243-1.768-5.913-0.221-5.065,2.949
			c0.012,0.046,0.028,0.089,0.041,0.135c-1.097-1.403-2.216-2.783-3.454-4.044c-1.016-1.035-2.293-0.946-3.209-0.279
			c0.601-2.558-0.328-5.502-3.536-6.385c-1.967-0.541-4.023-0.881-6.106-1.017c-1.795-2.215-3.348-4.595-4.63-7.158
			c-1.359-2.716-1.895-6.015-4.274-8.056c-1.088-0.933-2.526-0.76-3.338,0.43c-2.143,3.14-1.088,7.515-0.43,11.016
			c0.329,1.75,0.803,3.45,1.345,5.128c-5.057,1.609-9.603,4.592-12.652,9.077c-1.894,2.785,1.794,6.177,4.523,4.523
			c4.06-2.46,7.981-4.24,12.1-4.844c1.94,1.918,4.874,1.636,7.067,0.174c1.163,0.225,2.349,0.538,3.57,0.973
			c2.227,0.793,4.036-0.001,5.188-1.43c0.007,0.124,0.016,0.248,0.04,0.374c0.939,4.927,3.866,9.769,6.528,13.95
			c2.772,4.352,5.93,9.087,9.94,12.385c1.014,0.834,2.101,1.246,3.161,1.343c18.052,17.826,52.345,19.711,74.636,12.401
			c22.881-7.504,44.5-28.449,47.455-53.229c2.28-0.034,4.461-1.458,4.397-4.515c-0.049-2.336-0.025-4.692-0.11-7.034
			C185.097,99.802,186.802,97.495,186.399,94.513z"/>
		<path style="fill:#E0DFE6;" d="M123.596,64.261c-11.512-2.971-32.488-4.09-40.739,6.485c-0.839,1.075-0.699,2.846,0.851,3.223
			c5.422,1.322,11.13-0.113,16.67-0.12c6.835-0.01,13.215,1.084,19.827,2.708C128.17,78.515,131.557,66.316,123.596,64.261z"/>
		<path style="fill:#E0DFE6;" d="M185.908,76.012c-0.966-9.608-5.98-18.497-12.874-25.191c-3.367-3.27-7.317-5.985-11.541-8.022
			c-1.606-0.774-13.318-5.062-13.619-4.577c1.538-2.481-0.979-4.728-3.278-4.242c-0.162-4.268-1.735-8.327-5.103-10.839
			c-1.616-1.205-4.282,0.047-4.683,1.905c-0.194,0.896-0.319,1.786-0.431,2.674c-1.511-3.708-7.477-4.867-10.111-0.782
			c-4.482,6.953-10.701,11.338-19.4,9.675c-7.988-1.527-12.635-6.794-17.855-12.463c-1.035-1.124-3.295-0.298-3.158,1.308
			c1.866,21.765,30.967,28.775,44.742,15.511c-2.485,5.34,3.721,12.412,9.187,8.559c1.414-0.997,2.638-2.324,3.646-3.858
			c2.294,3.586,7.353,4.85,10.949,6.586c4.362,2.106,7.926,4.717,10.924,7.779c-3.289-2.697-7.825-6.043-12.02-5.098
			c-1.176,0.265-1.64,1.499-1.457,2.566c0.666,3.891,5.111,7.265,7.432,10.319c2.839,3.736,5.099,7.949,6.964,12.243
			c2.225,5.122,8.811,3.496,11.196-0.347C179.014,83.234,186.546,82.357,185.908,76.012z"/>
		<path style="fill:#E0DFE6;" d="M59.824,49.607c-3.323,1.473-6.364,3.452-9.471,5.325c-0.753,0.454-1.471,0.867-2.145,1.284
			c-0.264-0.187-0.528-0.362-0.763-0.499c-1.49-0.866-2.927-0.963-4.579-0.654c-3.73,0.698-2.729,5.46,0,6.604
			c-1.696-0.711-0.827-1.058-0.631,0.529c0.084,0.679,0.672,1.973,0.947,2.487c0.837,1.567,2.052,2.569,3.432,3.626
			c1.839,1.408,4.641,0.972,6.522,0c4.438-2.293,9.078-4.773,13.084-7.76C72.781,55.657,67.332,46.279,59.824,49.607z"/>
		<g>
			<g>
				<path style="fill:#525D7D;" d="M109.425,172.871c-29.688,0-66.201-14.502-77.181-46.303c-0.581-0.046-1.162-0.097-1.741-0.146
					c-2.304-0.2-4.48-0.386-6.682-0.386c-6.638,0-7.738,1.47-8.903,3.028c-1.165,1.557-2.614,3.494-7.132,3.735
					c-1.124,0.046-2.103-0.753-2.255-1.868c-0.619-4.604-1.332-9.293-2.021-13.827c-1.335-8.788-2.714-17.875-3.503-26.848
					c-0.093-1.054,0.593-2.021,1.62-2.281c1.429-0.363,2.721-0.662,4.067-0.662c2.31,0,4.887,1.215,7.869,2.62
					c3.035,1.431,6.476,3.052,9.318,3.052c4.259,0,13.595-5.84,13.595-23.192c0-7.645-1.438-14.26-4.275-19.659
					c-0.422-0.803-0.297-1.784,0.313-2.454c0.609-0.672,1.574-0.893,2.413-0.548c4.893,1.996,10.788,2.966,18.021,2.966
					c14.898,0,21.061-2.099,24.743-3.352l0.777-0.263c1.133-0.375,2.354,0.235,2.73,1.365c0.377,1.131-0.234,2.354-1.366,2.731
					l-0.75,0.254c-3.935,1.34-10.521,3.583-26.135,3.583c-5.641,0-10.563-0.562-14.906-1.708c1.828,5.024,2.751,10.749,2.751,17.085
					c0,20.785-12.069,27.51-17.913,27.51c-3.809,0-7.713-1.84-11.159-3.464c-2.304-1.085-4.685-2.208-6.029-2.208
					c-0.377,0-0.779,0.045-1.213,0.122c0.797,8.234,2.067,16.596,3.298,24.703c0.583,3.839,1.183,7.79,1.731,11.716
					c0.921-0.321,1.334-0.872,1.948-1.692c1.947-2.605,4.222-4.761,12.36-4.761c2.387,0,4.759,0.204,7.053,0.402
					c1.035,0.089,2.073,0.178,3.115,0.25c0.886,0.06,1.643,0.655,1.912,1.501c9.724,30.7,44.93,44.682,73.525,44.682
					c41.073,0,67.77-25.91,73.246-71.087c0.143-1.183,1.22-2.011,2.404-1.884c1.184,0.144,2.027,1.22,1.884,2.404
					C181.189,145.576,152.93,172.871,109.425,172.871z"/>
			</g>
			<g>
				<path style="fill:#525D7D;" d="M178.596,81.801c-0.925,0-1.78-0.597-2.064-1.528c-5.084-16.64-22.681-29.022-42.792-30.11
					c-1.191-0.065-2.104-1.082-2.04-2.273c0.065-1.191,1.071-2.083,2.273-2.04c21.885,1.185,41.084,14.821,46.688,33.16
					c0.349,1.14-0.294,2.347-1.434,2.696C179.017,81.771,178.805,81.801,178.596,81.801z"/>
			</g>
			<g>
				<path style="fill:#525D7D;" d="M173.511,91.223c-0.631,0-1.25-0.015-1.851-0.042c-1.191-0.052-2.114-1.061-2.061-2.252
					c0.053-1.191,1.073-2.151,2.252-2.061c0.54,0.024,1.094,0.037,1.66,0.037c6.802,0,11.672-1.269,15.085-3.116
					c-2.394-2.131-3.96-5.242-3.96-8.577c0-5.742,4.142-9.295,7.978-9.295c3.712,0,7.456,2.328,7.456,7.527
					c0,3.05-0.975,6.109-3.005,8.809c3.669-0.382,7.946-2.359,11.699-5.45c0.919-0.758,2.281-0.626,3.04,0.295
					c0.758,0.921,0.626,2.281-0.294,3.039c-5.018,4.131-10.745,6.501-15.713,6.501c-0.992,0-1.964-0.149-2.894-0.424
					C188.558,89.238,182.16,91.223,173.511,91.223z M192.615,70.234c-1.236,0-3.66,1.503-3.66,4.977
					c0,2.547,1.416,4.691,3.268,5.939c2.596-2.551,3.53-5.475,3.53-7.707C195.753,70.791,194.047,70.234,192.615,70.234z"/>
			</g>
			<g>
				<path style="fill:#525D7D;" d="M54.243,99.242c-2.802,0-8.295-2.499-8.295-8.275c0-3.821,2.315-7.357,5.63-8.6
					c0.791-0.297,1.634-0.447,2.505-0.447c3.719,0,8.87,2.865,8.87,8.243C62.953,94.914,58.801,99.242,54.243,99.242z M53.095,86.41
					c-1.857,0.697-2.829,2.82-2.829,4.557c0,3.122,3.504,3.957,3.977,3.957c2.365,0,4.392-2.617,4.392-4.761
					c0-2.984-3.548-3.925-4.551-3.925C53.732,86.238,53.399,86.296,53.095,86.41z"/>
			</g>
			<g>
				<path style="fill:#525D7D;" d="M19.053,126.39c-0.987,0-1.878-0.68-2.104-1.684c-0.417-1.85-0.841-3.698-1.267-5.548
					c-2.025-8.809-4.118-17.918-5.302-27.056c-0.153-1.182,0.682-2.265,1.864-2.418c1.172-0.159,2.265,0.679,2.419,1.864
					c1.156,8.929,3.226,17.934,5.228,26.642c0.426,1.855,0.853,3.711,1.271,5.565c0.262,1.164-0.468,2.319-1.631,2.581
					C19.37,126.374,19.21,126.39,19.053,126.39z"/>
			</g>
			<g>
				<path style="fill:#525D7D;" d="M82.622,71.797c-0.805,0-1.579-0.453-1.949-1.227c-0.514-1.077-0.06-2.366,1.016-2.88
					c7.192-3.44,15.246-5.257,23.291-5.257c7.008,0,13.698,1.335,19.884,3.969c1.097,0.467,1.608,1.735,1.141,2.832
					c-0.468,1.096-1.739,1.608-2.832,1.14c-5.649-2.405-11.77-3.624-18.193-3.624c-7.404,0-14.814,1.671-21.428,4.835
					C83.252,71.73,82.934,71.797,82.622,71.797z"/>
			</g>
			<g>
				<path style="fill:#525D7D;" d="M109.134,51.92c-14.573,0-27.845-12.613-27.845-26.463C81.289,10.229,93.517,0,104.937,0
					c0.715,0,1.432,0.035,2.134,0.103c6.796,0.658,13.978,1.697,20.525,6.425c5.236,3.783,8.362,10.518,8.362,18.019
					C135.958,40.152,124.426,51.92,109.134,51.92z M104.937,4.318c-9.335,0-19.33,8.494-19.33,21.139
					c0,11.383,11.433,22.144,23.527,22.144c10.91,0,22.506-8.081,22.506-23.055c0-6.119-2.457-11.546-6.573-14.519
					c-5.677-4.1-11.949-5.001-18.414-5.627C106.073,4.345,105.502,4.318,104.937,4.318z"/>
			</g>
			<g>
				<path style="fill:#525D7D;" d="M107.205,38.672c-2.335,0-3.419-0.433-4.297-1.714c-1.067-0.533-1.567-1.892-1.035-2.959
					c0.533-1.066,1.76-1.566,2.828-1.029c0.897,0.448,1.358,0.978,1.628,1.347c0.169,0.018,0.444,0.037,0.876,0.037
					c3.04,0,6.557-1.809,6.557-2.988c0-0.482-1.051-1.808-4.433-1.808c-0.358,0-0.72,0.006-1.082,0.013
					c-0.39,0.006-0.781,0.013-1.171,0.013c-7.917,0-9.099-3.639-9.099-5.808c0-6.276,6.896-10.16,13.285-10.16
					c0.483,0,0.957,0.024,1.415,0.073c1.186,0.125,2.046,1.188,1.92,2.374c-0.126,1.185-1.189,2.041-2.374,1.919
					c-0.312-0.032-0.633-0.048-0.961-0.048c-3.744,0-8.967,2.222-8.967,5.842c0,1.418,3.983,1.49,4.781,1.49
					c0.366,0,0.733-0.006,1.099-0.013c0.386-0.006,0.772-0.013,1.155-0.013c6.421,0,8.752,3.663,8.752,6.126
					C118.08,36.07,111.65,38.672,107.205,38.672z"/>
			</g>
			<g>
				<path style="fill:#525D7D;" d="M105.533,19.155c-0.957,0-1.832-0.641-2.087-1.61c-0.561-2.131-0.959-4.05-1.219-5.866
					c-0.169-1.181,0.652-2.274,1.832-2.443c1.173-0.162,2.273,0.652,2.442,1.833c0.235,1.649,0.602,3.409,1.12,5.377
					c0.304,1.153-0.385,2.333-1.539,2.637C105.9,19.132,105.715,19.155,105.533,19.155z"/>
			</g>
			<g>
				<path style="fill:#525D7D;" d="M110.778,43.919c-0.827,0-1.616-0.478-1.974-1.282c-0.784-1.763-1.355-3.707-1.746-5.94
					c-0.205-1.175,0.58-2.294,1.754-2.499c1.183-0.207,2.294,0.58,2.499,1.754c0.33,1.882,0.8,3.496,1.438,4.931
					c0.484,1.089-0.006,2.366-1.096,2.851C111.368,43.86,111.071,43.919,110.778,43.919z"/>
			</g>
			<g>
				<path style="fill:#525D7D;" d="M80.761,186.855c-0.359,0-0.718-0.089-1.042-0.269l-0.235-0.129
					c-2.963-1.632-6.015-3.314-8.904-5.365c-1.535,0.827-3.086,1.587-4.596,2.328c-1.311,0.644-2.62,1.285-3.906,1.964
					c-0.662,0.351-1.459,0.333-2.103-0.049c-0.645-0.38-1.048-1.067-1.063-1.816c-0.102-4.975-0.291-10.028-0.474-14.915
					c-0.141-3.785-0.283-7.571-0.388-11.362c-0.033-1.192,0.907-2.184,2.099-2.217c1.18-0.079,2.186,0.905,2.218,2.099
					c0.104,3.775,0.245,7.547,0.386,11.318c0.141,3.79,0.287,7.678,0.393,11.561c0.311-0.153,0.624-0.306,0.936-0.46
					c1.857-0.911,3.777-1.853,5.596-2.886c0.751-0.426,1.683-0.364,2.37,0.157c2.065,1.566,4.233,2.891,6.495,4.177
					c-0.011-1.154-0.018-2.307-0.018-3.461c0-3.757,0.065-7.502,0.192-11.127c0.042-1.192,1.072-2.101,2.234-2.082
					c1.191,0.042,2.124,1.042,2.082,2.233c-0.125,3.576-0.189,7.269-0.189,10.975c0,2.373,0.026,4.747,0.075,7.12
					c0.016,0.772-0.381,1.493-1.041,1.892C81.535,186.751,81.148,186.855,80.761,186.855z"/>
			</g>
			<g>
				<path style="fill:#525D7D;" d="M140.628,186.016c-0.383,0-0.765-0.101-1.104-0.304c-0.627-0.374-1.023-1.037-1.053-1.767
					c-0.257-6.214-0.479-12.448-0.679-18.67c-0.039-1.191,0.896-2.189,2.088-2.227c1.155-0.093,2.189,0.895,2.227,2.089
					c0.164,5.102,0.344,10.215,0.544,15.319c2.563-1.273,5.136-2.613,7.54-4.131c0.71-0.451,1.616-0.444,2.323,0.01
					c2.106,1.356,4.362,2.612,6.735,3.747c-0.27-8.957-0.54-18.795-0.564-28.4c-0.003-1.192,0.961-2.162,2.153-2.165
					c1.195,0,2.162,0.963,2.165,2.153c0.028,10.792,0.367,21.911,0.668,31.722c0.022,0.734-0.33,1.428-0.935,1.844
					s-1.38,0.498-2.056,0.214c-3.308-1.383-6.446-2.981-9.346-4.759c-2.982,1.787-6.09,3.309-9.106,4.785l-0.648,0.318
					C141.278,185.943,140.953,186.016,140.628,186.016z"/>
			</g>
		</g>
	</g>
</g>
<g id="Layer_1">
</g>
</svg>
