<?xml version="1.0" encoding="iso-8859-1"?>
<!-- Generator: Adobe Illustrator 21.0.2, SVG Export Plug-In . SVG Version: 6.00 Build 0)  -->
<svg version="1.1" xmlns="http://www.w3.org/2000/svg" xmlns:xlink="http://www.w3.org/1999/xlink" x="0px" y="0px"
	 viewBox="0 0 219.548 178.026" style="enable-background:new 0 0 219.548 178.026;" xml:space="preserve">
<g id="_x35_0">
	<g>
		<g>
			<path style="fill:#E0DFE6;" d="M203.735,65.098c-0.366-0.581-1.008-0.858-1.647-0.872c-0.515-1.951-1.178-3.865-2.043-5.705
				c-1.027-2.186-4.37-1.013-4.377,1.186c-0.053,15.158-5.627,26.569-16.215,37.078c-1.124,1.115-1.58,2.44-1.559,3.739
				c-4.909,1.332-10.129,1.622-15.609,1.674c-1.203,0.011-2.258,0.34-3.184,0.851c-3.8-1.473-8.702,0.936-9.243,6.108
				c-0.117,1.12,0.003,2.641,0.12,4.28c-1.313,0.175-2.666,0.723-3.959,1.75c0.876-0.695-7.043-3.715-8.27-4.157
				c-3.688-1.328-7.483-2.253-11.351-2.869c-7.564-1.204-15.139-1.187-22.703-0.002c-12.353,1.934-31.224,8.165-36.199,20.966
				c-0.142,0.366-0.172,0.775-0.136,1.192c-2.374-2.29-4.821-4.507-7.328-6.57c-2.18-1.794-4.693-1.879-6.749-1.001
				c-2.941-3.64-5.963-7.21-9.228-10.565c-2.124-2.183-5.06,0.578-3.954,3.051c3.849,8.614,8.864,16.992,14.037,24.871
				c2.359,3.593,4.533,7.856,7.399,11.275c-0.36,0.468-0.705,0.925-1.006,1.357c-2.344,3.363-4.727,6.665-6.727,10.248
				c-1.441,2.582,1.823,4.878,3.954,3.051c3.506-3.005,6.687-6.392,9.858-9.766c0.161,0.074,0.325,0.142,0.49,0.21
				c-3.292,6.186-5.115,12.932-4.07,19.822c0.347,2.288,3.415,2.113,4.478,0.585c3.643-5.233,6.012-11.202,9.286-16.654
				c3.541-5.897,8.106-10.822,13.425-15.147c1.93-1.57,1.726-4.395,0.824-6.386c-0.449-0.991-0.963-1.908-1.508-2.797
				c7.547-5.525,15.939-10.492,25.565-8.994c7.155,1.113,13.584,4.672,20.238,7.542c6.112,4.657,14.261,5.012,20.409-0.144
				c4.982-4.178,7.454-10.802,7.647-17.402C190.561,118.598,220.375,91.517,203.735,65.098z M77.432,143.706
				c0.004-0.056,0.016-0.111,0.018-0.168c0.131-2.994-2.3-5.196-4.155-7.186c-0.832-0.892-1.688-1.777-2.547-2.66
				c0.566,0.08,1.132,0.159,1.699,0.239c1.089,0.153,2.466-0.445,2.874-1.48c0.41-0.166,0.819-0.338,1.225-0.52
				c-0.09,0.847,0.445,1.6,1.193,1.983c-0.222,1.719,0.368,3.617,1.499,4.761c0.564,0.571,1.041,1.138,1.489,1.715
				C79.613,141.443,78.512,142.554,77.432,143.706z"/>
		</g>
		<g>
			<path style="fill:#E0DFE6;" d="M150.553,91.992c-6.628,0-6.639,10.3,0,10.3C157.181,102.292,157.192,91.992,150.553,91.992z"/>
		</g>
		<g>
			<path style="fill:#E0DFE6;" d="M147.677,39.835c-16.072-2.205-32.961-3.725-49.147-1.912c-3.423,0.383-4.52,5.175-0.849,6.271
				c12.449,3.717,25.551,6.063,38.475,8.167c0.297,0.737,0.694,1.477,1.273,2.202c0.478,0.599,0.957,1.198,1.435,1.797
				c3.735,4.676,10.3,1.269,12.026-3.175c0.591-1.522,1.182-3.044,1.774-4.567C153.935,45.345,151.235,40.323,147.677,39.835z"/>
		</g>
		<g>
			<path style="fill:#E0DFE6;" d="M133.121,56.504c-5.029,0.455-9.953,1.188-15.026,1.018c-5.245-0.175-10.248-1.412-15.389-2.335
				c-5.01-0.9-8.988,3.818-6.559,8.532c2.931,5.688,2.098,13.325,3.338,19.522c0.548,2.735,4.437,2.37,5.181,0
				c1.45-4.616,1.271-9.297,1.41-13.957c9.243,3.12,19.866,3.649,28.97,1.447C142.81,68.852,141.382,55.756,133.121,56.504z"/>
		</g>
		<g>
			<path style="fill:#E0DFE6;" d="M172.859,20.723c-3.553-1.717-7.376-2.787-10.935-4.484c-5.502-2.623-8.489-6.835-12.125-11.6
				c-1.724-2.259-5.005-0.4-3.823,2.235c3.118,6.955,5.719,13.173,12.411,17.342c3.051,1.901,6.413,3.198,9.56,4.912
				c3.983,2.169,5.796,4.297,7.219,7.822c-0.433,0.045-0.88,0.135-1.349,0.321c-3.256,1.289-6.643,2.301-10.15,2.575
				c-3.113,0.243-6.429-0.364-9.407,0.574c-1.883,0.593-2.559,2.928-1.156,4.377c5.365,5.539,16.795,4.331,23.576,2.863
				c2.655-0.575,3.774-2.633,3.794-4.797c2.68,0.201,5.513-1.629,5.755-5.06C186.781,29.947,179.306,23.839,172.859,20.723z"/>
		</g>
		<g>
			<path style="fill:#E0DFE6;" d="M94.098,41.419c-0.093-2.468-4.14-3.314-4.548-0.615c-1.842,12.192-4.635,24.344-7.981,36.242
				c-1.216,0.965-2.016,2.475-1.914,4.573c0.041,0.833,0.081,1.666,0.122,2.499c0.314,6.438,10.861,8.742,11.943,1.616
				C93.969,70.918,94.663,56.387,94.098,41.419z"/>
		</g>
		<g>
			<g>
				<path style="fill:#525D7D;" d="M2.221,123.91c-0.512,0-1.026-0.176-1.445-0.535c-0.931-0.798-1.04-2.201-0.241-3.132
					c8.723-10.178,16.2-17.844,23.529-24.126c0.931-0.799,2.334-0.693,3.132,0.241c0.799,0.931,0.691,2.334-0.241,3.132
					c-7.152,6.13-14.476,13.644-23.047,23.644C3.469,123.647,2.846,123.91,2.221,123.91z"/>
			</g>
			<g>
				<path style="fill:#525D7D;" d="M31.478,90.471c-0.41,0-0.826-0.114-1.197-0.351c-1.033-0.662-1.334-2.037-0.671-3.069
					c4.216-6.578,7.774-14.783,11.541-23.47c11.387-26.26,24.294-56.023,61.729-56.023c1.058,0,19.428,1.826,37.367,5.26
					c33.711,6.452,37.61,13.034,37.61,17.423c0,7.753-9.857,11.224-19.626,11.224c-7.977,0-15.999-1.234-23.757-2.427
					c-7.591-1.167-15.439-2.374-23.073-2.374c-4.31,0-8.218,0.373-11.948,1.142c-1.207,0.244-2.378-0.527-2.625-1.728
					c-0.247-1.202,0.526-2.377,1.728-2.625c4.029-0.829,8.23-1.233,12.845-1.233c7.974,0,15.993,1.233,23.749,2.426
					c7.593,1.167,15.443,2.375,23.081,2.375c5.87,0,15.183-1.841,15.183-6.781c0-1.086-1.621-6.817-33.615-12.985
					c-18.07-3.484-36.01-5.216-36.964-5.255c-34.472,0.001-46.762,28.343-57.606,53.348c-3.84,8.856-7.468,17.221-11.878,24.1
					C32.927,90.111,32.21,90.471,31.478,90.471z"/>
			</g>
			<g>
				<path style="fill:#525D7D;" d="M97.047,87.236c-0.965,0-1.853-0.633-2.133-1.606c-3.051-10.561-4.598-21.785-4.598-33.359
					c0-5.496,0.356-11.076,1.059-16.584c0.156-1.218,1.266-2.078,2.485-1.922c1.217,0.155,2.078,1.268,1.922,2.485
					c-0.679,5.322-1.023,10.712-1.023,16.021c0,11.157,1.488,21.966,4.423,32.126c0.341,1.179-0.338,2.41-1.517,2.751
					C97.458,87.208,97.251,87.236,97.047,87.236z"/>
			</g>
			<g>
				<path style="fill:#525D7D;" d="M71.459,140.349c-0.584,0-1.169-0.229-1.605-0.686c-0.848-0.886-0.818-2.293,0.069-3.141
					c7.478-7.16,26.872-23.812,45.402-23.812c7.443,0,13.234,3.001,18.343,5.65c4.38,2.271,8.163,4.231,12.372,4.231
					c5.25,0,7.58-4.826,7.58-6.66c0-8.803-12.374-26.981-50.626-26.981c-6.329,0-13.026,0.541-19.904,1.608
					c-1.216,0.181-2.347-0.643-2.536-1.855c-0.188-1.213,0.642-2.348,1.855-2.536c7.102-1.101,14.028-1.66,20.585-1.66
					c40.119,0,55.07,19.275,55.07,31.425c0,4.636-4.574,11.103-12.024,11.103c-5.292,0-9.725-2.297-14.418-4.73
					c-4.886-2.533-9.937-5.151-16.298-5.151c-11.739,0-27.563,8.44-42.33,22.578C72.565,140.144,72.012,140.349,71.459,140.349z"/>
			</g>
			<g>
				<path style="fill:#525D7D;" d="M60.044,171.272c-0.351,0-0.708-0.084-1.04-0.26c-1.084-0.576-1.495-1.921-0.92-3.004
					c4.623-8.701,10.657-16.869,17.961-24.317c-15.711-9.447-29.172-22.362-42.211-34.872l-3.267-3.131
					c-0.887-0.848-0.918-2.254-0.07-3.141c0.849-0.887,2.256-0.916,3.141-0.07l3.272,3.136
					c13.533,12.984,27.527,26.41,43.846,35.686c0.608,0.346,1.018,0.958,1.106,1.651c0.089,0.693-0.155,1.389-0.657,1.875
					c-7.904,7.668-14.363,16.17-19.196,25.268C61.609,170.843,60.839,171.272,60.044,171.272z"/>
			</g>
			<g>
				<path style="fill:#525D7D;" d="M86.943,139.485c-0.644,0-1.281-0.278-1.721-0.815c-0.777-0.95-0.636-2.35,0.313-3.126
					c4.772-3.903,10.773-4.743,14.871-5.036c1.241-0.111,2.287,0.834,2.374,2.058c0.088,1.224-0.834,2.287-2.058,2.374
					c-5.555,0.397-9.487,1.682-12.375,4.044C87.935,139.321,87.438,139.485,86.943,139.485z"/>
			</g>
			<g>
				<path style="fill:#525D7D;" d="M69.826,126.213c-0.263,0-0.53-0.047-0.79-0.146c-7.371-2.808-12.618-8.427-17.691-13.86
					l-0.952-1.018c-0.84-0.895-0.794-2.301,0.101-3.14c0.897-0.84,2.303-0.793,3.14,0.101l0.958,1.025
					c4.728,5.063,9.617,10.299,16.026,12.74c1.146,0.437,1.722,1.72,1.285,2.867C71.565,125.668,70.721,126.213,69.826,126.213z"/>
			</g>
			<g>
				<path style="fill:#525D7D;" d="M171.828,110.536c-0.041,0-0.082,0-0.123,0c-9.257-0.034-17.942-3.711-24.454-10.353
					c-6.416-6.543-10.012-15.446-9.868-24.424c0.082-5.208,1.42-10.416,3.868-15.061c0.573-1.085,1.916-1.501,3.001-0.93
					c1.086,0.572,1.502,1.916,0.93,3.001c-2.124,4.03-3.285,8.546-3.356,13.06c-0.126,7.799,3.008,15.541,8.597,21.242
					c5.674,5.788,13.238,8.991,21.298,9.02c0.035,0,0.072,0,0.106,0c7.895,0.001,15.714-3.315,21.469-9.107
					c5.711-5.747,8.814-13.143,8.736-20.826c-0.08-7.823-3.186-15.074-8.744-20.417c-5.904-5.674-14.136-8.655-23.158-8.389
					c-1.014,0.03-2.077,0.113-3.16,0.247c-6.062,0.736-11.617,3.365-16.071,7.603c-0.889,0.845-2.296,0.811-3.141-0.077
					c-0.846-0.889-0.811-2.295,0.077-3.141c5.151-4.902,11.581-7.943,18.594-8.795c1.214-0.15,2.417-0.244,3.569-0.278
					c10.225-0.294,19.598,3.119,26.368,9.628c6.425,6.176,10.015,14.549,10.108,23.575c0.09,8.882-3.472,17.406-10.028,24.004
					C189.866,106.743,180.897,110.536,171.828,110.536z"/>
			</g>
			<g>
				<path style="fill:#525D7D;" d="M148.615,18.971c-0.794,0-1.563-0.427-1.963-1.177c-0.926-1.736-1.471-3.582-1.998-5.366
					c-1.42-4.809-2.359-7.985-9.255-7.985c-8.97,0-17.626,2.109-26.791,4.341c-3.762,0.917-7.653,1.865-11.525,2.639
					c-1.208,0.242-2.373-0.54-2.614-1.743c-0.241-1.203,0.539-2.373,1.742-2.614c3.782-0.756,7.626-1.693,11.345-2.599
					C116.572,2.272,125.895,0,135.399,0c10.217,0,12.046,6.193,13.517,11.169c0.486,1.644,0.944,3.197,1.658,4.534
					c0.577,1.083,0.168,2.428-0.915,3.006C149.326,18.886,148.968,18.971,148.615,18.971z"/>
			</g>
			<g>
				<path style="fill:#525D7D;" d="M104.548,62.031c-4.283,0-8.905-2.979-8.905-7.791c0-4.486,3.845-9.325,6.653-12.858
					c0.435-0.547,0.843-1.059,1.202-1.53c0.745-0.974,2.141-1.16,3.114-0.415c0.975,0.745,1.161,2.139,0.415,3.114
					c-0.375,0.49-0.8,1.026-1.253,1.595c-2.265,2.851-5.688,7.158-5.688,10.094c0,2.184,2.591,3.348,4.462,3.348
					c1.862,0,3.939-0.825,5.699-2.264c0.949-0.778,2.349-0.638,3.126,0.313c0.777,0.95,0.638,2.349-0.312,3.126
					C110.522,60.839,107.419,62.031,104.548,62.031z"/>
			</g>
			<g>
				<path style="fill:#525D7D;" d="M117.927,64.595c-5.446,0-8.965-3.569-8.965-9.092c0-3.73,1.779-7.502,3.532-10.55
					c0.072-1.161,1.038-2.081,2.217-2.081h0.278c0.801,0,1.539,0.43,1.933,1.127c0.395,0.697,0.384,1.552-0.028,2.238
					c-1.624,2.707-3.489,6.206-3.489,9.266c0,2.12,0.785,4.649,4.522,4.649c2.768,0,8.035-1.621,9.663-4.064
					c0.679-1.021,2.057-1.297,3.081-0.616c1.021,0.681,1.297,2.06,0.616,3.081C128.54,62.675,121.69,64.595,117.927,64.595z"/>
			</g>
			<g>
				<path style="fill:#525D7D;" d="M137.153,65.564c-6.045,0-10.432-4.571-10.432-10.87c0-3.925,1.491-7.97,2.578-10.924
					c0.424-1.151,1.705-1.739,2.853-1.317c1.151,0.424,1.741,1.702,1.317,2.853c-0.973,2.64-2.305,6.256-2.305,9.388
					c0,4.44,3.008,6.427,5.989,6.427c9.844,0,11.687-12.471,12.022-17.834c0.077-1.225,1.119-2.161,2.356-2.078
					c1.224,0.077,2.155,1.131,2.078,2.356C152.748,57.34,146.596,65.564,137.153,65.564z"/>
			</g>
			<g>
				<path style="fill:#525D7D;" d="M191.324,39.335c-1.749,0-3.697-1.363-3.697-3.319c0-1.099,0.608-1.864,0.972-2.322
					c0.067-0.085,0.142-0.168,0.197-0.26c0.388-1.164,1.597-1.672,2.759-1.286c1.707,0.568,2.336,1.827,2.674,2.503
					c0.229,0.457,0.344,0.939,0.344,1.436C194.573,37.847,193.085,39.335,191.324,39.335z M190.486,35.203
					c-0.225,0.212-0.357,0.519-0.357,0.883C190.13,36.122,190.486,35.203,190.486,35.203z"/>
			</g>
			<g>
				<path style="fill:#525D7D;" d="M209.17,54.311c-1.928,0-3.619-1.727-3.619-3.695c0-1.119,0.51-2.198,1.516-3.203
					c0.654-0.654,1.641-0.833,2.478-0.457c0.069,0.018,0.143,0.03,0.218,0.046c0.635,0.127,1.955,0.39,2.724,1.673
					c0.318,0.53,0.487,1.142,0.487,1.768C212.975,52.467,211.161,54.311,209.17,54.311z M209.608,49.954l0.324,0.324
					C209.861,50.113,209.739,50.014,209.608,49.954z M209.608,46.984c0.008,0.004,0.016,0.008,0.024,0.012
					C209.624,46.993,209.616,46.989,209.608,46.984z"/>
			</g>
			<g>
				<path style="fill:#525D7D;" d="M215.796,78.29c-2.106,0-3.466-1.384-3.466-3.527c0-2,1.294-3.528,3.22-3.802
					c0.122-0.017,0.301-0.03,0.407-0.03c1.934,0,3.591,2.017,3.591,3.669C219.548,76.382,218.041,78.29,215.796,78.29z
					 M215.773,73.846c-0.138,0.001-0.668,0.055-0.668,0.754c0,0.32,0.09,0.532,0.121,0.58c0.028,0.022,0.297,0.194,0.732,0.194
					v-1.488C215.894,73.865,215.833,73.85,215.773,73.846z M216.049,73.925l0.17,1.427c0.286-0.069,0.554-0.41,0.554-0.589
					C216.74,74.474,216.4,74.089,216.049,73.925z"/>
			</g>
			<g>
				<path style="fill:#525D7D;" d="M213.276,104.471c-1.747,0-3.168-1.581-3.168-3.523c0-1.762,1.108-3.358,2.636-3.8
					c0.297-0.086,0.595-0.13,0.885-0.13c0.642,0,2.739,0.243,2.752,3.367l0.003,0.169c0.036,0.179,0.054,0.369,0.054,0.56
					C216.436,102.702,215.138,104.471,213.276,104.471z M212.034,101.465c0.002,0.01,0.005,0.02,0.007,0.03
					C212.039,101.485,212.037,101.475,212.034,101.465z M212.116,100.605c0.275,0.439,0.827,0.856,1.512,0.856
					c0.16,0,0.281-0.025,0.356-0.046c0.335-0.099,0.567-0.325,0.567-0.467c0-0.376-0.454-0.92-1.275-0.92
					C213.266,100.028,212.435,100.036,212.116,100.605z"/>
			</g>
			<g>
				<path style="fill:#525D7D;" d="M194.683,121.567c-1.457,0-3.081-1.277-3.081-3.11c0-1.104,0.587-1.982,1.015-2.625
					c0.407-0.609,1.087-0.978,1.818-0.988c0.255-0.025,0.425-0.039,0.592-0.039c1.627,0,2.854,1.203,2.854,2.799
					C197.881,119.753,196.416,121.567,194.683,121.567z M194.465,117.136c-0.618,0.067-0.991,0.404-1.034,0.54
					c0.005,0.592,0.457,1.198,1.034,1.451V117.136z M194.556,117.128l1.446,0.966c-0.12-0.503-0.509-0.97-1.32-0.97
					C194.639,117.124,194.598,117.125,194.556,117.128z"/>
			</g>
			<g>
				<path style="fill:#525D7D;" d="M171.459,126.178c-1.835,0-3.785-1.144-3.785-3.265c0-0.942,0.342-1.822,0.628-2.394
					c0.493-0.986,1.632-1.459,2.677-1.117c0.129,0.033,0.271,0.035,0.411,0.048c0.772,0.069,2.379,0.213,3.304,1.755
					c0.288,0.478,0.44,1.02,0.44,1.566C175.135,124.778,173.197,126.178,171.459,126.178z M171.025,121.882l0.981,0.491
					c-0.153-0.375-0.427-0.602-0.56-0.644C171.266,121.73,171.129,121.791,171.025,121.882z"/>
			</g>
			<g>
				<path style="fill:#525D7D;" d="M178.906,74.548c-0.701,0-1.39-0.33-1.822-0.947c-0.704-1.005-0.459-2.391,0.546-3.095
					c1.276-0.893,2.553-1.772,3.822-2.646c4.304-2.964,8.368-5.762,12.147-8.912c0.945-0.786,2.343-0.657,3.129,0.284
					c0.785,0.943,0.658,2.344-0.284,3.129c-3.936,3.28-8.276,6.268-12.472,9.158c-1.26,0.868-2.527,1.74-3.794,2.627
					C179.79,74.418,179.345,74.548,178.906,74.548z"/>
			</g>
			<g>
				<path style="fill:#525D7D;" d="M176.955,99.837c-1.056,0-1.992-0.756-2.184-1.832c-0.215-1.208,0.589-2.362,1.796-2.577
					c7.115-1.271,13.137-7.171,14.319-14.031c0.208-1.209,1.363-2.025,2.567-1.812c1.209,0.208,2.021,1.357,1.812,2.567
					c-1.513,8.779-8.881,16.036-17.916,17.65C177.216,99.825,177.085,99.837,176.955,99.837z"/>
			</g>
		</g>
	</g>
</g>
<g id="Layer_1">
</g>
</svg>
