<?xml version="1.0" encoding="iso-8859-1"?>
<!-- Generator: Adobe Illustrator 21.0.2, SVG Export Plug-In . SVG Version: 6.00 Build 0)  -->
<svg version="1.1" xmlns="http://www.w3.org/2000/svg" xmlns:xlink="http://www.w3.org/1999/xlink" x="0px" y="0px"
	 viewBox="0 0 220.276 148.758" style="enable-background:new 0 0 220.276 148.758;" xml:space="preserve">
<g id="_x35_1">
	<g>
		<g>
			<path style="fill:#E0DFE6;" d="M38.126,49.399c-1.006-1.396-2.689-2.313-4.83-1.873c-5.042,1.037-9.698,2.208-14.899,2.27
				c-3.437,0.041-4.436,5.491-0.839,6.196c4.23,0.828,8.678,1.377,13.047,1.184c0.253,1.423,1.089,2.692,2.666,3.43
				c0.006,0.287-0.018,0.836-0.23,1.813c-0.093,0.429-0.147,0.889-0.193,1.354c-0.786-0.313-1.71-0.363-2.741-0.017
				c-2.091,0.701-4.083,1.59-6.261,2.02c-2.307,0.456-4.878,0.157-7.185-0.208c-2.299-0.364-4.17,2.836-1.722,4.084
				c5.12,2.611,11.719,3.933,17.408,2.704c-0.209,2.245-0.494,4.485-1.059,6.665c-1.038-1.614-2.851-2.627-5.163-1.867
				c-6.088,2.001-12.703,3.549-18.427,6.452c-2.792,1.416-1.392,5.756,1.558,5.751c5.528-0.009,11.232-1.262,16.755-2.243
				c-2.933,1.76-6.788,2.065-11.445,2.283c-3.407,0.16-4.827,4.682-1.764,6.513c12.348,7.382,25.812,0.672,29.884-12.351
				C44.908,76.451,50.466,50.133,38.126,49.399z"/>
		</g>
		<g>
			<path style="fill:#E0DFE6;" d="M219.125,87.063c-0.757-7.349-11.089-6.073-10.077,1.364c0.162,1.187-7.514,5.312-8.952,6.089
				c-4.14,2.239-8.422,3.798-12.85,5.34c-2.117,0.738-2.071,3.367-0.379,4.237c-0.094,0.064-0.197,0.117-0.289,0.182
				c-4.051,2.853-3.213,8.208,0.284,10.092c-0.005,0.059,0.001,0.122-0.002,0.182c-29.583,2.117-59.541,3.05-88.923,6.818
				c-2.438,0.313-2.946,2.888-1.526,4.148c-17.305,0.412-34.536,1.238-51.899,2.738c-3.494,0.302-3.479,5.093,0,5.423
				c33.365,3.165,66.523,3.54,100.01,4.106c15.672,0.265,31.397,0.477,47.003-1.255c4.516-0.501,9.358-0.992,11.075-5.953
				c1.786-5.16-1.604-12.52-3.066-17.454c-0.128-0.432-0.296-0.816-0.477-1.183c3.792-1.889,7.489-4.261,10.694-6.285
				c3.37-2.128,8.019-4.756,7.862-9.255c-0.023-0.66-0.278-1.185-0.666-1.565C218.58,92.675,219.438,90.102,219.125,87.063z"/>
		</g>
		<g>
			<path style="fill:#E0DFE6;" d="M209.746,68.466c-0.265-2.826-4.136-2.832-4.401,0c-0.239,2.545-0.477,5.09-0.715,7.634
				c-0.351,3.749,6.184,3.757,5.832,0C210.223,73.556,209.985,71.011,209.746,68.466z"/>
		</g>
		<g>
			<path style="fill:#E0DFE6;" d="M202.436,52.748c-1.832-14.509-3.47-29.527-6.561-43.818c-0.494-2.284-4.391-2.434-4.769,0
				c-2.276,14.632-1.279,30.624,1.12,45.2C193.166,59.844,203.172,58.573,202.436,52.748z"/>
		</g>
		<g>
			<g>
				<path style="fill:#525D7D;" d="M24.228,35.095c-1.238,0-2.242-1.004-2.242-2.242c0-1.958,0.012-3.905,0.023-5.844
					c0.01-1.917,0.022-3.828,0.022-5.736c0-3.814-0.05-6.904-0.155-9.723c-0.044-1.171,0.822-2.178,1.985-2.312
					c45.599-5.231,163.66-9.199,164.824-9.235c1.238-0.063,2.274,0.931,2.312,2.17c0.039,1.238-0.933,2.273-2.169,2.312
					C166.159,5.201,67.44,9.01,26.425,13.464c0.061,2.315,0.091,4.849,0.091,7.809c0,1.917-0.012,3.836-0.022,5.762
					c-0.012,1.931-0.023,3.869-0.023,5.818C26.47,34.091,25.466,35.095,24.228,35.095z"/>
			</g>
			<g>
				<path style="fill:#525D7D;" d="M34.859,132.082c-0.95,0-1.834-0.609-2.137-1.564c-4.077-12.82-5.169-27.008-5.699-39.196
					c-0.053-1.237,0.907-2.283,2.143-2.337c1.282-0.067,2.285,0.907,2.339,2.143c0.542,12.492,1.582,25.745,5.492,38.031
					c0.375,1.18-0.277,2.441-1.457,2.816C35.313,132.047,35.083,132.082,34.859,132.082z"/>
			</g>
			<g>
				<path style="fill:#525D7D;" d="M42.691,131.522c-1.168,0-2.152-0.905-2.234-2.088c-0.086-1.235,0.847-2.306,2.082-2.391
					c6.042-0.417,12.207-1.081,18.168-1.723c10.034-1.081,20.409-2.199,30.674-2.199c1.238,0,2.242,1.004,2.242,2.242
					c0,1.239-1.004,2.242-2.242,2.242c-10.025,0-20.277,1.105-30.194,2.174c-6.003,0.647-12.212,1.316-18.339,1.739
					C42.796,131.521,42.743,131.522,42.691,131.522z"/>
			</g>
			<g>
				<path style="fill:#525D7D;" d="M103.691,128.723c-1.185,0-2.175-0.928-2.238-2.125c-0.064-1.236,0.885-2.292,2.121-2.357
					c11.386-0.598,23.644-0.89,37.478-0.89c13.873,0,27.98,0.29,41.622,0.571c2.575,0.052,5.152,0.106,7.733,0.157
					c-1.441-4.159-2.772-8.481-2.772-13.268c0-1.239,1.004-2.242,2.242-2.242c1.238,0,2.242,1.004,2.242,2.242
					c0,4.626,1.491,8.864,3.067,13.35l0.521,1.488c0.241,0.693,0.127,1.459-0.304,2.053c-0.431,0.594-1.168,0.972-1.857,0.924
					c-3.661-0.07-7.315-0.145-10.965-0.22c-13.619-0.28-27.702-0.57-41.53-0.57c-13.753,0-25.936,0.289-37.241,0.884
					C103.769,128.723,103.73,128.723,103.691,128.723z"/>
			</g>
			<g>
				<path style="fill:#525D7D;" d="M191.554,61.009c-1.203,0-2.197-0.953-2.24-2.165c-0.185-5.385-0.502-10.872-0.807-16.18
					c-0.485-8.442-0.987-17.17-0.987-25.788c0-2.365,0.039-4.678,0.115-6.876c0.044-1.237,1.114-2.177,2.318-2.163
					c1.238,0.043,2.207,1.081,2.163,2.319c-0.074,2.145-0.112,4.407-0.112,6.72c0,8.488,0.498,17.152,0.98,25.531
					c0.307,5.332,0.625,10.846,0.812,16.282c0.042,1.238-0.926,2.276-2.164,2.318C191.606,61.008,191.58,61.009,191.554,61.009z"/>
			</g>
			<g>
				<path style="fill:#525D7D;" d="M32.304,58.398c-0.035,0-0.178-0.004-0.229-0.005C12.733,57.518,2.927,53.201,2.927,45.56
					c0-6.029,9.612-8.058,13.997-8.058c7.485,0,22.439,5.731,22.439,13.256C39.364,54.399,35.669,58.398,32.304,58.398z
					 M32.286,53.914l-0.08,2.241l0.098-2.241c0.742-0.05,2.575-1.766,2.575-3.156c0-3.361-11.074-8.771-17.955-8.771
					c-4.267,0-9.512,1.971-9.512,3.574c0,2.173,2.423,7.337,24.864,8.353l-0.101,2.24L32.286,53.914z"/>
			</g>
			<g>
				<path style="fill:#525D7D;" d="M30.771,74.605c-1.171,0-8.765-1.253-15.387-2.967C4.601,68.846,0,66.073,0,62.367
					c0-5.939,5.302-11.099,11.171-10.678c1.235,0.09,2.164,1.163,2.074,2.398c-0.09,1.237-1.171,2.159-2.398,2.074
					c-3.272-0.242-6.362,2.88-6.362,6.205c1.289,3.116,22.33,7.546,26.333,7.754c-0.006-0.001,3.985-0.045,3.985-3.884
					c0-3.48-3.429-5.925-6.817-6.54c-1.218-0.222-2.026-1.389-1.804-2.607c0.222-1.218,1.384-2.03,2.607-1.805
					c5.217,0.948,10.499,5.015,10.499,10.953C39.288,72.334,34.064,74.605,30.771,74.605z"/>
			</g>
			<g>
				<path style="fill:#525D7D;" d="M19.961,88.31c-13.685,0-19.918-6.983-19.918-13.471c0-4.782,3.006-9.753,8.126-9.102
					c1.228,0.153,2.099,1.275,1.946,2.503c-0.153,1.229-1.272,2.098-2.504,1.947c-2.155-0.271-3.083,2.99-3.083,4.653
					c0,3.612,4.109,8.986,15.434,8.986c6.118,0,12.934-1.997,12.934-4.862c0-1.066-0.248-2.107-3.254-3.11
					c-1.175-0.392-1.809-1.661-1.417-2.837c0.391-1.175,1.66-1.814,2.836-1.417c1.564,0.521,6.32,2.107,6.32,7.364
					C37.38,86.342,26.431,88.31,19.961,88.31z"/>
			</g>
			<g>
				<path style="fill:#525D7D;" d="M192.187,105.251c-2.492,0-5.777-0.029-8.59-0.733c-5.607-1.402-6.445-4.905-6.445-6.869
					c0-6.654,9.62-8.654,16.644-10.114c1.677-0.349,3.26-0.678,4.061-0.964c1.171-0.416,2.45,0.191,2.867,1.358
					c0.416,1.166-0.191,2.449-1.358,2.866c-1.095,0.39-2.667,0.718-4.657,1.131c-4.244,0.882-13.073,2.717-13.073,5.723
					c0,0.57,0,1.755,3.048,2.518c2.407,0.603,5.537,0.592,7.842,0.599h0.318c11.051,0,22.946-4.056,22.946-12.961
					c0-4.458-3.626-5.901-5.383-5.901c-1.99,0-3.428,0-4.203-1.426c-0.728-1.337,0.048-2.536,0.464-3.179
					c0.585-0.904,1.564-2.417,1.564-5.427c0-7.306-7.518-14.397-15.469-14.591c-1.239-0.03-2.218-1.058-2.188-2.296
					c0.031-1.219,1.028-2.187,2.241-2.187c10.442,0.254,19.901,9.345,19.901,19.075c0,2.464-0.498,4.298-1.064,5.632
					c4.426,0.599,8.622,4.356,8.622,10.301c0,8.684-8.482,17.446-27.431,17.446h-0.315
					C192.418,105.251,192.302,105.251,192.187,105.251z"/>
			</g>
			<g>
				<path style="fill:#525D7D;" d="M186.949,92.046c-5.914,0-10.045-2.766-10.045-6.726c0-8.574,10.98-9.194,16.877-9.527
					c1.288-0.073,2.4-0.136,3.177-0.247c1.218-0.18,2.361,0.677,2.537,1.902c0.175,1.226-0.677,2.362-1.904,2.537
					c-0.966,0.138-2.166,0.206-3.558,0.285c-6.398,0.361-12.645,1.049-12.645,5.05c0,1.194,2.598,2.242,5.561,2.242
					c1.022,0,2.007-0.127,2.775-0.357c1.177-0.357,2.437,0.315,2.791,1.503c0.356,1.186-0.317,2.437-1.504,2.792
					C189.821,91.857,188.416,92.046,186.949,92.046z"/>
			</g>
			<g>
				<path style="fill:#525D7D;" d="M185.936,80.522c-4.348,0-8.969-2.131-8.969-6.08c0-9.615,14.815-10.107,19.682-10.269
					l0.327-0.011c1.225-0.04,2.276,0.925,2.318,2.164c0.042,1.238-0.925,2.276-2.164,2.318l-0.333,0.011
					c-10.182,0.339-15.346,2.285-15.346,5.787c0,0.463,1.942,1.595,4.485,1.595c0.277,0,0.546-0.015,0.796-0.048
					c1.241-0.173,2.355,0.701,2.518,1.929c0.162,1.227-0.701,2.355-1.928,2.517C186.888,80.492,186.421,80.522,185.936,80.522z"/>
			</g>
			<g>
				<path style="fill:#525D7D;" d="M52.39,55.236c-0.048,0-0.095,0-0.143-0.001c-2.791-0.05-5.545-1.477-7.752-4.018
					c-3.238-3.728-4.702-9.07-4.016-14.658c0.375-3.045,1.67-6.151,3.746-8.98c1.01-1.376,2.669-3.274,5.391-3.892
					c0.461-0.104,0.942-0.171,1.47-0.205c3.225-0.218,6.381,1.2,8.901,3.977c3.607,3.974,5.467,10.083,4.628,15.2
					C63.317,50.57,57.41,55.236,52.39,55.236z M47.839,30.232c-1.622,2.212-2.628,4.588-2.908,6.875
					c-0.524,4.265,0.578,8.44,2.949,11.169c1.345,1.547,2.965,2.449,4.447,2.475c2.747,0.001,6.914-3.034,7.861-8.817
					c0.61-3.72-0.872-8.539-3.523-11.461c-1.12-1.234-2.965-2.66-5.285-2.517c-0.254,0.017-0.514,0.046-0.777,0.105
					C49.635,28.282,48.781,28.951,47.839,30.232z"/>
			</g>
			<g>
				<path style="fill:#525D7D;" d="M70.718,54.163c-1.088,0-2.042-0.793-2.213-1.901c-1.565-10.164-3.13-17.996-5.077-25.394
					c-0.315-1.198,0.4-2.424,1.597-2.739c1.203-0.314,2.425,0.401,2.739,1.598c1.99,7.555,3.585,15.528,5.174,25.853
					c0.188,1.224-0.651,2.369-1.874,2.557C70.948,54.155,70.832,54.163,70.718,54.163z"/>
			</g>
			<g>
				<path style="fill:#525D7D;" d="M70.72,43.023c-0.352,0-0.709-0.083-1.042-0.258c-1.096-0.577-1.517-1.933-0.94-3.028
					c0.619-1.178,1.385-2.331,2.126-3.445c1.591-2.395,3.095-4.656,3.095-6.885c0-2.838-2.032-3.434-3.736-3.434
					c-1.213,0-2.416,0.372-3.301,1.02c-1.001,0.731-2.403,0.515-3.134-0.484c-0.731-0.999-0.515-2.402,0.483-3.134
					c1.661-1.217,3.775-1.887,5.952-1.887c4.917,0,8.22,3.182,8.22,7.918c0,3.583-2.042,6.655-3.844,9.366
					c-0.709,1.068-1.379,2.077-1.893,3.051C72.304,42.586,71.526,43.023,70.72,43.023z"/>
			</g>
			<g>
				<path style="fill:#525D7D;" d="M87.012,56.305c-0.308,0-0.617-0.063-0.909-0.193c-0.717-0.318-1.215-0.987-1.314-1.764
					c-1.12-8.714-1.347-17.464-1.512-27.178c-0.01-0.634,0.247-1.242,0.709-1.674c0.463-0.432,1.075-0.651,1.718-0.599
					c3.971,0.328,8,0.495,11.977,0.495c1.238,0,2.242,1.004,2.242,2.242c0,1.239-1.004,2.242-2.242,2.242
					c-3.277,0-6.588-0.109-9.876-0.326c0.139,7.286,0.355,14.04,1.022,20.646c2.067-1.23,4.323-2.263,6.911-2.714
					c1.217-0.211,2.381,0.604,2.593,1.825c0.213,1.22-0.604,2.382-1.825,2.594c-3.035,0.528-5.616,2.194-8.212,4.002
					C87.911,56.169,87.463,56.305,87.012,56.305z"/>
			</g>
			<g>
				<path style="fill:#525D7D;" d="M86.54,43.468c-0.908,0-1.762-0.556-2.099-1.455c-0.435-1.16,0.152-2.452,1.312-2.887
					c2.032-0.763,3.974-1.228,6.108-1.466c1.235-0.137,2.339,0.749,2.477,1.98c0.136,1.231-0.75,2.339-1.981,2.477
					c-1.756,0.196-3.355,0.58-5.031,1.208C87.069,43.423,86.802,43.468,86.54,43.468z"/>
			</g>
			<g>
				<path style="fill:#525D7D;" d="M102.806,57.728c-0.209,0-0.421-0.029-0.632-0.091c-1.188-0.348-1.869-1.594-1.521-2.782
					c2.072-7.078,3.369-14.983,3.968-24.169c0.064-0.979,0.758-1.804,1.714-2.034c0.949-0.226,1.948,0.189,2.45,1.032
					c2.676,4.488,4.847,9.231,6.945,13.818c0.218,0.476,0.438,0.955,0.658,1.436c1.339-6.073,2.237-12.444,2.673-19.013
					c0.082-1.237,1.169-2.178,2.387-2.088c1.237,0.083,2.171,1.15,2.089,2.386c-0.606,9.09-2.064,17.823-4.334,25.956
					c-0.249,0.895-1.025,1.543-1.95,1.63c-0.917,0.084-1.809-0.406-2.219-1.24c-1.178-2.385-2.298-4.833-3.381-7.2
					c-1.042-2.277-2.102-4.593-3.228-6.883c-0.746,6.434-1.892,12.25-3.467,17.63C104.67,57.093,103.775,57.728,102.806,57.728z"/>
			</g>
			<g>
				<path style="fill:#525D7D;" d="M130.742,52.99c-1.178,0-2.165-0.918-2.237-2.108c-0.079-1.306-0.117-2.655-0.117-4.124
					c0-2.661,0.128-5.316,0.254-7.884c0.121-2.523,0.248-5.133,0.248-7.702c0-0.708-0.009-1.417-0.031-2.13
					c-0.039-1.237,0.931-2.273,2.169-2.312c1.234-0.042,2.274,0.931,2.312,2.17c0.025,0.76,0.034,1.517,0.034,2.272
					c0,2.678-0.13,5.342-0.254,7.919c-0.123,2.515-0.248,5.115-0.248,7.667c0,1.379,0.035,2.64,0.108,3.855
					c0.074,1.237-0.867,2.299-2.104,2.372C130.832,52.988,130.786,52.99,130.742,52.99z"/>
			</g>
			<g>
				<path style="fill:#525D7D;" d="M129.203,22.085c-0.104,0-0.314-0.015-0.418-0.029c-1.479-0.183-2.537-1.338-2.537-2.804
					c0-0.815,0.312-1.662,0.984-2.666c0.372-0.559,0.977-0.921,1.647-0.986c0.356-0.038,0.728,0.018,1.061,0.154
					c1.447,0.256,1.98,1.232,2.174,1.815c0.133,0.39,0.202,0.804,0.202,1.22C132.316,20.637,130.949,22.085,129.203,22.085z
					 M129.203,17.601c-0.785,0-1.372,0.627-1.372,1.188c0,0.073,0.012,0.145,0.032,0.208c0.017,0.047,1.234-1.166,1.234-1.166
					l0.092,0.062L129.203,17.601z M129.326,17.984l1.366,0.912c-0.159-0.696-0.766-1.217-1.32-1.286L129.326,17.984z"/>
			</g>
			<g>
				<path style="fill:#525D7D;" d="M138.234,57.06c-0.153,0-0.309-0.016-0.466-0.049c-1.212-0.255-1.987-1.445-1.731-2.656
					c0.601-2.854,1.451-5.718,2.271-8.488c1.111-3.742,2.258-7.612,2.772-11.418c0.134-0.995,0.914-1.78,1.908-1.92
					c0.981-0.136,1.961,0.396,2.366,1.316c2.029,4.604,4.106,9.32,5.911,14.188c2.72-7.749,3.958-14.227,3.958-20.467
					c0-0.824-0.022-1.65-0.07-2.478c-0.07-1.236,0.876-2.296,2.112-2.366c1.229-0.055,2.295,0.875,2.366,2.111
					c0.051,0.914,0.076,1.825,0.076,2.734c0,8.334-2,16.946-6.486,27.925c-0.359,0.877-1.207,1.427-2.178,1.392
					c-0.946-0.043-1.764-0.677-2.042-1.583c-1.377-4.494-3.115-8.898-4.947-13.208c-0.454,1.706-0.953,3.39-1.445,5.05
					c-0.834,2.808-1.62,5.461-2.184,8.137C140.203,56.335,139.27,57.06,138.234,57.06z"/>
			</g>
			<g>
				<path style="fill:#525D7D;" d="M169.256,56.172c-4.927,0-9.899-4.133-9.899-13.366c0-8.272,4.238-14.812,10.796-16.661
					c1.19-0.331,2.431,0.358,2.766,1.55c0.337,1.192-0.358,2.431-1.549,2.767c-5.556,1.567-7.528,7.629-7.528,12.345
					c0,5.396,2.126,8.882,5.415,8.882l0.615-0.004c1.096,0,2.994-1.297,4.382-3.198c-0.887-0.107-1.759-0.25-2.616-0.391
					l-1.217-0.196c-1.223-0.188-2.063-1.333-1.874-2.557c0.188-1.225,1.323-2.067,2.558-1.875l1.263,0.204
					c1.861,0.307,3.584,0.601,5.277,0.468c0.73-0.056,1.458,0.255,1.92,0.833c0.464,0.577,0.612,1.347,0.397,2.055
					c-1.482,4.87-6.196,9.142-10.089,9.142L169.256,56.172z"/>
			</g>
			<g>
				<path style="fill:#525D7D;" d="M67.117,110.961c-1.74,0-2.813-0.883-3.407-1.625c-0.774-0.966-0.618-2.377,0.349-3.152
					c0.946-0.758,2.318-0.624,3.102,0.288c4.196-0.088,9.828-5.98,9.828-10.265c0-2.239-1.934-3.599-2.784-3.599
					c-0.829,0-1.823,0.684-2.974,1.475c-1.793,1.233-4.022,2.767-7.175,2.767c-5.123,0-8.184-4.308-8.184-8.472
					c0-4.671,9.032-15.437,19.089-16.41c1.21-0.113,2.328,0.782,2.448,2.016c0.12,1.233-0.784,2.328-2.016,2.448
					c-7.959,0.77-14.987,9.95-15.037,11.947c0,1.033,0.68,3.986,3.699,3.986c1.759,0,3.155-0.961,4.634-1.977
					c1.543-1.061,3.292-2.265,5.515-2.265c3.431,0,7.269,3.457,7.269,8.084C81.473,103.102,73.825,110.961,67.117,110.961z"/>
			</g>
			<g>
				<path style="fill:#525D7D;" d="M97.372,106.296c-0.142,0-0.283-0.003-0.423-0.01c-7.025-0.339-11.575-8.917-11.267-16.405
					c0.263-6.331,3.733-11.777,9.058-14.212c0.815-0.371,1.777-0.585,2.711-0.602c2.842-0.071,5.562,1.063,7.831,3.263
					c3.083,2.988,5.023,7.653,5.061,12.174c0.039,4.708-1.778,9.178-4.987,12.263C103.005,105.026,100.118,106.296,97.372,106.296z
					 M96.606,79.748c-3.783,1.729-6.251,5.683-6.442,10.318c-0.218,5.263,2.794,11.537,7.001,11.741
					c1.623,0.066,3.496-0.75,5.083-2.274c2.324-2.234,3.639-5.511,3.61-8.991c-0.028-3.312-1.48-6.842-3.698-8.992
					c-1.409-1.363-2.958-2.02-4.616-1.999C97.222,79.557,96.857,79.634,96.606,79.748z"/>
			</g>
			<g>
				<path style="fill:#525D7D;" d="M122.304,105.845c-0.064,0-0.128-0.001-0.191-0.002c-2.361-0.054-4.726-1.208-6.658-3.249
					c-2.702-2.851-4.237-7.053-4.107-11.242c0.145-4.727,2.464-9.158,6.202-11.856c1.257-0.906,2.75-1.217,4.177-1.417
					c0.272-0.039,0.542-0.058,0.807-0.058c2.66,0.004,5.112,1.172,7.096,3.38c2.812,3.128,4.388,8.188,3.924,12.591
					C132.764,101.46,127.251,105.845,122.304,105.845z M120.173,83.134c-2.616,1.888-4.24,5.011-4.343,8.356
					c-0.093,3.019,0.982,6.017,2.88,8.019c1.105,1.166,2.35,1.823,3.505,1.85c2.581,0.047,6.296-2.338,6.879-7.839
					c0.333-3.166-0.817-6.918-2.8-9.123c-1.127-1.254-2.393-1.891-3.764-1.893c-0.052,0-0.109,0.004-0.169,0.013
					C121.816,82.595,120.704,82.752,120.173,83.134z"/>
			</g>
			<g>
				<path style="fill:#525D7D;" d="M137.115,107.413c-1.197,0-2.19-0.944-2.239-2.151c-0.029-0.709-0.044-1.418-0.044-2.126
					c0-7.385,1.572-14.964,4.672-22.528c0.345-0.842,1.199-1.329,2.074-1.392c0.907,0,1.726,0.547,2.071,1.385
					c2.041,4.931,3.781,9.334,5.327,13.476c0.453-1.458,0.893-2.912,1.33-4.346c1.272-4.185,2.587-8.513,4.082-12.718
					c0.413-1.166,1.691-1.773,2.864-1.362c1.166,0.415,1.775,1.697,1.361,2.864c-1.46,4.107-2.759,8.383-4.016,12.519
					c-1.069,3.517-2.174,7.153-3.38,10.698c-0.308,0.906-1.158,1.517-2.115,1.52c-1.016,0.039-1.812-0.601-2.126-1.506
					c-1.524-4.383-3.232-8.929-5.266-14.014c-1.59,5.196-2.394,10.357-2.394,15.403c0,0.647,0.015,1.294,0.041,1.943
					c0.05,1.237-0.912,2.281-2.149,2.331C137.177,107.412,137.146,107.413,137.115,107.413z"/>
			</g>
			<g>
				<path style="fill:#525D7D;" d="M166.084,97.164c-0.036,0-0.073-0.001-0.11-0.003c-1.236-0.059-2.191-1.11-2.131-2.347
					c0.067-1.396,0.099-2.817,0.099-4.345c0-5.612-0.453-11.077-0.93-16.861c-0.175-2.118-0.352-4.242-0.504-6.377
					c-0.089-1.235,0.841-2.308,2.077-2.396c1.222-0.095,2.308,0.841,2.396,2.077c0.152,2.119,0.325,4.226,0.499,6.327
					c0.466,5.621,0.946,11.434,0.946,17.231c0,1.601-0.034,3.093-0.105,4.56C168.265,96.23,167.273,97.164,166.084,97.164z"/>
			</g>
			<g>
				<path style="fill:#525D7D;" d="M165.936,107.479c-1.709,0-3.05-1.383-3.05-3.15c0-1.874,1.311-3.896,3.429-3.896
					c0.435,0,0.844,0.095,1.217,0.282c1.107,0.553,1.768,1.661,1.768,2.966C169.301,105.515,167.949,107.479,165.936,107.479z
					 M165.524,104.726c0.249,0.124,0.53,0.192,0.791,0.192c0.6,0,0.993-0.374,1.054-0.531c0.001-0.689-0.588-1.393-1.434-1.393
					c-0.565,0-1.12,0.341-1.12,0.688C164.816,104.025,165.06,104.492,165.524,104.726z"/>
			</g>
			<g>
				<path style="fill:#525D7D;" d="M113.275,69.537c-1.072,0-2.019-0.77-2.207-1.862c-0.21-1.22,0.609-2.38,1.829-2.59
					c2.677-0.462,5.568-0.677,9.095-0.677c1.746,0,3.49,0.05,5.242,0.099c1.724,0.05,3.457,0.099,5.204,0.099
					c1.238,0,2.242,1.004,2.242,2.242s-1.004,2.242-2.242,2.242c-1.791,0-3.565-0.05-5.333-0.101
					c-1.708-0.049-3.41-0.098-5.114-0.098c-3.311,0-5.88,0.189-8.333,0.612C113.53,69.526,113.402,69.537,113.275,69.537z"/>
			</g>
			<g>
				<path style="fill:#525D7D;" d="M130.869,148.758c-3.641,0-6.902-0.271-9.972-0.83c-1.066-0.193-1.902-1.208-1.902-2.292
					c0-2.334,2.533-3.919,9.565-7.238c-13.902,0.557-28.277,1.133-42.013,3.95c-1.203,0.249-2.399-0.531-2.648-1.746
					c-0.248-1.213,0.533-2.398,1.746-2.647c14.095-2.892,28.658-3.474,42.74-4.039c3.54-0.142,7.083-0.283,10.626-0.461
					c1.018-0.048,1.939,0.588,2.248,1.556c0.31,0.969-0.07,2.024-0.927,2.572c-1.636,1.047-4.495,2.374-7.523,3.778
					c-1.67,0.775-3.918,1.817-5.826,2.791c1.242,0.08,2.534,0.12,3.886,0.12c3.841,0,7.761-0.323,11.55-0.636
					c4.68-0.386,9.534-0.783,14.39-0.602c1.236,0.047,2.203,1.088,2.156,2.325c-0.045,1.237-1.013,2.196-2.326,2.157
					c-4.594-0.172-9.296,0.215-13.851,0.59C138.907,148.427,134.895,148.758,130.869,148.758z"/>
			</g>
		</g>
	</g>
</g>
<g id="Layer_1">
</g>
</svg>
