<?xml version="1.0" encoding="iso-8859-1"?>
<!-- Generator: Adobe Illustrator 21.0.2, SVG Export Plug-In . SVG Version: 6.00 Build 0)  -->
<svg version="1.1" xmlns="http://www.w3.org/2000/svg" xmlns:xlink="http://www.w3.org/1999/xlink" x="0px" y="0px"
	 viewBox="0 0 184.877 225.166" style="enable-background:new 0 0 184.877 225.166;" xml:space="preserve">
<g id="_x35_3">
	<g>
		<g>
			<path style="fill:#E0DFE6;" d="M54.315,80.291c-0.47-3.466-2.943-4.73-5.554-4.49c-0.491-3.432-2.016-6.671-4.663-9.006
				c-2.992-2.64-7.158,0.63-5.432,4.191c1.038,2.143,1.758,4.73,1.289,7.105c-0.394,1.996,0.318,3.953,1.882,4.985
				c-0.168,1.166-0.401,2.307-0.695,3.414c-1.539-3.468-7.205-5.236-9.476-0.884c-3.986,7.635-10.768,9.584-18.815,9.981
				c-0.889,0.044-1.619,0.495-2.106,1.12c-0.165-0.04-0.329-0.083-0.495-0.121c-1.961-0.456-4.087,1.311-3.409,3.409
				c3.804,11.772,19.531,14.418,29.786,10.352C48.619,105.593,56.034,92.961,54.315,80.291z"/>
		</g>
		<g>
			<path style="fill:#E0DFE6;" d="M171.092,90.563c-4.491,7.577-11.121,10.584-19.719,10.845c-3.311,0.101-5.134,5.007-1.798,6.638
				c11.417,5.58,26.391-0.267,32.299-11.18C185.699,89.802,175.201,83.629,171.092,90.563z"/>
		</g>
		<g>
			<g>
				<path style="fill:#E0DFE6;" d="M171.105,44.866c-1.921-1.484-5.479-1.235-6.598,1.26c-0.159,0.355-0.332,0.7-0.535,1.032
					c-0.022,0.037-0.1,0.13-0.176,0.228c0.129-0.147,0.232-0.214-0.085,0.163c-0.02,0.024-0.045,0.045-0.066,0.07
					c-0.011,0.025-0.028,0.055-0.025,0.069c-0.212,0.207-0.443,0.464-0.699,0.698c-0.063,0.058-0.155,0.123-0.239,0.191
					c-0.076,0.051-0.151,0.102-0.229,0.15c-1.489,0.951-2.139,2.756-1.443,4.405c0.724,1.715,2.4,2.344,4.162,2.042
					c2.448-0.419,4.747-1.749,6.388-3.607C173.333,49.559,173.322,46.578,171.105,44.866z"/>
			</g>
			<g>
				<path style="fill:#E0DFE6;" d="M163.797,47.386c-0.069,0.078-0.138,0.174-0.163,0.246
					C163.675,47.554,163.73,47.472,163.797,47.386z"/>
			</g>
		</g>
		<g>
			<path style="fill:#E0DFE6;" d="M144.085,24.722c-2.585-1.366-6.444-0.832-7.891,2.018c-1.807-0.425-4.013,0.459-4.891,2.122
				c-1.014,1.919-0.611,3.846,0.708,5.483c1.565,1.942,4.182,2.89,6.622,2.746c3.184-0.188,5.821-1.739,7.532-4.438
				C147.791,30.087,146.785,26.148,144.085,24.722z"/>
		</g>
		<g>
			<path style="fill:#E0DFE6;" d="M96.273,12.504c-0.883-0.883-2.194-1.426-3.442-1.426c-1.483,0-2.695,0.655-3.627,1.687
				c0.017-0.022,0.034-0.044,0.051-0.066c-0.069,0.088-0.154,0.158-0.227,0.239c-0.092,0.018-0.183,0.04-0.275,0.05
				c0.048-0.006,0.096-0.013,0.143-0.019c-1.73,0.383-3.079,1.6-3.332,3.483c-0.284,2.115,0.996,3.864,2.97,4.55
				c2.192,0.762,4.804,0.365,6.755-0.852C97.939,18.496,98.527,14.758,96.273,12.504z"/>
		</g>
		<g>
			<path style="fill:#E0DFE6;" d="M49.377,34.41c-1.28-1.985-4.107-3.038-6.238-1.636c-2.133,1.404-3.279,1.876-5.778,2.402
				c-2.231,0.47-3.733,3.213-3.04,5.354c0.796,2.458,2.935,3.412,5.354,3.04c2.844-0.437,5.582-1.478,8.066-2.923
				C49.804,39.448,50.709,36.477,49.377,34.41z"/>
		</g>
		<g>
			<path style="fill:#E0DFE6;" d="M61.393,171.273c-0.188-0.009-0.264-0.008-0.281-0.001c-0.47-0.063-0.856-0.072-1.306-0.079
				c-0.132-0.076-0.264-0.152-0.396-0.227c-0.774-0.816-1.648-1.235-2.624-1.597c-1.062-0.395-2.317-0.006-3.165,0.65
				c-0.978,0.755-1.28,1.663-1.431,2.851c-0.256,2.024,1.324,4.175,2.73,5.489c1.499,1.401,3.009,2.703,5.096,3.085
				c3.051,0.559,6.021-1.024,6.462-4.305C66.904,173.973,64.519,171.423,61.393,171.273z"/>
		</g>
		<g>
			<path style="fill:#E0DFE6;" d="M157.85,156.267c-2.343-4.066-9.183-1.383-7.704,3.248c2.603,8.152,7.022,17.207,4.64,25.937
				c-1.336,4.896-4.46,7.854-8.351,9.745c-0.328-0.505-0.732-0.952-1.186-1.324c-0.029-0.178-0.034-0.347-0.081-0.53
				c-0.851-3.347-2.323-6.58-3.648-9.765c-1.218-2.928-2.373-5.965-4.134-8.615c3.326,0.334,6.96-1.809,5.931-6.617
				c-0.881-4.12-2.527-8.65-7.023-9.929c-4.65-1.323-10.528,0.086-15.261,0.43c-2.957,0.214-2.837,4.15,0,4.511
				c3.206,0.407,6.426,0.755,9.623,1.224c2.692,0.394,2.699,1.261,2.079,3.765c-0.5,2.019-0.08,3.583,0.824,4.69
				c-1.574,0.163-2.955,1.239-2.807,3.244c0.245,3.317,1.125,6.519,1.819,9.764c0.724,3.382,1.167,6.865,2.08,10.197
				c0.12,0.436,0.277,0.829,0.462,1.187c-0.403,0.455-0.767,0.937-1.059,1.454c-0.128-0.686-0.261-1.378-0.392-2.078
				c-1.756-9.347-2.654-18.869-4.81-28.135c-0.663-2.852-4.386-1.838-4.7,0.636c-0.85,6.701-0.585,13.378,0.109,20.08
				c0.598,5.775,3.787,14.239,0.499,19.318c-1.111,1.716-0.675,3.549,0.439,4.848c-8.553,3.201-18.31,4.098-27.069,5.897
				c-2.136,0.439-1.821,3.418,0,4.018c10.625,3.502,23.756,0.965,34.286-1.988c9.784-2.744,11.567-8.965,11.541-17.711
				c0.064-0.061,0.127-0.123,0.191-0.184c7.86,0.009,15.028-3.024,18.847-11.253C168.613,180.227,164.123,167.153,157.85,156.267z"
				/>
		</g>
		<g>
			<path style="fill:#E0DFE6;" d="M137.095,58.085c-0.943-2.351-4.092-1.967-4.363,0.59c-1.433,13.526,1.068,27.247-6.578,39.436
				c-0.56,0.892-1.147,1.753-1.745,2.601c0.841-2.417,1.565-4.776,2.188-6.939c2.896-10.062,3.911-20.562,2.771-30.974
				c-0.049-0.448-0.213-0.846-0.447-1.189c0.336-0.875,0.452-1.802,0.363-2.715c0.929-0.459,1.848-0.943,2.745-1.482
				c5.757-3.463,0.727-11.46-5.157-8.823c-10.506,4.707-20.104,9.267-31.934,9.012c-0.232-0.005-0.449,0.013-0.651,0.048
				c-3.047-1.156-5.979-2.885-8.691-5.24c-2.047-1.778-5.924-1.952-7.271,0.937c-3.522,7.549-7.182,13.106-15.11,16.525
				c-2.369,1.021-1.229,5.306,1.347,4.972c7.72-1.001,15.214-5.07,19.423-11.56c11.526,8.521,26.602,9.718,39.52,2.94
				c-1.971,8.116-4.359,16.096-7.614,23.817c-3.648,8.652-10.027,16.387-12.998,25.147c-1.574,4.641,2.714,7.513,6.607,6.964
				c-0.018,0.053-0.044,0.094-0.061,0.149c-0.206,0.668-0.412,1.335-0.617,2.003c-0.345,1.119-0.381,2.15-0.197,3.079
				c-0.128-0.189-0.26-0.37-0.384-0.571c-0.969-1.569-1.925-3.136-2.932-4.682c-1.171-1.799-3.342-1.535-4.368-0.214
				c-0.734-1.581-3.599-1.266-3.873,0.502c-0.971,6.277,0.48,11.811,4.808,16.527c2.054,2.239,5.683,1.868,7.608-0.252
				c0.322-0.102,0.643-0.234,0.958-0.418c2.592-1.517,2.723-4.52,1.273-6.812c3.54,2.039,8.873,1.36,9.872-3.64
				c2.352-11.772,13.436-19.486,17.519-30.693C143.498,85.08,141.795,69.809,137.095,58.085z"/>
		</g>
		<g>
			<g>
				<g>
					<path style="fill:#525D7D;" d="M22.545,104.059c-5.87,0-11.461-2.447-15.755-6.9c-4.572-4.74-7.04-11.266-6.77-17.902
						c0.189-4.654,1.72-9.068,4.43-12.762c1.676-2.287,3.747-4.208,5.991-5.559c3.242-1.953,7.598-3.202,11.365-3.261
						c12.777-0.134,22.936,9.703,23.143,22.546c0.1,6.214-2.321,12.166-6.819,16.759c-4.312,4.405-10.103,7.051-15.49,7.079
						C22.608,104.059,22.576,104.059,22.545,104.059z M22.183,61.99c-0.103,0-0.206,0.001-0.31,0.003
						c-3.051,0.048-6.578,1.06-9.205,2.643c-1.758,1.058-3.395,2.584-4.736,4.412c-2.2,3-3.444,6.591-3.598,10.383
						C4.112,84.896,6.14,90.266,9.898,94.162c3.473,3.6,7.961,5.579,12.646,5.579c0.025,0,0.05,0,0.075,0
						c4.258-0.021,8.903-2.183,12.426-5.781c3.684-3.763,5.668-8.618,5.586-13.668C40.464,69.971,32.387,61.99,22.183,61.99z"/>
				</g>
				<g>
					<path style="fill:#525D7D;" d="M12.88,86.403c-0.905,0-1.748-0.062-2.578-0.19c-1.179-0.181-1.987-1.283-1.806-2.461
						c0.18-1.179,1.277-1.985,2.462-1.806c0.61,0.094,1.238,0.139,1.922,0.139c2.04,0,4.126-0.412,6.334-0.849
						c0.106-0.021,0.212-0.042,0.318-0.063c-0.188-1.462-0.283-2.995-0.283-4.582c0-2.231,0.187-4.577,0.556-6.975
						c0.181-1.179,1.287-1.985,2.462-1.805c1.179,0.181,1.987,1.283,1.805,2.463c-0.335,2.18-0.505,4.305-0.505,6.317
						c0,2.1,0.186,4.079,0.554,5.883c0.117,0.572-0.003,1.167-0.332,1.649c-0.329,0.482-0.839,0.811-1.414,0.909
						c-0.775,0.135-1.548,0.288-2.322,0.441C17.736,85.929,15.342,86.403,12.88,86.403z"/>
				</g>
			</g>
			<g>
				<path style="fill:#525D7D;" d="M90.942,122.456c-0.192,0-0.386-0.025-0.579-0.079c-25.299-7.028-31.984-23.379-33.468-28.39
					c-2.605-0.963-4.111-4.186-4.111-9.027c0-4.656,1.697-6.321,3.586-7.746c1.042-0.787,1.432-1.081,1.432-2.803
					c0-3.054-0.312-6.258-0.642-9.65c-0.331-3.395-0.673-6.905-0.673-10.263c0-21.052,26.808-28.137,39.038-28.137
					c19.497,0,34.783,10.738,40.891,28.723c0.195,0.576,0.139,1.209-0.156,1.742c-0.295,0.531-0.801,0.915-1.394,1.054
					c-4.666,1.098-8.539,2.416-11.957,3.579c-5.802,1.974-10.814,3.679-17.377,3.679c-10.338,0-17.591-4.554-19.896-12.495
					c-0.332-1.144,0.326-2.343,1.471-2.675c1.143-0.34,2.343,0.326,2.676,1.472c2.37,8.161,10.885,9.38,15.749,9.38
					c5.849,0,10.322-1.522,15.986-3.449c2.926-0.995,6.177-2.1,9.998-3.105c-8.413-21.234-27.833-23.585-35.991-23.585
					c-9.27,0-34.72,5.645-34.72,23.819c0,3.149,0.332,6.553,0.652,9.844c0.326,3.345,0.663,6.805,0.663,10.069
					c0,3.872-1.82,5.246-3.149,6.249c-1.126,0.849-1.869,1.41-1.869,4.3c0,2.762,0.693,5.01,1.545,5.01
					c1.038,0,1.929,0.739,2.122,1.758c0.15,0.767,4.032,19.066,30.749,26.488c1.149,0.319,1.822,1.51,1.503,2.658
					C92.755,121.831,91.888,122.456,90.942,122.456z"/>
			</g>
			<g>
				<path style="fill:#525D7D;" d="M66.71,70.761c-0.834,0-1.628-0.485-1.981-1.299c-0.476-1.094,0.025-2.364,1.119-2.841
					c6.971-3.031,9.974-10.631,12.878-17.982c0.583-1.474,1.156-2.925,1.75-4.312c0.471-1.095,1.743-1.6,2.835-1.134
					c1.096,0.47,1.604,1.739,1.134,2.835c-0.579,1.349-1.137,2.762-1.704,4.199c-3.076,7.787-6.562,16.613-15.172,20.356
					C67.289,70.704,66.997,70.761,66.71,70.761z"/>
			</g>
			<g>
				<path style="fill:#525D7D;" d="M102.246,123.265c-1.096,0-2.034-0.831-2.146-1.944c-0.119-1.186,0.747-2.245,1.934-2.363
					c11.869-1.188,19.376-11.714,22.312-31.291c0.305-2.031,1.29-2.831,2.19-3.42c0.458-0.301,1.311-0.86,1.311-6.689
					c0-3.901-0.401-7.834-0.788-11.636c-0.284-2.786-0.578-5.666-0.714-8.525c-0.056-1.191,0.863-2.203,2.054-2.259
					c1.213-0.041,2.203,0.862,2.26,2.054c0.13,2.742,0.405,5.438,0.696,8.293c0.399,3.909,0.811,7.953,0.811,12.073
					c0,6.861-1.146,8.912-3.26,10.299c-0.081,0.053-0.163,0.098-0.236,0.159c0.006,0.013-0.025,0.11-0.052,0.292
					c-3.22,21.474-12.264,33.558-26.153,34.945C102.391,123.262,102.319,123.265,102.246,123.265z"/>
			</g>
			<g>
				<path style="fill:#525D7D;" d="M81.784,84.434c-3.61,0-5.558-3.461-5.558-6.718c0-1.192,0.966-2.159,2.159-2.159
					s2.159,0.967,2.159,2.159c0,0.981,0.441,2.399,1.24,2.399c0.766,0,2.671-0.675,5.521-2.577c0.991-0.661,2.332-0.394,2.994,0.597
					c0.662,0.992,0.394,2.333-0.597,2.995C86.418,83.323,83.754,84.434,81.784,84.434z"/>
			</g>
			<g>
				<path style="fill:#525D7D;" d="M106.213,83.83c-3.264,0-5.665-1.87-6.267-4.88c-0.234-1.169,0.524-2.307,1.694-2.54
					c1.171-0.232,2.307,0.524,2.54,1.694c0.091,0.457,0.282,1.409,2.033,1.409c1.047,0,2.282-0.375,3.222-0.98
					c1.003-0.645,2.338-0.354,2.984,0.648c0.645,1.004,0.354,2.339-0.649,2.984C110.124,83.222,108.098,83.83,106.213,83.83z"/>
			</g>
			<g>
				<path style="fill:#525D7D;" d="M94.779,104.97c-0.633,0-1.261-0.277-1.688-0.81c-0.745-0.932-0.594-2.29,0.337-3.035
					c0.558-0.447,0.808-0.898,0.808-1.147c0-0.954-0.363-2.034-0.748-3.178c-0.463-1.375-0.988-2.935-0.988-4.64
					c0-0.901,0.149-1.781,0.443-2.614c0.397-1.124,1.629-1.715,2.754-1.317c1.124,0.396,1.715,1.629,1.318,2.754
					c-0.133,0.377-0.197,0.762-0.197,1.178c0,0.998,0.37,2.099,0.763,3.262c0.457,1.356,0.974,2.893,0.974,4.556
					c0,1.66-0.862,3.265-2.429,4.518C95.729,104.816,95.252,104.97,94.779,104.97z"/>
			</g>
			<g>
				<path style="fill:#525D7D;" d="M84.209,110.081c-0.427,0-0.859-0.127-1.236-0.391c-2.476-1.733-4.048-4.545-4.311-7.711
					c-0.099-1.189,0.784-2.232,1.972-2.332c1.204-0.081,2.232,0.784,2.331,1.972c0.157,1.886,1.063,3.539,2.485,4.535
					c0.977,0.683,1.215,2.03,0.531,3.007C85.56,109.761,84.89,110.081,84.209,110.081z"/>
			</g>
			<g>
				<path style="fill:#525D7D;" d="M53.642,199.352c-0.08,0-0.16-0.004-0.241-0.013c-1.713-0.191-3.399-0.304-5.029-0.413
					c-10.125-0.678-19.687-1.318-19.687-21.177c0-44.486,15.518-49.358,35.804-51.103c8.781-0.756,16.365-1.408,20.633-8.67
					c0.605-1.028,1.928-1.372,2.955-0.767c1.028,0.604,1.371,1.927,0.767,2.955c-5.398,9.186-14.847,9.998-23.985,10.785
					c-15.662,1.348-31.856,2.741-31.856,46.801c0,15.82,5.561,16.193,15.657,16.869c1.677,0.112,3.41,0.229,5.217,0.429
					c1.185,0.132,2.04,1.199,1.907,2.385C55.663,198.535,54.727,199.352,53.642,199.352z"/>
			</g>
			<g>
				<path style="fill:#525D7D;" d="M140.273,198.168c-1.118,0-2.063-0.86-2.151-1.993c-0.091-1.189,0.798-2.227,1.987-2.318
					c9.414-0.725,13.94-1.996,13.94-22.791c0-31.535-11.758-32.716-24.206-33.967c-9.333-0.936-19.91-1.999-23.18-17.211
					c-0.251-1.167,0.491-2.314,1.657-2.565c1.164-0.25,2.314,0.492,2.565,1.657c2.61,12.138,10.015,12.881,19.39,13.823
					c15.917,1.598,28.093,5.43,28.093,38.263c0,22.143-5.285,26.122-17.926,27.095C140.385,198.167,140.329,198.168,140.273,198.168
					z"/>
			</g>
			<g>
				<path style="fill:#525D7D;" d="M93.901,148.366c-10.085,0-20.756-4.785-21.861-15.473c-0.122-1.186,0.739-2.248,1.926-2.37
					c1.177-0.114,2.247,0.739,2.37,1.926c0.829,8.012,9.419,11.599,17.566,11.599c9.129,0,15.506-3.948,21.324-13.203
					c0.636-1.011,1.968-1.314,2.977-0.679c1.009,0.634,1.314,1.966,0.679,2.976C114.426,140.231,107.56,148.366,93.901,148.366z"/>
			</g>
			<g>
				<path style="fill:#525D7D;" d="M122.685,211.741c-7.855,0-15.799-0.297-23.481-0.583c-7.648-0.287-15.556-0.582-23.342-0.582
					l-1.358,0.003c-3.505,0.025-6.375-2.591-6.698-6.06c-0.569-6.112-1.054-12.29-1.524-18.262
					c-0.467-5.935-0.95-12.07-1.512-18.128c-0.174-1.874,0.451-3.746,1.713-5.138c1.253-1.38,3.04-2.176,4.904-2.183
					c5.576-0.021,11.151-0.011,16.728,0.001c3.235,0.006,6.47,0.013,9.705,0.013c8.86,0,19.336-0.044,29.852-0.37
					c3.632-0.132,6.715,2.718,6.899,6.313c0.191,3.716,0.335,7.425,0.48,11.13c0.336,8.636,0.684,17.566,1.651,26.35
					c0.202,1.84-0.38,3.698-1.599,5.097c-1.229,1.41-3.008,2.249-4.881,2.3C127.802,211.709,125.337,211.741,122.685,211.741z
					 M75.862,206.258c7.867,0,15.816,0.297,23.503,0.585c7.642,0.285,15.546,0.581,23.32,0.581c2.612,0,5.037-0.032,7.415-0.097
					c0.68-0.02,1.3-0.311,1.745-0.821c0.434-0.499,0.634-1.134,0.562-1.788c-0.983-8.936-1.334-17.943-1.673-26.655
					c-0.143-3.687-0.287-7.377-0.477-11.075c-0.065-1.265-1.123-2.215-2.453-2.22c-10.575,0.329-21.092,0.373-29.986,0.373
					c-3.238,0-6.475-0.007-9.713-0.014c-5.57-0.01-11.138-0.02-16.704,0c-0.664,0.003-1.275,0.275-1.723,0.767
					c-0.457,0.503-0.673,1.156-0.61,1.836c0.566,6.088,1.049,12.24,1.517,18.189c0.469,5.959,0.954,12.12,1.519,18.202
					c0.112,1.202,1.15,2.141,2.366,2.141C74.481,206.26,75.862,206.258,75.862,206.258z"/>
			</g>
			<g>
				<path style="fill:#525D7D;" d="M61.146,184.287c-6.123,0-8.975-2.496-8.975-7.855c0-1.14,0.115-2.295,0.227-3.411
					c0.099-0.992,0.193-1.93,0.193-2.738c0-0.261-0.01-0.513-0.034-0.751c-0.124-1.186,0.737-2.248,1.923-2.373
					c1.181-0.108,2.248,0.738,2.371,1.923c0.04,0.381,0.058,0.784,0.058,1.2c0,1.023-0.109,2.114-0.214,3.168
					c-0.1,1.011-0.205,2.056-0.205,2.981c0,2.323,0.207,3.537,4.657,3.537c1.426,0,2.908-0.212,4.475-0.437l0.253-0.037
					c1.177-0.167,2.274,0.652,2.443,1.833c0.169,1.179-0.651,2.274-1.832,2.443l-0.252,0.035
					C64.585,184.043,62.88,184.287,61.146,184.287z"/>
			</g>
			<g>
				<path style="fill:#525D7D;" d="M134.187,177.843c-1.157,0-2.115-0.916-2.156-2.082c-0.043-1.192,0.889-2.193,2.08-2.235
					c3.722-0.134,6.528-3.154,6.528-7.028c0-0.656-0.085-1.316-0.252-1.962c-0.299-1.154,0.394-2.332,1.548-2.631
					c1.158-0.295,2.333,0.395,2.632,1.549c0.259,0.998,0.39,2.023,0.39,3.045c0,6.147-4.697,11.13-10.692,11.344
					C134.239,177.843,134.213,177.843,134.187,177.843z"/>
			</g>
			<g>
				<path style="fill:#525D7D;" d="M104.091,194.827c-0.371,0-0.741-0.096-1.072-0.285c-2.792-1.597-5.693-2.933-8.764-4.35
					c-1.525-0.703-3.052-1.407-4.566-2.144c-0.579-0.283-1.002-0.808-1.153-1.435c-0.151-0.627-0.015-1.288,0.372-1.804l0.69-0.916
					c2.433-3.227,4.947-6.564,6.771-10.188c0.516-1.025,1.741-1.472,2.794-1.006c2.729,1.193,5.682,2.266,9.293,3.376
					c0.565,0.173,1.035,0.571,1.298,1.101c0.264,0.529,0.299,1.143,0.098,1.699c-1.121,3.091-1.879,6.484-2.612,9.765
					c-0.34,1.524-0.68,3.047-1.056,4.551c-0.164,0.656-0.626,1.198-1.248,1.463C104.667,194.769,104.379,194.827,104.091,194.827z
					 M93.95,185.293c0.704,0.329,1.408,0.654,2.113,0.978c2.173,1.001,4.399,2.027,6.577,3.154c0.131-0.575,0.259-1.151,0.388-1.728
					c0.602-2.696,1.221-5.467,2.054-8.164c-2.113-0.69-4.017-1.379-5.808-2.106C97.685,180.227,95.818,182.802,93.95,185.293z"/>
			</g>
			<g>
				<path style="fill:#525D7D;" d="M99.251,221.368c-4.318,0-11.157-0.03-17.089-0.85c-3.182-0.441-12.863-1.781-12.863-7.985
					c0-0.416,0.01-0.832,0.019-1.234c0.008-0.34,0.016-0.668,0.016-0.973c0-1.192,0.966-2.159,2.159-2.159
					c1.193,0,2.159,0.967,2.159,2.159c0,0.337-0.008,0.7-0.017,1.075c-0.009,0.368-0.018,0.749-0.018,1.132
					c0,1.127,2.393,2.775,9.137,3.708c5.878,0.814,12.854,0.805,17.008,0.81h0.456c22.754,0,31.234-3.31,31.234-5.396
					c0-0.388-0.015-0.776-0.029-1.157c-0.016-0.422-0.031-0.835-0.031-1.234c0-1.192,0.966-2.159,2.159-2.159
					c1.193,0,2.159,0.967,2.159,2.159c0,0.346,0.014,0.706,0.028,1.071c0.016,0.436,0.032,0.877,0.032,1.32
					c0,2.402,0,9.714-35.552,9.714h-0.455C99.597,221.368,99.426,221.368,99.251,221.368z"/>
			</g>
			<g>
				<g>
					<path style="fill:#525D7D;" d="M128.025,25.148c-0.94,0-1.804-0.617-2.075-1.566c-0.327-1.147,0.337-2.342,1.484-2.669
						c3.319-0.947,5.637-3.871,5.637-7.11c0-0.135-0.001-0.26-0.001-0.377c-0.097-0.638-0.134-1.176-0.134-1.551
						c0-1.741,1.305-2.373,2.182-2.373c0.618,0,2.071,0.245,2.224,2.508c0.017,0.244,0.032,0.576,0.04,1.007
						c0.209,1.171,0.718,2.928,1.838,4.072c0.775,0.793,1.749,1.178,2.976,1.178c0.312,0,0.636-0.041,0.963-0.119
						c1.16-0.277,2.326,0.433,2.607,1.591c0.28,1.158-0.432,2.325-1.591,2.606c-0.66,0.159-1.326,0.24-1.979,0.24
						c-2.604,0-4.834-1.021-6.465-2.919c-1.54,2.543-4.053,4.525-7.113,5.399C128.421,25.122,128.222,25.148,128.025,25.148z"/>
				</g>
				<g>
					<path style="fill:#525D7D;" d="M135.85,33.016c-0.087,0-0.142-0.006-0.155-0.007c-0.33-0.034-1.975-0.309-1.944-2.458
						l0.006-0.751c0-1.706-2.078-3.381-4.196-3.381c-0.252,0-0.493,0.025-0.719,0.076c-1.162,0.25-2.317-0.476-2.575-1.64
						c-0.259-1.165,0.476-2.318,1.64-2.576c0.531-0.117,1.088-0.177,1.654-0.177c2.47,0,4.776,1.067,6.363,2.702
						c1.704-2.717,4.216-4.566,7.316-5.311c1.156-0.268,2.325,0.436,2.603,1.595c0.278,1.16-0.436,2.325-1.595,2.605
						c-4.347,1.043-5.734,5.083-6.175,7.396C137.737,32.863,136.325,33.014,135.85,33.016z"/>
				</g>
			</g>
			<g>
				<path style="fill:#525D7D;" d="M161.67,103.496c-4.992,0-10.051-1.288-14.47-3.234c-0.901-0.398-1.42-1.354-1.261-2.325
					c0.159-0.971,0.954-1.712,1.935-1.802c6.571-0.599,11.963-3.762,16.024-9.4c6.178-8.576,6.631-19.104,4.996-26.097
					c-0.218-0.935,0.207-1.903,1.044-2.374c0.837-0.467,1.884-0.332,2.57,0.34c5.86,5.746,19.585,19.199,7.629,35.8
					C175.368,101.023,168.583,103.496,161.67,103.496z M155.99,98.572c7.515,1.532,15.585,0.328,20.641-6.692
					c7.051-9.787,3.653-18.019-2.646-25.418c0.264,7.111-1.368,15.556-6.583,22.798C164.264,93.616,160.444,96.729,155.99,98.572z"
					/>
			</g>
			<g>
				<path style="fill:#525D7D;" d="M165.333,51.919c-0.922,0-1.773-0.595-2.06-1.515c-0.926-2.963-2.22-6.047-4.793-6.453
					c-1.068-0.169-1.846-1.102-1.821-2.183c0.025-1.081,0.845-1.976,1.921-2.096c1.654-0.183,3.035-1.332,3.598-2.838
					c-0.059-0.335-0.089-0.682-0.089-1.039c0-2.95,1.305-3.569,2.399-3.569c1.039,0,2.279,0.54,2.279,3.116
					c0,0.451-0.035,0.895-0.101,1.33c0.644,1.058,2.378,1.777,3.964,1.777c1.969,0,2.375,1.379,2.452,1.801
					c0.123,0.672,0.064,1.899-1.717,2.575c-1.904,0.721-4.09,1.955-4.09,5.115c0,0.432,0.053,0.876,0.159,1.318
					c0.27,1.133-0.405,2.274-1.527,2.584C165.716,51.894,165.523,51.919,165.333,51.919z M163.647,42.012
					c0.266,0.266,0.514,0.545,0.746,0.835c0.326-0.499,0.719-0.987,1.192-1.453c-0.277-0.163-0.543-0.339-0.797-0.529
					C164.445,41.281,164.063,41.665,163.647,42.012z"/>
			</g>
			<g>
				<path style="fill:#525D7D;" d="M43.758,40.505c-0.922,0-1.772-0.594-2.06-1.515c-0.926-2.963-2.22-6.047-4.792-6.453
					c-1.068-0.169-1.847-1.101-1.823-2.182c0.025-1.081,0.845-1.978,1.919-2.097c1.655-0.184,3.036-1.334,3.599-2.839
					c-0.059-0.333-0.089-0.68-0.089-1.037c0-0.465,0.041-0.95,0.115-1.362c0.369-2.049,1.842-2.208,2.284-2.208
					c1.04,0,2.279,0.541,2.279,3.118c0,0.451-0.034,0.895-0.101,1.33c0.643,1.058,2.378,1.777,3.964,1.777
					c1.969,0,2.375,1.379,2.452,1.801c0.123,0.672,0.064,1.899-1.717,2.575c-1.904,0.721-4.09,1.955-4.09,5.115
					c0,0.43,0.054,0.874,0.16,1.32c0.27,1.131-0.406,2.274-1.527,2.582C44.139,40.48,43.947,40.505,43.758,40.505z M42.072,30.597
					c0.266,0.266,0.514,0.547,0.746,0.836c0.326-0.499,0.72-0.987,1.192-1.453c-0.278-0.163-0.544-0.34-0.798-0.53
					C42.869,29.867,42.486,30.251,42.072,30.597z"/>
			</g>
			<g>
				<path style="fill:#525D7D;" d="M90.897,16.464c-0.683,0-1.595-0.311-2.144-1.757c-0.723-1.904-1.956-4.09-5.115-4.09
					c-0.429,0-0.874,0.054-1.321,0.16c-1.133,0.264-2.274-0.408-2.581-1.529c-0.308-1.122,0.328-2.286,1.438-2.632
					c2.962-0.926,6.046-2.219,6.453-4.792c0.169-1.068,1.121-1.881,2.182-1.822c1.081,0.025,1.977,0.845,2.096,1.919
					c0.184,1.655,1.335,3.036,2.841,3.598c0.77-0.134,1.67-0.103,2.399,0.026c2.05,0.368,2.208,1.842,2.208,2.285
					c0,1.039-0.54,2.278-3.117,2.278c-0.452,0-0.895-0.035-1.33-0.101c-1.059,0.643-1.777,2.378-1.777,3.964
					c0,1.969-1.379,2.375-1.801,2.453C91.201,16.448,91.055,16.464,90.897,16.464z M88.731,7.737
					c0.499,0.325,0.986,0.719,1.453,1.191c0.163-0.277,0.339-0.544,0.529-0.797c-0.417-0.344-0.801-0.725-1.147-1.141
					C89.3,7.257,89.021,7.505,88.731,7.737z"/>
			</g>
		</g>
	</g>
</g>
<g id="Layer_1">
</g>
</svg>
