<?xml version="1.0" encoding="iso-8859-1"?>
<!-- Generator: Adobe Illustrator 21.0.2, SVG Export Plug-In . SVG Version: 6.00 Build 0)  -->
<svg version="1.1" xmlns="http://www.w3.org/2000/svg" xmlns:xlink="http://www.w3.org/1999/xlink" x="0px" y="0px"
	 viewBox="0 0 177.666 213.736" style="enable-background:new 0 0 177.666 213.736;" xml:space="preserve">
<g id="_x35_4">
	<g>
		<g>
			<path style="fill:#E0DFE6;" d="M114.918,45.461c-1.533-10.696-10.351-21.533-19.681-26.534c-2.485-1.332-5.625,2.211-3.175,4.114
				c5.595,4.345,11.461,16.013,11.776,23.162c0.155,3.519-0.99,6.608-2.7,9.461c-0.164,0.132-0.331,0.253-0.485,0.415
				c-3.674,3.855-7.121,7.867-10.956,11.577c-1.802,1.744-3.713,4.067-5.855,5.389c-0.041,0.025-0.075,0.04-0.116,0.064
				c6.025-8.98,7.727-20.104,4.901-30.656c-0.811-3.028-5.52-2.432-5.486,0.742c0.104,9.74-3.107,18.153-9.05,25.785
				c-1.122,1.441-1.355,3.052-1.044,4.516c-0.398,0.671-0.513,1.546-0.15,2.325c5.54,11.881,15.815,6.872,24.263-0.685
				c1.025,0.093,2.065-0.056,3.008-0.551C109.622,69.627,116.432,56.019,114.918,45.461z"/>
		</g>
		<g>
			<path style="fill:#E0DFE6;" d="M74.037,100.633c-1.605-11.426-10.469-19.084-20.395-24.738c-2.084-1.187-4.346,1.631-2.586,3.352
				c4.549,4.449,9.552,9.926,11.153,16.228c-5.243-0.597-10.475-1.108-15.693-2.069c-4.993-0.92-7.013,6.026-2.111,7.658
				c5.869,1.954,11.844,3.731,17.936,4.843c0.093,0.412,0.213,0.807,0.386,1.165c-9.553,7.767-21.2,9.742-33.789,11.948
				c-2.584,0.453-2.549,4.703,0,5.186c17.522,3.32,37.444,0.628,48.61-14.678C80.101,106.026,77.476,101.934,74.037,100.633z"/>
		</g>
		<g>
			<path style="fill:#E0DFE6;" d="M147.903,98.113c-6.711,6.959-10.506,13.857-20.633,16.432
				c-7.258,1.845-14.949,0.952-21.766-1.983c3.94-2.14,8.066-3.446,12.584-3.856c7.25-0.658,5.204-11.63-1.286-9.502
				c-1.469,0.482-2.905,1.03-4.308,1.64c2.901-2.478,6.126-4.535,9.588-6.451c5.053-2.797,0.449-10.728-4.533-7.755
				c-6.63,3.956-11.873,10.274-15.373,17.091c-0.604,1.177-0.425,2.234,0.144,2.986c-0.562,0.41-1.119,0.827-1.668,1.258
				c-0.547,0.429-0.861,0.937-0.992,1.468c-2.068-1.067-3.76,1.486-2.822,3.326c-0.222-0.031-0.455-0.039-0.701-0.021
				c-4.763,0.364-9.203,2.101-13.289,4.538c-3.497,2.086-0.439,6.994,3.134,5.362c3.538-1.617,7.294-2.266,11.1-2.917
				c1.942-0.332,2.705-2.122,2.499-3.807c7.738,7.82,18.487,11.837,29.66,9.986c11.17-1.851,25.428-10.592,27.732-22.516
				C157.947,98.348,151.908,93.961,147.903,98.113z"/>
		</g>
		<g>
			<path style="fill:#E0DFE6;" d="M127.397,153.662c-0.285-1.96-3.076-1.952-3.965-0.518c-2.788,4.497-4.426,9.65-5.791,14.846
				c0.284-3.467,0.403-6.938,0.301-10.399c-0.008-0.265-0.063-0.515-0.139-0.756c6.917-1.003,6.939-12.038-0.196-11.226
				c-24.218,2.754-48.682,2.397-72.787,6.013c-2.395,0.359-2.202,4.143,0,4.651c18.558,4.281,37.638,3.926,56.551,2.27
				c0.995,13.75-1.904,27.524-3.776,41.146c-0.08,0.585-0.16,1.154-0.234,1.722c-0.063,0.481-0.07,0.932-0.035,1.357
				c-3.975,0.28-7.964,0.212-10.96,0.542c-8.551,0.943-18.909,4.296-27.371,2.738c-2.912-0.536-4.055,3.466-1.227,4.451
				c12.056,4.196,26.558,3.127,39.135,3.089c10.399-0.031,22.346-1.08,25.858-12.766c0.584-1.943,0.063-3.7-1.019-5.03
				c1.339-6.18,2.58-12.386,3.674-18.604C126.779,169.441,128.539,161.521,127.397,153.662z"/>
		</g>
		<g>
			<path style="fill:#E0DFE6;" d="M143.371,50.023c0.016,0.707-0.119,1.632-1.46,1.722c-0.755,0.05-1.542-0.574-2.183-0.905
				c-1.264-0.653-2.547-1.177-3.914-1.567c-2.674-0.764-4.391,2.119-3.35,4.357c2.315,4.974,6.411,9.296,12.345,8.804
				c6.245-0.517,11.291-6.201,11.146-12.411C155.768,41.938,143.182,41.908,143.371,50.023z"/>
		</g>
		<g>
			<path style="fill:#E0DFE6;" d="M30.608,20.359c-3.451-1.388-6.703-0.049-8.81,2.887c-1.497,2.087-1.464,3.796-3.722,5.505
				c-0.46,0.348-1.043,0.697-1.57,0.932c-0.184,0.082-0.674,0.178-1.078,0.285c-1.736-2.001-5.348-1.263-6.7,0.879
				c-1.77,2.803-0.835,6.361,1.509,8.524c2.651,2.446,6.563,2.478,9.898,1.877c5.832-1.052,13.688-6.188,14.557-12.567
				C35.167,25.196,34.155,21.786,30.608,20.359z"/>
		</g>
		<g>
			<g>
				<path style="fill:#525D7D;" d="M32.691,153.116c-1.19,0-2.191-0.922-2.274-2.125c-0.248-3.619-0.385-7.251-0.519-10.763
					l-0.097-2.499c-0.025-0.649,0.227-1.279,0.694-1.73c0.468-0.451,1.097-0.688,1.753-0.636c1.825,0.135,3.67,0.355,5.453,0.567
					c2.796,0.333,5.688,0.677,8.445,0.677c2.372,0,4.439-0.254,6.321-0.777c1.21-0.339,2.47,0.373,2.808,1.588
					c0.337,1.213-0.373,2.471-1.588,2.808c-2.284,0.634-4.751,0.943-7.542,0.943c-3.028,0-6.056-0.361-8.985-0.71
					c-0.89-0.106-1.797-0.214-2.702-0.31c0.103,2.718,0.21,5.508,0.368,8.289c11.193-0.555,22.199-0.634,31.592-0.634
					c3.929,0,7.859,0.015,11.79,0.031c3.926,0.015,7.851,0.03,11.777,0.03c12.606,0,26.114-0.143,39.81-1.141
					c0.065-2.685,0.17-5.1,0.321-7.37c-13.785,0.523-27.814,0.609-41.407,0.692c-8.435,0.05-17.158,0.104-25.668,0.263
					c-1.256-0.039-2.3-0.98-2.323-2.238c-0.024-1.261,0.979-2.3,2.238-2.324c8.539-0.157,17.275-0.211,25.725-0.263
					c14.397-0.089,29.284-0.18,43.807-0.792c0.649-0.033,1.291,0.229,1.743,0.702c0.454,0.474,0.681,1.12,0.625,1.773
					c-0.298,3.462-0.471,7.183-0.543,11.709c-0.019,1.176-0.929,2.146-2.101,2.238c-14.558,1.152-28.899,1.311-42.23,1.311
					c-3.932,0-7.863-0.015-11.795-0.031c-3.925-0.015-7.849-0.03-11.772-0.03c-9.962,0-21.745,0.089-33.601,0.747
					C32.776,153.114,32.734,153.116,32.691,153.116z"/>
			</g>
			<g>
				<path style="fill:#525D7D;" d="M66.669,209.193c-19.306,0-20.369-2.822-25.291-32.391c-1.077-6.47-2.418-14.522-4.243-24.175
					c-0.235-1.238,0.579-2.432,1.817-2.666c1.24-0.23,2.431,0.579,2.665,1.816c1.836,9.703,3.181,17.783,4.261,24.276
					c2.404,14.439,3.727,22.394,6.728,25.703c2.654,2.928,7.337,2.982,18.596,2.839c2.435-0.031,5.132-0.067,8.128-0.067
					c16.762,0,26.453-0.095,30.698-2.034c3.153-1.442,3.392-4.019,3.675-11.948c0.295-8.263,0.74-20.749,6.662-39.503
					c0.379-1.201,1.661-1.864,2.862-1.488c1.201,0.38,1.867,1.662,1.488,2.863c-5.734,18.162-6.167,30.275-6.452,38.291
					c-0.639,17.955-3.354,18.382-38.931,18.382c-2.973,0-5.651,0.034-8.068,0.067C69.625,209.178,68.096,209.193,66.669,209.193z"/>
			</g>
			<g>
				<path style="fill:#525D7D;" d="M84.106,194.09c-2.861,0-5.496-1.244-8.056-3.803c-0.891-0.889-0.891-2.334-0.001-3.225
					c0.891-0.891,2.335-0.891,3.226,0c1.684,1.682,3.219,2.467,4.831,2.467c3.076,0,8.376-2.533,8.376-5.126
					c0-1.622-1.951-3.877-3.871-3.877c-0.871,0.031-1.749,0.114-2.676,0.202c-1.412,0.131-3.014,0.281-4.565,0.281
					c-8.202,0-9.427-4.844-9.427-7.733c0-2.689,1.239-6.264,7.145-8.027c3.434-1.025,7.468-1.143,10.203-1.143
					c1.26,0,2.281,1.022,2.281,2.281c0,1.259-1.021,2.281-2.281,2.281c-5.833,0-12.786,0.799-12.786,4.608
					c0,1.338,0,3.171,4.865,3.171c1.339,0,2.764-0.134,4.141-0.261c1.015-0.095,1.978-0.184,2.833-0.217l0.267-0.005
					c4.256,0,8.433,4.18,8.433,8.439C97.045,190.67,88.498,194.09,84.106,194.09z"/>
			</g>
			<g>
				<path style="fill:#525D7D;" d="M80.528,168.385c-1.26,0-2.281-1.022-2.281-2.281c0-0.496-0.08-1.089-0.164-1.717
					c-0.099-0.743-0.213-1.586-0.213-2.45c0-1.103,0.183-2.069,0.561-2.951c0.496-1.16,1.836-1.696,2.994-1.2
					s1.695,1.837,1.199,2.994c-0.132,0.309-0.193,0.676-0.193,1.157c0,0.558,0.084,1.182,0.172,1.843
					c0.101,0.748,0.205,1.522,0.205,2.324C82.809,167.363,81.788,168.385,80.528,168.385z"/>
			</g>
			<g>
				<path style="fill:#525D7D;" d="M87.876,200.333c-1.066,0-2.017-0.748-2.234-1.834c-0.144-0.719-0.288-1.51-0.432-2.302
					c-0.139-0.763-0.278-1.528-0.417-2.223c-0.247-1.234,0.554-2.437,1.789-2.684c1.241-0.241,2.437,0.552,2.684,1.79
					c0.144,0.719,0.288,1.51,0.432,2.302c0.139,0.763,0.278,1.528,0.417,2.223c0.247,1.234-0.554,2.437-1.789,2.684
					C88.175,200.319,88.024,200.333,87.876,200.333z"/>
			</g>
			<g>
				<path style="fill:#525D7D;" d="M47.449,138.415c-0.846,0-1.659-0.472-2.053-1.285c-0.551-1.133-0.078-2.498,1.055-3.049
					c1.341-0.65,2.766-1.397,4.252-2.176c6.517-3.409,13.903-7.275,21.182-7.275c3.99,0,5.377,0.61,6.9,1.475
					c1.044,0.591,2.227,1.261,8.093,1.261c4.031,0,7.719,1.678,11.285,3.301c1.595,0.726,3.101,1.411,4.595,1.93
					c1.19,0.414,1.819,1.714,1.405,2.905c-0.414,1.189-1.714,1.816-2.903,1.405c-1.694-0.59-3.367-1.351-4.986-2.088
					c-3.268-1.487-6.354-2.891-9.396-2.891c-6.548,0-8.488-0.803-10.342-1.855c-0.87-0.492-1.555-0.881-4.652-0.881
					c-6.157,0-13.015,3.589-19.067,6.755c-1.53,0.8-2.995,1.568-4.375,2.238C48.124,138.343,47.783,138.415,47.449,138.415z"/>
			</g>
			<g>
				<path style="fill:#525D7D;" d="M82.508,130.499c-1.322-0.034-2.316-1.083-2.282-2.342c0.046-1.717,0.068-3.433,0.068-5.15
					c0-10.007-0.738-20.226-1.452-30.107c-0.463-6.399-0.941-13.016-1.217-19.541c-0.054-1.259,0.924-2.323,2.182-2.376
					c1.26-0.056,2.323,0.925,2.375,2.183c0.274,6.457,0.749,13.04,1.21,19.406c0.719,9.961,1.464,20.263,1.464,30.435
					c0,1.758-0.022,3.517-0.069,5.272C84.753,129.517,83.739,130.499,82.508,130.499z"/>
			</g>
			<g>
				<path style="fill:#525D7D;" d="M77.609,76.833c-0.189,0-0.379-0.024-0.566-0.071c-15.548-3.981-24.465-14.175-24.465-27.967
					c0-11.341,6.337-18.884,12.466-26.179C70.369,16.277,75.4,10.289,76.17,2.068c0.097-1.034,0.881-1.871,1.905-2.037
					c1.028-0.171,2.034,0.38,2.452,1.329c1.882,4.261,5.769,8.698,9.882,13.395c7.681,8.769,16.385,18.708,16.385,31.953
					c0,14.807-9.204,19.699-20.857,25.891c-2.311,1.228-4.7,2.498-7.193,3.931C78.396,76.731,78.004,76.833,77.609,76.833z
					 M79.446,8.544c-2.181,6.616-6.602,11.879-10.909,17.005C62.676,32.526,57.14,39.115,57.14,48.795
					c0,15.224,12.233,21.104,20.152,23.312c2.258-1.279,4.414-2.423,6.505-3.534c11.496-6.111,18.436-9.798,18.436-21.864
					c0-11.53-7.755-20.385-15.255-28.947C84.227,14.62,81.573,11.589,79.446,8.544z"/>
			</g>
			<g>
				<path style="fill:#525D7D;" d="M76.734,67.953c-0.382,0-0.769-0.095-1.125-0.299c-1.095-0.622-1.478-2.014-0.856-3.11
					c2.056-3.618,3.013-7.81,3.013-13.194c0-3.604-0.425-7.421-0.837-11.111c-0.425-3.814-0.865-7.756-0.865-11.613
					c0-1.573,0.071-3.013,0.216-4.405c0.13-1.253,1.25-2.147,2.505-2.033c1.253,0.131,2.162,1.253,2.031,2.505
					c-0.128,1.234-0.191,2.52-0.191,3.932c0,3.603,0.425,7.418,0.837,11.106c0.425,3.815,0.866,7.759,0.866,11.617
					c0,6.207-1.146,11.115-3.609,15.449C78.299,67.538,77.528,67.953,76.734,67.953z"/>
			</g>
			<g>
				<path style="fill:#525D7D;" d="M74.587,55.294c-0.451,0-0.908-0.134-1.306-0.413c-1.3-0.91-2.276-2.027-3.219-3.108
					c-1.256-1.438-2.341-2.68-3.902-3.04c-1.227-0.284-1.993-1.509-1.709-2.735c0.283-1.228,1.506-1.986,2.735-1.711
					c3,0.692,4.76,2.709,6.312,4.486c0.799,0.915,1.553,1.779,2.399,2.372c1.032,0.722,1.283,2.144,0.56,3.176
					C76.015,54.956,75.307,55.294,74.587,55.294z"/>
			</g>
			<g>
				<path style="fill:#525D7D;" d="M86.465,49.922c-0.584,0-1.167-0.223-1.613-0.668c-0.891-0.891-0.891-2.334,0-3.225
					c2.327-2.327,4.65-4.359,6.896-6.323c0.947-0.83,2.389-0.734,3.218,0.215c0.829,0.948,0.733,2.389-0.215,3.218
					c-2.19,1.916-4.454,3.895-6.674,6.115C87.632,49.699,87.048,49.922,86.465,49.922z"/>
			</g>
			<g>
				<path style="fill:#525D7D;" d="M120.749,118.645c-8.417,0-17.721-4.151-24.043-7.634c-0.772-0.425-1.23-1.256-1.176-2.135
					c1.132-18.588,4.197-36.736,27.603-36.736c2.913,0,5.886,0.193,8.761,0.38c2.808,0.184,5.712,0.373,8.488,0.373
					c5.824,0,10.065-0.841,13.749-2.724c0.751-0.383,1.651-0.324,2.344,0.162c0.691,0.483,1.06,1.307,0.959,2.144L157.16,74.8
					C155.248,91.199,152.048,118.645,120.749,118.645z M100.176,107.701c5.03,2.654,13.378,6.383,20.573,6.383
					c26.377,0,29.83-22.465,31.7-38.282c-3.43,1.132-7.302,1.653-12.066,1.653c-2.925,0-5.904-0.195-8.785-0.382
					c-2.802-0.183-5.699-0.371-8.464-0.371C105.725,76.701,101.581,87.139,100.176,107.701z"/>
			</g>
			<g>
				<path style="fill:#525D7D;" d="M104.842,108.73c-0.625,0-1.247-0.255-1.698-0.757c-0.841-0.937-0.764-2.379,0.174-3.221
					c9.771-8.769,22.023-13.214,33.871-17.513c1.965-0.713,3.926-1.424,5.868-2.152c1.178-0.446,2.494,0.154,2.937,1.335
					c0.443,1.179-0.155,2.493-1.334,2.936c-1.959,0.735-3.934,1.451-5.915,2.17c-11.439,4.151-23.267,8.441-32.379,16.619
					C105.929,108.537,105.385,108.73,104.842,108.73z"/>
			</g>
			<g>
				<path style="fill:#525D7D;" d="M114.174,94.027c-0.17,0-0.342-0.019-0.515-0.058c-1.227-0.284-1.993-1.509-1.709-2.735
					c0.872-3.781,3.541-6.016,5.896-7.987c0.445-0.373,0.887-0.743,1.314-1.121c0.94-0.838,2.381-0.754,3.22,0.19
					c0.837,0.942,0.752,2.382-0.189,3.22c-0.46,0.408-0.937,0.808-1.417,1.21c-2.066,1.729-3.85,3.222-4.379,5.512
					C116.152,93.314,115.212,94.027,114.174,94.027z"/>
			</g>
			<g>
				<path style="fill:#525D7D;" d="M137.358,109.294c-0.043,0-0.085-0.001-0.128-0.003c-3.414-0.19-6.736-0.631-9.949-1.059
					c-1.703-0.226-3.415-0.454-5.161-0.647c-1.253-0.14-2.155-1.268-2.015-2.52c0.139-1.252,1.273-2.149,2.519-2.015
					c1.78,0.199,3.525,0.431,5.259,0.661c3.271,0.435,6.361,0.845,9.6,1.025c1.258,0.07,2.221,1.146,2.151,2.404
					C139.566,108.354,138.559,109.294,137.358,109.294z"/>
			</g>
			<g>
				<path style="fill:#525D7D;" d="M37.419,120.3c-31.602,0-34.385-32.895-35.88-50.568c-0.182-2.146-0.347-4.107-0.543-5.811
					c-0.08-0.695,0.163-1.387,0.658-1.878c0.496-0.493,1.187-0.723,1.883-0.647c37.241,4.517,58.626,8.861,65.109,45.553
					c0.136,0.768-0.13,1.552-0.705,2.078C59.864,116.427,46.473,120.3,37.419,120.3z M5.818,66.272
					c0.088,0.974,0.176,2.003,0.267,3.077c1.468,17.35,3.925,46.389,31.334,46.389c7.634,0,19.26-3.237,26.503-9.258
					C57.899,74.925,39.654,70.474,5.818,66.272z"/>
			</g>
			<g>
				<path style="fill:#525D7D;" d="M60.456,109.012c-0.153,0-0.308-0.015-0.464-0.048c-26.908-5.566-30.394-10.61-37.34-20.658
					c-1.075-1.555-2.245-3.246-3.614-5.1c-0.749-1.013-0.535-2.441,0.478-3.19c1.01-0.748,2.441-0.538,3.19,0.478
					c1.402,1.896,2.598,3.626,3.699,5.218c6.643,9.61,9.393,13.588,34.511,18.784c1.234,0.255,2.027,1.461,1.772,2.695
					C62.464,108.271,61.515,109.012,60.456,109.012z"/>
			</g>
			<g>
				<path style="fill:#525D7D;" d="M27.388,105.536c-1.85,0-3.712-0.102-5.512-0.202c-1.258-0.07-2.221-1.146-2.151-2.404
					c0.07-1.258,1.152-2.198,2.403-2.152c1.738,0.097,3.535,0.196,5.259,0.196c3.616,0,6.309-0.444,8.731-1.44
					c1.164-0.481,2.499,0.076,2.977,1.241c0.48,1.164-0.076,2.498-1.241,2.976C34.856,104.985,31.628,105.536,27.388,105.536z"/>
			</g>
			<g>
				<path style="fill:#525D7D;" d="M42.074,97.702c-1.086,0-2.048-0.778-2.243-1.885c-0.293-1.657-0.814-3.264-1.366-4.966
					c-0.885-2.734-1.801-5.561-1.801-8.776c0-0.303,0.008-0.609,0.025-0.918c0.07-1.256,1.165-2.192,2.404-2.15
					c1.258,0.071,2.221,1.148,2.15,2.406c-0.013,0.223-0.018,0.443-0.018,0.662c0,2.495,0.767,4.864,1.579,7.37
					c0.575,1.775,1.17,3.61,1.518,5.579c0.219,1.24-0.609,2.424-1.85,2.643C42.339,97.692,42.206,97.702,42.074,97.702z"/>
			</g>
			<g>
				<path style="fill:#525D7D;" d="M79.587,119.768c-0.399,0-0.803-0.104-1.171-0.325c-2.031-1.219-3.754-2.746-5.42-4.225
					c-1.998-1.772-3.886-3.447-6.106-4.418c-1.154-0.505-1.68-1.849-1.176-3.003c0.504-1.154,1.849-1.683,3.004-1.176
					c2.88,1.259,5.13,3.255,7.306,5.186c1.579,1.4,3.07,2.724,4.738,3.724c1.08,0.647,1.431,2.049,0.783,3.129
					C81.117,119.373,80.362,119.768,79.587,119.768z"/>
			</g>
			<g>
				<path style="fill:#525D7D;" d="M83.356,119.756c-0.712,0-1.413-0.331-1.859-0.955c-0.732-1.025-0.495-2.45,0.53-3.182
					c3.959-2.828,8.332-4.967,13.369-6.542c1.201-0.38,2.481,0.294,2.857,1.497c0.376,1.201-0.294,2.482-1.497,2.857
					c-4.568,1.427-8.518,3.358-12.077,5.9C84.278,119.618,83.815,119.756,83.356,119.756z"/>
			</g>
			<g>
				<path style="fill:#525D7D;" d="M18.652,37.529c-5.036,0-10.89-5.22-10.89-11.949c0-6.323,4.589-12.844,8.276-18.083
					c0.411-0.583,1.072-0.941,1.786-0.967c0.733-0.056,1.398,0.287,1.85,0.84c0.901,1.109,1.896,2.192,2.949,3.34
					c3.721,4.053,7.568,8.243,7.568,13.922C30.19,31.383,24.691,37.529,18.652,37.529z M18.097,12.521
					c-2.806,4.103-5.774,9.007-5.774,13.059c0,4.215,3.839,7.387,6.328,7.387c3.52,0,6.976-4.128,6.976-8.334
					c0-3.903-3.093-7.271-6.366-10.836C18.876,13.377,18.485,12.951,18.097,12.521z"/>
			</g>
			<g>
				<path style="fill:#525D7D;" d="M140.317,54.772c-3.361,0-9.639-3.074-9.639-10.478c0-5.692,3.878-11.406,7.3-16.447l0.853-1.261
					c0.423-0.63,1.132-1.008,1.89-1.008c0.76,0,1.468,0.376,1.893,1.004c3.841,5.686,7.591,11.709,7.591,17.357
					C150.206,51.086,143.275,54.772,140.317,54.772z M140.706,31.957c-2.744,4.093-5.466,8.532-5.466,12.336
					c0,4.825,4.287,5.916,5.077,5.916c0.512-0.043,5.327-1.705,5.327-6.271C145.644,40.257,143.055,35.612,140.706,31.957z"/>
			</g>
			<g>
				<path style="fill:#525D7D;" d="M26.879,177.611c-1.17,0-2.341-0.073-3.482-0.217c-1.25-0.157-2.135-1.299-1.978-2.548
					c0.158-1.25,1.305-2.129,2.548-1.978c1.794,0.226,3.67,0.239,5.536,0.037c1.248-0.137,2.378,0.768,2.515,2.021
					c0.137,1.252-0.768,2.378-2.021,2.514C28.959,177.553,27.909,177.611,26.879,177.611z M42.409,172.657
					c-0.708,0-1.405-0.328-1.851-0.944c-0.738-1.022-0.509-2.447,0.512-3.185l0.157-0.116c1.009-0.753,2.438-0.547,3.192,0.463
					c0.754,1.008,0.547,2.438-0.463,3.193l-0.213,0.157C43.34,172.516,42.872,172.657,42.409,172.657z M11.411,171.863
					c-0.55,0-1.102-0.197-1.539-0.598c-0.687-0.628-1.345-1.307-1.956-2.018c-0.829-0.961-1.608-1.962-2.315-2.972
					c-0.722-1.032-0.47-2.455,0.563-3.176c1.035-0.722,2.456-0.468,3.177,0.563c0.618,0.883,1.301,1.76,2.031,2.606
					c0.497,0.578,1.028,1.126,1.581,1.632c0.93,0.851,0.993,2.293,0.142,3.222C12.644,171.613,12.029,171.863,11.411,171.863z
					 M2.474,154.653c-1.134,0-2.118-0.845-2.261-2C0.072,151.51,0,150.349,0,149.2c0-1.045,0.06-2.107,0.177-3.151
					c0.142-1.252,1.272-2.153,2.522-2.011c1.252,0.141,2.152,1.27,2.011,2.522c-0.099,0.876-0.149,1.764-0.149,2.64
					c0,0.962,0.06,1.935,0.179,2.891c0.154,1.25-0.733,2.389-1.983,2.544C2.663,154.647,2.568,154.653,2.474,154.653z
					 M7.355,135.974c-0.471,0-0.945-0.146-1.353-0.445c-1.014-0.748-1.229-2.177-0.481-3.19c1.061-1.437,2.227-2.707,3.467-3.776
					c0.41-0.352,0.83-0.691,1.262-1.011c1.009-0.754,2.438-0.547,3.192,0.465c0.753,1.01,0.545,2.438-0.465,3.191
					c-0.345,0.258-0.682,0.529-1.011,0.812c-0.982,0.845-1.916,1.865-2.774,3.028C8.744,135.653,8.053,135.974,7.355,135.974z
					 M30.185,129.851c-0.373,0-0.751-0.092-1.101-0.285c-1.559-0.861-3.215-1.406-4.921-1.617c-1.25-0.155-2.138-1.293-1.984-2.542
					c0.155-1.25,1.293-2.143,2.544-1.984c2.287,0.282,4.497,1.007,6.567,2.152c1.103,0.609,1.502,1.997,0.893,3.099
					C31.768,129.427,30.989,129.851,30.185,129.851z"/>
			</g>
			<g>
				<path style="fill:#525D7D;" d="M154.351,93.152h-0.215c-0.739-0.006-1.468-0.05-2.188-0.132c-1.252-0.14-2.153-1.268-2.013-2.52
					c0.14-1.252,1.262-2.167,2.521-2.012c0.56,0.062,1.127,0.098,1.701,0.102h0.194c1.198,0,2.383-0.099,3.52-0.295
					c1.244-0.211,2.422,0.619,2.634,1.861c0.214,1.241-0.619,2.422-1.861,2.636C157.253,93.03,155.808,93.152,154.351,93.152z
					 M170.039,86.383c-0.546,0-1.094-0.194-1.53-0.59c-0.934-0.846-1.005-2.288-0.16-3.222c1.204-1.331,2.219-2.841,3.014-4.491
					c0.547-1.136,1.911-1.61,3.045-1.065c1.135,0.548,1.611,1.911,1.064,3.046c-0.985,2.043-2.244,3.918-3.742,5.572
					C171.281,86.131,170.661,86.383,170.039,86.383z M133.465,73.565c-1.141,0-2.126-0.854-2.262-2.014
					c-0.103-0.881-0.156-1.769-0.156-2.643c0-0.226,0.003-0.451,0.01-0.677c0.034-1.135,0.154-2.279,0.354-3.404
					c0.221-1.241,1.415-2.055,2.646-1.844c1.24,0.221,2.066,1.406,1.844,2.646c-0.161,0.906-0.257,1.827-0.284,2.737
					c-0.005,0.18-0.008,0.361-0.008,0.542c0,0.696,0.042,1.406,0.125,2.109c0.147,1.252-0.748,2.385-1.999,2.532
					C133.644,73.56,133.554,73.565,133.465,73.565z M175.381,68.018c-1.099,0-2.067-0.796-2.249-1.917
					c-0.287-1.775-0.822-3.531-1.59-5.223c-0.521-1.146-0.013-2.499,1.134-3.021c1.146-0.515,2.5-0.013,3.02,1.135
					c0.935,2.06,1.587,4.206,1.94,6.381c0.201,1.243-0.644,2.415-1.887,2.615C175.625,68.009,175.502,68.018,175.381,68.018z
					 M140.031,55.66c-0.605,0-1.209-0.239-1.658-0.713c-0.866-0.916-0.826-2.36,0.09-3.225c1.665-1.576,3.532-2.869,5.55-3.848
					c1.135-0.551,2.498-0.077,3.047,1.057c0.549,1.133,0.076,2.498-1.057,3.047c-1.597,0.775-3.079,1.803-4.405,3.058
					C141.157,55.453,140.594,55.66,140.031,55.66z M164.124,52.758c-0.332,0-0.668-0.073-0.988-0.226
					c-1.622-0.78-3.379-1.366-5.221-1.742c-1.235-0.251-2.032-1.455-1.78-2.691c0.251-1.232,1.454-2.028,2.69-1.779
					c2.212,0.45,4.328,1.157,6.289,2.101c1.135,0.546,1.613,1.91,1.066,3.044C165.788,52.283,164.972,52.758,164.124,52.758z"/>
			</g>
		</g>
	</g>
</g>
<g id="Layer_1">
</g>
</svg>
