<?xml version="1.0" encoding="iso-8859-1"?>
<!-- Generator: Adobe Illustrator 21.0.2, SVG Export Plug-In . SVG Version: 6.00 Build 0)  -->
<svg version="1.1" xmlns="http://www.w3.org/2000/svg" xmlns:xlink="http://www.w3.org/1999/xlink" x="0px" y="0px"
	 viewBox="0 0 200.125 169.887" style="enable-background:new 0 0 200.125 169.887;" xml:space="preserve">
<g id="_x35_5">
	<g>
		<g>
			<path style="fill:#E0DFE6;" d="M172.246,17.112c-19.39,9.845-38.806,20.018-57.591,31.108c-1.098-0.715-2.473-1-4.015-0.506
				c-19.944,6.393-39.779,13.144-59.851,19.13c-4.181,1.247-4.701,5.758-2.95,8.627c-0.363,2.232-0.386,4.664-0.551,6.993
				c-0.482,6.817-1.485,13.605-2.087,20.41c-0.036,0.031-0.073,0.062-0.11,0.093c-1.166,1.008-0.967,2.466-0.16,3.454
				c-0.026,0.409-0.059,0.817-0.081,1.226c-0.229,4.327,6.289,5.044,7.431,1.006c0.44-1.556,0.822-3.127,1.179-4.703
				c13.315-8.187,26.484-16.526,39.538-25.152c14.236-9.407,29.271-18.348,42.69-28.883c1.897-1.49,2.241-3.471,1.669-5.271
				c12.308-8.035,24.551-16.173,36.845-24.185C176.296,19.093,174.473,15.981,172.246,17.112z M55.556,94.086
				c0.108-0.492,0.221-0.983,0.33-1.476c0.304,0.177,0.622,0.327,0.96,0.418C56.418,93.384,55.983,93.729,55.556,94.086z
				 M58.776,79.538c0.159-0.456,0.326-0.901,0.511-1.314c0.9-0.751,1.525-1.811,1.831-2.98c2.644-0.857,5.287-1.72,7.932-2.573
				C65.601,74.922,62.173,77.205,58.776,79.538z M69.492,82.814c0.137-0.367,0.191-0.739,0.203-1.11
				c1.241-0.669,2.488-1.326,3.728-1.997C72.103,80.731,70.803,81.779,69.492,82.814z"/>
		</g>
		<g>
			<path style="fill:#E0DFE6;" d="M193.416,20.629c-5.719,8.297-11.025,16.846-16.109,25.529c2.345-5.084,4.661-10.183,6.927-15.305
				c1.255-2.838-2.733-5.357-4.266-2.493c-21.975,41.042-43.318,82.42-66.229,122.953c-2.114-2.334-4.357-4.56-6.418-6.668
				c-3.194-3.269-6.602-6.271-10.055-9.235c0.386-1.328,0.287-2.807-0.567-4.209c-1.973-3.237-4.778-6.486-7.897-9.29
				c0.285-4.531-2.203-9.098-7.674-10.869c-3.614-1.169-7.274,1.007-8.731,4.217c-4.456,0.541-9.034,2.277-12.739,3.582
				c-1.61,0.567-2.726,1.506-3.451,2.607c-4.202,0.301-8.393,0.37-12.608,0.744c-4.299,0.381-5.175,6.015-1.015,7.501
				c8.557,3.056,21.706,5.708,32.117,4.128c2.59,1.434,5.564,2.337,8.132,2.873c0.945,0.197,1.833,0.221,2.659,0.117
				c1.097,0.723,2.251,1.414,3.459,2.139c0.128,0.077,0.259,0.123,0.388,0.188c2.862,4.257,5.584,8.607,8.44,12.87
				c3.503,5.23,6.704,11.347,11.131,15.822c3.224,3.26,7.475,2.287,9.86-0.418c0.556,0.152,1.126,0.232,1.682,0.226
				c4.693-0.053,7.387-2.543,9.627-6.402c3.871-6.669,7.002-13.904,10.471-20.793c6.515-12.938,13.041-25.87,19.545-38.813
				c13.096-26.06,26.515-52.216,36.537-79.643C197.356,20.006,194.482,19.083,193.416,20.629z"/>
		</g>
		<g>
			<g>
				<path style="fill:#525D7D;" d="M120.318,159.904c-0.685,0-1.343-0.302-1.791-0.836c-13.783-16.452-25.387-30.464-36.922-45.01
					c-16.05,4.549-29.597,7.936-42.514,10.633c-0.751,0.158-1.534-0.065-2.091-0.597c-0.556-0.531-0.815-1.301-0.694-2.06
					c1.569-9.777,2.837-19.804,4.063-29.501c0.948-7.499,1.928-15.243,3.044-22.861c-4.317-5.255-8.567-10.66-12.685-15.895
					c-5.997-7.626-12.198-15.512-18.617-22.944c-0.557-0.645-0.719-1.541-0.422-2.34c0.296-0.798,1.003-1.372,1.846-1.497
					c18.211-2.714,36.703-5.576,54.586-8.344c42.36-6.555,86.161-13.333,129.382-18.635c0.868-0.11,1.731,0.285,2.222,1.014
					c0.491,0.729,0.532,1.672,0.104,2.44c-21.02,37.824-63.681,123.304-77.367,155.022c-0.322,0.745-1.005,1.269-1.808,1.386
					C120.543,159.896,120.43,159.904,120.318,159.904z M82.467,109.049c0.703,0,1.382,0.318,1.832,0.887
					c11.142,14.083,22.302,27.6,35.389,43.242c14.596-32.983,52.894-109.723,73.843-147.96
					c-41.673,5.205-83.856,11.733-124.694,18.053c-16.528,2.557-33.576,5.196-50.447,7.725c5.51,6.538,10.837,13.313,16.012,19.895
					c4.31,5.481,8.767,11.148,13.276,16.612c0.421,0.51,0.606,1.175,0.509,1.83c-1.173,7.898-2.195,15.977-3.182,23.788
					c-1.091,8.631-2.215,17.522-3.558,26.295c12.224-2.643,25.16-5.936,40.38-10.276C82.038,109.078,82.254,109.049,82.467,109.049z
					"/>
			</g>
			<g>
				<path style="fill:#525D7D;" d="M84.364,111.942c-0.532,0-1.067-0.181-1.506-0.551c-0.986-0.833-1.11-2.307-0.278-3.292
					c8.604-10.19,17.179-20.637,25.471-30.74c10.444-12.725,21.193-25.822,32.166-38.602c-7.379,2.402-14.757,4.82-22.136,7.237
					c-23.206,7.604-47.201,15.466-70.814,22.67c-1.232,0.375-2.539-0.318-2.916-1.553c-0.376-1.233,0.319-2.539,1.553-2.916
					c23.566-7.19,47.538-15.045,70.721-22.642c10.042-3.29,20.083-6.58,30.124-9.83c0.998-0.325,2.091,0.059,2.669,0.937
					c0.579,0.876,0.5,2.031-0.19,2.822c-12.836,14.708-25.408,30.026-37.566,44.84C103.361,90.44,94.776,100.9,86.15,111.114
					C85.689,111.661,85.029,111.942,84.364,111.942z"/>
			</g>
			<g>
				<path style="fill:#525D7D;" d="M161.723,28.591c-0.873,0-1.71-0.492-2.111-1.332c-0.554-1.165-0.059-2.559,1.105-3.114
					c12.914-6.148,24.452-14.187,34.999-21.959c1.037-0.764,2.501-0.544,3.266,0.495c0.766,1.038,0.544,2.501-0.495,3.266
					c-10.732,7.909-22.494,16.099-35.761,22.416C162.401,28.518,162.059,28.591,161.723,28.591z"/>
			</g>
			<g>
				<path style="fill:#525D7D;" d="M174.911,75.964c-0.363,0-0.731-0.085-1.075-0.264c-1.145-0.595-1.59-2.006-0.996-3.151
					c4.351-8.367,8.02-17.095,11.568-25.536c2.765-6.577,5.624-13.378,8.789-19.971c0.559-1.163,1.956-1.652,3.116-1.095
					c1.164,0.558,1.654,1.954,1.095,3.116c-3.114,6.489-5.95,13.235-8.693,19.76c-3.584,8.528-7.291,17.345-11.729,25.881
					C176.57,75.505,175.755,75.964,174.911,75.964z"/>
			</g>
			<g>
				<path style="fill:#525D7D;" d="M5.966,142.376c-0.658,0-1.313-0.277-1.774-0.816c-0.84-0.979-0.726-2.454,0.253-3.294
					c0.519-0.446,1.067-0.901,1.626-1.367c3.583-2.982,7.644-6.361,7.644-9.933c0-2.572-1.476-3.593-3.885-5.047
					c-2.014-1.216-4.521-2.728-4.521-5.889c0-4.085,3.602-6.553,6.781-8.73c2.736-1.875,5.32-3.644,5.32-5.859
					c0-2.152-2.183-2.948-6.815-4.139c-4.304-1.106-10.199-2.62-10.199-8.51c0-5.384,3.612-7.978,6.515-10.063
					c2.551-1.832,3.995-2.97,3.995-5.034c0-1.63-1.257-2.538-4.125-4.219C3.76,67.705,0,65.5,0,60.596
					c0-4.322,2.786-8.697,8.11-8.697c1.29,0,2.336,1.046,2.336,2.336c0,1.29-1.046,2.336-2.336,2.336
					c-3.341,0-3.438,3.613-3.438,4.025c0,2.12,1.699,3.223,4.472,4.849c2.866,1.681,6.433,3.773,6.433,8.25
					c0,4.562-3.294,6.929-5.941,8.829c-2.832,2.035-4.568,3.426-4.568,6.269c0,2.043,2.142,2.816,6.69,3.985
					c4.358,1.119,10.325,2.653,10.325,8.664c0,4.678-4.076,7.47-7.352,9.714c-2.335,1.599-4.749,3.253-4.749,4.875
					c0,0.487,0.896,1.064,2.262,1.888c2.446,1.476,6.144,3.707,6.144,9.047c0,5.763-5.172,10.067-9.328,13.525
					c-0.542,0.45-1.071,0.89-1.574,1.322C7.045,142.191,6.504,142.376,5.966,142.376z"/>
			</g>
			<g>
				<path style="fill:#525D7D;" d="M97.281,167.822c-0.527,0-1.057-0.177-1.494-0.542c-4.095-3.413-6.092-7.766-7.697-11.263
					c-1.727-3.764-2.575-5.297-4.03-5.297c-1.763,0-4.352,1.7-6.856,3.345c-3.266,2.145-6.643,4.363-10.145,4.363
					c-3.827,0-6.326-2.513-8.532-4.73c-2.021-2.033-3.767-3.788-6.3-3.788c-0.994,0-2.723,2.04-3.984,3.529
					c-2.134,2.518-4.553,5.371-7.897,5.371c-1.732,0-3.589-1.102-5.941-2.497c-2.679-1.59-6.014-3.569-8.873-3.569
					c-1.315,0-3.311,0.374-5.467,3.608c-0.716,1.073-2.165,1.364-3.24,0.648c-1.074-0.716-1.364-2.166-0.648-3.24
					c2.516-3.774,5.663-5.688,9.354-5.688c4.142,0,8.088,2.341,11.258,4.223c1.268,0.753,3.006,1.784,3.586,1.844
					c1.15-0.001,2.898-2.063,4.303-3.721c2.158-2.546,4.39-5.18,7.548-5.18c4.475,0,7.323,2.864,9.612,5.165
					c2.068,2.079,3.426,3.353,5.219,3.353c2.105,0,4.888-1.828,7.58-3.596c3.078-2.022,6.262-4.113,9.421-4.113
					c4.596,0,6.467,4.078,8.276,8.021c1.481,3.228,3.16,6.888,6.442,9.622c0.991,0.826,1.125,2.299,0.299,3.291
					C98.614,167.536,97.95,167.822,97.281,167.822z"/>
			</g>
			<g>
				<path style="fill:#525D7D;" d="M40.103,121.908c-0.737,0-1.462-0.347-1.916-0.996c-0.74-1.057-0.483-2.514,0.574-3.254
					c4.544-3.18,7.897-7.469,11.448-12.009c4.275-5.466,8.694-11.118,15.391-14.771c1.133-0.618,2.551-0.2,3.17,0.932
					c0.618,1.132,0.2,2.552-0.932,3.17c-5.848,3.189-9.783,8.221-13.948,13.547c-3.605,4.611-7.334,9.378-12.449,12.959
					C41.033,121.771,40.566,121.908,40.103,121.908z"/>
			</g>
			<g>
				<path style="fill:#525D7D;" d="M58.527,75.044c-1.186,0-2.201-0.899-2.322-2.103c-0.129-1.284,0.808-2.429,2.092-2.557
					c13.361-1.336,26.435-5.595,39.077-9.715c7.04-2.293,14.321-4.666,21.658-6.548c1.25-0.317,2.522,0.433,2.843,1.683
					c0.32,1.249-0.433,2.522-1.683,2.843c-7.192,1.844-14.4,4.192-21.371,6.464c-12.878,4.196-26.195,8.535-40.058,9.922
					C58.684,75.04,58.605,75.044,58.527,75.044z"/>
			</g>
		</g>
	</g>
</g>
<g id="Layer_1">
</g>
</svg>
