<?xml version="1.0" encoding="iso-8859-1"?>
<!-- Generator: Adobe Illustrator 21.0.2, SVG Export Plug-In . SVG Version: 6.00 Build 0)  -->
<svg version="1.1" xmlns="http://www.w3.org/2000/svg" xmlns:xlink="http://www.w3.org/1999/xlink" x="0px" y="0px"
	 viewBox="0 0 186.223 177.546" style="enable-background:new 0 0 186.223 177.546;" xml:space="preserve">
<g id="_x35_6">
	<g>
		<g>
			<path style="fill:#E0DFE6;" d="M157.753,149.871c-0.999-0.937-2.113-1.413-3.223-1.559c0.785-8.753-2.445-17.565-9.382-23.107
				c-3.398-2.716-7.13-4.61-11.084-6.374c-1.11-0.495-3.829-1.245-4.275-1.875c-0.478-0.676,0.599-8.282,0.697-8.956
				c0.589-4.054-5.033-5.872-6.3-1.737c-0.23,0.75-0.491,1.484-0.761,2.212c0.599-5.071-0.334-10.405-2.689-14.728
				c-1.046-1.92-3.697-1.26-4.352,0.569c-1.846,5.15-1.332,11.922-5.585,15.929c-1.492,1.406-3.23,2.085-5.174,2.64
				c-0.953,0.272-1.919,0.531-2.903,0.664c-0.546,0.074-3.501-0.289-2.499,0.656c-3.323-3.133-8.535-1.764-10.436,1.663
				c-2.284-0.752-4.438-1.704-6.354-3.527c-3.551-3.378-5.396-8.391-5.546-13.23c-0.057-1.846-2.884-2.375-3.324-0.45
				c-2.555,11.177,5.039,25.692,17.522,26.22c4.509,3.917,12.717,2.829,18.89,0.217c-0.031,0.744,0.207,1.54,0.83,2.286
				c3.304,3.954,6.362,8.072,9.152,12.403c1.7,2.639,3.159,5.46,4.811,8.137c-0.508,0.111-0.977,0.209-1.339,0.307
				c-9.273,2.498-18.78,3.442-28.363,3.21c-3.08-0.074-3.933,5.04-0.746,5.515c8.308,1.238,16.622,1.748,25.002,0.902
				c5.941-0.6,13.938-0.837,18.686-4.948c1.375-1.19,2.325-2.434,2.949-3.709c0.084,0.55,0.173,1.103,0.276,1.662
				c0.648,3.525,3.215,4.752,5.834,4.425c0.122,0.529,0.297,1.063,0.59,1.603c1.48,2.726,4.582,5.641,1.416,7.328
				c-2.692,1.434-9.308,0.632-12.497,0.866c-8.936,0.655-17.881,1.25-26.807,2.031c-17.422,1.524-34.815,3.248-52.207,5.077
				c-3.19,0.335-3.348,5.04,0,5.09c24.938,0.377,49.846,0.376,74.782-0.164c8.234-0.178,21.817,1.905,27.944-5.113
				C167.331,165.082,163.703,155.452,157.753,149.871z M117.178,123.775c-0.314-0.274-0.622-0.554-0.938-0.825
				c-0.187-0.16-0.378-0.294-0.569-0.408c0.113-0.08,0.23-0.159,0.337-0.239c1.693-1.26,3.08-2.811,4.198-4.544
				c-0.247,1.394-0.255,2.758,0.072,4.1C119.069,122.097,118.003,122.809,117.178,123.775z"/>
		</g>
		<g>
			<path style="fill:#E0DFE6;" d="M139.992,15.995c-0.623-1.929-3.307-1.506-3.453,0.467c-0.433,5.86-3.051,8.934-6.542,11.238
				c0.192-4.572-5.402-8.324-9.939-4.499c-1.835,1.548-3.739,2.777-5.7,3.802c-0.335-0.124-0.687-0.221-1.071-0.254
				c-12.889-1.106-27.15,1.378-40.02,2.586c-2.367,0.222-3.404,4.161-0.616,4.548c6.983,0.972,14.519,1.928,22.014,2.181
				c0.174,1.603,1.432,3.184,3.375,3.405c5.506,0.627,11.778,0.675,17.531-0.701c-0.39,2.607,0.367,5.426-0.878,8.382
				c-0.711,1.689-2.093,2.723-3.44,3.846c-0.424-3.884-5.264-7.061-9.083-4.719c-1.039,0.637-2.31,0.896-3.613,1.047
				c-0.543-0.587-1.371-0.941-2.498-0.857c-4.92,0.37-9.799,1.078-14.691,1.712c-4.009,0.519-4.233,6.792,0,6.468
				c1.173-0.09,2.347-0.176,3.52-0.263c0.331,0.293,0.721,0.523,1.184,0.636c4.191,1.024,8.495,1.863,12.727,2.75
				c3.194,0.669,5.997,0.905,8.393-0.346c-0.252,1.138-0.354,2.322-0.317,3.556c0.234,7.851,2.196,16.459,3.837,24.121
				c1.735,8.097,13.184,4.427,12.119-3.341c-0.904-6.595-6.02-18.386-2.022-23.698c1.653-2.195,3.573-3.68,4.634-6.382
				c1.241-3.159,0.045-5.75,0.717-8.693c0.114-0.499,0.13-0.79,0.101-0.965c0.226-0.187,0.52-0.455,0.907-0.84
				c0.905-0.9,2.79-1.407,3.888-2.135c2.443-1.621,4.721-3.786,6.387-6.195C140.994,27.713,141.897,21.891,139.992,15.995z"/>
		</g>
		<g>
			<path style="fill:#E0DFE6;" d="M173.467,37.061c-0.395,1.767-0.497,3.491-2.266,4.459c-1.813,0.992-3.387,0.495-5.071-0.393
				c-2.646-1.395-5.375,1.39-4.021,4.021c2.383,4.628,8.109,6.954,13.074,6.105c6.109-1.046,10.482-6.472,11.015-12.469
				C186.844,31.507,175.051,29.976,173.467,37.061z"/>
		</g>
		<g>
			<path style="fill:#E0DFE6;" d="M17.84,112.438c-1.306,1.446-1.919,2.697-2.578,4.527c-0.027,0.075-0.034,0.104-0.052,0.158
				c-0.036,0.048-0.063,0.082-0.118,0.163c-0.315,0.471-0.562,0.991-0.853,1.477c-0.109,0.188-0.227,0.371-0.35,0.55
				c-0.302,0.352-0.62,0.688-0.965,0.998c-0.538,0.483-1.647,1.353-2.235,2.391c-0.927,1.635-0.269,3.381,1.16,4.425
				c2.725,1.991,6.972,0.591,9.749-0.677c3.662-1.672,6.89-5.476,6.857-9.614C28.415,111.671,21.542,108.338,17.84,112.438z"/>
		</g>
		<g>
			<path style="fill:#E0DFE6;" d="M21.677,43.477c-2.259-1.688-6.048-1.892-8.036,0.478c-0.177,0.211-1.146,1.186-1.262,1.338
				c-0.062,0.006-0.546,0.221-0.772,0.244c-2.069,0.208-4.099-0.624-6.168-0.579c-3.763,0.081-5.34,4.451-2.959,7.144
				c5.066,5.731,16.906,7.053,20.773-0.731C24.606,48.648,24.215,45.373,21.677,43.477z"/>
		</g>
		<g>
			<path style="fill:#E0DFE6;" d="M158.052,109.743c-0.676,0.695-1.229,1.415-1.607,2.31c-0.154,0.269-0.249,0.557-0.32,0.853
				c-0.026,0.03-0.041,0.048-0.072,0.085c-0.127,0.123-0.255,0.246-0.382,0.369c-1.466,1.092-2.016,0.931-3.915,1.662
				c-3.099,1.192-3.971,5.275-0.937,7.17c2.629,1.642,6.223,1.465,9.031,0.413c1.816-0.681,3.065-1.587,4.641-2.688
				c-0.736,0.514,0.325-0.208,0.503-0.338c1.527-1.118,2.406-2.256,2.905-4.104C169.413,109.859,162.195,105.484,158.052,109.743z"
				/>
		</g>
		<g>
			<path style="fill:#E0DFE6;" d="M70.734,148.223c-3.77,0.503-7.518,1.136-11.284,1.665c-1.215,0.171-11.199,2.422-12.406,1.184
				c-1.506-1.543-3.747,0.755-2.347,2.347c2.455,2.792,7.43,2.376,10.817,2.529c5.421,0.245,10.794,0.039,16.159-0.793
				C75.559,154.552,74.682,147.697,70.734,148.223z"/>
		</g>
		<g>
			<g>
				<path style="fill:#525D7D;" d="M62.166,174.56c-10.163,0-15.907-0.045-19.616-0.998c-5.455-1.403-6.207-4.98-6.207-8.636
					c0-2.936,1.025-5.693,2.821-7.614l2.002-3.487c-0.914-1.86-1.408-3.985-1.408-6.113c0-8.569,7.299-11.833,13.74-14.711
					c6.516-2.914,12.145-5.43,12.145-12.347c0-3.052-0.644-4.114-1.536-5.585c-1.33-2.193-2.984-4.923-2.984-13.154
					c0-8.275,5.961-18.966,13.938-21.804c-0.36-9.013-0.586-18.165-0.675-27.255c-6.678-0.995-10.06-4.532-10.06-10.534
					c0-2.624,0.88-5.244,2.523-7.619c-11.999-3.448-18.855-9.65-18.855-27.15c0-1.42,0.034-2.842,0.077-4.255
					c0.018-0.604,0.29-1.174,0.746-1.569c0.458-0.395,1.066-0.579,1.661-0.51c6.72,0.786,12.634,0.978,18.022,0.609
					c0.575-0.048,1.141,0.152,1.574,0.533c0.432,0.381,0.694,0.918,0.728,1.493c0.295,4.98,1.827,10.916,7.449,10.916
					c4.263,0,4.939-3.237,5.468-10.624l0.037-0.517c0.08-1.108,0.987-1.974,2.097-2.002c4.007-0.105,8.112-0.432,12.083-0.746
					l1.617-0.128c1.174-0.107,2.221,0.784,2.319,1.969c1.105,13.018,6.009,13.018,7.621,13.018c4.31,0,7.18-1.75,7.18-10.292
					c0-0.496-0.006-0.995-0.01-1.496l-0.007-0.772c-0.004-0.583,0.229-1.146,0.645-1.555c0.418-0.409,0.959-0.635,1.566-0.62
					c0.798,0.02,1.594,0.03,2.391,0.03c4.702,0,9.869-0.333,15.797-1.019c0.583-0.072,1.193,0.112,1.649,0.503
					c0.457,0.389,0.729,0.95,0.756,1.549c0.035,0.836,0.077,1.673,0.121,2.506c0.104,2.037,0.212,4.144,0.212,6.23
					c0,16.897-7.191,19.346-12.97,21.312c-2.738,0.932-5.103,1.736-6.684,3.926c-0.025,0.037-0.063,0.089-0.063,0.274
					c0,0.588,0.372,1.542,0.734,2.465c0.529,1.352,1.127,2.886,1.127,4.52c0,4.145-3.542,5.001-5.659,5.511
					c-2.599,0.627-3.265,0.973-3.331,2.676c-0.121,3.156-0.242,6.292-0.242,9.339c0,18.861,4.244,22.216,7.988,25.176
					c3.004,2.376,6.11,4.831,6.11,13.072c0,5.572-2.473,11.043-4.459,15.437c-1.133,2.508-2.305,5.101-2.305,6.39
					c0,1.411,3.462,3.275,6.81,5.077c7.685,4.135,19.27,10.371,20.782,25.695c0.235,0,0.474-0.011,0.72-0.022
					c0.323-0.014,0.655-0.028,0.987-0.028c5.87,0,5.87,5.142,5.87,7.077c0,2.574-0.627,5.043-1.812,7.146
					c-0.991,1.976-3.152,5.59-45.564,7.614c-21.269,1.015-42.194,1.096-42.388,1.096h-1.688
					C63.213,174.56,62.683,174.56,62.166,174.56z M52.328,5.763c-0.011,0.596-0.017,1.193-0.017,1.789
					c0,16.501,6.102,20.83,18.924,23.824c0.775,0.181,1.386,0.773,1.594,1.539c0.207,0.767-0.024,1.587-0.602,2.134
					c-2.311,2.183-3.584,4.765-3.584,7.271c0,3.053,0.974,5.946,8.035,6.441c1.126,0.079,2,1.009,2.009,2.137
					c0.077,10.248,0.333,20.591,0.759,30.743c0.044,1.065-0.697,2.004-1.744,2.21c-6.604,1.289-12.261,11.01-12.261,18.064
					c0,7.024,1.199,9.003,2.359,10.915c1.063,1.753,2.162,3.566,2.162,7.824c0,9.716-7.81,13.207-14.7,16.288
					c-6.959,3.112-11.185,5.389-11.185,10.77c0,1.784,0.496,3.552,1.396,4.977c0.427,0.676,0.444,1.534,0.046,2.228l-2.741,4.776
					c-0.094,0.165-0.211,0.316-0.346,0.451c-1.124,1.124-1.77,2.868-1.77,4.782c0,3.208,0.668,3.863,2.965,4.454
					c3.368,0.866,9.65,0.863,20.129,0.862h1.69c54.728,0,82.23-4.293,84.182-6.483c0.822-1.459,1.264-3.209,1.264-5.056
					c0-2.759-0.267-2.759-1.552-2.759c-0.267,0-0.535,0.013-0.796,0.024c-0.311,0.014-0.614,0.027-0.904,0.027
					c-3.447,0-4.159-2.256-4.277-3.601c-1.169-13.251-10.811-18.44-18.559-22.61c-5.074-2.731-9.082-4.887-9.082-8.879
					c0-2.22,1.186-4.845,2.689-8.168c1.815-4.017,4.075-9.017,4.075-13.659c0-6.151-1.778-7.557-4.47-9.685
					c-4.29-3.392-9.629-7.613-9.629-28.564c0-3.13,0.122-6.308,0.24-9.381c0.202-5.278,4.231-6.251,6.639-6.831
					c2.353-0.568,2.353-0.741,2.353-1.314c0-0.821-0.423-1.903-0.831-2.949c-0.507-1.296-1.03-2.636-1.03-4.037
					c0-1.051,0.297-1.995,0.883-2.804c2.385-3.303,5.788-4.462,8.791-5.483c5.389-1.834,10.043-3.419,10.043-17.225
					c0-1.976-0.1-3.934-0.207-6.009c-0.004-0.079-0.008-0.157-0.013-0.238c-5.257,0.546-9.937,0.772-14.264,0.796
					c0,0.031,0,0.063,0,0.094c0,9.695-3.868,14.61-11.498,14.61c-6.502,0-10.431-4.987-11.696-14.835
					c-3.24,0.257-6.562,0.514-9.876,0.654c-0.472,5.974-1.594,13.212-9.669,13.212c-6.373,0-10.514-4.644-11.56-12.836
					C62.223,6.435,57.507,6.279,52.328,5.763z"/>
			</g>
			<g>
				<path style="fill:#525D7D;" d="M61.646,159.382c-1.147,0-2.101-0.902-2.155-2.059c-0.055-1.192,0.866-2.201,2.056-2.256
					c11.719-0.541,23.54-0.798,34.971-1.046c17.099-0.371,34.781-0.756,52.287-2.101c1.167-0.118,2.228,0.797,2.318,1.986
					c0.093,1.189-0.797,2.227-1.986,2.318c-17.625,1.356-35.367,1.742-52.524,2.114c-11.405,0.247-23.2,0.503-34.865,1.042
					C61.713,159.38,61.679,159.382,61.646,159.382z"/>
			</g>
			<g>
				<path style="fill:#525D7D;" d="M101.819,128.898c-5.614,0-11.598-1.448-16.416-3.972c-1.056-0.554-1.463-1.86-0.911-2.915
					c0.555-1.057,1.861-1.46,2.915-0.911c4.22,2.212,9.472,3.48,14.412,3.48c6.419,0,11.657-2.127,14.748-5.991
					c0.745-0.931,2.101-1.082,3.035-0.336c0.931,0.745,1.081,2.103,0.336,3.035C116.011,126.195,109.576,128.898,101.819,128.898z"
					/>
			</g>
			<g>
				<path style="fill:#525D7D;" d="M100.355,116.17c-1.072,0-2.003-0.798-2.139-1.892c-0.148-1.182,0.692-2.262,1.875-2.409
					c6.058-0.758,9.217-6.622,12.271-12.294l1.95,0.932l1.9,1.023c-3.288,6.106-7.318,13.59-15.587,14.623
					C100.535,116.164,100.445,116.17,100.355,116.17z"/>
			</g>
			<g>
				<path style="fill:#525D7D;" d="M89.103,50.902c-1.131,0-2.082-0.88-2.153-2.024c-0.075-1.191,0.831-2.215,2.02-2.29
					c2.828-0.177,5.732-0.503,8.539-0.819c4.307-0.485,8.76-0.985,13.202-0.985c1.192,0,2.159,0.967,2.159,2.159
					s-0.967,2.159-2.159,2.159c-4.2,0-8.531,0.488-12.72,0.959c-2.859,0.322-5.816,0.655-8.752,0.838
					C89.193,50.901,89.148,50.902,89.103,50.902z"/>
			</g>
			<g>
				<path style="fill:#525D7D;" d="M103.058,39.425c-4.245,0-8.442-0.225-12.829-0.687c-1.186-0.127-2.047-1.189-1.921-2.374
					c0.126-1.186,1.185-2.03,2.374-1.922c8.47,0.894,16.283,0.894,24.753,0c1.192-0.11,2.249,0.735,2.374,1.922
					c0.125,1.185-0.735,2.248-1.922,2.374C111.501,39.2,107.303,39.425,103.058,39.425z"/>
			</g>
			<g>
				<path style="fill:#525D7D;" d="M123.314,75.659c-0.883,0-1.711-0.544-2.03-1.421c-1.317-3.627-2.665-7.843-2.665-11.639
					c0-7.515,4.927-9.347,10.631-11.47l0.957-0.357c1.12-0.42,2.363,0.148,2.78,1.262c0.419,1.118-0.146,2.361-1.262,2.78
					l-0.97,0.361c-5.939,2.21-7.818,3.115-7.818,7.423c0,3.125,1.216,6.89,2.406,10.163c0.406,1.12-0.171,2.36-1.292,2.768
					C123.808,75.619,123.558,75.659,123.314,75.659z"/>
			</g>
			<g>
				<path style="fill:#525D7D;" d="M126.465,119.321c-0.552,0-1.105-0.211-1.526-0.633c-0.843-0.842-0.843-2.21,0-3.053
					c3.863-3.865,4.336-10.025,4.752-15.461l0.023-0.284c0.09-1.189,1.134-2.107,2.318-1.986c1.189,0.091,2.079,1.129,1.986,2.318
					l-0.021,0.283c-0.45,5.876-1.011,13.189-6.005,18.183C127.57,119.11,127.017,119.321,126.465,119.321z"/>
			</g>
			<g>
				<path style="fill:#525D7D;" d="M171.219,46.001c-2.665,0-5.443-1.207-7.456-3.247c-2.04-2.066-3.116-4.796-3.032-7.688
					c0.15-5.171,3.954-9.394,8.846-9.821c0.52-0.049,1.058-0.053,1.598-0.013c4.588,0.339,8.375,2.983,9.88,6.9
					c0.225,0.59,0.365,1.236,0.419,1.923c0.255,3.18-0.751,6.19-2.827,8.475c-1.936,2.13-4.66,3.427-7.287,3.469
					C171.313,45.999,171.267,46.001,171.219,46.001z M170.449,29.524c-0.163,0-0.325,0.007-0.484,0.021
					c-2.987,0.261-4.842,3.077-4.918,5.648c-0.063,2.179,0.939,3.664,1.791,4.528c1.217,1.234,2.939,1.966,4.453,1.961
					c1.436-0.022,3.031-0.81,4.161-2.055c0.895-0.985,1.922-2.693,1.719-5.23c-0.023-0.278-0.072-0.519-0.148-0.718
					c-0.898-2.336-3.261-3.925-6.165-4.138C170.719,29.528,170.582,29.524,170.449,29.524z"/>
			</g>
			<g>
				<path style="fill:#525D7D;" d="M11.682,127.423c-0.273,0-0.552-0.052-0.821-0.163c-1.102-0.454-1.628-1.716-1.174-2.818
					c3.529-8.572,7.77-15.683,12.961-21.74c0.776-0.905,2.137-1.009,3.045-0.233c0.905,0.776,1.009,2.139,0.233,3.045
					c-4.887,5.701-8.893,12.431-12.247,20.573C13.337,126.92,12.531,127.423,11.682,127.423z"/>
			</g>
			<g>
				<path style="fill:#525D7D;" d="M27.095,121.247c-0.155,0-0.312-0.017-0.47-0.052c-4.328-0.961-8.258-3.004-12.059-4.98
					c-3.716-1.933-7.228-3.759-11.002-4.598c-1.164-0.259-1.898-1.411-1.639-2.575c0.257-1.164,1.407-1.905,2.575-1.639
					c4.328,0.962,8.258,3.004,12.059,4.98c3.716,1.933,7.228,3.759,11.002,4.598c1.164,0.259,1.898,1.411,1.639,2.575
					C28.977,120.563,28.086,121.247,27.095,121.247z"/>
			</g>
			<g>
				<path style="fill:#525D7D;" d="M16.765,52.586c-0.351,0-0.703-0.086-1.023-0.257c-4.62-2.487-9.859-5.304-14.784-8.605
					c-0.663-0.446-1.027-1.22-0.946-2.014c0.081-0.794,0.595-1.479,1.335-1.78l2.509-1.022c3.943-1.608,8.019-3.27,12.104-4.793
					c0.68-0.252,1.445-0.149,2.031,0.281c0.588,0.43,0.918,1.127,0.88,1.854c-0.093,1.782-0.138,3.664-0.138,5.753
					c0,2.402,0.059,4.974,0.19,8.34c0.03,0.775-0.357,1.505-1.015,1.916C17.559,52.476,17.163,52.586,16.765,52.586z M6.833,42.357
					c2.557,1.564,5.154,3.021,7.649,4.381c-0.046-1.729-0.068-3.261-0.068-4.736c0-0.932,0.008-1.826,0.027-2.689
					C11.885,40.306,9.336,41.338,6.833,42.357z"/>
			</g>
			<g>
				<path style="fill:#525D7D;" d="M152.277,119.763c-0.447,0-0.888-0.139-1.259-0.405c-0.55-0.395-0.881-1.025-0.9-1.701
					l-0.055-2.255c-0.134-5.427-0.273-11.04-0.536-16.549c-0.041-0.857,0.43-1.659,1.202-2.04c0.772-0.379,1.694-0.267,2.35,0.29
					c6.341,5.371,12.27,9.549,18.124,12.769c0.752,0.413,1.186,1.231,1.11,2.085c-0.077,0.853-0.651,1.581-1.463,1.854
					c-6.057,2.034-11.986,4.013-17.936,5.854C152.706,119.73,152.49,119.763,152.277,119.763z M154.042,103.48
					c0.136,3.762,0.232,7.524,0.322,11.209c3.52-1.115,7.046-2.274,10.607-3.462C161.395,109.01,157.776,106.443,154.042,103.48z"/>
			</g>
			<g>
				<path style="fill:#525D7D;" d="M160.673,107.168c-0.375,0-0.755-0.097-1.101-0.302c-1.026-0.609-1.364-1.934-0.755-2.959
					c9.655-16.263,14.551-31.946,14.551-46.611c0-1.192,0.967-2.159,2.159-2.159c1.192,0,2.159,0.967,2.159,2.159
					c0,15.452-5.1,31.876-15.156,48.815C162.128,106.791,161.409,107.168,160.673,107.168z"/>
			</g>
			<g>
				<path style="fill:#525D7D;" d="M8.357,96.355c-0.744,0-1.468-0.385-1.868-1.075c-4.11-7.079-6.282-15.567-6.282-24.548
					c0-8.064,1.729-16.279,4.998-23.754c0.477-1.089,1.744-1.594,2.844-1.112c1.092,0.478,1.59,1.75,1.112,2.843
					c-3.032,6.933-4.636,14.548-4.636,22.022c0,8.22,1.971,15.959,5.697,22.38c0.599,1.032,0.249,2.353-0.783,2.95
					C9.097,96.26,8.725,96.355,8.357,96.355z"/>
			</g>
		</g>
	</g>
</g>
<g id="Layer_1">
</g>
</svg>
