<?xml version="1.0" encoding="iso-8859-1"?>
<!-- Generator: Adobe Illustrator 21.0.2, SVG Export Plug-In . SVG Version: 6.00 Build 0)  -->
<svg version="1.1" xmlns="http://www.w3.org/2000/svg" xmlns:xlink="http://www.w3.org/1999/xlink" x="0px" y="0px"
	 viewBox="0 0 199.731 188.208" style="enable-background:new 0 0 199.731 188.208;" xml:space="preserve">
<g id="_x35_7">
	<g>
		<g>
			<path style="fill:#E0DFE6;" d="M116.78,56.281c-4.127-1.001-7.676,1.321-10.499,4.063c-0.898,0.872-1.727,1.794-2.517,2.743
				c-4.392,3.313-7.144,8.629-7.15,14.508c-0.003,3.54,2.729,6.632,6.221,7.047c3.797,0.452,6.502-1.728,7.873-5.14
				c0.796-1.981,1.99-3.992,3.258-5.707c0.454-0.614,0.962-1.178,1.483-1.736c0.587,0.066,1.187,0.085,1.808-0.008
				c3.759-0.565,5.837-3.393,6.223-7.049C123.921,60.821,120.691,57.23,116.78,56.281z"/>
		</g>
		<g>
			<path style="fill:#E0DFE6;" d="M22.566,57.192c-1.686,3.259-2.599,6.821-4.079,10.169c-1.427,3.228-3.025,6.384-4.288,9.682
				c-1.086,2.835,2.822,5.899,5.303,4.077c6.037-4.435,11.852-12.107,13.621-19.478C34.597,55.5,25.683,51.168,22.566,57.192z"/>
		</g>
		<g>
			<path style="fill:#E0DFE6;" d="M188.444,31.671c-8.159,17.723-16.604,35.368-27.795,51.419
				c-11.033,15.825-24.702,33.747-42.129,42.691c-3.597,1.846-3.83,5.71-2.185,8.541c-0.042,0.327-0.07,0.664-0.107,0.995
				c-0.581,0.309-1.102,0.743-1.494,1.28c0.029-0.266,0.059-0.533,0.096-0.799c0.666-4.735-2.978-7.967-7.313-6.728
				c-0.519-0.146-1.059-0.207-1.601-0.191c11.634-8.26,22.32-17.893,31.712-28.082c10.28-11.152,19.333-23.372,27.079-36.411
				c7.881-13.266,16.319-28.326,20.097-43.381c0.943-3.758-3.863-5.437-5.973-2.518c-8.271,11.44-14.49,24.406-22.484,36.091
				c-8.455,12.36-17.546,24.325-27.768,35.289c-19.299,20.698-41.68,35.573-67.815,46.165c-6.597,2.674-6.048,11.562-1.058,13.792
				c-0.983,1.101-1.547,2.415-1.215,3.995c-0.926,0.152-1.893,0.241-2.913,0.251c-0.649,0.006-1.278-0.051-1.911-0.095
				c-1.449-1.62-3.96-2.076-5.981-1.557c-0.204,0.052-0.408,0.105-0.612,0.157c-4.189-1.544-7.933-4.184-11.197-7.486
				c-2.667-2.699-6.835,0.72-5.132,3.96c2.914,5.544,7.351,10.083,12.694,13.094c0.017,0.027,0.03,0.056,0.048,0.082
				c-1.481,1.39-3.042,2.699-4.692,3.88c-3.302,2.364-6.965,4.313-10.541,6.225c-1.707,0.913-0.953,3.771,0.998,3.684
				c5.728-0.256,19.101-4.055,24.659-10.214c9.727,1.522,23.735-1.144,28.606-10.607c0.799-1.553,0.815-3.379,0.272-4.996
				c1.24-2.319,0.865-5.364-1.267-6.93c5.776-2.73,11.399-5.855,16.84-9.307c-4.139,3.219-8.618,5.726-13.051,8.75
				c-1.887,1.287-1.336,4.357,1.033,4.543c-0.018,0.043-0.038,0.082-0.056,0.125c-1.574,3.953,3.12,8.233,6.93,6.93
				c4.998-1.708,9.788-3.939,14.133-6.95c2.449,0.171,5.286-1.346,6.231-3.726c0.101-0.253,0.182-0.509,0.262-0.765
				c0.017,6.232,1.239,12.015,2.674,18.29c0.325,1.421,1.179,2.52,2.29,3.277c-3.828,2.095-7.566,4.398-11.31,6.54
				c-6.406,3.664-12.727,7.16-18.31,12.037c-1.548,1.353-0.339,4.257,1.711,4.13c13.619-0.838,30.773-7.324,41.687-15.605
				c0.563-0.427,1.017-0.944,1.393-1.506c3.718-2.042,7.397-4.137,11.058-6.127c2.201-1.196,0.673-4.511-1.665-3.95
				c-2.959,0.709-5.993,1.511-9.026,2.417c-1.016-1.888-2.913-3.091-5.514-2.509c1.089-7.898,1.669-16.771,0.673-24.778
				c7.149-3.785,13.065-10.32,18.355-16.14c7.223-7.946,13.909-16.579,19.704-25.622c11.735-18.311,21.006-38.576,24.427-60.155
				C192.302,31.198,189.445,29.496,188.444,31.671z"/>
		</g>
		<g>
			<path style="fill:#E0DFE6;" d="M86.187,101.232c-4.557-2.72-9.097-5.475-13.681-8.15c-6.96-4.061-15.124,5.815-8.81,11.418
				c2.409,2.137,4.711,4.407,6.722,6.929c0.053,0.066,0.099,0.137,0.152,0.204c-0.575-0.295-1.146-0.6-1.721-0.909
				c-1.848-0.995-3.495,0.951-2.705,2.705c2.639,5.855,15.809,16.396,20.204,6.642c0.929-2.062,0.836-4.248,0.255-6.384
				C90.245,110.752,91.422,104.357,86.187,101.232z"/>
		</g>
		<g>
			<g>
				<path style="fill:#525D7D;" d="M39.164,96.572c-0.423,0-0.851-0.111-1.242-0.343c-1.152-0.686-1.528-2.177-0.841-3.329
					c24.152-40.496,57.143-68.307,92.895-78.312c1.294-0.362,2.632,0.394,2.992,1.684c0.362,1.291-0.392,2.632-1.684,2.992
					c-34.546,9.668-66.521,36.703-90.033,76.124C40.797,96.151,39.991,96.572,39.164,96.572z"/>
			</g>
			<g>
				<path style="fill:#525D7D;" d="M141.26,15.978c-1.148,0-2.169-0.817-2.385-1.985c-0.244-1.318,0.627-2.586,1.945-2.83
					c16.284-3.017,29.48-4.056,41.532-3.264c1.338,0.089,2.352,1.244,2.264,2.583c-0.088,1.337-1.256,2.349-2.581,2.264
					c-11.636-0.765-24.453,0.25-40.33,3.191C141.556,15.966,141.406,15.978,141.26,15.978z"/>
			</g>
			<g>
				<path style="fill:#525D7D;" d="M66.974,146.826c-2.373,0-4.809-0.356-7.281-1.068c-7.377-2.124-14.223-7.167-18.786-13.834
					c-5.008-7.32-6.552-15.568-4.346-23.227c0.288-0.999,0.642-1.996,1.053-2.964c0.523-1.233,1.951-1.807,3.184-1.285
					c1.235,0.525,1.81,1.951,1.285,3.185c-0.334,0.787-0.622,1.596-0.856,2.409c-1.798,6.239-0.489,13.038,3.687,19.139
					c3.878,5.668,9.905,10.12,16.122,11.911c3.207,0.923,6.303,1.121,9.201,0.585c50.571-9.369,97.421-55.943,113.931-113.26
					c1.03-3.577,1.955-7.23,2.75-10.856c0.287-1.31,1.581-2.148,2.892-1.851c1.31,0.286,2.139,1.581,1.852,2.891
					c-0.817,3.727-1.769,7.481-2.828,11.16c-16.999,59.014-65.404,107-117.712,116.69C69.764,146.702,68.38,146.826,66.974,146.826z
					"/>
			</g>
			<g>
				<path style="fill:#525D7D;" d="M74.983,141.768c-0.126,0-0.253-0.009-0.38-0.03c-1.43-0.225-2.866-0.542-4.267-0.945
					c-15.929-4.589-25.389-19.628-30.521-31.437c-0.535-1.23,0.029-2.66,1.259-3.195c1.229-0.531,2.66,0.03,3.194,1.26
					c4.717,10.852,13.3,24.64,27.41,28.706c1.208,0.346,2.447,0.621,3.68,0.816c1.325,0.207,2.23,1.451,2.022,2.776
					C77.189,140.915,76.157,141.768,74.983,141.768z"/>
			</g>
			<g>
				<path style="fill:#525D7D;" d="M111.261,96.827c-1.998,0-3.974-0.278-5.867-0.841c-11.783-3.504-18.34-15.609-14.929-27.558
					c2.761-9.664,11.114-16.275,20.786-16.452c1.891-0.022,3.817,0.194,5.754,0.68c10.567,2.643,19.975,13.534,16.747,26.52
					c-1.543,6.203-5.449,11.365-11,14.536C119.153,95.768,115.166,96.827,111.261,96.827z M111.621,56.829
					c-0.094,0-0.187,0.002-0.281,0.003c-7.523,0.136-14.034,5.333-16.205,12.93c-2.31,8.09,0.985,18.399,11.644,21.57
					c4.259,1.265,9.331,0.582,13.564-1.837c4.388-2.507,7.477-6.588,8.696-11.493c2.767-11.13-6.249-18.894-13.214-20.636
					C114.401,57.009,112.988,56.829,111.621,56.829z"/>
			</g>
			<g>
				<path style="fill:#525D7D;" d="M88.059,121.614c-0.209,0-0.418-0.027-0.626-0.082c-12.725-3.664-20.754-14.456-25.263-22.868
					c-0.624-1.167-0.201-2.619,0.953-3.266c2.617-1.467,4.984-3.478,7.073-5.253c0.515-0.438,1.19-0.639,1.859-0.56
					c0.671,0.079,1.278,0.435,1.675,0.982c5.374,7.377,13.861,13.181,23.286,15.924c0.802,0.234,1.427,0.861,1.657,1.664
					c0.229,0.801,0.031,1.666-0.526,2.287c-1.751,1.954-3.376,4.075-4.949,6.125c-1.074,1.4-2.145,2.796-3.262,4.157
					C89.468,121.297,88.775,121.614,88.059,121.614z M67.565,98.362c3.999,6.852,10.381,14.747,19.645,18.006
					c0.72-0.909,1.427-1.83,2.134-2.753c0.915-1.193,1.848-2.409,2.822-3.618C84,106.956,76.661,101.83,71.4,95.477
					C70.211,96.454,68.94,97.445,67.565,98.362z"/>
			</g>
			<g>
				<path style="fill:#525D7D;" d="M175.618,59.821c-0.347,0-0.699-0.074-1.033-0.231c-17.239-8.122-30.116-22.938-35.33-40.65
					c-0.379-1.287,0.357-2.637,1.644-3.016c1.285-0.375,2.636,0.357,3.014,1.644c4.822,16.382,16.756,30.098,32.741,37.627
					c1.213,0.572,1.733,2.019,1.162,3.233C177.402,59.306,176.529,59.821,175.618,59.821z"/>
			</g>
			<g>
				<path style="fill:#525D7D;" d="M172.231,46.597c-0.486,0-0.976-0.145-1.403-0.447c-1.093-0.776-1.351-2.292-0.574-3.386
					c3.202-4.513,4.938-9.63,6.337-14.486c0.438-1.519,0.85-3.049,1.263-4.584c0.421-1.565,0.844-3.135,1.294-4.695
					c0.371-1.288,1.711-2.034,3.006-1.661c1.288,0.371,2.032,1.717,1.661,3.005c-0.442,1.533-0.857,3.076-1.272,4.614
					c-0.421,1.562-0.84,3.119-1.285,4.665c-1.445,5.016-3.411,10.834-7.044,15.953C173.74,46.241,172.991,46.597,172.231,46.597z"/>
			</g>
			<g>
				<path style="fill:#525D7D;" d="M139.917,96.43c-0.602,0-1.205-0.223-1.675-0.67c-0.971-0.925-1.008-2.463-0.083-3.433
					c5.49-5.759,9.982-12.782,14.327-19.572c1.503-2.349,3.007-4.699,4.554-7.009c0.745-1.113,2.254-1.413,3.368-0.665
					c1.114,0.746,1.412,2.254,0.666,3.368c-1.528,2.281-3.012,4.601-4.497,6.924c-4.469,6.983-9.09,14.207-14.902,20.306
					C141.198,96.177,140.558,96.43,139.917,96.43z"/>
			</g>
			<g>
				<path style="fill:#525D7D;" d="M42.445,91.239c-0.322,0-0.651-0.065-0.966-0.201c-2.863-1.244-5.804-2.303-8.741-3.15
					c-10.403-2.997-20.667-3.313-29.686-0.915c-1.296,0.356-2.626-0.427-2.97-1.721c-0.345-1.296,0.427-2.626,1.723-2.97
					c9.867-2.625,21.03-2.297,32.278,0.941c3.138,0.904,6.277,2.036,9.331,3.362c1.23,0.534,1.794,1.965,1.26,3.195
					C44.276,90.694,43.383,91.239,42.445,91.239z"/>
			</g>
			<g>
				<path style="fill:#525D7D;" d="M53.916,62.481c-6.237,0-12.374-0.839-18.153-2.504c-3.376-0.972-6.678-2.237-9.811-3.761
					c-1.206-0.586-1.709-2.039-1.122-3.245c0.586-1.206,2.039-1.713,3.245-1.121c2.883,1.401,5.922,2.566,9.031,3.46
					c8.653,2.493,18.196,2.981,27.599,1.42c1.327-0.209,2.573,0.673,2.793,1.996c0.221,1.323-0.673,2.573-1.996,2.793
					C61.644,62.162,57.761,62.481,53.916,62.481z"/>
			</g>
			<g>
				<path style="fill:#525D7D;" d="M6.084,86.047c-0.524,0-1.051-0.169-1.496-0.517c-1.055-0.827-1.241-2.354-0.413-3.408
					c11.899-15.187,24.94-33.547,31.445-54.572c0.396-1.282,1.758-2.001,3.037-1.601c1.281,0.395,1.998,1.756,1.602,3.037
					C33.52,50.764,20.169,69.58,7.997,85.116C7.518,85.727,6.805,86.047,6.084,86.047z"/>
			</g>
			<g>
				<path style="fill:#525D7D;" d="M89.891,181.904c-0.093,0-0.187-0.005-0.282-0.016c-1.333-0.155-2.287-1.359-2.133-2.692
					c1.779-15.355-0.012-27.147-5.474-36.05c-0.702-1.143-0.344-2.638,0.799-3.338c1.146-0.702,2.64-0.345,3.339,0.8
					c6.053,9.865,8.068,22.671,6.16,39.148C92.156,180.992,91.107,181.904,89.891,181.904z"/>
			</g>
			<g>
				<path style="fill:#525D7D;" d="M116.63,168.142c-1.148,0-2.169-0.817-2.385-1.985c-2.458-13.27-1.956-26.535,1.452-38.365
					c0.405-1.404,0.855-2.806,1.339-4.17c0.447-1.265,1.833-1.927,3.1-1.478c1.264,0.449,1.924,1.837,1.476,3.1
					c-0.451,1.274-0.872,2.583-1.249,3.892c-3.2,11.109-3.665,23.605-1.343,36.137c0.244,1.318-0.627,2.586-1.945,2.83
					C116.925,168.13,116.777,168.142,116.63,168.142z"/>
			</g>
			<g>
				<path style="fill:#525D7D;" d="M87.223,185.08c-0.698,0-1.391-0.299-1.871-0.879c-0.856-1.032-0.712-2.562,0.32-3.419
					c15.184-12.581,35.456-21.201,61.974-26.347c1.314-0.253,2.59,0.604,2.846,1.921c0.255,1.317-0.605,2.591-1.921,2.847
					c-25.698,4.987-45.259,13.27-59.801,25.32C88.317,184.896,87.768,185.08,87.223,185.08z"/>
			</g>
			<g>
				<path style="fill:#525D7D;" d="M134.237,129.842c-0.661,0-1.319-0.269-1.799-0.797c-0.901-0.993-0.827-2.528,0.166-3.429
					c12.794-11.613,24.876-23.262,32.089-38.056c0.587-1.206,2.043-1.702,3.246-1.119c1.205,0.588,1.706,2.042,1.118,3.247
					c-7.591,15.568-20.031,27.579-33.189,39.523C135.403,129.633,134.819,129.842,134.237,129.842z"/>
			</g>
			<g>
				<path style="fill:#525D7D;" d="M178.424,70.723c-0.455,0-0.916-0.128-1.326-0.395c-1.122-0.733-1.438-2.238-0.703-3.361
					c2.348-3.593,3.73-7.477,5.193-11.588c0.371-1.043,0.743-2.088,1.131-3.127c0.469-1.257,1.867-1.892,3.124-1.426
					c1.257,0.47,1.894,1.867,1.426,3.124c-0.379,1.016-0.742,2.036-1.106,3.057c-1.494,4.198-3.039,8.539-5.704,12.616
					C179.993,70.336,179.216,70.723,178.424,70.723z"/>
			</g>
			<g>
				<path style="fill:#525D7D;" d="M189.529,20.512c-1.091,0-2.196-0.18-3.286-0.544c-4.876-1.628-7.55-7.011-6.086-12.255
					c1.097-3.931,4.243-6.838,8.209-7.587c0.861-0.169,1.766-0.166,2.69,0.002c2.669,0.485,5.255,2.233,6.918,4.679
					c1.493,2.194,2.061,4.677,1.601,6.991c-0.628,3.165-2.5,5.857-5.135,7.387C192.922,20.066,191.245,20.512,189.529,20.512z
					 M189.688,4.857c-0.141,0-0.277,0.013-0.405,0.038c-2.151,0.406-3.851,1.985-4.447,4.124c-0.846,3.029,0.872,5.651,2.946,6.343
					c1.873,0.626,3.331,0.141,4.221-0.378c1.429-0.83,2.453-2.336,2.81-4.132c0.204-1.029-0.099-2.207-0.854-3.316
					c-0.933-1.369-2.377-2.379-3.771-2.632C190.015,4.872,189.847,4.857,189.688,4.857z"/>
			</g>
			<g>
				<path style="fill:#525D7D;" d="M53.476,156.741c-0.888,0-1.833-0.134-2.852-0.428c-7.108-2.047-14.294-7.028-19.719-13.665
					c-5.256-6.432-7.657-12.832-6.422-17.119c0.977-3.389,3.918-5.52,6.762-7.581c1.335-0.967,2.595-1.881,3.563-2.859
					c0.943-0.953,2.481-0.961,3.433-0.019c0.953,0.942,0.962,2.48,0.019,3.433c-1.247,1.261-2.731,2.336-4.165,3.376
					c-2.279,1.652-4.432,3.212-4.945,4.994c-1.521,5.283,9.045,20.807,22.818,24.775c2.954,0.855,4.543-0.645,8.702-5.49
					c0.918-1.069,1.904-2.218,3.001-3.408c0.908-0.986,2.445-1.051,3.431-0.142c0.986,0.909,1.05,2.444,0.141,3.43
					c-1.056,1.148-2.005,2.254-2.889,3.283C60.976,153.254,57.982,156.741,53.476,156.741z"/>
			</g>
			<g>
				<path style="fill:#525D7D;" d="M39.767,149.068c-0.665,0-1.328-0.272-1.808-0.806c-0.895-0.997-0.813-2.532,0.184-3.428
					c3.187-2.863,6.112-5.85,8.457-8.642c0.861-1.028,2.394-1.16,3.421-0.297c1.027,0.863,1.159,2.395,0.297,3.421
					c-2.489,2.962-5.577,6.12-8.929,9.132C40.924,148.862,40.344,149.068,39.767,149.068z"/>
			</g>
			<g>
				<path style="fill:#525D7D;" d="M3.543,188.208c-0.438,0-0.878-0.119-1.27-0.359c-0.921-0.567-1.358-1.674-1.069-2.717
					c1.022-3.691,1.919-7.523,2.786-11.228c0.985-4.206,2.004-8.556,3.218-12.774c2.938-10.199,6.46-17.521,11.421-23.737
					c0.837-1.048,2.365-1.217,3.412-0.384c1.048,0.836,1.219,2.365,0.383,3.413c-4.544,5.695-7.798,12.495-10.55,22.052
					c-1.181,4.1-2.185,8.389-3.156,12.537c-0.351,1.499-0.707,3.018-1.074,4.543c5.036-3.269,10.053-5.071,14.949-6.829
					c7.735-2.777,15.042-5.401,21.383-13.931c0.799-1.077,2.323-1.298,3.397-0.501c1.076,0.8,1.3,2.322,0.5,3.397
					c-7.216,9.707-15.564,12.706-23.639,15.605c-6.305,2.265-12.824,4.606-19.055,10.281C4.72,187.993,4.133,188.208,3.543,188.208z
					"/>
			</g>
			<g>
				<path style="fill:#525D7D;" d="M26.069,163.279c-0.9,0-1.807-0.109-2.712-0.37c-1.795-0.517-2.999-1.367-3.681-2.6
					c-0.662-1.2-0.748-2.6-0.263-4.287c0.234-0.811,0.571-1.614,0.898-2.39c0.306-0.725,0.594-1.411,0.775-2.039
					c0.104-0.359,0.16-0.664,0.169-0.91c0.047-1.341,1.161-2.433,2.513-2.34c1.34,0.047,2.388,1.173,2.339,2.513
					c-0.024,0.654-0.14,1.336-0.356,2.083c-0.258,0.899-0.617,1.751-0.963,2.575c-0.285,0.677-0.554,1.315-0.708,1.851
					c-0.084,0.294-0.11,0.48-0.116,0.585c0.107,0.065,0.328,0.174,0.737,0.292c1.951,0.563,4.393-0.278,6.981-1.165
					c1.544-0.529,3.142-1.078,4.784-1.382c1.326-0.247,2.585,0.628,2.83,1.944c0.244,1.318-0.627,2.586-1.946,2.829
					c-1.289,0.239-2.651,0.707-4.092,1.201C31.024,162.436,28.571,163.279,26.069,163.279z M23.964,158.056h0.016H23.964z"/>
			</g>
			<g>
				<path style="fill:#525D7D;" d="M101.15,84.795c-0.633,0-1.265-0.247-1.741-0.735c-3.936-4.05-3.202-8.645-2.308-11.749
					c1.919-6.661,6.903-11.011,13.008-11.354c1.326-0.06,2.484,0.949,2.56,2.289c0.075,1.339-0.949,2.485-2.288,2.561
					c-4.761,0.267-7.572,4.23-8.614,7.848c-0.938,3.255-0.623,5.224,1.124,7.02c0.934,0.963,0.913,2.499-0.049,3.433
					C102.371,84.567,101.761,84.795,101.15,84.795z"/>
			</g>
		</g>
	</g>
</g>
<g id="Layer_1">
</g>
</svg>
