<?xml version="1.0" encoding="iso-8859-1"?>
<!-- Generator: Adobe Illustrator 21.0.2, SVG Export Plug-In . SVG Version: 6.00 Build 0)  -->
<svg version="1.1" xmlns="http://www.w3.org/2000/svg" xmlns:xlink="http://www.w3.org/1999/xlink" x="0px" y="0px"
	 viewBox="0 0 209.151 189.128" style="enable-background:new 0 0 209.151 189.128;" xml:space="preserve">
<g id="_x35_8">
	<g>
		<g>
			<path style="fill:#E0DFE6;" d="M75.036,88.945c-3.485-1.447-6.96-1.24-10.315-0.191c0.569-0.364,1.084-0.817,1.503-1.358
				c1.647-2.131,1.856-5.966-0.466-7.821c-1.892-1.511-3.896-2.585-6.403-2.405c-2.389,0.171-4.459,1.055-6.189,2.723
				c-1.197,1.153-1.728,2.824-1.61,4.443c-1.923,2.279-0.335,5.316,2.484,5.614c0.918,0.097,1.881-0.094,2.826-0.323
				c0.119,0.019,0.235,0.044,0.357,0.059c1.009,0.127,2.049,0.09,3.067-0.086c0.672,0.138,1.356,0.149,2.03,0.046
				c-0.843,0.361-1.676,0.762-2.498,1.195c-6.022,3.177-10.656,4.418-17.504,5.106c-6.836,0.687-13.672,1.376-20.49,2.227
				c-5.983,0.747-12.73,0.929-17.753,4.523c-1.579,1.13-1.869,3.552,0,4.622c9.41,5.387,25.142,2.758,35.512,2.322
				c5.671-0.238,11.546-0.167,17.104-1.464c4.225-0.986,10.457-6.521,14.568-5.531C80.403,104.848,83.264,92.361,75.036,88.945z"/>
		</g>
		<g>
			<path style="fill:#E0DFE6;" d="M131.361,39.073c-1.222-2.09-3.875-2.678-5.95-1.56c-2.423,1.305-4.847,2.61-7.27,3.915
				c-1.896,1.021-2.491,3.644-1.431,5.457c1.196,2.044,3.471,2.287,5.457,1.431c2.545-1.097,5.09-2.195,7.634-3.292
				C131.959,44.093,132.444,40.924,131.361,39.073z"/>
		</g>
		<g>
			<path style="fill:#E0DFE6;" d="M147.59,68.007c-0.634-1.863-2.469-3.579-2.936-5.322c-0.544-2.029,0.692-4.711,0.888-6.725
				c0.428-4.406-1.613-7.487-2.703-11.572c-1.206-4.516,0.418-8.626-2.85-12.523c-2.575-3.071-5.576-2.646-5.976-6.997
				c-0.376-4.091,0.928-7.296-1.723-10.903c-1.231-1.675-4.476-1.876-4.952,0.647c-0.329,1.745-0.859,3.618-1.35,5.535
				c-0.52-0.906-1.177-1.753-2-2.505c-2.213-2.023-6.264-1.968-7.766,1.001c-1.791,3.541-4.263,9.676-9.129,9.061
				c-3.241-0.41-3.746,4.737-0.755,5.579c4.734,1.333,8.643,0.089,11.931-2.403c1.998,1.476,5.085,1.777,7.065,0.232
				c0.028,0.09,0.047,0.181,0.078,0.27c0.766,2.224,2.233,3.58,3.932,5.081c3.429,3.028,2.487,3.332,3.051,7.873
				c0.236,1.896,1.124,3.728,1.851,5.565c-0.963-1.007-2.37-1.532-4.083-0.996c-4.478,1.404-8.867,3.139-13.279,4.737
				c-2.896,1.049-2.761,6.314,0.79,5.837c4.94-0.663,9.929-1.183,14.836-2.06c1.29-0.23,2.134-0.92,2.625-1.806
				c-0.402,2.745-1.722,5.274-1.291,8.265c0.149,1.033,0.511,1.982,0.938,2.906c-0.968-0.246-2.067-0.205-3.224,0.297
				c-2.224,0.965-4.087,2.061-6.499,2.58c-2.217,0.477-4.518,0.204-6.693,0.827c-1.653,0.473-2.1,2.481-0.978,3.706
				c4.122,4.5,14.009,3.771,18.693,0.625c0.51-0.343,0.9-0.729,1.222-1.133c0.074,2.687-0.69,8.246-2.788,10.561
				c0.823-3.466-1.796-7.628-6.352-6.444c-10.444,2.713-21.693,2.258-32.421,2.104c-5.079-0.073-10.163-0.186-15.24-0.05
				c-1.856,0.05-4.953,0.943-6.465-0.181c-1.031-0.766-1.612-5.782-1.945-6.923c-0.67-2.301-4.251-1.898-4.226,0.572
				c0.041,4.067-0.885,9.814,2.382,12.892c3.694,3.48,11.032,3.411,15.793,3.85c12.95,1.194,28.355,2.426,41.322-0.966
				c-1.367,3.613,0.381,8.424,5.193,7.977c8.738-0.812,13.353-7.032,14.935-15.318C148.34,77.308,149.074,72.368,147.59,68.007z"/>
		</g>
		<g>
			<path style="fill:#E0DFE6;" d="M152.323,105.729c-2.02-1.107-4.485,1.725-2.568,3.328c5.11,4.271,9.068,9.795,11.658,15.855
				c-3.358-5.454-7.944-10.213-12.522-14.977c-1.657-1.724-4.597,0.504-3.328,2.568c8.189,13.307,14.294,31.533,0.19,42.83
				c-1.505,1.205-2.172,2.663-2.234,4.128c-1.923,1.348-4.082,2.502-6.641,3.486c-8.591,3.302-18.215,4.839-27.333,5.645
				c-17.739,1.569-40.439-1.402-44.509-22.324c-0.336-1.727-3.201-1.754-3.517,0c-2.305,12.79,3.579,22.032,12.638,28.056
				c-0.143,1.501,0.336,3.035,1.778,4.245c12.01,10.075,27.826,11.062,42.872,10.397c15.985-0.707,32.355-1.694,44.384-13.524
				C185.077,153.917,178.307,119.964,152.323,105.729z"/>
		</g>
		<g>
			<path style="fill:#E0DFE6;" d="M49.557,82.922c-1.255-4.157-6.112-5.182-9.242-2.44c-1.222,1.07-1.937,2.263-2.84,3.572
				c-0.336,0.487-0.915,1.117-1.569,1.382c-1.85,0.75-4.403-0.365-6.332-0.518c-0.826-0.066-1.603,0.635-1.822,1.387
				c-1.644,5.662,5.164,9.542,9.957,9.584C44.384,95.944,51.716,90.076,49.557,82.922z"/>
		</g>
		<g>
			<g>
				<path style="fill:#525D7D;" d="M110.841,186.449c-18.999,0-32.05-2.863-41.074-9.013c-10.724-7.306-15.936-19.351-15.936-36.826
					c0-14.88,8.371-24.593,16.466-33.986c4.57-5.303,9.295-10.787,12.337-17.099c0.519-1.075,1.808-1.522,2.883-1.008
					c1.074,0.519,1.525,1.809,1.008,2.883c-3.289,6.826-8.205,12.528-12.957,18.044c-7.929,9.2-15.419,17.89-15.419,31.166
					c0,34.461,21.063,41.521,52.692,41.521c16.09,0,53.515-3.621,53.515-37.162c0-21.183-11.712-30.574-23.038-39.656
					c-6.242-5.005-12.139-9.733-16.121-16.229c-0.624-1.016-0.305-2.346,0.711-2.969c1.016-0.623,2.346-0.306,2.969,0.711
					c3.592,5.856,9.201,10.355,15.143,15.118c11.556,9.267,24.655,19.77,24.655,43.025
					C168.675,171.33,147.596,186.449,110.841,186.449z"/>
			</g>
			<g>
				<path style="fill:#525D7D;" d="M45.202,49.917c-4.79,0-9.629-0.295-14.308-0.579c-4.615-0.281-9.387-0.572-14.047-0.572
					c-2.163,0-4.154,0.06-6.084,0.187c-1.203,0.087-2.218-0.825-2.295-2.014c-0.077-1.191,0.825-2.218,2.014-2.295
					c2.026-0.131,4.107-0.195,6.365-0.195c4.792,0,9.63,0.295,14.309,0.579c4.615,0.281,9.385,0.572,14.045,0.572
					c21.135,0,26.463-5.673,32.102-11.678c4.748-5.058,9.658-10.286,23.073-11.963c1.182-0.146,2.263,0.69,2.411,1.874
					c0.148,1.184-0.691,2.263-1.874,2.411c-11.871,1.484-16.044,5.929-20.463,10.634C74.431,43.288,68.205,49.917,45.202,49.917z"/>
			</g>
			<g>
				<path style="fill:#525D7D;" d="M2.159,104.356c-0.975,0-1.861-0.665-2.099-1.655c-0.278-1.16,0.437-2.326,1.597-2.605
					c10.136-2.433,20.682-3.506,30.882-4.543c5.906-0.602,11.991-1.22,17.922-2.1c-0.475-7.707-0.925-16.585-0.925-25.547
					c0-5.405,0.157-10.344,0.483-15.101c0.081-1.189,1.134-2.108,2.301-2.006c1.189,0.08,2.087,1.11,2.006,2.301
					c-0.318,4.657-0.472,9.499-0.472,14.806c0,9.616,0.526,19.169,1.04,27.244c0.07,1.112-0.715,2.094-1.815,2.27
					c-6.657,1.061-13.493,1.756-20.103,2.429c-10.057,1.023-20.458,2.082-30.311,4.447C2.495,104.336,2.325,104.356,2.159,104.356z"
					/>
			</g>
			<g>
				<path style="fill:#525D7D;" d="M36.098,88.51c-1.867,0-3.719-0.775-5.123-2.148c-1.472-1.441-2.294-3.382-2.259-5.325
					c0.065-3.357,2.609-6.474,5.67-6.948c0.617-0.097,1.244-0.08,1.796-0.073c2.86,0.063,5.419,1.816,6.521,4.467
					c0.228,0.545,0.368,1.151,0.419,1.799c0.172,2.259-0.491,4.355-1.867,5.901c-1.266,1.421-3.002,2.245-4.89,2.321
					C36.276,88.507,36.186,88.51,36.098,88.51z M35.61,78.328c-0.219,0-0.418,0.007-0.561,0.03
					c-0.794,0.122-1.989,1.337-2.016,2.763c-0.014,0.756,0.336,1.543,0.962,2.155c0.624,0.611,1.382,0.933,2.198,0.914
					c0.706-0.028,1.358-0.339,1.836-0.876c0.589-0.663,0.869-1.622,0.786-2.702c-0.014-0.186-0.048-0.347-0.098-0.468
					c-0.447-1.074-1.476-1.784-2.624-1.809C35.929,78.331,35.765,78.328,35.61,78.328z"/>
			</g>
			<g>
				<path style="fill:#525D7D;" d="M58.328,93.583c-1.192,0-2.159-0.967-2.159-2.159c0-1.192,0.967-2.159,2.159-2.159
					c2.971,0,5.104-0.576,6.166-1.666c1.028-1.053,0.991-2.536,0.964-3.62l-0.007-0.455c0-6.445-1.028-12.693-2.117-19.308
					c-0.687-4.179-1.399-8.501-1.82-12.854c-0.115-1.186,0.755-2.242,1.941-2.357c1.165-0.119,2.242,0.753,2.357,1.941
					c0.408,4.211,1.106,8.46,1.782,12.571c1.07,6.494,2.175,13.21,2.175,20.008l0.006,0.35c0.035,1.424,0.108,4.385-2.19,6.741
					C65.664,92.585,62.549,93.583,58.328,93.583z"/>
			</g>
			<g>
				<path style="fill:#525D7D;" d="M94.889,93.301c-8.681,0-13.413-1.13-17.213-2.038c-2.806-0.67-5.23-1.25-8.666-1.25
					c-0.683,0-1.358,0.032-2.003,0.097c-1.189,0.134-2.245-0.746-2.363-1.933c-0.119-1.186,0.746-2.245,1.933-2.363
					c0.789-0.08,1.607-0.119,2.433-0.119c3.944,0,6.724,0.665,9.669,1.368c3.767,0.9,8.037,1.92,16.21,1.92
					c22.352,0,39.862-3.573,39.862-8.136c0-0.949-0.44-2.214-3.867-3.584c-0.825-0.329-1.364-1.13-1.358-2.018
					c0.006-0.888,0.555-1.683,1.385-2.002c3.116-1.198,5.131-4.143,5.131-7.499c0-2.613-0.55-3.002-2.598-4.452
					c-0.371-0.263-0.765-0.541-1.179-0.852c-0.53-0.398-0.849-1.019-0.863-1.682c-0.014-0.664,0.278-1.296,0.791-1.716
					c2.198-1.798,3.618-4.325,3.618-6.438c0-1.978-1.435-4.08-4.095-4.08c-1.377,0-2.094,0.074-2.399,0.107
					c-1.867,0.204-2.404-1.202-2.495-1.484c-0.309-0.975,0.212-2.104,1.106-2.605c0.921-0.514,1.387-1.639,1.387-3.343
					c0-4.131-0.041-4.131-2.155-4.131c-1.409,0-3.663,0.354-6.05,0.729c-3.27,0.514-6.973,1.098-10.3,1.098
					c-5.735,0-10.059-1.705-13.217-5.213c-0.797-0.887-0.725-2.252,0.16-3.05c0.887-0.796,2.25-0.727,3.05,0.16
					c2.324,2.582,5.503,3.785,10.007,3.785c2.99,0,6.516-0.555,9.63-1.044c2.669-0.42,4.975-0.783,6.72-0.783
					c6.473,0,6.473,4.488,6.473,8.449c0,1.139-0.153,2.186-0.45,3.122c4.379,0.71,6.945,4.554,6.945,8.283
					c0,2.643-1.198,5.488-3.232,7.858c1.884,1.417,3.462,3.128,3.462,7.283c0,3.725-1.617,7.12-4.321,9.413
					c1.586,1.2,3.031,3.011,3.031,5.69C139.069,92.088,108.172,93.301,94.889,93.301z"/>
			</g>
			<g>
				<path style="fill:#525D7D;" d="M119.037,47.781l-0.61-4.275c2.72-0.389,5.534-0.791,8.379-0.791
					c1.192,0,2.159,0.967,2.159,2.159c0,1.192-0.967,2.159-2.159,2.159C124.268,47.033,121.728,47.395,119.037,47.781z
					 M118.728,45.644h0.014H118.728z"/>
			</g>
			<g>
				<path style="fill:#525D7D;" d="M126.678,60.943c-2.564,0-5.135-0.214-7.762-0.453c-1.188-0.108-2.062-1.158-1.955-2.346
					c0.108-1.189,1.171-2.062,2.346-1.955c2.622,0.239,4.986,0.436,7.371,0.436c1.934,0,3.611-0.133,5.129-0.409
					c1.164-0.219,2.297,0.565,2.509,1.739c0.214,1.172-0.565,2.297-1.739,2.509C130.804,60.787,128.874,60.943,126.678,60.943z"/>
			</g>
			<g>
				<path style="fill:#525D7D;" d="M125.43,77.643c-1.099,0-2.125-0.167-3.118-0.329c-0.863-0.141-1.678-0.274-2.43-0.274
					c-1.192,0-2.159-0.967-2.159-2.159s0.967-2.159,2.159-2.159c1.102,0,2.13,0.167,3.125,0.33c1.601,0.26,3.019,0.42,4.093-0.038
					c1.098-0.469,2.366,0.039,2.834,1.136c0.47,1.095-0.039,2.364-1.136,2.834C127.762,77.428,126.66,77.643,125.43,77.643z"/>
			</g>
			<g>
				<path style="fill:#525D7D;" d="M124.629,33.305c-0.08,0-0.16-0.004-0.242-0.013c-1.185-0.132-2.038-1.2-1.907-2.385
					c1.226-11.017,2.447-17.532,3.15-21.049c-1.525,0.58-3.558,1.081-6.169,1.081c-3.83,0-6.976-2.013-8.489-4.463
					c-1.594,1.288-4.012,2.496-7.623,2.496c-0.933,0-1.795-0.049-2.591-0.138c1.483,4.595,2.728,11.476,3.358,21.242
					c0.076,1.191-0.826,2.217-2.016,2.294c-1.213,0.063-2.217-0.826-2.294-2.016c-0.887-13.756-2.918-20.207-4.256-23.061
					c-1.966-1.118-2.818-2.581-2.842-3.694c-0.028-1.326,0.971-2.408,2.276-2.464c1.108-0.059,2.432,0.811,3.673,2.849
					c1.032,0.364,2.555,0.669,4.692,0.669c4.083,0,5.696-2.198,6.469-3.254c0.36-0.493,1.323-1.799,2.891-1.28
					c1.611,0.527,1.611,2.139,1.611,3.206c0,1.007,1.943,3.295,5.14,3.295c3.549,0,5.544-1.146,6.737-1.83
					c0.828-0.476,2.089-1.2,3.365-0.274c1.355,0.975,1.105,2.208,0.503,5.188c-0.686,3.388-1.962,9.696-3.293,21.681
					C126.649,32.489,125.714,33.305,124.629,33.305z"/>
			</g>
			<g>
				<path style="fill:#525D7D;" d="M114.424,153.169c-7.01,0-14.089-2.444-18.376-4.731c-1.051-0.561-1.451-1.869-0.888-2.921
					c0.559-1.051,1.871-1.451,2.921-0.888c4.809,2.565,11.224,4.222,16.343,4.222c7.004,0,11.186-3.087,11.186-8.258
					c0-3.26-3.847-3.875-12.472-4.021c-6.826-0.115-14.564-0.246-14.564-6.681c0-7.084,7.53-11.844,14.564-11.844
					c2.02,0,3.951,0.41,5.586,1.188c1.077,0.512,1.534,1.799,1.022,2.877c-0.512,1.077-1.801,1.534-2.877,1.022
					c-1.057-0.503-2.347-0.769-3.731-0.769c-4.837,0-10.246,3.219-10.246,7.526c0,2.028,4.473,2.264,10.319,2.364
					c7.449,0.127,16.717,0.283,16.717,8.338C129.928,146.394,125.867,153.169,114.424,153.169z"/>
			</g>
			<g>
				<path style="fill:#525D7D;" d="M110.033,120.86c-0.967,0-1.848-0.655-2.093-1.635c-0.242-0.967-0.354-1.978-0.354-3.181
					c0-0.498,0.018-0.992,0.037-1.489c0.018-0.446,0.035-0.894,0.035-1.348c0-0.526-0.024-0.964-0.076-1.379
					c-0.148-1.184,0.692-2.263,1.874-2.411c1.186-0.141,2.263,0.69,2.411,1.874c0.074,0.59,0.11,1.216,0.11,1.916
					c0,0.51-0.018,1.012-0.038,1.512c-0.017,0.441-0.034,0.881-0.034,1.324c0,0.852,0.069,1.51,0.225,2.132
					c0.29,1.157-0.413,2.329-1.57,2.619C110.383,120.838,110.206,120.86,110.033,120.86z"/>
			</g>
			<g>
				<path style="fill:#525D7D;" d="M115.002,164.017c-1.192,0-2.159-0.967-2.159-2.159c0-1.15-0.093-2.36-0.19-3.641
					c-0.103-1.335-0.208-2.716-0.208-4.089c0-0.759,0.032-1.449,0.098-2.11c0.117-1.188,1.171-2.063,2.361-1.934
					c1.186,0.118,2.052,1.175,1.934,2.361c-0.055,0.551-0.076,1.113-0.076,1.683c0,1.209,0.1,2.506,0.195,3.76
					c0.1,1.306,0.202,2.655,0.202,3.969C117.161,163.05,116.194,164.017,115.002,164.017z"/>
			</g>
			<g>
				<path style="fill:#525D7D;" d="M69.039,144.292c-1.061,0-1.986-0.783-2.137-1.864c-0.219-1.593-0.33-3.229-0.33-4.866
					c0-8.387,2.911-16.568,7.985-22.445c0.78-0.901,2.145-1.001,3.046-0.223c0.902,0.78,1.002,2.144,0.223,3.046
					c-4.408,5.104-6.937,12.257-6.937,19.623c0,1.441,0.098,2.879,0.291,4.276c0.163,1.181-0.664,2.271-1.844,2.435
					C69.237,144.284,69.137,144.292,69.039,144.292z"/>
			</g>
			<g>
				<path style="fill:#525D7D;" d="M129.595,111.235c-0.552,0-1.105-0.211-1.527-0.633c-2.807-2.807-4.661-6.06-6.452-9.204
					c-0.34-0.596-0.68-1.193-1.029-1.791c-0.6-1.03-0.253-2.352,0.777-2.953c1.03-0.6,2.35-0.253,2.953,0.777
					c0.356,0.61,0.703,1.221,1.05,1.829c1.726,3.031,3.357,5.892,5.753,8.289c0.843,0.843,0.843,2.21,0,3.053
					C130.7,111.024,130.148,111.235,129.595,111.235z"/>
			</g>
			<g>
				<path style="fill:#525D7D;" d="M168.095,110.924c-0.758,0-1.494-0.401-1.889-1.11c-4.775-8.594-13.082-14.728-19.786-19.111
					c-0.998-0.654-1.278-1.992-0.626-2.99c0.654-0.998,1.991-1.275,2.99-0.626c7.118,4.657,15.961,11.209,21.197,20.629
					c0.579,1.042,0.204,2.357-0.839,2.936C168.811,110.837,168.451,110.924,168.095,110.924z"/>
			</g>
			<g>
				<path style="fill:#525D7D;" d="M186.033,62.088c-3.718,0-7.465-0.149-11.089-0.292c-5.496-0.218-11.431-0.402-16.357-0.165
					c-1.213,0.037-2.189-0.846-2.26-2.027c-0.344-5.697-0.602-9.388-0.748-11.093c-0.128-0.277-0.2-0.585-0.2-0.909
					c0-2.347,1.331-2.738,2.125-2.762c2.137-0.083,2.232,1.012,2.598,6.193c0.128,1.833,0.273,4.051,0.406,6.204
					c1.123-0.032,2.284-0.048,3.507-0.048c3.724,0,7.472,0.149,11.1,0.292c3.291,0.129,6.685,0.264,10.033,0.285
					c-0.055-4.625-0.167-9.294-0.274-13.831c-0.153-6.427-0.312-13.071-0.312-19.62c0-1.192,0.967-2.159,2.159-2.159
					c1.192,0,2.159,0.967,2.159,2.159c0,6.497,0.157,13.116,0.311,19.517c0.125,5.266,0.254,10.709,0.297,16.072
					c0.01,1.191-0.947,2.165-2.138,2.176L186.033,62.088z"/>
			</g>
			<g>
				<path style="fill:#525D7D;" d="M172.35,60.979c-1.192,0-2.159-0.967-2.159-2.159c0-3.944-0.322-8.117-0.634-12.153
					c-0.194-2.523-0.396-5.132-0.516-7.657c-0.058-1.191,0.863-2.203,2.054-2.259c1.213-0.052,2.201,0.862,2.259,2.054
					c0.118,2.461,0.316,5.038,0.509,7.53c0.318,4.117,0.647,8.375,0.647,12.485C174.509,60.012,173.542,60.979,172.35,60.979z"/>
			</g>
			<g>
				<path style="fill:#525D7D;" d="M175.524,78.391c-2.087-0.024-4.134-0.216-6.106-0.572c-1.174-0.212-1.953-1.335-1.742-2.509
					c0.214-1.175,1.344-1.943,2.509-1.742c1.736,0.315,3.541,0.484,5.362,0.505c1.193,0.014,2.149,0.991,2.135,2.183
					C177.669,77.441,176.705,78.391,175.524,78.391z M188.088,75.727c-0.817,0-1.597-0.464-1.961-1.254
					c-0.5-1.082-0.028-2.366,1.054-2.865c1.6-0.739,3.157-1.643,4.631-2.686c0.97-0.686,2.319-0.458,3.01,0.516
					c0.689,0.973,0.458,2.321-0.516,3.009c-1.688,1.195-3.476,2.231-5.315,3.08C188.699,75.664,188.391,75.727,188.088,75.727z
					 M157.857,73.088c-0.409,0-0.822-0.115-1.189-0.357c-1.704-1.126-3.316-2.416-4.793-3.837c-0.86-0.825-0.887-2.193-0.06-3.052
					c0.825-0.86,2.193-0.887,3.052-0.06c1.29,1.238,2.697,2.364,4.183,3.345c0.994,0.658,1.268,1.997,0.611,2.993
					C159.244,72.747,158.557,73.088,157.857,73.088z M201.919,63.508c-0.396,0-0.797-0.108-1.157-0.337
					c-1.006-0.64-1.303-1.974-0.663-2.98c0.966-1.52,1.799-3.123,2.478-4.768c0.455-1.101,1.716-1.624,2.821-1.171
					c1.102,0.455,1.626,1.719,1.171,2.821c-0.776,1.875-1.726,3.704-2.827,5.434C203.332,63.154,202.632,63.508,201.919,63.508z
					 M146.048,58.916c-0.836,0-1.633-0.488-1.985-1.306c-0.81-1.879-1.455-3.837-1.919-5.818c-0.273-1.161,0.448-2.324,1.608-2.595
					c1.164-0.277,2.324,0.447,2.595,1.608c0.408,1.736,0.973,3.451,1.683,5.098c0.471,1.095-0.034,2.364-1.13,2.837
					C146.622,58.86,146.332,58.916,146.048,58.916z M206.991,45.778c-1.174,0-2.137-0.942-2.158-2.121
					c-0.031-1.798-0.218-3.597-0.557-5.346c-0.226-1.171,0.538-2.304,1.709-2.53c1.172-0.229,2.304,0.538,2.53,1.709
					c0.387,1.995,0.6,4.044,0.635,6.091C209.171,44.774,208.222,45.756,206.991,45.778z M143.903,40.599
					c-0.129,0-0.26-0.011-0.391-0.035c-1.174-0.215-1.951-1.339-1.736-2.512c0.367-2.009,0.928-3.999,1.666-5.919
					c0.429-1.113,1.678-1.661,2.792-1.24c1.112,0.429,1.667,1.678,1.24,2.792c-0.642,1.669-1.13,3.399-1.449,5.143
					C145.833,39.87,144.925,40.599,143.903,40.599z M201.521,28.151c-0.696,0-1.379-0.336-1.795-0.959
					c-0.998-1.49-2.132-2.887-3.372-4.155c-0.834-0.852-0.819-2.22,0.034-3.053c0.852-0.834,2.218-0.821,3.053,0.034
					c1.425,1.456,2.728,3.063,3.872,4.774c0.663,0.991,0.398,2.332-0.593,2.994C202.352,28.033,201.935,28.151,201.521,28.151z
					 M152.438,24.267c-0.547,0-1.095-0.207-1.515-0.621c-0.849-0.838-0.859-2.204-0.022-3.053c1.439-1.46,3.015-2.794,4.686-3.967
					c0.973-0.687,2.319-0.451,3.007,0.527c0.686,0.975,0.45,2.322-0.527,3.007c-1.458,1.023-2.834,2.189-4.09,3.464
					C153.553,24.052,152.996,24.267,152.438,24.267z M187.143,16.661c-0.25,0-0.503-0.044-0.751-0.135
					c-1.659-0.616-3.389-1.065-5.142-1.337c-1.178-0.183-1.985-1.286-1.802-2.465c0.183-1.177,1.283-1.976,2.466-1.802
					c2.037,0.316,4.05,0.841,5.98,1.556c1.118,0.415,1.688,1.657,1.274,2.775C188.844,16.123,188.02,16.661,187.143,16.661z
					 M168.635,15.468c-1.006,0-1.907-0.708-2.114-1.733c-0.235-1.169,0.523-2.308,1.691-2.543c2.006-0.403,4.062-0.623,6.11-0.652
					c1.209,0,2.173,0.946,2.19,2.128c0.017,1.192-0.936,2.173-2.128,2.19c-1.784,0.025-3.574,0.216-5.32,0.568
					C168.921,15.454,168.777,15.468,168.635,15.468z"/>
			</g>
		</g>
	</g>
</g>
<g id="Layer_1">
</g>
</svg>
