<?xml version="1.0" encoding="iso-8859-1"?>
<!-- Generator: Adobe Illustrator 21.0.2, SVG Export Plug-In . SVG Version: 6.00 Build 0)  -->
<svg version="1.1" xmlns="http://www.w3.org/2000/svg" xmlns:xlink="http://www.w3.org/1999/xlink" x="0px" y="0px"
	 viewBox="0 0 181.819 175.952" style="enable-background:new 0 0 181.819 175.952;" xml:space="preserve">
<g id="_x35_9">
	<g>
		<g>
			<path style="fill:#E0DFE6;" d="M143.485,108.912c-1.922-15.207-4.583-31.843-9.622-46.335c-1.107-3.183-5.622-2.611-5.837,0.79
				c-0.962,15.225,1.21,32.118,3.953,47.102C133.153,116.879,144.316,115.487,143.485,108.912z"/>
		</g>
		<g>
			<path style="fill:#E0DFE6;" d="M180.895,97.306c-1.277-16.921-3.128-33.845-6.572-50.474c-0.704-3.399-6.124-2.622-6.03,0.816
				c0.351,12.868,0.969,25.728,1.249,38.599c0.129,5.919-1.222,13.694,0.127,19.359c-0.004,0.396-0.008,0.791-0.013,1.187
				c-0.286,0.102-0.607,0.228-0.99,0.395c-2.716-0.08-6.387,1.673-8.919,2.561c-2.35,0.824-3.575,3.093-3.658,5.305
				c-1.055,0.323-1.893,1.334-2.02,2.407c-0.152,1.275,0.633,2.991,2.081,3.188c2.376,0.324,5.256,1.156,7.604,0.609
				c0.771-0.179,1.341-0.733,1.699-1.41c4.699-0.358,10.066-1.031,13.215-3.793C183.668,111.67,181.327,103.045,180.895,97.306z"/>
		</g>
		<g>
			<path style="fill:#E0DFE6;" d="M150.239,115.095c-12.834,0.269-25.276,2.164-38.171,1.265c-5.267-0.367-4.986,7.395,0,8.042
				c12.842,1.666,26.742,2.578,39.231-1.473C155.448,121.583,154.903,114.997,150.239,115.095z"/>
		</g>
		<g>
			<path style="fill:#E0DFE6;" d="M156.889,138.646c-1.176,1.85-1.631,4.497-3.659,5.723c-1.165,0.705-2.388,0.371-3.38-0.372
				c1.126-4.93-4.089-10.865-9.668-7.464c-18.348,11.186-38.706,21.126-60.67,21.299c-19.131,0.151-37.508-6.761-49.844-21.749
				c-1.598-1.942-4.366,0.532-3.328,2.568c5.294,10.379,13.958,18.129,24.098,23.264c-0.568-0.23-1.138-0.454-1.701-0.696
				c-1.906-0.821-3.581,1.772-1.675,2.866c32.746,18.802,74.013,14.737,103.377-8.466c0.453-0.358,0.813-0.743,1.104-1.141
				c0.842,0.187,1.709,0.286,2.588,0.258c6.004-0.191,12.319-5.677,13.525-11.55C168.985,136.71,160.567,132.857,156.889,138.646z"
				/>
		</g>
		<g>
			<path style="fill:#E0DFE6;" d="M106.674,119.7c-1.405-12.571-4.35-27.256-9.321-38.904c-1.175-2.754-5.014-1.044-5.171,1.401
				c-0.425,6.619,0.745,13.516,1.544,20.091c0.684,5.63,1.087,11.384,2.205,16.955c-9.262,0.469-17.821-0.472-25.536-4.182
				c0.457-1.097,0.426-2.383-0.458-3.674c-1.97-2.875-3.865-5.769-5.198-9.004c-1.337-3.245-1.693-6.693-2.833-9.963
				c-0.779-2.233-4.295-2.6-4.908,0c-0.946,4.009-0.478,8.631,0.744,13.044c-4.896-5.394-9.133-12.335-9.357-19.735
				c-0.124-4.089,0.659-8.382,1.855-12.609c0.269-0.179,0.51-0.416,0.696-0.732c2.115-3.58,4.197-7.171,6.218-10.804
				c0.843,0.888,1.777,1.708,2.679,2.497c2.766,2.42,5.783,4.546,8.717,6.753c2.125,1.598,5.08,0.698,6.775-1.099
				c2.543,3.414,9.077,2.582,10.199-2.015c2.408-9.863,3.745-20.074,5.722-30.041C93.085,28.398,95,18.982,95.737,9.539
				c0.166-2.122-3.059-2.94-4.009-1.086c-1.085,2.116-2.121,4.297-3.116,6.523c0.259-1.434,0.495-2.87,0.673-4.313
				c0.405-3.279-4.49-4.173-5.965-1.616c-4.054,7.031-6.836,15.001-9.858,22.523c-3.241,8.067-7.121,16.273-9.29,24.695
				c-0.011,0.042-0.01,0.079-0.02,0.121c-0.977-0.585-1.986-1.226-3.043-1.771c0.733-1.437,1.368-2.909,1.78-4.447
				c1.085-4.043-4.079-5.647-6.33-2.669c-2.526,3.342-3.845,7.859-5.488,11.722c-5.615,6.577-10.633,14.539-12.046,23.195
				c0.085-10.23,3.871-20.406,11.34-27.434c1.393-1.311-0.644-3.252-2.069-2.069C32.347,66.16,28.784,88.509,37.253,107.002
				c9.263,20.226,33.532,32.793,55.472,30.307c3.882-0.44,5.656-3.863,5.133-6.752c0.401-0.108,0.802-0.214,1.199-0.337
				c2.622-0.812,3.902-3.231,3.926-5.601C105.173,124.082,106.975,122.395,106.674,119.7z"/>
		</g>
		<g>
			<g>
				<path style="fill:#525D7D;" d="M88.083,134.42c-10.55,0-23.355-4.865-33.417-12.699c-11.852-9.225-18.38-21.215-18.38-33.762
					c0-18.583,13.668-34.684,21.816-42.627c0.434-0.42,1.028-0.624,1.626-0.61c0.604,0.034,1.165,0.318,1.55,0.784
					c2.045,2.487,4.016,5.091,5.923,7.61c1.818,2.404,3.68,4.863,5.613,7.228C73.761,57,74.7,53.651,75.64,50.297
					c3.932-14.023,7.988-28.491,12.8-42.568c-5.663,0.292-11.007,0.436-16.25,0.436c-14.066,0-26.867-1.042-38.992-3.18
					c0.679,1.832,1.342,3.659,2.002,5.481c1.604,4.421,3.262,8.992,5.077,13.366c0.412,0.994,0.03,2.139-0.896,2.686
					C16.116,40.275,4.318,60.89,4.318,87.792c0,13.682,3.629,26.784,10.494,37.89c0.627,1.015,0.313,2.345-0.701,2.973
					c-1.012,0.626-2.345,0.314-2.972-0.701C3.852,116.165,0,102.277,0,87.792c0-27.913,11.972-49.446,35.586-64.025
					c-1.578-3.924-3.033-7.935-4.445-11.83c-1.084-2.988-2.174-5.994-3.332-9.003c-0.283-0.734-0.143-1.563,0.363-2.166
					c0.507-0.602,1.3-0.877,2.071-0.728c12.969,2.561,26.69,3.806,41.948,3.806c6.14,0,12.425-0.2,19.215-0.609
					c0.739-0.039,1.418,0.278,1.853,0.855c0.436,0.576,0.553,1.334,0.313,2.016c-5.235,14.9-9.576,30.383-13.774,45.354
					c-1.306,4.66-2.61,9.312-3.941,13.95c-0.217,0.756-0.829,1.334-1.596,1.51c-0.77,0.171-1.569-0.084-2.093-0.67
					c-2.99-3.364-5.747-7.006-8.413-10.528c-1.406-1.858-2.849-3.764-4.319-5.62c-7.718,7.909-18.833,22.047-18.833,37.857
					c0,24.447,28.36,42.142,47.479,42.142c6.039,0,12.033-1.213,17.829-2.387l1.899-0.382c1.174-0.231,2.307,0.524,2.541,1.694
					c0.234,1.169-0.524,2.307-1.693,2.54l-1.89,0.381C100.764,133.163,94.554,134.42,88.083,134.42z"/>
			</g>
			<g>
				<path style="fill:#525D7D;" d="M89.053,168.292c-29.383,0-54.861-11.38-69.904-31.222c-0.72-0.95-0.534-2.305,0.416-3.025
					c0.95-0.717,2.306-0.533,3.025,0.416c14.219,18.755,38.443,29.513,66.463,29.513c18.261,0,43.104-5.188,54.495-16.578
					c0.843-0.843,2.21-0.843,3.053,0c0.843,0.843,0.843,2.21,0,3.053C132.516,164.533,103.801,168.292,89.053,168.292z"/>
			</g>
			<g>
				<path style="fill:#525D7D;" d="M156.188,147.026c-5.242,0-9.377-4.058-9.423-9.256c-0.044-4.973,3.582-9.14,8.255-9.482
					c0.254-0.02,0.521-0.024,0.79-0.024c3.152,0.046,5.684,1.063,7.326,2.94c1.491,1.705,2.4,4.029,2.433,6.216
					c0.037,2.443-0.987,4.907-2.809,6.764C160.97,146.007,158.65,147.016,156.188,147.026z M155.68,132.581
					c-0.113,0-0.224,0.003-0.334,0.011c-2.699,0.198-4.284,2.769-4.263,5.139c0.025,2.794,2.265,4.976,5.105,4.976
					c1.282-0.004,2.513-0.555,3.489-1.549c1.004-1.023,1.593-2.397,1.573-3.674c-0.018-1.177-0.541-2.495-1.366-3.438
					C159.059,133.101,157.667,132.609,155.68,132.581z"/>
			</g>
			<g>
				<path style="fill:#525D7D;" d="M59.287,118.978c-1.104,0-2.045-0.842-2.147-1.964c-0.461-5.071-0.667-10.569-0.667-17.826
					c0-2.854,0.031-5.708,0.063-8.546c-5.519-0.545-11.386-0.574-18.143-0.089c-1.183,0.108-2.222-0.808-2.308-1.999
					c-0.086-1.189,0.81-2.222,1.999-2.308c7.827-0.561,14.524-0.46,20.895,0.32c1.091,0.135,1.908,1.067,1.896,2.166L60.856,90.4
					c-0.032,2.918-0.065,5.853-0.065,8.788c0,7.122,0.2,12.499,0.649,17.435c0.108,1.188-0.767,2.238-1.955,2.346
					C59.419,118.975,59.353,118.978,59.287,118.978z"/>
			</g>
			<g>
				<path style="fill:#525D7D;" d="M87.77,120.636c-2.201,0-4.4-0.049-6.604-0.098c-1.81-0.039-3.625-0.08-5.449-0.093
					c-1.185-0.008-2.141-0.97-2.144-2.155c-0.015-6.945-0.586-14.022-1.139-20.867c-0.567-7.027-1.153-14.293-1.153-21.511v-0.174
					c0-1.13,0.872-2.069,2-2.153c1.087-0.08,2.2-0.12,3.402-0.12c3.145,0,6.294,0.278,9.34,0.547
					c2.533,0.222,5.152,0.454,7.692,0.513c1.157,0.028,2.087,0.961,2.108,2.118c0.046,2.425,0.079,4.849,0.113,7.274
					c0.154,11.168,0.314,22.715,1.718,34.015c0.072,0.583-0.096,1.171-0.468,1.628c-0.371,0.457-0.912,0.742-1.498,0.79
					C93.307,120.545,90.791,120.636,87.77,120.636z M77.87,116.152c1.134,0.018,2.264,0.044,3.392,0.069
					c2.172,0.049,4.338,0.097,6.507,0.097c1.97,0,3.711-0.039,5.333-0.124c-1.188-10.793-1.339-21.672-1.485-32.217
					c-0.024-1.737-0.048-3.476-0.077-5.215c-1.987-0.104-3.967-0.278-5.897-0.448c-2.952-0.26-6.005-0.53-8.961-0.53
					c-0.365,0-0.721,0.004-1.07,0.011c0.089,6.438,0.616,12.957,1.125,19.281C77.242,103.313,77.76,109.741,77.87,116.152z"/>
			</g>
			<g>
				<path style="fill:#525D7D;" d="M122.808,119.166c-5.183,0-10.438-0.266-15.073-0.5c-1.088-0.055-1.964-0.911-2.044-1.997
					c-0.36-4.889-0.528-10.056-0.528-16.262c0-4.558,0.091-9.175,0.18-13.639c0.088-4.45,0.179-9.052,0.179-13.581
					c0-5.071-0.117-9.523-0.358-13.609c-0.034-0.592,0.176-1.174,0.583-1.607c0.407-0.432,0.974-0.678,1.568-0.679
					c6.529-0.011,13.507-0.084,20.723-0.811c0.599-0.055,1.192,0.131,1.642,0.526c0.451,0.396,0.716,0.961,0.733,1.562
					c0.06,2.146,0.09,4.39,0.09,6.859c0,4.377-0.095,8.82-0.186,13.116c-0.091,4.262-0.185,8.667-0.185,12.974
					c0,10.156,0.538,17.849,1.746,24.944c0.103,0.606-0.056,1.227-0.439,1.708c-0.383,0.481-0.953,0.776-1.567,0.811
					C127.662,119.106,125.352,119.166,122.808,119.166z M109.868,114.449c4.09,0.204,8.56,0.399,12.94,0.399
					c1.558,0,3.024-0.024,4.43-0.072c-0.982-6.68-1.425-13.979-1.425-23.259c0-4.352,0.094-8.782,0.186-13.065
					c0.091-4.274,0.186-8.692,0.186-13.025c0-1.56-0.012-3.028-0.037-4.438c-5.742,0.479-11.284,0.586-16.553,0.613
					c0.165,3.537,0.245,7.35,0.245,11.584c0,4.571-0.091,9.196-0.18,13.667c-0.089,4.443-0.179,9.038-0.179,13.553
					C109.481,105.701,109.604,110.221,109.868,114.449z"/>
			</g>
			<g>
				<path style="fill:#525D7D;" d="M153.932,119.027c-1.917,0-3.832-0.013-5.743-0.027l-2.002-0.013
					c-1.146-0.007-2.086-0.907-2.144-2.051c-0.568-11.282-0.673-22.842-0.774-34.021c-0.12-13.265-0.245-26.981-1.143-40.3
					c-0.04-0.592,0.166-1.174,0.569-1.609c0.403-0.437,0.967-0.687,1.561-0.694c4.48-0.048,8.94,0.144,13.253,0.329
					c3.257,0.14,6.624,0.287,9.979,0.326c1.157,0.014,2.097,0.938,2.133,2.093c0.347,11.376,0.562,22.867,0.77,33.98
					c0.24,12.817,0.487,26.069,0.94,39.2c0.039,1.146-0.822,2.122-1.964,2.225C163.881,118.961,158.486,119.027,153.932,119.027z
					 M148.259,114.683c1.888,0.013,3.78,0.025,5.673,0.025c3.889,0,8.397-0.049,13.013-0.38c-0.41-12.488-0.644-25.044-0.872-37.209
					c-0.195-10.43-0.396-21.194-0.707-31.871c-2.721-0.063-5.418-0.18-8.043-0.294c-3.516-0.152-7.143-0.308-10.74-0.329
					c0.775,12.711,0.892,25.682,1.006,38.25C147.682,93.339,147.78,104.134,148.259,114.683z"/>
			</g>
			<g>
				<path style="fill:#525D7D;" d="M88.538,63.037c-0.13,0-0.262-0.011-0.395-0.037c-1.173-0.216-1.948-1.344-1.73-2.516
					c2.588-13.975,6.268-26.377,10.812-41.139c0.35-1.14,1.559-1.775,2.699-1.428c1.139,0.35,1.779,1.559,1.428,2.699
					c-4.501,14.626-8.146,26.907-10.692,40.655C90.467,62.311,89.559,63.037,88.538,63.037z"/>
			</g>
		</g>
	</g>
</g>
<g id="Layer_1">
</g>
</svg>
