<?xml version="1.0" encoding="iso-8859-1"?>
<!-- Generator: Adobe Illustrator 21.0.2, SVG Export Plug-In . SVG Version: 6.00 Build 0)  -->
<svg version="1.1" xmlns="http://www.w3.org/2000/svg" xmlns:xlink="http://www.w3.org/1999/xlink" x="0px" y="0px"
	 viewBox="0 0 191.622 174.812" style="enable-background:new 0 0 191.622 174.812;" xml:space="preserve">
<g id="_x36_">
	<g>
		<path style="fill:#E0DFE6;" d="M191.6,106.861c-0.323-14.744-1.64-29.547-3.967-44.111c-2.276-14.244-4.823-30.193-11.573-43.072
			c-0.679-1.296-2.426-0.554-2.539,0.688c-0.079,0.865-0.113,1.735-0.16,2.604c-0.389-4.443-0.89-9.053-2.708-12.861
			c-2.377-4.979-6.664-7.43-12.083-7.805c-8.024-0.555-16.346,0.098-24.358,0.568c-2.29,0.134-3.066,3.693-0.571,4.217
			c5.33,1.117,10.646,2.072,16.024,2.926c6.155,0.977,10.944,1.228,11.861,8.414c1.523,11.93,1.846,24.211,2.751,36.209
			c0.733,9.723,1.492,19.444,2.209,29.168c-3.187,0.085-6.391,0.406-9.555,0.603c-4.171,0.26-8.303,0.322-12.344,1.488
			c-2.255,0.65-3.124,2.432-2.925,4.192c-1.293,0.558-2.27,1.823-2.003,3.206c-6.273-7.052-14.657-12.203-23.949-13.844
			c-15.554-2.747-36.976,4.641-46.042,19.051c-8.341,6.834-10.195,18.897-8.347,30.182c-0.729-1.526-2.143-2.754-4.252-2.957
			c-14.82-1.428-27.757,2.301-41.873,5.802c-1.296,0.322-1.217,2.186,0,2.548c1.752,0.521,3.572,0.796,5.42,0.945
			c-0.774,0.24-1.537,0.496-2.277,0.778c-2.924,1.114-3.257,5.298,0,6.289c6.424,1.956,13.332,2.652,19.889,4.272
			c6.74,1.665,13.326,3.89,20.057,5.537c5.33,1.304,8.649-2.209,9.05-6.191c0.491,0.82,0.999,1.607,1.528,2.347
			c8.547,11.96,23.098,20.582,37.843,20.78c-0.83,1.093-0.801,2.849,0.574,3.557c10.234,5.267,26.645,1.228,35.674-5.16
			c5.717-4.045,10.704-9.571,14.333-15.815c8.532,1.166,17.218-2.818,23.414-9.143C189.754,133.026,191.872,119.28,191.6,106.861z
			 M62.257,137.484c-1.535-0.623-3.158-1.19-4.843-1.701c2.848,0.005,4.316-1.998,4.458-4.236c0.516,2.33,1.169,4.609,1.967,6.769
			C63.362,138.001,62.838,137.72,62.257,137.484z M134.404,134.275c-4.01,8.219-11.394,17.079-20.439,19.748
			c-9.09,2.683-19.285-0.814-26.447-6.575c-6.756-5.435-11.407-13.251-12.831-21.81c-0.607-3.65-0.568-7.161-0.289-10.632
			c0.372-0.253,0.738-0.543,1.086-0.918c5.445-5.86,9.508-12.018,16.679-16.077c6.892-3.901,14.957-5.631,22.768-3.833
			C132.848,98.303,142.44,117.804,134.404,134.275z M151.034,129.837c-0.4,0.26-0.787,0.55-1.145,0.899
			c0.78-3.433,1.152-6.909,1.055-10.343C151.295,123.463,151.327,126.607,151.034,129.837z M152.419,96.011
			c1.561,0.273,3.132,0.512,4.692,0.788c3.591,0.636,7.186,1.361,10.813,1.758c0.915,8.353,1.466,18.687-2.936,23.616
			C163.712,112.347,159.373,102.81,152.419,96.011z M164.791,135.494c0.058-0.348,0.092-0.702,0.142-1.053
			c2.413-0.969,4.429-2.204,6.102-3.66C169.424,132.94,167.385,134.59,164.791,135.494z"/>
		<path style="fill:#E0DFE6;" d="M63.202,83.717c-9.754,0.538-19.465,1.473-29.237,1.849c-8.242,0.317-17.694-1.017-25.704,1.151
			c-3.109,0.841-4.122,4.226-2.812,6.913c1.018,2.088,3.176,3.454,5.845,4.366c-0.182,0.601-0.163,1.267,0.085,1.854
			c0.556,1.318,1.821,1.764,3.166,1.554c0.708-0.11,1.415-0.221,2.123-0.331c0.917-0.143,1.57-0.799,1.915-1.607
			c4.178,0.458,8.356,0.484,10.993,0.718c11.093,0.985,22.53,1.396,33.626,0.294C73.737,99.43,74.122,83.114,63.202,83.717z"/>
		<path style="fill:#E0DFE6;" d="M59.388,59.513c-2.429-7.037-3.872-14.178-4.247-21.617c-0.228-4.527-6.486-4.387-6.935,0
			c-0.692,6.754-0.509,13.404,0.394,20.066c-8.849,0.643-18.141,1.724-26.573,3.958c-2.052,0.544-2.809,2.526-2.524,4.445
			c0.022,0.145,0.043,0.289,0.064,0.434c0.189,1.272,1.595,2.584,2.826,2.826c9.344,1.834,20.597,0.85,30.027,0.054
			c3.257-0.275,5.136-2.61,5.618-5.145C59.386,63.387,60.126,61.65,59.388,59.513z"/>
		<g>
			<g>
				<path style="fill:#525D7D;" d="M36.131,135.247c-5.162,0-10.739-0.014-18.471-0.049c-6.855-0.032-12.453-5.426-12.744-12.28
					c-0.395-9.319-0.769-18.639-1.143-27.958c-1.067-26.565-2.17-54.034-3.752-81.042c-0.196-3.352,0.965-6.543,3.269-8.988
					c2.305-2.443,5.422-3.788,8.779-3.788c19.854,0,36.662-0.291,52.915-0.571C81.252,0.291,98.072,0,117.949,0
					c17.209,0,32.493,0.216,46.725,0.663c9.679,0.304,9.711,12.195,9.722,16.103c0.037,13.803,1.262,36.212,2.448,57.883
					c0.932,17.034,1.812,33.121,2.106,44.628c0.105,4.154-1.436,8.077-4.341,11.047c-2.904,2.97-6.821,4.651-10.939,4.581
					c-4.878-0.017-9.757-0.025-14.64-0.028c-1.192,0-2.158-0.969-2.158-2.16c0.001-1.192,0.967-2.158,2.159-2.158
					c4.888,0.003,9.772,0.011,14.654,0.028c2.997,0,5.765-1.165,7.837-3.282c2.082-2.128,3.187-4.941,3.111-7.918
					c-0.292-11.443-1.17-27.501-2.101-44.501c-1.188-21.727-2.417-44.192-2.454-58.108C170.056,8.629,168.4,5.1,164.539,4.979
					c-14.186-0.444-29.426-0.661-46.59-0.661c-19.84,0-36.641,0.29-52.889,0.571C48.788,5.17,31.961,5.461,12.07,5.461
					c-2.156,0-4.158,0.864-5.637,2.433c-1.48,1.57-2.227,3.619-2.1,5.771C5.916,40.713,7.02,68.203,8.088,94.786
					c0.375,9.317,0.748,18.633,1.143,27.95c0.193,4.546,3.904,8.123,8.449,8.144c17.511,0.079,23.968,0.053,39.576-0.008
					l4.245-0.017c1.159,0.046,2.163,0.957,2.167,2.151c0.005,1.192-0.958,2.163-2.151,2.167l-4.245,0.017
					C48.544,135.225,42.672,135.247,36.131,135.247z"/>
			</g>
			<g>
				<path style="fill:#525D7D;" d="M105.503,169.926c-19.822,0-47.47-18.06-47.47-47.47c0-23.395,19.852-44.234,44.254-46.454
					c1.394-0.127,2.813-0.191,4.218-0.191c22.203,0,45.801,16.229,45.801,46.307C152.306,149.373,132.185,169.926,105.503,169.926z
					 M106.505,80.13c-1.274,0-2.562,0.059-3.826,0.174c-22.237,2.021-40.327,20.931-40.327,42.152
					c0,28.331,28.092,43.151,43.152,43.151c24.22,0,42.485-18.696,42.485-43.489C147.988,101.764,133.449,80.13,106.505,80.13z"/>
			</g>
			<g>
				<path style="fill:#525D7D;" d="M103.375,144.539c-2.898,0-8.407-3.143-9.425-4.164c-0.843-0.843-0.841-2.211,0.003-3.053
					c0.843-0.842,2.21-0.843,3.053,0.003c0.84,0.735,5.074,2.896,6.369,2.896c7.916,0,12.294-5.575,12.294-9.429
					c0-3.226-2.291-5.479-5.572-5.479c-0.919,0-1.855,0.179-2.848,0.367c-1.158,0.219-2.355,0.447-3.708,0.447
					c-6.379,0-12.817-3.077-12.817-9.951c0-7.207,6.181-14.986,16.168-14.986c2.363,0,4.752,0.457,6.909,1.32
					c1.107,0.443,1.645,1.699,1.202,2.807c-0.443,1.106-1.699,1.646-2.806,1.202c-1.653-0.661-3.487-1.011-5.306-1.011
					c-8.084,0-11.85,6.365-11.85,10.667c0,5.361,7.079,5.632,8.498,5.632c0.947,0,1.896-0.18,2.902-0.371
					c1.145-0.218,2.328-0.443,3.654-0.443c5.731,0,9.89,4.12,9.89,9.797C119.987,137.43,113.311,144.539,103.375,144.539z"/>
			</g>
			<g>
				<path style="fill:#525D7D;" d="M103.794,105.802c-1.146,0-2.1-0.9-2.156-2.056c-0.048-1.011-0.081-2.023-0.115-3.033
					c-0.07-2.079-0.14-4.227-0.349-6.306c-0.118-1.186,0.747-2.245,1.934-2.363c1.186-0.127,2.244,0.746,2.363,1.933
					c0.222,2.222,0.296,4.443,0.367,6.591c0.033,0.991,0.066,1.982,0.114,2.973c0.056,1.191-0.863,2.203-2.054,2.259
					C103.863,105.801,103.828,105.802,103.794,105.802z"/>
			</g>
			<g>
				<path style="fill:#525D7D;" d="M107.15,153.181c-1.193,0-2.159-0.967-2.159-2.159c0-2.679-0.476-5.665-0.964-8.494
					c-0.203-1.175,0.585-2.293,1.76-2.495c1.173-0.198,2.293,0.585,2.494,1.761c0.519,3.014,1.027,6.209,1.027,9.228
					C109.309,152.213,108.343,153.181,107.15,153.181z"/>
			</g>
			<g>
				<path style="fill:#525D7D;" d="M147.806,85.648h-0.362c-1.15,0-2.097-0.901-2.156-2.049c-0.059-1.147,0.793-2.141,1.936-2.258
					c9.621-0.987,19.491-1.129,27.877-1.137c1.193,0,2.16,0.966,2.161,2.156c0.001,1.193-0.964,2.16-2.157,2.162
					c-8.059,0.008-17.499,0.14-26.693,1.04C148.219,85.619,148.016,85.648,147.806,85.648z"/>
			</g>
			<g>
				<path style="fill:#525D7D;" d="M155.778,103.042h-0.363c-1.12,0-2.053-0.856-2.151-1.971c-0.098-1.115,0.673-2.12,1.775-2.315
					c5.414-0.956,10.757-1.088,15.722-1.088c1.406,0,2.812,0.011,4.218,0.021l1.049,0.008c1.193,0.008,2.152,0.983,2.144,2.174
					c-0.008,1.192-1.049,2.148-2.175,2.144l-1.051-0.008c-1.395-0.01-2.79-0.021-4.185-0.021c-4.507,0-9.324,0.111-14.134,0.881
					C156.367,102.98,156.08,103.042,155.778,103.042z"/>
			</g>
			<g>
				<path style="fill:#525D7D;" d="M5.51,86.629c-1.148,0-2.103-0.904-2.155-2.062c-0.053-1.192,0.869-2.201,2.061-2.253
					c11.25-0.503,22.239-0.572,32.438-0.572c3.028,0,4.923,0.007,6.819,0.014c1.891,0.007,3.783,0.014,6.808,0.014
					c5.829,0,6.647-0.024,10.095-0.125l4.409-0.124c1.224-0.001,2.184,0.928,2.215,2.101c0.032,1.192-0.91,2.183-2.101,2.214
					l-4.395,0.124c-3.413,0.101-4.33,0.128-10.222,0.128c-3.032,0-4.928-0.007-6.824-0.014c-1.891-0.007-3.781-0.014-6.802-0.014
					c-10.149,0-21.08,0.069-32.245,0.567C5.575,86.629,5.543,86.629,5.51,86.629z"/>
			</g>
			<g>
				<path style="fill:#525D7D;" d="M33.023,106.123c-8.716,0-17.735-0.136-26.807-0.408c-1.192-0.035-2.13-1.03-2.094-2.222
					c0.037-1.191,1.05-2.152,2.222-2.093c9.03,0.268,18.006,0.405,26.679,0.405c7.563,0,9.254-0.098,12.96-0.315
					c1.877-0.11,4.249-0.249,8.129-0.418c1.178-0.086,2.198,0.872,2.25,2.063c0.052,1.192-0.872,2.2-2.063,2.252
					c-3.849,0.167-6.202,0.304-8.064,0.413C42.557,106.014,40.712,106.123,33.023,106.123z"/>
			</g>
			<g>
				<path style="fill:#525D7D;" d="M19.571,63.538c-1.11,0-2.04-0.842-2.149-1.948c-0.971-9.882-1.539-19.98-1.689-30.012
					c-0.017-1.154,0.876-2.117,2.027-2.187c4.171-0.256,8.406-0.277,12.049-0.277l3.934,0.003c4.497,0,9.287-0.034,14.045-0.432
					c0.597-0.044,1.181,0.149,1.625,0.548c0.443,0.398,0.701,0.961,0.713,1.557c0.154,7.204,0.713,14.633,1.254,21.817
					c0.201,2.676,0.402,5.348,0.583,8.008c0.039,0.58-0.157,1.154-0.547,1.588c-0.389,0.433-0.938,0.692-1.52,0.716
					C40.602,63.294,30.685,63.497,19.571,63.538z M20.088,33.593c0.178,8.566,0.663,17.164,1.445,25.618
					c9.39-0.052,17.927-0.224,25.968-0.521c-0.137-1.915-0.282-3.835-0.427-5.759c-0.489-6.494-0.992-13.185-1.204-19.777
					c-4.149,0.256-8.247,0.281-12.127,0.281l-3.934-0.003C26.837,33.432,23.466,33.446,20.088,33.593z"/>
			</g>
			<g>
				<path style="fill:#525D7D;" d="M18.47,49.495c-1.141,0-2.094-0.894-2.154-2.048c-0.061-1.191,0.854-2.206,2.044-2.267
					c9.054-0.468,19.589-1.07,30.049-2.3c1.183-0.155,2.258,0.707,2.397,1.892c0.139,1.183-0.708,2.256-1.892,2.395
					c-10.59,1.247-21.209,1.854-30.33,2.325C18.546,49.494,18.508,49.495,18.47,49.495z"/>
			</g>
			<g>
				<path style="fill:#525D7D;" d="M31.839,63.418c-0.434,0-0.874-0.131-1.254-0.403c-0.97-0.693-1.194-2.042-0.5-3.012
					c2.449-3.424,3.64-7.599,3.64-12.766c0-5.062-2.958-10.525-7.719-14.259c-0.939-0.737-1.103-2.093-0.368-3.032
					c0.736-0.936,2.095-1.101,3.031-0.367c5.782,4.533,9.373,11.298,9.373,17.658c0,6.099-1.454,11.096-4.445,15.279
					C33.176,63.105,32.513,63.418,31.839,63.418z"/>
			</g>
			<g>
				<path style="fill:#525D7D;" d="M66.86,54.991c-3.051,0-10.513-3.664-10.513-10.458c0-3.756,4.034-10.937,10.359-10.937
					c0.801,0,1.605,0.122,2.389,0.364c1.139,0.351,1.778,1.56,1.426,2.7c-0.351,1.14-1.557,1.777-2.7,1.427
					c-0.371-0.115-0.746-0.173-1.115-0.173c-3.362,0-6.041,4.754-6.041,6.619c0,4.003,5.187,6.14,6.195,6.14
					c2.504,0,3.546-0.645,4.866-1.462c0.803-0.498,1.714-1.061,2.934-1.467c1.131-0.38,2.355,0.233,2.731,1.365
					c0.377,1.132-0.233,2.355-1.365,2.731c-0.742,0.247-1.338,0.617-2.028,1.043C72.48,53.823,70.593,54.991,66.86,54.991z"/>
			</g>
			<g>
				<path style="fill:#525D7D;" d="M79.58,56.275c-1.047,0-1.967-0.763-2.131-1.832c-1.03-6.695-1.296-13.65-1.553-20.377
					l-0.032-0.82c-0.046-1.192,0.883-2.194,2.075-2.241c1.196-0.035,2.195,0.883,2.241,2.075l0.031,0.819
					c0.252,6.607,0.514,13.437,1.505,19.888c0.181,1.178-0.627,2.28-1.806,2.461C79.8,56.266,79.689,56.275,79.58,56.275z"/>
			</g>
			<g>
				<path style="fill:#525D7D;" d="M89.082,54.279c-0.626,0-1.245-0.27-1.673-0.791c-6.103-7.46-6.924-8.855-6.268-10.669
					c0.533-1.476,1.963-1.753,2.731-1.902c1.125-0.219,1.868-0.363,1.999-3.116c0.001-0.631-1.465-2.183-3.305-2.183
					c-0.965,0-2.025,0.396-2.984,1.116c-0.952,0.716-2.307,0.523-3.023-0.432c-0.716-0.954-0.522-2.308,0.432-3.024
					c1.726-1.295,3.654-1.979,5.575-1.979c3.919,0,7.624,3.149,7.624,6.48c0,0.024-0.003,0.167-0.004,0.191
					c-0.224,4.707-2.392,6.238-4.1,6.833c1.267,1.794,3.615,4.665,4.667,5.949c0.755,0.924,0.618,2.284-0.304,3.039
					C90.047,54.118,89.562,54.279,89.082,54.279z"/>
			</g>
			<g>
				<path style="fill:#525D7D;" d="M98.03,56.594c-0.975,0-1.86-0.665-2.097-1.654c-1.003-4.176-1.101-8.497-1.198-12.676
					c-0.06-2.668-0.124-5.427-0.428-8.063c-0.136-1.185,0.714-2.256,1.898-2.392c1.184-0.139,2.255,0.713,2.392,1.898
					c0.327,2.834,0.392,5.693,0.455,8.459c0.095,4.134,0.184,8.037,1.079,11.765c0.278,1.16-0.436,2.326-1.595,2.605
					C98.367,56.574,98.197,56.594,98.03,56.594z"/>
			</g>
			<g>
				<path style="fill:#525D7D;" d="M96.451,35.586c-0.953,0-1.826-0.635-2.084-1.601c-0.309-1.151,0.375-2.335,1.526-2.644
					c1.131-0.302,2.369-0.45,3.786-0.45c1.134,0,2.249,0.091,3.328,0.178c1.933,0.157,3.775,0.249,5.129-0.024
					c1.176-0.232,2.307,0.523,2.543,1.691c0.235,1.169-0.522,2.308-1.691,2.543c-1.836,0.367-4.192,0.267-6.332,0.094
					c-2.177-0.176-4.168-0.256-5.646,0.139C96.824,35.563,96.636,35.586,96.451,35.586z"/>
			</g>
			<g>
				<path style="fill:#525D7D;" d="M98.804,56.428c-1.193,0-2.159-0.967-2.159-2.159c0-1.192,0.966-2.159,2.159-2.159
					c3.157,0,6.14,0,9.123-0.498c1.17-0.194,2.289,0.597,2.484,1.774c0.196,1.177-0.598,2.288-1.775,2.485
					C105.301,56.428,101.998,56.428,98.804,56.428z"/>
			</g>
			<g>
				<path style="fill:#525D7D;" d="M97.768,46.117c-1.193,0-2.159-0.967-2.159-2.159s0.966-2.159,2.159-2.159
					c1.121,0,2.177-0.062,3.295-0.128c1.131-0.068,2.302-0.136,3.55-0.136c1.193,0,2.159,0.967,2.159,2.159
					c0,1.192-0.966,2.159-2.159,2.159c-1.121,0-2.177,0.062-3.295,0.128C100.187,46.049,99.017,46.117,97.768,46.117z"/>
			</g>
			<g>
				<path style="fill:#525D7D;" d="M118.708,53.993c-0.674,0-1.329-0.028-1.953-0.084c-1.035-0.094-1.858-0.912-1.955-1.947
					c-0.557-5.887-0.938-11.133-1.167-16.04c-0.053-1.148,0.801-2.137,1.944-2.25c0.89-0.087,1.795-0.132,2.69-0.132
					c10.547,0,15.268,5.441,15.268,10.835C133.535,50.984,125.849,53.993,118.708,53.993z M118.055,37.859
					c0.202,3.684,0.488,7.581,0.87,11.814c4.348-0.053,10.292-1.704,10.292-5.299c0-3.244-3.386-6.517-10.95-6.517
					C118.196,37.858,118.126,37.858,118.055,37.859z"/>
			</g>
			<g>
				<path style="fill:#525D7D;" d="M137.648,54.304c-1.1,0-2.04-0.836-2.146-1.954c-0.269-2.83-0.37-5.745-0.467-8.565
					c-0.095-2.758-0.193-5.61-0.451-8.31c-0.113-1.188,0.757-2.242,1.944-2.355c1.175-0.127,2.241,0.756,2.354,1.944
					c0.27,2.831,0.37,5.75,0.468,8.573c0.095,2.755,0.193,5.604,0.45,8.302c0.113,1.188-0.758,2.242-1.945,2.355
					C137.786,54.301,137.717,54.304,137.648,54.304z"/>
			</g>
			<g>
				<path style="fill:#525D7D;" d="M152.25,53.352c-1.1,0-2.04-0.836-2.146-1.954c-0.205-2.152-0.292-4.373-0.377-6.519
					c-0.134-3.431-0.273-6.979-0.898-10.26c-0.223-1.171,0.546-2.301,1.717-2.525c1.179-0.218,2.302,0.545,2.525,1.718
					c0.685,3.596,0.83,7.308,0.971,10.896c0.086,2.184,0.167,4.248,0.36,6.279c0.113,1.188-0.758,2.242-1.945,2.355
					C152.388,53.349,152.319,53.352,152.25,53.352z"/>
			</g>
			<g>
				<path style="fill:#525D7D;" d="M160.43,35.322c-0.101,0-0.204-0.007-0.307-0.021c-1.626-0.232-3.425-0.34-5.66-0.34
					c-1.367,0-2.738,0.038-4.107,0.077c-2.315,0.062-4.62,0.125-6.881,0.018c-1.191-0.056-2.111-1.068-2.054-2.259
					c0.058-1.191,1.052-2.096,2.26-2.054c2.157,0.104,4.35,0.039,6.554-0.023c1.408-0.039,2.82-0.079,4.227-0.079
					c2.444,0,4.436,0.122,6.269,0.382c1.181,0.169,2.002,1.262,1.833,2.443C162.412,34.545,161.487,35.322,160.43,35.322z"/>
			</g>
		</g>
	</g>
</g>
<g id="Layer_1">
</g>
</svg>
