<?xml version="1.0" encoding="iso-8859-1"?>
<!-- Generator: Adobe Illustrator 21.0.2, SVG Export Plug-In . SVG Version: 6.00 Build 0)  -->
<svg version="1.1" xmlns="http://www.w3.org/2000/svg" xmlns:xlink="http://www.w3.org/1999/xlink" x="0px" y="0px"
	 viewBox="0 0 219.233 193.723" style="enable-background:new 0 0 219.233 193.723;" xml:space="preserve">
<g id="_x36_0">
	<g>
		<g>
			<path style="fill:#E0DFE6;" d="M63.052,116.106c-2.492-4.245-4.853-7.636-3.851-12.737c0.851-4.332,2.444-8.663,3.464-12.985
				c0.531-2.249-2.575-4.615-4.254-2.476c-3.042,3.875-6.872,8.007-9.212,12.591c-2.854,0.744-5.548,2.301-7.547,4.477
				c-1.025,1.116-1.464,2.511-2.337,3.678c-0.323,0.432-0.434,0.651-0.452,0.754c-0.139,0.035-0.392,0.133-0.853,0.365
				c-0.819,0.413-1.969,0.474-2.849,0.661c-2.289,0.486-1.805,4.244,0.556,4.109c3.123-0.179,6.084,0.448,8.323-2.126
				c1.052-1.21,2-2.249,3.045-3.114c0.149,4.763,2.099,9.493,4.322,13.61C55.522,130.537,67.465,123.626,63.052,116.106z"/>
		</g>
		<g>
			<path style="fill:#E0DFE6;" d="M144.58,87.139c1.873-8.312,0.377-16.931,0.52-25.31c0.041-2.404-3.823-3.046-4.291-0.581
				c-1.23,6.477-3.069,13.636-5.253,19.867c-1.873,5.343-6.345,8.785-8.398,14.007c-2.796,7.112-3.717,24.183,6.037,26.213
				c3.123,0.65,6.558-0.416,8.191-3.333l0.4-0.715c1.792-3.202,0.511-7.288-2.193-9.301c-0.844-3.056-1.034-6.892-0.256-9.506
				C140.546,94.419,143.617,91.415,144.58,87.139z"/>
		</g>
		<g>
			<path style="fill:#E0DFE6;" d="M206.518,74.201c-1.401-3.97-6.743-2.316-6.174,1.702c1.069,7.534-0.962,14.3-4.939,20.67
				c-3.013,4.826-4.869,9.185-3.233,14.895c2.64,9.214,16.69,3.891,12.385-5.221c-0.656-1.389,1.473-4.604,2.029-6.011
				c1.133-2.873,1.841-5.705,2.168-8.78C209.375,85.605,208.468,79.726,206.518,74.201z"/>
		</g>
		<g>
			<path style="fill:#E0DFE6;" d="M193.774,137.087c-1.852-6.488-1.021-12.491-1.255-19.096c-0.08-2.259-3.817-3.032-4.162-0.563
				c-0.845,6.053-3.593,11.169-2.947,17.452c0.646,6.284,2.962,12.168,2.795,18.55c-0.16,6.098,9.82,6.028,9.42,0
				C197.242,147.666,195.345,142.589,193.774,137.087z"/>
		</g>
		<g>
			<path style="fill:#E0DFE6;" d="M135.307,171.194c0.02-0.253,0.033-0.511,0.006-0.792c-1.492-15.585-10.146-30.025-15.148-44.694
				c-0.631-1.85-3.894-1.709-3.647,0.493c0.808,7.196,2.185,14.128,4.27,21.07c2.313,7.697,5.404,15.008,5.891,23.13
				c0.035,0.575,0.178,1.076,0.374,1.531c-0.293,0.289-0.579,0.585-0.87,0.876c-1.345-7.328-3.796-14.633-5.877-21.761
				c-2.154-7.38-5.682-15.205-5.098-22.982c0.124-1.654-2.168-2.039-2.955-0.8c-1.654,2.605-2.05,5.561-1.865,8.598
				c-0.346,0.027-0.706,0.119-1.074,0.3c-1.517,0.745-2.909,1.818-4.32,2.748c-1.374,0.905-2.835,1.737-4.031,2.877
				c-1.339,1.275,0.059,3.397,1.743,2.995c1.609-0.385,3.121-1.199,4.631-1.862c1.266-0.556,2.599-1.057,3.839-1.692
				c0.46,2.194,1.019,4.349,1.424,6.365c0.024,0.12,0.046,0.242,0.071,0.362c-0.242,0.005-0.492,0.037-0.755,0.128
				c-4.931,1.714-9.44,4.969-13.815,7.756c-2.241,1.427-0.213,4.956,2.092,3.58c4.317-2.577,9.017-4.111,13.455-6.372
				c0.407,2.175,0.813,4.363,1.236,6.549c-5.682,2.554-11.088,5.809-16.769,8.406c-2.202,1.007-0.641,4.595,1.641,3.891
				c5.453-1.683,11.257-3.472,16.41-6.112c0.512,2.292,1.08,4.562,1.716,6.799c-0.206,0.049-0.416,0.119-0.628,0.214
				c-5.201,2.311-9.821,5.568-15.194,7.641c-2.195,0.847-1.379,4.236,0.992,3.6c5.539-1.486,11.953-2.985,16.879-6.05
				c0.174,0.199,0.357,0.382,0.556,0.531c-0.431,0.427-0.853,0.864-1.29,1.286c-3.071,2.964-6.432,5.811-9.086,9.16
				c-1.15,1.451-0.15,4.502,2.093,3.596c8.176-3.303,16.163-9.54,22.814-15.269C137.183,175.428,136.783,172.902,135.307,171.194z"
				/>
		</g>
		<g>
			<path style="fill:#E0DFE6;" d="M46.193,127.997c-1.779-6.315-11.539-3.652-9.842,2.713c1.72,6.451,4.061,12.807,5.426,19.347
				c1.628,7.798-2.741,9.897-6.452,15.427c-1.572,2.343,1.739,4.347,3.637,2.806c5.519-4.484,11.545-5.158,12.082-13.495
				C51.598,146.157,48.506,136.21,46.193,127.997z"/>
		</g>
		<g>
			<path style="fill:#E0DFE6;" d="M62.642,71.532C54.641,64.031,43.318,60,32.404,61.268c-3.376,0.392-3.503,5.107,0,5.353
				c8.886,0.623,16.02,4.728,20.781,12.208C57.962,86.335,68.942,77.438,62.642,71.532z"/>
		</g>
		<g>
			<path style="fill:#E0DFE6;" d="M136.617,11.723c-1.38-7.838-11.824-7.854-17.921-9.066c-6.853-1.362-10.675,6.375-7.778,10.826
				c-4.659,0.861-10.058-0.008-14.474,1.655c-3.337,1.256-4.478,4.06-6.107,6.959c-2.553,4.542-5.681,8.489-9.05,12.455
				c-2.157,2.539,0.539,6.564,3.68,4.77c2.992-1.709,5.792-3.768,8.34-6.096c1.87-1.708,4.507-6.411,6.755-7.141
				c1.475-0.479,6.02,0.452,7.658,0.437c1.692-0.015,3.394-0.099,5.079-0.26c4.395-0.42,8.772-1.27,12.987-2.577
				C131.454,21.926,137.869,18.837,136.617,11.723z"/>
		</g>
		<g>
			<path style="fill:#E0DFE6;" d="M180.471,47.83c-4.921,0.852-14.338,0.668-15.67,6.774c-0.624,2.86-0.68,5.645-1.623,8.48
				c-1.001,3.009-2.464,5.823-3.651,8.756c-0.706,1.744,1.788,3.703,3.305,2.541c2.62-2.007,4.673-4.436,6.414-7.239
				c1.099-1.77,2.133-5.107,3.158-7.102c3.214-0.196,6.451-0.246,9.66-0.444C190.647,59.063,189.161,46.327,180.471,47.83z"/>
		</g>
		<g>
			<path style="fill:#E0DFE6;" d="M191.209,82.183c-0.092-1.729-1.259-3.223-3.032-3.434c-1.588-0.189-3.525,0.769-3.836,2.504
				c-0.349,1.946-0.64,3.908-1.136,5.823c-0.647,2.498,1.003,5.002,3.561,5.346c2.265,0.304,5.187-1.591,4.853-4.207
				C191.364,86.216,191.316,84.195,191.209,82.183z"/>
		</g>
		<g>
			<path style="fill:#E0DFE6;" d="M124.718,56.856c-1.553-1.2-3.583-0.984-5.021,0.299c-1.771,1.58-3.618,3.139-4.922,5.147
				c-1.677,2.583-0.235,6.111,2.44,7.24c2.801,1.182,6.049-0.347,6.887-3.307c0.25-0.882,0.406-1.785,0.667-2.665
				c0.064-0.214,0.131-0.428,0.203-0.64c0.239-0.355,0.473-0.754,0.73-1.141C126.759,60.201,126.143,57.957,124.718,56.856z"/>
		</g>
		<g>
			<path style="fill:#E0DFE6;" d="M30.073,87.33c-2.635,0-5.16,2.317-5.038,5.038c0.122,2.729,2.213,5.038,5.038,5.038
				c2.635,0,5.16-2.317,5.038-5.038C34.988,89.639,32.897,87.33,30.073,87.33z"/>
		</g>
		<g>
			<path style="fill:#E0DFE6;" d="M118.154,102.564c-0.203-1.309-1.332-2.255-2.619-2.642c-1.907-1.986-5.459-1.836-6.605,1.539
				c-0.685,2.017-0.977,4.131-0.882,6.259c0.089,1.973,1.191,3.152,2.543,3.586c0.34,0.384,0.747,0.7,1.22,0.92
				c0.019,0.272,0.037,0.543,0.058,0.818c-0.345,3.701,5.491,4.358,6.4,0.866C119.251,110.142,118.741,106.346,118.154,102.564z"/>
		</g>
		<g>
			<path style="fill:#E0DFE6;" d="M186.49,103.342c-1.237,1.361-2.474,2.722-3.697,4.095c-1.239,1.391-2.66,2.737-3.629,4.333
				c-0.185,0.305-0.292,0.615-0.355,0.923c-1.086,0.265-2.162,0.545-3.21,0.844c-2.006,0.574-1.639,3.679,0.496,3.667
				c3.66-0.021,7.565-0.254,11.168-0.9c2.69-0.483,2.237-4.93-0.338-5.029c1.062-1.747,2.034-3.569,3.055-5.24
				C191.279,103.91,188.208,101.45,186.49,103.342z"/>
		</g>
		<g>
			<g>
				<path style="fill:#525D7D;" d="M2.159,155.219c-1.192,0-2.159-0.967-2.159-2.159c0-25.546,17.032-41.747,24.222-41.747
					c0.694,0,1.345,0.103,1.92,0.193c0.402,0.063,0.783,0.122,1.034,0.122c0.254-0.106,0.897-1.186,0.897-2.7
					c0-3.157-0.789-3.393-3.4-4.176c-5.826-1.747-11.055-4.785-11.055-22.518c0-2.943,0.122-5.887,0.24-8.733l0.11-2.762
					c0.045-1.191,1.013-2.12,2.238-2.078c1.192,0.044,2.121,1.046,2.078,2.238l-0.111,2.782c-0.117,2.801-0.236,5.698-0.236,8.553
					c0,15.989,4.238,17.261,7.978,18.381c2.733,0.821,6.477,1.943,6.477,8.313c0,3.402-1.827,7.018-5.215,7.018
					c-0.589,0-1.155-0.089-1.702-0.174c-0.461-0.073-0.895-0.141-1.252-0.141c-4.262,0-19.904,13.626-19.904,37.429
					C4.318,154.252,3.351,155.219,2.159,155.219z"/>
			</g>
			<g>
				<path style="fill:#525D7D;" d="M30.483,93.85c-2.772,0-4.709-2.54-4.709-6.178c0-2.045,0.644-4.241,1.912-6.524
					c0.581-1.043,1.896-1.417,2.936-0.839c1.043,0.579,1.418,1.895,0.839,2.936c-0.895,1.611-1.369,3.142-1.369,4.426
					c0,1.054,0.319,1.766,0.481,1.896c1.175-0.231,2.269,0.509,2.499,1.678c0.232,1.169-0.566,2.286-1.736,2.517
					C31.042,93.822,30.757,93.85,30.483,93.85z"/>
			</g>
			<g>
				<path style="fill:#525D7D;" d="M55.435,124.96c-5.354,0-11.086-4.753-11.086-11.828c0-6.893,3.452-11.401,6.789-15.761
					c3.619-4.727,7.363-9.616,7.363-18.211c0-15.84-12.884-23.055-24.854-23.055c-8.278,0-16.7,3.195-22.527,8.545
					c-0.877,0.805-2.242,0.751-3.05-0.129c-0.807-0.879-0.749-2.245,0.129-3.05c6.604-6.064,16.116-9.683,25.448-9.683
					c20.043,0,29.173,14.19,29.173,27.373c0,10.059-4.384,15.784-8.252,20.837c-3.165,4.135-5.899,7.706-5.899,13.136
					c0,4.835,4.002,7.51,6.768,7.51c1.192,0,2.159,0.967,2.159,2.159C57.594,123.993,56.627,124.96,55.435,124.96z"/>
			</g>
			<g>
				<path style="fill:#525D7D;" d="M59.056,86.683c-0.517,0-1.036-0.184-1.449-0.558c-8.886-8.04-11.706-12.715-12.379-15.655
					c-1.822,0.252-4.886,0.524-9.99,0.524c-7.829,0-15.925-3.047-22.795-8.581c-0.928-0.748-1.074-2.107-0.326-3.036
					c0.746-0.926,2.109-1.075,3.036-0.326c6.105,4.917,13.237,7.626,20.085,7.626c7.278,0,10.022-0.559,11.055-0.77
					c0.623-0.127,1.671-0.337,2.543,0.541c0.569,0.576,0.759,1.326,0.565,2.228c-0.077,0.36-0.423,3.819,11.105,14.247
					c0.884,0.8,0.952,2.165,0.152,3.05C60.231,86.444,59.644,86.683,59.056,86.683z"/>
			</g>
			<g>
				<path style="fill:#525D7D;" d="M35.262,129.985c-4.488,0-6.837-4.234-6.837-8.417c0-0.956,0.122-1.871,0.365-2.721
					c0.326-1.148,1.525-1.809,2.668-1.484c1.147,0.326,1.812,1.521,1.484,2.668c-0.131,0.458-0.2,0.991-0.2,1.538
					c0,1.584,0.685,4.099,2.519,4.099c4.238,0,4.567-4.57,4.567-5.97c0-1.192,0.967-2.159,2.159-2.159
					c1.192,0,2.159,0.967,2.159,2.159C44.147,125.851,40.576,129.985,35.262,129.985z"/>
			</g>
			<g>
				<path style="fill:#525D7D;" d="M33.793,169.687c-0.06,0-0.122-0.003-0.183-0.008c-0.652-0.055-1.242-0.402-1.608-0.945
					c-2.745-4.074-5.697-8.004-8.773-11.678c-0.437-0.523-0.602-1.221-0.444-1.885l0.647-2.721c1.98-8.33,3.853-16.199,5.58-24.405
					c0.245-1.167,1.393-1.916,2.558-1.667c1.167,0.246,1.913,1.39,1.667,2.558c-1.739,8.26-3.617,16.155-5.606,24.513l-0.396,1.671
					c2.383,2.894,4.689,5.933,6.882,9.068c1.179-1.091,2.394-2.12,3.583-3.126c1.206-1.022,2.444-2.071,3.614-3.163
					c-3.315-8.676-5.119-18.544-5.365-29.359c-0.027-1.192,0.918-2.18,2.11-2.208c1.23-0.001,2.181,0.919,2.208,2.11
					c0.246,10.861,2.125,20.684,5.586,29.198c0.327,0.804,0.141,1.726-0.475,2.34c-1.576,1.573-3.26,2.998-4.887,4.377
					c-1.833,1.552-3.563,3.018-5.138,4.664C34.944,169.448,34.379,169.687,33.793,169.687z"/>
			</g>
			<g>
				<path style="fill:#525D7D;" d="M41.473,120.563c-0.101,0-0.205-0.007-0.308-0.021c-0.929-0.133-1.857-0.298-2.786-0.464
					c-1.986-0.356-3.863-0.69-5.697-0.69c-0.628,0-1.207,0.039-1.771,0.119c-1.175,0.159-2.274-0.654-2.441-1.834
					c-0.167-1.179,0.654-2.273,1.834-2.442c0.766-0.108,1.545-0.162,2.378-0.162c2.217,0,4.372,0.385,6.456,0.756
					c0.88,0.157,1.758,0.315,2.637,0.44c1.181,0.17,2.002,1.264,1.833,2.443C43.454,119.786,42.53,120.563,41.473,120.563z"/>
			</g>
			<g>
				<path style="fill:#525D7D;" d="M50.007,170.736c-0.055,0-0.11-0.001-0.166-0.006c-1.189-0.09-2.079-1.127-1.99-2.317
					c0.406-5.378,1.725-19.173,5.184-31.057c4.18-14.36,10.198-21.641,17.884-21.641c0.115,0,0.685,0.025,1.511,0.066
					c1.976,0.097,5.656,0.277,7.558,0.277c11.968,0,17.509-4.664,17.84-15.087c-12.822-3.277-17.431-18.906-17.431-31.762
					c0-2.197,0.113-4.518,0.336-6.923c-5.399-0.508-10.427-3.74-10.427-9.474c0-3.53,1.705-5.488,3.354-7.381
					c2.027-2.328,4.123-4.736,4.123-11.306c0-1.213-0.051-2.443-0.101-3.684c-0.055-1.319-0.108-2.65-0.108-3.982
					c0-12.76,7.638-18.571,14.735-18.571c1.054,0,2.104,0.131,3.137,0.392C98.671,4.712,107.478,0,116.984,0
					c7.141,0,25.927,8.76,25.927,28.487c0,3.632-0.479,7.301-0.943,10.847c-0.083,0.634-0.166,1.267-0.246,1.899
					c3.823,1.356,6.272,4.606,6.272,8.573c0,2.818-2.835,6.193-6.841,10.652c-0.27,0.301-0.533,0.593-0.783,0.874
					c0.035,0.78,0.075,1.563,0.115,2.347c0.118,2.321,0.24,4.721,0.24,7.089c0,23.821-17.156,27.123-24.482,28.532
					c-1.226,0.236-2.494,0.481-2.966,0.694c-1.088,0.496-2.366,0.014-2.858-1.073c-0.493-1.085-0.014-2.366,1.072-2.858
					c0.939-0.427,2.196-0.669,3.936-1.004c7.332-1.411,20.979-4.037,20.979-24.292c0-2.258-0.119-4.602-0.235-6.869
					c-0.056-1.089-0.111-2.177-0.155-3.258c-0.021-0.551,0.169-1.091,0.533-1.507c0.42-0.482,0.893-1.007,1.39-1.56
					c1.707-1.9,5.703-6.349,5.735-7.769c0-2.468-1.833-4.363-4.671-4.825c-1.137-0.186-1.928-1.231-1.798-2.376
					c0.145-1.272,0.312-2.55,0.479-3.829c0.446-3.41,0.907-6.937,0.907-10.288c0-16.897-16.4-24.169-21.609-24.169
					c-9.986,0-17.762,5.666-18.628,7.149c-0.173,0.548-0.558,1.007-1.071,1.271c-0.552,0.284-1.2,0.316-1.778,0.09
					c-1.047-0.412-2.124-0.621-3.199-0.621c-5.185,0-10.417,4.407-10.417,14.253c0,1.273,0.052,2.546,0.104,3.806
					c0.053,1.299,0.105,2.588,0.105,3.86c0,8.186-2.997,11.628-5.184,14.141c-1.549,1.778-2.293,2.714-2.293,4.546
					c0,4.134,4.982,5.226,7.616,5.226c0.188,0,0.454-0.01,0.765-0.027c0.617-0.045,1.259,0.209,1.698,0.676
					c0.437,0.465,0.647,1.101,0.571,1.736c-0.37,3.087-0.558,6.043-0.558,8.785c0,11.745,4.088,26.091,15.61,27.87
					c1.04,0.16,1.812,1.046,1.83,2.097l0.007,0.782c0,13.549-7.46,20.418-22.174,20.418c-2.007,0-5.756-0.184-7.769-0.283
					c-0.69-0.034-1.178-0.058-1.318-0.06c-11.116,0-17.048,26.238-18.743,48.707C52.072,169.873,51.124,170.736,50.007,170.736z
					 M98.392,11.342l-0.001,0.003L98.392,11.342z"/>
			</g>
			<g>
				<path style="fill:#525D7D;" d="M165.349,174.615c-1.179,0-2.142-0.946-2.159-2.128l-0.007-0.938
					c0-3.174,0.23-6.564,0.474-10.153c0.254-3.732,0.516-7.59,0.516-11.334c0-22.968-11.613-24.746-23.909-26.627
					c-9.311-1.425-19.864-3.04-19.864-17.087c0-3.939,0.838-7.98,1.467-10.677c0.271-1.161,1.43-1.884,2.593-1.612
					c1.161,0.271,1.884,1.432,1.612,2.593c-0.582,2.491-1.355,6.204-1.355,9.696c0,9.858,5.853,11.234,16.2,12.818
					c12.285,1.881,27.573,4.22,27.573,30.896c0,3.889-0.267,7.822-0.526,11.626c-0.239,3.514-0.464,6.833-0.464,9.86l0.007,0.876
					C167.525,173.619,166.572,174.598,165.349,174.615z"/>
			</g>
			<g>
				<path style="fill:#525D7D;" d="M104.801,130.681c-1.636,0-3.007-0.181-4.078-0.537c-2.572-0.856-2.851-2.616-2.851-3.333
					c0-0.952-0.032-1.903-0.063-2.856c-0.034-0.999-0.066-1.999-0.066-2.998c0-2.34,0.181-4.158,0.59-5.892
					c0.271-1.16,1.434-1.882,2.596-1.607c1.161,0.273,1.879,1.435,1.607,2.596c-0.058,0.245-0.11,0.493-0.156,0.748
					c2.837-0.58,5.142-1.423,7.048-2.12c2.986-1.091,5.347-1.954,7.332-0.567c1.965,1.375,2.36,4.318,2.36,8.624
					C119.12,128.524,110.337,130.681,104.801,130.681z M102.191,126.811h0.014H102.191z M102.185,126.094
					c1.743,0.537,7.307,0.367,10.836-1.525c0.536-0.287,1.781-1.039,1.781-1.83c0-3.541-0.333-4.674-0.512-5.027
					c-0.613,0.014-2.137,0.571-3.379,1.025c-2.183,0.798-5.136,1.878-8.848,2.518c0.006,0.852,0.034,1.705,0.062,2.558
					C102.15,124.573,102.176,125.334,102.185,126.094z"/>
			</g>
			<g>
				<path style="fill:#525D7D;" d="M109.343,193.723c-0.645-0.014-1.212-0.274-1.611-0.721c-4.461-4.997-10.757-12.097-15.41-17.548
					c-0.444-0.52-0.616-1.22-0.462-1.886c3.664-15.916,6.292-29.345,7.197-43.152c0.079-1.189,1.087-2.08,2.297-2.013
					c1.189,0.079,2.09,1.106,2.013,2.297c-0.905,13.784-3.47,27.117-7.055,42.775c4.02,4.686,9.079,10.407,13.117,14.941
					c2.553-2.519,5.216-4.941,7.808-7.297c2.839-2.581,5.767-5.242,8.522-8.011c-6.837-16.128-11.169-30.719-13.236-44.557
					c-0.176-1.179,0.637-2.279,1.816-2.454c1.169-0.181,2.277,0.637,2.454,1.816c2.068,13.847,6.484,28.509,13.501,44.824
					c0.344,0.801,0.174,1.73-0.433,2.356c-3.135,3.236-6.484,6.279-9.721,9.222c-3.102,2.818-6.31,5.734-9.252,8.756
					C110.483,193.489,109.925,193.723,109.343,193.723z"/>
			</g>
			<g>
				<path style="fill:#525D7D;" d="M70.952,172.546c-0.894,0-1.729-0.558-2.04-1.451c-1.136-3.267-1.664-7.037-1.664-11.862
					c0-2.099,0.093-4.186,0.183-6.206l0.07-1.608c0.048-1.191,1.035-2.148,2.246-2.069c1.192,0.049,2.118,1.056,2.069,2.246
					l-0.072,1.624c-0.087,1.972-0.178,4.012-0.178,6.013c0,4.328,0.453,7.647,1.425,10.445c0.391,1.126-0.204,2.356-1.331,2.748
					C71.426,172.508,71.187,172.546,70.952,172.546z"/>
			</g>
			<g>
				<path style="fill:#525D7D;" d="M144.917,173.839c-0.28,0-0.566-0.055-0.841-0.172c-1.098-0.464-1.611-1.732-1.146-2.83
					c0.323-0.765,0.488-1.456,0.488-2.056c0-3.541-6.685-4.388-8.026-4.523c-1.186-0.118-2.052-1.177-1.933-2.363
					c0.118-1.186,1.165-2.072,2.363-1.933c7.46,0.745,11.914,4.043,11.914,8.819c0,1.181-0.28,2.44-0.831,3.74
					C146.557,173.346,145.759,173.839,144.917,173.839z"/>
			</g>
			<g>
				<path style="fill:#525D7D;" d="M80.52,44.269c-0.992,0-1.886-0.687-2.107-1.697c-0.256-1.164,0.481-2.315,1.646-2.571
					c7.247-1.591,13.508-7.984,16.745-17.102c0.215-0.609,0.693-1.089,1.302-1.309c0.607-0.218,1.283-0.155,1.839,0.177
					c2.919,1.742,6.346,2.624,10.185,2.624c8.004,0,17.639-4.029,24.548-10.264c0.884-0.798,2.249-0.73,3.049,0.156
					c0.8,0.886,0.729,2.25-0.156,3.049c-6.093,5.5-16.502,11.377-27.441,11.377c-3.695,0-7.099-0.694-10.153-2.066
					c-3.958,9.308-10.927,15.805-18.993,17.575C80.828,44.254,80.674,44.269,80.52,44.269z"/>
			</g>
			<g>
				<path style="fill:#525D7D;" d="M96.491,51.293c-2.094,0-3.932-1.907-3.932-4.081c0-2.017,1.351-3.649,3.211-3.882
					c2.568-0.297,4.858,1.659,4.858,3.934C100.628,49.57,98.444,51.293,96.491,51.293z M96.379,47.602
					c0.278-0.074,0.477-0.288,0.499-0.395c0-0.083-0.024-0.135-0.031-0.143c-0.022-0.022-0.152-0.089-0.356-0.089
					c-0.077,0-0.135,0.01-0.167,0.018c0.018,0.006,0.004,0.058-0.006,0.14l-0.28-1.661l0.268,2.142
					C96.331,47.612,96.355,47.607,96.379,47.602z"/>
			</g>
			<g>
				<path style="fill:#525D7D;" d="M125.444,48.489c-1.792,0-3.196-1.453-3.196-3.309c0-1.503,0.949-3.026,2.307-3.707
					c0.827-0.419,1.834-0.256,2.494,0.403c0.101,0.1,0.215,0.2,0.327,0.301c0.637,0.565,1.598,1.42,1.598,2.778
					c0,0.476-0.157,0.937-0.444,1.311C128.313,47.353,127.592,48.489,125.444,48.489z M126.299,44.955l0.19,0.378
					c0.045-0.023,0.069-0.042,0.074-0.048c0.001-0.115-0.017-0.226-0.051-0.33H126.299z"/>
			</g>
			<g>
				<path style="fill:#525D7D;" d="M115.695,65.217c-0.846,0-1.649-0.499-1.995-1.33c-0.458-1.101,0.062-2.364,1.164-2.822
					c1.334-0.555,2.693-2.383,2.693-3.62c0-0.235-0.096-0.413-0.188-0.527c-0.174,0.096-0.389,0.226-0.552,0.326
					c-0.828,0.503-1.96,1.193-3.351,1.193c-2.827,0-7.034-3.008-7.034-11.293c0-1.141,0.059-2.236,0.125-3.351
					c0.07-1.191,1.112-2.113,2.281-2.028c1.19,0.07,2.099,1.091,2.028,2.281c-0.058,0.987-0.117,2.04-0.117,3.098
					c0,5.513,2.193,6.921,2.735,6.975c0.183-0.014,0.746-0.359,1.084-0.564c0.776-0.472,1.74-1.06,2.911-1.06
					c2.075,0,4.395,2.117,4.395,4.949c0,2.965-2.401,6.377-5.353,7.606C116.252,65.164,115.971,65.217,115.695,65.217z
					 M117.625,56.799L117.625,56.799L117.625,56.799z"/>
			</g>
			<g>
				<path style="fill:#525D7D;" d="M105.965,81.572c-4.727,0-8.468-3.518-10.077-7.004c-0.499-1.082-0.027-2.366,1.056-2.866
					c1.087-0.502,2.364-0.028,2.866,1.056c1,2.166,3.352,4.497,6.155,4.497c0.304,0,0.61-0.028,0.911-0.086
					c1.171-0.221,2.301,0.551,2.522,1.723c0.219,1.172-0.552,2.301-1.723,2.522C107.111,81.518,106.536,81.572,105.965,81.572z"/>
			</g>
			<g>
				<path style="fill:#525D7D;" d="M55.434,117.201c-1.132,0-2.083-0.881-2.153-2.026c-0.039-0.634-0.062-1.286-0.062-1.947
					c0-5.188,1.364-9.18,4.052-11.868c0.843-0.843,2.21-0.843,3.053,0c0.843,0.843,0.843,2.211,0,3.053
					c-1.85,1.848-2.787,4.814-2.787,8.815c0,0.571,0.02,1.133,0.053,1.68c0.073,1.191-0.831,2.215-2.021,2.288
					C55.524,117.199,55.478,117.201,55.434,117.201z"/>
			</g>
			<g>
				<path style="fill:#525D7D;" d="M131.31,112.919c-0.874,0-1.698-0.534-2.023-1.401c-0.616-1.646-0.928-3.347-0.928-5.053
					c0-3.664,1.436-6.899,4.044-9.106c0.909-0.769,2.273-0.655,3.043,0.254c0.77,0.909,0.657,2.273-0.254,3.043
					c-1.622,1.372-2.515,3.435-2.515,5.808c0,1.188,0.221,2.378,0.654,3.538c0.419,1.117-0.148,2.361-1.264,2.779
					C131.818,112.875,131.562,112.919,131.31,112.919z"/>
			</g>
			<g>
				<path style="fill:#525D7D;" d="M206.943,140.945c-0.096,0-0.191-0.006-0.288-0.02c-1.182-0.157-2.013-1.243-1.854-2.425
					c0.268-2.013,0.791-4.141,1.345-6.394c0.798-3.244,1.623-6.601,1.623-9.523c0-6.667-3.435-7.257-9.508-7.727
					c-4.474-0.346-10.601-0.819-10.601-7.857c0-3.541,2.726-6.511,5.361-9.383c1.268-1.382,2.466-2.688,3.275-3.953
					c1.344-2.099,1.344-8.261,1.344-10.58c0-7.784-1.514-33.181-20.993-33.181c-11.966,0-17.071,6.791-17.071,22.707
					c0,2.107-1.303,3.516-2.349,4.647c-0.879,0.95-1.417,1.567-1.417,2.271c0,0.453,0.076,0.606,0.076,0.607
					c0.136,0.045,0.936,0.1,1.465,0.136c2.158,0.15,6.647,0.461,6.647,6.999l-0.01,1.421c0,3.74,1.839,4.841,5.087,6.466
					c3.029,1.514,6.8,3.4,6.8,8.926c0,5.228-3.739,8.605-9.526,8.605c-2.142,0-4.404-0.47-6.4-0.883
					c-1.594-0.33-3.1-0.642-4.173-0.642c-5.94,0-9.825,7.136-11.221,10.205c-0.493,1.087-1.774,1.567-2.859,1.071
					c-1.085-0.493-1.564-1.772-1.071-2.859c1.74-3.829,6.702-12.735,15.151-12.735c1.517,0,3.233,0.356,5.05,0.732
					c1.879,0.389,3.823,0.793,5.523,0.793c2.376,0,5.208-0.744,5.208-4.287c0-2.735-1.432-3.573-4.414-5.065
					c-3.154-1.576-7.474-3.736-7.474-10.327l0.01-1.421c0-2.508-0.453-2.54-2.627-2.69c-1.664-0.115-5.561-0.385-5.561-5.052
					c0-2.43,1.482-4.033,2.564-5.204c0.59-0.638,1.202-1.299,1.202-1.715c0-27.025,16.099-27.025,21.389-27.025
					c18.663,0,25.311,19.371,25.311,37.5c0,5.062-0.245,10.129-2.024,12.908c-1.012,1.58-2.395,3.087-3.732,4.544
					c-2.076,2.263-4.224,4.604-4.224,6.463c0,2.558,1.051,3.123,6.616,3.553c5.372,0.415,13.493,1.043,13.493,12.031
					c0,3.447-0.888,7.061-1.749,10.555c-0.524,2.135-1.021,4.154-1.259,5.933C208.935,140.156,208.009,140.945,206.943,140.945z"/>
			</g>
			<g>
				<path style="fill:#525D7D;" d="M159.918,76.597c-0.874,0-1.697-0.534-2.021-1.402c-0.419-1.116,0.148-2.36,1.264-2.779
					c5.325-1.997,9.497-7.628,9.497-12.821l-0.003-0.357c-0.008-0.564-0.025-1.736,1.097-2.414c1.115-0.672,2.151-0.11,2.492,0.075
					c0.432,0.235,1.58,0.857,4.603,0.857c3.835,0,8.012-1.574,11.764-4.433c0.947-0.722,2.301-0.541,3.026,0.409
					c0.723,0.949,0.54,2.304-0.409,3.026c-4.499,3.428-9.608,5.316-14.381,5.316c-1.695,0-2.997-0.159-4.024-0.394
					c-0.915,6.296-5.83,12.41-12.146,14.777C160.427,76.554,160.169,76.597,159.918,76.597z"/>
			</g>
			<g>
				<path style="fill:#525D7D;" d="M185.78,93.407c-0.905,0-1.747-0.572-2.048-1.477c-0.377-1.131,0.235-2.354,1.366-2.73
					c1.193-0.398,1.702-0.753,1.905-0.936c-0.169-0.436-0.467-1.134-0.718-1.725c-1.493-3.494-2.728-6.569-2.728-8.791
					c0-0.416,0.027-0.838,0.083-1.264c0.156-1.182,1.244-2.011,2.422-1.86c1.182,0.156,2.014,1.24,1.86,2.422
					c-0.031,0.237-0.046,0.471-0.046,0.701c0,1.519,1.549,5.146,2.381,7.094c0.894,2.096,1.153,2.731,1.153,3.434
					c0,2.239-1.664,3.929-4.946,5.02C186.235,93.372,186.005,93.407,185.78,93.407z"/>
			</g>
			<g>
				<path style="fill:#525D7D;" d="M215.522,140.994c-1.192,0-2.159-0.967-2.159-2.159c0-4.994,0-10.16,1.652-15.392
					c0.36-1.136,1.572-1.764,2.71-1.408c1.136,0.36,1.767,1.573,1.408,2.71c-1.452,4.596-1.452,9.208-1.452,14.09
					C217.681,140.027,216.714,140.994,215.522,140.994z"/>
			</g>
			<g>
				<path style="fill:#525D7D;" d="M180.446,126.545c-6.058,0-6.429-7.42-6.587-10.589c-0.02-0.375-0.036-0.717-0.058-1.008
					c-0.091-1.189,0.798-2.228,1.986-2.318c1.171-0.111,2.228,0.797,2.318,1.986c0.025,0.325,0.045,0.706,0.066,1.125
					c0.169,3.368,0.561,6.486,2.274,6.486c0.436,0,4.474-0.808,4.474-3.5c0-0.732-0.121-1.557-0.249-2.432
					c-0.135-0.924-0.274-1.879-0.274-2.806c0-1.192,0.967-2.159,2.159-2.159c1.192,0,2.159,0.967,2.159,2.159
					c0,0.613,0.111,1.375,0.229,2.182c0.145,0.988,0.294,2.009,0.294,3.056C189.238,124.296,183.033,126.545,180.446,126.545z"/>
			</g>
			<g>
				<path style="fill:#525D7D;" d="M181.527,165.547c-0.516,0-1.019-0.186-1.413-0.526l-0.679-0.588
					c-3.365-2.908-6.846-5.916-9.939-9.249c-0.433-0.467-0.638-1.099-0.561-1.732c1.226-9.998,2.482-19.779,4.381-29.514
					c0.23-1.169,1.372-1.926,2.533-1.707c1.171,0.229,1.934,1.364,1.706,2.533c-1.81,9.272-3.035,18.639-4.211,28.207
					c2.456,2.558,5.19,4.969,7.887,7.307c1.574-1.907,3.264-3.718,4.913-5.483l0.527-0.567c-3.463-9.99-4.195-20.713-4.601-30.041
					c-0.051-1.192,0.873-2.2,2.063-2.252c1.25-0.084,2.2,0.873,2.252,2.063c0.409,9.392,1.15,20.23,4.785,29.982
					c0.285,0.763,0.115,1.622-0.437,2.221l-1.434,1.541c-2.18,2.333-4.238,4.539-6.049,6.944c-0.36,0.478-0.901,0.784-1.495,0.848
					C181.678,165.543,181.602,165.547,181.527,165.547z"/>
			</g>
		</g>
	</g>
</g>
<g id="Layer_1">
</g>
</svg>
