<?xml version="1.0" encoding="iso-8859-1"?>
<!-- Generator: Adobe Illustrator 21.0.2, SVG Export Plug-In . SVG Version: 6.00 Build 0)  -->
<svg version="1.1" xmlns="http://www.w3.org/2000/svg" xmlns:xlink="http://www.w3.org/1999/xlink" x="0px" y="0px"
	 viewBox="0 0 204.572 198.025" style="enable-background:new 0 0 204.572 198.025;" xml:space="preserve">
<g id="_x36_2">
	<g>
		<path style="fill:#E0DFE6;" d="M204.454,132.387c-0.746-9.632-3.882-16.416-9.962-23.557c-0.655-0.769-2.035-0.347-2.255,0.595
			c-1.45,6.211-1.967,11.488-2.205,17.931c-0.263,7.139-1.837,13.872-6.23,19.624c-6.93,9.074-16.846,15.529-25.956,22.317
			c-3.987,1.299-8.066,2.26-12.129,2.635c-15.409,1.423-31.873-5.873-42.115-17.307c-1.264-1.412-3.456,0.092-3.045,1.772
			c1.11,4.534,2.911,8.725,5.26,12.496c-0.543,0.621-0.979,1.323-1.228,2.051c-0.208,0.607-0.357,1.202-0.48,1.793
			c-11.879-0.213-23.775-0.305-35.649-0.274c-6.489,0.017-12.95,0.101-19.436,0.305c-6.306,0.199-12.077,1.584-18.21,2.459
			c-0.692,0.099-0.59,1.134,0,1.301c5.718,1.619,10.845,3.607,16.823,4.404c6.938,0.926,13.839,1.628,20.823,2.094
			c12.685,0.847,25.502,1.073,38.224,0.745c4.315,6.07,12.646,10.34,18.972,12.146c13.544,3.868,28.672,2.206,41.471-3.334
			c20.344-8.805,38.74-28.519,36.895-50.663C204.555,138.801,204.703,135.602,204.454,132.387z"/>
		<path style="fill:#E0DFE6;" d="M173.643,34.602c-0.336-5.631-8.603-7.245-10.152-1.374c-0.991,3.756-0.033,7.205-0.379,10.941
			c-0.05,0.541-0.17,1.018-0.332,1.457c-0.621-0.303-1.35-0.473-2.219-0.418c-49.52,3.177-100.123,2.39-149.101,10.384
			c-0.637,0.104-0.423,1.015,0.144,1.06c8.806,0.698,17.641,1.103,26.494,1.308c-7.96,8.806-4.893,28.28-4.161,37.879
			c0.822,10.784,1.54,21.583,2.481,32.358c0.709,8.112,0.753,18.832,6.398,25.139c1.734,1.938,4.127,1.479,5.66,0
			c0.349,0.515,0.711,1.023,1.088,1.524c1.431,1.9,3.192,2.713,5.558,2.262l0.952-0.181c1.047-0.2,1.813-1.165,2.121-2.121
			c1.189-3.7-0.774-5.411-2.616-8.449c-2.043-3.369-3.247-7.128-4.086-10.955c-2.008-9.159-1.687-18.827-1.913-28.147
			c-0.378-15.571-4.132-34.901,3.565-49.154c12.884-0.013,25.796-0.37,38.71-0.866c-10.675,12.384-3.437,28.227-4.667,43.311
			c-0.056,0.691,0.026,1.316,0.167,1.907c-1.974,4.241-1.093,10.287-0.718,14.621c0.467,5.384,1.674,8.754,4.255,12.453
			c0.022,2.582,0.044,5.164,0.044,7.746c0,5.804-1.52,12.118,1.375,17.314c1.06,1.904,4.223,2.051,5.243,0
			c2.625-5.279,0.762-11.226-0.171-16.874c-0.568-3.436-1.301-6.823-2.153-10.18c0.164-0.585,0.303-1.185,0.384-1.826
			c0.409-3.242,0.061-6.465,0.064-9.717c0.003-2.801,0.65-6.031,0.695-9.085c1.209,1.144,3.312,0.49,4.113-0.777
			c4.418-6.985,2.178-16.287,1.754-24.123c-0.26-4.794-0.406-8.798,1.718-13.268c1.805-3.799,3.694-6.245,4.377-10.507
			c0.088-0.552,0.022-1.127-0.151-1.672c12.296-0.535,24.581-1.095,36.831-1.499c-3.413,7.01-3.559,16.945-1.205,22.632
			c2.574,6.216,10.857,5.345,12.227-0.012c3.141,0.045,6.341-1.944,6.379-5.984c0.035-3.707-0.069-7.969,2.423-10.97
			c2.176-2.621,5.612-3.801,7.735-6.594C177.455,47.724,174.064,41.671,173.643,34.602z"/>
		<path style="fill:#E0DFE6;" d="M88.877,12.806c2.946-2.495-0.196-7.572-3.742-6.428C74.123,9.931,63.842,17.856,54.058,23.904
			c-6.065,3.749-12.569,8.84-19.348,12.736c-6.884,0.905-13.538,2.524-13.026,5.686c0.609,3.763,6.376,4.509,9.382,4.962
			c6.457,0.975,12.788,0.64,19.252-0.038c8.676-0.911,7.164-13.241-1.611-11.904c-0.375,0.057-0.992,0.114-1.776,0.176
			c2.374-1.271,4.698-2.54,6.958-3.663C65.417,26.13,79.021,21.154,88.877,12.806z"/>
		<path style="fill:#E0DFE6;" d="M103.508,27.448c-2.111-5.342-10.777-5.136-10.666,1.443c0.066,3.899-1.057,7.588-5.538,8.142
			c-4.051,0.5-8.605-0.684-12.663-1.043c-0.336-0.03-0.713,0.335-0.675,0.675c0.969,8.564,10.335,12.253,18.075,10.103
			C99.706,44.638,106.696,35.514,103.508,27.448z"/>
		<g>
			<g>
				<path style="fill:#525D7D;" d="M2.468,57.057c-0.536,0-1.054-0.2-1.453-0.562c-0.428-0.39-0.682-0.935-0.705-1.514l2.158-0.084
					l-2.158,0.079C0.169,51.325,0.023,47.548,0,43.806c-0.005-0.864,0.505-1.647,1.295-1.993
					C24.675,31.613,47.444,19.401,69.464,7.593c4.572-2.452,9.143-4.904,13.723-7.34c0.554-0.294,1.212-0.333,1.796-0.107
					l79.222,30.773c0.816,0.317,1.359,1.095,1.377,1.969c0.06,2.95,0.149,5.918,0.239,8.891c0.068,2.25,0.136,4.502,0.191,6.752
					c0.014,0.576-0.203,1.135-0.603,1.55c-0.401,0.415-0.95,0.654-1.526,0.661c-56.106,0.74-113.019,3.606-161.292,6.311
					C2.549,57.056,2.508,57.057,2.468,57.057z M4.332,45.198c0.035,2.473,0.117,4.967,0.209,7.422
					c47.214-2.636,102.468-5.391,157.096-6.165c-0.042-1.515-0.088-3.031-0.134-4.546c-0.075-2.502-0.15-5-0.208-7.487L84.342,4.529
					c-4.284,2.281-8.56,4.575-12.837,6.869C49.819,23.028,27.409,35.046,4.332,45.198z"/>
			</g>
			<g>
				<path style="fill:#525D7D;" d="M84.515,42.222c-0.389,0-0.777-0.015-1.167-0.047c-6.762-0.55-12.634-7.181-12.566-14.191
					c0.074-7.063,5.382-12.937,12.349-13.663c0.573-0.061,1.144-0.096,1.713-0.105c8.201-0.065,14.373,5.356,14.704,12.989
					c0.168,3.869-1.482,7.77-4.528,10.702C92.137,40.684,88.362,42.222,84.515,42.222z M85.095,18.532
					c-0.064,0-0.127,0.001-0.192,0.001c-0.437,0.006-0.876,0.034-1.317,0.081c-0.002,0-0.003,0-0.003,0
					c-4.785,0.499-8.432,4.546-8.482,9.413c-0.051,5.229,4.497,9.51,8.598,9.844c3.007,0.251,6.043-0.875,8.328-3.075
					c2.153-2.073,3.323-4.772,3.209-7.404C95.004,22.074,90.938,18.532,85.095,18.532z"/>
			</g>
			<g>
				<path style="fill:#525D7D;" d="M40.003,39.529c-1.218,0-2.347-0.034-3.451-0.103c-1.19-0.075-2.094-1.101-2.019-2.29
					c0.075-1.191,1.094-2.078,2.29-2.019c1.013,0.064,2.054,0.095,3.18,0.095c3.229,0,6.555-0.267,9.773-0.526
					c3.302-0.266,6.717-0.54,10.118-0.54c1.193,0,2.159,0.966,2.159,2.159s-0.966,2.159-2.159,2.159
					c-3.229,0-6.555,0.267-9.773,0.526C46.82,39.255,43.405,39.529,40.003,39.529z"/>
			</g>
			<g>
				<path style="fill:#525D7D;" d="M111.61,35.663c-1.234,0-2.381-0.034-3.506-0.105c-1.19-0.074-2.094-1.1-2.02-2.29
					c0.074-1.191,1.113-2.097,2.29-2.02c3.406,0.212,7.396-0.003,11.088-0.241c2.639-0.17,5.368-0.346,8.13-0.346
					c1.233,0,2.38,0.034,3.505,0.105c1.19,0.075,2.094,1.1,2.02,2.29c-0.074,1.191-1.122,2.097-2.29,2.02
					c-3.407-0.214-7.396,0.002-11.087,0.241C117.102,35.487,114.372,35.663,111.61,35.663z"/>
			</g>
			<g>
				<path style="fill:#525D7D;" d="M12.513,160.296c-0.29,0-0.586-0.059-0.869-0.184c-1.091-0.481-1.586-1.755-1.106-2.846
					c2.565-5.828,6.325-11.532,11.802-17.895c-0.237-9.387-0.334-18.943-0.428-28.193c-0.132-13.051-0.269-26.541-0.803-39.732
					l-0.376-0.634c-3.06-5.162-5.951-10.038-9.801-14.184c-0.812-0.874-0.761-2.24,0.113-3.052c0.875-0.811,2.241-0.76,3.052,0.112
					c4.165,4.485,7.31,9.79,10.351,14.921l0.653,1.101c0.183,0.308,0.286,0.656,0.301,1.013c0.555,13.43,0.694,27.146,0.829,40.41
					c0.096,9.508,0.196,19.341,0.448,28.961c0.014,0.542-0.176,1.068-0.531,1.477c-5.483,6.282-9.187,11.823-11.656,17.434
					C14.134,159.815,13.343,160.296,12.513,160.296z"/>
			</g>
			<g>
				<path style="fill:#525D7D;" d="M53.114,160.811c-0.685,0-1.359-0.325-1.778-0.932l-12.715-18.403
					c-0.24-0.347-0.373-0.758-0.382-1.18l-1.612-74.146c-0.009-0.406,0.097-0.807,0.306-1.156c2.7-4.513,5.525-9.097,8.396-13.628
					c0.637-1.006,1.971-1.307,2.98-0.668c1.007,0.639,1.306,1.973,0.668,2.98c-2.739,4.32-5.434,8.69-8.018,12.999l1.583,72.877
					l12.346,17.871c0.678,0.981,0.432,2.326-0.549,3.003C53.964,160.688,53.537,160.811,53.114,160.811z"/>
			</g>
			<g>
				<path style="fill:#525D7D;" d="M22.315,71.409c-1.115,0-2.06-0.857-2.15-1.988c-0.095-1.189,0.792-2.229,1.981-2.324
					c5.269-0.42,10.561-0.476,15.042-0.476l1.663,0.002c1.192,0.003,2.156,0.972,2.153,2.165c-0.003,1.191-0.969,2.153-2.159,2.153
					c-0.002,0-0.003,0-0.006,0l-1.652-0.002c-4.397,0-9.582,0.055-14.699,0.462C22.43,71.407,22.371,71.409,22.315,71.409z"/>
			</g>
			<g>
				<path style="fill:#525D7D;" d="M40.715,142.866c-0.013,0-0.027,0-0.041-0.001c-2.249-0.041-4.492-0.129-6.736-0.217
					c-3.008-0.118-6.118-0.24-9.171-0.24h-0.332c-1.193,0-2.159-0.966-2.159-2.159c0-1.193,0.966-2.159,2.159-2.159h0.332
					c3.137,0,6.291,0.124,9.34,0.243c2.213,0.086,4.427,0.174,6.647,0.215c1.193,0.022,2.141,1.006,2.118,2.198
					C42.851,141.925,41.889,142.866,40.715,142.866z"/>
			</g>
			<g>
				<path style="fill:#525D7D;" d="M63.812,160.908c-0.402,0-0.808-0.112-1.171-0.347c-1.002-0.648-1.288-1.985-0.64-2.986
					c3.411-5.271,7.526-10.463,12.907-16.284l-4.548-76.088l-8.878-12.181c-0.702-0.964-0.49-2.314,0.474-3.016
					c0.964-0.702,2.314-0.491,3.016,0.474l9.25,12.692c0.243,0.334,0.385,0.73,0.411,1.143l4.641,77.641
					c0.035,0.59-0.174,1.169-0.577,1.602c-5.515,5.908-9.668,11.107-13.07,16.364C65.214,160.56,64.52,160.908,63.812,160.908z"/>
			</g>
			<g>
				<path style="fill:#525D7D;" d="M94.218,129.355c-1.151,0-2.108-0.908-2.155-2.069c-0.843-20.234-2.409-39.929-4.076-60.003
					c-0.04-0.479,0.082-0.959,0.345-1.361c3.862-5.896,7.009-11.343,9.621-16.651c0.527-1.07,1.823-1.509,2.89-0.984
					c1.07,0.526,1.51,1.82,0.984,2.89c-2.598,5.28-5.701,10.681-9.476,16.487c1.647,19.867,3.189,39.374,4.025,59.442
					c0.05,1.191-0.876,2.198-2.067,2.247C94.279,129.354,94.249,129.355,94.218,129.355z"/>
			</g>
			<g>
				<path style="fill:#525D7D;" d="M90.246,69.1c-0.006,0-0.013,0-0.019,0c-5.67-0.049-11.478-0.245-17.758-0.601
					c-1.191-0.068-2.101-1.087-2.033-2.278c0.068-1.19,1.089-2.085,2.278-2.033c6.21,0.351,11.951,0.546,17.55,0.594
					c1.193,0.011,2.151,0.985,2.141,2.177C92.394,68.145,91.43,69.1,90.246,69.1z"/>
			</g>
			<g>
				<path style="fill:#525D7D;" d="M77.054,143.197c-1.128,0-2.077-0.876-2.152-2.017c-0.079-1.19,0.822-2.218,2.012-2.296
					c6.025-0.397,12.169-0.649,18.26-0.747c1.167-0.004,2.174,0.932,2.194,2.124c0.019,1.193-0.932,2.175-2.124,2.194
					c-6.02,0.097-12.092,0.345-18.046,0.737C77.15,143.195,77.102,143.197,77.054,143.197z"/>
			</g>
			<g>
				<path style="fill:#525D7D;" d="M148.58,188.325c-15.733,0.001-30.06-5.818-40.422-16.435
					c-10.643-10.905-16.178-25.688-15.586-41.625c0.991-26.644,22.678-48.835,49.374-50.519c1.326-0.085,2.677-0.118,4.008-0.098
					l0,0c28.742,0.396,52.101,18.065,56.803,42.967c0.426,2.26,0.697,4.633,0.807,7.054c0.685,15.158-5.005,30.301-15.61,41.545
					c-10.219,10.835-23.91,16.91-38.551,17.106C149.13,188.324,148.853,188.325,148.58,188.325z M145.207,83.96
					c-0.996,0-1.998,0.032-2.987,0.096c-24.511,1.546-44.423,21.915-45.333,46.37c-0.548,14.744,4.552,28.399,14.361,38.449
					c9.707,9.946,23.279,15.317,38.098,15.127c13.461-0.18,26.057-5.774,35.466-15.751c9.808-10.398,15.07-24.39,14.437-38.386
					c-0.1-2.219-0.348-4.388-0.737-6.449c-5.037-26.675-30.807-39.149-52.619-39.45c0,0-0.001,0-0.002,0
					C145.665,83.962,145.436,83.96,145.207,83.96z"/>
			</g>
			<g>
				<path style="fill:#525D7D;" d="M128.243,86.961c-1.172,0-2.133-0.937-2.158-2.113l-0.51-24.234
					c-1.304-1.324-2.54-2.705-3.742-4.047c-1.789-1.999-3.48-3.887-5.376-5.611c-0.883-0.802-0.947-2.168-0.145-3.05
					c0.8-0.882,2.167-0.949,3.049-0.145c2.061,1.873,3.906,3.933,5.689,5.925c1.347,1.504,2.74,3.06,4.178,4.475
					c0.401,0.394,0.632,0.93,0.644,1.493l0.529,25.101c0.025,1.193-0.921,2.179-2.113,2.204
					C128.273,86.961,128.258,86.961,128.243,86.961z"/>
			</g>
			<g>
				<path style="fill:#525D7D;" d="M144.826,83.962c-1.094,0-2.033-0.829-2.145-1.942l-2.042-20.163
					c-0.054-0.533,0.092-1.066,0.409-1.498c0.842-1.143,1.704-2.276,2.567-3.411c2.26-2.972,4.598-6.045,6.524-9.282
					c0.609-1.025,1.934-1.362,2.959-0.752c1.025,0.609,1.362,1.934,0.752,2.959c-2.05,3.449-4.464,6.621-6.798,9.69
					c-0.682,0.896-1.363,1.791-2.033,2.69l1.957,19.332c0.12,1.186-0.744,2.245-1.931,2.365
					C144.972,83.958,144.899,83.962,144.826,83.962z"/>
			</g>
			<g>
				<path style="fill:#525D7D;" d="M143.641,62.652c-0.012,0-0.025,0-0.037,0c-5.279-0.087-10.571-0.122-15.846-0.052
					c-1.134,0.011-2.172-0.938-2.188-2.13c-0.016-1.193,0.938-2.172,2.13-2.188c5.317-0.07,10.652-0.036,15.975,0.052
					c1.192,0.02,2.143,1.003,2.123,2.195C145.78,61.708,144.817,62.652,143.641,62.652z"/>
			</g>
			<g>
				<path style="fill:#525D7D;" d="M136.673,157.237c-4.214,0-8.432-0.662-12.537-1.969c-1.137-0.361-1.765-1.576-1.403-2.711
					c0.361-1.137,1.579-1.764,2.711-1.403c3.681,1.171,7.46,1.765,11.229,1.765c7.583,0,21.749-3.319,21.749-11.315
					c0-3.251-1.367-4.405-9.049-4.405c-1.745,0-3.537,0.091-5.268,0.178c-1.753,0.089-3.565,0.18-5.353,0.18
					c-10.644,0-16.749-3.582-16.749-9.827c0-11.095,8.662-17.459,23.766-17.459c4.618,0,9.518,0.635,13.796,1.787
					c1.151,0.31,1.833,1.494,1.523,2.646c-0.311,1.15-1.494,1.831-2.646,1.523c-3.922-1.056-8.423-1.638-12.673-1.638
					c-7.264,0-19.448,1.707-19.448,13.141c0,5.111,9.515,5.509,12.431,5.509c1.679,0,3.358-0.085,5.136-0.174
					c1.786-0.09,3.632-0.183,5.486-0.183c5,0,13.368,0,13.368,8.723C162.74,153.416,145.178,157.237,136.673,157.237z"/>
			</g>
			<g>
				<path style="fill:#525D7D;" d="M143.532,113.883c-1.193,0-2.159-0.966-2.159-2.159c0-2.061-0.156-4.11-0.306-6.092
					c-0.153-2.018-0.312-4.106-0.312-6.238c0-1.176,0.047-2.267,0.144-3.335c0.107-1.188,1.159-2.07,2.345-1.955
					c1.188,0.108,2.063,1.157,1.955,2.345c-0.084,0.937-0.126,1.901-0.126,2.945c0,1.969,0.146,3.883,0.299,5.911
					c0.157,2.062,0.319,4.195,0.319,6.419C145.691,112.917,144.725,113.883,143.532,113.883z"/>
			</g>
			<g>
				<path style="fill:#525D7D;" d="M146.014,170.178c-1.193,0-2.159-0.966-2.159-2.159c0-2.171-0.016-4.516-0.032-6.86
					c-0.016-2.355-0.032-4.71-0.032-6.89c0-1.193,0.966-2.159,2.159-2.159c1.193,0,2.159,0.966,2.159,2.159
					c0,2.171,0.016,4.516,0.032,6.86c0.016,2.354,0.032,4.709,0.032,6.89C148.173,169.211,147.207,170.178,146.014,170.178z"/>
			</g>
			<g>
				<path style="fill:#525D7D;" d="M69.888,174.397c-8.285,0-16.698-0.155-24.834-0.304c-8.117-0.149-16.51-0.303-24.755-0.303
					c-5.498,0-10.452,0.067-15.145,0.205c-0.62,0.027-1.21-0.228-1.633-0.675c-0.423-0.448-0.635-1.054-0.582-1.668
					c0.426-4.943,1.158-9.777,1.817-13.853c0.169-1.046,1.072-1.814,2.132-1.814c0.002,0,0.004,0,0.007,0
					c10.433,0.034,20.989,0.177,31.197,0.316c11.622,0.157,23.641,0.321,35.463,0.321c10.047,0,19.002-0.117,27.375-0.36
					c1.174-0.031,2.186,0.904,2.221,2.096c0.034,1.192-0.904,2.186-2.096,2.221c-8.416,0.243-17.411,0.361-27.5,0.361
					c-11.852,0-23.885-0.164-35.521-0.322c-9.595-0.131-19.498-0.265-29.305-0.309c-0.452,2.875-0.91,6.047-1.255,9.304
					c4.008-0.096,8.229-0.142,12.825-0.142c8.285,0,16.697,0.155,24.834,0.304c8.117,0.149,16.51,0.303,24.755,0.303
					c15.541,0,28.135-0.571,39.632-1.796c1.196-0.116,2.25,0.733,2.376,1.918c0.127,1.186-0.732,2.25-1.918,2.376
					C98.325,173.819,85.586,174.397,69.888,174.397z"/>
			</g>
		</g>
	</g>
</g>
<g id="Layer_1">
</g>
</svg>
