<?xml version="1.0" encoding="iso-8859-1"?>
<!-- Generator: Adobe Illustrator 21.0.2, SVG Export Plug-In . SVG Version: 6.00 Build 0)  -->
<svg version="1.1" xmlns="http://www.w3.org/2000/svg" xmlns:xlink="http://www.w3.org/1999/xlink" x="0px" y="0px"
	 viewBox="0 0 205.419 210.759" style="enable-background:new 0 0 205.419 210.759;" xml:space="preserve">
<g id="_x36_3">
	<g>
		<path style="fill:#E0DFE6;" d="M108.653,74.186c-0.995-8.149-2.04-16.293-3.21-24.418c-1.169-8.12-2.043-18.529-7.158-25.232
			c-0.765-1.002-2.291-0.948-2.713,0.355c-1.969,6.071-0.828,13.086-0.269,19.351c0.608,6.808,1.523,13.597,2.174,20.404
			c0.302,3.154,0.663,6.325,0.996,9.5c-0.726-4.603-1.496-9.199-2.237-13.799c-1.099-6.823-2.087-13.643-2.782-20.521
			c-0.5-4.941-0.437-10.009-2.75-14.477c-0.558-1.077-2.088-0.936-2.68,0c-5.748,9.086-2.536,24.91-1.802,34.976
			c0.465,6.379,0.887,12.768,1.469,19.136c0.485,5.304,0.297,8.872,4.043,12.198c-2.199-1.112-5.342-0.202-6.174,2.577
			c-1.225,4.094-1.982,8.384-2.596,12.668c-2.987-1.697-6.055-3.349-9.215-4.77c0.01-0.151,0.043-0.303,0.036-0.452
			c-0.12-2.673-2.412-5.784-5.44-5.44c-1.7,0.193-3.399,0.546-5.052,1.044c-0.945-1.047-2.349-1.724-4.225-1.671
			c-16.411,0.463-32.865,0.241-49.222,1.701c-6.108,0.545-6,8.739,0,9.422c16.35,1.862,32.807,1.287,49.222,0.636
			c1.091-0.043,2.006-0.344,2.777-0.799c5.571,5.686,12.715,10.069,19.35,14.107c3.113,1.894,6.119,0.778,7.898-1.42
			c3.077-0.298,6.05-2.348,6.256-6.28c0.206-3.921,0.169-7.984-0.293-11.964c4.913-0.498,10.431-2.796,13.252-6.299
			C112.504,89.509,109.383,80.164,108.653,74.186z"/>
		<path style="fill:#E0DFE6;" d="M204.121,177.142c-0.983-7.261-2.792-14.304-6.073-20.887
			c-4.318-8.665-13.011-17.382-22.899-19.248c0.397-0.253,0.79-0.504,1.173-0.75c5.217-3.336,9.893-6.98,12.547-12.723
			c4.959-10.733,4.942-27.833-1.049-38.15c-0.43-0.74-1.637-0.609-1.85,0.242c-0.212,0.85-0.395,1.712-0.565,2.581
			c-0.749-8.944-2.966-18.963-9.819-23.333c-4.029-2.569-8.697-2.52-13.265-2.53c-6.981-0.016-13.188-1.255-19.668-3.863
			c-2.509-1.01-6.501,0.096-8.206,2.169c-0.952,1.158-1.885,2.191-2.169,3.722c-0.227,1.223-0.256,2.367-0.102,3.425
			c-1.652-0.15-3.303-0.177-4.945,0.007c-1.704,0.191-3.041,1.88-2.039,3.553c4.904,8.194,16.084,11.647,24.962,13.329
			c4.76,0.902,9.654,1.543,14.471,2.01c0.469,0.143,0.84,0.249,1.166,0.338c0.211,0.693,0.422,1.385,0.632,2.078
			c0.259,3.403,2.262,7.435,3.259,10.711c0.452,1.487,1.231,2.668,2.199,3.572c-0.678,1.476-1.172,3.022-1.803,4.723
			c-1.831,4.936-4.884,8.393-8.816,11.793c-5.71,4.938-10.817,9.012-13.468,16.292c-1.327,3.644,4.619,6.189,6.306,2.659
			c4.171-8.729,13.722-12.455,19.486-19.892c2.857-3.687,5.605-8.706,5.398-13.483c1.578-0.234,3.085-0.87,4.277-1.909
			c-0.789,5.194-1.99,10.269-4.659,14.817c-4.721,8.043-18.722,8.784-20.524,18.952c-1.292,0.903-2.135,2.3-1.438,4.028
			c1.386,3.438,5.338,1.855,8.475,0.188c0.207-0.033,0.414-0.053,0.62-0.096c0.25,0.555,0.687,1.072,1.372,1.483
			c9.56,5.729,16.968,11.875,20.992,22.661c2.122,5.689,3.071,11.726,3.476,17.759c0.37,5.5-0.781,10.678,3.572,14.708
			c1.953,1.808,4.917,1.88,6.87,0C207.374,192.918,205.029,183.846,204.121,177.142z"/>
		<path style="fill:#E0DFE6;" d="M171.974,187.914c0.222-6.851-2.695-13.508-5.379-19.685c-1.673-3.849-3.752-7.538-5.089-11.527
			c-1.134-3.385-1.486-6.717-3.15-9.912c-0.582-1.117-2.047-0.886-2.68,0c-2.616,3.666-2.336,8.264-1.306,12.666
			c-0.957-1.706-1.943-3.403-3.001-5.08c-1.295-2.052-4.026-0.633-3.7,1.56c1.841,12.386,4.823,24.634,9.197,36.393
			c0.751,2.018,2.041,3.243,3.503,3.833c-0.377,0.466-0.75,0.919-1.117,1.344c-2.515,2.909-5.544,6.271-6.487,10.079
			c-0.338,1.363,0.876,2.582,2.241,2.241c3.794-0.947,7.17-3.99,10.064-6.502c3.088-2.68,7.55-5.546,9.3-9.318
			C175.639,191.275,174.257,188.656,171.974,187.914z"/>
		<path style="fill:#E0DFE6;" d="M59.584,135.873c-3.786-3.475-8.406-2.993-12.213,0c-1.965,1.545-3.698,4.124-5.046,6.281
			c-0.231,0.37-0.414,0.766-0.636,1.142c-0.062,0.105-0.147,0.218-0.232,0.327c-0.026,0.026-0.052,0.051-0.077,0.077
			c-0.202,0.156-0.437,0.338-0.737,0.571c-0.3,0.262-0.564,0.554-0.862,0.818c-2.202,1.96-2.182,6.054,0,8.015
			c6.633,5.96,14.785-0.035,19.803-5.018C62.794,144.898,63.013,139.02,59.584,135.873z"/>
		<path style="fill:#E0DFE6;" d="M167.44,31.572c-1.121,0.276-2.087,0.734-3.014,1.414c-0.577,0.421-0.822,0.608-0.744,0.568
			c-0.742,0.46-1.984,1.178-2.438,1.37c-1.075,0.455-3.176,0.864-4.674,1.05c-1.038,0.129-1.857,0.762-1.889,1.889
			c-0.279,9.696,16.623,11.67,20.392,3.637C177.539,36.246,173.481,30.084,167.44,31.572z"/>
		<path style="fill:#E0DFE6;" d="M31.615,68.458c-0.787-1.864-2.111-2.789-3.941-3.521c-3.016-1.207-6.008,0.606-8.324,2.387
			c-1.316,1.013-2.679,2.053-3.072,3.776c-0.374,1.644-0.121,2.991,0.955,4.338c1.497,1.874,3.821,1.971,6.028,2.097
			c1.121,0.064,2.201-0.103,3.305-0.3c2.122-0.378,3.56-1.592,4.741-3.365C32.372,72.274,32.33,70.153,31.615,68.458z"/>
		<path style="fill:#E0DFE6;" d="M51.76,61.986c-4.291-0.125-6.907,3.131-10.094,5.421c-1.858,1.335-1.788,4.384,0.661,5.056
			c4.404,1.209,9.623,2.201,13.182-1.427C58.784,67.697,56.331,62.119,51.76,61.986z"/>
		<path style="fill:#E0DFE6;" d="M85.104,65.218c-0.644-3.928-5.536-4.857-8.8-3.92c-1.543,0.443-3.185,1.336-4.593,2.058
			c-0.724,0.372-1.569,0.723-2.255,1.16l-0.904,0.699c-0.77,1.133-0.904,1.222-0.402,0.268c-2.873,0.747-3.291,5.802,0,6.246
			c0.419,0.008,0.815,0.107,1.2,0.248C74.849,74.868,86.375,72.963,85.104,65.218z"/>
		<g>
			<g>
				<path style="fill:#525D7D;" d="M85.494,115.378c-0.423,0-0.846-0.124-1.21-0.371c-7.863-5.323-15.508-11.471-22.738-18.285
					c-16.91,2.023-34.991,3.547-58.434,4.928c-0.573,0.032-1.143-0.164-1.57-0.55c-0.43-0.386-0.686-0.928-0.713-1.505
					C0.18,85.671,0.125,71.734,0.125,58.651l0.006-10.837c0-6.822-0.016-14.16-0.131-21.593c-0.018-1.183,0.919-2.16,2.101-2.191
					c28.645-0.765,59.138-1.65,89.311-3.319c1.151-0.061,2.128,0.769,2.263,1.9c2.789,23.344,5.485,44.359,10.26,65.149
					c0.131,0.569,0.025,1.167-0.292,1.657c-0.316,0.49-0.819,0.831-1.392,0.944c-4.945,0.98-10.08,1.911-15.289,2.771
					c0.018,6.361,0.138,13.116,0.683,19.914c0.066,0.828-0.347,1.62-1.064,2.038C86.244,115.28,85.869,115.378,85.494,115.378z
					 M62.295,92.298c0.551,0,1.085,0.211,1.489,0.596c6.148,5.856,12.609,11.218,19.253,15.981
					c-0.337-6.052-0.392-11.984-0.395-17.578c0-1.06,0.769-1.964,1.815-2.132c5.02-0.809,9.98-1.687,14.779-2.613
					c-4.384-19.683-6.983-39.555-9.606-61.419c-28.821,1.56-57.866,2.42-85.281,3.156c0.089,6.727,0.101,13.338,0.101,19.524
					L4.443,58.651c0,12.345,0.048,25.453,0.602,38.557c22.754-1.368,40.409-2.887,56.99-4.895
					C62.122,92.303,62.21,92.298,62.295,92.298z"/>
			</g>
			<g>
				<path style="fill:#525D7D;" d="M21.192,71.293c-3.613,0-7.453-2.614-7.453-7.46c0-2.957,1.462-6.526,4.727-7.832l0,0
					c0.831-0.332,1.72-0.501,2.643-0.501c4.17,0,6.973,3.312,6.973,8.242C28.082,68.188,25.248,71.293,21.192,71.293z
					 M21.109,59.818c-0.371,0-0.72,0.065-1.037,0.192H20.07c-1.307,0.523-2.013,2.36-2.013,3.823c0,3.106,3.007,3.142,3.135,3.142
					c2.322,0,2.572-2.261,2.572-3.233C23.764,62.562,23.505,59.818,21.109,59.818z"/>
			</g>
			<g>
				<path style="fill:#525D7D;" d="M44.267,68.807c-4.977,0-7.952-3.796-7.952-7.466c0-2.748,2.392-8.096,6.779-8.096
					c0.201,0,0.41,0.01,0.628,0.029c0,0,0.004,0,0.006,0.001c1.773,0.161,6.479,0.59,8.42,4.231
					c0.652,1.222,0.984,2.465,0.984,3.694C53.132,65.898,48.53,68.807,44.267,68.807z M43.094,57.563
					c-1.174,0-2.461,2.652-2.461,3.778c0,0.817,0.668,3.148,3.634,3.148c2.151,0,4.547-1.351,4.547-3.289
					c0-0.512-0.16-1.07-0.475-1.661c-0.576-1.082-2.165-1.705-4.997-1.964C43.256,57.567,43.173,57.563,43.094,57.563z"/>
			</g>
			<g>
				<path style="fill:#525D7D;" d="M69.408,67.591c-4.232,0-7.807-3.29-7.807-7.184c0-2.643,2.262-7.75,5.957-8.16
					c0.001,0,0.003-0.001,0.004-0.001c0.27-0.03,0.544-0.044,0.819-0.044c3.981,0,8.788,3.435,8.788,7.7
					C77.17,62.963,74.074,67.591,69.408,67.591z M68.036,56.537c-0.713,0.091-2.117,2.658-2.117,3.869
					c0,1.5,1.663,2.866,3.489,2.866c1.954,0,3.444-2.394,3.444-3.371C72.852,58.428,70.251,56.305,68.036,56.537z"/>
			</g>
			<g>
				<path style="fill:#525D7D;" d="M139.94,146.466c-1.12,0-2.068-0.865-2.151-2.001c-0.377-5.136-3.461-7.878-7.728-11.675
					c-7.077-6.294-16.771-14.916-16.771-40.129c0-26.75,15.953-38.724,31.762-38.724c11.976,0,19.275,2.598,23.422,8.388
					c17.08,0.374,17.078,20.676,17.078,27.389c0,27.664-11.328,36.142-20.429,42.955c-4.856,3.634-8.692,6.505-10.137,11.582
					c-0.326,1.146-1.522,1.81-2.666,1.486c-1.147-0.327-1.813-1.521-1.486-2.668c1.843-6.478,6.632-10.062,11.702-13.857
					c8.764-6.561,18.699-13.997,18.699-39.498c0-20.683-7.558-23.076-13.242-23.076c-0.191,0-0.382,0.004-0.573,0.012
					c-0.826,0.028-1.524-0.359-1.936-1.027c-2.107-3.43-6.335-7.368-20.431-7.368c-12.661,0-27.444,9.011-27.444,34.406
					c0,23.274,8.496,30.831,15.322,36.902c4.454,3.962,8.66,7.703,9.166,14.585c0.087,1.189-0.805,2.224-1.996,2.312
					C140.047,146.464,139.993,146.466,139.94,146.466z"/>
			</g>
			<g>
				<path style="fill:#525D7D;" d="M180.918,110.998c-0.468,0-0.939-0.151-1.334-0.462c-7.741-6.095-13.812-15.399-16.87-25.771
					c-13.327,3.14-28.925,0.737-45.484-6.92c-1.082-0.5-1.553-1.783-1.053-2.865c0.499-1.083,1.787-1.551,2.866-1.054
					c11.283,5.217,21.966,7.862,31.753,7.862c4.509,0,8.83-0.58,12.845-1.725c0.561-0.162,1.165-0.086,1.67,0.206
					c0.506,0.292,0.873,0.776,1.015,1.342c2.599,10.301,8.404,19.606,15.929,25.531c0.938,0.738,1.099,2.095,0.361,3.032
					C182.19,110.716,181.558,110.998,180.918,110.998z"/>
			</g>
			<g>
				<path style="fill:#525D7D;" d="M113.23,200.586c-0.059,0-0.118-0.002-0.177-0.007c-1.189-0.096-2.075-1.138-1.978-2.326
					l0.259-3.241c2.089-26.372,4.248-53.641,37.39-53.641c19.131,0,32.479,7.51,39.67,22.322
					c5.673,11.681,5.784,24.736,5.831,30.312c0.008,0.96,0.017,1.953,0.059,2.244c0.167,1.18-0.652,2.274-1.833,2.442
					c-1.192,0.167-2.274-0.651-2.443-1.832c-0.082-0.576-0.089-1.42-0.101-2.818c-0.271-32.084-14.128-48.352-41.182-48.352
					c-29.153,0-30.975,23.015-33.086,49.664l-0.259,3.248C115.288,199.73,114.343,200.586,113.23,200.586z"/>
			</g>
			<g>
				<path style="fill:#525D7D;" d="M142.453,156.598c-0.964,0-1.817-0.642-2.078-1.578c-0.748-2.676-1.608-5.508-3.188-8.14
					c-0.614-1.023-0.283-2.349,0.739-2.962c1.023-0.614,2.35-0.283,2.963,0.74c1.505,2.508,2.446,5.138,3.17,7.551
					c1.979-0.094,3.972-0.215,5.967-0.336l0.821-0.049c0.143-2.663,0.533-5.784,1.652-8.858c0.408-1.122,1.653-1.697,2.766-1.291
					c1.12,0.408,1.698,1.647,1.29,2.767c-1.195,3.284-1.408,6.782-1.46,9.462c-0.022,1.128-0.908,2.048-2.034,2.113l-2.773,0.166
					c-2.593,0.157-5.185,0.314-7.749,0.414C142.511,156.598,142.481,156.598,142.453,156.598z"/>
			</g>
			<g>
				<path style="fill:#525D7D;" d="M153.106,210.759c-0.568,0-1.115-0.224-1.521-0.626c-2.806-2.784-5.6-5.578-8.394-8.373
					c-3.444-3.443-6.886-6.887-10.351-10.31c-0.545-0.54-0.765-1.328-0.574-2.072c2.946-11.48,5.349-23.227,7.754-35.256
					c0.233-1.169,1.369-1.925,2.54-1.694c1.169,0.233,1.928,1.371,1.694,2.54c-2.333,11.671-4.665,23.082-7.498,34.281
					c3.173,3.142,6.331,6.3,9.488,9.458c2.197,2.196,4.393,4.393,6.594,6.583c3.407-4.639,7.25-9.432,11.9-14.846
					c-5.126-10.674-9.884-22.229-15.338-37.225c-0.406-1.121,0.171-2.359,1.292-2.767c1.122-0.407,2.36,0.172,2.768,1.291
					c5.618,15.453,10.485,27.201,15.781,38.094c0.378,0.777,0.257,1.704-0.309,2.357c-5.687,6.57-10.157,12.182-14.068,17.661
					c-0.367,0.515-0.943,0.843-1.574,0.897C153.229,210.756,153.167,210.759,153.106,210.759z"/>
			</g>
			<g>
				<path style="fill:#525D7D;" d="M145.87,125.483c-3.618,0-7.465-1.29-11.126-3.731c-0.992-0.661-1.261-2.002-0.599-2.994
					c0.662-0.993,2.002-1.259,2.994-0.599c4.681,3.12,9.467,3.856,13.324,1.93c1.07-0.529,2.364-0.1,2.897,0.966
					c0.533,1.067,0.101,2.364-0.966,2.897C150.363,124.968,148.168,125.483,145.87,125.483z"/>
			</g>
			<g>
				<path style="fill:#525D7D;" d="M141.302,115.131c-0.87,0-1.583-0.311-2.156-0.562c-0.178-0.078-0.448-0.196-0.547-0.215
					c-0.006,0-0.011,0-0.018,0c-0.946,0-1.598-0.44-1.965-0.809c-0.867-0.872-0.862-2.01-0.857-2.764v-0.175
					c0-2.579,0.973-4.868,1.83-6.889c0.623-1.465,1.21-2.849,1.375-4.164c0.148-1.184,1.234-2.015,2.411-1.874
					c1.182,0.148,2.021,1.227,1.874,2.41c-0.239,1.913-0.974,3.643-1.684,5.316c-0.718,1.69-1.399,3.293-1.479,4.89
					c0.294,0.1,0.559,0.216,0.788,0.316c0.172,0.075,0.432,0.188,0.527,0.209c1.192,0,2.11,0.963,2.11,2.155
					C143.51,114.168,142.494,115.131,141.302,115.131z M140.082,111.238h0.014H140.082z"/>
			</g>
			<g>
				<path style="fill:#525D7D;" d="M41.327,150.692c-0.298,0-0.596-0.061-0.877-0.186c-0.735-0.327-1.227-1.034-1.278-1.836
					c-0.208-3.278-0.313-6.584-0.416-9.781c-0.212-6.653-0.412-12.937-1.456-19.233c-0.136-0.819,0.209-1.642,0.887-2.12
					c0.679-0.477,1.57-0.523,2.295-0.119c5.202,2.905,10.305,6.169,15.238,9.326c2.428,1.553,4.852,3.104,7.288,4.614
					c0.623,0.386,1.006,1.061,1.022,1.793c0.014,0.732-0.343,1.421-0.95,1.832c-7.363,4.974-14.398,10.476-20.413,15.244
					C42.28,150.533,41.805,150.692,41.327,150.692z M42.169,123.375c0.578,5.145,0.742,10.327,0.904,15.376
					c0.058,1.809,0.117,3.653,0.194,5.5c4.512-3.543,9.478-7.346,14.672-10.975c-1.517-0.958-3.031-1.926-4.546-2.896
					C49.729,128.035,45.97,125.631,42.169,123.375z"/>
			</g>
			<g>
				<path style="fill:#525D7D;" d="M168.71,44.043c-0.306,0-0.614-0.065-0.902-0.197c-0.994-0.457-1.986-0.919-2.981-1.383
					c-5.887-2.742-11.975-5.578-18.335-7.287c-0.811-0.218-1.422-0.888-1.566-1.716c-0.145-0.828,0.205-1.664,0.895-2.144
					c6.581-4.568,13.588-8.63,20.181-12.339c0.697-0.394,1.553-0.367,2.231,0.068c0.673,0.435,1.05,1.207,0.978,2.005
					c-0.122,1.368-0.184,2.811-0.184,4.288c0,5.582,0.869,11.062,1.808,16.153c0.146,0.793-0.162,1.601-0.798,2.096
					C169.649,43.888,169.181,44.043,168.71,44.043z M152.014,32.356c4.807,1.648,9.394,3.752,13.864,5.832
					c-0.648-4.038-1.169-8.445-1.169-12.849c0-0.223,0.001-0.446,0.004-0.668C160.507,27.075,156.199,29.627,152.014,32.356z"/>
			</g>
			<g>
				<path style="fill:#525D7D;" d="M101.872,171.159c-0.094,0-0.188-0.006-0.284-0.018c-17.182-2.261-40.096-9.208-51.671-29.464
					c-0.592-1.035-0.232-2.354,0.804-2.946c1.033-0.589,2.353-0.233,2.946,0.803c10.697,18.718,32.269,25.191,48.483,27.324
					c1.182,0.156,2.016,1.24,1.86,2.423C103.867,170.369,102.939,171.159,101.872,171.159z"/>
			</g>
			<g>
				<path style="fill:#525D7D;" d="M157.625,27.64c-0.67,0-1.333-0.312-1.754-0.899C145.929,12.91,127.365,4.318,107.42,4.318
					c-1.131,0-2.256,0.03-3.372,0.089c-1.179,0.068-2.205-0.852-2.27-2.042c-0.063-1.191,0.852-2.208,2.042-2.271
					C105.013,0.031,106.213,0,107.42,0c21.309,0,41.219,9.281,51.957,24.221c0.696,0.968,0.475,2.317-0.493,3.014
					C158.503,27.509,158.063,27.64,157.625,27.64z"/>
			</g>
		</g>
	</g>
</g>
<g id="Layer_1">
</g>
</svg>
