<?xml version="1.0" encoding="iso-8859-1"?>
<!-- Generator: Adobe Illustrator 21.0.2, SVG Export Plug-In . SVG Version: 6.00 Build 0)  -->
<svg version="1.1" xmlns="http://www.w3.org/2000/svg" xmlns:xlink="http://www.w3.org/1999/xlink" x="0px" y="0px"
	 viewBox="0 0 219.891 215.571" style="enable-background:new 0 0 219.891 215.571;" xml:space="preserve">
<g id="_x36_4">
	<g>
		<path style="fill:#E0DFE6;" d="M118.742,140.172c-15.694-0.143-31.356,0.694-47.045,1.059c-7.461,0.173-14.965,0.113-22.398,0.775
			c-4.537,0.404-9.057,0.509-13.435-0.491c0.924,0.184,1.895,0.073,2.779-0.497c1.811-1.167,2.882-3.863,1.525-5.816
			c-0.297-0.428-0.608-0.801-0.926-1.157c1.438-1.115,2.548-2.623,3.047-4.494c1.197-4.486,1.268-8.845,3.15-13.221
			c1.582-3.678,4.77-6.308,6.069-10.032c0.687-1.969-0.635-3.916-2.363-4.728c1.948-0.144,3.719-1.267,4.033-3.543
			c1.074-7.8-0.089-15.965-0.523-23.817c-0.466-8.434-0.932-16.867-1.398-25.301c-0.441-7.977-1.058-15.932-1.696-23.895
			c-0.593-7.402-0.832-15.384-4.702-21.901c-0.572-0.963-2.275-1.144-2.796,0c-2.935,6.44-2.688,13.527-2.509,20.496
			c0.216,8.44,0.441,16.869,0.866,25.301c0.402,7.965,0.803,15.93,1.205,23.895c0.237,4.704,0.191,9.62,0.467,14.468
			c-0.356,3.107-0.705,6.208-0.578,9.307c0.021-0.012,0.042-0.024,0.064-0.037c-0.028,2.076,1.458,3.708,3.292,4.447
			c-3.532,0.33-7.325,2.271-10.318,4.48c-3.124,0.312-5.589,0.567-8.552,2.717c-3.602,2.614-6.481,6.181-8.009,10.375
			c-1.63,4.476-1.719,9.659,0.81,13.814c2.536,4.166,7.878,7.359,12.707,5.531c0.146-0.055,0.288-0.127,0.431-0.193
			c0.218,0.613,0.492,1.208,0.889,1.78c0.591,0.851,1.459,1.511,2.418,1.856c-1.206-0.306-2.404-0.678-3.585-1.176
			c-0.568-0.24-1.032,0.528-0.762,0.991c6.255,10.721,22.961,9.652,33.671,10.328c18.057,1.141,36.092,2.831,54.174,3.389
			C128.195,155.173,128.228,140.259,118.742,140.172z"/>
		<path style="fill:#E0DFE6;" d="M186.385,121.173c-0.955-6.633-2.055-14.467-6.021-19.997c-1.028-1.433-3.501-1.878-4.428,0
			c-3.094,6.271-3.015,14.464-2.889,21.333c0.108,5.842-0.725,12.867,1.986,18.134c-8.801,0.105-20.877-0.594-28.385,4.404
			c-3.857-9.449-2.168-19.866,3.609-28.214c4.709-6.804,12.747-10.195,17.359-16.823c0.27-0.388-0.003-0.986-0.443-1.09
			c-10.052-2.386-20.874,7.46-26.322,14.887c-7.668,10.454-10.018,24.5-5.759,36.79c2.532,7.305,11.759,4.955,12.44-1.112
			c7.845,4.574,19.974,3.7,28.483,3.888c2.111,0.047,4.541-1.217,5.502-3.156c0.982-1.981,1.184-3.26,0.617-4.953
			c1.491-0.305,2.893-1.228,3.884-2.596C190.248,136.829,187.349,127.863,186.385,121.173z"/>
		<path style="fill:#E0DFE6;" d="M182.37,65.757c-1.052-7.495-1.652-16.38-6.169-22.686c-0.859-1.2-3.103-1.679-3.845,0
			c-3.129,7.078-2.177,15.341-1.728,22.902c0.386,6.511-1.215,16.333,5.546,19.771c1.735,0.882,3.367,0.558,4.824-0.622
			C186.609,80.577,183.233,71.906,182.37,65.757z"/>
		<path style="fill:#E0DFE6;" d="M82.855,66.784c-0.895-0.687-2.148-0.414-3.065,0c-2.43,1.097-3.582,3.973-3.644,6.494
			c-0.04,1.641,0.967,4.702-0.627,5.831c-0.743,0.526-2.052,0.342-2.895,0.387c-1.286,0.07-2.549,0.258-3.81,0.529
			c-2.096,0.45-4.585,0.864-5.69,2.877c-0.363,0.661-0.364,1.773,0.295,2.289c2.026,1.585,5.951,2.55,8.495,2.96
			c3.596,0.58,7.4,0.341,10.322-2.051C87.353,81.913,88.34,70.993,82.855,66.784z"/>
		<path style="fill:#E0DFE6;" d="M92.204,112.941c-1.78-4.844-9.657-5.922-10.949,0c-0.656,3.009-0.814,5.379-3.185,7.448
			c-2.093,1.827-4.953,2.261-7.098,3.987c-0.977,0.786-0.872,2.226-0.416,3.226c2.397,5.264,11.085,4.503,15.087,1.902
			C90.899,126.088,94.45,119.049,92.204,112.941z"/>
		<path style="fill:#E0DFE6;" d="M120.822,112.499c-0.612-3.576-3.187-7.268-7.232-6.786c-4.222,0.502-5.24,5.029-5.378,8.551
			c-0.043,1.09-0.013,2.161-0.214,3.228c-0.067,0.356-0.13,0.543-0.152,0.563c-2.103,2.008-0.585,0.614-1.294,0.966
			c-0.136,0.068-0.205,0.108-0.234,0.133c-0.716,0.009-1.989-0.169-2.851,0.135c-1.797,0.634-2.585,1.898-2.823,3.708
			c-0.816,6.205,8.493,7.326,12.492,5.623C119.199,126.04,121.879,118.678,120.822,112.499z"/>
		<path style="fill:#E0DFE6;" d="M118.663,63.1c-2.803-7.454-12.944-4.492-11.781,3.248c0.916,6.096-1.31,10.268-5.934,14.123
			c-2.06,1.717-0.15,4.476,1.956,4.722C113.63,86.447,122.217,72.551,118.663,63.1z"/>
		<path style="fill:#E0DFE6;" d="M154.195,61.141c-3.573-5.011-11.334-3.309-11.658,3.158c-0.187,3.728,0.855,7.032-1.239,10.474
			c-1.744,2.867-4.885,4.595-7.7,6.202c-1.344,0.767-1.183,2.577,0,3.379C146.342,92.99,162.501,72.791,154.195,61.141z"/>
		<path style="fill:#E0DFE6;" d="M215.197,123.699c-0.329-0.282-0.823-0.258-1.06,0.136c-4.349,7.261-2.978,18.214-5.901,26.313
			c-2.476,6.86-6.856,12.08-10.956,17.608c-5.79,3.861-12.008,6.928-19.053,8.589c-7.798,1.839-14.947,1.445-22.308,0.866
			c0.01-1.114-0.271-2.24-0.942-3.322c-0.074-0.119-0.148-0.238-0.221-0.357c-2.198-3.543-6.246-4.489-9.93-2.997
			c-0.721-2.736-2.734-5.228-5.617-5.751c-0.075-0.014-0.158-0.027-0.239-0.041c-0.029-0.016-0.04-0.023-0.084-0.047
			c-0.112-0.126-0.389-0.251-0.555-0.343c-0.041-0.038-0.077-0.071-0.129-0.116c-0.442-0.39-0.888-0.778-1.343-1.153
			c-2.843-2.347-7.151-4.602-10.709-2.13c-2.204,1.531-3.319,4.421-1.809,6.898c0.088,0.144,0.192,0.286,0.293,0.428
			c0.063,0.132,0.138,0.296,0.242,0.542c0.202,0.478,0.407,0.923,0.636,1.382c0.096,0.193,0.162,0.322,0.206,0.401
			c0.187,0.476,0.375,0.95,0.571,1.422c0.744,1.794,1.424,3.278,2.604,4.805c1.409,1.824,3.176,2.875,5.198,3.455
			c-0.453,0.519-0.901,1.022-1.345,1.496c-4.068,4.347-8.052,8.784-12.187,13.067c-7.221,7.479-13.213,11.999-23.117,6.503
			c-0.389-0.216-0.99-0.12-1.2,0.315c-5.65,11.715,14.161,15.808,21.648,13.099c7.537-2.727,12.953-9.006,18.447-14.551
			c4.255-4.296,9.191-8.544,13.47-13.068c8.52,4.953,22.737,3.347,30.734,1.5c13.318-3.075,27.949-10.945,31.689-24.901
			c1.618-3.034,2.956-6.184,4.047-9.188C219.276,146.299,223.109,130.486,215.197,123.699z"/>
		<g>
			<g>
				<path style="fill:#525D7D;" d="M171.05,88.139c-1.146,0-2.1-0.9-2.155-2.056c-0.5-10.523-0.744-20.256-0.744-29.752
					c0-4.848,0.066-9.649,0.197-14.306c-17.828,0.302-35.941,0.454-53.878,0.454c-21.952,0-44.131-0.229-65.919-0.68
					c-1.192-0.025-2.138-1.011-2.113-2.203c0.024-1.177,0.986-2.114,2.158-2.114c0.015,0,0.03,0,0.046,0.001
					c21.759,0.451,43.907,0.679,65.829,0.679c18.672,0,37.536-0.166,56.067-0.493c0.601,0.003,1.161,0.223,1.576,0.644
					c0.415,0.422,0.639,0.995,0.619,1.586c-0.175,5.312-0.264,10.84-0.264,16.433c0,9.428,0.242,19.093,0.74,29.547
					c0.056,1.191-0.863,2.203-2.054,2.26C171.119,88.138,171.085,88.139,171.05,88.139z"/>
			</g>
			<g>
				<path style="fill:#525D7D;" d="M175.545,146.058c-0.018,0-0.037,0-0.055-0.001c-8.058-0.205-16.852-0.316-26.885-0.342
					c-1.192-0.003-2.156-0.972-2.153-2.165c0.003-1.191,0.969-2.153,2.159-2.153c0.002,0,0.003,0,0.006,0
					c9.063,0.022,17.121,0.116,24.543,0.285c-1.307-13.455-2.263-24.528-2.997-34.682c-0.086-1.189,0.808-2.223,1.998-2.309
					c1.199-0.07,2.223,0.81,2.309,1.998c0.775,10.719,1.799,22.475,3.224,36.998c0.06,0.616-0.146,1.228-0.568,1.681
					C176.717,145.809,176.144,146.058,175.545,146.058z"/>
			</g>
			<g>
				<path style="fill:#525D7D;" d="M95.758,145.852c-32.301,0-51.983-0.06-63.993-2.572c-6.556-1.37-11.033-3.528-13.822-6.915
					c-4.976-2.376-8.267-6.432-9.061-11.2c-2.059-12.351-2.835-24.771-3.586-36.781C4.55,76.44,3.778,64.09,1.748,51.724
					L1.617,50.93C0.822,46.103,0,41.112,0,36.273C0,15.292,16.707,2.413,47.044,0.008c0.599-0.051,1.184,0.154,1.625,0.557
					c0.441,0.402,0.697,0.969,0.705,1.567c0.387,28.903,2.643,58.218,4.825,86.569c0.376,4.88,0.752,9.764,1.119,14.653
					c0.051,0.674-0.217,1.332-0.723,1.78c-0.507,0.448-1.191,0.633-1.856,0.498c-2.493-0.502-5.123-0.757-7.815-0.757
					c-12.703,0-26.375,5.818-26.375,18.592c0,4.225,0.668,7.323,2.333,9.657c0.124,0.128,0.231,0.271,0.32,0.423
					c2.153,2.697,5.778,4.322,11.448,5.507c11.872,2.483,32.091,2.503,65.555,2.48h2.532c7.249,0,14.497-0.036,21.748-0.072
					l1.155-0.006c0.003,0,0.007,0,0.011,0c1.188,0,2.153,0.959,2.159,2.149c0.006,1.192-0.956,2.164-2.149,2.17l-1.155,0.006
					c-7.258,0.037-14.513,0.072-21.769,0.072h-2.531C97.382,145.852,96.564,145.852,95.758,145.852z M45.091,4.519
					C28.866,6.168,4.318,12.583,4.318,36.273c0,4.487,0.793,9.3,1.56,13.956l0.131,0.795c2.066,12.58,2.845,25.04,3.598,37.09
					c0.744,11.902,1.513,24.208,3.535,36.341c0.21,1.259,0.682,2.454,1.385,3.548c-0.201-1.4-0.297-2.909-0.297-4.538
					c0-17.866,20.474-24.649,36.575-22.53c-0.301-3.971-0.606-7.939-0.911-11.904C47.765,61.373,45.566,32.8,45.091,4.519z"/>
			</g>
			<g>
				<path style="fill:#525D7D;" d="M27.319,125.804c-1.036,0-1.951-0.748-2.127-1.804c-0.196-1.177,0.598-2.288,1.775-2.484
					c5.356-0.893,10.594-1.694,15.799-1.694c1.243,0,2.451,0.048,3.591,0.143c1.188,0.098,2.071,1.142,1.972,2.33
					c-0.099,1.188-1.138,2.075-2.33,1.972c-1.021-0.085-2.109-0.128-3.233-0.128c-4.875,0-9.92,0.773-15.09,1.635
					C27.557,125.795,27.437,125.804,27.319,125.804z"/>
			</g>
			<g>
				<path style="fill:#525D7D;" d="M71.581,69.325c-2.745,0-5.329-1.071-7.282-3.018c-1.93-1.924-3.038-4.536-3.038-7.165
					c-0.002-5.119,4.041-9.571,9.202-10.136l0,0c0.363-0.04,0.697-0.083,1.088-0.06c5.575,0,10.196,4.405,10.305,9.825
					c0.059,2.936-0.943,5.611-2.822,7.534c-1.895,1.939-4.532,3.012-7.425,3.021C71.599,69.325,71.59,69.325,71.581,69.325z
					 M71.552,53.264c-0.184-0.022-0.413,0.012-0.621,0.035l0,0c-2.953,0.323-5.354,2.943-5.353,5.842
					c0.001,1.491,0.645,2.988,1.769,4.109c1.137,1.134,2.64,1.758,4.232,1.758c0.006,0,0.011,0,0.017,0
					c1.725-0.005,3.27-0.616,4.349-1.72c1.078-1.103,1.629-2.635,1.593-4.428C77.471,55.51,74.39,53.264,71.552,53.264z"/>
			</g>
			<g>
				<path style="fill:#525D7D;" d="M63.426,83.977c-0.462,0-0.918-0.148-1.295-0.432c-0.521-0.391-0.838-0.997-0.862-1.647
					c-0.037-1.012-0.074-2.039-0.074-3.06c0-4.523,0.726-10.107,6.385-13.154c1.049-0.566,2.359-0.172,2.924,0.878
					c0.565,1.049,0.172,2.359-0.878,2.924c-3.414,1.839-4.114,5.068-4.114,9.352c0,0.103,0.001,0.207,0.001,0.31
					c3.708-0.708,7.395-0.973,10.997-1.192c-0.556-3.646-1.702-6.479-3.418-8.439c-0.785-0.897-0.694-2.262,0.203-3.047
					c0.897-0.786,2.26-0.694,3.047,0.203c2.667,3.048,4.258,7.464,4.726,13.123c0.048,0.579-0.139,1.153-0.519,1.592
					c-0.38,0.439-0.921,0.706-1.501,0.741l-1.141,0.069c-4.816,0.286-9.367,0.557-13.955,1.713
					C63.779,83.955,63.602,83.977,63.426,83.977z"/>
			</g>
			<g>
				<path style="fill:#525D7D;" d="M102.498,69.071c-0.233,0-0.465-0.008-0.699-0.023c-4.444-0.287-9.245-4.378-9.31-10.012
					c-0.055-4.845,2.906-8.893,7.37-10.073l0,0c0.893-0.236,1.808-0.362,2.72-0.373c0.039,0,0.079-0.001,0.119-0.001
					c4.525,0,9.546,2.953,10.197,7.957c0.462,3.555-0.53,6.843-2.794,9.258C108.135,67.902,105.395,69.071,102.498,69.071z
					 M102.698,52.909c-0.023,0-0.046,0-0.07,0.001c-0.555,0.006-1.115,0.083-1.664,0.229c-0.001,0-0.001,0-0.001,0
					c-2.909,0.768-4.184,3.491-4.156,5.849c0.038,3.355,3.095,5.611,5.27,5.751c1.866,0.127,3.637-0.567,4.873-1.886
					c1.365-1.456,1.955-3.497,1.663-5.748C108.284,54.58,105.305,52.909,102.698,52.909z"/>
			</g>
			<g>
				<path style="fill:#525D7D;" d="M95.013,82.623c-1.02,0-1.926-0.725-2.12-1.763c-0.193-1.032-0.291-2.093-0.291-3.152
					c0-5.471,2.479-9.978,6.632-12.054c1.065-0.532,2.364-0.1,2.897,0.966c0.533,1.067,0.1,2.364-0.966,2.897
					c-2.659,1.329-4.246,4.391-4.246,8.191c0,0.089,0.001,0.178,0.003,0.266c3.835-0.534,7.692-0.719,11.217-0.786
					c-0.524-3.409-2.125-6.189-4.551-7.807c-0.992-0.661-1.26-2.002-0.599-2.994c0.66-0.992,1.999-1.262,2.994-0.599
					c4.117,2.745,6.543,7.661,6.656,13.486c0.011,0.577-0.209,1.134-0.611,1.548c-0.403,0.413-0.954,0.649-1.531,0.653
					c-4.6,0.035-9.991,0.195-15.103,1.112C95.268,82.611,95.139,82.623,95.013,82.623z"/>
			</g>
			<g>
				<path style="fill:#525D7D;" d="M134.718,70.621c-0.125,0-0.25-0.002-0.376-0.006c-4.548-0.157-9.489-3.573-9.884-9.015
					c-0.218-2.998,0.903-6.011,3.075-8.267c2.121-2.204,5.01-3.435,7.917-3.312c4.336,0.145,8.224,2.951,9.456,6.825
					c0.247,0.784,0.4,1.609,0.453,2.454c0.186,2.943-0.931,5.89-3.065,8.085C140.256,69.481,137.579,70.621,134.718,70.621z
					 M135.115,54.333c-1.625,0-3.245,0.72-4.471,1.994c-1.323,1.375-2.009,3.183-1.879,4.961c0.242,3.328,3.494,4.934,5.727,5.012
					c1.756,0.059,3.439-0.622,4.704-1.924c1.286-1.324,1.961-3.074,1.852-4.805c-0.031-0.496-0.118-0.973-0.259-1.42
					c-0.665-2.092-3.024-3.733-5.485-3.815c0,0-0.001,0-0.002,0C135.24,54.333,135.178,54.333,135.115,54.333z"/>
			</g>
			<g>
				<path style="fill:#525D7D;" d="M125.2,82.434c-0.429,0-0.853-0.128-1.214-0.374c-0.507-0.344-0.843-0.888-0.925-1.496
					c-0.09-0.663-0.136-1.339-0.136-2.009c0-5.486,2.932-10.364,7.469-12.427c1.087-0.492,2.366-0.012,2.859,1.072
					c0.493,1.086,0.013,2.366-1.072,2.859c-2.75,1.25-4.608,4.156-4.898,7.557c4.414-0.826,8.853-1.046,13.196-1.193
					c-0.686-2.976-1.98-5.191-3.862-6.602c-0.954-0.715-1.148-2.069-0.432-3.023c0.717-0.954,2.07-1.146,3.023-0.432
					c3.283,2.462,5.342,6.572,5.956,11.887c0.069,0.599-0.116,1.2-0.51,1.657c-0.394,0.458-0.962,0.728-1.565,0.748l-0.806,0.026
					c-5.495,0.176-11.178,0.358-16.566,1.686C125.546,82.414,125.373,82.434,125.2,82.434z"/>
			</g>
			<g>
				<path style="fill:#525D7D;" d="M72.869,111.712c-0.176,0-0.353-0.004-0.531-0.013c-4.827-0.235-8.688-4.054-8.981-8.882
					c-0.252-4.154,2.089-8.161,5.826-9.97l0,0c1.198-0.58,2.47-0.883,3.781-0.898c4.558-0.041,9.845,3.793,10.012,9.424
					c0.082,2.78-1.025,5.507-3.037,7.481C78.049,110.708,75.555,111.712,72.869,111.712z M73.078,96.266
					c-0.02,0-0.039,0-0.059,0.001c-0.675,0.008-1.33,0.165-1.952,0.465c-0.001,0.001-0.001,0.001-0.001,0.001
					c-2.146,1.039-3.544,3.433-3.4,5.823c0.16,2.626,2.258,4.703,4.882,4.831c1.654,0.07,3.221-0.493,4.367-1.616
					c1.155-1.133,1.791-2.689,1.744-4.27C78.572,98.486,75.653,96.266,73.078,96.266z"/>
			</g>
			<g>
				<path style="fill:#525D7D;" d="M65.568,125.866c-0.545,0-1.072-0.206-1.472-0.58c-0.434-0.404-0.682-0.969-0.687-1.562
					l-0.003-0.831c0-4.349,0-14.534,9.007-15.659c0.731-0.089,1.427,0.195,1.884,0.71c0.198-0.421,0.533-0.78,0.981-1.006
					c0.499-0.252,1.037-0.379,1.6-0.379c5.273,0,7.702,10.865,7.777,16.407c0.015,1.144-0.863,2.101-2.004,2.183
					c-3.064,0.222-6.156,0.312-9.146,0.4c-2.563,0.076-5.214,0.154-7.803,0.313C65.656,125.864,65.612,125.866,65.568,125.866z
					 M74.632,110.299c-0.306,0.645-0.924,1.124-1.684,1.219c-3.464,0.433-5.012,3.333-5.204,9.911
					c1.895-0.087,3.786-0.143,5.632-0.197c2.248-0.066,4.554-0.133,6.841-0.258c-0.483-4.809-2.298-9.222-3.366-10.035
					C76.048,111.174,75.18,110.919,74.632,110.299z"/>
			</g>
			<g>
				<path style="fill:#525D7D;" d="M104.503,110.591c-0.108,0-0.217-0.002-0.326-0.005c-4.041-0.124-9.769-3.548-10.016-9.656
					c-0.216-5.401,3.879-10.23,9.326-10.995c0.695-0.099,1.396-0.127,2.077-0.094c3.914,0.2,7.858,2.873,8.786,5.958
					c0.063,0.208,0.137,0.417,0.212,0.63c0.22,0.628,0.47,1.339,0.561,2.151c0.335,2.941-0.821,6.252-3.016,8.638
					C110.098,109.401,107.408,110.591,104.503,110.591z M105.011,94.145c-0.304,0-0.611,0.022-0.92,0.065
					c-0.001,0.001-0.002,0.001-0.004,0.001c-3.221,0.452-5.738,3.388-5.611,6.545c0.143,3.556,3.816,5.452,5.833,5.513
					c2.217,0.065,3.755-1.036,4.62-1.976c1.33-1.445,2.095-3.545,1.904-5.225c-0.037-0.33-0.188-0.757-0.346-1.21
					c-0.096-0.275-0.191-0.548-0.272-0.817c-0.363-1.207-2.684-2.777-4.875-2.889C105.231,94.148,105.121,94.145,105.011,94.145z"/>
			</g>
			<g>
				<path style="fill:#525D7D;" d="M96.354,125.033c-0.469,0-0.929-0.153-1.308-0.441c-0.477-0.363-0.782-0.909-0.841-1.505
					c-0.113-1.141-0.17-2.25-0.17-3.293c0-8.95,4.138-12.011,7.609-13.003c1.145-0.324,2.341,0.337,2.669,1.483
					c0.327,1.147-0.337,2.342-1.483,2.669c-1.108,0.316-4.478,1.279-4.478,8.851c0,0.191,0.002,0.386,0.007,0.583
					c4.279-0.602,8.559-0.862,12.749-1.068c-0.389-3.806-1.117-7.349-3.915-9.129c-1.006-0.64-1.303-1.975-0.663-2.981
					c0.64-1.006,1.974-1.302,2.981-0.663c5.145,3.274,5.67,9.516,6.091,14.53c0.049,0.584-0.137,1.219-0.524,1.66
					c-0.386,0.441-0.931,0.761-1.517,0.789c-5.619,0.264-11.31,0.532-16.842,1.488C96.599,125.022,96.477,125.033,96.354,125.033z"
					/>
			</g>
			<g>
				<path style="fill:#525D7D;" d="M170.142,180.496c-13.117,0-25.779-4.942-34.932-13.676
					c-8.929-8.522-13.982-20.026-14.228-32.394c-0.504-24.797,18.105-46.432,42.363-49.251l0.001-0.001
					c0.996-0.115,2.036-0.191,3.18-0.231c13.216-0.443,26.895,4.878,36.629,14.281c6.468,6.247,14.177,17.129,14.174,33.498
					c-0.004,22.868-17.13,46.983-45.781,47.755C171.078,180.49,170.61,180.496,170.142,180.496z M163.844,89.463
					c-22.073,2.566-39.004,22.278-38.545,44.876c0.223,11.21,4.802,21.635,12.892,29.357c8.652,8.257,20.762,12.807,33.239,12.465
					c26.022-0.701,41.576-22.637,41.579-43.44c0.003-14.853-6.99-24.725-12.855-30.391c-8.91-8.606-21.409-13.505-33.479-13.072
					C165.65,89.295,164.724,89.361,163.844,89.463L163.844,89.463z"/>
			</g>
			<g>
				<path style="fill:#525D7D;" d="M169.921,170.389c-10.333,0-20.309-3.894-27.523-10.778
					c-7.045-6.722-11.031-15.799-11.225-25.556c-0.397-19.549,14.275-36.605,33.402-38.828c0.001-0.001,0.001-0.001,0.001-0.001
					c0.792-0.091,1.614-0.15,2.513-0.182c10.381-0.38,21.195,3.843,28.865,11.252c7.316,7.066,11.182,16.203,11.18,26.422
					c-0.003,18.033-13.51,37.048-36.106,37.656C170.66,170.384,170.289,170.389,169.921,170.389z M165.074,99.515
					c-16.942,1.97-29.937,17.103-29.585,34.453c0.171,8.599,3.683,16.596,9.889,22.518c6.645,6.342,15.963,9.84,25.534,9.571
					c19.967-0.537,31.902-17.374,31.905-33.34c0.002-11.396-5.363-18.969-9.863-23.315c-6.845-6.612-16.468-10.36-25.715-10.043
					C166.513,99.385,165.79,99.433,165.074,99.515L165.074,99.515z"/>
			</g>
			<g>
				<path style="fill:#525D7D;" d="M105.298,208.083c-5.529,0-11.109-3.524-11.109-11.396c0-7.136,10.426-16.638,21.464-26.698
					c4.874-4.443,9.478-8.638,12.476-12.086c0.782-0.899,2.146-0.995,3.046-0.212c0.9,0.782,0.994,2.146,0.212,3.046
					c-3.163,3.637-7.856,7.915-12.826,12.444c-8.935,8.143-20.055,18.277-20.055,23.506c0,6.389,4.749,7.078,6.791,7.078
					c9.753,0,25.097-19.057,32.47-28.215c1.517-1.884,2.715-3.371,3.617-4.402c0.784-0.899,2.148-0.989,3.047-0.203
					c0.897,0.785,0.988,2.149,0.203,3.047c-0.843,0.964-2.076,2.494-3.503,4.267C132.739,188.682,117.118,208.083,105.298,208.083z"
					/>
			</g>
			<g>
				<path style="fill:#525D7D;" d="M134.854,182.374c-0.463,0-0.93-0.148-1.324-0.455c-1.925-1.497-3.569-3.291-5.158-5.027
					c-2.382-2.601-4.633-5.058-7.661-6.434c-1.086-0.493-1.566-1.774-1.073-2.859c0.495-1.085,1.774-1.563,2.859-1.072
					c3.83,1.741,6.488,4.643,9.058,7.448c1.536,1.677,2.987,3.261,4.625,4.535c0.941,0.732,1.111,2.089,0.379,3.03
					C136.134,182.087,135.497,182.374,134.854,182.374z"/>
			</g>
			<g>
				<path style="fill:#525D7D;" d="M145.557,137.016c-1.193,0-2.159-0.966-2.159-2.159c0-7.408,2.788-17.253,10.613-22.67
					c0.981-0.678,2.325-0.434,3.005,0.546c0.679,0.98,0.434,2.326-0.546,3.005c-6.461,4.473-8.754,13.095-8.754,19.119
					C147.716,136.049,146.75,137.016,145.557,137.016z"/>
			</g>
		</g>
	</g>
</g>
<g id="Layer_1">
</g>
</svg>
