<?xml version="1.0" encoding="iso-8859-1"?>
<!-- Generator: Adobe Illustrator 21.0.2, SVG Export Plug-In . SVG Version: 6.00 Build 0)  -->
<svg version="1.1" xmlns="http://www.w3.org/2000/svg" xmlns:xlink="http://www.w3.org/1999/xlink" x="0px" y="0px"
	 viewBox="0 0 188.695 190.923" style="enable-background:new 0 0 188.695 190.923;" xml:space="preserve">
<g id="_x36_5">
	<g>
		<path style="fill:#E0DFE6;" d="M155.324,53.21c-0.88-6.24-2.562-20.949-9.376-23.923c-0.695-0.303-1.332,0.313-1.015,1.015
			c1.184,2.63-1.119,7.714-1.502,10.541c-0.699,5.151-0.884,10.349-1.126,15.534c-0.297,6.365-2.391,15.541-0.637,22.394
			c-4.002,1.552-9.919,1.243-13.847,1.463c-5.312,0.298-10.663,0.439-15.984,0.392c-9.771-0.085-20.143-2.626-29.781-0.672
			c-2.207,0.447-3.224,3.829-1.399,5.3c9.381,7.563,23.563,8.448,35.175,9.261c6.653,0.466,13.329,0.137,19.958-0.557
			c5.784-0.605,11.707-0.671,16.038-4.945c1.55-1.53,2.109-3.398,1.964-5.207C159.867,76.002,156.61,62.33,155.324,53.21z"/>
		<path style="fill:#E0DFE6;" d="M174.231,34.584c-1.158,0.293-2.317,0.644-3.363,1.244c-0.024,0.014-0.037,0.022-0.056,0.034
			c-0.877,0.333-1.755,0.671-2.579,1.118c-1.467,0.796-2.92,1.587-4.349,2.452c-3.708,2.244-4.938,8.049-1.437,11.149
			c7.469,6.614,19.592-0.756,19.727-9.946C182.235,36.483,178.121,33.598,174.231,34.584z"/>
		<path style="fill:#E0DFE6;" d="M182.064,65.07c-2.897,0.667-5.175,2.613-8.117,3.179c-2.824,0.543-5.642,0.09-8.452,0.54
			c-2.186,0.35-3.117,3.312-2.048,5.034c4.795,7.718,20.36,6.846,24.579-0.998C190.248,68.694,186.593,64.027,182.064,65.07z"/>
		<path style="fill:#E0DFE6;" d="M180,91.504c-2.735,1.113-4.69,3.22-7.339,4.465c-2.139,1.006-4.638,1.361-6.943,1.752
			c-2.673,0.454-3.021,3.929-1.489,5.638c6.532,7.29,21.25,2.843,22.188-6.967C186.709,93.348,182.903,90.322,180,91.504z"/>
		<path style="fill:#E0DFE6;" d="M188.441,126.525c-0.292-1.566-1.912-3.163-3.469-3.469c-4.008-0.786-6.674,1.636-9.989,3.427
			c-0.572,0.309-1.123,0.531-1.667,0.715c-3.324-4.654-12.051-1.385-11.825,4.472c0.203,5.266,0.251,9.141-3.659,13.213
			c-4.298,4.475-10.65,6.152-16.516,7.416c-6.006,1.295-12.038,2.091-18.151,2.632c-5.494,0.487-11.949,0.35-17.069,2.388
			c-1.765,0.703-2.446,2.675-1.102,4.172c5.152,5.737,14.783,6.347,22.006,5.866c8.963-0.596,18.577-1.661,27.027-4.832
			c10.642-3.994,21.027-13.78,21.583-25.186C182.7,137.502,189.829,133.969,188.441,126.525z"/>
		<path style="fill:#E0DFE6;" d="M78.788,168.313c-0.368-2.448-2.448-4.532-5.053-4.461c-0.035,0.001-0.071,0.005-0.106,0.006
			c-0.06-2.251-1.341-4.308-4.212-4.746c-6.643-1.016-14.253-1.313-20.16,2.25c-1.888,0.343-3.623,1.026-5.078,2.205
			c-0.316,0.256-0.401,0.895-0.158,1.226c2.08,2.841,4.459,3.554,7.784,4.58c4.11,1.268,8.26,2.375,12.383,3.596
			c1.049,0.311,2.165,0.209,3.161-0.196c2.453,1.386,4.905,1.589,7.752,1.185C77.599,173.604,79.126,170.558,78.788,168.313z"/>
		<path style="fill:#E0DFE6;" d="M106.588,169.749c-10.868-9.547-23.327-17.745-35.204-25.985
			c-10.773-7.474-21.281-15.306-32.052-22.761c-0.549-0.38-1.06,0.336-0.831,0.831c5.607,12.134,15.208,21.219,25.1,29.977
			c11.105,9.832,22.62,20.084,34.892,28.43C104.724,184.478,112.292,174.76,106.588,169.749z"/>
		<path style="fill:#E0DFE6;" d="M120.428,180.898c-0.36-1.309-1.428-2.407-2.751-2.751c-0.256-0.067-0.529-0.107-0.802-0.134
			c-0.594-0.564-1.36-0.93-2.226-0.891c-1.413,0.063-2.954,0.991-3.253,2.477c-0.353,1.754,0.044,3.579,1.375,4.853
			c0.663,0.635,1.42,1.076,2.286,1.372c0.452,0.154,0.93,0.19,1.402,0.178c1.229-0.032,2.034-0.518,2.956-1.27
			C120.472,183.869,120.771,182.146,120.428,180.898z"/>
		<path style="fill:#E0DFE6;" d="M59.632,85.497c-0.119-9.115-0.161-18.234-0.358-27.348c-0.186-8.611-0.483-17.33-1.264-25.908
			c-0.742-8.147-0.922-16.873-3.68-24.63c-0.203-0.572-0.97-0.579-1.171,0c-2.566,7.38-2.642,15.464-3.368,23.191
			c-0.851,9.045-1.097,18.264-1.213,27.348c-0.11,8.635-0.101,17.273-0.152,25.908c-0.043,7.329-1.92,15.548,2.846,21.527
			c1.235,1.548,4.406,1.56,5.63,0C61.449,99.787,59.725,92.573,59.632,85.497z"/>
		<path style="fill:#E0DFE6;" d="M44.038,91.219c-4.964-4.345-12.637-12.196-19.682-7.3c-2.151,1.495-0.831,4.697,1.768,4.193
			c2.769-0.537,4.498,2.753,5.732,4.664c1.628,2.522,3.195,5.113,5.84,6.663C42.695,102.368,48.611,95.222,44.038,91.219z"/>
		<g>
			<g>
				<path style="fill:#525D7D;" d="M122.534,190.923c-0.203,0-0.407-0.028-0.608-0.087l-29.168-8.556
					c-0.333-0.098-0.637-0.274-0.888-0.514l-80.88-77.684c-0.113-0.108-0.214-0.229-0.301-0.36c-1.33-1.996-2.033-4.321-2.033-6.725
					c0-3.414,1.408-6.716,3.863-9.061l2.428-2.315c1.671-1.588,3.897-2.428,6.438-2.428c2.795,0,5.702,1.032,7.777,2.761
					c0.042,0.035,0.083,0.072,0.122,0.11l84.791,82.307c0.162,0.157,0.299,0.34,0.405,0.54l9.961,18.844
					c0.406,0.767,0.312,1.704-0.237,2.376C123.789,190.641,123.172,190.923,122.534,190.923z M94.48,178.285l23.756,6.968
					l-7.413-14.021L26.342,89.224c-1.285-1.042-3.22-1.712-4.956-1.712c-0.985,0-2.386,0.215-3.464,1.24l-2.421,2.308
					c-1.606,1.534-2.527,3.697-2.527,5.937c0,1.474,0.41,2.901,1.188,4.144L94.48,178.285z"/>
			</g>
			<g>
				<path style="fill:#525D7D;" d="M94.347,181.397c-0.325,0-0.654-0.073-0.964-0.228c-1.066-0.534-1.498-1.83-0.966-2.897
					c2.582-5.164,6.848-8.451,10.975-11.63c0.788-0.607,1.577-1.215,2.353-1.834c0.932-0.745,2.29-0.596,3.035,0.337
					c0.745,0.931,0.594,2.29-0.337,3.033c-0.796,0.638-1.606,1.261-2.415,1.885c-3.913,3.014-7.608,5.862-9.747,10.14
					C95.901,180.96,95.138,181.397,94.347,181.397z"/>
			</g>
			<g>
				<path style="fill:#525D7D;" d="M109.924,185.645c-0.473,0-0.949-0.155-1.347-0.474c-0.931-0.745-1.082-2.103-0.337-3.035
					c0.51-0.637,0.956-1.335,1.427-2.075c1.156-1.813,2.466-3.87,4.959-5.115c1.066-0.531,2.363-0.101,2.896,0.966
					c0.533,1.067,0.101,2.364-0.966,2.897c-1.424,0.711-2.229,1.975-3.248,3.573c-0.512,0.803-1.041,1.633-1.696,2.453
					C111.185,185.368,110.558,185.645,109.924,185.645z"/>
			</g>
			<g>
				<path style="fill:#525D7D;" d="M10.327,94.071c-0.792,0-1.555-0.437-1.933-1.193c-0.514-1.027-1.99-1.934-3.419-2.811
					C2.759,88.705,0,87.012,0,83.883c0-2.643,2.32-7.579,7.91-7.579c4.15,0,8.363,2.849,10.483,7.089
					c0.533,1.067,0.1,2.363-0.966,2.897c-1.065,0.531-2.363,0.1-2.897-0.966c-1.615-3.23-4.564-4.702-6.621-4.702
					c-2.922,0-3.592,2.834-3.592,3.261c0,0.713,1.617,1.707,2.917,2.503c1.855,1.139,3.957,2.429,5.022,4.56
					c0.533,1.067,0.1,2.364-0.966,2.897C10.981,93.998,10.652,94.071,10.327,94.071z"/>
			</g>
			<g>
				<path style="fill:#525D7D;" d="M28.749,142.267c-4.029,0-7.185-3.07-7.185-6.989c0-4.303,3.032-6.554,6.027-6.554
					c2.439,0,3.609,1.236,4.549,2.227c0.15,0.159,0.309,0.327,0.483,0.502c0.399,0.399,0.609,0.915,0.63,1.438
					c0.002-0.08,0.004-0.162,0.004-0.245c0-5.601-4.584-7.328-12.064-9.68c-7.32-2.303-16.43-5.169-16.43-15.774
					c0-4.449,1.685-8.79,4.509-11.613c0.843-0.843,2.21-0.843,3.053,0c0.843,0.843,0.843,2.21,0,3.053
					c-2.031,2.031-3.244,5.232-3.244,8.56c0,6.937,5.065,9.031,13.408,11.655c7.071,2.224,15.086,4.745,15.086,13.799
					C37.574,139.705,32.297,142.267,28.749,142.267z M27.591,133.042c-1.07,0-1.709,0.836-1.709,2.236
					c0,1.753,1.442,2.671,2.867,2.671c0.176,0,4.152-0.055,4.485-4.671c-0.063,0.45-0.266,0.883-0.611,1.227
					c-0.843,0.843-2.21,0.843-3.053,0c-0.205-0.204-0.39-0.399-0.566-0.585C28.203,133.074,28.151,133.042,27.591,133.042z"/>
			</g>
			<g>
				<path style="fill:#525D7D;" d="M45.063,160.827c-0.553,0-1.086-0.212-1.488-0.594c-0.419-0.398-0.661-0.948-0.671-1.527
					c-0.15-8.444-0.318-16.885-0.502-25.328c-0.026-1.193,0.919-2.18,2.111-2.207c1.238,0.004,2.179,0.921,2.205,2.111
					c0.169,7.72,0.324,15.437,0.464,23.156l22.832-0.749c1.193-0.081,2.189,0.895,2.229,2.087c0.039,1.191-0.895,2.189-2.087,2.228
					l-25.022,0.821C45.11,160.827,45.086,160.827,45.063,160.827z"/>
			</g>
			<g>
				<path style="fill:#525D7D;" d="M99.153,159.053c-1.16,0-2.118-0.921-2.156-2.089c-0.039-1.192,0.895-2.189,2.087-2.228
					l49.277-1.615c6.541-1.799,13.713-6.048,14.593-12.694L159.54,15.663c-1.68-7.357-10.491-10.835-18.027-10.95
					c-17.401-0.27-31.777-0.395-45.242-0.395c-19.52,0-37.041,0.273-53.477,0.834c1.339,35.203,2.384,67.274,3.194,97.983
					c0.032,1.193-0.91,2.184-2.101,2.215c-1.19,0.073-2.184-0.908-2.215-2.1c-0.827-31.32-1.898-64.062-3.275-100.097
					c-0.022-0.573,0.186-1.131,0.576-1.552c0.39-0.42,0.931-0.668,1.505-0.689C57.59,0.298,75.84,0,96.271,0
					c13.488,0,27.886,0.125,45.309,0.395c9.568,0.148,20.15,4.707,22.225,14.561c0.027,0.127,0.042,0.256,0.046,0.385l3.424,125.132
					c0.003,0.104-0.002,0.208-0.014,0.312c-1.054,8.957-10.001,14.433-18.022,16.571c-0.158,0.042-0.321,0.066-0.485,0.072
					l-49.528,1.623C99.201,159.053,99.177,159.053,99.153,159.053z"/>
			</g>
			<g>
				<path style="fill:#525D7D;" d="M95.334,83.952c-6.304,0-11.963-0.259-17.298-0.793c-1.089-0.108-1.924-1.013-1.944-2.107
					c-0.077-4.044-0.117-8.088-0.157-12.133c-0.134-13.327-0.271-27.108-1.755-40.607c-0.069-0.63,0.142-1.258,0.577-1.719
					c0.436-0.46,1.058-0.694,1.683-0.673c8.841,0.467,17.942,0.694,27.821,0.694c11.369,0,23.589-0.299,38.455-0.945
					c0.58-0.027,1.16,0.19,1.585,0.597c0.424,0.406,0.666,0.969,0.667,1.556c0.031,15.829,1.472,31.793,2.865,47.232l0.398,4.418
					c0.053,0.599-0.145,1.192-0.547,1.637c-0.402,0.447-0.972,0.706-1.572,0.714c-7.752,0.113-15.717,0.586-23.42,1.044
					C113.726,83.4,104.455,83.952,95.334,83.952z M80.375,79.04c4.634,0.399,9.549,0.593,14.959,0.593
					c8.993,0,18.199-0.547,27.103-1.077c6.985-0.415,14.186-0.843,21.286-1.008l-0.19-2.106c-1.337-14.807-2.716-30.093-2.87-45.366
					c-13.928,0.582-25.545,0.853-36.402,0.853c-9.021,0-17.4-0.188-25.527-0.573c1.262,12.892,1.392,25.907,1.519,38.519
					C80.286,72.264,80.32,75.653,80.375,79.04z"/>
			</g>
			<g>
				<path style="fill:#525D7D;" d="M162.385,42.928c-1.15,0-2.106-0.907-2.156-2.066c-0.051-1.192,0.873-2.198,2.065-2.25
					c3.308-0.141,6.822-0.373,10.932-0.72c-0.017-0.929-0.024-1.858-0.024-2.786c0-2.851,0.07-5.731,0.138-8.517
					c0.013-0.53,0.026-1.06,0.039-1.59c-3.028,0.2-5.858,0.229-8.109,0.229c-1.127,0-2.257-0.008-3.391-0.02
					c-1.192-0.013-2.149-0.988-2.137-2.18c0.012-1.193,0.985-2.165,2.181-2.138c1.119,0.011,2.234,0.02,3.348,0.02
					c2.745,0,6.375-0.046,10.114-0.403c0.612-0.062,1.221,0.146,1.673,0.565c0.451,0.419,0.703,1.009,0.691,1.625
					c-0.025,1.335-0.058,2.667-0.091,3.998c-0.067,2.759-0.137,5.613-0.137,8.411c0,1.559,0.02,3.119,0.075,4.685
					c0.04,1.147-0.823,2.124-1.966,2.227c-5.068,0.453-9.247,0.742-13.152,0.909C162.448,42.928,162.416,42.928,162.385,42.928z"/>
			</g>
			<g>
				<path style="fill:#525D7D;" d="M165.091,70.921c-0.661,0-1.323-0.007-1.985-0.021c-1.192-0.027-2.137-1.013-2.111-2.206
					c0.025-1.192,0.964-2.122,2.205-2.113c5.197,0.114,10.483-0.283,15.602-0.669c1.662-0.125,3.327-0.25,4.996-0.36
					c-0.431-3.858-0.838-7.804-0.969-11.761c-6.604,0.346-13.447,0.707-20.195,0.499c-1.192-0.035-2.13-1.03-2.094-2.222
					c0.036-1.169,0.995-2.094,2.157-2.094c0.022,0,0.044,0,0.066,0.001c6.61,0.194,13.348-0.156,19.88-0.498l2.191-0.114
					c0.586-0.017,1.166,0.183,1.594,0.588c0.429,0.406,0.673,0.97,0.675,1.559c0.022,5.035,0.578,9.959,1.167,15.172l0.073,0.645
					c0.066,0.59-0.113,1.182-0.497,1.636c-0.384,0.453-0.937,0.728-1.53,0.762c-2.406,0.132-4.8,0.312-7.19,0.493
					C174.548,70.564,169.816,70.921,165.091,70.921z"/>
			</g>
			<g>
				<path style="fill:#525D7D;" d="M163.888,97.888c-1.099,0-2.04-0.836-2.146-1.953c-0.114-1.188,0.756-2.242,1.943-2.356
					c1.895-0.181,3.786-0.32,5.671-0.458c2.696-0.197,5.273-0.387,7.829-0.693c-0.04-0.604-0.081-1.209-0.124-1.815
					c-0.197-2.852-0.402-5.803-0.402-8.742c0-0.07,0-0.14,0-0.209c-1.228,0.008-2.459,0.028-3.693,0.046
					c-3.206,0.049-6.419,0.098-9.594-0.011c-1.191-0.041-2.124-1.04-2.083-2.232c0.041-1.192,1.072-2.145,2.232-2.083
					c3.106,0.105,6.247,0.058,9.379,0.01c1.771-0.028,3.54-0.055,5.298-0.055l0.683,0.001c0.587,0.004,1.147,0.246,1.552,0.672
					c0.404,0.424,0.618,0.997,0.592,1.583c-0.034,0.759-0.049,1.52-0.049,2.279c0,2.79,0.199,5.663,0.392,8.444
					c0.09,1.289,0.179,2.579,0.25,3.868c0.062,1.115-0.737,2.093-1.841,2.256c-3.364,0.495-6.792,0.745-10.107,0.988
					c-1.853,0.135-3.712,0.271-5.575,0.45C164.026,97.886,163.957,97.888,163.888,97.888z"/>
			</g>
			<g>
				<path style="fill:#525D7D;" d="M164.738,128.919c-1.165,0-2.125-0.928-2.157-2.1c-0.032-1.192,0.907-2.184,2.099-2.217
					c6.564-0.18,13.281-0.651,18.781-1.091c-0.035-0.32-0.07-0.642-0.105-0.964c-0.394-3.607-0.8-7.316-0.94-11.024
					c-5.932,0.301-12.046,0.599-18.131,0.613c-0.001,0-0.003,0-0.003,0c-1.191,0-2.158-0.963-2.161-2.153
					c-0.003-1.193,0.962-2.162,2.154-2.165c6.268-0.014,12.336-0.323,18.76-0.649l1.381-0.07c0.586-0.014,1.165,0.183,1.593,0.588
					c0.428,0.405,0.672,0.967,0.675,1.557c0.023,4.23,0.502,8.605,0.964,12.835c0.116,1.064,0.232,2.125,0.342,3.184
					c0.059,0.578-0.116,1.154-0.486,1.601c-0.37,0.447-0.905,0.725-1.484,0.773c-5.901,0.488-13.647,1.075-21.222,1.282
					C164.778,128.919,164.759,128.919,164.738,128.919z"/>
			</g>
			<g>
				<path style="fill:#525D7D;" d="M103.337,50.72c-1.424,0-2.813-0.754-4.421-1.626c-1.981-1.074-4.226-2.293-6.732-2.293
					c-1.53,0-2.732,0.544-3.783,1.712c-0.796,0.888-2.163,0.957-3.049,0.16c-0.886-0.798-0.958-2.163-0.16-3.05
					c1.876-2.083,4.229-3.14,6.992-3.14c3.602,0,6.602,1.628,8.792,2.816c0.836,0.454,1.982,1.075,2.373,1.103
					c0.96,0,2.244-1.019,3.485-2.003c1.806-1.434,3.853-3.057,6.499-3.057c1.08,0,1.701,0.671,2.42,1.446
					c1.079,1.165,2.885,3.115,5.209,3.115c2.563,0,5.573-1.642,8.228-3.09c1.046-0.573,2.359-0.187,2.929,0.86
					c0.571,1.047,0.185,2.359-0.862,2.929c-3.108,1.697-6.632,3.618-10.296,3.618c-4.16,0-6.958-2.967-8.328-4.446
					c-0.962,0.297-2.014,1.133-3.116,2.006C107.781,49.158,105.813,50.72,103.337,50.72z"/>
			</g>
			<g>
				<path style="fill:#525D7D;" d="M96.893,68.769c-0.968,0-1.877-0.202-2.679-0.381c-0.645-0.144-1.254-0.28-1.753-0.28
					c-1.193,0-2.159-0.967-2.159-2.159c0-1.192,0.966-2.159,2.159-2.159c0.975,0,1.887,0.204,2.692,0.382
					c0.642,0.144,1.248,0.278,1.74,0.278c1.01,0,2.383-0.984,3.71-1.936c1.876-1.345,4.002-2.869,6.585-2.869
					c1.623,0,3.442,0.835,5.549,1.802c2.433,1.117,5.19,2.382,7.684,2.382c2.204,0,3.338-0.749,4.538-1.542
					c1.088-0.718,2.321-1.532,4.065-1.532c2.767,0,6.663,1.611,6.663,5.192c0,1.192-0.966,2.159-2.159,2.159
					s-2.159-0.967-2.159-2.159l-0.001-0.014c-0.119-0.313-1.324-0.86-2.345-0.86c-0.427,0-0.872,0.281-1.685,0.818
					c-1.442,0.952-3.417,2.256-6.918,2.256c-3.438,0-6.791-1.539-9.486-2.776c-1.438-0.661-3.068-1.408-3.747-1.408
					c-1.196,0-2.656,1.047-4.069,2.061C101.324,67.312,99.29,68.769,96.893,68.769z"/>
			</g>
			<g>
				<path style="fill:#525D7D;" d="M61.776,119.478c-1.131,0-2.081-0.88-2.153-2.024c-1.122-17.944-1.289-36.14-1.451-53.737
					c-0.18-19.486-0.365-39.636-1.85-59.442c-0.089-1.189,0.802-2.225,1.991-2.315c1.197-0.084,2.226,0.803,2.314,1.992
					c1.496,19.946,1.683,40.169,1.863,59.724c0.162,17.541,0.329,35.679,1.443,53.508c0.074,1.191-0.83,2.215-2.02,2.29
					C61.866,119.476,61.821,119.478,61.776,119.478z"/>
			</g>
		</g>
	</g>
</g>
<g id="Layer_1">
</g>
</svg>
