<?xml version="1.0" encoding="iso-8859-1"?>
<!-- Generator: Adobe Illustrator 21.0.2, SVG Export Plug-In . SVG Version: 6.00 Build 0)  -->
<svg version="1.1" xmlns="http://www.w3.org/2000/svg" xmlns:xlink="http://www.w3.org/1999/xlink" x="0px" y="0px"
	 viewBox="0 0 170.042 187.501" style="enable-background:new 0 0 170.042 187.501;" xml:space="preserve">
<g id="_x36_6">
	<g>
		<path style="fill:#E0DFE6;" d="M112.575,61.013c-0.301-0.268-0.538-0.479-0.643-0.584c-2.214-2.209-4.226-4.566-6.194-6.992
			c-2.644-3.259-5.235-6.305-9.474-7.503c-4.36-1.233-8.928-0.189-13.161,0.984c-3.093,0.857-6.195,1.796-9.285,2.783
			c0.251-0.457,0.512-0.908,0.754-1.37c1.413-2.696,0.05-5.249-2.574-6.328c-6.107-2.512-11.688,1.228-16.631,4.65
			c-5.71,3.953-11.614,8.228-15.248,14.261c-1.139,1.891,1.044,3.526,2.769,2.769c4.444-1.947,8.338-4.888,12.376-7.549
			c1.48-0.975,4.483-3.321,7.424-4.912c-1.041,1.459-2.178,2.847-3.482,4.108c-3.994,3.864,0.235,9.581,5.063,8.698
			c8.072-1.476,16-4.425,24.092-5.636c5.123-0.767,5.668,1.207,8.114,5.133c1.776,2.849,3.749,5.558,5.835,8.187
			c3.712,4.678,8.378,10.452,15.046,9.48c7.209-1.051,9.85-9.842,9.906-16.024C127.335,57.302,115.894,54.684,112.575,61.013z"/>
		<path style="fill:#E0DFE6;" d="M129.018,98.408c-0.04-0.709-0.197-1.41-0.476-2.071c-0.836-1.981-2.892-3.609-5.127-3.64
			c-0.006-0.003-0.011-0.007-0.018-0.009c-0.875-0.369-1.792-0.448-2.729-0.211c-3.064,0.773-5.022,4.586-4.082,7.555
			c0.428,1.352,1.236,2.549,2.349,3.414c-0.407,1.194-0.682,2.458-0.902,3.748c-0.995,0.044-1.998,0.506-2.723,1.117
			c-5.368,4.518-3.506,13.894-4.811,20.195c-1.356,6.549-5.441,14.544-12.859,15.388c-7.254,0.825-16.28-3.616-22.948-6.198
			c-7.324-2.836-14.215-6.551-21.748-8.771c-0.509-0.15-0.953,0.441-0.686,0.892c1.281,2.161,2.779,4.156,4.44,6.009
			c-0.717,0.983-0.944,2.417-0.39,3.523c9.387,18.718,37.924,23.692,55.825,15.719c9.495-4.229,14.897-11.973,16.92-21.99
			c1.175-5.819,1.843-11.836,2.423-17.743C132.103,108.933,133.01,103.605,129.018,98.408z"/>
		<path style="fill:#E0DFE6;" d="M93.282,112.267c-0.777-1.841-2.582-3.507-4.688-3.507c-0.432,0-0.931,0.101-1.345,0.223
			c-0.042,0.012,0.073,0.001,0.238-0.019c-1.402,0.189-2.753,0.899-3.641,2.029c-0.543,0.692,0.367-0.171,0.375-0.208
			c-0.059,0.295-1.249,1.026-1.544,1.324c-0.15,0.151-0.377,0.345-0.494,0.519c-0.218,0.195-0.17,0.164,0.142-0.093
			c0.043-0.032,0.069-0.051,0.102-0.076c-0.099,0.316-0.928,0.645-1.341,1.005c-1.081-0.04-2.061,0.242-2.785,1.211
			c-0.753,1.008-0.959,2.484-0.253,3.597c1.725,2.72,4.751,4.499,8.009,4.061c2.161-0.29,4.353-1.181,5.716-2.946
			C93.341,117.359,94.349,114.797,93.282,112.267z"/>
		<path style="fill:#E0DFE6;" d="M73.1,89.54c-2.365-2.377-5.157-3.057-8.425-2.697c-4.231,0.466-8.303,2.718-8.43,7.457
			c-0.088,3.266,2.677,5.377,5.659,5.659c-1.741-0.165-0.399,0.048,0.919,0.078c0.312,0.007,0.635-0.023,0.949-0.022
			c1.422,0.007,2.762-0.219,4.123-0.608c2.65-0.758,4.652-2.263,5.87-4.715C74.614,92.98,74.495,90.942,73.1,89.54z"/>
		<path style="fill:#E0DFE6;" d="M99.25,83.911c-0.672-0.871-1.633-1.637-2.737-1.888c-1.449-0.33-2.718-0.105-4.059,0.531
			c-0.974,0.462-1.823,1.068-2.487,1.927c-0.404,0.522-0.78,1.058-1.157,1.598c-0.459,0.657-0.682,1.733-0.682,2.52
			c0,1.111,0.401,2.156,1.072,3.025c1.16,1.501,3.358,2.43,5.248,1.789c0.632-0.214,1.254-0.428,1.87-0.688
			c1.006-0.424,1.799-1.083,2.52-1.898C100.592,88.848,100.912,86.062,99.25,83.911z"/>
		<path style="fill:#E0DFE6;" d="M167.15,16.689c-0.662-2.131-3.615-2.097-4.294,0c-2.287,7.068-2.962,15.257-5.507,22.348
			c-0.147-0.019-0.29-0.036-0.445-0.059c-2.615-0.387-3.875-1.126-6.027-2.581c-2.911-1.969-5.549-2.735-8.974-1.23
			c-6.618,2.911-13.992,11.045-14.707,18.263c-0.229,2.31,2.531,3.301,4.264,2.447c3.562-1.755,6.16-4.889,9.393-7.145
			c0.816-0.57,3.807-1.677,3.814-2.552c0.899,0.782,1.871,1.898,2.585,2.287c2.311,1.259,5.443,1.943,8.377,1.732
			c1.403,2.344,4.109,3.845,7.204,2.934c6.919-2.038,6.851-8.702,6.891-14.812C169.772,31.183,169.281,23.546,167.15,16.689z"/>
		<path style="fill:#E0DFE6;" d="M25.642,35.524c-1-2.369-3.425-3.411-5.896-2.894c-0.793,0.166-1.486,0.391-2.228,0.729
			c-0.212,0.115-0.431,0.218-0.649,0.321c-0.017,0.002-0.083,0.024-0.225,0.077c-0.968,0.375-2.269,1.074-2.976,1.347
			c-1.399,0.541-2.471,1.512-2.658,3.085c-0.161,1.357,0.429,3.071,1.772,3.697c1.647,0.768,3.304,1.463,5.157,1.433
			c1.978-0.032,4.029-0.399,5.658-1.555C25.646,40.311,26.665,37.949,25.642,35.524z"/>
		<path style="fill:#E0DFE6;" d="M55.644,24.903c-1.912-2.387-4.433-4.817-7.043-6.438c-0.436-0.259-0.884-0.492-1.339-0.71
			c0-0.135,0.001-0.266-0.006-0.429c0.572-1.492,0.188-3.517-0.228-4.992c-0.439-1.56-2.595-2.751-4.064-1.653
			c-4.925,3.682-7.747,10.098-3.366,15.17c1.989,2.303,4.217,4.327,6.134,6.7c2.004,2.482,4.211,5.1,7.7,5.209
			C60.733,37.988,58.506,28.475,55.644,24.903z"/>
		<path style="fill:#E0DFE6;" d="M55.872,148.191c-6.203,0.707-10.306,4.423-15.1,8.238c-3.791,3.017-9.062,6.203-8.942,11.613
			c0.038,1.707,0.541,3.43,1.406,4.906c1.497,2.552,5.942,4.396-1.093,4.084c-4.396-0.195-7.354-1.356-11.647,0.526
			c-1.372,0.601-0.566,2.594,0.715,2.64c5.678,0.204,10.078,4.909,16.077,3.873c3.59-0.62,6.597-3.066,7.773-6.509
			c0.553-1.62,0.634-3.097,0.298-4.808c-0.632-3.214-1.453-2.165,2.046-3.727c4.914-2.194,11.468-6.69,13.769-11.596
			C62.914,153.719,60.95,147.612,55.872,148.191z"/>
		<path style="fill:#E0DFE6;" d="M169.977,174.775c-0.5-7.194-1.571-14.43-2.708-21.549c-1.314-8.229-14.921-4.896-12.752,3.516
			c1.325,5.141,4.124,12.441,4.192,18.273c-9.502,3.241-21.059-0.517-30.613,1.456c-2.078,0.429-3.129,3.688-1.34,5.075
			c9.163,7.102,26.932,7.272,37.678,3.551C169.45,183.36,170.319,179.698,169.977,174.775z"/>
		<g>
			<g>
				<path style="fill:#525D7D;" d="M110.656,87.405c-0.467,0-0.936-0.15-1.332-0.461c-8.951-7.028-13.555-17.101-16.495-25.691
					c-11.863,6.372-25.781,10.312-42.448,12.028c-0.711,0.065-1.391-0.201-1.852-0.732c-0.461-0.531-0.635-1.254-0.465-1.937
					c0.658-2.644,1.447-5.129,2.362-7.441c-6.342,3.851-12.361,9.02-17.955,15.424c-0.629,0.717-1.654,0.942-2.524,0.543
					c-0.869-0.396-1.373-1.317-1.24-2.263c3.584-25.608,26.706-45.947,52.64-46.304c22.243-0.275,44.914,14.06,45.301,42.111
					c0.029,2.11-0.078,4.82-0.318,8.057c-0.088,1.189-1.102,2.096-2.314,1.993c-1.189-0.089-2.081-1.124-1.993-2.314
					c0.231-3.111,0.335-5.693,0.307-7.678c-0.348-25.216-20.854-38.084-40.924-37.852c-20.869,0.287-40.364,15.438-46.696,35.083
					C40.848,64.044,47.42,59.42,54.324,56.18c0.856-0.405,1.874-0.199,2.511,0.498c0.638,0.697,0.748,1.729,0.271,2.544
					c-1.591,2.726-2.936,5.88-4.015,9.408c15.727-1.937,28.803-6.006,39.891-12.403c0.566-0.328,1.249-0.381,1.857-0.145
					c0.609,0.236,1.079,0.735,1.278,1.358c2.709,8.48,6.962,19.111,15.874,26.108c0.938,0.737,1.101,2.093,0.365,3.032
					C111.929,87.121,111.296,87.405,110.656,87.405z"/>
			</g>
			<g>
				<path style="fill:#525D7D;" d="M116.656,105.037c-0.996,0-1.892-0.693-2.109-1.707c-0.249-1.165,0.493-2.314,1.659-2.564
					c5.174-1.109,13.836-4.282,13.715-13.064c-0.051-3.695-1.438-5.079-4.935-5.003c-2.56,0.035-5.443,1.102-7.713,2.854
					c-0.943,0.729-2.299,0.555-3.028-0.389c-0.729-0.945-0.554-2.301,0.39-3.029c3.027-2.336,6.778-3.704,10.291-3.753
					c5.92-0.131,9.229,3.208,9.313,9.262c0.119,8.664-6.124,14.985-17.128,17.346C116.958,105.022,116.805,105.037,116.656,105.037z
					"/>
			</g>
			<g>
				<path style="fill:#525D7D;" d="M92.167,149.684c-31.709,0.003-55.843-24.237-56.291-56.723
					c-0.129-9.316,1.775-19.14,5.503-28.409c0.446-1.106,1.706-1.644,2.809-1.198c1.106,0.446,1.642,1.702,1.198,2.809
					c-3.517,8.744-5.312,17.989-5.191,26.739c0.418,30.317,23.12,52.925,52.775,52.458c24.293-0.336,25.129-13.8,26.285-32.438
					c0.244-3.933,0.496-7.999,0.992-12.15c0.141-1.184,1.219-2.034,2.399-1.888c1.184,0.14,2.029,1.216,1.888,2.399
					c-0.481,4.029-0.729,8.033-0.969,11.906c-1.152,18.564-2.24,36.098-30.536,36.489C92.742,149.683,92.453,149.684,92.167,149.684
					z"/>
			</g>
			<g>
				<path style="fill:#525D7D;" d="M128.288,51.82c-0.55,0-1.1-0.209-1.521-0.627c-0.846-0.841-0.851-2.207-0.011-3.053l17.58-17.71
					c0.807-0.814,2.109-0.852,2.967-0.093l10.648,9.464l3.832-33.713L130,7.825c0.969,1.434,1.919,2.873,2.85,4.287
					c1.522,2.305,3.094,4.691,4.695,6.961c0.686,0.971,0.456,2.314-0.512,3.004c-3.04,2.162-5.979,4.595-8.821,6.947
					c-3.577,2.96-7.275,6.022-11.294,8.657c-0.999,0.656-2.336,0.377-2.99-0.621c-0.654-0.997-0.375-2.335,0.621-2.988
					c3.819-2.505,7.423-5.489,10.909-8.373c2.37-1.962,4.806-3.979,7.347-5.88c-1.215-1.774-2.402-3.575-3.56-5.329
					c-1.609-2.44-3.273-4.963-4.976-7.358c-0.455-0.641-0.526-1.48-0.185-2.189c0.342-0.708,1.042-1.175,1.827-1.219l38.188-2.086
					c0.631-0.017,1.252,0.214,1.689,0.675c0.436,0.462,0.646,1.094,0.574,1.725l-4.591,40.385c-0.091,0.801-0.621,1.486-1.373,1.774
					c-0.752,0.287-1.604,0.131-2.206-0.403l-12.23-10.87L129.82,51.181C129.399,51.607,128.843,51.82,128.288,51.82z"/>
			</g>
			<g>
				<path style="fill:#525D7D;" d="M162.095,181.534c-0.056,0-0.111-0.003-0.167-0.007l-39.489-3.068
					c-0.836-0.065-1.559-0.607-1.854-1.393c-0.295-0.784-0.108-1.67,0.478-2.269c3.175-3.244,6.436-6.66,10.426-10.917
					l-15.406-16.537c-0.813-0.873-0.764-2.239,0.108-3.052c0.873-0.815,2.238-0.766,3.052,0.108l16.78,18.012
					c0.773,0.829,0.772,2.117-0.002,2.945c-3.276,3.508-6.061,6.452-8.663,9.155l32.169,2.499c-0.464-3.061-0.869-6.321-1.225-9.884
					c-0.536-5.362-0.905-10.812-1.261-16.082c-0.129-1.909-0.259-3.819-0.396-5.731c-0.498,0.585-0.992,1.168-1.481,1.746
					c-1.733,2.05-3.526,4.168-5.397,6.168c-0.429,0.46-1.033,0.714-1.664,0.682c-0.628-0.025-1.212-0.323-1.603-0.815
					l-17.939-22.596c-0.741-0.933-0.585-2.291,0.349-3.033c0.934-0.741,2.292-0.585,3.033,0.348l16.36,20.607
					c1.212-1.368,2.401-2.775,3.565-4.149c1.592-1.881,3.237-3.826,4.951-5.689c0.581-0.631,1.481-0.856,2.29-0.581
					c0.811,0.278,1.38,1.011,1.451,1.865c0.299,3.634,0.545,7.263,0.79,10.885c0.354,5.237,0.72,10.65,1.25,15.944
					c0.454,4.542,0.985,8.57,1.624,12.318c0.112,0.655-0.085,1.327-0.533,1.817C163.279,181.281,162.699,181.534,162.095,181.534z"
					/>
			</g>
			<g>
				<path style="fill:#525D7D;" d="M39.878,181.364c-0.115,0-0.23-0.008-0.345-0.028l-37.718-6.1
					c-0.588-0.094-1.11-0.429-1.444-0.922c-0.333-0.493-0.448-1.102-0.318-1.683l7.932-35.243c0.186-0.825,0.836-1.466,1.664-1.639
					c0.829-0.173,1.68,0.152,2.182,0.832l7.017,9.532c2.376-1.871,4.315-3.634,6.202-5.347c3.786-3.44,7.362-6.688,13.495-9.901
					c1.057-0.554,2.361-0.146,2.915,0.911c0.554,1.057,0.145,2.361-0.91,2.915c-5.644,2.956-8.865,5.883-12.596,9.272
					c-2.402,2.182-4.885,4.438-8.256,6.935c-0.46,0.342-1.034,0.484-1.607,0.401c-0.567-0.086-1.077-0.394-1.417-0.855l-5.514-7.491
					l-6.389,28.387l30.294,4.9l-6.98-9.637c-0.68-0.938-0.498-2.245,0.413-2.962l23.131-18.228c0.937-0.738,2.294-0.576,3.032,0.358
					c0.738,0.938,0.577,2.294-0.36,3.032l-21.503,16.946l8.83,12.19c0.512,0.708,0.548,1.654,0.089,2.399
					C41.319,180.982,40.619,181.364,39.878,181.364z"/>
			</g>
			<g>
				<path style="fill:#525D7D;" d="M32.442,49.067c-0.737,0-1.454-0.377-1.858-1.056l-9.377-15.764
					c-1.744,1.431-3.469,2.932-5.153,4.397c-1.132,0.984-2.267,1.971-3.412,2.943c-0.63,0.534-1.509,0.662-2.268,0.33
					c-0.756-0.335-1.257-1.071-1.287-1.896L7.767,2.237C7.743,1.585,8.015,0.958,8.507,0.529c0.491-0.429,1.151-0.606,1.792-0.499
					l35.879,6.311c0.791,0.139,1.44,0.707,1.684,1.473c0.243,0.766,0.041,1.602-0.524,2.173l-8.219,8.29l15.158,13.909
					c0.879,0.807,0.938,2.172,0.131,3.052c-0.803,0.879-2.17,0.935-3.05,0.131L34.545,19.943c-0.432-0.398-0.684-0.953-0.699-1.541
					c-0.014-0.586,0.212-1.154,0.625-1.57l6.892-6.952L12.181,4.746l1.056,28.626c2.336-2.033,4.752-4.133,7.23-6.064
					c0.488-0.382,1.116-0.53,1.727-0.42c0.609,0.115,1.139,0.486,1.456,1.019l10.646,17.898c0.61,1.025,0.273,2.349-0.752,2.959
					C33.197,48.97,32.817,49.067,32.442,49.067z"/>
			</g>
			<g>
				<path style="fill:#525D7D;" d="M54.16,98.194c-0.042,0-0.084-0.001-0.127-0.004c-1.19-0.068-2.099-1.088-2.031-2.279
					c0.401-6.971,4.435-14.077,11.371-14.173c1.288,0.007,2.693,0.773,3.789,2.17c1.044,1.331,1.631,2.977,1.654,4.637
					c0.044,3.164-1.55,4.931-4.485,4.972c-3.075-0.014-5.34-1.643-5.884-4.3c-1.34,2.106-2.014,4.856-2.134,6.941
					C56.247,97.307,55.296,98.194,54.16,98.194z M63.501,86.28c-0.056,0.06-0.116,0.118-0.18,0.173
					c-0.442,0.379-0.691,0.926-0.683,1.503c0.006,0.441-0.006,1.227,1.633,1.244c0.079-0.001,0.144-0.004,0.198-0.008
					c0.018-0.127,0.033-0.316,0.029-0.586C64.483,87.537,63.917,86.692,63.501,86.28z"/>
			</g>
			<g>
				<path style="fill:#525D7D;" d="M83.05,91.395c-0.231,0-0.467-0.037-0.699-0.117c-1.128-0.385-1.73-1.612-1.345-2.741
					c1.217-3.56,4.068-11.901,11.495-12.003c2.93,0.023,4.769,1.099,5.781,2.062c1.224,1.165,1.967,2.776,1.988,4.307
					c0.02,1.415-0.607,2.814-1.72,3.836c-0.818,0.751-2.284,1.653-4.627,1.685c-1.98,0.007-3.197-0.797-3.866-1.494
					c-0.856-0.891-1.337-2.117-1.356-3.451c-0.003-0.246,0.011-0.493,0.041-0.742c-1.316,1.462-2.493,3.812-3.65,7.197
					C84.786,90.832,83.948,91.395,83.05,91.395z M93.955,81.008c-0.03,0.385-0.164,0.766-0.408,1.101
					c-0.341,0.468-0.533,0.946-0.528,1.311c0.003,0.231,0.06,0.425,0.151,0.519c0.107,0.112,0.361,0.156,0.692,0.169
					c0.766-0.01,1.393-0.205,1.766-0.548c0.241-0.221,0.325-0.458,0.323-0.595c-0.003-0.219-0.142-0.759-0.648-1.24
					C94.955,81.391,94.499,81.151,93.955,81.008z"/>
			</g>
			<g>
				<path style="fill:#525D7D;" d="M79.406,118.97c-0.81,0-2.678-0.301-3.582-2.903c-0.401-1.156-0.5-2.436-0.512-3.308
					c-0.024-1.749,0.279-3.57,0.571-5.332c0.293-1.764,0.597-3.588,0.572-5.325c-0.018-1.269-0.207-2.378-0.581-3.39
					c-0.412-1.119,0.161-2.36,1.28-2.772c1.117-0.413,2.36,0.16,2.773,1.279c0.545,1.48,0.822,3.057,0.846,4.824
					c0.03,2.122-0.306,4.14-0.63,6.092c-0.273,1.646-0.532,3.201-0.513,4.563c0.012,0.845,0.125,1.463,0.235,1.836
					c1.14-0.434,3.272-1.964,4.377-2.756c0.756-0.541,1.472-1.053,2.096-1.455c1.002-0.648,2.338-0.357,2.984,0.645
					c0.645,1.002,0.356,2.339-0.647,2.984c-0.571,0.368-1.226,0.839-1.918,1.335c-2.503,1.795-5.092,3.65-7.306,3.681
					C79.437,118.97,79.422,118.97,79.406,118.97z"/>
			</g>
			<g>
				<path style="fill:#525D7D;" d="M92.044,132.319c-1.479,0-2.948-0.297-4.368-0.881c-1.103-0.454-1.628-1.715-1.174-2.818
					c0.455-1.102,1.716-1.626,2.819-1.174c0.926,0.381,1.891,0.559,2.82,0.554c2.929-0.039,5.832-1.983,7.577-5.071
					c0.588-1.036,1.906-1.403,2.942-0.817c1.038,0.586,1.404,1.903,0.818,2.942c-2.499,4.419-6.819,7.204-11.277,7.264
					C92.149,132.317,92.097,132.319,92.044,132.319z"/>
			</g>
			<g>
				<g>
					<path style="fill:#525D7D;" d="M8.815,55.022c-1.16,0-2.118-0.921-2.156-2.087l-0.092-2.887
						c-0.036-1.192,0.902-2.187,2.094-2.222c1.175-0.073,2.188,0.901,2.223,2.093l0.091,2.873c0.039,1.192-0.895,2.19-2.087,2.229
						C8.864,55.022,8.839,55.022,8.815,55.022z"/>
				</g>
				<g>
					<path style="fill:#525D7D;" d="M11.191,105.273c-1.141,0-2.094-0.894-2.154-2.047l-0.27-5.152
						c-0.063-1.191,0.852-2.207,2.042-2.27c1.183-0.03,2.207,0.851,2.27,2.042l0.27,5.154c0.062,1.191-0.853,2.207-2.044,2.269
						C11.267,105.272,11.229,105.273,11.191,105.273z M10.311,88.529c-1.141,0-2.094-0.894-2.154-2.047l-0.265-5.156
						c-0.06-1.191,0.856-2.205,2.046-2.266c1.172-0.048,2.206,0.855,2.266,2.047l0.265,5.15c0.062,1.191-0.853,2.207-2.044,2.269
						C10.387,88.528,10.349,88.529,10.311,88.529z M9.486,71.781c-1.147,0-2.102-0.902-2.156-2.061
						c-0.079-1.719-0.155-3.44-0.228-5.162c-0.051-1.191,0.874-2.198,2.065-2.249c1.219-0.06,2.199,0.874,2.249,2.066
						c0.073,1.716,0.149,3.431,0.228,5.147c0.054,1.191-0.867,2.201-2.058,2.255C9.553,71.78,9.519,71.781,9.486,71.781z"/>
				</g>
				<g>
					<path style="fill:#525D7D;" d="M11.915,119.733c-1.146,0-2.101-0.901-2.156-2.058l-0.137-2.877
						c-0.058-1.19,0.861-2.203,2.052-2.26c1.175-0.062,2.203,0.86,2.26,2.052l0.138,2.883c0.056,1.191-0.864,2.203-2.056,2.258
						C11.983,119.731,11.948,119.733,11.915,119.733z"/>
				</g>
			</g>
			<g>
				<g>
					<path style="fill:#525D7D;" d="M58.068,9.454c-0.028,0-0.056,0-0.084-0.001l-2.885-0.115c-1.191-0.051-2.116-1.059-2.065-2.249
						c0.051-1.192,1.068-2.109,2.248-2.066l2.867,0.115c1.191,0.045,2.12,1.049,2.075,2.241C60.18,8.54,59.223,9.454,58.068,9.454z"
						/>
				</g>
				<g>
					<path style="fill:#525D7D;" d="M78.022,9.846c-0.001,0-0.003,0-0.003,0c-2.056-0.004-4.11-0.02-6.167-0.046
						c-1.193-0.016-2.146-0.995-2.131-2.187c0.016-1.192,0.99-2.11,2.187-2.131c2.041,0.027,4.08,0.042,6.117,0.046
						c1.193,0.003,2.157,0.971,2.155,2.163C80.178,8.882,79.212,9.846,78.022,9.846z M91.838,9.722
						c-1.172,0-2.134-0.939-2.158-2.116c-0.024-1.193,0.924-2.179,2.116-2.203c2.039-0.041,4.078-0.09,6.119-0.149
						c1.237-0.087,2.187,0.904,2.221,2.096s-0.904,2.186-2.096,2.22c-2.055,0.059-4.107,0.111-6.159,0.152
						C91.867,9.722,91.853,9.722,91.838,9.722z"/>
				</g>
				<g>
					<path style="fill:#525D7D;" d="M111.787,9.038c-1.145,0-2.099-0.9-2.155-2.055c-0.058-1.191,0.861-2.203,2.051-2.26
						l2.869-0.143c1.186-0.055,2.205,0.855,2.267,2.045c0.061,1.191-0.855,2.207-2.046,2.267l-2.88,0.143
						C111.857,9.036,111.822,9.038,111.787,9.038z"/>
				</g>
			</g>
			<g>
				<g>
					<path style="fill:#525D7D;" d="M156.673,60.118c-1.089,0-2.025-0.821-2.144-1.929l-0.312-2.855
						c-0.131-1.186,0.723-2.253,1.909-2.384c1.179-0.128,2.252,0.724,2.383,1.909l0.313,2.869c0.128,1.185-0.73,2.249-1.915,2.377
						C156.828,60.114,156.75,60.118,156.673,60.118z"/>
				</g>
				<g>
					<path style="fill:#525D7D;" d="M161.048,111.955c-1.133,0-2.084-0.883-2.153-2.03c-0.107-1.771-0.218-3.544-0.333-5.313
						c-0.077-1.191,0.825-2.218,2.015-2.296c1.197-0.076,2.217,0.825,2.295,2.014c0.115,1.778,0.226,3.556,0.333,5.336
						c0.072,1.191-0.835,2.212-2.025,2.284C161.136,111.954,161.092,111.955,161.048,111.955z M159.866,94.655
						c-1.118,0-2.064-0.862-2.151-1.995c-0.136-1.77-0.275-3.539-0.419-5.309c-0.096-1.188,0.788-2.229,1.977-2.326
						c1.202-0.083,2.23,0.788,2.327,1.978c0.144,1.775,0.285,3.551,0.42,5.329c0.091,1.189-0.799,2.227-1.988,2.318
						C159.977,94.653,159.921,94.655,159.866,94.655z M158.406,77.374c-1.102,0-2.043-0.84-2.147-1.959
						c-0.163-1.765-0.331-3.532-0.503-5.302c-0.116-1.186,0.752-2.242,1.939-2.359c1.173-0.12,2.243,0.752,2.358,1.94
						c0.174,1.775,0.342,3.551,0.506,5.322c0.11,1.188-0.763,2.239-1.951,2.349C158.54,77.371,158.473,77.374,158.406,77.374z"/>
				</g>
				<g>
					<path style="fill:#525D7D;" d="M161.839,126.824c-1.147,0-2.102-0.902-2.156-2.059l-0.136-2.872
						c-0.058-1.191,0.861-2.203,2.052-2.26c1.161-0.053,2.203,0.862,2.26,2.052l0.137,2.88c0.055,1.192-0.866,2.201-2.057,2.256
						C161.906,126.823,161.871,126.824,161.839,126.824z"/>
				</g>
			</g>
			<g>
				<g>
					<path style="fill:#525D7D;" d="M55.083,178.556c-0.009,0-0.018,0-0.026,0l-2.87-0.028c-1.192-0.008-2.151-0.983-2.143-2.174
						c0.008-1.188,0.973-2.144,2.159-2.144c0.005,0,0.011,0,0.016,0l2.888,0.028c1.192,0.014,2.148,0.992,2.134,2.184
						C57.227,177.606,56.263,178.556,55.083,178.556z"/>
				</g>
				<g>
					<path style="fill:#525D7D;" d="M90.107,179.017c-1.183,0-2.147-0.953-2.158-2.139c-0.011-1.192,0.947-2.167,2.139-2.179
						c2.107-0.02,4.216-0.058,6.325-0.118c1.134-0.074,2.186,0.902,2.221,2.094c0.035,1.192-0.904,2.187-2.096,2.221
						c-2.138,0.063-4.274,0.101-6.41,0.121C90.121,179.017,90.114,179.017,90.107,179.017z M75.778,178.937
						c-0.012,0-0.024,0-0.037,0c-2.126-0.035-4.251-0.077-6.376-0.121c-1.192-0.025-2.139-1.011-2.114-2.204
						c0.024-1.192,1.003-2.116,2.203-2.114c2.119,0.044,4.239,0.086,6.359,0.121c1.192,0.02,2.143,1.002,2.123,2.194
						C77.917,177.994,76.954,178.937,75.778,178.937z"/>
				</g>
				<g>
					<path style="fill:#525D7D;" d="M110.775,178.084c-1.106,0-2.049-0.846-2.148-1.969c-0.105-1.188,0.773-2.236,1.961-2.34
						c0.945-0.083,1.891-0.174,2.835-0.273c1.177-0.112,2.248,0.737,2.371,1.924c0.124,1.185-0.737,2.248-1.923,2.371
						c-0.969,0.101-1.936,0.193-2.904,0.278C110.903,178.081,110.839,178.084,110.775,178.084z"/>
				</g>
			</g>
		</g>
	</g>
</g>
<g id="Layer_1">
</g>
</svg>
