<?xml version="1.0" encoding="iso-8859-1"?>
<!-- Generator: Adobe Illustrator 21.0.2, SVG Export Plug-In . SVG Version: 6.00 Build 0)  -->
<svg version="1.1" xmlns="http://www.w3.org/2000/svg" xmlns:xlink="http://www.w3.org/1999/xlink" x="0px" y="0px"
	 viewBox="0 0 198.968 213.335" style="enable-background:new 0 0 198.968 213.335;" xml:space="preserve">
<g id="_x36_7">
	<g>
		<path style="fill:#E0DFE6;" d="M98.568,153.004c-15.799,0.963-31.711,1.352-47.455,3.051c-12.286,1.326-27.036,6.325-38.399-0.64
			c-0.923-0.566-2.239,0.379-1.883,1.448c4.003,12.01,20.294,11.182,30.512,11.693c19.077,0.954,38.142-0.002,57.226-0.439
			C108.322,167.895,108.247,152.414,98.568,153.004z"/>
		<path style="fill:#E0DFE6;" d="M161.539,121.944c-1.158-0.477-3.099,0.039-3.873,1.024c-4.593,5.84,0.04,11.9,0.045,18.66
			c0.006,7.922-4.701,10.518-10.457,14.227c-1.206-2.074-3.456-3.4-6.286-2.364c-5.427,1.987-13.464,2.862-17.012,7.833
			c-0.975,1.366-0.107,3.046,1.026,3.912c4.941,3.783,13.696,0.892,19.107-0.425c2.066-0.503,3.284-1.807,3.816-3.371
			c7.494,3.855,15.861-4.585,18.59-11.034C169.798,142.601,170.631,125.689,161.539,121.944z"/>
		<path style="fill:#E0DFE6;" d="M89.881,135.03c-10.855,1.435-22.187,0.628-33.128,0.932c-9.355,0.26-21.273,0.162-29.545,5.07
			c-1.093,0.649-1.092,2.264,0,2.913c8.66,5.145,21.137,4.872,30.911,5.113c11.155,0.275,22.516,1.084,33.593-0.498
			C99.312,147.475,97.587,134.011,89.881,135.03z"/>
		<path style="fill:#E0DFE6;" d="M171.526,182.739c-4.747,2.222-8.341,5.774-12.36,9.08c-2.989,2.459-5.999,4.898-8.996,7.349
			c-0.031-1.47-0.061-2.94-0.092-4.41c-0.077-3.703-2.838-5.85-6.275-6.275c-9.998-1.234-19.556-4.723-28.228-9.83
			c-1.944-1.145-4.364,1.168-3.139,3.139c5.905,9.49,14.754,15.447,25.198,18.079c0.025,1.185,0.049,2.37,0.074,3.555
			c0.096,4.622,4.256,6.59,7.761,5.917c1.663,3.2,5.601,5.394,9.071,2.936c8.615-6.104,18.972-15.687,20.949-26.493
			C175.93,183.385,173.721,181.711,171.526,182.739z"/>
		<path style="fill:#E0DFE6;" d="M181.416,114.637c-0.745-0.28-1.173,0.736-0.722,1.24c14.269,15.945,7.553,37.259-5.755,50.971
			c-6.091,6.276,2.955,14.935,9.462,9.462C201.865,161.622,206.757,124.147,181.416,114.637z"/>
		<path style="fill:#E0DFE6;" d="M40.266,24.476c-3.362,0-6.031,2.554-7.608,5.287c-1.028,1.781-2.028,3.555-3.265,4.313
			c-0.962,0.59-3.186,0.897-4.728,1.227c-2.304,0.493-3.24,2.97-2.865,5.046c1.095,6.071,8.623,7.476,13.673,6.126
			c6.049-1.617,11.359-8.375,11.223-14.714C46.624,28.339,43.973,24.476,40.266,24.476z"/>
		<path style="fill:#E0DFE6;" d="M141.71,25.184c-0.647-2.653-3.151-4.187-5.718-4.353c-2.04-0.132-4.114,1.217-5.12,2.937
			c-1.024,1.75-0.442,3.426-1.22,4.894c-1.826,3.45-6.045,3.63-9.536,3.849c-2.142,0.134-3.637,3.495-1.226,4.526
			c4.818,2.061,10.118,3.842,15.305,1.945C139.789,36.936,143.125,30.984,141.71,25.184z"/>
		<path style="fill:#E0DFE6;" d="M150.373,46.877c-11.184-1.545-22.897-0.379-34.168-0.151c-11.873,0.241-23.747,0.404-35.619,0.679
			c-23.743,0.548-47.599,0.887-71.238,3.258c-2.083,0.209-2.079,3.02,0,3.239c23.629,2.483,47.495,2.828,71.238,3.259
			c11.397,0.207,22.796,0.28,34.194,0.4c11.721,0.124,23.988,1.242,35.593-0.534C155.367,56.262,155.432,47.576,150.373,46.877z"/>
		<path style="fill:#E0DFE6;" d="M171.102,98.693c0.105-15.941-1.788-32.292-4.589-47.925c-1.84-10.268-3.519-27.221-16.144-29.722
			c-1.668-0.33-2.574,1.441-1.575,2.706c3.302,4.182,3.457,9.81,4.06,14.842c0.884,7.377,2.126,14.712,2.972,22.099
			c1.549,13.536,1.754,26.993,2.271,40.582c0.281,7.385,10.47,8.742,12.763,1.727c0.103-0.314,0.205-0.629,0.308-0.943
			C171.537,100.931,171.468,99.767,171.102,98.693z"/>
		<path style="fill:#E0DFE6;" d="M51.716,14.314c-2.682-4.597-7.299-7.505-10.717-11.456c-2.439-2.819-6.318,0.769-4.875,3.761
			c2.097,4.348,2.817,9.504,5.726,13.461c1.825,2.482,4.954,3.723,7.816,2.049C52.339,20.566,53.276,16.988,51.716,14.314z"/>
		<path style="fill:#E0DFE6;" d="M145.934,13.17c-1.309-2.582-3.813-4.316-5.728-6.43c-1.606-1.773-3.032-3.929-5.378-4.736
			c-0.889-0.306-2.079,0.195-2.514,1.023c-1.322,2.514-0.499,5.582,0.24,8.168c0.897,3.14,1.9,6.665,4.4,8.905
			C141.828,24.466,148.905,19.03,145.934,13.17z"/>
		<path style="fill:#E0DFE6;" d="M89.693,88.417c-1.805-3.264-6.31-5.03-9.893-2.946c-0.165,0.096-0.335,0.189-0.501,0.284
			c-1.445-2.823-5.353-4.301-8.77-1.608c-3.233,2.547-6.836,5.03-9.489,8.191c0.037,0.021,0.073,0.043,0.11,0.064
			c-0.896,1.082-1.219,2.522-1.063,3.88c-0.551,0.684-1.101,1.368-1.653,2.052c-3.33,4.126-1.577,9.135,2.164,10.775
			c-0.585,5.684,6.046,10.525,11.657,7.458c1.721-0.941,3.416-1.933,5.095-2.956c1.522,1.815,3.829,2.824,6.298,3.052
			c0.224,0.021,0.449,0.042,0.673,0.062c2.492,0.231,5.694-1.611,6.758-3.876c0.08-0.171,0.16-0.341,0.241-0.512
			c0.743-1.582,1.049-3.337,0.8-4.995c0.813-1.906,2.739-5.207,3.345-6.503C97.821,95.804,94.573,89.332,89.693,88.417z"/>
		<g>
			<g>
				<path style="fill:#525D7D;" d="M15.281,161.308c-3.409,0-6.705-1.383-9.093-3.826c-2.461-2.519-3.771-5.978-3.593-9.491
					c0.337-6.675,0.651-13.858,0.651-21.149L0.053,44.349c-0.046-1.191,0.883-2.194,2.075-2.241c1.22-0.032,2.196,0.883,2.241,2.075
					l3.194,82.575c0.001,7.47-0.313,14.718-0.655,21.451c-0.119,2.347,0.723,4.568,2.368,6.254c1.654,1.692,3.88,2.558,6.234,2.523
					l87.508-2.437c1.154-0.068,2.186,0.905,2.218,2.097c0.034,1.192-0.905,2.186-2.097,2.218l-87.508,2.437
					C15.514,161.307,15.397,161.308,15.281,161.308z"/>
			</g>
			<g>
				<path style="fill:#525D7D;" d="M132.104,158.058c-1.164,0-2.124-0.928-2.156-2.099c-0.034-1.192,0.905-2.186,2.097-2.218
					l15.789-0.44c2.252-0.063,4.341-1.002,5.881-2.645c1.541-1.644,2.343-3.79,2.26-6.041l-0.634-17.284
					c-0.044-1.192,0.887-2.193,2.079-2.236c1.189-0.09,2.193,0.885,2.236,2.079l0.634,17.284c0.125,3.411-1.091,6.661-3.426,9.151
					c-2.335,2.491-5.499,3.915-8.91,4.009l-15.79,0.44C132.145,158.058,132.125,158.058,132.104,158.058z"/>
			</g>
			<g>
				<path style="fill:#525D7D;" d="M156.55,104.255c-1.147,0-2.101-0.901-2.155-2.058l-3.42-73.35
					c-0.212-4.512-3.87-7.991-8.363-7.991c-0.059,0-0.117,0.001-0.174,0.003L130.24,21.1c-1.186,0.032-2.179-0.924-2.203-2.116
					c-0.024-1.192,0.924-2.179,2.115-2.203l12.198-0.242c0.087-0.001,0.176-0.003,0.264-0.003c6.809,0,12.353,5.27,12.672,12.107
					l3.42,73.35c0.056,1.192-0.864,2.203-2.055,2.258C156.617,104.254,156.584,104.255,156.55,104.255z"/>
			</g>
			<g>
				<path style="fill:#525D7D;" d="M35.65,22.977c-1.172,0-2.134-0.939-2.158-2.116c-0.024-1.193,0.924-2.179,2.116-2.203
					l83.162-1.65c0.014,0,0.028,0,0.044,0c1.172,0,2.134,0.939,2.158,2.117c0.024,1.192-0.924,2.177-2.117,2.201l-83.159,1.65
					C35.679,22.977,35.665,22.977,35.65,22.977z"/>
			</g>
			<g>
				<path style="fill:#525D7D;" d="M2.203,46.111c-1.141,0-2.094-0.894-2.155-2.046C0.017,43.458,0,42.838,0,42.21
					c0-11.003,4.89-22.941,15.628-23.155l8.673-0.172c0.014,0,0.028,0,0.044,0c1.172,0,2.134,0.939,2.158,2.117
					c0.022,1.192-0.925,2.177-2.117,2.201l-8.671,0.172C6.699,23.552,4.318,35.772,4.318,42.21c0,0.552,0.014,1.096,0.042,1.629
					c0.062,1.192-0.853,2.207-2.044,2.269C2.277,46.109,2.239,46.111,2.203,46.111z"/>
			</g>
			<g>
				<path style="fill:#525D7D;" d="M25.121,37.216c-0.526,0-1.036-0.192-1.432-0.542c-0.432-0.384-0.693-0.924-0.724-1.5
					c-0.111-2.066-0.229-4.135-0.346-6.206c-0.423-7.467-0.86-15.188-1.03-22.742c-0.013-0.609,0.232-1.196,0.675-1.617
					c0.443-0.417,1.026-0.628,1.652-0.583c3.754,0.291,7.248,0.377,10.805,0.254c0.574-0.042,1.148,0.195,1.57,0.6
					c0.42,0.403,0.659,0.961,0.663,1.545c0.031,5.083,0.496,10.271,0.946,15.289c0.339,3.776,0.689,7.68,0.86,11.568
					c0.048,1.102-0.742,2.063-1.832,2.229c-1.13,0.173-2.262,0.37-3.397,0.567c-2.669,0.464-5.43,0.943-8.267,1.133
					C25.217,37.215,25.169,37.216,25.121,37.216z M25.968,8.489c0.198,6.729,0.586,13.583,0.963,20.234
					c0.075,1.325,0.15,2.651,0.224,3.975c1.893-0.224,3.788-0.552,5.638-0.873c0.52-0.09,1.037-0.18,1.555-0.268
					c-0.184-3.167-0.47-6.355-0.748-9.456c-0.394-4.398-0.8-8.923-0.925-13.456C30.483,8.67,28.255,8.618,25.968,8.489z"/>
			</g>
			<g>
				<path style="fill:#525D7D;" d="M119.475,33.201c-0.526,0-1.036-0.193-1.432-0.543c-0.432-0.384-0.693-0.924-0.724-1.5
					c-0.111-2.069-0.229-4.139-0.346-6.213c-0.423-7.464-0.86-15.182-1.03-22.735c-0.013-0.609,0.232-1.196,0.675-1.615
					c0.441-0.419,1.026-0.652,1.65-0.585c3.788,0.292,7.267,0.374,10.807,0.253c0.573-0.035,1.148,0.197,1.57,0.6
					c0.42,0.403,0.659,0.961,0.664,1.545c0.031,5.083,0.496,10.271,0.946,15.289c0.339,3.775,0.689,7.68,0.86,11.57
					c0.048,1.102-0.742,2.063-1.831,2.229c-1.127,0.173-2.259,0.37-3.393,0.566c-2.671,0.464-5.433,0.943-8.271,1.133
					C119.57,33.2,119.523,33.201,119.475,33.201z M120.321,4.476c0.198,6.726,0.586,13.577,0.963,20.227
					c0.074,1.327,0.15,2.655,0.224,3.981c1.895-0.224,3.791-0.552,5.642-0.874c0.517-0.09,1.034-0.18,1.55-0.267
					c-0.184-3.167-0.469-6.356-0.748-9.459c-0.394-4.397-0.8-8.922-0.925-13.453C124.816,4.657,122.612,4.602,120.321,4.476z"/>
			</g>
			<g>
				<path style="fill:#525D7D;" d="M2.392,51.157c-1.16,0-2.118-0.921-2.156-2.087c-0.039-1.192,0.894-2.19,2.086-2.229l151.449-5
					c1.241-0.084,2.19,0.895,2.229,2.086c0.039,1.192-0.894,2.19-2.086,2.229l-151.449,5C2.44,51.157,2.416,51.157,2.392,51.157z"/>
			</g>
			<g>
				<path style="fill:#525D7D;" d="M148.862,206.18c-0.222,0-0.445-0.034-0.665-0.105c-0.815-0.263-1.397-0.985-1.483-1.839
					c-0.162-1.609-0.377-3.206-0.59-4.8c-0.238-1.766-0.481-3.577-0.651-5.406c-25.11-1.255-45.881-22.677-45.791-47.738
					c0.076-20.763,13.815-39.296,33.409-45.067c5.086-1.5,10.303-2.208,15.508-2.111c25.307,0.478,44.872,20.004,45.509,45.419
					c0.292,11.859-3.674,23.429-11.169,32.578c-0.754,0.922-2.116,1.059-3.038,0.302c-0.924-0.755-1.059-2.115-0.302-3.038
					c6.838-8.351,10.458-18.911,10.191-29.736c-0.576-23.059-18.32-40.775-41.272-41.208c-4.753-0.098-9.544,0.559-14.207,1.934
					c-17.779,5.237-30.242,22.074-30.311,40.943c-0.083,22.982,20.241,43.291,43.492,43.46c1.137,0.008,2.073,0.897,2.139,2.031
					c0.139,2.34,0.447,4.634,0.773,7.063c0.006,0.048,0.013,0.097,0.018,0.146l16.57-18.678l-18.514-12.866
					c-0.146,3.345-0.178,6.651-0.186,9.794c-0.001,0.589-0.245,1.153-0.672,1.559c-0.427,0.406-1.002,0.613-1.591,0.592
					c-17.295-0.836-31.855-15.958-31.793-33.023c0.052-14.363,9.558-27.184,23.117-31.177c3.514-1.036,7.12-1.525,10.71-1.458
					c17.513,0.33,31.052,13.841,31.495,31.427c0.202,8.196-2.54,16.193-7.72,22.515c-0.752,0.922-2.117,1.059-3.037,0.302
					c-0.924-0.755-1.059-2.115-0.302-3.038c4.525-5.524,6.919-12.51,6.741-19.672c-0.382-15.23-12.1-26.932-27.258-27.217
					c-3.125-0.063-6.317,0.37-9.408,1.28c-11.743,3.459-19.974,14.584-20.019,27.053c-0.055,15.447,12.713,26.725,25.431,28.482
					c0.029-3.722,0.119-7.63,0.406-11.552c0.056-0.773,0.524-1.458,1.224-1.791c0.697-0.336,1.525-0.267,2.162,0.176l23.675,16.453
					c0.506,0.351,0.838,0.904,0.911,1.517c0.073,0.613-0.119,1.227-0.529,1.688l-21.359,24.076
					C150.061,205.924,149.47,206.18,148.862,206.18z"/>
			</g>
			<g>
				<path style="fill:#525D7D;" d="M26.087,140.314c-1.171,0-2.131-0.936-2.158-2.111c-0.246-11.251-0.964-22.645-1.66-33.664
					c-0.82-13.001-1.667-26.446-1.753-39.805c-0.007-1.172,0.921-2.137,2.093-2.172l109.793-3.392
					c1.175-0.069,2.165,0.876,2.222,2.049c0.117,2.342,0.174,4.764,0.174,7.406c0,5.585-0.268,11.209-0.527,16.647
					c-0.26,5.458-0.529,11.102-0.529,16.726c0,1.192-0.967,2.159-2.159,2.159c-1.192,0-2.159-0.967-2.159-2.159
					c0-5.727,0.271-11.422,0.534-16.931c0.256-5.388,0.521-10.96,0.521-16.442c0-1.781-0.027-3.458-0.08-5.074L24.854,66.813
					c0.155,12.548,0.952,25.199,1.725,37.455c0.654,10.364,1.328,21.059,1.615,31.693c20.604-0.333,41.497-0.333,61.727-0.333
					c1.192,0,2.159,0.967,2.159,2.159c0,1.192-0.967,2.159-2.159,2.159c-20.913,0-42.537,0-63.795,0.368
					C26.114,140.314,26.1,140.314,26.087,140.314z"/>
			</g>
			<g>
				<path style="fill:#525D7D;" d="M62.16,139.976c-1.071,0-2-0.796-2.139-1.886c-1.768-13.889-2.807-28.026-3.812-41.695
					c-0.783-10.655-1.593-21.672-2.741-32.463c-0.127-1.186,0.732-2.25,1.917-2.376c1.206-0.134,2.249,0.732,2.376,1.917
					c1.157,10.863,1.969,21.915,2.755,32.604c1.001,13.615,2.035,27.694,3.79,41.468c0.15,1.182-0.686,2.264-1.87,2.415
					C62.343,139.971,62.251,139.976,62.16,139.976z"/>
			</g>
			<g>
				<path style="fill:#525D7D;" d="M95.94,124.801c-1.125,0-2.073-0.873-2.151-2.012c-0.505-7.392-0.788-14.88-1.064-22.122
					c-0.471-12.406-0.957-25.235-2.57-37.824c-0.15-1.182,0.686-2.264,1.868-2.416c1.181-0.139,2.264,0.686,2.416,1.868
					c1.636,12.78,2.127,25.708,2.6,38.209c0.274,7.21,0.557,14.664,1.056,21.99c0.082,1.191-0.817,2.221-2.006,2.301
					C96.04,124.8,95.991,124.801,95.94,124.801z"/>
			</g>
			<g>
				<path style="fill:#525D7D;" d="M23.367,88.69c-1.181,0-2.145-0.949-2.159-2.132c-0.014-1.192,0.94-2.172,2.132-2.186
					l108.747-1.331c0.01,0,0.018,0,0.027,0c1.181,0,2.145,0.949,2.159,2.132c0.014,1.192-0.94,2.172-2.132,2.186L23.394,88.69
					C23.384,88.69,23.376,88.69,23.367,88.69z"/>
			</g>
			<g>
				<path style="fill:#525D7D;" d="M25.196,119.209c-1.171,0-2.132-0.938-2.158-2.114c-0.024-1.193,0.922-2.179,2.114-2.204
					c27.115-0.557,49.4-1.528,70.131-3.056c1.177-0.09,2.224,0.804,2.312,1.995c0.087,1.189-0.805,2.224-1.995,2.312
					c-20.81,1.534-43.167,2.509-70.359,3.067C25.227,119.209,25.211,119.209,25.196,119.209z"/>
			</g>
			<g>
				<path style="fill:#525D7D;" d="M33.209,112.845c-0.596,0-1.189-0.245-1.615-0.725c-0.793-0.891-0.711-2.255,0.18-3.047
					c1.095-0.974,2.16-1.948,3.219-2.915c3.254-2.973,6.621-6.048,10.527-8.782c0.978-0.683,2.326-0.447,3.007,0.53
					c0.685,0.977,0.447,2.324-0.53,3.007c-3.677,2.575-6.792,5.422-10.091,8.434c-1.072,0.98-2.152,1.968-3.264,2.955
					C34.231,112.665,33.718,112.845,33.209,112.845z"/>
			</g>
			<g>
				<path style="fill:#525D7D;" d="M45.604,112.093c-0.441,0-0.886-0.133-1.268-0.413c-3.414-2.482-6.037-5.407-8.574-8.237
					c-1.725-1.922-3.507-3.909-5.504-5.707c-0.886-0.798-0.957-2.163-0.16-3.05c0.8-0.887,2.165-0.956,3.05-0.16
					c2.167,1.952,4.029,4.029,5.829,6.034c2.496,2.784,4.855,5.414,7.898,7.628c0.964,0.701,1.178,2.051,0.476,3.015
					C46.93,111.785,46.271,112.093,45.604,112.093z"/>
			</g>
		</g>
	</g>
</g>
<g id="Layer_1">
</g>
</svg>
