<?xml version="1.0" encoding="iso-8859-1"?>
<!-- Generator: Adobe Illustrator 21.0.2, SVG Export Plug-In . SVG Version: 6.00 Build 0)  -->
<svg version="1.1" xmlns="http://www.w3.org/2000/svg" xmlns:xlink="http://www.w3.org/1999/xlink" x="0px" y="0px"
	 viewBox="0 0 214.282 186.558" style="enable-background:new 0 0 214.282 186.558;" xml:space="preserve">
<g id="_x36_8">
	<g>
		<path style="fill:#E0DFE6;" d="M200.79,155.339c-2.709-0.041-5.046,1.731-7.769,1.926c-3.458,0.248-6.71,0.522-9.384,2.93
			c-0.03,0.027-0.044,0.061-0.073,0.089c-0.066-0.085-0.118-0.171-0.188-0.256c-2.899-3.508-7.483-0.978-10.098,1.352
			c-5.34,4.759-9.783,9.089-16.763,11.413c-6.199,2.064-13.037,2.157-19.417,0.866c-3.113-0.63-6.348-2.227-9.57-3.46
			c1.519-3.47-0.679-8.635-5.064-8.183c-1.922,0.198-3.831,0.473-5.731,0.8c-0.175-0.357-0.384-0.709-0.669-1.045
			c-4.472-5.274-9.971-8.317-13.591-14.563c-3.862-6.663-6.559-15.235-11.981-20.762c-0.081-0.082-0.172-0.118-0.262-0.153
			c0.627-0.04,1.25-0.11,1.86-0.246c2.52-0.561,4.126-3.312,3.758-5.757c-0.301-2.003-1.493-3.356-3.153-4.049
			c-0.134-0.405-0.291-0.809-0.5-1.215c-0.882-1.716-2.112-3.33-3.145-4.96c-2.113-3.332-8.092-1.254-6.659,2.807
			c0.379,1.074,0.745,2.155,1.12,3.234c-0.094-0.005-0.187-0.002-0.281-0.01c-2.383-0.193-4.865-0.537-7.212-0.972
			c-1.185-0.22-2.058,0.888-1.524,1.982c2.573,5.266,9.097,9.348,15.184,9.22c-0.182,0.093-0.344,0.241-0.426,0.448
			c-3.142,7.876,1.927,30.533,11.232,39.682c-7.484,1.825-14.998,3.522-22.793,3.734c-6.872,0.187-12.877-1.675-17.133-7.356
			c-2.188-2.92-3.343-6.846-6.011-9.187c-0.079-0.166-0.141-0.339-0.252-0.488c-0.065-0.088-0.14-0.159-0.207-0.243
			c1.591-0.917,2.834-2.518,3.309-4.932c1.797-9.138-0.744-16.909-3.76-25.474c-2.628-7.462-4.077-17.794-9.386-23.791
			c-0.611-0.691-1.663-0.402-2.119,0.273c-8.841,13.088,2.444,30.731-0.518,44.64c-0.775,3.639,0.717,6.53,3.055,8.301
			c-0.897,0.735-1.65,1.718-2.144,2.947c-0.996,2.476-0.612,4.618-2.932,6.522c-0.411,0.337-0.876,0.627-1.361,0.897
			c2.556-2.348,4.119-5.358,3.79-9.333c-0.176-2.126-2.275-3.549-4.264-2.447c-1.73,0.958-3.327,1.585-4.714,3.059
			c-1.423,1.512-2.554,3.11-4.157,4.468c-3.367,2.853-7.129,3.919-11.221,5.291c-2.119,0.71-2.105,3.576,0,4.294
			c3.886,1.326,8.303,0.786,12.256-0.603c0.035,0.813,0.479,1.565,1.47,1.735c4.634,0.798,9.141,0.93,13.332-1.592
			c1.643-0.989,2.999-2.258,4.02-3.852c0.871,2.476,2.16,4.855,3.335,6.776c3.917,6.409,9.717,11.241,17.177,12.721
			c8.709,1.728,18.121,0.493,26.741-1.215c8.433-1.671,17.407-3.765,25.441-7.217c1.815,2.519,4.599,4.605,6.943,6.159
			c5.878,3.896,13.207,5.925,20.203,6.011c12.982,0.16,30.245-6.63,35.723-19.328c0.245-0.568,0.414-1.114,0.533-1.649
			c0.086,0.035,0.162,0.089,0.252,0.116c3.652,1.117,7.745,2.343,11.603,2.13c4.23-0.234,9.155-2.791,8.923-7.661
			C205.489,157.528,203.506,155.38,200.79,155.339z"/>
		<path style="fill:#E0DFE6;" d="M207.169,131.833c-0.4-1.667-2.058-2.234-3.569-2.026c-4.658,0.639-7.129,4.747-10.896,7.165
			c-4.062,2.607-8.623,3.61-13.179,4.932c-1.723,0.5-2.321,3.203-0.532,4.07C187.791,150.233,210.289,144.839,207.169,131.833z"/>
		<path style="fill:#E0DFE6;" d="M212.645,106.938c-0.291-2.552-2.707-4.339-5.178-2.971c-3.913,2.166-6.745,5.602-10.795,7.569
			c-5.25,2.55-10.932,2.87-16.491,4.335c-2.423,0.639-2.46,4.323,0,4.945C190.001,123.297,214.423,122.524,212.645,106.938z"/>
		<path style="fill:#E0DFE6;" d="M204.005,88.856c-1.235-3.893-6.217-2.735-8.891-1.445c-4.557,2.199-8.75,4.891-13.596,6.434
			c-3.759,1.197-2.202,6.575,1.614,5.856C187.82,98.816,206.656,97.212,204.005,88.856z"/>
		<path style="fill:#E0DFE6;" d="M164.647,120.577c-0.313-2.316-1.859-4.201-4.143-4.808c-3.939-1.047-7.555,2.374-10.086,4.906
			c-3.046,3.048-5.815,6.495-8.611,9.768c-2.271,2.658-4.086,7.066-6.845,9.029c-1.558,1.108-2.21,3.419-0.63,4.886
			c5.368,4.985,12.222-1.482,16.208-5.182C155.013,135.025,165.587,127.524,164.647,120.577z"/>
		<path style="fill:#E0DFE6;" d="M171.678,83.516c-17.186-9.723-36.214-1.11-50.389,9.897c-6.162,4.785-10.415,10.823-11.538,18.668
			c-1.053,7.358-0.288,18.315,5.022,23.993c0.474,0.507,1.265,0.212,1.466-0.387c1.987-5.917-0.274-12.654,0.362-18.836
			c0.821-7.975,4.36-13.449,10.901-17.977c5.521-3.822,11.656-7.594,18.145-9.459c8.074-2.321,15.025-0.676,22.547,2.364
			C173.001,93.721,176.046,85.987,171.678,83.516z"/>
		<path style="fill:#E0DFE6;" d="M128.408,55.864c-2.982-0.188-5.872,0.825-8.843,0.954c-2.824,0.123-5.619-0.189-8.439,0.058
			c-0.914,0.08-1.757,0.889-1.709,1.786c-5.136,2.723-7.466,9.469-9.698,14.454c-1.489,3.326-2.952,6.729-4.757,9.896
			c-1.699,2.98-3.727,5.813-3.59,9.354c0,0.01,0.003,0.019,0.004,0.03c-1.828,1.927-3.536,3.984-5.486,5.9
			c-3.788,3.719-8.179,7.257-12.867,9.751c-1.174,0.624-0.645,2.563,0.681,2.515c9.837-0.359,23.023-5.571,26.321-15.673
			c4.619-2.69,7.448-9.311,8.978-13.857c0.963-2.859,2.163-6.209,3.079-9.642c0.314,0.268,0.675,0.496,1.095,0.665
			c1.444,0.581,3.492,0.424,4.571-0.865c0.691-0.825,1.333-1.684,1.579-2.758c0.223-0.973,0.185-1.521,0.303-2.264
			c0.005-0.032,0.007-0.061,0.012-0.093c3.5,1.051,7.197,1.233,10.165,0.127C135.34,64.139,134.515,56.249,128.408,55.864z"/>
		<g>
			<g>
				<path style="fill:#525D7D;" d="M13.335,174.033c-0.47,0-0.933-0.153-1.314-0.445c-0.538-0.413-0.852-1.056-0.845-1.735
					c0.007-0.734,0.01-1.467,0.01-2.2c0-12.651-0.947-25.435-1.862-37.799c-0.604-8.151-1.229-16.581-1.574-24.88
					c-0.049-1.192,0.877-2.197,2.068-2.248c1.229-0.06,2.197,0.876,2.248,2.068c0.342,8.23,0.964,16.623,1.564,24.74
					c0.907,12.233,1.843,24.874,1.874,37.47c10.778-3.188,18.771-6.736,25.469-11.298c-2.564-19.53-3.991-40.773-4.353-64.822
					c-4.692,0.257-9.385,0.388-13.985,0.388c-6.854,0-13.607-0.274-20.647-0.838c-1.188-0.096-2.075-1.136-1.979-2.325
					c0.096-1.186,1.129-2.055,2.325-1.979c6.923,0.554,13.564,0.824,20.302,0.824c5.249,0,10.624-0.173,15.976-0.513
					c0.58-0.042,1.169,0.169,1.604,0.572c0.434,0.402,0.685,0.964,0.692,1.556c0.309,25.348,1.788,47.548,4.519,67.87
					c0.107,0.794-0.235,1.583-0.887,2.047c-7.888,5.613-17.333,9.766-30.623,13.469C13.723,174.006,13.529,174.033,13.335,174.033z"
					/>
			</g>
			<g>
				<path style="fill:#525D7D;" d="M46.984,90.781c-0.738,0-1.459-0.38-1.861-1.063c-0.606-1.026-0.264-2.35,0.763-2.956
					c11.498-6.781,19.169-16.834,27.29-27.477c6.56-8.597,13.342-17.486,22.291-24.388c13.695-10.566,30.494-11.04,46.739-11.5
					l3.757-0.11c0.42-0.014,0.85-0.034,1.286-0.053c0.893-0.039,1.806-0.08,2.713-0.08c7.212,0,11.348,3.76,11.348,10.315
					c0,1.892-0.351,3.698-0.744,5.535c-3.059,14.326-10.559,15.347-25.502,17.381c-5.083,0.692-11.408,1.553-18.945,3.097
					c-4.825,0.994-8.971-0.177-11.646-3.298c-0.776-0.905-0.672-2.269,0.233-3.045c0.907-0.775,2.267-0.669,3.045,0.233
					c1.664,1.944,4.197,2.56,7.501,1.878c7.679-1.572,14.084-2.443,19.23-3.144c14.931-2.031,19.437-2.645,21.862-14.003
					c0.342-1.601,0.648-3.163,0.648-4.634c0-2.792-0.798-5.996-7.03-5.996c-0.842,0-1.69,0.039-2.519,0.076
					c-0.454,0.021-0.902,0.041-1.341,0.055l-3.774,0.111c-16.272,0.46-31.639,0.893-44.224,10.601
					C89.607,44.87,82.999,53.53,76.609,61.905c-8.015,10.504-16.304,21.367-28.53,28.577C47.734,90.686,47.357,90.781,46.984,90.781
					z"/>
			</g>
			<g>
				<path style="fill:#525D7D;" d="M148.046,175.479c-0.3,0-0.599-0.003-0.9-0.007c-30.533-0.505-55.184-26.361-54.951-57.638
					c0.105-15.181,5.961-29.25,16.488-39.612c10.799-10.634,25.77-16.647,40.96-16.523c3.063,0.025,6.137,0.301,9.138,0.818
					c10.445,1.805,20.077,6.122,27.853,12.484c0.922,0.755,1.059,2.115,0.304,3.039c-0.755,0.922-2.114,1.057-3.039,0.304
					c-7.2-5.891-16.14-9.893-25.851-11.57c-2.77-0.479-5.61-0.734-8.439-0.756c-14.135-0.143-27.908,5.447-37.896,15.282
					c-9.705,9.553-15.102,22.539-15.199,36.566c-0.216,28.918,22.529,52.824,50.703,53.289c11.117,0.174,21.718-3.196,30.8-9.756
					c0.966-0.7,2.315-0.483,3.014,0.486c0.699,0.966,0.481,2.315-0.486,3.014C170.948,171.83,159.728,175.479,148.046,175.479z"/>
			</g>
			<g>
				<path style="fill:#525D7D;" d="M148.241,162.133c-0.232,0-0.464-0.003-0.696-0.006c-23.377-0.386-42.248-20.176-42.069-44.113
					c0.081-11.619,4.564-22.389,12.624-30.324c8.176-8.049,19.447-12.646,30.97-12.646c0.127,0,0.25,0,0.375,0.001
					c2.343,0.02,4.696,0.231,6.994,0.627c4.231,0.732,8.309,2.007,12.118,3.792c1.081,0.506,1.546,1.791,1.04,2.87
					c-0.506,1.08-1.795,1.546-2.87,1.04c-3.463-1.622-7.172-2.782-11.023-3.447c-2.068-0.358-4.186-0.548-6.296-0.565
					c-0.112-0.001-0.226-0.001-0.339-0.001c-10.4,0-20.566,4.145-27.941,11.405c-7.236,7.125-11.262,16.813-11.335,27.278
					c-0.162,21.578,16.804,39.417,37.82,39.764c5.995,0.115,11.712-1.167,17.059-3.747c1.071-0.52,2.364-0.069,2.883,1.005
					c0.519,1.074,0.069,2.364-1.005,2.883C160.801,160.726,154.643,162.133,148.241,162.133z"/>
			</g>
			<g>
				<path style="fill:#525D7D;" d="M188.975,101.321c-9.64,0-16.059-2.484-16.059-14.603c0-8.11,7.357-12.951,19.679-12.951
					c13.148,0,16.107,7.374,16.107,9.957c0,0.322-0.018,0.642-0.037,0.954c-0.013,0.209-0.027,0.412-0.027,0.605
					c0,0.003,0.004,0.143,0.004,0.146c0.056,0.794,0.093,1.619,0.093,2.449C208.736,96.177,205.429,101.321,188.975,101.321z
					 M192.595,78.084c-3.604,0-15.361,0.623-15.361,8.633c0,8.074,2.525,10.285,11.741,10.285c15.442,0,15.442-4.432,15.442-9.125
					c0-0.725-0.034-1.448-0.081-2.142c-0.011-0.146-0.016-0.298-0.016-0.453c0-0.274,0.016-0.565,0.034-0.864
					c0.014-0.226,0.03-0.461,0.03-0.694C204.351,82.607,202.154,78.084,192.595,78.084z"/>
			</g>
			<g>
				<path style="fill:#525D7D;" d="M188.397,124.574c-12.838,0-18.563-3.698-18.563-11.991c0-10.629,11.379-14.958,22.026-15.463
					c1.226-0.068,2.203,0.864,2.259,2.054c0.058,1.191-0.863,2.203-2.054,2.259c-2.991,0.142-17.914,1.348-17.914,11.151
					c0,2.87,0,7.673,14.245,7.673c5.999,0,21.567-1.737,21.567-9.674c0-3.922-2.637-8.657-5.911-8.657
					c-1.192,0-2.159-0.967-2.159-2.159c0-1.192,0.967-2.159,2.159-2.159c6.027,0,10.229,6.838,10.229,12.975
					C214.282,121.628,198.012,124.574,188.397,124.574z"/>
			</g>
			<g>
				<path style="fill:#525D7D;" d="M185.603,150.148c-7.724,0-16.744-3.073-16.744-11.733c0-13.646,17.298-15.521,27.633-16.64
					l1.458-0.16c0.964-0.107,1.902-0.162,2.784-0.162c9.318,0,10.575,5.713,10.575,11.301
					C211.309,146.953,192.271,150.148,185.603,150.148z M200.735,125.772c-0.724,0-1.5,0.045-2.307,0.136l0,0l-1.47,0.16
					c-12.533,1.358-23.781,3.323-23.781,12.347c0,7.058,10.351,7.415,12.426,7.415c4.518,0,21.388-2.219,21.388-13.075
					C206.991,127.142,205.763,125.772,200.735,125.772z"/>
			</g>
			<g>
				<path style="fill:#525D7D;" d="M190.711,169.003c-4.418,0-14.764,0-14.764-10.49c0-4.712,3.157-9.696,7.855-12.405
					c1.032-0.594,2.352-0.242,2.949,0.793c0.595,1.033,0.24,2.353-0.793,2.949c-3.352,1.931-5.693,5.495-5.693,8.663
					c0,4.003,1.664,6.172,10.445,6.172c6.241,0,12.538-2.957,12.538-9.563c0-2.464-1.028-5.537-3.91-6.772
					c-1.096-0.47-1.604-1.739-1.134-2.835c0.469-1.095,1.742-1.604,2.835-1.134c4.819,2.065,6.528,7.077,6.528,10.742
					C207.568,163.295,200.636,169.003,190.711,169.003z"/>
			</g>
			<g>
				<path style="fill:#525D7D;" d="M149.387,125.673c-0.086,0-0.171-0.001-0.257-0.003c-4.7-0.117-9.876-3.951-10.039-9.943
					c-0.125-4.46,2.387-8.451,6.397-10.168c0.001,0,0.001,0,0.001,0c1.119-0.479,2.294-0.741,3.494-0.777
					c2.675-0.121,5.475,1.019,7.617,3.033c2.055,1.933,3.277,4.453,3.35,6.916c0.089,2.972-0.998,5.748-3.059,7.818
					C154.907,124.543,152.184,125.673,149.387,125.673z M147.187,109.528c-2.408,1.032-3.856,3.361-3.781,6.079
					c0.106,3.823,3.541,5.689,5.831,5.745c1.688,0.037,3.381-0.631,4.594-1.85c1.216-1.222,1.857-2.87,1.805-4.644
					c-0.039-1.304-0.784-2.761-1.992-3.896c-1.314-1.236-2.964-1.907-4.525-1.865C148.458,109.118,147.808,109.262,147.187,109.528
					L147.187,109.528z"/>
			</g>
			<g>
				<path style="fill:#525D7D;" d="M129.085,145.845c-0.585,0-1.049-0.229-1.539-0.579c-2.173-1.548-1.108-4.05,2.055-11.48
					c2.291-5.386,5.431-12.763,7.998-21.429c0.34-1.144,1.549-1.792,2.683-1.458c1.144,0.339,1.796,1.541,1.458,2.683
					c-2.638,8.903-5.833,16.411-8.167,21.894c-0.562,1.323-1.134,2.664-1.614,3.847c4.127-3.296,11.577-10.036,20.372-17.995
					c0.883-0.798,2.249-0.734,3.05,0.152c0.8,0.884,0.732,2.25-0.152,3.05C136.361,141.603,131.601,145.844,129.085,145.845z"/>
			</g>
			<g>
				<path style="fill:#525D7D;" d="M68.266,115.568c-0.436,0-0.873-0.007-1.313-0.025c-1.192-0.049-2.118-1.054-2.069-2.246
					c0.049-1.191,1.067-2.135,2.246-2.069c10.766,0.434,19.985-5.121,27.563-10.534c0.971-0.692,2.318-0.467,3.012,0.502
					c0.693,0.971,0.468,2.319-0.502,3.012C89.798,109.497,79.815,115.568,68.266,115.568z"/>
			</g>
			<g>
				<path style="fill:#525D7D;" d="M113.939,76.118c-1.192,0-2.159-0.967-2.159-2.159c0-7.238,3.005-13.893,8.247-18.259
					c0.917-0.763,2.277-0.64,3.04,0.277c0.763,0.916,0.64,2.277-0.277,3.04c-4.253,3.544-6.692,8.99-6.692,14.942
					C116.099,75.15,115.132,76.118,113.939,76.118z"/>
			</g>
			<g>
				<path style="fill:#525D7D;" d="M133.031,66.157c-0.197,0-0.396-0.027-0.596-0.083c-1.146-0.329-1.809-1.524-1.482-2.671
					c0.305-1.066,0.436-2.13,0.436-3.556c0-0.635-0.024-1.269-0.048-1.917c-0.028-0.725-0.055-1.465-0.055-2.232
					c0-1.192,0.967-2.159,2.159-2.159s2.159,0.967,2.159,2.159c0,0.711,0.027,1.399,0.051,2.072
					c0.027,0.701,0.052,1.389,0.052,2.078c0,1.23-0.069,2.881-0.602,4.745C134.834,65.54,133.97,66.157,133.031,66.157z"/>
			</g>
			<g>
				<path style="fill:#525D7D;" d="M150.461,64.912c-1.192,0-2.159-0.967-2.159-2.159v-9.546c0-1.192,0.967-2.159,2.159-2.159
					c1.192,0,2.159,0.967,2.159,2.159v9.546C152.62,63.945,151.653,64.912,150.461,64.912z"/>
			</g>
			<g>
				<path style="fill:#525D7D;" d="M76.108,171.13c-18.054,0-20.751-7.971-21.557-20.351c-4.398,0.523-8.283,0.918-12.253,1.146
					c-1.216,0.065-2.212-0.842-2.279-2.031c-0.069-1.191,0.841-2.211,2.031-2.279c4.528-0.261,8.976-0.748,14.263-1.399
					c0.603-0.077,1.196,0.106,1.654,0.491c0.46,0.386,0.738,0.947,0.766,1.548c0.665,13.747,2.248,18.557,17.374,18.557
					c5.978,0,11.701-0.866,17.76-1.784c4.558-0.69,9.272-1.404,14.066-1.704c1.219-0.073,2.215,0.831,2.29,2.02
					c0.074,1.191-0.829,2.215-2.02,2.29c-4.605,0.288-9.224,0.987-13.69,1.663C88.564,170.198,82.411,171.13,76.108,171.13z"/>
			</g>
			<g>
				<path style="fill:#525D7D;" d="M88.621,25.9c-0.277,0-0.558-0.053-0.829-0.166c-1.101-0.458-1.621-1.723-1.162-2.824
					c2.643-6.341,7.104-10.759,12.564-12.438c1.141-0.348,2.349,0.288,2.699,1.428c0.351,1.14-0.288,2.349-1.428,2.699
					c-5.683,1.749-8.609,6.999-9.848,9.973C90.27,25.401,89.467,25.9,88.621,25.9z"/>
			</g>
			<g>
				<path style="fill:#525D7D;" d="M76.589,20.505c-0.157,0-0.319-0.017-0.479-0.053c-1.164-0.264-1.892-1.421-1.628-2.584
					c1.837-8.085,9.211-13.795,21.917-16.973c1.16-0.288,2.331,0.413,2.619,1.57c0.289,1.157-0.413,2.329-1.57,2.619
					c-10.998,2.751-17.308,7.374-18.754,13.74C78.465,19.826,77.576,20.505,76.589,20.505z"/>
			</g>
			<g>
				<path style="fill:#525D7D;" d="M171.214,23.825c-0.732,0-1.448-0.374-1.853-1.049c-2.614-4.356-5.112-8.074-9.207-9.439
					c-1.132-0.377-1.742-1.6-1.365-2.731c0.375-1.13,1.6-1.746,2.731-1.365c5.943,1.98,9.18,7.375,11.543,11.314
					c0.614,1.022,0.283,2.349-0.741,2.962C171.975,23.727,171.592,23.825,171.214,23.825z"/>
			</g>
			<g>
				<path style="fill:#525D7D;" d="M183.665,22.165c-0.849,0-1.654-0.503-1.997-1.337c-2.62-6.363-6.501-14.007-13.313-16.655
					c-1.11-0.433-1.661-1.684-1.23-2.796c0.434-1.112,1.688-1.661,2.796-1.23c8.338,3.244,12.791,11.878,15.739,19.037
					c0.454,1.103-0.072,2.364-1.174,2.818C184.217,22.113,183.937,22.165,183.665,22.165z"/>
			</g>
		</g>
	</g>
</g>
<g id="Layer_1">
</g>
</svg>
