<?xml version="1.0" encoding="iso-8859-1"?>
<!-- Generator: Adobe Illustrator 21.0.2, SVG Export Plug-In . SVG Version: 6.00 Build 0)  -->
<svg version="1.1" xmlns="http://www.w3.org/2000/svg" xmlns:xlink="http://www.w3.org/1999/xlink" x="0px" y="0px"
	 viewBox="0 0 204.188 211.729" style="enable-background:new 0 0 204.188 211.729;" xml:space="preserve">
<g id="_x36_9">
	<g>
		<path style="fill:#E0DFE6;" d="M98.687,146.081c-0.327-3.244-4.943-3.348-5.128,0c-0.208,3.762-1.275,7.783-2.735,11.781
			c-0.493,0.004-1.007,0.088-1.544,0.293c-7.617,2.907-12.453,9.662-16.998,16.13c-2.878,4.095-9.064,15.765-14.831,15.954
			c-3.17,0.104-6.868-3.589-9.392-5.104c-0.901-0.541-1.813-1.061-2.73-1.575c-1.113-1.113-2.14-2.126-3.052-2.928
			c-6.786-5.971-13.416-15.298-22.831-16.785c-1.061-0.168-2.055-0.062-2.931,0.249c-0.753-0.106-1.433,0.402-1.755,1.106
			c-0.779,0.794-1.294,1.885-1.378,3.264c-0.783,12.888,14.383,23.215,23.318,30.452c9.91,8.027,20.532,16.213,33.916,11.354
			c11.531-4.186,19.578-15.4,24.603-26.094c2.668-5.678,4.313-11.456,5.08-17.687C101.206,159.119,99.406,153.214,98.687,146.081z"
			/>
		<path style="fill:#E0DFE6;" d="M188.949,119.265c-0.8-1.276-1.674-2.514-2.653-3.698c-3.627-4.387-9.13-6.505-12.587-10.76
			c-1.56-1.92-4.739,0.153-4.06,2.363c1.215,3.951,3.868,6.656,6.165,10.049c1.864,2.753,3.451,5.756,4.712,8.869
			c-0.841,5.074,1.075,10.025,2.404,15.093c-4.196,4.209-7.087,9.471-10.881,14.065c-4.426,5.361-9.75,10.013-15.202,14.296
			c-4.828,3.792-12.723,12.656-19.276,10.9c-7.417-1.988-11.434-10.03-16.58-14.937c-0.773-0.738-1.853-0.151-1.958,0.811
			c-0.54,4.947,1.408,10.272,4.426,14.843c1.794,4.793,3.575,9.59,5.274,14.415c2.049,5.82,5.162,10.898,11.551,12.499
			c14.333,3.593,28.796-7.243,38.812-16.122c10.336-9.163,20.958-20.367,24.138-34.262
			C205.938,145.875,203.41,122.772,188.949,119.265z"/>
		<path style="fill:#E0DFE6;" d="M147.188,139.119c-2.111-13.853-9.322-27.548-18.923-37.617c-1.394-1.462-4.196,0.036-3.496,2.035
			c4.495,12.837,7.743,25.568,10.8,38.785C137.353,150.034,148.328,146.595,147.188,139.119z"/>
		<path style="fill:#E0DFE6;" d="M167.796,133.944c-3.098-16.386-13.057-30.985-22.321-44.449c-1.281-1.861-4.953-0.743-3.946,1.664
			c6.263,14.97,8.388,31.014,13.298,46.36c0.679,2.121,2.379,4.25,4.697,4.697c2.925,0.564,4.209,0.111,6.543-1.729
			C167.995,138.966,168.209,136.13,167.796,133.944z"/>
		<path style="fill:#E0DFE6;" d="M76.52,103.099c-0.346-0.673-1.294-0.719-1.801-0.232c-5.666,5.444-7.41,14.708-9.481,21.979
			c-2.445,8.586-5.675,18.235-5.701,27.206c-0.006,2.192,1.266,5.023,3.41,5.945c1.192,0.513,2.164,0.877,3.475,0.94
			c2.173,0.105,5.044-1.337,5.945-3.41c3.672-8.443,4.577-18.477,5.508-27.611C78.677,120.064,80.273,110.401,76.52,103.099z"/>
		<path style="fill:#E0DFE6;" d="M58.802,101.009c-5.43,7.654-10.32,15.423-15.024,23.545c-3.725,6.433-9.161,12.998-5.968,20.558
			c0.716,1.695,2.857,2.05,4.419,1.798c7.972-1.283,10.716-11.48,13.428-17.896c3.609-8.537,6.08-16.966,7.707-26.082
			C63.867,100.12,60.473,98.654,58.802,101.009z"/>
		<path style="fill:#E0DFE6;" d="M38.783,101.433c-5.593,8.292-14.71,14.348-17.164,24.491c-0.755,3.119,2.422,5.282,5.154,3.962
			c10.068-4.865,12.609-16.327,16.671-25.729C44.8,101.017,40.769,98.488,38.783,101.433z"/>
		<path style="fill:#E0DFE6;" d="M13.221,108.288c-1.755,0.079-3.239,1.423-3.239,3.239v4.318c0,1.694,1.49,3.317,3.239,3.239
			c1.755-0.079,3.239-1.423,3.239-3.239v-4.318C16.46,109.832,14.97,108.209,13.221,108.288z"/>
		<path style="fill:#E0DFE6;" d="M71.145,64.497c-0.976-4.938-3.829-12.659-9.282-13.913c-3.824-0.88-6.55,0.735-7.303,4.683
			c-1.051,5.511,6.798,11.163,3.421,16.391c-4.127,6.387-23.251-1.226-21.43,10.602c0.049,0.318,0.417,0.544,0.716,0.545
			c2.492,0.009,5.365,1.484,7.753,2.048c2.921,0.689,5.851,1.147,8.858,0.989c5.316-0.28,10.714-2.221,14.175-6.412
			C71.493,75.266,72.167,69.662,71.145,64.497z"/>
		<path style="fill:#E0DFE6;" d="M57.635,32.421c-2.729-2.087-6.256-1.795-9.534-1.934c-3.07-0.13-6.24-0.209-9.124,0.992
			c-1.97,0.82-3.557,3.699-1.429,5.413c2.539,2.046,5.386,3.047,8.528,3.834c3.369,0.844,6.967,2.224,10.356,0.902
			C60.706,39.961,61.179,35.132,57.635,32.421z"/>
		<path style="fill:#E0DFE6;" d="M116.576,56.896c-0.384-1.487-0.76-2.951-1.186-4.369c0.491-2.167,0.489-4.523,0.563-6.849
			c0.164-5.174,0.098-10.315,0.515-15.48c0.256-3.165-4.379-4.217-5.92-1.97c-2.311-2.223-6.382-1.655-8.936,1.705
			c-2.026,2.665-3.047,5.251-6.106,7.035c-3.394,1.979-7.305,2.331-11.119,1.506c-2.552-0.551-5.055,2.764-2.757,4.736
			c5.052,4.336,11.675,5.989,18.152,3.898c0.293-0.094,0.592-0.208,0.892-0.326c-0.522,2.505-0.318,4.97,0.242,7.914
			c0.545,2.864,0.994,6.75,1.997,9.955c-1.688,0.455-3.38,0.904-5.063,1.369c-4.489,1.239-8.907,2.675-13.321,4.155
			c-1.818,0.609-2.713,3.629-0.596,4.563c5.641,2.488,11.434,3.91,17.639,3.685c5.132-0.186,12.194-0.459,15.578-4.946
			C120.639,68.849,117.863,61.877,116.576,56.896z"/>
		<path style="fill:#E0DFE6;" d="M101.758,12.426c-10.403-4.198-19.643,5.207-23.032,14.277c-0.89,2.382,2.536,3.384,3.823,1.612
			c4.555-6.272,12.467-7.79,19.209-10.553C104.355,16.696,104.383,13.485,101.758,12.426z"/>
		<path style="fill:#E0DFE6;" d="M167.266,59.694c-0.715-2.246-1.831-4.259-2.287-6.611c-0.521-2.686-0.48-5.437-0.922-8.147
			c-0.057-0.347-0.152-0.67-0.275-0.973c-0.028-4.55-2.538-9.404-4.616-13.229c-1.858-3.42-7.076-1.057-6.166,2.599
			c0.982,3.946-1.013,7.722-1.435,11.61c-2.153,0.769-4.306,1.538-6.458,2.307c-2.367,0.845-3.953,3.173-3.252,5.727
			c0.637,2.319,3.336,4.064,5.727,3.251c2.039-0.693,4.078-1.387,6.118-2.08c0.081,0.343,0.146,0.681,0.244,1.03
			c0.46,1.629,1.085,3.202,1.748,4.757c0.326,0.851,0.703,1.679,1.132,2.482c0.612,1.089,0.544,1.087-0.205-0.007
			c-2.28,1.982-8.221,2.447-11.128,3.334c-3.127,0.954-6.004,1.689-8.459,3.882c-1.835,1.639-0.597,4.192,1.31,4.962
			c4.084,1.649,9.247,0.334,13.444-0.57c4.279-0.921,9.64-1.644,13.056-4.635C167.81,66.787,168.43,63.351,167.266,59.694z"/>
		<path style="fill:#E0DFE6;" d="M148.925,25.801c-4.044-2.188-7.746,0.586-10.359,3.652c-1.076,1.262-2.173,2.598-3.037,4.02
			c-0.414,0.681-0.792,1.398-1.048,2.159c-0.169,0.502-0.255,2.044-0.245,2.022c-1.17,2.506,1.866,5.319,4.027,3.107
			c-0.355-0.023-0.223-0.064,0.396-0.126c0.283-0.119,0.566-0.239,0.849-0.358c0.704-0.356,1.346-0.845,1.959-1.335
			c1.009-0.807,2.032-1.561,3.135-2.24c3.018-1.857,6.246-3.377,6.324-7.412C150.953,27.911,150.147,26.462,148.925,25.801z"/>
		<g>
			<g>
				<path style="fill:#525D7D;" d="M95.011,48.066c-10.469,0.001-18.92-7.843-19.302-17.982c-0.323-8.567,4.9-16.613,12.704-19.569
					l0,0c1.127-0.429,2.388-0.692,3.851-0.804c1.109-0.086,2.296-0.093,3.729-0.024c7.33,0.344,17.954,7.323,17.987,19.045
					c0.035,10.147-8.685,19.183-18.663,19.333C95.216,48.066,95.112,48.066,95.011,48.066z M94.197,13.958
					c-0.576,0-1.102,0.018-1.602,0.058c-1.044,0.08-1.91,0.254-2.647,0.536c0,0-0.001,0-0.003,0.001
					c-6.096,2.307-10.175,8.626-9.921,15.368c0.294,7.796,6.857,13.827,14.99,13.827c0.08,0,0.159,0,0.24-0.001
					c7.701-0.115,14.436-7.127,14.408-15.002c-0.027-9.839-9.2-14.526-13.872-14.745C95.214,13.972,94.688,13.958,94.197,13.958z"/>
			</g>
			<g>
				<path style="fill:#525D7D;" d="M82.685,73.618c-1.037,0-1.951-0.749-2.127-1.803c-0.413-2.47-0.623-4.983-0.623-7.47
					c0-8.826,2.613-16.304,7.357-21.055c0.843-0.846,2.21-0.843,3.053-0.003c0.845,0.843,0.845,2.21,0.003,3.053
					c-3.93,3.936-6.095,10.33-6.095,18.005c0,1.553,0.09,3.118,0.27,4.674c7.538-1.043,16.976-2.118,26.505-2.12
					c-0.292-9.892-3.52-17.965-8.757-21.778c-0.964-0.701-1.177-2.052-0.475-3.016c0.703-0.966,2.054-1.174,3.016-0.475
					c9.527,6.935,10.556,21.021,10.556,26.755l-0.004,0.718c-0.007,0.573-0.242,1.122-0.654,1.521
					c-0.412,0.401-0.988,0.611-1.539,0.611c-10.902-0.177-21.932,1.175-30.178,2.36C82.89,73.61,82.788,73.618,82.685,73.618z"/>
			</g>
			<g>
				<path style="fill:#525D7D;" d="M79.196,37.775c-0.337,0-0.679-0.079-0.997-0.245c-1.058-0.552-1.467-1.855-0.916-2.912
					c5.666-10.86,17.953-15.885,26.084-19.211c1.106-0.454,2.364,0.08,2.816,1.182c0.451,1.103-0.077,2.364-1.182,2.815
					c-9.989,4.085-19.332,8.475-23.889,17.209C80.727,37.354,79.975,37.775,79.196,37.775z"/>
			</g>
			<g>
				<path style="fill:#525D7D;" d="M46.667,57.593c-0.136,0-0.274-0.001-0.412-0.006c-7.839-0.201-13.931-6.271-14.172-14.117
					c-0.221-7.229,4.415-13.618,11.022-15.194l0,0c1.484-0.354,2.758-0.472,3.884-0.516c3.701,0.011,7.767,1.844,10.612,4.782
					c2.851,2.94,4.293,6.703,4.173,10.879C61.578,50.343,55.482,57.593,46.667,57.593z M46.955,32.08
					c-0.818,0-1.698,0.122-2.846,0.398h-0.001c-4.625,1.102-7.866,5.67-7.709,10.861c0.172,5.611,4.363,9.789,9.967,9.934
					c6.352,0.101,10.956-5.126,11.093-9.973c0.107-3.771-1.55-6.297-2.959-7.752c-2.033-2.099-4.986-3.459-7.524-3.468
					C46.969,32.08,46.962,32.08,46.955,32.08z"/>
			</g>
			<g>
				<path style="fill:#525D7D;" d="M36.698,78.665c-0.481,0-0.95-0.16-1.334-0.461c-0.478-0.375-0.775-0.935-0.82-1.541
					c-0.096-1.318-0.145-2.592-0.145-3.787c0-9.205,2.908-15.403,8.643-18.419c1.053-0.555,2.36-0.15,2.915,0.905
					c0.555,1.056,0.15,2.36-0.905,2.915c-4.263,2.243-6.335,7.018-6.335,14.599c0,0.363,0.006,0.734,0.015,1.112
					c7.304-1.141,14.035-1.798,20.449-1.995c-0.791-6.39-3.611-11.675-7.911-14.71c-0.974-0.687-1.206-2.035-0.519-3.009
					c0.689-0.975,2.037-1.205,3.009-0.519c5.88,4.149,9.497,11.526,9.922,20.24c0.03,0.585-0.181,1.157-0.582,1.584
					c-0.402,0.426-0.959,0.672-1.545,0.68c-7.572,0.103-15.587,0.88-24.503,2.376C36.937,78.655,36.818,78.665,36.698,78.665z"/>
			</g>
			<g>
				<path style="fill:#525D7D;" d="M57.603,42.857c-0.08,0-0.16-0.004-0.24-0.013c-4.817-0.536-9.459-1.563-13.948-2.558
					c-2.827-0.626-5.498-1.217-8.212-1.695c-1.174-0.208-1.958-1.327-1.751-2.502c0.208-1.174,1.324-1.958,2.502-1.751
					c2.806,0.495,5.646,1.125,8.394,1.733c4.379,0.97,8.905,1.972,13.49,2.481c1.186,0.132,2.04,1.199,1.909,2.384
					C59.623,42.04,58.688,42.857,57.603,42.857z"/>
			</g>
			<g>
				<path style="fill:#525D7D;" d="M146.723,52.89c-0.16,0-0.321-0.003-0.479-0.008c-6.777-0.216-13.947-4.915-14.537-13.48
					c-0.529-7.625,4.229-14.676,11.314-16.764l0,0c1.136-0.336,2.318-0.517,3.514-0.54c0.086-0.001,0.173-0.003,0.26-0.003
					c7.721,0,15.091,6.577,15.541,13.938c0.072,1.147,0.076,2.17,0.015,3.127C161.824,47.744,153.926,52.889,146.723,52.89z
					 M146.788,26.415c-0.058,0-0.115,0-0.171,0.001c-0.81,0.014-1.607,0.136-2.37,0.363c-0.001,0-0.001,0-0.001,0
					c-5.077,1.496-8.614,6.793-8.231,12.325c0.415,6.008,5.53,9.308,10.368,9.463c5.31,0.101,11.293-3.676,11.66-9.675
					c0.049-0.78,0.045-1.626-0.016-2.592C157.718,31.26,152.181,26.415,146.788,26.415z"/>
			</g>
			<g>
				<path style="fill:#525D7D;" d="M137.31,70.044c-0.43,0-0.855-0.128-1.216-0.375c-0.513-0.349-0.85-0.901-0.926-1.517
					c-0.225-1.802-0.335-3.43-0.335-4.974c0-6.691,2.118-11.446,6.297-14.132c1.002-0.642,2.338-0.354,2.984,0.648
					c0.645,1.004,0.354,2.339-0.648,2.984c-2.904,1.867-4.315,5.301-4.315,10.5c0,0.661,0.023,1.342,0.07,2.054
					c4.81-0.991,9.681-1.354,14.413-1.706c1.82-0.136,3.686-0.275,5.531-0.45c-0.305-3.874-1.593-9.364-6.078-12.96
					c-0.931-0.745-1.08-2.104-0.333-3.035c0.744-0.931,2.103-1.081,3.035-0.333c4.97,3.985,7.732,10.468,7.776,18.255
					c0.006,1.105-0.821,2.035-1.917,2.158c-2.564,0.288-5.171,0.483-7.693,0.67c-5.35,0.399-10.882,0.812-16.111,2.146
					C137.668,70.022,137.488,70.044,137.31,70.044z"/>
			</g>
			<g>
				<path style="fill:#525D7D;" d="M135.097,44.975c-0.432,0-0.866-0.128-1.244-0.395c-0.974-0.687-1.206-2.035-0.519-3.01
					c5.169-7.32,13.095-12.877,22.319-15.645c1.134-0.339,2.345,0.304,2.688,1.448c0.343,1.141-0.305,2.345-1.448,2.687
					c-8.302,2.492-15.416,7.464-20.03,14C136.442,44.657,135.775,44.975,135.097,44.975z"/>
			</g>
			<g>
				<path style="fill:#525D7D;" d="M59.588,207.457c-16.755,0-58.83-48.756-58.83-56.164c0-1.877,0.275-3.389,0.567-4.99
					c0.323-1.774,0.656-3.608,0.656-6.256c0-3.358-0.498-6.971-0.98-10.464C0.509,126.013,0,122.318,0,118.793
					C0,105.846,8.714,97.48,22.199,97.48c2.943,0,4.946,0.239,6.914,0.824c1.143,0.339,1.794,1.541,1.453,2.685
					c-0.339,1.143-1.543,1.798-2.685,1.453c-1.539-0.457-3.185-0.644-5.683-0.644c-11.196,0-17.881,6.354-17.881,16.996
					c0,3.23,0.467,6.615,0.961,10.201c0.5,3.636,1.019,7.398,1.019,11.053c0,3.038-0.385,5.159-0.727,7.029
					c-0.266,1.465-0.496,2.73-0.496,4.217c0.645,5.112,39.791,51.846,54.512,51.846c9.371,0,28.461-18.931,28.461-40.898
					c0-1.192,0.967-2.159,2.159-2.159c1.192,0,2.159,0.967,2.159,2.159c0,14.717-7.475,26.131-11.931,31.625
					C73.74,202.122,65.556,207.457,59.588,207.457z"/>
			</g>
			<g>
				<path style="fill:#525D7D;" d="M27.622,135.123c-0.325,0-0.654-0.073-0.964-0.228c-1.067-0.534-1.499-1.83-0.966-2.897
					c1.85-3.698,4.19-7.337,6.455-10.856c5.032-7.82,10.235-15.905,10.235-25.009c0-1.144-0.614-1.24-1.244-1.24
					c-7.766,0-12.386,8.469-16.461,15.943c-3.134,5.746-5.842,10.709-9.894,12.33c-1.106,0.443-2.363-0.094-2.806-1.202
					c-0.443-1.108,0.096-2.364,1.203-2.807c2.607-1.043,5.084-5.583,7.706-10.389c4.421-8.106,9.922-18.193,20.252-18.193
					c3.275,0,5.562,2.286,5.562,5.558c0,10.374-5.552,19.001-10.922,27.347c-2.302,3.579-4.478,6.959-6.223,10.45
					C29.177,134.685,28.414,135.123,27.622,135.123z"/>
			</g>
			<g>
				<path style="fill:#525D7D;" d="M35.155,122.898c-0.552,0-1.105-0.211-1.527-0.633c-0.843-0.843-0.843-2.21,0-3.053
					c1.657-1.659,3.906-4.421,6.51-7.62c9.574-11.762,17.434-20.76,24.188-20.76c3.267,0,5.665,1.863,6.753,5.244
					c0.365,1.136-0.259,2.352-1.393,2.717c-1.139,0.363-2.353-0.259-2.717-1.393c-0.602-1.868-1.491-2.25-2.643-2.25
					c-5.239,0-14.627,11.535-20.839,19.169c-2.679,3.291-4.991,6.133-6.806,7.946C36.26,122.687,35.707,122.898,35.155,122.898z"/>
			</g>
			<g>
				<path style="fill:#525D7D;" d="M44.047,149.577c-0.277,0-0.558-0.053-0.829-0.166c-1.101-0.458-1.621-1.723-1.162-2.824
					C60.471,102.392,65.216,91.96,75.691,91.96c5.971,0,9.259,3.496,9.259,9.844c0,3.128-5.416,31.454-5.765,32.971
					c-0.268,1.161-1.423,1.893-2.589,1.619c-1.161-0.269-1.886-1.427-1.619-2.589c0.562-2.436,5.651-29.694,5.655-32.001
					c0-4.587-1.975-5.525-4.941-5.525c-7.307,0-11.821,9.182-29.649,51.97C45.696,149.078,44.893,149.577,44.047,149.577z"/>
			</g>
			<g>
				<path style="fill:#525D7D;" d="M90.631,166.516c-1.13,0-2.08-0.878-2.153-2.023c-0.052-0.821-0.076-1.652-0.076-2.494
					c0-4.206,0.599-8.639,1.178-12.928c0.571-4.223,1.161-8.59,1.161-12.651c0-8.198-1.881-10.604-2.993-10.732
					c-3.761-0.495-13.581,11.564-19.578,37.046c-0.271,1.16-1.425,1.881-2.596,1.607c-1.161-0.273-1.879-1.435-1.607-2.596
					c5.635-23.953,16.029-41.307,24.28-40.346c3.106,0.361,6.812,3.26,6.812,15.022c0,4.352-0.61,8.864-1.199,13.228
					c-0.586,4.338-1.14,8.435-1.14,12.35c0,0.749,0.021,1.49,0.068,2.221c0.076,1.189-0.828,2.215-2.018,2.291
					C90.723,166.515,90.676,166.516,90.631,166.516z"/>
			</g>
			<g>
				<path style="fill:#525D7D;" d="M141.815,201.062c-16.289,0-38.043-46.881-38.043-59.197c0-6.924,4.236-10.023,8.437-10.023
					c7.545,0,14.392,14.427,21.922,31.856c1.271,2.941,2.367,5.479,3.278,7.381c0.514,1.075,0.059,2.366-1.016,2.88
					c-1.08,0.512-2.366,0.058-2.88-1.016c-0.946-1.978-2.058-4.551-3.345-7.531c-4.102-9.495-12.637-29.251-17.958-29.251
					c-2.579,0-4.118,2.132-4.118,5.705c0,4.71,4.655,18.172,12.178,31.706c7.943,14.294,16.2,23.173,21.547,23.173
					c11.449,0,50.887-40.131,51.895-44.833c-0.01-3.632,0.098-7.451,0.203-11.145c0.103-3.664,0.209-7.454,0.209-11.165
					c0-25.317-5.44-30.504-13.607-30.504c-2.061,0-4.312,0.333-6.489,0.654c-2.658,0.395-5.427,0.807-8.005,0.645
					c-1.19-0.073-2.096-1.096-2.023-2.287c0.073-1.189,1.077-2.086,2.287-2.023c2.19,0.135,4.559-0.229,7.11-0.607
					c2.33-0.344,4.741-0.7,7.12-0.7c17.925,0,17.925,22.652,17.925,34.822c0,3.773-0.108,7.593-0.212,11.287
					c-0.103,3.663-0.209,7.451-0.209,11.159C198.018,158.824,155.692,201.062,141.815,201.062z"/>
			</g>
			<g>
				<path style="fill:#525D7D;" d="M142.723,152.118c-0.846,0-1.649-0.499-1.995-1.328c-18.75-45-23.476-52.198-29.021-52.198
					c-3.119,0-3.119,1.579-3.119,2.253c0.104,1.971,5.943,23.907,14.411,38.727c0.59,1.036,0.232,2.354-0.804,2.946
					c-1.032,0.589-2.353,0.232-2.946-0.804c-8.43-14.754-14.979-37.903-14.979-40.869c0-3.992,2.92-6.571,7.437-6.571
					c8.096,0,12.396,5.389,33.007,54.855c0.458,1.101-0.062,2.366-1.162,2.824C143.281,152.065,143,152.118,142.723,152.118z"/>
			</g>
			<g>
				<path style="fill:#525D7D;" d="M160.909,139.969c-0.86,0-1.674-0.519-2.009-1.368c-16.858-42.792-22.822-50.407-31.174-50.407
					c-2.593,0-2.593,0-2.593,4.911c0,7.541,2.927,15.188,5.757,22.583c0.389,1.018,0.776,2.025,1.148,3.022
					c0.419,1.116-0.146,2.36-1.264,2.779c-1.11,0.423-2.36-0.146-2.779-1.264c-0.37-0.987-0.752-1.985-1.139-2.994
					c-2.832-7.399-6.043-15.787-6.043-24.126c0-5.722,0.335-9.229,6.911-9.229c12.291,0,19.228,12.618,35.192,53.143
					c0.437,1.109-0.108,2.363-1.217,2.8C161.44,139.921,161.173,139.969,160.909,139.969z"/>
			</g>
			<g>
				<path style="fill:#525D7D;" d="M181.681,124.167c-0.325,0-0.654-0.073-0.964-0.228c-6.061-3.03-10.473-9.863-15.144-17.097
					c-5.922-9.172-12.613-19.531-23.738-23.508c-0.134,0.547-0.25,1.392-0.25,2.425c0,4.186,2.153,7.884,4.433,11.799
					c0.676,1.16,1.356,2.329,1.996,3.529c0.561,1.053,0.163,2.36-0.888,2.921c-1.057,0.561-2.361,0.163-2.921-0.888
					c-0.616-1.153-1.269-2.276-1.917-3.389c-2.468-4.238-5.021-8.619-5.021-13.972c0-6.334,2.799-7.017,4.002-7.017
					c0.291,0,0.578,0.045,0.852,0.134c13.214,4.149,20.581,15.558,27.081,25.623c4.342,6.724,8.442,13.075,13.448,15.577
					c1.067,0.533,1.498,1.83,0.966,2.897C183.236,123.73,182.473,124.167,181.681,124.167z M140.804,82.989
					c0.008,0.003,0.017,0.006,0.025,0.008C140.821,82.994,140.812,82.992,140.804,82.989z"/>
			</g>
			<g>
				<path style="fill:#525D7D;" d="M10.166,77.16c-1.03,0-1.943-0.741-2.124-1.791c-0.34-1.964-0.575-3.965-0.697-5.952
					c-0.073-1.189,0.832-2.214,2.023-2.287c1.207-0.082,2.214,0.832,2.287,2.023c0.112,1.827,0.329,3.672,0.641,5.479
					c0.204,1.175-0.583,2.292-1.758,2.495C10.412,77.15,10.288,77.16,10.166,77.16z M10.302,58.546
					c-0.132,0-0.266-0.011-0.401-0.037c-1.171-0.219-1.944-1.348-1.725-2.52c0.364-1.941,0.839-3.898,1.414-5.812
					c0.343-1.144,1.553-1.787,2.688-1.448c1.143,0.342,1.791,1.546,1.448,2.688c-0.53,1.77-0.969,3.575-1.304,5.368
					C12.228,57.822,11.321,58.546,10.302,58.546z M16.764,41.085c-0.363,0-0.729-0.091-1.067-0.283
					c-1.036-0.59-1.399-1.909-0.808-2.945c0.973-1.708,2.048-3.4,3.194-5.031c0.687-0.978,2.035-1.207,3.008-0.526
					c0.975,0.686,1.21,2.033,0.526,3.008c-1.07,1.521-2.071,3.097-2.974,4.685C18.242,40.693,17.514,41.085,16.764,41.085z
					 M28.335,26.471c-0.575,0-1.15-0.229-1.574-0.682c-0.817-0.87-0.772-2.236,0.097-3.052c1.441-1.351,2.959-2.654,4.514-3.874
					c0.937-0.734,2.295-0.572,3.032,0.367c0.735,0.938,0.571,2.296-0.367,3.032c-1.455,1.141-2.876,2.36-4.224,3.624
					C29.395,26.277,28.865,26.471,28.335,26.471z M43.624,15.794c-0.791,0-1.552-0.436-1.931-1.191
					c-0.534-1.067-0.104-2.364,0.961-2.898c1.777-0.891,3.605-1.706,5.439-2.423c1.105-0.434,2.361,0.111,2.797,1.223
					c0.436,1.11-0.112,2.363-1.223,2.797c-1.709,0.67-3.417,1.431-5.076,2.263C44.28,15.721,43.95,15.794,43.624,15.794z
					 M61.339,10.027c-1.042,0-1.958-0.755-2.128-1.816c-0.19-1.177,0.61-2.286,1.788-2.474c1.924-0.311,3.87-0.529,5.781-0.649
					c1.22-0.063,2.217,0.831,2.291,2.018c0.075,1.191-0.829,2.217-2.018,2.291c-1.775,0.112-3.58,0.315-5.368,0.602
					C61.57,10.018,61.453,10.027,61.339,10.027z"/>
			</g>
			<g>
				<path style="fill:#525D7D;" d="M182.848,53.961c-1.025,0-1.934-0.732-2.122-1.775c-0.343-1.902-0.69-3.775-1.06-5.618
					c-0.235-1.168,0.523-2.307,1.692-2.541c1.157-0.226,2.305,0.521,2.541,1.692c0.375,1.868,0.728,3.77,1.077,5.7
					c0.211,1.174-0.568,2.297-1.742,2.509C183.105,53.95,182.976,53.961,182.848,53.961z M178.514,35.782
					c-0.891,0-1.726-0.555-2.037-1.445c-0.648-1.846-1.333-3.513-2.094-5.097c-0.517-1.075-0.065-2.366,1.009-2.881
					c1.077-0.517,2.366-0.065,2.881,1.009c0.832,1.73,1.577,3.542,2.277,5.541c0.395,1.124-0.197,2.357-1.323,2.751
					C178.992,35.743,178.752,35.782,178.514,35.782z M168.96,19.914c-0.554,0-1.108-0.212-1.529-0.635
					c-1.252-1.258-2.633-2.449-4.102-3.539c-0.959-0.71-1.158-2.062-0.447-3.019c0.71-0.957,2.063-1.158,3.019-0.447
					c1.642,1.217,3.185,2.55,4.588,3.958c0.842,0.845,0.839,2.213-0.006,3.053C170.062,19.704,169.511,19.914,168.96,19.914z
					 M153.294,9.996c-0.267,0-0.537-0.049-0.798-0.153c-1.656-0.659-3.424-1.279-5.257-1.841c-1.14-0.349-1.781-1.556-1.431-2.696
					c0.349-1.141,1.562-1.789,2.696-1.431c1.945,0.596,3.825,1.254,5.589,1.957c1.108,0.441,1.649,1.697,1.207,2.804
					C154.963,9.481,154.152,9.996,153.294,9.996z M135.283,5.167c-0.121,0-0.243-0.01-0.367-0.031
					c-1.781-0.305-3.664-0.585-5.597-0.835c-1.184-0.152-2.019-1.234-1.865-2.416c0.15-1.183,1.255-2.027,2.416-1.865
					c1.992,0.256,3.934,0.545,5.774,0.86c1.175,0.201,1.965,1.317,1.764,2.492C137.228,4.424,136.316,5.167,135.283,5.167z"/>
			</g>
		</g>
	</g>
</g>
<g id="Layer_1">
</g>
</svg>
