<?xml version="1.0" encoding="iso-8859-1"?>
<!-- Generator: Adobe Illustrator 21.0.2, SVG Export Plug-In . SVG Version: 6.00 Build 0)  -->
<svg version="1.1" xmlns="http://www.w3.org/2000/svg" xmlns:xlink="http://www.w3.org/1999/xlink" x="0px" y="0px"
	 viewBox="0 0 189.931 151.818" style="enable-background:new 0 0 189.931 151.818;" xml:space="preserve">
<g id="_x37_">
	<g>
		<path style="fill:#E0DFE6;" d="M48.356,39.611c-0.314-4.734-0.659-9.502-1.772-14.125c-0.587-2.437-4.346-2.439-4.934,0
			c-1.113,4.623-1.458,9.391-1.772,14.125c-0.047,0.712-0.108,1.429-0.172,2.146c-0.168,0.012-0.323,0.003-0.498,0.028
			c-9.289,1.349-19.323,1.828-28.287,4.671c-1.748,0.554-1.767,3.02,0,3.567c0.562,0.174,1.13,0.334,1.703,0.482
			c-0.385,0.117-0.771,0.228-1.149,0.391c-0.916,0.395-0.795,1.606-0.287,2.225c2.728,3.319,7.546,4.268,11.519,5.511
			c5.132,1.605,10.382,2.909,15.669,3.895c3.558,0.664,5.916-2.111,6.258-4.871c1.883-0.173,3.65-1.28,4.036-3.346
			C49.569,49.502,48.679,44.486,48.356,39.611z M32.605,51.737c2.243-0.157,4.456-0.372,6.607-0.612
			c0.023,0.489,0.055,0.978,0.105,1.464C37.083,52.29,34.844,52.01,32.605,51.737z"/>
		<path style="fill:#E0DFE6;" d="M67.7,74.89c0.561-1.53,0.267-3.332-0.946-4.544c-1.515-1.515-4.59-1.8-6.067,0
			c-1.132,1.38-2.285,2.752-3.489,4.071c-0.559,0.612-1.143,1.2-1.754,1.761c-0.302,0.277-0.607,0.548-0.901,0.833
			c-0.019,0.02-0.038,0.038-0.057,0.058c-0.209-0.021-0.43-0.009-0.671,0.078c-1.216,0.44-1.998,1.586-1.858,2.91
			c0.219,2.074,2.382,2.666,4.148,2.401c3.491-0.523,7.003-2.663,9.655-5.088c-2.154,3.543-3.38,6.852-8.436,6.943
			c-3.661,0.066-9.115-0.419-11.858-3.107c-1.373-1.345-3.306-0.57-3.947,1.042c-2.971,7.466,10.196,11.886,15.298,12.603
			c9.381,1.318,18.147-4.972,20.426-14.161C78.733,74.69,71.775,71.418,67.7,74.89z"/>
		<path style="fill:#E0DFE6;" d="M128.224,99.627c-0.693-6.765-8.725-8.315-12.001-4.11c-0.169-0.195-0.351-0.381-0.559-0.541
			c-2.019-1.558-4.567-0.852-5.957,1.137c-1.975,2.828-3.496,5.909-4.719,9.13c-0.781,2.056,0.85,3.579,2.641,3.794
			c-0.952,0.14-1.929,0.162-2.836,0.07c-1.121-0.113-2.177-0.488-3.24-0.837c-0.404-0.137-0.807-0.274-1.211-0.41
			c-0.051-0.018-0.071-0.024-0.115-0.04c-1.13-1.352-3.813-0.96-4.546,0.618c-3.789,8.155,10.263,12.127,15.848,11.513
			C121.232,118.885,129.233,109.478,128.224,99.627z M110.202,108.222c0.172-0.17,0.334-0.357,0.47-0.583
			c1.091-1.813,2.339-3.441,3.754-4.958C113.837,105.024,112.547,107.02,110.202,108.222z"/>
		<path style="fill:#E0DFE6;" d="M164.408,60.291c-0.434-5.5-8.019-8.076-10.965-4.05c-1.536-0.103-3.145,0.584-3.88,1.997
			c-1.306,2.509-2.612,5.017-3.919,7.526c-1.108,2.128-0.135,4.028,1.43,4.874c-2.209,0.788-4.78-0.091-6.982-1.15
			c-1.527-0.735-3.665,0.495-3.064,2.356c2,6.186,9.489,7.183,14.987,5.835C159.216,75.915,164.995,67.729,164.408,60.291z"/>
		<path style="fill:#E0DFE6;" d="M184.932,75.361c-1.118-15.06-0.712-30.535-3.043-45.457c-0.357-2.285-4.141-2.223-4.554,0
			c-0.792,4.264-1.285,8.612-1.585,12.998c-0.095-10.441-0.544-20.958-2.724-30.844c-0.231-1.046-2.037-1.13-2.201,0
			c-2.354,16.205-0.673,33.404-0.892,49.761c-0.233,17.403-1.7,34.892-1.393,52.286c0.012,0.691,0.185,1.261,0.449,1.738
			c-0.144,0.022-0.279,0.015-0.427,0.048c-3.819,0.859-7.014,3.21-9.586,6.106c-2.471,2.782-5.08,6.232-4.877,10.135
			c0.016,0.304,0.079,0.6,0.166,0.891c-0.697-0.375-1.542-0.602-2.58-0.57c-13.318,0.414-26.642,1.95-39.95,2.718
			c-13.321,0.769-26.66,0.843-39.983,1.495c-1.65,0.081-2.378,2.418-1.196,3.269c-6.607,0.033-13.213,0.155-19.815,0.496
			c-1.865,0.096-2.454,2.953-0.46,3.402c24.028,5.409,48.944,6.312,73.502,7.016c11.029,0.316,23.931,2.131,34.774-0.204
			c5.115-1.102,8.57-4.536,12.234-8.012c4.711-4.47,9.579-8.835,14.01-13.58c0.284-0.305,0.524-0.616,0.74-0.929
			c2.389-0.541,4.48-2.384,4.389-5.292C189.435,107.08,186.103,91.142,184.932,75.361z M156.482,137.059
			c0.007-0.525-0.071-1.04-0.215-1.529c0.61,0.347,1.293,0.543,1.993,0.482C157.683,136.404,157.096,136.75,156.482,137.059z
			 M175.727,119.979c-0.253,0.216-0.495,0.444-0.745,0.662c-0.098-1.299-0.701-2.538-1.641-3.453
			c1.138-0.466,2.07-1.493,2.204-3.084c0.434-5.113,0.648-10.261,0.749-15.422c0.246,6.732,0.692,13.459,1.665,19.977
			C177.201,118.937,176.448,119.363,175.727,119.979z"/>
		<g>
			<g>
				<path style="fill:#525D7D;" d="M57.694,86.814c-8.414,0-14.291-5.668-14.291-13.784c0-5.063,3.625-13.096,13.355-13.096
					c0.713,0,1.448,0.042,2.187,0.124c5.978,0.664,10.898,4.27,12.533,9.187c0.327,0.983,0.548,2.345,0.548,3.387
					C72.026,79.326,65.898,86.814,57.694,86.814z M56.758,64.252c-6.584,0-9.037,5.384-9.037,8.778c0,5.75,3.915,9.466,9.973,9.466
					c5.639,0,10.014-5.303,10.014-9.864c0-0.574-0.148-1.481-0.327-2.023c-1.088-3.274-4.67-5.788-8.915-6.259
					C57.885,64.285,57.311,64.252,56.758,64.252z"/>
			</g>
			<g>
				<path style="fill:#525D7D;" d="M106.121,110.829c-8.597,0-13.734-6.81-13.734-13.394c0-6.231,5.433-11.775,10.507-13.044
					c0.607-0.152,1.259-0.226,1.995-0.226c9.567,0,14.572,6.652,14.572,13.223C119.461,106.118,112.589,110.829,106.121,110.829z
					 M104.889,88.483c-0.377,0-0.687,0.032-0.946,0.096c-3.417,0.854-7.238,4.823-7.238,8.855c0,4.4,3.3,9.076,9.416,9.076
					c4.483,0,9.021-3.134,9.021-9.123C115.143,92.955,111.972,88.483,104.889,88.483z"/>
			</g>
			<g>
				<path style="fill:#525D7D;" d="M144.953,72.978c-8.019,0-13.405-7.004-13.405-13.545c0-6.734,5.205-12.661,11.849-13.492
					c0.358-0.044,0.708-0.065,1.054-0.065c7.581,0,13.519,6.108,13.519,13.904C157.971,68.392,150.411,72.978,144.953,72.978z
					 M143.933,50.226c-4.449,0.557-8.067,4.687-8.067,9.207c0,4.365,3.732,9.227,9.087,9.227c2.939,0,8.7-2.681,8.7-8.879
					c0-4.712-3.442-9.586-9.201-9.586C144.28,50.194,144.107,50.203,143.933,50.226z"/>
			</g>
			<g>
				<path style="fill:#525D7D;" d="M21.74,89.015c-0.9,0-1.739-0.566-2.044-1.465c-0.384-1.129,0.219-2.355,1.348-2.739
					c2.366-0.805,4.734-1.661,7.128-2.527c3.746-1.355,7.62-2.756,11.627-4.007c1.14-0.355,2.35,0.28,2.704,1.417
					c0.356,1.138-0.278,2.349-1.417,2.704c-3.916,1.224-7.745,2.608-11.447,3.947c-2.419,0.875-4.813,1.74-7.204,2.553
					C22.205,88.978,21.97,89.015,21.74,89.015z"/>
			</g>
			<g>
				<path style="fill:#525D7D;" d="M96.02,94.488c-0.275,0-0.557-0.053-0.829-0.167c-6.065-2.527-11.942-5.154-18.165-7.936
					l-5.287-2.359c-1.089-0.484-1.58-1.761-1.096-2.85c0.485-1.089,1.757-1.581,2.851-1.096l5.295,2.363
					c6.196,2.77,12.049,5.386,18.064,7.891c1.101,0.458,1.621,1.723,1.162,2.823C97.669,93.988,96.867,94.488,96.02,94.488z"/>
			</g>
			<g>
				<path style="fill:#525D7D;" d="M114.63,92.375c-0.551,0-1.101-0.209-1.522-0.628c-0.846-0.841-0.849-2.208-0.008-3.054
					l1.463-1.472c6.916-6.96,14.068-14.156,21.433-20.971c0.872-0.808,2.241-0.758,3.05,0.119c0.811,0.875,0.758,2.241-0.118,3.051
					c-7.298,6.753-14.418,13.917-21.302,20.846l-1.465,1.473C115.739,92.163,115.185,92.375,114.63,92.375z"/>
			</g>
			<g>
				<path style="fill:#525D7D;" d="M155.449,58.996c-1.148,0-2.104-0.904-2.155-2.063c-0.053-1.191,0.869-2.2,2.061-2.253
					c3.731-0.167,7.51-0.239,11.165-0.309c3.085-0.059,6.169-0.119,9.253-0.233c1.255-0.046,2.193,0.887,2.238,2.078
					c0.044,1.192-0.886,2.193-2.077,2.238c-3.111,0.115-6.22,0.175-9.331,0.235c-3.628,0.07-7.38,0.141-11.057,0.306
					C155.514,58.996,155.482,58.996,155.449,58.996z"/>
			</g>
			<g>
				<path style="fill:#525D7D;" d="M56.639,78.303c-3.083,0-5.153-1.919-5.153-4.776c0-4.554,3.308-4.785,3.971-4.785
					c1.192,0,2.159,0.966,2.159,2.159c0,1.066-0.772,1.951-1.788,2.128c-0.013,0.117-0.024,0.278-0.024,0.498
					c0,0.186,0.032,0.278,0.044,0.297c0.03,0.032,0.263,0.162,0.791,0.162c0.835,0,1.832-0.331,2.423-0.805
					c0.936-0.745,2.291-0.594,3.035,0.337c0.745,0.931,0.595,2.29-0.336,3.035C60.41,77.632,58.448,78.303,56.639,78.303z"/>
			</g>
			<g>
				<path style="fill:#525D7D;" d="M105.874,103.518c-3.912,0-6.834-3.005-6.834-5.693c0-1.824,1.369-3.339,2.64-3.975
					c1.07-0.531,2.363-0.1,2.897,0.966c0.533,1.067,0.101,2.364-0.966,2.897c-0.069,0.034-0.159,0.12-0.218,0.197
					c0.191,0.365,1.087,1.29,2.481,1.29c0.415,0,0.796-0.085,1.131-0.254c1.068-0.53,2.364-0.1,2.897,0.966
					c0.533,1.067,0.101,2.364-0.966,2.897C108.009,103.273,106.949,103.518,105.874,103.518z M103.332,98.006L103.332,98.006
					L103.332,98.006z"/>
			</g>
			<g>
				<path style="fill:#525D7D;" d="M143.826,65.338c-0.915,0-3.701,0-4.622-2.763c-0.377-1.132,0.235-2.354,1.366-2.731
					c1.056-0.355,2.197,0.16,2.648,1.157c0.183,0.02,0.446,0.02,0.607,0.02c0.96,0,1.608-1.597,2.298-3.525
					c0.143-0.401,0.28-0.782,0.416-1.122c0.443-1.108,1.701-1.643,2.806-1.204c1.108,0.443,1.646,1.699,1.203,2.806
					c-0.118,0.295-0.235,0.625-0.36,0.973C149.336,61.338,147.907,65.338,143.826,65.338z M143.3,61.21l-2.048,0.682
					C141.252,61.892,143.302,61.211,143.3,61.21z"/>
			</g>
			<g>
				<path style="fill:#525D7D;" d="M39.605,141.535c-1.177,0-2.139-0.944-2.159-2.125c-0.084-5.327-0.306-10.783-0.521-16.058
					c-0.275-6.799-0.562-13.829-0.562-20.73c0-3.415,0.068-6.529,0.208-9.516c0.055-1.191,1.046-2.103,2.258-2.056
					c1.191,0.056,2.111,1.067,2.055,2.257c-0.136,2.921-0.202,5.968-0.202,9.315c0,6.812,0.284,13.798,0.559,20.554
					c0.215,5.302,0.438,10.784,0.524,16.165C41.782,140.535,40.832,141.516,39.605,141.535z"/>
			</g>
			<g>
				<path style="fill:#525D7D;" d="M61.851,141.551c-1.15,0-2.104-0.905-2.156-2.065c-0.582-13.322-1.242-28.421-3.372-42.963
					c-0.173-1.18,0.644-2.276,1.823-2.449c1.189-0.168,2.277,0.644,2.45,1.824c2.16,14.76,2.827,29.976,3.414,43.4
					c0.052,1.191-0.872,2.199-2.063,2.251C61.914,141.551,61.882,141.551,61.851,141.551z"/>
			</g>
			<g>
				<path style="fill:#525D7D;" d="M86.991,141.172c-1.078,0-2.01-0.806-2.141-1.904l-0.468-3.861
					c-0.968-7.914-1.969-16.097-1.969-24.319c0-1.12,0.018-2.243,0.058-3.37c0.042-1.191,1.047-2.094,2.232-2.083
					c1.192,0.041,2.124,1.04,2.083,2.232c-0.037,1.076-0.055,2.15-0.055,3.221c0,7.958,0.94,15.65,1.937,23.795l0.469,3.875
					c0.142,1.184-0.704,2.258-1.888,2.399C87.162,141.167,87.076,141.172,86.991,141.172z"/>
			</g>
			<g>
				<path style="fill:#525D7D;" d="M115.644,140.551c-1.117,0-2.065-0.862-2.151-1.996c-0.202-2.67-0.491-5.385-0.77-8.011
					c-0.533-5.012-1.085-10.197-1.085-15.459c0-1.193,0.967-2.159,2.159-2.159c1.192,0,2.159,0.966,2.159,2.159
					c0,5.034,0.54,10.102,1.061,15.002c0.283,2.658,0.575,5.406,0.783,8.142c0.09,1.189-0.801,2.226-1.99,2.316
					C115.756,140.549,115.699,140.551,115.644,140.551z"/>
			</g>
			<g>
				<path style="fill:#525D7D;" d="M153.67,140.071c-1.184,0-2.149-0.954-2.159-2.14c-0.053-6.167-0.236-13.47-1.177-20.876
					c-0.077-0.613,0.111-1.229,0.517-1.694c0.408-0.465,0.994-0.732,1.611-0.737c9.741-0.062,18.36-0.295,26.353-0.714
					c1.184-0.08,2.206,0.853,2.269,2.043c0.062,1.191-0.852,2.207-2.044,2.269c-7.391,0.387-15.312,0.617-24.14,0.701
					c0.725,6.78,0.88,13.342,0.929,18.97C155.839,139.086,154.881,140.061,153.67,140.071z"/>
			</g>
			<g>
				<path style="fill:#525D7D;" d="M138.677,133.117c-1.161,0-2.12-0.923-2.156-2.092c-0.214-6.829-0.649-13.681-1.07-20.307
					c-0.423-6.661-0.86-13.548-1.075-20.446c-0.038-1.192,0.898-2.189,2.09-2.226c1.207-0.054,2.187,0.9,2.225,2.091
					c0.214,6.829,0.649,13.681,1.07,20.307c0.423,6.661,0.86,13.548,1.075,20.446C140.874,132.082,139.938,133.079,138.677,133.117z
					"/>
			</g>
			<g>
				<path style="fill:#525D7D;" d="M159.7,112.955c-0.031,0-0.062-0.001-0.093-0.002c-1.191-0.05-2.115-1.056-2.066-2.248
					c0.038-0.905,0.056-1.808,0.056-2.707c0-4.535-0.444-9.13-0.874-13.574c-0.443-4.569-0.9-9.294-0.9-14.086
					c0-1.193,0.967-2.159,2.159-2.159s2.159,0.966,2.159,2.159c0,4.584,0.447,9.203,0.88,13.67c0.439,4.546,0.894,9.246,0.894,13.99
					c0,0.96-0.018,1.923-0.059,2.889C161.807,112.047,160.851,112.955,159.7,112.955z"/>
			</g>
			<g>
				<path style="fill:#525D7D;" d="M151.602,142.926c-22.158-0.137-44.663-0.722-66.426-1.288
					c-20.228-0.526-41.146-1.07-61.71-1.251c-1.127-0.01-2.058-0.886-2.134-2.012c-0.53-7.737-1.033-14.888-1.517-21.758
					c-1.376-19.543-2.563-36.421-3.767-58.084c-0.066-1.191,0.846-2.209,2.037-2.275c1.206-0.079,2.208,0.846,2.276,2.036
					c1.202,21.63,2.388,38.493,3.761,58.019c0.441,6.279,0.9,12.793,1.38,19.774c19.956,0.198,40.193,0.725,59.784,1.233
					c21.471,0.558,43.663,1.135,65.498,1.281c7.734-6.876,15.856-13.424,23.717-19.761l1.985-1.601
					c-1.979-21.967-2.172-43.16-2.357-63.667c-0.145-15.9-0.292-32.319-1.265-49.18c-14.055,0.499-29.209,0.722-48.743,0.722
					c-8.41,0-16.82-0.039-25.23-0.079c-8.403-0.039-16.806-0.079-25.209-0.079c-20.247,0-35.894,0.242-50.351,0.784
					c0,0.076,0,0.151,0,0.227c0,2.78,0.094,5.625,0.187,8.376l0.094,2.986c0.035,1.192-0.902,2.187-2.094,2.222
					c-1.184,0.048-2.186-0.904-2.221-2.095l-0.096-2.969c-0.093-2.787-0.188-5.668-0.188-8.52c0-0.783,0.008-1.565,0.024-2.349
					c0.024-1.142,0.932-2.068,2.073-2.114C36.203,0.907,52.418,0.64,73.683,0.64c8.41,0,16.82,0.039,25.23,0.079
					c8.403,0.039,16.806,0.079,25.209,0.079c20.46,0,36.094-0.246,50.691-0.797c1.144-0.023,2.165,0.854,2.236,2.025
					c1.092,17.712,1.248,34.893,1.399,51.509c0.188,20.777,0.382,42.263,2.444,64.461c0.068,0.72-0.231,1.425-0.793,1.879
					l-2.887,2.329c-8.031,6.473-16.335,13.167-24.171,20.173C152.645,142.731,152.133,142.926,151.602,142.926z"/>
			</g>
			<g>
				<path style="fill:#525D7D;" d="M20.585,51.418c-7.044,0-12.84-0.048-18.244-0.152c-1.162-0.022-2.099-0.959-2.118-2.121
					C0.038,38.348,0.007,27.638,0,17.673c-0.001-1.137,0.88-2.079,2.014-2.156c3.672-0.247,7.641-0.368,12.135-0.368
					c4.556,0,9.172,0.122,13.636,0.241c4.431,0.117,9.011,0.239,13.503,0.239c0.575,0,1.126,0.229,1.532,0.637
					c0.405,0.408,0.631,0.96,0.627,1.535c-0.016,2.481-0.031,4.933-0.031,7.383c0,7.462,0.138,15.502,1.133,23.74
					c0.074,0.612-0.118,1.227-0.526,1.689c-0.408,0.462-0.994,0.727-1.611,0.729l-7.519,0.031
					C30.127,51.396,25.356,51.418,20.585,51.418z M4.508,46.986c4.788,0.077,9.959,0.114,16.078,0.114
					c4.764,0,9.527-0.022,14.288-0.044l5.119-0.021c-0.78-7.61-0.895-14.976-0.895-21.85c0-1.747,0.008-3.495,0.018-5.247
					c-3.839-0.03-7.694-0.132-11.445-0.232c-4.436-0.117-9.024-0.239-13.522-0.239c-3.583,0-6.82,0.078-9.83,0.237
					C4.329,28.419,4.363,37.657,4.508,46.986z"/>
			</g>
			<g>
				<path style="fill:#525D7D;" d="M31.684,30.483c-2.928,0-5.746-0.214-8.47-0.422c-2.706-0.206-5.261-0.4-7.901-0.4
					c-1.411,0-2.71,0.056-3.974,0.171c-1.175,0.109-2.238-0.766-2.346-1.954c-0.108-1.188,0.767-2.238,1.955-2.346
					c1.393-0.127,2.821-0.189,4.365-0.189c2.804,0,5.562,0.209,8.229,0.413c2.644,0.201,5.379,0.409,8.143,0.409
					c1.192,0,2.159,0.966,2.159,2.159C33.843,29.517,32.876,30.483,31.684,30.483z"/>
			</g>
			<g>
				<path style="fill:#525D7D;" d="M32.325,38.828H11.785c-1.192,0-2.159-0.966-2.159-2.159c0-1.193,0.967-2.159,2.159-2.159h20.541
					c1.192,0,2.159,0.966,2.159,2.159C34.484,37.861,33.517,38.828,32.325,38.828z"/>
			</g>
			<g>
				<path style="fill:#525D7D;" d="M62.333,36.269c-3.503,0-6.702-0.1-9.783-0.306c-1.191-0.079-2.09-1.108-2.012-2.298
					c0.08-1.191,1.122-2.103,2.298-2.01c2.986,0.199,6.091,0.296,9.497,0.296c6.755,0,13.66-0.394,20.337-0.775
					c6.732-0.384,13.692-0.782,20.559-0.782c1.192,0,2.159,0.966,2.159,2.159c0,1.193-0.967,2.159-2.159,2.159
					c-6.743,0-13.642,0.394-20.313,0.775C76.178,35.871,69.211,36.269,62.333,36.269z"/>
			</g>
			<g>
				<path style="fill:#525D7D;" d="M97.28,45.783c-0.35,0-0.704-0.085-1.032-0.264c-1.047-0.571-1.434-1.882-0.863-2.929
					c2.137-3.916,4.696-7.482,7.239-10.776c-2.945-2.704-5.942-5.514-8.657-8.649c-0.78-0.902-0.683-2.265,0.218-3.046
					c0.902-0.78,2.266-0.683,3.046,0.218c2.859,3.3,6.136,6.302,9.304,9.205l0.477,0.436c0.832,0.763,0.936,2.039,0.237,2.927
					c-2.815,3.58-5.743,7.482-8.071,11.754C98.785,45.376,98.044,45.783,97.28,45.783z"/>
			</g>
		</g>
	</g>
</g>
<g id="Layer_1">
</g>
</svg>
