<?xml version="1.0" encoding="iso-8859-1"?>
<!-- Generator: Adobe Illustrator 21.0.2, SVG Export Plug-In . SVG Version: 6.00 Build 0)  -->
<svg version="1.1" xmlns="http://www.w3.org/2000/svg" xmlns:xlink="http://www.w3.org/1999/xlink" x="0px" y="0px"
	 viewBox="0 0 191.922 210.117" style="enable-background:new 0 0 191.922 210.117;" xml:space="preserve">
<g id="_x37_0">
	<g>
		<path style="fill:#E0DFE6;" d="M91.649,157.007c-16.203,5.642-33.896,1.283-47.719-8.28C37.097,144,31.11,138.104,25.713,131.811
			c-4.865-5.673-8.89-13.656-15.552-17.415c-1.249-0.705-2.834,0.185-2.843,1.631c-0.053,8.627,6.596,17.377,11.318,24.164
			c5.764,8.285,12.374,15.85,20.38,22.037c16.324,12.617,37.314,18.369,57.26,11.564
			C106.831,170.192,102.254,153.314,91.649,157.007z"/>
		<path style="fill:#E0DFE6;" d="M160.273,53.547c-0.25-0.254-0.695-0.132-0.789,0.208c-3.092,11.111-0.662,24.134-1.622,35.614
			c-0.546,6.535-1.821,12.908-3.496,19.239c-1.259,4.761-4.286,9.011-5.155,13.745c-0.452,2.466,0.507,4.567,2.238,5.671
			c-0.779,0.255-1.472,0.831-1.741,1.656c-1.838,5.633-1.49,13.683,1.004,19.052c1.942,4.179,8.734,2.061,8.562-2.319
			c-0.121-3.09-1.223-6.155-2.055-9.128c-0.791-2.825-1.61-5.587-2.948-8.201c-0.048-0.094-0.118-0.153-0.173-0.234
			c0.481,0.023,0.984-0.009,1.504-0.106c12.436-2.307,13.197-24.471,13.803-34.081C170.213,81.852,169.895,63.312,160.273,53.547z"
			/>
		<path style="fill:#E0DFE6;" d="M185.051,139.613c-0.887-2.674-5.173-3.096-5.855,0c-0.281,1.273-0.53,2.552-0.762,3.834
			c-0.79-3.66-1.98-7.174-4.027-10.206c-1.144-1.694-3.811-1.968-4.894,0c-5.104,9.279-4.103,22.762-4.047,33.025
			c0.028,5.224,0.693,11.792-2.177,16.489c-2.089,3.419-5.747,6.116-8.53,8.951c-1.721,1.753-1.72,4.463-0.207,6.316
			c-5.132,1.129-10.5,1.708-15.741,1.855c-2.766,0.077-16.119,1.335-17.577-0.559c-1.046-1.36-3.808-0.677-3.083,1.3
			c3.341,9.1,21.368,9.896,29.277,9.379c4.606-0.301,11.593-1.016,17.765-3.021c10.454,3.647,21.392-5.907,24.687-16.482
			C194.738,174.899,190.042,154.653,185.051,139.613z"/>
		<path style="fill:#E0DFE6;" d="M140.33,134.66c-0.239-2.595-0.395-5.252-2.031-7.172c-0.005-0.014-0.011-0.027-0.017-0.041
			c-1.064-2.608-4.269-2.613-5.335,0c-0.005,0.012-0.01,0.023-0.014,0.035c-1.646,1.92-1.793,4.568-2.033,7.177
			c-0.148,1.614-0.34,3.189-0.047,4.801c0.315,1.734,1.152,2.839,2.234,4.205c1.108,1.399,3.955,1.392,5.057,0
			c0.959-1.211,1.811-2.21,2.166-3.726C140.722,138.174,140.493,136.434,140.33,134.66z"/>
		<path style="fill:#E0DFE6;" d="M118.414,126.653c-1.302-9.645-2.859-19.091-5.291-28.518c-0.572-2.217-3.975-1.745-3.976,0.538
			c-0.006,10.276,0.482,20.513,0.658,30.785c0.137,8.017-2.256,18.58,3.089,25.097c1.64,1.999,4.586,1.011,5.828-0.751
			C123.563,146.936,119.471,134.486,118.414,126.653z"/>
		<g>
			<path style="fill:#E0DFE6;" d="M87.144,78.385c0.058-0.008,0.122-0.006,0.182-0.012C87.448,78.347,87.428,78.346,87.144,78.385z"
				/>
			<path style="fill:#E0DFE6;" d="M96.776,84.504c-0.629-2.445-2.672-4.184-4.996-4.756c-1.084-1.151-2.945-1.535-4.454-1.376
				c-0.344,0.07-1.841,0.326-2.062,0.423c-0.801,0.352-1.385,0.842-2.06,1.391c-0.882,0.717-1.621,1.601-2.505,2.305
				c-1.582,1.259-3.687,1.981-5.655,2.301c-1.926,0.313-2.694,2.638-2.061,4.319c-0.888,1.503-1.152,3.442-0.704,5.113
				c1.088,4.063,4.823,6.843,8.902,7.176C89.604,102.089,99.011,93.187,96.776,84.504z"/>
		</g>
		<path style="fill:#E0DFE6;" d="M74.915,17.211c-20.908,3.184-42.403,14.578-51.393,34.644c-3.499,7.81-4.245,16.374-3.823,24.873
			c-6.283,7.552-3.526,18.652,0.197,27.61c4.998,12.023,11.169,21.736,23.286,27.372c1.325,0.616,2.52-0.876,1.553-2.013
			c-2.263-2.664-4.277-5.653-6.082-8.806c0.639-0.485,1.148-1.163,1.423-1.946c1.695-4.834-0.824-9.473-1.99-14.226
			c-1.196-4.879-1.927-9.889-2.648-14.856c-1.632-11.234-2.608-22.824,0.446-33.883c5.147-18.636,22.755-30.29,39.551-37.534
			C76.196,18.115,75.6,17.106,74.915,17.211z"/>
		<g>
			<g>
				<path style="fill:#525D7D;" d="M81.337,161.211c-0.184,0-0.368,0-0.551-0.001c-21.715-0.139-42.039-8.565-57.228-23.726
					C8.31,122.262-0.057,101.924,0,80.215c0.077-29.007,15.407-55.653,40.009-69.542C52.02,3.885,65.762,0.197,79.745,0.007
					c21.717-0.268,42.318,7.295,57.98,21.392c16.263,14.638,25.386,34.943,25.687,57.174c0.291,21.502-7.653,41.853-22.369,57.302
					c-0.822,0.863-2.189,0.895-3.052,0.075c-0.863-0.822-0.897-2.189-0.074-3.052c13.933-14.628,21.454-33.9,21.177-54.266
					c-0.285-21.014-8.9-40.201-24.258-54.024c-14.852-13.368-34.44-20.594-55.031-20.283c-13.263,0.18-26.29,3.676-37.673,10.108
					C18.88,27.56,4.391,52.77,4.318,80.227c-0.054,20.549,7.862,39.798,22.291,54.2c14.381,14.356,33.632,22.334,54.206,22.465
					c4.602,0.031,9.205-0.332,13.688-1.072c1.168-0.195,2.288,0.6,2.482,1.777s-0.602,2.288-1.778,2.482
					C90.662,160.83,85.998,161.211,81.337,161.211z"/>
			</g>
			<g>
				<path style="fill:#525D7D;" d="M120.002,136.408c-0.682,0-1.352-0.322-1.772-0.924c-0.682-0.977-0.443-2.323,0.534-3.005
					c1.137-0.794,2.264-1.638,3.35-2.505c0.931-0.742,2.29-0.595,3.035,0.339c0.744,0.932,0.592,2.29-0.339,3.035
					c-1.158,0.925-2.36,1.824-3.573,2.671C120.859,136.282,120.428,136.408,120.002,136.408z"/>
			</g>
			<g>
				<path style="fill:#525D7D;" d="M81.382,148.415c-0.149,0-0.297,0-0.446-0.001c-18.267-0.117-35.363-7.205-48.14-19.96
					c-12.829-12.805-19.867-29.915-19.819-48.177c0.065-24.401,12.963-46.818,33.661-58.504c10.102-5.708,21.66-8.812,33.423-8.972
					c18.312-0.224,35.589,6.137,48.763,17.993c13.684,12.316,21.359,29.4,21.613,48.105c0.234,17.267-5.919,33.811-17.325,46.586
					c-0.793,0.89-2.158,0.966-3.048,0.173c-0.89-0.794-0.966-2.159-0.172-3.049c10.684-11.966,16.447-27.468,16.227-43.651
					c-0.237-17.488-7.405-33.453-20.184-44.955C113.572,22.875,97.3,16.932,80.121,17.119c-11.042,0.15-21.886,3.06-31.36,8.414
					C29.412,36.458,17.355,57.438,17.295,80.288c-0.045,17.104,6.543,33.124,18.551,45.11
					c11.969,11.948,27.992,18.588,45.117,18.698c5.885,0.093,11.687-0.685,17.265-2.144c1.154-0.298,2.333,0.389,2.635,1.542
					c0.302,1.154-0.389,2.333-1.543,2.636C93.519,147.646,87.486,148.415,81.382,148.415z"/>
			</g>
			<g>
				<path style="fill:#525D7D;" d="M79.946,94.727c-0.06,0-0.119-0.001-0.178-0.001c-6.79-0.104-12.5-5.978-12.468-12.827
					c0.03-6.521,4.839-12.034,10.948-12.552c0.671-0.055,1.387-0.052,2.124,0.017c0.002,0,0.004,0,0.006,0l0.602,0.051
					c1.09,0.087,2.447,0.195,3.682,0.723c5.219,2.229,7.969,5.901,8.176,10.915c0.147,3.539-1.24,7.08-3.804,9.711
					C86.574,93.289,83.271,94.727,79.946,94.727z M79.199,73.626c-0.202,0-0.396,0.008-0.584,0.024
					c-3.84,0.326-6.978,4.036-6.997,8.269c-0.021,4.454,3.818,8.421,8.217,8.489c2.191,0.073,4.429-0.933,6.107-2.657
					c1.739-1.785,2.681-4.162,2.583-6.521c-0.136-3.298-1.903-5.561-5.558-7.121c-0.586-0.25-1.512-0.325-2.33-0.389l-0.664-0.058
					C79.705,73.638,79.448,73.626,79.199,73.626z"/>
			</g>
			<g>
				<path style="fill:#525D7D;" d="M77.576,73.433c-1.096,0-2.034-0.831-2.146-1.944c-0.578-5.781-0.871-12.101-0.871-18.784
					c0-4.187,0.115-8.628,0.344-13.2c0.06-1.192,1.091-2.096,2.264-2.049c1.191,0.059,2.109,1.072,2.049,2.263
					c-0.224,4.502-0.338,8.871-0.338,12.987c0,6.54,0.286,12.715,0.85,18.353c0.119,1.186-0.747,2.245-1.934,2.363
					C77.721,73.43,77.648,73.433,77.576,73.433z"/>
			</g>
			<g>
				<path style="fill:#525D7D;" d="M91.074,81.219c-0.929,0-1.787-0.603-2.067-1.539c-0.343-1.141,0.305-2.346,1.447-2.688
					c8.661-2.597,19.954-6.148,30.495-10.587c1.098-0.464,2.365,0.053,2.827,1.153c0.463,1.099-0.053,2.364-1.152,2.828
					c-10.729,4.518-22.165,8.113-30.929,10.742C91.488,81.189,91.279,81.219,91.074,81.219z"/>
			</g>
			<g>
				<path style="fill:#525D7D;" d="M77.145,29.725c-2.489,0-4.591-1.878-4.591-4.1c0-1.047,0.333-2.221,1.018-3.588
					c0.366-0.731,1.113-1.192,1.931-1.192c0.172,0,0.371-0.035,0.583-0.063c0.451-0.06,0.933-0.119,1.402-0.119
					c2.385,0,4.116,1.619,4.116,3.85c0,1.583-0.424,2.862-1.261,3.802C79.535,29.223,78.399,29.725,77.145,29.725z M76.908,25.35
					c0.089,0.038,0.189,0.068,0.261,0.056c-0.008-0.016,0.051-0.136,0.089-0.418c-0.087,0.006-0.174,0.016-0.261,0.025
					C76.954,25.15,76.926,25.261,76.908,25.35z"/>
			</g>
			<g>
				<path style="fill:#525D7D;" d="M25.154,83.967c-1.327,0-4.852,0-4.852-4.241c0-1.251,0-4.18,3.39-4.859c0.001,0,0.002,0,0.002,0
					c3.052-0.596,6.539,1.262,6.539,4.679C30.233,81.563,29.351,83.967,25.154,83.967z M24.62,79.638
					c0.136,0.007,0.311,0.011,0.534,0.011c0.365,0,0.605-0.018,0.76-0.038c0.001-0.02,0.001-0.042,0.001-0.065
					c0.001-0.24-0.672-0.54-1.278-0.461C24.628,79.213,24.621,79.39,24.62,79.638z"/>
			</g>
			<g>
				<path style="fill:#525D7D;" d="M133.662,87.02c-2.276,0-5.582-1.926-5.582-4.944c0-2.096,2.085-4.656,4.518-4.656h2.076
					c0.572,0,1.12,0.226,1.525,0.631c1.158,1.155,1.849,2.741,1.849,4.242C138.048,84.577,136.286,87.02,133.662,87.02z
					 M132.435,82.12c0.19,0.19,0.88,0.572,1.229,0.582c-0.055-0.024,0.066-0.263,0.066-0.408c0-0.146-0.046-0.344-0.142-0.555
					h-0.827C132.652,81.82,132.514,81.984,132.435,82.12z M132.381,82.238L132.381,82.238L132.381,82.238z"/>
			</g>
			<g>
				<path style="fill:#525D7D;" d="M107.686,204.235c-0.135,0-0.272-0.013-0.41-0.039c-1.171-0.225-1.938-1.356-1.713-2.527
					c0.455-2.368,0.687-4.755,0.687-7.096c0-11.587-4.387-18.088-8.258-23.824c-2.725-4.038-5.299-7.852-5.299-12.524
					c0-1.889,0.363-3.707,1.051-5.254c4.688-10.548,5.031-25.713,5.335-39.095c0.386-17.029,0.691-30.481,9.884-30.481
					c9.919,0,11.739,21.33,13.228,51.465c0.424,8.601,0.791,16.028,1.549,19.647c0.244,1.168-0.504,2.312-1.671,2.555
					c-1.167,0.257-2.311-0.503-2.555-1.67c-0.827-3.951-1.201-11.536-1.636-20.32c-0.759-15.372-2.34-47.359-8.914-47.359
					c-4.972,0-5.275,13.351-5.568,26.261c-0.312,13.787-0.667,29.412-5.706,40.751c-0.444,0.999-0.679,2.21-0.679,3.5
					c0,3.351,2.012,6.334,4.561,10.109c4.008,5.939,8.997,13.331,8.997,26.239c0,2.613-0.257,5.275-0.764,7.911
					C109.606,203.516,108.701,204.235,107.686,204.235z"/>
			</g>
			<g>
				<path style="fill:#525D7D;" d="M148.986,209.106c-6.802,0-13.798-0.756-20.564-1.487c-4.815-0.52-9.794-1.057-14.623-1.312
					c-1.191-0.063-2.105-1.08-2.042-2.27c0.063-1.191,1.059-2.111,2.27-2.042c4.947,0.26,9.986,0.805,14.859,1.331
					c6.653,0.718,13.532,1.462,20.101,1.462c24.649,0,25.607-1.697,25.607-45.391l0.001-1.931
					c0.004-8.885,0.008-16.558-0.886-21.623c-1.131-6.415-3.317-6.415-4.367-6.415c-5.736,0-7.507,5.746-9.383,13.865
					c-0.458,1.981-0.89,3.851-1.434,5.485c-0.309,0.929-1.201,1.525-2.182,1.472c-0.977-0.06-1.791-0.772-1.983-1.732
					c-0.403-2.011-0.472-4.501-0.546-7.136c-0.266-9.463-1.148-13.685-5.672-13.685c-0.502,0-1.277,0.108-2.201,1.047
					c-2.709,2.752-3.958,9.723-4.359,13.576c-0.001,0.029-0.001,0.059-0.003,0.087c-0.091,2.831-0.147,4.539-2.298,4.539
					c-1.192,0-2.168-1.105-2.168-2.297c0-0.437,0.044-1.295,0.152-2.412c0.053-1.66,0.104-4.343,0.104-8.369
					c0-7.647-3.772-7.647-5.383-7.647c-5.325,0-8.271,9.266-8.271,15.67c0,0.814,0.044,1.594,0.129,2.319
					c0.139,1.183-0.708,2.256-1.892,2.395c-1.186,0.15-2.257-0.707-2.397-1.892c-0.105-0.891-0.158-1.841-0.158-2.823
					c0-8.3,3.906-19.988,12.589-19.988c2.851,0,7.22,0.962,8.955,6.442c2.26-3.979,5.021-4.966,7.201-4.966
					c6.976,0,8.979,5.59,9.635,11.55c1.877-5.223,5.032-9.818,11.565-9.818c6.86,0,8.185,7.515,8.62,9.984
					c0.959,5.437,0.955,12.911,0.951,22.375l-0.001,1.928C178.911,203.476,177.803,209.106,148.986,209.106z"/>
			</g>
			<g>
				<path style="fill:#525D7D;" d="M134.756,195.93c-6.512,0-12.19-0.172-17.357-0.524c-1.19-0.08-2.088-1.11-2.007-2.301
					c0.081-1.188,1.114-2.104,2.301-2.006c5.069,0.344,10.65,0.513,17.063,0.513c5.734,0,11.593-0.132,17.258-0.259
					c7.574-0.17,15.417-0.343,23.095-0.214c1.193,0.021,2.142,1.004,2.122,2.195c-0.021,1.192-1.04,2.172-2.196,2.123
					c-7.607-0.131-15.391,0.043-22.925,0.212C146.422,195.798,140.538,195.93,134.756,195.93z"/>
			</g>
			<g>
				<path style="fill:#525D7D;" d="M110.796,175.167c-1.019,0-1.926-0.724-2.12-1.761c-0.512-2.725-1.151-5.517-1.77-8.219
					c-1.267-5.528-2.577-11.245-2.934-16.958c-0.075-1.191,0.83-2.215,2.02-2.29c1.176-0.066,2.215,0.829,2.29,2.02
					c0.335,5.361,1.605,10.904,2.834,16.263c0.628,2.742,1.278,5.578,1.805,8.387c0.22,1.172-0.552,2.3-1.724,2.52
					C111.062,175.156,110.927,175.167,110.796,175.167z"/>
			</g>
			<g>
				<path style="fill:#525D7D;" d="M82.253,126.376c-0.111,0-0.223-0.008-0.336-0.025c-17.881-2.794-34.197-15.427-40.6-31.437
					c-0.443-1.106,0.096-2.363,1.203-2.806c1.105-0.443,2.364,0.096,2.806,1.203c5.766,14.415,21.087,26.246,37.258,28.772
					c1.178,0.184,1.984,1.289,1.8,2.467C84.217,125.616,83.298,126.376,82.253,126.376z"/>
			</g>
			<g>
				<path style="fill:#525D7D;" d="M74.463,135.72c-0.473,0-0.949-0.155-1.347-0.474c-0.931-0.745-1.082-2.103-0.337-3.035
					c2.385-2.98,5.197-5.548,8.237-7.534c-2.118-2.9-3.442-6.91-4.025-12.159c-0.132-1.185,0.722-2.253,1.907-2.385
					c1.188-0.124,2.252,0.722,2.384,1.907c0.62,5.579,2.103,9.359,4.533,11.554c0.521,0.472,0.781,1.167,0.695,1.864
					c-0.085,0.699-0.505,1.31-1.124,1.642c-3.42,1.832-6.613,4.532-9.235,7.81C75.724,135.443,75.096,135.72,74.463,135.72z"/>
			</g>
		</g>
	</g>
</g>
<g id="Layer_1">
</g>
</svg>
