<?xml version="1.0" encoding="iso-8859-1"?>
<!-- Generator: Adobe Illustrator 21.0.2, SVG Export Plug-In . SVG Version: 6.00 Build 0)  -->
<svg version="1.1" xmlns="http://www.w3.org/2000/svg" xmlns:xlink="http://www.w3.org/1999/xlink" x="0px" y="0px"
	 viewBox="0 0 198.752 191.59" style="enable-background:new 0 0 198.752 191.59;" xml:space="preserve">
<g id="_x37_1">
	<g>
		<path style="fill:#E0DFE6;" d="M181.764,145.61c-1.165-10.388-2.023-21.077-5.124-31.096c-0.464-1.501-2.827-2.074-3.599-0.47
			c-1.12,2.325-1.938,4.711-2.525,7.137c-0.849-2.732-1.964-5.31-3.475-7.614c-1.178-1.796-3.905-1.978-5.042,0
			c-5.562,9.672-4.185,23.333-3.638,34.072c0.313,6.128,0.916,12.26,1.522,18.366c0.116,1.173,0.211,2.263,0.326,3.286
			c-9.963,0.216-19.945-0.765-29.903-1.198c-12.152-0.528-24.318-0.75-36.482-0.661c-24.446,0.181-50.319,1.426-73.249,10.403
			c-1.256,0.492-1.695,2.736,0,3.012c1.816,0.296,3.638,0.55,5.462,0.785c-1.181,0.387-2.328,0.832-3.416,1.371
			c-0.763,0.378-0.744,1.61,0,1.994c9.772,5.036,24.106,3.317,34.85,3.637c12.832,0.382,25.74,0.311,38.551,1.075
			c12.877,0.768,25.63,1.969,38.549,1.878c6.662-0.047,13.325-0.16,19.987-0.262c6.328-0.097,13.035,0.565,19.097-1.38
			c2.686-0.861,4.369-2.973,4.992-5.326c2.359-0.734,4.365-2.869,4.621-5.781C184.249,167.687,183.006,156.688,181.764,145.61z"/>
		<path style="fill:#E0DFE6;" d="M112.33,107.61c-0.497-1.804-1.781-2.732-3.413-3.413c-2.051-0.857-4.039-1.601-6.182-2.191
			c-2.048-0.564-3.282,1.588-2.53,3.292c0.938,2.126,2.005,4.082,3.194,6.078c1.762,2.961,5.97,3.196,8.057,0.494
			C112.398,110.649,112.747,109.123,112.33,107.61z"/>
		<path style="fill:#E0DFE6;" d="M164.217,103.579c-2.603-2.559-6.524-2.787-9.962-3.277c-2.052-0.292-3.862,1.564-2.761,3.591
			c1.515,2.786,3.208,6.721,6.217,8.117c2.455,1.139,5.19,0.862,6.925-1.383C166.243,108.548,166.138,105.467,164.217,103.579z"/>
		<path style="fill:#E0DFE6;" d="M52.627,137.034c-0.966-0.62-1.899-0.896-2.977-1.053c0.072-0.006,0.003-0.04-0.348-0.125
			c-0.018-0.011-0.037-0.021-0.055-0.032c-0.017-0.017-0.035-0.034-0.052-0.052c-0.227-0.398-0.519-0.813-0.823-1.118
			c-0.673-0.673-0.977-0.632-1.81-1.031c1.49,0.714-0.262-0.064-0.733-0.115c-3.435-0.369-4.824,3.718-4.876,6.455
			c-0.071,3.768,2.411,8.72,6.522,9.295c1.778,0.249,3.55,0.359,5.153-0.674c1.242-0.801,2.159-1.831,2.736-3.198
			C56.682,142.26,55.459,138.851,52.627,137.034z"/>
		<path style="fill:#E0DFE6;" d="M196.712,59.973c3.141-4.954-0.631-11.874-7.059-12.605c-8.425-0.959-17.079-7.329-25.632-7.208
			c-0.104-0.215-0.187-0.441-0.298-0.653c-0.739-1.408-2.137-1.782-3.427-1.464c-0.088-0.296-0.198-0.581-0.359-0.831
			c-0.872-1.352-2.807-2.473-4.448-1.81c-1.422,0.575-2.535,1.134-3.348,2.5c-0.456,0.766-0.821,1.637-1.066,2.497
			c-0.128,0.447-0.213,0.899-0.274,1.351c-4.636,1.117-8.421,4.689-11.971,8.338c-5.754,5.914-10.651,11.874-17.72,16.361
			c-7.136,4.529-14.787,8.394-22.268,12.314c-4.267,2.236-8.642,4.284-12.874,6.583c-4.295,2.332-9.13,6.516-13.901,2.495
			c-0.505-0.425-1.173-0.563-1.739-0.361c0.425-0.757,0.81-1.537,1.095-2.373c0.065-0.192,0.094-0.391,0.137-0.588
			c0.643,0.337,1.298,0.645,1.971,0.907c7.138,2.779,13.579-8.252,7.609-13.071c-3.574-2.885-8.013-4.601-11.863-7.166
			c-2.936-1.956-6.793-5.925-10.522-5.623c-1.581,0.128-2.578,0.951-3.143,2.393c-1.682,4.292,2.774,10.009,5.315,13.139
			c0.407,0.501,0.827,1.003,1.258,1.502c-0.41,0.128-0.822,0.275-1.235,0.456c-3.74,1.639-6.667,6.154-9.247,9.247
			c-2.815,3.374-4.969,7.01-6.067,11.282c-0.665,2.587,1.152,5.453,3.669,5.944c-0.046,0.19-0.1,0.377-0.133,0.573
			c-0.281,1.67,0.42,3.766,2.344,4.128c5.808,1.094,12.409-3.478,16.073-7.695c2.72-3.13,1.97-6.836-0.23-9.042
			c0.513-0.563,1.013-1.134,1.474-1.731c-1.305,4.531,3.207,8.442,7.736,9.649c-0.983,0.988-1.913,2.025-2.71,3.175
			c-0.319,0.46,0.119,0.981,0.586,1.022c8.062,0.704,15.907-3.373,22.945-6.804c8.512-4.15,16.89-8.526,25.194-13.074
			c7.03-3.851,18.376-8.012,26.787-14.099c0.993,2.608,3.249,4.772,7.375,6.114c5.276,1.716,11.563,0.748,16.958,0.061
			c6.513-0.83,13.322-1.177,19.635-3.017C199.356,71.036,200.167,63.728,196.712,59.973z"/>
		<path style="fill:#E0DFE6;" d="M96.009,35.769c-0.737-3.617-2.366-7.082-4.699-9.89c-5.541-6.667-13.575-6.917-21.554-5.441
			C50.558,23.991,35.128,37.108,16.459,41.63c-0.733,0.178-0.592,1.379,0.181,1.334c5.446-0.316,10.63-1.198,15.711-2.4
			c-0.975,0.726-1.865,1.514-2.612,2.395c-0.6,0.707-0.323,1.595,0.51,1.929c6.916,2.779,17.145-0.175,24.29-1.526
			c3.213-0.608,7.531-0.812,11.555-1.589c0.612,0.385,1.323,0.63,1.987,0.702c3.58,0.391,7.243-0.319,10.887,0.233
			c4.159,0.63,5.601,4.065,7.064,7.491c1.22,2.857,2.905,7.344,6.44,7.875c4.159,0.625,7.053-4.098,7.869-7.535
			C101.598,45.229,99.552,39.907,96.009,35.769z"/>
		<g>
			<g>
				<path style="fill:#525D7D;" d="M7.084,184.563c-0.519,0-1.023-0.187-1.418-0.531c-0.443-0.386-0.71-0.937-0.738-1.524
					c-0.259-5.387-0.377-10.849-0.492-16.132c-0.127-5.881-0.259-11.962-0.585-17.925c-0.032-0.594,0.181-1.175,0.592-1.606
					c0.409-0.431,0.978-0.616,1.574-0.671l1.853,0.004c15.25,0,30.855-0.734,45.947-1.445c15.103-0.71,30.72-1.446,45.991-1.446
					c1.192,0,2.159,0.966,2.159,2.159c0,1.193-0.967,2.159-2.159,2.159c-15.17,0-30.734,0.732-45.787,1.441
					c-15.008,0.706-30.522,1.437-45.742,1.45c0.247,5.289,0.363,10.615,0.475,15.787c0.097,4.52,0.198,9.172,0.386,13.777
					c16.685-1.399,33.665-1.731,50.111-2.052c8.66-0.169,17.617-0.344,26.36-0.673c1.213-0.042,2.196,0.885,2.239,2.076
					c0.045,1.192-0.884,2.194-2.076,2.239c-8.784,0.331-17.759,0.506-26.439,0.675c-17.111,0.334-34.804,0.679-52.058,2.231
					C7.214,184.561,7.149,184.563,7.084,184.563z"/>
			</g>
			<g>
				<path style="fill:#525D7D;" d="M102.617,182.657c-1.192,0-2.159-0.966-2.159-2.159s0.967-2.159,2.159-2.159
					c20.751,0,42.117-0.935,62.78-1.839l6.046-0.263c-1.91-12.772-2.33-25.801-2.738-38.427c-0.267-8.26-0.541-16.778-1.231-25.183
					c-14.312,0.171-28.772,0.612-42.778,1.039c-18.383,0.562-37.389,1.127-56.203,1.113c0.298,10.591,0.343,21.377,0.388,31.831
					c0.048,10.947,0.096,22.267,0.433,33.331c0.037,1.192-0.9,2.188-2.092,2.225c-1.157,0.034-2.189-0.9-2.224-2.092
					c-0.339-11.121-0.388-22.47-0.436-33.445c-0.048-11.161-0.097-22.702-0.453-33.947c-0.018-0.585,0.201-1.153,0.61-1.574
					c0.406-0.418,0.964-0.654,1.548-0.654c0.003,0,0.006,0,0.008,0c19.485,0.088,39.215-0.522,58.289-1.105
					c14.522-0.443,29.534-0.902,44.386-1.059c0.093-0.022,0.188-0.038,0.285-0.047c1.165-0.115,2.232,0.739,2.359,1.919
					c0.001,0.011,0.003,0.023,0.004,0.034l0,0c0.832,9.187,1.132,18.483,1.423,27.473c0.427,13.279,0.871,27.011,3.059,40.267
					c0.101,0.609-0.065,1.233-0.454,1.713c-0.389,0.479-0.966,0.769-1.583,0.796l-8.458,0.368
					C144.876,181.721,123.463,182.657,102.617,182.657z"/>
			</g>
			<g>
				<path style="fill:#525D7D;" d="M117.781,147.604c-1.192,0-2.159-0.966-2.159-2.159c0-1.193,0.967-2.159,2.159-2.159
					c12.475,0,25.213-1.242,37.532-2.444c5.077-0.496,10.327-1.008,15.5-1.427c1.177-0.095,2.231,0.789,2.326,1.977
					c0.097,1.189-0.788,2.231-1.978,2.327c-5.138,0.417-10.369,0.927-15.43,1.421C143.31,146.351,130.465,147.604,117.781,147.604z"
					/>
			</g>
			<g>
				<path style="fill:#525D7D;" d="M128.162,182.26c-1.081,0-2.016-0.811-2.142-1.912c-0.676-5.858-1.285-11.816-1.875-17.577
					c-0.576-5.639-1.174-11.468-1.83-17.188c-0.136-1.185,0.714-2.255,1.899-2.392c1.161-0.138,2.255,0.713,2.391,1.898
					c0.659,5.747,1.258,11.59,1.836,17.242c0.589,5.748,1.196,11.691,1.87,17.522c0.136,1.184-0.713,2.255-1.898,2.392
					C128.328,182.256,128.245,182.26,128.162,182.26z"/>
			</g>
			<g>
				<path style="fill:#525D7D;" d="M82.403,115.249c-0.122,0-0.245-0.01-0.368-0.031c-1.175-0.203-1.964-1.319-1.763-2.494
					c0.056-0.33,0.084-0.665,0.084-1.025c0-0.893-0.174-1.815-0.36-2.792c-0.214-1.129-0.434-2.296-0.434-3.595
					c0-0.51,0.037-1.015,0.107-1.501c0.148-1.01,0.984-1.779,2.002-1.842c3.556-0.222,7.157-0.241,10.641-0.26
					c2.629-0.015,5.346-0.03,7.993-0.132c0.576-0.012,1.2,0.212,1.628,0.649c0.426,0.436,0.648,1.033,0.61,1.642l-0.03,0.48
					c-0.073,1.154-0.142,2.243-0.142,3.341c0,1.467,0.127,2.697,0.398,3.869c0.268,1.162-0.457,2.321-1.618,2.59
					c-1.163,0.272-2.321-0.456-2.591-1.617c-0.346-1.5-0.508-3.038-0.508-4.842c0-0.581,0.017-1.158,0.042-1.726
					c-1.936,0.043-3.87,0.053-5.759,0.064c-2.766,0.015-5.607,0.03-8.407,0.148c0.065,0.623,0.186,1.263,0.312,1.928
					c0.214,1.129,0.434,2.296,0.434,3.595c0,0.609-0.048,1.183-0.146,1.756C84.347,114.507,83.434,115.249,82.403,115.249z"/>
			</g>
			<g>
				<path style="fill:#525D7D;" d="M135.387,113.612c-1.053,0-1.974-0.769-2.132-1.842c-0.462-3.115-0.715-6.379-0.772-9.979
					c-0.008-0.577,0.214-1.134,0.618-1.545c0.403-0.413,0.956-0.645,1.534-0.647c5.623-0.02,12.246-0.097,18.737-0.523
					c0.668-0.044,1.282,0.208,1.722,0.683c0.443,0.474,0.648,1.123,0.559,1.766c-0.134,0.966-0.198,1.872-0.198,2.768
					c0,1.607,0.212,3.206,0.651,4.887c0.299,1.153-0.392,2.333-1.546,2.633c-1.161,0.297-2.333-0.392-2.634-1.546
					c-0.53-2.041-0.788-3.996-0.788-5.974c0-0.253,0.004-0.506,0.013-0.76c-4.942,0.261-9.859,0.344-14.288,0.373
					c0.106,2.56,0.325,4.942,0.663,7.231c0.176,1.179-0.638,2.278-1.817,2.453C135.599,113.604,135.492,113.612,135.387,113.612z"/>
			</g>
			<g>
				<path style="fill:#525D7D;" d="M27.163,149.922c-1.068,0-1.996-0.792-2.138-1.88l-0.166-1.257
					c-0.381-2.898-0.742-5.635-0.897-8.535c-0.062-1.153,0.797-2.151,1.947-2.263c2.657-0.26,5.342-0.572,8.026-0.885
					c2.942-0.342,5.984-0.697,8.951-0.974c0.567-0.055,1.141,0.123,1.584,0.491c0.441,0.368,0.717,0.897,0.767,1.47
					c0.29,3.286,0.932,6.224,1.91,8.732c0.433,1.111-0.115,2.363-1.227,2.796c-1.106,0.432-2.361-0.116-2.796-1.226
					c-0.902-2.313-1.555-4.914-1.945-7.755c-2.248,0.232-4.525,0.497-6.746,0.756c-2.009,0.233-4.017,0.467-6.015,0.679
					c0.177,2.028,0.444,4.045,0.721,6.15l0.166,1.263c0.155,1.183-0.679,2.266-1.863,2.42
					C27.349,149.916,27.255,149.922,27.163,149.922z"/>
			</g>
			<g>
				<path style="fill:#525D7D;" d="M76.191,101.317c-5.191,0-8.545-3.728-8.545-9.499c0-7.02,6.02-11.277,12.393-15.782
					c8.314-5.878,17.738-12.54,17.738-26.965c0-14.248-11.483-20.652-14.446-20.652c-10.902,0-29.704,6.692-44.81,12.068
					c-12.403,4.414-22.199,7.9-27.165,7.9C4.564,48.387,0,45.115,0,40.244C0,31.882,56.907,0,89.145,0
					c15.882,0,28.031,2.813,39.778,5.534c11.081,2.566,21.547,4.989,34.563,4.989c9.124,0,18.395-0.89,27.362-1.752l0.519-0.05
					c1.183-0.124,2.242,0.756,2.356,1.943c0.114,1.187-0.756,2.242-1.943,2.356l-0.519,0.05c-9.068,0.871-18.443,1.772-27.775,1.772
					c-13.51,0-24.209-2.477-35.537-5.101c-11.511-2.666-23.415-5.422-38.804-5.422c-31.998,0-82.136,30.676-84.822,36.121
					c0.216,3.527,6.325,3.63,7.032,3.63c4.221,0,14.662-3.716,25.718-7.651C53.296,30.644,71.683,24.1,83.332,24.1
					c5.445,0,18.764,8.75,18.764,24.97c0,16.66-10.847,24.329-19.562,30.491c-5.905,4.174-10.569,7.472-10.569,12.256
					c0,2.364,0.734,5.181,4.227,5.181c4.539-0.744,54.034-28.513,56.564-30.485c7.855-7.358,16.05-15.031,26.281-19.429
					c1.101-0.473,2.366,0.036,2.837,1.131c0.471,1.095-0.035,2.365-1.13,2.836c-9.537,4.1-17.452,11.51-25.106,18.676
					c-1.38,1.292-19.287,11.328-28.567,16.414C79.376,101.317,77.144,101.317,76.191,101.317z"/>
			</g>
			<g>
				<path style="fill:#525D7D;" d="M161.63,65.108c-1.032,0-1.931-0.736-2.122-1.768c-2.253-12.244-2.378-24.817-2.499-36.977
					c-0.045-4.499-0.091-9.152-0.246-13.706c-0.041-1.192,0.893-2.191,2.085-2.231c1.202-0.026,2.19,0.893,2.231,2.085
					c0.156,4.606,0.203,9.284,0.247,13.809c0.114,11.327,0.229,23.019,2.092,34.303c1.638-0.148,3.279-0.298,4.924-0.449
					c9.231-0.846,18.776-1.722,27.979-2.09c0.028-0.001,0.058-0.001,0.087-0.001c1.153,0,2.11,0.911,2.156,2.073
					c0.048,1.191-0.88,2.196-2.072,2.244c-9.092,0.363-18.58,1.233-27.757,2.075c-2.311,0.212-4.618,0.424-6.913,0.627
					C161.758,65.105,161.693,65.108,161.63,65.108z"/>
			</g>
			<g>
				<path style="fill:#525D7D;" d="M83.465,67.921c-7.142,0-20.483-7.158-20.483-24.401c0-4.574,0.975-9.335,2.821-13.769
					c0.458-1.099,1.718-1.623,2.823-1.163c1.101,0.458,1.622,1.722,1.164,2.823c-1.629,3.912-2.489,8.099-2.489,12.109
					c0,14.018,10.704,20.083,16.165,20.083c4.667,0,5.645-2.324,6.431-4.19c0.153-0.365,0.291-0.685,0.426-0.942
					c0.552-1.059,1.857-1.468,2.912-0.917c1.057,0.551,1.468,1.855,0.917,2.913c-0.089,0.169-0.174,0.382-0.275,0.622
					C93.015,63.133,90.999,67.921,83.465,67.921z"/>
			</g>
			<g>
				<path style="fill:#525D7D;" d="M93.187,58.221c-4.372,0-13.952-3.953-13.952-15.697c0-5.554,1.85-11.453,3.4-15.425
					c0.434-1.11,1.685-1.661,2.797-1.225c1.11,0.434,1.659,1.685,1.226,2.796c-1.417,3.625-3.105,8.972-3.105,13.853
					c0,9.354,7.723,11.379,9.634,11.379c0.174,0,0.453-0.023,0.869-0.223c1.074-0.517,2.364-0.064,2.88,1.011
					c0.517,1.075,0.065,2.365-1.011,2.881C95.029,58.002,94.109,58.221,93.187,58.221z"/>
			</g>
			<g>
				<path style="fill:#525D7D;" d="M48.241,106.702c-0.447,0-0.895-0.138-1.278-0.419C31.96,95.268,18.272,83.818,4.405,72.078
					c-0.88-0.745-1.019-2.05-0.316-2.964c4.556-5.923,9.542-11.629,14.364-17.147c2.46-2.815,4.927-5.637,7.359-8.51
					c0.375-0.444,0.915-0.718,1.494-0.758c0.592-0.044,1.153,0.153,1.588,0.54c13.429,11.94,28.705,24.103,45.402,36.152
					c0.531,0.384,0.86,0.989,0.893,1.645c0.032,0.656-0.235,1.29-0.727,1.725c-5.784,5.109-11.544,10.665-17.115,16.039
					c-2.529,2.44-5.064,4.886-7.62,7.311C49.314,106.502,48.778,106.702,48.241,106.702z M8.778,70.121
					c12.815,10.84,25.525,21.423,39.288,31.61c2.104-2.007,4.196-4.025,6.283-6.039c4.962-4.787,10.074-9.718,15.244-14.376
					C54.301,70.189,40.218,58.972,27.677,47.927c-1.98,2.314-3.979,4.6-5.973,6.881C17.372,59.766,12.907,64.875,8.778,70.121z"/>
			</g>
			<g>
				<path style="fill:#525D7D;" d="M54.473,69.414c-0.399,0-0.804-0.11-1.164-0.342c-1.004-0.644-1.296-1.979-0.652-2.983
					c0.564-0.878,1.099-1.786,1.642-2.703c0.793-1.342,1.604-2.715,2.531-4.066c-2.71-1.61-5.18-3.564-7.583-5.467
					c-0.405-0.32-0.808-0.64-1.215-0.958c-2.44,1.447-4.953,2.903-7.495,3.948c-1.106,0.457-2.364-0.074-2.818-1.176
					c-0.453-1.103,0.073-2.364,1.177-2.818c2.473-1.017,4.949-2.489,7.572-4.048l0.626-0.372c0.76-0.451,1.716-0.394,2.418,0.145
					c0.811,0.623,1.614,1.257,2.415,1.892c3.012,2.384,5.859,4.635,9.073,6.204c0.592,0.29,1.021,0.834,1.161,1.479
					c0.142,0.644-0.02,1.318-0.437,1.829c-1.424,1.742-2.585,3.705-3.708,5.604c-0.569,0.963-1.133,1.915-1.723,2.837
					C55.88,69.063,55.182,69.414,54.473,69.414z"/>
			</g>
			<g>
				<path style="fill:#525D7D;" d="M13.553,111.06c-0.032,0-0.066-0.001-0.098-0.002c-1.192-0.053-2.114-1.063-2.059-2.254
					c0.368-8.208,3.431-16.532,8.624-23.436c0.717-0.955,2.073-1.144,3.024-0.428c0.953,0.716,1.144,2.07,0.429,3.023
					c-4.675,6.216-7.432,13.687-7.763,21.035C15.656,110.156,14.702,111.06,13.553,111.06z"/>
			</g>
			<g>
				<path style="fill:#525D7D;" d="M14.834,125.002c-0.7,0-1.362-0.34-1.768-0.921c-3.267-4.667-6.729-9.253-9.996-13.549
					c-0.51-0.671-0.583-1.579-0.186-2.323c0.396-0.744,1.165-1.18,2.034-1.139c4.024,0.243,8.052-0.253,11.965-0.729
					c1.622-0.198,3.237-0.395,4.848-0.543c0.775-0.073,1.538,0.284,1.981,0.931c0.441,0.647,0.499,1.482,0.15,2.183
					c-0.483,0.968-0.971,1.934-1.459,2.899c-1.951,3.864-3.968,7.86-5.566,11.838c-0.295,0.736-0.969,1.25-1.757,1.341
					C14.998,124.997,14.915,125.002,14.834,125.002z M9.151,111.407c1.729,2.294,3.483,4.652,5.214,7.049
					c1.215-2.687,2.54-5.335,3.849-7.928c-0.268,0.032-0.537,0.065-0.807,0.098C14.724,110.953,11.968,111.289,9.151,111.407z"/>
			</g>
		</g>
	</g>
</g>
<g id="Layer_1">
</g>
</svg>
