<?xml version="1.0" encoding="iso-8859-1"?>
<!-- Generator: Adobe Illustrator 21.0.2, SVG Export Plug-In . SVG Version: 6.00 Build 0)  -->
<svg version="1.1" xmlns="http://www.w3.org/2000/svg" xmlns:xlink="http://www.w3.org/1999/xlink" x="0px" y="0px"
	 viewBox="0 0 249.982 200.047" style="enable-background:new 0 0 249.982 200.047;" xml:space="preserve">
<g id="_x37_2">
	<g>
		<path style="fill:#E0DFE6;" d="M77.736,92.376c-0.995,2.32-1.424,4.442-1.995,6.866c-1.051,4.461-1.359,3.719-5.347,2.749
			c-4.772-1.161-9.652-0.1-12.083,4.499c-2.512,4.753-0.424,7.81,1.124,12.167c0.165,0.464,0.383,0.621,0.596,0.631
			c-0.204,0.235-0.444,0.528-0.748,0.929c-1.666,2.195-6.062,3.176-8.747,3.327c-5.383,0.304-9.973-2.728-12.42-7.384
			c-1.069-2.034-3.706-2.442-5.604-1.469c-4.027,2.064-7.748,3.712-9.204,8.126c-0.191,0.579,0.226,1.107,0.739,1.302
			c3.098,1.173,5.93,0.477,8.771-0.671c3.921,5.779,10.49,9.204,17.719,9.033c6.332-0.15,17.232-3.705,19.316-10.545
			c0.405-1.33,0.422-2.434,0.098-3.805c-0.346-1.469-2.233-3.051-2.348-4.259c-0.367-3.869,1.574-1.909,4.145-1.317
			c1.499,0.345,2.982,0.483,4.499,0.298c8.807-1.074,7.39-9.335,10.129-15.425C89.012,91.565,80.252,86.508,77.736,92.376z"/>
		<path style="fill:#E0DFE6;" d="M74.283,78.383c-2.367-4.561-3.672-9.265-5.268-14.118c-0.763-2.318-4.217-2.509-4.898,0
			c-1.585,5.847-0.851,12.293,0.781,18.074C66.885,89.374,77.795,85.151,74.283,78.383z"/>
		<path style="fill:#E0DFE6;" d="M51.945,91.814c-0.981-1.351-3.051-2.393-4.633-1.215c-2.324,1.732-3.617,4.174-5.786,5.979
			c-1.902,1.582-4.143,2.064-6.519,2.521c-1.235,0.237-1.827,1.886-1.18,2.902c2.588,4.065,8.488,4.469,12.601,2.528
			C50.936,102.402,55.533,96.758,51.945,91.814z"/>
		<path style="fill:#E0DFE6;" d="M44.863,76.283c-8.103-10.807-26.932,1.186-23.239,13.188c0.411,1.337,2.083,1.459,2.837,0.371
			c1.898-2.738,4.404-6.151,7.557-7.514c3.41-1.474,7.445-0.741,11.033-1.589C44.797,80.326,46.031,77.841,44.863,76.283z"/>
		<path style="fill:#E0DFE6;" d="M202.317,130.89c0.122,0.007,0.24,0.025,0.362,0.03c3.752,0.149,6.522-5.413,3.292-7.948
			c-2.37-1.86-4.676-3.044-7.487-4.102c-2.612-0.984-6.967-1.675-8.787-3.738c-1.82-2.062-2.36-5.99-3.541-8.513
			c-1.433-3.061-3.043-5.777-5.408-8.195c-1.639-1.676-3.974-0.256-4.215,1.746c-0.538,4.475,0.444,8.867,1.626,13.173
			c0.899,3.277,1.622,7.017,3.905,9.647c2.101,2.42,4.921,3.315,7.837,4.403c2.1,0.783,4.15,1.616,6.242,2.278
			c-1.814,0.628-3.399,2.068-4.396,3.979c-1.785,3.422-1.242,7.653-2.196,11.29c-1.016,3.877-2.052,4.46-5.534,5.791
			c-6.535,2.498-10.203,6.063-14.8,11.371c-0.096,0.111-0.195,0.226-0.293,0.338c-2.262,2.249-4.349,4.729-5.412,7.129
			c-1.303,2.249-2.194,4.647-2.171,7.162c0.007,0.702,0.623,1.047,1.25,0.952c0.273-0.041,0.543-0.101,0.812-0.163
			c0.161,0.679,0.334,1.361,0.507,2.042c-1.131,0.199-2.251,0.567-3.361,1.019c-2.483,0.646-5.35,1.455-7.436,1.237
			c-2.953-0.309-3.032-2.499-4.53-4.963c-3.955-6.506-9.738-7.408-16.842-8.275c-5.939-0.725-12.657-1.719-17.793,2.169
			c-1.943,1.471-2.867,3.339-4.328,5.202c-2.818,3.593-4.74,2.531-8.992,2.536c-1.438,0.002-2.222,1.544-1.584,2.76
			c0.47,0.896,1.049,1.734,1.709,2.498c-0.369-0.164-0.746-0.344-1.133-0.551c-1.345-0.72-2.674,0.978-1.624,2.105
			c4.584,4.921,12.159,7.247,18.519,4.187c1.096-0.527,3.014-2.575,4.094-2.964c4.741-1.707,6.106,0.641,8.549,3.68
			c2.905,3.614,5.589,7.816,10.333,8.991c2.425,0.601,4.855-0.131,6.605-1.616c0.576,0.201,1.169,0.368,1.775,0.513
			c-0.04,0.032-0.087,0.056-0.126,0.089c-0.627,0.512-0.1,1.584,0.648,1.565c8.616-0.21,20.139,2.894,24.779-7.031
			c2.29-4.897,1.206-10.31,0.689-15.436c-0.417-4.131,0.299-4.268,3.426-7.187c0.877-0.818,2.392-2.462,3.693-3.605
			c7.033,4.271,17.494,6.759,21.825-2.216c1.521-3.15,0.783-6.836-2.234-8.413C205.601,148.077,208.444,135.787,202.317,130.89z"/>
		<path style="fill:#E0DFE6;" d="M149.535,111.963c-0.676-2.302-2.705-4.827-5.231-5.231c-9.884-1.581-20.678,2.529-25.419,11.814
			c-2.189,4.288-2.671,9.678-0.964,14.216c1.036,2.754,4.528,6.9,7.673,4.194c2.2-1.893,2.424-5.087,3.593-7.597
			c1.215-2.608,2.707-5.412,5.285-6.88c2.67-1.52,4.952-0.984,7.841-1.036C147.218,121.355,150.922,116.688,149.535,111.963z"/>
		<path style="fill:#E0DFE6;" d="M171.478,132.959c-0.789-1.36-2.877-2.466-4.461-1.815c-5.742,2.358-7.79,7.366-11.385,12.037
			c-1.668,2.167-4.024,4.581-6.224,6.22c-2.334,1.739-5.1,1.925-7.585,3.28c-0.735,0.4-0.944,1.23-0.811,1.992
			c1.596,9.087,16.035,3.978,20.567,0.671C168.163,150.539,176.467,141.562,171.478,132.959z"/>
		<path style="fill:#E0DFE6;" d="M142.657,83.324c-2.141-3.359-5.464-4.295-8.893-5.922c-2.973-1.411-5.745-2.924-8.899-3.903
			c-2.717-0.844-4.892,2.319-3.585,4.663c1.7,3.048,4.01,5.415,6.49,7.846c3.001,2.942,5.558,5.542,9.921,5.97
			C142.039,92.404,144.858,86.777,142.657,83.324z"/>
		<path style="fill:#E0DFE6;" d="M98.408,145.415c-2.921-0.965-6.165-0.619-9.194-1.336c-2.868-0.679-5.561-1.822-8.49-2.175
			c-2.067-0.249-4.146,2.438-3.333,4.376c2.975,7.092,13.551,12.361,21.017,10.733C104.533,155.677,103.705,147.164,98.408,145.415z
			"/>
		<path style="fill:#E0DFE6;" d="M107.638,46.614c-0.14-3.633-1.22-8.888-5.436-9.865c-4.596-1.065-7.158,3.751-7.623,7.549
			c-0.371,3.024,0.977,7.581-1.253,10.168c-0.019,0.022-0.022,0.03-0.037,0.049c-0.058,0.006-0.141,0.024-0.265,0.063
			c-0.724,0.232-0.297,0.3-1.328,0.253c-0.925-0.042-1.739-0.534-2.585-0.868c-1.925-0.762-3.675,0.866-4.339,2.463
			c-2.978,7.16,7.321,11.416,12.732,9.617C105.409,63.414,107.924,54.067,107.638,46.614z"/>
		<path style="fill:#E0DFE6;" d="M248.214,25.07c-0.671-1.308-1.849-2.309-3.223-2.936c-0.955-4.084-3.107-7.603-6.677-9.166
			c-1.894-0.829-3.725-0.47-4.939,1.295c-1.918,2.789-2.237,6.398-2.862,9.632c-0.735,3.8-2.63,7.236-2.337,11.19
			c0.082,1.109,0.389,2.134,0.848,3.056c-1.049,3.997-1.837,8.081-2.918,11.625c-0.839,2.754-1.541,5.503-2.25,8.291
			c-0.076,0.298-0.142,0.558-0.201,0.795c-3.158-1.226-6.857-1.742-10.384-2.345c-5.512-7.186-17.516-7.66-25.765-9.535
			c-4.502-1.023-9.004-2.04-13.508-3.047c-3.859-1.757-7.906-3.368-11.651-3.606c0.723-0.904,1.288-2.042,1.618-3.446
			c1.03-4.387,1.533-9.095,2.02-13.574c0.421-3.875,0.933-7.448-0.848-11.057c-0.618-1.252-2.43-1.954-3.744-1.524
			c-7.798,2.551-12.419,14.21-13.982,21.591c-0.345,1.628-0.248,3.108,0.147,4.423c-0.736-0.662-1.409-1.474-2.017-2.501
			c-1.713-2.893-2.77-4.972-5.694-6.915c-7.086-4.708-15.749-8.571-24.234-9.473c-0.608-0.065-0.754,0.709-0.449,1.084
			c6.162,7.579,17.645,11.508,21.963,19.966c3.285,6.435,7.669,9.677,14.368,12.412c9.869,4.03,20.418,6.669,30.597,9.815
			c6.095,1.883,13.705,5.555,20.759,6.112c4.295,1.116,8.613,2.133,12.918,3.131c4.423,1.025,10.276,3.347,14.875,2.455
			c5.098-0.988,7.539-5.14,9.575-9.396c2.808-5.869,4.879-12.091,6.818-18.296C249.238,38.077,251.758,31.977,248.214,25.07z"/>
		<path style="fill:#E0DFE6;" d="M224.231,7.495c-0.202-0.548-0.44-1.084-0.766-1.59c-0.508-0.789-1.594-1.384-2.549-1.037
			c-1.126,0.408-2.067,1.018-2.907,1.74c-3.989-2.068-8.785,3.863-10.608,6.593c-2.941,4.406-4.894,9.303-5.796,14.467
			c-1.767-0.694-3.528-1.409-5.292-2.14c-2.396-0.992-5.297,0.276-7.057,1.865c-1.635,1.476-2.177,2.967-2.125,5.129
			c0.085,3.452,2.241,5.829,5.325,6.994c7.439,2.812,22.832,8.324,29.095,0.486c2.541-3.18,1.967-7.128,1.98-10.904
			c0.023-6.877,2.604-12.663,3.6-19.254C227.394,8.111,225.729,6.694,224.231,7.495z"/>
		<g>
			<g>
				<path style="fill:#525D7D;" d="M146.341,197.837c-0.806,0-1.555-0.451-1.926-1.184c-1.779-3.516-3.747-7.023-5.649-10.414
					c-1.608-2.866-3.265-5.819-4.826-8.808c-4.06-0.346-8.031-1.224-11.837-2.622l-1.317,1.184
					c-4.631,4.156-9.421,8.455-13.879,13.041c-0.692,0.708-1.777,0.856-2.632,0.363c-7.397-4.293-13.863-9.903-19.218-16.675
					c-0.628-0.796-0.619-1.921,0.022-2.706c5.493-6.718,10.109-11.71,13.209-15.004c-1.65-2.748-3.008-5.645-4.055-8.647
					c-5.658-0.661-12.564-1.595-21.289-3.331c-0.889-0.176-1.573-0.89-1.712-1.785c-0.568-3.642-0.827-7.351-0.772-11.024
					c0.061-4.17,0.531-8.355,1.399-12.437c0.238-1.12,1.308-1.861,2.438-1.685c3.486,0.533,7.219,0.791,11.413,0.791
					c2.959,0,5.909-0.128,8.535-0.274c1.773-5.001,4.467-9.743,7.876-13.861c-1.344-2.576-2.766-5.157-4.147-7.663
					c-1.886-3.423-3.835-6.962-5.613-10.531c-0.436-0.876-0.229-1.936,0.505-2.582c6.726-5.929,14.403-10.333,22.819-13.086
					c0.902-0.291,1.894,0.034,2.44,0.814l12.034,17.192c0.696-0.101,1.4-0.186,2.106-0.254c1.379-0.134,2.726-0.216,4.005-0.246
					c3.887-0.083,7.696,0.211,11.339,0.887c4.324-5.845,8.525-11.322,12.817-16.71c0.575-0.721,1.544-0.997,2.414-0.689
					c9.538,3.399,17.869,8.687,24.764,15.719c0.775,0.79,0.827,2.038,0.12,2.89c-2.527,3.045-5.143,6.079-7.673,9.013
					c-1.675,1.943-3.35,3.885-5.01,5.843c4.347,5.42,7.382,11.868,8.857,18.824c4.674,0.662,9.297,1.829,13.783,2.959
					c2.234,0.564,4.474,1.129,6.727,1.635c0.947,0.214,1.636,1.033,1.683,2.003c0.063,1.279,0.09,2.585,0.083,3.882
					c-0.05,9.28-1.936,18.154-5.606,26.374c-0.379,0.852-1.266,1.354-2.191,1.268c-2.792-0.287-5.598-0.613-8.404-0.939
					c-4.32-0.502-8.775-1.021-13.112-1.375c-3.015,4.276-6.747,7.973-11.119,11.016c0.552,6.563,1.548,13.112,2.513,19.457
					l0.204,1.344c0.145,0.957-0.365,1.895-1.247,2.291c-6.499,2.928-13.432,4.855-20.607,5.728
					C146.515,197.832,146.428,197.837,146.341,197.837z M121.644,170.162c0.271,0,0.543,0.051,0.803,0.155
					c4.135,1.66,8.502,2.633,12.979,2.893c0.763,0.044,1.447,0.489,1.796,1.169c1.684,3.285,3.527,6.571,5.31,9.748
					c1.68,2.997,3.411,6.081,5.035,9.211c5.668-0.817,11.161-2.336,16.371-4.529c-1.024-6.733-2.074-13.691-2.603-20.729
					c-0.059-0.783,0.311-1.536,0.968-1.966c4.707-3.089,8.637-6.983,11.679-11.571c0.433-0.651,1.192-1.013,1.96-0.96
					c4.812,0.36,9.75,0.935,14.527,1.49c2.259,0.263,4.518,0.526,6.77,0.766c3.018-7.266,4.569-15.064,4.613-23.204
					c0.004-0.673-0.003-1.349-0.019-2.023c-1.743-0.412-3.479-0.849-5.212-1.286c-5.076-1.28-9.871-2.489-14.798-3.06
					c-0.948-0.11-1.711-0.829-1.877-1.77c-1.308-7.406-4.543-14.228-9.354-19.724c-0.702-0.803-0.714-1.996-0.028-2.813
					c2.053-2.44,4.133-4.854,6.214-7.267c2.094-2.429,4.246-4.925,6.351-7.432c-5.793-5.537-12.608-9.824-20.299-12.77
					c-4.19,5.292-8.311,10.693-12.564,16.466c-0.504,0.683-1.361,1.006-2.191,0.831c-3.726-0.8-7.659-1.165-11.71-1.067
					c-1.173,0.027-2.413,0.102-3.687,0.226c-1.061,0.103-2.115,0.247-3.136,0.429c-0.83,0.15-1.666-0.198-2.148-0.887l-11.88-16.972
					c-6.75,2.406-12.972,5.971-18.535,10.621c1.532,2.991,3.175,5.975,4.773,8.874c1.626,2.953,3.308,6.006,4.872,9.065
					c0.405,0.79,0.283,1.749-0.306,2.414c-3.804,4.298-6.722,9.435-8.437,14.852c-0.27,0.853-1.037,1.451-1.929,1.504
					c-3.028,0.181-6.614,0.367-10.246,0.367c-3.608,0-6.905-0.184-10.011-0.561c-0.564,3.181-0.874,6.414-0.921,9.637
					c-0.044,2.931,0.127,5.885,0.507,8.805c8.569,1.654,15.306,2.515,20.808,3.14c0.848,0.096,1.56,0.683,1.815,1.497
					c1.147,3.645,2.797,7.135,4.904,10.374c0.544,0.836,0.444,1.936-0.24,2.661c-2.818,2.984-7.42,7.855-13.032,14.627
					c4.435,5.315,9.628,9.816,15.47,13.414c4.206-4.23,8.616-8.188,12.893-12.027l2.295-2.062
					C120.601,170.353,121.119,170.162,121.644,170.162z"/>
			</g>
			<g>
				<path style="fill:#525D7D;" d="M47.576,127.013c-0.766,0-1.487-0.409-1.876-1.091c-1.139-2-2.392-3.998-3.605-5.93
					c-0.95-1.514-1.926-3.07-2.864-4.651c-2.149-0.118-4.266-0.481-6.323-1.082l-0.368,0.358c-2.622,2.56-5.334,5.206-7.834,8.002
					c-0.656,0.732-1.727,0.929-2.6,0.479c-4.591-2.37-8.657-5.558-12.084-9.475c-0.672-0.767-0.715-1.9-0.103-2.717
					c2.828-3.77,5.27-6.68,7.014-8.707c-0.82-1.292-1.534-2.644-2.131-4.043c-3.281-0.238-7.253-0.603-12.219-1.348
					c-0.897-0.135-1.614-0.815-1.795-1.704c-0.443-2.172-0.703-4.394-0.772-6.605c-0.077-2.512,0.092-5.042,0.505-7.519
					c0.188-1.126,1.211-1.9,2.355-1.792c2.026,0.215,4.199,0.26,6.647,0.152c1.533-0.07,3.045-0.197,4.424-0.332
					c0.891-2.692,2.215-5.271,3.892-7.583c-0.766-1.293-1.557-2.575-2.347-3.857c-1.214-1.968-2.468-4.002-3.627-6.068
					c-0.481-0.857-0.322-1.933,0.389-2.614c3.91-3.747,8.436-6.605,13.454-8.491c0.888-0.332,1.885-0.049,2.465,0.697l7.259,9.349
					c0.249-0.042,0.499-0.081,0.751-0.117c0.806-0.115,1.615-0.205,2.429-0.26c2.168-0.15,4.307-0.098,6.373,0.149
					c2.317-3.411,4.566-6.608,6.852-9.74c0.542-0.742,1.49-1.063,2.37-0.793c5.865,1.777,11.054,4.723,15.423,8.756
					c0.818,0.756,0.928,2.01,0.253,2.896c-1.415,1.857-2.862,3.686-4.31,5.514c-0.786,0.992-1.572,1.985-2.352,2.983
					c2.43,2.9,4.234,6.313,5.294,10.018c2.624,0.285,5.213,0.808,7.731,1.317c1.328,0.268,2.658,0.537,3.996,0.772
					c0.957,0.169,1.684,0.954,1.776,1.922c0.074,0.77,0.126,1.548,0.157,2.329c0.225,5.579-0.674,10.965-2.671,16.009
					c-0.342,0.864-1.186,1.382-2.127,1.361c-1.664-0.093-3.338-0.209-5.012-0.325c-2.4-0.166-4.871-0.337-7.278-0.433
					c-1.585,2.366-3.532,4.461-5.805,6.256c0.499,3.641,1.227,7.271,1.933,10.795l0.156,0.779c0.191,0.952-0.278,1.914-1.147,2.352
					c-3.846,1.936-7.982,3.282-12.292,4.003C47.814,127.003,47.695,127.013,47.576,127.013z M32.328,109.648
					c0.237,0,0.474,0.039,0.706,0.118c2.405,0.832,4.924,1.269,7.486,1.299c0.763,0.008,1.464,0.42,1.846,1.081
					c1.077,1.868,2.252,3.74,3.388,5.551c0.971,1.548,1.969,3.137,2.926,4.757c2.816-0.58,5.54-1.46,8.13-2.626
					c-0.746-3.728-1.494-7.569-1.971-11.48c-0.096-0.783,0.243-1.555,0.883-2.016c2.605-1.869,4.745-4.175,6.361-6.85
					c0.401-0.665,1.13-1.092,1.909-1.042c2.875,0.082,5.824,0.285,8.674,0.482c1.122,0.077,2.245,0.156,3.364,0.226
					c1.395-4.057,2.012-8.351,1.832-12.79c-0.006-0.159-0.013-0.318-0.022-0.477c-0.817-0.157-1.633-0.322-2.448-0.486
					c-3.013-0.609-5.859-1.184-8.737-1.382c-0.952-0.065-1.748-0.748-1.958-1.678c-0.938-4.154-2.957-7.926-5.839-10.906
					c-0.746-0.77-0.812-1.972-0.157-2.821c1.152-1.491,2.32-2.967,3.489-4.443c1.013-1.28,2.027-2.56,3.028-3.85
					c-3.182-2.617-6.805-4.64-10.81-6.032c-2.188,3.028-4.355,6.137-6.598,9.464c-0.472,0.7-1.307,1.061-2.143,0.922
					c-2.16-0.357-4.433-0.457-6.758-0.299c-0.709,0.049-1.414,0.128-2.114,0.228c-0.599,0.086-1.192,0.193-1.776,0.325
					c-0.819,0.181-1.666-0.121-2.179-0.783l-7.077-9.114c-3.378,1.446-6.488,3.404-9.28,5.843c0.874,1.494,1.791,2.981,2.686,4.432
					c1.066,1.729,2.132,3.456,3.14,5.211c0.446,0.776,0.368,1.746-0.197,2.439c-2.057,2.53-3.587,5.511-4.426,8.622
					c-0.232,0.862-0.971,1.491-1.858,1.585c-1.788,0.188-3.912,0.395-6.107,0.495c-1.857,0.086-3.578,0.083-5.209-0.004
					c-0.169,1.566-0.229,3.146-0.18,4.717c0.045,1.467,0.185,2.939,0.417,4.394c4.788,0.67,8.58,0.974,11.699,1.181
					c0.85,0.058,1.588,0.609,1.882,1.409c0.751,2.035,1.782,3.968,3.068,5.745c0.588,0.812,0.539,1.923-0.119,2.681
					c-1.508,1.737-3.921,4.518-6.824,8.297c2.425,2.523,5.168,4.668,8.185,6.401c2.253-2.429,4.601-4.72,6.883-6.947l1.292-1.262
					C31.227,109.863,31.773,109.648,32.328,109.648z"/>
			</g>
			<g>
				<path style="fill:#525D7D;" d="M138.506,154.825c-0.219,0-0.439-0.003-0.658-0.01c-12.751-0.358-23.125-11.376-23.126-24.558
					c0-12.777,8.988-23.28,20.907-24.431c0.404-0.039,0.808-0.069,1.213-0.089c6.909-0.375,13.811,2.144,18.904,6.905
					c4.813,4.498,7.513,10.544,7.602,17.024c0.094,6.715-2.551,13.072-7.449,17.902
					C151.199,152.202,144.892,154.825,138.506,154.825z M138.185,110.019c-0.373,0-0.747,0.01-1.121,0.031
					c-0.345,0.017-0.679,0.041-1.014,0.075c-0.002,0-0.003,0-0.005,0c-9.694,0.935-17.005,9.591-17.005,20.133
					c0.001,10.867,8.492,19.947,18.929,20.243c5.467,0.156,10.871-2.037,14.898-6.008c4.052-3.995,6.241-9.239,6.163-14.766
					c-0.072-5.295-2.286-10.242-6.232-13.93C148.834,112.091,143.562,110.019,138.185,110.019z"/>
			</g>
			<g>
				<path style="fill:#525D7D;" d="M138.419,141.671c-0.096,0-0.19-0.001-0.287-0.004c-6.357-0.165-10.045-5.554-9.937-10.667
					c0.079-3.778,2.117-7.181,5.32-8.882l0,0c1.115-0.593,2.512-0.973,3.931-1.07c3.104-0.221,6.136,0.777,8.326,2.716
					c1.951,1.729,3.099,4.116,3.236,6.72c0.153,2.949-0.964,5.878-3.066,8.036C143.956,140.558,141.294,141.671,138.419,141.671z
					 M138.283,125.336c-0.179,0-0.36,0.007-0.54,0.018c-0.816,0.056-1.618,0.266-2.2,0.575l-0.001,0.001
					c-1.85,0.981-2.982,2.91-3.029,5.159c-0.062,2.962,1.926,6.162,5.732,6.262c2.229,0.034,3.754-0.973,4.605-1.846
					c1.246-1.279,1.936-3.073,1.846-4.797c-0.096-1.846-1.025-3.038-1.787-3.712C141.704,125.928,140.041,125.336,138.283,125.336z"
					/>
			</g>
			<g>
				<path style="fill:#525D7D;" d="M40.401,99.003c-0.097,0-0.193-0.001-0.29-0.004c-6.357-0.165-10.045-5.554-9.937-10.667
					c0.079-3.78,2.119-7.183,5.323-8.884c1.114-0.592,2.51-0.971,3.929-1.068c3.1-0.216,6.138,0.777,8.327,2.717
					c1.95,1.728,3.099,4.114,3.234,6.719c0.154,2.95-0.964,5.88-3.066,8.037C45.935,97.891,43.275,99.003,40.401,99.003z
					 M40.262,82.668c-0.179,0-0.36,0.007-0.54,0.018c-0.816,0.056-1.617,0.266-2.199,0.575l-0.001,0.001
					c-1.85,0.981-2.982,2.91-3.03,5.159c-0.062,2.962,1.926,6.162,5.733,6.262c2.29,0.035,3.754-0.971,4.604-1.844
					c1.246-1.279,1.936-3.073,1.846-4.799c-0.096-1.846-1.024-3.038-1.786-3.712C43.682,83.26,42.02,82.668,40.262,82.668z"/>
			</g>
			<g>
				<path style="fill:#525D7D;" d="M93.179,60.989c-5.419,0-13.29-6.129-13.29-15.733c0-7.817,4.649-16.312,8.75-23.809l0.37-0.676
					c0.387-0.707,1.146-1.115,1.943-1.123c0.807,0.018,1.536,0.485,1.891,1.21c1.124,2.297,2.465,4.556,3.884,6.945
					c3.653,6.152,7.429,12.513,7.429,19.758C104.157,56.837,98.643,60.989,93.179,60.989z M90.883,26.36
					c-3.387,6.293-6.675,13.071-6.675,18.896c0,6.969,5.891,11.415,8.971,11.415c3.22,0,6.659-2.394,6.659-9.11
					c0-6.06-3.314-11.641-6.824-17.552C92.304,28.81,91.58,27.591,90.883,26.36z"/>
			</g>
			<g>
				<path style="fill:#525D7D;" d="M142.756,28.641c-0.285,0-0.576-0.056-0.854-0.177L99.611,10.212
					c-0.538-0.232-0.958-0.672-1.165-1.219c-0.207-0.548-0.182-1.156,0.068-1.685c0.51-1.08,1.029-2.153,1.548-3.227
					c0.459-0.947,0.917-1.895,1.368-2.847c0.448-0.946,1.511-1.429,2.515-1.16l43.249,11.714c1.151,0.312,1.832,1.499,1.52,2.65
					c-0.312,1.15-1.496,1.829-2.648,1.519L104.552,4.713c-0.2,0.416-0.402,0.832-0.603,1.248c-0.189,0.392-0.379,0.783-0.568,1.175
					L143.612,24.5c1.095,0.472,1.6,1.743,1.127,2.838C144.387,28.153,143.591,28.641,142.756,28.641z"/>
			</g>
			<g>
				<path style="fill:#525D7D;" d="M158.875,42.859c-0.101,0-0.204-0.007-0.307-0.022c-2.525-0.361-4.759-0.755-6.829-1.203
					c-0.4-0.086-1.037-0.09-1.709-0.07c-0.261,0.006-0.521,0.013-0.779,0.013c-4.44,0-8.936-3.745-8.936-10.901
					c0-2.416,0.489-5.198,1.494-8.503c1.217-3.996,2.641-8.646,4.147-13.273l0,0c0.883-2.714,3.541-4.685,6.318-4.685
					c1.33,0,2.558,0.38,3.642,0.716c0.372,0.114,0.741,0.229,1.107,0.323c3.459,0.887,7.484,1.9,11.486,2.689
					c0.572,0.112,1.074,0.451,1.392,0.94c0.318,0.489,0.424,1.085,0.296,1.654c-2.177,9.633-4.873,20.771-9.344,31.027
					C160.507,42.359,159.724,42.859,158.875,42.859z M150.704,37.232c0.476,0,1.195,0.018,1.946,0.18
					c1.515,0.329,3.127,0.627,4.892,0.904c3.629-8.744,6.019-18.154,7.955-26.586c-3.366-0.722-6.652-1.552-9.546-2.294
					c-0.432-0.111-0.87-0.246-1.311-0.382c-0.868-0.268-1.688-0.521-2.366-0.521c-1.038,0-1.94,0.866-2.212,1.702l0,0
					c-1.494,4.592-2.911,9.219-4.121,13.195c-0.879,2.891-1.307,5.261-1.307,7.246c0,4.321,2.323,6.583,4.618,6.583
					c0.221,0,0.443-0.006,0.666-0.011C150.179,37.239,150.442,37.232,150.704,37.232z"/>
			</g>
			<g>
				<path style="fill:#525D7D;" d="M232.257,67.108c-0.108,0-0.218-0.008-0.328-0.025c-25.849-3.965-52.682-9.852-73.816-25.943
					c-0.949-0.722-1.132-2.077-0.41-3.025c0.721-0.949,2.076-1.134,3.026-0.411c19.94,15.181,45.479,20.988,70.271,24.864
					c5.488-11.499,13.861-29.369,13.861-37.723c0-4.289-7.881-19.448-32.907-19.448c-12.381,0-25.217,3.77-37.63,7.416
					c-2.085,0.611-4.154,1.22-6.205,1.805c-1.149,0.325-2.342-0.339-2.669-1.484c-0.327-1.146,0.337-2.34,1.484-2.668
					c2.04-0.582,4.099-1.186,6.173-1.796c12.706-3.732,25.845-7.59,38.847-7.59c28.061,0,37.225,17.674,37.225,23.766
					c0,8.943-7.397,25.175-14.974,41.033C233.842,66.638,233.079,67.108,232.257,67.108z"/>
			</g>
			<g>
				<path style="fill:#525D7D;" d="M214.455,39.886c-0.133,0-0.267-0.013-0.402-0.038c-8.216-1.55-16.707-3.878-27.531-7.548
					c-0.545-0.186-0.995-0.582-1.248-1.099c-0.252-0.519-0.287-1.116-0.096-1.66c2.946-8.397,5.497-17.219,7.749-25.003
					c0.331-1.144,1.521-1.804,2.674-1.475c1.145,0.332,1.805,1.529,1.474,2.675c-2.085,7.205-4.424,15.293-7.108,23.164
					c8.842,2.938,16.085,4.934,22.992,6.334c1.212-3.986,2.378-8.021,3.511-11.939c1.839-6.362,3.741-12.942,5.852-19.35
					c0.374-1.131,1.595-1.741,2.727-1.375c1.132,0.374,1.748,1.594,1.375,2.727c-2.087,6.331-3.977,12.871-5.805,19.197
					c-1.314,4.547-2.673,9.248-4.103,13.871C216.232,39.283,215.385,39.886,214.455,39.886z"/>
			</g>
		</g>
	</g>
</g>
<g id="Layer_1">
</g>
</svg>
