<?xml version="1.0" encoding="iso-8859-1"?>
<!-- Generator: Adobe Illustrator 21.0.2, SVG Export Plug-In . SVG Version: 6.00 Build 0)  -->
<svg version="1.1" xmlns="http://www.w3.org/2000/svg" xmlns:xlink="http://www.w3.org/1999/xlink" x="0px" y="0px"
	 viewBox="0 0 156.662 204.912" style="enable-background:new 0 0 156.662 204.912;" xml:space="preserve">
<g id="_x37_3">
	<g>
		<g>
			<g>
				<path style="fill:#E0DFE6;" d="M135.174,25.875c-8.43-15.191-24.143-18.657-40.301-19.402
					c-16.471-0.76-33.033,0.885-47.618,9.104c-3.784,2.132-3.567,7.082-1.193,9.825c-0.184,1.144-0.045,2.318,0.394,3.394
					c-2.881-0.942-4.567-2.571-3.812-5.256c1.439-5.116-5.258-9.149-9.001-5.239c-9.756,10.193-14.932,23.582-13.996,37.72
					c0.163,2.469,1.668,4.148,3.522,4.802c-0.929,1.443-1.892,2.87-2.927,4.267c-2.76,3.725,3.232,8.175,6.358,4.906
					c8.184-8.557,13.403-18.649,15.947-30.133c5.025,2.106,10.952,3.014,15.984,3.073c16.988,0.199,33.848-5.326,47.869-14.773
					c2.587-1.743,3.396-4.692,2.882-7.3c6.052,1.802,11.315,5.183,14.59,11.618C127.675,39.954,139.286,33.285,135.174,25.875z
					 M90.008,18.726c0.578,0.01,1.162,0.023,1.746,0.037c-5.865,1.67-11.791,3.059-17.748,3.627
					c3.158-1.157,6.395-2.155,9.746-2.966c0.609-0.148,1.13-0.401,1.609-0.697C86.907,18.697,88.457,18.698,90.008,18.726z"/>
			</g>
			<g>
				<path style="fill:#E0DFE6;" d="M140.467,102.483c1.577-0.589,2.846-1.989,3.198-3.618c1.472-4.092,2.059-8.419,1.925-12.765
					c-0.14-4.544-6.465-7.252-9.279-3.614c-0.171-2.232-0.425-4.468-0.71-6.696c-1.187-9.301-1.246-22.118-6.509-30.131
					c-0.472-0.719-1.455-1.271-2.336-0.951c-0.036,0.013-0.889,0.202-1.016,0.475c-1,2.157-0.633,5.486-0.851,7.845
					c-0.414,4.496-0.62,8.977-0.615,13.49c0.011,9.818,1.866,21.215-1.783,30.562c-5.441,13.939-21.71,20.094-28.275,33.606
					c-1.286,2.647,1.322,5.395,4.016,4.016c10.369-5.312,21.456-12.078,29.077-21.377c-5.25,8.641-11.927,15.841-20.421,22.173
					c-2.968,2.212-6.058,4.245-9.231,6.141c-0.588-0.525-1.291-0.937-2.106-1.171c-14.026-4.024-24.091,13.241-17.692,25.033
					c0.249,0.459,1.047,0.509,1.282,0c0.48-1.043,0.911-2.252,1.345-3.518c2.931,2.322,8.046,1.974,9.395-2.734
					c0.273-1.047,2.569-1.97,4.523-2.689c0.085,0.606,0.252,1.208,0.523,1.802c0.72,1.58,1.774,2.657,3.011,3.473
					c-1.253-0.061-2.585,0.443-3.489,1.635c-3.205,4.225-4.351,9.836-8.061,13.798c-1.965,2.099,1.036,5.086,3.149,3.149
					c4.387-4.022,10.072-7.992,11.664-14.101c0.34-1.305,0.072-2.367-0.526-3.132c1.061,0.397,2.174,0.73,3.3,1.065
					c4.919,1.465,9.403,4.002,12.655,8.09c3.466,4.356,3.33,9.952,6.471,14.219c2.428,3.3,8.665,4.737,10.748,0
					c4.03-9.165-2.543-19.999-9.459-26.172c-3.599-3.212-7.648-5.724-12.275-7.158c-1.592-0.494-6.296-0.389-7.456-1.333
					c-0.086-0.07-0.164-0.176-0.24-0.297c0.404-0.226,0.814-0.441,1.215-0.671c5.594-3.2,10.925-6.828,15.836-11.007
					c9.586-8.157,17.761-18.555,21.933-30.524C144.439,106.423,142.824,103.845,140.467,102.483z M133.993,102.247
					c0.258-0.641,0.491-1.285,0.704-1.931c0.266,0.472,0.606,0.898,1.008,1.259C135.097,101.688,134.528,101.93,133.993,102.247z"/>
			</g>
			<g>
				<path style="fill:#E0DFE6;" d="M24.616,99.757c-0.079-0.284-0.173-0.558-0.258-0.838c0.484-3.897-0.877-7.971-3.831-10.976
					c-3.117-3.171-10.277-1.058-9.627,3.987c0.213,1.65,0.464,3.296,0.835,4.911c-0.541,2.545,0.155,5.449,1.704,7.561
					c0.943,1.286,2.477,2.256,4.059,2.491c1.357,0.95,2.929,1.444,4.628,0.985C25.713,106.909,25.403,102.575,24.616,99.757z"/>
			</g>
			<g>
				<path style="fill:#E0DFE6;" d="M140.727,51.438c-0.037-2.17-3.336-2.174-3.373,0c-0.052,3.045-1.752,7.352,0.422,9.901
					c0.593,0.695,1.937,0.693,2.529,0C142.479,58.789,140.778,54.483,140.727,51.438z"/>
			</g>
			<g>
				<path style="fill:#E0DFE6;" d="M75.852,175.828c-1.242-1.245-3.664-1.755-5.192-0.67c-0.86,0.611-1.532,1.388-1.895,2.282
					c-0.902-0.72-2.218-0.989-3.129-0.29c-1.735,1.332-2.671,2.785-2.942,4.97c-0.244,1.966,0.078,4.262,1.312,5.872
					c1.458,1.902,3.372,2.493,5.613,1.472C73.927,187.502,80.457,180.442,75.852,175.828z"/>
			</g>
			<g>
				<path style="fill:#E0DFE6;" d="M72.795,190.824c-1.355-0.294-2.498-0.369-3.871-0.063c-1.213,0.271-2.219,0.804-3.279,1.429
					c-2.41,1.421-1.355,5.179,1.413,5.218c1.24,0.017,2.39-0.026,3.587-0.401c1.316-0.411,2.255-1.046,3.265-1.954
					C75.291,193.812,74.614,191.219,72.795,190.824z"/>
			</g>
			<g>
				<path style="fill:#E0DFE6;" d="M89.275,197.541c-0.849-2.546-2.018-4.903-2.565-7.57c-0.56-2.729-0.685-5.561-0.892-8.333
					c-0.141-1.895-2.563-3.3-4.031-1.67c-5.181,5.75-6.184,15.524-2.338,22.289C82.771,208.104,91.636,203.279,89.275,197.541z"/>
			</g>
			<g>
				<path style="fill:#E0DFE6;" d="M86.412,91.928c-2.77-6.008-4.93-10.71-5.093-17.386c-0.02-0.823-0.829-1.534-1.665-1.269
					c-5.809,1.843-6.152,8.608-5.415,13.833c1.129,8.01,3.603,19.651,9.139,25.714c3.167,3.468,8.812,0.64,8.926-3.697
					C92.464,103.064,88.906,97.337,86.412,91.928z"/>
			</g>
			<g>
				<path style="fill:#E0DFE6;" d="M64.474,67.145c-4.262-1.659-8.766-0.465-13.165,0.151c-3.526,0.494-8.033,0.519-10.59,3.244
					c-0.586,0.624-0.683,1.726,0,2.338c2.848,2.553,7.48,2.248,11.13,2.467c4.729,0.284,9.167,0.854,13.528-1.294
					C68.587,72.469,67.219,68.213,64.474,67.145z"/>
			</g>
			<g>
				<path style="fill:#E0DFE6;" d="M112.536,69.469c-3.393-0.83-6.842-1.434-10.239-2.26c-3.126-0.76-6.086-1.846-9.328-1.907
					c-1.391-0.026-2.639,1.759-1.719,2.995c4.146,5.566,12.033,9.204,18.431,11.531C116.137,82.176,119.32,71.128,112.536,69.469z"
					/>
			</g>
			<g>
				<path style="fill:#E0DFE6;" d="M90.37,133.977c-2.039,0.277-3.935,0.784-6.019,0.617c-1.933-0.155-2.339,2.954-0.457,3.38
					c2.663,0.602,5.465,0.733,7.88-0.667C93.702,136.189,92.289,133.716,90.37,133.977z"/>
			</g>
		</g>
		<g>
			<g>
				<path style="fill:#525D7D;" d="M83.322,183.157c-0.481,0-0.952-0.16-1.335-0.462l-2.259-1.789
					c-3.32-2.638-6.743-5.357-10.31-7.682c-2.052,1.314-4.147,2.597-6.183,3.846c-2.921,1.789-5.942,3.641-8.818,5.571
					c-0.606,0.406-1.375,0.481-2.047,0.194c-0.67-0.284-1.153-0.888-1.282-1.607c-1.254-6.989-2.631-13.861-3.812-19.662
					c-0.238-1.168,0.516-2.308,1.685-2.546c1.161-0.239,2.308,0.516,2.546,1.685c1.005,4.935,2.152,10.646,3.247,16.554
					c2.076-1.33,4.175-2.616,6.224-3.871c2.399-1.47,4.882-2.991,7.252-4.537c0.704-0.458,1.607-0.467,2.318-0.025
					c4.196,2.605,8.095,5.703,11.866,8.699l0.202,0.16c2.837-5.354,6.012-10.777,9.658-16.506c0.642-1.008,1.976-1.302,2.981-0.662
					c1.005,0.641,1.302,1.975,0.662,2.981c-4.105,6.446-7.596,12.493-10.676,18.487c-0.294,0.573-0.831,0.985-1.46,1.123
					C83.63,183.14,83.475,183.157,83.322,183.157z"/>
			</g>
			<g>
				<path style="fill:#525D7D;" d="M122.255,188.511c-0.669,0-1.328-0.309-1.75-0.893c-9.775-13.498-18.667-20.75-29.559-24.056
					c-14.783,9.443-23.9,9.083-35.287-1.424c-16.132,2.526-31.008,9.363-43.08,19.808c-0.901,0.782-2.267,0.68-3.045-0.219
					c-0.782-0.901-0.683-2.265,0.219-3.045c12.951-11.209,28.964-18.46,46.31-20.972c0.658-0.098,1.321,0.117,1.799,0.575
					c10.499,10.012,17.575,10.268,31.558,1.12c0.523-0.342,1.163-0.438,1.766-0.271c12.333,3.456,22.147,11.217,32.816,25.951
					c0.7,0.966,0.484,2.316-0.482,3.015C123.138,188.378,122.694,188.511,122.255,188.511z"/>
			</g>
			<g>
				<path style="fill:#525D7D;" d="M70.042,193.196c-7.061,0-8.986-5.689-10.532-10.258c-0.499-1.474-0.97-2.866-1.573-4.072
					c-0.533-1.067-0.101-2.363,0.966-2.897c1.068-0.531,2.364-0.1,2.897,0.966c0.735,1.472,1.278,3.071,1.801,4.619
					c1.583,4.678,2.662,7.325,6.442,7.325c4.977,0,5.69-2.641,6.597-10.815c0.133-1.185,1.203-2.034,2.385-1.907
					c1.185,0.132,2.038,1.199,1.907,2.385C80.13,185.746,79.303,193.196,70.042,193.196z"/>
			</g>
			<g>
				<path style="fill:#525D7D;" d="M58.32,202.981c-0.207,0-0.415-0.029-0.621-0.091c-1.143-0.343-1.791-1.546-1.448-2.688
					c0.662-2.207,1.718-4.238,2.738-6.202c0.97-1.868,1.888-3.632,2.433-5.45c0.342-1.144,1.555-1.785,2.688-1.448
					c1.143,0.343,1.791,1.546,1.448,2.688c-0.662,2.207-1.718,4.238-2.738,6.202c-0.97,1.868-1.888,3.632-2.433,5.45
					C60.106,202.378,59.248,202.981,58.32,202.981z"/>
			</g>
			<g>
				<path style="fill:#525D7D;" d="M80.87,203.58c-0.828,0-1.616-0.478-1.975-1.282c-0.769-1.733-1.289-3.627-1.792-5.457
					c-0.624-2.267-1.212-4.41-2.218-6.22c-0.579-1.043-0.202-2.357,0.839-2.936c1.039-0.576,2.356-0.204,2.936,0.839
					c1.257,2.265,1.943,4.76,2.606,7.173c0.482,1.754,0.938,3.412,1.576,4.847c0.484,1.091-0.007,2.366-1.096,2.851
					C81.461,203.521,81.163,203.58,80.87,203.58z"/>
			</g>
			<g>
				<path style="fill:#525D7D;" d="M55.996,160.476c-1.047,0-1.967-0.763-2.131-1.83c-3.188-20.715-9.058-25.03-14.734-29.203
					c-4.935-3.629-10.039-7.381-13.155-19.845c-0.29-1.157,0.415-2.329,1.57-2.619c1.168-0.287,2.331,0.415,2.619,1.57
					c2.738,10.956,6.81,13.948,11.525,17.415c6.086,4.475,12.985,9.547,16.443,32.025c0.181,1.179-0.627,2.281-1.805,2.463
					C56.216,160.467,56.106,160.476,55.996,160.476z"/>
			</g>
			<g>
				<path style="fill:#525D7D;" d="M90.055,164.362c-1.192,0-2.159-0.967-2.159-2.159c0-18.795,15.201-30.712,27.414-40.288
					c8.532-6.691,15.902-12.468,16.466-18.673c0.108-1.188,1.167-2.056,2.346-1.955c1.188,0.108,2.062,1.158,1.955,2.346
					c-0.732,8.061-8.782,14.373-18.103,21.681c-12.074,9.467-25.76,20.196-25.76,36.89
					C92.214,163.395,91.247,164.362,90.055,164.362z"/>
			</g>
			<g>
				<path style="fill:#525D7D;" d="M24.426,110.699c-15.549,0-18.954-18.533-18.954-25.675c0-11.999,6.346-14.565,15.875-14.728
					c1.123,0,2.042,0.808,2.179,1.889c0.298,2.371,0.572,4.752,0.848,7.138c1.092,9.502,2.224,19.329,5.01,28.551
					c0.195,0.647,0.077,1.348-0.321,1.895c-0.398,0.547-1.029,0.874-1.704,0.888l-0.503,0.01
					C26.055,110.683,25.241,110.699,24.426,110.699z M19.484,74.686C11.93,75.137,9.79,77.607,9.79,85.024
					c0,0.214,0.398,21.357,14.636,21.357c-2.293-8.75-3.333-17.793-4.342-26.565C19.886,78.103,19.689,76.392,19.484,74.686z"/>
			</g>
			<g>
				<path style="fill:#525D7D;" d="M8.046,103.664C1.479,103.664,0,94.698,0,91.556c0-3.659,1.909-6.183,5.377-7.108
					c1.155-0.306,2.336,0.378,2.643,1.529c0.308,1.153-0.378,2.336-1.529,2.643c-1.583,0.422-2.172,1.219-2.172,2.936
					c0,1.585,0.973,7.79,3.728,7.79c0.302,0,0.604-0.02,0.894-0.038c0.356-0.021,0.699-0.041,1.019-0.041
					c1.192,0,2.159,0.967,2.159,2.159c0,1.192-0.967,2.159-2.159,2.159c-0.238,0-0.492,0.017-0.755,0.034
					C8.827,103.642,8.438,103.664,8.046,103.664z"/>
			</g>
			<g>
				<path style="fill:#525D7D;" d="M139.099,105.208c-3.309,0-5.495,0-6.948-1.585c-1.532-1.671-1.334-3.941-0.901-8.916
					c0.332-3.795,0.832-9.532,0.832-17.908c0-1.663-0.008-3.327-0.017-4.99c-0.009-1.673-0.017-3.344-0.017-5.015
					c0-0.864,0.514-1.645,1.309-1.985c1.785-0.765,3.649-1.153,5.538-1.153c11.844,0,11.844,11.858,11.844,20.517
					C150.739,101.559,144.409,105.208,139.099,105.208z M135.347,100.68c0.578,0.209,2.474,0.209,3.752,0.209
					c6.051,0,7.322-9.09,7.322-16.717c0-12.565-1.688-16.199-7.526-16.199c-0.863,0-1.698,0.112-2.527,0.342
					c0.004,1.157,0.01,2.314,0.016,3.47c0.008,1.671,0.017,3.343,0.017,5.012c0,8.565-0.51,14.413-0.848,18.283
					C135.333,97.596,135.125,99.977,135.347,100.68z"/>
			</g>
			<g>
				<path style="fill:#525D7D;" d="M150.545,93.53c-0.148,0-0.288-0.001-0.422-0.004l-0.392-0.003c-1.192,0-2.212-0.967-2.212-2.159
					c0-1.192,0.914-2.159,2.106-2.159l0.554,0.004c0.604,0.008,1.286,0.016,1.467-0.162c0.117-0.115,0.699-0.849,0.699-3.977
					c0-2.616-1.085-4.445-3.223-5.433c-1.082-0.499-1.555-1.782-1.054-2.865c0.5-1.084,1.788-1.556,2.865-1.054
					c3.642,1.681,5.731,5.091,5.731,9.352c0,3.521-0.612,5.694-1.983,7.049C153.373,93.409,151.754,93.53,150.545,93.53z"/>
			</g>
			<g>
				<path style="fill:#525D7D;" d="M97.231,127.124c-2.288-0.001-4.443-0.9-6.071-2.529c-1.639-1.643-2.541-3.837-2.537-6.176
					c0.006-3.748,1.854-5.718,3.853-7.29c0.935-0.741,2.079-1.181,3.399-1.31c2.412-0.235,5.058,0.721,7.069,2.563
					c1.864,1.707,2.921,3.961,2.898,6.186C105.808,122.019,103.047,127.124,97.231,127.124z M96.618,114.102
					c-0.108,0-0.216,0.004-0.323,0.016c-0.483,0.046-0.866,0.18-1.14,0.398c-1.562,1.227-2.211,2.04-2.214,3.909
					c-0.001,1.186,0.451,2.294,1.276,3.119c0.811,0.814,1.881,1.262,3.012,1.262c3.182,0,4.282-2.939,4.294-4.28
					c0.01-1.001-0.535-2.079-1.496-2.959C99.02,114.645,97.742,114.102,96.618,114.102z"/>
			</g>
			<g>
				<path style="fill:#525D7D;" d="M104.139,119.282c-1.053,0-1.974-0.77-2.132-1.843c-0.176-1.179,0.64-2.277,1.819-2.451
					c10.637-1.576,19.33-9.515,25.716-16.253c0.821-0.866,2.189-0.9,3.052-0.083c0.866,0.819,0.902,2.187,0.083,3.052
					c-6.864,7.245-16.273,15.787-28.218,17.555C104.352,119.275,104.245,119.282,104.139,119.282z"/>
			</g>
			<g>
				<path style="fill:#525D7D;" d="M74.608,127.185c-6.344,0-11.383-3.118-13.154-8.136c-0.398-1.125,0.193-2.357,1.317-2.754
					c1.123-0.399,2.357,0.193,2.754,1.317c1.368,3.874,5.589,5.254,9.083,5.254c1.99,0,3.998-0.426,5.652-1.199
					c1.077-0.505,2.364-0.038,2.87,1.043c0.505,1.081,0.038,2.366-1.043,2.87C79.842,126.63,77.255,127.185,74.608,127.185z"/>
			</g>
			<g>
				<path style="fill:#525D7D;" d="M84.12,144.004c-1.064,0-2.132-0.062-3.174-0.186c-1.183-0.139-2.031-1.212-1.89-2.397
					c0.139-1.184,1.21-2.051,2.397-1.891c5.594,0.655,11.564-0.753,18.261-4.321c1.054-0.562,2.36-0.165,2.921,0.888
					c0.561,1.053,0.163,2.36-0.888,2.921C95.455,142.374,89.689,144.004,84.12,144.004z"/>
			</g>
			<g>
				<path style="fill:#525D7D;" d="M78.439,112.338c-1.099,0-2.272-0.169-3.393-0.489c-1.146-0.327-1.81-1.522-1.483-2.669
					c0.327-1.146,1.526-1.809,2.669-1.483c0.741,0.211,1.504,0.323,2.207,0.323c1.455,0,2.255-0.476,2.63-0.839
					c-3.551-5.274-9.021-14.741-9.021-22.989c0-1.906,0.268-3.721,0.529-5.476c0.249-1.683,0.483-3.272,0.483-4.879
					c0-0.399-0.014-0.803-0.049-1.209c-0.1-1.188,0.783-2.232,1.971-2.333c1.174-0.08,2.232,0.782,2.333,1.971
					c0.044,0.527,0.063,1.051,0.063,1.572c0,1.924-0.27,3.747-0.53,5.511c-0.249,1.674-0.482,3.255-0.482,4.844
					c0,5.409,3.161,13.117,8.673,21.146c0.34,0.498,0.61,0.89,0.61,1.57C85.648,109.52,82.892,112.338,78.439,112.338z"/>
			</g>
			<g>
				<path style="fill:#525D7D;" d="M54.187,87.807c-3.306,0-5.995-2.686-5.995-5.99c0-1.377,0.514-2.565,1.411-3.448
					c-2.927,0.471-5.939,2.063-8.334,4.459c-0.843,0.843-2.21,0.843-3.053,0c-0.843-0.843-0.843-2.21,0-3.053
					c3.674-3.674,8.594-5.868,13.158-5.868c5.767,0,8.691,2.354,8.691,6.996C60.066,85.994,57.029,87.807,54.187,87.807z
					 M54.155,81.029c-0.495,0-1.645,0.077-1.645,0.788c0,0.907,0.767,1.671,1.677,1.671c0.558,0,1.473,0,1.555-2.255
					c-0.284,0.022-0.571-0.011-0.856-0.107C54.696,81.064,54.437,81.029,54.155,81.029z"/>
			</g>
			<g>
				<path style="fill:#525D7D;" d="M102.884,87.228c-2.956,0-5.184-2.252-5.184-5.239c0-1.796,1.259-3.802,3.13-4.781
					c-0.17-0.015-0.34-0.022-0.51-0.022c-3.395,0-7.349,2.249-9.703,4.176c-0.925,0.754-2.283,0.618-3.039-0.304
					c-0.755-0.924-0.618-2.284,0.304-3.039c1.477-1.209,6.741-5.152,12.438-5.152c5.007,0,8.929,3.344,8.929,7.613
					C109.249,86.351,105.261,87.228,102.884,87.228z M103.236,80.925c-0.593,0-1.175,0.787-1.219,1.096
					c0.001,0.388,0.152,0.888,0.867,0.888c1.61,0,2.004-0.365,2.044-2.11c-0.408,0.191-0.879,0.259-1.351,0.162
					C103.458,80.938,103.344,80.925,103.236,80.925z"/>
			</g>
			<g>
				<path style="fill:#525D7D;" d="M38.537,72.593c-0.697,0-1.382-0.337-1.798-0.962c-0.662-0.992-0.394-2.333,0.599-2.994
					c5.94-3.96,12.904-4.79,17.7-4.79c1.192,0,2.159,0.967,2.159,2.159c0,1.192-0.967,2.159-2.159,2.159
					c-4.199,0-10.264,0.706-15.305,4.065C39.365,72.476,38.949,72.593,38.537,72.593z"/>
			</g>
			<g>
				<path style="fill:#525D7D;" d="M112.307,70.92c-0.552,0-1.105-0.211-1.526-0.633c-2.614-2.613-6.071-3.781-9.731-5.017
					c-0.835-0.283-1.664-0.562-2.475-0.859c-1.12-0.408-1.698-1.646-1.29-2.766s1.649-1.704,2.766-1.29
					c0.782,0.284,1.579,0.552,2.381,0.824c3.785,1.278,8.074,2.727,11.403,6.055c0.843,0.843,0.843,2.21,0,3.053
					C113.412,70.709,112.86,70.92,112.307,70.92z"/>
			</g>
			<g>
				<path style="fill:#525D7D;" d="M18.81,72.996c-1.126,0-2.076-0.874-2.152-2.016l-0.021-0.325
					c-0.306-4.596-0.654-9.807-0.654-14.974c0-29.534,14.77-39.473,21.509-39.473c0.707,0,1.414,0.068,2.104,0.162
					C51.667,0.469,86.122,0,90.097,0c29.185,0,45.923,16.942,45.923,46.483c0,1.222-0.011,2.443-0.022,3.666
					c-0.01,1.207-0.021,2.416-0.021,3.624c0,3.903,0.101,8.085,0.832,12.229c0.207,1.175-0.578,2.294-1.751,2.502
					c-1.164,0.212-2.294-0.576-2.502-1.751c-0.79-4.482-0.897-9.078-0.897-12.98c0-1.22,0.011-2.442,0.022-3.663
					c0.01-1.209,0.021-2.418,0.021-3.626c0-26.797-15.164-42.165-41.605-42.165c-29.544,0-43.892,9.796-47.713,15.583
					c-0.471,0.714-1.313,1.085-2.169,0.939c-0.919-0.159-1.888-0.313-2.723-0.313c-4.407,0-17.191,8.655-17.191,35.155
					c0,5.024,0.328,9.937,0.644,14.686l0.022,0.326c0.079,1.189-0.821,2.218-2.011,2.298C18.907,72.995,18.859,72.996,18.81,72.996z
					"/>
			</g>
			<g>
				<path style="fill:#525D7D;" d="M22.84,75.813c-0.775,0-1.524-0.418-1.91-1.151c-0.557-1.054-0.153-2.36,0.901-2.917
					c12.735-6.722,17.007-20.747,18.419-28.509c0.204-1.116,1.233-1.882,2.363-1.76c3.725,0.415,7.517,0.624,11.273,0.624
					c21.963,0,42.197-7.779,52.852-14.439c0.912-0.572,2.103-0.384,2.793,0.437c5.26,6.227,13.566,10.555,24.69,12.863
					c1.168,0.242,1.917,1.386,1.676,2.553c-0.245,1.168-1.399,1.915-2.553,1.676c-11.279-2.34-19.973-6.685-25.876-12.923
					c-11.478,6.733-31.731,14.152-53.581,14.152c-3.253,0-6.532-0.15-9.776-0.45c-2.957,13.77-10.105,24.233-20.264,29.594
					C23.525,75.733,23.18,75.813,22.84,75.813z"/>
			</g>
			<g>
				<path style="fill:#525D7D;" d="M145.547,68.596c-1.192,0-2.159-0.967-2.159-2.159c0-10.426-3.811-21.096-11.649-32.623
					c-0.67-0.987-0.415-2.329,0.571-3c0.988-0.668,2.329-0.416,3,0.571c8.341,12.267,12.396,23.733,12.396,35.052
					C147.706,67.629,146.739,68.596,145.547,68.596z"/>
			</g>
			<g>
				<path style="fill:#525D7D;" d="M9.073,77.316c-0.952,0-1.823-0.632-2.083-1.595c-1.122-4.149-1.69-8.455-1.69-12.8
					c0-13.391,5.333-25.074,14.631-32.048c0.957-0.713,2.308-0.521,3.024,0.432c0.715,0.954,0.521,2.308-0.432,3.024
					C14.322,40.478,9.619,50.901,9.619,62.92c0,3.964,0.519,7.891,1.541,11.672c0.311,1.151-0.37,2.336-1.521,2.648
					C9.45,77.292,9.26,77.316,9.073,77.316z"/>
			</g>
		</g>
	</g>
</g>
<g id="Layer_1">
</g>
</svg>
