<?xml version="1.0" encoding="iso-8859-1"?>
<!-- Generator: Adobe Illustrator 21.0.2, SVG Export Plug-In . SVG Version: 6.00 Build 0)  -->
<svg version="1.1" xmlns="http://www.w3.org/2000/svg" xmlns:xlink="http://www.w3.org/1999/xlink" x="0px" y="0px"
	 viewBox="0 0 222.648 176.536" style="enable-background:new 0 0 222.648 176.536;" xml:space="preserve">
<g id="_x37_4">
	<g>
		<g>
			<g>
				<path style="fill:#E0DFE6;" d="M199.605,35.002c-0.552,0.146-0.938,0.397-1.307,0.715c-0.048-0.116-0.095-0.232-0.143-0.349
					c-0.394-0.961-1.467-1.784-2.519-1.396c-0.143-1.132-0.594-2.285-1.459-3.432c-1.427-1.893-3.946-2.564-5.814-0.749
					c-3.038,2.95-6.224,5.674-9.763,8.013c-0.935,0.618-2.396,1.718-3.97,2.748c-0.746-1.725-1.413-2.848-2.653-4.379
					c-1.159-1.431-2.875-1.463-4.281-0.745c0.386-0.826,0.721-1.614,0.86-2.316c0.404-2.041-2.052-3.807-3.665-2.133
					c-0.414,0.429-0.814,0.882-1.205,1.344c-3.447-1-6.249,1.799-7.802,4.671c-1.615,2.985,0.768,5.817,3.758,5.734
					c0.124,0.519,0.315,1.02,0.598,1.491c-0.088,1.392,0.329,2.776,0.994,4.1c0.723,1.441,2.187,3.129,3.857,3.52
					c0.784,1.635,1.544,3.276,2.199,4.945c0.946,2.415,4.021,3.75,6.067,1.602c5.68-5.965,11.818-10.937,18.096-16.218
					c0.928-0.781,1.769-1.65,2.455-2.581c0.597-0.078,1.223-0.125,1.859-0.161c0.349,0.828,1.456,1.358,2.296,0.535
					c0.548-0.537,1.096-1.075,1.644-1.612c0.621-0.609,1.081-1.074,1.309-1.934C201.241,35.564,200.454,34.777,199.605,35.002z"/>
			</g>
			<g>
				<path style="fill:#E0DFE6;" d="M75.277,148.891c-0.89-2.312-3.099-4.803-5.908-4.498c-8.641,0.939-3.47,9.236-8.062,13.774
					c-6.383,6.307-14.33,4.119-22.117,3.193c-2.069-0.246-3.395,2.5-2.359,4.112C47.397,181.922,83.046,169.074,75.277,148.891z"/>
			</g>
			<g>
				<path style="fill:#E0DFE6;" d="M173.342,146.55c-8.092-4.841-9.466,5.944-11.861,10.615c-4.843,9.446-15.844,8.078-22.93,2.095
					c-0.753-0.636-2.096-0.892-2.815,0c-7.686,9.539,9.494,16.804,16.686,17.239c13.387,0.81,23.204-11.794,24.243-24.157
					C176.86,150.027,175.245,147.688,173.342,146.55z"/>
			</g>
			<g>
				<path style="fill:#E0DFE6;" d="M157.32,145.154c-0.914-1.418-2.603-2.193-4.274-1.739c-1.86,0.505-3.349,2.135-4.132,3.849
					c-0.74,1.62-1.033,3.136-0.441,4.867c0.502,1.469,2.272,2.017,3.44,0.908c0.026-0.025,0.446-0.376,0.313-0.285
					c0.184-0.135,0.371-0.265,0.553-0.405c0.24-0.185,0.454-0.381,0.663-0.6c0.047-0.05,0.07-0.077,0.095-0.107
					c0.025-0.015,0.038-0.02,0.071-0.042c0.374-0.234,0.759-0.443,1.15-0.647c0.044-0.023,0.12-0.069,0.2-0.118
					c0.263-0.111,0.527-0.223,0.79-0.334c0.33-0.249,0.657-0.503,0.98-0.762C157.975,148.746,158.152,146.444,157.32,145.154z"/>
			</g>
			<g>
				<path style="fill:#E0DFE6;" d="M50.891,142.545c-1.889-0.998-5.019-0.673-5.991,1.571c-0.223,0.514-0.456,1.01-0.761,1.481
					c-0.022,0.034-0.027,0.044-0.044,0.072c-0.174,0.176-0.334,0.364-0.516,0.534c-0.55,0.514-1.054,1.099-1.454,1.742
					c-1.093,1.757-0.506,4.13,1.189,5.231c3.511,2.281,7.686-1.589,9.147-4.639C53.449,146.473,53.098,143.711,50.891,142.545z"/>
			</g>
			<g>
				<path style="fill:#E0DFE6;" d="M24.687,19.495c-2.4-4.351-8.337-2.842-9.854,1.288c-1.107,3.015-5.595,0.992-7.028-0.345
					c-0.436-0.407-1.04-0.193-1.24,0.327c-1.569,4.079,1.095,7.985,4.961,9.646c1.802,0.774,3.677,0.874,5.458,0.487
					c0.574,1.58,1.333,3.047,2.557,4.202c1.544,1.456,3.785,1.399,5.344,0C29.329,31.109,27.171,23.998,24.687,19.495z"/>
			</g>
			<g>
				<path style="fill:#E0DFE6;" d="M218.352,36.724c-0.27-0.392-0.987-0.526-1.223,0c-0.271,0.602-0.5,1.215-0.709,1.835
					c-0.384-0.667-0.82-1.324-1.379-1.956c-1.554-1.754-5.005-1.388-6.04,0.778c-2.689,5.628-3.651,11.613-6.863,17.157
					c-3.2,5.524-7.069,11.184-13.006,14.024c-12.266,5.867-28.787,0.997-39.373-6.07c-0.417-0.278-1.127,0.082-1.066,0.612
					c0.154,1.324,0.463,2.557,0.883,3.722c-1.328-1.34-2.643-2.736-3.956-4.173c-0.322-0.352-0.961-0.175-1.071,0.283
					c-1.804,7.482,0.639,13.492,5.242,18.045c-2.245-0.548-4.64-0.829-7.074-0.985c-0.103-0.566-0.204-1.14-0.309-1.691
					c-0.214-1.116-1.968-1.072-2.212,0c-0.116,0.509-0.241,1.036-0.363,1.556c-3.787-0.107-7.58-0.011-11.006-0.147
					c-4.525-0.179-9.053-0.313-13.582-0.393c-0.036-1.738-0.066-3.466-0.071-5.168c-0.013-4.575,1.147-12.802-0.526-18.559
					c7.727-0.564,15.446-1.24,23.158-2.033c4.191-0.431,4.236-7.048,0-6.612c-16.269,1.674-32.586,2.897-48.927,3.6
					c-15.354,0.661-31.43-0.328-46.582,2.468c-1.217,0.224-1.164,2.145,0,2.407c11.461,2.581,23.734,2.474,35.689,2.032
					c-0.602,7.238-0.152,14.63,0.109,21.834c0.008,0.221,0.012,0.447,0.019,0.669c-0.378,0.02-0.757,0.034-1.136,0.055
					c-8.318,0.463-17.589,0.556-25.429,3.566c-0.789,0.303-1,1.614,0,1.822c7.782,1.614,16.129,0.65,24.029,0.422
					c0.89-0.026,1.78-0.048,2.67-0.072c0.12,6.841,0.24,13.902,1.52,20.403c0.319,1.619,2.334,2.675,3.858,2.191
					c1.763-0.56,1.959-1.377,2.303-3.024c0.472-2.266-0.519-5.792-0.655-8.204c-0.18-3.2-0.36-6.399-0.54-9.599
					c-0.036-0.636-0.066-1.284-0.099-1.925c5.853-0.132,11.706-0.217,17.565-0.188c2.027,0.01,4.053,0.05,6.079,0.073
					c-0.383,7.316-0.744,14.739,0.264,21.842c0.408,2.878,5.231,2.789,5.725,0c1.238-6.986,1.252-14.413,1.108-21.747
					c4.017,0.083,8.033,0.196,12.048,0.358c3.425,0.138,7.096,0.599,10.789,0.948c-1.098,5.056-1.965,10.27-1.714,15.073
					c0.193,3.699,5.602,4.702,6.626,0.897c1.299-4.826,1.256-10.284,0.679-15.582c3.261,0.111,6.451-0.041,9.414-0.768
					c0.97-0.238,1.453-0.872,1.581-1.594c2.553,1.599,5.399,2.915,8.359,3.945c-0.022,0.078-0.059,0.143-0.078,0.223
					c-1.903,7.982-2.615,18.858-10.125,23.927c-4.531,3.059-10.572,3.251-15.848,3.773c-6.086,0.602-12.196,0.955-18.308,1.16
					c-11.777,0.395-23.55,0.098-35.327,0.234c-11.628,0.134-25.665,1.021-32.683-10.404c-0.369-0.6-1.307-0.35-1.32,0.358
					c-0.23,12.185,11.095,18.13,21.891,19.81c15.847,2.465,32.867,1.884,48.851,1.309c12.672-0.455,30.134,0.48,40.597-7.942
					c8.706-7.007,12.05-19.233,13.189-29.967c3.59,0.421,7.034,0.43,10.017,0.027c9.871-1.334,19.555-5.678,26.366-13.091
					C222.421,69.589,226.613,48.721,218.352,36.724z M108.659,76.97c-0.02,0.755-0.055,1.518-0.085,2.278
					c-2.124-0.01-4.248-0.008-6.372,0.011c-5.952,0.054-11.909,0.182-17.86,0.414c-0.369-7.477-0.864-15.095-2.351-22.373
					c2.316-0.095,4.616-0.192,6.889-0.276c6.931-0.254,13.853-0.635,20.769-1.094C108.72,62.84,108.842,70.212,108.659,76.97z"/>
			</g>
		</g>
		<g>
			<g>
				<path style="fill:#525D7D;" d="M111.676,121.16c-6.093,0-10.715-0.352-15.61-0.725c-6.244-0.476-13.323-1.015-25.36-1.015
					c-25.226,0-32.551-31.069-39.635-61.114C25.619,35.181,19.981,11.269,6.394,4.475c-1.066-0.533-1.498-1.83-0.966-2.897
					c0.535-1.065,1.833-1.496,2.897-0.966C23.72,8.31,29.333,32.114,35.274,57.315c6.699,28.41,13.625,57.787,35.432,57.787
					c12.202,0,19.367,0.545,25.688,1.027c5.02,0.382,9.354,0.713,15.282,0.713c43.094,0,44.579-6.958,47.537-20.822
					c1.002-4.692,2.137-10.01,4.809-16.084c0.481-1.091,1.757-1.586,2.846-1.107c1.091,0.48,1.587,1.754,1.107,2.846
					c-2.494,5.669-3.58,10.757-4.538,15.246C159.849,113.729,156.38,121.16,111.676,121.16z"/>
			</g>
			<g>
				<path style="fill:#525D7D;" d="M12.386,23.74C6.23,23.74,0,19.509,0,11.421C0,6.908,2.16,2.775,5.778,0.363
					C6.77-0.299,8.11-0.03,8.772,0.962c0.661,0.992,0.394,2.333-0.599,2.994c-2.378,1.585-3.855,4.445-3.855,7.465
					c0,6.316,5.071,8.002,8.068,8.002c2.321,0,4.807-1.867,4.807-4.647c0-0.796-0.205-1.61-0.61-2.419
					c-0.533-1.067-0.101-2.364,0.966-2.897c1.067-0.533,2.363-0.1,2.897,0.966c0.707,1.414,1.065,2.878,1.065,4.35
					C21.51,19.635,17.332,23.74,12.386,23.74z"/>
			</g>
			<g>
				<path style="fill:#525D7D;" d="M13.458,16.007c-3.092,0-6.379-1.834-6.379-5.233c0-2.362,1.326-4.435,3.546-5.546
					c1.067-0.532,2.363-0.1,2.897,0.966c0.533,1.067,0.1,2.364-0.966,2.897c-0.433,0.216-1.159,0.722-1.159,1.683
					c0,0.403,0.97,0.915,2.061,0.915c1.086,0,2.324-0.382,3.604-0.809c1.135-0.377,2.354,0.236,2.731,1.366
					c0.377,1.132-0.235,2.355-1.366,2.731C16.797,15.52,15.191,16.007,13.458,16.007z"/>
			</g>
			<g>
				<path style="fill:#525D7D;" d="M30.36,51.518c-1.099,0-2.039-0.836-2.146-1.953c-0.114-1.187,0.756-2.241,1.943-2.355
					c6.998-0.671,14.261-1.359,21.454-1.058l86.611-2.12c1.202-0.063,2.182,0.914,2.211,2.106c0.03,1.192-0.914,2.182-2.106,2.211
					l-86.683,2.122c-0.05,0.002-0.097,0.001-0.146-0.001c-6.947-0.299-14.048,0.38-20.929,1.039
					C30.498,51.516,30.428,51.518,30.36,51.518z"/>
			</g>
			<g>
				<path style="fill:#525D7D;" d="M94.251,110.833c-36.503,0-38.167-2.688-48.331-32.385c-2.039-5.956-4.575-13.368-7.886-22.058
					c-0.424-1.115,0.135-2.362,1.249-2.787c1.115-0.427,2.361,0.135,2.787,1.249c3.337,8.76,5.887,16.21,7.936,22.197
					c5.149,15.046,7.734,22.598,13.956,26.056c6.45,3.585,17.519,3.513,39.559,3.372c4.795-0.031,10.1-0.065,15.985-0.065
					c27.482,0,28.203-2.021,32.899-15.17c1.423-3.984,3.194-8.943,6.083-15.01c0.513-1.077,1.8-1.534,2.878-1.021
					c1.077,0.513,1.534,1.801,1.021,2.878c-2.795,5.869-4.525,10.713-5.916,14.606c-5.315,14.885-7.469,18.036-36.965,18.036
					c-5.874,0-11.171,0.035-15.957,0.065C100.22,110.816,97.126,110.833,94.251,110.833z"/>
			</g>
			<g>
				<path style="fill:#525D7D;" d="M48.243,167.828c-0.205,0-0.411-0.003-0.619-0.009c-9.39-0.287-16.555-7.043-17.038-16.065
					c-0.271-5.074,1.648-10.197,5.268-14.058c3.376-3.601,7.82-5.613,12.512-5.665c0.453-0.007,0.902,0.008,1.356,0.041
					c5.854,0.41,10.845,3.026,14.054,7.364c2.099,2.837,3.095,7.07,3.152,10.007c0.087,4.454-2.117,9.454-5.752,13.049
					C58.689,164.951,54.451,167.828,48.243,167.828z M48.549,136.349c-0.046,0-0.091,0-0.136,0.001
					c-3.504,0.039-6.846,1.566-9.409,4.3c-2.777,2.962-4.312,7.027-4.105,10.874c0.408,7.619,6.777,11.794,12.857,11.979
					c4.99,0.144,8.415-2.134,10.383-4.08c2.78-2.749,4.535-6.633,4.471-9.894c-0.036-1.819-0.679-5.322-2.307-7.523
					c-3.134-4.238-7.648-5.398-10.884-5.625C49.126,136.358,48.837,136.349,48.549,136.349z"/>
			</g>
			<g>
				<path style="fill:#525D7D;" d="M48.995,159.347c-2.719,0-5.3-0.974-7.201-2.742c-1.927-1.792-2.971-4.248-2.938-6.915
					c0.05-4.024,2.399-7.386,5.985-8.567c1.457-0.479,2.853-0.709,4.157-0.673c4.887,0.118,9.156,4.172,9.32,8.853
					c0.179,5.109-3.569,9.597-8.354,10.003C49.64,159.333,49.317,159.346,48.995,159.347z M48.747,144.765
					c-0.77,0-1.628,0.154-2.555,0.46c-2.196,0.723-2.998,2.886-3.018,4.518c-0.022,1.837,0.836,3.026,1.561,3.7
					c1.235,1.149,3.011,1.718,4.863,1.56c2.486-0.211,4.502-2.752,4.404-5.549c-0.082-2.348-2.566-4.626-5.112-4.687
					C48.844,144.765,48.796,144.765,48.747,144.765z"/>
			</g>
			<g>
				<path style="fill:#525D7D;" d="M152.088,167.828c-0.204,0-0.41-0.003-0.618-0.009c-9.389-0.287-16.555-7.042-17.039-16.064
					c-0.271-5.074,1.649-10.199,5.268-14.059c3.376-3.6,7.82-5.612,12.512-5.664c0.453-0.005,0.904,0.008,1.358,0.041
					c5.854,0.411,10.844,3.026,14.052,7.364c2.099,2.839,3.095,7.072,3.151,10.007c0.087,4.453-2.117,9.453-5.752,13.048
					C162.534,164.951,158.297,167.828,152.088,167.828z M152.394,136.349c-0.045,0-0.091,0-0.136,0.001
					c-3.504,0.039-6.845,1.565-9.409,4.299c-2.777,2.962-4.312,7.027-4.106,10.875c0.408,7.619,6.777,11.794,12.858,11.979
					c4.993,0.144,8.414-2.134,10.383-4.08c2.78-2.749,4.535-6.633,4.471-9.894c-0.035-1.818-0.678-5.321-2.307-7.523
					c-3.134-4.238-7.649-5.398-10.885-5.625C152.972,136.358,152.683,136.349,152.394,136.349z"/>
			</g>
			<g>
				<path style="fill:#525D7D;" d="M152.842,159.347c-2.719,0-5.3-0.974-7.201-2.742c-1.927-1.792-2.971-4.248-2.938-6.915
					c0.05-4.024,2.399-7.386,5.985-8.567c1.457-0.48,2.871-0.701,4.157-0.673c4.887,0.118,9.156,4.172,9.32,8.853
					c0.179,5.109-3.569,9.597-8.354,10.003C153.486,159.333,153.163,159.346,152.842,159.347z M152.594,144.765
					c-0.771,0-1.629,0.154-2.555,0.46c-2.196,0.723-2.999,2.886-3.019,4.518c-0.023,1.837,0.836,3.026,1.561,3.7
					c1.235,1.149,3.014,1.718,4.863,1.56c2.485-0.211,4.502-2.753,4.405-5.55c-0.082-2.347-2.566-4.625-5.112-4.686
					C152.69,144.765,152.642,144.765,152.594,144.765z"/>
			</g>
			<g>
				<path style="fill:#525D7D;" d="M51.209,136.242c-0.118,0-0.237-0.009-0.358-0.03c-1.177-0.196-1.971-1.309-1.775-2.484
					c1.072-6.435,2.62-13.916,5.968-20.611c0.534-1.066,1.832-1.497,2.897-0.966c1.066,0.533,1.498,1.83,0.966,2.897
					c-3.092,6.183-4.552,13.271-5.571,19.389C53.16,135.494,52.245,136.242,51.209,136.242z"/>
			</g>
			<g>
				<path style="fill:#525D7D;" d="M65.99,146.321c-0.634,0-1.236-0.253-1.695-0.712c-0.843-0.843-0.843-2.21,0-3.053
					c0.286-0.287,0.633-0.476,1-0.568c0.464-0.352,1.278-0.664,2.094-0.456l69.55-1.147c1.242,0.007,2.175,0.931,2.195,2.123
					c0.02,1.193-0.931,2.175-2.123,2.195l-69.589,1.147C67.072,146.098,66.601,146.321,65.99,146.321z"/>
			</g>
			<g>
				<path style="fill:#525D7D;" d="M91.651,155.232c-3.868,0-7.788-0.049-11.652-0.145c-1.192-0.03-2.134-1.02-2.105-2.212
					c0.029-1.192,0.956-2.159,2.212-2.105c15.464,0.384,31.126-0.01,46.323-1.148c1.188-0.09,2.225,0.801,2.314,1.991
					c0.089,1.189-0.802,2.226-1.991,2.314C115.211,154.793,103.401,155.232,91.651,155.232z"/>
			</g>
			<g>
				<path style="fill:#525D7D;" d="M176.225,81.675c-0.235,0-0.47-0.002-0.706-0.006c-22.508-0.387-39.981-18.577-39.778-41.411
					c0.193-22.495,18.349-40.002,41.4-40.002c0.119,0,0.237,0.001,0.356,0.001c5.655,0.044,11.096,1.167,16.174,3.336
					c2.793,1.192,5.294,2.553,7.871,4.283c9.849,6.609,16.315,19.2,16.473,32.075c0.141,11.1-4.142,21.555-12.059,29.435
					C198.086,77.22,187.286,81.675,176.225,81.675z M177.143,4.575c-20.65,0-36.912,15.633-37.084,35.721
					c-0.181,20.434,15.427,36.711,35.534,37.056c10.159,0.2,20.103-3.844,27.315-11.025c7.082-7.05,10.913-16.398,10.788-26.322
					c-0.138-11.321-5.989-22.791-14.561-28.543c-2.347-1.576-4.622-2.814-7.16-3.896c-4.55-1.944-9.432-2.949-14.512-2.989
					C177.356,4.575,177.249,4.575,177.143,4.575z"/>
			</g>
			<g>
				<path style="fill:#525D7D;" d="M169.31,64.503c-0.096,0-0.193-0.006-0.29-0.02c-0.607-0.082-1.15-0.418-1.495-0.924
					c-2.599-3.816-5.064-7.777-7.448-11.608c-2.781-4.468-5.657-9.087-8.719-13.43c-0.675-0.959-0.462-2.281,0.48-2.979
					c2.507-1.856,5.119-3.601,7.646-5.289c1.559-1.042,3.121-2.084,4.668-3.16c0.479-0.332,1.07-0.457,1.64-0.347
					c0.571,0.11,1.073,0.446,1.394,0.931c0.797,1.207,1.569,2.439,2.342,3.671c1.443,2.302,2.824,4.504,4.348,6.539
					c4.998-4.198,10.244-8.409,15.979-12.825c0.915-0.704,2.222-0.564,2.967,0.318c1.059,1.252,2.099,2.524,3.138,3.795
					c1.657,2.025,3.371,4.12,5.121,6.082c0.393,0.44,0.588,1.021,0.541,1.609c-0.047,0.588-0.333,1.131-0.79,1.503
					c-6.725,5.469-13.391,11.222-19.837,16.788c-3.421,2.952-6.842,5.905-10.288,8.832C170.315,64.323,169.819,64.503,169.31,64.503
					z M156.104,37.784c2.675,3.91,5.194,7.956,7.64,11.885c1.944,3.123,3.943,6.334,6.011,9.461
					c2.817-2.404,5.619-4.823,8.421-7.242c5.918-5.109,12.021-10.376,18.204-15.454c-1.286-1.503-2.538-3.032-3.76-4.525
					c-0.589-0.72-1.178-1.44-1.77-2.156c-5.691,4.416-10.902,8.638-15.884,12.868c-0.439,0.372-1.007,0.549-1.579,0.505
					c-0.573-0.049-1.103-0.323-1.472-0.764c-2.277-2.715-4.192-5.767-6.043-8.72c-0.364-0.581-0.728-1.162-1.096-1.74
					c-0.962,0.652-1.927,1.297-2.891,1.941C159.972,35.12,158.01,36.43,156.104,37.784z"/>
			</g>
			<g>
				<path style="fill:#525D7D;" d="M78.894,109.3c-1.115,0-2.06-0.857-2.15-1.987c-1.534-19.166-3.873-38.275-6.136-56.757
					l4.279-0.582l-2.143,0.262l2.15-0.205c2.268,18.525,4.613,37.681,6.154,56.937c0.096,1.188-0.791,2.229-1.98,2.324
					C79.01,109.298,78.952,109.3,78.894,109.3z"/>
			</g>
			<g>
				<path style="fill:#525D7D;" d="M107.36,108.011c-1.193,0-2.159-0.966-2.159-2.159c0-4.917-0.024-9.801-0.049-14.667
					c-0.024-4.84-0.048-9.664-0.048-14.487c0-11.71,0.149-20.727,0.482-29.238c0.046-1.193,1.062-2.104,2.242-2.073
					c1.192,0.047,2.12,1.051,2.073,2.242c-0.332,8.453-0.479,17.418-0.479,29.069c0,4.816,0.024,9.633,0.048,14.466
					c0.025,4.873,0.049,9.764,0.049,14.688C109.519,107.045,108.552,108.011,107.36,108.011z"/>
			</g>
			<g>
				<path style="fill:#525D7D;" d="M135.055,107.395c-0.092,0-0.186-0.006-0.279-0.018c-1.183-0.152-2.018-1.235-1.865-2.418
					c1.525-11.821,1.915-23.89,2.291-35.563c0.037-1.192,1.022-2.132,2.227-2.088c1.192,0.038,2.127,1.035,2.088,2.227
					c-0.38,11.774-0.772,23.949-2.324,35.976C137.053,106.601,136.124,107.395,135.055,107.395z"/>
			</g>
			<g>
				<path style="fill:#525D7D;" d="M50.437,83.164c-1.188,0-2.154-0.962-2.159-2.151c-0.005-1.193,0.959-2.163,2.151-2.167
					l99.615-0.384c1.197,0,2.163,0.961,2.168,2.151c0.005,1.193-0.959,2.163-2.151,2.168C150.061,82.78,50.445,83.164,50.437,83.164
					z"/>
			</g>
		</g>
	</g>
</g>
<g id="Layer_1">
</g>
</svg>
