<?xml version="1.0" encoding="iso-8859-1"?>
<!-- Generator: Adobe Illustrator 21.0.2, SVG Export Plug-In . SVG Version: 6.00 Build 0)  -->
<svg version="1.1" xmlns="http://www.w3.org/2000/svg" xmlns:xlink="http://www.w3.org/1999/xlink" x="0px" y="0px"
	 viewBox="0 0 200.476 185.803" style="enable-background:new 0 0 200.476 185.803;" xml:space="preserve">
<g id="_x37_5">
	<g>
		<g>
			<g>
				<path style="fill:#E0DFE6;" d="M193.445,93.804c-2.569-19.368-13.471-38.851-29.456-50.106
					c-1.038-0.731-1.992,0.641-1.569,1.569c6.77,14.887,16.527,28.193,19.31,44.666c0.992,5.87,1.201,11.856,0.361,17.72
					c-0.413,0.307-0.775,0.725-1.044,1.288c-1.95,4.088-2.688,8.535-3.735,12.91c-2.102,3.645-4.598,7.067-6.592,10.849
					c-0.694,1.317-0.384,2.994,0.604,3.985c-1.566,2.708-3.328,5.301-5.264,7.72c-8.36,10.45-20.063,18.369-33.063,21.684
					c-12.931,3.297-26.859,1.864-39.346-2.54c-14.09-4.969-24.371-14.2-35.674-23.506c-0.426-0.35-1.228-0.037-1.015,0.591
					c10.004,29.533,49.98,42.474,77.889,36.038c15.204-3.506,29.038-12.56,38.89-24.585c4.571-5.58,9.932-13.631,13.044-22.018
					C193.856,120.411,194.755,103.679,193.445,93.804z"/>
			</g>
			<g>
				<path style="fill:#E0DFE6;" d="M158.495,122.026c-3.917,1.833-7.537,4.47-11.324,6.593c-3.71,2.079-6.292,3.586-10.455,1.846
					c-2.176-0.91-4.906,1.389-4.74,3.611c1.276,17.059,27.553,3.213,33.551-2.936C170.336,126.209,164.292,119.313,158.495,122.026z
					"/>
			</g>
			<g>
				<path style="fill:#E0DFE6;" d="M102.069,115.837c-0.845-0.855-2.126-1.184-3.282-0.868c-4.92,1.349-6.474,8.335-9.69,11.916
					c-4.31,4.798-10.25,8.097-15.343,11.994c-1.351,1.033-0.569,2.979,1.144,2.713c7.832-1.215,15.038-3.704,21.276-8.756
					C100.466,129.36,107.283,121.115,102.069,115.837z"/>
			</g>
			<g>
				<path style="fill:#E0DFE6;" d="M128.496,116.218c-2.364,1.185-3.879,3.193-5.855,4.874c-2.015,1.713-4.47,2.93-6.973,3.76
					c-2.028,0.673-9.638,0.288-9.502,3.763c0.22,5.633,10.748,5.118,14.442,4.295c6.459-1.441,13.642-5.968,14.338-12.991
					C135.29,116.44,131.116,114.905,128.496,116.218z"/>
			</g>
			<g>
				<path style="fill:#E0DFE6;" d="M91.986,78.585c-3.343-0.817-6.253,0.375-9.366,1.545c-2.596,0.976-5.675,1.701-7.928,3.371
					c-4.361,3.234-4.362,10.779-3.109,15.522c0.678,2.566,4.261,2.385,5.024,0c0.743-2.325,1.091-4.75,1.758-7.101
					c0.66-2.327,1.683-2.192,3.944-2.969c4.185-1.44,8.662-2.369,11.432-6.056C94.879,81.381,93.668,78.997,91.986,78.585z"/>
			</g>
			<g>
				<path style="fill:#E0DFE6;" d="M121.542,76.076c-9.252-4.057-16.442,4.62-19.703,12.506c-3.512,8.495-2.74,18.521,3.514,25.503
					c0.651,0.727,2.01,0.166,1.958-0.811c-0.329-6.208-0.251-12.275,1.742-18.246c2.255-6.758,6.543-10.473,12.489-14
					C123.229,80.028,123.589,76.974,121.542,76.076z"/>
			</g>
			<g>
				<path style="fill:#E0DFE6;" d="M84.209,38.548c-3.509-0.43-6.074,1.206-9.113,2.81c-3.96,2.09-7.984,3.887-12.301,5.117
					c-5.884,1.675-11.857,2.214-17.835,2.979c4.028-4.901,7.312-10.694,11.073-15.612c5.04-6.589,12.257-12.614,16.141-19.887
					c2.128-3.985-2.223-8.753-6.323-6.323c-7.502,4.445-13.198,13.543-18.01,20.68c-4.201,6.23-8.833,13.253-10.635,20.732
					c-1.079-0.264-2.283-0.164-3.274,0.288c-0.794,0.299-1.527,0.707-2.199,1.227c-2.526,1.648-3.493,5.549-1.002,7.778
					c4.599,4.115,8.466,10.517,5.017,16.619c-3.726,6.591-11.269,4.666-15.165-0.544c-0.544-0.727-1.853-0.778-2.096,0.274
					c-2.728,11.809,13.546,15.614,21.221,9.979c10.494-7.704,8.518-21.599,0.977-30.373c7.5,3.664,16.764,3.514,24.731,1.69
					c7.103-1.627,20.19-5.498,21.493-13.888C87.213,40.136,86.158,38.787,84.209,38.548z"/>
			</g>
			<g>
				<path style="fill:#E0DFE6;" d="M28.18,43.391c-3.016-1.491-5.946-0.543-9.136-0.864c-3.374-0.34-5.945-1.967-8.942-3.331
					c-1.084-0.493-2.231,0.314-1.982,1.524c1.57,7.636,16.062,14.564,21.137,6.779C30.099,46.207,29.584,44.085,28.18,43.391z"/>
			</g>
		</g>
		<g>
			<g>
				<path style="fill:#525D7D;" d="M113.092,169.772c-19.67,0-38.004-7.586-51.708-21.418
					c-13.834-13.964-21.228-32.607-20.82-52.494c0.342-16.611,6.223-31.783,17.01-43.875c0.791-0.888,2.159-0.97,3.047-0.174
					c0.891,0.794,0.969,2.158,0.174,3.048C50.704,66.172,45.201,80.38,44.882,95.948c-0.385,18.708,6.566,36.24,19.571,49.367
					c13.071,13.193,30.589,20.307,49.449,20.134c17.788-0.194,34.358-7.472,46.656-20.493
					c13.123-13.894,20.139-32.935,19.247-52.239c-0.385-8.343-2.336-16.191-5.798-23.329c-10.06-20.739-30.93-34.499-55.828-36.807
					c-2.229-0.207-4.506-0.313-6.775-0.287c-3.496,0.027-7.03,0.325-10.502,0.884c-1.174,0.192-2.286-0.611-2.474-1.788
					c-0.19-1.177,0.61-2.286,1.788-2.475c3.687-0.595,7.44-0.91,11.155-0.939c2.44-0.017,4.835,0.086,7.207,0.306
					c26.415,2.449,48.589,17.112,59.314,39.221c3.719,7.667,5.814,16.083,6.226,25.014c0.946,20.469-6.498,40.663-20.421,55.404
					c-13.11,13.88-30.776,21.638-49.747,21.846C113.664,169.77,113.377,169.772,113.092,169.772z"/>
			</g>
			<g>
				<path style="fill:#525D7D;" d="M115.553,185.803c-1.167,0-2.127-0.931-2.158-2.104c-0.03-1.192,0.912-2.183,2.104-2.213
					c1.872-0.048,3.756-0.159,5.596-0.332c1.16-0.109,2.239,0.761,2.35,1.948c0.111,1.188-0.76,2.24-1.948,2.352
					C119.56,185.635,117.58,185.752,115.553,185.803z M102.632,185.199c-0.086,0-0.173-0.005-0.26-0.016
					c-1.948-0.233-3.909-0.534-5.828-0.893c-1.172-0.219-1.945-1.347-1.726-2.52c0.219-1.173,1.358-1.94,2.519-1.725
					c1.827,0.342,3.694,0.628,5.549,0.85c1.184,0.142,2.028,1.217,1.886,2.401C104.642,184.394,103.711,185.199,102.632,185.199z
					 M134.04,183.262c-0.964,0-1.841-0.649-2.09-1.626c-0.295-1.155,0.402-2.33,1.557-2.626c1.805-0.46,3.614-0.99,5.375-1.575
					c1.129-0.38,2.355,0.237,2.73,1.368c0.375,1.132-0.237,2.354-1.369,2.729c-1.858,0.617-3.764,1.177-5.667,1.662
					C134.395,183.24,134.217,183.262,134.04,183.262z M84.435,181.014c-0.235,0-0.474-0.039-0.707-0.12
					c-1.851-0.641-3.704-1.354-5.506-2.116c-1.099-0.465-1.612-1.731-1.148-2.83c0.465-1.097,1.73-1.614,2.83-1.147
					c1.716,0.725,3.479,1.403,5.239,2.014c1.127,0.39,1.723,1.62,1.333,2.747C86.165,180.454,85.329,181.014,84.435,181.014z
					 M151.484,176.597c-0.779,0-1.531-0.423-1.916-1.162c-0.551-1.057-0.141-2.361,0.917-2.912c1.643-0.856,3.286-1.787,4.885-2.765
					c1.013-0.621,2.345-0.305,2.969,0.713c0.623,1.017,0.304,2.346-0.714,2.969c-1.681,1.031-3.413,2.011-5.143,2.912
					C152.161,176.518,151.82,176.597,151.484,176.597z M67.562,173.033c-0.385,0-0.776-0.103-1.127-0.318
					c-1.667-1.023-3.323-2.115-4.918-3.247c-0.973-0.689-1.203-2.037-0.513-3.009c0.689-0.973,2.04-1.204,3.009-0.513
					c1.52,1.076,3.094,2.115,4.679,3.088c1.016,0.623,1.335,1.953,0.711,2.969C68.995,172.667,68.287,173.033,67.562,173.033z
					 M166.967,166.154c-0.611,0-1.219-0.258-1.646-0.76c-0.773-0.908-0.662-2.271,0.246-3.044c1.415-1.205,2.811-2.476,4.148-3.778
					c0.857-0.832,2.222-0.813,3.053,0.041c0.832,0.854,0.814,2.221-0.039,3.053c-1.406,1.369-2.875,2.706-4.365,3.974
					C167.958,165.985,167.462,166.154,166.967,166.154z M52.801,161.616c-0.54,0-1.08-0.201-1.498-0.604
					c-1.41-1.359-2.792-2.783-4.109-4.232c-0.801-0.883-0.737-2.248,0.146-3.05c0.881-0.799,2.248-0.737,3.05,0.146
					c1.252,1.379,2.568,2.733,3.909,4.026c0.859,0.828,0.884,2.194,0.056,3.053C53.931,161.395,53.366,161.616,52.801,161.616z
					 M179.792,152.587c-0.457,0-0.915-0.143-1.306-0.441c-0.949-0.722-1.133-2.077-0.411-3.026c1.126-1.48,2.221-3.019,3.253-4.574
					c0.662-0.994,2.003-1.262,2.993-0.606c0.994,0.659,1.265,2,0.606,2.993c-1.084,1.633-2.234,3.249-3.416,4.803
					C181.086,152.294,180.443,152.587,179.792,152.587z M40.838,147.281c-0.699,0-1.383-0.338-1.799-0.964
					c-1.085-1.631-2.128-3.321-3.102-5.023c-0.592-1.035-0.233-2.354,0.801-2.946c1.036-0.591,2.354-0.234,2.946,0.801
					c0.926,1.619,1.92,3.227,2.95,4.778c0.661,0.993,0.391,2.333-0.603,2.993C41.664,147.165,41.248,147.281,40.838,147.281z
					 M189.492,136.635c-0.311,0-0.625-0.068-0.925-0.21c-1.077-0.511-1.535-1.798-1.025-2.876c0.801-1.687,1.556-3.418,2.245-5.146
					c0.443-1.109,1.698-1.645,2.806-1.206c1.108,0.442,1.648,1.698,1.206,2.806c-0.722,1.813-1.515,3.629-2.354,5.398
					C191.075,136.179,190.3,136.635,189.492,136.635z M32.247,130.691c-0.866,0-1.683-0.525-2.014-1.382
					c-0.704-1.824-1.356-3.698-1.94-5.571c-0.354-1.139,0.283-2.348,1.421-2.702c1.143-0.357,2.349,0.281,2.703,1.421
					c0.554,1.781,1.174,3.563,1.844,5.297c0.429,1.113-0.124,2.362-1.237,2.792C32.769,130.644,32.505,130.691,32.247,130.691z
					 M195.733,119.042c-0.169,0-0.34-0.02-0.512-0.062c-1.158-0.281-1.869-1.448-1.588-2.607c0.443-1.817,0.831-3.666,1.155-5.493
					c0.208-1.174,1.33-1.957,2.503-1.749c1.174,0.209,1.957,1.33,1.747,2.503c-0.34,1.916-0.746,3.853-1.209,5.757
					C197.59,118.38,196.706,119.042,195.733,119.042z M27.445,112.65c-1.049,0-1.968-0.765-2.131-1.832
					c-0.297-1.933-0.533-3.902-0.701-5.852c-0.104-1.188,0.776-2.235,1.964-2.338c1.164-0.108,2.235,0.775,2.338,1.964
					c0.162,1.858,0.387,3.733,0.668,5.573c0.181,1.179-0.628,2.281-1.808,2.461C27.664,112.642,27.553,112.65,27.445,112.65z
					 M198.266,100.555c-0.024,0-0.049-0.001-0.073-0.001c-1.192-0.039-2.125-1.037-2.086-2.229c0.032-0.993,0.049-1.99,0.051-2.988
					c0-0.874-0.014-1.753-0.039-2.633c-0.035-1.192,0.902-2.187,2.094-2.222c1.13-0.027,2.186,0.902,2.221,2.094
					c0.028,0.923,0.042,1.845,0.042,2.764c-0.001,1.047-0.018,2.089-0.053,3.128C200.384,99.635,199.426,100.555,198.266,100.555z
					 M26.585,93.998c-0.042,0-0.084-0.001-0.128-0.004c-1.191-0.07-2.099-1.091-2.028-2.282c0.115-1.972,0.298-3.949,0.543-5.877
					c0.15-1.184,1.247-2.016,2.413-1.87c1.184,0.15,2.021,1.231,1.871,2.414c-0.233,1.832-0.406,3.711-0.517,5.586
					C28.671,93.112,27.719,93.998,26.585,93.998z M196.886,81.933c-1.015,0-1.92-0.72-2.118-1.754
					c-0.35-1.836-0.773-3.669-1.255-5.45c-0.312-1.151,0.367-2.337,1.518-2.649c1.157-0.311,2.338,0.368,2.648,1.519
					c0.512,1.886,0.959,3.826,1.331,5.769c0.223,1.172-0.544,2.302-1.716,2.526C197.157,81.92,197.021,81.933,196.886,81.933z
					 M191.131,64.184c-0.81,0-1.585-0.458-1.954-1.238l-0.318-0.665c-0.71-1.463-1.469-2.91-2.258-4.303
					c-0.588-1.038-0.222-2.355,0.817-2.943c1.032-0.584,2.353-0.224,2.942,0.816c0.832,1.472,1.635,3.001,2.382,4.545l0.339,0.706
					c0.509,1.078,0.048,2.365-1.03,2.874C191.754,64.117,191.44,64.184,191.131,64.184z M181.219,48.365
					c-0.631,0-1.257-0.275-1.682-0.805c-1.169-1.452-2.404-2.876-3.667-4.233c-0.812-0.873-0.765-2.239,0.108-3.052
					c0.873-0.811,2.241-0.764,3.052,0.108c1.334,1.433,2.636,2.936,3.87,4.468c0.748,0.929,0.602,2.288-0.327,3.035
					C182.173,48.209,181.694,48.365,181.219,48.365z M167.907,35.273c-0.465,0-0.933-0.15-1.328-0.458
					c-1.462-1.143-2.987-2.253-4.533-3.3c-0.988-0.669-1.245-2.011-0.578-2.999c0.669-0.987,2.013-1.242,2.998-0.577
					c1.628,1.103,3.233,2.271,4.772,3.475c0.939,0.735,1.106,2.092,0.371,3.031C169.184,34.988,168.548,35.273,167.907,35.273z
					 M152.032,25.444c-0.314,0-0.633-0.069-0.935-0.214c-1.677-0.807-3.406-1.571-5.139-2.271c-1.105-0.447-1.639-1.705-1.192-2.811
					c0.447-1.105,1.697-1.643,2.811-1.193c1.817,0.735,3.632,1.536,5.392,2.383c1.074,0.517,1.527,1.807,1.009,2.882
					C153.608,24.993,152.836,25.444,152.032,25.444z M74.061,24.7c-0.81,0-1.587-0.458-1.955-1.24
					c-0.507-1.079-0.045-2.366,1.035-2.873c1.771-0.834,3.593-1.621,5.413-2.338c1.108-0.434,2.363,0.107,2.8,1.217
					c0.437,1.11-0.108,2.364-1.217,2.8c-1.734,0.683-3.469,1.432-5.157,2.227C74.683,24.633,74.369,24.7,74.061,24.7z
					 M134.466,19.107c-0.174,0-0.352-0.021-0.527-0.066c-1.803-0.453-3.652-0.86-5.496-1.207c-1.172-0.221-1.943-1.351-1.72-2.522
					c0.221-1.173,1.356-1.941,2.522-1.721c1.929,0.365,3.861,0.789,5.746,1.264c1.157,0.29,1.858,1.463,1.569,2.62
					C136.311,18.453,135.433,19.107,134.466,19.107z M91.699,18.564c-0.981,0-1.868-0.672-2.101-1.668
					c-0.271-1.161,0.45-2.323,1.611-2.594c1.909-0.447,3.854-0.836,5.784-1.157c1.164-0.202,2.288,0.598,2.484,1.775
					c0.195,1.176-0.599,2.288-1.775,2.484c-1.837,0.306-3.691,0.677-5.509,1.102C92.027,18.545,91.862,18.564,91.699,18.564z
					 M115.993,16.334c-0.035,0-0.07-0.001-0.106-0.003c-1.355-0.065-2.731-0.098-4.089-0.098l-1.525,0.013
					c-1.214,0.001-2.176-0.94-2.198-2.119c-0.021-1.192,0.928-2.176,2.12-2.198l1.604-0.015c1.428,0,2.873,0.035,4.297,0.104
					c1.19,0.057,2.11,1.07,2.052,2.26C118.092,15.434,117.137,16.334,115.993,16.334z"/>
			</g>
			<g>
				<path style="fill:#525D7D;" d="M73.042,139.066c-0.874,0-1.697-0.535-2.021-1.401c-0.419-1.117,0.146-2.362,1.264-2.78
					c7.311-2.742,21.921-16.972,22.265-27.679c-0.114-0.937-3.427-3.491-7.042-3.491c-1.429,0-8.955,1.004-16.814,4.191
					c-0.728,0.295-1.563,0.171-2.175-0.327c-0.611-0.498-0.902-1.289-0.76-2.064c0.399-2.175,0.79-4.357,1.179-6.542
					c1.133-6.335,2.302-12.885,3.725-19.304c0.215-0.967,1.06-1.664,2.051-1.691c9.56-0.258,17.282-1.384,24.299-3.544
					c1.141-0.352,2.349,0.289,2.699,1.428c0.351,1.14-0.288,2.348-1.428,2.699c-6.979,2.148-14.567,3.325-23.761,3.678
					c-1.247,5.812-2.307,11.742-3.333,17.493c-0.169,0.945-0.337,1.888-0.507,2.832c7.045-2.383,13.151-3.167,14.825-3.167
					c5.114,0,11.36,3.609,11.36,7.822c0,0.053-0.003,0.163-0.007,0.216c-0.249,7.789-6.106,15.558-9.574,19.488
					c-4.968,5.627-11.046,10.34-15.487,12.005C73.551,139.022,73.294,139.066,73.042,139.066z"/>
			</g>
			<g>
				<path style="fill:#525D7D;" d="M112.004,126.619c-0.672,0-1.34-0.044-2-0.132c-5.87-0.78-12.755-6.643-14.905-17.984
					c-1.789-9.432,0.689-19.77,6.316-26.334c4-4.666,9.213-7.018,15.043-6.829c0.053,0.001,0.143,0.004,0.16,0.006
					c6.421,0.398,14.508,6.829,16.429,16.527c2.168,10.944-0.256,21.129-6.65,27.943
					C122.314,124.165,117.06,126.619,112.004,126.619z M115.792,79.647c-5.379,0-8.995,2.876-11.1,5.332
					c-4.731,5.521-6.882,14.652-5.351,22.719c1.749,9.224,6.902,13.933,11.231,14.508c4.263,0.567,9.002-1.431,12.676-5.346
					c5.429-5.786,7.457-14.587,5.562-24.148c-1.451-7.329-7.716-12.762-12.43-13.056l0.004-2.159l-0.073,2.158
					C116.136,79.65,115.963,79.647,115.792,79.647z"/>
			</g>
			<g>
				<path style="fill:#525D7D;" d="M138.232,84.405c-0.032,0-0.063-0.001-0.096-0.001c-3.934-0.055-6.633-3.166-6.969-6.144
					c-0.007-0.059-0.021-0.261-0.023-0.321c-0.205-3.627,2.092-7.69,6.295-8.112c0.125-0.011,0.236-0.02,0.344-0.025
					c1.863-0.099,3.915,0.711,5.445,2.164c1.476,1.402,2.288,3.223,2.288,5.129c0.001,1.966-0.769,3.811-2.169,5.192
					C141.982,83.636,140.122,84.405,138.232,84.405z M137.654,71.976l0.215,2.148c-1.556,0.156-2.502,2.003-2.411,3.631
					c0.103,0.938,1.044,2.308,2.737,2.331c0.798,0.058,1.549-0.307,2.12-0.871c0.571-0.563,0.884-1.315,0.884-2.118
					c0-0.911-0.513-1.59-0.943-1.998c-0.759-0.721-1.694-1.021-2.262-0.983L137.654,71.976z"/>
			</g>
			<g>
				<path style="fill:#525D7D;" d="M140.479,101.246c-0.266,0-0.534-0.049-0.796-0.152c-1.109-0.44-1.652-1.695-1.212-2.803
					c3.33-8.395,7.406-16.508,11.348-24.353c1.718-3.418,3.437-6.837,5.1-10.288c0.517-1.075,1.809-1.527,2.883-1.007
					c1.074,0.518,1.525,1.808,1.008,2.882c-1.674,3.473-3.403,6.914-5.132,10.352c-3.899,7.762-7.933,15.788-11.192,24.006
					C142.15,100.73,141.338,101.246,140.479,101.246z"/>
			</g>
			<g>
				<path style="fill:#525D7D;" d="M160.363,95.592c-0.169,0-0.336-0.006-0.505-0.018c-2.979-0.218-6.064-2.631-6.198-6.821
					c-0.094-2.969,1.435-5.712,3.896-6.987c0.76-0.396,1.601-0.625,2.501-0.678c1.898-0.109,3.918,0.647,5.401,2.024
					c1.431,1.33,2.235,3.119,2.264,5.039c0.031,2.011-0.815,3.98-2.322,5.403C164.014,94.864,162.202,95.592,160.363,95.592z
					 M160.431,85.396c-0.041,0-0.08,0.001-0.121,0.003c-0.289,0.017-0.537,0.081-0.756,0.195c-0.987,0.512-1.618,1.724-1.577,3.021
					c0.063,1.971,1.411,2.593,2.197,2.651c0.794,0.063,1.628-0.251,2.263-0.853c0.628-0.593,0.981-1.394,0.968-2.197
					c-0.014-0.938-0.489-1.574-0.885-1.942C161.935,85.733,161.129,85.396,160.431,85.396z"/>
			</g>
			<g>
				<path style="fill:#525D7D;" d="M137.621,133.391c-2.22,0-4.239-0.836-5.849-2.421c-1.909-1.881-3.007-4.61-3.011-7.488
					c-0.007-4.587,3.382-9.802,8.255-9.95c0.567-0.016,1.144,0.044,1.729,0.177c1.068,0.245,1.927,0.726,2.758,1.192
					c2.872,1.612,4.907,5.644,4.751,9.247c-0.218,5.036-4.037,9.183-8.515,9.242C137.7,133.39,137.661,133.391,137.621,133.391z
					 M137.197,117.848c-2.307,0.069-4.121,3.135-4.117,5.628c0.003,1.706,0.647,3.357,1.723,4.419
					c0.81,0.797,1.787,1.205,2.88,1.178c1.95-0.025,4.127-2.085,4.256-5.11c0.103-2.338-1.348-4.621-2.432-5.229
					c-0.758-0.424-1.262-0.708-1.722-0.813C137.575,117.872,137.378,117.848,137.197,117.848z"/>
			</g>
			<g>
				<path style="fill:#525D7D;" d="M149.686,130.515c-1.098,0-2.038-0.835-2.146-1.951c-0.232-2.401-0.695-4.829-1.141-7.176
					c-0.663-3.484-1.349-7.087-1.349-10.828l-0.006-0.279c-0.016-0.439-0.046-1.352,0.706-2.096
					c0.776-0.768,1.707-0.725,2.527-0.686c0.36,0.017,0.857,0.04,1.546,0.04c0.775,0,1.778-0.025,2.666-0.224
					c1.174-0.264,2.318,0.474,2.577,1.639c0.26,1.164-0.474,2.317-1.638,2.576c-1.496,0.332-2.994,0.339-4.031,0.323
					c0.132,2.886,0.673,5.734,1.244,8.726c0.465,2.443,0.946,4.97,1.198,7.568c0.115,1.187-0.755,2.242-1.941,2.357
					C149.827,130.512,149.756,130.515,149.686,130.515z"/>
			</g>
			<g>
				<path style="fill:#525D7D;" d="M148.865,121.288c-1.008,0-1.909-0.71-2.114-1.737c-0.233-1.169,0.524-2.307,1.694-2.54
					c0.876-0.175,1.704-0.249,2.503-0.32c1.157-0.103,2.158-0.191,2.99-0.561c1.092-0.485,2.364,0.006,2.851,1.096
					c0.484,1.09-0.007,2.366-1.096,2.85c-1.49,0.662-3.016,0.798-4.363,0.917c-0.717,0.064-1.393,0.124-2.038,0.252
					C149.148,121.275,149.006,121.288,148.865,121.288z"/>
			</g>
			<g>
				<path style="fill:#525D7D;" d="M160.758,130.31c-1.106,0-2.05-0.846-2.148-1.969c-0.285-3.238-0.538-5.977-0.754-8.295
					c-1.034-11.192-1.167-12.631,0.28-14.041c1.036-1.009,2.332-0.856,3.188-0.754c0.306,0.037,0.663,0.082,1.077,0.082
					c1.16,0,2.052-0.068,2.894-0.222c1.174-0.214,2.297,0.564,2.51,1.737c0.214,1.173-0.564,2.297-1.737,2.51
					c-1.108,0.202-2.238,0.292-3.667,0.292c-0.371,0-0.711-0.022-1.022-0.051c0.006,1.688,0.332,5.223,0.777,10.048
					c0.215,2.322,0.468,5.067,0.755,8.312c0.105,1.188-0.773,2.236-1.961,2.34C160.886,130.307,160.821,130.31,160.758,130.31z"/>
			</g>
			<g>
				<path style="fill:#525D7D;" d="M160.145,119.443c-1.192,0-2.159-0.966-2.159-2.159s0.967-2.159,2.159-2.159
					c1.77,0,3.368-0.161,5.218-0.348l0.514-0.052c1.189-0.122,2.245,0.747,2.363,1.933c0.119,1.186-0.746,2.245-1.933,2.364
					l-0.51,0.051C163.912,119.263,162.133,119.443,160.145,119.443z"/>
			</g>
			<g>
				<path style="fill:#525D7D;" d="M28.895,79.622c-7.16,0-12.987-6.834-12.987-15.233c0-17.135,26.64-52.011,53.882-64.2
					c0.997-0.446,2.168-0.077,2.73,0.855c0.564,0.933,0.343,2.141-0.514,2.814C49.619,21.437,37.737,45.44,35.662,50.738
					c2.173,2.458,7.315,8.857,7.315,14.379C42.977,71.977,37.194,79.622,28.895,79.622z M53.248,15.784
					c-18.225,14.905-33.021,36.81-33.021,48.605c0,6.529,4.482,10.915,8.668,10.915c5.588,0,9.764-5.379,9.764-10.187
					c0-4.149-5.043-10.317-6.987-12.343c-0.385-0.402-0.6-0.938-0.6-1.494C31.071,49.519,38.469,32.596,53.248,15.784z
					 M35.356,51.624L35.356,51.624L35.356,51.624z"/>
			</g>
			<g>
				<path style="fill:#525D7D;" d="M41.33,48.378c-2.101,0-4.12-0.053-6.03-0.153c-1.191-0.063-2.106-1.078-2.044-2.269
					c0.062-1.192,1.087-2.13,2.269-2.044c10.795,0.566,21.943-0.391,32.018-2.6c-11.747,0.616-21.792-0.414-27.976-1.342
					c-1.179-0.177-1.992-1.276-1.815-2.456c0.176-1.179,1.28-1.993,2.456-1.815c9.512,1.427,28.449,3.1,48.424-1.728
					c1.061-0.253,2.144,0.317,2.529,1.339c0.384,1.021-0.055,2.168-1.02,2.673C75.416,45.687,56.272,48.378,41.33,48.378z"/>
			</g>
			<g>
				<path style="fill:#525D7D;" d="M25.089,47.16c-0.114,0-0.229-0.008-0.346-0.027c-8.217-1.323-14.572-3.61-18.379-6.613
					c-6.594-5.203-8.351-14.01-3.916-19.632c5.14-6.515,14.725-6.318,20.109-2.071c4.331,3.416,6.171,11.402,6.757,14.637
					c0.499,0.149,1.217,0.347,2.193,0.583c1.16,0.281,1.872,1.448,1.591,2.607c-0.28,1.158-1.446,1.875-2.606,1.591
					c-3.67-0.889-4.173-1.286-4.445-1.5c-0.436-0.344-0.722-0.845-0.8-1.395c-0.392-2.784-2.118-10.571-5.364-13.132
					C16.108,19.23,9.3,19.175,5.839,23.563c-2.593,3.286-1.926,9.522,3.199,13.567c3.185,2.513,9.006,4.551,16.391,5.74
					c1.178,0.19,1.978,1.297,1.788,2.475C27.047,46.405,26.131,47.16,25.089,47.16z"/>
			</g>
			<g>
				<path style="fill:#525D7D;" d="M14.268,35.463c-2.686,0-5.465-1.862-5.465-4.977c0-1.793,0.953-3.563,2.44-4.555
					c0.097-0.339,0.28-0.658,0.545-0.926c0.416-0.417,1.15-0.914,2.291-0.914c3.016,0,6.221,1.843,6.221,5.258
					C20.301,32.835,17.708,35.463,14.268,35.463z M14.533,28.448c-0.162,0.425-0.46,0.804-0.876,1.063
					c-0.295,0.184-0.536,0.621-0.536,0.974c0,0.403,0.679,0.659,1.147,0.659c0.853,0,1.715-0.555,1.715-1.795
					C15.983,28.855,15.189,28.55,14.533,28.448z"/>
			</g>
			<g>
				<path style="fill:#525D7D;" d="M28.596,70.598c-3.31,0-5.534-1.929-5.534-4.8c0-3.272,2.415-6.482,4.876-6.482
					c0.171,0,0.363,0.014,0.536,0.03c0.426,0,0.877,0.133,1.231,0.37c0.181,0.121,0.543,0.256,0.893,0.389
					c1.195,0.449,3.194,1.2,3.712,3.621c0.091,0.434,0.136,0.861,0.136,1.278C34.446,67.716,32.396,70.598,28.596,70.598z
					 M28.149,63.77c-0.333,0.376-0.769,1.129-0.769,2.028c0,0.435,0.85,0.482,1.216,0.482c1.132,0,1.532-0.687,1.532-1.276
					c0-0.119-0.014-0.248-0.042-0.382c-0.114-0.14-0.675-0.351-1.008-0.477C28.783,64.035,28.468,63.916,28.149,63.77z"/>
			</g>
		</g>
	</g>
</g>
<g id="Layer_1">
</g>
</svg>
