<?xml version="1.0" encoding="iso-8859-1"?>
<!-- Generator: Adobe Illustrator 21.0.2, SVG Export Plug-In . SVG Version: 6.00 Build 0)  -->
<svg version="1.1" xmlns="http://www.w3.org/2000/svg" xmlns:xlink="http://www.w3.org/1999/xlink" x="0px" y="0px"
	 viewBox="0 0 186.662 197.329" style="enable-background:new 0 0 186.662 197.329;" xml:space="preserve">
<g id="_x37_7">
	<g>
		<g>
			<g>
				<path style="fill:#E0DFE6;" d="M113.464,73.573c-5.525-4.932-12.621-10.604-19.818-12.72c-2.701-0.794-4.148,2.498-2.56,4.398
					c2.279,2.728,5.306,4.965,8.005,7.267c2.773,2.366,5.368,4.919,8.092,7.337C111.443,83.637,117.742,77.392,113.464,73.573z"/>
			</g>
			<g>
				<path style="fill:#E0DFE6;" d="M184.124,79.952c0.247-0.301,0.501-0.636,0.789-1.034c1.119-1.544,0.806-3.744,0-5.316
					c-4.099-7.995-8.203-17.795-14.131-25.191c1.259-3.466,1.769-7.397,2.586-10.807c1.234-5.148,2.89-10.739,2.132-16.036
					c-0.17-1.188-1.854-1.444-2.594-0.685c-3.763,3.861-5.653,9.544-7.666,14.48c-0.981,2.406-2.172,4.806-3.117,7.249
					c-0.524-0.222-1.096-0.345-1.697-0.334c-0.214,0.004-0.428,0.008-0.642,0.013c-3.137,0.061-5.34,2.984-4.584,6.017
					c1.853,7.435,5.118,14.346,8.889,20.982c0.361,0.636,0.936,1.985,1.493,2.82c-1.468-0.069-3.825,0.205-3.997,0.211
					c-4.363,0.168-8.746,0.273-13.102,0.571c-6.07,0.415-10.986,1.816-15.272,6.276c-5.646,5.875-12.05,13.646-15.556,21.02
					c-1.051,2.211,1.422,4.016,3.285,2.535c7.303-5.807,11.957-16.504,20.152-20.986c3.491-1.909,7.442-1.959,11.5-1.527
					c-3.32-0.065-6.671,0.101-9.424,1.395c-4.721,2.218-7.904,8.292-11.302,12.042c-4.076,4.499-8.543,8.633-12.147,13.534
					c-1.019,1.386,0.686,3.577,2.286,2.973c5.232-1.973,9.697-5.218,13.827-8.965c4.019-3.646,7.695-10.83,13.084-11.409
					c6.721-0.723,14.421,0.828,21.271,0.759c5.127-0.052,10.265,0.59,14.26-3.026C186.753,85.431,186.112,81.878,184.124,79.952z
					 M171.726,80.307c1.518-0.808,2.556-1.989,3.175-3.379c0.31,0.668,0.623,1.337,0.917,1.99c0.137,0.305,0.329,0.574,0.543,0.825
					C174.883,80.04,173.319,80.207,171.726,80.307z"/>
			</g>
			<g>
				<path style="fill:#E0DFE6;" d="M147.999,24.014c-3.257-4.285-8.719-6.748-13.432-9.222c-4.998-2.624-10.231-5.177-15.76-6.415
					c-0.675-0.151-1.206,0.666-0.689,1.184c3.78,3.79,8.23,6.833,12.513,10.024c4.231,3.152,8.697,7.586,13.749,9.136
					C146.852,29.48,149.735,26.298,147.999,24.014z"/>
			</g>
			<g>
				<path style="fill:#E0DFE6;" d="M181.006,121.983c-5.294-0.109-8.237,2.995-11.64,6.649c-4.189,4.498-9.224,6.22-14.182,9.48
					c-2.021,1.329-2.526,3.963-1.706,5.935c-1.83,0.544-3.58,1.354-5.179,2.501c-2.4,1.721-1.182,4.993,1.494,5.036
					c-4.393,8.032-3.411,19.595,0.817,27.317c2.034,3.714,5.729,7.038,10.264,6.653c4.414-0.375,8.267-3.806,7.897-8.408
					c-0.35-4.355-4.66-6.513-8.182-4.503c-0.415-0.688-0.84-1.37-1.208-2.086c-1.117-2.21-1.938-4.596-2.625-6.972
					c-1.173-4.058-1.471-8.241-2.174-12.372c4.07,0.018,7.891,1.054,11.741,2.964c3.267,1.621,6.372,4.464,10.25,2.834
					c3.36-1.412,4.113-4.918,4.601-8.163c0.33-2.188-1.097-15.634,1.258-16.324C188.252,130.819,187.102,122.109,181.006,121.983z
					 M170.905,145.648c-0.311-0.133-0.605-0.256-0.839-0.347c-1.315-0.514-2.625-0.941-3.958-1.275
					c1.251-0.642,2.47-1.363,3.65-2.142c0.368-0.243,0.722-0.515,1.086-0.769c0.106,1.13,0.195,2.259,0.172,3.407
					C171.01,144.754,170.963,145.167,170.905,145.648z"/>
			</g>
			<g>
				<path style="fill:#E0DFE6;" d="M70.045,95.042C66.96,86.065,56.499,75.428,46.85,73.555c0.431-0.489,0.83-1.011,1.184-1.569
					c3.018-4.751,2.457-10.999-0.621-15.56c-0.309-0.459-2.061-2.136-2.591-2.849c0.482-0.035,1.884-2.038,2.108-2.443
					c1.689-3.058,1.94-6.886,1.651-10.268c-0.341-4-5.759-7.505-8.896-3.685C35.458,42.329,31.3,47.53,27.263,52.829
					c-3.713,4.873-8.395,9.237-8.883,15.511c-0.147,1.89,1.028,3.08,2.517,3.543c-1.119,1.132-2.229,2.284-3.573,3.171
					c-0.772,0.509-0.786,1.964,0.282,2.158c2.221,0.404,3.557,0.055,5.72-0.452c3.846-0.902,6.482-0.527,10.211,0.639
					c3.72,1.163,7.702,0.435,10.819-1.657c0.074,0.242,0.18,0.482,0.358,0.712c2.805,3.627,6.407,6.572,9.264,10.199
					c2.981,3.785,4.856,8.061,7.554,11.979C64.339,102.711,71.87,100.352,70.045,95.042z M29.115,67.912
					c2.035-2.369,3.652-5.237,5.511-7.715c0.436-0.582,0.894-1.146,1.334-1.725c1.695,2.142,4.001,3.937,3.947,6.491
					C39.801,69.989,33.577,68.219,29.115,67.912z"/>
			</g>
			<g>
				<path style="fill:#E0DFE6;" d="M123.681,181.925c-1.77-5.533-6.324-9.745-8.794-15.033c-3.302-7.069-5.544-14.571-7.204-22.178
					c-1.607-7.363-2.497-14.891-2.77-22.423c-0.253-6.959,1.123-14.467-0.472-21.267c-0.072-0.306-0.52-0.444-0.733-0.193
					c-4.882,5.736-5.915,14.222-6.792,21.461c-1.12,9.246-0.709,18.567,0.986,27.726c2.02,10.912,8.076,38.136,23.611,35.725
					C123.128,185.492,124.147,183.381,123.681,181.925z"/>
			</g>
		</g>
		<g>
			<g>
				<path style="fill:#525D7D;" d="M117.849,110.366c-0.214,0-0.429-0.032-0.641-0.097c-0.837-0.26-1.434-1.001-1.51-1.875
					l-3.103-35.676L78.718,57.954c-0.779-0.339-1.287-1.105-1.297-1.954c-0.01-0.85,0.48-1.626,1.251-1.985l31.68-14.68
					l0.517-37.206c0.012-0.864,0.538-1.638,1.337-1.966c0.799-0.33,1.717-0.149,2.334,0.454l26.393,25.876l33.045-10.327
					c0.822-0.257,1.72,0,2.283,0.655c0.562,0.656,0.679,1.583,0.298,2.357l-14.477,29.471l18.137,30.055
					c0.415,0.687,0.414,1.548-0.001,2.234c-0.415,0.687-1.163,1.098-1.978,1.037l-34.252-2.076l-24.474,29.681
					C119.098,110.087,118.482,110.366,117.849,110.366z M84.846,55.915l30.651,13.358c0.725,0.316,1.22,1.004,1.288,1.792
					l2.757,31.694l21.814-26.454c0.439-0.533,1.109-0.824,1.796-0.781l31.247,1.893l-16.622-27.545
					c-0.38-0.63-0.413-1.408-0.089-2.068l12.78-26.017L140.988,31c-0.757,0.237-1.587,0.039-2.156-0.519L115.117,7.231
					l-0.465,33.522c-0.012,0.831-0.498,1.58-1.251,1.93L84.846,55.915z"/>
			</g>
			<g>
				<path style="fill:#525D7D;" d="M19.53,77.531c-0.201,0-0.404-0.028-0.603-0.086c-0.77-0.225-1.353-0.857-1.512-1.643
					l-2.628-12.928L1.262,56.696c-0.798-0.364-1.296-1.175-1.26-2.051c0.035-0.876,0.597-1.643,1.421-1.943l12.866-4.665L16.4,34.05
					c0.127-0.841,0.735-1.528,1.554-1.757c0.814-0.228,1.695,0.044,2.239,0.696l8.506,10.199l13.772-3.475
					c0.839-0.218,1.721,0.097,2.245,0.783c0.524,0.687,0.588,1.621,0.163,2.373l-6.959,12.315l7.056,11.155
					c0.462,0.73,0.444,1.663-0.044,2.376c-0.488,0.71-1.354,1.06-2.2,0.897l-12.308-2.437l-9.341,9.696
					C20.672,77.299,20.108,77.531,19.53,77.531z M7.859,54.963l9.721,4.44c0.628,0.287,1.082,0.857,1.219,1.534l2.028,9.976
					l7.307-7.585c0.509-0.529,1.252-0.758,1.974-0.62l8.533,1.69l-5.06-7.998c-0.425-0.672-0.446-1.524-0.056-2.217l5.114-9.049
					l-10.201,2.574c-0.807,0.208-1.654-0.072-2.186-0.71l-6.299-7.554l-1.586,10.509c-0.118,0.783-0.655,1.438-1.399,1.708
					L7.859,54.963z"/>
			</g>
			<g>
				<path style="fill:#525D7D;" d="M173.83,149.53c-0.401,0-0.803-0.112-1.155-0.335l-11.147-7.055l-13.822,5.481
					c-0.817,0.325-1.745,0.121-2.352-0.512c-0.607-0.631-0.772-1.569-0.418-2.37l5.542-12.513l-8.629-11.209
					c-0.519-0.673-0.594-1.588-0.192-2.338c0.401-0.749,1.217-1.2,2.053-1.133l13.248,0.925l7.028-12.344
					c0.428-0.751,1.262-1.182,2.12-1.077c0.859,0.097,1.577,0.697,1.825,1.524l4.067,13.549l12.935,2.634
					c0.845,0.171,1.508,0.831,1.683,1.677c0.176,0.845-0.169,1.714-0.876,2.208l-10.281,7.191l0.529,13.452
					c0.031,0.801-0.384,1.555-1.08,1.955C174.575,149.435,174.202,149.53,173.83,149.53z M161.755,137.57
					c0.403,0,0.805,0.112,1.155,0.335l8.602,5.444l-0.413-10.523c-0.029-0.734,0.318-1.432,0.92-1.854l7.127-4.984l-9.274-1.889
					c-0.779-0.159-1.408-0.732-1.637-1.494l-2.988-9.958l-5.206,9.144c-0.411,0.721-1.205,1.158-2.027,1.085l-9.811-0.686
					l6.483,8.421c0.483,0.627,0.584,1.467,0.264,2.191l-3.925,8.86l9.935-3.94C161.216,137.62,161.485,137.57,161.755,137.57z"/>
			</g>
			<g>
				<path style="fill:#525D7D;" d="M121.41,61.575c-0.13,0-0.26-0.001-0.391-0.007c-4.427-0.18-7.134-4.176-7.101-7.775
					c0.032-3.451,2.528-7.21,6.652-7.526c0.379-0.032,0.772-0.032,1.17,0.004c2.754,0.233,4.923,1.417,6.273,3.423
					c0.891,1.324,1.348,2.852,1.324,4.419c-0.037,2.028-0.893,3.978-2.349,5.35C125.536,60.833,123.567,61.575,121.41,61.575z
					 M121.129,50.564c-0.075,0-0.15,0.003-0.224,0.008c-1.633,0.127-2.655,1.791-2.669,3.261c-0.013,1.383,1.009,3.341,2.959,3.42
					c1.158,0.045,2.134-0.274,2.831-0.931c0.624-0.589,0.977-1.398,0.992-2.28c0.011-0.678-0.192-1.349-0.588-1.937
					c-0.612-0.908-1.612-1.408-3.058-1.531C121.289,50.566,121.209,50.564,121.129,50.564z"/>
			</g>
			<g>
				<path style="fill:#525D7D;" d="M131.45,77.03c-0.035,0-0.071-0.001-0.107-0.003c-1.191-0.058-2.109-1.071-2.051-2.262
					c0.317-6.504,1.356-12.974,2.361-19.23c0.744-4.63,1.512-9.416,1.974-14.144c0.115-1.188,1.169-2.062,2.358-1.94
					c1.187,0.117,2.055,1.172,1.939,2.359c-0.474,4.861-1.253,9.714-2.007,14.409c-0.986,6.14-2.006,12.491-2.312,18.757
					C133.548,76.132,132.594,77.03,131.45,77.03z"/>
			</g>
			<g>
				<path style="fill:#525D7D;" d="M146.22,66.752c-3.992,0-7.201-2.828-7.498-6.639c-0.253-3.26,1.292-6.244,3.936-7.602
					c1.423-0.731,2.74-1.039,4.022-1.002c3.246,0.142,6.424,3.066,6.8,6.257c0.049,0.416,0.072,0.817,0.077,1.213
					c0.049,4.276-3.099,7.689-7.167,7.772C146.333,66.751,146.277,66.752,146.22,66.752z M144.632,56.352
					c-1.242,0.638-1.701,2.182-1.604,3.427c0.139,1.784,1.774,2.744,3.276,2.654c1.931-0.038,2.953-1.784,2.935-3.406
					c-0.003-0.247-0.017-0.499-0.047-0.756c-0.118-0.999-1.474-2.394-2.699-2.446C145.964,55.802,145.379,55.97,144.632,56.352z"/>
			</g>
			<g>
				<path style="fill:#525D7D;" d="M19.939,114.874c-7.169,0-11.606-4.664-11.606-8.986c0-0.475,0.039-0.964,0.079-1.441
					c0.028-0.33,0.058-0.652,0.058-0.95c0-2.478,3.412-8.591,8.562-8.591c1.709,0,3.355,0.595,4.762,1.719
					c0.931,0.745,1.082,2.104,0.337,3.035c-0.744,0.933-2.101,1.084-3.035,0.339c-0.633-0.508-1.347-0.775-2.065-0.775
					c-2.188,0-4.154,3.411-4.246,4.312c0.001,0.373-0.034,0.818-0.072,1.275c-0.03,0.356-0.063,0.721-0.063,1.077
					c0,1.907,2.595,4.668,7.288,4.668c7.271,0,12.339-9.284,12.339-17.615c0-6.614-2.154-10.597-4.261-13.621
					c-0.452-0.648-0.514-1.491-0.16-2.198c0.353-0.707,1.064-1.165,1.854-1.193c0.377-0.014,0.756-0.021,1.134-0.021
					c17.28,0,23.797,11.599,27.691,18.529c0.768,1.366,1.431,2.547,2.019,3.35c0.706,0.961,0.498,2.312-0.464,3.018
					c-0.961,0.703-2.312,0.498-3.018-0.465c-0.743-1.012-1.465-2.298-2.302-3.787c-3.407-6.065-8.439-15.021-21.075-16.197
					c1.589,3.077,2.9,7.104,2.9,12.586C36.595,103.534,29.902,114.874,19.939,114.874z"/>
			</g>
			<g>
				<path style="fill:#525D7D;" d="M43.075,104.016c-1.193,0-2.159-0.967-2.159-2.159c0-5.444-0.786-9.454-2.473-12.617
					c-0.561-1.053-0.162-2.36,0.89-2.921c1.052-0.564,2.361-0.162,2.921,0.888c2.033,3.813,2.98,8.469,2.98,14.649
					C45.234,103.049,44.267,104.016,43.075,104.016z"/>
			</g>
			<g>
				<path style="fill:#525D7D;" d="M32.713,144.367c-0.287,0-0.579-0.058-0.86-0.178c-1.094-0.477-1.595-1.747-1.119-2.841
					c6.075-13.975,34.418-48.362,79.064-59.523c1.159-0.287,2.328,0.415,2.618,1.572c0.29,1.155-0.414,2.328-1.571,2.617
					c-43.102,10.774-70.342,43.693-76.152,57.055C34.341,143.882,33.547,144.367,32.713,144.367z"/>
			</g>
			<g>
				<path style="fill:#525D7D;" d="M56.982,146.003c-0.056,0-0.111-0.001-0.168-0.007c-1.188-0.091-2.078-1.129-1.987-2.318
					c0.716-9.304,17.69-27.884,33.006-39.763c0.808-0.626,1.945-0.599,2.724,0.063c0.779,0.663,0.985,1.782,0.493,2.681
					c-4.41,8.056-6.646,15.923-6.646,23.384c0,1.013,0.043,2.025,0.127,3.011c0.101,1.188-0.78,2.232-1.968,2.333
					c-1.197,0.103-2.233-0.78-2.335-1.968c-0.094-1.106-0.142-2.242-0.142-3.376c0-5.444,1.065-11.051,3.177-16.754
					c-14.061,12.355-23.719,25.37-24.131,30.72C59.046,145.142,58.1,146.003,56.982,146.003z"/>
			</g>
			<g>
				<path style="fill:#525D7D;" d="M115.357,197.329c-0.552,0-1.105-0.211-1.527-0.633c-2.996-2.995-20.193-31.597-20.193-61.561
					c0-11.982,2.118-23.973,6.297-35.643c0.401-1.123,1.638-1.706,2.76-1.304c1.123,0.402,1.707,1.638,1.305,2.761
					c-4.01,11.2-6.043,22.702-6.043,34.186c0,28.173,16.229,55.809,18.928,58.508c0.843,0.843,0.843,2.21,0,3.053
					C116.461,197.118,115.909,197.329,115.357,197.329z"/>
			</g>
			<g>
				<path style="fill:#525D7D;" d="M119.182,154.155c-0.418,0-0.839-0.121-1.21-0.373c-0.987-0.669-1.244-2.013-0.574-2.998
					c5.971-8.799,16.801-11.843,24.835-12.845c1.19-0.152,2.262,0.691,2.41,1.875c0.148,1.182-0.692,2.262-1.874,2.409
					c-7.149,0.893-16.734,3.523-21.797,10.984C120.553,153.823,119.874,154.155,119.182,154.155z"/>
			</g>
			<g>
				<path style="fill:#525D7D;" d="M159.075,184.162c-8.032,0-12.826-7.159-12.826-19.152c0-4.523,0.691-9.009,1.361-13.345
					l0.25-1.629c0.178-1.179,1.276-1.982,2.458-1.812c1.179,0.178,1.99,1.279,1.811,2.458l-0.252,1.64
					c-0.644,4.176-1.31,8.494-1.31,12.687c0,4.46,0.829,14.834,8.508,14.834c1.9,0,7.99-3.233,7.99-7.01
					c0-1.326-0.753-3.832-3.601-3.832c-2.57,0-2.57,0.741-2.57,1.337c0,0.125,0.01,0.256,0.029,0.389
					c0.168,1.181-0.653,2.273-1.834,2.442c-1.176,0.156-2.274-0.654-2.441-1.834c-0.049-0.342-0.072-0.675-0.072-0.997
					c0-1.701,0.671-5.655,6.888-5.655c5.143,0,7.919,4.199,7.919,8.15C171.383,179.647,162.625,184.162,159.075,184.162z"/>
			</g>
			<g>
				<path style="fill:#525D7D;" d="M137.725,180.329c-0.552,0-1.106-0.211-1.527-0.633c-3.399-3.4-3.572-12.086-3.572-13.792
					c0-6.748,1.907-13.025,5.514-18.151c0.685-0.975,2.033-1.209,3.008-0.523c0.975,0.686,1.21,2.033,0.523,3.008
					c-3.092,4.395-4.727,9.813-4.727,15.666c0,4.144,0.863,9.294,2.308,10.739c0.843,0.843,0.843,2.211-0.001,3.053
					C138.829,180.118,138.277,180.329,137.725,180.329z"/>
			</g>
		</g>
	</g>
</g>
<g id="Layer_1">
</g>
</svg>
