<?xml version="1.0" encoding="iso-8859-1"?>
<!-- Generator: Adobe Illustrator 21.0.2, SVG Export Plug-In . SVG Version: 6.00 Build 0)  -->
<svg version="1.1" xmlns="http://www.w3.org/2000/svg" xmlns:xlink="http://www.w3.org/1999/xlink" x="0px" y="0px"
	 viewBox="0 0 179.32 186.044" style="enable-background:new 0 0 179.32 186.044;" xml:space="preserve">
<g id="_x37_8">
	<g>
		<g>
			<g>
				<path style="fill:#E0DFE6;" d="M81.818,41.202c-7.172,0.08-10.635-1.629-16.231-6.194c-4.75-3.875-9.118-8.174-13.768-12.165
					c-3.241-2.781-7.406,0.639-5.724,4.417c2.648,5.948,9.139,15.37,16.809,21.489c-6.775,4.23-12.679,11.479-16.887,17.209
					c-6.497,8.846-12.957,20.251-13.549,31.403c-0.088,1.657,1.962,2.212,3.052,1.264c0.81-0.703,1.564-1.462,2.303-2.235
					c9.576-1.26,19.206-1.475,28.814-0.41c6.054,0.671,12.607,2.236,16.443-3.395c1.048-1.538-0.02-3.764-1.714-4.212
					c-3.123-0.826-5.561-0.11-8.765,0.042c-4.267,0.202-8.531-0.279-12.809-0.033c-6.275,0.361-12.351,1.601-18.26,3.553
					c4.17-5.631,7.464-12.095,11.51-17.665c3.018-4.154,6.289-8.028,10.091-11.489c3.465-3.155,7.668-5.258,11.146-8.301
					c3.587,0.647,7.16,0.06,10.495-2.361C89.202,48.903,88.074,41.132,81.818,41.202z"/>
			</g>
			<g>
				<path style="fill:#E0DFE6;" d="M149.397,23.062c-0.739-3.979-1.32-8.9-5.089-11.105c-1.554-0.909-3.351-0.273-4.321,1.133
					c-2.315,3.355-0.927,8.266-0.744,12.108c0.036,0.766,0.056,1.513,0.082,2.241c-0.414-0.103-0.834-0.165-1.257-0.139
					c-7.665,0.468-16.911,0.145-24.153,2.812c-4.54,1.672-4.06,7.154-0.149,8.66c-1.698,0.865-3.401,1.715-5.146,2.456
					c-1.466,0.623-0.695,3.034,0.8,2.955c7.802-0.414,15.183-0.295,22.854-2.253c3.087-0.788,6.113-1.616,8.237-3.352
					c0.277,0.5,0.741,0.922,1.255,1.038c2.955,0.665,5.022-1.336,6.036-3.837c0.03-0.024,0.065-0.045,0.094-0.07
					C151.571,32.569,150.177,27.261,149.397,23.062z"/>
			</g>
			<g>
				<path style="fill:#E0DFE6;" d="M178.125,76.588c-0.877-7.001-2.038-13.745-4.581-20.36c-0.197-0.512-0.684-0.832-1.182-0.909
					c-0.457-0.629-1.031-1.145-1.689-1.432c-0.992-0.434-1.811-0.696-2.899-0.784c-2.31-0.189-5.114,1.904-5.539,4.217
					c-0.627,3.407-0.482,6.47,0.112,9.872c0.388,2.225,2.77,7.482,1.721,9.443c-0.862,1.611-8.912,2.44-10.717,2.85
					c-2.781,0.631-4.62,0.774-6.215,3.271c-0.399,0.625-0.364,1.483,0,2.111c0.576,0.995,1.492,1.752,2.603,2.342
					c-0.105,0.504-0.16,1.017-0.135,1.528c-0.579,0.264-1.138,0.552-1.697,0.84c-1.12-6.805-4.029-11.795-10.486-10.591
					c-1.785,0.333-2.604,2.709-1.694,4.163c5.795,9.254,4.193,20.909,3.118,31.504c-0.148,1.683-0.349,3.36-0.602,5.03
					c-0.228,0.786-0.368,1.353-0.435,1.736c-1.615-0.115-5.677-1.968-6.881-2.313c-5.806-1.663-11.67-3.189-17.652-4.057
					c-1.401-0.203-2.377,1.568-1.014,2.405c4.356,2.672,8.955,4.926,13.61,7.034c3.511,1.59,8.42,4.561,12.299,4.907
					c7.528,0.674,7.844-6.523,8.653-12.247c0.497-3.514,1.897-12.705,1.653-21.207c1.751,0.099,3.546,0.035,5.341-0.086
					c-0.03,0.088-0.077,0.162-0.104,0.253c-5.555,18.749-7.741,39.375-8.944,59.271c-9.998,1.125-19.996,2.25-29.996,3.364
					c-1.329-14.157-3.302-28.311-4.887-42.345c-0.153-1.355-0.302-2.717-0.45-4.081c0.671,0.37,1.527,0.413,2.235,0.017
					c5.289-2.96,6.392-10.26,7.333-15.814c1.138-6.719,1.093-13.528,0.002-20.252c-1.427-8.792-6.48-25.795-18.24-24.659
					c-0.876,0.085-1.413,1.094-0.739,1.785c7.317,7.515,10.606,18.446,11.351,28.777c0.12,1.661,0.144,3.331,0.124,5.001
					c-1.628,0.082-3.256,0.174-4.885,0.224c-1.466-11.103-3.421-22.131-6.714-32.612c-0.553-1.76-2.967-1.34-3.115,0.421
					c-1.763,21.123,1.68,43.054,4.039,64.038c1.511,13.439,2.716,27.064,4.502,40.562c-4.719,0.531-9.44,1.049-14.157,1.593
					c-9.872,1.14-19.77,2.301-29.608,3.705c-8.367,1.194-19.974,0.863-26.412,6.942c-1.111,1.049-0.715,2.772,0.457,3.55
					c1.659,1.1,3.542,1.812,5.549,2.269c-0.787,0.421-0.872,1.639,0.164,1.978c13.292,4.342,28.201,4.822,42.066,5.56
					c14.864,0.791,29.77,0.847,44.641,0.203c7.434-0.322,14.833-0.98,22.227-1.809c5.719-0.641,12.648-0.585,17.968-3.011
					c5.41-2.467,8.02-8.6,5.999-13.158c0.762-2.394,1.215-4.931,1.428-7.271c1.225-13.416-0.921-27.645-1.92-41.039
					c-0.535-7.182-1.071-14.365-1.605-21.547c-0.339-4.555-2.113-1.482,1.708-3.162c1.39-0.611,2.765-1.427,3.707-2.657
					C180.782,87.723,178.717,81.311,178.125,76.588z M111.231,92.06c-0.188,1.956-0.442,3.905-0.831,5.826
					c-0.463,2.284-1.264,4.453-1.792,6.635c-0.442-4.172-0.895-8.367-1.403-12.561C108.549,92.113,109.892,92.151,111.231,92.06z
					 M76.412,177.698c-2.984-0.009-5.984-0.09-8.991-0.184c8.389-0.427,16.786-1.048,25.146-1.754c5-0.422,9.996-0.872,14.99-1.342
					c0.135,0.772,0.254,1.549,0.396,2.319C97.454,177.402,86.933,177.73,76.412,177.698z M116.017,176.153
					c-0.037-0.85-0.099-1.701-0.143-2.551c9.505-0.939,19.003-1.944,28.497-3.001c0.254,0.955,0.68,1.773,1.248,2.45
					c-0.303,0.038-0.604,0.085-0.907,0.122C135.169,174.341,125.602,175.379,116.017,176.153z M163.191,160.354
					c-0.548,4.276-3.274,7.232-4.256,11.182c-0.18,0.021-0.368,0.033-0.553,0.05c0.244-0.421,0.456-0.875,0.627-1.364
					c0.728-2.085,1.457-4.171,2.185-6.256c0.754-2.158,0.106-4.707-1.328-6.642c0.496-8.162,1.143-16.312,2.065-24.444
					c0.13-1.151,0.278-2.3,0.427-3.448c0.153,5.248,0.324,10.494,0.545,15.74C163.111,150.14,163.829,155.379,163.191,160.354z"/>
			</g>
		</g>
		<g>
			<g>
				<path style="fill:#525D7D;" d="M24.602,63.55c-1.193,0-2.159-0.967-2.159-2.159c0.001-3.83,0.032-7.661,0.096-11.493
					c0.01-0.581,0.252-1.133,0.674-1.532c0.421-0.399,0.983-0.624,1.564-0.59c1.666,0.062,3.331,0.15,4.996,0.24
					c2.883,0.153,5.864,0.313,8.766,0.313l9.182-0.003c1.193,0,2.159,0.966,2.16,2.158c0.001,1.193-0.966,2.16-2.158,2.16
					l-9.184,0.003c-3.019,0-6.058-0.163-8.997-0.321c-0.907-0.048-1.813-0.097-2.719-0.14c-0.041,3.068-0.061,6.137-0.062,9.204
					C26.761,62.583,25.794,63.55,24.602,63.55z"/>
			</g>
			<g>
				<path style="fill:#525D7D;" d="M106.096,52.933c-15.312-0.246-30.384-0.285-43.114-0.291c-1.192,0-2.158-0.967-2.158-2.16
					c0.001-1.192,0.967-2.158,2.159-2.158c12.747,0.006,27.84,0.046,43.146,0.291c1.193,0.02,2.144,1.001,2.125,2.194
					C108.235,51.989,107.272,52.933,106.096,52.933z"/>
			</g>
			<g>
				<path style="fill:#525D7D;" d="M140.889,87.286c-1.186,0-2.151-0.956-2.159-2.144c-0.008-1.192,0.951-2.166,2.144-2.174
					c7.273-0.052,14.545-0.075,21.818-0.075l4.972,0.004c0.012-9.792,0.138-19.257,0.272-27.475
					c-12.465-0.884-25.467-1.531-39.671-1.975c-1.192-0.037-2.128-1.033-2.09-2.225c0.037-1.193,1.037-2.197,2.225-2.09
					c15.039,0.47,28.74,1.167,41.886,2.13c1.142,0.084,2.021,1.044,2.002,2.19c-0.152,9.047-0.306,19.791-0.306,30.887v0.72
					c0,0.573-0.228,1.123-0.634,1.528c-0.405,0.405-0.953,0.631-1.525,0.631c-0.003,0-7.131-0.007-7.131-0.007
					C155.429,87.211,148.167,87.234,140.889,87.286z"/>
			</g>
			<g>
				<path style="fill:#525D7D;" d="M97.34,87.969c-1.167,0-2.128-0.932-2.158-2.104c-0.03-1.192,0.912-2.183,2.104-2.214
					c6.943-0.174,14.184-0.321,21.522-0.436c1.221,0.045,2.174,0.933,2.193,2.125c0.018,1.192-0.933,2.174-2.125,2.193
					C111.552,87.648,104.325,87.795,97.34,87.969z"/>
			</g>
			<g>
				<path style="fill:#525D7D;" d="M30.501,90.834c-1.131,0-2.081-0.88-2.153-2.024c-0.074-1.191,0.83-2.215,2.02-2.29
					c15.443-0.967,31.705-1.747,48.334-2.318c1.148-0.045,2.191,0.891,2.231,2.083c0.041,1.192-0.892,2.191-2.084,2.232
					c-16.589,0.569-32.81,1.348-48.212,2.312C30.592,90.832,30.547,90.834,30.501,90.834z"/>
			</g>
			<g>
				<path style="fill:#525D7D;" d="M35.083,179.923c-1.143,0-2.088-0.891-2.155-2.033c-1.482-25.279-2.997-55.302-2.997-86.299
					l0.005-3.022c0.004-1.191,0.97-2.152,2.159-2.152c1.2,0.004,2.163,0.974,2.159,2.166l-0.005,3.008
					c0,30.058,1.432,59.224,2.871,84.008l120.588-0.299c-0.349-8.829-0.518-16.688-0.518-23.962c0-11.952,1.671-47.558,2.966-66.433
					c0.081-1.191,1.132-2.104,2.302-2.006c1.19,0.081,2.088,1.112,2.007,2.301c-1.291,18.812-2.956,54.262-2.956,66.138
					c0,7.824,0.198,16.336,0.605,26.024c0.024,0.588-0.191,1.16-0.597,1.584c-0.406,0.424-0.968,0.665-1.555,0.666
					C159.961,179.612,35.088,179.923,35.083,179.923z"/>
			</g>
			<g>
				<path style="fill:#525D7D;" d="M26.578,102.945c-0.676,0-1.323-0.318-1.735-0.874l-0.139-0.188
					c-2.784-3.764-4.795-6.484-10.031-6.484c-3.799,0-7.85,1.574-11.674,3.187c-0.772,0.325-1.658,0.176-2.279-0.381
					c-0.622-0.557-0.867-1.423-0.63-2.222c9.5-31.974,32.696-49.582,65.316-49.582c0.863,0,1.73,0.015,2.598,0.049
					c1.094,0.042,1.983,0.895,2.069,1.986c0.087,1.091-0.656,2.075-1.729,2.288c-10.485,2.097-33.895,24.346-39.658,50.527
					c-0.182,0.826-0.83,1.472-1.658,1.647C26.879,102.929,26.727,102.945,26.578,102.945z M14.673,91.08
					c5.314,0,8.481,2.249,10.9,4.944C31.267,76.6,45.846,59.162,57.797,51.057C32.363,53.393,14.474,67.719,5.623,92.904
					C8.561,91.857,11.597,91.08,14.673,91.08z"/>
			</g>
			<g>
				<path style="fill:#525D7D;" d="M66.198,50.721c-0.181,0-0.364-0.022-0.547-0.07c-9.164-2.394-29.936-22.277-29.936-36.029
					C35.715,4.783,40.766,0,51.156,0c6.746,0,17.045,1.566,25.715,5.963c10.036,5.088,15.34,12.597,15.34,21.714
					c0,4.519-0.828,9.04-1.629,13.411l-0.206,1.125c-0.213,1.172-1.342,1.952-2.511,1.737c-1.173-0.214-1.951-1.337-1.737-2.51
					l0.207-1.13c0.766-4.182,1.558-8.505,1.558-12.632c0-17.649-24.75-23.359-36.737-23.359c-8.108,0-11.123,2.793-11.123,10.303
					c0,11.327,19.165,29.881,26.709,31.852c1.154,0.301,1.845,1.48,1.543,2.634C68.032,50.078,67.157,50.721,66.198,50.721z"/>
			</g>
			<g>
				<path style="fill:#525D7D;" d="M67.707,50.94c-0.207,0-0.421-0.011-0.643-0.031c-1.188-0.108-2.063-1.158-1.955-2.346
					c0.108-1.189,1.153-2.058,2.345-1.955c0.087,0.008,0.171,0.014,0.252,0.014c1.193,0,2.159,0.967,2.159,2.159
					S68.899,50.94,67.707,50.94z"/>
			</g>
			<g>
				<path style="fill:#525D7D;" d="M87.856,49.996c-0.904,0-1.747-0.572-2.048-1.476C77.43,23.385,54.456,20.673,44.967,20.673
					c-1.905,0-3.861,0.11-5.813,0.327c-1.19,0.117-2.252-0.723-2.384-1.907c-0.132-1.185,0.723-2.253,1.907-2.385
					c2.11-0.233,4.226-0.353,6.289-0.353c10.425,0,35.672,3.001,44.937,30.799c0.377,1.131-0.234,2.355-1.366,2.731
					C88.313,49.96,88.083,49.996,87.856,49.996z"/>
			</g>
			<g>
				<path style="fill:#525D7D;" d="M83.734,46.622c-15.059-0.47-22.761-16.945-25.377-24.006c-0.414-1.119,0.157-2.361,1.275-2.775
					c1.117-0.42,2.359,0.155,2.775,1.274c2.312,6.242,9.025,20.803,21.393,21.19c1.192,0.036,2.128,1.033,2.091,2.225
					C85.855,45.7,84.896,46.622,83.734,46.622z"/>
			</g>
			<g>
				<path style="fill:#525D7D;" d="M123.827,48.589c-0.923,0-1.777-0.596-2.063-1.524c-0.351-1.14,0.289-2.349,1.429-2.699
					c1.018-0.313,2.364-0.557,3.922-0.839c7.777-1.41,20.791-3.769,20.791-18.786c0-9.8-3.355-11.592-9.961-11.592
					c-25.836,0-40.832,5.361-45.846,16.391c-0.493,1.087-1.772,1.569-2.859,1.071c-1.086-0.493-1.566-1.773-1.072-2.859
					C93.958,15.019,110.24,8.83,137.946,8.83c10.009,0,14.279,4.758,14.279,15.91c0,18.623-16.439,21.603-24.339,23.034
					c-1.423,0.259-2.652,0.481-3.423,0.718C124.251,48.558,124.038,48.589,123.827,48.589z"/>
			</g>
			<g>
				<path style="fill:#525D7D;" d="M88.632,48.882c-0.121,0-0.243-0.01-0.366-0.031c-1.175-0.201-1.966-1.316-1.765-2.492
					c3.631-21.266,32.346-21.266,47.772-21.266c9.355,0,12.342,0.34,15.535,2.734c0.954,0.715,1.148,2.068,0.433,3.022
					c-0.714,0.954-2.068,1.148-3.022,0.433c-1.965-1.472-3.797-1.871-12.946-1.871c-19.594,0-40.731,1.366-43.516,17.676
					C90.578,48.139,89.664,48.882,88.632,48.882z"/>
			</g>
			<g>
				<path style="fill:#525D7D;" d="M89.006,49.258c-1.193,0-2.159-0.967-2.159-2.159c0-1.192,0.966-2.159,2.159-2.159
					c10.045,0,20.678-6.099,28.444-16.315c0.722-0.952,2.075-1.134,3.026-0.413c0.95,0.721,1.134,2.076,0.413,3.025
					C112.31,42.52,100.392,49.258,89.006,49.258z"/>
			</g>
			<g>
				<path style="fill:#525D7D;" d="M133.999,122.785c-0.46,0-0.914-0.148-1.292-0.429c-6.652-4.969-12.129-7.283-17.238-7.283
					c-1.174,0-2.52,0.204-4.003,0.604c-0.838,0.231-1.733-0.072-2.267-0.759c-0.534-0.686-0.604-1.625-0.178-2.384
					c3.939-7.007,7.926-20.601,7.926-33.027c0-10.912-2.997-24.839-17.276-29.215c-0.927-0.285-1.551-1.153-1.526-2.121
					c0.025-0.97,0.694-1.803,1.635-2.038c0.167-0.051,0.715-0.322,1.155-0.54c2.33-1.157,6.666-3.307,12.95-3.307
					c6.401,0,13.762,4.221,19.209,11.017c4.542,5.665,9.955,15.694,9.955,31.302c0,11.692-2.363,24.06-7.024,36.763
					c-0.235,0.641-0.758,1.132-1.412,1.326C134.413,122.755,134.205,122.785,133.999,122.785z M115.47,110.756
					c5.431,0,11.029,2.058,17.453,6.446c3.856-11.279,5.809-22.232,5.809-32.595c0-24.469-14.692-38.001-24.847-38.001
					c-3.364,0-6.049,0.728-8.111,1.532c10.036,5.239,15.491,16.175,15.491,31.371c0,11.629-3.13,23.483-6.562,31.267
					C114.963,110.763,115.219,110.756,115.47,110.756z"/>
			</g>
			<g>
				<path style="fill:#525D7D;" d="M84.107,179.8c-1.071,0-2.001-0.797-2.139-1.888c-3.602-28.38-5.353-57.649-5.353-89.483
					c0-12.343,0.275-25.265,0.818-38.406c0.049-1.192,1.037-2.137,2.246-2.069c1.191,0.049,2.117,1.056,2.068,2.246
					c-0.54,13.084-0.814,25.945-0.814,38.229c0,31.649,1.739,60.742,5.319,88.94c0.15,1.182-0.687,2.263-1.87,2.413
					C84.29,179.795,84.198,179.8,84.107,179.8z"/>
			</g>
			<g>
				<path style="fill:#525D7D;" d="M107.157,179.744c-1.008,0-1.91-0.708-2.115-1.735c-4.607-22.993-10.269-81.545-10.269-106.189
					c0-7.152,0.249-14.129,0.741-20.739c0.089-1.189,1.113-2.079,2.314-1.993c1.189,0.089,2.082,1.125,1.993,2.314
					c-0.485,6.504-0.73,13.373-0.73,20.418c0,24.451,5.615,82.536,10.184,105.34c0.234,1.169-0.523,2.307-1.693,2.541
					C107.44,179.73,107.297,179.744,107.157,179.744z"/>
			</g>
		</g>
	</g>
</g>
<g id="Layer_1">
</g>
</svg>
