<?xml version="1.0" encoding="iso-8859-1"?>
<!-- Generator: Adobe Illustrator 21.0.2, SVG Export Plug-In . SVG Version: 6.00 Build 0)  -->
<svg version="1.1" xmlns="http://www.w3.org/2000/svg" xmlns:xlink="http://www.w3.org/1999/xlink" x="0px" y="0px"
	 viewBox="0 0 233.269 205.914" style="enable-background:new 0 0 233.269 205.914;" xml:space="preserve">
<g id="_x37_9">
	<g>
		<g>
			<g>
				<path style="fill:#E0DFE6;" d="M61.391,142.268c-2.881,1.617-4.567,5.19-6.658,7.688c-2.253,2.692-4.628,5.287-6.814,8.031
					c-1.463,1.837,0.35,4.791,2.657,3.444c3.197-1.866,6.09-4.311,8.665-6.966c2.337-2.409,5.865-5.437,6.51-8.845
					C66.224,143.127,63.77,140.933,61.391,142.268z"/>
			</g>
			<g>
				<path style="fill:#E0DFE6;" d="M233.196,71.235c-0.307-11.288,0.215-23.469-3.673-34.179c-1.143-3.148-4.827-4.149-7.17-2.509
					c-0.442-2.709-1.054-5.33-1.918-7.787c-0.063-0.179-0.147-0.33-0.219-0.496c1.131-0.379,2.213-0.834,3.223-1.391
					c3.555-1.959,2.248-6.686-1.04-7.954c-7.773-2.999-18.645-0.228-26.884,0.233c-10.013,0.561-20.023,1.139-30.044,1.562
					c-9.541,0.403-19.088,0.65-28.63,1.041c-9.242,0.379-18.814,0.122-27.885,2.101c-2.471,0.539-2.417,4.371,0,4.945
					c18.334,4.352,39.226,2.377,57.946,2.072c9.538-0.155,19.082-0.36,28.612-0.773c4.192-0.182,9.098,0.048,13.916-0.152
					c-0.017,0.106-0.049,0.202-0.062,0.31c-1.042,8.683,0.832,18.013,0.974,26.784c0.056,3.453,1.243,9.557-0.135,12.753
					c-1.906,4.419-11.521,4.105-15.418,4.47c-8.805,0.826-17.669,0.889-26.506,1.027c-9.171,0.143-18.716,1.5-27.824,1.144
					c-1.383-0.054-2.459,0.446-3.218,1.232c2.603-6.411,3.498-13.775,1.215-19.562c-1.137-2.882-4.592-3.418-6.413-0.838
					c-5.198,7.364-3.858,17.429-11.3,23.541c-3.343,2.745-6.424,4.288-7.587,8.803c-1.17,4.545-0.105,9.469-0.987,14.109
					c-1.906,10.018-7.372,19.03-15.342,25.385c-9.113,7.267-19.106,8.175-30.043,10.464c-0.993,0.208-1.149,1.689-0.282,2.158
					c9.538,5.159,22.109,2.77,31.591-1.414c10.775-4.754,18.71-13.77,23.224-24.522c2.119-5.047,3.302-10.372,3.653-15.837
					c0.142-2.208-0.743-5.829,0.413-7.769c0.974-1.635,4.22-3.053,5.612-4.517c1.881-1.979,3.581-4.483,4.982-7.253
					c-0.255,2.126,0.768,4.449,3.245,5.165c0.468,0.135,0.946,0.252,1.423,0.372c-4.905,1.611-9.4,4.118-10.996,6.099
					c-1.933,2.4-1.494,6.285,1.891,7.161c0.361,0.093,0.712,0.162,1.059,0.22c-1.922,1.293-3.859,2.566-5.762,3.879
					c-2.657,1.833-1.543,5.149,1.048,5.746c-0.254,0.448-0.465,0.919-0.573,1.429c-2.478,11.687-10.148,21.128-20.413,27.083
					c-6.062,3.517-12.648,5.69-19.401,7.431c-5.631,1.452-12.22,1.637-17.308,4.451c-1.62,0.896-1.719,3.559,0,4.428
					c6.216,3.141,14.665,2.142,21.373,1.182c8.182-1.171,16.172-3.821,23.317-8.007c11.011-6.45,19.63-16.493,23.542-28.567
					c7.728-0.349,15.627-1.769,21.245-7.508c3.266-3.336,5.121-7.331,5.522-11.503c9.543,0.414,19.088,0.432,28.632-0.247
					c9.685-0.689,21.784-0.983,30.771-4.86C233.662,88.458,233.428,79.776,233.196,71.235z M142.082,103.123
					c1.102-0.525,2.192-1.08,3.261-1.675c2.18-1.212,5.084-2.821,7.463-4.826C152.683,100.539,147.282,102.32,142.082,103.123z
					 M216.608,79.949c0.804-0.574,1.519-1.208,2.143-1.904C218.427,79.196,217.744,79.665,216.608,79.949z"/>
			</g>
			<g>
				<path style="fill:#E0DFE6;" d="M104.081,65.904c-1.471-5.12-7.835-5.375-10.656-1.393c-2.14,3.02-4.154,6.108-6.167,9.214
					c-1.825,2.814-3.948,5.85-4.416,9.235c-0.146,1.052,0.596,2.024,1.743,1.743c2.783-0.681,5.164-2.46,7.394-4.271
					c0.107,0.095,0.203,0.205,0.316,0.29c2.579,1.927,5.672,1.552,8.074-0.481C104.393,76.836,105.484,70.786,104.081,65.904z"/>
			</g>
			<g>
				<path style="fill:#E0DFE6;" d="M59.861,160.682c-2.002-1.603-4.863-1.597-6.305,0.812c-2.175,3.634-1.752,6.621-0.863,10.674
					c0.57,2.598,1.009,4.839,0.994,6.998c-4.272,2.248-7.891,5.183-11.69,8.155c-1.937,1.516,0.566,4.68,2.616,3.391
					c2.433-1.53,4.814-3.015,7.097-4.651c-0.176,0.298-0.365,0.599-0.569,0.904c-2.312,3.452-5.616,7.002-8.856,9.631
					c-1.7,1.379-5.191,1.559-6.346,3.208l-0.413,0.59c-0.461,0.658-0.407,1.694,0,2.358c5.573,9.091,20.345-3.818,24.663-8.805
					C67.45,185.562,69.461,168.369,59.861,160.682z"/>
			</g>
		</g>
		<g>
			<g>
				<path style="fill:#525D7D;" d="M131.516,87.352c-1.185,0-2.149-0.954-2.159-2.141c-0.01-1.192,0.949-2.168,2.141-2.177
					l77.1-0.645c3.031-0.024,5.956-1.318,8.029-3.548c2.078-2.238,3.161-5.267,2.974-8.31c-0.596-9.644-0.873-20.084-0.873-32.857
					c0-7.103,0.081-14.188,0.181-22.049c0.038-2.987-1.144-5.914-3.244-8.029c-2.071-2.087-4.935-3.278-7.87-3.278
					c-0.034,0-0.066,0-0.098,0L116.64,5.163c-6.109,0.058-11.044,5.101-11.002,11.242l0.387,55.66
					c0.004,0.675,0.07,1.355,0.197,2.021c0.222,1.172-0.548,2.301-1.719,2.523c-1.178,0.216-2.302-0.547-2.523-1.719
					c-0.174-0.921-0.266-1.861-0.273-2.794l-0.387-55.66c-0.059-8.517,6.796-15.511,15.281-15.591L207.658,0
					c4.061-0.024,8.164,1.622,11.074,4.554c2.91,2.934,4.549,6.989,4.497,11.124c-0.1,7.848-0.181,14.918-0.181,21.995
					c0,12.682,0.274,23.038,0.864,32.591c0.26,4.217-1.243,8.414-4.12,11.514c-2.879,3.098-6.945,4.894-11.158,4.928
					C208.633,86.707,131.534,87.352,131.516,87.352z"/>
			</g>
			<g>
				<path style="fill:#525D7D;" d="M103.499,21.684c-1.102,0-2.044-0.841-2.146-1.961c-0.111-1.186,0.763-2.238,1.951-2.347
					c0.468-0.044,0.943-0.076,1.425-0.091c18.83-0.621,37.966-0.706,56.473-0.787c19.593-0.086,39.854-0.176,59.762-0.902
					c1.154-0.055,2.193,0.887,2.236,2.079c0.044,1.192-0.887,2.193-2.079,2.236c-19.978,0.73-40.273,0.818-59.901,0.905
					c-18.476,0.082-37.58,0.166-56.351,0.784c-0.398,0.013-0.786,0.039-1.169,0.074C103.632,21.681,103.566,21.684,103.499,21.684z"
					/>
			</g>
			<g>
				<path style="fill:#525D7D;" d="M103.594,35.037c-1.181,0-2.145-0.95-2.159-2.134c-0.014-1.192,0.942-2.17,2.134-2.184
					c29.086-0.336,58.668-1.216,87.277-2.065c10.004-0.298,20.008-0.595,30.012-0.87c1.226-0.001,2.184,0.926,2.217,2.099
					c0.034,1.192-0.907,2.184-2.099,2.217c-10,0.277-20.001,0.573-30.002,0.87C162.347,33.82,132.744,34.7,103.594,35.037z"/>
			</g>
			<g>
				<path style="fill:#525D7D;" d="M181.462,72.383c-1.139,0-2.087-0.888-2.153-2.034c-0.193-3.327-0.287-6.672-0.377-9.908
					c-0.081-2.928-0.166-5.954-0.323-8.947c-0.055-1.053,0.658-1.992,1.685-2.221c6.404-1.429,13.023-1.539,19.425-1.644
					c2.534-0.041,5.157-0.084,7.72-0.21c0.576-0.02,1.139,0.174,1.563,0.564c0.424,0.388,0.676,0.931,0.7,1.505
					c0.149,3.7,0.44,7.516,0.723,11.206c0.205,2.69,0.41,5.372,0.564,8.029c0.065,1.095-0.704,2.065-1.785,2.252
					c-6.508,1.133-13.145,1.195-19.565,1.255c-2.655,0.024-5.4,0.051-8.092,0.152C181.517,72.383,181.49,72.383,181.462,72.383z
					 M183.01,53.128c0.105,2.425,0.173,4.841,0.239,7.193c0.07,2.519,0.142,5.105,0.261,7.68c2.048-0.051,4.093-0.07,6.086-0.089
					c5.86-0.055,11.428-0.107,16.959-0.891c-0.131-1.989-0.284-3.992-0.437-5.998c-0.23-3.021-0.468-6.124-0.631-9.203
					c-1.917,0.065-3.83,0.096-5.698,0.127C193.96,52.043,188.42,52.134,183.01,53.128z"/>
			</g>
			<g>
				<path style="fill:#525D7D;" d="M197.823,72.191c-0.326,0-0.658-0.073-0.969-0.231c-2.973-1.494-7.947-3.996-7.947-10.542
					c0-5.909,4.417-11.37,10.056-12.431c1.161-0.232,2.301,0.548,2.52,1.722c0.221,1.171-0.55,2.3-1.722,2.52
					c-3.542,0.668-6.536,4.418-6.536,8.189c0,3.598,2.414,5.098,5.569,6.685c1.065,0.535,1.494,1.833,0.959,2.898
					C199.373,71.756,198.613,72.191,197.823,72.191z"/>
			</g>
			<g>
				<path style="fill:#525D7D;" d="M181.679,62.922c-1.192,0-2.159-0.967-2.159-2.159c0-1.192,0.967-2.159,2.159-2.159
					c3.078,0,6.261,0,9.363-0.077c1.178,0.027,2.183,0.914,2.212,2.106c0.028,1.192-0.914,2.183-2.106,2.212
					C187.993,62.922,184.782,62.922,181.679,62.922z"/>
			</g>
			<g>
				<path style="fill:#525D7D;" d="M78.969,146.49c-6.158,0-12.897-0.85-20.027-2.527c-1.16-0.273-1.879-1.435-1.607-2.596
					c0.271-1.16,1.424-1.881,2.596-1.607c6.806,1.601,13.212,2.412,19.038,2.412c26.453,0,42.246-17.255,42.246-46.158
					c0-1.376-0.086-2.994-0.127-3.77c-0.015-0.297-0.024-0.489-0.024-0.538c0-0.329,0.013-0.651,0.027-0.967
					c0.034-0.788,0.498-1.496,1.206-1.843c6.514-3.194,15.175-9.319,15.175-25.574c0-3.974-1.815-10.645-3.389-12.046
					c-5.242,4.833-31.954,29.191-53.071,43.334c-0.992,0.662-2.333,0.398-2.995-0.592c-0.663-0.991-0.399-2.332,0.592-2.995
					c23.118-15.484,53.139-43.466,53.44-43.748c0.401-0.374,0.928-0.582,1.474-0.582c7.522,0,8.268,16.463,8.268,16.629
					c0,13.528-5.363,22.974-16.383,28.834c0.045,0.857,0.125,2.449,0.125,3.859C125.533,127.621,108.126,146.49,78.969,146.49z"/>
			</g>
			<g>
				<path style="fill:#525D7D;" d="M124.274,110.052c-0.365,0-0.728-0.006-1.088-0.017c-1.192-0.034-2.13-1.029-2.094-2.221
					c0.035-1.19,0.997-2.191,2.221-2.094c0.318,0.008,0.638,0.014,0.962,0.014c10.149,0,26.249-5.149,26.249-18.963
					c0-0.294-0.007-0.59-0.022-0.89c-0.06-1.191,0.857-2.205,2.048-2.264c1.199-0.02,2.204,0.856,2.264,2.048
					c0.018,0.372,0.028,0.742,0.028,1.106c0,7.302-3.622,13.448-10.475,17.773C138.82,108.044,131.496,110.052,124.274,110.052z"/>
			</g>
			<g>
				<path style="fill:#525D7D;" d="M145.929,101.541c-0.883,0-1.712-0.545-2.03-1.424c-0.437-1.206-0.783-2.482-1.116-3.715
					c-0.87-3.213-1.692-6.249-3.972-8.082c-0.931-0.746-1.078-2.106-0.33-3.035c0.748-0.932,2.11-1.075,3.035-0.33
					c3.376,2.713,4.47,6.754,5.436,10.319c0.325,1.2,0.632,2.336,1.008,3.374c0.406,1.122-0.174,2.36-1.295,2.765
					C146.421,101.5,146.174,101.541,145.929,101.541z"/>
			</g>
			<g>
				<path style="fill:#525D7D;" d="M135.549,108.491c-1.131,0-2.082-0.88-2.153-2.024c-0.343-5.507-4.379-10.622-8.282-14.9
					c-0.803-0.88-0.741-2.246,0.141-3.05c0.878-0.798,2.246-0.741,3.05,0.14c4.41,4.833,8.975,10.697,9.401,17.54
					c0.074,1.19-0.831,2.215-2.02,2.29C135.639,108.49,135.594,108.491,135.549,108.491z"/>
			</g>
			<g>
				<path style="fill:#525D7D;" d="M2.161,143.634c-0.742,0-1.465-0.384-1.867-1.071c-0.6-1.03-0.253-2.352,0.777-2.953
					c37.202-21.7,37.287-23.053,38.336-39.619c0.349-5.483,0.78-12.309,2.47-21.811c0.318-1.792,0.54-3.454,0.753-5.06
					c2.142-16.087,5.475-21.363,61.133-25.263c1.178-0.101,2.22,0.814,2.304,2.003c0.084,1.189-0.813,2.221-2.003,2.304
					c-54.797,3.84-55.44,8.656-57.153,21.527c-0.219,1.652-0.447,3.361-0.783,5.246c-1.646,9.263-2.069,15.953-2.411,21.328
					c-1.172,18.505-2.37,20.853-40.47,43.077C2.906,143.54,2.531,143.634,2.161,143.634z"/>
			</g>
			<g>
				<path style="fill:#525D7D;" d="M49.826,166.804c-0.531,0-1.063-0.194-1.479-0.586c-0.869-0.817-0.911-2.183-0.094-3.052
					c7.373-7.842,14.745-14.557,21.914-19.959c0.949-0.717,2.305-0.529,3.024,0.426c0.717,0.952,0.527,2.305-0.426,3.024
					c-6.972,5.254-14.16,11.803-21.366,19.467C50.974,166.577,50.401,166.804,49.826,166.804z"/>
			</g>
			<g>
				<path style="fill:#525D7D;" d="M37.14,203.106c-0.551,0-1.102-0.209-1.524-0.628c-0.845-0.842-0.848-2.208-0.007-3.054
					c6.844-6.874,14.188-13.016,21.749-19.153c-0.55-0.624-1.098-1.299-1.61-2.023c-3.486-4.945-6.837-9.785-10.136-14.548
					c-7.035-10.16-13.68-19.755-20.961-29.421c-0.717-0.952-0.527-2.305,0.426-3.024c0.953-0.717,2.305-0.529,3.024,0.426
					c7.333,9.734,14.001,19.364,21.061,29.561c3.293,4.754,6.637,9.584,10.116,14.519c0.842,1.195,1.881,2.293,2.787,3.229
					c0.422,0.436,0.641,1.027,0.604,1.633c-0.037,0.605-0.326,1.167-0.797,1.548c-8.101,6.552-15.97,13.035-23.203,20.302
					C38.249,202.894,37.694,203.106,37.14,203.106z"/>
			</g>
			<g>
				<path style="fill:#525D7D;" d="M42.386,186.636c-0.063,0-0.127,0-0.19-0.003c-3.556-0.089-6.323-2.709-6.431-6.093
					c-0.058-1.825,0.779-3.562,2.353-4.89c1.712-1.446,3.84-2.11,5.84-1.824c3.073,0.441,5.237,3.011,5.267,6.247
					c0.017,1.664-0.697,3.331-1.958,4.573C45.958,185.934,44.23,186.636,42.386,186.636z M40.904,178.949
					c-0.256,0.215-0.845,0.787-0.824,1.455c0.035,1.077,0.971,1.882,2.227,1.913c0.988,0.051,1.636-0.458,1.931-0.751
					c0.43-0.423,0.675-0.953,0.669-1.453c-0.01-1.122-0.593-1.874-1.56-2.013C42.581,178,41.651,178.318,40.904,178.949z"/>
			</g>
		</g>
	</g>
</g>
<g id="Layer_1">
</g>
</svg>
