<?xml version="1.0" encoding="iso-8859-1"?>
<!-- Generator: Adobe Illustrator 21.0.2, SVG Export Plug-In . SVG Version: 6.00 Build 0)  -->
<svg version="1.1" xmlns="http://www.w3.org/2000/svg" xmlns:xlink="http://www.w3.org/1999/xlink" x="0px" y="0px"
	 viewBox="0 0 183.889 215.551" style="enable-background:new 0 0 183.889 215.551;" xml:space="preserve">
<g id="_x38_">
	<g>
		<path style="fill:#E0DFE6;" d="M117.572,12.32c-4.067,0.057-8.165,0.747-12.208,1.202c-3.73,0.42-7.752,0.426-11.237,1.872
			c-2.573,1.068-2.925,4.654,0,5.606c3.575,1.163,7.507,0.904,11.237,1.019c4.053,0.126,8.164,0.48,12.208,0.207
			C123.868,21.803,124.013,12.229,117.572,12.32z"/>
		<path style="fill:#E0DFE6;" d="M120.992,58.431c-5.041-2.628-13.046-8.46-19.923-9.382c-0.989-3.941-5.289-7.28-9.797-4.596
			c-7.913,4.712-15.994,9.116-24.026,13.617c-6.224,3.488-15.122,6.564-19.078,12.706c-0.649,1.007-0.021,2.486,1.125,2.766
			c7.494,1.832,16.705-2.916,23.587-5.636c0.023-0.009,0.046-0.02,0.069-0.029c-0.298,2.235,1.682,4.726,4.207,3.856
			c6.059-2.088,11.318-5.878,17.28-8.223c4.192-1.649,5.374-0.628,9.25,1.389c3.458,1.8,6.904,3.619,10.403,5.339
			C121.928,74.092,128.846,62.525,120.992,58.431z"/>
		<path style="fill:#E0DFE6;" d="M54.159,117.997c-1.159-7.957-1.488-19.203-7.311-25.264c-0.631-0.657-1.807-0.506-2.25,0.29
			c-3.923,7.037-1.886,17.291-1.535,25.034c0.232,5.13,0.351,10.273,0.502,15.415c-0.322-4.211-0.673-8.42-1.179-12.612
			c-1.063-8.792-2.456-17.444-4.427-26.08c-0.016-0.071-0.047-0.144-0.069-0.216c0.349,0.038,0.695,0.088,1.049,0.112
			c5.121,0.348,6.288-7.962,1.219-9.007c-2.703-0.557-5.371-0.656-8.122-0.536c-2.353,0.102-5.065-0.097-7.136,1.123
			c-1.359,0.801-1.569,2.674-0.489,3.794c1.534,1.591,3.938,2.164,6.051,2.815c-0.837,0.788-1.388,1.825-1.353,3.113
			c0.316,11.732,0.993,23.436,1.59,35.157c0.36,7.067-2.352,20.119,4.637,24.582c3.057,1.952,6.98,0.505,8.843-2.319
			c0.11-0.167,0.22-0.334,0.331-0.501c0.334-0.506,0.558-1.029,0.703-1.557c3.148,5.182,12.685,4.245,12.356-3.145
			C57.119,138.102,55.614,127.991,54.159,117.997z M43.84,145.817c-0.343-1.838-0.188-5.104-0.113-7.62
			c0.097,2.665,0.225,5.326,0.386,7.984C44.025,146.058,43.935,145.936,43.84,145.817z"/>
		<path style="fill:#E0DFE6;" d="M90.818,141.647c-0.679-0.655-1.112-7.985-1.395-10.032c-0.673-4.88-1.268-9.772-1.821-14.667
			c-0.925-8.203-1.489-16.545-3.045-24.657c-0.251-1.308-1.495-1.94-2.701-1.897c-0.177-2.235-2.083-4.036-4.346-4.051
			c-3.528-0.023-7.044,0.132-10.576,0.038c-1.754-0.047-3.296,1.39-3.498,3.088c-0.224,1.885,0.858,3.227,2.551,3.908
			c0.536,0.216,1.087,0.41,1.645,0.594c-2.769,8.401-2.783,18.078-3.181,26.781c-0.466,10.178-0.406,20.463,0.053,30.641
			c0.254,5.632,7.294,9.141,11.499,4.763c1.941-2.021,2.833-3.687,3.884-6.267c0.083-0.203,0.116-0.392,0.177-0.589
			c0.851,1.168,2.046,2.115,3.432,2.328c0.462,0.071,0.925,0.142,1.387,0.214C90.463,152.702,95.611,146.273,90.818,141.647z
			 M77.257,143.001c-0.647-7.415-1.298-14.827-1.902-22.248c-0.681-8.364-0.578-17.422-2.647-25.661
			c1.607,0.182,3.225,0.205,4.801,0.013c0.534-0.065,1.048-0.203,1.529-0.394c-1.246,8.258-1.362,16.728-1.41,25.052
			c-0.043,7.367-0.913,16.166,0.457,23.733C77.823,143.314,77.549,143.147,77.257,143.001z"/>
		<path style="fill:#E0DFE6;" d="M133.026,141.82c-2.528-16.537-4.338-33.177-6.941-49.702c-0.367-2.332-2.485-2.794-4.211-2.071
			c-0.74-1.174-2.024-1.987-3.547-1.991c-3.248-0.009-6.528-0.072-9.765,0.243c-3.217,0.313-4.472,4.735-1.564,6.13
			c-4.924,5.552-2.519,18.328-2.342,24.824c0.158,5.797,0.373,11.598,0.841,17.38c0.391,4.821,0.167,10.514,2.542,14.843
			c2.156,3.931,8.325,4.923,11.4,1.469c0.12-0.135,0.24-0.269,0.36-0.404c0.999-1.122,1.588-2.326,1.834-3.553
			C125.918,152.431,134.217,149.608,133.026,141.82z M118.362,130.51c-0.882-5.457-1.756-10.911-2.488-16.392
			c-0.693-5.196-0.163-13.658-3.384-18.435c1.567,0.266,3.141,0.496,4.705,0.736c0.737,0.113,1.458,0.077,2.129-0.077
			c-0.965,13.553-0.838,27.171-0.376,40.751C118.744,134.729,118.658,132.342,118.362,130.51z"/>
		<path style="fill:#E0DFE6;" d="M174.029,155.698c0.608-1.009,1.004-2.229,1.02-3.716c0.119-10.932-0.965-22.141-2.392-32.976
			c-1.42-10.787-6.462-22.797-0.026-32.675c7.436-5.793,14.323-15.048,9.829-22.706c-3.235-5.512-12.405-7.055-17.857-8.946
			c-9.159-3.177-18.419-5.841-27.741-8.499c-1.707-0.487-2.708,1.939-1.199,2.844c9.173,5.495,18.34,10.835,27.807,15.808
			c1.95,1.024,4.943,1.864,6.475,3.328c1.958,1.871,1.719,0.306,0.646,2.935c-1.731,4.241-7.746,6.238-11.379,8.186
			c-3.63,1.947-3.791,6.359-1.97,9.351c-1.177,5.178-1.595,10.68-1.835,16.075c-0.291-3.923-0.669-7.832-1.155-11.727
			c2.125-2.155,1.253-7.273-2.656-6.934c-2.772,0.241-5.545,0.481-8.316,0.737c-4.102,0.379-4.11,6.007,0,6.387
			c0.641,0.059,1.282,0.113,1.923,0.171c-3.625,17.163-2.501,36.043-1.203,53.301c0.493,6.551,7.998,8.332,11.967,5.643
			c0.52,4.53,1.918,8.38,6.911,10.732c2.983,1.405,5.811,3.161,4.31,7.186c-1.67,4.478-7.081,4.799-11.046,4.693
			c-0.276-0.007-0.53,0.034-0.791,0.062c-0.015-0.031-0.028-0.063-0.043-0.094c-1.602-3.236-6.913-2.42-7.707,1.007
			c-0.611,2.634-0.841,5.538-0.834,8.524c-1.005-4.96-1.548-10.002-1.969-15.07c-0.305-3.665-5.084-4.355-6.353-0.86
			c-2.212,6.094-2.869,12.303-2.557,18.625c-13.854,1.053-27.874,4.165-41.581,5.958c-14.895,1.949-29.746,3.79-44.45,6.9
			c-1.827,0.386-1.227,2.906,0.414,3.056c1.06,0.097,2.12,0.163,3.179,0.243c-1.974,0.42-3.874,0.994-5.641,1.806
			c-1.279,0.588-1.18,2.635,0,3.252c8.296,4.343,20.844,3.96,30.051,4.731c11.624,0.974,23.271,1.538,34.926,1.952
			c11.594,0.412,23.328,0.74,34.928,0.455c7.172-0.176,15.595-1.599,18.783-8.969c1.041-2.407,0.927-4.674,0.114-6.528
			c3.462-3.952,7.213-7.623,10.969-11.41c2.972-2.997,1.428-6.946-1.36-8.628c0.754-0.954,1.446-1.981,2.034-3.115
			C181.848,169.869,179.863,160.745,174.029,155.698z M144.804,200.38c-4.183,0.042-8.366,0.039-12.549,0.044
			c3.473-0.484,6.907-1.083,10.265-1.861c2.067,0.069,4.138-0.775,5.309-2.36c0.236,1.471,0.488,2.918,0.76,4.293
			C147.133,200.498,145.712,200.371,144.804,200.38z"/>
		<g>
			<g>
				<path style="fill:#525D7D;" d="M17.445,178.495c-9.175,0-10.166-5.553-10.166-7.941c0-5.401,6.018-8.807,11.694-10.816
					c-1.411-27.671-2.761-52.838-4.755-78.423c-1.418,0.203-2.813,0.345-4.176,0.345C3.84,81.661,0,78.277,0,75.144
					c0-3.863,9.147-9.355,69.708-38.281c7.362-3.517,14.306-6.833,20.205-9.7c0.638-0.313,1.385-0.3,2.016,0.026
					c4.748,2.465,11.452,5.898,18.982,9.754c17.919,9.173,40.218,20.591,52.351,27.262l1.933,1.072
					c1.711,0.955,3.328,1.855,4.957,2.667c0.923,0.461,1.414,1.491,1.189,2.497c-0.455,2.047-2.876,8.453-15.255,9.242
					c1.736,19.287,2.116,38.731,2.484,57.559c0.14,7.195,0.285,14.619,0.504,21.966c4.239,0.886,10.44,2.895,10.44,9.527
					c0,4.834-5.821,8.514-8.733,8.514h-8.093c-1.24,0-2.246-1.006-2.246-2.246s1.006-2.246,2.246-2.246h8.093
					c0.988-0.082,4.242-2.041,4.242-4.022c0-2.882-2.234-4.308-8.538-5.451c-1.043-0.189-1.81-1.079-1.844-2.138
					c-0.252-7.958-0.41-16.021-0.561-23.817c-0.382-19.518-0.776-39.702-2.686-59.597c-0.06-0.629,0.146-1.255,0.57-1.722
					c0.424-0.468,1.026-0.737,1.658-0.738c7.258-0.025,11.142-2.022,12.659-4.272c-1.079-0.576-2.157-1.177-3.274-1.798l-1.91-1.06
					c-12.075-6.638-34.342-18.04-52.234-27.2c-7.024-3.597-13.331-6.825-18.004-9.245c-5.682,2.755-12.263,5.898-19.217,9.22
					C46.73,52.815,9.481,70.608,4.688,75.417c0.548,0.594,2.233,1.752,5.354,1.752c1.782,0,3.702-0.303,5.846-0.67
					c0.62-0.108,1.26,0.053,1.757,0.442c0.499,0.386,0.81,0.965,0.86,1.594c2.145,27.009,3.551,53.424,5.04,82.68
					c0.053,1.022-0.594,1.95-1.57,2.258c-6.2,1.945-10.204,4.724-10.204,7.081c0,1.032,0,3.449,5.675,3.449
					c1.823,0,4.034-0.249,6.395-0.718c1.208-0.241,2.398,0.548,2.641,1.766c0.241,1.217-0.55,2.398-1.766,2.641
					C22.871,178.058,20.113,178.495,17.445,178.495z"/>
			</g>
			<g>
				<path style="fill:#525D7D;" d="M62.023,75.993c-8.963,0-17.938-0.113-26.671-0.335c-1.024-0.026-1.901-0.743-2.132-1.74
					c-0.23-0.999,0.244-2.027,1.152-2.499c10.117-5.259,20.6-10.513,30.739-15.591c8.669-4.344,17.632-8.834,26.316-13.306
					c0.689-0.352,1.515-0.329,2.18,0.07c13.961,8.349,28.747,17.319,42.591,27.122c0.778,0.553,1.124,1.537,0.86,2.453
					c-0.263,0.917-1.078,1.567-2.031,1.623C109.004,75.273,85.124,75.993,62.023,75.993z M44.306,71.354
					c26.706,0.447,53.929-0.107,83.945-1.69c-11.782-8.039-24.107-15.528-35.878-22.576c-8.356,4.293-16.939,8.591-25.25,12.756
					C59.608,63.609,51.904,67.469,44.306,71.354z"/>
			</g>
			<g>
				<path style="fill:#525D7D;" d="M53.23,157.481c-2.829,0-5.724-0.161-8.523-0.316c-1.328-0.075-2.65-0.148-3.96-0.203
					c-1.174-0.051-2.111-0.999-2.148-2.174c-0.287-9.141-0.844-18.375-1.385-27.303c-0.762-12.604-1.548-25.637-1.584-38.624
					c-0.003-1.228,0.981-2.231,2.208-2.252c4.623-0.078,9.504-0.228,15.825-0.49c1.196-0.059,2.268,0.898,2.335,2.125
					c0.575,10.747,1.148,21.594,1.721,32.442c0.608,11.472,1.215,22.943,1.822,34.293c0.066,1.222-0.86,2.272-2.081,2.36
					C56.141,157.434,54.756,157.481,53.23,157.481z M43.019,152.574c0.643,0.034,1.29,0.07,1.936,0.105
					c2.739,0.152,5.569,0.31,8.274,0.31c0.591,0,1.158-0.007,1.706-0.022c-0.567-10.615-1.135-21.33-1.7-32.043
					c-0.535-10.103-1.069-20.205-1.604-30.227c-4.363,0.171-8.045,0.287-11.496,0.361c0.111,12.132,0.848,24.333,1.563,36.155
					C42.201,135.501,42.717,144.051,43.019,152.574z"/>
			</g>
			<g>
				<path style="fill:#525D7D;" d="M76.364,155.792c-0.586,0-1.149-0.23-1.569-0.639c-0.433-0.423-0.677-1.001-0.677-1.607
					c-0.003-23.816-0.2-43.679-2.649-64.373c-0.076-0.639,0.126-1.279,0.553-1.759c0.427-0.478,1.037-0.751,1.677-0.751
					c2.898,0.009,5.784,0.117,8.577,0.222c2.708,0.102,5.508,0.208,8.258,0.218c1.139,0.004,2.095,0.861,2.223,1.994
					c2.097,18.59,3.377,38.974,4.031,64.149c0.032,1.237-0.942,2.268-2.18,2.303c-3.256,0.095-6.583,0.117-9.799,0.139
					C82.005,155.707,79.202,155.726,76.364,155.792z M76.218,91.185c2.287,20.903,2.385,42.354,2.392,60.071
					c2.051-0.031,4.109-0.045,6.167-0.06c2.453-0.016,4.97-0.034,7.46-0.082c-0.643-23.137-1.834-42.171-3.726-59.542
					c-2.158-0.04-4.309-0.12-6.406-0.199C80.174,91.301,78.197,91.226,76.218,91.185z"/>
			</g>
			<g>
				<path style="fill:#525D7D;" d="M128.523,155.836c-3.734,0-7.458-0.36-11.06-0.708l-0.771-0.075
					c-1.108-0.107-1.972-1.01-2.028-2.122c-0.351-6.936-0.754-13.814-1.155-20.672c-0.797-13.617-1.622-27.696-1.99-41.762
					c-0.031-1.124,0.778-2.098,1.889-2.277c5.657-0.905,11.453-1.028,16.378-1.028l1.211,0.003c1.092,0.004,2.024,0.794,2.206,1.872
					c1.711,10.127,1.978,20.575,2.236,30.679c0.278,10.889,0.564,22.147,2.686,32.828c0.117,0.595-0.01,1.214-0.355,1.714
					c-0.345,0.499-0.877,0.838-1.477,0.939C133.856,155.637,131.313,155.836,128.523,155.836z M119.052,150.768
					c3.233,0.31,6.327,0.576,9.472,0.576c1.679,0,3.252-0.078,4.759-0.237c-1.8-10.329-2.07-20.95-2.333-31.245
					c-0.238-9.318-0.484-18.933-1.876-28.176c-4.005,0.01-8.54,0.121-13.009,0.692c0.39,13.33,1.173,26.684,1.929,39.618
					C118.358,138.228,118.724,144.476,119.052,150.768z"/>
			</g>
			<g>
				<path style="fill:#525D7D;" d="M55.07,204.115c-2.797,0-5.677-0.205-8.463-0.404c-2.728-0.194-5.55-0.395-8.231-0.395
					c-0.721,0-1.456,0.022-2.025,0.04c-0.401,0.012-0.727,0.02-0.928,0.02c-0.455,0-0.92-0.012-1.39-0.026
					c-1.12-0.032-2.044-0.886-2.167-1.999c-1.453-13.252-2.354-24.93-2.753-35.704c-0.023-0.62,0.212-1.222,0.649-1.664
					c0.436-0.44,1.034-0.716,1.657-0.664c5.562,0.151,11.444,0.228,17.483,0.228c25.01,0,50.52-1.315,75.191-2.585
					c6.746-0.348,13.487-0.695,20.217-1.016c1.152-0.042,2.189,0.798,2.335,1.962c1.196,9.483,1.953,19.1,2.686,28.399
					c0.227,2.875,0.452,5.749,0.692,8.624c0.051,0.611-0.151,1.217-0.558,1.676c-0.408,0.459-0.985,0.733-1.598,0.754l-12.113,0.448
					C109.55,202.781,73.665,204.115,55.07,204.115z M38.377,198.825c2.84,0,5.742,0.206,8.549,0.406
					c2.708,0.193,5.506,0.392,8.144,0.392c18.511,0,54.348-1.332,80.516-2.303l9.767-0.361c-0.171-2.1-0.336-4.199-0.501-6.297
					c-0.674-8.571-1.37-17.413-2.411-26.129c-6.031,0.292-12.073,0.604-18.118,0.915c-24.728,1.274-50.297,2.591-75.422,2.591
					c-5.217,0-10.32-0.057-15.204-0.17c0.409,9.453,1.205,19.638,2.417,30.999c0.034-0.001,0.069-0.001,0.104-0.003
					C36.826,198.848,37.609,198.825,38.377,198.825z"/>
			</g>
			<g>
				<path style="fill:#525D7D;" d="M50.971,194.945c-2.85,0-3.135-2.737-4.335-14.259c-0.29-2.781-0.589-5.659-0.895-7.779
					c-0.177-1.228,0.674-2.366,1.902-2.543c0.275-0.041,0.548-0.029,0.809,0.029c0.861-0.215,1.701-0.32,2.541-0.32
					c3.721,0,7.675,2.028,7.675,5.787c0,0.728-0.116,1.415-0.341,2.05c3.318,0.994,6.78,3.126,6.78,6.254
					c0,0.172-0.01,0.341-0.031,0.5C64.279,191.338,57.213,194.945,50.971,194.945z M51.301,182.114
					c0.32,3.012,0.713,6.483,1.079,8.26c3.938-0.445,7.814-2.712,8.238-6.254c-0.313-0.703-3.768-2.358-6.175-2.358
					c-0.196,0-0.379,0.001-0.548,0.003C52.902,182.054,51.972,182.15,51.301,182.114z M50.488,174.589
					c0.111,0.93,0.222,1.918,0.33,2.929c0.233-0.06,0.491-0.107,0.781-0.137c0.412-0.044,0.917-0.075,1.505-0.092
					c0.256-0.111,0.497-0.253,0.686-0.428c0.19-0.18,0.386-0.44,0.386-0.999C54.176,175.304,52.506,174.395,50.488,174.589z"/>
			</g>
			<g>
				<path style="fill:#525D7D;" d="M82.841,195.59c-1.06,0-2.003-0.754-2.205-1.835c-0.762-4.088-0.947-8.279-1.127-12.332
					c-0.089-2.005-0.18-4.059-0.342-6.08c-6.069,2.543-6.783,11.115-6.783,14.984c0,0.716,0.023,1.411,0.064,2.075
					c0.077,1.239-0.864,2.304-2.103,2.38c-1.258,0.094-2.304-0.867-2.38-2.103c-0.047-0.752-0.073-1.54-0.073-2.353
					c0-11.419,4.837-18.916,12.94-20.051c0.598-0.08,1.203,0.076,1.681,0.445c0.48,0.368,0.788,0.914,0.86,1.513
					c0.357,2.996,0.493,6.042,0.623,8.989c0.181,4.078,0.352,7.929,1.056,11.709c0.227,1.22-0.578,2.392-1.797,2.619
					C83.116,195.578,82.977,195.59,82.841,195.59z"/>
			</g>
			<g>
				<path style="fill:#525D7D;" d="M69.923,187.724c-1.18,0-2.17-0.92-2.24-2.113c-0.075-1.238,0.87-2.301,2.108-2.374
					c1.212-0.073,2.396-0.194,3.573-0.314c2.374-0.244,4.86-0.497,7.431-0.341c1.238,0.075,2.181,1.137,2.107,2.376
					c-0.075,1.238-1.159,2.181-2.376,2.107c-2.253-0.136-4.397,0.088-6.704,0.325c-1.24,0.127-2.487,0.254-3.765,0.33
					C70.012,187.722,69.967,187.724,69.923,187.724z"/>
			</g>
			<g>
				<path style="fill:#525D7D;" d="M92.467,194.501c-0.133,0-0.266-0.012-0.401-0.035c-1.221-0.221-2.032-1.388-1.813-2.608
					c0.994-5.521,1.266-11.254,1.477-17.132c0.029-0.812,0.494-1.544,1.217-1.917c0.721-0.37,1.588-0.322,2.266,0.124
					c3.838,2.537,6.83,6.587,9.226,10.525c0.531-3.091,0.896-6.134,0.896-9.122c0-0.752-0.023-1.505-0.073-2.256
					c-0.08-1.238,0.857-2.307,2.094-2.389c1.253-0.066,2.307,0.857,2.389,2.094c0.056,0.851,0.082,1.7,0.082,2.551
					c0,5.31-1.018,10.584-2.152,15.971c-0.194,0.92-0.942,1.622-1.872,1.759c-0.946,0.142-1.848-0.325-2.298-1.148
					c-1.921-3.528-4.378-8.036-7.479-11.38c-0.219,4.436-0.575,8.802-1.351,13.115C94.479,193.739,93.532,194.501,92.467,194.501z"
					/>
			</g>
			<g>
				<path style="fill:#525D7D;" d="M118.481,194.279c-1.138,0-2.114-0.863-2.231-2.019c-0.278-2.734-0.453-5.457-0.623-8.092
					c-0.291-4.509-0.564-8.77-1.309-13.172c-0.208-1.222,0.616-2.382,1.839-2.588c1.227-0.212,2.382,0.616,2.588,1.839
					c0.784,4.632,1.079,9.207,1.364,13.633c0.167,2.592,0.339,5.274,0.608,7.926c0.126,1.234-0.773,2.335-2.007,2.461
					C118.635,194.274,118.557,194.279,118.481,194.279z"/>
			</g>
			<g>
				<path style="fill:#525D7D;" d="M130.684,193.186c-0.575,0-1.151-0.219-1.589-0.658c-3.717-3.72-7.536-6.952-11.354-9.606
					c-0.554-0.386-0.907-1-0.958-1.674c-0.05-0.674,0.205-1.335,0.696-1.8c3.511-3.325,6.574-7.064,9.105-11.109
					c0.658-1.053,2.046-1.371,3.094-0.714c1.053,0.658,1.371,2.043,0.714,3.094c-2.261,3.615-4.913,6.999-7.904,10.092
					c3.303,2.474,6.584,5.338,9.786,8.542c0.876,0.877,0.876,2.3-0.001,3.177C131.834,192.967,131.259,193.186,130.684,193.186z"/>
			</g>
			<g>
				<path style="fill:#525D7D;" d="M90.162,23.514c-1.193,0-2.178-0.933-2.243-2.126c-0.304-5.68-0.648-12.12-1.661-18.365
					c-0.105-0.644,0.076-1.302,0.496-1.803c0.42-0.5,1.035-0.793,1.689-0.803c5.106-0.074,10.24-0.123,15.373-0.173
					c6.629-0.064,13.26-0.127,19.833-0.245c0.814,0.026,1.6,0.43,2.003,1.155c0.402,0.725,0.373,1.614-0.078,2.311
					c-1.458,2.253-2.943,4.487-4.422,6.714l-0.705,1.061c1.045,0.879,2.069,1.768,3.068,2.638c1.572,1.368,3.196,2.782,4.85,4.09
					c0.738,0.585,1.034,1.566,0.741,2.461c-0.292,0.895-1.113,1.512-2.053,1.545c-4.585,0.167-9.28,0.42-13.819,0.662
					C105.67,23.044,97.847,23.463,90.162,23.514z M91.073,4.874c0.655,4.843,0.969,9.669,1.215,14.124
					c6.885-0.105,13.901-0.481,20.706-0.847c2.665-0.142,5.385-0.288,8.108-0.418c-0.178-0.156-0.357-0.311-0.534-0.465
					c-1.467-1.276-2.983-2.597-4.517-3.825c-0.907-0.727-1.11-2.024-0.469-2.991l1.829-2.758c0.693-1.043,1.386-2.087,2.078-3.135
					c-5.191,0.076-10.411,0.126-15.631,0.177C99.592,4.778,95.325,4.819,91.073,4.874z"/>
			</g>
			<g>
				<path style="fill:#525D7D;" d="M90.585,31.604c-1.047,0-1.983-0.736-2.199-1.801c-0.228-1.132-0.335-2.357-0.335-3.856
					c0-0.645,0.019-1.288,0.038-1.931c0.018-0.599,0.035-1.2,0.035-1.8c0-0.706-0.026-1.317-0.082-1.867
					c-0.124-1.234,0.775-2.335,2.009-2.459c1.218-0.139,2.337,0.773,2.459,2.009c0.072,0.702,0.105,1.459,0.105,2.317
					c0,0.645-0.019,1.288-0.038,1.932c-0.018,0.599-0.035,1.2-0.035,1.8c0,1.208,0.076,2.123,0.247,2.967
					c0.246,1.215-0.541,2.401-1.757,2.647C90.883,31.589,90.732,31.604,90.585,31.604z"/>
			</g>
		</g>
	</g>
</g>
<g id="Layer_1">
</g>
</svg>
