<?xml version="1.0" encoding="iso-8859-1"?>
<!-- Generator: Adobe Illustrator 21.0.2, SVG Export Plug-In . SVG Version: 6.00 Build 0)  -->
<svg version="1.1" xmlns="http://www.w3.org/2000/svg" xmlns:xlink="http://www.w3.org/1999/xlink" x="0px" y="0px"
	 viewBox="0 0 250.848 157.348" style="enable-background:new 0 0 250.848 157.348;" xml:space="preserve">
<g id="_x38_0">
	<g>
		<g>
			<g>
				<path style="fill:#E0DFE6;" d="M97.875,99.927c-1.156-1.496-3.231-1.549-4.195-0.027c-0.038-5.349-0.11-10.697-0.268-16.043
					c-0.066-2.228-2.039-4.847-4.541-4.541c-4.313,0.527-8.59,0.927-12.926,1.19c-2.915,0.177-4.459,2.504-4.014,5.269
					c1.884,11.701-5.43,18.943-12.651,26.776c-0.849,0.921-0.28,2.55,1.05,2.534c13.264-0.162,19.905-14.473,20.003-26.469
					c1.247-0.054,2.5-0.1,3.748-0.132c-0.748,13.476-1.112,26.973-1.383,40.466c-5.417,0.646-10.831,1.314-16.229,2.076
					c-0.934,0.132-0.867,1.634,0,1.822c10.5,2.277,21.29,2.959,32.02,2.58c2.272-0.08,4.168-1.852,4.184-4.184
					C102.739,121.942,103.897,107.724,97.875,99.927z M93.636,120.861c0.169,2.117,0.305,4.236,0.431,6.356
					c-0.131-0.305-0.292-0.598-0.485-0.876C93.604,124.514,93.618,122.688,93.636,120.861z"/>
			</g>
			<g>
				<path style="fill:#E0DFE6;" d="M203.976,112.936c-0.376-7.711-0.248-16.162-4.129-23.028c-0.566-1.001-1.77-1.292-2.765-0.979
					c0.038-0.535,0.079-1.066,0.115-1.603c0.22-3.248,0.75-6.433-2.57-8.092c-4.384-2.19-12.181-0.401-16.94-0.307
					c-1.807,0.036-3.288,1.489-3.311,3.312c-0.091,6.946-3.173,11.582-7.722,16.505c-1.573,1.703,0.389,3.972,2.371,3.073
					c6.746-3.058,10.327-9.358,11.561-16.306c2.877-0.107,6.556-0.307,9.005,0.09c-0.375,2.915-1.388,6.011-1.798,8.745
					c-0.534,3.559-0.978,7.135-1.327,10.717c-0.756,7.779-0.972,15.555-0.75,23.364c0.047,1.644,0.765,2.847,1.785,3.631
					c-0.815,0.05-1.529,0.097-2.032,0.162c-6.462,0.841-12.966,1.074-19.428,1.866c-1.416,0.174-1.943,2.217-0.359,2.651
					c7.748,2.119,15.958,2.34,23.933,1.697c4.949-0.399,11.752-0.057,13.967-5.452C205.853,127.455,204.26,118.762,203.976,112.936z
					 M195.523,130.541c-0.149,0.137-0.35,0.257-0.573,0.368c0.379-0.678,0.602-1.493,0.55-2.482
					c-0.308-5.823-0.216-11.524,0.051-17.198c0.491,4.324,1.023,8.61,1.111,12.687C196.715,126.398,197.402,128.813,195.523,130.541
					z"/>
			</g>
			<g>
				<path style="fill:#E0DFE6;" d="M144.147,93.445c-0.212-3.081-2.889-5.465-6.058-4.615c-7.488,2.008-15.355,0.92-22.808,3.671
					c-1.127,0.416-1.489,2.442,0,2.667c6.079,0.919,13.022,0.327,19.147,1.741c0.022,2.086,0.314,4.193,1.304,5.934
					c1.506,2.647,5.764,3.477,7.882,1.016C146.164,100.896,144.386,96.926,144.147,93.445z"/>
			</g>
			<g>
				<path style="fill:#E0DFE6;" d="M250.727,137.83c-1.923-9.437-11.198-15.713-20.449-15.463c-1.338-3.284-3.286-6.294-6.742-7.686
					c-1.779-0.717-3.586-0.832-5.183-0.302c-0.029-1.064-0.06-2.129-0.086-3.191c-0.095-3.932-1.8-40.2-1.776-40.205
					c2.254-0.449,3.951-3.382,3.152-5.551c-3.781-10.263,2.462-21.009-1.565-31.467c-2.756-7.158-9.26-14.258-16.407-17.149
					c-0.706-0.285-1.113,0.604-0.876,1.14c2.525,5.716,6.68,10.024,9.092,15.269c-3.014-1.317-7.557,0.255-7.09,4.196
					c0.496,4.193,2.46,9.037-1.959,11.879c-4.081,2.625-7.993-1.232-12.037-1.768c-3.99-0.529-6.468,2.447-9.984,2.507
					c-3.217,0.054-6.204-3.003-9.548-3.474c-3.018-0.425-5.68,0.336-8.369,1.653c-3.42,1.675-4.564,3.453-8.155,2.235
					c-3.308-1.123-5.583-2.541-9.219-1.254c-4.125,1.46-7.929,5.867-11.231,0.106c-1.225-2.138-4.657-3.39-6.802-1.784
					c-4.774,3.574-10.553,8.177-15.738,2.843c-2.047-2.106-2.865-3.939-6.2-4c-4.065-0.075-6.748,3.775-10.512,4.783
					c-5.327,1.426-8.609-1.083-13.444-2.286c-1.164-0.289-2.612,0.833-2.116,2.116c0.861,2.233,2.457,3.86,4.398,5.037
					c-1.307-0.362-2.525-1.147-3.598-2.643c-2.623-3.656-7.592-2.965-9.186,1.201c-0.172,0.449-0.306,0.838-0.422,1.205
					c-5.541,0.921-10.999,1.727-16.298,3.838c-2.271,0.905-2.453,3.969,0,4.814c7.343,2.531,14.52,1.67,22.038,0.442
					c0.511-0.084,0.973-0.288,1.39-0.564c1.59,0.925,3.348,1.59,5.33,1.903c7.24,1.145,13.492-2.455,20.975-0.71
					c10.115,2.359,20.194,5.806,29.196,0.097c5.549,2.015,11.389,2.881,17.323,2.348c3.388-0.304,6.812-1.757,10.184-1.661
					c3.263,0.094,6.726,1.284,10.036,1.51c6.064,0.414,12.571-1.803,18.248-0.182c6.494,1.854,12.386,2.195,18.939,0.248
					c4.678-1.39,3.865-7.658,0.249-8.902c1.349-0.777,2.607-1.762,3.715-2.937c-0.302,2.775-0.386,5.552,0.091,8.387
					c-1.817,1.972-2.521,4.957-2.814,7.848c-0.878,8.646-0.133,17.737,0.032,26.417c0.29,15.246,0.189,30.751,1.406,46.016
					c-0.621-0.412-1.417-0.641-2.396-0.576c-9.468,0.632-18.921,1.585-28.382,2.326c-6.51,0.51-13.841,0.575-20.483,2.04
					c-0.804-11.356-1.87-22.717-3.048-34.033c-0.633-6.082-1.389-12.138-2.173-18.202c-0.659-5.095-2.705-11.008-2.213-16.021
					c0.115-1.171-1.444-1.603-2.188-0.907c-3.161,2.957-2.7,7.265-2.772,11.326c-0.116,6.529,0.011,13.078,0.236,19.603
					c0.152,4.392,0.352,8.789,0.578,13.185c-1.925,0.264-3.801,0.905-5.762,0.569c-1.987-0.34-3.754-1.518-5.472-2.489
					c-1.131-0.64-2.59,0.167-2.589,1.486c0.004,6.365,8.364,10.944,14.321,9.275c0.422,6.667,0.932,13.328,1.554,19.964
					c0.562,5.993,8.293,6.262,9.632,0.904c6.668,0.986,13.853,0.454,20.379,0.326c9.454-0.186,18.946-0.356,28.382-0.986
					c1.322-0.088,2.316-0.668,2.987-1.484c0.068,0.633,0.117,1.27,0.191,1.903c0.649,5.614,8.514,5.831,8.906,0
					c0.748-11.14,0.423-22.419,0.093-33.623c3.356,1.593,3.987,4.895,4.742,8.909c0.467,2.484,3.148,3.294,5.282,2.999
					c6.347-0.879,10.985,3.593,12.646,9.282C242.965,146.642,251.994,144.049,250.727,137.83z M168.847,58.506
					c-1.157-0.102-2.215-0.261-3.237-0.432c0.474-0.159,0.959-0.283,1.471-0.318c1.243-0.085,2.353,0.296,3.439,0.811
					C169.959,58.569,169.401,58.555,168.847,58.506z"/>
			</g>
			<g>
				<path style="fill:#E0DFE6;" d="M50.18,131.541c-1.251-0.066-2.509,0.079-3.766,0.306c0.679-2.559,0.692-5.249,0.011-7.914
					c-0.771-3.017-5.508-3.127-6.218,0c-0.504,2.217-1.048,4.443-1.566,6.678c-0.779,1.398-1.846,2.59-3.157,3.216
					c-0.945,0.132-1.887,0.28-2.825,0.446c-5.607-0.288-5.739,9.171,0.281,9.379c1.252,0.043,2.511-0.013,3.77-0.101
					c0.399,0.415,1.218,0.413,1.573-0.122c1.558-0.153,3.111-0.356,4.647-0.552c3.346-0.428,6.69-0.665,9.719-2.219
					C57.219,138.311,54.725,131.782,50.18,131.541z"/>
			</g>
		</g>
		<g>
			<g>
				<path style="fill:#525D7D;" d="M116.183,62.873c-6.493,0-12.673-3.675-16.443-9.579c-3.009,3.047-7.997,6.927-13.875,6.927
					c-5.088,0-9.696-2.716-12.998-7.56c-3.636,3.987-8.593,5.934-15.053,5.934c-6.584,0-13.037-2.524-17.704-6.924
					c-0.382-0.361-0.62-0.849-0.669-1.373c-0.477-5.201-0.907-10.546-1.276-15.888c-0.035-0.505,0.108-1.006,0.405-1.416
					c1.884-2.598,3.759-5.202,5.635-7.807c5.797-8.052,11.792-16.377,17.93-24.346C62.544,0.311,63.176,0,63.845,0
					c0.014,0,123.877,0.806,123.877,0.806c0.637,0.004,1.24,0.29,1.647,0.779l23.546,28.351c0.33,0.399,0.507,0.904,0.498,1.422
					c-0.035,1.798-0.08,3.598-0.125,5.4c-0.096,3.863-0.195,7.857-0.195,11.772c0,3.316,0.072,6.266,0.218,9.019
					c0.041,0.767-0.329,1.498-0.973,1.92c-3.392,2.224-7.342,3.306-12.074,3.306c-6.889,0-12.764-2.335-16.312-6.365
					c-3.309,3.717-6.162,5.779-12.104,5.779c-5.929,0-11.393-2.302-14.859-6.138c-3.7,3.281-8.262,5.123-12.836,5.123
					c-5.271,0-10.012-1.976-13.379-5.502C126.365,60.513,121.572,62.873,116.183,62.873z M100.174,47.428
					c0.091,0,0.183,0.006,0.274,0.018c0.739,0.095,1.378,0.564,1.688,1.242c2.747,5.994,8.261,9.868,14.047,9.868
					c4.751,0,8.855-2.414,12.918-7.595c0.424-0.541,1.13-0.851,1.765-0.826c0.687,0.022,1.323,0.368,1.712,0.934
					c2.533,3.678,6.751,5.788,11.574,5.788c5.874,0,9.965-3.853,11.452-5.509c0.451-0.505,1.101-0.771,1.789-0.71
					c0.675,0.057,1.283,0.427,1.645,1c2.385,3.787,7.413,6.234,12.81,6.234c5.048,0,6.663-1.628,10.591-6.335
					c0.454-0.544,1.15-0.831,1.85-0.767c0.706,0.063,1.335,0.469,1.685,1.084c2.349,4.135,7.69,6.604,14.29,6.604
					c3.376,0,6.227-0.649,8.671-1.979c-0.108-2.455-0.16-5.069-0.16-7.948c0-3.969,0.1-7.99,0.197-11.879
					c0.038-1.526,0.076-3.052,0.108-4.575L186.69,5.118L64.904,4.325c-5.87,7.657-11.625,15.648-17.195,23.386
					c-1.726,2.397-3.451,4.793-5.183,7.183c0.336,4.764,0.718,9.523,1.139,14.174c3.819,3.32,8.93,5.211,14.149,5.211
					c8.247,0,11.644-3.792,13.481-6.644c0.419-0.652,1.137-1.032,1.934-0.986c0.775,0.043,1.467,0.498,1.813,1.193
					c1.499,3.011,4.897,8.062,10.822,8.062c5.909,0,11.166-5.879,12.637-7.681C98.915,47.716,99.53,47.428,100.174,47.428z"/>
			</g>
			<g>
				<path style="fill:#525D7D;" d="M61.433,34.271c-1.192,0-2.159-0.966-2.159-2.159c0-1.193,0.967-2.159,2.159-2.159h0.412
					l149.395-0.379c1.196,0,2.162,0.963,2.165,2.153c0.003,1.193-0.962,2.162-2.153,2.165L61.433,34.271z"/>
			</g>
			<g>
				<path style="fill:#525D7D;" d="M48.673,151.996c-1.179,0-2.144-0.948-2.159-2.131L45.28,54.752c0-1.193,0.967-2.159,2.159-2.159
					c1.192,0,2.159,0.966,2.159,2.159v1.235l1.234,93.823C50.848,151.001,49.893,151.98,48.673,151.996z"/>
			</g>
			<g>
				<path style="fill:#525D7D;" d="M207.971,154.878c-1.174,0-2.137-0.942-2.158-2.121l-1.646-93.028
					c-0.021-1.192,0.929-2.176,2.121-2.197c1.213,0,2.176,0.942,2.197,2.121l1.646,93.028
					C210.152,153.873,209.202,154.857,207.971,154.878z"/>
			</g>
			<g>
				<path style="fill:#525D7D;" d="M95.402,131.51c-0.03,0-0.06-0.001-0.09-0.002l-38.635-1.61
					c-1.175-0.049-2.094-1.029-2.069-2.205l0.232-10.071c0.304-12.981,0.618-26.404,0.706-39.597
					c0.007-1.158,0.926-2.103,2.083-2.144c6.71-0.237,13.573-0.237,20.21-0.237c5.829,0,11.793,0,17.607-0.155
					c0.588-0.015,1.16,0.21,1.578,0.626c0.419,0.416,0.649,0.985,0.638,1.574c-0.184,9.352-0.38,20.237-0.38,31.075
					c0,7.463,0.091,14.176,0.277,20.524c0.018,0.599-0.214,1.178-0.641,1.6C96.514,131.287,95.968,131.51,95.402,131.51z
					 M58.973,125.672l34.206,1.426c-0.145-5.706-0.215-11.729-0.215-18.334c0-10.016,0.166-20.061,0.336-28.906
					c-5.142,0.104-10.347,0.104-15.402,0.104c-5.97,0-12.072,0-18.051,0.169c-0.105,12.557-0.402,25.273-0.69,37.592L58.973,125.672
					z"/>
			</g>
			<g>
				<path style="fill:#525D7D;" d="M58.553,111.657c-0.72,0-1.423-0.359-1.833-1.015c-0.631-1.011-0.323-2.343,0.687-2.975
					c8.312-5.195,13.476-14.957,13.476-25.476c0-0.727-0.027-1.453-0.077-2.177c-0.084-1.19,0.811-2.222,2.002-2.306
					c1.14-0.096,2.221,0.811,2.305,2.001c0.059,0.826,0.089,1.654,0.089,2.482c0,11.996-5.942,23.161-15.506,29.138
					C59.34,111.551,58.944,111.657,58.553,111.657z"/>
			</g>
			<g>
				<path style="fill:#525D7D;" d="M147.732,156.002c-1.169,0-2.13-0.934-2.158-2.11c-0.249-10.882-0.357-22.012-0.464-32.776
					c-0.136-13.929-0.278-28.31-0.724-42.388l-34.23-0.001c0.003,0.753,0.004,1.507,0.004,2.262c0,11.482-0.342,23.19-0.673,34.511
					c-0.329,11.291-0.67,22.967-0.67,34.386c0,1.11,0.003,2.22,0.01,3.331c0.007,1.192-0.953,2.165-2.145,2.172
					c-1.2,0-2.166-0.958-2.173-2.146c-0.007-1.119-0.01-2.239-0.01-3.357c0-11.483,0.342-23.19,0.673-34.512
					c0.329-11.291,0.67-22.965,0.67-34.385c0-1.469-0.006-2.937-0.017-4.404c-0.004-0.575,0.221-1.129,0.627-1.537
					c0.405-0.408,0.957-0.638,1.532-0.638l38.492,0.001c1.164,0,2.118,0.923,2.158,2.086c0.502,14.794,0.651,29.935,0.794,44.578
					c0.105,10.75,0.215,21.867,0.464,32.72C149.92,154.985,148.975,155.974,147.732,156.002z"/>
			</g>
			<g>
				<path style="fill:#525D7D;" d="M237.61,157.348c-0.032,0-137.516-2.058-137.516-2.058c-1.192-0.018-2.145-0.999-2.127-2.191
					c0.018-1.181,0.981-2.127,2.159-2.127c0.032,0,137.516,2.058,137.516,2.058c1.192,0.018,2.145,0.999,2.127,2.191
					C239.751,156.402,238.788,157.348,237.61,157.348z"/>
			</g>
			<g>
				<path style="fill:#525D7D;" d="M144.078,124.92c-8.095,0-12.928-3.751-12.928-10.034c0-6.599,6.424-10.542,12.634-10.542
					c0.654,0,1.302,0.045,1.926,0.134c1.181,0.168,2.002,1.261,1.835,2.441c-0.167,1.181-1.272,2.001-2.442,1.833
					c-0.424-0.06-0.867-0.091-1.318-0.091c-3.999,0-8.316,2.379-8.316,6.223c0,4.724,4.682,5.716,8.61,5.716
					c0.676,0,1.339-0.031,1.971-0.084c1.177-0.108,2.232,0.783,2.332,1.971c0.098,1.188-0.784,2.232-1.972,2.331
					C145.624,124.887,144.84,124.92,144.078,124.92z"/>
			</g>
			<g>
				<path style="fill:#525D7D;" d="M115.235,92.425c-2.797,0-5.339-0.038-7.769-0.117c-1.192-0.038-2.128-1.035-2.089-2.227
					c0.038-1.168,0.997-2.089,2.156-2.089c2.456,0.078,4.951,0.115,7.701,0.115c5.142,0,10.419-0.134,15.521-0.264
					c5.09-0.129,10.354-0.263,15.472-0.263c1.192,0,2.159,0.966,2.159,2.159s-0.967,2.159-2.159,2.159
					c-5.063,0-10.299,0.133-15.362,0.262C125.737,92.291,120.432,92.425,115.235,92.425z"/>
			</g>
			<g>
				<path style="fill:#525D7D;" d="M107.534,140.059c-1.162,0-2.121-0.924-2.156-2.094c-0.036-1.192,0.901-2.187,2.092-2.224
					c13.618-0.413,26.63-0.413,40.406-0.413c1.192,0,2.159,0.966,2.159,2.159c0,1.193-0.967,2.159-2.159,2.159
					C134.133,139.647,121.152,139.647,107.534,140.059z"/>
			</g>
			<g>
				<path style="fill:#525D7D;" d="M191.727,134.578c-1.286,0-20.967-0.649-31.444-1.151c-1.129-0.054-2.024-0.97-2.054-2.1
					c-0.176-6.704-0.268-13.481-0.357-20.034c-0.146-10.688-0.297-21.74-0.811-32.674c-0.056-1.179,0.846-2.185,2.025-2.256
					c1.701-0.103,3.475-0.153,5.422-0.153c3.673,0,7.416,0.183,11.037,0.36c3.594,0.176,7.311,0.357,10.932,0.357
					c3.951,0,7.381-0.221,10.486-0.675c0.618-0.086,1.247,0.092,1.722,0.501c0.474,0.409,0.748,1.004,0.749,1.63
					c0.049,19.76,0.488,37.296,1.34,53.612c0.06,1.152-0.796,2.147-1.943,2.261C196.641,134.473,194.318,134.578,191.727,134.578z
					 M162.496,129.207c10.742,0.484,28.041,1.053,29.232,1.053c1.649,0,3.178-0.045,4.627-0.136
					c-0.752-15.112-1.155-31.285-1.23-49.291c-2.64,0.276-5.492,0.412-8.647,0.412c-3.726,0-7.496-0.184-11.142-0.362
					c-3.569-0.175-7.259-0.355-10.826-0.355c-1.063,0-2.069,0.016-3.038,0.047c0.441,10.295,0.582,20.637,0.718,30.659
					C162.269,117.12,162.352,123.186,162.496,129.207z"/>
			</g>
			<g>
				<path style="fill:#525D7D;" d="M160.636,105.482c-0.552,0-1.105-0.211-1.527-0.632c-0.843-0.843-0.843-2.21,0-3.053
					c6.013-6.014,8.216-13.708,9.7-21.125c0.233-1.169,1.385-1.927,2.54-1.693c1.169,0.234,1.929,1.371,1.694,2.541
					c-1.539,7.696-4.037,16.486-10.881,23.331C161.741,105.272,161.189,105.482,160.636,105.482z"/>
			</g>
			<g>
				<path style="fill:#525D7D;" d="M84.073,154.466c-7.606,0-15.255-0.134-22.653-0.264c-7.34-0.129-14.932-0.263-22.421-0.263
					c-4.029,0-7.716,0.037-11.272,0.115c-1.217,0.001-2.179-0.936-2.205-2.111c-0.025-1.193,0.921-2.179,2.113-2.206
					c3.587-0.078,7.305-0.116,11.365-0.116c7.527,0,15.137,0.133,22.497,0.264c7.38,0.129,15.009,0.264,22.577,0.264
					c1.192,0,2.159,0.966,2.159,2.159C86.232,153.5,85.264,154.466,84.073,154.466z"/>
			</g>
			<g>
				<path style="fill:#525D7D;" d="M2.159,146.645c-1.192,0-2.159-0.966-2.159-2.159c0-1.193,0.967-2.159,2.159-2.159
					c11.99,0,23.315,0,35.106-1.626c1.171-0.167,2.271,0.662,2.435,1.844c0.163,1.181-0.664,2.271-1.844,2.434
					C25.769,146.645,14.301,146.645,2.159,146.645z"/>
			</g>
			<g>
				<path style="fill:#525D7D;" d="M20.682,143.353c-0.905,0-1.747-0.573-2.048-1.477c-0.242-0.724-0.576-1.523-0.931-2.368
					c-0.893-2.129-1.903-4.542-1.903-6.976c0-6.176,6.772-8.955,11.582-8.955c1.531,0,2.773,0.25,3.774,0.622
					c0.929-6.283,5.375-10.346,11.643-10.346c0.5,0,0.987,0.018,1.487,0.036c0.476,0.018,0.967,0.037,1.504,0.037
					c1.192,0,2.159,0.966,2.159,2.159c0,1.193-0.967,2.159-2.159,2.159c-0.593,0-1.137-0.02-1.664-0.039
					c-0.447-0.016-0.88-0.033-1.327-0.033c-6.965,0-7.506,6.546-7.506,8.552c0,0.668,0.022,1.155,0.048,1.496
					c0.18,0.5,0.266,0.964,0.266,1.34c0,1.193-0.99,2.245-2.183,2.245c-0.728,0-1.989-0.321-2.304-2.462
					c-0.337-0.55-1.268-1.446-3.738-1.446c-1.94,0-7.264,1.099-7.264,4.637c0,1.566,0.797,3.468,1.567,5.308
					c0.37,0.882,0.752,1.794,1.044,2.672c0.377,1.131-0.235,2.354-1.366,2.731C21.138,143.317,20.909,143.353,20.682,143.353z
					 M35.426,128.902L35.426,128.902L35.426,128.902z"/>
			</g>
			<g>
				<path style="fill:#525D7D;" d="M238.437,144.998c-0.07,0-0.142-0.003-0.214-0.011c-1.186-0.116-2.054-1.172-1.938-2.359
					c0.035-0.36,0.053-0.722,0.053-1.082c0-4.689-2.505-7.378-6.871-7.378c-2.364,0-3.405,0.431-3.725,0.602
					c-0.398,0.459-0.946,0.807-1.697,0.807c-1.192,0-2.163-0.973-2.163-2.165c0-0.585,0.221-1.072,0.557-1.474
					c0.166-0.41,0.569-1.713,0.569-4.636c0-1.539-0.439-6.559-6.072-6.559c-1.255,0-2.678,0.235-4.227,0.7
					c-1.141,0.342-2.346-0.306-2.688-1.449c-0.343-1.142,0.305-2.346,1.448-2.688c1.951-0.585,3.791-0.881,5.466-0.881
					c6.214,0,10.391,4.371,10.391,10.877c0,0.965-0.038,1.856-0.115,2.67c0.697-0.082,1.449-0.123,2.256-0.123
					c6.798,0,11.189,4.591,11.189,11.696c0,0.5-0.024,1.003-0.073,1.503C240.473,144.165,239.534,144.998,238.437,144.998z
					 M225.627,134.841L225.627,134.841L225.627,134.841z"/>
			</g>
			<g>
				<path style="fill:#525D7D;" d="M217.026,149.116c-1.008,0-1.909-0.71-2.114-1.737c-0.235-1.169,0.524-2.307,1.694-2.54
					c6.07-1.214,12.273-1.318,18.272-1.419c4.363-0.074,8.875-0.15,13.178-0.666c1.191-0.144,2.259,0.703,2.401,1.886
					c0.142,1.184-0.703,2.259-1.886,2.401c-4.522,0.543-9.148,0.621-13.619,0.696c-5.807,0.098-11.811,0.198-17.499,1.335
					C217.31,149.101,217.167,149.116,217.026,149.116z"/>
			</g>
		</g>
	</g>
</g>
<g id="Layer_1">
</g>
</svg>
