<?xml version="1.0" encoding="iso-8859-1"?>
<!-- Generator: Adobe Illustrator 21.0.2, SVG Export Plug-In . SVG Version: 6.00 Build 0)  -->
<svg version="1.1" xmlns="http://www.w3.org/2000/svg" xmlns:xlink="http://www.w3.org/1999/xlink" x="0px" y="0px"
	 viewBox="0 0 196.669 180.28" style="enable-background:new 0 0 196.669 180.28;" xml:space="preserve">
<g id="_x38_1">
	<g>
		<g>
			<g>
				<path style="fill:#E0DFE6;" d="M176.516,123.202c-0.654-7.158-1.718-16.242-8.864-19.647c0.967-0.579,1.798-1.483,2.299-2.798
					c8.051-21.148,0.458-53.716-19.185-66.553c-0.333-0.218-0.731,0.141-0.644,0.495c1.112,4.563,2.817,8.973,4.585,13.376
					c1.007,7.284,2.76,14.419,3.3,21.805c0.432,5.904,2.461,19.698-2.149,24.154c-1.755,1.696-1.128,4.35,0.724,5.616
					c0.294,0.201,0.588,0.402,0.882,0.604c0.677,0.463,1.598,0.636,2.495,0.582c0.647,2.329,2.99,3.62,5.303,3.471
					c-0.01,0.114-0.009,0.227,0.009,0.336c1.159,7.011,1.926,13.715,2.084,20.843c0.038,1.704-0.087,3.413-0.283,5.122
					c-1.735,3.121-2.616,6.502-4.306,10.082c-3.134,6.64-9.01,9.978-15.813,12.034c-7.048,2.13-14.803,2.495-21.893,0.323
					c-4.201-1.287-7.822-3.633-11.565-5.78c0.271-0.149,0.464-0.469,0.396-0.816c-1.274-6.496-5.219-12.348-4.843-19.133
					c0.345-6.219,3.216-12.186,6.921-17.082c3.395-4.486,7.808-8.105,12.847-10.612c5.345-2.659,11.14-2.377,16.485-4.516
					c2.989-1.197,3.067-5.005,0-6.181c-12.7-4.868-29.716,7.998-36.542,17.675c-9.519,13.494-7.343,28.155,3.399,39.92
					c-0.991-0.546-1.991-1.075-3.023-1.549c-2.013-0.926-4.682,0.614-3.959,3.043c1.588,5.336,5.087,9.215,9.574,11.915
					c-0.502,0.122-1.01,0.293-1.527,0.576c-15.409,8.431-32.975,10.869-49.969,6.139c-15.639-4.353-27.449-14.444-39.859-24.35
					c-0.348-0.278-0.924-0.033-0.789,0.46c4.709,17.24,21.433,29.104,37.776,34.313c19.375,6.174,41.043,3.176,58.631-6.657
					c3.237-1.809,3.397-5.189,1.937-7.66c9.008,3.037,19.84,2.831,27.64,0.804c8.454-2.197,17.998-8.078,23.35-15.941
					C178.241,142.061,177.206,130.747,176.516,123.202z"/>
			</g>
			<g>
				<path style="fill:#E0DFE6;" d="M145.47,124.234c-2.157,0.437-4.348,0.759-6.534,1.101c1.303-0.551,2.165-2.29,2.101-3.577
					c-0.297-5.978-0.76-12.88-2.874-18.508c-0.687-1.828-3.377-2.075-3.969,0c-1.642,5.762-1.581,12.557-1.382,18.508
					c0.062,1.858,1.241,3.422,3.019,3.965c0.141,0.043,0.258,0.048,0.388,0.074c-1.641,0.29-3.274,0.609-4.876,1.048
					c-1.066,0.292-1.32,1.858-0.314,2.405c3.892,2.115,8.39,2.757,12.78,2.637c3.01-0.082,8.799-0.174,8.934-4.432
					C152.87,123.545,148.132,123.694,145.47,124.234z"/>
			</g>
			<g>
				<path style="fill:#E0DFE6;" d="M196.603,119.037c-0.256-2.765-2.18-5.142-5.142-5.142c-2.799,0-5.128,2.353-5.142,5.142
					c-0.011,2.232-0.112,4.545-0.779,6.681c-1.431-1.006-2.811-2.685-4.036-3.277c-0.977-0.473-2.295-0.126-2.577,1.048
					c-1.181,4.918,4.631,12.897,9.923,11.783C194.93,133.991,197.089,124.274,196.603,119.037z"/>
			</g>
			<g>
				<path style="fill:#E0DFE6;" d="M96.775,143.312c-0.183-4.118-4.798-5.831-7.811-3.236c-1.586,1.366-1.943,3.236-3.577,4.55
					c-0.743,0.598-1.569,1.01-2.42,1.371c-16.379,0.959-30.902-4.768-44.351-14.069c-0.467-0.323-0.98,0.294-0.739,0.739
					c9.17,16.854,29.164,25.087,47.729,23.995c3.193-0.188,4.89-2.6,5.159-5.106C94.204,149.873,96.93,146.796,96.775,143.312z"/>
			</g>
			<g>
				<path style="fill:#E0DFE6;" d="M148.95,56.987c-3.081-8.169-6.598-16.331-11.879-23.343
					c-8.644-11.476-24.141-20.721-38.605-15.009c-0.577,0.228-0.473,0.991,0.144,1.06c14.624,1.641,25.514,10.2,32.782,22.732
					c3.377,5.823,5.77,12.092,7.88,18.464c1.827,5.516,1.893,11.813,4.447,16.878c1.214,2.407,4.306,2.278,6.093,0.785
					C156.183,73.234,151.36,63.379,148.95,56.987z"/>
			</g>
		</g>
		<g>
			<g>
				<path style="fill:#525D7D;" d="M135.286,157.622c-9.691,0-18.762-3.582-25.725-10.201c-7.048-6.7-11.099-15.856-11.113-25.119
					c-0.026-17.877,13.905-33.367,31.715-35.265c1.923-0.204,3.52-0.294,4.876-0.273c19.098,0.299,33.834,14.787,34.277,33.7
					c0.245,10.4-2.988,19.549-9.349,26.458c-5.929,6.441-14.004,10.224-22.739,10.652
					C136.579,157.606,135.931,157.622,135.286,157.622z M130.622,91.33c-15.642,1.667-27.877,15.268-27.855,30.965
					c0.013,8.087,3.574,16.105,9.77,21.995c6.562,6.239,15.262,9.419,24.481,8.971c14.271-0.7,28.465-12.156,27.983-32.697
					c-0.389-16.546-13.297-29.222-30.028-29.483C133.821,91.058,132.343,91.147,130.622,91.33z"/>
			</g>
			<g>
				<path style="fill:#525D7D;" d="M131.012,175.806c-0.065,0-0.13-0.003-0.195-0.008c-19.25-1.725-36.021-12.867-44.861-29.804
					c-0.552-1.057-0.143-2.361,0.915-2.912c1.056-0.554,2.361-0.143,2.913,0.915c8.157,15.628,23.641,25.908,41.418,27.5
					c1.188,0.107,2.064,1.155,1.958,2.343C133.06,174.962,132.117,175.806,131.012,175.806z"/>
			</g>
			<g>
				<path style="fill:#525D7D;" d="M184.975,115.005c-1.049,0-1.968-0.765-2.132-1.834c-2.539-16.649-13.186-30.372-28.48-36.708
					c-1.101-0.456-1.624-1.719-1.168-2.821c0.455-1.102,1.72-1.624,2.821-1.168c16.702,6.919,28.326,21.89,31.095,40.047
					c0.18,1.179-0.63,2.28-1.809,2.46C185.193,114.997,185.084,115.005,184.975,115.005z"/>
			</g>
			<g>
				<path style="fill:#525D7D;" d="M84.099,168.599c-21.758,0.001-42.282-8.325-58.041-23.602C9.531,128.976,0.033,106.95,0,84.566
					C-0.059,42.037,31.687,5.182,72.272,0.661c4.362-0.485,8.121-0.697,11.169-0.656c37.098,0.606,67.606,25.703,75.913,62.452
					c0.264,1.162-0.467,2.319-1.63,2.582c-1.162,0.267-2.319-0.467-2.581-1.63C147.282,28.64,118.439,4.896,83.37,4.323
					c-2.865-0.044-6.441,0.165-10.621,0.63C34.321,9.233,4.262,44.201,4.318,84.56c0.032,21.224,9.051,42.122,24.746,57.337
					c15.525,15.049,35.932,22.993,57.441,22.349c1.186-0.044,2.187,0.902,2.222,2.094c0.035,1.192-0.902,2.186-2.094,2.222
					C85.787,168.587,84.941,168.599,84.099,168.599z"/>
			</g>
			<g>
				<path style="fill:#525D7D;" d="M142.372,69.191c-0.987,0-1.877-0.681-2.104-1.684c-2.864-12.67-9.236-23.802-18.427-32.195
					c-0.88-0.804-0.943-2.17-0.138-3.05c0.805-0.879,2.169-0.942,3.05-0.138c9.845,8.99,16.666,20.897,19.725,34.432
					c0.263,1.163-0.467,2.319-1.63,2.582C142.69,69.173,142.529,69.191,142.372,69.191z"/>
			</g>
			<g>
				<path style="fill:#525D7D;" d="M17.462,93.956c-1.08,0-2.013-0.808-2.141-1.907c-0.293-2.494-0.444-5.029-0.448-7.533
					c-0.048-34.579,25.771-64.547,58.778-68.224c3.539-0.394,6.599-0.569,9.08-0.533c9.75,0.159,18.952,2.311,27.351,6.396
					c1.072,0.522,1.519,1.814,0.997,2.887c-0.523,1.072-1.816,1.517-2.887,0.997c-7.827-3.808-16.417-5.814-25.532-5.962
					c-2.309-0.044-5.174,0.132-8.531,0.506C43.278,24.021,19.146,52.1,19.191,84.509c0.004,2.338,0.145,4.705,0.418,7.036
					c0.139,1.184-0.708,2.257-1.893,2.396C17.631,93.951,17.547,93.956,17.462,93.956z"/>
			</g>
			<g>
				<path style="fill:#525D7D;" d="M54.904,146.406c-0.315,0-0.635-0.07-0.937-0.215c-13.387-6.461-24.57-17.416-31.49-30.847
					c-0.546-1.06-0.129-2.362,0.931-2.908c1.063-0.547,2.364-0.129,2.908,0.931c6.493,12.604,16.98,22.88,29.528,28.936
					c1.074,0.519,1.524,1.809,1.006,2.883C56.477,145.956,55.706,146.406,54.904,146.406z"/>
			</g>
			<g>
				<path style="fill:#525D7D;" d="M136.309,128.516c-1.484,0-2.967-0.02-4.46-0.079c-1.067-0.042-1.943-0.857-2.061-1.919
					c-0.373-3.346-0.538-6.867-0.538-11.418c0-1.961,0.03-3.923,0.06-5.896c0.029-1.972,0.06-3.954,0.06-5.955
					c0-1.193,0.966-2.159,2.159-2.159c1.193,0,2.159,0.966,2.159,2.159c0,2.023-0.03,4.027-0.06,6.02
					c-0.029,1.951-0.059,3.891-0.059,5.83c0,3.541,0.103,6.422,0.329,9.076c2.334,0.044,4.658,0.011,7.008-0.022
					c1.581-0.022,3.174-0.045,4.789-0.045c1.193,0,2.159,0.966,2.159,2.159s-0.966,2.159-2.159,2.159
					c-1.595,0-3.167,0.023-4.728,0.044C139.406,128.495,137.857,128.516,136.309,128.516z"/>
			</g>
			<g>
				<path style="fill:#525D7D;" d="M129.404,98.327c-1.193,0-2.159-0.966-2.159-2.159s0.966-2.159,2.159-2.159
					c0.671,0,1.43-0.152,2.232-0.312c0.973-0.195,1.981-0.396,3.08-0.396c1.193,0,2.159,0.966,2.159,2.159
					c0,1.193-0.966,2.159-2.159,2.159c-0.672,0-1.43,0.152-2.233,0.312C131.509,98.125,130.503,98.327,129.404,98.327z"/>
			</g>
			<g>
				<path style="fill:#525D7D;" d="M107.618,129.934c-0.791,0-1.553-0.437-1.932-1.193c-0.343-0.686-0.51-1.455-0.51-2.35
					c0-0.502,0.056-1.02,0.116-1.532c0.039-0.335,0.084-0.666,0.084-0.983c0-0.157-0.014-0.237-0.022-0.271
					c-0.29-1.157,0.414-2.329,1.571-2.618c1.157-0.294,2.329,0.414,2.618,1.571c0.102,0.408,0.152,0.839,0.152,1.318
					c0,0.479-0.053,0.981-0.113,1.487c-0.041,0.344-0.086,0.69-0.086,1.028c0,0.287,0.041,0.392,0.053,0.416
					c0.534,1.066,0.103,2.363-0.964,2.898C108.273,129.86,107.943,129.934,107.618,129.934z"/>
			</g>
			<g>
				<path style="fill:#525D7D;" d="M134.004,150.738c-1.037,0-1.951-0.748-2.127-1.805c-0.196-1.176,0.599-2.288,1.775-2.484
					c0.925-0.155,2.013-0.145,3.064-0.091c0.355,0.018,0.708,0.037,1.065,0.037c0.635,0,1.102-0.065,1.563-0.219
					c1.134-0.377,2.354,0.236,2.731,1.366c0.377,1.132-0.235,2.354-1.366,2.731c-1.185,0.394-2.239,0.44-2.928,0.44
					c-0.432,0-0.859-0.021-1.288-0.043c-0.75-0.039-1.533-0.062-2.132,0.038C134.242,150.729,134.122,150.738,134.004,150.738z"/>
			</g>
			<g>
				<path style="fill:#525D7D;" d="M158.086,127.719c-1.036,0-1.951-0.748-2.127-1.804c-0.344-2.061-0.738-4.727-0.738-7.083
					c0-1.193,0.966-2.159,2.159-2.159c1.193,0,2.159,0.966,2.159,2.159c0,2.039,0.363,4.477,0.679,6.373
					c0.196,1.176-0.598,2.288-1.775,2.484C158.323,127.71,158.204,127.719,158.086,127.719z"/>
			</g>
			<g>
				<path style="fill:#525D7D;" d="M46.984,118.797c-0.579,0-1.141-0.233-1.552-0.658c-0.512-0.529-0.719-1.283-0.549-1.999
					c2.189-9.243,8.839-17.597,15.271-25.676c7.371-9.259,14.333-18.005,14.333-27.266c0-3.408-1.253-8.451-3.942-8.451
					c-0.908,0-1.697-0.134-2.394-0.252c-0.568-0.096-1.059-0.18-1.529-0.18c-4.536,0-17.651,5.694-17.651,16.56
					c0,0.444,0.022,0.894,0.067,1.35c0.118,1.186-0.748,2.244-1.934,2.363c-1.188,0.122-2.244-0.746-2.363-1.934
					c-0.06-0.601-0.089-1.194-0.089-1.779c0-13.562,15.593-20.879,21.969-20.879c0.834,0,1.588,0.128,2.252,0.241
					c0.58,0.098,1.127,0.191,1.671,0.191c5.675,0,8.26,6.619,8.26,12.769c0,10.77-7.765,20.523-15.273,29.955
					c-5.332,6.698-10.823,13.595-13.46,20.736c8.519-1.348,17.266-1.474,25.565-1.474l5.957,0.007c1.193,0,2.159,0.966,2.159,2.159
					c0,1.193-0.966,2.159-2.159,2.159l-5.957-0.007c-9.227,0-19.007,0.156-28.226,2.02
					C47.269,118.783,47.126,118.797,46.984,118.797z"/>
			</g>
			<g>
				<path style="fill:#525D7D;" d="M85.736,88.071c-0.58,0-1.143-0.233-1.554-0.66c-0.52-0.54-0.724-1.311-0.537-2.036
					c3.588-13.967,7.886-39.812,8.301-43.128c-0.617-0.867-0.548-2.099,0.235-2.848c0.848-0.809,2.152-0.834,2.981-0.003
					c0.74,0.739,1.131,1.655,1.131,2.646c0,1.481-4.061,25.874-7.637,41.031c6.969-1.486,13.931-2.853,20.744-4.071
					c1.169-0.214,2.295,0.571,2.506,1.745c0.21,1.174-0.571,2.295-1.745,2.506c-7.86,1.406-15.922,3.011-23.963,4.769
					C86.044,88.055,85.889,88.071,85.736,88.071z M92.113,42.453h0.014H92.113z"/>
			</g>
			<g>
				<path style="fill:#525D7D;" d="M109.571,100.451c-1.148,0-2.103-0.903-2.155-2.061c-0.094-2.065-0.142-4.226-0.142-6.423
					c0-11.866,1.394-23.867,2.742-35.473l0.599-5.192c0.134-1.185,1.204-2.049,2.389-1.901c1.185,0.134,2.036,1.204,1.901,2.389
					l-0.599,5.202c-1.334,11.484-2.713,23.359-2.713,34.975c0,2.132,0.046,4.227,0.138,6.226c0.054,1.191-0.867,2.201-2.058,2.255
					C109.637,100.451,109.604,100.451,109.571,100.451z"/>
			</g>
			<g>
				<path style="fill:#525D7D;" d="M187.998,128.258c-0.52,0-1.032-0.188-1.434-0.545c-2.669-2.372-5.013-5.056-7.279-7.652
					c-0.979-1.121-1.957-2.242-2.961-3.337c-0.529-0.576-0.704-1.392-0.46-2.134c0.245-0.742,0.871-1.294,1.638-1.444
					c1.428-0.278,2.857-0.547,4.285-0.815c2.656-0.498,5.402-1.013,8.089-1.59c0.718-0.155,1.468,0.068,1.988,0.593
					c0.518,0.523,0.734,1.275,0.572,1.993c-0.958,4.251-1.73,8.641-2.296,13.047c-0.102,0.794-0.635,1.466-1.385,1.747
					C188.509,128.213,188.253,128.258,187.998,128.258z M182.059,116.674c0.159,0.182,0.318,0.365,0.478,0.547
					c1.322,1.515,2.602,2.981,3.925,4.372c0.316-2.002,0.673-3.993,1.068-5.961c-1.664,0.328-3.323,0.64-4.948,0.944
					C182.408,116.609,182.234,116.641,182.059,116.674z"/>
			</g>
			<g>
				<path style="fill:#525D7D;" d="M81.671,149.28c-0.434,0-0.862-0.131-1.228-0.383c-0.556-0.384-0.9-1.008-0.929-1.683
					c-0.228-5.301-0.529-11.622-1.028-18.32c-0.067-0.899,0.432-1.745,1.251-2.122c0.822-0.376,1.787-0.204,2.425,0.431
					c1.913,1.904,3.784,3.889,5.594,5.807c2.193,2.327,4.462,4.734,6.786,6.971c0.501,0.483,0.739,1.177,0.639,1.865
					c-0.1,0.688-0.525,1.286-1.142,1.607c-0.985,0.511-1.966,1.051-2.949,1.592c-2.775,1.528-5.647,3.108-8.744,4.128
					C82.126,149.245,81.898,149.28,81.671,149.28z M83.191,134.465c0.206,3.369,0.368,6.581,0.503,9.545
					c1.763-0.794,3.505-1.753,5.314-2.749c0.147-0.081,0.295-0.162,0.441-0.242c-1.654-1.672-3.263-3.379-4.835-5.046
					C84.144,135.474,83.669,134.97,83.191,134.465z"/>
			</g>
		</g>
	</g>
</g>
<g id="Layer_1">
</g>
</svg>
