<?xml version="1.0" encoding="iso-8859-1"?>
<!-- Generator: Adobe Illustrator 21.0.2, SVG Export Plug-In . SVG Version: 6.00 Build 0)  -->
<svg version="1.1" xmlns="http://www.w3.org/2000/svg" xmlns:xlink="http://www.w3.org/1999/xlink" x="0px" y="0px"
	 viewBox="0 0 193.684 194.908" style="enable-background:new 0 0 193.684 194.908;" xml:space="preserve">
<g id="_x38_2">
	<g>
		<g>
			<g>
				<path style="fill:#E0DFE6;" d="M105.365,112.755c-9.94,0.641-19.887,1.072-29.844,1.302c-1.675-1.238-3.83-1.186-5.487,0.104
					c-9.92,0.092-20.148-0.386-29.867,1.635c-3.537,0.736-3.635,5.631-0.887,7.231c-1.08,6.43,1.377,12.855-2.428,19.379
					c-3.098,5.311-8.253,8.898-11.622,13.971c-0.809,1.218,0.522,2.615,1.791,2.329c7.348-1.654,14.822-7.05,18.852-13.406
					c3.297-5.201,5.193-13.528,3.764-20.255c5.412,0.548,10.933,0.55,16.368,0.464c-0.752,2.5-1.813,4.899-3.013,7.214
					c-3.015,5.818-6.676,11.271-9.755,17.054c-6.642,12.475-7.696,25.321-5.012,39.117c0.58,2.981,5.07,2.744,5.796,0
					c1.971-7.449,1.856-15.309,4.026-22.679c1.909-6.484,5.551-12.253,9.089-17.948c3.364-5.415,9.73-14.733,11.205-23.019
					c9.016-0.252,18.026-0.696,27.026-1.293C112.518,123.481,112.577,112.29,105.365,112.755z"/>
			</g>
			<g>
				<path style="fill:#E0DFE6;" d="M193.048,155.994c0.059,0.008,0.117,0.015,0.176,0.023c-2.743-4.36-5.837-7.817-7.45-12.84
					c-1.613-5.021-2.243-10.287-2.717-15.517c-0.963-10.633-1.219-21.676-4.999-31.79c-1.692-4.528-3.976-8.717-7.148-12.389
					c-2.434-2.818-5.234-4.794-5.862-8.681c-0.623-3.853-0.523-7.914-0.795-11.808c-0.954-13.648-0.388-31.44-7.164-43.75
					c-0.414-0.753-1.39-0.461-1.665,0.217c-2.729,6.734-2.709,15.394-2.774,22.586c-0.079,8.841,0.513,17.705,0.954,26.533
					c0.311,6.224,0.313,12.328,4.347,17.431c4.103,5.19,7.851,8.912,9.724,15.481c1.14,4,1.719,8.585,2.116,13.437
					c-1.741-8.061-5.139-17.076-12.12-20.824c-0.893-0.48-1.918,0.31-1.685,1.295c1.456,6.146,3.323,11.39,3.57,17.858
					c0.227,5.958,0.11,11.935,0.684,17.877c0.492,5.093,1.4,13.755,4.501,19.938c-1.419,1.231-2.799,2.508-4.19,3.719
					c-3.579,3.117-7.024,6.381-10.461,9.653c-2.553-1.478-5.272-1.419-8.05-2.376c-3.321-1.144-6.328-2.914-9.372-4.632
					c-5.118-2.89-10.016-5.036-15.906-5.688c-1.079-0.12-1.449,1.535-0.545,2.012c8.884,4.679,22.659,22.346,33.946,16.374
					c1.007-0.533,1.498-1.507,1.564-2.52c4.227-2.597,8.452-5.196,12.56-7.978c1.549-1.049,3.158-2.069,4.73-3.139
					c1.216,0.896,2.603,1.508,4.193,1.741c1.991,0.291,3.782-0.259,4.905-1.533c1.897,2.751,4.292,5.153,7.341,7.078
					C190.827,167.17,195.407,160.707,193.048,155.994z"/>
			</g>
			<g>
				<path style="fill:#E0DFE6;" d="M94.561,91.684c-1.711-0.201-3.45-0.336-5.2-0.442c1.961-1.093,3.431-2.831,3.856-5.537
					c0.299-1.902-1.26-4.409-3.527-3.527c-6.658,2.588-11.649,2.041-18.639,1.793c-7.584-0.268-14.858,0.657-22.267,2.205
					c-1.574,0.329-1.006,2.423,0.35,2.584c3.596,0.427,7.192,0.971,10.79,1.525c-5.08-0.092-10.19,0.175-14.897,1.634
					c-1.337,0.415-1.783,2.44-0.411,3.145c7.512,3.858,16.623,4.54,24.898,5.604c8.411,1.081,18.013,2.625,26.322,0.426
					C101.426,99.613,99.627,92.281,94.561,91.684z"/>
			</g>
			<g>
				<path style="fill:#E0DFE6;" d="M119.149,56.167c-0.868-0.962-2.752-0.237-2.649,1.097c0.561,7.272,0.008,15.39-3.072,22.084
					c-1.75,3.802-8.394,8.642-5.18,13.181c1.93,2.725,4.675,3.3,7.696,2.018c6.613-2.806,9.107-12.444,9.71-18.923
					C126.35,68.148,124.134,61.697,119.149,56.167z"/>
			</g>
			<g>
				<path style="fill:#E0DFE6;" d="M37.341,23.69c-3.246,0.995-4.708,3.546-7.078,5.711c-1.949,1.78-4.381,2.903-6.525,4.414
					c-2.23,1.572-2.483,6.02,0.858,6.567c6.976,1.141,18.83-3.787,18.937-11.975C43.573,25.296,40.365,22.763,37.341,23.69z"/>
			</g>
			<g>
				<path style="fill:#E0DFE6;" d="M138.955,13.207c-4.794-3.344-12.681-2.094-18.235-2.046c-6.379,0.055-12.625-0.306-18.075,3.377
					c-0.629,0.425-0.475,1.653,0.426,1.572c5.239-0.472,10.392,0.812,15.543,1.656c2.229,0.365,12.331,0.58,13.51,2.274
					C136.754,26.686,145.649,17.875,138.955,13.207z"/>
			</g>
		</g>
		<g>
			<g>
				<path style="fill:#525D7D;" d="M23.136,113.549c-0.045,0-5.756-0.118-5.756-0.118c-7.621-0.157-13.673-6.251-13.778-13.874
					L2.433,14.263C2.382,10.496,3.878,6.806,6.538,4.138c2.657-2.668,6.298-4.192,10.11-4.137l121.041,1.257
					c7.605,0.079,13.851,6.33,13.923,13.933c0.256,27.016,0.595,49.528,2.39,72.73c0.092,1.188-0.798,2.227-1.986,2.318
					c-1.201,0.121-2.228-0.797-2.319-1.986c-1.805-23.338-2.145-45.922-2.402-73.021c-0.05-5.27-4.379-9.6-9.65-9.655L16.603,4.32
					c-2.57-0.045-5.166,1.018-7.008,2.867c-1.844,1.848-2.88,4.407-2.844,7.017L7.92,99.498c0.072,5.282,4.267,9.506,9.549,9.614
					l5.712,0.118c1.192,0.025,2.138,1.012,2.113,2.204C25.27,112.611,24.308,113.549,23.136,113.549z"/>
			</g>
			<g>
				<path style="fill:#525D7D;" d="M106.629,115.276c-0.046,0-69.58-1.438-69.58-1.438c-1.192-0.025-2.138-1.012-2.113-2.204
					c0.024-1.177,0.986-2.114,2.158-2.114c0.046,0,69.58,1.438,69.58,1.438c1.192,0.025,2.138,1.012,2.113,2.204
					C108.763,114.339,107.8,115.276,106.629,115.276z"/>
			</g>
			<g>
				<path style="fill:#525D7D;" d="M141.035,81.039c-1.153,0-2.11-0.911-2.156-2.073c-0.462-11.73-0.619-23.579-0.771-35.04
					c-0.127-9.602-0.258-19.508-0.569-29.319c-5.63,0.079-10.134,0.114-14.383,0.114c-17.594,0-25.905-0.579-33.941-1.14
					c-8.005-0.559-15.566-1.087-31.679-1.087c-6.98,0-14.087,0.108-20.959,0.212c-6.926,0.105-14.087,0.214-21.175,0.214
					c-1.193,0-2.159-0.967-2.159-2.159c0-1.192,0.966-2.159,2.159-2.159c7.055,0,14.2-0.108,21.11-0.214
					c6.889-0.104,14.013-0.212,21.025-0.212c16.263,0,24.253,0.558,31.98,1.097c7.963,0.555,16.197,1.13,33.64,1.13
					c4.747,0,9.817-0.045,16.439-0.145c1.194,0,2.15,0.921,2.19,2.085c0.364,10.545,0.505,21.211,0.642,31.526
					c0.151,11.432,0.307,23.253,0.768,34.926c0.047,1.192-0.881,2.196-2.073,2.243C141.092,81.039,141.063,81.039,141.035,81.039z"
					/>
			</g>
			<g>
				<path style="fill:#525D7D;" d="M19.713,104.377c-0.141,0-0.283-0.013-0.426-0.042c-0.144-0.028-0.378-0.03-0.626-0.03
					c-3.657-0.007-5.237-2.173-6.259-8.581c-1.219-7.641-1.786-22.773-1.786-47.62l0.014-12.613c0-5.285-0.019-11.547-0.16-17.906
					c-0.027-1.192,0.919-2.18,2.111-2.207c1.219,0,2.18,0.935,2.206,2.111c0.143,6.401,0.162,12.693,0.162,18.002l-0.014,12.613
					c0,32.801,1.075,50.254,3.197,51.878c0.044,0.004,0.33,0.006,0.538,0.006c0.403,0.001,0.906,0.001,1.465,0.114
					c1.169,0.233,1.927,1.372,1.693,2.54C21.623,103.667,20.721,104.377,19.713,104.377z"/>
			</g>
			<g>
				<path style="fill:#525D7D;" d="M28.383,34.874c-2.331,0-4.59-0.891-6.246-2.475c-1.627-1.556-2.531-3.632-2.545-5.846
					c-0.028-4.394,3.213-8.091,7.38-8.415l0.237-0.02c0.602-0.051,1.22-0.103,1.903-0.046c3.731,0.294,7.666,3.85,7.575,8.677
					c-0.084,4.457-3.502,7.947-7.953,8.119C28.616,34.871,28.499,34.874,28.383,34.874z M28.506,22.365
					c-0.277,0-0.592,0.027-0.943,0.056l-0.252,0.02c-2.146,0.167-3.414,2.207-3.402,4.083c0.008,1.327,0.663,2.229,1.211,2.754
					c0.898,0.857,2.144,1.335,3.446,1.274c2.45-0.094,3.767-2.026,3.802-3.885c0.049-2.664-2.281-4.187-3.598-4.291
					C28.686,22.369,28.598,22.365,28.506,22.365z"/>
			</g>
			<g>
				<path style="fill:#525D7D;" d="M57.279,27.085c-1.787,0-3.571-0.101-5.297-0.201c-2.477-0.14-5.009-0.284-7.485-0.112
					c-1.193,0.101-2.222-0.814-2.304-2.003c-0.084-1.189,0.813-2.221,2.002-2.304c2.7-0.19,5.426-0.041,8.033,0.108
					c1.666,0.096,3.388,0.194,5.051,0.194c1.193,0,2.159,0.967,2.159,2.159C59.438,26.118,58.472,27.085,57.279,27.085z"/>
			</g>
			<g>
				<path style="fill:#525D7D;" d="M78.526,27.085H67.748c-1.193,0-2.159-0.967-2.159-2.159c0-1.192,0.966-2.159,2.159-2.159h10.778
					c1.193,0,2.159,0.967,2.159,2.159C80.685,26.118,79.719,27.085,78.526,27.085z"/>
			</g>
			<g>
				<path style="fill:#525D7D;" d="M99.465,27.702h-9.238c-1.193,0-2.159-0.967-2.159-2.159c0-1.192,0.966-2.159,2.159-2.159h9.238
					c1.193,0,2.159,0.967,2.159,2.159C101.624,26.735,100.658,27.702,99.465,27.702z"/>
			</g>
			<g>
				<path style="fill:#525D7D;" d="M125.639,28.318c-1.434,0-2.851-0.103-4.222-0.204c-2.002-0.146-3.86-0.288-5.743-0.112
					c-1.183,0.094-2.239-0.766-2.347-1.954c-0.109-1.188,0.766-2.238,1.953-2.347c1.987-0.183,4.322-0.049,6.45,0.108
					c1.353,0.098,2.631,0.191,3.908,0.191c1.193,0,2.159,0.967,2.159,2.159C127.798,27.351,126.832,28.318,125.639,28.318z"/>
			</g>
			<g>
				<path style="fill:#525D7D;" d="M45.271,193.06c-0.028,0-0.056,0-0.084-0.001c-1.192-0.046-2.12-1.049-2.075-2.241
					c0.235-6.11,1.176-12.062,2.14-17.835c-3.038-0.482-6.095-1.018-9.069-1.541c-9.672-1.695-19.673-3.449-29.492-3.449
					c-1.503,0-2.986,0.041-4.41,0.122c-1.186,0.059-2.21-0.845-2.278-2.034c-0.068-1.191,0.843-2.211,2.033-2.279
					c1.504-0.084,3.07-0.128,4.654-0.128c10.195,0,20.384,1.787,30.237,3.516c3.659,0.641,7.442,1.304,11.135,1.858
					c0.572,0.086,1.087,0.398,1.427,0.867c0.34,0.468,0.478,1.054,0.382,1.625l-0.131,0.782c-1.018,6.067-2.071,12.341-2.314,18.661
					C47.382,192.148,46.425,193.06,45.271,193.06z"/>
			</g>
			<g>
				<path style="fill:#525D7D;" d="M44.964,170.273c-0.118,0-0.237-0.01-0.358-0.03c-1.177-0.195-1.971-1.309-1.775-2.485
					c1.364-8.182,5.307-14.782,9.482-21.769c5.37-8.986,10.923-18.279,11.509-32.058c0.051-1.192,1.042-2.12,2.249-2.066
					c1.191,0.051,2.115,1.058,2.065,2.249c-0.633,14.873-6.733,25.082-12.115,34.091c-3.96,6.626-7.7,12.886-8.93,20.265
					C46.915,169.525,46,170.273,44.964,170.273z"/>
			</g>
			<g>
				<path style="fill:#525D7D;" d="M23.096,160.727c-0.343,0-0.69-0.081-1.014-0.254c-1.052-0.561-1.45-1.868-0.888-2.921
					c1.348-2.529,3.338-4.289,5.445-6.153c4.485-3.967,9.568-8.463,9.568-22.747c-0.01-6.49-2.405-34.857-5.961-37.539
					c-1.835,0.007-2.186,0.201-2.642,6.29c-0.467,6.24-1.248,16.685-9.314,30.127c-0.614,1.022-1.94,1.356-2.962,0.741
					c-1.022-0.613-1.354-1.94-0.74-2.962c7.539-12.565,8.244-21.991,8.711-28.228c0.396-5.289,0.77-10.286,7.134-10.286
					c2.986,0,6.07,2.564,8.4,21.159c1.205,9.61,1.692,19.672,1.692,20.698c0,16.229-6.113,21.637-11.025,25.982
					c-1.886,1.669-3.515,3.109-4.497,4.951C24.615,160.313,23.868,160.727,23.096,160.727z"/>
			</g>
			<g>
				<path style="fill:#525D7D;" d="M5.236,165.654c-1.14,0-2.093-0.894-2.154-2.045c-0.122-2.312-0.351-4.685-0.573-6.98
					c-0.337-3.483-0.686-7.083-0.686-10.679c0-3.081-0.238-6.255-0.469-9.324c-0.237-3.149-0.481-6.404-0.481-9.646
					c0-9.828,1.702-11.755,4.709-14.315c0.882-0.751,1.795-1.528,2.804-2.825c0.732-0.94,2.089-1.11,3.03-0.378
					c0.941,0.732,1.11,2.089,0.379,3.029c-1.282,1.647-2.464,2.654-3.414,3.462c-2.057,1.751-3.19,2.716-3.19,11.027
					c0,3.08,0.238,6.254,0.469,9.322c0.237,3.149,0.481,6.404,0.481,9.647c0,3.386,0.339,6.882,0.666,10.261
					c0.227,2.342,0.462,4.764,0.588,7.17c0.062,1.191-0.852,2.207-2.043,2.27C5.313,165.653,5.275,165.654,5.236,165.654z"/>
			</g>
			<g>
				<path style="fill:#525D7D;" d="M149.149,174.709c-0.243,0-0.491-0.041-0.733-0.128c-1.661-0.6-3.634-1.011-5.218-1.339
					c-1.178-0.245-2.028-0.422-2.619-0.642c-14.493-5.436-17.817-8.383-22.026-12.115c-1.983-1.758-4.034-3.577-7.666-5.967
					c-3.033-1.996-6.93-3.523-10.698-5c-7.966-3.123-16.204-6.352-16.204-14.359c0-6.529,6.27-7.076,12.692-7.076
					c6.367,0,9.819,2.253,12.339,3.898c1.607,1.049,2.641,1.688,3.885,1.804c0.089-3.097-5.263-13.816-9.229-21.755
					c-6.061-12.138-12.329-24.687-12.329-31.71c0-3.491,1.898-7.201,5.414-7.201c6.776,0,13.279,12.06,20.47,26.631
					c1.535,3.111,2.861,5.797,3.716,7.157c0.635,1.009,0.33,2.342-0.679,2.976c-1.011,0.635-2.342,0.333-2.977-0.679
					c-0.973-1.548-2.279-4.193-3.932-7.544c-3.577-7.249-11.955-24.223-16.598-24.223c-0.491,0-1.096,1.59-1.096,2.883
					c0,6.003,6.309,18.636,11.874,29.78c7.424,14.866,11.196,22.788,9.01,26.323c-0.678,1.095-1.825,1.698-3.23,1.698
					c-2.794,0-4.76-1.283-6.66-2.523c-2.407-1.572-4.896-3.196-9.979-3.196c-8.374,0-8.374,1.402-8.374,2.758
					c0,4.72,5.086,7.055,13.462,10.339c3.975,1.557,8.085,3.168,11.496,5.413c3.891,2.56,6.158,4.57,8.158,6.342
					c3.875,3.435,6.935,6.15,20.676,11.303c0.278,0.104,1.184,0.292,1.983,0.458c1.628,0.339,3.856,0.803,5.805,1.505
					c1.122,0.405,1.703,1.643,1.298,2.765C150.863,174.162,150.033,174.709,149.149,174.709z"/>
			</g>
			<g>
				<path style="fill:#525D7D;" d="M174.416,152.693c-0.709,0-1.404-0.349-1.816-0.988c-3.308-5.126-4.617-14.765-6.005-24.968
					c-2.34-17.211-4.993-36.718-17.237-36.718c-2.541,0-5.321,1.304-5.807,4.221c-0.133,0.797-0.7,1.453-1.47,1.701
					c-0.769,0.243-1.613,0.042-2.185-0.529c-0.656-0.656-1.041-1.278-1.322-1.73c-0.1-0.162-0.235-0.382-0.297-0.447
					c-0.009,0.02-0.231-0.07-0.857-0.07c-1.659,0-4.467,1.03-4.467,4.892c0,2.054,0,3.41-1.585,3.962
					c-1.528,0.529-2.485-0.675-2.799-1.072c-0.572-0.721-1.098-1.274-2.212-1.274c-1.833,0-4.485,2.239-4.485,6.287
					c0,0.426,0.024,0.853,0.066,1.281c0.117,1.186-0.749,2.243-1.936,2.361c-1.174,0.117-2.243-0.749-2.361-1.937
					c-0.056-0.568-0.087-1.139-0.087-1.705c0-6.344,4.552-10.606,8.803-10.606c0.968,0,1.795,0.183,2.498,0.461
					c0.945-4.585,4.775-6.969,8.565-6.969c1.648,0,2.691,0.368,3.435,0.924c1.81-2.506,4.909-4.069,8.503-4.069
					c16.014,0,18.937,21.492,21.515,40.454c1.321,9.714,2.568,18.89,5.354,23.208c0.647,1.002,0.358,2.339-0.644,2.986
					C175.222,152.582,174.816,152.693,174.416,152.693z"/>
			</g>
			<g>
				<path style="fill:#525D7D;" d="M153.663,194.908c-0.641,0-1.276-0.284-1.701-0.828c-2.9-3.707-4.577-6.466-6.353-9.388
					c-1.301-2.139-2.645-4.352-4.582-7.111c-0.337-0.481-0.464-1.078-0.352-1.653c0.112-0.576,0.453-1.082,0.946-1.402
					c4.406-2.851,9.099-5.312,13.639-7.693c2.295-1.203,4.603-2.415,6.902-3.687c5.229-2.894,10.194-5.998,14.78-8.919
					c0.935-0.6,2.173-0.385,2.858,0.486c1.439,1.833,2.49,3.934,3.507,5.968c0.533,1.067,0.101,2.363-0.966,2.897
					c-1.067,0.533-2.363,0.101-2.897-0.966c-0.639-1.279-1.255-2.511-1.938-3.629c-4.149,2.626-8.586,5.357-13.252,7.94
					c-2.328,1.288-4.665,2.515-6.989,3.733c-3.975,2.085-7.761,4.071-11.421,6.313c1.361,2.033,2.422,3.778,3.455,5.479
					c1.708,2.81,3.321,5.464,6.063,8.968c0.735,0.939,0.569,2.297-0.37,3.032C154.597,194.758,154.128,194.908,153.663,194.908z"/>
			</g>
			<g>
				<path style="fill:#525D7D;" d="M49.32,83.049c-1.136,0-2.088-0.887-2.153-2.035c-0.474-8.293-0.514-16.387-0.515-25.348
					c0-1.106,0.837-2.035,1.938-2.148c1.263-0.129,2.353-0.193,3.333-0.193c7.957,0,9.144,4.63,9.144,7.391
					c0,4.279-3.373,7.499-8.802,8.404c-0.423,0.07-0.839,0.013-1.207-0.146c0.07,3.971,0.196,7.865,0.42,11.792
					c0.068,1.19-0.842,2.211-2.033,2.279C49.404,83.048,49.362,83.049,49.32,83.049z M50.971,57.666
					c0.002,2.512,0.011,4.958,0.034,7.364c0.171-0.079,0.356-0.136,0.55-0.169c1.219-0.204,5.194-1.102,5.194-4.145
					c0-1.223,0-3.073-4.826-3.073C51.621,57.644,51.305,57.651,50.971,57.666z"/>
			</g>
			<g>
				<path style="fill:#525D7D;" d="M50.358,82.734c-1.193,0-2.159-0.967-2.159-2.159c0-1.192,0.966-2.159,2.159-2.159
					c3.705,0,8.179-2.488,8.179-5.576c0-2.78-3.574-4.057-6.232-3.552c-1.177,0.218-2.3-0.552-2.521-1.723
					c-0.221-1.172,0.551-2.301,1.723-2.522c4.961-0.929,11.349,1.837,11.349,7.797C62.855,78.671,56.269,82.734,50.358,82.734z"/>
			</g>
			<g>
				<path style="fill:#525D7D;" d="M75.303,81.233c-7.538,0-10.612-4.374-10.612-15.098c0-0.766,0.012-1.534,0.023-2.3
					c0.012-0.741,0.023-1.479,0.023-2.211c0-1.261-0.03-2.907-0.267-4.445c-0.181-1.179,0.627-2.281,1.805-2.463
					c1.179-0.181,2.281,0.626,2.463,1.805c0.282,1.827,0.318,3.687,0.318,5.103c0,0.753-0.012,1.514-0.023,2.277
					c-0.012,0.744-0.023,1.49-0.023,2.233c0,10.78,3.199,10.78,6.294,10.78c0.112,0,0.2-0.004,0.268-0.01
					c0.205-0.782,0.205-2.938,0.205-4.276c0-3.15-0.307-6.252-0.633-9.536c-0.131-1.326-0.263-2.658-0.375-4.002
					c-0.099-1.188,0.784-2.231,1.972-2.331c1.193-0.087,2.232,0.786,2.33,1.974c0.11,1.32,0.24,2.63,0.369,3.933
					c0.321,3.244,0.654,6.598,0.654,9.962C80.095,77.245,80.095,81.233,75.303,81.233z"/>
			</g>
			<g>
				<path style="fill:#525D7D;" d="M91.792,69.088c-6.358,0-9.686-5.856-9.686-11.64c0-0.732,0.052-1.47,0.155-2.193
					c0.168-1.179,1.261-1.999,2.442-1.833c1.181,0.169,2.002,1.262,1.833,2.443c-0.074,0.52-0.112,1.053-0.112,1.583
					c0,2.72,1.13,7.322,5.367,7.322c3.431,0,3.698-5.1,3.698-6.663c0-0.717-0.038-1.43-0.091-2.122
					c-0.091-1.189,0.798-2.227,1.987-2.318c1.191-0.118,2.227,0.797,2.319,1.986c0.062,0.803,0.104,1.625,0.104,2.454
					C99.808,64.779,96.661,69.088,91.792,69.088z"/>
			</g>
			<g>
				<path style="fill:#525D7D;" d="M92.136,77.061c-1.193,0-2.159-0.967-2.159-2.159V67.94c0-1.192,0.966-2.159,2.159-2.159
					c1.193,0,2.159,0.967,2.159,2.159v6.962C94.295,76.094,93.329,77.061,92.136,77.061z"/>
			</g>
			<g>
				<path style="fill:#525D7D;" d="M36.688,82.22c-0.451,0-0.906-0.14-1.294-0.432c-4.911-3.684-6.208-13.453-6.208-18.105
					c0-17.992,13.191-19.722,18.824-20.462c0.868-0.114,1.618-0.212,2.082-0.329c1.159-0.291,2.328,0.413,2.618,1.57
					c0.29,1.157-0.414,2.329-1.571,2.619c-0.705,0.177-1.568,0.29-2.568,0.42c-6,0.789-15.067,1.978-15.067,16.182
					c0,4.553,1.424,12.357,4.48,14.65c0.954,0.715,1.148,2.069,0.432,3.023C37.993,81.922,37.344,82.22,36.688,82.22z"/>
			</g>
			<g>
				<path style="fill:#525D7D;" d="M76.798,94.629c-20.131,0-30.568-1.947-33.841-6.31c-0.716-0.954-0.521-2.308,0.432-3.024
					c0.953-0.714,2.307-0.521,3.023,0.432c1.568,2.092,8.113,4.584,30.386,4.584c2.056,0,4.114-0.015,6.178-0.032
					c2.087-0.016,4.18-0.032,6.282-0.032c1.193,0,2.159,0.967,2.159,2.159c0,1.192-0.966,2.159-2.159,2.159
					c-2.091,0-4.173,0.017-6.248,0.032C80.934,94.613,78.865,94.629,76.798,94.629z"/>
			</g>
			<g>
				<path style="fill:#525D7D;" d="M112.35,82.671c-0.292,0-0.59-0.059-0.875-0.186c-1.09-0.485-1.581-1.76-1.096-2.851
					c0.477-1.072,1.009-1.993,1.524-2.883c1.42-2.457,2.646-4.577,2.646-9.641c0-9.728-2.706-15.645-8.517-18.619
					c-5.268-2.697-12.394-2.694-19.337-2.696h-0.288c-4.064,0-8.193,0.146-12.187,0.288c-4.011,0.142-8.157,0.29-12.256,0.29
					c-1.193,0-2.159-0.967-2.159-2.159c0-1.192,0.966-2.159,2.159-2.159c4.022,0,8.13-0.146,12.103-0.287
					c4.031-0.143,8.199-0.291,12.34-0.291h0.288c7.48,0.051,15.111,0,21.305,3.17c7.312,3.743,10.867,11.092,10.867,22.464
					c0,6.223-1.714,9.187-3.226,11.802c-0.48,0.829-0.933,1.612-1.316,2.477C113.968,82.193,113.178,82.671,112.35,82.671z"/>
			</g>
			<g>
				<path style="fill:#525D7D;" d="M97.535,107.527c-9.447-0.129-18.944-0.401-28.128-0.662c-9.192-0.263-18.696-0.534-28.104-0.662
					c-1.192-0.017-2.146-0.997-2.13-2.189c0.016-1.193,0.96-2.153,2.189-2.129c9.441,0.129,18.961,0.401,28.168,0.663
					c9.168,0.261,18.649,0.531,28.034,0.661c1.193,0.017,2.146,0.997,2.13,2.189C99.677,106.58,98.714,107.527,97.535,107.527z"/>
			</g>
		</g>
	</g>
</g>
<g id="Layer_1">
</g>
</svg>
