<?xml version="1.0" encoding="iso-8859-1"?>
<!-- Generator: Adobe Illustrator 21.0.2, SVG Export Plug-In . SVG Version: 6.00 Build 0)  -->
<svg version="1.1" xmlns="http://www.w3.org/2000/svg" xmlns:xlink="http://www.w3.org/1999/xlink" x="0px" y="0px"
	 viewBox="0 0 170.528 197.028" style="enable-background:new 0 0 170.528 197.028;" xml:space="preserve">
<g id="_x38_4">
	<g>
		<g>
			<g>
				<path style="fill:#E0DFE6;" d="M107.638,52.321c-1.766-1.393-3.975-1.998-6.046-0.78c-1.39,0.817-2.265,1.664-3.044,3.08
					c-2.356,4.28,2.061,8.21,5.673,7.386c2.992,2.187,6.417,4.993,6.476,7.248c0.058,2.21-8.853,8.926-10.325,10.321
					c-6.183,5.855-12.522,11.542-18.937,17.142c-7.255-7.528-15.065-15.252-24.226-20.12c-2.178-1.157-5.28,1.331-3.646,3.646
					c6.838,9.691,16.142,17.801,24.208,26.46c1.872,2.009,4.836,1.609,6.761,0c10.943-9.147,22.526-18.506,32.075-29.138
					C125.788,67.342,116.118,59.011,107.638,52.321z"/>
			</g>
			<g>
				<path style="fill:#E0DFE6;" d="M148.203,57.426c-2.364-5.855-5.649-11.287-9.983-15.902
					c-5.045-5.372-10.155-7.868-16.789-10.675c-1.194-0.505-2.652,0.908-1.513,1.96c8.13,7.513,14.825,19.064,18.297,29.467
					c0.636,1.906,1.123,3.836,1.541,5.778c-0.163,11.938,1.228,23.342-3.63,34.761c-5.04,11.846-14.662,20.975-26.211,26.457
					c-11.492,5.454-24.805,6.726-37.176,3.946c-13.271-2.982-24.375-9.954-35.907-16.791c-1.465-0.868-3.14,0.855-2.308,2.308
					c15.837,27.662,55.41,32.654,82.199,20.006c13.78-6.506,24.744-17.969,30.53-32.065c2.452-5.973,4.247-12.665,4.668-19.321
					C154.964,78.127,151.324,65.154,148.203,57.426z"/>
			</g>
			<g>
				<path style="fill:#E0DFE6;" d="M88.507,146.367c-2.014-0.717-4.481,0.12-5.939,1.57c-1.27,1.263-2.313,2.675-3.199,4.18
					c-0.526-0.19-1.083-0.335-1.749-0.39c-2.592-0.211-3.459,1.504-5.549,1.962c-4.829,1.058-12.183-3.49-16.902-4.756
					c-10.137-2.721-13.059,5.4-14.389,14.329c-0.239,1.607,1.918,2.273,2.472,0.682c0.906-2.603,2.463-6.03,4.922-7.88
					c6.549,6.144,17.16,12.658,26.117,11.216c-1.793,7.685-3.436,15.334-4.468,23.169c-0.848,6.433,8.6,6.654,10.575,1.431
					c3.697-9.778,5.564-20.049,8.965-29.897C91.172,156.746,96.265,149.129,88.507,146.367z"/>
			</g>
			<g>
				<path style="fill:#E0DFE6;" d="M167.841,99.28c-2.096-2.211-5.176-0.307-5.471,2.266c-0.927,8.077-10.379,9.562-14.318,15.682
					c-1.862,2.893-2.334,6.074-3.126,9.334c-1.104,4.546-2.89,6.348-6.727,8.802c-2.401,1.536-4.775,3.035-7.144,4.488
					c-0.871-0.164-1.887,0.265-2.297,1.032c-0.086,0.161-0.153,0.33-0.229,0.495c-10.585,6.316-21.233,11.48-33.908,13.797
					c-1.671,0.305-1.854,2.413-0.923,3.496c6.729,7.825,17.174,6.753,25.988,3.165c3.283-1.336,6.654-2.966,10.008-4.759
					c0.273,0.705,0.555,1.382,0.835,2.022c2.747,6.263,7.077,13.408,13.618,16.04c6.408,2.578,12.399-7.585,6.896-11.847
					c-4.133-3.201-7.541-7.717-10.601-11.916c-0.11-0.15-0.214-0.312-0.322-0.466c3.267-2.119,6.41-4.32,9.289-6.518
					c3.824-2.921,6.345-6.333,7.244-11.109c1.191-6.329-0.652-10.788,5.004-15.367C167.339,113.318,174.516,106.322,167.841,99.28z"
					/>
			</g>
		</g>
		<g>
			<g>
				<path style="fill:#525D7D;" d="M70.217,158.535c-6.43,0-9.38-3.508-11.982-6.605c-2.414-2.872-4.32-5.139-8.877-5.139
					c-2.577,0-4.502,0.59-6.364,1.161c-1.568,0.481-3.048,0.935-4.67,0.935c-4.622,0-8.569-2.874-9.598-6.992
					c-3.066-12.261-8.175-15.141-12.683-17.683c-3.855-2.173-7.841-4.421-7.841-12.02c0-3.984,1.384-6.064,2.605-7.898
					c1.231-1.85,2.293-3.448,2.293-7.46c0-7.635-3.561-11.119-7.005-14.488C3.1,79.416,0,76.385,0,71.146
					c0-6.24,3.778-9.385,7.432-12.427c4.182-3.483,8.132-6.772,8.132-15.129c0-0.978-0.028-1.968-0.056-2.963
					c-0.03-1.05-0.06-2.108-0.06-3.17c0-11.868,5.471-18.404,15.406-18.404c1.302,0,2.616,0.084,3.887,0.164
					c1.272,0.082,2.473,0.157,3.661,0.157c5.732,0,7.243-3.146,9.333-7.5C50.274,6.584,53.435,0,65.354,0
					c5.864,0,9.584,2.218,12.867,4.175c2.484,1.482,4.629,2.761,7.339,2.761c2.78,0,4.996-1.224,7.562-2.643
					c3.449-1.907,7.358-4.068,13.591-4.068c8.809,0,13.703,8.565,16.331,13.165c2.401,4.2,7.082,5.273,12.038,6.407
					c6.779,1.55,15.217,3.482,15.217,15.534c0,0.908-0.042,1.826-0.085,2.742c-0.039,0.846-0.079,1.691-0.079,2.525
					c0,5.267,3.11,7.252,7.047,9.765c4.114,2.626,9.235,5.894,9.235,13.84c0,2.473-0.643,4.799-1.912,6.914
					c-0.403,0.673-0.829,1.358-1.262,2.052c-2.243,3.604-4.563,7.329-4.563,10.752c0,2.062,1.19,3.937,2.568,6.11
					c1.808,2.848,3.856,6.077,3.856,10.653c0,7.333-5.63,10.305-8.993,12.08l-0.526,0.278c-4.323,2.307-4.359,4.408-4.419,7.89
					c-0.124,7.181-1.692,13.722-19.69,21.033c-5.027,2.042-7.071,5.02-9.048,7.898c-2.217,3.229-4.509,6.567-10.401,6.567
					c-3.811,0-8.45-1.22-12.936-2.401c-3.917-1.03-7.968-2.096-10.745-2.096c-3.913,0-5.811,1.365-8.008,2.945
					C77.953,156.592,75.251,158.535,70.217,158.535z M49.358,142.472c6.568,0,9.551,3.548,12.183,6.678
					c2.379,2.831,4.258,5.066,8.677,5.066c3.643,0,5.388-1.255,7.598-2.845c2.449-1.76,5.224-3.756,10.529-3.756
					c3.336,0,7.468,1.087,11.843,2.238c4.221,1.11,8.585,2.259,11.838,2.259c3.619,0,4.764-1.667,6.841-4.693
					c2.118-3.084,4.755-6.924,10.983-9.454c16.819-6.833,16.91-12.056,16.998-17.108c0.066-3.806,0.141-8.123,6.704-11.623
					l0.543-0.288c3.918-2.068,6.691-3.87,6.691-8.261c0-3.323-1.547-5.76-3.184-8.341c-1.593-2.51-3.241-5.107-3.241-8.422
					c0-4.657,2.771-9.107,5.215-13.033c0.42-0.675,0.834-1.34,1.226-1.992c0.86-1.435,1.297-3.014,1.297-4.694
					c0-5.579-3.195-7.618-7.24-10.201c-4.238-2.704-9.042-5.771-9.042-13.404c0-0.9,0.041-1.812,0.084-2.725
					c0.039-0.849,0.08-1.699,0.08-2.541c0-8.61-4.975-9.75-11.861-11.325c-5.383-1.231-11.484-2.629-14.824-8.473
					c-3.038-5.316-6.767-10.989-12.583-10.989c-5.119,0-8.363,1.794-11.502,3.528c-2.83,1.564-5.756,3.182-9.65,3.182
					c-3.9,0-6.773-1.713-9.551-3.369c-3.076-1.834-5.98-3.566-10.655-3.566c-9.202,0-11.298,4.367-13.725,9.425
					c-2.239,4.664-4.776,9.951-13.226,9.951c-1.325,0-2.652-0.084-3.935-0.166c-1.259-0.08-2.449-0.156-3.613-0.156
					c-2.742,0-11.088,0-11.088,14.086c0,1.021,0.029,2.038,0.058,3.047c0.03,1.037,0.058,2.066,0.058,3.085
					c0,10.381-5.372,14.853-9.688,18.448c-3.411,2.841-5.876,4.893-5.876,9.109c0,3.421,2.012,5.389,4.798,8.113
					c3.7,3.618,8.304,8.122,8.304,17.575c0,5.318-1.673,7.831-3.016,9.851c-1.093,1.643-1.882,2.83-1.882,5.507
					c0,5.076,2.004,6.206,5.643,8.258c4.742,2.673,11.235,6.334,14.751,20.397c0.548,2.191,2.772,3.721,5.409,3.721
					c0.974,0,2.1-0.346,3.403-0.745C43.69,143.222,46.133,142.472,49.358,142.472z"/>
			</g>
			<g>
				<path style="fill:#525D7D;" d="M84.084,139.67c-16.347,0-31.727-6.642-43.365-18.738C28.761,108.499,22.366,91.66,23.177,74.732
					c1.328-27.744,24.976-51.209,53.838-53.421c2.242-0.171,4.45-0.259,6.564-0.259c34.909,0.011,59.775,23.29,60.519,56.611
					c0.367,16.426-5.675,31.916-17.011,43.618c-11.176,11.536-26.649,18.237-42.454,18.386
					C84.451,139.668,84.267,139.67,84.084,139.67z M83.579,25.37c-2.004,0-4.102,0.083-6.234,0.246
					c-26.731,2.048-48.63,23.713-49.856,49.321c-0.753,15.747,5.203,31.42,16.343,43c10.935,11.367,25.46,17.568,40.761,17.412
					c14.657-0.138,29.015-6.361,39.392-17.073c10.527-10.866,16.136-25.255,15.796-40.517
					C139.093,46.924,116.001,25.38,83.579,25.37z"/>
			</g>
			<g>
				<path style="fill:#525D7D;" d="M79.401,115.287c-0.587,0-1.171-0.238-1.596-0.704c-9.899-10.858-21.388-23.533-32.472-36.556
					c-0.72-0.846-0.681-2.101,0.091-2.9c4.594-4.755,9.488-9.485,14.963-14.46c0.434-0.394,1.008-0.59,1.595-0.557
					c0.585,0.039,1.129,0.315,1.507,0.763l1.756,2.086c3.776,4.484,7.667,9.106,11.652,13.54
					c9.451-8.413,18.932-16.689,28.926-25.254c0.894-0.765,2.233-0.673,3.016,0.201c1.306,1.463,2.619,2.918,3.933,4.374
					c4.193,4.647,8.529,9.451,12.564,14.447c0.732,0.905,0.613,2.228-0.268,2.99c-7.742,6.695-15.223,13.983-22.457,21.031
					c-7.015,6.836-14.268,13.903-21.794,20.466C80.411,115.112,79.905,115.287,79.401,115.287z M49.897,76.722
					c10.113,11.827,20.514,23.332,29.671,33.384c6.876-6.091,13.557-12.599,20.032-18.909c6.788-6.613,13.791-13.438,21.063-19.825
					c-3.586-4.336-7.396-8.56-11.095-12.658c-0.846-0.937-1.692-1.875-2.536-2.814c-9.946,8.539-19.403,16.813-28.858,25.247
					c-0.882,0.787-2.233,0.717-3.031-0.155c-4.545-4.975-8.944-10.199-13.198-15.253l-0.308-0.364
					C57.421,69.251,53.555,72.989,49.897,76.722z"/>
			</g>
			<g>
				<path style="fill:#525D7D;" d="M60.312,119.877c-4.776,0-5.655-3.327-6.077-4.925c-0.039-0.146-0.087-0.332-0.136-0.495
					c-0.194,0.037-0.418,0.089-0.627,0.138c-0.63,0.148-1.346,0.315-2.129,0.315c-4.429,0-5.207-3.829-5.626-5.887
					c-0.527-2.591-0.779-2.797-1.962-2.797c-0.275,0-0.563,0.03-0.855,0.089c-1.171,0.229-2.307-0.524-2.542-1.691
					c-0.235-1.169,0.522-2.308,1.692-2.543c0.571-0.115,1.145-0.173,1.706-0.173c4.921,0,5.748,4.069,6.193,6.255
					c0.494,2.429,0.685,2.429,1.394,2.429c0.285,0,0.722-0.103,1.145-0.201c0.591-0.139,1.26-0.295,1.963-0.295
					c2.967,0,3.662,2.63,3.959,3.754c0.382,1.448,0.451,1.709,1.902,1.709c0.313,0,0.676-0.041,1.078-0.121
					c1.173-0.228,2.307,0.529,2.538,1.698c0.233,1.169-0.527,2.305-1.697,2.539C61.543,119.811,60.915,119.877,60.312,119.877z"/>
			</g>
			<g>
				<path style="fill:#525D7D;" d="M82.466,127.809c-3.021,0-4.922-1.227-6.45-2.212c-1.124-0.725-1.801-1.136-2.624-1.136
					c-0.621,0-1.075,0.208-1.349,0.62c-0.662,0.991-2.005,1.261-2.994,0.599c-0.992-0.662-1.26-2.002-0.599-2.994
					c1.077-1.616,2.879-2.543,4.942-2.543c2.136,0,3.638,0.97,4.965,1.826c1.267,0.817,2.36,1.522,4.109,1.522
					c1.19,0,2.738-0.755,3.568-1.16c0.636-0.309,1.056-0.514,1.637-0.514c0.919,0,1.742,0.29,2.536,0.569
					c0.665,0.235,1.292,0.455,1.839,0.455c0.027,0,0.051,0,0.072-0.001c0.023-0.053,0.046-0.108,0.07-0.163
					c0.266-0.602,0.711-1.607,1.823-2.347c0.99-0.665,2.333-0.392,2.993,0.599c0.661,0.992,0.393,2.333-0.6,2.994
					c-0.065,0.044-0.169,0.277-0.268,0.502c-0.393,0.888-1.21,2.735-4.091,2.735c-1.285,0-2.387-0.388-3.272-0.7
					c-0.241-0.084-0.563-0.198-0.807-0.266C86.783,126.77,84.652,127.809,82.466,127.809z"/>
			</g>
			<g>
				<path style="fill:#525D7D;" d="M108.905,120.522c-0.997,0-1.901-0.298-2.687-0.886c-0.954-0.715-1.149-2.068-0.435-3.022
					c0.715-0.954,2.066-1.148,3.023-0.436c0.025,0.02,0.033,0.025,0.099,0.025c1.862,0,2.422-0.905,3.414-2.786
					c0.792-1.503,1.876-3.559,4.33-3.968c2.826-0.471,3.107-1.427,3.722-3.523c0.179-0.609,0.363-1.226,0.605-1.83
					c0.443-1.106,1.7-1.644,2.806-1.202c1.107,0.443,1.645,1.699,1.203,2.807c-0.191,0.475-0.33,0.963-0.471,1.442
					c-0.7,2.384-1.659,5.648-7.155,6.564c-0.342,0.058-0.808,0.942-1.219,1.722C115.136,117.335,113.455,120.522,108.905,120.522z"
					/>
			</g>
			<g>
				<path style="fill:#525D7D;" d="M47.045,52.216c-1.193,0-2.159-0.967-2.159-2.159c0-3.965,4.164-7.159,7.611-7.159
					c0.34,0,0.687,0.017,1.034,0.035c0.273,0.014,0.546,0.03,0.816,0.03c0.956,0,1.275-0.322,2.276-2.295
					c0.671-1.323,1.506-2.969,3.143-4.06c1.065-0.71,2.272-0.717,3.153-0.722c0.295-0.001,0.741-0.004,0.883-0.049
					c0.99-0.661,2.283-0.367,2.944,0.626c0.661,0.992,0.343,2.359-0.649,3.019c-1.065,0.71-2.271,0.717-3.153,0.723
					c-0.294,0.001-0.74,0.004-0.883,0.049c-0.594,0.41-1.077,1.362-1.588,2.368c-0.942,1.855-2.364,4.66-6.127,4.66
					c-0.344,0-0.693-0.017-1.041-0.035c-0.272-0.014-0.542-0.03-0.809-0.03c-1.18,0-3.293,1.432-3.293,2.841
					C49.204,51.249,48.238,52.216,47.045,52.216z"/>
			</g>
			<g>
				<path style="fill:#525D7D;" d="M75.873,37.452c-1.193,0-2.159-0.967-2.159-2.159c0-2.432,1.984-4.065,4.937-4.065
					c1.465,0,2.746,0.533,3.876,1.004c0.836,0.347,1.625,0.676,2.239,0.676c0.323,0,0.505-0.115,1.08-0.569
					c0.73-0.575,1.928-1.486,3.624-1.302c1.135,0.126,2.148,0.589,3.041,0.996c0.845,0.385,1.642,0.749,2.346,0.749
					c1.193,0,2.159,0.967,2.159,2.159c0,1.192-0.966,2.159-2.159,2.159c-1.642,0-3.026-0.631-4.139-1.139
					c-0.656-0.301-1.277-0.583-1.725-0.632c-0.006,0.032-0.287,0.253-0.472,0.399c-0.756,0.596-1.898,1.497-3.754,1.497
					c-1.476,0-2.763-0.536-3.898-1.008c-0.83-0.346-1.614-0.672-2.217-0.672c-0.288,0-0.502,0.034-0.643,0.069
					C77.852,36.655,76.956,37.452,75.873,37.452z"/>
			</g>
			<g>
				<path style="fill:#525D7D;" d="M120.169,53.271c-0.792,0-1.554-0.437-1.933-1.193c-0.346-0.693-0.54-1.465-0.728-2.21
					c-0.103-0.411-0.265-1.056-0.408-1.376c-1.361-0.529-3.184-1.867-5.555-3.662c-0.497-0.375-1.106-0.836-1.575-1.175
					c-0.756,0.256-1.625,0.081-2.224-0.519c-0.838-0.843-0.843-2.198-0.004-3.04c0.859-0.86,1.737-1.042,2.323-1.042
					c1.004,0,1.718,0.541,4.086,2.332c1.225,0.928,3.773,2.855,4.543,3.092c2.072,0.637,2.61,2.775,3.003,4.335
					c0.124,0.498,0.266,1.061,0.403,1.333c0.533,1.067,0.1,2.363-0.966,2.897C120.824,53.198,120.494,53.271,120.169,53.271z"/>
			</g>
			<g>
				<path style="fill:#525D7D;" d="M68.245,197.028c-0.493,0-0.979-0.169-1.373-0.492c-4.918-4.051-11.537-9.894-16.121-14.224
					c-1.999,0.297-4.008,0.559-6.017,0.821c-4.763,0.62-9.688,1.262-14.349,2.387c-0.79,0.188-1.618-0.077-2.146-0.693
					c-0.529-0.617-0.666-1.476-0.358-2.227c4.53-11.013,9.727-21.862,14.752-32.354l2.463-5.146
					c0.513-1.075,1.804-1.529,2.878-1.018c1.076,0.513,1.532,1.802,1.018,2.879l-2.465,5.152
					c-4.419,9.225-8.971,18.729-13.065,28.338c3.577-0.67,7.188-1.141,10.713-1.601c2.326-0.302,4.653-0.606,6.965-0.964
					c0.666-0.101,1.337,0.108,1.822,0.572c3.7,3.537,9.066,8.333,13.705,12.274c1.716-9.991,5.24-19.342,8.391-27.704
					c1.391-3.688,2.704-7.173,3.674-10.263c0.359-1.137,1.567-1.775,2.707-1.411c1.138,0.357,1.77,1.569,1.413,2.707
					c-1.007,3.203-2.341,6.743-3.753,10.49c-3.47,9.206-7.402,19.64-8.712,30.574c-0.093,0.783-0.608,1.453-1.34,1.747
					C68.789,196.977,68.516,197.028,68.245,197.028z"/>
			</g>
			<g>
				<path style="fill:#525D7D;" d="M108.193,191.3c-0.853-0.027-1.563-0.475-1.921-1.174c-3.253-6.342-5.982-13.026-8.62-19.489
					c-2.446-5.991-4.974-12.184-7.89-18.016c-0.533-1.067-0.1-2.364,0.966-2.897c1.065-0.533,2.364-0.101,2.897,0.966
					c2.989,5.98,5.549,12.25,8.026,18.315c2.117,5.185,4.293,10.515,6.735,15.646c2.612-4.251,5.805-9.144,9.417-13.753
					c0.488-0.621,1.277-0.928,2.055-0.797c4.364,0.729,10.327,1.413,15.574,1.919c-6.724-10.174-10.491-19.436-11.776-28.861
					c-0.161-1.182,0.666-2.27,1.848-2.432c1.182-0.17,2.269,0.666,2.431,1.847c1.345,9.869,5.68,19.64,13.64,30.751
					c0.491,0.685,0.538,1.591,0.123,2.324c-0.415,0.734-1.217,1.146-2.058,1.087c-5.651-0.474-13.456-1.276-19.214-2.17
					c-4.137,5.417-7.697,11.186-10.376,15.681C109.656,190.901,108.952,191.3,108.193,191.3z"/>
			</g>
		</g>
	</g>
</g>
<g id="Layer_1">
</g>
</svg>
