<?xml version="1.0" encoding="iso-8859-1"?>
<!-- Generator: Adobe Illustrator 21.0.2, SVG Export Plug-In . SVG Version: 6.00 Build 0)  -->
<svg version="1.1" xmlns="http://www.w3.org/2000/svg" xmlns:xlink="http://www.w3.org/1999/xlink" x="0px" y="0px"
	 viewBox="0 0 215.448 159.059" style="enable-background:new 0 0 215.448 159.059;" xml:space="preserve">
<g id="_x38_5">
	<g>
		<g>
			<path style="fill:#E0DFE6;" d="M90.394,85.498c-4.216-5.948-9.222-10.191-15.525-13.804c-5.268-3.02-10.886-7.543-17.192-7.517
				c-2.299,0.009-4.558,2.023-4.429,4.429c0.658,12.216,15.377,16.648,20.009,26.91c0.284,0.629,0.616,1.178,0.976,1.678
				c-3.251,0.569-6.483,0.613-9.923,1.108c-2.906,0.419-5.221,1.24-6.626,3.997c-3.101,6.087,1.847,13.999,3.265,20.682
				c-3.191,0.698-7.565,0.468-9.996,0.849c-3.19,0.5-5.628,1.094-7.869,3.391c-0.351,0.36-0.336,0.917,0,1.28
				c2.889,3.129,6.925,3.368,10.998,3.492c3.915,0.119,10.075,0.734,13.745-1.226c3.549-1.895,3.432-5.452,3.216-9.044
				c-0.132-2.196-0.569-4.387-0.93-6.549c-0.206-1.234-1.029-3.693-1.448-5.835c4.972-0.558,9.809,0.015,14.683-2.835
				c2.646-1.547,3.141-4.653,2.248-7.167C90.701,96.948,94.4,91.148,90.394,85.498z"/>
			<path style="fill:#E0DFE6;" d="M116.232,96.436c-1.299-13.717-9.8-28.818-23.122-33.879c-2.77-1.053-5.109,2.525-3.727,4.848
				c6.19,10.406,11.903,18.973,12.072,31.561c0.083,6.174-1.342,12.421-4.103,17.953c-0.883,1.769-1.93,3.456-2.907,5.153
				c-2.852,2.853-5.003,6.712-7.613,9.698c-4.478,5.123-9.623,9.913-16.082,12.38c-7.061,2.697-14.841,2.039-22.207,1.387
				c-7.409-0.655-15.467-3.433-22.838-1.847c-0.638,0.137-0.88,0.918-0.588,1.445c4.04,7.286,14.142,10.521,21.822,12.248
				c8.794,1.977,18.71,2.533,27.419-0.144c7.779-2.391,14.527-7.505,20.126-13.288c2.084-2.153,4.831-4.844,7.235-7.799
				C113.648,129.494,117.341,108.141,116.232,96.436z"/>
			<path style="fill:#E0DFE6;" d="M214.608,111.708c-0.502-7.083-0.967-14.173-1.621-21.244c-1.141-12.337-0.55-28.522-7.44-39.256
				c-0.768-1.196-2.834-1.46-3.534,0c-5.07,10.563-3.721,24.514-3.254,36.477c-28.035,1.896-56.33,1.425-84.192,5.03
				c-2.186,0.283-3.298,3.929-0.586,4.329c28.056,4.137,56.783,2.051,84.996,0.153c0.041,2.25,0.074,4.499,0.125,6.749
				c-0.392-0.13-0.807-0.234-1.268-0.277c-13.667-1.257-27.895-0.737-41.604-0.399c-13.054,0.322-26.681,0.459-39.007,5.177
				c-0.965,0.369-1.125,1.819,0,2.125c12.638,3.445,26.021,2.655,39.007,2.579c13.812-0.081,27.819,0.606,41.604-0.037
				c0.552-0.026,1.034-0.138,1.485-0.286c0.015,0.57,0.027,1.14,0.042,1.71c0.015,0.596,0.024,1.183,0.03,1.766
				c-0.228-0.032-0.452-0.071-0.701-0.072c-15.679-0.093-31.4,0.709-47.083,0.918c-14.851,0.198-30.077-0.365-44.501,3.572
				c-0.961,0.262-0.988,1.724,0,1.974c14.482,3.656,29.664,2.813,44.501,2.727c15.681-0.09,31.412,0.411,47.083,0.019
				c0.433-0.011,0.824-0.081,1.194-0.18c0.083,0.464,0.18,0.924,0.296,1.38c-5.896,3.079-14.291,1.794-20.64,1.979l-27.024,0.786
				c-9.004,0.262-18.028,0.368-27.025,0.806c-7.816,0.38-17.36,0.053-24.088,4.536c-0.432,0.288-0.752,0.654-0.964,1.056
				c-5.096,0.898-10.231,2.34-13.901,5.633c-1.671,1.5-1.448,5.041,0.773,5.996c6.339,2.727,13.864,1.523,20.642,1.228
				c6.194-0.269,13.879,0.767,17.662-4.874c0.926,0.017,1.838,0.036,2.721,0.066c10.427,0.354,20.862,0.537,31.292,0.805
				c10.414,0.268,20.875,0.852,31.292,0.797c7.925-0.042,14.719-1.301,21.027-6.274c2.416-1.905,3.084-6.15,1.958-9.103
				C216.601,124.582,215.034,117.723,214.608,111.708z"/>
			<path style="fill:#E0DFE6;" d="M125.792,30.543c-9.556-2.131-21.831-0.387-25.292,10.314c-2.186,6.759,1.126,13.189,6.502,16.765
				c2.918,3.841,7.439,6.476,12.462,6.994c9.225,0.951,19.333-4.538,21.72-13.912C143.805,40.403,134.972,32.59,125.792,30.543z"/>
		</g>
		<g>
			<g>
				<path style="fill:#525D7D;" d="M50.397,149.385c-13.587-0.015-26.278-5.363-35.794-15.059
					C4.94,124.479-0.243,111.217,0.009,96.984c0.464-26.187,21.224-47.617,47.263-48.789c0.524-0.023,1.048-0.039,1.572-0.048
					c14.141-0.215,27.338,5.031,37.193,14.822c9.722,9.661,14.998,22.738,14.855,36.824
					C100.613,127.613,78.438,149.385,50.397,149.385z M47.466,52.509C23.699,53.578,4.75,73.147,4.327,97.06
					c-0.232,13.067,4.513,25.228,13.359,34.242c8.698,8.863,20.297,13.752,32.66,13.765c26.124,0.001,45.969-19.472,46.229-45.317
					c0.131-12.911-4.693-24.885-13.581-33.717c-9.02-8.963-21.092-13.789-34.08-13.568C48.429,52.472,47.947,52.487,47.466,52.509z"
					/>
			</g>
			<g>
				<path style="fill:#525D7D;" d="M39.312,127.527c-1.072,0-1.996-0.794-2.139-1.878c-0.982-7.481-1.649-15.085-2.293-22.44
					l-0.09-1.028c-1.718,0.052-3.435,0.081-5.111,0.109c-3.28,0.056-6.672,0.113-9.943,0.349c-0.864,0.056-1.679-0.396-2.075-1.165
					c-0.396-0.769-0.294-1.7,0.258-2.366c3.393-4.093,6.805-8.144,10.214-12.192c6.24-7.411,12.692-15.073,18.87-22.816
					C47.4,63.6,48,63.303,48.639,63.287c0.637-0.012,1.253,0.254,1.673,0.733l28.843,32.822c0.542,0.616,0.687,1.487,0.375,2.246
					c-0.312,0.759-1.028,1.276-1.846,1.333c-2.506,0.174-5.012,0.319-7.518,0.464c-2.71,0.156-5.492,0.316-8.256,0.517
					c0.683,7.009,1.699,14.302,3.095,22.219c0.107,0.606-0.05,1.229-0.431,1.712c-0.382,0.483-0.951,0.781-1.565,0.817
					c-2.791,0.169-5.579,0.295-8.359,0.421c-4.988,0.226-10.146,0.461-15.126,0.945C39.452,127.523,39.382,127.527,39.312,127.527z
					 M36.763,97.789c1.112,0,2.05,0.85,2.149,1.969l0.271,3.075c0.581,6.632,1.18,13.469,2.011,20.198
					c4.421-0.371,8.905-0.574,13.261-0.772c1.958-0.089,3.92-0.178,5.884-0.282c-1.344-7.936-2.305-15.276-2.932-22.369
					c-0.051-0.573,0.129-1.142,0.5-1.582c0.371-0.439,0.902-0.713,1.475-0.76c3.52-0.287,7.086-0.492,10.535-0.691
					c1.032-0.06,2.063-0.119,3.096-0.181L48.766,68.803c-5.715,7.1-11.611,14.102-17.331,20.893
					c-2.349,2.791-4.701,5.583-7.047,8.39c1.754-0.056,3.501-0.085,5.219-0.114c2.32-0.039,4.719-0.079,7.059-0.182
					C36.699,97.789,36.731,97.789,36.763,97.789z"/>
			</g>
			<g>
				<path style="fill:#525D7D;" d="M98.23,94.155c-1.186,0-2.152-0.958-2.159-2.146c-0.007-1.193,0.954-2.165,2.146-2.172
					c33.982-0.208,68.022-1.452,97.077-2.667c0.099-3.565,0.264-7.143,0.424-10.621c0.254-5.507,0.516-11.201,0.516-16.804
					c0-1.666-0.751-33.337-2.557-55.356c-7.798,0.279-15.595,0.599-23.393,0.918c-21.822,0.893-44.387,1.817-66.602,1.817
					c-4.788,0-7.493-0.034-9.851-0.064c-1.807-0.022-3.409-0.043-5.599-0.043c-14.584,0-33.29,1.388-47.097,2.629
					c0.318,11.297,0.476,22.71,0.63,33.768l0.112,7.888c0.018,1.192-0.935,2.173-2.127,2.191c-1.21-0.037-2.173-0.935-2.191-2.128
					l-0.112-7.891c-0.162-11.704-0.33-23.806-0.687-35.73c-0.034-1.141,0.825-2.111,1.961-2.215
					c14.047-1.292,34.04-2.831,49.511-2.831c2.211,0,3.828,0.02,5.653,0.044c2.345,0.03,5.034,0.063,9.796,0.063
					c22.126,0,44.646-0.922,66.425-1.813c8.491-0.348,16.981-0.695,25.472-0.992c1.144-0.026,2.126,0.825,2.226,1.969
					c1.943,22.177,2.747,56.046,2.747,57.775c0,5.703-0.264,11.447-0.52,17.003c-0.189,4.112-0.385,8.362-0.47,12.54
					c-0.023,1.139-0.928,2.065-2.068,2.113C167.965,92.643,133.082,93.941,98.23,94.155z"/>
			</g>
			<g>
				<path style="fill:#525D7D;" d="M118.232,67.837c-0.163,0-0.325-0.002-0.488-0.006c-10.017-0.258-18.571-8.21-19.068-17.727
					c-0.314-6.03,1.55-11.592,5.249-15.664c3.423-3.766,8.269-6.053,13.294-6.271c1.263-0.056,2.567,0.03,3.884,0.253
					c0.258,0.044,0.534,0.078,0.818,0.115c0.752,0.095,1.605,0.203,2.43,0.472c6.986,2.279,14.446,8.481,14.43,19.056
					c-0.01,5.076-2.149,9.946-6.023,13.713C128.78,65.645,123.511,67.837,118.232,67.837z M117.97,32.471
					c-0.189,0-0.377,0.003-0.563,0.012c-3.884,0.169-7.634,1.941-10.288,4.861c-2.065,2.272-4.458,6.292-4.132,12.535
					c0.382,7.317,7.051,13.434,14.867,13.635c4.275,0.106,8.621-1.652,11.892-4.833c3.033-2.951,4.708-6.724,4.716-10.625
					c0.015-10.395-8.761-14.066-11.451-14.943c-0.434-0.142-1.044-0.219-1.633-0.294c-0.346-0.044-0.683-0.087-0.998-0.141
					C119.562,32.54,118.753,32.471,117.97,32.471z"/>
			</g>
			<g>
				<path style="fill:#525D7D;" d="M52.612,37.214c-1.127,0-2.076-0.874-2.152-2.016c-0.243-3.637-0.365-7.378-0.484-10.996
					c-0.049-1.467-0.096-2.935-0.152-4.398c-0.022-0.589,0.197-1.162,0.608-1.585c0.41-0.422,1.016-0.631,1.565-0.656l0.562,0.002
					c3.068,0,6.222-0.2,9.273-0.393c2.139-0.136,4.351-0.275,6.543-0.349c1.17-0.043,2.19,0.894,2.229,2.086
					c0.04,1.191-0.894,2.19-2.086,2.229c-2.127,0.071-4.306,0.209-6.414,0.342c-2.579,0.164-5.232,0.332-7.886,0.385
					c0.025,0.731,0.049,1.463,0.072,2.195c0.117,3.582,0.239,7.285,0.476,10.85c0.079,1.189-0.821,2.218-2.011,2.298
					C52.709,37.213,52.66,37.214,52.612,37.214z"/>
			</g>
			<g>
				<path style="fill:#525D7D;" d="M182.041,32.408c-1.122,0-2.07-0.868-2.151-2.004c-0.165-2.288-0.244-4.724-0.244-7.446
					c0-2.254,0.056-4.535,0.126-6.656c-1.213,0.05-2.424,0.104-3.636,0.158c-3.975,0.178-8.084,0.362-12.21,0.362
					c-1.193,0-2.159-0.966-2.159-2.159s0.966-2.159,2.159-2.159c4.029,0,8.09-0.182,12.017-0.358
					c1.996-0.089,3.992-0.179,5.996-0.246c0.6-0.027,1.179,0.209,1.602,0.633c0.423,0.424,0.65,1.006,0.628,1.604
					c-0.099,2.678-0.205,5.788-0.205,8.82c0,2.618,0.076,4.953,0.233,7.136c0.085,1.19-0.81,2.223-1.999,2.308
					C182.145,32.406,182.093,32.408,182.041,32.408z"/>
			</g>
			<g>
				<path style="fill:#525D7D;" d="M166.804,81.355c-1.193,0-2.159-0.966-2.159-2.159s0.966-2.159,2.159-2.159
					c2.302,0,4.631-0.027,6.968-0.053c2.674-0.031,5.363-0.06,8.031-0.053c-0.107-1.745-0.125-3.367-0.125-4.693
					c0-1.066,0.013-2.132,0.027-3.201c0.013-1.055,0.026-2.113,0.026-3.174c0-1.043-0.013-2.09-0.051-3.142
					c-0.043-1.192,0.888-2.193,2.079-2.236c1.173-0.033,2.193,0.887,2.236,2.079c0.04,1.106,0.054,2.205,0.054,3.3
					c0,1.08-0.013,2.154-0.027,3.227c-0.013,1.051-0.026,2.099-0.026,3.147c0,1.811,0.035,4.202,0.305,6.632
					c0.069,0.616-0.13,1.231-0.546,1.689c-0.417,0.458-1.025,0.713-1.628,0.709c-3.418-0.045-6.871-0.006-10.306,0.033
					C171.467,81.328,169.122,81.355,166.804,81.355z"/>
			</g>
			<g>
				<path style="fill:#525D7D;" d="M98.202,108.807c-1.166,0-2.126-0.93-2.157-2.103c-0.031-1.192,0.91-2.184,2.102-2.215
					c8.392-0.22,16.797-0.417,25.208-0.613c24.621-0.576,50.08-1.172,75.012-2.368c1.217-0.06,2.203,0.862,2.26,2.053
					c0.058,1.191-0.862,2.203-2.053,2.26c-24.984,1.198-50.471,1.795-75.118,2.372C115.049,108.391,106.649,108.587,98.202,108.807z
					"/>
			</g>
			<g>
				<path style="fill:#525D7D;" d="M199.244,121.988c-0.046,0-0.091-0.001-0.137-0.004c-6.008-0.376-42.688-0.711-67.386-0.711
					c-9.354,0-18.871,0.118-28.074,0.233l-8.422,0.102c-1.206,0-2.17-0.951-2.184-2.134c-0.013-1.193,0.942-2.17,2.134-2.184
					l8.418-0.101c9.217-0.115,18.747-0.233,28.128-0.233c25.283,0,61.468,0.332,67.656,0.719c1.19,0.075,2.094,1.1,2.02,2.29
					C201.325,121.108,200.375,121.988,199.244,121.988z"/>
			</g>
			<g>
				<path style="fill:#525D7D;" d="M160.347,134.035c-22.884,0-43.388-0.169-62.682-0.519c-1.192-0.021-2.141-1.005-2.12-2.198
					c0.023-1.192,1.04-2.122,2.198-2.12c19.268,0.349,39.746,0.518,62.603,0.518c12.088,0,24.946-0.047,39.309-0.143
					c1.201,0,2.166,0.957,2.174,2.144c0.008,1.193-0.952,2.166-2.144,2.174C185.312,133.988,172.444,134.035,160.347,134.035z"/>
			</g>
		</g>
	</g>
</g>
<g id="Layer_1">
</g>
</svg>
