<?xml version="1.0" encoding="iso-8859-1"?>
<!-- Generator: Adobe Illustrator 21.0.2, SVG Export Plug-In . SVG Version: 6.00 Build 0)  -->
<svg version="1.1" xmlns="http://www.w3.org/2000/svg" xmlns:xlink="http://www.w3.org/1999/xlink" x="0px" y="0px"
	 viewBox="0 0 166.764 185.644" style="enable-background:new 0 0 166.764 185.644;" xml:space="preserve">
<g id="_x38_6">
	<g>
		<g>
			<g>
				<path style="fill:#E0DFE6;" d="M27.278,55.664c4.758,4.581,16.255,0.629,20.937-2.55c7.763-5.272,7.881-13.301,7.858-21.483
					c-0.599,0.22-1.205,0.428-1.796,0.665C42.81,36.891,32.839,44.621,25.655,54.431C26.209,54.758,26.754,55.159,27.278,55.664z"/>
			</g>
			<g>
				<path style="fill:#E0DFE6;" d="M99.725,30.27c-3.641-0.985-7.399-1.738-11.276-2.181c-1.156-0.132-2.321-0.239-3.495-0.312
					c-1.174,0.01-2.356,0.13-3.547,0.357c-1.19,0.227-2.389,0.523-3.593,0.84c-1.085,0.286-2.169,0.557-3.251,0.784
					c-0.884,0.185-1.767,0.314-2.649,0.405c0.01,7.919,0.443,15.569-3.409,22.948c-3.127,5.991-7.963,11.382-13.915,14.634
					c-10.816,5.909-26.368,8.611-36.664,0.705c-2.42,6.171-3.869,12.811-4.128,19.764c-0.368,9.914,1.56,19.476,5.249,28.203
					c6.932-5.76,14.346-10.836,22.191-15.196C56.754,87.723,73.739,76.074,90.463,64.13c7.732-5.522,15.184-11.317,22.657-17.161
					C107.881,42.045,103.229,36.527,99.725,30.27z"/>
			</g>
			<g>
				<path style="fill:#E0DFE6;" d="M134.647,74.19c-5.727,5.189-12.722,9.274-19.064,13.159
					c-14.165,8.677-27.681,18.546-40.905,28.586c-11.876,9.018-22.872,19.538-35.748,27.112c1.525,1.26,3.085,2.48,4.713,3.607
					c0.928,0.643,1.872,1.262,2.831,1.841c0.959,0.54,1.934,1.004,2.925,1.358c0.991,0.355,2.008,0.606,3.052,0.797
					c1.044,0.191,2.109,0.361,3.185,0.54c1.073,0.226,2.151,0.495,3.225,0.86c1.075,0.365,2.145,0.833,3.212,1.391
					c1.067,0.558,2.135,1.178,3.212,1.804c0.539,0.313,1.082,0.615,1.63,0.898c0.548,0.283,1.101,0.546,1.66,0.781
					c1.118,0.47,2.257,0.788,3.405,0.987c1.149,0.168,2.306,0.305,3.47,0.411c2.329,0.213,4.69,0.3,7.074,0.256
					c2.974-0.055,5.857-0.319,8.652-0.758c-0.761-8.772-2.989-17.272-0.005-25.985c2.417-7.056,7.263-12.493,13.708-16.172
					c12.09-6.902,25.039-6.458,35.9,0.404c0.147-0.544,0.276-1.088,0.367-1.632c0.15-0.899,0.257-1.812,0.354-2.751
					c0.097-0.939,0.213-1.913,0.375-2.929c0.162-1.016,0.384-2.08,0.674-3.192c0.29-1.112,0.645-2.27,1.045-3.459
					c0.2-0.595,0.405-1.194,0.611-1.795c0.206-0.601,0.413-1.204,0.615-1.803c0.202-0.6,0.39-1.193,0.559-1.777
					c0.169-0.584,0.32-1.158,0.444-1.719c0.251-1.123,0.367-2.194,0.41-3.245c0.034-0.883,0.039-1.763,0.037-2.64
					C141.891,84.751,138.44,79.011,134.647,74.19z"/>
			</g>
			<g>
				<path style="fill:#E0DFE6;" d="M111.209,130.358c-7.625,5.416-6.111,14.592-4.828,23.1c0.993-0.349,2.018-0.685,3.071-1.017
					c1.165-0.366,2.324-0.749,3.448-1.166c1.124-0.417,2.196-0.879,3.199-1.398c1.003-0.519,1.927-1.1,2.772-1.742
					c0.845-0.643,1.613-1.345,2.314-2.099c0.702-0.754,1.35-1.552,1.962-2.381c0.612-0.83,1.204-1.679,1.801-2.531
					c0.596-0.852,1.216-1.692,1.858-2.519c0.679-0.799,1.372-1.595,2.057-2.404c0.685-0.809,1.352-1.634,1.999-2.473
					c0.895-1.16,1.745-2.353,2.567-3.564C126.702,125.308,118.596,125.111,111.209,130.358z"/>
			</g>
			<g>
				<path style="fill:#E0DFE6;" d="M158.389,31.113c-6.925,5.353-10.454,14.256-13.832,22.083c-1.826,4.232-4.453,8.978-6.18,13.802
					c-1.762-1.484-3.626-2.755-5.636-3.359c-5.213-1.567-8.973,1.671-12.847,4.718c-10.736,8.445-21.451,16.917-32.163,25.393
					c-10.703,8.469-21.237,17.146-31.933,25.623c-5.353,4.243-10.736,8.45-16.103,12.675c-5.448,4.288-11.908,8.216-15.014,14.591
					c-0.905,1.857,0.577,3.786,2.602,3.385c9.27-1.837,17.56-10.516,24.954-16.096c8.952-6.755,17.992-13.376,27.024-20.024
					c8.641-6.361,17.187-12.853,25.761-19.303c4.288-3.226,8.577-6.452,12.865-9.678c3.205-2.411,7.544-6.947,11.667-8.899
					c2.225,1.798,4.226,4.46,6.034,6.304c3.795,3.869,9.077,1.287,10.77-2.53c4.833-5.196,6.325-13.19,8.7-19.85
					c2.98-8.355,6.797-17.236,8.194-26.002C163.731,30.955,160.74,29.296,158.389,31.113z"/>
			</g>
			<g>
				<path style="fill:#E0DFE6;" d="M74.912,35.812c-1.493-4.561-7.029-4.963-9.679-1.265c-3.224,4.499-3.311,10.72-5.045,15.955
					c-2.172,6.559-5.191,10.508-12.061,12.711c-5.354,1.717-11.29,2.184-16.869,1.358c-4.454-0.659-7.658-1.728-12.166-0.933
					c-0.422,0.075-0.684,0.607-0.565,0.995c4.058,13.193,25.692,12.909,36.152,9.118c7.062-2.559,12.236-6.963,15.396-13.801
					C73.19,53.212,77.315,43.152,74.912,35.812z"/>
			</g>
			<g>
				<path style="fill:#E0DFE6;" d="M158.371,135.248c-1.899-1.196-4.457-0.364-5.586,1.465c-3.007,4.871-2.312,11.465-4.27,16.933
					c-1.949,5.445-4.411,11.329-9.764,14.224c-5.049,2.731-12.233,3.782-17.935,4.167c-5.364,0.362-10.624-1.059-15.846,0.336
					c-0.841,0.225-1.427,1.188-1.158,2.039c4.688,14.833,33.752,8.765,43.213,2.756c7.102-4.51,10.729-12.594,13.419-20.234
					C162.904,149.941,165.895,139.99,158.371,135.248z"/>
			</g>
			<g>
				<path style="fill:#E0DFE6;" d="M132.044,123.568c-6.267-7.596-18.7-5.438-25.96-0.378c-7.903,5.508-10.548,15.463-10.025,24.674
					c0.14,2.47,1.782,5.436,4.489,5.896c1.163,0.198,2.088,0.217,3.251,0c2.728-0.509,4.34-3.364,4.489-5.896
					c0.334-5.685-0.343-12.241,4.803-16.037c5.246-3.87,12.245-3.45,18.186-5.353C132.599,126.049,132.881,124.582,132.044,123.568z
					"/>
			</g>
			<g>
				<path style="fill:#E0DFE6;" d="M48.388,15.686c-7.418-8.73-21.178-5.888-29.427,0.086c-6.47,4.686-12.438,17.819-5.054,24.286
					c1.803,1.579,4.798,0.718,5.14-1.689c0.721,0.447,1.716,0.505,2.429,0.062c4.887-3.033,8.004-8.296,13.554-10.378
					c2.392-0.897,5.517-1.195,7.174-3.311c1.16,0.511,2.483,0.647,3.717,0.281c0.963-0.285,1.802-0.652,2.465-1.437
					C50.459,21.136,50.484,18.153,48.388,15.686z"/>
			</g>
			<g>
				<path style="fill:#E0DFE6;" d="M158.613,150.601c-0.551-0.101-1.112-0.164-1.669-0.224c-2.82-0.303-5.232,2.185-6.053,4.609
					c-4.734,13.978-16.875,23.471-32.148,23.944c-1.459,0.045-2.281,2.225-0.796,2.938c9.578,4.601,18.161,5.435,27.9,0.046
					c8.455-4.679,15.566-13.985,17.15-23.591C163.51,155.213,162.222,151.26,158.613,150.601z"/>
			</g>
		</g>
		<g>
			<g>
				<path style="fill:#525D7D;" d="M26.534,154.646c-0.684,0-1.356-0.323-1.775-0.928c-0.68-0.98-0.438-2.325,0.542-3.005
					c3.744-2.599,19.677-14.6,38.127-28.496c23.054-17.362,51.745-38.973,67.608-50.485c0.935-0.68,2.239-0.5,2.958,0.403
					l8.658,10.894c2.622-7.138,5.005-14.136,7.322-20.937c3.688-10.826,7.19-21.107,11.353-31.181
					c-3.441,0.056-6.961,0.084-10.674,0.084c-16.767,0-33.805-0.599-50.297-1.186l13.285,16.716
					c0.371,0.467,0.532,1.067,0.446,1.656c-0.087,0.59-0.413,1.117-0.902,1.459C85.087,69.231,33.48,107.814,6.469,130.126
					c-0.918,0.762-2.281,0.631-3.039-0.29c-0.76-0.919-0.63-2.28,0.289-3.039c26.494-21.886,76.575-59.374,105.112-79.383
					L94.061,28.829c-0.524-0.661-0.617-1.564-0.237-2.317c0.38-0.753,1.195-1.237,2.004-1.185l4.132,0.146
					c16.626,0.592,33.818,1.203,50.694,1.203c4.884,0,9.432-0.049,13.903-0.149c0.707-0.022,1.426,0.342,1.838,0.95
					c0.411,0.609,0.484,1.385,0.195,2.061c-4.679,10.906-8.491,22.097-12.527,33.946c-2.714,7.964-5.519,16.199-8.699,24.644
					c-0.274,0.728-0.918,1.252-1.686,1.372c-0.766,0.125-1.541-0.18-2.025-0.789l-9.751-12.27
					c-16.119,11.748-43.625,32.465-65.876,49.224c-19.247,14.496-34.45,25.947-38.262,28.595
					C27.388,154.521,26.958,154.646,26.534,154.646z"/>
			</g>
			<g>
				<g>
					<path style="fill:#525D7D;" d="M36.869,75.687c-0.129,0-0.256,0-0.386-0.001c-9.307-0.098-18.569-4.172-25.414-11.176
						C3.803,57.074-0.127,47.268,0.003,36.9C0.232,19.311,11.757,4.516,28.032,0.92c1.821-0.402,3.79-0.787,5.849-0.877
						c11.319-0.486,21.707,3.173,29.269,10.334c7.158,6.779,11.16,16.253,11.268,26.678c0.111,10.544-3.851,20.375-11.156,27.684
						C56.195,71.808,46.835,75.687,36.869,75.687z M28.963,5.137C14.656,8.298,4.523,21.382,4.321,36.955
						c-0.116,9.213,3.377,17.928,9.836,24.537c6.049,6.19,14.203,9.79,22.37,9.876c0.114,0.001,0.228,0.001,0.342,0.001
						c8.813,0,17.089-3.431,23.339-9.683c6.478-6.481,9.991-15.212,9.892-24.586c-0.096-9.243-3.619-17.62-9.92-23.588
						c-6.704-6.349-15.975-9.615-26.11-9.154C32.34,4.433,30.593,4.777,28.963,5.137z"/>
				</g>
				<g>
					<path style="fill:#525D7D;" d="M36.956,59.595c-0.125,0-0.25-0.001-0.376-0.003c-5.439-0.083-10.885-2.551-14.942-6.772
						c-4.194-4.363-6.519-10.188-6.379-15.978c0.219-9.04,6.529-17.197,15.345-19.835c1.91-0.572,3.893-0.878,5.897-0.914
						c6.006-0.082,11.935,2.229,16.234,6.408c4.084,3.969,6.368,9.251,6.429,14.872c0.07,6.047-2.201,11.678-6.394,15.854
						C48.642,57.342,43.038,59.595,36.956,59.595z M31.843,21.143c-7.049,2.11-12.093,8.609-12.267,15.804
						c-0.113,4.647,1.773,9.342,5.175,12.881c3.264,3.396,7.6,5.382,11.895,5.447c5.06,0.07,9.696-1.737,13.078-5.105
						c3.359-3.347,5.179-7.874,5.123-12.746c-0.049-4.464-1.868-8.663-5.121-11.824c-3.48-3.382-8.272-5.292-13.15-5.187
						C34.967,20.44,33.374,20.686,31.843,21.143z"/>
				</g>
			</g>
			<g>
				<g>
					<path style="fill:#525D7D;" d="M122.099,183.498c-1.883,0-3.776-0.141-5.668-0.424c-10.012-1.504-18.789-6.843-24.713-15.036
						c-5.451-7.545-7.677-17.417-6.11-27.085c1.664-10.261,7.217-19.247,15.633-25.303c14.285-10.264,33.033-9.785,45.594,1.169
						c1.336,1.164,2.877,2.572,4.18,4.183c7.121,8.803,10.345,19.344,9.078,29.681c-1.2,9.787-6.443,18.635-14.763,24.915
						C138.473,180.775,130.387,183.497,122.099,183.498z M123.745,112.586c-6.864,0-13.876,2.182-19.982,6.569
						c-7.479,5.381-12.412,13.368-13.892,22.489c-1.386,8.545,0.563,17.243,5.346,23.865c5.238,7.243,13,11.965,21.855,13.295
						c9.061,1.356,18.173-1.002,25.656-6.651c7.378-5.569,12.022-13.379,13.079-21.994c1.125-9.165-1.77-18.554-8.148-26.44
						c-1.092-1.351-2.404-2.55-3.66-3.643C138.287,115.093,131.101,112.586,123.745,112.586z"/>
				</g>
				<g>
					<path style="fill:#525D7D;" d="M122.735,168.046c-1.088,0-2.182-0.083-3.276-0.249c-5.881-0.895-11.114-4.179-14.738-9.243
						c-3.165-4.425-4.415-10.272-3.43-16.043c1.018-5.967,4.321-11.296,9.062-14.623c7.4-5.194,17.709-4.966,25.072,0.557
						c1.593,1.198,3.018,2.61,4.236,4.202c3.66,4.778,5.298,10.926,4.491,16.866c-0.766,5.644-3.657,10.618-8.143,14.007
						C132.089,166.487,127.47,168.046,122.735,168.046z M122.419,128.449c-3.388,0-6.756,0.987-9.584,2.973
						c-3.806,2.671-6.461,6.976-7.287,11.816c-0.792,4.643,0.187,9.309,2.686,12.802c2.939,4.11,7.157,6.768,11.876,7.488
						c4.69,0.711,9.411-0.515,13.297-3.452c3.561-2.692,5.858-6.65,6.468-11.145c0.653-4.809-0.674-9.786-3.641-13.658
						c-0.979-1.278-2.124-2.414-3.401-3.374C129.774,129.605,126.084,128.449,122.419,128.449z"/>
				</g>
			</g>
		</g>
	</g>
</g>
<g id="Layer_1">
</g>
</svg>
