<?xml version="1.0" encoding="iso-8859-1"?>
<!-- Generator: Adobe Illustrator 21.0.2, SVG Export Plug-In . SVG Version: 6.00 Build 0)  -->
<svg version="1.1" xmlns="http://www.w3.org/2000/svg" xmlns:xlink="http://www.w3.org/1999/xlink" x="0px" y="0px"
	 viewBox="0 0 150.431 207.259" style="enable-background:new 0 0 150.431 207.259;" xml:space="preserve">
<g id="_x38_7">
	<g>
		<g>
			<path style="fill:#E0DFE6;" d="M19.731,77.872c-2.898-1.86-3.693-1.72-3.162-5.811c0.407-3.133,1.747-8.013-2.288-9.364
				C7.302,60.362,3.262,72.391,3.556,77.333c0.442,7.425,6.867,14.318,14.574,12.792C24.107,88.942,24.252,80.773,19.731,77.872z"/>
			<g>
				<path style="fill:#E0DFE6;" d="M35.194,101.99c-1.499-1.708-3.561-2.289-5.647-2.869c-0.335-0.093-1.857-0.822-0.497-0.126
					c-0.611-0.313-1.245-0.572-1.842-0.914c-0.213-0.117-0.417-0.247-0.62-0.382c-0.056-0.049-0.097-0.085-0.174-0.152
					c-0.25-0.193-0.499-0.385-0.748-0.578c0.117,0.128,0.222,0.268,0.301,0.433c0.031,0.002-0.246-0.297-0.612-0.673
					c-0.068-0.052-0.135-0.104-0.203-0.157c0.065,0.033,0.11,0.084,0.169,0.122c-0.583-0.597-1.373-1.371-1.554-1.477
					c-1.543-0.653-1.658-0.7-0.347-0.142c-0.68-0.394-1.413-0.592-2.199-0.595c-6.615,0.729-6.574,8.285-3.386,12.579
					c3.264,4.395,10.629,9.251,16.018,5.346C37.448,109.8,38.215,105.431,35.194,101.99z"/>
				<path style="fill:#E0DFE6;" d="M25.666,96.97c-0.098-0.107-0.22-0.193-0.345-0.275C25.458,96.81,25.562,96.89,25.666,96.97z"/>
			</g>
			<path style="fill:#E0DFE6;" d="M86.037,121.24c-0.404-2.35-2.585-3.891-4.639-4.639c-2.528-0.922-5.1-0.048-7.458,0.89
				c-0.34,0.138-0.558,0.229-0.72,0.296c-0.436,0.146-0.876,0.277-1.327,0.37c-0.207,0.049-1.789,0.243-1.452,0.245
				c-3.1,0.148-6.924-0.46-8.835,2.175c-0.322-0.665-0.724-1.311-1.275-1.905c-3.205-3.463-7.733-2.916-11.369-3.715
				c-0.637-0.14-1.266-0.318-1.894-0.488c-0.578-0.157-0.388,0.009-0.186,0.137c-1.82-0.975-2.781-2.72-5.355-1.831
				c-7.291,2.517-4.964,11.928,0.158,15.428c5.003,3.419,14.074,5.791,18.645,0.535c0.456-0.524,0.809-1.09,1.112-1.671
				c1.911,3.244,6.469,5.472,9.669,5.988C78.502,134.246,87.512,129.818,86.037,121.24z"/>
			<path style="fill:#E0DFE6;" d="M120.396,84.065c-1.601,0.811-1.986,2.63-2.658,4.118c-0.605,1.34-1.363,2.662-2.242,3.883
				c-0.337,0.467-0.448,0.646-0.47,0.705c-0.088,0.086-0.218,0.219-0.471,0.49c-0.555,0.595-1.534,1.347-0.373,0.435
				c-2.937,2.308-4.373,4.758-3.527,8.666c0.408,1.883,1.598,3.306,3.114,4.253c-0.856-0.404-1.814-0.648-2.858-0.681
				c-3.536-0.113-5.81,2.05-7.808,4.624c0.799-1.059,0.501-0.679-0.893,1.141c-0.045,0.066-0.065,0.095-0.102,0.149
				c-0.325,0.35-0.67,0.687-1.019,1.018c0.273-0.44-3.395,1.965-1.378,1.012c-0.602,0.285-1.144,0.644-1.728,0.955
				c-2.67,1.423-2.934,4.598-1.856,7.077c2.348,5.397,9.484,5.71,14.075,3.574c4.485-2.087,8.064-7.173,7.807-12.199
				c-0.136-2.651-1.468-4.97-3.55-6.265c1.727,0.851,3.772,1.125,5.636,0.703c5.936-1.343,8.745-9.024,8.746-14.505
				C128.843,89.267,125.709,81.375,120.396,84.065z"/>
			<path style="fill:#E0DFE6;" d="M137.157,66.266c-0.802-3.973-2.969-9.276-6.571-11.393c-0.498-0.293-1.015-0.463-1.533-0.573
				c2.323-0.877,4.109-2.839,5.066-5.405c1.873-5.021-1.41-10.439-5.397-13.301c-3.003-2.155-7.134-3.194-10.723-2.175
				c-3.348,0.95-4.788,4.755-3.153,7.75c0.873,1.599,2.202,2.669,3.297,4.021c-0.003,0.06-0.006,0.108-0.01,0.182
				c-0.027,0.463-0.057,0.887-0.032,1.354c0.217,4.079,2.938,7.454,7.071,8.009c0.157,0.021,0.302,0.008,0.457,0.021
				c-0.888,0.451-1.676,1.14-2.268,2.01c-1.514,2.226-1.543,5.287-1.429,7.904c0.023,0.46,0.041,0.921,0.056,1.382
				c-0.116,0.112-0.216,0.199-0.347,0.314c-2.578,2.284-3.127,6.967-1.27,9.846c1.993,3.092,5.556,4.63,9.176,3.734
				C135.642,78.439,138.316,72.01,137.157,66.266z"/>
			<path style="fill:#E0DFE6;" d="M114.265,23.166c-4.204-3.84-10.307-8.526-16.331-7.325c-3.102,0.618-4.97,4.375-4.128,7.27
				c0.783,2.692,2.747,4.355,4.487,6.409c0.052,0.061,0.306,0.368,0.468,0.561c0.284,0.356,0.698,0.876,1.007,1.281
				c0.022,0.046,0.082,0.147,0.244,0.39c0.354,0.533,0.711,1.059,1.052,1.6c2.675,4.25,8.297,5.491,12.351,2.358
				C117.208,32.78,118.025,26.6,114.265,23.166z"/>
			<path style="fill:#E0DFE6;" d="M87.698,12.319c-3.76-4.093-8.924-6.119-14.451-5.316c-5.209,0.756-8.393,3.567-10.262,8.326
				c-1.089,2.774,2.042,5.006,4.48,4.48c3.341-0.72,6.02,0.529,7.146,2.607c1.654,3.052,6.041,4.998,9.409,3.829
				c1.553-0.539,2.441-1.065,3.677-2.143C91.192,21.056,90.577,15.453,87.698,12.319z"/>
			<path style="fill:#E0DFE6;" d="M51.811,13.632c-4.029-5.099-11.605-2.119-15.966,0.837c-2.071,1.404-3.969,3.141-5.1,5.4
				c-0.609,1.217-1.076,2.463-1.035,3.85c0.047,1.596,0.148,1.722,0.225,1.514c-0.515,3.63,3.759,6.052,6.125,3.071
				c1.585-0.322,3.124-0.737,4.761-1.102c1.184-0.264,2.365-0.529,3.557-0.756c0.063,0.011,0.126,0.021,0.189,0.031
				c0.624,0.098,1.234,0.168,1.848,0.184c2.984,0.129,5.899-2.015,6.975-4.692C54.63,18.886,53.805,16.154,51.811,13.632z"/>
			<path style="fill:#E0DFE6;" d="M32.15,39.71c-3.398-8.665-14.057-8.165-20.415-3.085c-5.2,4.155-8.241,12.218-4.41,18.259
				c2.416,3.811,7.605,3.687,10.047,0c0.396-0.599,0.783-1.183,1.152-1.799c0.017-0.028,0.951-1.414,0.747-1.197
				c0.332-0.418,0.676-0.821,1.068-1.187c0.322-0.193,0.652-0.372,0.991-0.534c0.068-0.034,0.099-0.055,0.13-0.075
				c0.095-0.008,0.224-0.023,0.424-0.054c0.144-0.022,1.447-0.339,1.498-0.369c2.641-0.512,4.752-0.611,6.881-2.818
				C31.942,45.111,33.09,42.108,32.15,39.71z"/>
			<path style="fill:#E0DFE6;" d="M67.416,160.421c-7.662,1.266-12.59,7.64-20.986,8.067c-6.656,0.338-13.065-3.184-19.573-1.908
				c-1.362,0.267-2.563,1.865-2.474,3.249c0.682,10.572,14.347,15.398,23.321,15.888c10.579,0.577,26.539-4.024,29.513-15.495
				C78.858,163.893,73.289,159.451,67.416,160.421z"/>
			<path style="fill:#E0DFE6;" d="M139.331,136.737c-10.743-0.659-16.472,10.844-24.675,16.107
				c-10.126,6.498-18.586,0.755-29.148,0.955c-5.846,0.11-9.667,7.81-4.993,12.053c10.498,9.53,24.869,12.323,38.108,6.99
				c6.227-2.508,11.402-6.601,16.351-11.064c5.695-5.135,11.649-9.59,11.641-17.758
				C146.611,139.906,143.273,136.979,139.331,136.737z"/>
			<path style="fill:#E0DFE6;" d="M80.089,133.647c-2.325-3.803-6.954-3.171-9.394,0c-3.173,4.123-3.517,12.12-2.621,16.987
				c0.72,3.911,5.226,6.352,8.886,5.801c4.193-0.631,6.657-3.829,7.022-7.954C84.398,143.788,82.51,137.607,80.089,133.647z"/>
			<path style="fill:#E0DFE6;" d="M87.8,185.42c-1.05-7.299-1.426-16.216-5.796-22.441c-1.602-2.281-5.173-2.712-6.683,0
				c-3.966,7.124-3.385,16.732-3.68,24.628C71.215,199.017,89.579,197.783,87.8,185.42z"/>
			<path style="fill:#E0DFE6;" d="M138.365,69.781c-1.887-3.004-6.038-2.927-7.941,0c-2.895,4.454-2.197,8.891-2.164,14.059
				c0.026,4.112,1.424,18.392-5.384,18.608c-4.297,0.136-6.277,4.353-4.595,8.008c7.218,15.687-19.434,12.558-26.883,11.256
				c-2.576-0.45-5.446,0.66-6.119,3.475c-0.984,4.113-2.159,7.73-5.666,10.065c-1.136-10.179-14.646-8.584-22.256-8.559
				c-3.691,0.012-6.867-2.13-11.263-2.13c-8.611,0-10.558-5.45-14.683-11.984c-1.197-1.897-3.862-1.427-4.577,0.598
				c-3.942,11.165,3.733,22.746,15.094,25.009c2.758,0.549,4.553,0.776,5.209,1.065c2.745,1.211,4.468,2.459,7.607,2.634
				c3.462,0.193,6.135-0.01,9.541,0.841c3.514,0.878,6.377,1.13,9.793-0.234c1.337-0.534,2.725-1.421,3.786-2.566
				c0.393,0.348,0.889,0.579,1.454,0.591c6.304,0.131,11.764-2.757,14.273-7.908c9.775,2.274,21.95,2.835,29.448-3.866
				c5.034-4.499,6.974-10.649,6.284-16.814c4.879-2.174,8.166-7.107,9.645-12.67c1.324-4.98,1.248-10.313,1.376-15.419
				C140.472,78.625,141.218,74.324,138.365,69.781z"/>
		</g>
		<g>
			<g>
				<path style="fill:#525D7D;" d="M74.424,135.135c-4.998,0-9.659-2.18-13.06-6.05c-3.067,1.872-7.217,3.684-11.781,3.684
					c-8.886,0-15.981-7.442-17.243-17.669c-1.487,0.183-2.901,0.273-4.277,0.273c-10.702,0-17.093-6.055-17.093-16.197
					c0-2.626,0.541-5.226,1.583-7.656C4.529,89.788,0,83.967,0,75.161c0-6.047,2.808-11.935,7.787-16.488
					C3.025,54.19,0.052,48.095,0.052,42.551c0-4.194,1.695-13.951,17.4-13.951c2.422,0,4.859,0.222,7.28,0.662
					c-0.229-1.359-0.394-2.769-0.394-4.18c0-7.129,7.918-18.124,18.439-18.124c4.608,0,8.819,1.991,12.602,4.005
					C59.811,4.332,67.153,0,74.227,0c7.46,0,13.95,4.896,16.602,12.211c2.889-1.527,6.602-2.891,10.655-2.891
					c8.319,0,16.734,6.754,17.618,19.694c0.295-0.01,0.59-0.016,0.886-0.016c11.783,0,17.949,7.706,17.949,15.319
					c0,4.171-2.128,7.516-4.256,9.966c3.296,3.367,5.34,8.091,5.34,12.59c0,5.668-3.192,10.769-8.836,14.243
					c1.124,2.619,1.73,5.485,1.73,8.26c0,7.433-4.062,13.505-12.08,18.068c0.17,1.286,0.256,2.575,0.256,3.844
					c0,11.083-6.158,17.701-16.474,17.701c-4.315,0-8.832-1.369-12.739-3.816C88.301,130.61,84.115,135.135,74.424,135.135z
					 M61.832,124.04c0.678,0,1.344,0.318,1.764,0.912c1.549,2.19,5.014,5.864,10.828,5.864c8.143,0,11.116-3.565,13.5-9.721
					c0.247-0.64,0.783-1.123,1.445-1.304c0.662-0.177,1.369-0.035,1.906,0.389c3.56,2.811,8.174,4.491,12.341,4.491
					c5.545,0,12.156-2.322,12.156-13.383c0-1.521-0.145-3.076-0.43-4.619c-0.173-0.935,0.284-1.871,1.127-2.309
					c7.488-3.891,11.127-8.792,11.127-14.984c0-2.752-0.758-5.627-2.134-8.092c-0.287-0.513-0.351-1.12-0.18-1.682
					c0.172-0.562,0.564-1.03,1.088-1.296c5.295-2.686,8.331-6.852,8.331-11.432c0-3.969-2.131-8.191-5.43-10.752
					c-0.489-0.38-0.791-0.952-0.831-1.57c-0.039-0.618,0.19-1.223,0.628-1.661c3.104-3.105,4.549-5.829,4.549-8.573
					c0-5.466-4.682-11.001-13.63-11.001c-0.898,0-1.805,0.058-2.693,0.172c-0.617,0.084-1.236-0.111-1.702-0.52
					c-0.465-0.409-0.732-1-0.732-1.621c0-11.647-6.729-17.71-13.376-17.71c-3.338,0-7.167,1.299-10.783,3.656
					c-0.596,0.392-1.347,0.458-2.006,0.187c-0.658-0.273-1.14-0.853-1.286-1.55c-1.177-5.593-5.804-11.612-13.182-11.612
					c-6.086,0-12.741,4.343-16.183,10.562c-0.573,1.036-1.875,1.418-2.917,0.853l-0.336-0.181
					c-3.881-2.103-7.894-4.276-12.014-4.276c-7.658,0-14.121,8.48-14.121,13.806c0,2.135,0.504,4.484,0.952,6.556
					c0.157,0.735-0.077,1.498-0.623,2.017c-0.544,0.52-1.321,0.717-2.044,0.523c-3.137-0.835-6.329-1.259-9.489-1.259
					c-8.681,0-13.082,3.241-13.082,9.633c0,4.924,3.247,10.722,8.08,14.427c0.536,0.41,0.849,1.046,0.846,1.72
					c-0.003,0.673-0.319,1.309-0.856,1.715c-5.086,3.847-8.122,9.36-8.122,14.747c0,7.689,3.947,11.897,11.731,12.509
					c0.755,0.059,1.424,0.509,1.763,1.185c0.339,0.678,0.298,1.483-0.107,2.122c-1.581,2.496-2.416,5.332-2.416,8.199
					c0,7.661,4.537,11.879,12.774,11.879c1.825,0,3.746-0.184,5.871-0.561c0.626-0.11,1.253,0.053,1.739,0.448
					c0.486,0.395,0.777,0.981,0.797,1.608c0.246,7.709,4.925,15.901,13.113,15.901c4.353,0,8.392-2.186,11.012-4.02
					C60.972,124.167,61.404,124.04,61.832,124.04z"/>
			</g>
			<g>
				<path style="fill:#525D7D;" d="M75.269,97.984c-13.394,0-20.674-4.291-23.415-5.906c-0.287-0.169-0.509-0.304-0.672-0.385
					c-1.067-0.533-1.5-1.83-0.967-2.896c0.534-1.068,1.834-1.499,2.896-0.967c0.226,0.112,0.538,0.294,0.936,0.529
					c2.463,1.451,9.006,5.308,21.222,5.308c13.632,0,19.685-7.962,19.685-10.988c0-8.884-9.266-9.946-23.401-10.555
					c-11.476-0.495-23.342-1.005-23.342-11.18c0-3.943,1.351-7.28,4.017-9.92c7.388-7.318,23.19-7.156,30.785-7.094
					c1.195,0.013,2.18,0.024,2.876-0.001c1.22-0.037,2.191,0.891,2.232,2.083c0.041,1.192-0.891,2.191-2.083,2.232
					c-0.742,0.027-1.792,0.017-3.066,0.004c-7.021-0.063-21.596-0.207-27.706,5.843c-1.841,1.824-2.737,4.067-2.737,6.852
					c0,5.632,7.257,6.352,19.209,6.867c12.267,0.527,27.534,1.185,27.534,14.869C99.272,88.171,91.251,97.984,75.269,97.984z"/>
			</g>
			<g>
				<path style="fill:#525D7D;" d="M69.942,46.885c-1.023,0-1.931-0.729-2.121-1.772c-0.749-4.123-1.084-8.444-1.084-14.013
					c0-1.192,0.967-2.159,2.159-2.159c1.192,0,2.159,0.967,2.159,2.159c0,5.299,0.312,9.383,1.013,13.24
					c0.214,1.174-0.565,2.298-1.737,2.511C70.2,46.874,70.069,46.885,69.942,46.885z"/>
			</g>
			<g>
				<path style="fill:#525D7D;" d="M74.308,111.517c-1.192,0-2.159-0.967-2.159-2.159c0-1.579-0.127-3.154-0.26-4.823
					c-0.134-1.68-0.273-3.416-0.273-5.167c0-0.966,0.042-1.853,0.128-2.711c0.119-1.188,1.198-2.073,2.361-1.934
					c1.186,0.118,2.054,1.175,1.934,2.362c-0.07,0.717-0.105,1.463-0.105,2.284c0,1.579,0.126,3.154,0.26,4.823
					c0.134,1.68,0.273,3.416,0.273,5.167C76.467,110.55,75.499,111.517,74.308,111.517z"/>
			</g>
			<g>
				<path style="fill:#525D7D;" d="M53.744,116.756c-0.181,0-0.365-0.023-0.55-0.07c-0.977-0.257-1.933-0.534-2.868-0.831
					c-1.136-0.36-1.765-1.573-1.406-2.71c0.358-1.134,1.562-1.77,2.71-1.406c0.867,0.274,1.753,0.531,2.659,0.769
					c1.154,0.304,1.843,1.484,1.541,2.637C55.576,116.115,54.702,116.756,53.744,116.756z M41.735,112.002
					c-0.356,0-0.716-0.087-1.049-0.273c-0.887-0.493-1.747-1.009-2.584-1.548c-1.004-0.644-1.295-1.981-0.649-2.983
					c0.644-1.005,1.982-1.292,2.983-0.649c0.761,0.488,1.545,0.959,2.35,1.407c1.042,0.579,1.417,1.895,0.836,2.936
					C43.227,111.603,42.492,112.002,41.735,112.002z M31.514,104.136c-0.568,0-1.136-0.224-1.559-0.666
					c-0.69-0.72-1.368-1.48-2.013-2.258c-0.762-0.918-0.635-2.279,0.282-3.04c0.919-0.763,2.279-0.635,3.041,0.283
					c0.58,0.7,1.189,1.383,1.808,2.03c0.825,0.862,0.796,2.228-0.066,3.052C32.59,103.937,32.051,104.136,31.514,104.136z
					 M24.139,93.563c-0.794,0-1.558-0.439-1.936-1.199c-0.444-0.894-0.862-1.808-1.254-2.738c-0.462-1.099,0.053-2.366,1.153-2.828
					c1.105-0.464,2.366,0.055,2.828,1.153c0.356,0.846,0.737,1.678,1.141,2.494c0.53,1.067,0.094,2.363-0.974,2.894
					C24.79,93.492,24.462,93.563,24.139,93.563z M19.981,81.334c-1.004,0-1.903-0.703-2.113-1.725
					c-0.198-0.967-0.374-1.945-0.527-2.935c-0.183-1.179,0.626-2.281,1.804-2.464c1.183-0.183,2.281,0.624,2.464,1.803
					c0.142,0.919,0.306,1.83,0.491,2.727c0.239,1.168-0.513,2.309-1.681,2.55C20.272,81.32,20.126,81.334,19.981,81.334z
					 M18.733,68.467c-1.196-0.001-2.16-0.97-2.159-2.162c0.001-1.004,0.027-2.002,0.082-2.994c0.067-1.191,1.113-2.076,2.277-2.035
					c1.191,0.068,2.101,1.087,2.035,2.277c-0.052,0.914-0.075,1.833-0.076,2.758C20.89,67.503,19.923,68.467,18.733,68.467z
					 M20.661,55.729c-0.235,0-0.474-0.038-0.707-0.119c-1.127-0.391-1.723-1.621-1.333-2.747c0.336-0.97,0.724-1.933,1.15-2.862
					c0.499-1.082,1.785-1.555,2.863-1.061c1.084,0.498,1.559,1.78,1.061,2.863c-0.37,0.804-0.704,1.636-0.995,2.474
					C22.392,55.17,21.555,55.729,20.661,55.729z M27.3,44.722c-0.517,0-1.036-0.184-1.449-0.559c-0.884-0.8-0.952-2.166-0.15-3.049
					c0.666-0.737,1.373-1.466,2.103-2.169c0.859-0.825,2.224-0.804,3.053,0.056c0.826,0.857,0.803,2.225-0.056,3.053
					c-0.659,0.635-1.299,1.295-1.9,1.958C28.474,44.483,27.888,44.722,27.3,44.722z M37.187,36.424c-0.7,0-1.386-0.34-1.802-0.967
					c-0.658-0.994-0.385-2.333,0.609-2.993c0.8-0.53,1.632-1.058,2.498-1.587c1.015-0.617,2.345-0.298,2.967,0.721
					c0.62,1.018,0.298,2.346-0.721,2.967c-0.818,0.498-1.602,0.998-2.36,1.5C38.011,36.308,37.598,36.424,37.187,36.424z
					 M48.482,30.113c-0.805,0-1.577-0.451-1.948-1.226c-0.516-1.075-0.062-2.366,1.013-2.88c0.86-0.412,1.744-0.824,2.654-1.234
					c1.088-0.493,2.367-0.007,2.856,1.08c0.491,1.087,0.007,2.366-1.08,2.856c-0.879,0.396-1.735,0.794-2.564,1.192
					C49.113,30.045,48.795,30.113,48.482,30.113z"/>
			</g>
			<g>
				<path style="fill:#525D7D;" d="M101.724,113.46c-0.691,0-1.372-0.332-1.789-0.949c-0.669-0.988-0.409-2.33,0.578-2.998
					c0.731-0.495,1.466-1.034,2.183-1.605c0.932-0.741,2.293-0.586,3.033,0.346c0.742,0.933,0.588,2.291-0.346,3.033
					c-0.803,0.64-1.628,1.245-2.45,1.802C102.562,113.341,102.142,113.46,101.724,113.46z M111.071,104.576
					c-0.462,0-0.929-0.148-1.323-0.453c-0.942-0.732-1.113-2.087-0.382-3.031c0.562-0.724,1.101-1.465,1.615-2.22
					c0.672-0.985,2.018-1.24,3-0.568c0.985,0.672,1.24,2.016,0.568,3c-0.565,0.828-1.154,1.642-1.77,2.436
					C112.352,104.29,111.714,104.576,111.071,104.576z M117.588,93.418c-0.283,0-0.571-0.056-0.848-0.174
					c-1.096-0.47-1.605-1.737-1.136-2.834c0.365-0.853,0.707-1.712,1.025-2.574c0.413-1.118,1.653-1.69,2.773-1.278
					c1.119,0.413,1.691,1.654,1.278,2.773c-0.343,0.929-0.713,1.855-1.106,2.776C119.225,92.928,118.426,93.418,117.588,93.418z
					 M121.25,81.019c-0.118,0-0.238-0.01-0.357-0.03c-1.177-0.195-1.971-1.307-1.775-2.484c0.153-0.918,0.274-1.827,0.367-2.723
					c0.122-1.186,1.182-2.033,2.37-1.926c1.186,0.122,2.048,1.183,1.926,2.37c-0.101,0.983-0.236,1.979-0.403,2.987
					C123.201,80.272,122.286,81.019,121.25,81.019z M121.438,68.11c-1.058,0-1.982-0.779-2.135-1.857
					c-0.127-0.895-0.281-1.802-0.464-2.717c-0.235-1.169,0.524-2.307,1.694-2.54c1.162-0.239,2.307,0.524,2.54,1.694
					c0.199,0.996,0.368,1.985,0.506,2.959c0.167,1.181-0.655,2.273-1.836,2.44C121.641,68.103,121.54,68.11,121.438,68.11z
					 M118.082,55.625c-0.859,0-1.673-0.517-2.007-1.365c-0.339-0.855-0.7-1.706-1.084-2.553c-0.493-1.085-0.014-2.364,1.072-2.858
					c1.088-0.495,2.364-0.014,2.858,1.072c0.415,0.911,0.804,1.827,1.168,2.749c0.439,1.109-0.104,2.363-1.213,2.801
					C118.616,55.577,118.346,55.625,118.082,55.625z M112.005,44.21c-0.685,0-1.358-0.325-1.777-0.931
					c-0.523-0.755-1.067-1.494-1.632-2.217c-0.735-0.939-0.568-2.296,0.371-3.031c0.939-0.735,2.294-0.571,3.03,0.371
					c0.616,0.787,1.21,1.594,1.781,2.419c0.679,0.98,0.434,2.325-0.547,3.004C112.858,44.086,112.43,44.21,112.005,44.21z
					 M103.272,34.701c-0.475,0-0.952-0.156-1.351-0.477c-0.713-0.572-1.445-1.116-2.176-1.615c-0.984-0.672-1.237-2.016-0.564-3.001
					c0.672-0.985,2.014-1.236,3.001-0.564c0.821,0.561,1.643,1.172,2.443,1.815c0.929,0.746,1.078,2.106,0.33,3.035
					C104.53,34.425,103.905,34.701,103.272,34.701z M91.938,28.621c-0.207,0-0.416-0.03-0.623-0.091
					c-0.853-0.256-1.726-0.475-2.592-0.648c-1.168-0.235-1.927-1.372-1.692-2.541c0.233-1.169,1.375-1.921,2.541-1.692
					c0.998,0.2,2.003,0.451,2.986,0.746c1.141,0.343,1.789,1.548,1.446,2.689C93.723,28.019,92.866,28.621,91.938,28.621z"/>
			</g>
			<g>
				<path style="fill:#525D7D;" d="M75.189,196.366c-1.171,0-2.134-0.938-2.158-2.116c-0.391-19.193-1.588-38.693-2.747-57.552
					l-0.214-3.48c-0.073-1.191,0.832-2.214,2.023-2.287c1.206-0.087,2.214,0.834,2.287,2.023l0.214,3.48
					c1.161,18.903,2.361,38.448,2.755,57.729C77.373,195.355,76.426,196.341,75.189,196.366z"/>
			</g>
			<g>
				<path style="fill:#525D7D;" d="M103.341,167.42c-7.176,0-16.005-1.64-26.243-4.876c-0.609-0.193-1.101-0.645-1.345-1.234
					c-0.243-0.59-0.214-1.258,0.081-1.823c10.816-20.74,22.04-22.188,63.803-27.573l8.355-1.082
					c0.783-0.107,1.549,0.226,2.016,0.857c0.467,0.63,0.554,1.465,0.229,2.177C139.959,156.444,124.619,167.42,103.341,167.42z
					 M80.907,159.194c8.744,2.593,16.282,3.908,22.434,3.908c18.545,0,31.738-8.754,41.26-27.477l-4.411,0.572
					C100.918,141.259,90.319,142.627,80.907,159.194z"/>
			</g>
			<g>
				<path style="fill:#525D7D;" d="M42.879,177.096c-23.452,0-30.443-17.396-34.191-34.413c-0.174-0.794,0.111-1.619,0.741-2.134
					c0.628-0.514,1.493-0.631,2.238-0.306c8.898,3.918,17.825,5.436,26.457,6.905c14.039,2.387,27.3,4.643,35.932,17.31
					c0.375,0.551,0.475,1.243,0.271,1.877c-0.204,0.635-0.689,1.139-1.314,1.368c-2.89,1.054-5.706,2.225-8.43,3.355
					C57.107,174.162,50.045,177.096,42.879,177.096z M13.876,145.794c5.014,19.101,13.608,26.984,29.002,26.984
					c6.306,0,12.981-2.772,20.049-5.708c1.917-0.796,3.881-1.611,5.897-2.399c-7.605-9.214-18.709-11.103-31.426-13.266
					C29.759,150.105,21.894,148.767,13.876,145.794z"/>
			</g>
			<g>
				<path style="fill:#525D7D;" d="M29.766,207.259c-0.926,0-1.784-0.602-2.065-1.534c-0.346-1.141,0.299-2.347,1.441-2.692
					c17.073-5.163,33.803-9.796,50.79-9.796c9.243,0,25.573,1.581,41.175,6.039c1.147,0.328,1.811,1.522,1.483,2.669
					c-0.327,1.148-1.526,1.808-2.669,1.483c-15.174-4.335-31.025-5.873-39.989-5.873c-16.419,0-32.15,4.352-49.539,9.61
					C30.183,207.23,29.974,207.259,29.766,207.259z"/>
			</g>
		</g>
	</g>
</g>
<g id="Layer_1">
</g>
</svg>
