<?xml version="1.0" encoding="iso-8859-1"?>
<!-- Generator: Adobe Illustrator 21.0.2, SVG Export Plug-In . SVG Version: 6.00 Build 0)  -->
<svg version="1.1" xmlns="http://www.w3.org/2000/svg" xmlns:xlink="http://www.w3.org/1999/xlink" x="0px" y="0px"
	 viewBox="0 0 211.404 161.33" style="enable-background:new 0 0 211.404 161.33;" xml:space="preserve">
<g id="_x38_8">
	<g>
		<g>
			<path style="fill:#E0DFE6;" d="M173.035,18.827c-0.709-1.138-2.618-1.646-3.585-0.462c-0.138,0.169-0.259,0.345-0.388,0.517
				c-0.476-2.517-2.373-4.648-5.734-4.497c-25.806,1.159-51.646,1.879-77.478,2.037c-12.666,0.077-25.33-0.018-37.996,0.058
				c-11.298,0.068-23.987-1.594-34.555,3.053c-1.548,0.681-1.376,3.135,0,3.868c10.185,5.432,23.315,4.426,34.555,4.888
				c12.663,0.521,25.323,0.585,37.996,0.538c25.849-0.095,51.667-0.856,77.478-2.27c0.963-0.053,1.806-0.286,2.532-0.651
				c-0.97,3.945-1.067,8.199-1.353,12.299c-0.671,9.621-1.138,19.244-1.479,28.883c-0.646,18.241-0.066,36.293,0.049,54.5
				c-21.317,1.98-42.827,1.512-64.213,1.574c-11.26,0.033-22.518-0.057-33.776-0.186c-6.14-0.07-12.283-0.048-18.417,0.251
				c-6.203,0.302-12.267,2.336-18.411,2.479c-1.725,0.04-1.64,2.434,0,2.62c6.202,0.705,12.147,3.2,18.411,4.001
				c6.107,0.781,12.27,1.163,18.417,1.438c11.764,0.527,23.54,0.873,35.312,1.156c22.48,0.54,45.445,1.44,67.736-2.026
				c4.033-0.627,5.009-5.189,3.601-8.416c0.084-0.341,0.14-0.704,0.145-1.101c0.216-18.228,1.563-36.534,2.265-54.771
				c0.332-8.616,0.739-17.229,1.073-25.844C175.518,35.07,177.3,25.674,173.035,18.827z"/>
			<path style="fill:#E0DFE6;" d="M83.885,55.33c-1.865-0.603-3.516,0.455-4.582,1.865c-3.137,4.149-0.557,9.632-1.064,14.456
				c-0.687,6.528-3.956,12.838-9.044,16.99c-5.1,4.162-11.617,5.657-18.109,5.495c-5.749-0.143-11.52-3.784-17.101-3.14
				c-0.65,0.075-1.384,0.541-1.31,1.31c0.762,7.937,11.417,11.426,18.077,12.488c8.731,1.393,18.016-1.025,25.111-6.274
				c6.846-5.065,11.682-12.84,13.597-21.113C91.076,70.424,92.348,58.067,83.885,55.33z"/>
			<path style="fill:#E0DFE6;" d="M63.88,36.867c0.018-0.03,0.035-0.06,0.052-0.089c-1.607-1.181-3.66-1.683-5.747-1.684
				c-5.835-0.795-12.578,0.689-15.552,5.92c-1.922,3.381,0.616,6.659,4.061,7.077c0.721,0.087,1.432,0.111,2.137,0.118
				c0.038,0.052,0.068,0.104,0.108,0.156c2.587,3.353,6.764,3.655,10.09,1.623c0.426,0.058,0.853,0.115,1.279,0.169
				c3.488,0.452,6.677-3.078,7.052-6.226C67.723,40.883,66.318,38.354,63.88,36.867z"/>
			<path style="fill:#E0DFE6;" d="M209.366,50.847c-2.126-2.126-6.285-3.041-8.863-1.144c-2.1,1.546-3.468,3.668-5.396,5.343
				c0.027-0.098-0.664,0.281-1.144,0.421c0.182-0.053,1.557,0.147-0.249,0.017c-0.635-0.046-1.232-0.115-1.87-0.131
				c-3.339-0.087-5.278,3.156-4.678,6.141c1.021,5.082,6.963,7.07,11.511,6.426c4.598-0.651,9.874-3.831,11.834-8.211
				C211.858,56.695,211.838,53.318,209.366,50.847z"/>
			<path style="fill:#E0DFE6;" d="M118.824,122.845c-4.236,1.36-6.345,4.341-9.662,7.157c-4.311,3.661-8.317,4.845-13.861,5.455
				c-9.165,1.008-15.816,2.62-23.916,7.047c-8.264,4.516-17.902,3.894-26.958,5.529c-6.153,1.111-13.468,2.461-15.319,9.318
				c-0.284,1.052,0.656,1.755,1.612,1.612c4.259-0.637,7.981-2.914,12.169-3.851c4.254-0.951,8.684-0.478,12.995-0.596
				c9.336-0.256,15.846-2.43,23.72-7.197c8.43-5.104,18.706-0.062,27.916-3.67c6.608-2.589,14.894-8.276,16.659-15.448
				C124.94,125.111,122.091,121.797,118.824,122.845z"/>
			<path style="fill:#E0DFE6;" d="M198.836,61.294c-0.129-0.166-0.259-0.332-0.388-0.497c-1.386-1.776-4.645-1.983-6.454-0.833
				c-2.195,1.396-2.648,3.819-5.046,4.583c-3.03,0.966-6.228,0.463-9.24,1.797c-4.249,1.882-9.112,6.495-8.413,11.477
				c0.134,0.958,1.27,1.641,2.16,1.645c2.382,0.009,3.762-1.332,5.744-2.515c3.095-1.847,5.438-1.629,8.988-1.545
				c5.242,0.124,11.216-1.526,13.607-6.685C201.082,65.941,200.666,63.641,198.836,61.294z"/>
			<path style="fill:#E0DFE6;" d="M160.871,109.154c-1.457,0.004-1.998,0.651-3.225,1.091c-1.658,0.595-0.35,0.551-3.023,1.138
				c-6.641,1.46-14.321,1.182-21.081,1.643c-13.059,0.89-26.135,1.546-39.218,1.963c-13.085,0.417-26.171,0.555-39.262,0.548
				c-12.99-0.006-27.319-1.634-40.043,1.252c-2.965,0.672-2.661,4.878,0,5.706c12.444,3.87,27.126,2.902,40.043,3.019
				c14.092,0.128,28.198-0.137,42.282-0.616c14.088-0.479,28.167-1.23,42.225-2.257c7.493-0.548,23.201,1.814,25.992-7.331
				C166.485,112.279,163.961,109.144,160.871,109.154z"/>
		</g>
		<g>
			<g>
				<path style="fill:#525D7D;" d="M12.332,126.203c-0.565,0-1.109-0.222-1.512-0.618c-0.412-0.403-0.644-0.954-0.647-1.531
					C10.095,107.035,9.901,89.784,9.716,73.1C9.508,54.571,9.294,35.411,9.236,16.485c-0.004-1.193,0.96-2.162,2.152-2.166
					c1.196,0,2.162,0.963,2.166,2.152c0.058,18.909,0.271,38.059,0.479,56.58c0.178,15.979,0.363,32.48,0.446,48.805l146.5-2.006
					c0.094-23.443,0.481-47.225,0.856-70.247c0.177-10.927,0.354-21.855,0.503-32.782c0.018-1.192,0.959-2.13,2.189-2.13
					c1.192,0.017,2.145,0.997,2.13,2.189c-0.149,10.932-0.326,21.862-0.505,32.793c-0.385,23.703-0.784,48.213-0.863,72.313
					c-0.004,1.178-0.952,2.135-2.13,2.152C163.159,124.139,12.361,126.203,12.332,126.203z"/>
			</g>
			<g>
				<path style="fill:#525D7D;" d="M175.817,19.038c-0.006,0-172.731-0.42-172.731-0.42c-1.147-0.003-2.093-0.904-2.151-2.049
					C0.717,12.277,0.448,7.285,0.008,2.35c-0.053-0.606,0.15-1.207,0.564-1.654C0.985,0.247,1.612,0.007,2.176,0L175.59,1.363
					c1.192,0.01,2.151,0.983,2.142,2.175l-0.006,1.772c0,3.694,0.08,7.448,0.247,11.48c0.024,0.588-0.194,1.161-0.602,1.586
					C176.965,18.799,176.404,19.038,175.817,19.038z M5.142,14.305l168.433,0.409c-0.107-3.127-0.162-6.109-0.166-9.049L4.508,4.336
					C4.779,7.782,4.977,11.183,5.142,14.305z"/>
			</g>
			<g>
				<path style="fill:#525D7D;" d="M53.188,98.868c-0.293,0-0.583-0.004-0.877-0.013c-17.576-0.471-31.348-15.028-31.354-33.141
					c-0.004-14.53,8.033-26.786,20.477-31.225c3.149-1.126,6.504-1.775,9.973-1.931c9.201-0.418,18.81,3.122,25.667,9.461
					c6.188,5.722,9.605,13.167,9.882,21.527c0.306,9.239-3.411,18.456-10.201,25.29C70.308,95.326,61.967,98.868,53.188,98.868z
					 M52.825,36.844c-0.409,0-0.818,0.008-1.224,0.027c-3.039,0.138-5.971,0.704-8.714,1.684
					C32.183,42.373,25.27,53.033,25.275,65.713C25.28,81.732,36.953,94.124,52.426,94.54c7.911,0.171,15.451-2.896,21.266-8.746
					c5.954-5.994,9.215-14.049,8.948-22.104c-0.239-7.181-3.177-13.578-8.498-18.5C68.508,39.98,60.442,36.844,52.825,36.844z"/>
			</g>
			<g>
				<path style="fill:#525D7D;" d="M53.549,84.479c-0.166,0-0.332-0.001-0.498-0.007c-9.967-0.267-17.778-8.51-17.781-18.765
					c-0.003-8.217,4.566-15.157,11.641-17.682c1.785-0.637,3.683-1.004,5.639-1.091c5.171-0.229,10.611,1.758,14.479,5.336
					c3.518,3.253,5.462,7.486,5.62,12.242c0.174,5.226-1.926,10.437-5.759,14.295C63.245,82.476,58.524,84.479,53.549,84.479z
					 M53.361,51.234c-0.207,0-0.412,0.004-0.617,0.013c-1.528,0.069-3.001,0.353-4.381,0.846c-5.333,1.902-8.777,7.245-8.774,13.612
					c0.003,8.03,5.84,14.243,13.578,14.451c3.988,0.093,7.742-1.456,10.662-4.394c2.998-3.016,4.64-7.065,4.507-11.107
					c-0.15-4.518-2.387-7.505-4.237-9.215C61.259,52.814,57.195,51.234,53.361,51.234z"/>
			</g>
			<g>
				<path style="fill:#525D7D;" d="M44.495,52.221c-0.874,0-1.697-0.534-2.021-1.401c-1.527-4.068-3.104-8.274-3.104-13.113
					c0-1.192,0.967-2.159,2.159-2.159c1.192,0,2.159,0.967,2.159,2.159c0,4.055,1.373,7.72,2.828,11.598
					c0.419,1.116-0.146,2.36-1.264,2.779C45.004,52.177,44.747,52.221,44.495,52.221z"/>
			</g>
			<g>
				<path style="fill:#525D7D;" d="M63.774,51.727c-0.101,0-0.204-0.007-0.308-0.021c-1.181-0.169-2-1.262-1.833-2.443
					c0.394-2.754,1.981-5.112,3.382-7.194c0.678-1.006,1.317-1.957,1.767-2.858c0.533-1.065,1.83-1.496,2.897-0.966
					c1.067,0.534,1.498,1.83,0.966,2.897c-0.575,1.15-1.324,2.262-2.048,3.337c-1.198,1.779-2.435,3.619-2.688,5.393
					C65.754,50.95,64.831,51.727,63.774,51.727z"/>
			</g>
			<g>
				<path style="fill:#525D7D;" d="M58.497,98.054c-1.085,0-2.02-0.817-2.144-1.92c-0.245-2.21-0.531-4.387-0.818-6.563
					c-0.291-2.205-0.58-4.411-0.831-6.65c-0.131-1.185,0.722-2.253,1.907-2.385c1.179-0.121,2.252,0.723,2.385,1.907
					c0.245,2.21,0.531,4.387,0.818,6.563c0.291,2.205,0.581,4.411,0.831,6.65c0.131,1.185-0.723,2.253-1.907,2.385
					C58.657,98.05,58.577,98.054,58.497,98.054z"/>
			</g>
			<g>
				<path style="fill:#525D7D;" d="M143.037,41.028c-5.431,0-10.96-0.01-16.487-0.02c-5.526-0.01-11.051-0.02-16.481-0.02
					c-1.192,0-2.159-0.967-2.159-2.159c0-1.192,0.967-2.159,2.159-2.159c5.433,0,10.961,0.01,16.488,0.02
					c5.526,0.01,11.051,0.02,16.48,0.02c1.192,0,2.159,0.967,2.159,2.159C145.196,40.061,144.229,41.028,143.037,41.028z"/>
			</g>
			<g>
				<path style="fill:#525D7D;" d="M108.637,54.138c-1.122,0-2.069-0.869-2.151-2.006c-0.084-1.189,0.811-2.222,2-2.307
					c4.078-0.291,8.331-0.291,12.446-0.291c1.192,0,2.159,0.967,2.159,2.159s-0.967,2.159-2.159,2.159c-4.038,0-8.213,0-12.139,0.28
					C108.741,54.137,108.689,54.138,108.637,54.138z"/>
			</g>
			<g>
				<path style="fill:#525D7D;" d="M132.364,54.138c-0.967,0-1.847-0.654-2.093-1.635c-0.29-1.157,0.413-2.329,1.57-2.619
					c1.15-0.288,2.347-0.422,3.771-0.422c1.016,0,2.013,0.069,2.974,0.136c1.358,0.094,2.607,0.187,3.874,0.079
					c1.167-0.084,2.231,0.784,2.331,1.974c0.098,1.189-0.786,2.232-1.974,2.331c-1.543,0.127-3.078,0.027-4.529-0.076
					c-2.069-0.143-3.951-0.195-5.399,0.167C132.714,54.117,132.537,54.138,132.364,54.138z"/>
			</g>
			<g>
				<path style="fill:#525D7D;" d="M144.557,66.544c-8.875,0-17.84-0.245-26.509-0.481c-2.579-0.07-5.16-0.142-7.745-0.205
					c-1.192-0.031-2.135-1.02-2.106-2.212c0.03-1.192,0.981-2.134,2.212-2.106c2.589,0.065,5.174,0.136,7.755,0.207
					c8.641,0.236,17.576,0.479,26.392,0.479c1.192,0,2.159,0.967,2.159,2.159C146.716,65.577,145.749,66.544,144.557,66.544z"/>
			</g>
			<g>
				<path style="fill:#525D7D;" d="M121.392,79.063c-0.101,0-0.205-0.007-0.308-0.021c-3.916-0.561-8.328-0.607-12.157-0.607
					c-1.192,0-2.159-0.967-2.159-2.159c0-1.192,0.967-2.159,2.159-2.159c3.978,0,8.571,0.051,12.767,0.649
					c1.181,0.17,2.002,1.264,1.833,2.443C123.373,78.285,122.449,79.063,121.392,79.063z"/>
			</g>
			<g>
				<path style="fill:#525D7D;" d="M146.089,80.151c-0.125,0-0.252-0.01-0.378-0.032c-1.392-0.246-2.89-0.361-4.717-0.361
					c-1.129,0-2.252,0.041-3.379,0.083c-1.959,0.07-3.929,0.141-5.95,0.02c-1.189-0.07-2.097-1.094-2.025-2.284
					c0.069-1.189,1.035-2.109,2.284-2.026c1.878,0.111,3.71,0.039,5.534-0.025c1.179-0.044,2.356-0.086,3.537-0.086
					c2.086,0,3.823,0.135,5.468,0.426c1.175,0.208,1.958,1.328,1.751,2.503C148.027,79.414,147.117,80.151,146.089,80.151z"/>
			</g>
			<g>
				<path style="fill:#525D7D;" d="M23.173,160.188c-0.668,0-1.327-0.309-1.749-0.891c-0.7-0.966-0.485-2.317,0.479-3.017
					c7.495-5.433,15.182-10.012,21.714-13.775c0.44-0.254,0.959-0.343,1.455-0.254c3.612,0.641,7.216,0.555,11.031,0.467
					c3.264-0.077,6.632-0.157,10.035,0.254c2.432-1.619,4.797-2.665,7.091-3.679c2.475-1.094,4.813-2.125,7.18-3.835
					c0.368-0.266,0.81-0.409,1.264-0.409c5.885,0.082,13.159,0.254,18.424,0.385c4.74-4.373,9.547-8.409,14.623-12.67l0.821-0.69
					c0.914-0.769,2.274-0.649,3.042,0.264c0.768,0.914,0.648,2.276-0.264,3.042l-0.822,0.69
					c-5.264,4.421-10.236,8.595-15.105,13.126c-0.412,0.384-1.004,0.571-1.524,0.578c-5.101-0.128-12.481-0.306-18.525-0.396
					c-2.526,1.728-4.984,2.813-7.368,3.865c-2.427,1.072-4.722,2.086-7.048,3.738c-0.451,0.322-1.004,0.462-1.56,0.377
					c-3.334-0.483-6.653-0.405-10.16-0.323c-3.605,0.087-7.33,0.173-11.1-0.402c-6.287,3.632-13.587,8.011-20.667,13.145
					C24.056,160.054,23.613,160.188,23.173,160.188z"/>
			</g>
			<g>
				<path style="fill:#525D7D;" d="M163.81,79.292c-0.578,0-1.153-0.23-1.578-0.686c-0.814-0.872-0.766-2.238,0.105-3.052
					c1.744-1.628,3.421-3.457,5.043-5.226c1.43-1.559,2.908-3.171,4.467-4.689c0.416-0.408,0.929-0.617,1.569-0.613
					c2.22,0,4.419-0.076,6.547-0.149c1.446-0.049,2.893-0.098,4.338-0.128c1.491-1.919,3.09-3.76,4.641-5.548l1.526-1.767
					c0.777-0.905,2.138-1.008,3.045-0.233c0.905,0.776,1.009,2.139,0.233,3.045l-1.543,1.787c-1.729,1.992-3.518,4.053-5.097,6.155
					c-0.402,0.536-1.03,0.855-1.701,0.863c-1.761,0.021-3.528,0.082-5.294,0.142c-1.923,0.066-3.903,0.135-5.868,0.15
					c-1.257,1.261-2.487,2.602-3.681,3.903c-1.677,1.83-3.413,3.722-5.28,5.465C164.867,79.099,164.338,79.292,163.81,79.292z"/>
			</g>
			<g>
				<path style="fill:#525D7D;" d="M196.689,60.188c-0.361,0-0.727-0.014-1.095-0.044c-4.318-0.339-9.019-4.155-9.082-9.731
					c-0.059-5.289,4.159-9.868,9.405-10.208c0.146-0.01,0.299-0.016,0.455-0.02c0.062,0.003,0.152-0.001,0.228-0.001
					c5.008,0,9.246,2.9,10.586,7.27c0.297,0.97,0.444,1.93,0.439,2.858c-0.022,2.63-1.186,5.191-3.195,7.034
					C202.41,59.197,199.693,60.188,196.689,60.188z M196.47,44.504l-0.264,0.01c-2.952,0.191-5.409,2.87-5.375,5.85
					c0.037,3.271,3.04,5.315,5.101,5.476c2.855,0.222,4.612-0.79,5.579-1.677c1.13-1.036,1.785-2.451,1.796-3.882
					c0.003-0.484-0.082-1.012-0.25-1.563C202.085,45.55,198.894,44.407,196.47,44.504z"/>
			</g>
			<g>
				<path style="fill:#525D7D;" d="M23.17,161.33c-1.171,0-2.132-0.937-2.158-2.114c-0.024-1.193,0.922-2.179,2.114-2.204
					l152.897-3.143c1.139-0.051,2.177,0.922,2.204,2.114c0.024,1.193-0.922,2.179-2.114,2.204
					C176.113,158.187,23.217,161.33,23.17,161.33z"/>
			</g>
			<g>
				<path style="fill:#525D7D;" d="M176.068,157.615c-0.874,0-1.697-0.534-2.021-1.401c-0.669-1.782-0.755-3.641-0.755-5.059
					c0-0.509,0.011-1.016,0.024-1.515c0.01-0.451,0.021-0.895,0.021-1.33c0-1.192,0.967-2.159,2.159-2.159s2.159,0.967,2.159,2.159
					c0,0.468-0.011,0.946-0.022,1.432c-0.011,0.465-0.023,0.937-0.023,1.413c0,1.12,0.058,2.416,0.479,3.544
					c0.419,1.116-0.146,2.36-1.264,2.779C176.577,157.572,176.32,157.615,176.068,157.615z"/>
			</g>
			<g>
				<path style="fill:#525D7D;" d="M146.658,157.615c-1.192,0-2.159-0.967-2.159-2.159v-5.717c0-1.192,0.967-2.159,2.159-2.159
					c1.192,0,2.159,0.967,2.159,2.159v5.717C148.817,156.648,147.85,157.615,146.658,157.615z"/>
			</g>
			<g>
				<path style="fill:#525D7D;" d="M119.218,157.901c-1.192,0-2.159-0.967-2.159-2.159v-4.859c0-1.192,0.967-2.159,2.159-2.159
					c1.192,0,2.159,0.967,2.159,2.159v4.859C121.377,156.934,120.409,157.901,119.218,157.901z"/>
			</g>
			<g>
				<path style="fill:#525D7D;" d="M91.49,158.473c-1.192,0-2.159-0.967-2.159-2.159v-5.146c0-1.192,0.967-2.159,2.159-2.159
					c1.192,0,2.159,0.967,2.159,2.159v5.146C93.649,157.506,92.682,158.473,91.49,158.473z"/>
			</g>
			<g>
				<path style="fill:#525D7D;" d="M67.479,159.615c-1.192,0-2.159-0.967-2.159-2.159c0-0.458,0.018-0.918,0.038-1.376
					c0.017-0.399,0.034-0.797,0.034-1.196c0-0.794-0.076-1.376-0.247-1.888c-0.378-1.13,0.232-2.354,1.364-2.733
					c1.132-0.377,2.354,0.233,2.732,1.363c0.42,1.259,0.47,2.461,0.47,3.257c0,0.458-0.018,0.918-0.038,1.376
					c-0.017,0.399-0.034,0.797-0.034,1.196C69.638,158.648,68.671,159.615,67.479,159.615z"/>
			</g>
			<g>
				<path style="fill:#525D7D;" d="M43.181,159.615c-1.192,0-2.159-0.967-2.159-2.159c0-0.834,0.08-1.548,0.156-2.239
					c0.068-0.6,0.131-1.168,0.131-1.763c0-1.192,0.967-2.159,2.159-2.159c1.192,0,2.159,0.967,2.159,2.159
					c0,0.835-0.08,1.55-0.156,2.241c-0.067,0.6-0.131,1.167-0.131,1.761C45.34,158.648,44.373,159.615,43.181,159.615z"/>
			</g>
		</g>
	</g>
</g>
<g id="Layer_1">
</g>
</svg>
