<?xml version="1.0" encoding="iso-8859-1"?>
<!-- Generator: Adobe Illustrator 21.0.2, SVG Export Plug-In . SVG Version: 6.00 Build 0)  -->
<svg version="1.1" xmlns="http://www.w3.org/2000/svg" xmlns:xlink="http://www.w3.org/1999/xlink" x="0px" y="0px"
	 viewBox="0 0 193.207 173.858" style="enable-background:new 0 0 193.207 173.858;" xml:space="preserve">
<g id="_x38_9">
	<g>
		<g>
			<path style="fill:#E0DFE6;" d="M189.056,158.328c0.669-2.26,0.807-4.783,0.675-7.682c-0.387-8.465-0.896-16.952-1.544-25.401
				c-0.401-5.224-2.053-27.351-12.591-19.747c-0.96,0.693-0.837,2.095,0.326,2.492c0.271,0.092-0.75,22.034-0.688,24.311
				c0.116,4.234,0.249,8.467,0.373,12.701c0.064,2.189,0.616,4.888,0.207,7.056c0.201,0.477,0.402,0.954,0.603,1.432
				c-0.872,0.601-1.678,1.278-2.42,2.032c-0.782,0.734-1.301,1.733-1.564,2.817c-5.915,0.393-11.833,0.749-17.742,1.218
				c-6.202,0.491-12.454,0.907-18.633,1.643c-2.386,0.284-4.861,0.982-7.265,1.028c-5.585,0.105-7.976-0.409-9.168-6.128
				c-0.441-2.116-3.377-1.425-3.544,0.48c-0.391,4.442-0.729,9.458,2.301,13.132c4.288,5.2,13.151,3.982,19.109,3.838
				c8.601-0.208,17.216-0.787,25.799-1.363c7.629-0.512,15.994-0.13,23.43-2.018c2.057-0.522,4.243-2.446,4.621-4.621
				c0.063-0.363,0.126-0.725,0.189-1.088C191.962,161.971,191.122,159.591,189.056,158.328z"/>
			<path style="fill:#E0DFE6;" d="M159.166,129.272c-0.469-1.141-0.809-2.059-1.723-2.98c-0.914-0.92-1.223-1.008-2.214-1.426
				c-1.422-0.6-2.905-0.723-4.427-0.343c-0.219,0.055-0.43,0.125-0.654,0.169c0.325-0.044,0.649-0.087,0.974-0.131
				c-0.67,0.094-1.323,0.209-1.972,0.445c-1.233,0.449-2.17,0.921-3.172,1.828c-0.127,0.115-0.244,0.234-0.38,0.34
				c0.252-0.195,0.505-0.39,0.757-0.585c-1.439,1.102-2.377,2.441-2.628,4.312c-0.267,1.986,0.315,3.884,1.745,5.33
				c1.533,1.549,3.657,2.6,5.873,2.442c2.326-0.167,4.494-0.989,6.073-2.785c0.843-0.849,1.426-1.849,1.749-3.001
				C159.49,131.683,159.49,130.478,159.166,129.272z"/>
			<path style="fill:#E0DFE6;" d="M151.699,57.906c-9.176,1.059-14.818,10.035-16.588,18.534
				c-1.337,6.422-2.383,21.501,5.203,24.569c0.448,0.181,0.954-0.055,1.287-0.34c4.39-3.758,1.865-11.505,2.244-16.669
				c0.653-8.896,5.062-12.481,11.199-18.017C157.898,63.407,155.809,57.431,151.699,57.906z"/>
			<path style="fill:#E0DFE6;" d="M180.078,64.059c-2.761-10.219-7.397-16.201-17.863-18.339c-1.566-0.32-2.564,1.761-1.112,2.638
				c7.732,4.669,7.575,19.207,8.506,26.889c1.004,8.282,0.509,17.65,2.951,25.598c1.56,5.077,9.774,5.753,10.98,0
				C185.858,89.783,183.016,74.936,180.078,64.059z"/>
			<path style="fill:#E0DFE6;" d="M143.168,60.195c-7.79,1.582-11.112,10.183-11.958,17.295c-0.614,5.17-0.309,10.402-0.215,15.592
				c0.078,4.349-0.668,8.669,2.182,12.203c3.966,4.918,10.968-1.344,8.361-6.451c-0.647-1.266-0.07-6.641-0.163-8.357
				c-0.164-3.034-0.378-6.066-0.54-9.1c-0.386-7.263,0.735-12.316,4.325-18.59C145.962,61.386,144.645,59.896,143.168,60.195z"/>
			<path style="fill:#E0DFE6;" d="M105.428,111.117c-3.159,3.599-7.157,6.034-9.145,10.561c-1.399,3.185-0.678,3.25-4.208,4.192
				c-1.45,0.387-11.343,1.549-11.597,2.686c0.755-3.386-1.537-6.564-5.074-6.661c-5.558-0.153-7.641-7.504-14.068-6.169
				c-1.24,0.257-1.55,1.912-0.725,2.747c4.005,4.055,5.027,9.734,9.593,12.428c0.535,2.437,1.98,4.583,4.427,6.1
				c5.052,3.131,11.37,1.215,16.782,0.236c4.65-0.841,9.868-1.254,13.012-5.231c1.788-2.262,1.928-5.101,4.22-6.937
				c2.124-1.702,4.389-2.291,6.25-4.483C120.425,114.075,111.15,104.598,105.428,111.117z"/>
			<path style="fill:#E0DFE6;" d="M109.816,73.524c-5.278-2.97-11.239-4.016-16.878-6.068c-2.96-1.076-9.199-2.33-10.181-5.184
				c-0.53-1.54,0.225-3.115-0.166-4.818c-0.153-0.669-0.734-1.183-1.372-1.372c-4.083-1.211-7.545,2.702-8.11,6.564
				c-0.79,5.403,3.68,8.395,7.941,10.479c6.983,3.415,15.086,4.682,21.864,8.245c6.542,3.439,10.161,11.211,10.318,18.344
				c0.175,7.95,12.703,7.938,12.349,0C125.088,88.634,119.574,79.015,109.816,73.524z"/>
			<path style="fill:#E0DFE6;" d="M113.27,58.755c-1.525-1.4-3.948-1.912-5.782-0.746c-1.744,1.11-3.46,3.159-4.407,5
				c-0.545,1.06-1.497,3.513-0.371,4.614c1.439,1.406,3.4,1.838,5.353,1.322c2.224-0.588,4.955-2.233,5.952-4.408
				C114.878,62.656,114.925,60.275,113.27,58.755z"/>
			<path style="fill:#E0DFE6;" d="M93.388,56.404c-1.765-1.09-3.42-0.791-5.365-0.744c-1.594,0.038-3.188,0-4.779-0.085
				c-1.477-0.079-2.786,1.204-2.953,2.607c-0.187,1.569,0.716,2.755,2.154,3.299c1.615,0.612,3.247,1.149,4.918,1.586
				c2.217,0.581,3.863,0.897,6.025-0.11C96.086,61.702,95.623,57.785,93.388,56.404z"/>
			<path style="fill:#E0DFE6;" d="M114.607,53.249c-3.66-4.476-7.565-9.209-11.915-13.033c-3.108-2.732-7.621-5.667-11.753-3.517
				c-1.264,0.658-1.442,2.236-0.892,3.401c1.51,3.198,5.191,5.897,7.442,8.647c3.245,3.964,6.325,8.053,9.758,11.862
				c1.123,1.246,3.457,1.98,5.064,1.338c1.41-0.564,2.31-1.086,3.11-2.392C116.725,57.429,116.067,55.035,114.607,53.249z"/>
			<path style="fill:#E0DFE6;" d="M106.664,152.435c-13.092,4.72-26.371,4.974-39.783,1.419c-6.525-1.73-12.497-4.4-18.55-7.336
				c-3.124-1.515-6.24-3.052-9.414-4.462c-2.408-1.069-5.516-1.478-7.727-2.782c-0.688-0.406-1.818,0.288-1.472,1.132
				c1.442,3.521,1.478,6.602,3.609,9.977c2.099,3.326,4.914,6.204,7.926,8.694c6.178,5.106,13.526,8.657,21.114,11.155
				c15.689,5.166,33.476,4.691,49.03-0.629C122.209,165.901,117.438,148.551,106.664,152.435z"/>
			<path style="fill:#E0DFE6;" d="M156.934,20.295c-8.252-6.23-19.585-12.641-30.279-10.613c-1.416,0.268-1.554,2.025-0.778,2.948
				c5.801,6.905,14.592,10.832,21.292,16.799c3.377,3.007,6.397,6.498,8.766,10.355c2.234,3.635,3.497,7.553,6.828,10.389
				c2.973,2.531,8.27,1.917,9.248-2.441C174.407,37.05,164.864,26.282,156.934,20.295z"/>
			<path style="fill:#E0DFE6;" d="M143.43,41.647c-11.408-12.593-25.097-23.395-42.021-27.114
				c-17.027-3.743-31.652,1.408-46.747,9.009c-13.417,6.756-25.15,15.414-32.577,28.766c-5.747,10.333-8.899,22.032-7.71,33.653
				c-0.929,0.578-1.558,1.582-1.448,3.016c0.711,9.256,4.881,18.707,11.968,24.784c0.665,0.57,1.543,0.014,1.407-0.819
				c-1.353-8.319-3.54-16.899-6.051-24.956c-0.315-1.009-0.997-1.713-1.822-2.135c0.532-10.407,2.634-20.695,7.629-29.964
				c6.832-12.676,17.501-20.951,30.139-27.367c14.087-7.152,28.67-10.234,44.056-5.133c14.186,4.703,25.976,14.669,35.748,25.687
				C140.488,54.133,147.969,46.657,143.43,41.647z"/>
		</g>
		<g>
			<g>
				<path style="fill:#525D7D;" d="M84.743,165.608c-21.94,0-42.941-8.477-59.176-23.899C9.821,126.752,0.512,106.756,0.027,86.845
					c-0.566-23.23,7.654-44.961,23.145-61.192C38.259,9.844,59.292,0.502,80.88,0.019c4.672-0.102,9.409,0.214,14.074,0.943
					c10.351,1.617,20.77,5.195,30.964,10.637c14.394,7.683,26.01,19.274,33.59,33.517c0.56,1.053,0.161,2.36-0.892,2.921
					c-1.053,0.561-2.359,0.162-2.92-0.891c-7.176-13.486-18.176-24.46-31.812-31.738C114.119,10.196,104.16,6.77,94.287,5.23
					c-4.414-0.692-8.892-0.995-13.311-0.893c-20.449,0.457-40.38,9.312-54.681,24.296C11.603,44.029,3.806,64.665,4.344,86.741
					c0.457,18.771,9.276,37.665,24.197,51.839c15.427,14.652,35.375,22.711,56.202,22.711c0.129,0,0.254-0.001,0.384-0.001
					c10.023-0.046,19.659-1.757,28.639-5.081c1.118-0.419,2.36,0.156,2.775,1.275c0.414,1.118-0.157,2.36-1.275,2.773
					c-9.456,3.501-19.589,5.302-30.119,5.351C85.014,165.607,84.878,165.608,84.743,165.608z"/>
			</g>
			<g>
				<path style="fill:#525D7D;" d="M152.779,97.954c-0.154,0-0.31-0.016-0.466-0.051c-1.164-0.256-1.901-1.408-1.644-2.572
					c0.2-0.911,0.379-1.822,0.538-2.731c0.204-1.174,1.324-1.971,2.497-1.756c1.175,0.204,1.962,1.323,1.756,2.498
					c-0.169,0.971-0.361,1.944-0.575,2.917C154.663,97.266,153.77,97.954,152.779,97.954z M154.292,85.11
					c-1.23-0.021-2.18-1.004-2.16-2.196c0.006-0.356,0.009-0.71,0.009-1.065c0-0.573-0.008-1.147-0.024-1.719
					c-0.032-1.192,0.907-2.184,2.099-2.217c1.2-0.059,2.184,0.907,2.217,2.099c0.017,0.611,0.025,1.224,0.025,1.837
					c0,0.381-0.003,0.76-0.009,1.139C156.43,84.169,155.467,85.11,154.292,85.11z M153.207,72.222c-1.02,0-1.926-0.724-2.12-1.763
					c-0.171-0.914-0.361-1.822-0.571-2.725c-0.27-1.163,0.453-2.322,1.614-2.592c1.163-0.268,2.322,0.453,2.591,1.614
					c0.224,0.966,0.428,1.936,0.61,2.911c0.219,1.172-0.554,2.3-1.726,2.519C153.471,72.211,153.338,72.222,153.207,72.222z"/>
			</g>
			<g>
				<path style="fill:#525D7D;" d="M81.063,154.154c-0.031,0-0.062,0-0.093-0.001c-0.991-0.042-1.977-0.105-2.958-0.186
					c-1.188-0.098-2.072-1.141-1.974-2.33c0.098-1.188,1.146-2.056,2.33-1.974c0.924,0.077,1.852,0.135,2.785,0.174
					c1.191,0.051,2.116,1.057,2.066,2.249C83.169,153.246,82.214,154.154,81.063,154.154z M91.124,153.895
					c-1.103,0-2.044-0.841-2.147-1.961c-0.11-1.188,0.765-2.239,1.952-2.349c0.934-0.086,1.86-0.188,2.78-0.308
					c1.178-0.159,2.267,0.678,2.42,1.861c0.155,1.182-0.679,2.266-1.861,2.42c-0.973,0.128-1.955,0.236-2.944,0.328
					C91.257,153.892,91.191,153.895,91.124,153.895z M68.249,152.424c-0.161,0-0.325-0.018-0.488-0.055
					c-0.964-0.224-1.922-0.465-2.872-0.724c-1.15-0.313-1.829-1.501-1.515-2.651c0.314-1.151,1.503-1.83,2.651-1.515
					c0.896,0.245,1.799,0.472,2.709,0.682c1.162,0.269,1.886,1.428,1.617,2.591C70.119,151.749,69.231,152.424,68.249,152.424z
					 M103.858,151.594c-0.947,0-1.817-0.628-2.08-1.587c-0.316-1.148,0.359-2.338,1.509-2.654c0.902-0.247,1.794-0.512,2.676-0.794
					c1.136-0.364,2.351,0.264,2.714,1.4c0.363,1.136-0.264,2.35-1.399,2.713c-0.939,0.299-1.887,0.581-2.845,0.845
					C104.24,151.569,104.047,151.594,103.858,151.594z M55.958,148.388c-0.286,0-0.577-0.056-0.856-0.177
					c-0.906-0.392-1.802-0.801-2.688-1.226c-1.075-0.516-1.529-1.806-1.012-2.881c0.516-1.074,1.808-1.528,2.88-1.012
					c0.836,0.402,1.681,0.786,2.535,1.155c1.094,0.474,1.598,1.746,1.124,2.839C57.588,147.902,56.793,148.388,55.958,148.388z
					 M44.597,142.233c-0.411,0-0.825-0.117-1.193-0.361c-0.822-0.545-1.632-1.105-2.43-1.678c-0.968-0.696-1.188-2.045-0.492-3.014
					c0.695-0.968,2.044-1.188,3.014-0.492c0.754,0.543,1.52,1.071,2.298,1.588c0.993,0.659,1.264,1.999,0.604,2.993
					C45.981,141.894,45.295,142.233,44.597,142.233z M34.487,134.18c-0.535,0-1.07-0.197-1.489-0.594
					c-0.714-0.68-1.415-1.373-2.101-2.079c-0.831-0.855-0.812-2.222,0.042-3.053c0.855-0.829,2.222-0.811,3.053,0.042
					c0.648,0.666,1.309,1.32,1.983,1.961c0.864,0.822,0.898,2.189,0.076,3.053C35.627,133.955,35.057,134.18,34.487,134.18z
					 M25.945,124.479c-0.664,0-1.319-0.305-1.742-0.881c-0.585-0.797-1.152-1.605-1.701-2.423c-0.666-0.988-0.403-2.33,0.586-2.995
					c0.988-0.665,2.332-0.405,2.997,0.586c0.517,0.767,1.051,1.528,1.6,2.277c0.706,0.962,0.498,2.314-0.464,3.018
					C26.836,124.343,26.388,124.479,25.945,124.479z M19.299,113.396c-0.806,0-1.579-0.453-1.95-1.229
					c-0.427-0.894-0.834-1.795-1.221-2.703c-0.467-1.098,0.044-2.366,1.141-2.832c1.095-0.47,2.364,0.044,2.832,1.14
					c0.362,0.852,0.744,1.697,1.143,2.534c0.514,1.077,0.058,2.366-1.018,2.879C19.927,113.329,19.611,113.396,19.299,113.396z
					 M14.91,101.243c-0.969,0-1.85-0.656-2.094-1.639c-0.24-0.963-0.457-1.931-0.651-2.904c-0.233-1.169,0.526-2.307,1.695-2.54
					c1.17-0.246,2.307,0.526,2.54,1.694c0.181,0.908,0.384,1.812,0.607,2.71c0.287,1.157-0.417,2.328-1.574,2.616
					C15.257,101.223,15.082,101.243,14.91,101.243z M13.16,86.281h-2.159c-0.017-0.656-0.025-1.313-0.025-1.965l0.005-0.939
					c0.014-1.183,0.978-2.134,2.158-2.134c1.218,0.014,2.173,0.992,2.16,2.184l-0.005,0.883c0,0.624,0.008,1.244,0.022,1.867
					L13.16,86.281z M13.927,75.53c-0.104,0-0.209-0.007-0.316-0.022c-1.18-0.173-1.996-1.269-1.824-2.449
					c0.144-0.984,0.306-1.958,0.486-2.924c0.219-1.171,1.337-1.952,2.519-1.726c1.172,0.219,1.945,1.347,1.726,2.519
					c-0.17,0.909-0.323,1.827-0.458,2.755C15.903,74.757,14.981,75.53,13.927,75.53z M16.935,62.952
					c-0.228,0-0.461-0.037-0.69-0.114c-1.13-0.381-1.737-1.605-1.356-2.735c0.318-0.94,0.654-1.871,1.007-2.792
					c0.428-1.113,1.673-1.664,2.79-1.241c1.113,0.427,1.669,1.677,1.241,2.79c-0.332,0.864-0.649,1.739-0.947,2.623
					C18.677,62.384,17.836,62.952,16.935,62.952z M22.188,51.135c-0.357,0-0.72-0.089-1.053-0.275
					c-1.04-0.583-1.411-1.899-0.828-2.939c0.485-0.866,0.987-1.719,1.506-2.558c0.628-1.015,1.957-1.328,2.971-0.703
					c1.015,0.627,1.329,1.957,0.703,2.972c-0.486,0.788-0.958,1.588-1.413,2.401C23.678,50.737,22.944,51.135,22.188,51.135z
					 M143.611,48.359c-0.705,0-1.396-0.344-1.81-0.98c-0.507-0.777-1.031-1.545-1.572-2.301c-0.693-0.971-0.468-2.319,0.502-3.012
					c0.971-0.694,2.319-0.467,3.012,0.502c0.576,0.807,1.134,1.625,1.674,2.453c0.651,0.998,0.37,2.336-0.629,2.987
					C144.425,48.245,144.015,48.359,143.611,48.359z M29.539,40.496c-0.49,0-0.983-0.166-1.387-0.506
					c-0.913-0.767-1.031-2.128-0.264-3.042c0.635-0.756,1.284-1.498,1.947-2.227c0.803-0.883,2.167-0.947,3.05-0.143
					c0.882,0.803,0.946,2.169,0.143,3.05c-0.624,0.686-1.236,1.386-1.834,2.097C30.767,40.234,30.154,40.496,29.539,40.496z
					 M135.54,38.252c-0.564,0-1.128-0.221-1.552-0.658c-0.645-0.668-1.306-1.321-1.98-1.962c-0.865-0.821-0.899-2.187-0.078-3.052
					c0.823-0.864,2.19-0.898,3.052-0.077c0.719,0.683,1.422,1.379,2.109,2.089c0.829,0.857,0.806,2.224-0.051,3.053
					C136.622,38.05,136.08,38.252,135.54,38.252z M38.727,31.407c-0.624,0-1.243-0.268-1.67-0.789
					c-0.757-0.922-0.623-2.283,0.299-3.039c0.765-0.628,1.541-1.24,2.33-1.834c0.953-0.716,2.305-0.527,3.024,0.426
					c0.718,0.952,0.528,2.305-0.425,3.024c-0.741,0.558-1.471,1.133-2.189,1.722C39.694,31.247,39.209,31.407,38.727,31.407z
					 M125.702,29.852c-0.428,0-0.861-0.127-1.238-0.392c-0.759-0.533-1.531-1.051-2.315-1.556c-1.004-0.644-1.295-1.979-0.65-2.983
					c0.645-1.002,1.981-1.293,2.984-0.649c0.835,0.535,1.656,1.088,2.463,1.654c0.976,0.685,1.212,2.031,0.526,3.008
					C127.051,29.532,126.382,29.852,125.702,29.852z M49.44,24.166c-0.763,0-1.503-0.405-1.896-1.122
					c-0.573-1.046-0.19-2.357,0.856-2.931c0.867-0.475,1.744-0.933,2.631-1.372c1.069-0.531,2.364-0.093,2.894,0.975
					c0.529,1.068,0.092,2.364-0.976,2.893c-0.833,0.413-1.658,0.843-2.473,1.29C50.146,24.08,49.79,24.166,49.44,24.166z
					 M114.486,23.41c-0.309,0-0.623-0.066-0.921-0.207c-0.845-0.399-1.698-0.786-2.559-1.16c-1.094-0.474-1.596-1.746-1.122-2.839
					c0.474-1.092,1.745-1.598,2.84-1.122c0.903,0.391,1.799,0.797,2.686,1.216c1.078,0.51,1.539,1.796,1.03,2.874
					C116.07,22.953,115.294,23.41,114.486,23.41z M61.31,19.036c-0.91,0-1.756-0.579-2.053-1.491
					c-0.368-1.134,0.252-2.353,1.387-2.721c0.941-0.305,1.889-0.592,2.844-0.857c1.151-0.321,2.34,0.349,2.661,1.498
					c0.321,1.148-0.35,2.339-1.498,2.66c-0.897,0.252-1.787,0.519-2.672,0.807C61.756,19.002,61.531,19.036,61.31,19.036z
					 M102.408,18.76c-0.204,0-0.412-0.028-0.618-0.09c-0.894-0.267-1.793-0.519-2.696-0.752c-1.155-0.298-1.848-1.476-1.55-2.631
					c0.299-1.154,1.477-1.841,2.631-1.549c0.955,0.247,1.905,0.513,2.849,0.794c1.143,0.34,1.793,1.543,1.452,2.686
					C104.197,18.154,103.339,18.76,102.408,18.76z M73.936,16.223c-1.074,0-2.004-0.8-2.14-1.893
					c-0.146-1.183,0.694-2.262,1.877-2.408c0.982-0.122,1.968-0.224,2.959-0.305c1.187-0.075,2.231,0.788,2.328,1.976
					c0.097,1.188-0.787,2.231-1.976,2.328c-0.931,0.076-1.858,0.171-2.78,0.285C74.115,16.217,74.025,16.223,73.936,16.223z
					 M89.743,16.134c-0.081,0-0.163-0.004-0.246-0.014c-0.926-0.104-1.853-0.188-2.778-0.256c-1.189-0.086-2.084-1.119-1.998-2.308
					c0.086-1.189,1.133-2.09,2.309-1.999c0.985,0.07,1.969,0.16,2.954,0.273c1.185,0.134,2.037,1.203,1.902,2.388
					C91.761,15.321,90.827,16.134,89.743,16.134z"/>
			</g>
			<g>
				<path style="fill:#525D7D;" d="M84.382,131.267c-1.978,0-4.07-0.091-6.398-0.281c-1.103-0.09-1.96-0.999-1.983-2.106
					c-0.034-1.573-0.141-3.111-0.254-4.738c-0.006-0.089-0.012-0.177-0.018-0.266c-13.94-2.827-18.649-12.613-22.259-22.442
					c-0.405-1.105,0.149-2.332,1.247-2.756l0.184-0.072c3.729-1.445,7.585-2.939,11.464-4.22c1.061-0.346,2.213,0.167,2.657,1.192
					c1.88,4.332,6.15,11.602,13.632,11.602c4.2,0,8.437-2.291,8.437-7.408c0-8.705-6.312-10.495-16.611-12.694
					c-9.49-2.027-21.3-4.55-21.3-18.757c0-13.088,7.354-23.002,19.334-26.309c-0.053-0.547-0.099-1.095-0.146-1.64
					c-0.073-0.857-0.145-1.713-0.242-2.561c-0.129-1.123,0.63-2.155,1.741-2.367c4.814-0.918,10.053-1.192,15.746-0.811
					c0.594,0.041,1.145,0.323,1.523,0.783c0.378,0.46,0.55,1.054,0.474,1.645c-0.19,1.494-0.301,2.852-0.336,4.126
					c8.908,1.865,15.255,7.716,19.365,17.828c0.415,1.022-0.007,2.194-0.98,2.716c-0.807,0.433-1.621,0.857-2.435,1.283
					c-2.088,1.091-4.248,2.221-6.254,3.461c-0.996,0.616-2.298,0.326-2.941-0.654c-3.747-5.714-9.521-9.263-15.068-9.263
					c-1.262,0-2.53,0.176-3.771,0.521c-1.93,0.54-5.714,3.352-5.714,7.412c0,5.632,4.353,6.612,12.693,7.987
					c10.059,1.659,23.836,3.929,26.823,22.379c0.19,1.177-0.609,2.286-1.787,2.475c-1.174,0.197-2.285-0.609-2.477-1.787
					c-2.49-15.383-13.05-17.123-23.263-18.808c-8.018-1.321-16.308-2.687-16.308-12.247c0-6.203,5.294-10.572,8.871-11.57
					c1.618-0.453,3.277-0.682,4.932-0.682c6.503,0,12.914,3.525,17.485,9.525c1.589-0.911,3.203-1.754,4.778-2.578
					c0.214-0.111,0.427-0.224,0.64-0.335c-3.794-8.224-9.252-12.599-17.054-13.716c-1.04-0.148-1.822-1.023-1.853-2.073
					c-0.01-0.335-0.014-0.669-0.014-1.002c0-1.032,0.046-2.101,0.138-3.233c-3.728-0.132-7.187,0.046-10.467,0.533
					c0.018,0.215,0.037,0.432,0.056,0.647c0.095,1.122,0.19,2.248,0.342,3.365c0.153,1.123-0.588,2.172-1.697,2.404
					c-10.991,2.301-17.818,10.94-17.818,22.548c0,9.993,6.757,12.156,17.885,14.533c9.387,2.006,20.027,4.279,20.027,16.918
					c0,7.699-6.417,11.726-12.756,11.726c-6.872,0-12.767-4.383-16.754-12.395c-2.557,0.887-5.116,1.858-7.629,2.828
					c3.426,8.86,7.742,16.123,19.829,17.982c1.004,0.155,1.764,0.987,1.827,2c0.04,0.645,0.084,1.288,0.129,1.928
					c0.068,0.974,0.137,1.969,0.189,2.976c4.819,0.287,8.747,0.105,12.325-0.572c-0.369-1.548-0.721-3.13-0.978-4.741
					c-0.167-1.053,0.458-2.071,1.472-2.395c3.499-1.124,6.398-2.962,9.401-5.958c0.843-0.843,2.21-0.843,3.053,0.003
					c0.843,0.843,0.841,2.211-0.003,3.053c-2.954,2.949-5.961,5.004-9.341,6.367c0.287,1.424,0.637,2.851,0.978,4.245l0.133,0.542
					c0.28,1.148-0.416,2.309-1.561,2.603C92.31,130.841,88.6,131.267,84.382,131.267z"/>
			</g>
			<g>
				<path style="fill:#525D7D;" d="M158.18,173.855c-11.141,0-21.99-0.249-34-0.548c-6.698-0.167-11.409-6.383-11.606-12.083
					c-0.273-7.865-0.61-15.802-1.732-26.394c-0.693-6.545-0.738-13.026-0.781-19.295c-0.013-1.808-0.025-3.611-0.053-5.412
					c-0.001-5.237,5.188-8.193,10.071-8.375c4.869-0.18,9.737-0.364,14.605-0.548c14.184-0.537,28.851-1.092,43.281-1.512
					l0.316-0.006c9.689,0,11.176,6.661,11.452,11.671c0.548,9.945,1.284,19.531,1.995,28.804c0.49,6.384,0.996,12.988,1.448,19.77
					c0.022,0.316,0.032,0.634,0.032,0.949c0,5.978-3.935,12.197-11.456,12.517C174.441,173.705,166.731,173.855,158.18,173.855z
					 M178.278,104.001l-0.181,0.003c-14.42,0.42-29.078,0.975-43.253,1.512c-4.869,0.184-9.739,0.368-14.609,0.548
					c-2.384,0.089-5.913,1.403-5.913,3.946c0.028,1.861,0.041,3.676,0.053,5.496c0.044,6.164,0.088,12.537,0.758,18.869
					c1.137,10.732,1.478,18.754,1.754,26.7c0.127,3.659,3.196,7.81,7.399,7.914c11.982,0.301,22.802,0.548,33.893,0.548
					c8.489,0,16.14-0.15,23.388-0.458c4.807-0.204,7.321-4.28,7.321-8.202c0-0.219-0.008-0.439-0.023-0.659
					c-0.45-6.762-0.956-13.355-1.446-19.729c-0.713-9.295-1.451-18.906-2.001-28.896
					C185.106,105.917,183.305,104.001,178.278,104.001z"/>
			</g>
			<g>
				<path style="fill:#525D7D;" d="M125.94,105.851c-1.146,0-2.1-0.9-2.155-2.056c-0.191-3.988-0.685-8.092-1.162-12.062
					c-0.622-5.18-1.266-10.537-1.266-15.797c0-20.148,11.343-32.664,29.601-32.664c24.996,0,26.593,23.002,28.442,49.636
					c0.199,2.868,0.402,5.797,0.637,8.773c0.094,1.188-0.793,2.228-1.982,2.322c-1.193,0.093-2.228-0.793-2.322-1.982
					c-0.237-2.988-0.441-5.933-0.642-8.813c-2.022-29.133-4.14-45.617-24.133-45.617c-7.602,0-25.283,2.762-25.283,28.346
					c0,5.001,0.628,10.227,1.236,15.281c0.486,4.045,0.988,8.229,1.186,12.372c0.058,1.191-0.862,2.203-2.053,2.259
					C126.01,105.849,125.974,105.851,125.94,105.851z"/>
			</g>
			<g>
				<path style="fill:#525D7D;" d="M136.86,105.439c-1.122,0-2.07-0.867-2.151-2.004c-0.143-1.99-0.32-3.984-0.496-5.973
					c-0.403-4.568-0.822-9.291-0.822-13.919c0-17.14,5.809-26.581,16.356-26.581c4.28,0,18.246,2.222,18.246,30.814
					c0,2.301-0.066,4.643-0.13,6.906c-0.064,2.255-0.13,4.585-0.13,6.865l0.002,0.676c0.007,1.192-0.954,2.165-2.146,2.172
					c-1.2,0-2.165-0.957-2.172-2.146l-0.002-0.701c0-2.342,0.067-4.703,0.131-6.986c0.063-2.235,0.129-4.544,0.129-6.785
					c0-16.591-5.206-26.496-13.928-26.496c-4.496,0-12.038,2.893-12.038,22.262c0,4.438,0.409,9.063,0.805,13.538
					c0.178,2.013,0.356,4.03,0.501,6.044c0.086,1.189-0.809,2.222-1.998,2.308C136.964,105.437,136.912,105.439,136.86,105.439z"/>
			</g>
			<g>
				<path style="fill:#525D7D;" d="M152.202,142.178c-0.037,0-0.075,0-0.112,0c-5.689-0.066-10.284-4.625-10.242-10.161
					c0.039-5.271,4.463-9.7,9.861-9.875c0.425-0.017,0.862-0.003,1.299,0.039c3.771,0.353,7.16,2.619,8.846,5.911
					c0.546,1.065,0.843,2.239,0.883,3.487c0.084,2.626-1.006,5.291-2.989,7.315C157.698,140.986,154.954,142.178,152.202,142.178z
					 M152.055,126.453c-0.066,0-0.131,0.001-0.197,0.004c-3.12,0.101-5.669,2.609-5.691,5.592c-0.024,3.167,2.656,5.773,5.975,5.811
					c1.635,0,3.3-0.739,4.523-1.988c1.163-1.186,1.803-2.702,1.758-4.155c-0.02-0.606-0.157-1.164-0.411-1.657
					c-1.004-1.961-3.127-3.366-5.407-3.58C152.42,126.463,152.237,126.453,152.055,126.453z"/>
			</g>
			<g>
				<path style="fill:#525D7D;" d="M153.474,155.062c-0.759,0-1.495-0.401-1.89-1.11c-1.083-1.951-1.208-3.913-1.208-5.219
					c0-0.758,0.049-1.52,0.098-2.28c0.044-0.662,0.089-1.321,0.089-1.976c0-0.914-0.095-1.625-0.299-2.236
					c-0.377-1.132,0.235-2.353,1.367-2.73c1.133-0.38,2.354,0.235,2.73,1.366c0.354,1.065,0.519,2.208,0.519,3.6
					c0,0.748-0.048,1.504-0.098,2.26c-0.043,0.665-0.089,1.333-0.089,1.996c0,1.348,0.199,2.283,0.666,3.122
					c0.578,1.043,0.203,2.357-0.84,2.936C154.188,154.975,153.828,155.062,153.474,155.062z"/>
			</g>
		</g>
	</g>
</g>
<g id="Layer_1">
</g>
</svg>
