<?xml version="1.0" encoding="iso-8859-1"?>
<!-- Generator: Adobe Illustrator 21.0.2, SVG Export Plug-In . SVG Version: 6.00 Build 0)  -->
<svg version="1.1" xmlns="http://www.w3.org/2000/svg" xmlns:xlink="http://www.w3.org/1999/xlink" x="0px" y="0px"
	 viewBox="0 0 224.698 201.892" style="enable-background:new 0 0 224.698 201.892;" xml:space="preserve">
<g id="_x39_">
	<g>
		<path style="fill:#E0DFE6;" d="M104.793,101.956c-0.82-2.41-2.318-3.896-4.039-4.616c-0.294-1.525-0.674-3.002-1.235-4.342
			c-2.021-4.829-8.762-4.286-9.229,1.249c-0.213,2.532,0.231,5.293,0.711,7.982c-0.171,0.519-0.312,1.061-0.388,1.645
			c-0.046,0.356-0.09,0.709-0.133,1.062c-0.332-0.977-0.871-1.855-1.576-2.597c2.568-17.655-5.659-37.856-23.291-43.173
			c-2.385-0.719-5.121,2.311-3.473,4.517c4.939,6.613,9.842,12.772,11.69,21.036c2.138,9.563-0.361,17.835-4.568,26.379
			c-0.471,0.957-0.746,1.885-0.872,2.775c-6.972,8.208-15.904,14.023-27.808,13.868c-7.395-0.096-15.192-2.688-20.665-7.748
			c-8.025-7.419-8.855-17.517-9.77-27.777c-0.193-2.169-3.452-2.942-4.027-0.545c-4.073,16.963,2.44,34.092,15.843,43.521
			c-0.58,0.669-0.698,1.735-0.318,2.625c3.473,8.135,14.079,11.89,22.188,13.075c11.052,1.615,22.047-0.422,32.294-4.638
			C92.822,139.388,111.7,122.262,104.793,101.956z M84.951,122.097c-1.297,1.537-2.843,2.917-4.524,4.178
			c3.816-4.2,6.925-9.037,9.067-14.293C88.794,115.567,87.608,118.949,84.951,122.097z"/>
		<path style="fill:#E0DFE6;" d="M193.825,65.14c-2.042-1.615-5.716,0.471-3.958,3.054c8.371,12.298,10.71,28.23,4.422,40.399
			c-3.052-1.465-7.042-0.956-9.748,2.863c-6.718,9.482-19.043,9.928-29.533,7.747c-10.532-2.19-17.924-9.412-23.747-18.146
			c-1.595-2.393-5.201-0.892-4.606,1.942c3.381,16.102,10.264,28.617,27.589,32.271c8.369,1.765,17.986,1.712,26.302-1.123
			c2.118,1.479,4.948,2.033,7.894,0.722c12.776-5.687,21.413-18.917,22.699-32.704C212.498,87.611,204.998,73.974,193.825,65.14z"/>
		<path style="fill:#E0DFE6;" d="M157.164,165.92c1.957-6.618-7.887-11.397-12.474-6.494c-5.316,5.682-9.835,11.033-17.153,14.245
			c-7.49,3.287-16.088,4.089-24.174,3.276c-4.268-0.429-8.472-1.498-12.668-2.348c-2.597-0.526-6.319-2.102-8.934-1.204
			c-2.858,0.981-5.551,4.266-7.077,7.673c-0.587-1.567-1.141-3.148-1.712-4.714c-0.576-1.58-3.095-0.931-2.554,0.704
			c1.087,3.278,2.238,6.511,3.036,9.872c0.013,0.056,0.04,0.11,0.061,0.165c-0.018,0.156-0.043,0.312-0.051,0.467
			c-0.082,1.566,1.654,2.22,2.874,1.649c1.632-0.763,3.087-2.237,4.452-3.605c-0.338,0.497-0.6,1.038-0.694,1.639
			c-0.639,4.055-1.487,7.902-1.459,12.019c0.016,2.27,2.9,3.526,4.521,1.873c1.549-1.58,2.867-3.291,4.126-5.052
			c24.803,11.722,59.925,3.848,75.07-19.609C165.495,171.61,161.726,166.731,157.164,165.92z"/>
		<path style="fill:#E0DFE6;" d="M150.35,36.369c-0.376-1.922-1.886-3.627-4.172-3.724c0.517-1.028,0.518-2.299-0.055-3.447
			c-0.871-1.745-1.742-3.49-2.613-5.235c-0.749-1.501-2.763-1.992-4.213-1.381c-1.394,0.588-2.595,2.422-1.954,3.981
			c0.741,1.8,1.482,3.6,2.223,5.4c0.294,0.715,0.729,1.331,1.263,1.791c-5.843,1.614-12.054,4.034-17.505,7.253
			c0.005-2.712,0.248-5.598-1.052-8.043c-0.284-1.411-1.07-2.741-2.505-3.659c-9.789-6.26-24.008-6.817-34.899-3.398
			c-1.807,0.567-21.13,10.121-14.396,13.536c1.428,0.724,3.095,0.845,4.87,0.641c-0.994,1.368-1.787,2.898-2.306,4.618
			c-0.275,0.912,0.502,2.098,1.524,2c5.598-0.533,10.635-3.234,16.401-3.56c6.641-0.376,12.064,1.193,18.269,3.269
			c0.551,0.185,1.076,0.261,1.587,0.292c-0.226,2.214,0.56,4.462,2.877,5.539c0.097,0.045,0.195,0.091,0.292,0.136
			c0.055,0.026,0.109,0.038,0.164,0.062c-0.219,0.313-0.459,0.609-0.648,0.947c-0.86,1.538-0.059,3.365,1.583,3.89
			c5.421,1.733,11.48-0.797,16.752-2.328c6.588-1.913,13.253-3.707,19.747-5.914C158.619,46.644,156.735,36.668,150.35,36.369z"/>
		<path style="fill:#E0DFE6;" d="M218.683,88.085c-1.493-3.035-6.232-1.488-6.208,1.681c0.06,7.851,1.882,18.517-1.124,26.637
			c-0.202,0.236-0.399,0.485-0.586,0.756c-6.748,9.745-14.919,17.524-26.732,20.526c-5.889,1.497-12.039,1.632-18.073,1.205
			c-5.082-0.359-9.969-1.759-15.043-1.034c-1.877,0.268-2.541,2.774-1.71,4.204c7.174,12.348,27.887,12.318,39.869,9.18
			c14.07-3.685,27.751-13.521,34.303-26.708c1.009-2.031,1.109-3.954,0.615-5.601C226.066,108.833,223.35,97.573,218.683,88.085z"/>
		<g>
			<g>
				<path style="fill:#525D7D;" d="M45.685,142.307C20.379,142.307,0,117.603,0,97.151C0,83.1,5.075,71.402,14.676,63.319
					c8.366-7.044,19.712-10.922,31.945-10.922c11.956,0,23.209,3.662,31.682,10.313c9.561,7.502,14.614,17.996,14.614,30.347
					C92.916,123.477,68.4,142.307,45.685,142.307z M46.621,56.85c-11.186,0-21.511,3.507-29.077,9.875
					c-8.563,7.211-13.09,17.731-13.09,30.425c0,18.321,19.026,40.702,41.231,40.702c20.573,0,42.777-17.126,42.777-44.797
					C88.462,69.286,67.414,56.85,46.621,56.85z"/>
			</g>
			<g>
				<path style="fill:#525D7D;" d="M169.208,142.027c-12.827,0-25.036-5.086-33.342-13.393
					c-8.102-8.102-12.559-20.247-12.231-33.319c0.307-12.242,4.74-23.799,11.857-30.915c6.803-6.803,15.727-11.457,25.13-13.104
					c1.586-0.278,3.201-0.471,4.798-0.574c0.026-0.001,0.052-0.003,0.078-0.003c21.466-0.648,39.768,10.393,47.692,28.761
					c7.18,16.645,3.693,34.933-9.101,47.727C193.703,137.593,181.186,142.027,169.208,142.027z M165.667,55.17
					c-1.424,0.093-2.862,0.265-4.277,0.513c-8.508,1.491-16.587,5.705-22.749,11.866c-6.329,6.329-10.274,16.749-10.554,27.878
					c-0.297,11.859,3.686,22.814,10.928,30.058c14.549,14.546,42.361,18.135,61.924-1.428c11.476-11.476,14.602-27.881,8.16-42.813
					C203.472,68.198,189.098,54.5,165.667,55.17z"/>
			</g>
			<g>
				<path style="fill:#525D7D;" d="M50.888,117.208c-4.039,0-7.914-0.88-11.66-1.731c-0.85-0.193-1.699-0.386-2.547-0.567
					c-1.202-0.258-1.969-1.441-1.711-2.645c0.26-1.204,1.441-1.962,2.645-1.711c0.866,0.186,1.733,0.383,2.601,0.58
					c3.668,0.832,7.134,1.62,10.673,1.62c9.4,0,9.822-6.248,9.822-6.312c0-0.054-0.548-5.418-7.351-5.418
					c-1.676,0-3.499,0.232-5.429,0.477c-2.057,0.261-4.185,0.531-6.287,0.531c-8.755,0-10.062-4.601-10.062-7.344
					c0-7.268,8.035-15.05,19.996-15.05c1.34,0,2.681,0.104,3.989,0.31c1.215,0.19,2.046,1.33,1.854,2.545
					c-0.191,1.217-1.337,2.052-2.545,1.855c-1.08-0.17-2.191-0.255-3.298-0.255c-10.007,0-15.542,6.265-15.542,10.596
					c0,0.864,0,2.89,5.608,2.89c1.821,0,3.806-0.252,5.726-0.496c1.982-0.252,4.032-0.512,5.99-0.512
					c8.833,0,11.805,6.78,11.805,9.872C65.163,109.234,62.541,117.208,50.888,117.208z"/>
			</g>
			<g>
				<path style="fill:#525D7D;" d="M46.341,84.666c-1.128,0-2.095-0.854-2.213-1.999c-0.336-3.287-0.586-6.51-0.848-9.923
					l-0.012-0.155c-0.096-1.227,0.822-2.297,2.049-2.391c1.214-0.113,2.297,0.822,2.391,2.049l0.013,0.155
					c0.261,3.384,0.507,6.58,0.838,9.81c0.126,1.224-0.764,2.317-1.988,2.443C46.493,84.661,46.418,84.666,46.341,84.666z"/>
			</g>
			<g>
				<path style="fill:#525D7D;" d="M50.586,126.081c-1.23,0-2.227-0.997-2.227-2.227c0-2.832-0.461-5.531-0.951-8.391l2.172-0.515
					l2.195-0.375l-2.195,0.375l2.218-0.236c0.499,2.917,1.015,5.932,1.015,9.142C52.813,125.083,51.816,126.081,50.586,126.081z"/>
			</g>
			<g>
				<path style="fill:#525D7D;" d="M170.6,117.541c-8.946,0-20.296-10.122-20.296-21.496c0-13.013,12.223-21.069,23.546-21.069
					c2.091,0,4.15,0.26,6.122,0.771c1.19,0.31,1.905,1.525,1.596,2.716c-0.31,1.19-1.533,1.898-2.716,1.596
					c-1.607-0.418-3.29-0.629-5.002-0.629c-9.182,0-19.092,6.352-19.092,16.615c0,8.617,9.071,17.042,15.842,17.042
					c4.192,0,10.661-1.549,16.249-5.894c0.969-0.751,2.369-0.58,3.126,0.391c0.754,0.971,0.58,2.371-0.392,3.126
					C183.107,115.746,175.531,117.541,170.6,117.541z"/>
			</g>
			<g>
				<path style="fill:#525D7D;" d="M145.194,93.57c-1.23,0-2.227-0.998-2.227-2.227c0-1.229,0.998-2.227,2.227-2.227
					c3.871,0,7.724-0.233,11.45-0.46c3.791-0.231,7.714-0.468,11.72-0.468c1.229,0,2.227,0.998,2.227,2.227
					s-0.998,2.227-2.227,2.227c-3.871,0-7.724,0.233-11.45,0.46C153.122,93.332,149.2,93.57,145.194,93.57z"/>
			</g>
			<g>
				<path style="fill:#525D7D;" d="M145.191,105.617c-1.114,0-2.076-0.834-2.208-1.966c-0.145-1.222,0.729-2.328,1.95-2.472
					c6.388-0.753,12.994-1.53,19.558-1.53c1.515,0,3.017,0.042,4.466,0.128c1.228,0.071,2.166,1.124,2.094,2.352
					c-0.071,1.228-1.141,2.168-2.352,2.094c-1.363-0.078-2.778-0.119-4.208-0.119c-6.303,0-12.777,0.761-19.036,1.498
					C145.367,105.613,145.278,105.617,145.191,105.617z"/>
			</g>
			<g>
				<path style="fill:#525D7D;" d="M112.761,54.284c-0.534,0-1.058-0.191-1.473-0.557c-0.632-0.558-0.896-1.425-0.68-2.24
					c1.027-3.876,2.159-7.741,3.254-11.477c0.291-0.995,0.583-1.988,0.871-2.98c-5.874-2.382-12.35-3.356-18.846-2.827
					c-8.701,0.709-16.747,4.118-22.652,9.599c-0.78,0.722-1.957,0.79-2.816,0.175c-2.201-1.585-4.386-3.243-6.5-4.847
					c-3.526-2.675-7.171-5.441-10.897-7.867c-0.536-0.348-0.896-0.911-0.989-1.543c-0.093-0.634,0.091-1.274,0.504-1.763
					C62.642,16.025,77.728,8.425,93.928,7.102c15.036-1.228,22.394,2.373,28.89,5.55c0.446,0.218,0.89,0.435,1.332,0.648
					c2.497-4.041,5.073-8.214,7.731-12.289c0.438-0.668,1.174-1.061,1.998-1.006c0.797,0.046,1.509,0.518,1.864,1.235
					c2.495,5.041,4.949,10.249,7.321,15.286c2.978,6.322,6.058,12.859,9.234,19.092c0.286,0.561,0.32,1.217,0.096,1.805
					c-0.225,0.589-0.689,1.054-1.276,1.282c-7.469,2.895-14.963,6.037-22.21,9.075c-5.02,2.104-10.209,4.28-15.314,6.34
					C113.325,54.231,113.043,54.284,112.761,54.284z M99.335,29.608c6.619,0,13.126,1.409,19.018,4.14
					c0.996,0.462,1.508,1.582,1.204,2.637c-0.467,1.622-0.942,3.248-1.421,4.877c-0.676,2.305-1.366,4.659-2.033,7.028
					c3.716-1.528,7.444-3.091,11.083-4.617c6.538-2.74,13.275-5.565,20.035-8.227c-2.813-5.615-5.539-11.403-8.186-17.022
					c-1.811-3.844-3.668-7.787-5.552-11.672c-1.886,2.968-3.735,5.962-5.539,8.882l-1.05,1.698
					c-0.587,0.951-1.794,1.318-2.813,0.857c-1.079-0.489-2.142-1.009-3.222-1.535c-6.272-3.068-12.756-6.238-26.57-5.112
					c-14.163,1.156-27.393,7.467-36.692,17.425c3.096,2.124,6.094,4.399,9.013,6.614c1.627,1.234,3.299,2.503,4.975,3.735
					c6.477-5.442,14.902-8.817,23.938-9.554C96.796,29.659,98.068,29.608,99.335,29.608z"/>
			</g>
			<g>
				<path style="fill:#525D7D;" d="M76.763,196.054c-0.044,0-0.087-0.001-0.132-0.004c-0.797-0.046-1.509-0.519-1.865-1.235
					c-2.491-5.034-4.941-10.236-7.31-15.266c-2.981-6.329-6.064-12.874-9.243-19.113c-0.286-0.561-0.32-1.216-0.096-1.805
					c0.225-0.589,0.689-1.054,1.276-1.282c7.452-2.89,14.931-6.024,22.163-9.056c5.034-2.111,10.239-4.293,15.36-6.359
					c0.78-0.316,1.675-0.165,2.307,0.394c0.632,0.558,0.896,1.425,0.68,2.24c-1.027,3.876-2.159,7.741-3.254,11.478
					c-0.291,0.995-0.583,1.988-0.872,2.98c5.875,2.382,12.356,3.357,18.846,2.827c8.702-0.709,16.747-4.119,22.651-9.6
					c0.779-0.723,1.956-0.793,2.817-0.174c2.197,1.582,4.38,3.239,6.493,4.841c3.528,2.676,7.176,5.444,10.905,7.872
					c0.535,0.348,0.896,0.911,0.989,1.543c0.093,0.632-0.091,1.274-0.505,1.763c-10.105,11.931-25.191,19.533-41.391,20.855
					c-15.037,1.227-22.394-2.373-28.89-5.55c-0.446-0.218-0.89-0.435-1.332-0.648c-2.494,4.037-5.072,8.211-7.734,12.29
					C78.216,195.675,77.512,196.054,76.763,196.054z M63.29,160.608c2.816,5.623,5.546,11.417,8.195,17.042
					c1.808,3.838,3.662,7.775,5.542,11.652c1.889-2.971,3.741-5.969,5.547-8.894l1.042-1.686c0.587-0.951,1.791-1.322,2.813-0.857
					c1.079,0.489,2.142,1.009,3.222,1.535c6.274,3.069,12.758,6.24,26.57,5.112c14.163-1.156,27.393-7.467,36.692-17.425
					c-3.098-2.127-6.1-4.405-9.02-6.62c-1.625-1.234-3.294-2.5-4.969-3.731c-6.474,5.443-14.901,8.818-23.937,9.555
					c-7.922,0.65-15.81-0.732-22.829-3.984c-0.996-0.463-1.508-1.582-1.204-2.637c0.467-1.622,0.942-3.248,1.421-4.876
					c0.676-2.307,1.366-4.66,2.033-7.029c-3.731,1.534-7.476,3.103-11.13,4.635C76.755,155.134,70.034,157.952,63.29,160.608z"/>
			</g>
			<g>
				<path style="fill:#525D7D;" d="M37.429,66.192c-0.779,0-1.534-0.409-1.943-1.135c-1.351-2.403-2.305-5.046-3.097-8.569
					c-0.268-1.199,0.486-2.391,1.686-2.661c1.198-0.267,2.389,0.486,2.66,1.686c0.692,3.081,1.504,5.352,2.633,7.36
					c0.603,1.073,0.222,2.43-0.85,3.033C38.175,66.101,37.799,66.192,37.429,66.192z"/>
			</g>
			<g>
				<path style="fill:#525D7D;" d="M61.199,66.563c-0.438,0-0.88-0.129-1.266-0.396c-1.012-0.7-1.264-2.088-0.564-3.098
					c1.438-2.078,2.579-4.222,3.597-6.229c0.557-1.098,1.897-1.535,2.994-0.979c1.096,0.557,1.536,1.897,0.979,2.994
					c-1.09,2.147-2.317,4.451-3.907,6.748C62.6,66.228,61.906,66.563,61.199,66.563z"/>
			</g>
			<g>
				<path style="fill:#525D7D;" d="M77.175,79.192c-0.645,0-1.285-0.278-1.725-0.816c-0.779-0.953-0.638-2.355,0.313-3.135
					c2.033-1.663,4.38-3.351,7.177-5.16c1.032-0.664,2.411-0.374,3.08,0.661c0.667,1.032,0.373,2.411-0.661,3.08
					c-2.655,1.718-4.872,3.31-6.774,4.867C78.169,79.027,77.67,79.192,77.175,79.192z"/>
			</g>
			<g>
				<path style="fill:#525D7D;" d="M90.389,100.851c-0.029,0-0.058,0-0.087-0.001c-1.753-0.067-3.535-0.239-5.297-0.51
					c-1.215-0.187-2.049-1.324-1.862-2.54c0.187-1.215,1.328-2.046,2.54-1.862c1.594,0.245,3.204,0.4,4.789,0.461
					c1.228,0.048,2.187,1.082,2.14,2.311C92.567,99.909,91.579,100.851,90.389,100.851z"/>
			</g>
			<g>
				<path style="fill:#525D7D;" d="M81.735,123.448c-0.384,0-0.774-0.099-1.13-0.309c-1.669-0.983-3.351-2.014-4.999-3.065
					c-1.038-0.661-1.343-2.037-0.681-3.074c0.663-1.04,2.041-1.341,3.074-0.681c1.606,1.022,3.243,2.027,4.869,2.984
					c1.058,0.623,1.412,1.989,0.787,3.049C83.239,123.056,82.497,123.448,81.735,123.448z"/>
			</g>
			<g>
				<path style="fill:#525D7D;" d="M65.948,137.171c-0.783,0-1.543-0.415-1.95-1.148c-0.992-1.791-2.126-3.935-3.017-6.253
					c-0.442-1.148,0.131-2.437,1.277-2.878c1.147-0.441,2.437,0.129,2.878,1.277c0.796,2.066,1.841,4.039,2.759,5.697
					c0.596,1.076,0.206,2.432-0.87,3.027C66.683,137.081,66.313,137.171,65.948,137.171z"/>
			</g>
			<g>
				<path style="fill:#525D7D;" d="M31.64,139.522c-0.338,0-0.68-0.077-1.002-0.239c-1.099-0.554-1.538-1.893-0.985-2.991
					c0.896-1.776,1.834-3.56,2.849-5.418c0.59-1.08,1.947-1.477,3.022-0.887c1.08,0.59,1.478,1.943,0.887,3.022
					c-0.992,1.815-1.907,3.558-2.782,5.291C33.238,139.075,32.453,139.522,31.64,139.522z"/>
			</g>
			<g>
				<path style="fill:#525D7D;" d="M13.194,125.981c-0.695,0-1.377-0.323-1.812-0.931c-0.716-1-0.486-2.392,0.515-3.107l0.236-0.168
					c1.441-1.032,2.877-2.058,4.25-3.114c0.974-0.751,2.37-0.57,3.123,0.406c0.751,0.974,0.568,2.372-0.406,3.123
					c-1.415,1.089-2.891,2.146-4.376,3.207l-0.235,0.168C14.096,125.846,13.644,125.981,13.194,125.981z"/>
			</g>
			<g>
				<path style="fill:#525D7D;" d="M2.362,102.227c-1.108,0-2.068-0.826-2.207-1.954c-0.151-1.221,0.716-2.333,1.937-2.482
					c2.195-0.271,4.013-0.554,5.75-1.05c1.177-0.336,2.416,0.345,2.753,1.53c0.338,1.183-0.347,2.416-1.53,2.753
					c-2.239,0.639-4.492,0.948-6.429,1.186C2.544,102.221,2.453,102.227,2.362,102.227z"/>
			</g>
			<g>
				<path style="fill:#525D7D;" d="M14.025,78.821c-0.302,0-0.609-0.061-0.903-0.191c-1.959-0.871-3.897-1.884-5.762-3.01
					c-1.053-0.636-1.39-2.005-0.755-3.058c0.637-1.056,2.008-1.392,3.058-0.755c1.707,1.031,3.48,1.957,5.269,2.752
					c1.124,0.5,1.63,1.817,1.131,2.94C15.692,78.328,14.879,78.821,14.025,78.821z"/>
			</g>
			<g>
				<path style="fill:#525D7D;" d="M180.439,63.964c-0.083,0-0.165-0.004-0.249-0.013c-1.222-0.136-2.102-1.238-1.968-2.461
					c0.246-2.204,0.703-4.547,1.396-7.161c0.316-1.187,1.533-1.895,2.724-1.582c1.189,0.316,1.896,1.535,1.582,2.724
					c-0.638,2.4-1.054,4.53-1.275,6.512C182.522,63.121,181.558,63.964,180.439,63.964z"/>
			</g>
			<g>
				<path style="fill:#525D7D;" d="M197.896,76.221c-0.757,0-1.493-0.386-1.911-1.082c-0.634-1.055-0.29-2.423,0.764-3.055
					c2.22-1.331,4.37-2.888,6.362-4.373c0.989-0.734,2.382-0.529,3.117,0.455c0.735,0.987,0.531,2.382-0.455,3.117
					c-2.086,1.553-4.345,3.188-6.733,4.619C198.682,76.12,198.286,76.221,197.896,76.221z"/>
			</g>
			<g>
				<path style="fill:#525D7D;" d="M210.138,96.355c-1.025,0-2.05-0.025-3.074-0.078c-1.228-0.065-2.172-1.114-2.107-2.342
					c0.067-1.228,1.142-2.14,2.342-2.107c2.25,0.12,4.412,0.093,7.091-0.057c1.25-0.054,2.278,0.874,2.347,2.101
					c0.068,1.228-0.873,2.278-2.101,2.347C213.001,96.31,211.529,96.355,210.138,96.355z"/>
			</g>
			<g>
				<path style="fill:#525D7D;" d="M207.854,121.389c-0.265,0-0.535-0.046-0.797-0.148c-1.828-0.7-3.651-1.398-5.474-2.068
					c-1.154-0.425-1.746-1.705-1.322-2.859c0.425-1.157,1.704-1.747,2.859-1.322c1.843,0.679,3.683,1.382,5.531,2.091
					c1.148,0.439,1.722,1.728,1.282,2.877C209.594,120.845,208.748,121.389,207.854,121.389z"/>
			</g>
			<g>
				<path style="fill:#525D7D;" d="M188.905,137.525c-0.703,0-1.395-0.332-1.827-0.951c-1.685-2.413-2.774-4.406-3.531-6.465
					c-0.425-1.154,0.165-2.434,1.321-2.858c1.15-0.426,2.434,0.165,2.858,1.321c0.621,1.685,1.547,3.365,3.003,5.45
					c0.705,1.009,0.458,2.398-0.55,3.101C189.791,137.395,189.346,137.525,188.905,137.525z"/>
			</g>
			<g>
				<path style="fill:#525D7D;" d="M166.33,141.942c-0.045,0-0.091-0.001-0.138-0.004c-1.228-0.075-2.162-1.131-2.086-2.359
					l0.364-5.92c0.077-1.228,1.103-2.153,2.362-2.084c1.227,0.077,2.16,1.134,2.083,2.362l-0.364,5.914
					C168.479,141.033,167.498,141.942,166.33,141.942z"/>
			</g>
			<g>
				<path style="fill:#525D7D;" d="M143.108,134.025c-0.502,0-1.006-0.168-1.422-0.515c-0.945-0.786-1.074-2.189-0.289-3.136
					c1.025-1.234,1.959-2.308,2.855-3.283c0.832-0.908,2.241-0.966,3.146-0.133c0.906,0.832,0.966,2.24,0.133,3.146
					c-0.844,0.921-1.731,1.94-2.71,3.117C144.382,133.751,143.747,134.025,143.108,134.025z"/>
			</g>
			<g>
				<path style="fill:#525D7D;" d="M128.484,114.825c-0.845,0-1.654-0.484-2.028-1.303c-0.509-1.119-0.016-2.44,1.103-2.951
					c2.063-0.94,3.942-1.688,5.742-2.288c1.167-0.389,2.429,0.242,2.817,1.408c0.389,1.167-0.241,2.429-1.408,2.817
					c-1.65,0.55-3.385,1.243-5.304,2.117C129.106,114.761,128.793,114.825,128.484,114.825z"/>
			</g>
			<g>
				<path style="fill:#525D7D;" d="M132.522,86.993c-0.058,0-0.116-0.001-0.174-0.007c-1.612-0.123-3.358-0.476-5.495-1.106
					c-1.18-0.348-1.853-1.586-1.505-2.766c0.348-1.179,1.591-1.852,2.766-1.505c1.83,0.539,3.283,0.838,4.576,0.938
					c1.227,0.094,2.144,1.164,2.049,2.391C134.651,86.105,133.673,86.993,132.522,86.993z"/>
			</g>
			<g>
				<path style="fill:#525D7D;" d="M144.406,69.536c-0.57,0-1.141-0.218-1.576-0.653c-0.741-0.742-1.493-1.472-2.246-2.198
					c-0.668-0.647-1.335-1.292-1.991-1.943c-0.873-0.867-0.879-2.276-0.012-3.149c0.866-0.874,2.278-0.877,3.149-0.012
					c0.642,0.638,1.296,1.269,1.949,1.901c0.771,0.745,1.543,1.492,2.302,2.252c0.869,0.872,0.869,2.281-0.001,3.151
					C145.545,69.318,144.975,69.536,144.406,69.536z"/>
			</g>
			<g>
				<path style="fill:#525D7D;" d="M161.864,62.849c-1.229,0-2.227-0.998-2.227-2.227c0-1.659-0.016-3.303-0.03-4.937l-0.02-2.313
					c-0.009-1.23,0.982-2.234,2.211-2.243c1.238,0,2.234,0.986,2.243,2.211l0.02,2.302c0.014,1.648,0.03,3.306,0.03,4.979
					C164.091,61.851,163.094,62.849,161.864,62.849z"/>
			</g>
		</g>
	</g>
</g>
<g id="Layer_1">
</g>
</svg>
