<?xml version="1.0" encoding="iso-8859-1"?>
<!-- Generator: Adobe Illustrator 21.0.2, SVG Export Plug-In . SVG Version: 6.00 Build 0)  -->
<svg version="1.1" xmlns="http://www.w3.org/2000/svg" xmlns:xlink="http://www.w3.org/1999/xlink" x="0px" y="0px"
	 viewBox="0 0 214.334 170.799" style="enable-background:new 0 0 214.334 170.799;" xml:space="preserve">
<g id="_x39_0">
	<g>
		<g>
			<path style="fill:#E0DFE6;" d="M85.015,16.057c-0.572-3.502-0.631-8.333-2.841-11.232c-2.221-2.913-6.577-3.651-8.815-0.333
				c-0.191-0.279-0.361-0.574-0.572-0.837c-1.179-1.472-3.685-0.887-4.53,0.584c-2.72,4.732-2.261,11.787-2.236,17.077
				c0.011,2.435,1.828,5.272,4.377,5.749c1.091,0.204,2.085,0.382,3.17,0c1.488-0.525,2.564-1.388,3.273-2.473
				c0.782,0.177,1.596,0.229,2.411,0.119C83.671,24.113,85.688,20.176,85.015,16.057z"/>
			<path style="fill:#E0DFE6;" d="M116.071,27.856c-9.335,0.349-14.603,10.605-10.421,18.631c1.101,2.113,3.335,3.27,5.626,3.423
				c2.464,2.028,5.879,2.709,9.077,1.889c4.006-1.027,7.095-4.507,8.208-8.404C130.86,35.35,124.313,27.548,116.071,27.856z"/>
			<path style="fill:#E0DFE6;" d="M199.345,50.029c-14.224-8.917-29.33-16.536-43.876-24.927
				c-6.882-3.969-13.632-8.154-20.464-12.206c-3.455-2.049-6.954-4.593-10.702-6.11c-1.065-2.579-4.004-4.395-7.21-2.604
				c-14.164,7.914-28.222,16.063-42.338,24.069c-6.64,3.765-13.316,7.464-20.038,11.081c-6.554,3.527-15.014,6.545-19.682,12.558
				c-0.954,1.229-0.425,3.123,1.311,3.165c6.612,0.16,13.019-3.577,18.902-6.315c7.807-3.633,15.568-7.366,23.279-11.199
				c13.48-6.7,26.861-14.052,39.707-21.979c2.726,2.8,6.336,5.004,9.375,7.21c7.194,5.223,14.694,10.028,22.217,14.76
				c14.222,8.947,29.115,17.58,44.756,23.792C201.303,63.995,205.044,53.602,199.345,50.029z"/>
			<path style="fill:#E0DFE6;" d="M120.39,85.439c-7.298,0.197-14.427,1.337-21.774,1.12c-4.26-0.126-7.288,3.565-7.54,7.54
				c-0.107,1.687-0.203,3.375-0.305,5.062c-0.622,3.004-0.825,6.047-0.553,9.188c0.275,3.183,1.944,5.255,4.052,6.277
				c-0.855,3.421-1.24,6.805-0.662,9.973c0.73,4.009,5.671,4.297,8.255,2.179c3.685-3.019,4.964-7.876,6.742-12.196
				c1.814-4.409,3.464-8.892,5.163-13.347c2.923-0.331,5.796-0.864,8.527-1.713C129.806,97.186,128.732,85.214,120.39,85.439z"/>
			<path style="fill:#E0DFE6;" d="M46.09,120.274c-0.244-2.271-1.273-4.392-2.968-5.693c0.301-0.856,0.602-1.713,0.905-2.569
				c1.978-5.583-4.908-9.998-9.59-7.373c-6.607,3.705-17.991,11.189-16.745,19.99c0.205,1.451,2.069,2.778,3.497,2.662
				c2.67-0.216,4.853-1.684,6.936-3.307c0.584,1.001,1.43,1.938,2.671,2.768C35.468,129.876,46.882,127.644,46.09,120.274z"/>
			<path style="fill:#E0DFE6;" d="M94.873,90.631c-1.213-2.819-5.734-3.123-7.636-0.984c-3.34,3.754-3.763,7.385-4.49,12.334
				c-0.55,3.745-0.305,13.074-2.997,14.905c-3.069,2.087-12.714,1.736-16.427,2.293c-5.448,0.817-10.592,1.787-15.639,4.015
				c-1.988,0.878-1.339,4.038,0.591,4.519c7.22,1.8,14.702,1.269,22.08,1.01c5.648-0.198,13.321,0.859,18.124-2.812
				c4.569-3.492,4.731-10.012,5.726-15.23C95.502,103.864,97.683,97.163,94.873,90.631z"/>
			<path style="fill:#E0DFE6;" d="M213.926,125.878c-0.301-1.867-1.281-3.26-2.6-4.21c0.665-9.932-2.953-18.563-8.612-27.185
				c-1.677-2.555-5.896-0.994-5.046,2.127c2.018,7.413,0.4,17.7-1.524,24.971c-1.975,7.463-6.546,11.26-11.797,16.476
				c-0.599,0.595-1.017,1.255-1.308,1.94c-6.317,3.106-13.409,5.203-20.406,5.527c-6.712,0.311-13.213-1.085-19.253-3.995
				c-5.671-2.731-9.887-6.992-15.121-10.27c-0.563-0.352-1.346-0.012-1.513,0.616c-1.853,6.973,2.851,14.558,7.865,19.077
				c4.315,3.888,9.532,6.434,15.077,7.84c-1.448,0.02-2.882,0.017-4.294-0.004c-1.177-0.017-1.491,1.317-0.874,2.11
				c10.635,13.677,29.61,11.077,43.987,4.755C204.106,158.796,216.797,143.655,213.926,125.878z"/>
			<path style="fill:#E0DFE6;" d="M194.473,70.057c-0.745-3.451-1.238-7.044-2.398-10.388c-0.792-2.281-2.981-6.726-6.226-5.425
				c-6.143,2.462-5.973,12.25-6.361,17.841c-0.321,4.622,4.413,8.065,8.643,7.493C192.817,78.944,195.445,74.562,194.473,70.057z"/>
			<path style="fill:#E0DFE6;" d="M200.028,88.958c-0.962-1.581-2.426-2.498-3.588-3.868c-2.035-2.398-5.987,0.711-4.336,3.346
				c0.076,0.122,0.239,0.32,0.284,0.294c0.041,0.254,0.044,0.572,0.062,0.793c0.022,0.273,0.036,0.546,0.064,0.818
				c0.016,0.155,0.209,1.584,0.144,1.051c0.268,2.182,0.887,3.889,2.933,4.986c1.239,0.665,2.943,0.57,3.945-0.509
				C201.454,93.804,201.462,91.316,200.028,88.958z"/>
			<path style="fill:#E0DFE6;" d="M155.655,93.595c-4.386-2.118-8.027,0.336-10.537,3.87c-1.895,2.668-2.67,5.992-1.367,9.059
				c0.886,2.086,4.008,2.562,5.766,1.512c0.937-0.559,1.544-1.36,2.301-2.114c0.256-0.256,0.512-0.508,0.762-0.771
				c0.054-0.056,0.338-0.331,0.539-0.53c0.178-0.128,0.487-0.364,0.564-0.409c0.389-0.234,0.764-0.423,1.135-0.686
				c1.512-1.071,2.681-2.395,3.159-4.222C158.506,97.281,157.662,94.565,155.655,93.595z"/>
			<path style="fill:#E0DFE6;" d="M173.436,125.083c-3.275,0.132-5.558,2.189-7.294,4.796c-1.25,1.877-1.682,3.967-1.762,6.195
				c-0.046,1.275,0.852,2.513,2.001,2.975c1.295,0.521,2.503,0.195,3.556-0.673c-0.251,0.207,0.522-0.367,0.516-0.363
				c0.216-0.138,0.438-0.263,0.66-0.391c0.64-0.37,1.228-0.814,1.868-1.185c1.933-1.122,3.411-1.849,4.832-3.727
				C180.149,129.621,176.986,124.939,173.436,125.083z"/>
		</g>
		<g>
			<g>
				<path style="fill:#525D7D;" d="M164.68,164.244c-17.026,0.001-28.142-7.8-34.483-14.369c-9.366-9.701-14.628-23.451-14.08-36.78
					c0.99-24.031,20.11-42.39,45.467-43.652c0.807-0.041,1.615-0.063,2.422-0.066c0.076,0,0.152-0.001,0.228-0.001
					c26.321,0,47.591,19.373,48.469,44.197c0.471,13.304-4.609,26.511-13.938,36.236c-8.853,9.229-20.84,14.354-33.752,14.434
					C164.902,164.244,164.791,164.244,164.68,164.244z M164.233,73.696c-0.07,0-0.138,0.001-0.208,0.001
					c-0.742,0.003-1.486,0.023-2.227,0.06c-23.073,1.149-40.471,17.768-41.366,39.517c-0.502,12.173,4.31,24.736,12.871,33.604
					c5.797,6.005,16.002,13.205,31.683,13.049c15.04-0.092,24.975-7.177,30.661-13.105c8.527-8.888,13.169-20.95,12.739-33.094
					C207.59,91.243,188.213,73.696,164.233,73.696z"/>
			</g>
			<g>
				<path style="fill:#525D7D;" d="M152.611,115.748c-3.275,0-6.526-1.375-8.955-3.793c-2.464-2.453-3.792-5.632-3.742-8.951
					c0.104-6.642,5.978-12.171,12.832-12.081c2.045,0.027,4.078,0.567,5.878,1.559c3.324,1.834,5.561,4.892,6.137,8.39
					c0.11,0.666,0.173,1.335,0.187,1.988c0.145,7.562-6.143,12.767-12.104,12.885C152.767,115.747,152.688,115.748,152.611,115.748z
					 M152.572,95.24c-4.851,0-8.282,4.103-8.34,7.83c-0.034,2.137,0.843,4.206,2.47,5.824c1.66,1.654,3.839,2.56,6.055,2.534
					c3.799-0.076,7.967-3.579,7.873-8.484c-0.008-0.442-0.052-0.903-0.129-1.368c-0.36-2.187-1.804-4.123-3.963-5.314
					c-1.179-0.651-2.512-1.004-3.851-1.022C152.649,95.24,152.61,95.24,152.572,95.24z"/>
			</g>
			<g>
				<path style="fill:#525D7D;" d="M173.715,146.267c-3.421-0.003-6.545-1.306-8.805-3.668c-2.343-2.449-3.598-5.909-3.444-9.49
					c0.263-6.008,5.251-10.814,11.604-11.182c0.153-0.009,0.306-0.013,0.46-0.016c3.087,0.026,6.554,1.41,8.968,3.774
					c2.267,2.222,3.48,5.055,3.508,8.193c0.03,3.287-1.271,6.499-3.565,8.812C180.153,144.997,177.054,146.267,173.715,146.267z
					 M173.637,126.228c-0.058,0.001-0.313,0.009-0.313,0.009c-4.134,0.239-7.377,3.274-7.541,7.059
					c-0.105,2.411,0.716,4.714,2.249,6.318c1.459,1.525,3.423,2.333,5.679,2.335c2.184,0,4.194-0.817,5.666-2.3
					c1.489-1.501,2.332-3.59,2.312-5.732c-0.018-1.994-0.762-3.726-2.212-5.147C177.679,127.009,175.261,126.228,173.637,126.228z"
					/>
			</g>
			<g>
				<path style="fill:#525D7D;" d="M145.056,131.785c-0.737,0-1.453-0.377-1.857-1.056c-0.61-1.025-0.273-2.349,0.752-2.96
					c13.127-7.805,25.245-15.423,37.044-23.288c0.991-0.662,2.332-0.394,2.994,0.599c0.662,0.992,0.394,2.333-0.599,2.994
					c-11.861,7.907-24.041,15.564-37.232,23.408C145.812,131.687,145.431,131.785,145.056,131.785z"/>
			</g>
			<g>
				<path style="fill:#525D7D;" d="M198.723,57.261c-0.416,0-0.835-0.119-1.206-0.369L120.116,4.69
					c-18.429,10.243-61.53,34.014-89.985,48.241c-1.067,0.533-2.363,0.101-2.897-0.966c-0.533-1.067-0.101-2.364,0.966-2.897
					c28.991-14.496,73.279-38.954,90.974-48.797c0.711-0.394,1.583-0.358,2.257,0.097l78.501,52.943
					c0.988,0.667,1.25,2.009,0.582,2.997C200.098,56.928,199.416,57.261,198.723,57.261z"/>
			</g>
			<g>
				<path style="fill:#525D7D;" d="M117.192,54.584c-0.489,0-0.984-0.02-1.482-0.062c-4.973-0.42-12.354-5.077-12.403-13.742
					c-0.025-4.779,2.211-9.201,5.984-11.83c1.832-1.276,4.005-2.036,6.462-2.26c4.126-0.379,8.857,1.247,12.062,4.131
					c2.789,2.509,4.291,5.758,4.345,9.396c0.056,3.876-1.573,7.65-4.47,10.353C124.886,53.185,121.202,54.584,117.192,54.584z
					 M111.759,32.492c-2.606,1.817-4.152,4.906-4.134,8.264c0.037,6.55,5.816,9.24,8.448,9.462c3.343,0.288,6.429-0.714,8.671-2.806
					c2.007-1.873,3.136-4.473,3.097-7.132c-0.035-2.438-1.016-4.541-2.915-6.249c-2.316-2.085-5.843-3.298-8.782-3.04
					C114.442,31.146,112.968,31.651,111.759,32.492z"/>
			</g>
			<g>
				<path style="fill:#525D7D;" d="M59.94,37.194c-1.161,0-2.12-0.923-2.156-2.092c-0.228-7.332-0.332-14.809-0.432-22.04
					c-0.048-3.42-0.094-6.836-0.155-10.241c-0.01-0.577,0.211-1.134,0.614-1.547c0.403-0.413,0.954-0.647,1.532-0.65
					c2.648-0.016,5.278-0.04,7.908-0.064l6.329-0.054c1.192,0,2.152,0.942,2.175,2.119c0.097,5.207,0.485,10.568,0.859,15.752
					c0.204,2.818,0.408,5.635,0.568,8.448c0.069,1.191-0.841,2.211-2.031,2.279c-1.203,0.076-2.211-0.842-2.279-2.032
					c-0.16-2.792-0.363-5.587-0.565-8.384c-0.328-4.541-0.666-9.216-0.815-13.846l-4.2,0.035c-1.912,0.018-3.823,0.036-5.741,0.05
					c0.044,2.688,0.08,5.38,0.118,8.075c0.1,7.213,0.202,14.671,0.429,21.967C62.137,36.159,61.201,37.156,59.94,37.194z"/>
			</g>
			<g>
				<path style="fill:#525D7D;" d="M44.352,129.94c-1.123,0-2.07-0.869-2.151-2.007c-1.144-16.23-2.297-49.286-2.297-56.939
					c0-3.423,0.037-6.842,0.073-10.261c0.035-3.404,0.072-6.81,0.072-10.219c0-2.032-0.013-4.065-0.047-6.101
					c-0.02-1.193,0.932-2.175,2.124-2.195c1.212,0,2.175,0.943,2.194,2.123c0.034,2.06,0.047,4.117,0.047,6.173
					c0,3.425-0.037,6.845-0.073,10.265c-0.035,3.404-0.072,6.808-0.072,10.215c0,7.606,1.147,40.482,2.286,56.636
					c0.084,1.189-0.813,2.222-2.002,2.305C44.454,129.939,44.404,129.94,44.352,129.94z"/>
			</g>
			<g>
				<path style="fill:#525D7D;" d="M2.158,131.785c-1.16,0-2.118-0.921-2.156-2.09c-0.039-1.192,0.897-2.189,2.087-2.227
					c23.831-0.769,48.073-2.137,71.516-3.461c5.852-0.33,11.703-0.661,17.555-0.983c-0.2-9.117-0.631-18.4-1.05-27.398
					c-0.129-2.789-0.259-5.573-0.382-8.348c-0.025-0.586,0.188-1.158,0.592-1.583c0.405-0.425,0.964-0.668,1.55-0.672l1.479-0.004
					c3.104,0,6.221,0.063,9.345,0.127c3.106,0.063,6.217,0.127,9.325,0.127c6.213,0,11.19-0.274,15.663-0.862
					c1.184-0.156,2.266,0.676,2.422,1.859c0.156,1.183-0.678,2.267-1.86,2.423c-4.662,0.614-9.818,0.899-16.225,0.899
					c-3.144,0-6.331-0.065-9.412-0.128c-2.828-0.058-5.651-0.115-8.463-0.125c0.091,2.026,0.187,4.055,0.281,6.087
					c0.451,9.714,0.919,19.758,1.095,29.601c0.021,1.162-0.881,2.131-2.041,2.194c-6.543,0.358-13.086,0.727-19.63,1.096
					C50.379,129.643,26.111,131.014,2.158,131.785z"/>
			</g>
			<g>
				<path style="fill:#525D7D;" d="M12.001,131.437c-0.254,0-0.513-0.045-0.765-0.141c-1.115-0.422-1.677-1.669-1.254-2.784
					c5.007-13.217,16.778-23.891,32.293-29.288c1.127-0.395,2.357,0.205,2.75,1.33c0.391,1.126-0.204,2.357-1.33,2.749
					c-14.307,4.975-25.122,14.72-29.676,26.738C13.693,130.906,12.873,131.437,12.001,131.437z"/>
			</g>
			<g>
				<path style="fill:#525D7D;" d="M181.972,76.42c-1.157,0-2.116-0.917-2.156-2.083c-0.053-1.51-0.074-3.003-0.074-4.485
					c0-2.326,0.051-4.624,0.101-6.914c0.051-2.242,0.1-4.476,0.1-6.721c0-3.755-0.145-6.86-0.457-9.773
					c-0.128-1.186,0.731-2.25,1.916-2.377c1.189-0.116,2.25,0.731,2.377,1.917c0.329,3.069,0.482,6.32,0.482,10.232
					c0,2.277-0.051,4.543-0.101,6.817c-0.049,2.258-0.1,4.524-0.1,6.818c0,1.432,0.021,2.875,0.072,4.334
					c0.042,1.192-0.89,2.192-2.082,2.234C182.024,76.419,181.997,76.42,181.972,76.42z"/>
			</g>
		</g>
	</g>
</g>
<g id="Layer_1">
</g>
</svg>
