<?xml version="1.0" encoding="iso-8859-1"?>
<!-- Generator: Adobe Illustrator 21.0.2, SVG Export Plug-In . SVG Version: 6.00 Build 0)  -->
<svg version="1.1" xmlns="http://www.w3.org/2000/svg" xmlns:xlink="http://www.w3.org/1999/xlink" x="0px" y="0px"
	 viewBox="0 0 206.698 216.168" style="enable-background:new 0 0 206.698 216.168;" xml:space="preserve">
<g id="_x39_1">
	<g>
		<g>
			<path style="fill:#E0DFE6;" d="M66.108,158.449c-0.818-1.675-2.705-1.871-4.126-1.148c-0.257-1.942-0.514-3.881-0.763-5.813
				c-1.168-9.074-0.611-22.504-7.689-29.152c-1.505-1.413-3.555-0.975-4.691,0.604c-3.436,4.772-2.997,10.856-2.803,16.53
				c0.258,7.506,0.829,15.043,1.369,22.534c0.512,7.113,1.415,14.208,1.657,21.339c0.074,1.547,0.096,3.096,0.067,4.645
				c-0.041,0.462-0.075,0.868-0.102,1.227c-2.697,1.648-5.929,2.445-8.616,4.208c-1.919,1.259-3.492,3.403-3.341,5.825
				c0.002,0.032,0.01,0.057,0.012,0.088c-0.044,0-0.084,0.004-0.128,0.004c-3.643,0.01-12.13-2.332-13.676,2.743
				c-0.042,0.139-0.085,0.279-0.127,0.418c-0.481,1.58,0.038,3.439,1.211,4.582c11.761,11.461,35.805,6.651,44.198-6.897
				c2.593-1,4.784-3.264,5.204-6.731C75.317,180.647,71.588,169.669,66.108,158.449z"/>
			<path style="fill:#E0DFE6;" d="M140.622,188.395c-1.22-3.978-3.718-7.758-6.771-10.853c-0.013-0.383-0.003-0.771-0.026-1.152
				c-0.433-7.126-1.703-14.226-3.027-21.231c-1.195-6.327-1.929-13.412-6.658-18.117c-1.34-1.333-3.509-0.972-4.487,0.578
				c-6.766,10.721-0.994,28.3-1.121,40.261c-0.085,8.038-2.534,10.487-6.81,16.324c-1.758,2.4-2.324,4.69-1.459,6.971
				c-5.124,0.514-9.98-1.142-15.09-1.58c-1.445-0.124-2.987,1.413-2.857,2.857c0.841,9.321,10.787,13.712,19.291,13.715
				c10.795,0.004,21.804-6.658,27.587-15.523c0.609-0.933,0.928-1.918,1.015-2.9C141.38,194.889,141.539,191.386,140.622,188.395z"
				/>
			<path style="fill:#E0DFE6;" d="M196.203,146.851c-0.046-0.051-0.096-0.089-0.143-0.136c-0.087-4.611-0.217-9.222-0.394-13.833
				c-0.38-9.945-1.024-19.85-2.174-29.739c-1.016-8.735-1.742-18.835-6.997-26.165c-0.907-1.266-3.248-1.756-4.037,0
				c-3.617,8.051-2.89,17.512-2.71,26.165c0.206,9.916,0.591,19.825,0.844,29.739c0.253,9.921,0.321,19.851,0.288,29.775
				c-0.018,5.422-1.077,12.122-0.677,18.216c-1.861,1.763-3.082,3.905-4.789,5.906c-0.904,1.06-3.755,5.128-5.061,4.994
				c-2.954-0.302-4.399,3.872-2.388,5.764c0.098,0.092,0.2,0.168,0.3,0.253c-2.68-0.407-5.294-1.325-7.726-2.739
				c-2.196-1.277-4.892,0.361-4.951,2.841c-0.577,24.393,45.765,16.311,47.002-6.044c1.992-3.725,3.197-8.074,3.717-11.713
				C207.991,168.385,204.133,155.672,196.203,146.851z"/>
			<path style="fill:#E0DFE6;" d="M130.023,121.056c-1.19-2.541-3.614-3.923-6.419-3.15c-2.811,0.774-4.377,3.112-5.814,5.451
				c-0.997,1.623-2.277,3.017-3.652,4.326c-1.201,1.144-3.173,3.741-4.784,4.234c-2.85,0.871-2.228,4.939,0.691,5.102
				c1.138,0.064,2.181,0.61,3.353,0.716c1.267,0.115,2.432,0.003,3.691-0.196c2.131-0.338,4.154-1.259,5.975-2.415
				C127.409,132.363,132.586,126.53,130.023,121.056z"/>
			<path style="fill:#E0DFE6;" d="M194.884,59.416c-1.867-3.08-5.716-3.981-8.853-2.321c-2.835,1.5-3.353,3.928-4.56,6.527
				c0.067-0.194-0.622,1.061-0.642,1.093c-0.454,0.76-0.984,1.481-1.488,2.208c-0.428,0.59-0.489,0.711-0.185,0.363
				c-0.282,0.344-0.574,0.678-0.877,1.003c-0.555,0.674-1.041,1.384-1.495,2.128c-1.05,1.724-1.933,4.199-0.12,5.84
				c3.796,3.436,10.006,1.027,13.382-1.899C194.054,70.887,198.027,64.601,194.884,59.416z"/>
			<path style="fill:#E0DFE6;" d="M55.542,105.343c-2.365,0.269-4.235,0.67-6.159,2.151c-1.464,1.127-2.722,2.51-4.063,3.779
				c-2.273,2.15-5.449,4.306-6.717,7.242c-0.879,2.035-0.18,3.892,1.915,4.706c3.623,1.408,8.097-0.331,11.433-1.838
				c4.03-1.821,8.148-4.372,8.892-9.08C61.336,109.193,59.46,104.898,55.542,105.343z"/>
			<path style="fill:#E0DFE6;" d="M40.487,51.751c-1.642,0.912-2.581,2.038-3.734,3.427c0.687-0.828-0.475,0.483-0.805,0.856
				c-3.94-0.913-9.974-0.379-9.995,5.005c-0.022,5.603,6.045,10.236,11.24,10.651c6.179,0.494,13.999-4.399,15.215-10.773
				C53.714,54.073,46.987,48.141,40.487,51.751z"/>
			<path style="fill:#E0DFE6;" d="M121.016,58.516c-2.186-2.553-6.516-2.813-9.285-1.198c-2.219,1.293-3.497,2.922-4.652,5.131
				c-0.18,0.373-0.371,0.739-0.576,1.099c-0.187,0.283-0.267,0.413-0.295,0.471c-0.365,0.306-0.808,0.592-1.023,0.792
				c-0.156,0.145-0.252,0.243-0.33,0.326c-0.063,0.024-0.107,0.036-0.206,0.081c-0.626,0.283-1.199,0.663-1.784,1.017
				c-2.99,1.812-4.519,4.293-3.864,7.817c0.699,3.764,5.211,5.758,8.691,5.753c2.909-0.004,6.002-0.711,8.453-2.312
				c2.445-1.596,4.599-3.659,6.096-6.184c0.911-1.537,1.811-4.35,1.73-6.154C123.85,62.479,122.712,60.497,121.016,58.516z"/>
			<path style="fill:#E0DFE6;" d="M177.172,8.315c-3.398-1.434-8.748-0.412-10.355,3.393c-0.371,0.878-0.741,1.755-1.111,2.633
				c0.377-0.916,0.334-0.957-0.128-0.125c-0.033,0.051-0.045,0.071-0.074,0.116c-0.325,0.095-1.967,0.999-0.842,0.593
				c-1.138,0.411-1.11,0.29-1.873,0.32c-5.007,0.2-7.671,6.207-4.102,9.903c7.487,7.752,20.796,2.979,23.286-7.049
				C182.974,14.063,181.005,9.932,177.172,8.315z"/>
			<path style="fill:#E0DFE6;" d="M22.649,58.941c-3.584,2.06-6.88,4.645-10.37,6.865c-2.985,1.899-6.851,3.679-8.515,6.941
				C2.9,74.439,3.65,76.349,5.471,76.943c3.75,1.224,7.944-0.632,11.415-2.064c4-1.65,8.09-3.407,11.539-6.057
				C34.083,64.477,29.245,55.149,22.649,58.941z"/>
			<path style="fill:#E0DFE6;" d="M102.552,63.423c-7.289-4.62-19.291-3.142-27.742-4.003c-7.656-0.781-19.221-4.792-26.081-0.406
				c-0.851,0.544-1.242,1.7-0.683,2.606c4.491,7.279,17.556,7.994,25.215,9.242c8.852,1.442,21.139,4.731,29.291,0.411
				C105.685,69.613,105.312,65.173,102.552,63.423z"/>
			<path style="fill:#E0DFE6;" d="M152.042,15.367c-7.66,6.158-14.217,14.142-20.844,21.389
				c-5.484,5.997-12.098,12.58-14.316,20.592c-0.306,1.104,0.82,2.508,2.023,2.024c7.715-3.105,13.436-9.933,19.073-15.834
				c6.81-7.129,14.49-13.915,20.552-21.68C162.164,17.204,156.7,11.623,152.042,15.367z"/>
			<path style="fill:#E0DFE6;" d="M204.544,5.703c-0.94-3.42-4.898-5.959-8.417-4.779c-3.28,1.1-6.443,2.713-9.504,4.318
				c-2.805,1.471-5.676,2.75-7.942,5.022c-1.873,1.878-0.953,5.042,1.528,5.788c5.675,1.707,14.16,0.219,19.555-1.932
				C203.196,12.752,205.601,9.549,204.544,5.703z"/>
			<path style="fill:#E0DFE6;" d="M124.332,156.856c-1.34-1.044-2.482-1.886-4.192-2.175c-1.63-0.275-3.277,0.029-4.888,0.331
				c-2.332,0.438-4.759,0.461-6.898,1.589c-1.947,1.027-2.44,3.644-1.435,5.473c3.162,5.756,15.323,7.316,18.163,0.595
				C125.834,160.889,126.12,158.25,124.332,156.856z"/>
			<path style="fill:#E0DFE6;" d="M117.446,176.264c-2.878,1.098-6.429,1.701-8.815,3.678c-1.15,0.952-1.284,2.977-0.541,4.197
				c3.715,6.1,19.132,5.662,19.055-3.039C127.099,175.846,121.472,174.728,117.446,176.264z"/>
			<path style="fill:#E0DFE6;" d="M53.973,180.606c-2.198-1.52-4.524-0.893-6.875-0.252c-1.548,0.422-3.117,0.683-4.69,0.997
				c-3.556,0.708-3.294,5.212-0.911,6.973c3.684,2.723,11.871,4.107,14.236-1.008C56.912,184.765,56.33,182.236,53.973,180.606z"/>
			<path style="fill:#E0DFE6;" d="M53.464,159.806c-3.812-2.45-9.461,0.21-13.491,1.202c-3.013,0.742-3.328,4.868-0.838,6.409
				c2.274,1.407,4.537,2.236,7.189,2.613c1.516,0.215,3.009,0.297,4.527-0.015c2.045-0.421,3.231-1.49,4.468-3.135
				C57.048,164.581,55.594,161.176,53.464,159.806z"/>
			<path style="fill:#E0DFE6;" d="M51.978,138.949c-2.195-0.81-4.23-0.139-6.261,0.691c-1.169,0.477-2.445,1.26-3.751,1.077
				c-2.173-0.305-4.371,0.531-5.006,2.842c-0.611,2.224,0.752,4.301,2.842,5.006c4.908,1.654,12.155,3.916,15.323-1.878
				C56.866,143.506,55.199,140.139,51.978,138.949z"/>
			<path style="fill:#E0DFE6;" d="M57.042,124.919c-0.349-2.322-2.17-3.847-4.507-3.979c-3.391-0.191-6.569,0.624-9.877,1.291
				c-1.96,0.395-3.195,2.6-2.915,4.465c0.31,2.06,1.925,3.411,3.997,3.528c1.579,0.09,3.157,0.18,4.736,0.269
				c1.814,0.103,3.501-0.183,5.279-0.54C55.966,129.51,57.358,127.022,57.042,124.919z"/>
			<path style="fill:#E0DFE6;" d="M189.018,119.841c-1.534-2.882-4.472-3.146-7.365-3.209c-0.049-0.001-0.347-0.022-0.544-0.032
				c-0.227-0.054-0.814-0.167-0.892-0.182c-0.522-0.099-1.048-0.156-1.571-0.238c0.15,0.015-0.903-0.2-0.889-0.197
				c-3.317-0.802-5.357,2.506-4.107,5.342c2.359,5.351,11.355,10.087,15.368,3.768C190.035,123.492,189.877,121.455,189.018,119.841
				z"/>
			<path style="fill:#E0DFE6;" d="M186.402,141.323c-1.449-1.257-2.594-1.833-4.513-2.047c-0.798-0.089-1.591-0.112-2.393-0.144
				c-0.773-0.031-1.569-0.174-2.339-0.168c-0.464,0.061-0.927,0.123-1.39,0.186c-0.085-0.025-0.232-0.058-0.508-0.103
				c-1.52-0.358-3.156,0.237-3.96,1.611c-0.722,1.234-0.653,3.299,0.548,4.249c0.328,0.259,0.71,0.507,1.027,0.791
				c-0.008,0.071,0.667,0.966,0.774,1.08c0.735,0.788,1.733,1.403,2.642,1.987c2.315,1.489,4.906,2.636,7.673,1.796
				C187.697,149.427,189.669,144.158,186.402,141.323z"/>
			<path style="fill:#E0DFE6;" d="M183.934,158.81c-2.254-0.828-4.273-0.013-6.407,0.59c-0.042,0.001-0.069,0.006-0.119,0.004
				c-0.339-0.016-0.704-0.053-1.042-0.043c-0.166-0.005-0.331-0.009-0.496-0.014c-0.398-0.088-0.77-0.216-1.152-0.364
				c-3.501-1.358-6.776,3.312-4.84,6.296c1.756,2.705,4.157,4.481,7.356,5.096c4.138,0.796,9.323-0.347,10.359-5.122
				C188.231,162.309,186.718,159.833,183.934,158.81z"/>
			<path style="fill:#E0DFE6;" d="M188.251,99.261c-0.568-2.064-2.042-3.138-3.913-3.913c-3.681-1.525-6.917,1.717-10.429,0.936
				c-4.848-1.077-6.398,5.46-2.003,7.264c2.056,0.843,3.845,2.108,6.011,2.738c1.208,0.351,2.525,0.626,3.778,0.596
				c2.114-0.051,3.506-0.907,5.115-2.169C188.329,103.522,188.732,101.009,188.251,99.261z"/>
			<path style="fill:#E0DFE6;" d="M190.905,81.811c-0.812-2.511-3.08-3.636-5.591-3.175c-0.97,0.178-1.941,0.357-2.911,0.535
				c-2.322,0.427-3.848,3.364-3.145,5.538c0.353,1.089,1.028,2.14,2.069,2.691c1.139,0.602,2.205,0.648,3.469,0.454
				c0.978-0.15,1.956-0.301,2.934-0.451c1.051-0.162,2.204-1.213,2.717-2.089C191.017,84.34,191.259,82.904,190.905,81.811z"/>
		</g>
		<g>
			<g>
				<path style="fill:#525D7D;" d="M39.42,123.931c-0.861,0-1.73-0.031-2.601-0.096c-8.729-0.649-18.13-6.47-18.211-14.101
					c-0.031-2.9,1.318-5.844,3.798-8.289c4.256-4.195,11.398-6.546,19.067-6.397c0.745,0.018,1.485,0.075,2.218,0.15
					c8.286,0.844,15.134,4.989,17.449,10.562c0.436,1.05,0.677,2.226,0.696,3.399c0.049,3.072-1.32,6.012-3.958,8.5
					C53.681,121.62,46.774,123.931,39.42,123.931z M40.608,99.56c-6.186,0-11.76,1.886-15.027,5.105
					c-1.599,1.577-2.469,3.361-2.451,5.023c0.047,4.503,6.732,9.096,14.024,9.638c6.958,0.524,13.883-1.429,17.622-4.956
					c1.178-1.111,2.575-2.904,2.539-5.137c-0.009-0.607-0.131-1.207-0.35-1.736c-1.66-3.998-7.179-7.132-13.734-7.799
					c-0.617-0.063-1.24-0.112-1.867-0.127C41.111,99.563,40.86,99.56,40.608,99.56z"/>
			</g>
			<g>
				<path style="fill:#525D7D;" d="M39.424,203.498c-0.864,0-1.733-0.031-2.606-0.096c-8.729-0.649-18.13-6.47-18.211-14.101
					c-0.001-0.169,0.002-0.342,0.009-0.515c-0.01-0.109-0.012-0.221-0.004-0.334c0.088-1.378,0.16-2.754,0.224-4.131
					c0.06-1.375,0.11-2.753,0.15-4.132c0.205-17.226,0.314-37.807-0.445-59.554c-0.068-2.077-0.096-3.966-0.082-5.781
					c0.016-2.086,0.084-4.013,0.206-5.891c0.081-1.248,1.167-2.184,2.404-2.109c1.247,0.082,2.19,1.159,2.109,2.404
					c-0.118,1.792-0.183,3.633-0.197,5.631c-0.012,1.752,0.013,3.582,0.079,5.594c0.761,21.836,0.652,42.483,0.446,59.799
					c-0.041,1.441-0.091,2.843-0.155,4.244c-0.059,1.295-0.127,2.586-0.206,3.88c0.012,0.125,0.012,0.253,0.002,0.383
					c-0.013,0.153-0.019,0.308-0.018,0.461c0.047,4.509,6.732,9.102,14.024,9.643c6.958,0.52,13.883-1.426,17.622-4.955
					c1.178-1.11,2.575-2.904,2.539-5.137c-0.005-0.318-0.04-0.633-0.105-0.938c-0.26-1.22,0.518-2.421,1.74-2.682
					c1.214-0.253,2.422,0.517,2.682,1.74c0.127,0.589,0.194,1.198,0.205,1.809c0.049,3.072-1.32,6.01-3.958,8.498
					C53.681,201.187,46.776,203.498,39.424,203.498z"/>
			</g>
			<g>
				<path style="fill:#525D7D;" d="M59.403,192.468c-1.266-0.009-2.27-1.029-2.261-2.279l0.044-6.661
					c0.057-8.987,0.106-16.747,0.359-25.493l0.004-0.555c0.032-3.258,0.063-6.484,0.09-9.713l0.04-5.868
					c-0.456-11.084-0.449-22.493-0.442-33.524c0.002-1.248,1.013-2.26,2.261-2.26c1.248,0.001,2.263,1.014,2.261,2.262
					c-0.007,10.986-0.015,22.346,0.44,33.442l-0.038,5.984c-0.027,3.23-0.057,6.459-0.09,9.72l-0.006,0.598
					c-0.253,8.738-0.302,16.475-0.358,25.436l-0.044,6.667C61.655,191.467,60.644,192.468,59.403,192.468z"/>
			</g>
			<g>
				<path style="fill:#525D7D;" d="M107.81,140.759c-0.864,0-1.733-0.031-2.605-0.096c-8.729-0.649-18.13-6.47-18.211-14.101
					c-0.031-2.898,1.318-5.841,3.798-8.288c4.253-4.195,11.373-6.561,19.067-6.399c0.748,0.021,1.487,0.077,2.218,0.152
					c8.286,0.844,15.134,4.989,17.448,10.561c0.437,1.052,0.679,2.229,0.698,3.4c0.049,3.074-1.32,6.012-3.958,8.499
					C122.066,138.448,115.161,140.759,107.81,140.759z M108.993,116.388c-6.184,0-11.76,1.886-15.027,5.108
					c-1.599,1.575-2.469,3.358-2.451,5.02c0.047,4.503,6.732,9.096,14.024,9.637c6.964,0.525,13.883-1.426,17.622-4.955
					c1.178-1.11,2.575-2.904,2.539-5.137c-0.009-0.606-0.131-1.209-0.352-1.738c-1.659-3.995-7.178-7.129-13.733-7.796
					c-0.618-0.063-1.242-0.113-1.871-0.129C109.494,116.391,109.242,116.388,108.993,116.388z"/>
			</g>
			<g>
				<path style="fill:#525D7D;" d="M107.81,206.078c-0.864,0-1.733-0.031-2.605-0.096c-8.729-0.646-18.13-6.467-18.211-14.099
					c-0.001-0.171,0.002-0.343,0.009-0.517c-0.01-0.109-0.012-0.221-0.004-0.334c0.088-1.378,0.16-2.754,0.224-4.13
					c0.06-1.375,0.11-2.753,0.15-4.132c0.249-20.9,0.24-25.691-0.445-45.306c-0.068-2.076-0.096-3.964-0.082-5.779
					c0.016-2.086,0.084-4.013,0.206-5.891c0.081-1.248,1.172-2.183,2.404-2.109c1.247,0.082,2.191,1.158,2.11,2.404
					c-0.118,1.792-0.183,3.633-0.197,5.63c-0.012,1.752,0.013,3.582,0.079,5.592c0.688,19.709,0.698,24.521,0.446,45.551
					c-0.041,1.441-0.091,2.843-0.155,4.244c-0.059,1.295-0.127,2.586-0.206,3.88c0.012,0.125,0.012,0.253,0.002,0.383
					c-0.013,0.155-0.019,0.308-0.018,0.462c0.047,4.509,6.732,9.102,14.023,9.642c6.958,0.521,13.884-1.426,17.623-4.955
					c1.178-1.11,2.575-2.904,2.539-5.137c-0.004-0.318-0.04-0.633-0.104-0.938c-0.26-1.22,0.518-2.421,1.74-2.682
					c1.213-0.258,2.422,0.517,2.682,1.74c0.127,0.589,0.194,1.198,0.205,1.809c0.049,3.072-1.32,6.01-3.958,8.498
					C122.066,203.767,115.161,206.078,107.81,206.078z"/>
			</g>
			<g>
				<path style="fill:#525D7D;" d="M127.788,195.048c-1.266-0.009-2.27-1.029-2.261-2.279l0.044-6.661
					c0.057-8.987,0.106-16.747,0.359-25.493l0.004-0.555c0.012-1.262,0.025-2.517,0.037-3.771
					c-0.362-10.313-0.355-20.86-0.349-31.084c0.002-1.248,1.013-2.26,2.261-2.26c1.248,0.002,2.263,1.014,2.261,2.263
					c-0.004,7.88-0.01,15.954,0.155,23.984c0.113,0.315,0.177,0.668,0.212,1.038c0.037,0,0.035,0.154,0.035,0.154
					c-0.002,0.107-0.002,0.215-0.003,0.322c0.013,0.311,0.015,0.626,0.016,0.935l0.009,3.221c0.003,1.519,0.007,2.99,0.01,3.662
					c0.001,0.041,0.004,0.084,0.006,0.125c0,0.05-0.002,0.099-0.004,0.147c0.001,0.04,0.001,0.071,0.001,0.088
					c-0.016,0.255-0.062,0.484-0.121,0.687c-0.001,0.177-0.003,0.353-0.004,0.532l-0.006,0.598
					c-0.253,8.738-0.302,16.475-0.358,25.436l-0.044,6.667C130.04,194.047,129.029,195.048,127.788,195.048z"/>
			</g>
			<g>
				<path style="fill:#525D7D;" d="M171.889,80.188c-0.861,0-1.73-0.031-2.601-0.096c-8.729-0.649-18.13-6.47-18.211-14.101
					c-0.031-2.9,1.317-5.844,3.798-8.289c4.256-4.195,11.394-6.554,19.068-6.397c0.745,0.018,1.485,0.075,2.218,0.15
					c8.286,0.843,15.134,4.989,17.448,10.56c0.437,1.047,0.679,2.223,0.698,3.4c0.049,3.072-1.32,6.012-3.958,8.5
					C186.15,77.877,179.244,80.188,171.889,80.188z M173.077,55.816c-6.186,0-11.76,1.886-15.027,5.105
					c-1.599,1.577-2.469,3.361-2.451,5.023c0.047,4.503,6.732,9.096,14.024,9.637c6.961,0.518,13.883-1.429,17.622-4.956
					c1.178-1.111,2.575-2.904,2.539-5.137c-0.009-0.609-0.131-1.21-0.35-1.735c-1.661-3.998-7.179-7.132-13.734-7.799
					c-0.617-0.063-1.239-0.112-1.867-0.126C173.581,55.819,173.329,55.816,173.077,55.816z"/>
			</g>
			<g>
				<path style="fill:#525D7D;" d="M171.894,200.917c-0.864,0-1.733-0.031-2.605-0.096c-8.729-0.649-18.13-6.47-18.211-14.101
					c-0.002-0.169,0.002-0.342,0.009-0.515c-0.01-0.109-0.012-0.221-0.005-0.334c0.087-1.378,0.162-2.753,0.224-4.128
					c0.06-1.379,0.11-2.757,0.152-4.136c0.231-19.537,0.262-80.427-0.446-100.717c-0.069-2.086-0.094-3.974-0.081-5.781
					c0.015-2.056,0.082-3.983,0.206-5.89c0.081-1.247,1.132-2.199,2.404-2.109c1.247,0.082,2.19,1.158,2.109,2.404
					c-0.119,1.818-0.184,3.659-0.197,5.629c-0.013,1.746,0.012,3.574,0.078,5.594c0.71,20.347,0.68,81.355,0.448,100.963
					c-0.043,1.443-0.093,2.844-0.156,4.244c-0.057,1.294-0.125,2.587-0.206,3.88c0.012,0.125,0.012,0.253,0.001,0.383
					c-0.013,0.153-0.019,0.308-0.018,0.461c0.047,4.509,6.732,9.102,14.024,9.643c6.96,0.52,13.883-1.426,17.622-4.955
					c1.178-1.11,2.575-2.904,2.539-5.137c-0.004-0.318-0.04-0.636-0.104-0.944c-0.258-1.223,0.525-2.421,1.747-2.678
					c1.225-0.263,2.421,0.526,2.678,1.747c0.124,0.59,0.191,1.197,0.202,1.803c0.049,3.072-1.32,6.01-3.958,8.498
					C186.15,198.606,179.245,200.917,171.894,200.917z"/>
			</g>
			<g>
				<path style="fill:#525D7D;" d="M191.872,189.887c-1.266-0.009-2.27-1.029-2.261-2.279l0.044-6.661
					c0.057-8.987,0.106-16.747,0.359-25.493c0.034-3.418,0.068-6.842,0.094-10.266l0.04-5.869
					c-0.468-11.388-0.446-68.243-0.442-74.687c0.001-1.248,1.013-2.26,2.261-2.26c1.248,0.002,2.262,1.014,2.261,2.263
					c-0.005,6.436-0.027,63.202,0.44,74.605l-0.038,5.984c-0.027,3.427-0.06,6.854-0.096,10.319
					c-0.253,8.737-0.302,16.474-0.358,25.434l-0.044,6.667C194.124,188.886,193.113,189.887,191.872,189.887z"/>
			</g>
			<g>
				<path style="fill:#525D7D;" d="M38.288,141.011c-8.282,0-14.57-2.388-18.691-7.098c-0.823-0.939-0.727-2.367,0.213-3.19
					c0.939-0.823,2.367-0.729,3.19,0.213c3.224,3.684,8.367,5.553,15.287,5.553c12.72,0,15.272-3.403,18.228-7.346
					c0.751-0.998,2.165-1.198,3.166-0.452c0.998,0.749,1.201,2.167,0.452,3.166C56.114,137.218,52.194,141.011,38.288,141.011z"/>
			</g>
			<g>
				<path style="fill:#525D7D;" d="M39.174,163.495c-6.577,0-13.186-1.793-18.61-5.048c-1.07-0.643-1.418-2.031-0.774-3.103
					c0.643-1.072,2.033-1.418,3.103-0.774c4.73,2.84,10.512,4.403,16.281,4.403c6.843,0,12.838-2.226,16.878-6.265
					c0.883-0.883,2.314-0.883,3.197,0c0.883,0.883,0.883,2.314,0,3.197C54.355,160.8,47.226,163.495,39.174,163.495z"/>
			</g>
			<g>
				<path style="fill:#525D7D;" d="M41.925,184.769c-7.662,0-14.949-2.292-21.074-6.629c-1.019-0.723-1.26-2.133-0.539-3.153
					c0.724-1.019,2.133-1.257,3.153-0.539c5.355,3.793,11.74,5.798,18.459,5.798c5.036,0,10.047-1.173,14.491-3.395
					c1.12-0.555,2.476-0.104,3.034,1.011c0.558,1.117,0.104,2.476-1.011,3.034C53.369,183.431,47.659,184.769,41.925,184.769z"/>
			</g>
			<g>
				<path style="fill:#525D7D;" d="M110.468,159.49c-7.117,0-14.454-2.051-20.657-5.773c-1.072-0.643-1.419-2.031-0.776-3.102
					c0.643-1.07,2.033-1.419,3.102-0.776c5.511,3.308,12.021,5.129,18.331,5.129c5.635,0,10.809-1.463,14.96-4.231
					c1.036-0.696,2.442-0.412,3.135,0.627c0.693,1.039,0.412,2.442-0.627,3.135C123.039,157.764,117,159.49,110.468,159.49z"/>
			</g>
			<g>
				<path style="fill:#525D7D;" d="M106.658,182.471c-6.047,0-12.118-1.437-17.556-4.154c-1.117-0.558-1.569-1.917-1.011-3.034
					c0.559-1.116,1.915-1.566,3.034-1.011c4.812,2.405,10.184,3.677,15.533,3.677c6.854,0,12.979-2.068,17.715-5.979
					c0.963-0.798,2.388-0.659,3.183,0.303c0.795,0.963,0.659,2.388-0.303,3.183C121.698,180.045,114.577,182.471,106.658,182.471z"
					/>
			</g>
			<g>
				<path style="fill:#525D7D;" d="M172.535,98.329c-6.605,0-13.059-1.822-18.661-5.268c-1.063-0.654-1.395-2.046-0.74-3.11
					c0.655-1.064,2.049-1.395,3.11-0.74c4.889,3.008,10.522,4.597,16.291,4.597c6.268,0,12.294-1.846,17.429-5.338
					c1.033-0.701,2.439-0.436,3.141,0.598c0.702,1.033,0.434,2.439-0.598,3.141C186.62,96.212,179.713,98.329,172.535,98.329z"/>
			</g>
			<g>
				<path style="fill:#525D7D;" d="M172.844,119.765c-8.005,0-14.943-3.091-19.535-8.704c-0.79-0.967-0.648-2.392,0.318-3.183
					c0.969-0.79,2.392-0.648,3.183,0.318c3.717,4.544,9.412,7.047,16.035,7.047c5.793,0,13.693-2.324,16.923-6.633
					c0.751-0.998,2.167-1.2,3.166-0.452c0.998,0.749,1.201,2.167,0.452,3.166C189.035,117.123,179.688,119.765,172.844,119.765z"/>
			</g>
			<g>
				<path style="fill:#525D7D;" d="M175.627,142.102c-7.217,0-14.82-2.467-21.409-6.948c-1.032-0.702-1.3-2.108-0.598-3.141
					c0.702-1.033,2.108-1.298,3.141-0.598c5.762,3.917,12.638,6.165,18.866,6.165c5.638,0,10.696-1.818,14.626-5.257
					c0.939-0.823,2.367-0.729,3.19,0.213c0.823,0.939,0.727,2.367-0.213,3.19C188.463,139.897,182.376,142.102,175.627,142.102z"/>
			</g>
			<g>
				<path style="fill:#525D7D;" d="M172.496,161.892c-6.91,0-13.566-2.021-18.744-5.689c-1.019-0.721-1.26-2.133-0.537-3.152
					c0.721-1.02,2.13-1.26,3.152-0.537c4.419,3.131,10.147,4.856,16.129,4.856c6.322,0,12.456-1.878,17.27-5.288
					c1.019-0.721,2.432-0.483,3.152,0.537c0.723,1.019,0.481,2.43-0.537,3.152C186.808,159.718,179.747,161.892,172.496,161.892z"/>
			</g>
			<g>
				<path style="fill:#525D7D;" d="M173.435,182.406c-7.828,0-15.03-2.478-20.279-6.977c-0.948-0.813-1.057-2.24-0.244-3.189
					c0.813-0.946,2.239-1.06,3.188-0.244c4.429,3.796,10.586,5.888,17.335,5.888c10.044,0,13.84-3.161,15.664-4.68
					c0.552-0.461,0.989-0.824,1.509-1.084c1.114-0.556,2.475-0.106,3.032,1.013c0.558,1.117,0.105,2.476-1.013,3.032
					c-0.153,0.096-0.364,0.287-0.634,0.512C189.76,178.538,185.116,182.406,173.435,182.406z"/>
			</g>
			<g>
				<path style="fill:#525D7D;" d="M36.953,63.259c-0.112,0-0.224-0.002-0.337-0.006c-5.569-0.153-9.646-4.316-9.695-9.898
					c-0.047-5.311,3.823-9.78,8.812-10.173c0.478-0.038,0.975-0.038,1.468,0c5.822,0.445,10.385,5.236,10.175,10.683
					C47.164,59.271,42.71,63.258,36.953,63.259z M36.463,47.675c-0.124,0-0.247,0.005-0.371,0.015
					c-2.591,0.205-4.675,2.728-4.649,5.625c0.028,3.154,2.155,5.333,5.295,5.42c3.453,0.084,6.001-2.03,6.118-5.045
					c0.116-2.996-2.632-5.742-6.003-5.999C36.719,47.679,36.591,47.675,36.463,47.675z"/>
			</g>
			<g>
				<path style="fill:#525D7D;" d="M105.553,71.938c-0.101,0-0.203-0.001-0.305-0.004c-5.801-0.175-10.25-4.862-10.128-10.671
					c0.08-3.873,2.242-7.26,5.641-8.838c1.369-0.636,2.815-0.989,4.295-1.051c3.021-0.121,6.052,1.017,8.273,3.132
					c2.015,1.919,3.135,4.409,3.156,7.007c0.019,2.682-1.073,5.235-3.074,7.191C111.326,70.743,108.409,71.938,105.553,71.938z
					 M105.51,55.887c-0.09,0-0.178,0.002-0.268,0.006c-0.883,0.035-1.75,0.249-2.576,0.633c-1.849,0.858-2.979,2.664-3.024,4.831
					c-0.06,2.851,1.931,5.943,5.741,6.058c1.765,0.04,3.568-0.676,4.868-1.945c0.788-0.771,1.725-2.077,1.712-3.923
					c-0.01-1.362-0.633-2.7-1.753-3.767C108.939,56.569,107.238,55.887,105.51,55.887z"/>
			</g>
			<g>
				<path style="fill:#525D7D;" d="M167.934,21.652c-0.106,0-0.212-0.002-0.316-0.006c-5.458-0.175-10.041-5.027-10.006-10.596
					c0.034-5.479,4.428-10.123,9.793-10.351c0.854-0.035,1.706,0.044,2.541,0.238c4.426,1.03,7.612,3.952,8.52,7.821
					c0.196,0.826,0.293,1.646,0.292,2.435c-0.003,2.686-1.15,5.276-3.23,7.288C173.435,20.507,170.682,21.652,167.934,21.652z
					 M167.809,5.212c-0.069,0-0.14,0.002-0.209,0.006c-2.944,0.124-5.446,2.809-5.466,5.862c-0.019,3.124,2.61,5.95,5.628,6.047
					c1.663,0.053,3.343-0.658,4.622-1.896c1.192-1.154,1.85-2.591,1.852-4.045c0.001-0.446-0.054-0.899-0.171-1.393
					c-0.73-3.109-3.842-4.148-5.146-4.451C168.551,5.256,168.18,5.212,167.809,5.212z"/>
			</g>
			<g>
				<path style="fill:#525D7D;" d="M2.263,74.488c-0.764,0-1.509-0.387-1.934-1.088c-0.648-1.067-0.308-2.458,0.76-3.106
					l2.795-1.702c7.615-4.643,14.807-9.027,22.915-12.811c1.128-0.528,2.477-0.04,3.006,1.092s0.038,2.477-1.092,3.006
					c-7.883,3.679-14.971,7.999-22.475,12.574L3.434,74.16C3.068,74.382,2.663,74.488,2.263,74.488z"/>
			</g>
			<g>
				<path style="fill:#525D7D;" d="M97.043,65.19c-0.104,0-0.21-0.007-0.316-0.022c-3.801-0.533-7.615-1.007-11.43-1.481
					c-13.235-1.644-26.921-3.345-39.948-7.608c-1.186-0.389-1.834-1.666-1.446-2.853c0.389-1.185,1.663-1.834,2.853-1.445
					c12.611,4.127,26.077,5.801,39.099,7.418c3.839,0.477,7.677,0.954,11.5,1.491c1.238,0.174,2.099,1.316,1.925,2.553
					C99.12,64.373,98.153,65.19,97.043,65.19z"/>
			</g>
			<g>
				<path style="fill:#525D7D;" d="M113.237,57.992c-0.579,0-1.157-0.221-1.599-0.662c-0.883-0.883-0.883-2.314,0-3.197
					c13.182-13.182,28.446-26.314,46.664-40.146c0.995-0.755,2.413-0.562,3.168,0.433c0.755,0.995,0.561,2.413-0.433,3.168
					c-18.053,13.708-33.167,26.707-46.202,39.742C114.394,57.771,113.816,57.992,113.237,57.992z"/>
			</g>
			<g>
				<path style="fill:#525D7D;" d="M176.82,9.401c-1.091,0-2.052-0.792-2.23-1.903c-0.197-1.233,0.643-2.394,1.875-2.591
					c6.727-1.076,13.371-2.743,19.795-4.353l1.945-0.487c1.214-0.3,2.439,0.434,2.741,1.646c0.303,1.211-0.434,2.439-1.646,2.741
					l-1.94,0.486c-6.518,1.635-13.257,3.325-20.179,4.434C177.06,9.393,176.94,9.401,176.82,9.401z"/>
			</g>
		</g>
	</g>
</g>
<g id="Layer_1">
</g>
</svg>
