<?xml version="1.0" encoding="iso-8859-1"?>
<!-- Generator: Adobe Illustrator 21.0.2, SVG Export Plug-In . SVG Version: 6.00 Build 0)  -->
<svg version="1.1" xmlns="http://www.w3.org/2000/svg" xmlns:xlink="http://www.w3.org/1999/xlink" x="0px" y="0px"
	 viewBox="0 0 188.028 194.311" style="enable-background:new 0 0 188.028 194.311;" xml:space="preserve">
<g id="_x39_2">
	<g>
		<g>
			<path style="fill:#E0DFE6;" d="M14.38,109.906c-2.837-0.046-5.224-0.678-8.036-0.185c-1.395,0.244-2.37,1.512-2.685,2.878
				c-0.047,0.039-0.101,0.07-0.148,0.111c-3.904,3.467-2.918,11.504-2.44,16.154c0.619,6.023,1.634,12.376,5.328,17.335
				c4.18,5.612,12.382,2.318,11.195-4.72c-1.076-6.38-2.205-17.393,1.713-22.99C21.88,114.815,18.411,109.971,14.38,109.906z"/>
			<path style="fill:#E0DFE6;" d="M78.73,108.386c-0.761-1.886-2.968-3.351-4.969-2.021c-1.158,0.833-2.37,1.578-3.636,2.236
				c-2.091,1.182-0.973,4.03,1.143,4.22c0.118,0.011,0.213,0.017,0.322,0.026c-0.34,3.831-0.24,7.68-0.078,11.552
				c0.227,5.428,0.09,10.532,1.726,15.763c0.591,1.889,3.431,2.51,4.434,0.579C82.417,131.612,82.562,117.885,78.73,108.386z"/>
			<path style="fill:#E0DFE6;" d="M56.9,126.34c-1.528-1.806-5.23-2.39-7.186-0.927c-2.729,2.039-3.544,4.144-4.393,7.284
				c-0.294,1.087-0.649,2.092-1.194,3.076c-0.139,0.263-0.316,0.502-0.474,0.752c-0.939-0.032-1.717-0.07-2.831-0.552
				c-0.846-0.367-2.077-1.33-3.06-0.794c-2.294,1.251-2.041,5.055-1.369,7.124c1.405,4.324,5.464,6.921,9.957,6.708
				c5.023-0.238,8.452-3.884,10.486-8.159C59.127,136.029,60.689,130.819,56.9,126.34z"/>
			<path style="fill:#E0DFE6;" d="M93.032,153.411c-0.573-11.123-0.361-22.343-0.902-33.483c3.231-6.198,0.948-14.146-0.002-20.808
				c-1.104-7.744-2.322-15.39-4.969-22.77c-0.769-2.146-4.542-2.756-4.991,0c-1.31,8.041-1.208,16.021-0.868,24.15
				c0.089,2.129,0.084,4.34,0.161,6.544c-1.539,0.984-2.648,2.701-2.691,5.209c-0.185,10.645,0.734,21.393,1.213,32.034
				c-3.396-1.284-7.668,0.322-7.684,5.212c-0.016,4.792,2.16,14.221-0.475,18.627c-2.291,3.831-13.505,5.165-17.485,6.072
				c-12.43,2.832-26.369,4.717-39.119,4.802c-2.025,0.014-2.505,3.061-0.484,3.574c2.438,0.619,4.814,1.216,7.176,1.758
				c-0.253,0.04-0.505,0.07-0.758,0.112c-2.188,0.357-1.629,3.264,0,3.899c12.164,4.739,23.847,6.937,37.012,5.563
				c10.152-1.059,22.923-3.458,30.998-10.253C97.283,176.821,93.504,162.567,93.032,153.411z"/>
			<path style="fill:#E0DFE6;" d="M129.652,34.427c-7.087-10.442-28.023-5.864-36.946,0.022
				c-7.689,5.072-18.777,21.013-9.484,29.455c0.451,0.41,1.217,0.489,1.658,0c6.056-6.7,6.215-16.076,15.67-20.273
				c4.278-1.899,9.188-2.429,13.815-2.088c5.186,0.383,8.438,2.17,13.429-0.035C130.241,40.428,131.09,36.545,129.652,34.427z"/>
			<path style="fill:#E0DFE6;" d="M169.185,62.384c-1.66-1.719-4.29-1.118-5.525,0.712c-4.36,6.457-3.057,15.261-6.276,22.414
				c-3.526,7.837-9.287,14.465-16.329,19.336c-7.129,4.931-15.577,8.03-24.131,9.369c-7.611,1.191-16.962-0.343-24.094,2.582
				c-0.571,0.234-1.127,0.979-0.652,1.604c5.566,7.332,17.864,8.24,26.362,7.751c11.142-0.641,22.193-4.13,31.258-10.756
				c8.599-6.286,15.212-15.146,19.164-25.004C172.301,82.06,176.23,69.682,169.185,62.384z"/>
			<path style="fill:#E0DFE6;" d="M112.431,13.969c-0.537-2.447-0.57-4.885-0.421-7.38c0.271-4.522-4.71-6.194-8.158-4.682
				c-2.343,1.028-4.952,1.7-7.481,2.52c-2.482-0.53-5.303,0.889-6.735,3.234c-0.117,0.09-0.247,0.161-0.362,0.255
				c-0.935,0.766-1.029,2.063-0.586,3.118c-0.066,2.379,0.631,4.822,1.067,7.147c0.426,2.27,0.744,4.548,1.822,6.628
				c2.221,4.289,6.962,6.245,11.612,5.438c4.621-0.802,10.582-3.92,10.796-9.217C114.087,18.543,112.955,16.356,112.431,13.969z"/>
			<path style="fill:#E0DFE6;" d="M40.319,10.709c-7.39,1.082-11.185,10.649-13.747,16.699c-2.43,5.74-6.09,13.342-3.217,19.425
				c0.322,0.682,1.227,0.638,1.715,0.221c5.057-4.33,7.33-11.197,10.456-16.912c2.903-5.308,8.094-10.329,8.682-16.469
				C44.42,11.466,42.087,10.45,40.319,10.709z"/>
			<path style="fill:#E0DFE6;" d="M186.355,77.41c-1.642-2.359-5.537-2.919-7.053,0c-6.348,12.225-6.537,30.303-19.612,37.819
				c-2.235,1.285-0.745,5.236,1.807,4.286c3.578-1.331,7.363-2.022,10.467-4.384c3.589-2.731,5.357-6.73,7.257-10.672
				C182.712,97.218,191.739,85.145,186.355,77.41z"/>
			<path style="fill:#E0DFE6;" d="M161.238,142.82c-1.203-2.942-6.132-3.864-6.94,0c-1.096,5.239,0.089,10.353,0.784,15.612
				c0.632,4.788,0.332,3.839-4.31,4.145c-0.607,0.04-1.204,0.119-1.807,0.177c0.366-1.402-0.096-2.735-1.039-3.886
				c-0.814-0.994-1.953-1.252-3.11-1.573c-0.634-0.175-1.232-0.447-1.84-0.696c-0.807-0.33-2.187-0.079-2.898,0.379
				c-0.698,0.45-1.214,1.029-1.539,1.798c-0.725,1.718-0.081,3.726,1.539,4.696c0.133,0.08,0.266,0.165,0.4,0.25
				c-1.869,0.201-3.76,0.383-5.679,0.55c0.645-1.195,0.867-2.611,0.458-4.022c-0.942-3.255-3.511-6.458-5.805-9.016
				c-0.63-1.265-1.731-2.149-3.265-1.918c-1.43,0.215-2.815,1.49-2.7,3.058c0.131,1.782-0.491,3.6-0.324,5.438
				c0.201,2.22,0.628,4.876,1.887,6.741c0.14,0.208,0.301,0.394,0.46,0.582c-2.204,0.242-4.398,0.529-6.563,0.894
				c0.131-0.358,0.19-0.744,0.154-1.149c-0.177-1.992-0.936-3.74-2.695-4.858c-0.828-0.526-1.685-1.012-2.526-1.517
				c-2.015-1.21-5.018-0.515-6.141,1.61c-1.197,2.266-0.473,4.738,1.61,6.141c0.716,0.482,1.424,0.986,2.152,1.451
				c-1.16,0.338-2.307,0.706-3.428,1.128c-2.32,0.874-2.586,4.216,0,4.991c7.555,2.265,15.384,1.631,23.155,1.051
				c7.812-0.583,15.998-1.306,23.529-3.564c3.969-1.19,7.804-2.389,8.561-6.937C164.33,158.305,163.538,148.444,161.238,142.82z"/>
			<path style="fill:#E0DFE6;" d="M161.792,36.357c-1.206-2.496-5.044-1.187-5.048,1.367c-0.009,5.953,0.362,12.093-0.804,17.958
				c-0.155,0.781-0.354,1.533-0.564,2.275c-3.116,5.627-3.646,13.295-6.198,19.032c-3.052,6.861-7.569,12.754-13.338,17.547
				c-6.03,5.009-13.168,8.28-20.832,9.893c-7.878,1.658-15.822,0.358-23.669,1.686c-1.339,0.227-1.684,2.112-0.785,2.974
				c13.186,12.631,37.943,5.683,50.968-3.621c7.178-5.127,13.146-12.025,17.138-19.904c3.045-6.011,7.581-15.426,7.905-23.308
				C168.279,53.788,164.688,42.349,161.792,36.357z"/>
		</g>
		<g>
			<g>
				<path style="fill:#525D7D;" d="M45.617,88.523c-0.706,0-1.557-0.01-2.529-0.032c-0.668-0.017-1.396-0.039-2.181-0.07
					c-0.781-0.031-1.619-0.073-2.51-0.119l-5.862-0.37c-1.051-0.073-2.102-0.15-3.146-0.235l-3.118-0.254
					c-1.052-0.087-2.114-0.176-3.189-0.274c-1.091-0.098-2.203-0.218-3.307-0.363c-1.111-0.145-2.197-0.312-3.24-0.499
					c-1.055-0.19-2.06-0.399-3.009-0.63c-0.95-0.229-1.85-0.474-2.697-0.732c-0.857-0.261-1.662-0.535-2.414-0.822
					c-0.764-0.291-1.488-0.599-2.147-0.915c-0.683-0.326-1.325-0.67-1.904-1.023c-1.32-0.803-2.355-1.681-3.073-2.609
					c-0.933-1.206-1.364-2.513-1.28-3.887c0.079-1.307,0.822-2.516,2.209-3.596c0.489-0.38,1.054-0.755,1.683-1.116
					c0.583-0.336,1.24-0.672,1.949-0.995c0.683-0.312,1.426-0.62,2.232-0.925c0.794-0.299,1.661-0.594,2.596-0.89
					c1.104-0.323,2.192-0.595,3.37-0.843c0.607-0.129,1.267-0.26,1.965-0.386c0.692-0.127,1.42-0.247,2.177-0.363
					c0.761-0.115,1.539-0.219,2.323-0.312c0.775-0.093,1.559-0.177,2.34-0.256c0.786-0.076,1.554-0.143,2.293-0.2
					c0.738-0.056,1.447-0.101,2.111-0.138c1.318-0.069,2.499-0.117,3.572-0.149c1.077-0.022,2.068-0.031,2.991-0.025l2.533,0.031
					c0.756,0.01,1.446,0.01,2.07,0l0.864-0.011c0.897-0.014,1.61-0.022,2.077-0.017c0.675,0.01,1.341,0.03,1.985,0.06
					c0.827,0.038,1.64,0.084,2.445,0.135c0.801,0.052,1.589,0.107,2.359,0.165l1.843,0.138c0.602,0.044,1.186,0.083,1.761,0.119
					l3.518,0.221c0.605,0.035,1.234,0.079,1.881,0.129c0.651,0.052,1.319,0.11,2.016,0.178c0.699,0.07,1.432,0.152,2.197,0.245
					c0.772,0.094,1.58,0.204,2.41,0.335c0.875,0.146,1.744,0.309,2.635,0.492c0.883,0.181,1.78,0.377,2.683,0.585
					c0.904,0.209,1.801,0.426,2.683,0.649c0.884,0.224,1.747,0.456,2.58,0.689c0.836,0.235,1.642,0.507,2.395,0.808
					c0.931,0.373,1.757,0.779,2.455,1.206c0.919,0.561,1.66,1.189,2.201,1.865c0.753,0.942,1.135,1.976,1.135,3.076
					c0,2.305-1.367,4.301-4.063,5.933c-0.693,0.42-1.489,0.824-2.367,1.2c-0.808,0.347-1.713,0.682-2.686,0.994
					c-0.905,0.288-1.898,0.565-2.957,0.824c-1.019,0.249-2.078,0.478-3.156,0.689c-1.065,0.208-2.148,0.401-3.228,0.578
					c-0.853,0.139-1.704,0.274-2.544,0.402c-0.845,0.129-1.682,0.253-2.507,0.367c-1.004,0.138-1.99,0.254-2.948,0.351
					c-0.964,0.096-1.89,0.17-2.763,0.231c-0.866,0.059-1.674,0.107-2.415,0.149l-1.985,0.11c-1.221,0.065-2.112,0.096-2.568,0.1
					C46.137,88.521,45.888,88.523,45.617,88.523z M33.171,69.81c-0.706,0-1.446,0.01-2.226,0.027
					c-1.026,0.031-2.178,0.079-3.457,0.145c-0.628,0.034-1.303,0.076-2.01,0.131c-0.713,0.055-1.45,0.119-2.201,0.193
					c-0.748,0.073-1.503,0.155-2.251,0.245c-0.741,0.087-1.472,0.186-2.185,0.294c-0.711,0.108-1.399,0.223-2.055,0.342
					c-0.65,0.118-1.266,0.24-1.838,0.363c-1.075,0.228-2.059,0.472-3.012,0.751c-0.81,0.257-1.603,0.527-2.327,0.798
					c-0.706,0.268-1.361,0.537-1.963,0.812c-0.578,0.264-1.11,0.534-1.591,0.813c-0.459,0.263-0.856,0.524-1.184,0.78
					c-0.478,0.371-0.576,0.578-0.577,0.579c0.015,0.062,0.041,0.374,0.411,0.85c0.394,0.509,1.036,1.035,1.905,1.563
					c0.456,0.278,0.967,0.554,1.522,0.818c0.568,0.271,1.175,0.529,1.821,0.775c0.666,0.254,1.378,0.498,2.135,0.728
					c0.768,0.233,1.588,0.455,2.454,0.665c0.871,0.211,1.792,0.403,2.757,0.576c0.977,0.176,1.995,0.332,3.036,0.468
					c1.047,0.136,2.099,0.25,3.139,0.343c1.066,0.098,2.114,0.187,3.149,0.271l3.114,0.254c1.026,0.081,2.062,0.159,3.09,0.231
					l5.816,0.367c0.855,0.045,1.675,0.084,2.439,0.115c0.76,0.031,1.464,0.053,2.109,0.068c1.28,0.03,2.345,0.038,3.126,0.028
					c0.429-0.004,1.254-0.035,2.382-0.094l1.974-0.108c0.73-0.041,1.521-0.089,2.365-0.146c0.829-0.056,1.713-0.128,2.628-0.219
					c0.902-0.09,1.837-0.201,2.787-0.333c0.803-0.111,1.619-0.229,2.442-0.356c0.827-0.128,1.663-0.26,2.503-0.396
					c1.034-0.169,2.071-0.353,3.095-0.554c1.014-0.198,2.007-0.413,2.961-0.645c0.962-0.236,1.861-0.486,2.67-0.744
					c0.838-0.267,1.61-0.554,2.293-0.848c0.697-0.298,1.313-0.61,1.835-0.926c0.741-0.449,1.982-1.334,1.982-2.239
					c0-0.118-0.103-0.271-0.189-0.38c-0.155-0.194-0.469-0.503-1.081-0.877c-0.495-0.302-1.101-0.599-1.808-0.881
					c-0.601-0.24-1.278-0.468-1.957-0.659c-0.798-0.225-1.625-0.445-2.473-0.661c-0.857-0.218-1.724-0.426-2.595-0.628
					c-0.864-0.198-1.728-0.388-2.576-0.561c-0.84-0.172-1.659-0.326-2.463-0.461c-0.757-0.119-1.515-0.221-2.24-0.309
					c-0.732-0.09-1.431-0.169-2.099-0.233c-0.669-0.066-1.311-0.124-1.931-0.173c-0.614-0.048-1.215-0.089-1.804-0.124l-3.532-0.221
					c-0.583-0.037-1.18-0.079-1.791-0.122l-1.862-0.138c-0.754-0.058-1.526-0.113-2.309-0.162c-0.78-0.051-1.569-0.094-2.371-0.132
					c-0.602-0.028-1.221-0.045-1.847-0.055c-0.441-0.007-1.109,0.003-1.952,0.015l-0.865,0.013c-0.653,0.008-1.383,0.007-2.177,0
					l-2.517-0.031C33.589,69.811,33.381,69.81,33.171,69.81z"/>
			</g>
			<g>
				<path style="fill:#525D7D;" d="M41.715,186.027c-19.444,0-32.777-3.229-40.758-9.872c-0.503-0.419-0.789-1.042-0.778-1.695
					c0.242-14.564,0.242-29.407,0.242-43.763c0-18.246,0-37.113,0.493-55.627c0.032-1.192,1.039-2.197,2.216-2.1
					c1.192,0.031,2.132,1.023,2.101,2.215c-0.492,18.455-0.492,37.292-0.492,55.509c0,14.025,0,28.518-0.225,42.773
					c7.281,5.544,19.469,8.241,37.201,8.241c19.617,0,30.803-4.187,38.339-8.081c-1.037-18.924-1.541-39.548-1.541-62.989
					c0-10.233,0.089-21.058,0.28-34.064c0.018-1.192,0.998-2.193,2.191-2.127c1.193,0.018,2.145,0.998,2.127,2.191
					c-0.191,12.984-0.28,23.788-0.28,34c0,23.932,0.527,44.91,1.611,64.132c0.047,0.836-0.394,1.625-1.132,2.023
					C71.443,183.18,58.615,186.027,41.715,186.027z"/>
			</g>
			<g>
				<path style="fill:#525D7D;" d="M45.629,162.241c-8.501,0-16.348-3.087-22.15-8.736c-5.921-5.766-9.212-13.58-9.265-22.001
					c-0.088-14.256,8.989-26.718,22.074-30.307c2.775-0.76,5.639-1.151,8.513-1.164c0.048,0,0.096,0,0.145,0
					c8.499,0,16.332,3.196,22.069,9.01c5.877,5.957,9.026,14.204,8.868,23.223c-0.304,16.639-12.851,29.518-29.187,29.96
					l-0.353,0.008C46.105,162.238,45.866,162.241,45.629,162.241z M37.429,105.361c-11.204,3.073-18.973,13.812-18.897,26.117
					c0.046,7.256,2.873,13.98,7.96,18.934c5.128,4.994,12.164,7.652,19.78,7.505l0.309-0.006
					c13.983-0.38,24.724-11.436,24.984-25.722c0.138-7.846-2.57-14.99-7.625-20.112c-4.947-5.014-11.776-7.755-19.122-7.725
					C42.324,104.361,39.838,104.702,37.429,105.361z"/>
			</g>
			<g>
				<path style="fill:#525D7D;" d="M45.698,149.536c-7.446,0-13.978-6.279-13.978-13.438c0-4.896,3.513-10.749,7.232-16.945
					c0.857-1.428,1.716-2.86,2.528-4.277c0.289-0.505,0.768-0.87,1.33-1.016c0.561-0.15,1.159-0.06,1.657,0.239
					c6.684,4.02,14.651,10.643,14.651,19.364C59.117,141.254,54.414,149.536,45.698,149.536z M44.092,118.969
					c-0.474,0.801-0.956,1.604-1.437,2.406c-3.253,5.42-6.616,11.024-6.616,14.723c0,4.774,4.604,9.12,9.66,9.12
					c5.911,0,9.101-6.057,9.101-11.755C54.799,127.272,48.744,122.06,44.092,118.969z"/>
			</g>
			<g>
				<path style="fill:#525D7D;" d="M19.624,112.17c-5.598,0-11.637-1.712-17.003-4.82c-1.032-0.597-1.385-1.919-0.786-2.95
					c0.597-1.03,1.918-1.387,2.95-0.786c5.75,3.33,12.409,4.819,17.927,4.024c1.182-0.17,2.275,0.649,2.444,1.83
					c0.169,1.179-0.65,2.274-1.83,2.443C22.133,112.083,20.887,112.17,19.624,112.17z"/>
			</g>
			<g>
				<path style="fill:#525D7D;" d="M64.027,109.507c-0.328,0-0.656-0.01-0.985-0.031c-1.19-0.077-2.092-1.105-2.015-2.294
					c0.078-1.191,1.098-2.09,2.295-2.016c4.324,0.277,8.943-2.041,12.996-4.067c1.065-0.531,2.364-0.101,2.897,0.966
					s0.1,2.363-0.966,2.897C73.987,107.093,69.158,109.507,64.027,109.507z"/>
			</g>
			<g>
				<path style="fill:#525D7D;" d="M23.631,154.551c-10.409,0-18.931-3.361-21.657-5.746c-0.897-0.786-0.988-2.149-0.203-3.047
					c0.786-0.898,2.149-0.988,3.047-0.202c1.427,1.25,8.537,4.678,18.814,4.678c1.193,0,2.159,0.967,2.159,2.159
					S24.824,154.551,23.631,154.551z"/>
			</g>
			<g>
				<path style="fill:#525D7D;" d="M69.005,150.565c-1.057,0-1.98-0.777-2.134-1.854c-0.169-1.181,0.652-2.274,1.832-2.443
					c3.918-0.559,7.995-1.986,11.481-4.019c1.028-0.602,2.352-0.252,2.953,0.777c0.6,1.03,0.252,2.353-0.778,2.953
					c-4.014,2.34-8.525,3.918-13.046,4.564C69.21,150.558,69.107,150.565,69.005,150.565z"/>
			</g>
			<g>
				<path style="fill:#525D7D;" d="M20.257,50.308c-1.157,0-2.115-0.917-2.156-2.082c-0.016-0.458-0.024-0.917-0.024-1.373
					c0-17.017,11.521-33.87,28.015-40.986c1.092-0.477,2.365,0.031,2.838,1.127c0.472,1.093-0.032,2.364-1.127,2.837
					c-14.96,6.453-25.408,21.678-25.408,37.022c0,0.406,0.006,0.811,0.021,1.219c0.043,1.192-0.889,2.193-2.08,2.235
					C20.309,50.308,20.283,50.308,20.257,50.308z"/>
			</g>
			<g>
				<path style="fill:#525D7D;" d="M41.414,21.182c-1.193,0-2.159-0.967-2.159-2.159c0-0.087-0.019-0.16-0.03-0.229
					c-0.044-0.271-0.077-0.529-0.077-0.793c0-1.563,1.806-5.121,4.246-8.615c-3.511-0.268-7.125-0.739-10.946-1.423
					c-1.174-0.209-1.955-1.331-1.745-2.505c0.21-1.175,1.33-1.953,2.506-1.746c5.125,0.916,9.852,1.434,14.453,1.583
					c0.827,0.027,1.567,0.524,1.903,1.279c0.336,0.756,0.211,1.639-0.323,2.271c-3.468,4.109-5.479,8.153-5.764,9.217
					c0.053,0.315,0.094,0.611,0.094,0.96C43.573,20.214,42.607,21.182,41.414,21.182z"/>
			</g>
			<g>
				<path style="fill:#525D7D;" d="M161.06,116.228c-0.498,0-0.997-0.171-1.404-0.52c-0.906-0.776-1.01-2.139-0.234-3.045
					c0.095-0.11,0.287-0.319,0.564-0.62c7.862-8.5,21.051-25.172,21.051-41.337c0-0.814-0.041-1.622-0.123-2.405
					c-0.123-1.186,0.739-2.248,1.924-2.371c1.19-0.111,2.248,0.738,2.371,1.924c0.096,0.931,0.146,1.891,0.146,2.852
					c0,17.637-13.908,35.307-22.198,44.269c-0.224,0.242-0.38,0.409-0.457,0.499C162.273,115.972,161.668,116.228,161.06,116.228z"
					/>
			</g>
			<g>
				<path style="fill:#525D7D;" d="M159.414,116.727c-0.586,0-1.156-0.239-1.568-0.675c-0.529-0.559-0.721-1.358-0.502-2.096
					c1.406-4.754,2.215-9.391,2.406-13.781c0.052-1.191,1.079-2.118,2.25-2.063c1.191,0.052,2.116,1.06,2.063,2.252
					c-0.157,3.621-0.701,7.385-1.619,11.23c4.953-1.285,9.066-2.617,12.749-4.124c1.104-0.453,2.364,0.077,2.815,1.182
					c0.452,1.103-0.077,2.364-1.181,2.816c-4.737,1.937-10.112,3.59-16.916,5.202C159.747,116.707,159.58,116.727,159.414,116.727z"
					/>
			</g>
			<g>
				<path style="fill:#525D7D;" d="M122.586,168.711c-5.426,0-10.317-0.125-14.953-0.382c-1.161-0.065-2.062-1.037-2.039-2.198
					l0.04-2.011c0.075-3.672,0.152-7.468,0.152-11.114c0-1.192,0.966-2.159,2.159-2.159c1.193,0,2.159,0.967,2.159,2.159
					c0,3.663-0.077,7.451-0.151,11.119c3.939,0.181,8.094,0.27,12.632,0.27c7.699,0,15.538-0.26,23.119-0.512
					c2.826-0.093,5.656-0.187,8.489-0.268c-0.266-5.472-0.305-10.825-0.305-15.434c0-2.024,0.008-4.045,0.018-6.062
					c0.008-1.997,0.017-3.991,0.017-5.975c0-1.192,0.966-2.159,2.159-2.159c1.193,0,2.159,0.967,2.159,2.159
					c0,1.99-0.008,3.989-0.017,5.995c-0.009,2.009-0.018,4.024-0.018,6.043c0,5.17,0.05,11.279,0.418,17.402
					c0.036,0.583-0.168,1.157-0.564,1.588c-0.396,0.432-0.949,0.685-1.535,0.699c-3.566,0.094-7.124,0.212-10.679,0.33
					C138.231,168.45,130.356,168.711,122.586,168.711z"/>
			</g>
			<g>
				<path style="fill:#525D7D;" d="M124.195,167.747c-1.193,0-2.159-0.967-2.159-2.159v-30.366c0-1.192,0.966-2.159,2.159-2.159
					s2.159,0.967,2.159,2.159v30.366C126.354,166.78,125.388,167.747,124.195,167.747z"/>
			</g>
			<g>
				<path style="fill:#525D7D;" d="M140.136,167.428c-1.131,0-2.082-0.88-2.153-2.025c-0.061-0.983-0.087-1.951-0.087-2.915
					c0-2.73,0.216-5.426,0.424-8.033c0.098-1.23,0.197-2.47,0.276-3.731c0.074-1.191,1.093-2.092,2.29-2.02
					c1.19,0.075,2.094,1.099,2.02,2.29c-0.08,1.286-0.181,2.551-0.282,3.805c-0.211,2.64-0.41,5.132-0.41,7.689
					c0,0.874,0.023,1.756,0.079,2.648c0.074,1.189-0.831,2.214-2.021,2.288C140.227,167.427,140.181,167.428,140.136,167.428z"/>
			</g>
			<g>
				<path style="fill:#525D7D;" d="M111.154,117.29c-8.954,0-17.552-1.792-25.592-5.337c-1.091-0.481-1.586-1.754-1.105-2.847
					c0.481-1.089,1.755-1.587,2.846-1.103c8.14,3.589,16.896,5.244,26.048,4.931c28.167-0.98,51.18-25.116,51.298-53.804
					c0.085-19.729-10.261-37.802-27.001-47.166c-8.846-4.949-18.338-7.592-27.45-7.645c-0.089,0-0.179-0.001-0.269-0.001
					c-26.113,0-54.549,20.525-55.423,51.254c-0.068,2.387,0.003,4.781,0.214,7.117c0.107,1.188-0.77,2.238-1.957,2.345
					c-1.186,0.1-2.237-0.769-2.345-1.957c-0.226-2.505-0.303-5.071-0.23-7.628c0.396-13.921,6.808-27.909,17.591-38.379
					C79.126,6.054,94.068,0,109.887,0c0.112,0,0.223,0.001,0.336,0.001c9.84,0.058,20.053,2.891,29.534,8.193
					c18.11,10.132,29.303,29.656,29.211,50.954c-0.127,30.977-25.01,57.041-55.466,58.101
					C112.716,117.276,111.934,117.29,111.154,117.29z"/>
			</g>
			<g>
				<path style="fill:#525D7D;" d="M110.386,90.065c-4.782,0-9.376-0.959-13.674-2.852c-1.091-0.482-1.586-1.756-1.105-2.848
					c0.481-1.089,1.756-1.583,2.846-1.105c4.073,1.796,8.453,2.623,13.037,2.467c14.04-0.488,25.51-12.526,25.569-26.835
					c0.043-9.842-5.112-18.854-13.454-23.519c-4.429-2.48-9.173-3.802-13.717-3.829c-0.052,0-0.107,0-0.159,0
					c-16.109,0-27.292,13.175-27.644,25.539c-0.034,1.2,0.002,2.399,0.108,3.563c0.107,1.188-0.769,2.236-1.957,2.345
					c-1.177,0.104-2.236-0.769-2.345-1.957c-0.12-1.331-0.162-2.703-0.123-4.074c0.508-17.826,16.92-29.735,31.99-29.735
					c0.051,0,0.102,0,0.154,0c5.272,0.031,10.737,1.545,15.801,4.379c9.712,5.431,15.714,15.894,15.664,27.306
					c-0.068,16.599-13.408,30.566-29.736,31.132C111.221,90.056,110.802,90.065,110.386,90.065z"/>
			</g>
			<g>
				<path style="fill:#525D7D;" d="M96.021,34.823c-0.831,0-1.622-0.481-1.978-1.29c-1.396-3.173-2.823-6.328-4.248-9.482
					c-2.284-5.053-4.646-10.278-6.832-15.483c-0.462-1.099,0.055-2.366,1.154-2.827c1.101-0.461,2.365,0.055,2.827,1.154
					c2.164,5.152,4.514,10.35,6.786,15.378c1.431,3.167,2.864,6.337,4.265,9.523c0.48,1.091-0.015,2.364-1.107,2.845
					C96.606,34.764,96.311,34.823,96.021,34.823z"/>
			</g>
			<g>
				<path style="fill:#525D7D;" d="M112.275,31.663c-0.031,0-0.063,0-0.094-0.001c-1.191-0.052-2.116-1.058-2.065-2.25
					c0.206-4.823,0.485-9.728,0.755-14.471c0.242-4.252,0.484-8.501,0.678-12.739c0.055-1.192,1.048-2.121,2.256-2.058
					c1.191,0.053,2.112,1.064,2.058,2.255c-0.195,4.255-0.438,8.521-0.68,12.787c-0.269,4.728-0.548,9.619-0.753,14.412
					C114.381,30.757,113.425,31.663,112.275,31.663z"/>
			</g>
			<g>
				<path style="fill:#525D7D;" d="M139.2,61.939c-1.152,0-2.108-0.909-2.156-2.072c-0.048-1.191,0.878-2.196,2.069-2.245
					c3.08-0.125,6.16-0.224,9.239-0.322c6.008-0.192,12.221-0.392,18.313-0.796c1.191-0.066,2.218,0.824,2.297,2.013
					c0.079,1.189-0.822,2.218-2.011,2.297c-6.165,0.408-12.415,0.607-18.459,0.801c-3.067,0.098-6.135,0.197-9.202,0.322
					C139.259,61.939,139.23,61.939,139.2,61.939z"/>
			</g>
		</g>
	</g>
</g>
<g id="Layer_1">
</g>
</svg>
