<?xml version="1.0" encoding="iso-8859-1"?>
<!-- Generator: Adobe Illustrator 21.0.2, SVG Export Plug-In . SVG Version: 6.00 Build 0)  -->
<svg version="1.1" xmlns="http://www.w3.org/2000/svg" xmlns:xlink="http://www.w3.org/1999/xlink" x="0px" y="0px"
	 viewBox="0 0 188.17 209.417" style="enable-background:new 0 0 188.17 209.417;" xml:space="preserve">
<g id="_x39_3">
	<g>
		<g>
			<path style="fill:#E0DFE6;" d="M59.793,55.267c-5.046-0.001-8.548,4.808-10.099,9.155c-1.239,3.472-1.551,8.634,1.635,11.179
				c1.582,1.264,3.5,1.099,4.69-0.604c1.333-1.908,1.619-4.35,3.055-6.235c1.605-2.106,3.983-2.785,5.518-5.132
				C66.935,60.046,63.844,55.268,59.793,55.267z"/>
			<path style="fill:#E0DFE6;" d="M101.715,28.888c-8.582-3.443-16.927,1.892-22.647,8.101c-0.632-0.254-1.253-0.468-1.977-0.542
				c-2.67-0.271-5.591,1.137-7.813,2.464c-5.25,3.135-8.043,7.48-10.058,13.085c-0.514,1.431,1.543,2.568,2.537,1.477
				c2.75-3.017,8.019-8.076,12.307-8.638c2.587-0.339,4.165,1.836,6.761,1.464c2.782-0.4,3.843-3.154,5.632-4.944
				c4.211-4.215,8.698-3.613,14.079-3.763C105.807,37.445,106.201,30.688,101.715,28.888z"/>
			<path style="fill:#E0DFE6;" d="M128.598,54.923c3.05-2.669,2.074-8.928-3.008-8.67c-5.949,0.302-10.087,4.376-15.707,5.303
				c-2.569,0.424-4.83,0.383-7.36,1.311c-0.693,0.254-8.481,4.387-8.888,3.842c-1.822-2.44-4.866-3.731-7.743-2.03
				c-3.903,2.308-8.304,7.212-12.581,8.168c-1.666,0.372-4.539-0.671-5.544,1.39c-0.098,0.2-0.195,0.401-0.293,0.601
				c-0.587,1.204-0.857,2.831,0,4.013c0.258,0.356,0.529,0.656,0.799,0.963c-1.955-0.114-3.91-0.025-5.879,0.61
				c-3.626,1.17-5.419,4.179-8.474,6.202c-3.891,2.577-8.361,2.7-12.847,2.8c-2.036,0.045-2.67,2.279-1.538,3.712
				c5.178,6.556,15.175,6.479,21.836,2.2c0.912-0.586,4.7-3.077,3.66-3.438c1.464,0.267,3.704,1.795,4.904,2.105
				c4.447,1.146,9.568,0.872,14.006-0.133c4.535-1.027,8.997-3.098,12.611-6.018c1.141-0.922,2.109-2.12,3.165-3.154
				c0.24,0.058,0.52,0.118,0.841,0.18c1.357,0.2,2.719,0.362,4.086,0.486c5.377-0.154,10.379-3.192,14.984-5.627
				c4.978-2.632,8.944-4.173,10.914-9.67C131.243,58.114,130.199,56.061,128.598,54.923z"/>
			<path style="fill:#E0DFE6;" d="M169.096,107.659c-1.76-4.792-1.678-10.79-2.371-15.859c-0.795-5.816-1.607-11.636-2.556-17.429
				c-1.366-8.343-1.699-22.93-8.909-28.523c-0.665-0.516-1.504-0.491-1.998,0.257c-0.789,1.196-1.271,2.431-1.58,3.694
				c-0.375-1.883-1.635-3.143-3.448-3.813c-2.74-1.013-6.055-0.123-8.749,0.758c-2.072,0.678-5.878,2.247-4.763,5.215
				c0.975,2.596,3.354,3.125,5.858,3.576c1.459,0.263,2.881,0.449,4.281,0.427c-2.413,7.478-1.142,16.668-0.723,24.189
				c0.597,10.718,1.432,21.412,2.292,32.112c0.758,9.431,10.293,6.252,12.295,1.249
				C162.623,117.707,171.354,113.808,169.096,107.659z M151.259,52.891c-0.035,0.922-0.007,1.859,0.052,2.807
				c-0.266-0.537-0.547-1.064-0.853-1.57C150.793,53.772,151.046,53.342,151.259,52.891z"/>
			<path style="fill:#E0DFE6;" d="M114.703,109.198c-2.727-3.155-6.491-7.991-10.99-8.089c-1.775-0.039-3.531,1.304-3.971,3.024
				c-0.606,2.366,0.237,4.218,1.062,6.372c0.458,1.197,0.951,2.373,1.471,3.545c0.214,0.469,0.424,0.939,0.631,1.41
				c0.339,0.786,0.41,0.947,0.212,0.482c0.931,2.231,2.291,4.26,4.841,4.841c1.82,0.415,3.699,0.262,5.341-0.699
				C117.309,117.737,117.596,112.545,114.703,109.198z"/>
			<path style="fill:#E0DFE6;" d="M78.749,111.873c-0.362-1.767-1.53-3.281-2.901-4.403c-0.222-0.343-0.424-0.699-0.641-1.045
				c-1.621-2.581-3.643-4.972-6.684-5.84c-4.445-1.269-8.889,3.07-7.554,7.554c0.207,0.696,0.491,1.355,0.774,2.02
				c-0.563-1.328-0.032,0.067,0.09,0.512c0.245,0.89,0.544,1.748,0.885,2.607c1.82,4.585,5.349,8.998,11.022,7.418
				C77.654,119.606,79.53,115.688,78.749,111.873z"/>
			<path style="fill:#E0DFE6;" d="M96.508,149.191c-4.408,0.297-8.284,2.967-12.188,4.908c-3.24,1.611-6.79,3.189-9.734,5.403
				c-0.592-2.643-2.077-4.833-5.037-5.946c-1.13-0.425-2.837,0.117-3.642,1.125c-1.389,0.42-2.618,1.475-2.886,2.859
				c-0.602,3.108-0.071,6.16,0.35,9.243c-0.198,0.947-0.438,1.888-0.798,2.809c-2.645,6.762-8.148,12.302-14.684,15.316
				c-6.439,2.969-13.421,3.598-20.325,2.148c-6.117-1.285-10.756-4.515-16.376-6.703c-1.067-0.415-2.429,0.463-2.675,1.519
				c-1.342,5.748,2.73,10.779,7.642,14.158c-1.21,0.19-1.787,1.372-1.265,2.497c8.021,17.279,36.377,11.105,47.549,1.344
				c6.402-5.594,10.368-13.642,11.853-21.938c0.65-3.631,1.049-7.856,0.565-11.829c4.206-0.549,8.152-2.503,12.001-4.245
				c4.01-1.815,9.162-3.301,12.173-6.573C100.982,153.165,99.761,148.971,96.508,149.191z"/>
			<path style="fill:#E0DFE6;" d="M184.843,110.394c-9.801,1.315-18.507,12.777-25.05,19.629c-1.447,1.515-2.95,3.88-4.927,4.786
				c-2.807,1.287-7.661,0.364-10.702,0.525c-4.597,0.243-9.65,0.146-13.719,2.311c-0.496-0.29-1.059-0.465-1.594-0.472
				c-3.308-0.048-4.433,1.525-6.416,3.947c-2.186,2.67-4.399,5.321-6.56,8.012c-2.993,3.726-8.315,8.793-7.333,13.963
				c0.125,0.656,0.836,1.104,1.464,1.115c5.38,0.094,9.831-6.735,12.991-10.384c2.786-3.217,7.496-6.87,8.666-11.167
				c4.714,1.852,10.546,1.399,15.451,1.458c4.662,0.056,9.103,0.631,12.763-2.45c4.749-3.998,8.547-9.239,13.319-13.328
				c4.785-4.101,11.695-7.141,14.553-12.881C188.741,113.463,187.59,110.026,184.843,110.394z"/>
			<path style="fill:#E0DFE6;" d="M141.58,180.868c-20.565-2.07-40.675-1.797-61.102,1.537c-2.635,0.43-1.712,4.139,0.589,4.352
				c20.575,1.9,40.611,0.666,60.928-2.826C143.855,183.61,143.192,181.03,141.58,180.868z"/>
			<path style="fill:#E0DFE6;" d="M177.076,178.219c-2.818,0.364-5.356,1.444-8.052,2.184c-5.514-4.25-14.049-2.323-20.679-1.894
				c-5.903,0.382-13.823-0.319-17.627,4.9c-0.427,0.586-0.215,1.505,0.257,1.989c4.465,4.586,12.886,2.72,18.723,2.639
				c6.532-0.091,14.569,1.528,19.764-2.952c0.541-0.467,0.825-1.197,0.875-1.95c2.237,0.42,4.431,0.974,6.739,0.992
				C180.977,184.158,180.755,177.743,177.076,178.219z"/>
			<path style="fill:#E0DFE6;" d="M105.259,113.076c-0.936-2.298-2.279-4.224-3.811-6.125c-0.736-1.572-2.217-2.767-4.483-2.767
				c-4.347,0-5.863,4.371-4.573,7.452c0.164,0.687,0.326,1.375,0.444,2.072c0.015,0.088,0.028,0.175,0.042,0.263
				c0.075,0.813,0.168,1.626,0.354,2.42c0.744,3.179,4.553,5.365,7.672,4.356c1.509-0.488,2.965-1.423,3.727-2.866
				C105.361,116.5,105.878,114.595,105.259,113.076z"/>
			<path style="fill:#E0DFE6;" d="M64.585,110.798c-0.135-0.688-0.379-1.341-0.73-1.958c-0.043-0.096-0.073-0.161-0.103-0.228
				c-0.033-0.085-0.078-0.199-0.138-0.35c-0.223-0.607-0.468-1.205-0.735-1.795c-0.432-0.759-1.044-1.438-1.58-2.121
				c-1.866-2.38-5.808-1.349-7.164,0.923c-2.229,3.735-1.968,8.925,0.955,12.179c2.685,2.988,8.784,1.675,9.487-2.505
				C64.826,113.457,64.931,112.283,64.585,110.798z"/>
		</g>
		<g>
			<g>
				<path style="fill:#525D7D;" d="M35.039,201.956c-0.133,0-0.264,0-0.398-0.001c-19.281-0.209-34.82-16.308-34.64-35.884
					c0.15-16.213,10.731-29.687,26.329-33.53c2.893-0.714,5.87-1.081,8.849-1.091c0.043,0,0.088,0,0.131,0
					c19.223,0,34.793,14.387,35.475,32.806c0.367,9.922-3.474,19.772-10.538,27.022C53.528,198.174,44.589,201.956,35.039,201.956z
					 M35.31,135.768c-0.039,0-0.077,0-0.117,0c-2.635,0.01-5.27,0.333-7.83,0.964c-13.865,3.417-22.91,14.949-23.044,29.378
					c-0.159,17.201,13.465,31.343,30.369,31.527c8.558,0.111,16.487-3.234,22.466-9.373c6.244-6.408,9.64-15.101,9.316-23.848
					C65.875,148.331,52.198,135.768,35.31,135.768z"/>
			</g>
			<g>
				<path style="fill:#525D7D;" d="M33.435,184.162c-3.85,0-5.78-0.564-7.483-1.061c-0.906-0.264-1.687-0.493-2.721-0.607
					c-1.186-0.132-2.04-1.199-1.908-2.384c0.131-1.185,1.19-2.035,2.383-1.909c1.408,0.156,2.449,0.461,3.456,0.755
					c1.563,0.457,3.04,0.888,6.272,0.888c10.516,0,15.186-5.514,15.186-7.61c0-2.29-2.79-3.712-7.281-3.712
					c-1.597,0-3.182,0.166-4.862,0.34c-1.719,0.18-3.497,0.365-5.327,0.365c-8.132,0-11.029-4.106-11.029-7.949
					c0-9.491,13.805-12.022,21.962-12.022c1.193,0,2.159,0.967,2.159,2.159c0,1.192-0.966,2.159-2.159,2.159
					c-6.821,0-17.644,2.092-17.644,7.704c0,2.273,2.508,3.631,6.711,3.631c1.605,0,3.195-0.166,4.879-0.342
					c1.715-0.178,3.489-0.364,5.31-0.364c8.561,0,11.599,4.327,11.599,8.03C52.939,177.109,45.993,184.162,33.435,184.162z"/>
			</g>
			<g>
				<path style="fill:#525D7D;" d="M32.227,153.574c-1.057,0-1.981-0.777-2.134-1.854c-0.084-0.59-0.247-1.222-0.419-1.889
					c-0.287-1.12-0.614-2.388-0.614-3.724c0-1.192,0.966-2.159,2.159-2.159c1.193,0,2.159,0.967,2.159,2.159
					c0,0.789,0.232,1.692,0.478,2.648c0.193,0.752,0.393,1.529,0.511,2.354c0.169,1.179-0.651,2.273-1.832,2.443
					C32.432,153.567,32.329,153.574,32.227,153.574z"/>
			</g>
			<g>
				<path style="fill:#525D7D;" d="M41.071,188.698c-1.036,0-1.951-0.748-2.127-1.805c-0.078-0.467-0.184-0.935-0.287-1.403
					c-0.246-1.108-0.5-2.252-0.5-3.5c0-1.192,0.966-2.159,2.159-2.159c1.193,0,2.159,0.967,2.159,2.159
					c0,0.773,0.193,1.643,0.398,2.563c0.121,0.544,0.241,1.088,0.331,1.632c0.196,1.177-0.599,2.288-1.775,2.484
					C41.309,188.688,41.19,188.698,41.071,188.698z"/>
			</g>
			<g>
				<path style="fill:#525D7D;" d="M107.5,164.219c-0.564,0-1.11-0.221-1.515-0.621c-3.22-3.173-6.088-6.739-8.862-10.187
					c-0.573-0.713-1.147-1.427-1.724-2.137c-3.201,1.47-6.404,3.021-9.516,4.526c-4.687,2.269-9.533,4.613-14.393,6.697
					c-1.093,0.467-2.364-0.037-2.835-1.134c-0.47-1.096,0.038-2.366,1.134-2.835c4.769-2.044,9.57-4.367,14.213-6.614
					c3.625-1.754,7.374-3.569,11.127-5.261c0.887-0.402,1.933-0.159,2.553,0.593c0.945,1.146,1.875,2.302,2.805,3.459
					c2.253,2.801,4.407,5.479,6.733,7.971c5.932-8.498,11.687-16.234,17.546-23.581c0.407-0.51,1.023-0.808,1.676-0.813
					c6.843-0.037,13.758,0.06,20.446,0.155l4.272,0.058c6.803-6.032,13.873-11.914,20.717-17.608
					c3.882-3.23,7.757-6.455,11.59-9.709c0.907-0.772,2.27-0.662,3.043,0.249c0.772,0.909,0.661,2.271-0.249,3.043
					c-3.844,3.264-7.73,6.497-11.622,9.735c-7.027,5.847-14.295,11.895-21.235,18.072c-0.402,0.358-0.919,0.531-1.463,0.547
					l-5.114-0.069c-6.329-0.09-12.871-0.188-19.328-0.159c-6.067,7.648-12.035,15.735-18.224,24.69
					c-0.363,0.524-0.938,0.863-1.574,0.922C107.635,164.216,107.567,164.219,107.5,164.219z"/>
			</g>
			<g>
				<path style="fill:#525D7D;" d="M184.855,122.493c-1.068,0-1.997-0.793-2.138-1.881c-0.143-1.098-0.216-2.229-0.216-3.365
					c0-2.189,0.27-4.485,0.803-6.855c-0.838-0.115-1.676-0.236-2.514-0.359c-2.542-0.37-5.17-0.75-7.716-0.939
					c-1.189-0.089-2.082-1.123-1.994-2.312c0.088-1.191,1.103-2.078,2.313-1.995c2.697,0.2,5.402,0.593,8.018,0.973
					c1.617,0.235,3.234,0.47,4.851,0.659c0.633,0.075,1.2,0.424,1.55,0.956c0.351,0.531,0.449,1.189,0.268,1.801
					c-0.837,2.838-1.262,5.554-1.262,8.071c0,0.949,0.06,1.895,0.179,2.808c0.154,1.182-0.68,2.266-1.862,2.419
					C185.042,122.487,184.948,122.493,184.855,122.493z"/>
			</g>
			<g>
				<path style="fill:#525D7D;" d="M78.9,183.139c-1.172,0-2.134-0.938-2.158-2.114c-0.024-1.192,0.921-2.179,2.113-2.204
					l97.619-2.021c1.217,0,2.179,0.938,2.203,2.114c0.025,1.192-0.921,2.179-2.113,2.204
					C176.564,181.118,78.946,183.139,78.9,183.139z"/>
			</g>
			<g>
				<path style="fill:#525D7D;" d="M78.342,182.875c-0.838,0-1.636-0.491-1.986-1.31c-0.327-0.766-0.486-1.585-0.486-2.506
					c0-0.621,0.072-1.21,0.136-1.73c0.049-0.402,0.103-0.805,0.103-1.209c0-0.129-0.006-0.26-0.025-0.389
					c-0.171-1.181,0.647-2.276,1.827-2.446c1.179-0.177,2.275,0.647,2.446,1.827c0.049,0.337,0.07,0.673,0.07,1.008
					c0,0.621-0.072,1.212-0.136,1.732c-0.049,0.403-0.103,0.805-0.103,1.207c0,0.335,0.043,0.583,0.139,0.808
					c0.469,1.097-0.04,2.366-1.137,2.834C78.913,182.818,78.625,182.875,78.342,182.875z"/>
			</g>
			<g>
				<path style="fill:#525D7D;" d="M176.564,179.956c-1.074,0-2.004-0.8-2.14-1.893c-0.041-0.337-0.059-0.676-0.059-1.013
					c0-0.448,0.032-0.895,0.065-1.344c0.025-0.34,0.053-0.68,0.053-1.021c0-0.405-0.043-0.7-0.139-0.956
					c-0.418-1.116,0.148-2.362,1.264-2.779c1.115-0.419,2.361,0.146,2.78,1.264c0.282,0.754,0.413,1.538,0.413,2.471
					c0,0.449-0.032,0.895-0.065,1.344c-0.025,0.34-0.053,0.68-0.053,1.021c0,0.16,0.006,0.322,0.027,0.482
					c0.147,1.182-0.693,2.262-1.877,2.408C176.743,179.951,176.653,179.956,176.564,179.956z"/>
			</g>
			<g>
				<path style="fill:#525D7D;" d="M94.748,182.771c-1.193,0-2.159-0.967-2.159-2.159v-5.829c0-1.192,0.966-2.159,2.159-2.159
					c1.193,0,2.159,0.967,2.159,2.159v5.829C96.907,181.803,95.94,182.771,94.748,182.771z"/>
			</g>
			<g>
				<path style="fill:#525D7D;" d="M112.639,181.364c-1.193,0-2.159-0.967-2.159-2.159c0-1.477,0-3.152-0.337-4.501
					c-0.289-1.157,0.414-2.329,1.571-2.619c1.157-0.291,2.328,0.416,2.618,1.57c0.467,1.867,0.467,3.823,0.467,5.549
					C114.798,180.396,113.832,181.364,112.639,181.364z"/>
			</g>
			<g>
				<path style="fill:#525D7D;" d="M132.539,180.56c-1.085,0-2.02-0.817-2.143-1.92c-0.055-0.492-0.074-0.97-0.074-1.442
					c0-0.377,0.012-0.749,0.024-1.12c0.011-0.32,0.022-0.64,0.022-0.96c0-0.597-0.041-1.053-0.136-1.475
					c-0.259-1.164,0.476-2.318,1.64-2.575c1.162-0.26,2.317,0.474,2.576,1.639c0.214,0.962,0.238,1.836,0.238,2.411
					c0,0.37-0.012,0.737-0.025,1.105c-0.011,0.323-0.022,0.647-0.022,0.976c0,0.315,0.01,0.635,0.047,0.964
					c0.132,1.185-0.722,2.253-1.907,2.385C132.699,180.555,132.619,180.56,132.539,180.56z"/>
			</g>
			<g>
				<path style="fill:#525D7D;" d="M153.65,180.359c-1.193,0-2.159-0.967-2.159-2.159c0-0.618-0.097-1.259-0.2-1.938
					c-0.119-0.793-0.243-1.612-0.243-2.525c0-0.33,0.016-0.665,0.054-1.004c0.132-1.185,1.211-2.034,2.385-1.907
					c1.185,0.132,2.039,1.2,1.907,2.385c-0.02,0.178-0.027,0.353-0.027,0.526c0,0.588,0.095,1.214,0.195,1.879
					c0.117,0.769,0.248,1.642,0.248,2.584C155.809,179.392,154.842,180.359,153.65,180.359z"/>
			</g>
			<g>
				<path style="fill:#525D7D;" d="M15.634,125.435c-0.977,0-1.863-0.668-2.099-1.66c-0.275-1.161,0.442-2.325,1.602-2.599
					c8.451-2.006,17.472-3.739,29.057-5.576c0.05-0.779,0.102-1.557,0.154-2.338c0.214-3.192,0.434-6.495,0.495-9.696
					c0.011-0.572,0.248-1.118,0.661-1.515c0.413-0.396,0.973-0.61,1.538-0.603c2.084,0.041,4.167,0.111,6.251,0.181
					c3.069,0.104,6.243,0.212,9.346,0.212l0.579-0.001c1.061,0,1.964,0.77,2.132,1.816c0.327,2.037,0.6,4.09,0.873,6.145
					c0.224,1.688,0.453,3.417,0.713,5.122c4.608-0.146,8.918-0.342,13.08-0.596c0.516-3.863,1.042-7.848,1.286-11.748
					c0.07-1.122,0.989-2.002,2.112-2.024c3.364-0.066,6.787,0.171,10.085,0.398c2.317,0.157,4.712,0.322,7.035,0.377
					c1.006,0.025,1.862,0.741,2.063,1.726c0.411,2.011,0.71,4.055,0.999,6.032c0.308,2.109,0.604,4.127,1.021,6.098l18.779-0.371
					l7.487-69.545c0.117-1.093,1.037-1.923,2.136-1.928c4.139-0.02,8.334-0.243,12.391-0.461c2.054-0.11,4.109-0.219,6.169-0.305
					c1.146-0.051,2.116,0.798,2.237,1.928l6.966,65.451c0.126,1.186-0.733,2.25-1.919,2.376c-1.188,0.125-2.25-0.732-2.376-1.917
					l-6.751-63.432c-1.367,0.066-2.732,0.139-4.097,0.212c-3.485,0.187-7.071,0.378-10.669,0.444l-7.486,69.53
					c-0.116,1.081-1.018,1.906-2.104,1.929l-22.428,0.443c-0.952,0.01-1.886-0.654-2.134-1.625
					c-0.693-2.716-1.101-5.504-1.495-8.201c-0.199-1.361-0.403-2.754-0.642-4.124c-1.841-0.079-3.682-0.204-5.476-0.326
					c-2.552-0.174-5.18-0.353-7.742-0.391c-0.291,3.471-0.753,6.934-1.203,10.301l-0.198,1.483c-0.135,1.02-0.972,1.803-1.999,1.871
					c-5.323,0.348-10.849,0.602-16.896,0.772c-1.094,0.086-2.009-0.735-2.189-1.795c-0.404-2.37-0.725-4.79-1.036-7.132
					c-0.187-1.407-0.373-2.814-0.578-4.215c-2.757-0.024-5.527-0.118-8.217-0.209c-1.35-0.045-2.7-0.091-4.05-0.128
					c-0.098,2.593-0.271,5.198-0.441,7.734c-0.09,1.348-0.18,2.695-0.259,4.04c-0.06,1.015-0.819,1.85-1.822,2.007
					c-12.303,1.92-21.692,3.702-30.443,5.779C15.967,125.416,15.799,125.435,15.634,125.435z"/>
			</g>
			<g>
				<path style="fill:#525D7D;" d="M144.364,58.108c-3.603,0-7.437-0.135-12.065-0.424c-1.19-0.074-2.094-1.099-2.02-2.29
					c0.074-1.191,1.116-2.093,2.29-2.02c7.829,0.489,13.515,0.544,19.034,0.201c1.184-0.087,2.215,0.829,2.289,2.02
					c0.074,1.191-0.83,2.215-2.021,2.29C149.459,58.035,147.004,58.108,144.364,58.108z"/>
			</g>
			<g>
				<path style="fill:#525D7D;" d="M128.612,95.28c-1.126,0-2.074-0.873-2.152-2.013c-0.081-1.189,0.817-2.22,2.007-2.3
					c6.67-0.456,13.51-0.571,20.125-0.683c2.245-0.038,4.483-0.076,6.709-0.126c1.22,0,2.181,0.935,2.207,2.11
					c0.027,1.192-0.917,2.18-2.109,2.208c-2.234,0.051-4.481,0.089-6.734,0.126c-6.561,0.111-13.344,0.225-19.904,0.672
					C128.711,95.278,128.662,95.28,128.612,95.28z"/>
			</g>
			<g>
				<path style="fill:#525D7D;" d="M46.779,82.072c-9.162,0-15.56-6.005-15.56-14.602c0-1.022,0.092-2.045,0.275-3.059
					c-4.978-0.507-9.111-3.049-12.034-7.427c-2.761-4.137-3.745-8.86-3.745-11.9c0-14.911,17.557-26.132,28.942-26.132
					c1.248,0,2.477,0.112,3.672,0.336C53.346,6.616,67.597,0,79.675,0c11.316,0,22.662,5.735,30.296,15.147
					c2.019-2.52,6.188-5.672,15.546-5.672c10.629,0,18.51,5.892,21.48,15.894c0.517-0.089,1.037-0.135,1.55-0.135
					c4.229,0,7.393,2.685,8.257,7.007c0.234,1.169-0.524,2.307-1.694,2.54c-1.175,0.243-2.306-0.526-2.54-1.694
					c-0.585-2.922-2.511-3.535-4.024-3.535c-0.719,0-1.471,0.173-2.175,0.5c-0.599,0.278-1.29,0.269-1.877-0.025
					c-0.589-0.295-1.011-0.842-1.147-1.486c-1.975-9.373-8.475-14.748-17.832-14.748c-10.105,0-12.293,3.994-13.227,5.698
					c-0.128,0.232-0.239,0.433-0.339,0.593c-0.385,0.616-1.054,0.997-1.78,1.015c-0.763-0.024-1.413-0.333-1.827-0.931
					C101.576,10.392,90.59,4.318,79.675,4.318c-11.089,0-24.231,6.238-27.892,18.162c-0.349,1.136-1.548,1.778-2.691,1.432
					c-1.405-0.426-2.897-0.642-4.434-0.642c-9.499,0-24.624,9.983-24.624,21.814c0,4.731,3.361,15.104,13.348,15.104
					c0.21,0,0.477-0.007,0.785-0.023c0.711-0.035,1.411,0.287,1.842,0.866c0.432,0.578,0.545,1.333,0.304,2.012
					c-0.508,1.434-0.777,2.964-0.777,4.428c0,5.119,3.476,10.284,11.242,10.284c3.773,0,6.723-1.057,10.18-3.649
					c0.955-0.713,2.307-0.523,3.023,0.433c0.716,0.953,0.521,2.307-0.432,3.022C55.331,80.723,51.512,82.072,46.779,82.072z"/>
			</g>
			<g>
				<path style="fill:#525D7D;" d="M63.949,71.555c-0.252,0-0.509-0.044-0.759-0.138c-2.913-1.093-5.927-5.136-5.927-10.007
					c0-10.312,8.491-19.024,18.542-19.024c2.321,0,4.416,0.451,6.118,1.008c2.389-6.1,8.574-9.433,12.535-9.433
					c2.614,0,4.967,0.564,6.774,1.191c2.256-2.359,5.129-3.684,8.08-3.684c3.756,0,7.047,2.007,8.586,5.239
					c0.513,1.077,0.056,2.366-1.021,2.879c-1.075,0.512-2.364,0.056-2.877-1.021c-0.817-1.715-2.613-2.779-4.688-2.779
					c-2.948,0-4.974,2.26-5.708,3.232c-0.599,0.793-1.657,1.072-2.571,0.684c-2.146-0.918-4.482-1.422-6.575-1.422
					c-2.097,0-7.855,2.498-9.01,8.394c-0.127,0.649-0.545,1.205-1.134,1.507c-0.589,0.304-1.282,0.316-1.886,0.041
					c-1.507-0.692-3.88-1.517-6.623-1.517c-7.71,0-14.224,6.734-14.224,14.706c0,3.189,2.004,5.542,3.127,5.964
					c1.116,0.419,1.681,1.664,1.262,2.78C65.645,71.021,64.822,71.555,63.949,71.555z"/>
			</g>
			<g>
				<path style="fill:#525D7D;" d="M76.103,77.212c-1.25,0-7.6-0.744-7.6-4.274c0-0.567,0.278-1.23,0.676-1.635
					c0.834-0.85,2.202-0.86,3.053-0.027c0.245,0.24,0.42,0.524,0.525,0.828c0.733,0.353,2.293,0.79,3.347,0.79
					c3.605,0,7.713-2.591,8.349-6.924c0.108-0.735,0.585-1.364,1.266-1.663c0.679-0.299,1.465-0.229,2.081,0.188
					c1.505,1.021,3.188,1.581,4.739,1.581c2.677,0,5.119-1.766,5.94-4.291c0.212-0.652,0.72-1.164,1.369-1.382
					c0.65-0.216,1.364-0.114,1.924,0.281c1.013,0.71,2.433,1.102,3.994,1.102c5.719,0,8.302-2.294,8.916-7.919
					c0.079-0.72,0.511-1.351,1.153-1.683c0.641-0.335,1.406-0.323,2.039,0.027c0.676,0.374,1.404,0.564,2.16,0.564
					c2.146,0,4.379-0.613,6.287-1.725c1.03-0.602,2.352-0.252,2.953,0.779c0.6,1.029,0.252,2.352-0.778,2.952
					c-2.558,1.491-5.563,2.312-8.461,2.312c-0.514,0-1.02-0.044-1.517-0.131c-1.503,6.069-5.781,9.142-12.751,9.142
					c-1.517,0-2.944-0.245-4.227-0.717c-1.887,3.068-5.259,5.007-9.001,5.007c-1.539,0-3.092-0.319-4.592-0.936
					C85.875,74.514,80.669,77.212,76.103,77.212z"/>
			</g>
		</g>
	</g>
</g>
<g id="Layer_1">
</g>
</svg>
