<?xml version="1.0" encoding="iso-8859-1"?>
<!-- Generator: Adobe Illustrator 21.0.2, SVG Export Plug-In . SVG Version: 6.00 Build 0)  -->
<svg version="1.1" xmlns="http://www.w3.org/2000/svg" xmlns:xlink="http://www.w3.org/1999/xlink" x="0px" y="0px"
	 viewBox="0 0 238.52 183.31" style="enable-background:new 0 0 238.52 183.31;" xml:space="preserve">
<g id="_x39_4">
	<g>
		<g>
			<path style="fill:#E0DFE6;" d="M59.03,70.525c-0.613-4.072-6.003-5.525-9.133-3.716c-0.028,0.016-0.048,0.034-0.076,0.05
				c-0.234-0.185-0.465-0.375-0.705-0.552c-0.529-0.279-1.079-0.466-1.663-0.565c-1.725-0.292-3.753,0.171-4.627,1.883
				c-2.014,3.948,0.265,9.32,4.045,11.4c2.539,1.397,5.832,1.534,8.365,0.007c1.216-0.733,2.299-1.723,3.033-2.957
				C59.339,74.279,59.335,72.554,59.03,70.525z"/>
			<path style="fill:#E0DFE6;" d="M80.966,71.391C74.563,78.435,67.081,84.02,59.765,90.1c-5.196,4.318-8.471,8.963-8.014,15.612
				c-0.642,0.851-1.299,1.763-2.044,2.712c-3.128,3.984-6.902,9.07-11.168,12.328c-4.981-2.348-9.076-6.758-14.102-8.997
				c-1.363-0.607-2.599,0.384-2.383,1.832c0.363,2.442,1.662,5.533,3.549,8.478c-2.024,1.566-3.12,4.405-1.59,7.131
				c0.839,1.495,1.949,2.729,2.988,4.083c0.414,0.455,0.768,0.953,1.091,1.474c-0.032,0.063-0.06,0.112-0.101,0.2
				c-1.117,2.922-3.847,4.697-4.516,7.953c-0.538,2.617,1.616,5.043,4.341,4.341c0.801-0.206,1.621-0.529,2.434-0.939
				c-0.367,0.975-0.603,1.97-0.632,2.981c-0.048,1.636,1.451,3.124,3.083,3.083c4.66-0.118,9.02-4.44,12.308-7.39
				c2.574-2.309,6.977-6.813,5.112-10.588c5.283-2.488,10.012-7.171,13.248-11.259c2.627-3.32,3.937-6.776,5.118-10.787
				c1.421-4.826,3.722-9.898,1.938-14.807c-0.521-1.434-2.011-2.731-3.586-2.853c1.629-1.425,3.328-2.789,4.912-4.244
				c5.252-4.825,11.691-10.259,11.987-17.907C83.789,71.162,81.905,70.359,80.966,71.391z"/>
			<path style="fill:#E0DFE6;" d="M159.96,130.478c-16.623,0.606-33.194-0.097-49.816,0.084c-14.474,0.157-29.707,2.37-43.822-0.852
				c-1.388-0.317-2.361,0.829-2.146,2.146c2.129,13.047,28.327,10.473,37.171,10.569c19.61,0.213,39.072-1.664,58.612-3.104
				C165.572,138.907,165.702,130.269,159.96,130.478z"/>
			<path style="fill:#E0DFE6;" d="M149.795,112.862c-1.982-6.907-4.726-14.307-5.825-21.375c-0.352-2.266-3.433-1.388-3.665,0.496
				c-0.509,4.143-1.67,7.913-1.705,12.135c-0.032,3.869,0.499,7.719,1.063,11.537C140.626,122.181,151.712,119.54,149.795,112.862z"
				/>
			<path style="fill:#E0DFE6;" d="M124.68,112.04c-1.096-3.012-2.087-6.055-2.901-9.156c-0.789-3.005-2.165-6.025-2.829-9.022
				c-0.325-1.469-2.783-1.549-3.051,0c-0.562,3.249-1.571,5.843-1.68,9.248c-0.11,3.445-0.007,6.876,0.234,10.313
				C115.011,121.369,127.162,118.865,124.68,112.04z"/>
			<path style="fill:#E0DFE6;" d="M100.922,111.954c-1.088-1.727-2.131-3.511-2.998-5.361c-0.894-1.907-1.609-3.892-3.583-4.951
				c-1.438-0.771-2.979-0.503-4.178,0.539c-3.656,3.177-1.879,10.641-0.57,14.548c1.177,3.513,4.814,5.513,8.365,4.017
				C101.252,119.359,102.925,115.133,100.922,111.954z"/>
			<path style="fill:#E0DFE6;" d="M237.817,156.021c-1.348-2.661-3.082-5.743-5.435-7.76c0.42-0.538,0.769-1.189,1.015-1.965
				c3.053-9.627,3.425-19.683,1.158-29.55c-1.054-4.587-2.798-8.906-4.948-13.077c-2.685-5.212-6.855-8.485-9.816-13.346
				c-0.754-1.238-2.433-0.157-1.891,1.106c0.586,1.366,0.95,2.995,1.23,4.689c-1.392-2.641-3.09-5.08-5.197-7.168
				c-0.654-0.649-1.788-0.166-1.8,0.746c-0.12,8.888,2.905,17.693,3.938,26.493c0.554,4.719,0.814,9.447,0.736,14.199
				c-0.066,4.05-0.833,7.899,0.039,11.77c-4.125,2.032-8.145,4.295-11.977,6.82c-4.394,2.896-10.265,6.377-11.916,11.599
				c-0.414,1.31,0.704,2.678,2.034,2.67c5.76-0.036,11.411-4.708,16.331-7.398c4.202-2.297,9.351-3.992,13.607-6.523
				c0.192,0.12,0.393,0.228,0.597,0.326c-0.434,2.804,0.187,5.679,1.113,8.392c-4.278,1.303-8.559,4.435-12.091,6.313
				c-6.227,3.31-10.902,7.374-15.483,12.674c-1.771,2.048,0.863,4.571,2.926,2.926c5.055-4.031,11.677-6.467,17.534-9.115
				c4.039-1.826,9.868-3.098,13.139-6.346c0.78,0.035,1.607-0.107,2.46-0.468C238.34,162.668,239.351,159.05,237.817,156.021z"/>
			<path style="fill:#E0DFE6;" d="M213.024,45.104c-1.466-8.407-2.655-18.164-8.015-25.074c-0.539-0.695-1.513-0.178-1.763,0.465
				c-3.109,8.004-1.669,17.706-1.327,26.111c0.391,9.618,1.052,19.218,1.529,28.832c0.42,8.461,13.803,8.392,13.139,0
				C215.781,65.272,214.777,55.158,213.024,45.104z"/>
			<path style="fill:#E0DFE6;" d="M179.55,71.255c-3.683-7.102-6.385-18.442-15.574-20.234c-2.594-0.506-5.424,1.664-4.515,4.515
				c1.055,3.311,2.527,6.445,3.501,9.789c1.295,4.446,2.497,8.833,4.329,13.095C170.818,86.625,183.837,79.52,179.55,71.255z"/>
			<path style="fill:#E0DFE6;" d="M177.415,82.578c-1.046-0.939-3.226-1.059-3.886,0.501c-1.312,3.1-1.395,5.889-0.551,9.16
				c0.7,2.712,1.339,5.157,3.69,6.853c0.292,0.211,0.856,0.221,1.146,0C182.63,95.43,181.579,86.319,177.415,82.578z"/>
			<path style="fill:#E0DFE6;" d="M192.45,80.191c-1.713-1.262-3.862,0.167-4.469,1.818c-1.993,5.421,1.622,10.296,2.968,15.337
				c0.862,3.228,5.643,2.491,5.737-0.776C196.855,90.607,197.944,84.24,192.45,80.191z"/>
			<path style="fill:#E0DFE6;" d="M207.854,87.92c-0.158-1.251-0.462-2.129-1.271-3.129c-0.281-0.347-0.573-0.685-0.859-1.027
				c-1.133-1.354-3.922-1.072-4.651,0.599c-0.175,0.402-0.352,0.802-0.525,1.205c-0.516,1.2-0.605,2.124-0.412,3.396
				c0.166,1.095,0.363,2.186,0.544,3.279c0.313,1.885,2.509,2.991,4.228,2.76c1.71-0.23,3.57-1.88,3.341-3.785
				C208.118,90.119,207.993,89.018,207.854,87.92z"/>
			<g>
				<path style="fill:#E0DFE6;" d="M148.239,54.198c-0.029-0.014-0.097,0.011-0.158,0.042
					C148.122,54.235,148.155,54.231,148.239,54.198z"/>
				<path style="fill:#E0DFE6;" d="M150.397,52.76c-0.702,0.49-1.415,0.893-2.105,1.415c0.033,0,0.062,0.006,0.084,0.025
					c0.341-0.045,0.263-0.034-0.186,0.026c-0.401,0.239-0.294,0.109-0.11,0.015c-0.039,0.005-0.061,0.008-0.105,0.014
					c-0.117,0.016-0.196,0.027-0.28,0.039c-0.164-0.052-0.363-0.075-0.284-0.02c0.119,0.082-0.508-0.345-0.535-0.365
					c-1.689-1.249-4.435,0.42-4.273,2.452c0.244,3.041,2.078,5.91,5.156,6.744c1.646,0.446,3.486,0.343,5.08-0.219
					c2.333-0.823,3.703-2.546,4.41-4.857C158.384,54.321,153.777,50.404,150.397,52.76z"/>
				<path style="fill:#E0DFE6;" d="M148.292,54.176c0.053-0.04,0.083-0.061,0.119-0.087
					C148.371,54.114,148.326,54.144,148.292,54.176z"/>
				<path style="fill:#E0DFE6;" d="M148.411,54.088C148.567,53.985,148.575,53.969,148.411,54.088L148.411,54.088z"/>
			</g>
			<path style="fill:#E0DFE6;" d="M187.72,17.204c-4.068-2.993-9.583-2.747-14.418-2.813c-6.884-0.094-13.767-0.342-20.652-0.375
				c-14.257-0.066-28.52,0.187-42.778,0.229c-7.375,0.022-14.751,0.013-22.127,0.065c-4.379,0.031-9.539-0.277-13.485,1.998
				c-9.467,5.459-6.069,16.981-4.976,25.508c0.142,1.108,1.721,1.517,2.072,0.28c1.27-4.485,1.141-8.468,1.874-13
				c1.251-7.734,8.158-7.41,14.516-7.355c10.326,0.09,20.652,0.172,30.977,0.285c10.326,0.113,20.651,0.278,30.977,0.37
				c4.919,0.044,9.833-0.032,14.751-0.102c3.482-0.049,14.419-1.961,16.387,1.789C184.352,30.783,194.918,22.5,187.72,17.204z"/>
		</g>
		<g>
			<g>
				<path style="fill:#525D7D;" d="M56.786,80.279c-1.161,0-2.121-0.924-2.156-2.093L52.73,16.103
					c-0.007-0.198,0.015-0.396,0.063-0.589c0.118-0.476,0.128-0.907,0.128-1.42v-0.292c0-7.755,7.513-12.73,14.777-13.06
					c13.289-0.602,26.607-0.679,36.726-0.679c4.983,0,9.962,0.02,14.933,0.041c16.847,0.071,33.585,0.018,50.292-0.041
					c6.85-0.024,13.692-0.048,20.536-0.063c8.149,0,13.685,8.082,13.764,15.629c0.218,20.936,0.805,39.552,1.798,56.911
					c0.067,1.191-0.843,2.21-2.033,2.279c-1.209,0.068-2.211-0.843-2.28-2.033c-0.994-17.427-1.584-36.109-1.804-57.112
					c-0.056-5.484-3.854-11.356-9.416-11.356c-6.861,0.016-13.704,0.039-20.55,0.063c-16.719,0.058-33.471,0.11-50.326,0.041
					c-4.966-0.021-9.939-0.041-14.915-0.041c-10.073,0-23.329,0.077-36.53,0.675C62.657,5.294,57.24,8.631,57.24,13.802v0.292
					c0,0.646-0.015,1.341-0.186,2.153l1.891,61.807C58.981,79.246,58.045,80.241,56.786,80.279z"/>
			</g>
			<g>
				<path style="fill:#525D7D;" d="M68.199,132.781c-6.843,0-12.409-5.89-12.409-13.129c0-0.439,0.022-0.882,0.067-1.327
					l-0.097-3.128c-0.037-1.192,0.9-2.188,2.092-2.225c1.195-0.032,2.187,0.9,2.224,2.092l0.101,3.274
					c0.004,0.102,0,0.204-0.011,0.305c-0.038,0.338-0.058,0.675-0.058,1.009c0,5.078,4.133,9.294,8.934,8.764
					c0.077-0.008,0.155-0.013,0.232-0.013l87.533-0.304c1.196,0,2.162,0.962,2.166,2.151c0.004,1.193-0.959,2.163-2.152,2.167
					L69.4,132.72C68.995,132.761,68.594,132.781,68.199,132.781z"/>
			</g>
			<g>
				<path style="fill:#525D7D;" d="M2.161,114.242c-0.732,0-1.448-0.373-1.853-1.048c-0.614-1.023-0.283-2.349,0.741-2.962
					c12.481-7.489,15.15-20.495,17.732-33.072c3.355-16.347,6.824-33.25,33.076-33.25c1.192,0,2.159,0.966,2.159,2.159
					c0,1.193-0.967,2.159-2.159,2.159c-22.729,0-25.429,13.15-28.847,29.8c-2.64,12.863-5.632,27.442-19.741,35.907
					C2.923,114.143,2.539,114.242,2.161,114.242z"/>
			</g>
			<g>
				<path style="fill:#525D7D;" d="M37.436,132.704c-0.808,0-1.581-0.455-1.951-1.233c-0.512-1.077-0.054-2.365,1.023-2.877
					c15.736-7.475,23.109-13.938,25.199-32.475c0.063-0.563,0.346-1.079,0.786-1.436c5.798-4.7,19.378-15.707,19.378-23.95
					c0-2.639-0.24-2.852-3.211-2.852c-4.282,0-7.765,2.92-11.453,6.011c-4.106,3.442-8.352,7.002-14.176,7.002
					c-6.244,0-10.646-6.228-11.515-9.404c-0.313-1.15,0.364-2.338,1.514-2.652c1.157-0.311,2.338,0.363,2.652,1.513
					c0.576,2.113,3.694,6.224,7.349,6.224c4.253,0,7.725-2.911,11.403-5.993c4.117-3.451,8.375-7.02,14.226-7.02
					c3.91,0,7.529,0.869,7.529,7.17c0,9.97-13.269,21.046-20.296,26.752c-2.447,19.675-11.242,27.271-27.532,35.009
					C38.061,132.636,37.746,132.704,37.436,132.704z"/>
			</g>
			<g>
				<path style="fill:#525D7D;" d="M29.891,150.154c-0.512,0-1.026-0.181-1.438-0.55c-0.888-0.795-0.964-2.16-0.17-3.048
					c3.641-4.068,7.335-7.76,11.009-11c-0.661-0.673-1.319-1.352-1.976-2.033c-2.077-2.148-4.227-4.368-6.531-6.416
					c-5.811-5.166-11.277-10.381-16.564-15.424c-1.761-1.681-3.528-3.366-5.316-5.058c-0.866-0.82-0.904-2.187-0.083-3.052
					c0.819-0.867,2.186-0.903,3.052-0.084c1.792,1.696,3.562,3.386,5.329,5.07c5.258,5.017,10.697,10.206,16.452,15.321
					c2.426,2.156,4.631,4.436,6.765,6.641c1.178,1.218,2.352,2.431,3.555,3.615c0.432,0.426,0.665,1.015,0.642,1.621
					c-0.024,0.607-0.301,1.176-0.765,1.567c-4.103,3.461-8.258,7.536-12.35,12.11C31.075,149.911,30.485,150.154,29.891,150.154z"/>
			</g>
			<g>
				<path style="fill:#525D7D;" d="M168.004,118.601c-0.914,0-1.761-0.583-2.055-1.499c-1.146-3.564-2.024-7.198-2.873-10.711
					c-0.895-3.705-1.822-7.535-3.053-11.23c-0.202-0.605-0.464-1.37-0.769-2.266C156.574,85.049,151,68.722,151,60.252
					c0-5.678,1.941-8.557,5.769-8.557c8.289,0,14.124,18.218,20.358,40.229c1.032,3.647,1.924,6.796,2.578,8.683
					c0.389,1.127-0.208,2.357-1.335,2.747c-1.124,0.392-2.356-0.206-2.745-1.334c-0.694-2.004-1.602-5.208-2.652-8.919
					c-2.873-10.143-10.504-37.087-16.203-37.087c-0.508,0-1.451,0-1.451,4.239c0,7.753,5.621,24.218,8.022,31.249
					c0.309,0.907,0.575,1.683,0.779,2.296c1.289,3.868,2.238,7.789,3.154,11.58c0.831,3.438,1.69,6.992,2.786,10.404
					c0.365,1.135-0.259,2.351-1.394,2.716C168.445,118.567,168.221,118.601,168.004,118.601z"/>
			</g>
			<g>
				<path style="fill:#525D7D;" d="M190.329,101.364c-0.928,0-1.787-0.604-2.066-1.54c-0.474-1.577-0.853-3.331-1.22-5.029
					c-1.586-7.33-2.896-11.781-7.703-11.781c-0.825,0-2.839,0.181-3.746,1.863c-0.565,1.049-1.878,1.441-2.924,0.877
					c-1.05-0.566-1.444-1.875-0.877-2.925c1.394-2.588,4.216-4.133,7.547-4.133c8.638,0,10.459,8.42,11.923,15.186
					c0.367,1.691,0.711,3.288,1.136,4.703c0.343,1.142-0.305,2.345-1.448,2.688C190.744,101.334,190.535,101.364,190.329,101.364z"
					/>
			</g>
			<g>
				<path style="fill:#525D7D;" d="M203.784,99.069c-0.849,0-1.654-0.504-1.997-1.337c-0.756-1.836-1.295-3.875-1.813-5.845
					c-1.642-6.226-2.894-10.041-7.734-10.041c-1.093,0-2.579,0.344-3.448,1.984c-0.557,1.056-1.867,1.457-2.918,0.898
					c-1.053-0.558-1.455-1.865-0.897-2.918c1.441-2.721,4.088-4.282,7.263-4.282c8.413,0,10.351,7.352,11.909,13.258
					c0.506,1.919,0.984,3.731,1.631,5.302c0.454,1.103-0.072,2.364-1.174,2.819C204.336,99.016,204.057,99.069,203.784,99.069z"/>
			</g>
			<g>
				<path style="fill:#525D7D;" d="M226.423,148.673c-1.158,0-2.115-0.918-2.156-2.085c-1.351-39.158-12.724-64.146-19.959-64.146
					c-1.188,0-2.101,0.451-2.713,1.342c-0.676,0.982-2.021,1.231-3.002,0.555c-0.983-0.675-1.231-2.02-0.557-3.003
					c1.425-2.071,3.652-3.213,6.272-3.213c12.086,0,22.974,30.646,24.274,68.315c0.041,1.192-0.891,2.191-2.083,2.232
					C226.474,148.672,226.449,148.673,226.423,148.673z"/>
			</g>
			<g>
				<path style="fill:#525D7D;" d="M194.661,164.964c-0.697,0-1.382-0.337-1.798-0.961c-2.873-4.31-8.229-5.302-13.899-6.353
					l-1.262-0.235c-6.453-1.221-7.593-5.674-9.038-11.313c-0.877-3.426-1.971-7.689-4.419-12.937
					c-1.134-2.43-2.912-5.017-4.633-7.519c-3.173-4.613-6.452-9.384-6.452-14.15c0-3.97,4.987-15.26,5.727-16.556
					c0.592-1.037,1.912-1.392,2.946-0.805c1.035,0.591,1.396,1.91,0.804,2.946c-0.852,1.492-5.159,11.866-5.159,14.416
					c0,3.425,2.894,7.634,5.691,11.704c1.82,2.648,3.702,5.385,4.989,8.14c2.619,5.613,3.767,10.092,4.689,13.692
					c1.477,5.768,2.063,7.461,5.658,8.141l1.245,0.232c6.009,1.113,12.821,2.376,16.706,8.203c0.662,0.992,0.394,2.333-0.599,2.994
					C195.489,164.847,195.073,164.964,194.661,164.964z"/>
			</g>
			<g>
				<path style="fill:#525D7D;" d="M195.966,183.31c-0.734,0.001-1.451-0.375-1.855-1.052c-1.236-2.068-2.391-4.19-3.51-6.243
					c-1.251-2.295-2.544-4.668-3.919-6.905c-0.304-0.495-0.395-1.091-0.254-1.656c0.142-0.564,0.505-1.046,1.007-1.339
					c10.284-6.001,20.978-11.511,31.318-16.839l6.195-3.197c1.053-0.548,2.361-0.136,2.91,0.924c0.548,1.059,0.135,2.362-0.925,2.91
					l-6.2,3.201c-9.658,4.977-19.624,10.113-29.233,15.638c1.006,1.731,1.962,3.486,2.894,5.198
					c0.762,1.396,1.541,2.826,2.345,4.236c11.882-6.973,23.318-12.526,34.898-16.947c1.115-0.427,2.361,0.133,2.787,1.247
					c0.426,1.114-0.134,2.362-1.247,2.787c-11.954,4.563-23.762,10.364-36.104,17.733
					C196.725,183.211,196.343,183.31,195.966,183.31z"/>
			</g>
			<g>
				<path style="fill:#525D7D;" d="M190.504,74.115c-1.164,0-2.122-0.926-2.156-2.097l-1.41-48.967
					c-0.112-3.861-3.224-6.892-7.087-6.9L74.793,15.946c-1.326,0-2.606,0.541-3.522,1.485c-0.921,0.947-1.425,2.245-1.385,3.564
					l1.479,48.44c0.037,1.192-0.9,2.188-2.092,2.224c-1.171,0.058-2.189-0.9-2.224-2.092l-1.479-48.44
					c-0.077-2.481,0.872-4.925,2.602-6.706c1.726-1.776,4.135-2.794,6.612-2.794c0.017,0,105.074,0.205,105.074,0.205
					c6.21,0.012,11.216,4.885,11.394,11.093l1.41,48.968C192.698,73.086,191.759,74.08,190.504,74.115z"/>
			</g>
			<g>
				<path style="fill:#525D7D;" d="M151.709,121.704H79.51c-6.015,0-10.944-4.894-10.989-10.908l-0.146-20.042
					c-0.008-1.192,0.952-2.166,2.144-2.174c1.2,0,2.166,0.956,2.174,2.144l0.146,20.042c0.028,3.651,3.021,6.622,6.671,6.622h72.199
					c1.192,0,2.159,0.966,2.159,2.159C153.869,120.738,152.901,121.704,151.709,121.704z"/>
			</g>
			<g>
				<path style="fill:#525D7D;" d="M92.482,31.44H79.291c-1.192,0-2.159-0.966-2.159-2.159s0.967-2.159,2.159-2.159h13.191
					c1.192,0,2.159,0.966,2.159,2.159S93.674,31.44,92.482,31.44z"/>
			</g>
			<g>
				<path style="fill:#525D7D;" d="M80.645,40.01c-0.416,0-0.828-0.012-1.241-0.04c-1.189-0.08-2.089-1.11-2.009-2.3
					c0.08-1.19,1.097-2.104,2.301-2.009c1.507,0.101,3.047-0.06,4.714-0.23c2.502-0.254,5.268-0.432,7.46,0.008
					c1.169,0.234,1.928,1.371,1.694,2.541c-0.233,1.169-1.377,1.93-2.54,1.693c-1.674-0.336-3.885-0.18-6.178,0.054
					C83.479,39.867,82.064,40.01,80.645,40.01z"/>
			</g>
			<g>
				<path style="fill:#525D7D;" d="M80.064,49.028c-0.995,0-1.89-0.694-2.108-1.707c-0.25-1.166,0.493-2.314,1.659-2.564
					c2.239-0.479,4.431-0.591,6.55-0.699c1.545-0.079,3.005-0.153,4.46-0.361c1.174-0.176,2.273,0.651,2.443,1.832
					c0.169,1.18-0.652,2.274-1.833,2.442c-1.649,0.235-3.277,0.318-4.851,0.399c-2.038,0.104-3.965,0.202-5.864,0.609
					C80.366,49.012,80.215,49.028,80.064,49.028z"/>
			</g>
			<g>
				<path style="fill:#525D7D;" d="M91.481,121.371c-1.16,0-2.117-0.92-2.156-2.087c-0.091-2.721-0.218-5.401-0.344-8.068
					c-0.145-3.065-0.294-6.215-0.384-9.381l-5.616,0.254c-0.01,1.37-0.02,2.74-0.02,4.109c0,3.671,0.065,8.008,0.545,12.332
					c0.131,1.185-0.722,2.253-1.907,2.384c-1.189,0.132-2.253-0.722-2.385-1.907c-0.503-4.533-0.571-9.019-0.571-12.808
					c0-1.38,0.01-2.761,0.02-4.141L78.677,100c0.006-1.151,0.915-2.095,2.065-2.145l9.868-0.429c0.606-0.029,1.15,0.186,1.573,0.584
					c0.424,0.398,0.669,0.952,0.68,1.534c0.07,3.844,0.254,7.72,0.432,11.469c0.127,2.687,0.254,5.386,0.346,8.127
					c0.039,1.192-0.894,2.191-2.086,2.23C91.53,121.37,91.505,121.371,91.481,121.371z"/>
			</g>
			<g>
				<path style="fill:#525D7D;" d="M103.186,120.74c-1.192,0-2.159-0.966-2.159-2.159c0-6.082-0.367-12.397-0.721-18.504
					c-0.204-3.511-0.408-7.018-0.547-10.499c-0.022-0.577,0.187-1.14,0.582-1.562c0.395-0.422,0.943-0.668,1.521-0.682
					c1.944-0.049,3.872-0.128,5.801-0.207c2.179-0.089,4.357-0.178,6.557-0.225c0.572-0.041,1.139,0.207,1.553,0.612
					c0.415,0.405,0.649,0.959,0.652,1.538l0.001,1.113c0,2.078-0.017,4.161-0.035,6.245c-0.017,2.076-0.035,4.155-0.035,6.233
					c0,4.189,0.065,9.692,0.568,15.1c0.111,1.187-0.762,2.239-1.95,2.35c-1.175,0.1-2.239-0.763-2.349-1.95
					c-0.521-5.585-0.588-11.218-0.588-15.501c0-2.09,0.018-4.18,0.035-6.269c0.014-1.7,0.03-3.399,0.034-5.095
					c-1.427,0.046-2.848,0.104-4.269,0.162c-1.221,0.05-2.444,0.1-3.67,0.142c0.128,2.738,0.288,5.489,0.448,8.243
					c0.359,6.169,0.728,12.547,0.728,18.755C105.345,119.774,104.377,120.74,103.186,120.74z"/>
			</g>
			<g>
				<path style="fill:#525D7D;" d="M140.069,121.187c-1.175,0-2.138-0.943-2.158-2.123c-0.052-3.116-0.072-6.221-0.072-9.32
					c0-6.174,0.084-12.422,0.164-18.465c0.058-4.248,0.115-8.5,0.145-12.767h-8.841c0.561,11.417,1.156,25.846,1.156,40.047
					c0,1.193-0.967,2.159-2.159,2.159c-1.192,0-2.159-0.966-2.159-2.159c0-15.063-0.675-30.41-1.262-42.098
					c-0.029-0.59,0.184-1.167,0.592-1.596c0.408-0.429,0.973-0.671,1.564-0.671h13.282c0.575,0,1.125,0.229,1.531,0.636
					c0.405,0.407,0.631,0.959,0.628,1.533c-0.024,5.008-0.09,9.993-0.157,14.973c-0.08,6.029-0.164,12.263-0.164,18.408
					c0,3.076,0.02,6.157,0.072,9.248C142.25,120.184,141.299,121.167,140.069,121.187z"/>
			</g>
			<g>
				<path style="fill:#525D7D;" d="M150.939,65.411c-3.261,0-6.428-1.326-8.716-3.653c-2.376-2.416-3.621-5.682-3.507-9.196
					c0.194-6.034,5.22-11.135,11.204-11.371c0.64-0.027,1.295,0.006,1.937,0.096c1.181,0.162,2.465,0.338,3.763,0.97
					c4.71,2.282,7.353,6.481,7.248,11.517c-0.02,0.841-0.122,1.676-0.305,2.484c-0.266,1.162-1.418,1.897-2.585,1.625
					c-1.163-0.265-1.891-1.422-1.626-2.585c0.119-0.524,0.187-1.068,0.198-1.617c0.09-4.26-2.57-6.452-4.816-7.54
					c-0.68-0.332-1.484-0.442-2.414-0.569c-0.447-0.062-0.841-0.081-1.23-0.066c-3.705,0.145-6.938,3.44-7.059,7.195
					c-0.074,2.323,0.732,4.464,2.271,6.03c1.507,1.533,3.589,2.385,5.752,2.361c0.609-0.009,1.205-0.082,1.773-0.216
					c1.162-0.28,2.323,0.443,2.599,1.602c0.274,1.16-0.443,2.324-1.604,2.599c-0.872,0.207-1.781,0.319-2.702,0.333
					C151.06,65.411,150.998,65.411,150.939,65.411z"/>
			</g>
			<g>
				<path style="fill:#525D7D;" d="M149.782,74.503c-0.049,0-0.098-0.001-0.148-0.005c-1.063-0.071-2.128-0.223-3.165-0.451
					c-1.164-0.256-1.9-1.407-1.645-2.572c0.254-1.164,1.404-1.903,2.572-1.645c0.828,0.182,1.678,0.303,2.527,0.36
					c1.189,0.079,2.089,1.109,2.01,2.299C151.857,73.629,150.908,74.503,149.782,74.503z M138.088,69.523
					c-0.519,0-1.039-0.186-1.453-0.562c-0.786-0.716-1.525-1.498-2.198-2.325c-0.752-0.925-0.611-2.285,0.314-3.037
					c0.926-0.756,2.286-0.612,3.038,0.313c0.537,0.66,1.127,1.284,1.754,1.854c0.881,0.803,0.946,2.168,0.143,3.05
					C139.258,69.285,138.674,69.523,138.088,69.523z M169.328,60.215c-0.159,0-0.321-0.018-0.482-0.055
					c-1.162-0.266-1.889-1.423-1.623-2.586c0.187-0.824,0.316-1.674,0.382-2.528c0.09-1.191,1.133-2.077,2.318-1.988
					c1.188,0.091,2.078,1.129,1.986,2.318c-0.081,1.065-0.242,2.128-0.478,3.159C171.203,59.536,170.313,60.215,169.328,60.215z
					 M132.039,58.344c-1.039,0-1.954-0.751-2.128-1.81c-0.169-1.035-0.27-2.096-0.298-3.153c-0.034-1.192,0.907-2.185,2.099-2.217
					c1.178-0.056,2.184,0.908,2.217,2.099c0.024,0.864,0.105,1.73,0.245,2.572c0.193,1.177-0.604,2.287-1.782,2.48
					C132.272,58.335,132.156,58.344,132.039,58.344z M168.056,47.553c-0.813,0-1.591-0.462-1.958-1.247
					c-0.356-0.761-0.776-1.503-1.25-2.203c-0.669-0.987-0.409-2.33,0.578-2.998c0.985-0.667,2.329-0.411,2.998,0.578
					c0.602,0.889,1.136,1.83,1.587,2.797c0.505,1.08,0.037,2.365-1.043,2.87C168.673,47.488,168.362,47.553,168.056,47.553z
					 M134.171,45.833c-0.364,0-0.732-0.092-1.07-0.285c-1.036-0.592-1.394-1.911-0.803-2.946c0.527-0.923,1.129-1.815,1.789-2.65
					c0.738-0.936,2.094-1.096,3.032-0.356c0.936,0.739,1.095,2.097,0.356,3.033c-0.527,0.667-1.008,1.379-1.429,2.117
					C135.649,45.442,134.921,45.833,134.171,45.833z M159.141,38.469c-0.344,0-0.693-0.083-1.018-0.256
					c-0.273-0.146-0.548-0.286-0.828-0.422c-0.436-0.212-0.9-0.392-1.418-0.549c-1.141-0.345-1.787-1.55-1.441-2.692
					c0.347-1.141,1.559-1.782,2.692-1.441c0.741,0.224,1.415,0.486,2.061,0.801c0.329,0.161,0.655,0.325,0.973,0.496
					c1.051,0.563,1.448,1.872,0.884,2.923C160.656,38.055,159.911,38.469,159.141,38.469z M143.78,37.52
					c-0.867,0-1.687-0.528-2.016-1.387c-0.427-1.113,0.129-2.362,1.243-2.789c1.009-0.387,2.054-0.692,3.102-0.907
					c1.158-0.239,2.308,0.514,2.547,1.683c0.239,1.168-0.514,2.309-1.684,2.548c-0.817,0.167-1.631,0.405-2.419,0.707
					C144.299,37.474,144.037,37.52,143.78,37.52z"/>
			</g>
		</g>
	</g>
</g>
<g id="Layer_1">
</g>
</svg>
