<?xml version="1.0" encoding="iso-8859-1"?>
<!-- Generator: Adobe Illustrator 21.0.2, SVG Export Plug-In . SVG Version: 6.00 Build 0)  -->
<svg version="1.1" xmlns="http://www.w3.org/2000/svg" xmlns:xlink="http://www.w3.org/1999/xlink" x="0px" y="0px"
	 viewBox="0 0 202.944 180.74" style="enable-background:new 0 0 202.944 180.74;" xml:space="preserve">
<g id="_x39_5">
	<g>
		<g>
			<path style="fill:#E0DFE6;" d="M88.866,109.478c-0.242-4.318-0.442-8.709-1.618-12.889c-1.151-4.091-6.532-3.645-7.867,0
				c-1.494,4.079-1.829,8.567-1.907,12.889c-0.077,4.259-0.71,8.67,2.732,11.738c1.8,1.604,4.869,1.983,6.624,0
				C90.019,117.612,89.119,113.985,88.866,109.478z"/>
			<path style="fill:#E0DFE6;" d="M144.724,65.069c-1.599-6.667-2.818-18.242-9.436-21.873c-0.425-0.233-1.094-0.22-1.431,0.185
				c-1.338,1.607-2.063,3.573-2.404,5.712c-0.871-5.281-1.707-10.568-2.512-15.86c-1.378-9.064-1.143-21.574-6.634-29.157
				c-1.334-1.843-3.778-1.472-4.604,0.602c-3.495,8.779,0.073,20.744,1.389,29.824c1.612,11.116,3.491,22.195,5.468,33.251
				c0.518,2.898,2.819,3.896,5.052,3.527c-0.08,1.768-0.597,3.312-0.732,5.019c-0.126,1.595-0.044,3.206,0.087,4.798
				c0.039,0.474,0.125,0.936,0.251,1.38c-1.921,0.235-3.858,0.545-5.851,0.776c-5.623,0.651-11.258,1.176-16.888,1.761
				c-10.643,1.106-21.029,2.608-31.562,4.443c-0.734,0.128-1.193,0.694-1.374,1.359c-3.308,0.075-6.558,0.609-8.942,2.715
				c-1.198,1.059-1.409,3.174-0.582,4.508c3.243,5.225,11.202,5.381,16.646,5.806c5.336,0.417,7.274-5.175,5.663-9.126
				c2.247,0.204,4.493,0.384,6.742,0.516c-1.264,1.244-2.073,3.011-2.033,5.308c0.095,5.544,0.152,11.089,0.366,16.63
				c0.107,2.772,0.238,5.544,0.357,8.315c0.019,0.44-0.082,1.487-0.156,2.522c-0.55,0.084-1.119,0.131-1.679,0.195
				c2.423-3.342,0.816-9.176-4.298-8.984c-8.158,0.307-16.413,2.531-24.448,3.942c-7.365,1.293-16.658,2.014-22.879,6.414
				c-0.683,0.483-1.069,1.146-1.184,1.829c-3.583,0.398-7.159,0.931-10.734,1.728c-2.706,0.603-2.38,4.394,0,5.161
				c19.43,6.262,41.53,4.307,61.627,2.82c7.428-0.55,15.559,0.003,17.137-8.845c0.68-3.812,1.015-7.771,1.185-11.773
				c3.229,3.526,10.819,2.232,10.758-3.945c-0.04-4.119-0.06-8.323-0.541-12.447c5.105,0.239,10.258-0.614,15.307-1.245
				c5.567-0.695,11.082-0.313,15.454-4.16c1.259-1.108,1.729-2.878,1.504-4.551c0.338-0.441,0.602-0.948,0.751-1.521
				C151.73,84.312,146.691,73.268,144.724,65.069z M106.974,96.576c-0.203,0.647-0.372,1.302-0.537,1.958
				c-0.261-1.182-0.792-2.171-1.5-2.973c0.84-0.003,1.681-0.007,2.526-0.022C107.268,95.851,107.095,96.189,106.974,96.576z
				 M114.983,96.52c-0.12-0.361-0.278-0.685-0.463-0.979c0.71,0.007,1.428,0.014,2.149,0.019
				C116.097,95.865,115.534,96.183,114.983,96.52z"/>
			<path style="fill:#E0DFE6;" d="M187.251,117.432c-1.543-5.497-2.909-10.984-5.4-16.137c-3.235-6.692-13.485-1.92-11.726,4.943
				c1.157,4.514,3.169,8.775,4.775,13.15c0.065,0.176,0.141,0.372,0.224,0.578c-4.273-0.963-8.138,0.288-12.566,1.132
				c-5.461,1.041-10.9,2.181-16.354,3.258c-11.198,2.211-21.396,4.481-32.079,8.407c-0.499,0.183-0.705,0.58-0.685,0.967
				c-1.65,0.509-3.26,1.103-4.804,1.832c-1.055,0.498-1.108,2.374,0,2.855c8.841,3.833,19.325,3.183,28.772,2.947
				c11.175-0.279,22.313-1.046,33.444-2.058c6.837-0.622,19.093,0.426,19.561-9.2C190.61,126.071,188.328,121.268,187.251,117.432z"
				/>
			<path style="fill:#E0DFE6;" d="M171.498,106.846c-2.936-11.707-5.257-23.546-8.471-35.185
				c-2.67-9.665-4.498-21.655-10.891-29.644c-1.034-1.293-2.841-0.098-2.956,1.224c-0.902,10.321,4.258,21.907,6.805,31.805
				c2.89,11.233,6.165,22.371,8.455,33.746C165.361,113.373,172.653,111.453,171.498,106.846z"/>
		</g>
		<g>
			<g>
				<path style="fill:#525D7D;" d="M64.65,94.721c-0.64,0-1.246-0.283-1.657-0.775c-0.413-0.493-0.583-1.145-0.467-1.777
					c0.249-1.347,0.561-2.695,0.874-4.039c0.299-1.289,0.6-2.576,0.836-3.859c0.277-1.186,1.534-6.519,7.85-33.311L83.687,1.753
					c0.238-1.006,1.151-1.713,2.189-1.661c5.045,0.204,10.268,0.303,15.969,0.303c7.15,0,14.477-0.132,21.776-0.393
					c1.034-0.037,1.988,0.697,2.195,1.737c0.863,4.34,1.68,9.298,2.626,15.038c2.78,16.874,6.589,39.983,15.804,74.017
					c0.175,0.646,0.041,1.337-0.364,1.869c-0.404,0.533-1.033,0.848-1.702,0.854c-12.154,0.099-24.471,0.346-36.384,0.587
					C92.338,94.374,78.421,94.654,64.65,94.721z M87.482,4.473L76.29,51.951c-4.256,18.05-7.8,33.086-7.828,33.205
					c-0.227,1.246-0.54,2.598-0.855,3.953c-0.099,0.427-0.198,0.853-0.295,1.28c12.857-0.088,25.827-0.349,38.398-0.602
					c11.014-0.222,22.375-0.451,33.643-0.562c-8.749-32.773-12.45-55.23-15.172-71.746c-0.81-4.918-1.526-9.258-2.252-13.098
					c-6.738,0.221-13.485,0.332-20.084,0.332C96.751,4.712,92.034,4.633,87.482,4.473z"/>
			</g>
			<g>
				<path style="fill:#525D7D;" d="M79.031,72.367c-3.091,0-6.183-0.02-9.279-0.062c-1.192-0.017-2.145-0.997-2.129-2.189
					c0.017-1.193,0.967-2.122,2.189-2.129c3.074,0.043,6.147,0.062,9.218,0.062c14.668,0,29.565-0.453,43.971-0.892
					c4.464-0.136,8.929-0.271,13.397-0.395c1.175-0.053,2.185,0.906,2.218,2.099c0.033,1.192-0.907,2.185-2.099,2.218
					c-4.465,0.123-8.926,0.259-13.385,0.394C108.695,71.913,93.765,72.367,79.031,72.367z"/>
			</g>
			<g>
				<path style="fill:#525D7D;" d="M88.599,134.661c-22.523-0.074-44.528-0.353-67.279-0.853c-0.665-0.015-1.286-0.335-1.684-0.868
					c-0.397-0.533-0.527-1.219-0.351-1.861c4.754-17.356,17.256-60.991,30.636-91.241c0.342-0.774,1.105-1.276,1.95-1.286
					c4.024-0.044,8.048-0.112,12.072-0.18c4.281-0.073,8.562-0.146,12.843-0.19c1.205,0,2.169,0.952,2.181,2.137
					c0.012,1.192-0.945,2.168-2.137,2.181c-4.27,0.044-8.541,0.116-12.812,0.189c-3.568,0.06-7.136,0.121-10.705,0.165
					c-12.415,28.466-24.013,68.235-29.128,86.696c21.018,0.446,41.442,0.703,62.267,0.784c0.029-4.237,0.089-8.475,0.148-12.711
					c0.081-5.715,0.164-11.625,0.164-17.43c0-2.63-0.017-5.259-0.059-7.889c-0.019-1.192,0.933-2.174,2.125-2.193
					c1.17-0.028,2.174,0.932,2.193,2.125c0.042,2.652,0.059,5.306,0.059,7.958c0,5.836-0.084,11.76-0.165,17.491
					c-0.07,4.942-0.139,9.884-0.159,14.825C90.754,133.699,89.788,134.661,88.599,134.661z"/>
			</g>
			<g>
				<path style="fill:#525D7D;" d="M125.71,135.81c-6.546,0-13.115-0.112-19.522-0.334c-1.15-0.039-2.066-0.974-2.085-2.125
					c-0.028-1.836-0.041-3.672-0.041-5.509c0-7.347,0.204-14.801,0.401-22.01c0.127-4.649,0.254-9.298,0.33-13.947
					c0.02-1.192,1.043-2.105,2.194-2.124c1.192,0.02,2.143,1.002,2.124,2.194c-0.076,4.665-0.204,9.33-0.331,13.995
					c-0.196,7.18-0.399,14.604-0.399,21.892c0,1.129,0.005,2.257,0.015,3.385c22.235,0.685,45.432,0.026,68.797-1.955
					c-6.506-20.437-12.649-41.379-18.597-61.661c-2.401-8.186-4.8-16.364-7.222-24.515c-4.975-0.162-10.362-0.234-17.203-0.234
					l-3.734,0.006c-1.196,0-2.162-0.962-2.166-2.152c-0.004-1.192,0.959-2.162,2.152-2.166l3.748-0.006
					c7.611,0,13.442,0.089,18.909,0.29c0.925,0.034,1.725,0.654,1.99,1.541c2.575,8.65,5.121,17.33,7.67,26.021
					c6.191,21.108,12.593,42.936,19.388,64.133c0.2,0.625,0.106,1.307-0.257,1.853c-0.363,0.546-0.954,0.898-1.607,0.957
					C161.863,134.979,143.509,135.81,125.71,135.81z"/>
			</g>
			<g>
				<path style="fill:#525D7D;" d="M87.389,134.657c-0.902,0-1.744-0.57-2.047-1.473c-2.409-7.177-5.417-15.238-6.845-19.012
					c-1.421,0.022-2.843,0.046-4.265,0.07c-4.466,0.075-9.085,0.153-13.637,0.153c-6.571,0-13.621-0.108-33.421-1.442
					c-1.19-0.08-2.089-1.11-2.009-2.299c0.08-1.19,1.103-2.091,2.299-2.009c19.667,1.324,26.64,1.432,33.132,1.432
					c4.516,0,9.116-0.077,13.564-0.153c1.93-0.032,3.86-0.065,5.79-0.092c0.916,0.048,1.725,0.543,2.046,1.39
					c1.037,2.718,4.637,12.237,7.439,20.589c0.38,1.13-0.229,2.354-1.36,2.733C87.848,134.62,87.616,134.657,87.389,134.657z"/>
			</g>
			<g>
				<path style="fill:#525D7D;" d="M107.268,135.512c-0.264,0-0.531-0.048-0.791-0.151c-1.109-0.437-1.654-1.691-1.217-2.801
					c2.649-6.718,6.124-15.215,8.574-21.162c0.321-0.78,1.068-1.302,1.911-1.335c19.474-0.766,38.544-1.494,57.73-1.968
					c1.236-0.056,2.182,0.913,2.212,2.105c0.03,1.192-0.913,2.182-2.105,2.212c-18.703,0.462-37.305,1.166-56.283,1.912
					c-2.397,5.829-5.568,13.597-8.022,19.821C108.943,134.994,108.129,135.512,107.268,135.512z"/>
			</g>
			<g>
				<path style="fill:#525D7D;" d="M98.955,180.74c-1.183,0-2.147-0.953-2.158-2.139c-0.011-1.192,0.946-2.168,2.139-2.18
					c0.942-0.009,1.89-0.027,2.841-0.053c1.189-0.032,2.185,0.907,2.218,2.099c0.033,1.192-0.907,2.185-2.099,2.218
					C100.918,180.712,99.945,180.731,98.955,180.74z M88.888,180.483c-0.045,0-0.09-0.001-0.136-0.004
					c-0.902-0.056-1.796-0.121-2.685-0.195l-0.228-0.019c-1.188-0.098-2.073-1.14-1.976-2.328c0.098-1.188,1.146-2.073,2.328-1.976
					l0.251,0.021c0.843,0.071,1.707,0.133,2.578,0.188c1.19,0.074,2.095,1.098,2.021,2.288
					C90.969,179.601,90.019,180.483,88.888,180.483z M111.897,180.093c-1.106,0-2.048-0.845-2.149-1.967
					c-0.106-1.188,0.771-2.236,1.959-2.342c0.942-0.084,1.886-0.176,2.832-0.275c1.191-0.127,2.249,0.734,2.374,1.92
					c0.125,1.186-0.734,2.249-1.92,2.374c-0.969,0.103-1.936,0.196-2.902,0.283C112.026,180.09,111.961,180.093,111.897,180.093z
					 M76.005,179.105c-0.105,0-0.21-0.007-0.317-0.023c-0.964-0.141-1.928-0.292-2.892-0.452c-1.176-0.195-1.973-1.307-1.778-2.482
					c0.195-1.177,1.311-1.971,2.482-1.778c0.939,0.155,1.878,0.302,2.816,0.441c1.18,0.174,1.995,1.27,1.822,2.45
					C77.981,178.333,77.059,179.105,76.005,179.105z M124.754,178.474c-1.04,0-1.956-0.753-2.128-1.813
					c-0.191-1.177,0.608-2.286,1.784-2.477c0.937-0.152,1.872-0.312,2.806-0.479c1.172-0.21,2.296,0.572,2.505,1.746
					c0.209,1.174-0.572,2.295-1.746,2.505c-0.957,0.171-1.915,0.335-2.872,0.49C124.986,178.465,124.869,178.474,124.754,178.474z
					 M63.253,176.718c-0.159,0-0.32-0.018-0.481-0.054c-0.95-0.216-1.896-0.44-2.838-0.672c-1.158-0.285-1.866-1.455-1.581-2.612
					c0.285-1.158,1.457-1.868,2.612-1.581c0.919,0.226,1.839,0.444,2.763,0.654c1.162,0.264,1.891,1.421,1.627,2.584
					C65.129,176.038,64.238,176.718,63.253,176.718z M137.466,175.941c-0.977,0-1.863-0.668-2.099-1.661
					c-0.276-1.16,0.442-2.324,1.602-2.6c0.925-0.219,1.846-0.446,2.764-0.679c1.16-0.297,2.331,0.405,2.624,1.56
					c0.294,1.156-0.405,2.33-1.56,2.624c-0.94,0.239-1.884,0.471-2.83,0.696C137.799,175.922,137.631,175.941,137.466,175.941z
					 M50.749,173.341c-0.216,0-0.435-0.032-0.652-0.101c-0.931-0.294-1.857-0.595-2.776-0.905c-1.13-0.38-1.738-1.605-1.358-2.735
					c0.38-1.129,1.605-1.737,2.735-1.358c0.894,0.301,1.794,0.594,2.7,0.881c1.137,0.359,1.767,1.572,1.408,2.709
					C52.515,172.752,51.665,173.341,50.749,173.341z M149.956,172.478c-0.914,0-1.763-0.586-2.056-1.503
					c-0.363-1.136,0.264-2.35,1.4-2.713c0.905-0.29,1.804-0.586,2.697-0.889c1.128-0.386,2.355,0.219,2.739,1.349
					c0.384,1.129-0.22,2.355-1.349,2.739c-0.918,0.313-1.843,0.618-2.774,0.914C150.395,172.445,150.173,172.478,149.956,172.478z
					 M38.581,168.886c-0.28,0-0.564-0.055-0.838-0.17c-0.907-0.382-1.803-0.774-2.689-1.174c-1.087-0.49-1.571-1.769-1.08-2.856
					c0.489-1.087,1.768-1.572,2.855-1.08c0.853,0.384,1.717,0.762,2.591,1.13c1.099,0.463,1.614,1.73,1.151,2.828
					C40.223,168.39,39.423,168.886,38.581,168.886z M162.119,168.01c-0.843,0-1.645-0.498-1.991-1.324
					c-0.462-1.099,0.055-2.365,1.155-2.826c0.876-0.368,1.742-0.744,2.6-1.126c1.087-0.485,2.366,0.005,2.851,1.093
					c0.486,1.089-0.003,2.366-1.093,2.851c-0.886,0.395-1.781,0.783-2.687,1.162C162.681,167.956,162.398,168.01,162.119,168.01z
					 M26.957,163.167c-0.365,0-0.734-0.093-1.072-0.287c-0.86-0.493-1.706-0.997-2.534-1.508c-1.015-0.627-1.329-1.957-0.703-2.972
					c0.627-1.015,1.958-1.328,2.971-0.703c0.79,0.488,1.595,0.967,2.414,1.438c1.034,0.593,1.392,1.913,0.798,2.947
					C28.433,162.778,27.705,163.167,26.957,163.167z M173.782,162.368c-0.758,0-1.493-0.399-1.888-1.108
					c-0.581-1.041-0.207-2.356,0.834-2.937c0.827-0.462,1.64-0.931,2.44-1.408c1.025-0.611,2.349-0.275,2.96,0.75
					c0.61,1.024,0.275,2.349-0.749,2.959c-0.835,0.498-1.685,0.988-2.548,1.47C174.499,162.279,174.137,162.368,173.782,162.368z
					 M16.289,155.843c-0.486,0-0.975-0.164-1.379-0.499c-0.775-0.645-1.525-1.3-2.248-1.966c-0.878-0.808-0.934-2.173-0.127-3.05
					c0.805-0.877,2.173-0.935,3.05-0.127c0.671,0.617,1.366,1.225,2.085,1.823c0.917,0.763,1.042,2.124,0.28,3.04
					C17.523,155.578,16.909,155.843,16.289,155.843z M184.602,155.264c-0.642,0-1.278-0.285-1.704-0.831
					c-0.734-0.94-0.567-2.297,0.374-3.031c0.74-0.578,1.46-1.165,2.158-1.76c0.907-0.774,2.271-0.667,3.044,0.241
					c0.774,0.907,0.666,2.27-0.241,3.044c-0.746,0.636-1.513,1.262-2.304,1.879C185.535,155.115,185.067,155.264,184.602,155.264z
					 M7.488,146.404c-0.688,0-1.365-0.328-1.783-0.938c-0.585-0.854-1.131-1.723-1.623-2.582c-0.593-1.035-0.233-2.354,0.801-2.946
					c1.036-0.594,2.355-0.233,2.946,0.801c0.434,0.759,0.918,1.528,1.437,2.286c0.674,0.984,0.423,2.328-0.56,3.002
					C8.334,146.282,7.908,146.404,7.488,146.404z M193.861,146.254c-0.471,0-0.945-0.153-1.343-0.469
					c-0.933-0.742-1.087-2.101-0.345-3.034c0.569-0.716,1.115-1.453,1.623-2.19c0.676-0.981,2.022-1.229,3.003-0.555
					c0.982,0.676,1.23,2.021,0.555,3.003c-0.564,0.819-1.17,1.636-1.801,2.43C195.125,145.975,194.496,146.254,193.861,146.254z
					 M200.006,134.966c-0.211,0-0.424-0.031-0.637-0.096c-1.139-0.351-1.778-1.56-1.427-2.7c0.262-0.849,0.481-1.712,0.652-2.565
					c0.235-1.169,1.37-1.926,2.541-1.692c1.169,0.234,1.927,1.372,1.692,2.541c-0.2,0.994-0.455,2-0.759,2.988
					C201.783,134.369,200.929,134.966,200.006,134.966z M2.495,134.585c-1.03,0-1.941-0.739-2.124-1.789
					c-0.178-1.021-0.301-2.058-0.367-3.083c-0.076-1.19,0.828-2.216,2.018-2.292c1.178-0.082,2.215,0.827,2.292,2.018
					c0.056,0.869,0.159,1.749,0.311,2.615c0.205,1.175-0.581,2.293-1.756,2.498C2.743,134.574,2.619,134.585,2.495,134.585z
					 M200.782,122.2c-0.987,0-1.878-0.682-2.104-1.685c-0.184-0.817-0.436-1.636-0.748-2.437c-0.434-1.111,0.115-2.363,1.225-2.796
					c1.111-0.436,2.364,0.115,2.797,1.225c0.391,1.003,0.707,2.032,0.938,3.059c0.262,1.163-0.469,2.319-1.632,2.581
					C201.099,122.183,200.939,122.2,200.782,122.2z M3.53,121.83c-0.23,0-0.464-0.037-0.694-0.115
					c-1.129-0.383-1.734-1.609-1.351-2.738c0.321-0.947,0.699-1.91,1.124-2.863c0.485-1.09,1.761-1.579,2.851-1.094
					c1.089,0.485,1.579,1.761,1.094,2.851c-0.37,0.832-0.7,1.671-0.979,2.494C5.27,121.263,4.43,121.83,3.53,121.83z
					 M194.359,111.147c-0.562,0-1.124-0.218-1.547-0.653c-0.611-0.627-1.273-1.256-1.968-1.869c-0.894-0.789-0.98-2.153-0.191-3.047
					c0.789-0.893,2.154-0.98,3.047-0.191c0.777,0.684,1.518,1.389,2.205,2.095c0.831,0.854,0.814,2.221-0.041,3.053
					C195.445,110.943,194.902,111.147,194.359,111.147z M9.871,110.609c-0.474,0-0.951-0.155-1.349-0.474
					c-0.93-0.746-1.08-2.105-0.334-3.035c0.614-0.765,1.262-1.529,1.947-2.287c0.8-0.886,2.163-0.955,3.049-0.157
					c0.886,0.799,0.955,2.164,0.157,3.05c-0.627,0.695-1.221,1.394-1.784,2.096C11.13,110.332,10.503,110.609,9.871,110.609z
					 M184.189,103.159c-0.411,0-0.826-0.117-1.193-0.361c-0.785-0.522-1.576-1.035-2.374-1.541
					c-1.008-0.638-1.307-1.972-0.668-2.979c0.638-1.008,1.97-1.307,2.979-0.668c0.826,0.523,1.644,1.054,2.454,1.593
					c0.993,0.661,1.262,2.001,0.602,2.993C185.573,102.821,184.888,103.159,184.189,103.159z M19.123,101.583
					c-0.64,0-1.274-0.284-1.7-0.826c-0.736-0.939-0.572-2.296,0.366-3.031c0.766-0.6,1.557-1.194,2.374-1.782
					c0.971-0.695,2.319-0.473,3.014,0.493c0.696,0.968,0.475,2.317-0.493,3.014c-0.767,0.551-1.511,1.108-2.229,1.672
					C20.059,101.433,19.589,101.583,19.123,101.583z M173.05,96.559c-0.337,0-0.678-0.079-0.998-0.246
					c-0.537-0.281-1.077-0.559-1.621-0.833c-1.064-0.537-1.492-1.836-0.955-2.9c0.538-1.065,1.839-1.489,2.9-0.955
					c0.562,0.284,1.121,0.571,1.676,0.861c1.056,0.552,1.465,1.857,0.914,2.914C174.58,96.137,173.829,96.559,173.05,96.559z
					 M29.968,94.53c-0.767,0-1.51-0.41-1.9-1.131c-0.568-1.049-0.178-2.359,0.869-2.927c0.852-0.461,1.722-0.915,2.613-1.362
					c1.065-0.536,2.364-0.104,2.898,0.962c0.535,1.066,0.104,2.363-0.962,2.898c-0.849,0.426-1.68,0.859-2.492,1.299
					C30.668,94.445,30.316,94.53,29.968,94.53z"/>
			</g>
		</g>
	</g>
</g>
<g id="Layer_1">
</g>
</svg>
