<?xml version="1.0" encoding="iso-8859-1"?>
<!-- Generator: Adobe Illustrator 21.0.2, SVG Export Plug-In . SVG Version: 6.00 Build 0)  -->
<svg version="1.1" xmlns="http://www.w3.org/2000/svg" xmlns:xlink="http://www.w3.org/1999/xlink" x="0px" y="0px"
	 viewBox="0 0 235.307 211.574" style="enable-background:new 0 0 235.307 211.574;" xml:space="preserve">
<g id="_x39_6">
	<g>
		<g>
			<path style="fill:#E0DFE6;" d="M49.658,107.918c-3.878-6.885-14.66-3.747-14.7,3.982c-0.024,4.55-0.705,9.966-5.379,12.062
				c-5.763,2.584-11.282-1.114-16.926-2.004c-4.746-0.748-7.995,3.396-5.996,7.799c5.207,11.472,21.95,13.82,32.108,8.155
				C48.22,132.638,55.363,118.047,49.658,107.918z"/>
			<path style="fill:#E0DFE6;" d="M76.082,52.779c-2.779-7.108-11.533-6.961-14.366,0c-2.491,6.121-4.14,11.85-12.333,10.403
				c-3.56-0.629-12.461-7.38-15.144-1.779C28.816,72.72,47.585,80.006,55.95,79.121C67.426,77.906,80.96,65.256,76.082,52.779z"/>
			<path style="fill:#E0DFE6;" d="M137.099,27.421c-0.497-9.057-12.914-10.89-15.778-2.135c-1.529,4.674-2.826,8.06-7.728,10.026
				c-4.996,2.004-8.957,0.461-13.895-0.366c-3.947-0.661-7.833,2.366-6.659,6.659c2.859,10.457,17.156,11.694,25.917,9.129
				C128.8,47.85,137.683,38.072,137.099,27.421z"/>
			<path style="fill:#E0DFE6;" d="M195.332,38.521c-2.402-5.804-10.096-7.76-13.769-1.8c-0.903,1.464-1.365,3.258-2.353,4.647
				c-1.33,1.87-3.827,3.499-5.734,4.679c-3.67,2.271-6.064,2.36-9.923,0.798c-3.524-1.427-7.406,2.164-7.341,5.592
				c0.211,11.041,14.131,12.454,22.116,9.369C186.788,58.538,199.761,49.223,195.332,38.521z"/>
			<path style="fill:#E0DFE6;" d="M235.222,104.398c-0.919-8.872-13.448-11.674-16.217-2.195c-1.101,3.771-1.846,7.261-6.059,8.557
				c-4.161,1.28-9.589,0.107-13.789-0.665c-4.809-0.884-9.534,3.966-6.668,8.674c5.082,8.347,18.303,10.313,27.002,7.588
				C228.344,123.585,236.214,113.977,235.222,104.398z"/>
			<path style="fill:#E0DFE6;" d="M149.902,142.088c-2.28-0.22-3.936,2.402-3.362,4.414c0.42,1.472,0.961,2.851,1.519,4.196
				c-1.425,0.886-2.503,2.349-2.857,4.546c-1.362,8.464,0.251,15.524-4.487,23.405c-3.469,5.77-8.785,10.612-15.012,13.259
				c-13.797,5.864-25.244-2.393-37.047-8.474c-2.647-1.364-6.148,0.288-6.091,3.495c0.416,23.343,32.027,28.783,49.269,21.833
				c9.921-3.999,18.2-11.086,23.937-20.105c1.187-1.865,2.356-4.039,3.416-6.387C171.715,172.115,167.776,143.815,149.902,142.088z"
				/>
			<path style="fill:#E0DFE6;" d="M113.337,145.851c-3.477-2.687-7.986-0.901-10.589,2.108c-2.323,2.685-4.261,6.375-2.371,9.83
				c0.812,1.484,2.815,2.299,4.435,1.805c1.556-0.474,2.576-1.436,3.764-2.468c0.215-0.187,0.423-0.381,0.631-0.577
				c0.033-0.032,0.043-0.038,0.07-0.063c0.433-0.275,0.857-0.549,1.315-0.786C114.072,153.894,117.455,149.033,113.337,145.851z"/>
			<path style="fill:#E0DFE6;" d="M150.748,82.854c-5.357,0.617-9.491,3.512-14.073,6.209c-5.634,3.316-11.269,6.631-16.903,9.947
				c-3.433,2.02-6.903,3.352-8.159,7.273c-0.692-0.824-1.718-1.484-3.127-1.847c-5.963-1.536-12.081-2.497-18.07-3.981
				c-5.454-1.351-10.822-3.554-16.344-4.527c-9.333-1.644-12.317,4.016-19.727,8.079c-1.423,0.78-0.462,3.124,1.112,2.637
				c3.216-0.995,5.766-3.011,8.808-4.318c6.025-2.588,8.741,1.04,13.871,3.749c8.38,4.424,17.808,8.378,27.219,9.722
				c2.202,0.314,4.041-0.434,5.339-1.671c0.092,2.127,0.425,4.231,1.003,6.154c0.655,2.181,3.629,2.08,4.328,0
				c1.065-3.168,0.622-9.246,2.579-11.831c2.44-3.223,9.96-5.788,13.481-7.807c7.002-4.013,15.985-7.36,20.844-13.99
				C154.002,85.187,152.576,82.644,150.748,82.854z"/>
			<path style="fill:#E0DFE6;" d="M117.277,78.733c-0.521-5.853,0.186-13.446-3.528-18.298c-0.903-1.18-2.857-1.93-4.028-0.519
				c-3.962,4.769-3.55,11.554-3.644,17.51c-0.106,6.631-1.292,15.067,2.56,20.738c1.813,2.669,6.892,3.666,8.444,0
				C119.731,91.9,117.87,85.386,117.277,78.733z"/>
			<path style="fill:#E0DFE6;" d="M100.206,91.443c-3.39-6.45-10.817-4.205-16.296-7.32c-4.954-2.817-7.433-8.632-11.926-12.009
				c-1.658-1.246-3.785,0.473-3.859,2.215c-0.281,6.565,3.622,13.854,8.492,18.055c4.896,4.223,14.628,7.724,20.979,5.477
				C100.322,96.895,101.587,94.071,100.206,91.443z"/>
			<path style="fill:#E0DFE6;" d="M177.994,89.148c-0.898-2.239-2.484-3.641-4.955-3.772c-4.921-0.263-9.424,0.262-14.165-0.306
				c0.55-0.292,1.046-0.734,1.424-1.39c1.736-3.007,1.503-5.83,1.149-9.161c-0.336-3.162-0.579-6.307-1.091-9.445
				c-0.525-3.224-5.637-3.767-7.032-0.919c-2.753,5.621-4.684,15.705,0.976,20.214c-2.538,0.282-4.036,4.114-1.272,5.409
				c5.994,2.807,13.268,6.157,20.01,5.876c2.377-0.099,4.209-1.545,4.955-3.772C178.3,90.965,178.359,90.057,177.994,89.148z"/>
		</g>
		<g>
			<g>
				<path style="fill:#525D7D;" d="M110.201,184.754c-4.232,0-8.24-0.669-11.91-1.99c-1.122-0.403-1.704-1.64-1.3-2.762
					c0.403-1.122,1.64-1.707,2.762-1.3c3.199,1.151,6.715,1.735,10.448,1.735c6.989,0,20.207-1.989,20.207-9.515
					c0-3.659-2.97-7.598-9.492-7.598c-1.704,0-3.396,0.195-5.188,0.401c-1.831,0.211-3.726,0.429-5.672,0.429
					c-8.366,0-13.164-2.928-13.164-8.033c0-7.118,10.198-14.738,25.377-14.738c1.962,0,4.024,0.114,6.127,0.34
					c1.185,0.127,2.044,1.191,1.916,2.377c-0.126,1.186-1.193,2.035-2.377,1.916c-1.951-0.21-3.857-0.315-5.666-0.315
					c-13.047,0-21.059,6.07-21.059,10.42c0,3.447,6.771,3.715,8.846,3.715c1.698,0,3.389-0.194,5.178-0.401
					c1.834-0.211,3.731-0.429,5.681-0.429c9.066,0,13.81,5.994,13.81,11.916C134.727,180.476,122.409,184.754,110.201,184.754z"/>
			</g>
			<g>
				<path style="fill:#525D7D;" d="M114.397,146.027c-0.874,0-1.697-0.534-2.021-1.401c-1.065-2.841-1.448-5.922-1.787-8.639
					l-0.056-0.457c-0.148-1.184,0.691-2.263,1.874-2.411c1.179-0.142,2.263,0.69,2.411,1.874l0.058,0.462
					c0.323,2.601,0.658,5.291,1.543,7.655c0.419,1.116-0.146,2.36-1.264,2.779C114.906,145.984,114.649,146.027,114.397,146.027z"/>
			</g>
			<g>
				<path style="fill:#525D7D;" d="M119.906,191.813c-0.791,0-1.555-0.437-1.933-1.193c-0.647-1.293-0.788-2.661-0.914-3.867
					c-0.118-1.13-0.219-2.107-0.672-2.787c-0.662-0.992-0.392-2.332,0.6-2.993c0.987-0.664,2.332-0.395,2.993,0.6
					c1.044,1.566,1.219,3.248,1.373,4.733c0.097,0.922,0.187,1.792,0.482,2.383c0.533,1.067,0.1,2.364-0.966,2.897
					C120.559,191.74,120.231,191.813,119.906,191.813z"/>
			</g>
			<g>
				<path style="fill:#525D7D;" d="M116.165,205.22c-0.225,0-0.448-0.001-0.673-0.004c-23.079-0.348-40.926-19.246-40.634-43.019
					c0.266-21.523,16.398-39.072,37.523-40.821c1.085-0.087,2.184-0.139,3.268-0.155c11.9-0.138,22.735,4.059,30.701,11.848
					c7.799,7.628,12.167,17.998,12.301,29.199c0.134,11.599-4.273,22.451-12.409,30.556
					C138.203,200.833,127.544,205.22,116.165,205.22z M112.734,125.679c-18.893,1.566-33.321,17.287-33.558,36.571
					c-0.294,23.842,18.266,38.374,36.381,38.648c10.507,0.149,20.272-3.795,27.638-11.133c7.302-7.276,11.258-17.024,11.138-27.447
					c-0.119-10.049-4.027-19.34-11.002-26.162c-7.139-6.983-16.974-10.747-27.625-10.618
					C114.72,125.551,113.72,125.599,112.734,125.679z"/>
			</g>
			<g>
				<path style="fill:#525D7D;" d="M21.728,133.714c-0.26,0-0.52-0.004-0.779-0.014c-11.855-0.441-21.056-10.388-20.948-22.645
					C0.113,98.98,9.143,89.581,21.004,89.192c1.434-0.049,2.852,0.041,4.22,0.254c1.534,0.237,2.717,0.483,3.725,0.772
					c9.426,2.683,16.012,11.414,16.012,21.231c0,5.786-2.404,11.286-6.767,15.49C33.754,131.214,27.651,133.714,21.728,133.714z
					 M21.753,93.497c-0.203,0-0.406,0.004-0.61,0.01c-9.499,0.312-16.734,7.873-16.824,17.587
					c-0.089,10.067,7.129,17.93,16.79,18.29c5.042,0.207,10.281-1.889,14.087-5.555c3.511-3.383,5.445-7.78,5.445-12.381
					c0-7.897-5.296-14.919-12.878-17.078c-0.824-0.236-1.87-0.45-3.202-0.656C23.648,93.57,22.708,93.497,21.753,93.497z"/>
			</g>
			<g>
				<path style="fill:#525D7D;" d="M51.07,70.37c-11.222,0.001-20.865-9.066-21.096-19.87c-0.246-11.299,9.024-21.162,20.247-21.543
					c0.253-0.01,0.506-0.013,0.759-0.013c5.7,0.004,11.002,2.2,14.929,6.183c3.958,4.014,6.096,9.367,6.02,15.074
					C71.766,62.565,61.053,70.297,51.221,70.37C51.172,70.37,51.12,70.37,51.07,70.37z M50.979,33.263
					c-0.198,0-0.399,0.003-0.599,0.01c-8.92,0.299-16.284,8.146-16.087,17.133c0.18,8.508,7.85,15.646,16.775,15.646
					c0.041,0,0.081,0,0.122,0c7.797-0.059,16.293-6.157,16.422-15.906c0.06-4.545-1.636-8.801-4.778-11.986
					C59.724,35.006,55.514,33.267,50.979,33.263z"/>
			</g>
			<g>
				<path style="fill:#525D7D;" d="M109.476,44.411c-6.039,0-11.717-2.373-16.007-6.692c-4.301-4.332-6.625-10.056-6.541-16.116
					c0.159-11.372,9.315-21.052,20.413-21.581c0.839-0.039,1.695-0.027,2.544,0.038c9.245,0.713,17.011,5.925,20.265,13.601
					c1.198,2.825,1.625,6.255,1.625,8.524c0.003,12.174-9.93,22.146-22.142,22.226C109.581,44.411,109.528,44.411,109.476,44.411z
					 M108.308,4.317c-0.254,0-0.509,0.007-0.761,0.018c-8.863,0.423-16.175,8.196-16.301,17.327
					c-0.069,4.89,1.809,9.512,5.287,13.015c3.501,3.527,8.073,5.44,13.072,5.416c9.846-0.065,17.854-8.098,17.852-17.908
					c0-2.317-0.503-5.001-1.282-6.837c-2.623-6.186-8.992-10.395-16.622-10.984C109.139,4.333,108.721,4.317,108.308,4.317z"/>
			</g>
			<g>
				<path style="fill:#525D7D;" d="M170.817,56.414c-0.053,0-0.107,0-0.162,0c-4.934-0.046-9.825-2.191-13.421-5.884
					c-3.759-3.86-5.779-8.989-5.686-14.444c0.174-10.191,8.372-18.729,18.273-19.032c0.884-0.027,1.771,0.011,2.647,0.112
					c5.649,0.659,10.586,3.361,13.899,7.607c2.627,3.365,4.121,8.212,3.999,12.964C190.075,48.953,180.056,56.414,170.817,56.414z
					 M170.374,21.363c-0.139,0-0.28,0.001-0.419,0.006c-7.634,0.235-13.954,6.869-14.089,14.79
					c-0.073,4.296,1.511,8.33,4.461,11.359c2.799,2.873,6.577,4.543,10.369,4.578c6.344,0.055,15.106-4.937,15.354-14.47
					c0.096-3.726-1.088-7.634-3.088-10.197c-2.598-3.329-6.502-5.451-10.995-5.974C171.439,21.394,170.905,21.363,170.374,21.363z"
					/>
			</g>
			<g>
				<path style="fill:#525D7D;" d="M209.008,119.531c-5.826,0-11.265-2.236-15.316-6.299c-4.202-4.214-6.601-9.966-6.581-15.78
					c0.035-12.377,9.342-21.762,21.647-21.831c0.043,0,0.087,0,0.129,0c3.494,0,6.947,0.822,9.996,2.383
					c5.194,2.655,9.007,7.003,10.738,12.24c0.879,2.664,1.3,5.361,1.257,8.022C230.683,110.183,221.082,119.525,209.008,119.531z
					 M208.887,79.94c-0.035,0-0.069,0-0.104,0c-9.866,0.055-17.326,7.589-17.354,17.525c-0.015,4.608,1.974,9.362,5.32,12.718
					c2.288,2.294,6.273,5.029,12.259,5.029c9.69-0.006,17.396-7.481,17.551-17.018c0.036-2.176-0.314-4.395-1.039-6.597
					c-1.372-4.152-4.428-7.614-8.604-9.749C214.473,80.599,211.699,79.94,208.887,79.94z"/>
			</g>
			<g>
				<path style="fill:#525D7D;" d="M110.39,123.544c-1.095,0-2.034-0.831-2.145-1.944c-1.621-16.213-2.443-32.235-2.443-47.624
					c0-4.842,0.08-9.728,0.24-14.523c0.039-1.191,1.078-2.146,2.229-2.086c1.192,0.039,2.125,1.037,2.086,2.229
					c-0.157,4.747-0.237,9.585-0.237,14.38c0,15.246,0.814,31.124,2.42,47.194c0.119,1.186-0.746,2.245-1.933,2.363
					C110.534,123.541,110.461,123.544,110.39,123.544z"/>
			</g>
			<g>
				<path style="fill:#525D7D;" d="M109.075,108.707c-0.215,0-0.432-0.032-0.641-0.097c-12.666-3.941-20.961-7.295-28.984-10.538
					c-3.12-1.262-6.204-2.509-9.496-3.77c-0.642-0.245-1.127-0.782-1.31-1.444l-0.443-1.61c-1.837-6.668-3.738-13.563-5.15-20.631
					c-0.235-1.169,0.524-2.307,1.694-2.54c1.163-0.24,2.307,0.524,2.54,1.694c1.383,6.916,3.262,13.734,5.079,20.33l0.155,0.561
					c2.939,1.137,5.731,2.266,8.552,3.406c7.742,3.13,15.74,6.363,27.715,10.126c2.234-1.393,4.38-2.936,6.639-4.56
					c2.377-1.709,4.834-3.475,7.477-5.111c10.992-6.805,19.288-10.815,26.782-14.247c0.11-1.037,0.222-2.073,0.335-3.108
					c0.6-5.516,1.168-10.725,1.168-16.103c0-0.831-0.014-1.663-0.043-2.498c-0.042-1.192,0.888-2.193,2.08-2.235
					c1.175-0.084,2.191,0.888,2.235,2.08c0.032,0.885,0.046,1.771,0.046,2.652c0,5.613-0.607,11.183-1.193,16.571
					c-0.156,1.432-0.312,2.868-0.458,4.308c-0.077,0.763-0.554,1.428-1.252,1.747c-7.665,3.492-16.096,7.489-27.425,14.503
					c-2.516,1.557-4.913,3.279-7.229,4.945c-2.492,1.792-5.07,3.646-7.756,5.258C109.847,108.603,109.463,108.707,109.075,108.707z"
					/>
			</g>
			<g>
				<path style="fill:#525D7D;" d="M179.464,91.978c-0.155,0-0.312-0.017-0.47-0.052c-4.135-0.918-8.167-2.047-12.065-3.139
					c-5.109-1.43-9.935-2.782-15.059-3.731c-1.172-0.216-1.947-1.344-1.729-2.516c0.216-1.172,1.338-1.952,2.516-1.729
					c5.313,0.984,10.459,2.425,15.435,3.818c3.843,1.077,7.817,2.189,11.837,3.083c1.164,0.259,1.898,1.411,1.639,2.575
					C181.346,91.293,180.455,91.978,179.464,91.978z"/>
			</g>
			<g>
				<path style="fill:#525D7D;" d="M47.611,106.093c-0.846,0-1.649-0.499-1.995-1.328c-0.458-1.101,0.062-2.366,1.162-2.824
					c7.718-3.216,15.926-6.705,23.944-10.889c1.056-0.548,2.363-0.142,2.914,0.915c0.551,1.058,0.142,2.361-0.915,2.914
					c-8.172,4.263-16.475,7.794-24.281,11.047C48.169,106.04,47.887,106.093,47.611,106.093z"/>
			</g>
			<g>
				<path style="fill:#525D7D;" d="M18.509,122.878c-0.706,0-1.407-0.024-2.101-0.06c-1.191-0.065-2.104-1.081-2.041-2.271
					c0.065-1.189,1.063-2.071,2.272-2.041c0.618,0.034,1.244,0.055,1.871,0.055c6.034,0,9.062-2.593,9.062-4.045
					c0-0.413-1.24-0.876-2.898-0.876c-0.87,0-1.805,0.163-2.794,0.335c-1.106,0.193-2.249,0.392-3.449,0.392
					c-3.915,0-5.963-2.138-5.963-4.249c0-7.676,7.762-7.676,10.312-7.676c0.983,0,1.936,0.044,2.789,0.083l0.156,0.007
					c1.192,0.053,2.113,1.064,2.058,2.255c-0.053,1.191-1.025,2.131-2.255,2.058l-0.157-0.007c-0.791-0.037-1.678-0.077-2.591-0.077
					c-5.478,0-5.949,1.556-5.989,2.966c0.237,0.136,0.76,0.323,1.64,0.323c0.826,0,1.74-0.159,2.709-0.328
					c1.126-0.197,2.293-0.399,3.535-0.399c4.384,0,7.217,2.038,7.217,5.194C31.889,119.282,26.137,122.878,18.509,122.878z"/>
			</g>
			<g>
				<path style="fill:#525D7D;" d="M49.888,59.829l-2.011-0.011c-1.192,0-2.159-0.967-2.159-2.159c0-1.192,0.967-2.159,2.159-2.159
					l2.011,0.011c5.44,0,7.079-1.792,7.193-2.235c-0.025-0.186-0.658-1.207-2.345-1.207c-0.784,0-1.697,0.141-2.662,0.29
					c-1.129,0.173-2.295,0.353-3.499,0.353c-4.251,0-6.186-2.755-6.186-5.316c0-5.027,5.455-8.03,10.729-8.03
					c1.192,0,2.159,0.967,2.159,2.159c0,1.192-0.967,2.159-2.159,2.159c-3.032,0-6.411,1.525-6.411,3.712
					c0,0.825,1.016,0.998,1.868,0.998c0.873,0,1.829-0.148,2.842-0.304c1.082-0.166,2.204-0.339,3.319-0.339
					c3.981,0,6.656,2.9,6.656,5.609C61.392,55.597,58.988,59.829,49.888,59.829z"/>
			</g>
			<g>
				<path style="fill:#525D7D;" d="M109.452,33.237c-1.352,0-2.745-0.16-4.141-0.477c-1.162-0.264-1.892-1.42-1.628-2.584
					c0.263-1.162,1.407-1.893,2.584-1.628c1.067,0.242,2.168,0.37,3.185,0.37c4.395,0,6.144-2.397,6.22-3.04
					c-0.001-0.686-0.953-2.537-5.299-2.537c-0.595,0-1.193,0.02-1.788,0.038c-0.631,0.02-1.255,0.039-1.864,0.039
					c-3.695,0-7.425-1.497-7.425-4.841c0-3.071,3.688-7.326,10.613-7.326c1.687,0,3.33,0.216,5.005,0.457
					c1.181,0.169,2,1.262,1.83,2.443c-0.169,1.181-1.272,2.002-2.443,1.83c-1.515-0.216-2.99-0.412-4.393-0.412
					c-4.227,0-5.984,2.065-6.259,2.881c0.391,0.27,1.552,0.649,3.071,0.649c0.564,0,1.143-0.018,1.728-0.037
					c0.64-0.021,1.285-0.041,1.924-0.041c7.606,0,9.616,4.502,9.616,6.882C119.989,28.98,116.327,33.237,109.452,33.237z"/>
			</g>
			<g>
				<path style="fill:#525D7D;" d="M171.588,45.618c-1.387,0-2.884-0.212-4.326-0.613c-1.15-0.319-1.822-1.51-1.503-2.658
					c0.319-1.15,1.512-1.823,2.658-1.503c1.072,0.298,2.169,0.455,3.171,0.455c3.181,0,4.498-1.611,4.588-2.066
					c-0.062-0.375-1.491-1.361-2.73-1.361l-1.206,0.003c-3.195,0-10.627-0.465-10.627-4.769c0-2.654,3.085-6.331,8.878-6.331
					c1.819,0,3.712,0.374,5.329,1.054c1.099,0.462,1.615,1.729,1.153,2.828c-0.462,1.096-1.725,1.616-2.828,1.153
					c-1.098-0.462-2.395-0.717-3.653-0.717c-2.374,0-3.722,0.952-4.275,1.608c1.134,0.436,3.624,0.856,6.023,0.856l1.206-0.003
					c2.941,0,7.044,2.182,7.044,5.734C180.49,42.346,176.913,45.618,171.588,45.618z"/>
			</g>
			<g>
				<path style="fill:#525D7D;" d="M210.702,108.637c-2.075,0-4.356-0.373-6.973-1.137c-1.144-0.335-1.801-1.534-1.466-2.678
					c0.335-1.144,1.534-1.801,2.678-1.466c2.218,0.648,4.103,0.963,5.762,0.963c2.775,0,5.593-1.368,5.593-2.352
					c-0.075-2.18-1.95-2.742-7.193-3.23c-3.892-0.363-9.224-0.86-9.224-5.781c0-2.779,3.577-6.801,10.048-6.801
					c1.985,0,4.038,0.377,5.94,1.089c1.116,0.417,1.683,1.663,1.264,2.779c-0.419,1.118-1.66,1.685-2.779,1.264
					c-1.423-0.533-2.952-0.814-4.425-0.814c-3.87,0-5.596,2.028-5.739,2.602c0.01,0.794,2.309,1.082,5.317,1.362
					c4.335,0.405,10.888,1.015,11.106,7.387C220.613,106.568,214.817,108.637,210.702,108.637z"/>
			</g>
			<g>
				<path style="fill:#525D7D;" d="M19.677,105.172c-1.008,0-1.909-0.708-2.114-1.735c-0.037-0.18-0.08-0.365-0.125-0.557
					c-0.159-0.683-0.339-1.458-0.339-2.29c0-0.333,0.03-0.658,0.091-0.97c0.232-1.169,1.369-1.93,2.538-1.698
					c1.169,0.232,1.93,1.369,1.698,2.539c-0.008,0.042-0.01,0.086-0.01,0.129c0,0.336,0.115,0.831,0.226,1.309
					c0.055,0.236,0.11,0.468,0.153,0.689c0.235,1.169-0.523,2.307-1.692,2.541C19.961,105.158,19.817,105.172,19.677,105.172z"/>
			</g>
			<g>
				<path style="fill:#525D7D;" d="M24.033,126.021c-0.904,0-1.745-0.571-2.048-1.474c-0.344-1.03-0.391-1.885-0.391-2.585
					l0.014-1.113c0-1.192,0.967-2.159,2.159-2.159c1.192,0,2.159,0.967,2.159,2.159l-0.014,1.113c0,0.462,0.027,0.793,0.169,1.216
					c0.378,1.13-0.232,2.353-1.364,2.733C24.491,125.986,24.259,126.021,24.033,126.021z"/>
			</g>
			<g>
				<path style="fill:#525D7D;" d="M48.66,43.312c-1.192,0-2.159-0.967-2.159-2.159c0-0.765-0.306-1.687-0.631-2.662
					c-0.377-1.131,0.235-2.353,1.366-2.73c1.131-0.381,2.353,0.235,2.73,1.366c0.401,1.2,0.853,2.561,0.853,4.026
					C50.819,42.345,49.852,43.312,48.66,43.312z"/>
			</g>
			<g>
				<path style="fill:#525D7D;" d="M55.533,62.818c-1.192,0-2.159-0.967-2.159-2.159c0-0.337-0.125-0.805-0.257-1.303
					c-0.094-0.354-0.187-0.707-0.257-1.061c-0.233-1.169,0.524-2.307,1.694-2.54c1.174-0.239,2.307,0.524,2.54,1.694
					c0.053,0.266,0.125,0.531,0.197,0.797c0.188,0.708,0.402,1.511,0.402,2.414C57.692,61.851,56.725,62.818,55.533,62.818z"/>
			</g>
			<g>
				<path style="fill:#525D7D;" d="M107.556,13.971c-0.97,0-1.855-0.662-2.101-1.645c-0.081-0.326-0.121-0.662-0.121-1.029
					c0-0.202,0.013-0.405,0.028-0.607c0.006-0.091,0.014-0.181,0.015-0.271c-0.445-1.044-0.006-2.267,1.025-2.779
					c1.068-0.534,2.364-0.098,2.894,0.971c0.268,0.54,0.399,1.123,0.399,1.785c0,0.201-0.013,0.403-0.027,0.606
					c-0.008,0.098-0.017,0.197-0.017,0.295c0.289,1.157-0.419,2.319-1.576,2.609C107.903,13.949,107.727,13.971,107.556,13.971z
					 M105.431,10.534h0.014H105.431z"/>
			</g>
			<g>
				<path style="fill:#525D7D;" d="M112.938,36.253c-0.144,0-0.29-0.014-0.436-0.044c-1.168-0.239-1.921-1.38-1.682-2.548
					c0.008-0.444-0.045-0.758-0.09-1.067c-0.066-0.445-0.139-0.95-0.139-1.473c0-1.192,0.967-2.159,2.159-2.159
					c1.192,0,2.159,0.967,2.159,2.159c0,0.268,0.051,0.557,0.093,0.85c0.069,0.462,0.145,0.988,0.145,1.546
					c0,0.364-0.031,0.694-0.096,1.009C114.841,35.548,113.942,36.253,112.938,36.253z"/>
			</g>
			<g>
				<path style="fill:#525D7D;" d="M170.154,30.308c-0.145,0-0.292-0.014-0.439-0.045c-1.168-0.24-1.92-1.382-1.678-2.55
					c-0.006-0.087-0.053-0.325-0.096-0.534c-0.077-0.386-0.173-0.866-0.173-1.408c0-0.277,0.025-0.552,0.079-0.826
					c0.232-1.171,1.368-1.929,2.537-1.699c1.164,0.231,1.923,1.356,1.702,2.52c0.001,0.125,0.048,0.36,0.09,0.566
					c0.077,0.387,0.173,0.867,0.173,1.41c0,0.29-0.028,0.574-0.084,0.843C172.056,29.605,171.157,30.308,170.154,30.308z"/>
			</g>
			<g>
				<path style="fill:#525D7D;" d="M173.125,49.442c-1.192,0-2.159-0.967-2.159-2.159V43.94c0-1.192,0.967-2.159,2.159-2.159
					s2.159,0.967,2.159,2.159v3.343C175.284,48.475,174.317,49.442,173.125,49.442z"/>
			</g>
			<g>
				<path style="fill:#525D7D;" d="M209.349,89.383c-1.192,0-2.159-0.967-2.159-2.159v-2.415c0-1.192,0.967-2.159,2.159-2.159
					c1.192,0,2.159,0.967,2.159,2.159v2.415C211.508,88.416,210.541,89.383,209.349,89.383z"/>
			</g>
			<g>
				<path style="fill:#525D7D;" d="M211.207,111.675c-1.192,0-2.159-0.967-2.159-2.159v-2.415c0-1.192,0.967-2.159,2.159-2.159
					s2.159,0.967,2.159,2.159v2.415C213.367,110.708,212.399,111.675,211.207,111.675z"/>
			</g>
			<g>
				<path style="fill:#525D7D;" d="M25.935,93.454c-0.202,0-0.408-0.028-0.611-0.089c-1.144-0.336-1.798-1.536-1.46-2.681
					c0.275-0.937,0.568-1.877,0.876-2.811c0.374-1.133,1.594-1.747,2.725-1.376c1.133,0.373,1.749,1.594,1.376,2.726
					c-0.294,0.893-0.572,1.787-0.836,2.682C27.727,92.845,26.867,93.454,25.935,93.454z M30.543,81.362
					c-0.316,0-0.638-0.069-0.943-0.218c-1.072-0.521-1.518-1.813-0.996-2.886c0.434-0.894,0.888-1.778,1.362-2.648
					c0.569-1.047,1.882-1.435,2.928-0.864c1.047,0.569,1.435,1.881,0.864,2.928c-0.443,0.814-0.866,1.639-1.272,2.474
					C32.113,80.915,31.342,81.362,30.543,81.362z M37.458,70.445c-0.486,0-0.975-0.163-1.379-0.499
					c-0.916-0.762-1.043-2.122-0.28-3.04c0.514-0.618,1.043-1.224,1.587-1.813c0.81-0.879,2.176-0.931,3.05-0.124
					c0.877,0.808,0.932,2.175,0.124,3.05c-0.493,0.535-0.974,1.085-1.441,1.647C38.694,70.179,38.078,70.445,37.458,70.445z"/>
			</g>
			<g>
				<path style="fill:#525D7D;" d="M68.491,41.966c-0.647,0-1.288-0.289-1.712-0.842c-0.728-0.946-0.551-2.301,0.394-3.028
					c0.781-0.6,1.562-1.186,2.342-1.76c0.96-0.704,2.311-0.499,3.018,0.462c0.706,0.96,0.499,2.312-0.462,3.018
					c-0.755,0.554-1.51,1.12-2.263,1.701C69.413,41.82,68.95,41.966,68.491,41.966z M79.192,34.681
					c-0.741,0-1.463-0.382-1.864-1.068c-0.603-1.029-0.257-2.352,0.772-2.953c0.848-0.498,1.704-0.98,2.569-1.449
					c1.043-0.566,2.359-0.181,2.927,0.869c0.569,1.047,0.18,2.359-0.869,2.927c-0.824,0.447-1.638,0.907-2.446,1.379
					C79.938,34.585,79.563,34.681,79.192,34.681z"/>
			</g>
			<g>
				<path style="fill:#525D7D;" d="M146.149,29.978c-0.152,0-0.306-0.015-0.462-0.049c-0.919-0.201-1.84-0.389-2.761-0.564
					c-1.172-0.222-1.941-1.352-1.719-2.523c0.222-1.172,1.362-1.94,2.523-1.719c0.96,0.183,1.92,0.377,2.879,0.586
					c1.165,0.256,1.903,1.406,1.649,2.571C148.037,29.289,147.143,29.978,146.149,29.978z M133.358,28.001
					c-0.066,0-0.132-0.003-0.198-0.008c-0.936-0.086-1.872-0.157-2.809-0.215c-1.189-0.073-2.094-1.098-2.021-2.288
					c0.073-1.188,1.051-2.082,2.288-2.021c0.978,0.06,1.957,0.135,2.932,0.224c1.188,0.108,2.063,1.16,1.955,2.346
					C135.403,27.159,134.461,28.001,133.358,28.001z"/>
			</g>
			<g>
				<path style="fill:#525D7D;" d="M200.092,74.796c-0.82,0-1.604-0.468-1.965-1.262c-0.384-0.842-0.787-1.68-1.21-2.513
					c-0.541-1.063-0.117-2.363,0.946-2.903c1.064-0.544,2.363-0.117,2.903,0.946c0.451,0.887,0.88,1.781,1.289,2.676
					c0.496,1.085,0.017,2.366-1.067,2.86C200.696,74.735,200.391,74.796,200.092,74.796z M193.553,63.639
					c-0.657,0-1.305-0.298-1.729-0.863c-0.552-0.737-1.123-1.456-1.715-2.155c-0.77-0.909-0.656-2.273,0.254-3.043
					c0.911-0.769,2.274-0.655,3.043,0.254c0.645,0.763,1.269,1.548,1.872,2.352c0.716,0.954,0.521,2.308-0.432,3.024
					C194.458,63.498,194.004,63.639,193.553,63.639z M184.392,54.551c-0.43,0-0.863-0.128-1.24-0.392
					c-0.745-0.524-1.507-1.012-2.263-1.451c-1.032-0.599-1.383-1.919-0.786-2.95c0.599-1.034,1.923-1.379,2.95-0.786
					c0.866,0.502,1.735,1.059,2.581,1.653c0.976,0.686,1.21,2.033,0.526,3.008C185.74,54.232,185.071,54.551,184.392,54.551z"/>
			</g>
		</g>
	</g>
</g>
<g id="Layer_1">
</g>
</svg>
