<?xml version="1.0" encoding="iso-8859-1"?>
<!-- Generator: Adobe Illustrator 21.0.2, SVG Export Plug-In . SVG Version: 6.00 Build 0)  -->
<svg version="1.1" xmlns="http://www.w3.org/2000/svg" xmlns:xlink="http://www.w3.org/1999/xlink" x="0px" y="0px"
	 viewBox="0 0 140.435 191.196" style="enable-background:new 0 0 140.435 191.196;" xml:space="preserve">
<g id="_x39_8">
	<g>
		<g>
			<path style="fill:#E0DFE6;" d="M59.563,86.186c-1.452-1.781-3.66-1.938-5.82-1.784c-0.213-1.139-0.864-2.171-2.021-2.922
				c-4.317-2.801-7.714-1.28-11.747,1.345c-3.715,2.417-4.441,5.537-5.145,9.844c-0.889,5.449-1.11,10.424-6.652,13.006
				c-4.356,2.03-9.363,1.119-13.504,3.664c-0.541,0.333-0.87,1.174-0.456,1.741c4.666,6.393,14.836,6.268,21.322,2.698
				c8.685-4.781,8.302-13.101,10.73-21.288c1.525-0.665,2.907-0.95,4.131-1.626c0.24,0.071,0.494,0.126,0.771,0.153
				c2.796,0.276,6.345,0.979,8.392-1.531C60.424,88.429,60.43,87.249,59.563,86.186z"/>
			<path style="fill:#E0DFE6;" d="M77.657,53.044c-2.467,0.864-4.15,3.234-6.861,3.48c-2.529,0.23-4.574-1.402-7.017-1.456
				c-1.194-0.026-1.899,0.959-2.03,2.03c-0.552,4.525,5.336,7.568,9.047,8.015c4.755,0.574,11.014-1.488,12.376-6.553
				C84.012,55.438,80.967,51.886,77.657,53.044z"/>
			<path style="fill:#E0DFE6;" d="M48.815,48.938c-1.113-4.042-5.7-2.691-8.152-0.928c-2.253,1.62-4.561,2.097-7.044,3.205
				c-2.571,1.147-1.892,4.639,0,5.955C38.769,60.754,50.849,56.321,48.815,48.938z"/>
			<path style="fill:#E0DFE6;" d="M127.921,155.607c-0.96-5.963-4.851-12.121-10.489-12.104c-0.05-4.259-0.603-8.501,0.06-12.828
				c0.993-6.478,3.432-12.694,6.196-18.594c5.001-10.678,11.271-20.817,14.42-32.278c5.59-20.35,1.151-42.116-13.754-57.181
				c-0.765-0.774-1.843,0.203-1.427,1.101c10.103,21.877,10.389,44.933-0.379,66.464c-0.476,0.952-0.964,1.898-1.453,2.845
				c4.761-20.623,4.182-42.602-8.889-59.622c-8.209-10.689-19.203-16.681-32.37-18.95c-7.017-1.209-14.161-1.823-21.256-2.362
				c-8.026-0.609-18.696,0.697-26.087-2.91c-1.758-0.858-3.958,0.948-2.819,2.819c6.137,10.074,19.99,7.687,30.293,8.562
				c13.748,1.168,27.489,2.427,38.384,11.695c-0.199,0.359-0.281,0.79-0.189,1.185c2.159,9.226,4.141,17.514,4.362,27.157
				c0.274,11.942-2.503,21.345-8.741,31.435C83.952,107.944,77.488,127.916,81,146.847c0.586,3.156,3.495,5.387,6.34,6.34
				c0.284,0.095,0.567,0.19,0.851,0.285c2.837,0.95,5.663,0.053,7.761-1.758c3.509,4.427,11.721,2.144,12.133-3.297
				c0.218,0.349,0.432,0.7,0.68,1.03c1.557,2.068,5.35,2.905,7.285,1.164c1.481,1.647,1.855,3.999,1.529,6.472
				c-1.12-1.575-3.021-2.571-5.442-1.97c-11.672,2.897-24.956,2.494-36.916,3.445c-11.469,0.912-22.896,1.503-34.238,3.523
				c-1.819,0.324-1.766,3.258,0,3.622c12.286,2.539,24.787,2.824,37.303,2.543c11.85-0.266,25.102-0.099,36.654-2.966
				c1.821-0.452,2.902-1.565,3.406-2.893c0.667,0.93,1.636,1.678,2.909,2.155c5.606,2.104,6.534,7.648,5.96,12.878
				c-19.317,1.203-38.632,2.036-57.969,2.85c-9.731,0.41-19.461,0.807-29.189,1.267c-9.247,0.437-19.228,0.058-27.914,3.56
				c-0.664,0.268-1.089,1.401-0.232,1.772c7.862,3.401,16.605,3.399,25.072,3.797c10.232,0.481,20.486,0.563,30.727,0.522
				c20.31-0.08,40.67-1.056,60.938-2.34c3.041,1.897,7.741,1.339,8.897-3.134C140.532,174.156,138.751,161.145,127.921,155.607z"/>
			<path style="fill:#E0DFE6;" d="M91.388,52.254c-0.925-2.354-3.371-3.692-5.768-2.346c-4.116,2.31-4.854,8.102-8.52,11.13
				c-2.104,1.738-8.79,3.77-6.958,7.613c0.438,0.918,1.065,1.535,1.806,1.936c-0.202,0.258-0.403,0.517-0.605,0.775
				c-0.036,0.043-0.05,0.09-0.082,0.134c-5.446,6.624-12.416,7.994-20.161,3.458c-0.199-0.116-0.388-0.141-0.556-0.107
				c-1.182-1.156-2.255-2.404-3.725-3.257c-0.586-0.34-1.352-0.356-1.937,0c-0.213,0.129-0.425,0.259-0.637,0.388
				c-0.088,0.054-0.145,0.126-0.218,0.19c-4.501,2.997-10.388,7.796-12.722,12.604c-0.661,1.363-0.663,2.759-0.88,4.214
				c-0.383,2.563-0.692,5.052-1.463,7.54c-0.121,0.391-4.075,10.482-5.701,6.971c-0.286-0.617-0.833-0.953-1.44-1.079
				c1.076-2.76,1.714-5.988-0.209-8.399c-0.82-1.028-2.717-1.173-3.781-0.488c-1.181,0.761-1.708,1.859-2.407,3.014
				c-0.023,0.038-0.101,0.148-0.194,0.279c-0.319,0.168-0.616,0.371-0.864,0.619c-0.829,0.828-1.36,1.888-1.673,3.011
				c-0.62,2.228,0.586,4.572,2.677,5.455c0.991,0.418,2.214,0.459,3.306,0.127c0.12,1.079,0.785,2.076,1.936,2.347
				c7.299,1.719,10.41-1.368,12.747-8.163c1.547-4.498,1.262-9.661,3.466-13.785c2.192-4.1,5.44-7.4,7.858-11.347
				c0.136,0.035,0.27,0.074,0.424,0.075c0.986,0.005,3.118,2.848,4.094,3.503c1.464,0.983,3.129,1.702,4.841,2.129
				c0.676,0.168,1.349,0.274,2.018,0.34c2.087,0.678,4.37,0.864,6.404,0.621c5.615-0.672,9.95-4.266,13.253-8.608
				c0.207-0.247,0.421-0.537,0.672-0.883c0.342-0.479,0.452-0.95,0.407-1.381c2.787-0.654,5.652-2.273,7.17-3.461
				C87.897,64.343,93.487,57.593,91.388,52.254z"/>
			<path style="fill:#E0DFE6;" d="M83.274,122.138c-5.099,2.27-8.845,5.975-11.966,10.558c-0.08,0.118-0.308,0.472-0.622,0.967
				c-0.28-1.665-1.112-3.053-2.855-3.556c-8.553-2.465-17.113,13.173-19.291,19.795c-0.543,1.652,1.604,2.641,2.755,1.603
				c0.209-0.188,0.562-0.554,1.021-1.046c1.156,1.128,2.821,1.706,4.683,1.158c6.723-1.979,14.963-0.038,22.032-0.798
				c3.024-0.325,5.75-2.885,4.727-6.205c-1.811-5.873,1.834-10.552,5.354-14.912C92.605,125.375,88.37,119.869,83.274,122.138z"/>
		</g>
		<g>
			<g>
				<path style="fill:#525D7D;" d="M109.789,154.335c-1.068,0-1.996-0.791-2.138-1.879c-0.228-1.736-0.599-3.76-1.03-6.102
					c-1.101-5.987-2.47-13.435-2.47-21.765c0-10.975,2.844-19.243,5.594-27.24c2.695-7.835,5.24-15.236,5.24-25.036
					c0-38.559-29.438-52.242-54.647-52.242c-6.029,0-12.219,0.408-18.204,0.801c-2.817,0.184-5.61,0.368-8.355,0.509
					c-0.616,0.025-1.182-0.188-1.612-0.605c-4.631-4.481-9.235-8.037-13.548-10.485c1.126,3.15,2.198,6.318,3.247,9.416
					c0.853,2.523,1.706,5.045,2.586,7.554c0.164,0.465,0.163,0.974-0.003,1.439C12.083,63.405,5.332,86.534,4.371,97.479
					c2.359,3.085,8.525,6.519,17.123,9.512c0.714,0.249,1.427,0.37,2.176,0.37c2.97,0,5.908-1.902,8.681-3.954
					c1.488-3.948,2.184-7.283,2.184-10.451c0-1.896-0.211-3.581-0.644-5.15c-0.207-0.748,0.003-1.548,0.55-2.097
					c1.6-1.608,3.233-3.184,4.865-4.758c1.85-1.785,3.763-3.631,5.582-5.486c0.458-0.467,1.089-0.703,1.751-0.638
					c0.649,0.063,1.237,0.418,1.595,0.964c2.782,4.234,7.683,6.969,12.489,6.969c5.122,0,7.162-2.124,12.611-7.801
					c1.224-1.275,2.593-2.7,4.175-4.282c0.843-0.843,2.21-0.843,3.053,0c0.843,0.843,0.843,2.21,0,3.053
					c-1.558,1.559-2.907,2.963-4.113,4.22c-5.651,5.885-8.763,9.128-15.726,9.128c-5.379,0-10.832-2.617-14.509-6.827
					c-1.304,1.292-2.623,2.564-3.91,3.806c-1.323,1.276-2.644,2.551-3.948,3.844c0.335,1.58,0.498,3.246,0.498,5.055
					c0,3.874-0.857,7.876-2.699,12.593c-0.146,0.375-0.395,0.701-0.717,0.943c-3.347,2.509-7.292,5.187-11.768,5.187
					c-1.221,0-2.432-0.205-3.594-0.609c-7.197-2.505-16.463-6.594-19.748-11.851c-0.24-0.385-0.353-0.835-0.323-1.288
					c0.741-11.099,7.323-33.988,20.122-69.963c-0.797-2.286-1.573-4.581-2.35-6.876c-1.598-4.722-3.251-9.603-5.05-14.294
					c-0.306-0.798-0.112-1.704,0.496-2.307c0.607-0.602,1.51-0.79,2.311-0.475c5.973,2.35,12.347,6.723,18.955,13.002
					c2.425-0.132,4.885-0.294,7.363-0.457c6.055-0.398,12.318-0.81,18.488-0.81c43.523,0,58.965,30.469,58.965,56.56
					c0,10.521-2.783,18.615-5.475,26.44c-2.756,8.014-5.36,15.581-5.36,25.836c0,7.936,1.33,15.171,2.399,20.983
					c0.441,2.402,0.822,4.477,1.064,6.324c0.155,1.182-0.679,2.266-1.861,2.42C109.977,154.329,109.882,154.335,109.789,154.335z"/>
			</g>
			<g>
				<path style="fill:#525D7D;" d="M23.335,155.179c-1.16,0-2.118-0.921-2.156-2.089c-0.03-0.891-0.045-1.781-0.045-2.671
					c0-22.052,8.996-30.996,21.447-43.375c6.498-6.462,13.864-13.785,21.666-24.559c0.699-0.966,2.051-1.179,3.015-0.482
					c0.966,0.699,1.182,2.049,0.482,3.015c-8.008,11.058-15.504,18.512-22.119,25.088c-12.147,12.079-20.174,20.057-20.174,40.314
					c0,0.842,0.015,1.687,0.042,2.53C25.534,154.142,24.599,155.14,23.335,155.179z"/>
			</g>
			<g>
				<path style="fill:#525D7D;" d="M38.341,54.335c-2.016,0-3.843-0.723-5.147-2.037c-1.285-1.293-1.986-3.05-1.972-4.948
					c0.021-3.219,2.194-5.909,5.167-6.397c0.263-0.043,0.506-0.097,0.737-0.148c0.689-0.15,1.477-0.323,2.38-0.216
					c2.838,0.318,5.885,2.766,5.939,6.675c0.024,1.823-0.717,3.635-2.035,4.972C42.077,53.588,40.277,54.333,38.341,54.335z
					 M38.942,44.876c-0.211,0-0.534,0.069-0.902,0.149c-0.295,0.065-0.609,0.132-0.946,0.187c-1.061,0.174-1.549,1.245-1.555,2.168
					c-0.006,0.739,0.25,1.404,0.717,1.875c0.495,0.499,1.216,0.762,2.083,0.762c0.987-0.001,1.629-0.441,1.995-0.811
					c0.505-0.513,0.8-1.216,0.791-1.882c-0.021-1.525-1.243-2.347-2.103-2.444C38.998,44.876,38.972,44.876,38.942,44.876z"/>
			</g>
			<g>
				<path style="fill:#525D7D;" d="M71.287,66.615c-0.072,0-0.143,0-0.216-0.001c-6.356-0.101-13.463-5.618-13.497-13.373
					c-0.034-6.934,5.287-12.886,12.114-13.548c0.252-0.024,0.498-0.041,0.742-0.051c8.968-0.321,14.544,6.071,14.837,12.415
					c0.17,3.686-1.309,7.423-4.058,10.257C78.511,65.092,74.995,66.615,71.287,66.615z M70.104,43.991
					c-4.551,0.441-8.234,4.581-8.212,9.228c0.024,5.534,5.402,9.016,9.248,9.076c2.614,0.069,5.059-1.021,6.969-2.99
					c1.895-1.952,2.957-4.588,2.845-7.049c-0.193-4.19-3.863-8.51-10.361-8.299C70.44,43.964,70.272,43.975,70.104,43.991z"/>
			</g>
			<g>
				<path style="fill:#525D7D;" d="M111.11,123.876c-0.209,0-0.422-0.03-0.632-0.094c-1.14-0.348-1.782-1.556-1.434-2.696
					c2.572-8.42,5.996-16.387,9.307-24.091c6.05-14.082,11.765-27.382,11.765-41.837c0-18.987-8.223-50.839-63.293-50.839
					c-13.819,0-27.475,3.085-39.491,8.924c-1.073,0.521-2.363,0.073-2.886-0.999c-0.52-1.072-0.073-2.364,0.999-2.886
					C38.047,3.236,52.355,0,66.823,0c42.967,0,67.611,20.103,67.611,55.157c0,15.344-5.885,29.04-12.115,43.541
					c-3.265,7.599-6.642,15.456-9.145,23.65C112.89,123.278,112.034,123.876,111.11,123.876z"/>
			</g>
			<g>
				<path style="fill:#525D7D;" d="M15.188,102.122c-0.223,0-0.451-0.035-0.675-0.108c-1.133-0.373-1.749-1.593-1.376-2.726
					c-0.008-0.237-0.044-0.458-0.073-0.683c-0.055-0.423-0.105-0.853-0.105-1.28c0-1.539,0.626-2.79,1.858-3.715
					c0.953-0.717,2.307-0.523,3.022,0.43c0.717,0.953,0.524,2.307-0.43,3.022c-0.086,0.065-0.117,0.105-0.124,0.114
					c0,0-0.008,0.046-0.008,0.149c0,0.24,0.038,0.483,0.069,0.721c0.055,0.416,0.101,0.825,0.101,1.217
					c0,0.5-0.068,0.95-0.208,1.375C16.94,101.547,16.096,102.122,15.188,102.122z"/>
			</g>
			<g>
				<path style="fill:#525D7D;" d="M13.437,169.493c-1.223-0.017-2.176-0.998-2.159-2.19c0.163-11.377,5.772-16.908,17.146-16.908
					c1.257,0,2.526,0.049,3.787,0.097c1.186,0.046,2.364,0.093,3.513,0.093c0.165-0.001,0.647-0.025,1.347-0.058
					c2.104-0.098,6.019-0.283,9.522-0.283c5.052,0,9.979,0.229,14.325,0.43c3.448,0.16,6.705,0.312,9.339,0.312
					c5.003,0,10.098-0.313,15.026-0.616c4.962-0.306,10.094-0.621,15.167-0.621c13.529,0,19.704,0,19.704,13.304
					c0,0.426-0.007,0.849-0.02,1.268c-0.032,1.171-0.992,2.099-2.156,2.099c-1.254-0.034-2.193-1.028-2.159-2.22
					c0.01-0.38,0.017-0.762,0.017-1.147c0-8.736-1.303-8.986-15.386-8.986c-4.941,0-10.005,0.312-14.903,0.613
					c-4.993,0.306-10.154,0.624-15.291,0.624c-2.735,0-6.04-0.153-9.54-0.316c-4.3-0.2-9.172-0.426-14.124-0.426
					c-3.402,0-7.252,0.181-9.319,0.278c-0.814,0.038-1.369,0.062-1.549,0.062c-1.203,0-2.437-0.048-3.68-0.096
					c-1.205-0.046-2.418-0.094-3.62-0.094c-9.101,0-12.698,3.548-12.828,12.652C15.579,168.547,14.615,169.493,13.437,169.493z"/>
			</g>
			<g>
				<path style="fill:#525D7D;" d="M5.177,190.392c-1.137,0-2.083-0.885-2.153-2.027c-0.122-1.985-0.204-3.653-0.204-5.348
					c0-8.597,1.418-14.478,8.479-17.232c5.947-2.319,15.778-2.301,32.071-2.305l3.333,0.001c6.262,0,12.617,0.084,18.761,0.166
					c6.134,0.08,12.476,0.165,18.717,0.165c23.187,0,31.205-1.787,31.282-1.805c0.159-0.037,0.328-0.056,0.491-0.056
					c8.428,0,11.561,6.102,11.561,22.513c0,0.342-0.004,0.684-0.014,1.025c-0.03,1.151-0.957,2.076-2.107,2.103
					C125.394,187.59,5.229,190.392,5.177,190.392z M40.358,167.796c-14,0-22.639,0.12-27.489,2.012
					c-3.801,1.482-5.731,3.932-5.731,13.209c0,0.975,0.03,1.955,0.08,3.009l115.973-2.704c-0.169-16.622-4.043-17.042-7.009-17.053
					c-1.587,0.326-10.217,1.861-32.002,1.861c-6.269,0-12.627-0.084-18.774-0.166c-6.131-0.08-12.471-0.165-18.705-0.165
					l-3.336-0.001C42.338,167.798,41.333,167.796,40.358,167.796z"/>
			</g>
			<g>
				<path style="fill:#525D7D;" d="M45.991,19.018c-1.096,0-2.034-0.831-2.145-1.945c-0.093-0.918-0.162-1.836-0.231-2.748
					c-0.201-2.679-0.392-5.209-1.141-7.457c-0.378-1.132,0.233-2.355,1.365-2.731c1.13-0.377,2.353,0.233,2.731,1.365
					c0.919,2.755,1.139,5.675,1.352,8.498c0.066,0.879,0.132,1.761,0.219,2.645c0.119,1.186-0.748,2.243-1.934,2.362
					C46.136,19.015,46.063,19.018,45.991,19.018z"/>
			</g>
			<g>
				<path style="fill:#525D7D;" d="M67.343,19.018c-1.192,0-2.159-0.967-2.159-2.159c0-2.024,0.215-3.944,0.422-5.803
					c0.201-1.792,0.389-3.483,0.389-5.208c0-0.559-0.02-1.125-0.068-1.695c-0.098-1.188,0.786-2.231,1.975-2.329
					c1.168-0.091,2.231,0.784,2.329,1.975c0.056,0.689,0.082,1.372,0.082,2.05c0,1.965-0.211,3.857-0.416,5.687
					c-0.202,1.82-0.395,3.539-0.395,5.323C69.502,18.051,68.535,19.018,67.343,19.018z"/>
			</g>
			<g>
				<path style="fill:#525D7D;" d="M86.849,23.435c-0.277,0-0.558-0.053-0.829-0.166c-1.101-0.46-1.621-1.723-1.162-2.824
					c0.922-2.21,1.843-4.512,2.763-6.813c0.919-2.3,1.839-4.599,2.758-6.806c0.458-1.101,1.723-1.619,2.824-1.163
					c1.101,0.458,1.621,1.723,1.162,2.824c-0.912,2.189-1.823,4.469-2.735,6.748c-0.929,2.321-1.857,4.643-2.786,6.871
					C88.498,22.936,87.695,23.435,86.849,23.435z"/>
			</g>
			<g>
				<path style="fill:#525D7D;" d="M103.116,32.723l-3.052-3.054c4.397-4.395,9.38-9.377,15.122-12.821
					c1.02-0.614,2.347-0.281,2.962,0.741c0.614,1.022,0.283,2.349-0.741,2.962C112.121,23.721,107.544,28.297,103.116,32.723z
					 M101.573,31.213h0.014H101.573z"/>
			</g>
			<g>
				<path style="fill:#525D7D;" d="M112.249,48.463c-0.772,0-1.518-0.415-1.906-1.143c-0.561-1.053-0.163-2.36,0.888-2.921
					c3.584-1.912,7.35-3.385,10.991-4.809c2.121-0.829,4.312-1.687,6.459-2.626c1.098-0.482,2.367,0.02,2.843,1.112
					c0.478,1.092-0.02,2.366-1.112,2.844c-2.225,0.974-4.459,1.847-6.618,2.692c-3.687,1.442-7.172,2.804-10.531,4.596
					C112.94,48.382,112.592,48.463,112.249,48.463z"/>
			</g>
			<g>
				<path style="fill:#525D7D;" d="M128.086,69.912c-2.704,0-5.441-0.277-8.088-0.544c-1.063-0.107-2.114-0.214-3.146-0.299
					c-1.188-0.1-2.071-1.143-1.972-2.332c0.1-1.189,1.146-2.054,2.332-1.972c1.056,0.089,2.132,0.197,3.22,0.308
					c2.54,0.256,5.167,0.521,7.654,0.521c0.836,0,1.639-0.031,2.385-0.094c1.195-0.084,2.234,0.783,2.332,1.972
					c0.098,1.189-0.784,2.232-1.972,2.332C129.965,69.876,129.042,69.912,128.086,69.912z"/>
			</g>
			<g>
				<path style="fill:#525D7D;" d="M119.98,95.208c-0.118,0-0.236-0.01-0.357-0.03c-2.553-0.423-4.679-0.888-6.885-2.652
					c-0.931-0.745-1.081-2.103-0.336-3.035c0.744-0.929,2.1-1.084,3.035-0.336c1.399,1.119,2.782,1.413,4.894,1.764
					c1.177,0.195,1.971,1.307,1.775,2.484C121.931,94.459,121.016,95.208,119.98,95.208z"/>
			</g>
		</g>
	</g>
</g>
<g id="Layer_1">
</g>
</svg>
