<?xml version="1.0" encoding="iso-8859-1"?>
<!-- Generator: Adobe Illustrator 21.0.2, SVG Export Plug-In . SVG Version: 6.00 Build 0)  -->
<svg version="1.1" xmlns="http://www.w3.org/2000/svg" xmlns:xlink="http://www.w3.org/1999/xlink" x="0px" y="0px"
	 viewBox="0 0 196.031 194.818" style="enable-background:new 0 0 196.031 194.818;" xml:space="preserve">
<g id="_x39_9">
	<g>
		<g>
			<g>
				<path style="fill:none;" d="M129.235,64.423c0.596-0.505,1.185-1.017,1.759-1.548c-0.931,0.077-1.85,0.102-2.756,0.102
					C128.553,63.472,128.884,63.955,129.235,64.423z"/>
				<path style="fill:#E0DFE6;" d="M174.639,21.364c-1.957,0.663-3.41,2.227-4.731,3.854c-2.43-1.469-5.826-1.337-7.228,1.687
					c-1.391,3-2.48,5.986-3.193,9.137c0.283-2.24,0.451-4.494,0.465-6.755c1.625-1.194,2.666-2.963,2.715-5.171
					c0.007-0.327,0.014-0.653,0.021-0.98c0.063-2.875-1.891-4.773-4.304-5.375c-2.377-3.81-8.317-2.779-11.031,0.83
					c-10.191,0.703-20.85-0.106-30.881,0.309c-14.548,0.603-28.64,2.341-43.074,3.947c-2.992,0.333-3.03,4.388,0,4.686
					c14.962,1.474,29.538,3.014,44.612,3.441c7.177,0.203,14.358,0.167,21.537,0.198c2.06,0.009,4.284,0.166,6.54,0.275
					c-0.317,4.309-1.151,8.478-2.53,12.455c-6.151,0.526-10.212,5.783-16.832,5.375c-7.259-0.446-11.112-7.15-17.938-8.454
					C98.073,38.776,88.696,45.603,85.11,55.34c-0.542,1.47,1.444,2.307,2.441,1.421c0.172-0.152,0.346-0.287,0.519-0.432
					c0.078,0.554,0.403,1.051,1.05,1.177c1.989,0.384,4.135,0.582,6.223,0.963c0.635,0.155,1.274,0.296,1.919,0.417
					c1.569,0.412,3.065,1.005,4.383,1.957c4.416,3.187,5.811,9.717,6.582,14.936c-5.138,1.503-10.529,2.602-14.933,5.464
					c-1.726,1.122-2.088,4.048,0,5.081c15.402,7.62,38.439-5.204,49.29-15.923c8.356-8.254,14.026-19.023,16.276-30.453
					c-0.027,1.735,0.775,3.493,1.993,4.73c-1.268,1.362-2.413,2.845-3.368,4.589c-0.56,1.024,0.392,2.625,1.649,2.145
					c10.165-3.878,24.214-7.35,24.393-20.966C183.593,25.563,180.556,19.36,174.639,21.364z M129.235,64.423
					c-0.352-0.469-0.683-0.951-0.997-1.446c0.906,0,1.824-0.025,2.756-0.102C130.421,63.406,129.831,63.918,129.235,64.423z"/>
			</g>
			<path style="fill:#E0DFE6;" d="M43.767,37.911c0.782-1.011,1.395-2.237,1.675-3.757c1.05-5.694-5.101-9.38-9.556-5.563
				c-1.321,1.132-3.154,0.516-5.085,0.036c-3.04-0.756-6.025-1.752-9.175-1.281c-0.844,0.126-1.316,1.051-1.373,1.804
				c-0.012,0.165-0.002,0.325-0.005,0.488c-0.141-0.028-0.29-0.035-0.445-0.014c-7.118,0.948-4.587,10.622-1.419,14.347
				c5.205,6.118,14.511,7.8,21.751,10.295c5.266,1.814,8.253-5.047,5.52-8.535c0.62-0.558,1.102-1.278,1.338-2.135
				C47.712,40.98,46.101,38.819,43.767,37.911z M24.635,37.456c1.618,1.218,3.558,2.162,5.592,2.789
				c-0.047,0.212-0.054,0.425-0.056,0.638c-1.595-0.594-3.084-1.309-4.334-2.246C25.337,38.263,24.96,37.866,24.635,37.456z"/>
			<path style="fill:#E0DFE6;" d="M148.826,107.364c-3.128,0.227-6.257,0.436-9.386,0.638c-0.441-1.558-2.028-2.861-3.511-3.258
				c-5.013-1.341-10.079-1.879-14.998-3.701c-2.573-0.953-4.275-1.758-5.137-4.459c-0.743-2.328-0.451-4.373-1.712-6.571
				c-0.988-1.721-3.729-2.252-5.116-0.659c-4.759,5.467-2.843,14.041,2.522,18.337c0.865,0.692,1.827,1.34,2.849,1.95
				c-11.711,0.859-23.085,2.703-34.654,3.926c-1.988,0.21-2.01,2.92,0,3.11c11.662,1.102,22.804,2.503,34.592,2.499
				c7.386-0.002,14.777-0.286,22.16-0.673c-1.332,0.273-2.853,1.732-3.047,3.091c-1.042,7.298-0.441,14.507-0.057,21.841
				c0.346,6.618-0.521,12.477,3.695,17.809c1.802,2.279,5.416,1.226,6.749-0.87c3.521-5.532,1.673-12.144,1.18-18.416
				c-0.537-6.833-0.912-13.797-2.985-20.365c-0.491-1.556-1.831-2.892-3.459-3.197c3.44-0.19,6.879-0.393,10.314-0.612
				C155.499,117.363,155.516,106.877,148.826,107.364z"/>
			<path style="fill:#E0DFE6;" d="M113.089,126.783c-1.19-0.177-2.53,1.009-1.72,2.238c3.239,4.916,9.032,12.25,5.812,18.44
				c-2.783,5.352-11.433,4.513-15.822,8.581c-1.574,1.459-0.984,4.915,1.382,5.233c10.443,1.404,21.951,0.248,25.202-11.652
				C130.828,139.055,123.856,128.382,113.089,126.783z"/>
			<path style="fill:#E0DFE6;" d="M140.885,164.196c-6.345-3.767-12.052,6.05-5.77,9.871c0.199,0.121,0.415,0.245,0.643,0.373
				c-12.685,0.084-25.362,0.435-38.033,1.222c-8.584,0.533-17.188,1.058-25.72,2.153c-7.481,0.96-15.247,1.454-22.118,4.728
				c-1.535,0.731-1.062,3.132,0.462,3.534c7.48,1.974,15.499,1.095,23.168,0.956c8.576-0.155,17.146-0.651,25.722-0.859
				c17.168-0.416,34.346-0.606,51.517-0.323c2.587,0.043,4.733-1.815,5.497-4.185C159.243,172.392,147.136,167.908,140.885,164.196z
				"/>
			<path style="fill:#E0DFE6;" d="M184.733,24.215c-0.224-1.439-1.733-2.757-3.087-3.087l-0.931-0.227
				c-1.435-0.35-2.554,0.277-3.394,1.381c-1.634,2.149-0.978,3.483-0.652,5.886c0.546,4.022-0.445,7.622-2.797,10.925
				c-4.11,5.771-11.016,7.975-16.533,12.045c-1.143,0.843-0.793,2.65,0.737,2.722C173.734,54.586,187.114,39.513,184.733,24.215z"/>
			<path style="fill:#E0DFE6;" d="M169.687,181.346c-0.446-1.871-2.005-3.304-3.806-3.884c0.52-7.15-7.911-10.755-9.406-18.296
				c-0.498-2.511-0.597-33.845,0.096-34.062c1.649-0.517,3.535-1.947,3.802-3.802c0.83-5.781,1.482-12.047-1.88-17.19
				c-3.56-5.447-9.564-6.04-15.512-6.716c-2.477-0.282-9.383,0.334-10.972-1.56c-2.152-2.566,2.983-5.636,5.3-7.488
				c6.431-5.139,14.032-8.444,20.452-13.496c1.815-1.428,0.312-4.754-1.902-4.592c-7.956,0.583-15.662,4.911-22.152,9.329
				c-5.044,3.433-13.029,8.4-13.407,15.235c-0.313,5.669,4.783,9.948,9.764,11.462c3.283,0.998,6.856,1.216,10.241,1.645
				c2.841,0.36,7.72,0.121,9.523,2.951c0.781,1.226,0.59,3.679,0.329,5.602c-7.08,5.812-4.378,20.273-4.472,28.209
				c-0.078,6.536-1.345,14.325,0.938,20.611c2.202,6.064,8.143,8.789,9.715,15.29c0.132,0.545,0.381,1.022,0.699,1.442
				c-0.673-0.178-1.519-0.039-2.561,0.459c-3.689-0.64-8.694,0.594-12.459,0.796c-7.792,0.419-15.589,0.63-23.388,0.859
				c-7.799,0.229-15.596,0.311-23.397,0.393c-7.436,0.078-15.215-0.601-22.296,1.985c-1.349,0.493-1.922,2.54-0.432,3.303
				c7.791,3.987,17.263,3.869,25.846,4.353c10.904,0.615,21.838,0.774,32.755,0.512c9.989-0.24,20.44-0.091,30.343-1.521
				C167.898,192.245,171.212,187.736,169.687,181.346z"/>
			<path style="fill:#E0DFE6;" d="M137.487,120.801c-6.211-1.844-12.977-1.541-19.422-1.891c-7.697-0.418-15.396-0.844-23.104-1.017
				c-12.617-0.284-27.451-0.882-39.216,4.435c-1.192,0.539-0.857,2.519,0.364,2.785c12.937,2.809,27.189,1.608,40.393,2.356
				c13.16,0.746,27.979,4.008,40.984,1.924C142.06,128.66,141.378,121.957,137.487,120.801z"/>
		</g>
		<g>
			<g>
				<path style="fill:#525D7D;" d="M45.638,121.784c-1.168,0-2.127-0.931-2.158-2.101c-0.013-0.436-0.02-0.872-0.02-1.309
					c0-3.832,0.481-7.467,1.431-10.805c0.256-0.902,1.067-1.536,2.006-1.567l1.153-0.038c11.054-0.35,34.054-1.081,34.054-11.147
					c0-6.171-7.671-10.905-12.746-14.038l-1.186-0.737C47.953,67.406,38.936,45.295,38.936,8.354c0-1.82,0.02-3.641,0.052-5.467
					c0.021-1.172,0.973-2.114,2.145-2.121L163.21,0c1.179,0,2.135,0.925,2.172,2.092c0.127,4.01,0.239,7.943,0.239,11.956
					c0,48.607-26.862,63.23-39.771,70.256c-2.766,1.505-5.378,2.928-5.974,3.822c-0.297,0.535-0.658,2.889-0.658,4.003
					c0,6.753,7.333,14.021,23.433,14.021c2.096,0,4.259-0.081,6.351-0.159l1.175-0.044c1.001-0.035,1.989,0.697,2.196,1.739
					c0.562,2.844,0.925,5.715,1.078,8.535c0.031,0.588-0.177,1.161-0.579,1.591c-0.401,0.429-0.96,0.676-1.548,0.685
					c-7.409,0.103-14.806,0.149-22.201,0.194c-24.765,0.155-50.374,0.315-75.941,2.711
					C50.691,121.637,48.229,121.762,45.638,121.784z M48.656,110.265c-0.517,2.25-0.808,4.648-0.866,7.156
					c1.68-0.056,3.329-0.162,4.99-0.316c25.754-2.415,51.458-2.575,76.316-2.731c6.621-0.041,13.243-0.081,19.874-0.163
					c-0.124-1.289-0.292-2.584-0.506-3.878c-1.913,0.07-3.874,0.136-5.814,0.136c-19.067,0-27.752-9.506-27.752-18.339
					c0-0.71,0.24-4.681,1.382-6.397c1.189-1.782,3.701-3.15,7.503-5.221c13.112-7.138,37.518-20.424,37.518-66.464
					c0-3.251-0.076-6.465-0.171-9.717L43.274,5.071c-0.013,1.095-0.02,2.189-0.02,3.282c0,35.287,8.39,56.268,27.206,68.029
					l1.167,0.722c5.891,3.636,14.796,9.133,14.796,17.712C86.423,108.9,62.122,109.835,48.656,110.265z"/>
			</g>
			<g>
				<path style="fill:#525D7D;" d="M39.086,187.673c-0.594,0-1.162-0.245-1.572-0.679c-0.417-0.443-0.628-1.042-0.58-1.649
					c0.685-8.742,6.989-16.821,15.565-20.192c-0.495-6.762-0.675-13.614-0.85-20.255c-0.216-8.227-0.441-16.734-1.265-24.981
					c-0.119-1.186,0.746-2.245,1.933-2.363c1.189-0.142,2.245,0.746,2.363,1.933c0.84,8.406,1.067,16.993,1.286,25.297
					c0.188,7.128,0.382,14.499,0.966,21.679c0.081,1.005-0.544,1.934-1.508,2.235c-6.938,2.169-12.337,7.985-13.824,14.609
					l114.416-2.131c-0.47-6.002-6.436-11.247-12.353-13.864c-0.775-0.343-1.278-1.108-1.285-1.955
					c-0.051-5.611-0.152-11.249-0.253-16.894c-0.143-7.89-0.29-16.048-0.29-24.045c0-2.681,0.017-5.355,0.053-8.025
					c0.017-1.182,0.98-2.129,2.159-2.129c1.222,0.017,2.176,0.996,2.159,2.189c-0.036,2.65-0.053,5.305-0.053,7.966
					c0,7.959,0.146,16.096,0.288,23.966c0.094,5.204,0.187,10.402,0.242,15.577c6.577,3.278,13.68,9.686,13.68,17.971
					c0,0.498-0.018,0.999-0.051,1.503c-0.073,1.12-0.992,1.999-2.114,2.02C158.197,185.455,39.127,187.673,39.086,187.673z"/>
			</g>
			<g>
				<path style="fill:#525D7D;" d="M78.073,22.896c-8.286,0-16.609-0.51-24.659-1.004c-3.475-0.214-6.947-0.426-10.418-0.6
					c-1.191-0.059-2.107-1.073-2.048-2.265c0.059-1.191,1.092-2.086,2.265-2.048c3.487,0.174,6.975,0.388,10.466,0.602
					c7.985,0.491,16.241,0.997,24.395,0.997c6.879,0,14.432-0.725,23.177-1.566c11.895-1.143,25.377-2.437,42.037-2.437
					c6.892,0,13.778,0.301,20.24,0.61c1.192,0.056,2.111,1.068,2.054,2.259c-0.056,1.192-1.091,2.097-2.259,2.054
					c-6.411-0.305-13.238-0.604-20.034-0.604c-16.453,0-29.826,1.285-41.625,2.418C92.807,22.161,85.159,22.896,78.073,22.896z"/>
			</g>
			<g>
				<path style="fill:#525D7D;" d="M99.547,161.7c-0.115,0-0.23-0.001-0.346-0.003c-11.154-0.176-19.606-8.32-19.662-18.945
					c-0.052-10.352,9.049-19.208,19.876-19.337c0.551-0.013,1.108,0.008,1.661,0.051c9.679,0.711,17.63,7.801,18.902,16.861
					c0.101,0.711,0.155,1.439,0.156,2.161c0.011,4.686-2.183,9.655-5.867,13.293C110.392,159.604,105.175,161.7,99.547,161.7z
					 M99.648,127.732c-0.06,0-0.122,0-0.183,0.001c-8.501,0.101-15.649,6.969-15.608,14.997c0.037,6.985,5.451,14.494,15.41,14.65
					c5.905,0.11,9.755-2.489,11.965-4.672c2.879-2.841,4.592-6.659,4.584-10.211c-0.001-0.52-0.039-1.046-0.114-1.564
					c-0.992-7.065-7.277-12.597-14.943-13.16C100.388,127.744,100.018,127.732,99.648,127.732z"/>
			</g>
			<g>
				<path style="fill:#525D7D;" d="M101.076,153.74c-1.008,0-1.909-0.708-2.114-1.736c-0.409-2.04-0.59-4.178-0.59-6.935
					c0-1.155,0.031-2.311,0.065-3.465c-1.417,0.942-2.846,1.884-4.355,2.827c-1.009,0.632-2.343,0.325-2.974-0.686
					c-0.632-1.011-0.326-2.343,0.686-2.974c1.773-1.109,3.434-2.217,5.095-3.326c0.86-0.573,1.721-1.147,2.596-1.72
					c0.663-0.436,1.512-0.471,2.21-0.093c0.699,0.377,1.133,1.106,1.133,1.899v0.357c0,1.217-0.035,2.435-0.07,3.653
					c-0.034,1.175-0.068,2.352-0.068,3.528c0,2.461,0.156,4.339,0.506,6.089c0.235,1.168-0.524,2.307-1.694,2.54
					C101.36,153.726,101.217,153.74,101.076,153.74z"/>
			</g>
			<g>
				<path style="fill:#525D7D;" d="M75.432,170.312c-7.291,0-13.965-0.285-20.401-0.87c-1.188-0.108-2.063-1.158-1.955-2.346
					c0.108-1.189,1.172-2.058,2.346-1.955c6.306,0.575,12.852,0.853,20.011,0.853c15.016,0,32.204-1.396,43.579-2.319
					c6.397-0.519,11.02-0.894,13.341-0.894c2.182,0,4.322,0.142,6.394,0.28c2.04,0.136,4.149,0.277,6.271,0.277
					c1.192,0,2.159,0.967,2.159,2.159s-0.967,2.159-2.159,2.159c-2.265,0-4.448-0.145-6.557-0.285
					c-2.093-0.139-4.069-0.271-6.108-0.271c-2.146,0-6.933,0.388-12.991,0.88C107.918,168.908,90.623,170.312,75.432,170.312z"/>
			</g>
			<g>
				<path style="fill:#525D7D;" d="M71.159,81.578c-2.267,0-7.231-2.378-8.439-3.201c-6.781-4.61-15.812-8.184-24.545-11.637
					C19.406,59.315,0,51.639,0,32.809C0,21.703,9.218,4.685,20.577,4.685c0.691,0,1.392-0.014,2.093-0.027
					c0.737-0.014,1.476-0.028,2.215-0.028c10.372,0,16.816,4.561,16.816,11.903c0,7.689-5.407,15.64-14.457,15.64
					c-5.987,0-12.35-3.455-12.35-9.856c0-0.419,0.028-0.852,0.086-1.296c0.152-1.182,1.22-2.024,2.416-1.865
					c1.182,0.152,2.019,1.233,1.865,2.416c-0.032,0.256-0.049,0.503-0.049,0.745c0,4.034,4.927,5.538,8.032,5.538
					c6.585,0,10.139-5.833,10.139-11.322c0-7.038-9.565-7.585-12.498-7.585c-0.713,0-1.424,0.014-2.134,0.027
					c-0.729,0.014-1.455,0.028-2.174,0.028c-8.66,0-16.259,14.838-16.259,23.806c0,15.895,17.216,22.705,35.445,29.915
					c8.951,3.541,18.209,7.202,25.386,12.083c1.108,0.753,5.071,2.42,6.016,2.453c1.178,0.039,2.139,1.018,2.12,2.196
					C73.265,80.633,72.337,81.578,71.159,81.578z"/>
			</g>
			<g>
				<path style="fill:#525D7D;" d="M133.996,79.693c-0.715,0-1.415-0.356-1.827-1.006c-0.637-1.008-0.335-2.342,0.673-2.979
					c3.05-1.926,8.061-3.528,13.862-5.382c17.923-5.728,45.009-14.384,45.009-42.616c0-10.409-4.719-20.912-15.261-20.912
					c-3.909,0-10.905,5.721-10.905,11.351c0,3.859,1.702,5.579,5.519,5.579c2.723,0,5.871-1.451,6.349-4.637
					c0.176-1.178,1.28-2,2.456-1.815c1.179,0.177,1.992,1.276,1.815,2.456c-0.734,4.896-5.101,8.314-10.62,8.314
					c-6.251,0-9.837-3.607-9.837-9.897c0-7.773,8.857-15.669,15.223-15.669c11.528,0,19.579,10.375,19.579,25.23
					c0,31.385-28.893,40.619-48.012,46.73c-5.52,1.763-10.286,3.286-12.871,4.92C134.791,79.584,134.391,79.693,133.996,79.693z"/>
			</g>
			<g>
				<path style="fill:#525D7D;" d="M99.688,90.232c-9.118,0-16.814-1.678-23.528-5.132c-1.06-0.545-1.477-1.847-0.932-2.908
					c0.547-1.06,1.85-1.479,2.908-0.932c6.088,3.132,13.137,4.654,21.551,4.654c6.64,0,13.362-0.945,19.06-1.868
					c1.171-0.193,2.287,0.607,2.477,1.785c0.191,1.178-0.609,2.286-1.785,2.477C113.571,89.259,106.634,90.232,99.688,90.232z"/>
			</g>
		</g>
	</g>
</g>
<g id="Layer_1">
</g>
</svg>
